<?xml version="1.0" encoding="UTF-8" standalone="no"?>
<!DOCTYPE svg PUBLIC "-//W3C//DTD SVG 1.1//EN"
 "http://www.w3.org/Graphics/SVG/1.1/DTD/svg11.dtd">
<!-- Generated by graphviz version 2.38.0 (20140413.2041)
 -->
<!-- Title: arduino_lib.cpp Pages: 1 -->
<svg width="1458pt" height="375pt"
 viewBox="0.00 0.00 1457.50 375.00" xmlns="http://www.w3.org/2000/svg" xmlns:xlink="http://www.w3.org/1999/xlink">
<g id="graph0" class="graph" transform="scale(1 1) rotate(0) translate(4 371)">
<title>arduino_lib.cpp</title>
<polygon fill="white" stroke="none" points="-4,4 -4,-371 1453.5,-371 1453.5,4 -4,4"/>
<!-- Node1 -->
<g id="node1" class="node"><title>Node1</title>
<polygon fill="#bfbfbf" stroke="black" points="321,-347.5 321,-366.5 403,-366.5 403,-347.5 321,-347.5"/>
<text text-anchor="middle" x="362" y="-354.5" font-family="Helvetica,sans-Serif" font-size="10.00">arduino_lib.cpp</text>
</g>
<!-- Node2 -->
<g id="node2" class="node"><title>Node2</title>
<g id="a_node2"><a xlink:href="config_cosmos_8h.html" target="_top" xlink:title="Headers and definitions common to all COSMOS. ">
<polygon fill="white" stroke="black" points="563.5,-112.5 563.5,-131.5 686.5,-131.5 686.5,-112.5 563.5,-112.5"/>
<text text-anchor="middle" x="625" y="-119.5" font-family="Helvetica,sans-Serif" font-size="10.00">support/configCosmos.h</text>
</a>
</g>
</g>
<!-- Node1&#45;&gt;Node2 -->
<g id="edge1" class="edge"><title>Node1&#45;&gt;Node2</title>
<path fill="none" stroke="midnightblue" d="M403.087,-351.814C457.555,-345.528 549.843,-332.089 576,-311 622.34,-273.639 617.474,-246.399 629,-188 632.048,-172.558 630.598,-154.688 628.64,-141.598"/>
<polygon fill="midnightblue" stroke="midnightblue" points="632.048,-140.761 626.89,-131.506 625.15,-141.957 632.048,-140.761"/>
</g>
<!-- Node11 -->
<g id="node11" class="node"><title>Node11</title>
<polygon fill="white" stroke="#bfbfbf" points="62,-56.5 62,-75.5 108,-75.5 108,-56.5 62,-56.5"/>
<text text-anchor="middle" x="85" y="-63.5" font-family="Helvetica,sans-Serif" font-size="10.00">cstring</text>
</g>
<!-- Node1&#45;&gt;Node11 -->
<g id="edge48" class="edge"><title>Node1&#45;&gt;Node11</title>
<path fill="none" stroke="midnightblue" d="M320.932,-355.058C247.43,-350.957 101,-330.77 101,-235 101,-235 101,-235 101,-177 101,-144.626 94.1292,-107.445 89.3926,-85.6593"/>
<polygon fill="midnightblue" stroke="midnightblue" points="92.7774,-84.7588 87.1578,-75.7771 85.9498,-86.3028 92.7774,-84.7588"/>
</g>
<!-- Node16 -->
<g id="node16" class="node"><title>Node16</title>
<polygon fill="white" stroke="#bfbfbf" points="0,-56.5 0,-75.5 44,-75.5 44,-56.5 0,-56.5"/>
<text text-anchor="middle" x="22" y="-63.5" font-family="Helvetica,sans-Serif" font-size="10.00">fcntl.h</text>
</g>
<!-- Node1&#45;&gt;Node16 -->
<g id="edge46" class="edge"><title>Node1&#45;&gt;Node16</title>
<path fill="none" stroke="midnightblue" d="M320.886,-352.19C259.077,-345.872 145.745,-331.825 111,-311 74.0871,-288.876 51,-278.035 51,-235 51,-235 51,-235 51,-177 51,-143.716 38.4322,-106.584 29.8436,-85.0939"/>
<polygon fill="midnightblue" stroke="midnightblue" points="32.982,-83.5254 25.9111,-75.6354 26.5184,-86.2128 32.982,-83.5254"/>
</g>
<!-- Node28 -->
<g id="node28" class="node"><title>Node28</title>
<g id="a_node28"><a xlink:href="arduino__lib_8h.html" target="_top" xlink:title="device/arduino/arduino\l_lib.h">
<polygon fill="white" stroke="black" points="453,-280.5 453,-310.5 567,-310.5 567,-280.5 453,-280.5"/>
<text text-anchor="start" x="461" y="-298.5" font-family="Helvetica,sans-Serif" font-size="10.00">device/arduino/arduino</text>
<text text-anchor="middle" x="510" y="-287.5" font-family="Helvetica,sans-Serif" font-size="10.00">_lib.h</text>
</a>
</g>
</g>
<!-- Node1&#45;&gt;Node28 -->
<g id="edge33" class="edge"><title>Node1&#45;&gt;Node28</title>
<path fill="none" stroke="midnightblue" d="M383.205,-347.475C404.654,-338.852 438.452,-325.264 465.761,-314.285"/>
<polygon fill="midnightblue" stroke="midnightblue" points="467.147,-317.501 475.119,-310.523 464.535,-311.006 467.147,-317.501"/>
</g>
<!-- Node31 -->
<g id="node31" class="node"><title>Node31</title>
<g id="a_node31"><a xlink:href="cssl__lib_8h.html" target="_top" xlink:title="Simple Serial library header file. ">
<polygon fill="white" stroke="black" points="311.5,-280.5 311.5,-310.5 412.5,-310.5 412.5,-280.5 311.5,-280.5"/>
<text text-anchor="start" x="319.5" y="-298.5" font-family="Helvetica,sans-Serif" font-size="10.00">device/general/cssl</text>
<text text-anchor="middle" x="362" y="-287.5" font-family="Helvetica,sans-Serif" font-size="10.00">_lib.h</text>
</a>
</g>
</g>
<!-- Node1&#45;&gt;Node31 -->
<g id="edge37" class="edge"><title>Node1&#45;&gt;Node31</title>
<path fill="none" stroke="midnightblue" d="M362,-347.475C362,-340.471 362,-330.192 362,-320.696"/>
<polygon fill="midnightblue" stroke="midnightblue" points="365.5,-320.523 362,-310.523 358.5,-320.523 365.5,-320.523"/>
</g>
<!-- Node34 -->
<g id="node34" class="node"><title>Node34</title>
<polygon fill="white" stroke="#bfbfbf" points="245.5,-112.5 245.5,-131.5 292.5,-131.5 292.5,-112.5 245.5,-112.5"/>
<text text-anchor="middle" x="269" y="-119.5" font-family="Helvetica,sans-Serif" font-size="10.00">errno.h</text>
</g>
<!-- Node1&#45;&gt;Node34 -->
<g id="edge47" class="edge"><title>Node1&#45;&gt;Node34</title>
<path fill="none" stroke="midnightblue" d="M346.53,-347.349C333.313,-339.328 314.506,-326.34 302,-311 263.81,-264.155 257.208,-246.979 244,-188 242.057,-179.326 241.77,-176.605 244,-168 246.546,-158.175 251.753,-148.212 256.759,-140.166"/>
<polygon fill="midnightblue" stroke="midnightblue" points="259.749,-141.99 262.371,-131.725 253.92,-138.114 259.749,-141.99"/>
</g>
<!-- Node35 -->
<g id="node35" class="node"><title>Node35</title>
<polygon fill="white" stroke="#bfbfbf" points="672,-286 672,-305 718,-305 718,-286 672,-286"/>
<text text-anchor="middle" x="695" y="-293" font-family="Helvetica,sans-Serif" font-size="10.00">stdio.h</text>
</g>
<!-- Node1&#45;&gt;Node35 -->
<g id="edge45" class="edge"><title>Node1&#45;&gt;Node35</title>
<path fill="none" stroke="midnightblue" d="M403.291,-352.647C461.049,-347.3 568.89,-334.914 658,-311 660.657,-310.287 663.384,-309.444 666.095,-308.53"/>
<polygon fill="midnightblue" stroke="midnightblue" points="667.508,-311.739 675.686,-305.005 665.093,-305.169 667.508,-311.739"/>
</g>
<!-- Node3 -->
<g id="node3" class="node"><title>Node3</title>
<polygon fill="white" stroke="#bfbfbf" points="1009.5,-56.5 1009.5,-75.5 1054.5,-75.5 1054.5,-56.5 1009.5,-56.5"/>
<text text-anchor="middle" x="1032" y="-63.5" font-family="Helvetica,sans-Serif" font-size="10.00">climits</text>
</g>
<!-- Node2&#45;&gt;Node3 -->
<g id="edge2" class="edge"><title>Node2&#45;&gt;Node3</title>
<path fill="none" stroke="midnightblue" d="M686.546,-115.748C760.245,-108.945 887.245,-95.5879 995,-76 996.463,-75.734 997.956,-75.4452 999.46,-75.1397"/>
<polygon fill="midnightblue" stroke="midnightblue" points="1000.38,-78.5203 1009.39,-72.9454 998.872,-71.6852 1000.38,-78.5203"/>
</g>
<!-- Node4 -->
<g id="node4" class="node"><title>Node4</title>
<polygon fill="white" stroke="#bfbfbf" points="1072.5,-56.5 1072.5,-75.5 1119.5,-75.5 1119.5,-56.5 1072.5,-56.5"/>
<text text-anchor="middle" x="1096" y="-63.5" font-family="Helvetica,sans-Serif" font-size="10.00">csignal</text>
</g>
<!-- Node2&#45;&gt;Node4 -->
<g id="edge3" class="edge"><title>Node2&#45;&gt;Node4</title>
<path fill="none" stroke="midnightblue" d="M686.558,-118.035C769.92,-113.281 923.379,-101.915 1062.36,-76.032"/>
<polygon fill="midnightblue" stroke="midnightblue" points="1063.17,-79.4417 1072.34,-74.1432 1061.87,-72.5638 1063.17,-79.4417"/>
</g>
<!-- Node5 -->
<g id="node5" class="node"><title>Node5</title>
<polygon fill="white" stroke="#bfbfbf" points="1138,-56.5 1138,-75.5 1184,-75.5 1184,-56.5 1138,-56.5"/>
<text text-anchor="middle" x="1161" y="-63.5" font-family="Helvetica,sans-Serif" font-size="10.00">cstdint</text>
</g>
<!-- Node2&#45;&gt;Node5 -->
<g id="edge4" class="edge"><title>Node2&#45;&gt;Node5</title>
<path fill="none" stroke="midnightblue" d="M686.786,-119.162C780.355,-115.572 963.601,-105.386 1127.43,-75.9651"/>
<polygon fill="midnightblue" stroke="midnightblue" points="1128.49,-79.3304 1137.7,-74.0917 1127.23,-72.4442 1128.49,-79.3304"/>
</g>
<!-- Node6 -->
<g id="node6" class="node"><title>Node6</title>
<polygon fill="white" stroke="#bfbfbf" points="1202,-56.5 1202,-75.5 1258,-75.5 1258,-56.5 1202,-56.5"/>
<text text-anchor="middle" x="1230" y="-63.5" font-family="Helvetica,sans-Serif" font-size="10.00">cinttypes</text>
</g>
<!-- Node2&#45;&gt;Node6 -->
<g id="edge5" class="edge"><title>Node2&#45;&gt;Node6</title>
<path fill="none" stroke="midnightblue" d="M686.74,-119.331C789.622,-115.846 1002.69,-105.626 1191.69,-75.9585"/>
<polygon fill="midnightblue" stroke="midnightblue" points="1192.49,-79.3759 1201.81,-74.3472 1191.39,-72.4629 1192.49,-79.3759"/>
</g>
<!-- Node7 -->
<g id="node7" class="node"><title>Node7</title>
<polygon fill="white" stroke="#bfbfbf" points="1276.5,-56.5 1276.5,-75.5 1319.5,-75.5 1319.5,-56.5 1276.5,-56.5"/>
<text text-anchor="middle" x="1298" y="-63.5" font-family="Helvetica,sans-Serif" font-size="10.00">cstdio</text>
</g>
<!-- Node2&#45;&gt;Node7 -->
<g id="edge6" class="edge"><title>Node2&#45;&gt;Node7</title>
<path fill="none" stroke="midnightblue" d="M686.61,-121.015C799.864,-120.102 1048.67,-113.718 1266.44,-75.6658"/>
<polygon fill="midnightblue" stroke="midnightblue" points="1267.22,-79.0815 1276.46,-73.8887 1266,-72.1891 1267.22,-79.0815"/>
</g>
<!-- Node8 -->
<g id="node8" class="node"><title>Node8</title>
<polygon fill="white" stroke="#bfbfbf" points="1337.5,-56.5 1337.5,-75.5 1386.5,-75.5 1386.5,-56.5 1337.5,-56.5"/>
<text text-anchor="middle" x="1362" y="-63.5" font-family="Helvetica,sans-Serif" font-size="10.00">cstddef</text>
</g>
<!-- Node2&#45;&gt;Node8 -->
<g id="edge7" class="edge"><title>Node2&#45;&gt;Node8</title>
<path fill="none" stroke="midnightblue" d="M686.685,-121.233C808.042,-120.786 1086.29,-115.29 1327.25,-75.9808"/>
<polygon fill="midnightblue" stroke="midnightblue" points="1327.96,-79.412 1337.25,-74.3267 1326.82,-72.5059 1327.96,-79.412"/>
</g>
<!-- Node9 -->
<g id="node9" class="node"><title>Node9</title>
<polygon fill="white" stroke="#bfbfbf" points="1404.5,-56.5 1404.5,-75.5 1449.5,-75.5 1449.5,-56.5 1404.5,-56.5"/>
<text text-anchor="middle" x="1427" y="-63.5" font-family="Helvetica,sans-Serif" font-size="10.00">cstdlib</text>
</g>
<!-- Node2&#45;&gt;Node9 -->
<g id="edge8" class="edge"><title>Node2&#45;&gt;Node9</title>
<path fill="none" stroke="midnightblue" d="M686.744,-119.183C841.059,-114.363 1241.53,-100.057 1394.32,-75.8642"/>
<polygon fill="midnightblue" stroke="midnightblue" points="1395.16,-79.2724 1404.45,-74.181 1394.01,-72.367 1395.16,-79.2724"/>
</g>
<!-- Node10 -->
<g id="node10" class="node"><title>Node10</title>
<polygon fill="white" stroke="#bfbfbf" points="126,-56.5 126,-75.5 170,-75.5 170,-56.5 126,-56.5"/>
<text text-anchor="middle" x="148" y="-63.5" font-family="Helvetica,sans-Serif" font-size="10.00">cerrno</text>
</g>
<!-- Node2&#45;&gt;Node10 -->
<g id="edge9" class="edge"><title>Node2&#45;&gt;Node10</title>
<path fill="none" stroke="midnightblue" d="M563.163,-118.32C478.61,-113.869 322.161,-102.833 180.412,-75.9435"/>
<polygon fill="midnightblue" stroke="midnightblue" points="180.714,-72.4374 170.232,-73.9799 179.388,-79.3107 180.714,-72.4374"/>
</g>
<!-- Node2&#45;&gt;Node11 -->
<g id="edge10" class="edge"><title>Node2&#45;&gt;Node11</title>
<path fill="none" stroke="midnightblue" d="M563.119,-119.22C468.837,-115.695 283.573,-105.574 118.162,-75.891"/>
<polygon fill="midnightblue" stroke="midnightblue" points="118.767,-72.4436 108.301,-74.0937 117.511,-79.3302 118.767,-72.4436"/>
</g>
<!-- Node12 -->
<g id="node12" class="node"><title>Node12</title>
<polygon fill="white" stroke="#bfbfbf" points="188,-56.5 188,-75.5 232,-75.5 232,-56.5 188,-56.5"/>
<text text-anchor="middle" x="210" y="-63.5" font-family="Helvetica,sans-Serif" font-size="10.00">cmath</text>
</g>
<!-- Node2&#45;&gt;Node12 -->
<g id="edge11" class="edge"><title>Node2&#45;&gt;Node12</title>
<path fill="none" stroke="midnightblue" d="M563.318,-116.939C489.127,-111.349 360.761,-99.4338 242.214,-75.9446"/>
<polygon fill="midnightblue" stroke="midnightblue" points="242.735,-72.4794 232.241,-73.9361 241.353,-79.3416 242.735,-72.4794"/>
</g>
<!-- Node13 -->
<g id="node13" class="node"><title>Node13</title>
<polygon fill="white" stroke="#bfbfbf" points="250.5,-56.5 250.5,-75.5 295.5,-75.5 295.5,-56.5 250.5,-56.5"/>
<text text-anchor="middle" x="273" y="-63.5" font-family="Helvetica,sans-Serif" font-size="10.00">iosfwd</text>
</g>
<!-- Node2&#45;&gt;Node13 -->
<g id="edge12" class="edge"><title>Node2&#45;&gt;Node13</title>
<path fill="none" stroke="midnightblue" d="M563.228,-114.807C500.615,-107.969 400.843,-95.5344 305.444,-75.8278"/>
<polygon fill="midnightblue" stroke="midnightblue" points="306.138,-72.3971 295.632,-73.7716 304.702,-79.2483 306.138,-72.3971"/>
</g>
<!-- Node14 -->
<g id="node14" class="node"><title>Node14</title>
<polygon fill="white" stroke="#bfbfbf" points="314,-56.5 314,-75.5 368,-75.5 368,-56.5 314,-56.5"/>
<text text-anchor="middle" x="341" y="-63.5" font-family="Helvetica,sans-Serif" font-size="10.00">iostream</text>
</g>
<!-- Node2&#45;&gt;Node14 -->
<g id="edge13" class="edge"><title>Node2&#45;&gt;Node14</title>
<path fill="none" stroke="midnightblue" d="M572.069,-112.428C523.886,-104.392 450.579,-91.5853 377.87,-76.0774"/>
<polygon fill="midnightblue" stroke="midnightblue" points="378.595,-72.6534 368.082,-73.9725 377.123,-79.4969 378.595,-72.6534"/>
</g>
<!-- Node15 -->
<g id="node15" class="node"><title>Node15</title>
<polygon fill="white" stroke="#bfbfbf" points="386.5,-56.5 386.5,-75.5 437.5,-75.5 437.5,-56.5 386.5,-56.5"/>
<text text-anchor="middle" x="412" y="-63.5" font-family="Helvetica,sans-Serif" font-size="10.00">unistd.h</text>
</g>
<!-- Node2&#45;&gt;Node15 -->
<g id="edge14" class="edge"><title>Node2&#45;&gt;Node15</title>
<path fill="none" stroke="midnightblue" d="M590.318,-112.417C556.277,-103.963 502.622,-90.5577 447.543,-76.3776"/>
<polygon fill="midnightblue" stroke="midnightblue" points="448.168,-72.9242 437.611,-73.8159 446.42,-79.7024 448.168,-72.9242"/>
</g>
<!-- Node2&#45;&gt;Node16 -->
<g id="edge15" class="edge"><title>Node2&#45;&gt;Node16</title>
<path fill="none" stroke="midnightblue" d="M563.098,-120.253C459.386,-118.101 244.016,-109.782 54.1033,-75.8341"/>
<polygon fill="midnightblue" stroke="midnightblue" points="54.6855,-72.3827 44.2211,-74.04 53.435,-79.2701 54.6855,-72.3827"/>
</g>
<!-- Node17 -->
<g id="node17" class="node"><title>Node17</title>
<polygon fill="white" stroke="#bfbfbf" points="455.5,-56.5 455.5,-75.5 496.5,-75.5 496.5,-56.5 455.5,-56.5"/>
<text text-anchor="middle" x="476" y="-63.5" font-family="Helvetica,sans-Serif" font-size="10.00">string</text>
</g>
<!-- Node2&#45;&gt;Node17 -->
<g id="edge16" class="edge"><title>Node2&#45;&gt;Node17</title>
<path fill="none" stroke="midnightblue" d="M601.391,-112.444C575.665,-103.12 534.432,-88.1768 506.327,-77.9911"/>
<polygon fill="midnightblue" stroke="midnightblue" points="507.214,-74.5898 496.62,-74.473 504.829,-81.1709 507.214,-74.5898"/>
</g>
<!-- Node18 -->
<g id="node18" class="node"><title>Node18</title>
<polygon fill="white" stroke="#bfbfbf" points="522,-0.5 522,-19.5 566,-19.5 566,-0.5 522,-0.5"/>
<text text-anchor="middle" x="544" y="-7.5" font-family="Helvetica,sans-Serif" font-size="10.00">vector</text>
</g>
<!-- Node2&#45;&gt;Node18 -->
<g id="edge17" class="edge"><title>Node2&#45;&gt;Node18</title>
<path fill="none" stroke="midnightblue" d="M593.977,-112.436C575.968,-105.694 554.769,-94.3016 544,-76 535.782,-62.0326 536.784,-43.2809 539.248,-29.5081"/>
<polygon fill="midnightblue" stroke="midnightblue" points="542.672,-30.2334 541.389,-19.7165 535.833,-28.7379 542.672,-30.2334"/>
</g>
<!-- Node19 -->
<g id="node19" class="node"><title>Node19</title>
<polygon fill="white" stroke="#bfbfbf" points="553.5,-56.5 553.5,-75.5 596.5,-75.5 596.5,-56.5 553.5,-56.5"/>
<text text-anchor="middle" x="575" y="-63.5" font-family="Helvetica,sans-Serif" font-size="10.00">deque</text>
</g>
<!-- Node2&#45;&gt;Node19 -->
<g id="edge18" class="edge"><title>Node2&#45;&gt;Node19</title>
<path fill="none" stroke="midnightblue" d="M616.744,-112.083C609.535,-104.298 598.89,-92.8015 590.154,-83.3665"/>
<polygon fill="midnightblue" stroke="midnightblue" points="592.465,-80.7108 583.103,-75.7511 587.329,-85.4666 592.465,-80.7108"/>
</g>
<!-- Node20 -->
<g id="node20" class="node"><title>Node20</title>
<polygon fill="white" stroke="#bfbfbf" points="605,-0.5 605,-19.5 649,-19.5 649,-0.5 605,-0.5"/>
<text text-anchor="middle" x="627" y="-7.5" font-family="Helvetica,sans-Serif" font-size="10.00">mutex</text>
</g>
<!-- Node2&#45;&gt;Node20 -->
<g id="edge19" class="edge"><title>Node2&#45;&gt;Node20</title>
<path fill="none" stroke="midnightblue" d="M625.157,-112.368C625.48,-94.617 626.224,-53.6664 626.662,-29.5974"/>
<polygon fill="midnightblue" stroke="midnightblue" points="630.161,-29.6534 626.844,-19.5914 623.162,-29.5261 630.161,-29.6534"/>
</g>
<!-- Node21 -->
<g id="node21" class="node"><title>Node21</title>
<polygon fill="white" stroke="#bfbfbf" points="671,-0.5 671,-19.5 715,-19.5 715,-0.5 671,-0.5"/>
<text text-anchor="middle" x="693" y="-7.5" font-family="Helvetica,sans-Serif" font-size="10.00">thread</text>
</g>
<!-- Node2&#45;&gt;Node21 -->
<g id="edge20" class="edge"><title>Node2&#45;&gt;Node21</title>
<path fill="none" stroke="midnightblue" d="M630.336,-112.368C641.508,-94.2957 667.545,-52.1764 682.301,-28.3074"/>
<polygon fill="midnightblue" stroke="midnightblue" points="685.408,-29.9378 687.689,-19.5914 679.454,-26.257 685.408,-29.9378"/>
</g>
<!-- Node22 -->
<g id="node22" class="node"><title>Node22</title>
<polygon fill="white" stroke="#bfbfbf" points="782.5,-0.5 782.5,-19.5 877.5,-19.5 877.5,-0.5 782.5,-0.5"/>
<text text-anchor="middle" x="830" y="-7.5" font-family="Helvetica,sans-Serif" font-size="10.00">condition_variable</text>
</g>
<!-- Node2&#45;&gt;Node22 -->
<g id="edge21" class="edge"><title>Node2&#45;&gt;Node22</title>
<path fill="none" stroke="midnightblue" d="M686.918,-113.625C735.608,-106.555 798.108,-94.24 816,-76 827.736,-64.0356 830.663,-44.7352 830.999,-30.2681"/>
<polygon fill="midnightblue" stroke="midnightblue" points="834.493,-29.8761 830.83,-19.9345 827.494,-29.9901 834.493,-29.8761"/>
</g>
<!-- Node23 -->
<g id="node23" class="node"><title>Node23</title>
<polygon fill="white" stroke="#bfbfbf" points="897.5,-0.5 897.5,-19.5 940.5,-19.5 940.5,-0.5 897.5,-0.5"/>
<text text-anchor="middle" x="919" y="-7.5" font-family="Helvetica,sans-Serif" font-size="10.00">queue</text>
</g>
<!-- Node2&#45;&gt;Node23 -->
<g id="edge22" class="edge"><title>Node2&#45;&gt;Node23</title>
<path fill="none" stroke="midnightblue" d="M686.523,-120.798C764.947,-119.082 893.992,-110.862 924,-76 934.932,-63.2993 931.546,-43.5467 926.747,-29.148"/>
<polygon fill="midnightblue" stroke="midnightblue" points="930.014,-27.8903 923.188,-19.7872 923.471,-30.3782 930.014,-27.8903"/>
</g>
<!-- Node24 -->
<g id="node24" class="node"><title>Node24</title>
<polygon fill="white" stroke="#bfbfbf" points="863,-56.5 863,-75.5 915,-75.5 915,-56.5 863,-56.5"/>
<text text-anchor="middle" x="889" y="-63.5" font-family="Helvetica,sans-Serif" font-size="10.00">sstream</text>
</g>
<!-- Node2&#45;&gt;Node24 -->
<g id="edge23" class="edge"><title>Node2&#45;&gt;Node24</title>
<path fill="none" stroke="midnightblue" d="M669.264,-112.42C714.495,-103.58 786.732,-89.2579 849,-76 850.253,-75.7332 851.528,-75.4594 852.815,-75.1809"/>
<polygon fill="midnightblue" stroke="midnightblue" points="853.754,-78.5582 862.769,-72.9928 852.251,-71.7214 853.754,-78.5582"/>
</g>
<!-- Node25 -->
<g id="node25" class="node"><title>Node25</title>
<polygon fill="white" stroke="#bfbfbf" points="962.5,-0.5 962.5,-19.5 997.5,-19.5 997.5,-0.5 962.5,-0.5"/>
<text text-anchor="middle" x="980" y="-7.5" font-family="Helvetica,sans-Serif" font-size="10.00">map</text>
</g>
<!-- Node2&#45;&gt;Node25 -->
<g id="edge24" class="edge"><title>Node2&#45;&gt;Node25</title>
<path fill="none" stroke="midnightblue" d="M686.728,-118.444C766.627,-114.091 900.427,-102.927 941,-76 957.412,-65.1083 967.964,-44.7339 973.899,-29.6881"/>
<polygon fill="midnightblue" stroke="midnightblue" points="977.333,-30.4804 977.422,-19.886 970.746,-28.1129 977.333,-30.4804"/>
</g>
<!-- Node26 -->
<g id="node26" class="node"><title>Node26</title>
<g id="a_node26"><a xlink:href="cosmos-defs_8h.html" target="_top" xlink:title="COSMOS definitions Definitions specific to the COSMOS environement. ">
<polygon fill="white" stroke="black" points="691,-56.5 691,-75.5 807,-75.5 807,-56.5 691,-56.5"/>
<text text-anchor="middle" x="749" y="-63.5" font-family="Helvetica,sans-Serif" font-size="10.00">support/cosmos&#45;defs.h</text>
</a>
</g>
</g>
<!-- Node2&#45;&gt;Node26 -->
<g id="edge25" class="edge"><title>Node2&#45;&gt;Node26</title>
<path fill="none" stroke="midnightblue" d="M644.648,-112.444C664.965,-103.596 696.903,-89.6875 720.098,-79.5865"/>
<polygon fill="midnightblue" stroke="midnightblue" points="721.673,-82.7181 729.444,-75.5164 718.878,-76.3002 721.673,-82.7181"/>
</g>
<!-- Node26&#45;&gt;Node18 -->
<g id="edge27" class="edge"><title>Node26&#45;&gt;Node18</title>
<path fill="none" stroke="midnightblue" d="M716.517,-56.4435C678.128,-46.3312 614.639,-29.6072 576.32,-19.5136"/>
<polygon fill="midnightblue" stroke="midnightblue" points="576.784,-16.0163 566.222,-16.8536 575,-22.7854 576.784,-16.0163"/>
</g>
<!-- Node26&#45;&gt;Node20 -->
<g id="edge31" class="edge"><title>Node26&#45;&gt;Node20</title>
<path fill="none" stroke="midnightblue" d="M729.669,-56.4435C709.68,-47.5961 678.257,-33.6875 655.436,-23.5865"/>
<polygon fill="midnightblue" stroke="midnightblue" points="656.802,-20.3635 646.241,-19.5164 653.968,-26.7645 656.802,-20.3635"/>
</g>
<!-- Node26&#45;&gt;Node21 -->
<g id="edge30" class="edge"><title>Node26&#45;&gt;Node21</title>
<path fill="none" stroke="midnightblue" d="M740.003,-56.324C731.806,-48.4196 719.494,-36.5482 709.528,-26.9377"/>
<polygon fill="midnightblue" stroke="midnightblue" points="711.789,-24.2558 702.161,-19.8339 706.93,-29.2947 711.789,-24.2558"/>
</g>
<!-- Node26&#45;&gt;Node22 -->
<g id="edge32" class="edge"><title>Node26&#45;&gt;Node22</title>
<path fill="none" stroke="midnightblue" d="M762.014,-56.324C774.532,-47.979 793.682,-35.2122 808.471,-25.3524"/>
<polygon fill="midnightblue" stroke="midnightblue" points="810.639,-28.1137 817.018,-19.6545 806.756,-22.2894 810.639,-28.1137"/>
</g>
<!-- Node26&#45;&gt;Node23 -->
<g id="edge29" class="edge"><title>Node26&#45;&gt;Node23</title>
<path fill="none" stroke="midnightblue" d="M775.937,-56.4435C806.266,-46.8097 855.486,-31.1752 887.551,-20.9896"/>
<polygon fill="midnightblue" stroke="midnightblue" points="888.842,-24.2519 897.314,-17.8886 886.723,-17.5803 888.842,-24.2519"/>
</g>
<!-- Node26&#45;&gt;Node25 -->
<g id="edge26" class="edge"><title>Node26&#45;&gt;Node25</title>
<path fill="none" stroke="midnightblue" d="M791.172,-56.471C831.989,-48.0015 895.512,-34.2533 950,-20 950.875,-19.7712 951.762,-19.5342 952.657,-19.291"/>
<polygon fill="midnightblue" stroke="midnightblue" points="953.637,-22.6511 962.292,-16.5402 951.715,-15.9201 953.637,-22.6511"/>
</g>
<!-- Node27 -->
<g id="node27" class="node"><title>Node27</title>
<polygon fill="white" stroke="#bfbfbf" points="734.5,-0.5 734.5,-19.5 763.5,-19.5 763.5,-0.5 734.5,-0.5"/>
<text text-anchor="middle" x="749" y="-7.5" font-family="Helvetica,sans-Serif" font-size="10.00">list</text>
</g>
<!-- Node26&#45;&gt;Node27 -->
<g id="edge28" class="edge"><title>Node26&#45;&gt;Node27</title>
<path fill="none" stroke="midnightblue" d="M749,-56.083C749,-49.0059 749,-38.8611 749,-29.9865"/>
<polygon fill="midnightblue" stroke="midnightblue" points="752.5,-29.751 749,-19.7511 745.5,-29.7511 752.5,-29.751"/>
</g>
<!-- Node28&#45;&gt;Node2 -->
<g id="edge34" class="edge"><title>Node28&#45;&gt;Node2</title>
<path fill="none" stroke="midnightblue" d="M540.701,-280.35C556.234,-271.8 574.238,-259.535 586,-244 609.569,-212.871 619.188,-166.983 622.881,-141.599"/>
<polygon fill="midnightblue" stroke="midnightblue" points="626.375,-141.873 624.191,-131.506 619.433,-140.973 626.375,-141.873"/>
</g>
<!-- Node29 -->
<g id="node29" class="node"><title>Node29</title>
<polygon fill="white" stroke="#bfbfbf" points="520.5,-224.5 520.5,-243.5 577.5,-243.5 577.5,-224.5 520.5,-224.5"/>
<text text-anchor="middle" x="549" y="-231.5" font-family="Helvetica,sans-Serif" font-size="10.00">termios.h</text>
</g>
<!-- Node28&#45;&gt;Node29 -->
<g id="edge35" class="edge"><title>Node28&#45;&gt;Node29</title>
<path fill="none" stroke="midnightblue" d="M519.242,-280.399C524.793,-271.932 531.893,-261.099 537.766,-252.139"/>
<polygon fill="midnightblue" stroke="midnightblue" points="540.77,-253.94 543.325,-243.658 534.916,-250.103 540.77,-253.94"/>
</g>
<!-- Node30 -->
<g id="node30" class="node"><title>Node30</title>
<polygon fill="white" stroke="#bfbfbf" points="440,-224.5 440,-243.5 502,-243.5 502,-224.5 440,-224.5"/>
<text text-anchor="middle" x="471" y="-231.5" font-family="Helvetica,sans-Serif" font-size="10.00">sys/ioctl.h</text>
</g>
<!-- Node28&#45;&gt;Node30 -->
<g id="edge36" class="edge"><title>Node28&#45;&gt;Node30</title>
<path fill="none" stroke="midnightblue" d="M500.758,-280.399C495.207,-271.932 488.107,-261.099 482.234,-252.139"/>
<polygon fill="midnightblue" stroke="midnightblue" points="485.084,-250.103 476.675,-243.658 479.23,-253.94 485.084,-250.103"/>
</g>
<!-- Node31&#45;&gt;Node2 -->
<g id="edge38" class="edge"><title>Node31&#45;&gt;Node2</title>
<path fill="none" stroke="midnightblue" d="M373.353,-280.489C386.199,-265.254 408.302,-240.832 431,-224 483.861,-184.8 554.064,-152.386 593.901,-135.536"/>
<polygon fill="midnightblue" stroke="midnightblue" points="595.466,-138.675 603.345,-131.592 592.769,-132.215 595.466,-138.675"/>
</g>
<!-- Node32 -->
<g id="node32" class="node"><title>Node32</title>
<g id="a_node32"><a xlink:href="sliplib_8h.html" target="_top" xlink:title="COSMOS SLIP support include file. ">
<polygon fill="white" stroke="black" points="284.5,-224.5 284.5,-243.5 369.5,-243.5 369.5,-224.5 284.5,-224.5"/>
<text text-anchor="middle" x="327" y="-231.5" font-family="Helvetica,sans-Serif" font-size="10.00">support/sliplib.h</text>
</a>
</g>
</g>
<!-- Node31&#45;&gt;Node32 -->
<g id="edge39" class="edge"><title>Node31&#45;&gt;Node32</title>
<path fill="none" stroke="midnightblue" d="M353.705,-280.399C348.777,-272.021 342.486,-261.327 337.249,-252.423"/>
<polygon fill="midnightblue" stroke="midnightblue" points="340.18,-250.503 332.093,-243.658 334.146,-254.052 340.18,-250.503"/>
</g>
<!-- Node32&#45;&gt;Node2 -->
<g id="edge40" class="edge"><title>Node32&#45;&gt;Node2</title>
<path fill="none" stroke="midnightblue" d="M337.141,-224.422C354.167,-210.467 390.075,-182.909 425,-168 465.714,-150.619 514.08,-139.505 553.049,-132.671"/>
<polygon fill="midnightblue" stroke="midnightblue" points="553.985,-136.062 563.259,-130.94 552.815,-129.16 553.985,-136.062"/>
</g>
<!-- Node32&#45;&gt;Node11 -->
<g id="edge44" class="edge"><title>Node32&#45;&gt;Node11</title>
<path fill="none" stroke="midnightblue" d="M309.386,-224.445C292.271,-215.902 265.752,-202.055 244,-188 190.664,-153.537 132.303,-106.489 103.377,-82.477"/>
<polygon fill="midnightblue" stroke="midnightblue" points="105.303,-79.5256 95.3833,-75.8041 100.817,-84.8994 105.303,-79.5256"/>
</g>
<!-- Node33 -->
<g id="node33" class="node"><title>Node33</title>
<g id="a_node33"><a xlink:href="cosmos-errno_8h.html" target="_top" xlink:title="COSMOS Error Codes. ">
<polygon fill="white" stroke="black" points="253.5,-168.5 253.5,-187.5 372.5,-187.5 372.5,-168.5 253.5,-168.5"/>
<text text-anchor="middle" x="313" y="-175.5" font-family="Helvetica,sans-Serif" font-size="10.00">support/cosmos&#45;errno.h</text>
</a>
</g>
</g>
<!-- Node32&#45;&gt;Node33 -->
<g id="edge41" class="edge"><title>Node32&#45;&gt;Node33</title>
<path fill="none" stroke="midnightblue" d="M324.688,-224.083C322.833,-216.927 320.165,-206.635 317.846,-197.691"/>
<polygon fill="midnightblue" stroke="midnightblue" points="321.166,-196.553 315.269,-187.751 314.391,-198.309 321.166,-196.553"/>
</g>
<!-- Node33&#45;&gt;Node2 -->
<g id="edge42" class="edge"><title>Node33&#45;&gt;Node2</title>
<path fill="none" stroke="midnightblue" d="M362.437,-168.444C417.664,-158.885 507.021,-143.419 565.895,-133.23"/>
<polygon fill="midnightblue" stroke="midnightblue" points="566.537,-136.671 575.794,-131.516 565.344,-129.773 566.537,-136.671"/>
</g>
<!-- Node33&#45;&gt;Node34 -->
<g id="edge43" class="edge"><title>Node33&#45;&gt;Node34</title>
<path fill="none" stroke="midnightblue" d="M305.734,-168.083C299.455,-160.377 290.212,-149.033 282.569,-139.653"/>
<polygon fill="midnightblue" stroke="midnightblue" points="285.161,-137.293 276.131,-131.751 279.734,-141.714 285.161,-137.293"/>
</g>
</g>
</svg>
