<?xml version="1.0" encoding="UTF-8" standalone="no"?>
<!DOCTYPE svg PUBLIC "-//W3C//DTD SVG 1.1//EN"
 "http://www.w3.org/Graphics/SVG/1.1/DTD/svg11.dtd">
<!-- Generated by graphviz version 2.38.0 (20140413.2041)
 -->
<!-- Title: bbFctns.cpp Pages: 1 -->
<!--zoomable 431 -->
<svg id="main" version="1.1" xmlns="http://www.w3.org/2000/svg" xmlns:xlink="http://www.w3.org/1999/xlink" xml:space="preserve" onload="init(evt)">
<style type="text/css"><![CDATA[
.edge:hover path { stroke: red; }
.edge:hover polygon { stroke: red; fill: red; }
]]></style>
<script type="text/javascript"><![CDATA[
var edges = document.getElementsByTagName('g');
if (edges && edges.length) {
  for (var i=0;i<edges.length;i++) {
    if (edges[i].id.substr(0,4)=='edge') {
      edges[i].setAttribute('class','edge');
    }
  }
}
]]></script>
        <defs>
                <circle id="rim" cx="0" cy="0" r="7"/>
                <circle id="rim2" cx="0" cy="0" r="3.5"/>
                <g id="zoomPlus">
                        <use xlink:href="#rim" fill="#404040">
                                <set attributeName="fill" to="#808080" begin="zoomplus.mouseover" end="zoomplus.mouseout"/>
                        </use>
                        <path d="M-4,0h8M0,-4v8" fill="none" stroke="white" stroke-width="1.5" pointer-events="none"/>
                </g>
                <g id="zoomMin">
                        <use xlink:href="#rim" fill="#404040">
                                <set attributeName="fill" to="#808080" begin="zoomminus.mouseover" end="zoomminus.mouseout"/>
                        </use>
                        <path d="M-4,0h8" fill="none" stroke="white" stroke-width="1.5" pointer-events="none"/>
                </g>
                <g id="dirArrow">
                        <path fill="none" stroke="white" stroke-width="1.5" d="M0,-3.0v7 M-2.5,-0.5L0,-3.0L2.5,-0.5"/>
                </g>
               <g id="resetDef">
                       <use xlink:href="#rim2" fill="#404040">
                               <set attributeName="fill" to="#808080" begin="reset.mouseover" end="reset.mouseout"/>
                       </use>
               </g>
        </defs>

<script type="text/javascript">
var viewWidth = 1460;
var viewHeight = 431;
var sectionId = 'dynsection-0';
</script>
<script xlink:href="svgpan.js"/>
<svg id="graph" class="graph">
<g id="viewport">
<title>bbFctns.cpp</title>
<polygon fill="white" stroke="none" points="-4,4 -4,-427 1455.5,-427 1455.5,4 -4,4"/>
<!-- Node1 -->
<g id="node1" class="node"><title>Node1</title>
<polygon fill="#bfbfbf" stroke="black" points="831.5,-403.5 831.5,-422.5 902.5,-422.5 902.5,-403.5 831.5,-403.5"/>
<text text-anchor="middle" x="867" y="-410.5" font-family="Helvetica,sans-Serif" font-size="10.00">bbFctns.cpp</text>
</g>
<!-- Node2 -->
<g id="node2" class="node"><title>Node2</title>
<g id="a_node2"><a xlink:href="config_cosmos_8h.html" target="_top" xlink:title="Headers and definitions common to all COSMOS. ">
<polygon fill="white" stroke="black" points="684.5,-112.5 684.5,-131.5 807.5,-131.5 807.5,-112.5 684.5,-112.5"/>
<text text-anchor="middle" x="746" y="-119.5" font-family="Helvetica,sans-Serif" font-size="10.00">support/configCosmos.h</text>
</a>
</g>
</g>
<!-- Node1&#45;&gt;Node2 -->
<g id="edge1" class="edge"><title>Node1&#45;&gt;Node2</title>
<path fill="none" stroke="midnightblue" d="M848.299,-403.37C833.851,-395.768 814.448,-383.359 803,-367 784.393,-340.413 784,-328.951 784,-296.5 784,-296.5 784,-296.5 784,-233 784,-198.813 767.4,-161.764 756.143,-140.571"/>
<polygon fill="midnightblue" stroke="midnightblue" points="759.181,-138.832 751.284,-131.769 753.053,-142.215 759.181,-138.832"/>
</g>
<!-- Node28 -->
<g id="node28" class="node"><title>Node28</title>
<polygon fill="white" stroke="#bfbfbf" points="812,-347.5 812,-366.5 858,-366.5 858,-347.5 812,-347.5"/>
<text text-anchor="middle" x="835" y="-354.5" font-family="Helvetica,sans-Serif" font-size="10.00">stdio.h</text>
</g>
<!-- Node1&#45;&gt;Node28 -->
<g id="edge33" class="edge"><title>Node1&#45;&gt;Node28</title>
<path fill="none" stroke="midnightblue" d="M861.716,-403.083C857.289,-395.613 850.837,-384.724 845.382,-375.52"/>
<polygon fill="midnightblue" stroke="midnightblue" points="848.295,-373.57 840.186,-366.751 842.273,-377.138 848.295,-373.57"/>
</g>
<!-- Node29 -->
<g id="node29" class="node"><title>Node29</title>
<polygon fill="white" stroke="#bfbfbf" points="876,-347.5 876,-366.5 924,-366.5 924,-347.5 876,-347.5"/>
<text text-anchor="middle" x="900" y="-354.5" font-family="Helvetica,sans-Serif" font-size="10.00">stdlib.h</text>
</g>
<!-- Node1&#45;&gt;Node29 -->
<g id="edge34" class="edge"><title>Node1&#45;&gt;Node29</title>
<path fill="none" stroke="midnightblue" d="M872.449,-403.083C877.014,-395.613 883.668,-384.724 889.293,-375.52"/>
<polygon fill="midnightblue" stroke="midnightblue" points="892.424,-377.109 894.652,-366.751 886.451,-373.459 892.424,-377.109"/>
</g>
<!-- Node30 -->
<g id="node30" class="node"><title>Node30</title>
<polygon fill="white" stroke="#bfbfbf" points="942.5,-347.5 942.5,-366.5 991.5,-366.5 991.5,-347.5 942.5,-347.5"/>
<text text-anchor="middle" x="967" y="-354.5" font-family="Helvetica,sans-Serif" font-size="10.00">ctype.h</text>
</g>
<!-- Node1&#45;&gt;Node30 -->
<g id="edge35" class="edge"><title>Node1&#45;&gt;Node30</title>
<path fill="none" stroke="midnightblue" d="M883.067,-403.324C898.958,-394.743 923.507,-381.486 941.958,-371.522"/>
<polygon fill="midnightblue" stroke="midnightblue" points="943.837,-374.486 950.973,-366.655 940.511,-368.326 943.837,-374.486"/>
</g>
<!-- Node31 -->
<g id="node31" class="node"><title>Node31</title>
<polygon fill="white" stroke="#bfbfbf" points="1009.5,-347.5 1009.5,-366.5 1058.5,-366.5 1058.5,-347.5 1009.5,-347.5"/>
<text text-anchor="middle" x="1034" y="-354.5" font-family="Helvetica,sans-Serif" font-size="10.00">string.h</text>
</g>
<!-- Node1&#45;&gt;Node31 -->
<g id="edge36" class="edge"><title>Node1&#45;&gt;Node31</title>
<path fill="none" stroke="midnightblue" d="M893.462,-403.444C922.176,-394.159 968.129,-379.3 999.62,-369.117"/>
<polygon fill="midnightblue" stroke="midnightblue" points="1000.86,-372.395 1009.3,-365.988 998.704,-365.735 1000.86,-372.395"/>
</g>
<!-- Node32 -->
<g id="node32" class="node"><title>Node32</title>
<polygon fill="white" stroke="#bfbfbf" points="1077,-347.5 1077,-366.5 1121,-366.5 1121,-347.5 1077,-347.5"/>
<text text-anchor="middle" x="1099" y="-354.5" font-family="Helvetica,sans-Serif" font-size="10.00">time.h</text>
</g>
<!-- Node1&#45;&gt;Node32 -->
<g id="edge37" class="edge"><title>Node1&#45;&gt;Node32</title>
<path fill="none" stroke="midnightblue" d="M902.742,-404.701C941.091,-396.714 1003.98,-383.172 1066.99,-367.143"/>
<polygon fill="midnightblue" stroke="midnightblue" points="1067.88,-370.53 1076.69,-364.656 1066.14,-363.749 1067.88,-370.53"/>
</g>
<!-- Node33 -->
<g id="node33" class="node"><title>Node33</title>
<g id="a_node33"><a xlink:href="cssl__lib_8h.html" target="_top" xlink:title="Simple Serial library header file. ">
<polygon fill="white" stroke="black" points="622.5,-280.5 622.5,-310.5 723.5,-310.5 723.5,-280.5 622.5,-280.5"/>
<text text-anchor="start" x="630.5" y="-298.5" font-family="Helvetica,sans-Serif" font-size="10.00">device/general/cssl</text>
<text text-anchor="middle" x="673" y="-287.5" font-family="Helvetica,sans-Serif" font-size="10.00">_lib.h</text>
</a>
</g>
</g>
<!-- Node1&#45;&gt;Node33 -->
<g id="edge38" class="edge"><title>Node1&#45;&gt;Node33</title>
<path fill="none" stroke="midnightblue" d="M845.589,-403.483C825.525,-395.176 794.966,-381.676 770,-367 744.361,-351.928 717.13,-331.723 698.069,-316.808"/>
<polygon fill="midnightblue" stroke="midnightblue" points="700.19,-314.023 690.175,-310.567 695.849,-319.515 700.19,-314.023"/>
</g>
<!-- Node37 -->
<g id="node37" class="node"><title>Node37</title>
<g id="a_node37"><a xlink:href="bb_fctns_8h.html" target="_top" xlink:title="device/general/bbFctns.h">
<polygon fill="white" stroke="black" points="592,-347.5 592,-366.5 718,-366.5 718,-347.5 592,-347.5"/>
<text text-anchor="middle" x="655" y="-354.5" font-family="Helvetica,sans-Serif" font-size="10.00">device/general/bbFctns.h</text>
</a>
</g>
</g>
<!-- Node1&#45;&gt;Node37 -->
<g id="edge46" class="edge"><title>Node1&#45;&gt;Node37</title>
<path fill="none" stroke="midnightblue" d="M833.408,-403.444C796.813,-394.122 738.162,-379.183 698.174,-368.997"/>
<polygon fill="midnightblue" stroke="midnightblue" points="698.989,-365.593 688.435,-366.516 697.261,-372.377 698.989,-365.593"/>
</g>
<!-- Node3 -->
<g id="node3" class="node"><title>Node3</title>
<polygon fill="white" stroke="#bfbfbf" points="1406.5,-56.5 1406.5,-75.5 1451.5,-75.5 1451.5,-56.5 1406.5,-56.5"/>
<text text-anchor="middle" x="1429" y="-63.5" font-family="Helvetica,sans-Serif" font-size="10.00">climits</text>
</g>
<!-- Node2&#45;&gt;Node3 -->
<g id="edge2" class="edge"><title>Node2&#45;&gt;Node3</title>
<path fill="none" stroke="midnightblue" d="M807.533,-120.933C921.893,-119.899 1174.87,-113.344 1396.22,-75.7301"/>
<polygon fill="midnightblue" stroke="midnightblue" points="1397.15,-79.1225 1406.41,-73.9737 1395.96,-72.2244 1397.15,-79.1225"/>
</g>
<!-- Node4 -->
<g id="node4" class="node"><title>Node4</title>
<polygon fill="white" stroke="#bfbfbf" points="64.5,-56.5 64.5,-75.5 111.5,-75.5 111.5,-56.5 64.5,-56.5"/>
<text text-anchor="middle" x="88" y="-63.5" font-family="Helvetica,sans-Serif" font-size="10.00">csignal</text>
</g>
<!-- Node2&#45;&gt;Node4 -->
<g id="edge3" class="edge"><title>Node2&#45;&gt;Node4</title>
<path fill="none" stroke="midnightblue" d="M684.491,-114.795C673.989,-113.807 663.185,-112.837 653,-112 420.041,-92.8497 356.423,-114.756 121.535,-75.7183"/>
<polygon fill="midnightblue" stroke="midnightblue" points="122.109,-72.2659 111.667,-74.0595 120.949,-79.169 122.109,-72.2659"/>
</g>
<!-- Node5 -->
<g id="node5" class="node"><title>Node5</title>
<polygon fill="white" stroke="#bfbfbf" points="130,-56.5 130,-75.5 176,-75.5 176,-56.5 130,-56.5"/>
<text text-anchor="middle" x="153" y="-63.5" font-family="Helvetica,sans-Serif" font-size="10.00">cstdint</text>
</g>
<!-- Node2&#45;&gt;Node5 -->
<g id="edge4" class="edge"><title>Node2&#45;&gt;Node5</title>
<path fill="none" stroke="midnightblue" d="M684.485,-114.874C673.983,-113.878 663.181,-112.884 653,-112 448.415,-94.2338 392.16,-111.85 186.217,-75.8793"/>
<polygon fill="midnightblue" stroke="midnightblue" points="186.752,-72.4198 176.295,-74.1256 185.533,-79.3129 186.752,-72.4198"/>
</g>
<!-- Node6 -->
<g id="node6" class="node"><title>Node6</title>
<polygon fill="white" stroke="#bfbfbf" points="194,-56.5 194,-75.5 250,-75.5 250,-56.5 194,-56.5"/>
<text text-anchor="middle" x="222" y="-63.5" font-family="Helvetica,sans-Serif" font-size="10.00">cinttypes</text>
</g>
<!-- Node2&#45;&gt;Node6 -->
<g id="edge5" class="edge"><title>Node2&#45;&gt;Node6</title>
<path fill="none" stroke="midnightblue" d="M684.473,-114.999C673.973,-113.988 663.174,-112.957 653,-112 481.181,-95.8367 434.188,-104.521 260.199,-75.9712"/>
<polygon fill="midnightblue" stroke="midnightblue" points="260.631,-72.4951 250.193,-74.3116 259.486,-79.4008 260.631,-72.4951"/>
</g>
<!-- Node7 -->
<g id="node7" class="node"><title>Node7</title>
<polygon fill="white" stroke="#bfbfbf" points="268.5,-56.5 268.5,-75.5 311.5,-75.5 311.5,-56.5 268.5,-56.5"/>
<text text-anchor="middle" x="290" y="-63.5" font-family="Helvetica,sans-Serif" font-size="10.00">cstdio</text>
</g>
<!-- Node2&#45;&gt;Node7 -->
<g id="edge6" class="edge"><title>Node2&#45;&gt;Node7</title>
<path fill="none" stroke="midnightblue" d="M684.201,-114.748C579.477,-104.115 374.078,-83.0857 321.485,-75.4317"/>
<polygon fill="midnightblue" stroke="midnightblue" points="321.998,-71.9691 311.56,-73.7885 320.854,-78.8751 321.998,-71.9691"/>
</g>
<!-- Node8 -->
<g id="node8" class="node"><title>Node8</title>
<polygon fill="white" stroke="#bfbfbf" points="329.5,-56.5 329.5,-75.5 378.5,-75.5 378.5,-56.5 329.5,-56.5"/>
<text text-anchor="middle" x="354" y="-63.5" font-family="Helvetica,sans-Serif" font-size="10.00">cstddef</text>
</g>
<!-- Node2&#45;&gt;Node8 -->
<g id="edge7" class="edge"><title>Node2&#45;&gt;Node8</title>
<path fill="none" stroke="midnightblue" d="M684.348,-114.259C601.665,-105.055 458.16,-88.4612 388.861,-75.8776"/>
<polygon fill="midnightblue" stroke="midnightblue" points="389.27,-72.393 378.794,-73.973 387.969,-79.271 389.27,-72.393"/>
</g>
<!-- Node9 -->
<g id="node9" class="node"><title>Node9</title>
<polygon fill="white" stroke="#bfbfbf" points="396.5,-56.5 396.5,-75.5 441.5,-75.5 441.5,-56.5 396.5,-56.5"/>
<text text-anchor="middle" x="419" y="-63.5" font-family="Helvetica,sans-Serif" font-size="10.00">cstdlib</text>
</g>
<!-- Node2&#45;&gt;Node9 -->
<g id="edge8" class="edge"><title>Node2&#45;&gt;Node9</title>
<path fill="none" stroke="midnightblue" d="M684.297,-113.829C626.558,-106.612 537.773,-94.221 451.59,-75.8849"/>
<polygon fill="midnightblue" stroke="midnightblue" points="452.153,-72.4258 441.639,-73.7384 450.677,-79.2684 452.153,-72.4258"/>
</g>
<!-- Node10 -->
<g id="node10" class="node"><title>Node10</title>
<polygon fill="white" stroke="#bfbfbf" points="460,-56.5 460,-75.5 504,-75.5 504,-56.5 460,-56.5"/>
<text text-anchor="middle" x="482" y="-63.5" font-family="Helvetica,sans-Serif" font-size="10.00">cerrno</text>
</g>
<!-- Node2&#45;&gt;Node10 -->
<g id="edge9" class="edge"><title>Node2&#45;&gt;Node10</title>
<path fill="none" stroke="midnightblue" d="M694.343,-112.426C649.155,-104.609 581.579,-92.16 514.22,-76.1266"/>
<polygon fill="midnightblue" stroke="midnightblue" points="514.827,-72.673 504.286,-73.7352 513.189,-79.4785 514.827,-72.673"/>
</g>
<!-- Node11 -->
<g id="node11" class="node"><title>Node11</title>
<polygon fill="white" stroke="#bfbfbf" points="0,-56.5 0,-75.5 46,-75.5 46,-56.5 0,-56.5"/>
<text text-anchor="middle" x="23" y="-63.5" font-family="Helvetica,sans-Serif" font-size="10.00">cstring</text>
</g>
<!-- Node2&#45;&gt;Node11 -->
<g id="edge10" class="edge"><title>Node2&#45;&gt;Node11</title>
<path fill="none" stroke="midnightblue" d="M684.497,-114.73C673.994,-113.75 663.188,-112.799 653,-112 390.927,-91.4374 319.357,-119.566 56.5222,-75.8922"/>
<polygon fill="midnightblue" stroke="midnightblue" points="56.7294,-72.378 46.2875,-74.1716 55.5688,-79.2811 56.7294,-72.378"/>
</g>
<!-- Node12 -->
<g id="node12" class="node"><title>Node12</title>
<polygon fill="white" stroke="#bfbfbf" points="522,-56.5 522,-75.5 566,-75.5 566,-56.5 522,-56.5"/>
<text text-anchor="middle" x="544" y="-63.5" font-family="Helvetica,sans-Serif" font-size="10.00">cmath</text>
</g>
<!-- Node2&#45;&gt;Node12 -->
<g id="edge11" class="edge"><title>Node2&#45;&gt;Node12</title>
<path fill="none" stroke="midnightblue" d="M713.052,-112.439C678.775,-103.495 623.566,-88.9837 576,-76 575.899,-75.9725 575.798,-75.9449 575.697,-75.9172"/>
<polygon fill="midnightblue" stroke="midnightblue" points="576.593,-72.5337 566.022,-73.2416 574.727,-79.2804 576.593,-72.5337"/>
</g>
<!-- Node13 -->
<g id="node13" class="node"><title>Node13</title>
<polygon fill="white" stroke="#bfbfbf" points="584.5,-56.5 584.5,-75.5 629.5,-75.5 629.5,-56.5 584.5,-56.5"/>
<text text-anchor="middle" x="607" y="-63.5" font-family="Helvetica,sans-Serif" font-size="10.00">iosfwd</text>
</g>
<!-- Node2&#45;&gt;Node13 -->
<g id="edge12" class="edge"><title>Node2&#45;&gt;Node13</title>
<path fill="none" stroke="midnightblue" d="M723.975,-112.444C700.896,-103.478 664.438,-89.314 638.359,-79.1827"/>
<polygon fill="midnightblue" stroke="midnightblue" points="639.511,-75.8753 628.922,-75.5164 636.976,-82.4002 639.511,-75.8753"/>
</g>
<!-- Node14 -->
<g id="node14" class="node"><title>Node14</title>
<polygon fill="white" stroke="#bfbfbf" points="648,-56.5 648,-75.5 702,-75.5 702,-56.5 648,-56.5"/>
<text text-anchor="middle" x="675" y="-63.5" font-family="Helvetica,sans-Serif" font-size="10.00">iostream</text>
</g>
<!-- Node2&#45;&gt;Node14 -->
<g id="edge13" class="edge"><title>Node2&#45;&gt;Node14</title>
<path fill="none" stroke="midnightblue" d="M734.593,-112.324C723.891,-104.185 707.659,-91.8395 694.837,-82.0874"/>
<polygon fill="midnightblue" stroke="midnightblue" points="696.693,-79.1018 686.615,-75.8339 692.456,-84.6734 696.693,-79.1018"/>
</g>
<!-- Node15 -->
<g id="node15" class="node"><title>Node15</title>
<polygon fill="white" stroke="#bfbfbf" points="720.5,-56.5 720.5,-75.5 771.5,-75.5 771.5,-56.5 720.5,-56.5"/>
<text text-anchor="middle" x="746" y="-63.5" font-family="Helvetica,sans-Serif" font-size="10.00">unistd.h</text>
</g>
<!-- Node2&#45;&gt;Node15 -->
<g id="edge14" class="edge"><title>Node2&#45;&gt;Node15</title>
<path fill="none" stroke="midnightblue" d="M746,-112.083C746,-105.006 746,-94.8611 746,-85.9865"/>
<polygon fill="midnightblue" stroke="midnightblue" points="749.5,-85.751 746,-75.7511 742.5,-85.7511 749.5,-85.751"/>
</g>
<!-- Node16 -->
<g id="node16" class="node"><title>Node16</title>
<polygon fill="white" stroke="#bfbfbf" points="790,-56.5 790,-75.5 834,-75.5 834,-56.5 790,-56.5"/>
<text text-anchor="middle" x="812" y="-63.5" font-family="Helvetica,sans-Serif" font-size="10.00">fcntl.h</text>
</g>
<!-- Node2&#45;&gt;Node16 -->
<g id="edge15" class="edge"><title>Node2&#45;&gt;Node16</title>
<path fill="none" stroke="midnightblue" d="M756.604,-112.324C766.456,-104.263 781.351,-92.0765 793.215,-82.3695"/>
<polygon fill="midnightblue" stroke="midnightblue" points="795.68,-84.8752 801.203,-75.8339 791.247,-79.4575 795.68,-84.8752"/>
</g>
<!-- Node17 -->
<g id="node17" class="node"><title>Node17</title>
<polygon fill="white" stroke="#bfbfbf" points="852.5,-56.5 852.5,-75.5 893.5,-75.5 893.5,-56.5 852.5,-56.5"/>
<text text-anchor="middle" x="873" y="-63.5" font-family="Helvetica,sans-Serif" font-size="10.00">string</text>
</g>
<!-- Node2&#45;&gt;Node17 -->
<g id="edge16" class="edge"><title>Node2&#45;&gt;Node17</title>
<path fill="none" stroke="midnightblue" d="M766.124,-112.444C787.024,-103.557 819.935,-89.5632 843.716,-79.4514"/>
<polygon fill="midnightblue" stroke="midnightblue" points="845.138,-82.6504 852.971,-75.5164 842.398,-76.2085 845.138,-82.6504"/>
</g>
<!-- Node18 -->
<g id="node18" class="node"><title>Node18</title>
<polygon fill="white" stroke="#bfbfbf" points="876,-0.5 876,-19.5 920,-19.5 920,-0.5 876,-0.5"/>
<text text-anchor="middle" x="898" y="-7.5" font-family="Helvetica,sans-Serif" font-size="10.00">vector</text>
</g>
<!-- Node2&#45;&gt;Node18 -->
<g id="edge17" class="edge"><title>Node2&#45;&gt;Node18</title>
<path fill="none" stroke="midnightblue" d="M800.739,-112.448C840.891,-104.926 890.5,-92.5867 903,-76 912.988,-62.7471 909.894,-43.3525 905.428,-29.199"/>
<polygon fill="midnightblue" stroke="midnightblue" points="908.64,-27.7917 901.938,-19.586 902.06,-30.1802 908.64,-27.7917"/>
</g>
<!-- Node19 -->
<g id="node19" class="node"><title>Node19</title>
<polygon fill="white" stroke="#bfbfbf" points="1274.5,-56.5 1274.5,-75.5 1317.5,-75.5 1317.5,-56.5 1274.5,-56.5"/>
<text text-anchor="middle" x="1296" y="-63.5" font-family="Helvetica,sans-Serif" font-size="10.00">deque</text>
</g>
<!-- Node2&#45;&gt;Node19 -->
<g id="edge18" class="edge"><title>Node2&#45;&gt;Node19</title>
<path fill="none" stroke="midnightblue" d="M807.715,-118.741C904.615,-114.488 1098.11,-103.149 1260,-76 1261.47,-75.7536 1262.97,-75.4783 1264.48,-75.1813"/>
<polygon fill="midnightblue" stroke="midnightblue" points="1265.41,-78.5602 1274.41,-72.9832 1263.89,-71.7253 1265.41,-78.5602"/>
</g>
<!-- Node20 -->
<g id="node20" class="node"><title>Node20</title>
<polygon fill="white" stroke="#bfbfbf" points="938,-0.5 938,-19.5 982,-19.5 982,-0.5 938,-0.5"/>
<text text-anchor="middle" x="960" y="-7.5" font-family="Helvetica,sans-Serif" font-size="10.00">mutex</text>
</g>
<!-- Node2&#45;&gt;Node20 -->
<g id="edge19" class="edge"><title>Node2&#45;&gt;Node20</title>
<path fill="none" stroke="midnightblue" d="M807.661,-116.479C843.352,-111.238 887.496,-100.004 920,-76 935.953,-64.2184 946.925,-43.9947 953.287,-29.2276"/>
<polygon fill="midnightblue" stroke="midnightblue" points="956.658,-30.2231 957.11,-19.6379 950.156,-27.6307 956.658,-30.2231"/>
</g>
<!-- Node21 -->
<g id="node21" class="node"><title>Node21</title>
<polygon fill="white" stroke="#bfbfbf" points="1000,-0.5 1000,-19.5 1044,-19.5 1044,-0.5 1000,-0.5"/>
<text text-anchor="middle" x="1022" y="-7.5" font-family="Helvetica,sans-Serif" font-size="10.00">thread</text>
</g>
<!-- Node2&#45;&gt;Node21 -->
<g id="edge20" class="edge"><title>Node2&#45;&gt;Node21</title>
<path fill="none" stroke="midnightblue" d="M807.937,-114.337C848.03,-108.251 900.489,-96.8784 943,-76 968.019,-63.7123 992.052,-42.0623 1006.91,-27.1468"/>
<polygon fill="midnightblue" stroke="midnightblue" points="1009.72,-29.2737 1014.16,-19.6554 1004.69,-24.4037 1009.72,-29.2737"/>
</g>
<!-- Node22 -->
<g id="node22" class="node"><title>Node22</title>
<polygon fill="white" stroke="#bfbfbf" points="1108.5,-0.5 1108.5,-19.5 1203.5,-19.5 1203.5,-0.5 1108.5,-0.5"/>
<text text-anchor="middle" x="1156" y="-7.5" font-family="Helvetica,sans-Serif" font-size="10.00">condition_variable</text>
</g>
<!-- Node2&#45;&gt;Node22 -->
<g id="edge21" class="edge"><title>Node2&#45;&gt;Node22</title>
<path fill="none" stroke="midnightblue" d="M807.796,-118.407C915.308,-113.28 1127.61,-100.193 1151,-76 1162.66,-63.9387 1162.49,-44.0547 1160.29,-29.4496"/>
<polygon fill="midnightblue" stroke="midnightblue" points="1163.7,-28.6785 1158.36,-19.527 1156.83,-30.0102 1163.7,-28.6785"/>
</g>
<!-- Node23 -->
<g id="node23" class="node"><title>Node23</title>
<polygon fill="white" stroke="#bfbfbf" points="1221.5,-0.5 1221.5,-19.5 1264.5,-19.5 1264.5,-0.5 1221.5,-0.5"/>
<text text-anchor="middle" x="1243" y="-7.5" font-family="Helvetica,sans-Serif" font-size="10.00">queue</text>
</g>
<!-- Node2&#45;&gt;Node23 -->
<g id="edge22" class="edge"><title>Node2&#45;&gt;Node23</title>
<path fill="none" stroke="midnightblue" d="M807.842,-119C909.206,-114.963 1105.76,-103.737 1169,-76 1193.84,-65.1044 1216.31,-42.7552 1229.81,-27.3296"/>
<polygon fill="midnightblue" stroke="midnightblue" points="1232.57,-29.4878 1236.34,-19.5888 1227.22,-24.9723 1232.57,-29.4878"/>
</g>
<!-- Node24 -->
<g id="node24" class="node"><title>Node24</title>
<polygon fill="white" stroke="#bfbfbf" points="1336,-56.5 1336,-75.5 1388,-75.5 1388,-56.5 1336,-56.5"/>
<text text-anchor="middle" x="1362" y="-63.5" font-family="Helvetica,sans-Serif" font-size="10.00">sstream</text>
</g>
<!-- Node2&#45;&gt;Node24 -->
<g id="edge23" class="edge"><title>Node2&#45;&gt;Node24</title>
<path fill="none" stroke="midnightblue" d="M807.912,-119.742C912.759,-116.84 1131.96,-107.434 1325.65,-75.9414"/>
<polygon fill="midnightblue" stroke="midnightblue" points="1326.43,-79.3597 1335.73,-74.2786 1325.3,-72.453 1326.43,-79.3597"/>
</g>
<!-- Node25 -->
<g id="node25" class="node"><title>Node25</title>
<polygon fill="white" stroke="#bfbfbf" points="1282.5,-0.5 1282.5,-19.5 1317.5,-19.5 1317.5,-0.5 1282.5,-0.5"/>
<text text-anchor="middle" x="1300" y="-7.5" font-family="Helvetica,sans-Serif" font-size="10.00">map</text>
</g>
<!-- Node2&#45;&gt;Node25 -->
<g id="edge24" class="edge"><title>Node2&#45;&gt;Node25</title>
<path fill="none" stroke="midnightblue" d="M807.635,-118.356C913.809,-113.219 1126.59,-100.212 1197,-76 1229.6,-64.7902 1262.45,-41.4963 1282.01,-26.0559"/>
<polygon fill="midnightblue" stroke="midnightblue" points="1284.44,-28.5944 1290.02,-19.586 1280.04,-23.1506 1284.44,-28.5944"/>
</g>
<!-- Node26 -->
<g id="node26" class="node"><title>Node26</title>
<g id="a_node26"><a xlink:href="cosmos-defs_8h.html" target="_top" xlink:title="COSMOS definitions Definitions specific to the COSMOS environement. ">
<polygon fill="white" stroke="black" points="1026,-56.5 1026,-75.5 1142,-75.5 1142,-56.5 1026,-56.5"/>
<text text-anchor="middle" x="1084" y="-63.5" font-family="Helvetica,sans-Serif" font-size="10.00">support/cosmos&#45;defs.h</text>
</a>
</g>
</g>
<!-- Node2&#45;&gt;Node26 -->
<g id="edge25" class="edge"><title>Node2&#45;&gt;Node26</title>
<path fill="none" stroke="midnightblue" d="M799.557,-112.444C859.633,-102.846 956.99,-87.2916 1020.76,-77.1037"/>
<polygon fill="midnightblue" stroke="midnightblue" points="1021.37,-80.5503 1030.69,-75.5164 1020.27,-73.638 1021.37,-80.5503"/>
</g>
<!-- Node26&#45;&gt;Node18 -->
<g id="edge27" class="edge"><title>Node26&#45;&gt;Node18</title>
<path fill="none" stroke="midnightblue" d="M1054.53,-56.4435C1020.5,-46.5639 964.731,-30.3734 929.76,-20.2208"/>
<polygon fill="midnightblue" stroke="midnightblue" points="930.633,-16.8296 920.053,-17.4026 928.681,-23.552 930.633,-16.8296"/>
</g>
<!-- Node26&#45;&gt;Node20 -->
<g id="edge31" class="edge"><title>Node26&#45;&gt;Node20</title>
<path fill="none" stroke="midnightblue" d="M1064.35,-56.4435C1044.04,-47.5961 1012.1,-33.6875 988.902,-23.5865"/>
<polygon fill="midnightblue" stroke="midnightblue" points="990.122,-20.3002 979.556,-19.5164 987.327,-26.7181 990.122,-20.3002"/>
</g>
<!-- Node26&#45;&gt;Node21 -->
<g id="edge30" class="edge"><title>Node26&#45;&gt;Node21</title>
<path fill="none" stroke="midnightblue" d="M1074.04,-56.324C1064.87,-48.3414 1051.06,-36.3128 1039.97,-26.6529"/>
<polygon fill="midnightblue" stroke="midnightblue" points="1041.98,-23.7624 1032.14,-19.8339 1037.38,-29.041 1041.98,-23.7624"/>
</g>
<!-- Node26&#45;&gt;Node22 -->
<g id="edge32" class="edge"><title>Node26&#45;&gt;Node22</title>
<path fill="none" stroke="midnightblue" d="M1095.57,-56.324C1106.42,-48.1849 1122.88,-35.8395 1135.88,-26.0874"/>
<polygon fill="midnightblue" stroke="midnightblue" points="1138.32,-28.6339 1144.22,-19.8339 1134.12,-23.0339 1138.32,-28.6339"/>
</g>
<!-- Node26&#45;&gt;Node23 -->
<g id="edge29" class="edge"><title>Node26&#45;&gt;Node23</title>
<path fill="none" stroke="midnightblue" d="M1109.19,-56.4435C1137.04,-46.985 1181.93,-31.7421 1211.93,-21.551"/>
<polygon fill="midnightblue" stroke="midnightblue" points="1213.15,-24.8342 1221.49,-18.3042 1210.9,-18.206 1213.15,-24.8342"/>
</g>
<!-- Node26&#45;&gt;Node25 -->
<g id="edge26" class="edge"><title>Node26&#45;&gt;Node25</title>
<path fill="none" stroke="midnightblue" d="M1125.45,-56.4426C1162.04,-48.6094 1216.97,-36.1691 1272.77,-20.1564"/>
<polygon fill="midnightblue" stroke="midnightblue" points="1273.83,-23.4924 1282.45,-17.3417 1271.88,-16.7703 1273.83,-23.4924"/>
</g>
<!-- Node27 -->
<g id="node27" class="node"><title>Node27</title>
<polygon fill="white" stroke="#bfbfbf" points="1061.5,-0.5 1061.5,-19.5 1090.5,-19.5 1090.5,-0.5 1061.5,-0.5"/>
<text text-anchor="middle" x="1076" y="-7.5" font-family="Helvetica,sans-Serif" font-size="10.00">list</text>
</g>
<!-- Node26&#45;&gt;Node27 -->
<g id="edge28" class="edge"><title>Node26&#45;&gt;Node27</title>
<path fill="none" stroke="midnightblue" d="M1082.68,-56.083C1081.62,-48.9272 1080.09,-38.6353 1078.77,-29.6911"/>
<polygon fill="midnightblue" stroke="midnightblue" points="1082.22,-29.1302 1077.3,-19.7511 1075.3,-30.1561 1082.22,-29.1302"/>
</g>
<!-- Node33&#45;&gt;Node2 -->
<g id="edge39" class="edge"><title>Node33&#45;&gt;Node2</title>
<path fill="none" stroke="midnightblue" d="M684.657,-280.203C692.143,-270.468 701.622,-257.03 708,-244 724.88,-209.513 736.396,-165.865 742.023,-141.538"/>
<polygon fill="midnightblue" stroke="midnightblue" points="745.49,-142.07 744.251,-131.548 738.658,-140.546 745.49,-142.07"/>
</g>
<!-- Node34 -->
<g id="node34" class="node"><title>Node34</title>
<g id="a_node34"><a xlink:href="sliplib_8h.html" target="_top" xlink:title="COSMOS SLIP support include file. ">
<polygon fill="white" stroke="black" points="613.5,-224.5 613.5,-243.5 698.5,-243.5 698.5,-224.5 613.5,-224.5"/>
<text text-anchor="middle" x="656" y="-231.5" font-family="Helvetica,sans-Serif" font-size="10.00">support/sliplib.h</text>
</a>
</g>
</g>
<!-- Node33&#45;&gt;Node34 -->
<g id="edge40" class="edge"><title>Node33&#45;&gt;Node34</title>
<path fill="none" stroke="midnightblue" d="M668.971,-280.399C666.654,-272.288 663.716,-262.007 661.223,-253.281"/>
<polygon fill="midnightblue" stroke="midnightblue" points="664.586,-252.311 658.474,-243.658 657.856,-254.235 664.586,-252.311"/>
</g>
<!-- Node34&#45;&gt;Node2 -->
<g id="edge41" class="edge"><title>Node34&#45;&gt;Node2</title>
<path fill="none" stroke="midnightblue" d="M663.062,-224.368C678.046,-206.055 713.233,-163.049 732.613,-139.362"/>
<polygon fill="midnightblue" stroke="midnightblue" points="735.347,-141.547 738.971,-131.591 729.929,-137.115 735.347,-141.547"/>
</g>
<!-- Node34&#45;&gt;Node11 -->
<g id="edge45" class="edge"><title>Node34&#45;&gt;Node11</title>
<path fill="none" stroke="midnightblue" d="M622.385,-224.453C532.391,-201.521 278.3,-136.448 55.9525,-76.223"/>
<polygon fill="midnightblue" stroke="midnightblue" points="56.6253,-72.7791 46.0578,-73.5404 54.7936,-79.5352 56.6253,-72.7791"/>
</g>
<!-- Node35 -->
<g id="node35" class="node"><title>Node35</title>
<g id="a_node35"><a xlink:href="cosmos-errno_8h.html" target="_top" xlink:title="COSMOS Error Codes. ">
<polygon fill="white" stroke="black" points="560.5,-168.5 560.5,-187.5 679.5,-187.5 679.5,-168.5 560.5,-168.5"/>
<text text-anchor="middle" x="620" y="-175.5" font-family="Helvetica,sans-Serif" font-size="10.00">support/cosmos&#45;errno.h</text>
</a>
</g>
</g>
<!-- Node34&#45;&gt;Node35 -->
<g id="edge42" class="edge"><title>Node34&#45;&gt;Node35</title>
<path fill="none" stroke="midnightblue" d="M650.055,-224.083C645.023,-216.534 637.663,-205.495 631.487,-196.23"/>
<polygon fill="midnightblue" stroke="midnightblue" points="634.293,-194.13 625.834,-187.751 628.469,-198.013 634.293,-194.13"/>
</g>
<!-- Node35&#45;&gt;Node2 -->
<g id="edge43" class="edge"><title>Node35&#45;&gt;Node2</title>
<path fill="none" stroke="midnightblue" d="M639.965,-168.444C660.609,-159.596 693.063,-145.687 716.632,-135.586"/>
<polygon fill="midnightblue" stroke="midnightblue" points="718.316,-138.673 726.128,-131.516 715.558,-132.239 718.316,-138.673"/>
</g>
<!-- Node36 -->
<g id="node36" class="node"><title>Node36</title>
<polygon fill="white" stroke="#bfbfbf" points="596.5,-112.5 596.5,-131.5 643.5,-131.5 643.5,-112.5 596.5,-112.5"/>
<text text-anchor="middle" x="620" y="-119.5" font-family="Helvetica,sans-Serif" font-size="10.00">errno.h</text>
</g>
<!-- Node35&#45;&gt;Node36 -->
<g id="edge44" class="edge"><title>Node35&#45;&gt;Node36</title>
<path fill="none" stroke="midnightblue" d="M620,-168.083C620,-161.006 620,-150.861 620,-141.986"/>
<polygon fill="midnightblue" stroke="midnightblue" points="623.5,-141.751 620,-131.751 616.5,-141.751 623.5,-141.751"/>
</g>
<!-- Node37&#45;&gt;Node33 -->
<g id="edge47" class="edge"><title>Node37&#45;&gt;Node33</title>
<path fill="none" stroke="midnightblue" d="M657.579,-347.475C659.721,-340.396 662.874,-329.97 665.773,-320.39"/>
<polygon fill="midnightblue" stroke="midnightblue" points="669.212,-321.108 668.758,-310.523 662.512,-319.081 669.212,-321.108"/>
</g>
</g>
</svg>
        <g id="navigator" transform="translate(0 0)" fill="#404254">
                <rect fill="#f2f5e9" fill-opacity="0.5" stroke="#606060" stroke-width=".5" x="0" y="0" width="60" height="60"/>
                <use id="zoomplus" xlink:href="#zoomPlus" x="17" y="9" onmousedown="handleZoom(evt,'in')"/>
                <use id="zoomminus" xlink:href="#zoomMin" x="42" y="9" onmousedown="handleZoom(evt,'out')"/>
                <use id="reset" xlink:href="#resetDef" x="30" y="36" onmousedown="handleReset()"/>
                <g id="arrowUp" xlink:href="#dirArrow" transform="translate(30 24)" onmousedown="handlePan(0,-1)">
                  <use xlink:href="#rim" fill="#404040">
                        <set attributeName="fill" to="#808080" begin="arrowUp.mouseover" end="arrowUp.mouseout"/>
                  </use>
                  <path fill="none" stroke="white" stroke-width="1.5" d="M0,-3.0v7 M-2.5,-0.5L0,-3.0L2.5,-0.5"/>
                </g>
                <g id="arrowRight" xlink:href="#dirArrow" transform="rotate(90) translate(36 -43)" onmousedown="handlePan(1,0)">
                  <use xlink:href="#rim" fill="#404040">
                        <set attributeName="fill" to="#808080" begin="arrowRight.mouseover" end="arrowRight.mouseout"/>
                  </use>
                  <path fill="none" stroke="white" stroke-width="1.5" d="M0,-3.0v7 M-2.5,-0.5L0,-3.0L2.5,-0.5"/>
                </g>
                <g id="arrowDown" xlink:href="#dirArrow" transform="rotate(180) translate(-30 -48)" onmousedown="handlePan(0,1)">
                  <use xlink:href="#rim" fill="#404040">
                        <set attributeName="fill" to="#808080" begin="arrowDown.mouseover" end="arrowDown.mouseout"/>
                  </use>
                  <path fill="none" stroke="white" stroke-width="1.5" d="M0,-3.0v7 M-2.5,-0.5L0,-3.0L2.5,-0.5"/>
                </g>
                <g id="arrowLeft" xlink:href="#dirArrow" transform="rotate(270) translate(-36 17)" onmousedown="handlePan(-1,0)">
                  <use xlink:href="#rim" fill="#404040">
                        <set attributeName="fill" to="#808080" begin="arrowLeft.mouseover" end="arrowLeft.mouseout"/>
                  </use>
                  <path fill="none" stroke="white" stroke-width="1.5" d="M0,-3.0v7 M-2.5,-0.5L0,-3.0L2.5,-0.5"/>
                </g>
        </g>
        <svg viewBox="0 0 15 15" width="100%" height="30px" preserveAspectRatio="xMaxYMin meet">
         <g id="arrow_out" transform="scale(0.3 0.3)">
          <a xlink:href="bb_fctns_8cpp__incl_org.svg" target="_base">
           <rect id="button" ry="5" rx="5" y="6" x="6" height="38" width="38"
                fill="#f2f5e9" fill-opacity="0.5" stroke="#606060" stroke-width="1.0"/>
           <path id="arrow"
             d="M 11.500037,31.436501 C 11.940474,20.09759 22.043105,11.32322 32.158766,21.979434 L 37.068811,17.246167 C 37.068811,17.246167 37.088388,32 37.088388,32 L 22.160133,31.978069 C 22.160133,31.978069 26.997745,27.140456 26.997745,27.140456 C 18.528582,18.264221 13.291696,25.230495 11.500037,31.436501 z"
             style="fill:#404040;"/>
          </a>
         </g>
        </svg>
</svg>
