<?xml version="1.0" encoding="UTF-8" standalone="no"?>
<!DOCTYPE svg PUBLIC "-//W3C//DTD SVG 1.1//EN"
 "http://www.w3.org/Graphics/SVG/1.1/DTD/svg11.dtd">
<!-- Generated by graphviz version 2.38.0 (20140413.2041)
 -->
<!-- Title: bbFctns.h Pages: 1 -->
<svg width="1459pt" height="375pt"
 viewBox="0.00 0.00 1459.00 375.00" xmlns="http://www.w3.org/2000/svg" xmlns:xlink="http://www.w3.org/1999/xlink">
<g id="graph0" class="graph" transform="scale(1 1) rotate(0) translate(4 371)">
<title>bbFctns.h</title>
<polygon fill="white" stroke="none" points="-4,4 -4,-371 1455,-371 1455,4 -4,4"/>
<!-- Node1 -->
<g id="node1" class="node"><title>Node1</title>
<polygon fill="#bfbfbf" stroke="black" points="800,-347.5 800,-366.5 860,-366.5 860,-347.5 800,-347.5"/>
<text text-anchor="middle" x="830" y="-354.5" font-family="Helvetica,sans-Serif" font-size="10.00">bbFctns.h</text>
</g>
<!-- Node2 -->
<g id="node2" class="node"><title>Node2</title>
<g id="a_node2"><a xlink:href="cssl__lib_8h.html" target="_top" xlink:title="Simple Serial library header file. ">
<polygon fill="white" stroke="black" points="779.5,-280.5 779.5,-310.5 880.5,-310.5 880.5,-280.5 779.5,-280.5"/>
<text text-anchor="start" x="787.5" y="-298.5" font-family="Helvetica,sans-Serif" font-size="10.00">device/general/cssl</text>
<text text-anchor="middle" x="830" y="-287.5" font-family="Helvetica,sans-Serif" font-size="10.00">_lib.h</text>
</a>
</g>
</g>
<!-- Node1&#45;&gt;Node2 -->
<g id="edge1" class="edge"><title>Node1&#45;&gt;Node2</title>
<path fill="none" stroke="midnightblue" d="M830,-347.475C830,-340.471 830,-330.192 830,-320.696"/>
<polygon fill="midnightblue" stroke="midnightblue" points="833.5,-320.523 830,-310.523 826.5,-320.523 833.5,-320.523"/>
</g>
<!-- Node3 -->
<g id="node3" class="node"><title>Node3</title>
<g id="a_node3"><a xlink:href="config_cosmos_8h.html" target="_top" xlink:title="Headers and definitions common to all COSMOS. ">
<polygon fill="white" stroke="black" points="730.5,-112.5 730.5,-131.5 853.5,-131.5 853.5,-112.5 730.5,-112.5"/>
<text text-anchor="middle" x="792" y="-119.5" font-family="Helvetica,sans-Serif" font-size="10.00">support/configCosmos.h</text>
</a>
</g>
</g>
<!-- Node2&#45;&gt;Node3 -->
<g id="edge2" class="edge"><title>Node2&#45;&gt;Node3</title>
<path fill="none" stroke="midnightblue" d="M826.89,-280.465C820.074,-249.704 803.816,-176.329 796.144,-141.7"/>
<polygon fill="midnightblue" stroke="midnightblue" points="799.477,-140.566 793.897,-131.56 792.643,-142.08 799.477,-140.566"/>
</g>
<!-- Node29 -->
<g id="node29" class="node"><title>Node29</title>
<g id="a_node29"><a xlink:href="sliplib_8h.html" target="_top" xlink:title="COSMOS SLIP support include file. ">
<polygon fill="white" stroke="black" points="836.5,-224.5 836.5,-243.5 921.5,-243.5 921.5,-224.5 836.5,-224.5"/>
<text text-anchor="middle" x="879" y="-231.5" font-family="Helvetica,sans-Serif" font-size="10.00">support/sliplib.h</text>
</a>
</g>
</g>
<!-- Node2&#45;&gt;Node29 -->
<g id="edge34" class="edge"><title>Node2&#45;&gt;Node29</title>
<path fill="none" stroke="midnightblue" d="M841.612,-280.399C848.733,-271.753 857.883,-260.642 865.349,-251.576"/>
<polygon fill="midnightblue" stroke="midnightblue" points="868.215,-253.602 871.87,-243.658 862.811,-249.152 868.215,-253.602"/>
</g>
<!-- Node4 -->
<g id="node4" class="node"><title>Node4</title>
<polygon fill="white" stroke="#bfbfbf" points="1276.5,-56.5 1276.5,-75.5 1321.5,-75.5 1321.5,-56.5 1276.5,-56.5"/>
<text text-anchor="middle" x="1299" y="-63.5" font-family="Helvetica,sans-Serif" font-size="10.00">climits</text>
</g>
<!-- Node3&#45;&gt;Node4 -->
<g id="edge3" class="edge"><title>Node3&#45;&gt;Node4</title>
<path fill="none" stroke="midnightblue" d="M853.63,-114.203C860.833,-113.443 868.077,-112.693 875,-112 1045.85,-94.8926 1093.22,-107.336 1266.43,-75.7482"/>
<polygon fill="midnightblue" stroke="midnightblue" points="1267.2,-79.1667 1276.39,-73.909 1265.93,-72.283 1267.2,-79.1667"/>
</g>
<!-- Node5 -->
<g id="node5" class="node"><title>Node5</title>
<polygon fill="white" stroke="#bfbfbf" points="1339.5,-56.5 1339.5,-75.5 1386.5,-75.5 1386.5,-56.5 1339.5,-56.5"/>
<text text-anchor="middle" x="1363" y="-63.5" font-family="Helvetica,sans-Serif" font-size="10.00">csignal</text>
</g>
<!-- Node3&#45;&gt;Node5 -->
<g id="edge4" class="edge"><title>Node3&#45;&gt;Node5</title>
<path fill="none" stroke="midnightblue" d="M853.622,-114.116C860.826,-113.371 868.073,-112.649 875,-112 1074.15,-93.3456 1129.1,-111.1 1329.4,-75.975"/>
<polygon fill="midnightblue" stroke="midnightblue" points="1330.12,-79.401 1339.35,-74.2063 1328.9,-72.5089 1330.12,-79.401"/>
</g>
<!-- Node6 -->
<g id="node6" class="node"><title>Node6</title>
<polygon fill="white" stroke="#bfbfbf" points="0,-56.5 0,-75.5 46,-75.5 46,-56.5 0,-56.5"/>
<text text-anchor="middle" x="23" y="-63.5" font-family="Helvetica,sans-Serif" font-size="10.00">cstdint</text>
</g>
<!-- Node3&#45;&gt;Node6 -->
<g id="edge5" class="edge"><title>Node3&#45;&gt;Node6</title>
<path fill="none" stroke="midnightblue" d="M730.348,-121.649C604.817,-122.017 310.623,-118.014 56.4529,-75.8785"/>
<polygon fill="midnightblue" stroke="midnightblue" points="56.7298,-72.376 46.2879,-74.1692 55.569,-79.2791 56.7298,-72.376"/>
</g>
<!-- Node7 -->
<g id="node7" class="node"><title>Node7</title>
<polygon fill="white" stroke="#bfbfbf" points="64,-56.5 64,-75.5 120,-75.5 120,-56.5 64,-56.5"/>
<text text-anchor="middle" x="92" y="-63.5" font-family="Helvetica,sans-Serif" font-size="10.00">cinttypes</text>
</g>
<!-- Node3&#45;&gt;Node7 -->
<g id="edge6" class="edge"><title>Node3&#45;&gt;Node7</title>
<path fill="none" stroke="midnightblue" d="M730.372,-120.323C614.49,-118.286 356.196,-110.132 130.238,-75.9236"/>
<polygon fill="midnightblue" stroke="midnightblue" points="130.597,-72.4379 120.182,-74.3806 129.536,-79.3569 130.597,-72.4379"/>
</g>
<!-- Node8 -->
<g id="node8" class="node"><title>Node8</title>
<polygon fill="white" stroke="#bfbfbf" points="138.5,-56.5 138.5,-75.5 181.5,-75.5 181.5,-56.5 138.5,-56.5"/>
<text text-anchor="middle" x="160" y="-63.5" font-family="Helvetica,sans-Serif" font-size="10.00">cstdio</text>
</g>
<!-- Node3&#45;&gt;Node8 -->
<g id="edge7" class="edge"><title>Node3&#45;&gt;Node8</title>
<path fill="none" stroke="midnightblue" d="M730.338,-120.78C622.467,-119.441 392.593,-112.336 191.668,-75.954"/>
<polygon fill="midnightblue" stroke="midnightblue" points="192.289,-72.5095 181.821,-74.1428 191.022,-79.394 192.289,-72.5095"/>
</g>
<!-- Node9 -->
<g id="node9" class="node"><title>Node9</title>
<polygon fill="white" stroke="#bfbfbf" points="199.5,-56.5 199.5,-75.5 248.5,-75.5 248.5,-56.5 199.5,-56.5"/>
<text text-anchor="middle" x="224" y="-63.5" font-family="Helvetica,sans-Serif" font-size="10.00">cstddef</text>
</g>
<!-- Node3&#45;&gt;Node9 -->
<g id="edge8" class="edge"><title>Node3&#45;&gt;Node9</title>
<path fill="none" stroke="midnightblue" d="M730.148,-119.454C631.888,-116.196 434.087,-106.37 258.68,-76.0158"/>
<polygon fill="midnightblue" stroke="midnightblue" points="259.211,-72.5556 248.756,-74.2721 258,-79.45 259.211,-72.5556"/>
</g>
<!-- Node10 -->
<g id="node10" class="node"><title>Node10</title>
<polygon fill="white" stroke="#bfbfbf" points="266.5,-56.5 266.5,-75.5 311.5,-75.5 311.5,-56.5 266.5,-56.5"/>
<text text-anchor="middle" x="289" y="-63.5" font-family="Helvetica,sans-Serif" font-size="10.00">cstdlib</text>
</g>
<!-- Node3&#45;&gt;Node10 -->
<g id="edge9" class="edge"><title>Node3&#45;&gt;Node10</title>
<path fill="none" stroke="midnightblue" d="M730.165,-118.619C641.614,-114.432 473.559,-103.597 321.593,-75.757"/>
<polygon fill="midnightblue" stroke="midnightblue" points="322.079,-72.2874 311.607,-73.8985 320.798,-79.1692 322.079,-72.2874"/>
</g>
<!-- Node11 -->
<g id="node11" class="node"><title>Node11</title>
<polygon fill="white" stroke="#bfbfbf" points="330,-56.5 330,-75.5 374,-75.5 374,-56.5 330,-56.5"/>
<text text-anchor="middle" x="352" y="-63.5" font-family="Helvetica,sans-Serif" font-size="10.00">cerrno</text>
</g>
<!-- Node3&#45;&gt;Node11 -->
<g id="edge10" class="edge"><title>Node3&#45;&gt;Node11</title>
<path fill="none" stroke="midnightblue" d="M730.171,-117.537C651.678,-112.401 512.057,-100.79 384.204,-75.9257"/>
<polygon fill="midnightblue" stroke="midnightblue" points="384.726,-72.4612 374.237,-73.9553 383.369,-79.3283 384.726,-72.4612"/>
</g>
<!-- Node12 -->
<g id="node12" class="node"><title>Node12</title>
<polygon fill="white" stroke="#bfbfbf" points="1405,-56.5 1405,-75.5 1451,-75.5 1451,-56.5 1405,-56.5"/>
<text text-anchor="middle" x="1428" y="-63.5" font-family="Helvetica,sans-Serif" font-size="10.00">cstring</text>
</g>
<!-- Node3&#45;&gt;Node12 -->
<g id="edge11" class="edge"><title>Node3&#45;&gt;Node12</title>
<path fill="none" stroke="midnightblue" d="M853.616,-114.048C860.821,-113.316 868.07,-112.615 875,-112 1102.93,-91.7758 1165.54,-114.955 1394.73,-75.8701"/>
<polygon fill="midnightblue" stroke="midnightblue" points="1395.45,-79.2974 1404.71,-74.1471 1394.26,-72.3995 1395.45,-79.2974"/>
</g>
<!-- Node13 -->
<g id="node13" class="node"><title>Node13</title>
<polygon fill="white" stroke="#bfbfbf" points="392,-56.5 392,-75.5 436,-75.5 436,-56.5 392,-56.5"/>
<text text-anchor="middle" x="414" y="-63.5" font-family="Helvetica,sans-Serif" font-size="10.00">cmath</text>
</g>
<!-- Node3&#45;&gt;Node13 -->
<g id="edge12" class="edge"><title>Node3&#45;&gt;Node13</title>
<path fill="none" stroke="midnightblue" d="M730.304,-115.696C662.857,-109.289 551.511,-96.9272 446.129,-75.7225"/>
<polygon fill="midnightblue" stroke="midnightblue" points="446.777,-72.2826 436.279,-73.7106 445.376,-79.141 446.777,-72.2826"/>
</g>
<!-- Node14 -->
<g id="node14" class="node"><title>Node14</title>
<polygon fill="white" stroke="#bfbfbf" points="454.5,-56.5 454.5,-75.5 499.5,-75.5 499.5,-56.5 454.5,-56.5"/>
<text text-anchor="middle" x="477" y="-63.5" font-family="Helvetica,sans-Serif" font-size="10.00">iosfwd</text>
</g>
<!-- Node3&#45;&gt;Node14 -->
<g id="edge13" class="edge"><title>Node3&#45;&gt;Node14</title>
<path fill="none" stroke="midnightblue" d="M730.336,-113.303C674.995,-105.917 591.406,-93.5855 509.608,-75.9033"/>
<polygon fill="midnightblue" stroke="midnightblue" points="510.161,-72.4415 499.643,-73.7204 508.663,-79.2794 510.161,-72.4415"/>
</g>
<!-- Node15 -->
<g id="node15" class="node"><title>Node15</title>
<polygon fill="white" stroke="#bfbfbf" points="518,-56.5 518,-75.5 572,-75.5 572,-56.5 518,-56.5"/>
<text text-anchor="middle" x="545" y="-63.5" font-family="Helvetica,sans-Serif" font-size="10.00">iostream</text>
</g>
<!-- Node3&#45;&gt;Node15 -->
<g id="edge14" class="edge"><title>Node3&#45;&gt;Node15</title>
<path fill="none" stroke="midnightblue" d="M750.486,-112.456C708.07,-103.643 640.338,-89.3429 582,-76 581.899,-75.977 581.798,-75.9539 581.697,-75.9307"/>
<polygon fill="midnightblue" stroke="midnightblue" points="582.592,-72.5457 572.058,-73.6725 580.996,-79.3612 582.592,-72.5457"/>
</g>
<!-- Node16 -->
<g id="node16" class="node"><title>Node16</title>
<polygon fill="white" stroke="#bfbfbf" points="590.5,-56.5 590.5,-75.5 641.5,-75.5 641.5,-56.5 590.5,-56.5"/>
<text text-anchor="middle" x="616" y="-63.5" font-family="Helvetica,sans-Serif" font-size="10.00">unistd.h</text>
</g>
<!-- Node3&#45;&gt;Node16 -->
<g id="edge15" class="edge"><title>Node3&#45;&gt;Node16</title>
<path fill="none" stroke="midnightblue" d="M764.112,-112.444C733.631,-103.091 684.719,-88.0844 651.516,-77.8969"/>
<polygon fill="midnightblue" stroke="midnightblue" points="652.34,-74.4888 641.753,-74.9015 650.287,-81.1809 652.34,-74.4888"/>
</g>
<!-- Node17 -->
<g id="node17" class="node"><title>Node17</title>
<polygon fill="white" stroke="#bfbfbf" points="660,-56.5 660,-75.5 704,-75.5 704,-56.5 660,-56.5"/>
<text text-anchor="middle" x="682" y="-63.5" font-family="Helvetica,sans-Serif" font-size="10.00">fcntl.h</text>
</g>
<!-- Node3&#45;&gt;Node17 -->
<g id="edge16" class="edge"><title>Node3&#45;&gt;Node17</title>
<path fill="none" stroke="midnightblue" d="M774.327,-112.324C756.606,-103.625 729.097,-90.1202 708.712,-80.113"/>
<polygon fill="midnightblue" stroke="midnightblue" points="710.149,-76.9195 699.63,-75.6545 707.064,-83.2031 710.149,-76.9195"/>
</g>
<!-- Node18 -->
<g id="node18" class="node"><title>Node18</title>
<polygon fill="white" stroke="#bfbfbf" points="722.5,-56.5 722.5,-75.5 763.5,-75.5 763.5,-56.5 722.5,-56.5"/>
<text text-anchor="middle" x="743" y="-63.5" font-family="Helvetica,sans-Serif" font-size="10.00">string</text>
</g>
<!-- Node3&#45;&gt;Node18 -->
<g id="edge17" class="edge"><title>Node3&#45;&gt;Node18</title>
<path fill="none" stroke="midnightblue" d="M783.909,-112.083C776.845,-104.298 766.412,-92.8015 757.851,-83.3665"/>
<polygon fill="midnightblue" stroke="midnightblue" points="760.253,-80.8047 750.941,-75.7511 755.069,-85.5087 760.253,-80.8047"/>
</g>
<!-- Node19 -->
<g id="node19" class="node"><title>Node19</title>
<polygon fill="white" stroke="#bfbfbf" points="746,-0.5 746,-19.5 790,-19.5 790,-0.5 746,-0.5"/>
<text text-anchor="middle" x="768" y="-7.5" font-family="Helvetica,sans-Serif" font-size="10.00">vector</text>
</g>
<!-- Node3&#45;&gt;Node19 -->
<g id="edge18" class="edge"><title>Node3&#45;&gt;Node19</title>
<path fill="none" stroke="midnightblue" d="M790.117,-112.368C786.244,-94.617 777.309,-53.6664 772.058,-29.5974"/>
<polygon fill="midnightblue" stroke="midnightblue" points="775.426,-28.6155 769.874,-19.5914 768.587,-30.1077 775.426,-28.6155"/>
</g>
<!-- Node20 -->
<g id="node20" class="node"><title>Node20</title>
<polygon fill="white" stroke="#bfbfbf" points="1144.5,-56.5 1144.5,-75.5 1187.5,-75.5 1187.5,-56.5 1144.5,-56.5"/>
<text text-anchor="middle" x="1166" y="-63.5" font-family="Helvetica,sans-Serif" font-size="10.00">deque</text>
</g>
<!-- Node3&#45;&gt;Node20 -->
<g id="edge19" class="edge"><title>Node3&#45;&gt;Node20</title>
<path fill="none" stroke="midnightblue" d="M853.646,-113.638C936.26,-103.626 1078.47,-85.8398 1130,-76 1131.46,-75.7206 1132.96,-75.4182 1134.46,-75.0993"/>
<polygon fill="midnightblue" stroke="midnightblue" points="1135.42,-78.47 1144.39,-72.823 1133.86,-71.6472 1135.42,-78.47"/>
</g>
<!-- Node21 -->
<g id="node21" class="node"><title>Node21</title>
<polygon fill="white" stroke="#bfbfbf" points="808,-0.5 808,-19.5 852,-19.5 852,-0.5 808,-0.5"/>
<text text-anchor="middle" x="830" y="-7.5" font-family="Helvetica,sans-Serif" font-size="10.00">mutex</text>
</g>
<!-- Node3&#45;&gt;Node21 -->
<g id="edge20" class="edge"><title>Node3&#45;&gt;Node21</title>
<path fill="none" stroke="midnightblue" d="M794.982,-112.368C801.142,-94.5366 815.389,-53.2953 823.688,-29.2717"/>
<polygon fill="midnightblue" stroke="midnightblue" points="827.075,-30.1862 827.032,-19.5914 820.459,-27.9005 827.075,-30.1862"/>
</g>
<!-- Node22 -->
<g id="node22" class="node"><title>Node22</title>
<polygon fill="white" stroke="#bfbfbf" points="870,-0.5 870,-19.5 914,-19.5 914,-0.5 870,-0.5"/>
<text text-anchor="middle" x="892" y="-7.5" font-family="Helvetica,sans-Serif" font-size="10.00">thread</text>
</g>
<!-- Node3&#45;&gt;Node22 -->
<g id="edge21" class="edge"><title>Node3&#45;&gt;Node22</title>
<path fill="none" stroke="midnightblue" d="M799.847,-112.368C816.569,-93.9744 855.935,-50.6712 877.407,-27.0519"/>
<polygon fill="midnightblue" stroke="midnightblue" points="880.053,-29.3452 884.19,-19.5914 874.873,-24.6365 880.053,-29.3452"/>
</g>
<!-- Node23 -->
<g id="node23" class="node"><title>Node23</title>
<polygon fill="white" stroke="#bfbfbf" points="978.5,-0.5 978.5,-19.5 1073.5,-19.5 1073.5,-0.5 978.5,-0.5"/>
<text text-anchor="middle" x="1026" y="-7.5" font-family="Helvetica,sans-Serif" font-size="10.00">condition_variable</text>
</g>
<!-- Node3&#45;&gt;Node23 -->
<g id="edge22" class="edge"><title>Node3&#45;&gt;Node23</title>
<path fill="none" stroke="midnightblue" d="M853.736,-112.76C917.695,-103.619 1009.88,-88.5093 1021,-76 1031.92,-63.7196 1032.06,-44.4616 1030.14,-30.0904"/>
<polygon fill="midnightblue" stroke="midnightblue" points="1033.51,-29.0744 1028.32,-19.8394 1026.62,-30.297 1033.51,-29.0744"/>
</g>
<!-- Node24 -->
<g id="node24" class="node"><title>Node24</title>
<polygon fill="white" stroke="#bfbfbf" points="1091.5,-0.5 1091.5,-19.5 1134.5,-19.5 1134.5,-0.5 1091.5,-0.5"/>
<text text-anchor="middle" x="1113" y="-7.5" font-family="Helvetica,sans-Serif" font-size="10.00">queue</text>
</g>
<!-- Node3&#45;&gt;Node24 -->
<g id="edge23" class="edge"><title>Node3&#45;&gt;Node24</title>
<path fill="none" stroke="midnightblue" d="M853.733,-113.585C915.908,-105.438 1007.07,-91.4432 1039,-76 1063.16,-64.3159 1085.51,-42.5295 1099.19,-27.4179"/>
<polygon fill="midnightblue" stroke="midnightblue" points="1101.89,-29.6429 1105.85,-19.8159 1096.63,-25.0287 1101.89,-29.6429"/>
</g>
<!-- Node25 -->
<g id="node25" class="node"><title>Node25</title>
<polygon fill="white" stroke="#bfbfbf" points="1206,-56.5 1206,-75.5 1258,-75.5 1258,-56.5 1206,-56.5"/>
<text text-anchor="middle" x="1232" y="-63.5" font-family="Helvetica,sans-Serif" font-size="10.00">sstream</text>
</g>
<!-- Node3&#45;&gt;Node25 -->
<g id="edge24" class="edge"><title>Node3&#45;&gt;Node25</title>
<path fill="none" stroke="midnightblue" d="M853.716,-114.256C954.578,-103.219 1147.7,-82.0236 1195.73,-75.6555"/>
<polygon fill="midnightblue" stroke="midnightblue" points="1196.33,-79.1048 1205.71,-74.1829 1195.31,-72.1797 1196.33,-79.1048"/>
</g>
<!-- Node26 -->
<g id="node26" class="node"><title>Node26</title>
<polygon fill="white" stroke="#bfbfbf" points="1152.5,-0.5 1152.5,-19.5 1187.5,-19.5 1187.5,-0.5 1152.5,-0.5"/>
<text text-anchor="middle" x="1170" y="-7.5" font-family="Helvetica,sans-Serif" font-size="10.00">map</text>
</g>
<!-- Node3&#45;&gt;Node26 -->
<g id="edge25" class="edge"><title>Node3&#45;&gt;Node26</title>
<path fill="none" stroke="midnightblue" d="M853.676,-113.813C922.445,-105.289 1029,-90.4134 1067,-76 1099.06,-63.8381 1131.83,-41.0021 1151.55,-25.8952"/>
<polygon fill="midnightblue" stroke="midnightblue" points="1153.92,-28.4829 1159.64,-19.5642 1149.61,-22.9698 1153.92,-28.4829"/>
</g>
<!-- Node27 -->
<g id="node27" class="node"><title>Node27</title>
<g id="a_node27"><a xlink:href="cosmos-defs_8h.html" target="_top" xlink:title="COSMOS definitions Definitions specific to the COSMOS environement. ">
<polygon fill="white" stroke="black" points="896,-56.5 896,-75.5 1012,-75.5 1012,-56.5 896,-56.5"/>
<text text-anchor="middle" x="954" y="-63.5" font-family="Helvetica,sans-Serif" font-size="10.00">support/cosmos&#45;defs.h</text>
</a>
</g>
</g>
<!-- Node3&#45;&gt;Node27 -->
<g id="edge26" class="edge"><title>Node3&#45;&gt;Node27</title>
<path fill="none" stroke="midnightblue" d="M817.669,-112.444C844.923,-103.359 888.184,-88.9388 918.651,-78.7831"/>
<polygon fill="midnightblue" stroke="midnightblue" points="920.071,-81.9992 928.451,-75.5164 917.857,-75.3584 920.071,-81.9992"/>
</g>
<!-- Node27&#45;&gt;Node19 -->
<g id="edge28" class="edge"><title>Node27&#45;&gt;Node19</title>
<path fill="none" stroke="midnightblue" d="M924.528,-56.4435C890.498,-46.5639 834.731,-30.3734 799.76,-20.2208"/>
<polygon fill="midnightblue" stroke="midnightblue" points="800.633,-16.8296 790.053,-17.4026 798.681,-23.552 800.633,-16.8296"/>
</g>
<!-- Node27&#45;&gt;Node21 -->
<g id="edge32" class="edge"><title>Node27&#45;&gt;Node21</title>
<path fill="none" stroke="midnightblue" d="M934.352,-56.4435C914.035,-47.5961 882.097,-33.6875 858.902,-23.5865"/>
<polygon fill="midnightblue" stroke="midnightblue" points="860.122,-20.3002 849.556,-19.5164 857.327,-26.7181 860.122,-20.3002"/>
</g>
<!-- Node27&#45;&gt;Node22 -->
<g id="edge31" class="edge"><title>Node27&#45;&gt;Node22</title>
<path fill="none" stroke="midnightblue" d="M944.039,-56.324C934.873,-48.3414 921.063,-36.3128 909.972,-26.6529"/>
<polygon fill="midnightblue" stroke="midnightblue" points="911.982,-23.7624 902.143,-19.8339 907.385,-29.041 911.982,-23.7624"/>
</g>
<!-- Node27&#45;&gt;Node23 -->
<g id="edge33" class="edge"><title>Node27&#45;&gt;Node23</title>
<path fill="none" stroke="midnightblue" d="M965.568,-56.324C976.42,-48.1849 992.881,-35.8395 1005.88,-26.0874"/>
<polygon fill="midnightblue" stroke="midnightblue" points="1008.32,-28.6339 1014.22,-19.8339 1004.12,-23.0339 1008.32,-28.6339"/>
</g>
<!-- Node27&#45;&gt;Node24 -->
<g id="edge30" class="edge"><title>Node27&#45;&gt;Node24</title>
<path fill="none" stroke="midnightblue" d="M979.194,-56.4435C1007.04,-46.985 1051.93,-31.7421 1081.93,-21.551"/>
<polygon fill="midnightblue" stroke="midnightblue" points="1083.15,-24.8342 1091.49,-18.3042 1080.9,-18.206 1083.15,-24.8342"/>
</g>
<!-- Node27&#45;&gt;Node26 -->
<g id="edge27" class="edge"><title>Node27&#45;&gt;Node26</title>
<path fill="none" stroke="midnightblue" d="M995.453,-56.4426C1032.04,-48.6094 1086.97,-36.1691 1142.77,-20.1564"/>
<polygon fill="midnightblue" stroke="midnightblue" points="1143.83,-23.4924 1152.45,-17.3417 1141.88,-16.7703 1143.83,-23.4924"/>
</g>
<!-- Node28 -->
<g id="node28" class="node"><title>Node28</title>
<polygon fill="white" stroke="#bfbfbf" points="931.5,-0.5 931.5,-19.5 960.5,-19.5 960.5,-0.5 931.5,-0.5"/>
<text text-anchor="middle" x="946" y="-7.5" font-family="Helvetica,sans-Serif" font-size="10.00">list</text>
</g>
<!-- Node27&#45;&gt;Node28 -->
<g id="edge29" class="edge"><title>Node27&#45;&gt;Node28</title>
<path fill="none" stroke="midnightblue" d="M952.679,-56.083C951.619,-48.9272 950.094,-38.6353 948.769,-29.6911"/>
<polygon fill="midnightblue" stroke="midnightblue" points="952.224,-29.1302 947.296,-19.7511 945.3,-30.1561 952.224,-29.1302"/>
</g>
<!-- Node29&#45;&gt;Node3 -->
<g id="edge35" class="edge"><title>Node29&#45;&gt;Node3</title>
<path fill="none" stroke="midnightblue" d="M870.76,-224.264C862.476,-215.36 849.469,-201.043 839,-188 826.374,-172.27 812.99,-153.532 803.747,-140.225"/>
<polygon fill="midnightblue" stroke="midnightblue" points="806.373,-137.867 797.819,-131.616 800.608,-141.837 806.373,-137.867"/>
</g>
<!-- Node29&#45;&gt;Node12 -->
<g id="edge39" class="edge"><title>Node29&#45;&gt;Node12</title>
<path fill="none" stroke="midnightblue" d="M907.361,-224.425C1000.35,-196.307 1295.73,-106.994 1395.05,-76.9617"/>
<polygon fill="midnightblue" stroke="midnightblue" points="1396.29,-80.2459 1404.85,-74.0013 1394.26,-73.5455 1396.29,-80.2459"/>
</g>
<!-- Node30 -->
<g id="node30" class="node"><title>Node30</title>
<g id="a_node30"><a xlink:href="cosmos-errno_8h.html" target="_top" xlink:title="COSMOS Error Codes. ">
<polygon fill="white" stroke="black" points="847.5,-168.5 847.5,-187.5 966.5,-187.5 966.5,-168.5 847.5,-168.5"/>
<text text-anchor="middle" x="907" y="-175.5" font-family="Helvetica,sans-Serif" font-size="10.00">support/cosmos&#45;errno.h</text>
</a>
</g>
</g>
<!-- Node29&#45;&gt;Node30 -->
<g id="edge36" class="edge"><title>Node29&#45;&gt;Node30</title>
<path fill="none" stroke="midnightblue" d="M883.624,-224.083C887.456,-216.691 893.024,-205.953 897.765,-196.811"/>
<polygon fill="midnightblue" stroke="midnightblue" points="900.966,-198.24 902.462,-187.751 894.752,-195.018 900.966,-198.24"/>
</g>
<!-- Node30&#45;&gt;Node3 -->
<g id="edge37" class="edge"><title>Node30&#45;&gt;Node3</title>
<path fill="none" stroke="midnightblue" d="M888.778,-168.444C870.104,-159.675 840.844,-145.935 819.383,-135.858"/>
<polygon fill="midnightblue" stroke="midnightblue" points="820.676,-132.599 810.137,-131.516 817.701,-138.935 820.676,-132.599"/>
</g>
<!-- Node31 -->
<g id="node31" class="node"><title>Node31</title>
<polygon fill="white" stroke="#bfbfbf" points="883.5,-112.5 883.5,-131.5 930.5,-131.5 930.5,-112.5 883.5,-112.5"/>
<text text-anchor="middle" x="907" y="-119.5" font-family="Helvetica,sans-Serif" font-size="10.00">errno.h</text>
</g>
<!-- Node30&#45;&gt;Node31 -->
<g id="edge38" class="edge"><title>Node30&#45;&gt;Node31</title>
<path fill="none" stroke="midnightblue" d="M907,-168.083C907,-161.006 907,-150.861 907,-141.986"/>
<polygon fill="midnightblue" stroke="midnightblue" points="910.5,-141.751 907,-131.751 903.5,-141.751 910.5,-141.751"/>
</g>
</g>
</svg>
