<?xml version="1.0" encoding="UTF-8" standalone="no"?>
<!DOCTYPE svg PUBLIC "-//W3C//DTD SVG 1.1//EN"
 "http://www.w3.org/Graphics/SVG/1.1/DTD/svg11.dtd">
<!-- Generated by graphviz version 2.38.0 (20140413.2041)
 -->
<!-- Title: calc_transform.cpp Pages: 1 -->
<!--zoomable 476 -->
<svg id="main" version="1.1" xmlns="http://www.w3.org/2000/svg" xmlns:xlink="http://www.w3.org/1999/xlink" xml:space="preserve" onload="init(evt)">
<style type="text/css"><![CDATA[
.edge:hover path { stroke: red; }
.edge:hover polygon { stroke: red; fill: red; }
]]></style>
<script type="text/javascript"><![CDATA[
var edges = document.getElementsByTagName('g');
if (edges && edges.length) {
  for (var i=0;i<edges.length;i++) {
    if (edges[i].id.substr(0,4)=='edge') {
      edges[i].setAttribute('class','edge');
    }
  }
}
]]></script>
        <defs>
                <circle id="rim" cx="0" cy="0" r="7"/>
                <circle id="rim2" cx="0" cy="0" r="3.5"/>
                <g id="zoomPlus">
                        <use xlink:href="#rim" fill="#404040">
                                <set attributeName="fill" to="#808080" begin="zoomplus.mouseover" end="zoomplus.mouseout"/>
                        </use>
                        <path d="M-4,0h8M0,-4v8" fill="none" stroke="white" stroke-width="1.5" pointer-events="none"/>
                </g>
                <g id="zoomMin">
                        <use xlink:href="#rim" fill="#404040">
                                <set attributeName="fill" to="#808080" begin="zoomminus.mouseover" end="zoomminus.mouseout"/>
                        </use>
                        <path d="M-4,0h8" fill="none" stroke="white" stroke-width="1.5" pointer-events="none"/>
                </g>
                <g id="dirArrow">
                        <path fill="none" stroke="white" stroke-width="1.5" d="M0,-3.0v7 M-2.5,-0.5L0,-3.0L2.5,-0.5"/>
                </g>
               <g id="resetDef">
                       <use xlink:href="#rim2" fill="#404040">
                               <set attributeName="fill" to="#808080" begin="reset.mouseover" end="reset.mouseout"/>
                       </use>
               </g>
        </defs>

<script type="text/javascript">
var viewWidth = 1472;
var viewHeight = 476;
var sectionId = 'dynsection-0';
</script>
<script xlink:href="svgpan.js"/>
<svg id="graph" class="graph">
<g id="viewport">
<title>calc_transform.cpp</title>
<polygon fill="white" stroke="none" points="-4,4 -4,-472 1468.16,-472 1468.16,4 -4,4"/>
<!-- Node1 -->
<g id="node1" class="node"><title>Node1</title>
<polygon fill="#bfbfbf" stroke="black" points="867.158,-448.5 867.158,-467.5 967.158,-467.5 967.158,-448.5 867.158,-448.5"/>
<text text-anchor="middle" x="917.158" y="-455.5" font-family="Helvetica,sans-Serif" font-size="10.00">calc_transform.cpp</text>
</g>
<!-- Node2 -->
<g id="node2" class="node"><title>Node2</title>
<g id="a_node2"><a xlink:href="mathlib_8h.html" target="_top" xlink:title="mathlib include file ">
<polygon fill="white" stroke="black" points="876.658,-392.5 876.658,-411.5 957.658,-411.5 957.658,-392.5 876.658,-392.5"/>
<text text-anchor="middle" x="917.158" y="-399.5" font-family="Helvetica,sans-Serif" font-size="10.00">math/mathlib.h</text>
</a>
</g>
</g>
<!-- Node1&#45;&gt;Node2 -->
<g id="edge1" class="edge"><title>Node1&#45;&gt;Node2</title>
<path fill="none" stroke="midnightblue" d="M917.158,-448.083C917.158,-441.006 917.158,-430.861 917.158,-421.986"/>
<polygon fill="midnightblue" stroke="midnightblue" points="920.658,-421.751 917.158,-411.751 913.658,-421.751 920.658,-421.751"/>
</g>
<!-- Node3 -->
<g id="node3" class="node"><title>Node3</title>
<g id="a_node3"><a xlink:href="config_cosmos_8h.html" target="_top" xlink:title="Headers and definitions common to all COSMOS. ">
<polygon fill="white" stroke="black" points="696.658,-112.5 696.658,-131.5 819.658,-131.5 819.658,-112.5 696.658,-112.5"/>
<text text-anchor="middle" x="758.158" y="-119.5" font-family="Helvetica,sans-Serif" font-size="10.00">support/configCosmos.h</text>
</a>
</g>
</g>
<!-- Node2&#45;&gt;Node3 -->
<g id="edge2" class="edge"><title>Node2&#45;&gt;Node3</title>
<path fill="none" stroke="midnightblue" d="M957.707,-394.735C983.69,-388.794 1016.48,-377.433 1038.16,-356 1060.17,-334.236 1063.16,-321.952 1063.16,-291 1063.16,-291 1063.16,-291 1063.16,-233 1063.16,-182.729 914.68,-149.058 824.916,-133.296"/>
<polygon fill="midnightblue" stroke="midnightblue" points="825.26,-129.804 814.811,-131.554 824.071,-136.702 825.26,-129.804"/>
</g>
<!-- Node13 -->
<g id="node13" class="node"><title>Node13</title>
<polygon fill="white" stroke="#bfbfbf" points="1348.16,-56.5 1348.16,-75.5 1392.16,-75.5 1392.16,-56.5 1348.16,-56.5"/>
<text text-anchor="middle" x="1370.16" y="-63.5" font-family="Helvetica,sans-Serif" font-size="10.00">cmath</text>
</g>
<!-- Node2&#45;&gt;Node13 -->
<g id="edge54" class="edge"><title>Node2&#45;&gt;Node13</title>
<path fill="none" stroke="midnightblue" d="M957.717,-399.085C1063.59,-392.985 1340.16,-369.536 1340.16,-291 1340.16,-291 1340.16,-291 1340.16,-177 1340.16,-143.64 1353.16,-106.532 1362.04,-85.0673"/>
<polygon fill="midnightblue" stroke="midnightblue" points="1365.37,-86.1901 1366.11,-75.6212 1358.94,-83.4213 1365.37,-86.1901"/>
</g>
<!-- Node15 -->
<g id="node15" class="node"><title>Node15</title>
<polygon fill="white" stroke="#bfbfbf" points="1410.16,-56.5 1410.16,-75.5 1464.16,-75.5 1464.16,-56.5 1410.16,-56.5"/>
<text text-anchor="middle" x="1437.16" y="-63.5" font-family="Helvetica,sans-Serif" font-size="10.00">iostream</text>
</g>
<!-- Node2&#45;&gt;Node15 -->
<g id="edge55" class="edge"><title>Node2&#45;&gt;Node15</title>
<path fill="none" stroke="midnightblue" d="M958.075,-400.69C1077.49,-398.693 1417.16,-384.77 1417.16,-291 1417.16,-291 1417.16,-291 1417.16,-177 1417.16,-144.438 1425.75,-107.315 1431.67,-85.5922"/>
<polygon fill="midnightblue" stroke="midnightblue" points="1435.1,-86.3175 1434.46,-75.7419 1428.36,-84.4076 1435.1,-86.3175"/>
</g>
<!-- Node29 -->
<g id="node29" class="node"><title>Node29</title>
<g id="a_node29"><a xlink:href="cosmos-errno_8h.html" target="_top" xlink:title="COSMOS Error Codes. ">
<polygon fill="white" stroke="black" points="910.658,-336.5 910.658,-355.5 1029.66,-355.5 1029.66,-336.5 910.658,-336.5"/>
<text text-anchor="middle" x="970.158" y="-343.5" font-family="Helvetica,sans-Serif" font-size="10.00">support/cosmos&#45;errno.h</text>
</a>
</g>
</g>
<!-- Node2&#45;&gt;Node29 -->
<g id="edge34" class="edge"><title>Node2&#45;&gt;Node29</title>
<path fill="none" stroke="midnightblue" d="M925.91,-392.083C933.627,-384.22 945.062,-372.569 954.374,-363.081"/>
<polygon fill="midnightblue" stroke="midnightblue" points="957.062,-365.34 961.569,-355.751 952.066,-360.436 957.062,-365.34"/>
</g>
<!-- Node31 -->
<g id="node31" class="node"><title>Node31</title>
<g id="a_node31"><a xlink:href="math_2constants_8h.html" target="_top" xlink:title="constants.h">
<polygon fill="white" stroke="black" points="643.158,-168.5 643.158,-187.5 711.158,-187.5 711.158,-168.5 643.158,-168.5"/>
<text text-anchor="middle" x="677.158" y="-175.5" font-family="Helvetica,sans-Serif" font-size="10.00">constants.h</text>
</a>
</g>
</g>
<!-- Node2&#45;&gt;Node31 -->
<g id="edge37" class="edge"><title>Node2&#45;&gt;Node31</title>
<path fill="none" stroke="midnightblue" d="M876.436,-393.855C846.302,-387.286 805.115,-375.534 773.158,-356 743.392,-337.806 736.438,-329.712 718.158,-300 697.798,-266.908 686.104,-222.449 680.75,-197.673"/>
<polygon fill="midnightblue" stroke="midnightblue" points="684.16,-196.882 678.727,-187.786 677.302,-198.285 684.16,-196.882"/>
</g>
<!-- Node32 -->
<g id="node32" class="node"><title>Node32</title>
<g id="a_node32"><a xlink:href="vector_8h.html" target="_top" xlink:title="vector.h">
<polygon fill="white" stroke="black" points="781.158,-224.5 781.158,-243.5 833.158,-243.5 833.158,-224.5 781.158,-224.5"/>
<text text-anchor="middle" x="807.158" y="-231.5" font-family="Helvetica,sans-Serif" font-size="10.00">vector.h</text>
</a>
</g>
</g>
<!-- Node2&#45;&gt;Node32 -->
<g id="edge40" class="edge"><title>Node2&#45;&gt;Node32</title>
<path fill="none" stroke="midnightblue" d="M882.583,-392.446C862.978,-385.78 839.724,-374.464 826.158,-356 803.884,-325.685 803.321,-279.486 805.1,-253.832"/>
<polygon fill="midnightblue" stroke="midnightblue" points="808.608,-253.894 806.012,-243.622 801.636,-253.271 808.608,-253.894"/>
</g>
<!-- Node34 -->
<g id="node34" class="node"><title>Node34</title>
<g id="a_node34"><a xlink:href="matrix_8h.html" target="_top" xlink:title="matrix.h">
<polygon fill="white" stroke="black" points="727.158,-280.5 727.158,-299.5 779.158,-299.5 779.158,-280.5 727.158,-280.5"/>
<text text-anchor="middle" x="753.158" y="-287.5" font-family="Helvetica,sans-Serif" font-size="10.00">matrix.h</text>
</a>
</g>
</g>
<!-- Node2&#45;&gt;Node34 -->
<g id="edge47" class="edge"><title>Node2&#45;&gt;Node34</title>
<path fill="none" stroke="midnightblue" d="M876.592,-393.503C850.546,-387.059 817.216,-375.6 793.158,-356 777.948,-343.609 766.951,-323.808 760.382,-309.313"/>
<polygon fill="midnightblue" stroke="midnightblue" points="763.509,-307.72 756.385,-299.878 757.064,-310.451 763.509,-307.72"/>
</g>
<!-- Node35 -->
<g id="node35" class="node"><title>Node35</title>
<g id="a_node35"><a xlink:href="rotation_8h.html" target="_top" xlink:title="rotation.h">
<polygon fill="white" stroke="black" points="835.658,-336.5 835.658,-355.5 892.658,-355.5 892.658,-336.5 835.658,-336.5"/>
<text text-anchor="middle" x="864.158" y="-343.5" font-family="Helvetica,sans-Serif" font-size="10.00">rotation.h</text>
</a>
</g>
</g>
<!-- Node2&#45;&gt;Node35 -->
<g id="edge50" class="edge"><title>Node2&#45;&gt;Node35</title>
<path fill="none" stroke="midnightblue" d="M908.406,-392.083C900.688,-384.22 889.253,-372.569 879.941,-363.081"/>
<polygon fill="midnightblue" stroke="midnightblue" points="882.249,-360.436 872.747,-355.751 877.254,-365.34 882.249,-360.436"/>
</g>
<!-- Node4 -->
<g id="node4" class="node"><title>Node4</title>
<polygon fill="white" stroke="#bfbfbf" points="970.658,-56.5 970.658,-75.5 1015.66,-75.5 1015.66,-56.5 970.658,-56.5"/>
<text text-anchor="middle" x="993.158" y="-63.5" font-family="Helvetica,sans-Serif" font-size="10.00">climits</text>
</g>
<!-- Node3&#45;&gt;Node4 -->
<g id="edge3" class="edge"><title>Node3&#45;&gt;Node4</title>
<path fill="none" stroke="midnightblue" d="M799.918,-112.457C838.982,-104.306 899.166,-91.3432 960.606,-76.0271"/>
<polygon fill="midnightblue" stroke="midnightblue" points="961.628,-79.3792 970.474,-73.5491 959.923,-72.59 961.628,-79.3792"/>
</g>
<!-- Node5 -->
<g id="node5" class="node"><title>Node5</title>
<polygon fill="white" stroke="#bfbfbf" points="1168.66,-56.5 1168.66,-75.5 1215.66,-75.5 1215.66,-56.5 1168.66,-56.5"/>
<text text-anchor="middle" x="1192.16" y="-63.5" font-family="Helvetica,sans-Serif" font-size="10.00">csignal</text>
</g>
<!-- Node3&#45;&gt;Node5 -->
<g id="edge4" class="edge"><title>Node3&#45;&gt;Node5</title>
<path fill="none" stroke="midnightblue" d="M819.743,-117.057C896.755,-111.467 1032.71,-99.4269 1158.29,-75.8708"/>
<polygon fill="midnightblue" stroke="midnightblue" points="1159.3,-79.2415 1168.47,-73.9316 1157.99,-72.3652 1159.3,-79.2415"/>
</g>
<!-- Node6 -->
<g id="node6" class="node"><title>Node6</title>
<polygon fill="white" stroke="#bfbfbf" points="14.1577,-56.5 14.1577,-75.5 60.1577,-75.5 60.1577,-56.5 14.1577,-56.5"/>
<text text-anchor="middle" x="37.1577" y="-63.5" font-family="Helvetica,sans-Serif" font-size="10.00">cstdint</text>
</g>
<!-- Node3&#45;&gt;Node6 -->
<g id="edge5" class="edge"><title>Node3&#45;&gt;Node6</title>
<path fill="none" stroke="midnightblue" d="M696.457,-120.504C576.084,-118.752 301.775,-110.902 74.1577,-76 72.908,-75.8084 71.6385,-75.5951 70.3592,-75.3646"/>
<polygon fill="midnightblue" stroke="midnightblue" points="71.0254,-71.9284 60.5236,-73.3299 69.6072,-78.7833 71.0254,-71.9284"/>
</g>
<!-- Node7 -->
<g id="node7" class="node"><title>Node7</title>
<polygon fill="white" stroke="#bfbfbf" points="192.158,-56.5 192.158,-75.5 248.158,-75.5 248.158,-56.5 192.158,-56.5"/>
<text text-anchor="middle" x="220.158" y="-63.5" font-family="Helvetica,sans-Serif" font-size="10.00">cinttypes</text>
</g>
<!-- Node3&#45;&gt;Node7 -->
<g id="edge6" class="edge"><title>Node3&#45;&gt;Node7</title>
<path fill="none" stroke="midnightblue" d="M696.47,-118.421C603.492,-113.882 421.824,-102.48 258.579,-75.9994"/>
<polygon fill="midnightblue" stroke="midnightblue" points="258.786,-72.4865 248.35,-74.3162 257.649,-79.3936 258.786,-72.4865"/>
</g>
<!-- Node8 -->
<g id="node8" class="node"><title>Node8</title>
<polygon fill="white" stroke="#bfbfbf" points="266.658,-56.5 266.658,-75.5 309.658,-75.5 309.658,-56.5 266.658,-56.5"/>
<text text-anchor="middle" x="288.158" y="-63.5" font-family="Helvetica,sans-Serif" font-size="10.00">cstdio</text>
</g>
<!-- Node3&#45;&gt;Node8 -->
<g id="edge7" class="edge"><title>Node3&#45;&gt;Node8</title>
<path fill="none" stroke="midnightblue" d="M696.395,-118.377C612.77,-114.01 458.878,-103.088 319.662,-75.9652"/>
<polygon fill="midnightblue" stroke="midnightblue" points="320.154,-72.4948 309.664,-73.9842 318.793,-79.3613 320.154,-72.4948"/>
</g>
<!-- Node9 -->
<g id="node9" class="node"><title>Node9</title>
<polygon fill="white" stroke="#bfbfbf" points="327.658,-56.5 327.658,-75.5 376.658,-75.5 376.658,-56.5 327.658,-56.5"/>
<text text-anchor="middle" x="352.158" y="-63.5" font-family="Helvetica,sans-Serif" font-size="10.00">cstddef</text>
</g>
<!-- Node3&#45;&gt;Node9 -->
<g id="edge8" class="edge"><title>Node3&#45;&gt;Node9</title>
<path fill="none" stroke="midnightblue" d="M696.343,-116.328C624.106,-110.247 500.887,-97.9451 386.876,-76.1079"/>
<polygon fill="midnightblue" stroke="midnightblue" points="387.416,-72.6475 376.932,-74.1741 386.08,-79.5188 387.416,-72.6475"/>
</g>
<!-- Node10 -->
<g id="node10" class="node"><title>Node10</title>
<polygon fill="white" stroke="#bfbfbf" points="394.658,-56.5 394.658,-75.5 439.658,-75.5 439.658,-56.5 394.658,-56.5"/>
<text text-anchor="middle" x="417.158" y="-63.5" font-family="Helvetica,sans-Serif" font-size="10.00">cstdlib</text>
</g>
<!-- Node3&#45;&gt;Node10 -->
<g id="edge9" class="edge"><title>Node3&#45;&gt;Node10</title>
<path fill="none" stroke="midnightblue" d="M696.475,-114.402C636.008,-107.397 541.097,-94.9708 449.761,-75.872"/>
<polygon fill="midnightblue" stroke="midnightblue" points="450.302,-72.4089 439.793,-73.7576 448.849,-79.2565 450.302,-72.4089"/>
</g>
<!-- Node11 -->
<g id="node11" class="node"><title>Node11</title>
<polygon fill="white" stroke="#bfbfbf" points="458.158,-56.5 458.158,-75.5 502.158,-75.5 502.158,-56.5 458.158,-56.5"/>
<text text-anchor="middle" x="480.158" y="-63.5" font-family="Helvetica,sans-Serif" font-size="10.00">cerrno</text>
</g>
<!-- Node3&#45;&gt;Node11 -->
<g id="edge10" class="edge"><title>Node3&#45;&gt;Node11</title>
<path fill="none" stroke="midnightblue" d="M701.903,-112.435C653.877,-104.742 582.806,-92.459 512.369,-76.0992"/>
<polygon fill="midnightblue" stroke="midnightblue" points="512.972,-72.6457 502.437,-73.7637 511.37,-79.4598 512.972,-72.6457"/>
</g>
<!-- Node12 -->
<g id="node12" class="node"><title>Node12</title>
<polygon fill="white" stroke="#bfbfbf" points="520.158,-56.5 520.158,-75.5 566.158,-75.5 566.158,-56.5 520.158,-56.5"/>
<text text-anchor="middle" x="543.158" y="-63.5" font-family="Helvetica,sans-Serif" font-size="10.00">cstring</text>
</g>
<!-- Node3&#45;&gt;Node12 -->
<g id="edge11" class="edge"><title>Node3&#45;&gt;Node12</title>
<path fill="none" stroke="midnightblue" d="M721.957,-112.471C686.997,-104.152 632.327,-90.9266 575.995,-76.1581"/>
<polygon fill="midnightblue" stroke="midnightblue" points="576.767,-72.7421 566.205,-73.5802 574.984,-79.5113 576.767,-72.7421"/>
</g>
<!-- Node3&#45;&gt;Node13 -->
<g id="edge12" class="edge"><title>Node3&#45;&gt;Node13</title>
<path fill="none" stroke="midnightblue" d="M819.938,-119.553C925.829,-116.321 1148.53,-106.237 1334.16,-76 1335.41,-75.7961 1336.68,-75.5703 1337.96,-75.3272"/>
<polygon fill="midnightblue" stroke="midnightblue" points="1338.77,-78.7331 1347.81,-73.2011 1337.3,-71.8908 1338.77,-78.7331"/>
</g>
<!-- Node14 -->
<g id="node14" class="node"><title>Node14</title>
<polygon fill="white" stroke="#bfbfbf" points="584.658,-56.5 584.658,-75.5 629.658,-75.5 629.658,-56.5 584.658,-56.5"/>
<text text-anchor="middle" x="607.158" y="-63.5" font-family="Helvetica,sans-Serif" font-size="10.00">iosfwd</text>
</g>
<!-- Node3&#45;&gt;Node14 -->
<g id="edge13" class="edge"><title>Node3&#45;&gt;Node14</title>
<path fill="none" stroke="midnightblue" d="M734.231,-112.444C708.641,-103.292 667.91,-88.726 639.481,-78.5594"/>
<polygon fill="midnightblue" stroke="midnightblue" points="640.578,-75.2347 629.984,-75.1629 638.221,-81.8259 640.578,-75.2347"/>
</g>
<!-- Node3&#45;&gt;Node15 -->
<g id="edge14" class="edge"><title>Node3&#45;&gt;Node15</title>
<path fill="none" stroke="midnightblue" d="M819.737,-120.268C932.961,-118.143 1181.83,-109.853 1400.09,-75.8795"/>
<polygon fill="midnightblue" stroke="midnightblue" points="1400.8,-79.3109 1410.14,-74.2948 1399.71,-72.3965 1400.8,-79.3109"/>
</g>
<!-- Node16 -->
<g id="node16" class="node"><title>Node16</title>
<polygon fill="white" stroke="#bfbfbf" points="647.658,-56.5 647.658,-75.5 698.658,-75.5 698.658,-56.5 647.658,-56.5"/>
<text text-anchor="middle" x="673.158" y="-63.5" font-family="Helvetica,sans-Serif" font-size="10.00">unistd.h</text>
</g>
<!-- Node3&#45;&gt;Node16 -->
<g id="edge15" class="edge"><title>Node3&#45;&gt;Node16</title>
<path fill="none" stroke="midnightblue" d="M744.501,-112.324C731.241,-103.9 710.89,-90.9709 695.312,-81.0741"/>
<polygon fill="midnightblue" stroke="midnightblue" points="697.098,-78.0626 686.781,-75.6545 693.344,-83.9711 697.098,-78.0626"/>
</g>
<!-- Node17 -->
<g id="node17" class="node"><title>Node17</title>
<polygon fill="white" stroke="#bfbfbf" points="717.158,-56.5 717.158,-75.5 761.158,-75.5 761.158,-56.5 717.158,-56.5"/>
<text text-anchor="middle" x="739.158" y="-63.5" font-family="Helvetica,sans-Serif" font-size="10.00">fcntl.h</text>
</g>
<!-- Node3&#45;&gt;Node17 -->
<g id="edge16" class="edge"><title>Node3&#45;&gt;Node17</title>
<path fill="none" stroke="midnightblue" d="M755.02,-112.083C752.475,-104.849 748.802,-94.4087 745.631,-85.3968"/>
<polygon fill="midnightblue" stroke="midnightblue" points="748.858,-84.0225 742.237,-75.7511 742.254,-86.3459 748.858,-84.0225"/>
</g>
<!-- Node18 -->
<g id="node18" class="node"><title>Node18</title>
<polygon fill="white" stroke="#bfbfbf" points="779.658,-56.5 779.658,-75.5 820.658,-75.5 820.658,-56.5 779.658,-56.5"/>
<text text-anchor="middle" x="800.158" y="-63.5" font-family="Helvetica,sans-Serif" font-size="10.00">string</text>
</g>
<!-- Node3&#45;&gt;Node18 -->
<g id="edge17" class="edge"><title>Node3&#45;&gt;Node18</title>
<path fill="none" stroke="midnightblue" d="M765.093,-112.083C771.087,-104.377 779.91,-93.0333 787.205,-83.6531"/>
<polygon fill="midnightblue" stroke="midnightblue" points="789.975,-85.7934 793.351,-75.7511 784.449,-81.4958 789.975,-85.7934"/>
</g>
<!-- Node19 -->
<g id="node19" class="node"><title>Node19</title>
<polygon fill="white" stroke="#bfbfbf" points="66.1577,-0.5 66.1577,-19.5 110.158,-19.5 110.158,-0.5 66.1577,-0.5"/>
<text text-anchor="middle" x="88.1577" y="-7.5" font-family="Helvetica,sans-Serif" font-size="10.00">vector</text>
</g>
<!-- Node3&#45;&gt;Node19 -->
<g id="edge18" class="edge"><title>Node3&#45;&gt;Node19</title>
<path fill="none" stroke="midnightblue" d="M696.454,-121.196C564.294,-120.833 258.185,-115.594 163.158,-76 137.928,-65.4879 115.169,-43.0469 101.506,-27.496"/>
<polygon fill="midnightblue" stroke="midnightblue" points="104.025,-25.0555 94.8925,-19.685 98.6829,-29.5786 104.025,-25.0555"/>
</g>
<!-- Node20 -->
<g id="node20" class="node"><title>Node20</title>
<polygon fill="white" stroke="#bfbfbf" points="838.658,-56.5 838.658,-75.5 881.658,-75.5 881.658,-56.5 838.658,-56.5"/>
<text text-anchor="middle" x="860.158" y="-63.5" font-family="Helvetica,sans-Serif" font-size="10.00">deque</text>
</g>
<!-- Node3&#45;&gt;Node20 -->
<g id="edge19" class="edge"><title>Node3&#45;&gt;Node20</title>
<path fill="none" stroke="midnightblue" d="M774.546,-112.324C790.829,-103.703 816.025,-90.3643 834.874,-80.3855"/>
<polygon fill="midnightblue" stroke="midnightblue" points="836.61,-83.4267 843.81,-75.6545 833.335,-77.2402 836.61,-83.4267"/>
</g>
<!-- Node21 -->
<g id="node21" class="node"><title>Node21</title>
<polygon fill="white" stroke="#bfbfbf" points="1290.16,-0.5 1290.16,-19.5 1334.16,-19.5 1334.16,-0.5 1290.16,-0.5"/>
<text text-anchor="middle" x="1312.16" y="-7.5" font-family="Helvetica,sans-Serif" font-size="10.00">mutex</text>
</g>
<!-- Node3&#45;&gt;Node21 -->
<g id="edge20" class="edge"><title>Node3&#45;&gt;Node21</title>
<path fill="none" stroke="midnightblue" d="M819.672,-118.145C944.967,-111.946 1221.17,-96.1717 1259.16,-76 1278.99,-65.4685 1294.16,-44.0368 1303.09,-28.6598"/>
<polygon fill="midnightblue" stroke="midnightblue" points="1306.32,-30.0576 1308.04,-19.6046 1300.17,-26.6987 1306.32,-30.0576"/>
</g>
<!-- Node22 -->
<g id="node22" class="node"><title>Node22</title>
<polygon fill="white" stroke="#bfbfbf" points="322.158,-0.5 322.158,-19.5 366.158,-19.5 366.158,-0.5 322.158,-0.5"/>
<text text-anchor="middle" x="344.158" y="-7.5" font-family="Helvetica,sans-Serif" font-size="10.00">thread</text>
</g>
<!-- Node3&#45;&gt;Node22 -->
<g id="edge21" class="edge"><title>Node3&#45;&gt;Node22</title>
<path fill="none" stroke="midnightblue" d="M696.46,-120.863C553.687,-119.904 210.028,-113.666 175.158,-76 133.757,-31.2807 251.973,-17.0158 311.802,-12.7256"/>
<polygon fill="midnightblue" stroke="midnightblue" points="312.153,-16.21 321.9,-12.0562 311.69,-9.22536 312.153,-16.21"/>
</g>
<!-- Node23 -->
<g id="node23" class="node"><title>Node23</title>
<polygon fill="white" stroke="#bfbfbf" points="771.658,-0.5 771.658,-19.5 866.658,-19.5 866.658,-0.5 771.658,-0.5"/>
<text text-anchor="middle" x="819.158" y="-7.5" font-family="Helvetica,sans-Serif" font-size="10.00">condition_variable</text>
</g>
<!-- Node3&#45;&gt;Node23 -->
<g id="edge22" class="edge"><title>Node3&#45;&gt;Node23</title>
<path fill="none" stroke="midnightblue" d="M696.519,-120.791C555.23,-119.672 217.469,-113.102 183.158,-76 177.123,-69.474 177.098,-62.5034 183.158,-56 222.075,-14.2314 611.289,-10.5586 760.95,-10.7068"/>
<polygon fill="midnightblue" stroke="midnightblue" points="761.297,-14.2073 771.303,-10.7236 761.309,-7.20728 761.297,-14.2073"/>
</g>
<!-- Node24 -->
<g id="node24" class="node"><title>Node24</title>
<polygon fill="white" stroke="#bfbfbf" points="1153.66,-0.5 1153.66,-19.5 1196.66,-19.5 1196.66,-0.5 1153.66,-0.5"/>
<text text-anchor="middle" x="1175.16" y="-7.5" font-family="Helvetica,sans-Serif" font-size="10.00">queue</text>
</g>
<!-- Node3&#45;&gt;Node24 -->
<g id="edge23" class="edge"><title>Node3&#45;&gt;Node24</title>
<path fill="none" stroke="midnightblue" d="M820.055,-119.572C940.815,-116.145 1198.43,-105.431 1225.16,-76 1240.18,-59.458 1217.99,-38.7655 1198.56,-25.2307"/>
<polygon fill="midnightblue" stroke="midnightblue" points="1200.25,-22.1505 1189.98,-19.5563 1196.39,-27.9902 1200.25,-22.1505"/>
</g>
<!-- Node25 -->
<g id="node25" class="node"><title>Node25</title>
<polygon fill="white" stroke="#bfbfbf" points="900.158,-56.5 900.158,-75.5 952.158,-75.5 952.158,-56.5 900.158,-56.5"/>
<text text-anchor="middle" x="926.158" y="-63.5" font-family="Helvetica,sans-Serif" font-size="10.00">sstream</text>
</g>
<!-- Node3&#45;&gt;Node25 -->
<g id="edge24" class="edge"><title>Node3&#45;&gt;Node25</title>
<path fill="none" stroke="midnightblue" d="M784.778,-112.444C813.247,-103.293 858.56,-88.7279 890.189,-78.5614"/>
<polygon fill="midnightblue" stroke="midnightblue" points="891.49,-81.8198 899.939,-75.4275 889.347,-75.1556 891.49,-81.8198"/>
</g>
<!-- Node26 -->
<g id="node26" class="node"><title>Node26</title>
<polygon fill="white" stroke="#bfbfbf" points="1229.66,-0.5 1229.66,-19.5 1264.66,-19.5 1264.66,-0.5 1229.66,-0.5"/>
<text text-anchor="middle" x="1247.16" y="-7.5" font-family="Helvetica,sans-Serif" font-size="10.00">map</text>
</g>
<!-- Node3&#45;&gt;Node26 -->
<g id="edge25" class="edge"><title>Node3&#45;&gt;Node26</title>
<path fill="none" stroke="midnightblue" d="M820.037,-119.567C943.677,-116.09 1211.95,-105.229 1241.16,-76 1253.03,-64.1175 1253.17,-44.2054 1251.18,-29.5447"/>
<polygon fill="midnightblue" stroke="midnightblue" points="1254.6,-28.8078 1249.4,-19.5773 1247.71,-30.0364 1254.6,-28.8078"/>
</g>
<!-- Node27 -->
<g id="node27" class="node"><title>Node27</title>
<g id="a_node27"><a xlink:href="cosmos-defs_8h.html" target="_top" xlink:title="COSMOS definitions Definitions specific to the COSMOS environement. ">
<polygon fill="white" stroke="black" points="1034.16,-56.5 1034.16,-75.5 1150.16,-75.5 1150.16,-56.5 1034.16,-56.5"/>
<text text-anchor="middle" x="1092.16" y="-63.5" font-family="Helvetica,sans-Serif" font-size="10.00">support/cosmos&#45;defs.h</text>
</a>
</g>
</g>
<!-- Node3&#45;&gt;Node27 -->
<g id="edge26" class="edge"><title>Node3&#45;&gt;Node27</title>
<path fill="none" stroke="midnightblue" d="M811.081,-112.444C870.324,-102.865 966.255,-87.3556 1029.28,-77.1667"/>
<polygon fill="midnightblue" stroke="midnightblue" points="1030.17,-80.5677 1039.48,-75.5164 1029.05,-73.6574 1030.17,-80.5677"/>
</g>
<!-- Node27&#45;&gt;Node19 -->
<g id="edge28" class="edge"><title>Node27&#45;&gt;Node19</title>
<path fill="none" stroke="midnightblue" d="M1033.95,-56.9715C1030.64,-56.6161 1027.36,-56.2884 1024.16,-56 932.777,-47.7706 275.636,-19.1019 120.783,-12.4061"/>
<polygon fill="midnightblue" stroke="midnightblue" points="120.658,-8.89752 110.516,-11.9625 120.356,-15.891 120.658,-8.89752"/>
</g>
<!-- Node27&#45;&gt;Node21 -->
<g id="edge32" class="edge"><title>Node27&#45;&gt;Node21</title>
<path fill="none" stroke="midnightblue" d="M1127.02,-56.4435C1169.04,-46.1296 1239.08,-28.9378 1279.9,-18.9179"/>
<polygon fill="midnightblue" stroke="midnightblue" points="1280.98,-22.2566 1289.86,-16.4736 1279.31,-15.4584 1280.98,-22.2566"/>
</g>
<!-- Node27&#45;&gt;Node22 -->
<g id="edge31" class="edge"><title>Node27&#45;&gt;Node22</title>
<path fill="none" stroke="midnightblue" d="M1033.95,-57.0408C1030.64,-56.6677 1027.36,-56.3173 1024.16,-56 775.348,-31.3287 473.937,-16.7245 376.321,-12.3788"/>
<polygon fill="midnightblue" stroke="midnightblue" points="376.36,-8.87724 366.216,-11.9334 376.052,-15.8705 376.36,-8.87724"/>
</g>
<!-- Node27&#45;&gt;Node23 -->
<g id="edge33" class="edge"><title>Node27&#45;&gt;Node23</title>
<path fill="none" stroke="midnightblue" d="M1048.9,-56.4435C1000.98,-46.9641 923.68,-31.6747 872.158,-21.4835"/>
<polygon fill="midnightblue" stroke="midnightblue" points="872.702,-18.0235 862.213,-19.5164 871.344,-24.8904 872.702,-18.0235"/>
</g>
<!-- Node27&#45;&gt;Node24 -->
<g id="edge30" class="edge"><title>Node27&#45;&gt;Node24</title>
<path fill="none" stroke="midnightblue" d="M1105.49,-56.324C1118.32,-47.979 1137.94,-35.2122 1153.1,-25.3524"/>
<polygon fill="midnightblue" stroke="midnightblue" points="1155.38,-28.0417 1161.86,-19.6545 1151.56,-22.1742 1155.38,-28.0417"/>
</g>
<!-- Node27&#45;&gt;Node26 -->
<g id="edge27" class="edge"><title>Node27&#45;&gt;Node26</title>
<path fill="none" stroke="midnightblue" d="M1116.72,-56.4435C1144.82,-46.6537 1190.71,-30.6672 1219.89,-20.4991"/>
<polygon fill="midnightblue" stroke="midnightblue" points="1221.17,-23.7601 1229.46,-17.1649 1218.87,-17.1497 1221.17,-23.7601"/>
</g>
<!-- Node28 -->
<g id="node28" class="node"><title>Node28</title>
<polygon fill="white" stroke="#bfbfbf" points="1077.66,-0.5 1077.66,-19.5 1106.66,-19.5 1106.66,-0.5 1077.66,-0.5"/>
<text text-anchor="middle" x="1092.16" y="-7.5" font-family="Helvetica,sans-Serif" font-size="10.00">list</text>
</g>
<!-- Node27&#45;&gt;Node28 -->
<g id="edge29" class="edge"><title>Node27&#45;&gt;Node28</title>
<path fill="none" stroke="midnightblue" d="M1092.16,-56.083C1092.16,-49.0059 1092.16,-38.8611 1092.16,-29.9865"/>
<polygon fill="midnightblue" stroke="midnightblue" points="1095.66,-29.751 1092.16,-19.7511 1088.66,-29.7511 1095.66,-29.751"/>
</g>
<!-- Node29&#45;&gt;Node3 -->
<g id="edge35" class="edge"><title>Node29&#45;&gt;Node3</title>
<path fill="none" stroke="midnightblue" d="M971.339,-336.275C972.722,-323.498 974.031,-299.137 967.158,-280 946.125,-221.44 933.198,-204.98 883.158,-168 861.475,-151.976 833.531,-141.203 809.565,-134.227"/>
<polygon fill="midnightblue" stroke="midnightblue" points="810.483,-130.85 799.912,-131.556 808.616,-137.596 810.483,-130.85"/>
</g>
<!-- Node30 -->
<g id="node30" class="node"><title>Node30</title>
<polygon fill="white" stroke="#bfbfbf" points="911.658,-280.5 911.658,-299.5 958.658,-299.5 958.658,-280.5 911.658,-280.5"/>
<text text-anchor="middle" x="935.158" y="-287.5" font-family="Helvetica,sans-Serif" font-size="10.00">errno.h</text>
</g>
<!-- Node29&#45;&gt;Node30 -->
<g id="edge36" class="edge"><title>Node29&#45;&gt;Node30</title>
<path fill="none" stroke="midnightblue" d="M964.378,-336.083C959.485,-328.534 952.33,-317.495 946.325,-308.23"/>
<polygon fill="midnightblue" stroke="midnightblue" points="949.206,-306.239 940.83,-299.751 943.332,-310.046 949.206,-306.239"/>
</g>
<!-- Node31&#45;&gt;Node3 -->
<g id="edge38" class="edge"><title>Node31&#45;&gt;Node3</title>
<path fill="none" stroke="midnightblue" d="M690.172,-168.324C702.689,-159.979 721.839,-147.212 736.629,-137.352"/>
<polygon fill="midnightblue" stroke="midnightblue" points="738.797,-140.114 745.176,-131.655 734.914,-134.289 738.797,-140.114"/>
</g>
<!-- Node31&#45;&gt;Node6 -->
<g id="edge39" class="edge"><title>Node31&#45;&gt;Node6</title>
<path fill="none" stroke="midnightblue" d="M642.997,-172.167C550.811,-158.935 289.4,-120.143 74.1577,-76 72.8828,-75.7385 71.5851,-75.464 70.2757,-75.1801"/>
<polygon fill="midnightblue" stroke="midnightblue" points="70.7204,-71.6916 60.1921,-72.8769 69.1616,-78.5158 70.7204,-71.6916"/>
</g>
<!-- Node32&#45;&gt;Node3 -->
<g id="edge41" class="edge"><title>Node32&#45;&gt;Node3</title>
<path fill="none" stroke="midnightblue" d="M803.313,-224.368C795.334,-206.456 776.833,-164.923 766.153,-140.948"/>
<polygon fill="midnightblue" stroke="midnightblue" points="769.251,-139.302 761.985,-131.591 762.857,-142.15 769.251,-139.302"/>
</g>
<!-- Node32&#45;&gt;Node13 -->
<g id="edge45" class="edge"><title>Node32&#45;&gt;Node13</title>
<path fill="none" stroke="midnightblue" d="M833.183,-225.326C925.596,-198.079 1237.8,-106.026 1338.54,-76.3232"/>
<polygon fill="midnightblue" stroke="midnightblue" points="1339.55,-79.674 1348.15,-73.4887 1337.57,-72.9597 1339.55,-79.674"/>
</g>
<!-- Node32&#45;&gt;Node15 -->
<g id="edge43" class="edge"><title>Node32&#45;&gt;Node15</title>
<path fill="none" stroke="midnightblue" d="M833.248,-227.412C870.895,-219.258 942.587,-203.388 1003.16,-188 1150.87,-150.474 1325.13,-99.9804 1399.97,-77.9945"/>
<polygon fill="midnightblue" stroke="midnightblue" points="1401.25,-81.2659 1409.86,-75.0857 1399.27,-74.5505 1401.25,-81.2659"/>
</g>
<!-- Node32&#45;&gt;Node19 -->
<g id="edge46" class="edge"><title>Node32&#45;&gt;Node19</title>
<path fill="none" stroke="midnightblue" d="M780.856,-232.169C653.856,-227.556 106.078,-200.574 5.15775,-76 -13.7631,-52.6447 25.7493,-32.5049 56.5105,-21.0666"/>
<polygon fill="midnightblue" stroke="midnightblue" points="57.8492,-24.3056 66.1053,-17.6656 55.5105,-17.7078 57.8492,-24.3056"/>
</g>
<!-- Node32&#45;&gt;Node31 -->
<g id="edge42" class="edge"><title>Node32&#45;&gt;Node31</title>
<path fill="none" stroke="midnightblue" d="M786.559,-224.444C765.164,-215.557 731.477,-201.563 707.133,-191.451"/>
<polygon fill="midnightblue" stroke="midnightblue" points="708.238,-188.12 697.66,-187.516 705.553,-194.585 708.238,-188.12"/>
</g>
<!-- Node33 -->
<g id="node33" class="node"><title>Node33</title>
<polygon fill="white" stroke="#bfbfbf" points="805.158,-168.5 805.158,-187.5 855.158,-187.5 855.158,-168.5 805.158,-168.5"/>
<text text-anchor="middle" x="830.158" y="-175.5" font-family="Helvetica,sans-Serif" font-size="10.00">iomanip</text>
</g>
<!-- Node32&#45;&gt;Node33 -->
<g id="edge44" class="edge"><title>Node32&#45;&gt;Node33</title>
<path fill="none" stroke="midnightblue" d="M810.956,-224.083C814.071,-216.77 818.58,-206.181 822.447,-197.103"/>
<polygon fill="midnightblue" stroke="midnightblue" points="825.732,-198.323 826.43,-187.751 819.292,-195.58 825.732,-198.323"/>
</g>
<!-- Node34&#45;&gt;Node3 -->
<g id="edge48" class="edge"><title>Node34&#45;&gt;Node3</title>
<path fill="none" stroke="midnightblue" d="M753.427,-280.075C754.214,-253.945 756.525,-177.211 757.598,-141.577"/>
<polygon fill="midnightblue" stroke="midnightblue" points="761.097,-141.669 757.9,-131.568 754.1,-141.458 761.097,-141.669"/>
</g>
<!-- Node34&#45;&gt;Node32 -->
<g id="edge49" class="edge"><title>Node34&#45;&gt;Node32</title>
<path fill="none" stroke="midnightblue" d="M762.075,-280.083C769.938,-272.22 781.589,-260.569 791.076,-251.081"/>
<polygon fill="midnightblue" stroke="midnightblue" points="793.81,-253.297 798.407,-243.751 788.861,-248.347 793.81,-253.297"/>
</g>
<!-- Node35&#45;&gt;Node3 -->
<g id="edge51" class="edge"><title>Node35&#45;&gt;Node3</title>
<path fill="none" stroke="midnightblue" d="M867.215,-336.316C876.293,-308.869 900.283,-222.581 864.158,-168 853.498,-151.894 835.787,-141.535 817.866,-134.88"/>
<polygon fill="midnightblue" stroke="midnightblue" points="818.526,-131.409 807.932,-131.55 816.301,-138.047 818.526,-131.409"/>
</g>
<!-- Node35&#45;&gt;Node32 -->
<g id="edge52" class="edge"><title>Node35&#45;&gt;Node32</title>
<path fill="none" stroke="midnightblue" d="M859.685,-336.368C850.362,-318.376 828.688,-276.55 816.292,-252.627"/>
<polygon fill="midnightblue" stroke="midnightblue" points="819.318,-250.86 811.61,-243.591 813.103,-254.081 819.318,-250.86"/>
</g>
<!-- Node35&#45;&gt;Node34 -->
<g id="edge53" class="edge"><title>Node35&#45;&gt;Node34</title>
<path fill="none" stroke="midnightblue" d="M846.324,-336.324C828.442,-327.625 800.683,-314.12 780.112,-304.113"/>
<polygon fill="midnightblue" stroke="midnightblue" points="781.471,-300.882 770.948,-299.655 778.409,-307.177 781.471,-300.882"/>
</g>
</g>
</svg>
        <g id="navigator" transform="translate(0 0)" fill="#404254">
                <rect fill="#f2f5e9" fill-opacity="0.5" stroke="#606060" stroke-width=".5" x="0" y="0" width="60" height="60"/>
                <use id="zoomplus" xlink:href="#zoomPlus" x="17" y="9" onmousedown="handleZoom(evt,'in')"/>
                <use id="zoomminus" xlink:href="#zoomMin" x="42" y="9" onmousedown="handleZoom(evt,'out')"/>
                <use id="reset" xlink:href="#resetDef" x="30" y="36" onmousedown="handleReset()"/>
                <g id="arrowUp" xlink:href="#dirArrow" transform="translate(30 24)" onmousedown="handlePan(0,-1)">
                  <use xlink:href="#rim" fill="#404040">
                        <set attributeName="fill" to="#808080" begin="arrowUp.mouseover" end="arrowUp.mouseout"/>
                  </use>
                  <path fill="none" stroke="white" stroke-width="1.5" d="M0,-3.0v7 M-2.5,-0.5L0,-3.0L2.5,-0.5"/>
                </g>
                <g id="arrowRight" xlink:href="#dirArrow" transform="rotate(90) translate(36 -43)" onmousedown="handlePan(1,0)">
                  <use xlink:href="#rim" fill="#404040">
                        <set attributeName="fill" to="#808080" begin="arrowRight.mouseover" end="arrowRight.mouseout"/>
                  </use>
                  <path fill="none" stroke="white" stroke-width="1.5" d="M0,-3.0v7 M-2.5,-0.5L0,-3.0L2.5,-0.5"/>
                </g>
                <g id="arrowDown" xlink:href="#dirArrow" transform="rotate(180) translate(-30 -48)" onmousedown="handlePan(0,1)">
                  <use xlink:href="#rim" fill="#404040">
                        <set attributeName="fill" to="#808080" begin="arrowDown.mouseover" end="arrowDown.mouseout"/>
                  </use>
                  <path fill="none" stroke="white" stroke-width="1.5" d="M0,-3.0v7 M-2.5,-0.5L0,-3.0L2.5,-0.5"/>
                </g>
                <g id="arrowLeft" xlink:href="#dirArrow" transform="rotate(270) translate(-36 17)" onmousedown="handlePan(-1,0)">
                  <use xlink:href="#rim" fill="#404040">
                        <set attributeName="fill" to="#808080" begin="arrowLeft.mouseover" end="arrowLeft.mouseout"/>
                  </use>
                  <path fill="none" stroke="white" stroke-width="1.5" d="M0,-3.0v7 M-2.5,-0.5L0,-3.0L2.5,-0.5"/>
                </g>
        </g>
        <svg viewBox="0 0 15 15" width="100%" height="30px" preserveAspectRatio="xMaxYMin meet">
         <g id="arrow_out" transform="scale(0.3 0.3)">
          <a xlink:href="calc__transform_8cpp__incl_org.svg" target="_base">
           <rect id="button" ry="5" rx="5" y="6" x="6" height="38" width="38"
                fill="#f2f5e9" fill-opacity="0.5" stroke="#606060" stroke-width="1.0"/>
           <path id="arrow"
             d="M 11.500037,31.436501 C 11.940474,20.09759 22.043105,11.32322 32.158766,21.979434 L 37.068811,17.246167 C 37.068811,17.246167 37.088388,32 37.088388,32 L 22.160133,31.978069 C 22.160133,31.978069 26.997745,27.140456 26.997745,27.140456 C 18.528582,18.264221 13.291696,25.230495 11.500037,31.436501 z"
             style="fill:#404040;"/>
          </a>
         </g>
        </svg>
</svg>
