<?xml version="1.0" encoding="UTF-8" standalone="no"?>
<!DOCTYPE svg PUBLIC "-//W3C//DTD SVG 1.1//EN"
 "http://www.w3.org/Graphics/SVG/1.1/DTD/svg11.dtd">
<!-- Generated by graphviz version 2.38.0 (20140413.2041)
 -->
<!-- Title: Cosmos::Support::Json Pages: 1 -->
<svg width="203pt" height="292pt"
 viewBox="0.00 0.00 202.50 292.00" xmlns="http://www.w3.org/2000/svg" xmlns:xlink="http://www.w3.org/1999/xlink">
<g id="graph0" class="graph" transform="scale(1 1) rotate(0) translate(4 288)">
<title>Cosmos::Support::Json</title>
<polygon fill="white" stroke="none" points="-4,4 -4,-288 198.5,-288 198.5,4 -4,4"/>
<!-- Node1 -->
<g id="node1" class="node"><title>Node1</title>
<polygon fill="#bfbfbf" stroke="black" points="55.5,-0.5 55.5,-167.5 175.5,-167.5 175.5,-0.5 55.5,-0.5"/>
<text text-anchor="middle" x="115.5" y="-155.5" font-family="Helvetica,sans-Serif" font-size="10.00">Cosmos::Support::Json</text>
<polyline fill="none" stroke="black" points="55.5,-148.5 175.5,-148.5 "/>
<text text-anchor="start" x="63.5" y="-136.5" font-family="Helvetica,sans-Serif" font-size="10.00">&#45; begin</text>
<text text-anchor="start" x="63.5" y="-125.5" font-family="Helvetica,sans-Serif" font-size="10.00">&#45; end</text>
<polyline fill="none" stroke="black" points="55.5,-118.5 175.5,-118.5 "/>
<text text-anchor="start" x="63.5" y="-106.5" font-family="Helvetica,sans-Serif" font-size="10.00">+ Json()</text>
<text text-anchor="start" x="63.5" y="-95.5" font-family="Helvetica,sans-Serif" font-size="10.00">+ extract_object()</text>
<text text-anchor="start" x="63.5" y="-84.5" font-family="Helvetica,sans-Serif" font-size="10.00">+ extract_members()</text>
<text text-anchor="start" x="63.5" y="-73.5" font-family="Helvetica,sans-Serif" font-size="10.00">+ extract_values()</text>
<text text-anchor="start" x="63.5" y="-62.5" font-family="Helvetica,sans-Serif" font-size="10.00">+ extract_string()</text>
<text text-anchor="start" x="63.5" y="-51.5" font-family="Helvetica,sans-Serif" font-size="10.00">+ extract_name()</text>
<text text-anchor="start" x="63.5" y="-40.5" font-family="Helvetica,sans-Serif" font-size="10.00">+ extract_value()</text>
<text text-anchor="start" x="63.5" y="-29.5" font-family="Helvetica,sans-Serif" font-size="10.00">+ extract_member()</text>
<text text-anchor="start" x="63.5" y="-18.5" font-family="Helvetica,sans-Serif" font-size="10.00">+ skip_character()</text>
<text text-anchor="start" x="63.5" y="-7.5" font-family="Helvetica,sans-Serif" font-size="10.00">+ skip_white()</text>
</g>
<!-- Node2 -->
<g id="node2" class="node"><title>Node2</title>
<polygon fill="white" stroke="#bfbfbf" points="0,-215.5 0,-283.5 129,-283.5 129,-215.5 0,-215.5"/>
<text text-anchor="start" x="8" y="-271.5" font-family="Helvetica,sans-Serif" font-size="10.00">vector&lt; Cosmos::Support</text>
<text text-anchor="middle" x="64.5" y="-260.5" font-family="Helvetica,sans-Serif" font-size="10.00">::Json::Member &gt;</text>
<polyline fill="none" stroke="#bfbfbf" points="0,-253.5 129,-253.5 "/>
<text text-anchor="middle" x="64.5" y="-241.5" font-family="Helvetica,sans-Serif" font-size="10.00"> </text>
<polyline fill="none" stroke="#bfbfbf" points="0,-234.5 129,-234.5 "/>
<text text-anchor="middle" x="64.5" y="-222.5" font-family="Helvetica,sans-Serif" font-size="10.00"> </text>
</g>
<!-- Node2&#45;&gt;Node1 -->
<g id="edge1" class="edge"><title>Node2&#45;&gt;Node1</title>
<path fill="none" stroke="#404040" d="M74.8206,-215.413C78.141,-204.769 82.0012,-192.393 85.9959,-179.587"/>
<polygon fill="none" stroke="#404040" points="86.1173,-179.197 84.0854,-172.278 89.6907,-167.742 91.7225,-174.661 86.1173,-179.197"/>
<text text-anchor="middle" x="109.5" y="-189" font-family="Helvetica,sans-Serif" font-size="10.00"> +Members</text>
</g>
<!-- Node3 -->
<g id="node3" class="node"><title>Node3</title>
<polygon fill="white" stroke="#bfbfbf" points="147,-221 147,-278 188,-278 188,-221 147,-221"/>
<text text-anchor="middle" x="167.5" y="-266" font-family="Helvetica,sans-Serif" font-size="10.00">string</text>
<polyline fill="none" stroke="#bfbfbf" points="147,-259 188,-259 "/>
<text text-anchor="middle" x="167.5" y="-247" font-family="Helvetica,sans-Serif" font-size="10.00"> </text>
<polyline fill="none" stroke="#bfbfbf" points="147,-240 188,-240 "/>
<text text-anchor="middle" x="167.5" y="-228" font-family="Helvetica,sans-Serif" font-size="10.00"> </text>
</g>
<!-- Node3&#45;&gt;Node1 -->
<g id="edge2" class="edge"><title>Node3&#45;&gt;Node1</title>
<path fill="none" stroke="#404040" d="M158.679,-220.764C154.915,-208.93 150.282,-194.363 145.463,-179.211"/>
<polygon fill="none" stroke="#404040" points="145.39,-178.981 139.76,-174.475 141.753,-167.545 147.383,-172.051 145.39,-178.981"/>
<text text-anchor="middle" x="172.5" y="-189" font-family="Helvetica,sans-Serif" font-size="10.00"> +Content</text>
</g>
</g>
</svg>
