<?xml version="1.0" encoding="UTF-8" standalone="no"?>
<!DOCTYPE svg PUBLIC "-//W3C//DTD SVG 1.1//EN"
 "http://www.w3.org/Graphics/SVG/1.1/DTD/svg11.dtd">
<!-- Generated by graphviz version 2.38.0 (20140413.2041)
 -->
<!-- Title: LsFit Pages: 1 -->
<!--zoomable 689 -->
<svg id="main" version="1.1" xmlns="http://www.w3.org/2000/svg" xmlns:xlink="http://www.w3.org/1999/xlink" xml:space="preserve" onload="init(evt)">
<style type="text/css"><![CDATA[
.edge:hover path { stroke: red; }
.edge:hover polygon { stroke: red; fill: red; }
]]></style>
<script type="text/javascript"><![CDATA[
var edges = document.getElementsByTagName('g');
if (edges && edges.length) {
  for (var i=0;i<edges.length;i++) {
    if (edges[i].id.substr(0,4)=='edge') {
      edges[i].setAttribute('class','edge');
    }
  }
}
]]></script>
        <defs>
                <circle id="rim" cx="0" cy="0" r="7"/>
                <circle id="rim2" cx="0" cy="0" r="3.5"/>
                <g id="zoomPlus">
                        <use xlink:href="#rim" fill="#404040">
                                <set attributeName="fill" to="#808080" begin="zoomplus.mouseover" end="zoomplus.mouseout"/>
                        </use>
                        <path d="M-4,0h8M0,-4v8" fill="none" stroke="white" stroke-width="1.5" pointer-events="none"/>
                </g>
                <g id="zoomMin">
                        <use xlink:href="#rim" fill="#404040">
                                <set attributeName="fill" to="#808080" begin="zoomminus.mouseover" end="zoomminus.mouseout"/>
                        </use>
                        <path d="M-4,0h8" fill="none" stroke="white" stroke-width="1.5" pointer-events="none"/>
                </g>
                <g id="dirArrow">
                        <path fill="none" stroke="white" stroke-width="1.5" d="M0,-3.0v7 M-2.5,-0.5L0,-3.0L2.5,-0.5"/>
                </g>
               <g id="resetDef">
                       <use xlink:href="#rim2" fill="#404040">
                               <set attributeName="fill" to="#808080" begin="reset.mouseover" end="reset.mouseout"/>
                       </use>
               </g>
        </defs>

<script type="text/javascript">
var viewWidth = 658;
var viewHeight = 689;
var sectionId = 'dynsection-0';
</script>
<script xlink:href="svgpan.js"/>
<svg id="graph" class="graph">
<g id="viewport">
<title>LsFit</title>
<polygon fill="white" stroke="none" points="-4,4 -4,-685 654,-685 654,4 -4,4"/>
<!-- Node1 -->
<g id="node1" class="node"><title>Node1</title>
<polygon fill="#bfbfbf" stroke="black" points="186,-0.5 186,-244.5 266,-244.5 266,-0.5 186,-0.5"/>
<text text-anchor="middle" x="226" y="-232.5" font-family="Helvetica,sans-Serif" font-size="10.00">LsFit</text>
<polyline fill="none" stroke="black" points="186,-225.5 266,-225.5 "/>
<text text-anchor="start" x="194" y="-213.5" font-family="Helvetica,sans-Serif" font-size="10.00">+ meanx</text>
<text text-anchor="start" x="194" y="-202.5" font-family="Helvetica,sans-Serif" font-size="10.00">+ stdevx</text>
<text text-anchor="start" x="194" y="-191.5" font-family="Helvetica,sans-Serif" font-size="10.00">+ resolution</text>
<text text-anchor="start" x="194" y="-180.5" font-family="Helvetica,sans-Serif" font-size="10.00">&#45; element_cnt</text>
<text text-anchor="start" x="194" y="-169.5" font-family="Helvetica,sans-Serif" font-size="10.00">&#45; depth</text>
<text text-anchor="start" x="194" y="-158.5" font-family="Helvetica,sans-Serif" font-size="10.00">&#45; order</text>
<text text-anchor="start" x="194" y="-147.5" font-family="Helvetica,sans-Serif" font-size="10.00">&#45; basex</text>
<polyline fill="none" stroke="black" points="186,-140.5 266,-140.5 "/>
<text text-anchor="start" x="194" y="-128.5" font-family="Helvetica,sans-Serif" font-size="10.00">+ LsFit()</text>
<text text-anchor="start" x="194" y="-117.5" font-family="Helvetica,sans-Serif" font-size="10.00">+ initialize()</text>
<text text-anchor="start" x="194" y="-106.5" font-family="Helvetica,sans-Serif" font-size="10.00">+ update()</text>
<text text-anchor="start" x="194" y="-95.5" font-family="Helvetica,sans-Serif" font-size="10.00">+ update()</text>
<text text-anchor="start" x="194" y="-84.5" font-family="Helvetica,sans-Serif" font-size="10.00">+ update()</text>
<text text-anchor="start" x="194" y="-73.5" font-family="Helvetica,sans-Serif" font-size="10.00">+ update()</text>
<text text-anchor="start" x="194" y="-62.5" font-family="Helvetica,sans-Serif" font-size="10.00">+ update()</text>
<text text-anchor="start" x="194" y="-51.5" font-family="Helvetica,sans-Serif" font-size="10.00">+ lastx()</text>
<text text-anchor="start" x="194" y="-40.5" font-family="Helvetica,sans-Serif" font-size="10.00">+ firstx()</text>
<text text-anchor="start" x="194" y="-29.5" font-family="Helvetica,sans-Serif" font-size="10.00">+ size()</text>
<text text-anchor="start" x="194" y="-18.5" font-family="Helvetica,sans-Serif" font-size="10.00">and 18 more...</text>
<text text-anchor="start" x="194" y="-7.5" font-family="Helvetica,sans-Serif" font-size="10.00">&#45; fit()</text>
</g>
<!-- Node2 -->
<g id="node2" class="node"><title>Node2</title>
<polygon fill="white" stroke="#bfbfbf" points="7.5,-303.5 7.5,-360.5 142.5,-360.5 142.5,-303.5 7.5,-303.5"/>
<text text-anchor="middle" x="75" y="-348.5" font-family="Helvetica,sans-Serif" font-size="10.00">vector&lt; vector&lt; double &gt; &gt;</text>
<polyline fill="none" stroke="#bfbfbf" points="7.5,-341.5 142.5,-341.5 "/>
<text text-anchor="middle" x="75" y="-329.5" font-family="Helvetica,sans-Serif" font-size="10.00"> </text>
<polyline fill="none" stroke="#bfbfbf" points="7.5,-322.5 142.5,-322.5 "/>
<text text-anchor="middle" x="75" y="-310.5" font-family="Helvetica,sans-Serif" font-size="10.00"> </text>
</g>
<!-- Node2&#45;&gt;Node1 -->
<g id="edge1" class="edge"><title>Node2&#45;&gt;Node1</title>
<path fill="none" stroke="#404040" d="M95.0516,-303.446C116.187,-274.401 150.244,-227.602 178.328,-189.01"/>
<polygon fill="none" stroke="#404040" points="178.639,-188.582 178.935,-181.377 185.7,-178.879 185.404,-186.084 178.639,-188.582"/>
<text text-anchor="middle" x="141" y="-271.5" font-family="Helvetica,sans-Serif" font-size="10.00"> &#45;parms</text>
</g>
<!-- Node3 -->
<g id="node3" class="node"><title>Node3</title>
<polygon fill="white" stroke="#bfbfbf" points="160.5,-303.5 160.5,-360.5 291.5,-360.5 291.5,-303.5 160.5,-303.5"/>
<text text-anchor="middle" x="226" y="-348.5" font-family="Helvetica,sans-Serif" font-size="10.00">deque&lt; LsFit::fitelement &gt;</text>
<polyline fill="none" stroke="#bfbfbf" points="160.5,-341.5 291.5,-341.5 "/>
<text text-anchor="middle" x="226" y="-329.5" font-family="Helvetica,sans-Serif" font-size="10.00"> </text>
<polyline fill="none" stroke="#bfbfbf" points="160.5,-322.5 291.5,-322.5 "/>
<text text-anchor="middle" x="226" y="-310.5" font-family="Helvetica,sans-Serif" font-size="10.00"> </text>
</g>
<!-- Node3&#45;&gt;Node1 -->
<g id="edge2" class="edge"><title>Node3&#45;&gt;Node1</title>
<path fill="none" stroke="#404040" d="M226,-303.446C226,-290.575 226,-274.218 226,-256.634"/>
<polygon fill="none" stroke="#404040" points="226,-256.611 222,-250.611 226,-244.611 230,-250.611 226,-256.611"/>
<text text-anchor="middle" x="236" y="-271.5" font-family="Helvetica,sans-Serif" font-size="10.00"> &#45;var</text>
</g>
<!-- Node4 -->
<g id="node4" class="node"><title>Node4</title>
<g id="a_node4"><a xlink:href="unionuvector.html" target="_top" xlink:title="Quaternion/Rvector Union. ">
<polygon fill="white" stroke="black" points="309.5,-303.5 309.5,-360.5 358.5,-360.5 358.5,-303.5 309.5,-303.5"/>
<text text-anchor="middle" x="334" y="-348.5" font-family="Helvetica,sans-Serif" font-size="10.00">uvector</text>
<polyline fill="none" stroke="black" points="309.5,-341.5 358.5,-341.5 "/>
<text text-anchor="start" x="317.5" y="-329.5" font-family="Helvetica,sans-Serif" font-size="10.00">+ a4</text>
<polyline fill="none" stroke="black" points="309.5,-322.5 358.5,-322.5 "/>
<text text-anchor="middle" x="334" y="-310.5" font-family="Helvetica,sans-Serif" font-size="10.00"> </text>
</a>
</g>
</g>
<!-- Node4&#45;&gt;Node1 -->
<g id="edge3" class="edge"><title>Node4&#45;&gt;Node1</title>
<path fill="none" stroke="#404040" d="M319.658,-303.446C307.336,-279.77 288.873,-244.297 271.588,-211.088"/>
<polygon fill="none" stroke="#404040" points="271.567,-211.048 265.249,-207.573 266.027,-200.404 272.345,-203.879 271.567,-211.048"/>
<text text-anchor="middle" x="327.5" y="-277" font-family="Helvetica,sans-Serif" font-size="10.00"> +meany</text>
<text text-anchor="middle" x="327.5" y="-266" font-family="Helvetica,sans-Serif" font-size="10.00">+stdevy</text>
</g>
<!-- Node5 -->
<g id="node5" class="node"><title>Node5</title>
<g id="a_node5"><a xlink:href="structmatrix1d.html" target="_top" xlink:title="n element row matrix ">
<polygon fill="white" stroke="black" points="0,-419.5 0,-487.5 54,-487.5 54,-419.5 0,-419.5"/>
<text text-anchor="middle" x="27" y="-475.5" font-family="Helvetica,sans-Serif" font-size="10.00">matrix1d</text>
<polyline fill="none" stroke="black" points="0,-468.5 54,-468.5 "/>
<text text-anchor="start" x="8" y="-456.5" font-family="Helvetica,sans-Serif" font-size="10.00">+ vector</text>
<text text-anchor="start" x="8" y="-445.5" font-family="Helvetica,sans-Serif" font-size="10.00">+ cols</text>
<polyline fill="none" stroke="black" points="0,-438.5 54,-438.5 "/>
<text text-anchor="middle" x="27" y="-426.5" font-family="Helvetica,sans-Serif" font-size="10.00"> </text>
</a>
</g>
</g>
<!-- Node5&#45;&gt;Node4 -->
<g id="edge4" class="edge"><title>Node5&#45;&gt;Node4</title>
<path fill="none" stroke="#404040" d="M51.6981,-419.198C55.2826,-415.22 59.0897,-411.378 63,-408 82.1499,-391.457 87.9385,-386.838 112,-379 188.224,-354.169 219.585,-389.614 298.064,-360.455"/>
<polygon fill="none" stroke="#404040" points="298.318,-360.354 302.404,-354.412 309.461,-355.899 305.374,-361.84 298.318,-360.354"/>
<text text-anchor="middle" x="123.5" y="-382" font-family="Helvetica,sans-Serif" font-size="10.00"> +m1</text>
</g>
<!-- Node6 -->
<g id="node6" class="node"><title>Node6</title>
<g id="a_node6"><a xlink:href="structqlast.html" target="_top" xlink:title="Quaternion, scalar last, using vector elements. ">
<polygon fill="white" stroke="black" points="72,-408.5 72,-498.5 110,-498.5 110,-408.5 72,-408.5"/>
<text text-anchor="middle" x="91" y="-486.5" font-family="Helvetica,sans-Serif" font-size="10.00">qlast</text>
<polyline fill="none" stroke="black" points="72,-479.5 110,-479.5 "/>
<text text-anchor="start" x="80" y="-467.5" font-family="Helvetica,sans-Serif" font-size="10.00">+ q1</text>
<text text-anchor="start" x="80" y="-456.5" font-family="Helvetica,sans-Serif" font-size="10.00">+ q2</text>
<text text-anchor="start" x="80" y="-445.5" font-family="Helvetica,sans-Serif" font-size="10.00">+ q3</text>
<text text-anchor="start" x="80" y="-434.5" font-family="Helvetica,sans-Serif" font-size="10.00">+ q4</text>
<polyline fill="none" stroke="black" points="72,-427.5 110,-427.5 "/>
<text text-anchor="middle" x="91" y="-415.5" font-family="Helvetica,sans-Serif" font-size="10.00"> </text>
</a>
</g>
</g>
<!-- Node6&#45;&gt;Node4 -->
<g id="edge5" class="edge"><title>Node6&#45;&gt;Node4</title>
<path fill="none" stroke="#404040" d="M110.153,-418.901C112.912,-415.059 115.881,-411.331 119,-408 134.009,-391.972 138.585,-387.086 159,-379 214.294,-357.098 239.046,-382.693 297.997,-360.515"/>
<polygon fill="none" stroke="#404040" points="298.327,-360.379 302.344,-354.39 309.417,-355.796 305.4,-361.784 298.327,-360.379"/>
<text text-anchor="middle" x="167.5" y="-382" font-family="Helvetica,sans-Serif" font-size="10.00"> +ql</text>
</g>
<!-- Node7 -->
<g id="node7" class="node"><title>Node7</title>
<g id="a_node7"><a xlink:href="structqcomplex.html" target="_top" xlink:title="Quaternion, scalar last, using imaginary elements. ">
<polygon fill="white" stroke="black" points="128.5,-408.5 128.5,-498.5 187.5,-498.5 187.5,-408.5 128.5,-408.5"/>
<text text-anchor="middle" x="158" y="-486.5" font-family="Helvetica,sans-Serif" font-size="10.00">qcomplex</text>
<polyline fill="none" stroke="black" points="128.5,-479.5 187.5,-479.5 "/>
<text text-anchor="start" x="136.5" y="-467.5" font-family="Helvetica,sans-Serif" font-size="10.00">+ i</text>
<text text-anchor="start" x="136.5" y="-456.5" font-family="Helvetica,sans-Serif" font-size="10.00">+ j</text>
<text text-anchor="start" x="136.5" y="-445.5" font-family="Helvetica,sans-Serif" font-size="10.00">+ k</text>
<text text-anchor="start" x="136.5" y="-434.5" font-family="Helvetica,sans-Serif" font-size="10.00">+ r</text>
<polyline fill="none" stroke="black" points="128.5,-427.5 187.5,-427.5 "/>
<text text-anchor="middle" x="158" y="-415.5" font-family="Helvetica,sans-Serif" font-size="10.00"> </text>
</a>
</g>
</g>
<!-- Node7&#45;&gt;Node4 -->
<g id="edge6" class="edge"><title>Node7&#45;&gt;Node4</title>
<path fill="none" stroke="#404040" d="M168.93,-408.417C173.687,-397.305 180.444,-386.435 190,-379 226.35,-350.719 251.188,-377.142 298.284,-360.29"/>
<polygon fill="none" stroke="#404040" points="298.286,-360.289 302.29,-354.292 309.366,-355.681 305.362,-361.678 298.286,-360.289"/>
<text text-anchor="middle" x="200" y="-382" font-family="Helvetica,sans-Serif" font-size="10.00"> +qc</text>
</g>
<!-- Node8 -->
<g id="node8" class="node"><title>Node8</title>
<g id="a_node8"><a xlink:href="structquaternion.html" target="_top" xlink:title="Quaternion, scalar last, using x, y, z. ">
<polygon fill="white" stroke="black" points="257,-425 257,-482 319,-482 319,-425 257,-425"/>
<text text-anchor="middle" x="288" y="-470" font-family="Helvetica,sans-Serif" font-size="10.00">quaternion</text>
<polyline fill="none" stroke="black" points="257,-463 319,-463 "/>
<text text-anchor="start" x="265" y="-451" font-family="Helvetica,sans-Serif" font-size="10.00">+ w</text>
<polyline fill="none" stroke="black" points="257,-444 319,-444 "/>
<text text-anchor="middle" x="288" y="-432" font-family="Helvetica,sans-Serif" font-size="10.00"> </text>
</a>
</g>
</g>
<!-- Node8&#45;&gt;Node4 -->
<g id="edge7" class="edge"><title>Node8&#45;&gt;Node4</title>
<path fill="none" stroke="#404040" d="M298.669,-424.784C304.707,-409.098 312.355,-389.231 318.99,-371.994"/>
<polygon fill="none" stroke="#404040" points="319.078,-371.765 317.5,-364.728 323.389,-360.566 324.966,-367.602 319.078,-371.765"/>
<text text-anchor="middle" x="323.5" y="-382" font-family="Helvetica,sans-Serif" font-size="10.00"> +q</text>
</g>
<!-- Node9 -->
<g id="node9" class="node"><title>Node9</title>
<g id="a_node9"><a xlink:href="classcvector.html" target="_top" xlink:title="3 element cartesian vector ">
<polygon fill="white" stroke="black" points="208.5,-546.5 208.5,-680.5 287.5,-680.5 287.5,-546.5 208.5,-546.5"/>
<text text-anchor="middle" x="248" y="-668.5" font-family="Helvetica,sans-Serif" font-size="10.00">cvector</text>
<polyline fill="none" stroke="black" points="208.5,-661.5 287.5,-661.5 "/>
<text text-anchor="start" x="216.5" y="-649.5" font-family="Helvetica,sans-Serif" font-size="10.00">+ x</text>
<text text-anchor="start" x="216.5" y="-638.5" font-family="Helvetica,sans-Serif" font-size="10.00">+ y</text>
<text text-anchor="start" x="216.5" y="-627.5" font-family="Helvetica,sans-Serif" font-size="10.00">+ z</text>
<polyline fill="none" stroke="black" points="208.5,-620.5 287.5,-620.5 "/>
<text text-anchor="start" x="216.5" y="-608.5" font-family="Helvetica,sans-Serif" font-size="10.00">+ normalize()</text>
<text text-anchor="start" x="216.5" y="-597.5" font-family="Helvetica,sans-Serif" font-size="10.00">+ length()</text>
<text text-anchor="start" x="216.5" y="-586.5" font-family="Helvetica,sans-Serif" font-size="10.00">+ norm()</text>
<text text-anchor="start" x="216.5" y="-575.5" font-family="Helvetica,sans-Serif" font-size="10.00">+ norm2()</text>
<text text-anchor="start" x="216.5" y="-564.5" font-family="Helvetica,sans-Serif" font-size="10.00">+ normalized()</text>
<text text-anchor="start" x="216.5" y="-553.5" font-family="Helvetica,sans-Serif" font-size="10.00">+ operator[]()</text>
</a>
</g>
</g>
<!-- Node9&#45;&gt;Node4 -->
<g id="edge12" class="edge"><title>Node9&#45;&gt;Node4</title>
<path fill="none" stroke="#404040" d="M226.032,-546.27C216.133,-504.369 210.992,-450.322 233,-408 248.274,-378.628 267.265,-382.031 299.389,-360.784"/>
<polygon fill="none" stroke="#404040" points="299.527,-360.686 302.088,-353.945 309.296,-353.716 306.735,-360.457 299.527,-360.686"/>
<text text-anchor="middle" x="240.5" y="-451" font-family="Helvetica,sans-Serif" font-size="10.00"> +c</text>
</g>
<!-- Node9&#45;&gt;Node8 -->
<g id="edge8" class="edge"><title>Node9&#45;&gt;Node8</title>
<path fill="none" stroke="#404040" d="M264.732,-546.409C269.225,-528.66 273.945,-510.018 277.95,-494.197"/>
<polygon fill="none" stroke="#404040" points="278.046,-493.818 275.641,-487.02 280.991,-482.185 283.396,-488.984 278.046,-493.818"/>
<text text-anchor="middle" x="279.5" y="-520" font-family="Helvetica,sans-Serif" font-size="10.00"> +d</text>
</g>
<!-- Node10 -->
<g id="node10" class="node"><title>Node10</title>
<g id="a_node10"><a xlink:href="structavector.html" target="_top" xlink:title="3 element attitude vector. ">
<polygon fill="white" stroke="black" points="337.5,-414 337.5,-493 386.5,-493 386.5,-414 337.5,-414"/>
<text text-anchor="middle" x="362" y="-481" font-family="Helvetica,sans-Serif" font-size="10.00">avector</text>
<polyline fill="none" stroke="black" points="337.5,-474 386.5,-474 "/>
<text text-anchor="start" x="345.5" y="-462" font-family="Helvetica,sans-Serif" font-size="10.00">+ h</text>
<text text-anchor="start" x="345.5" y="-451" font-family="Helvetica,sans-Serif" font-size="10.00">+ e</text>
<text text-anchor="start" x="345.5" y="-440" font-family="Helvetica,sans-Serif" font-size="10.00">+ b</text>
<polyline fill="none" stroke="black" points="337.5,-433 386.5,-433 "/>
<text text-anchor="middle" x="362" y="-421" font-family="Helvetica,sans-Serif" font-size="10.00"> </text>
</a>
</g>
</g>
<!-- Node10&#45;&gt;Node4 -->
<g id="edge9" class="edge"><title>Node10&#45;&gt;Node4</title>
<path fill="none" stroke="#404040" d="M352.909,-413.702C349.804,-400.449 346.33,-385.621 343.215,-372.326"/>
<polygon fill="none" stroke="#404040" points="343.213,-372.321 337.95,-367.392 340.476,-360.637 345.739,-365.567 343.213,-372.321"/>
<text text-anchor="middle" x="355.5" y="-382" font-family="Helvetica,sans-Serif" font-size="10.00"> +a</text>
</g>
<!-- Node11 -->
<g id="node11" class="node"><title>Node11</title>
<g id="a_node11"><a xlink:href="structrvector.html" target="_top" xlink:title="3 element generic row vector ">
<polygon fill="white" stroke="black" points="404.5,-425 404.5,-482 451.5,-482 451.5,-425 404.5,-425"/>
<text text-anchor="middle" x="428" y="-470" font-family="Helvetica,sans-Serif" font-size="10.00">rvector</text>
<polyline fill="none" stroke="black" points="404.5,-463 451.5,-463 "/>
<text text-anchor="start" x="412.5" y="-451" font-family="Helvetica,sans-Serif" font-size="10.00">+ col</text>
<polyline fill="none" stroke="black" points="404.5,-444 451.5,-444 "/>
<text text-anchor="middle" x="428" y="-432" font-family="Helvetica,sans-Serif" font-size="10.00"> </text>
</a>
</g>
</g>
<!-- Node11&#45;&gt;Node4 -->
<g id="edge10" class="edge"><title>Node11&#45;&gt;Node4</title>
<path fill="none" stroke="#404040" d="M407.594,-424.582C403.469,-419.053 399.13,-413.317 395,-408 385.251,-395.45 374.368,-381.923 364.524,-369.859"/>
<polygon fill="none" stroke="#404040" points="364.499,-369.827 357.602,-367.721 356.894,-360.544 363.791,-362.651 364.499,-369.827"/>
<text text-anchor="middle" x="387.5" y="-382" font-family="Helvetica,sans-Serif" font-size="10.00"> +r</text>
</g>
<!-- Node12 -->
<g id="node12" class="node"><title>Node12</title>
<g id="a_node12"><a xlink:href="structsvector.html" target="_top" xlink:title="3 element spherical vector ">
<polygon fill="white" stroke="black" points="469.5,-414 469.5,-493 526.5,-493 526.5,-414 469.5,-414"/>
<text text-anchor="middle" x="498" y="-481" font-family="Helvetica,sans-Serif" font-size="10.00">svector</text>
<polyline fill="none" stroke="black" points="469.5,-474 526.5,-474 "/>
<text text-anchor="start" x="477.5" y="-462" font-family="Helvetica,sans-Serif" font-size="10.00">+ phi</text>
<text text-anchor="start" x="477.5" y="-451" font-family="Helvetica,sans-Serif" font-size="10.00">+ lambda</text>
<text text-anchor="start" x="477.5" y="-440" font-family="Helvetica,sans-Serif" font-size="10.00">+ r</text>
<polyline fill="none" stroke="black" points="469.5,-433 526.5,-433 "/>
<text text-anchor="middle" x="498" y="-421" font-family="Helvetica,sans-Serif" font-size="10.00"> </text>
</a>
</g>
</g>
<!-- Node12&#45;&gt;Node4 -->
<g id="edge11" class="edge"><title>Node12&#45;&gt;Node4</title>
<path fill="none" stroke="#404040" d="M469.129,-416.514C466.171,-413.507 463.107,-410.619 460,-408 432.195,-384.558 396.185,-363.924 369.786,-350.263"/>
<polygon fill="none" stroke="#404040" points="369.458,-350.097 362.298,-350.951 358.756,-344.67 365.916,-343.816 369.458,-350.097"/>
<text text-anchor="middle" x="442.5" y="-382" font-family="Helvetica,sans-Serif" font-size="10.00"> +s</text>
</g>
<!-- Node13 -->
<g id="node13" class="node"><title>Node13</title>
<g id="a_node13"><a xlink:href="structgvector.html" target="_top" xlink:title="3 element geodetic vector ">
<polygon fill="white" stroke="black" points="544.5,-414 544.5,-493 593.5,-493 593.5,-414 544.5,-414"/>
<text text-anchor="middle" x="569" y="-481" font-family="Helvetica,sans-Serif" font-size="10.00">gvector</text>
<polyline fill="none" stroke="black" points="544.5,-474 593.5,-474 "/>
<text text-anchor="start" x="552.5" y="-462" font-family="Helvetica,sans-Serif" font-size="10.00">+ lat</text>
<text text-anchor="start" x="552.5" y="-451" font-family="Helvetica,sans-Serif" font-size="10.00">+ lon</text>
<text text-anchor="start" x="552.5" y="-440" font-family="Helvetica,sans-Serif" font-size="10.00">+ h</text>
<polyline fill="none" stroke="black" points="544.5,-433 593.5,-433 "/>
<text text-anchor="middle" x="569" y="-421" font-family="Helvetica,sans-Serif" font-size="10.00"> </text>
</a>
</g>
</g>
<!-- Node13&#45;&gt;Node4 -->
<g id="edge13" class="edge"><title>Node13&#45;&gt;Node4</title>
<path fill="none" stroke="#404040" d="M544.324,-415.425C541.705,-412.718 538.923,-410.195 536,-408 485.36,-369.972 413.361,-349.441 370.396,-339.896"/>
<polygon fill="none" stroke="#404040" points="370.308,-339.877 363.608,-342.544 358.57,-337.384 365.27,-334.718 370.308,-339.877"/>
<text text-anchor="middle" x="513.5" y="-382" font-family="Helvetica,sans-Serif" font-size="10.00"> +g</text>
</g>
<!-- Node14 -->
<g id="node14" class="node"><title>Node14</title>
<g id="a_node14"><a xlink:href="structqfirst.html" target="_top" xlink:title="Quaternion, scalar first using vector elements. ">
<polygon fill="white" stroke="black" points="612,-408.5 612,-498.5 650,-498.5 650,-408.5 612,-408.5"/>
<text text-anchor="middle" x="631" y="-486.5" font-family="Helvetica,sans-Serif" font-size="10.00">qfirst</text>
<polyline fill="none" stroke="black" points="612,-479.5 650,-479.5 "/>
<text text-anchor="start" x="620" y="-467.5" font-family="Helvetica,sans-Serif" font-size="10.00">+ q0</text>
<text text-anchor="start" x="620" y="-456.5" font-family="Helvetica,sans-Serif" font-size="10.00">+ q1</text>
<text text-anchor="start" x="620" y="-445.5" font-family="Helvetica,sans-Serif" font-size="10.00">+ q2</text>
<text text-anchor="start" x="620" y="-434.5" font-family="Helvetica,sans-Serif" font-size="10.00">+ q3</text>
<polyline fill="none" stroke="black" points="612,-427.5 650,-427.5 "/>
<text text-anchor="middle" x="631" y="-415.5" font-family="Helvetica,sans-Serif" font-size="10.00"> </text>
</a>
</g>
</g>
<!-- Node14&#45;&gt;Node4 -->
<g id="edge14" class="edge"><title>Node14&#45;&gt;Node4</title>
<path fill="none" stroke="#404040" d="M611.964,-417.141C609.249,-413.782 606.258,-410.649 603,-408 534.418,-352.249 427.102,-337.867 370.996,-334.207"/>
<polygon fill="none" stroke="#404040" points="370.841,-334.198 364.628,-337.859 358.859,-333.532 365.072,-329.872 370.841,-334.198"/>
<text text-anchor="middle" x="581" y="-382" font-family="Helvetica,sans-Serif" font-size="10.00"> +qf</text>
</g>
</g>
</svg>
        <g id="navigator" transform="translate(0 0)" fill="#404254">
                <rect fill="#f2f5e9" fill-opacity="0.5" stroke="#606060" stroke-width=".5" x="0" y="0" width="60" height="60"/>
                <use id="zoomplus" xlink:href="#zoomPlus" x="17" y="9" onmousedown="handleZoom(evt,'in')"/>
                <use id="zoomminus" xlink:href="#zoomMin" x="42" y="9" onmousedown="handleZoom(evt,'out')"/>
                <use id="reset" xlink:href="#resetDef" x="30" y="36" onmousedown="handleReset()"/>
                <g id="arrowUp" xlink:href="#dirArrow" transform="translate(30 24)" onmousedown="handlePan(0,-1)">
                  <use xlink:href="#rim" fill="#404040">
                        <set attributeName="fill" to="#808080" begin="arrowUp.mouseover" end="arrowUp.mouseout"/>
                  </use>
                  <path fill="none" stroke="white" stroke-width="1.5" d="M0,-3.0v7 M-2.5,-0.5L0,-3.0L2.5,-0.5"/>
                </g>
                <g id="arrowRight" xlink:href="#dirArrow" transform="rotate(90) translate(36 -43)" onmousedown="handlePan(1,0)">
                  <use xlink:href="#rim" fill="#404040">
                        <set attributeName="fill" to="#808080" begin="arrowRight.mouseover" end="arrowRight.mouseout"/>
                  </use>
                  <path fill="none" stroke="white" stroke-width="1.5" d="M0,-3.0v7 M-2.5,-0.5L0,-3.0L2.5,-0.5"/>
                </g>
                <g id="arrowDown" xlink:href="#dirArrow" transform="rotate(180) translate(-30 -48)" onmousedown="handlePan(0,1)">
                  <use xlink:href="#rim" fill="#404040">
                        <set attributeName="fill" to="#808080" begin="arrowDown.mouseover" end="arrowDown.mouseout"/>
                  </use>
                  <path fill="none" stroke="white" stroke-width="1.5" d="M0,-3.0v7 M-2.5,-0.5L0,-3.0L2.5,-0.5"/>
                </g>
                <g id="arrowLeft" xlink:href="#dirArrow" transform="rotate(270) translate(-36 17)" onmousedown="handlePan(-1,0)">
                  <use xlink:href="#rim" fill="#404040">
                        <set attributeName="fill" to="#808080" begin="arrowLeft.mouseover" end="arrowLeft.mouseout"/>
                  </use>
                  <path fill="none" stroke="white" stroke-width="1.5" d="M0,-3.0v7 M-2.5,-0.5L0,-3.0L2.5,-0.5"/>
                </g>
        </g>
        <svg viewBox="0 0 15 15" width="100%" height="30px" preserveAspectRatio="xMaxYMin meet">
         <g id="arrow_out" transform="scale(0.3 0.3)">
          <a xlink:href="class_ls_fit__coll__graph_org.svg" target="_base">
           <rect id="button" ry="5" rx="5" y="6" x="6" height="38" width="38"
                fill="#f2f5e9" fill-opacity="0.5" stroke="#606060" stroke-width="1.0"/>
           <path id="arrow"
             d="M 11.500037,31.436501 C 11.940474,20.09759 22.043105,11.32322 32.158766,21.979434 L 37.068811,17.246167 C 37.068811,17.246167 37.088388,32 37.088388,32 L 22.160133,31.978069 C 22.160133,31.978069 26.997745,27.140456 26.997745,27.140456 C 18.528582,18.264221 13.291696,25.230495 11.500037,31.436501 z"
             style="fill:#404040;"/>
          </a>
         </g>
        </svg>
</svg>
