<?xml version="1.0" encoding="UTF-8" standalone="no"?>
<!DOCTYPE svg PUBLIC "-//W3C//DTD SVG 1.1//EN"
 "http://www.w3.org/Graphics/SVG/1.1/DTD/svg11.dtd">
<!-- Generated by graphviz version 2.38.0 (20140413.2041)
 -->
<!-- Title: Cosmos::Math::Vectors::Vector Pages: 1 -->
<svg width="566pt" height="512pt"
 viewBox="0.00 0.00 565.50 512.00" xmlns="http://www.w3.org/2000/svg" xmlns:xlink="http://www.w3.org/1999/xlink">
<g id="graph0" class="graph" transform="scale(1 1) rotate(0) translate(4 508)">
<title>Cosmos::Math::Vectors::Vector</title>
<polygon fill="white" stroke="none" points="-4,4 -4,-508 561.5,-508 561.5,4 -4,4"/>
<!-- Node1 -->
<g id="node1" class="node"><title>Node1</title>
<polygon fill="#bfbfbf" stroke="black" points="227.5,-215.5 227.5,-503.5 348.5,-503.5 348.5,-215.5 227.5,-215.5"/>
<text text-anchor="start" x="235.5" y="-491.5" font-family="Helvetica,sans-Serif" font-size="10.00">Cosmos::Math::Vectors</text>
<text text-anchor="middle" x="288" y="-480.5" font-family="Helvetica,sans-Serif" font-size="10.00">::Vector</text>
<polyline fill="none" stroke="black" points="227.5,-473.5 348.5,-473.5 "/>
<text text-anchor="start" x="235.5" y="-461.5" font-family="Helvetica,sans-Serif" font-size="10.00">+ x</text>
<text text-anchor="start" x="235.5" y="-450.5" font-family="Helvetica,sans-Serif" font-size="10.00">+ phi</text>
<text text-anchor="start" x="235.5" y="-439.5" font-family="Helvetica,sans-Serif" font-size="10.00">+ lat</text>
<text text-anchor="start" x="235.5" y="-428.5" font-family="Helvetica,sans-Serif" font-size="10.00">+ head</text>
<text text-anchor="start" x="235.5" y="-417.5" font-family="Helvetica,sans-Serif" font-size="10.00">+ @31</text>
<text text-anchor="start" x="235.5" y="-406.5" font-family="Helvetica,sans-Serif" font-size="10.00">+ y</text>
<text text-anchor="start" x="235.5" y="-395.5" font-family="Helvetica,sans-Serif" font-size="10.00">+ lambda</text>
<text text-anchor="start" x="235.5" y="-384.5" font-family="Helvetica,sans-Serif" font-size="10.00">+ lon</text>
<text text-anchor="start" x="235.5" y="-373.5" font-family="Helvetica,sans-Serif" font-size="10.00">+ elev</text>
<text text-anchor="start" x="235.5" y="-362.5" font-family="Helvetica,sans-Serif" font-size="10.00">+ @33</text>
<text text-anchor="start" x="235.5" y="-351.5" font-family="Helvetica,sans-Serif" font-size="10.00">and 6 more...</text>
<polyline fill="none" stroke="black" points="227.5,-344.5 348.5,-344.5 "/>
<text text-anchor="start" x="235.5" y="-332.5" font-family="Helvetica,sans-Serif" font-size="10.00">+ Vector()</text>
<text text-anchor="start" x="235.5" y="-321.5" font-family="Helvetica,sans-Serif" font-size="10.00">+ Vector()</text>
<text text-anchor="start" x="235.5" y="-310.5" font-family="Helvetica,sans-Serif" font-size="10.00">+ Vector()</text>
<text text-anchor="start" x="235.5" y="-299.5" font-family="Helvetica,sans-Serif" font-size="10.00">+ Vector()</text>
<text text-anchor="start" x="235.5" y="-288.5" font-family="Helvetica,sans-Serif" font-size="10.00">+ at()</text>
<text text-anchor="start" x="235.5" y="-277.5" font-family="Helvetica,sans-Serif" font-size="10.00">+ to_rv()</text>
<text text-anchor="start" x="235.5" y="-266.5" font-family="Helvetica,sans-Serif" font-size="10.00">+ to_cv()</text>
<text text-anchor="start" x="235.5" y="-255.5" font-family="Helvetica,sans-Serif" font-size="10.00">+ to_q()</text>
<text text-anchor="start" x="235.5" y="-244.5" font-family="Helvetica,sans-Serif" font-size="10.00">+ cross()</text>
<text text-anchor="start" x="235.5" y="-233.5" font-family="Helvetica,sans-Serif" font-size="10.00">+ dot()</text>
<text text-anchor="start" x="235.5" y="-222.5" font-family="Helvetica,sans-Serif" font-size="10.00">and 23 more...</text>
</g>
<!-- Node2 -->
<g id="node2" class="node"><title>Node2</title>
<g id="a_node2"><a xlink:href="class_cosmos_1_1_math_1_1_quaternions_1_1_quaternion.html" target="_top" xlink:title="{Cosmos::Math::Quaternions\l::Quaternion\n||+ Quaternion()\l+ Quaternion()\l+ Quaternion()\l+ Quaternion()\l+ to_q()\l+ getQuaternion()\l+ quaternion2Quaternion()\l+ Quaternion2quaternion()\l+ operator=()\l+ operator*()\land 14 more...\l}">
<polygon fill="white" stroke="black" points="0,-0.5 0,-178.5 140,-178.5 140,-0.5 0,-0.5"/>
<text text-anchor="start" x="8" y="-166.5" font-family="Helvetica,sans-Serif" font-size="10.00">Cosmos::Math::Quaternions</text>
<text text-anchor="middle" x="70" y="-155.5" font-family="Helvetica,sans-Serif" font-size="10.00">::Quaternion</text>
<polyline fill="none" stroke="black" points="0,-148.5 140,-148.5 "/>
<text text-anchor="middle" x="70" y="-136.5" font-family="Helvetica,sans-Serif" font-size="10.00"> </text>
<polyline fill="none" stroke="black" points="0,-129.5 140,-129.5 "/>
<text text-anchor="start" x="8" y="-117.5" font-family="Helvetica,sans-Serif" font-size="10.00">+ Quaternion()</text>
<text text-anchor="start" x="8" y="-106.5" font-family="Helvetica,sans-Serif" font-size="10.00">+ Quaternion()</text>
<text text-anchor="start" x="8" y="-95.5" font-family="Helvetica,sans-Serif" font-size="10.00">+ Quaternion()</text>
<text text-anchor="start" x="8" y="-84.5" font-family="Helvetica,sans-Serif" font-size="10.00">+ Quaternion()</text>
<text text-anchor="start" x="8" y="-73.5" font-family="Helvetica,sans-Serif" font-size="10.00">+ to_q()</text>
<text text-anchor="start" x="8" y="-62.5" font-family="Helvetica,sans-Serif" font-size="10.00">+ getQuaternion()</text>
<text text-anchor="start" x="8" y="-51.5" font-family="Helvetica,sans-Serif" font-size="10.00">+ quaternion2Quaternion()</text>
<text text-anchor="start" x="8" y="-40.5" font-family="Helvetica,sans-Serif" font-size="10.00">+ Quaternion2quaternion()</text>
<text text-anchor="start" x="8" y="-29.5" font-family="Helvetica,sans-Serif" font-size="10.00">+ operator=()</text>
<text text-anchor="start" x="8" y="-18.5" font-family="Helvetica,sans-Serif" font-size="10.00">+ operator*()</text>
<text text-anchor="start" x="8" y="-7.5" font-family="Helvetica,sans-Serif" font-size="10.00">and 14 more...</text>
</a>
</g>
</g>
<!-- Node1&#45;&gt;Node2 -->
<g id="edge1" class="edge"><title>Node1&#45;&gt;Node2</title>
<path fill="none" stroke="midnightblue" d="M220.839,-275.936C195.201,-244.417 165.922,-208.423 140.024,-176.584"/>
<polygon fill="none" stroke="midnightblue" points="218.249,-278.298 227.275,-283.847 223.68,-273.881 218.249,-278.298"/>
</g>
<!-- Node3 -->
<g id="node3" class="node"><title>Node3</title>
<g id="a_node3"><a xlink:href="class_cosmos_1_1_math_1_1_vectors_1_1euler_vector.html" target="_top" xlink:title="{Cosmos::Math::Vectors\l::eulerVector\n||}">
<polygon fill="white" stroke="black" points="158.5,-55.5 158.5,-123.5 279.5,-123.5 279.5,-55.5 158.5,-55.5"/>
<text text-anchor="start" x="166.5" y="-111.5" font-family="Helvetica,sans-Serif" font-size="10.00">Cosmos::Math::Vectors</text>
<text text-anchor="middle" x="219" y="-100.5" font-family="Helvetica,sans-Serif" font-size="10.00">::eulerVector</text>
<polyline fill="none" stroke="black" points="158.5,-93.5 279.5,-93.5 "/>
<text text-anchor="middle" x="219" y="-81.5" font-family="Helvetica,sans-Serif" font-size="10.00"> </text>
<polyline fill="none" stroke="black" points="158.5,-74.5 279.5,-74.5 "/>
<text text-anchor="middle" x="219" y="-62.5" font-family="Helvetica,sans-Serif" font-size="10.00"> </text>
</a>
</g>
</g>
<!-- Node1&#45;&gt;Node3 -->
<g id="edge2" class="edge"><title>Node1&#45;&gt;Node3</title>
<path fill="none" stroke="midnightblue" d="M248.588,-205.423C240.647,-174.579 233.06,-145.111 227.558,-123.738"/>
<polygon fill="none" stroke="midnightblue" points="245.294,-206.665 251.177,-215.477 252.073,-204.92 245.294,-206.665"/>
</g>
<!-- Node4 -->
<g id="node4" class="node"><title>Node4</title>
<g id="a_node4"><a xlink:href="class_cosmos_1_1_math_1_1_vectors_1_1geodetic_vector.html" target="_top" xlink:title="{Cosmos::Math::Vectors\l::geodeticVector\n||}">
<polygon fill="white" stroke="black" points="297.5,-55.5 297.5,-123.5 418.5,-123.5 418.5,-55.5 297.5,-55.5"/>
<text text-anchor="start" x="305.5" y="-111.5" font-family="Helvetica,sans-Serif" font-size="10.00">Cosmos::Math::Vectors</text>
<text text-anchor="middle" x="358" y="-100.5" font-family="Helvetica,sans-Serif" font-size="10.00">::geodeticVector</text>
<polyline fill="none" stroke="black" points="297.5,-93.5 418.5,-93.5 "/>
<text text-anchor="middle" x="358" y="-81.5" font-family="Helvetica,sans-Serif" font-size="10.00"> </text>
<polyline fill="none" stroke="black" points="297.5,-74.5 418.5,-74.5 "/>
<text text-anchor="middle" x="358" y="-62.5" font-family="Helvetica,sans-Serif" font-size="10.00"> </text>
</a>
</g>
</g>
<!-- Node1&#45;&gt;Node4 -->
<g id="edge3" class="edge"><title>Node1&#45;&gt;Node4</title>
<path fill="none" stroke="midnightblue" d="M327.983,-205.423C336.039,-174.579 343.736,-145.111 349.318,-123.738"/>
<polygon fill="none" stroke="midnightblue" points="324.498,-204.917 325.357,-215.477 331.27,-206.686 324.498,-204.917"/>
</g>
<!-- Node5 -->
<g id="node5" class="node"><title>Node5</title>
<g id="a_node5"><a xlink:href="class_cosmos_1_1_math_1_1_vectors_1_1spherical_vector.html" target="_top" xlink:title="{Cosmos::Math::Vectors\l::sphericalVector\n||}">
<polygon fill="white" stroke="black" points="436.5,-55.5 436.5,-123.5 557.5,-123.5 557.5,-55.5 436.5,-55.5"/>
<text text-anchor="start" x="444.5" y="-111.5" font-family="Helvetica,sans-Serif" font-size="10.00">Cosmos::Math::Vectors</text>
<text text-anchor="middle" x="497" y="-100.5" font-family="Helvetica,sans-Serif" font-size="10.00">::sphericalVector</text>
<polyline fill="none" stroke="black" points="436.5,-93.5 557.5,-93.5 "/>
<text text-anchor="middle" x="497" y="-81.5" font-family="Helvetica,sans-Serif" font-size="10.00"> </text>
<polyline fill="none" stroke="black" points="436.5,-74.5 557.5,-74.5 "/>
<text text-anchor="middle" x="497" y="-62.5" font-family="Helvetica,sans-Serif" font-size="10.00"> </text>
</a>
</g>
</g>
<!-- Node1&#45;&gt;Node5 -->
<g id="edge4" class="edge"><title>Node1&#45;&gt;Node5</title>
<path fill="none" stroke="midnightblue" d="M354.999,-272.587C394.513,-221.919 442.274,-160.675 471.112,-123.697"/>
<polygon fill="none" stroke="midnightblue" points="352.122,-270.585 348.732,-280.623 357.642,-274.89 352.122,-270.585"/>
</g>
</g>
</svg>
