<?xml version="1.0" encoding="UTF-8" standalone="no"?>
<!DOCTYPE svg PUBLIC "-//W3C//DTD SVG 1.1//EN"
 "http://www.w3.org/Graphics/SVG/1.1/DTD/svg11.dtd">
<!-- Generated by graphviz version 2.38.0 (20140413.2041)
 -->
<!-- Title: command_queue.h Pages: 1 -->
<svg width="439pt" height="84pt"
 viewBox="0.00 0.00 438.50 84.00" xmlns="http://www.w3.org/2000/svg" xmlns:xlink="http://www.w3.org/1999/xlink">
<g id="graph0" class="graph" transform="scale(1 1) rotate(0) translate(4 80)">
<title>command_queue.h</title>
<polygon fill="white" stroke="none" points="-4,4 -4,-80 434.5,-80 434.5,4 -4,4"/>
<!-- Node1 -->
<g id="node1" class="node"><title>Node1</title>
<polygon fill="#bfbfbf" stroke="black" points="176.5,-56.5 176.5,-75.5 275.5,-75.5 275.5,-56.5 176.5,-56.5"/>
<text text-anchor="middle" x="226" y="-63.5" font-family="Helvetica,sans-Serif" font-size="10.00">command_queue.h</text>
</g>
<!-- Node2 -->
<g id="node2" class="node"><title>Node2</title>
<g id="a_node2"><a xlink:href="command__queue_8cpp.html" target="_top" xlink:title="command_queue.cpp">
<polygon fill="white" stroke="black" points="0,-0.5 0,-19.5 110,-19.5 110,-0.5 0,-0.5"/>
<text text-anchor="middle" x="55" y="-7.5" font-family="Helvetica,sans-Serif" font-size="10.00">command_queue.cpp</text>
</a>
</g>
</g>
<!-- Node1&#45;&gt;Node2 -->
<g id="edge1" class="edge"><title>Node1&#45;&gt;Node2</title>
<path fill="none" stroke="midnightblue" d="M188.964,-53.3044C156.743,-43.1294 110.811,-28.6246 81.9687,-19.5164"/>
<polygon fill="midnightblue" stroke="midnightblue" points="188.315,-56.7697 198.905,-56.4435 190.423,-50.0946 188.315,-56.7697"/>
</g>
<!-- Node3 -->
<g id="node3" class="node"><title>Node3</title>
<g id="a_node3"><a xlink:href="agent__exec_8cpp.html" target="_top" xlink:title="Executive Agent source file. ">
<polygon fill="white" stroke="black" points="128,-0.5 128,-19.5 214,-19.5 214,-0.5 128,-0.5"/>
<text text-anchor="middle" x="171" y="-7.5" font-family="Helvetica,sans-Serif" font-size="10.00">agent_exec.cpp</text>
</a>
</g>
</g>
<!-- Node1&#45;&gt;Node3 -->
<g id="edge2" class="edge"><title>Node1&#45;&gt;Node3</title>
<path fill="none" stroke="midnightblue" d="M209.706,-49.0024C199.959,-39.4329 187.947,-27.6389 179.913,-19.7511"/>
<polygon fill="midnightblue" stroke="midnightblue" points="207.33,-51.5746 216.918,-56.083 212.234,-46.5796 207.33,-51.5746"/>
</g>
<!-- Node4 -->
<g id="node4" class="node"><title>Node4</title>
<g id="a_node4"><a xlink:href="agent__monitor_8cpp.html" target="_top" xlink:title="agent_monitor.cpp">
<polygon fill="white" stroke="black" points="232.5,-0.5 232.5,-19.5 329.5,-19.5 329.5,-0.5 232.5,-0.5"/>
<text text-anchor="middle" x="281" y="-7.5" font-family="Helvetica,sans-Serif" font-size="10.00">agent_monitor.cpp</text>
</a>
</g>
</g>
<!-- Node1&#45;&gt;Node4 -->
<g id="edge3" class="edge"><title>Node1&#45;&gt;Node4</title>
<path fill="none" stroke="midnightblue" d="M242.294,-49.0024C252.041,-39.4329 264.053,-27.6389 272.087,-19.7511"/>
<polygon fill="midnightblue" stroke="midnightblue" points="239.766,-46.5796 235.082,-56.083 244.67,-51.5746 239.766,-46.5796"/>
</g>
<!-- Node5 -->
<g id="node5" class="node"><title>Node5</title>
<g id="a_node5"><a xlink:href="agent__time_8cpp.html" target="_top" xlink:title="agent_time.cpp">
<polygon fill="white" stroke="black" points="347.5,-0.5 347.5,-19.5 430.5,-19.5 430.5,-0.5 347.5,-0.5"/>
<text text-anchor="middle" x="389" y="-7.5" font-family="Helvetica,sans-Serif" font-size="10.00">agent_time.cpp</text>
</a>
</g>
</g>
<!-- Node1&#45;&gt;Node5 -->
<g id="edge4" class="edge"><title>Node1&#45;&gt;Node5</title>
<path fill="none" stroke="midnightblue" d="M261.703,-53.172C292.396,-43.0039 335.919,-28.5852 363.293,-19.5164"/>
<polygon fill="midnightblue" stroke="midnightblue" points="260.22,-49.9762 251.828,-56.4435 262.421,-56.6211 260.22,-49.9762"/>
</g>
</g>
</svg>
