<?xml version="1.0" encoding="UTF-8" standalone="no"?>
<!DOCTYPE svg PUBLIC "-//W3C//DTD SVG 1.1//EN"
 "http://www.w3.org/Graphics/SVG/1.1/DTD/svg11.dtd">
<!-- Generated by graphviz version 2.38.0 (20140413.2041)
 -->
<!-- Title: configCosmos.h Pages: 1 -->
<svg width="1459pt" height="140pt"
 viewBox="0.00 0.00 1458.50 140.00" xmlns="http://www.w3.org/2000/svg" xmlns:xlink="http://www.w3.org/1999/xlink">
<g id="graph0" class="graph" transform="scale(1 1) rotate(0) translate(4 136)">
<title>configCosmos.h</title>
<polygon fill="white" stroke="none" points="-4,4 -4,-136 1454.5,-136 1454.5,4 -4,4"/>
<!-- Node1 -->
<g id="node1" class="node"><title>Node1</title>
<polygon fill="#bfbfbf" stroke="black" points="728.5,-112.5 728.5,-131.5 816.5,-131.5 816.5,-112.5 728.5,-112.5"/>
<text text-anchor="middle" x="772.5" y="-119.5" font-family="Helvetica,sans-Serif" font-size="10.00">configCosmos.h</text>
</g>
<!-- Node2 -->
<g id="node2" class="node"><title>Node2</title>
<polygon fill="white" stroke="#bfbfbf" points="0,-56.5 0,-75.5 45,-75.5 45,-56.5 0,-56.5"/>
<text text-anchor="middle" x="22.5" y="-63.5" font-family="Helvetica,sans-Serif" font-size="10.00">climits</text>
</g>
<!-- Node1&#45;&gt;Node2 -->
<g id="edge1" class="edge"><title>Node1&#45;&gt;Node2</title>
<path fill="none" stroke="midnightblue" d="M728.337,-121.595C616.636,-122.384 313.905,-120.077 55.0164,-75.8949"/>
<polygon fill="midnightblue" stroke="midnightblue" points="55.5024,-72.427 45.0518,-74.1697 54.3081,-79.3244 55.5024,-72.427"/>
</g>
<!-- Node3 -->
<g id="node3" class="node"><title>Node3</title>
<polygon fill="white" stroke="#bfbfbf" points="63,-56.5 63,-75.5 110,-75.5 110,-56.5 63,-56.5"/>
<text text-anchor="middle" x="86.5" y="-63.5" font-family="Helvetica,sans-Serif" font-size="10.00">csignal</text>
</g>
<!-- Node1&#45;&gt;Node3 -->
<g id="edge2" class="edge"><title>Node1&#45;&gt;Node3</title>
<path fill="none" stroke="midnightblue" d="M728.198,-120.95C623.738,-120.191 353.899,-114.488 120.215,-75.7459"/>
<polygon fill="midnightblue" stroke="midnightblue" points="120.61,-72.2633 110.168,-74.0559 119.449,-79.1663 120.61,-72.2633"/>
</g>
<!-- Node4 -->
<g id="node4" class="node"><title>Node4</title>
<polygon fill="white" stroke="#bfbfbf" points="128.5,-56.5 128.5,-75.5 174.5,-75.5 174.5,-56.5 128.5,-56.5"/>
<text text-anchor="middle" x="151.5" y="-63.5" font-family="Helvetica,sans-Serif" font-size="10.00">cstdint</text>
</g>
<!-- Node1&#45;&gt;Node4 -->
<g id="edge3" class="edge"><title>Node1&#45;&gt;Node4</title>
<path fill="none" stroke="midnightblue" d="M728.163,-120.598C631.057,-119.077 392.327,-111.85 184.66,-75.8626"/>
<polygon fill="midnightblue" stroke="midnightblue" points="185.25,-72.4128 174.795,-74.127 184.037,-79.3069 185.25,-72.4128"/>
</g>
<!-- Node5 -->
<g id="node5" class="node"><title>Node5</title>
<polygon fill="white" stroke="#bfbfbf" points="192.5,-56.5 192.5,-75.5 248.5,-75.5 248.5,-56.5 192.5,-56.5"/>
<text text-anchor="middle" x="220.5" y="-63.5" font-family="Helvetica,sans-Serif" font-size="10.00">cinttypes</text>
</g>
<!-- Node1&#45;&gt;Node5 -->
<g id="edge4" class="edge"><title>Node1&#45;&gt;Node5</title>
<path fill="none" stroke="midnightblue" d="M728.23,-119.291C638.912,-115.367 430.947,-103.819 258.5,-76 258.4,-75.9838 258.299,-75.9675 258.198,-75.9511"/>
<polygon fill="midnightblue" stroke="midnightblue" points="259.106,-72.5608 248.63,-74.143 257.807,-79.439 259.106,-72.5608"/>
</g>
<!-- Node6 -->
<g id="node6" class="node"><title>Node6</title>
<polygon fill="white" stroke="#bfbfbf" points="267,-56.5 267,-75.5 310,-75.5 310,-56.5 267,-56.5"/>
<text text-anchor="middle" x="288.5" y="-63.5" font-family="Helvetica,sans-Serif" font-size="10.00">cstdio</text>
</g>
<!-- Node1&#45;&gt;Node6 -->
<g id="edge5" class="edge"><title>Node1&#45;&gt;Node6</title>
<path fill="none" stroke="midnightblue" d="M728.383,-119.306C648.68,-115.666 475.37,-105.093 320.247,-75.7657"/>
<polygon fill="midnightblue" stroke="midnightblue" points="320.538,-72.2576 310.057,-73.8067 319.216,-79.1317 320.538,-72.2576"/>
</g>
<!-- Node7 -->
<g id="node7" class="node"><title>Node7</title>
<polygon fill="white" stroke="#bfbfbf" points="328,-56.5 328,-75.5 377,-75.5 377,-56.5 328,-56.5"/>
<text text-anchor="middle" x="352.5" y="-63.5" font-family="Helvetica,sans-Serif" font-size="10.00">cstddef</text>
</g>
<!-- Node1&#45;&gt;Node7 -->
<g id="edge6" class="edge"><title>Node1&#45;&gt;Node7</title>
<path fill="none" stroke="midnightblue" d="M728.486,-117.924C658.328,-112.575 516.722,-99.9496 387.372,-75.9019"/>
<polygon fill="midnightblue" stroke="midnightblue" points="387.764,-72.4143 377.289,-73.9991 386.466,-79.2929 387.764,-72.4143"/>
</g>
<!-- Node8 -->
<g id="node8" class="node"><title>Node8</title>
<polygon fill="white" stroke="#bfbfbf" points="395,-56.5 395,-75.5 440,-75.5 440,-56.5 395,-56.5"/>
<text text-anchor="middle" x="417.5" y="-63.5" font-family="Helvetica,sans-Serif" font-size="10.00">cstdlib</text>
</g>
<!-- Node1&#45;&gt;Node8 -->
<g id="edge7" class="edge"><title>Node1&#45;&gt;Node8</title>
<path fill="none" stroke="midnightblue" d="M728.288,-116.762C667.661,-110.53 555.214,-97.4659 449.966,-75.827"/>
<polygon fill="midnightblue" stroke="midnightblue" points="450.636,-72.3914 440.132,-73.7752 449.206,-79.2439 450.636,-72.3914"/>
</g>
<!-- Node9 -->
<g id="node9" class="node"><title>Node9</title>
<polygon fill="white" stroke="#bfbfbf" points="458.5,-56.5 458.5,-75.5 502.5,-75.5 502.5,-56.5 458.5,-56.5"/>
<text text-anchor="middle" x="480.5" y="-63.5" font-family="Helvetica,sans-Serif" font-size="10.00">cerrno</text>
</g>
<!-- Node1&#45;&gt;Node9 -->
<g id="edge8" class="edge"><title>Node1&#45;&gt;Node9</title>
<path fill="none" stroke="midnightblue" d="M728.329,-114.924C678.219,-107.691 593.908,-94.4929 512.663,-76.0628"/>
<polygon fill="midnightblue" stroke="midnightblue" points="513.303,-72.6187 502.773,-73.7893 511.735,-79.4407 513.303,-72.6187"/>
</g>
<!-- Node10 -->
<g id="node10" class="node"><title>Node10</title>
<polygon fill="white" stroke="#bfbfbf" points="520.5,-56.5 520.5,-75.5 566.5,-75.5 566.5,-56.5 520.5,-56.5"/>
<text text-anchor="middle" x="543.5" y="-63.5" font-family="Helvetica,sans-Serif" font-size="10.00">cstring</text>
</g>
<!-- Node1&#45;&gt;Node10 -->
<g id="edge9" class="edge"><title>Node1&#45;&gt;Node10</title>
<path fill="none" stroke="midnightblue" d="M732.366,-112.443C694.563,-104.248 636.126,-91.2306 576.501,-76.1613"/>
<polygon fill="midnightblue" stroke="midnightblue" points="577.09,-72.6996 566.535,-73.6259 575.364,-79.4835 577.09,-72.6996"/>
</g>
<!-- Node11 -->
<g id="node11" class="node"><title>Node11</title>
<polygon fill="white" stroke="#bfbfbf" points="584.5,-56.5 584.5,-75.5 628.5,-75.5 628.5,-56.5 584.5,-56.5"/>
<text text-anchor="middle" x="606.5" y="-63.5" font-family="Helvetica,sans-Serif" font-size="10.00">cmath</text>
</g>
<!-- Node1&#45;&gt;Node11 -->
<g id="edge10" class="edge"><title>Node1&#45;&gt;Node11</title>
<path fill="none" stroke="midnightblue" d="M746.197,-112.444C716.912,-102.917 669.589,-87.5228 638.262,-77.3321"/>
<polygon fill="midnightblue" stroke="midnightblue" points="639.288,-73.9855 628.696,-74.2203 637.123,-80.6422 639.288,-73.9855"/>
</g>
<!-- Node12 -->
<g id="node12" class="node"><title>Node12</title>
<polygon fill="white" stroke="#bfbfbf" points="647,-56.5 647,-75.5 692,-75.5 692,-56.5 647,-56.5"/>
<text text-anchor="middle" x="669.5" y="-63.5" font-family="Helvetica,sans-Serif" font-size="10.00">iosfwd</text>
</g>
<!-- Node1&#45;&gt;Node12 -->
<g id="edge11" class="edge"><title>Node1&#45;&gt;Node12</title>
<path fill="none" stroke="midnightblue" d="M755.951,-112.324C739.508,-103.703 714.065,-90.3643 695.032,-80.3855"/>
<polygon fill="midnightblue" stroke="midnightblue" points="696.489,-77.198 686.008,-75.6545 693.239,-83.3977 696.489,-77.198"/>
</g>
<!-- Node13 -->
<g id="node13" class="node"><title>Node13</title>
<polygon fill="white" stroke="#bfbfbf" points="710.5,-56.5 710.5,-75.5 764.5,-75.5 764.5,-56.5 710.5,-56.5"/>
<text text-anchor="middle" x="737.5" y="-63.5" font-family="Helvetica,sans-Serif" font-size="10.00">iostream</text>
</g>
<!-- Node1&#45;&gt;Node13 -->
<g id="edge12" class="edge"><title>Node1&#45;&gt;Node13</title>
<path fill="none" stroke="midnightblue" d="M766.72,-112.083C761.828,-104.534 754.673,-93.4948 748.667,-84.2298"/>
<polygon fill="midnightblue" stroke="midnightblue" points="751.548,-82.239 743.172,-75.7511 745.674,-86.0463 751.548,-82.239"/>
</g>
<!-- Node14 -->
<g id="node14" class="node"><title>Node14</title>
<polygon fill="white" stroke="#bfbfbf" points="783,-56.5 783,-75.5 834,-75.5 834,-56.5 783,-56.5"/>
<text text-anchor="middle" x="808.5" y="-63.5" font-family="Helvetica,sans-Serif" font-size="10.00">unistd.h</text>
</g>
<!-- Node1&#45;&gt;Node14 -->
<g id="edge13" class="edge"><title>Node1&#45;&gt;Node14</title>
<path fill="none" stroke="midnightblue" d="M778.445,-112.083C783.477,-104.534 790.837,-93.4948 797.013,-84.2298"/>
<polygon fill="midnightblue" stroke="midnightblue" points="800.031,-86.0131 802.666,-75.7511 794.207,-82.1301 800.031,-86.0131"/>
</g>
<!-- Node15 -->
<g id="node15" class="node"><title>Node15</title>
<polygon fill="white" stroke="#bfbfbf" points="852.5,-56.5 852.5,-75.5 896.5,-75.5 896.5,-56.5 852.5,-56.5"/>
<text text-anchor="middle" x="874.5" y="-63.5" font-family="Helvetica,sans-Serif" font-size="10.00">fcntl.h</text>
</g>
<!-- Node1&#45;&gt;Node15 -->
<g id="edge14" class="edge"><title>Node1&#45;&gt;Node15</title>
<path fill="none" stroke="midnightblue" d="M788.888,-112.324C805.171,-103.703 830.367,-90.3643 849.216,-80.3855"/>
<polygon fill="midnightblue" stroke="midnightblue" points="850.952,-83.4267 858.153,-75.6545 847.677,-77.2402 850.952,-83.4267"/>
</g>
<!-- Node16 -->
<g id="node16" class="node"><title>Node16</title>
<polygon fill="white" stroke="#bfbfbf" points="915,-56.5 915,-75.5 956,-75.5 956,-56.5 915,-56.5"/>
<text text-anchor="middle" x="935.5" y="-63.5" font-family="Helvetica,sans-Serif" font-size="10.00">string</text>
</g>
<!-- Node1&#45;&gt;Node16 -->
<g id="edge15" class="edge"><title>Node1&#45;&gt;Node16</title>
<path fill="none" stroke="midnightblue" d="M798.328,-112.444C827.362,-102.825 874.454,-87.2238 905.203,-77.0372"/>
<polygon fill="midnightblue" stroke="midnightblue" points="906.562,-80.2739 914.954,-73.8067 904.361,-73.6291 906.562,-80.2739"/>
</g>
<!-- Node17 -->
<g id="node17" class="node"><title>Node17</title>
<polygon fill="white" stroke="#bfbfbf" points="938.5,-0.5 938.5,-19.5 982.5,-19.5 982.5,-0.5 938.5,-0.5"/>
<text text-anchor="middle" x="960.5" y="-7.5" font-family="Helvetica,sans-Serif" font-size="10.00">vector</text>
</g>
<!-- Node1&#45;&gt;Node17 -->
<g id="edge16" class="edge"><title>Node1&#45;&gt;Node17</title>
<path fill="none" stroke="midnightblue" d="M816.603,-116.982C867.71,-111.307 947.266,-98.9744 965.5,-76 975.817,-63.0013 972.675,-43.5697 968.108,-29.3382"/>
<polygon fill="midnightblue" stroke="midnightblue" points="971.282,-27.8312 964.536,-19.6617 964.715,-30.255 971.282,-27.8312"/>
</g>
<!-- Node18 -->
<g id="node18" class="node"><title>Node18</title>
<polygon fill="white" stroke="#bfbfbf" points="1337,-56.5 1337,-75.5 1380,-75.5 1380,-56.5 1337,-56.5"/>
<text text-anchor="middle" x="1358.5" y="-63.5" font-family="Helvetica,sans-Serif" font-size="10.00">deque</text>
</g>
<!-- Node1&#45;&gt;Node18 -->
<g id="edge17" class="edge"><title>Node1&#45;&gt;Node18</title>
<path fill="none" stroke="midnightblue" d="M816.644,-119.832C910.392,-116.818 1136.04,-106.724 1322.5,-76 1323.97,-75.7578 1325.47,-75.4859 1326.98,-75.1917"/>
<polygon fill="midnightblue" stroke="midnightblue" points="1327.9,-78.5716 1336.92,-73.0035 1326.4,-71.7352 1327.9,-78.5716"/>
</g>
<!-- Node19 -->
<g id="node19" class="node"><title>Node19</title>
<polygon fill="white" stroke="#bfbfbf" points="1000.5,-0.5 1000.5,-19.5 1044.5,-19.5 1044.5,-0.5 1000.5,-0.5"/>
<text text-anchor="middle" x="1022.5" y="-7.5" font-family="Helvetica,sans-Serif" font-size="10.00">mutex</text>
</g>
<!-- Node1&#45;&gt;Node19 -->
<g id="edge18" class="edge"><title>Node1&#45;&gt;Node19</title>
<path fill="none" stroke="midnightblue" d="M816.694,-121.353C862.177,-119.618 933.168,-110.856 982.5,-76 998.697,-64.5559 1009.63,-44.275 1015.91,-29.4022"/>
<polygon fill="midnightblue" stroke="midnightblue" points="1019.31,-30.3205 1019.68,-19.732 1012.79,-27.7808 1019.31,-30.3205"/>
</g>
<!-- Node20 -->
<g id="node20" class="node"><title>Node20</title>
<polygon fill="white" stroke="#bfbfbf" points="1062.5,-0.5 1062.5,-19.5 1106.5,-19.5 1106.5,-0.5 1062.5,-0.5"/>
<text text-anchor="middle" x="1084.5" y="-7.5" font-family="Helvetica,sans-Serif" font-size="10.00">thread</text>
</g>
<!-- Node1&#45;&gt;Node20 -->
<g id="edge19" class="edge"><title>Node1&#45;&gt;Node20</title>
<path fill="none" stroke="midnightblue" d="M816.575,-118.952C864.974,-115.263 943.986,-104.932 1005.5,-76 1030.72,-64.1368 1054.71,-42.3908 1069.5,-27.3374"/>
<polygon fill="midnightblue" stroke="midnightblue" points="1072.35,-29.4206 1076.72,-19.7683 1067.28,-24.5897 1072.35,-29.4206"/>
</g>
<!-- Node21 -->
<g id="node21" class="node"><title>Node21</title>
<polygon fill="white" stroke="#bfbfbf" points="1171,-0.5 1171,-19.5 1266,-19.5 1266,-0.5 1171,-0.5"/>
<text text-anchor="middle" x="1218.5" y="-7.5" font-family="Helvetica,sans-Serif" font-size="10.00">condition_variable</text>
</g>
<!-- Node1&#45;&gt;Node21 -->
<g id="edge20" class="edge"><title>Node1&#45;&gt;Node21</title>
<path fill="none" stroke="midnightblue" d="M816.693,-119.649C922.973,-115.961 1186.13,-104.063 1213.5,-76 1225.21,-63.9911 1225.04,-44.0989 1222.82,-29.4775"/>
<polygon fill="midnightblue" stroke="midnightblue" points="1226.23,-28.6876 1220.88,-19.5417 1219.36,-30.0266 1226.23,-28.6876"/>
</g>
<!-- Node22 -->
<g id="node22" class="node"><title>Node22</title>
<polygon fill="white" stroke="#bfbfbf" points="1284,-0.5 1284,-19.5 1327,-19.5 1327,-0.5 1284,-0.5"/>
<text text-anchor="middle" x="1305.5" y="-7.5" font-family="Helvetica,sans-Serif" font-size="10.00">queue</text>
</g>
<!-- Node1&#45;&gt;Node22 -->
<g id="edge21" class="edge"><title>Node1&#45;&gt;Node22</title>
<path fill="none" stroke="midnightblue" d="M816.733,-120.095C916.818,-117.5 1157.67,-108.019 1231.5,-76 1256.38,-65.2071 1278.84,-42.8333 1292.33,-27.3741"/>
<polygon fill="midnightblue" stroke="midnightblue" points="1295.09,-29.5204 1298.85,-19.6145 1289.74,-25.0146 1295.09,-29.5204"/>
</g>
<!-- Node23 -->
<g id="node23" class="node"><title>Node23</title>
<polygon fill="white" stroke="#bfbfbf" points="1398.5,-56.5 1398.5,-75.5 1450.5,-75.5 1450.5,-56.5 1398.5,-56.5"/>
<text text-anchor="middle" x="1424.5" y="-63.5" font-family="Helvetica,sans-Serif" font-size="10.00">sstream</text>
</g>
<!-- Node1&#45;&gt;Node23 -->
<g id="edge22" class="edge"><title>Node1&#45;&gt;Node23</title>
<path fill="none" stroke="midnightblue" d="M816.579,-120.483C916.701,-118.733 1168.93,-111.066 1388.15,-75.9311"/>
<polygon fill="midnightblue" stroke="midnightblue" points="1388.93,-79.3511 1398.23,-74.2915 1387.8,-72.4418 1388.93,-79.3511"/>
</g>
<!-- Node24 -->
<g id="node24" class="node"><title>Node24</title>
<polygon fill="white" stroke="#bfbfbf" points="1345,-0.5 1345,-19.5 1380,-19.5 1380,-0.5 1345,-0.5"/>
<text text-anchor="middle" x="1362.5" y="-7.5" font-family="Helvetica,sans-Serif" font-size="10.00">map</text>
</g>
<!-- Node1&#45;&gt;Node24 -->
<g id="edge23" class="edge"><title>Node1&#45;&gt;Node24</title>
<path fill="none" stroke="midnightblue" d="M816.753,-119.549C920.759,-115.717 1178.1,-103.658 1259.5,-76 1292.14,-64.9094 1324.98,-41.5829 1344.53,-26.1031"/>
<polygon fill="midnightblue" stroke="midnightblue" points="1346.96,-28.6332 1352.53,-19.615 1342.55,-23.1971 1346.96,-28.6332"/>
</g>
<!-- Node25 -->
<g id="node25" class="node"><title>Node25</title>
<g id="a_node25"><a xlink:href="cosmos-defs_8h.html" target="_top" xlink:title="COSMOS definitions Definitions specific to the COSMOS environement. ">
<polygon fill="white" stroke="black" points="1088.5,-56.5 1088.5,-75.5 1204.5,-75.5 1204.5,-56.5 1088.5,-56.5"/>
<text text-anchor="middle" x="1146.5" y="-63.5" font-family="Helvetica,sans-Serif" font-size="10.00">support/cosmos&#45;defs.h</text>
</a>
</g>
</g>
<!-- Node1&#45;&gt;Node25 -->
<g id="edge24" class="edge"><title>Node1&#45;&gt;Node25</title>
<path fill="none" stroke="midnightblue" d="M816.502,-114.647C881.089,-105.321 1002.13,-87.8455 1078.29,-76.8482"/>
<polygon fill="midnightblue" stroke="midnightblue" points="1078.87,-80.3006 1088.27,-75.4075 1077.87,-73.3725 1078.87,-80.3006"/>
</g>
<!-- Node25&#45;&gt;Node17 -->
<g id="edge26" class="edge"><title>Node25&#45;&gt;Node17</title>
<path fill="none" stroke="midnightblue" d="M1117.03,-56.4435C1083,-46.5639 1027.23,-30.3734 992.26,-20.2208"/>
<polygon fill="midnightblue" stroke="midnightblue" points="993.133,-16.8296 982.553,-17.4026 991.181,-23.552 993.133,-16.8296"/>
</g>
<!-- Node25&#45;&gt;Node19 -->
<g id="edge30" class="edge"><title>Node25&#45;&gt;Node19</title>
<path fill="none" stroke="midnightblue" d="M1126.85,-56.4435C1106.54,-47.5961 1074.6,-33.6875 1051.4,-23.5865"/>
<polygon fill="midnightblue" stroke="midnightblue" points="1052.62,-20.3002 1042.06,-19.5164 1049.83,-26.7181 1052.62,-20.3002"/>
</g>
<!-- Node25&#45;&gt;Node20 -->
<g id="edge29" class="edge"><title>Node25&#45;&gt;Node20</title>
<path fill="none" stroke="midnightblue" d="M1136.54,-56.324C1127.37,-48.3414 1113.56,-36.3128 1102.47,-26.6529"/>
<polygon fill="midnightblue" stroke="midnightblue" points="1104.48,-23.7624 1094.64,-19.8339 1099.88,-29.041 1104.48,-23.7624"/>
</g>
<!-- Node25&#45;&gt;Node21 -->
<g id="edge31" class="edge"><title>Node25&#45;&gt;Node21</title>
<path fill="none" stroke="midnightblue" d="M1158.07,-56.324C1168.92,-48.1849 1185.38,-35.8395 1198.38,-26.0874"/>
<polygon fill="midnightblue" stroke="midnightblue" points="1200.82,-28.6339 1206.72,-19.8339 1196.62,-23.0339 1200.82,-28.6339"/>
</g>
<!-- Node25&#45;&gt;Node22 -->
<g id="edge28" class="edge"><title>Node25&#45;&gt;Node22</title>
<path fill="none" stroke="midnightblue" d="M1171.69,-56.4435C1199.54,-46.985 1244.43,-31.7421 1274.43,-21.551"/>
<polygon fill="midnightblue" stroke="midnightblue" points="1275.65,-24.8342 1283.99,-18.3042 1273.4,-18.206 1275.65,-24.8342"/>
</g>
<!-- Node25&#45;&gt;Node24 -->
<g id="edge25" class="edge"><title>Node25&#45;&gt;Node24</title>
<path fill="none" stroke="midnightblue" d="M1187.95,-56.4426C1224.54,-48.6094 1279.47,-36.1691 1335.27,-20.1564"/>
<polygon fill="midnightblue" stroke="midnightblue" points="1336.33,-23.4924 1344.95,-17.3417 1334.38,-16.7703 1336.33,-23.4924"/>
</g>
<!-- Node26 -->
<g id="node26" class="node"><title>Node26</title>
<polygon fill="white" stroke="#bfbfbf" points="1124,-0.5 1124,-19.5 1153,-19.5 1153,-0.5 1124,-0.5"/>
<text text-anchor="middle" x="1138.5" y="-7.5" font-family="Helvetica,sans-Serif" font-size="10.00">list</text>
</g>
<!-- Node25&#45;&gt;Node26 -->
<g id="edge27" class="edge"><title>Node25&#45;&gt;Node26</title>
<path fill="none" stroke="midnightblue" d="M1145.18,-56.083C1144.12,-48.9272 1142.59,-38.6353 1141.27,-29.6911"/>
<polygon fill="midnightblue" stroke="midnightblue" points="1144.72,-29.1302 1139.8,-19.7511 1137.8,-30.1561 1144.72,-29.1302"/>
</g>
</g>
</svg>
