<?xml version="1.0" encoding="UTF-8" standalone="no"?>
<!DOCTYPE svg PUBLIC "-//W3C//DTD SVG 1.1//EN"
 "http://www.w3.org/Graphics/SVG/1.1/DTD/svg11.dtd">
<!-- Generated by graphviz version 2.38.0 (20140413.2041)
 -->
<!-- Title: constants.cpp Pages: 1 -->
<svg width="1459pt" height="252pt"
 viewBox="0.00 0.00 1459.00 252.00" xmlns="http://www.w3.org/2000/svg" xmlns:xlink="http://www.w3.org/1999/xlink">
<g id="graph0" class="graph" transform="scale(1 1) rotate(0) translate(4 248)">
<title>constants.cpp</title>
<polygon fill="white" stroke="none" points="-4,4 -4,-248 1455,-248 1455,4 -4,4"/>
<!-- Node1 -->
<g id="node1" class="node"><title>Node1</title>
<polygon fill="#bfbfbf" stroke="black" points="501,-224.5 501,-243.5 579,-243.5 579,-224.5 501,-224.5"/>
<text text-anchor="middle" x="540" y="-231.5" font-family="Helvetica,sans-Serif" font-size="10.00">constants.cpp</text>
</g>
<!-- Node2 -->
<g id="node2" class="node"><title>Node2</title>
<g id="a_node2"><a xlink:href="physics_2constants_8h.html" target="_top" xlink:title="physics/constants.h">
<polygon fill="white" stroke="black" points="488,-168.5 488,-187.5 592,-187.5 592,-168.5 488,-168.5"/>
<text text-anchor="middle" x="540" y="-175.5" font-family="Helvetica,sans-Serif" font-size="10.00">physics/constants.h</text>
</a>
</g>
</g>
<!-- Node1&#45;&gt;Node2 -->
<g id="edge1" class="edge"><title>Node1&#45;&gt;Node2</title>
<path fill="none" stroke="midnightblue" d="M540,-224.083C540,-217.006 540,-206.861 540,-197.986"/>
<polygon fill="midnightblue" stroke="midnightblue" points="543.5,-197.751 540,-187.751 536.5,-197.751 543.5,-197.751"/>
</g>
<!-- Node3 -->
<g id="node3" class="node"><title>Node3</title>
<g id="a_node3"><a xlink:href="config_cosmos_8h.html" target="_top" xlink:title="Headers and definitions common to all COSMOS. ">
<polygon fill="white" stroke="black" points="681.5,-112.5 681.5,-131.5 804.5,-131.5 804.5,-112.5 681.5,-112.5"/>
<text text-anchor="middle" x="743" y="-119.5" font-family="Helvetica,sans-Serif" font-size="10.00">support/configCosmos.h</text>
</a>
</g>
</g>
<!-- Node2&#45;&gt;Node3 -->
<g id="edge2" class="edge"><title>Node2&#45;&gt;Node3</title>
<path fill="none" stroke="midnightblue" d="M572.166,-168.444C607.059,-159.162 662.893,-144.309 701.171,-134.127"/>
<polygon fill="midnightblue" stroke="midnightblue" points="702.22,-137.47 710.985,-131.516 700.421,-130.705 702.22,-137.47"/>
</g>
<!-- Node13 -->
<g id="node13" class="node"><title>Node13</title>
<polygon fill="white" stroke="#bfbfbf" points="0,-56.5 0,-75.5 44,-75.5 44,-56.5 0,-56.5"/>
<text text-anchor="middle" x="22" y="-63.5" font-family="Helvetica,sans-Serif" font-size="10.00">cmath</text>
</g>
<!-- Node2&#45;&gt;Node13 -->
<g id="edge34" class="edge"><title>Node2&#45;&gt;Node13</title>
<path fill="none" stroke="midnightblue" d="M492.711,-168.464C407.077,-152.73 220.53,-117.191 54.2092,-76.1569"/>
<polygon fill="midnightblue" stroke="midnightblue" points="54.8432,-72.7082 44.2947,-73.6982 53.1582,-79.5024 54.8432,-72.7082"/>
</g>
<!-- Node4 -->
<g id="node4" class="node"><title>Node4</title>
<polygon fill="white" stroke="#bfbfbf" points="1276.5,-56.5 1276.5,-75.5 1321.5,-75.5 1321.5,-56.5 1276.5,-56.5"/>
<text text-anchor="middle" x="1299" y="-63.5" font-family="Helvetica,sans-Serif" font-size="10.00">climits</text>
</g>
<!-- Node3&#45;&gt;Node4 -->
<g id="edge3" class="edge"><title>Node3&#45;&gt;Node4</title>
<path fill="none" stroke="midnightblue" d="M804.808,-119.458C901.447,-116.221 1094.19,-106.446 1266.39,-75.7381"/>
<polygon fill="midnightblue" stroke="midnightblue" points="1267.18,-79.1522 1276.4,-73.9259 1265.93,-72.2643 1267.18,-79.1522"/>
</g>
<!-- Node5 -->
<g id="node5" class="node"><title>Node5</title>
<polygon fill="white" stroke="#bfbfbf" points="1339.5,-56.5 1339.5,-75.5 1386.5,-75.5 1386.5,-56.5 1339.5,-56.5"/>
<text text-anchor="middle" x="1363" y="-63.5" font-family="Helvetica,sans-Serif" font-size="10.00">csignal</text>
</g>
<!-- Node3&#45;&gt;Node5 -->
<g id="edge4" class="edge"><title>Node3&#45;&gt;Node5</title>
<path fill="none" stroke="midnightblue" d="M804.874,-120.275C910.805,-118.158 1133.66,-109.89 1329.46,-75.9535"/>
<polygon fill="midnightblue" stroke="midnightblue" points="1330.11,-79.3929 1339.36,-74.2128 1328.9,-72.4988 1330.11,-79.3929"/>
</g>
<!-- Node6 -->
<g id="node6" class="node"><title>Node6</title>
<polygon fill="white" stroke="#bfbfbf" points="1405,-56.5 1405,-75.5 1451,-75.5 1451,-56.5 1405,-56.5"/>
<text text-anchor="middle" x="1428" y="-63.5" font-family="Helvetica,sans-Serif" font-size="10.00">cstdint</text>
</g>
<!-- Node3&#45;&gt;Node6 -->
<g id="edge5" class="edge"><title>Node3&#45;&gt;Node6</title>
<path fill="none" stroke="midnightblue" d="M804.722,-120.95C919.433,-119.944 1173.18,-113.434 1394.53,-75.9003"/>
<polygon fill="midnightblue" stroke="midnightblue" points="1395.45,-79.2933 1404.71,-74.1476 1394.26,-72.3948 1395.45,-79.2933"/>
</g>
<!-- Node7 -->
<g id="node7" class="node"><title>Node7</title>
<polygon fill="white" stroke="#bfbfbf" points="62,-56.5 62,-75.5 118,-75.5 118,-56.5 62,-56.5"/>
<text text-anchor="middle" x="90" y="-63.5" font-family="Helvetica,sans-Serif" font-size="10.00">cinttypes</text>
</g>
<!-- Node3&#45;&gt;Node7 -->
<g id="edge6" class="edge"><title>Node3&#45;&gt;Node7</title>
<path fill="none" stroke="midnightblue" d="M681.414,-119.872C571.892,-117.13 336.029,-107.911 128.364,-75.9538"/>
<polygon fill="midnightblue" stroke="midnightblue" points="128.605,-72.4491 118.185,-74.3654 127.525,-79.3654 128.605,-72.4491"/>
</g>
<!-- Node8 -->
<g id="node8" class="node"><title>Node8</title>
<polygon fill="white" stroke="#bfbfbf" points="136.5,-56.5 136.5,-75.5 179.5,-75.5 179.5,-56.5 136.5,-56.5"/>
<text text-anchor="middle" x="158" y="-63.5" font-family="Helvetica,sans-Serif" font-size="10.00">cstdio</text>
</g>
<!-- Node3&#45;&gt;Node8 -->
<g id="edge7" class="edge"><title>Node3&#45;&gt;Node8</title>
<path fill="none" stroke="midnightblue" d="M681.255,-120.221C580.048,-118.021 372.606,-109.639 189.883,-76.0085"/>
<polygon fill="midnightblue" stroke="midnightblue" points="190.297,-72.5252 179.824,-74.1265 189.009,-79.4058 190.297,-72.5252"/>
</g>
<!-- Node9 -->
<g id="node9" class="node"><title>Node9</title>
<polygon fill="white" stroke="#bfbfbf" points="197.5,-56.5 197.5,-75.5 246.5,-75.5 246.5,-56.5 197.5,-56.5"/>
<text text-anchor="middle" x="222" y="-63.5" font-family="Helvetica,sans-Serif" font-size="10.00">cstddef</text>
</g>
<!-- Node3&#45;&gt;Node9 -->
<g id="edge8" class="edge"><title>Node3&#45;&gt;Node9</title>
<path fill="none" stroke="midnightblue" d="M681.291,-118.757C590.147,-114.686 414.151,-103.926 256.629,-76.0254"/>
<polygon fill="midnightblue" stroke="midnightblue" points="257.222,-72.5759 246.76,-74.2503 255.983,-79.4653 257.222,-72.5759"/>
</g>
<!-- Node10 -->
<g id="node10" class="node"><title>Node10</title>
<polygon fill="white" stroke="#bfbfbf" points="264.5,-56.5 264.5,-75.5 309.5,-75.5 309.5,-56.5 264.5,-56.5"/>
<text text-anchor="middle" x="287" y="-63.5" font-family="Helvetica,sans-Serif" font-size="10.00">cstdlib</text>
</g>
<!-- Node3&#45;&gt;Node10 -->
<g id="edge9" class="edge"><title>Node3&#45;&gt;Node10</title>
<path fill="none" stroke="midnightblue" d="M681.435,-117.726C600.527,-112.701 453.954,-101.113 319.67,-75.7952"/>
<polygon fill="midnightblue" stroke="midnightblue" points="320.093,-72.3126 309.613,-73.8685 318.776,-79.1876 320.093,-72.3126"/>
</g>
<!-- Node11 -->
<g id="node11" class="node"><title>Node11</title>
<polygon fill="white" stroke="#bfbfbf" points="328,-56.5 328,-75.5 372,-75.5 372,-56.5 328,-56.5"/>
<text text-anchor="middle" x="350" y="-63.5" font-family="Helvetica,sans-Serif" font-size="10.00">cerrno</text>
</g>
<!-- Node3&#45;&gt;Node11 -->
<g id="edge10" class="edge"><title>Node3&#45;&gt;Node11</title>
<path fill="none" stroke="midnightblue" d="M681.346,-116.339C611.033,-110.354 492.559,-98.2316 382.212,-75.9612"/>
<polygon fill="midnightblue" stroke="midnightblue" points="382.744,-72.4976 372.245,-73.917 381.338,-79.3548 382.744,-72.4976"/>
</g>
<!-- Node12 -->
<g id="node12" class="node"><title>Node12</title>
<polygon fill="white" stroke="#bfbfbf" points="390,-56.5 390,-75.5 436,-75.5 436,-56.5 390,-56.5"/>
<text text-anchor="middle" x="413" y="-63.5" font-family="Helvetica,sans-Serif" font-size="10.00">cstring</text>
</g>
<!-- Node3&#45;&gt;Node12 -->
<g id="edge11" class="edge"><title>Node3&#45;&gt;Node12</title>
<path fill="none" stroke="midnightblue" d="M681.48,-113.793C623.334,-106.503 533.523,-94.0115 446.166,-75.801"/>
<polygon fill="midnightblue" stroke="midnightblue" points="446.862,-72.3707 436.354,-73.7289 445.415,-79.2196 446.862,-72.3707"/>
</g>
<!-- Node3&#45;&gt;Node13 -->
<g id="edge12" class="edge"><title>Node3&#45;&gt;Node13</title>
<path fill="none" stroke="midnightblue" d="M681.081,-121.448C561.362,-121.343 289.913,-116.374 54.3427,-75.8451"/>
<polygon fill="midnightblue" stroke="midnightblue" points="54.6676,-72.349 44.2146,-74.0766 53.4634,-79.2446 54.6676,-72.349"/>
</g>
<!-- Node14 -->
<g id="node14" class="node"><title>Node14</title>
<polygon fill="white" stroke="#bfbfbf" points="454.5,-56.5 454.5,-75.5 499.5,-75.5 499.5,-56.5 454.5,-56.5"/>
<text text-anchor="middle" x="477" y="-63.5" font-family="Helvetica,sans-Serif" font-size="10.00">iosfwd</text>
</g>
<!-- Node3&#45;&gt;Node14 -->
<g id="edge13" class="edge"><title>Node3&#45;&gt;Node14</title>
<path fill="none" stroke="midnightblue" d="M692.07,-112.48C646.722,-104.607 578.382,-92.043 509.784,-76.0181"/>
<polygon fill="midnightblue" stroke="midnightblue" points="510.201,-72.5202 499.664,-73.6288 508.592,-79.3329 510.201,-72.5202"/>
</g>
<!-- Node15 -->
<g id="node15" class="node"><title>Node15</title>
<polygon fill="white" stroke="#bfbfbf" points="518,-56.5 518,-75.5 572,-75.5 572,-56.5 518,-56.5"/>
<text text-anchor="middle" x="545" y="-63.5" font-family="Helvetica,sans-Serif" font-size="10.00">iostream</text>
</g>
<!-- Node3&#45;&gt;Node15 -->
<g id="edge14" class="edge"><title>Node3&#45;&gt;Node15</title>
<path fill="none" stroke="midnightblue" d="M711.626,-112.444C676.442,-102.848 619.427,-87.2984 582.071,-77.1104"/>
<polygon fill="midnightblue" stroke="midnightblue" points="582.659,-73.643 572.091,-74.3884 580.818,-80.3963 582.659,-73.643"/>
</g>
<!-- Node16 -->
<g id="node16" class="node"><title>Node16</title>
<polygon fill="white" stroke="#bfbfbf" points="590.5,-56.5 590.5,-75.5 641.5,-75.5 641.5,-56.5 590.5,-56.5"/>
<text text-anchor="middle" x="616" y="-63.5" font-family="Helvetica,sans-Serif" font-size="10.00">unistd.h</text>
</g>
<!-- Node3&#45;&gt;Node16 -->
<g id="edge15" class="edge"><title>Node3&#45;&gt;Node16</title>
<path fill="none" stroke="midnightblue" d="M722.876,-112.444C701.976,-103.557 669.065,-89.5632 645.284,-79.4514"/>
<polygon fill="midnightblue" stroke="midnightblue" points="646.602,-76.2085 636.029,-75.5164 643.862,-82.6504 646.602,-76.2085"/>
</g>
<!-- Node17 -->
<g id="node17" class="node"><title>Node17</title>
<polygon fill="white" stroke="#bfbfbf" points="660,-56.5 660,-75.5 704,-75.5 704,-56.5 660,-56.5"/>
<text text-anchor="middle" x="682" y="-63.5" font-family="Helvetica,sans-Serif" font-size="10.00">fcntl.h</text>
</g>
<!-- Node3&#45;&gt;Node17 -->
<g id="edge16" class="edge"><title>Node3&#45;&gt;Node17</title>
<path fill="none" stroke="midnightblue" d="M733.199,-112.324C724.182,-104.341 710.594,-92.3128 699.682,-82.6529"/>
<polygon fill="midnightblue" stroke="midnightblue" points="701.787,-79.8416 691.979,-75.8339 697.147,-85.083 701.787,-79.8416"/>
</g>
<!-- Node18 -->
<g id="node18" class="node"><title>Node18</title>
<polygon fill="white" stroke="#bfbfbf" points="722.5,-56.5 722.5,-75.5 763.5,-75.5 763.5,-56.5 722.5,-56.5"/>
<text text-anchor="middle" x="743" y="-63.5" font-family="Helvetica,sans-Serif" font-size="10.00">string</text>
</g>
<!-- Node3&#45;&gt;Node18 -->
<g id="edge17" class="edge"><title>Node3&#45;&gt;Node18</title>
<path fill="none" stroke="midnightblue" d="M743,-112.083C743,-105.006 743,-94.8611 743,-85.9865"/>
<polygon fill="midnightblue" stroke="midnightblue" points="746.5,-85.751 743,-75.7511 739.5,-85.7511 746.5,-85.751"/>
</g>
<!-- Node19 -->
<g id="node19" class="node"><title>Node19</title>
<polygon fill="white" stroke="#bfbfbf" points="746,-0.5 746,-19.5 790,-19.5 790,-0.5 746,-0.5"/>
<text text-anchor="middle" x="768" y="-7.5" font-family="Helvetica,sans-Serif" font-size="10.00">vector</text>
</g>
<!-- Node3&#45;&gt;Node19 -->
<g id="edge18" class="edge"><title>Node3&#45;&gt;Node19</title>
<path fill="none" stroke="midnightblue" d="M751.214,-112.182C758.544,-103.663 768.755,-90.0191 773,-76 777.612,-60.7669 775.649,-42.6557 772.942,-29.425"/>
<polygon fill="midnightblue" stroke="midnightblue" points="776.332,-28.5533 770.621,-19.6294 769.521,-30.1669 776.332,-28.5533"/>
</g>
<!-- Node20 -->
<g id="node20" class="node"><title>Node20</title>
<polygon fill="white" stroke="#bfbfbf" points="1144.5,-56.5 1144.5,-75.5 1187.5,-75.5 1187.5,-56.5 1144.5,-56.5"/>
<text text-anchor="middle" x="1166" y="-63.5" font-family="Helvetica,sans-Serif" font-size="10.00">deque</text>
</g>
<!-- Node3&#45;&gt;Node20 -->
<g id="edge19" class="edge"><title>Node3&#45;&gt;Node20</title>
<path fill="none" stroke="midnightblue" d="M804.692,-116.302C881.372,-109.895 1016.05,-96.7797 1130,-76 1131.47,-75.7327 1132.96,-75.4403 1134.47,-75.1295"/>
<polygon fill="midnightblue" stroke="midnightblue" points="1135.42,-78.5032 1144.4,-72.8819 1133.87,-71.6759 1135.42,-78.5032"/>
</g>
<!-- Node21 -->
<g id="node21" class="node"><title>Node21</title>
<polygon fill="white" stroke="#bfbfbf" points="808,-0.5 808,-19.5 852,-19.5 852,-0.5 808,-0.5"/>
<text text-anchor="middle" x="830" y="-7.5" font-family="Helvetica,sans-Serif" font-size="10.00">mutex</text>
</g>
<!-- Node3&#45;&gt;Node21 -->
<g id="edge20" class="edge"><title>Node3&#45;&gt;Node21</title>
<path fill="none" stroke="midnightblue" d="M752.912,-112.235C762.459,-103.538 777.03,-89.579 788,-76 800.23,-60.8623 812.066,-42.0462 820.038,-28.5601"/>
<polygon fill="midnightblue" stroke="midnightblue" points="823.123,-30.2175 825.111,-19.8109 817.067,-26.7062 823.123,-30.2175"/>
</g>
<!-- Node22 -->
<g id="node22" class="node"><title>Node22</title>
<polygon fill="white" stroke="#bfbfbf" points="870,-0.5 870,-19.5 914,-19.5 914,-0.5 870,-0.5"/>
<text text-anchor="middle" x="892" y="-7.5" font-family="Helvetica,sans-Serif" font-size="10.00">thread</text>
</g>
<!-- Node3&#45;&gt;Node22 -->
<g id="edge21" class="edge"><title>Node3&#45;&gt;Node22</title>
<path fill="none" stroke="midnightblue" d="M756.092,-112.235C769.321,-103.309 790.282,-88.9742 808,-76 830.804,-59.3013 856.415,-39.2964 873.296,-25.9312"/>
<polygon fill="midnightblue" stroke="midnightblue" points="875.613,-28.5604 881.266,-19.6 871.259,-23.0791 875.613,-28.5604"/>
</g>
<!-- Node23 -->
<g id="node23" class="node"><title>Node23</title>
<polygon fill="white" stroke="#bfbfbf" points="978.5,-0.5 978.5,-19.5 1073.5,-19.5 1073.5,-0.5 978.5,-0.5"/>
<text text-anchor="middle" x="1026" y="-7.5" font-family="Helvetica,sans-Serif" font-size="10.00">condition_variable</text>
</g>
<!-- Node3&#45;&gt;Node23 -->
<g id="edge22" class="edge"><title>Node3&#45;&gt;Node23</title>
<path fill="none" stroke="midnightblue" d="M804.595,-119.615C877.5,-116.568 992.621,-106.86 1021,-76 1032.23,-63.7848 1032.24,-44.2391 1030.19,-29.7673"/>
<polygon fill="midnightblue" stroke="midnightblue" points="1033.63,-29.0988 1028.38,-19.895 1026.74,-30.3626 1033.63,-29.0988"/>
</g>
<!-- Node24 -->
<g id="node24" class="node"><title>Node24</title>
<polygon fill="white" stroke="#bfbfbf" points="1091.5,-0.5 1091.5,-19.5 1134.5,-19.5 1134.5,-0.5 1091.5,-0.5"/>
<text text-anchor="middle" x="1113" y="-7.5" font-family="Helvetica,sans-Serif" font-size="10.00">queue</text>
</g>
<!-- Node3&#45;&gt;Node24 -->
<g id="edge23" class="edge"><title>Node3&#45;&gt;Node24</title>
<path fill="none" stroke="midnightblue" d="M804.559,-121.581C866.528,-119.937 963.489,-111.163 1039,-76 1063.33,-64.6716 1085.64,-42.8047 1099.26,-27.5777"/>
<polygon fill="midnightblue" stroke="midnightblue" points="1102,-29.7631 1105.89,-19.9104 1096.71,-25.1834 1102,-29.7631"/>
</g>
<!-- Node25 -->
<g id="node25" class="node"><title>Node25</title>
<polygon fill="white" stroke="#bfbfbf" points="1206,-56.5 1206,-75.5 1258,-75.5 1258,-56.5 1206,-56.5"/>
<text text-anchor="middle" x="1232" y="-63.5" font-family="Helvetica,sans-Serif" font-size="10.00">sstream</text>
</g>
<!-- Node3&#45;&gt;Node25 -->
<g id="edge24" class="edge"><title>Node3&#45;&gt;Node25</title>
<path fill="none" stroke="midnightblue" d="M804.724,-117.88C890.477,-112.883 1050.58,-101.158 1195.74,-75.9742"/>
<polygon fill="midnightblue" stroke="midnightblue" points="1196.48,-79.3979 1205.72,-74.2169 1195.27,-72.5039 1196.48,-79.3979"/>
</g>
<!-- Node26 -->
<g id="node26" class="node"><title>Node26</title>
<polygon fill="white" stroke="#bfbfbf" points="1152.5,-0.5 1152.5,-19.5 1187.5,-19.5 1187.5,-0.5 1152.5,-0.5"/>
<text text-anchor="middle" x="1170" y="-7.5" font-family="Helvetica,sans-Serif" font-size="10.00">map</text>
</g>
<!-- Node3&#45;&gt;Node26 -->
<g id="edge25" class="edge"><title>Node3&#45;&gt;Node26</title>
<path fill="none" stroke="midnightblue" d="M804.567,-120.132C871.159,-117.452 979.526,-107.978 1067,-76 1099.2,-64.2268 1131.94,-41.287 1151.61,-26.0519"/>
<polygon fill="midnightblue" stroke="midnightblue" points="1154.01,-28.6138 1159.68,-19.6619 1149.67,-23.1259 1154.01,-28.6138"/>
</g>
<!-- Node27 -->
<g id="node27" class="node"><title>Node27</title>
<g id="a_node27"><a xlink:href="cosmos-defs_8h.html" target="_top" xlink:title="COSMOS definitions Definitions specific to the COSMOS environement. ">
<polygon fill="white" stroke="black" points="896,-56.5 896,-75.5 1012,-75.5 1012,-56.5 896,-56.5"/>
<text text-anchor="middle" x="954" y="-63.5" font-family="Helvetica,sans-Serif" font-size="10.00">support/cosmos&#45;defs.h</text>
</a>
</g>
</g>
<!-- Node3&#45;&gt;Node27 -->
<g id="edge26" class="edge"><title>Node3&#45;&gt;Node27</title>
<path fill="none" stroke="midnightblue" d="M776.434,-112.444C812.856,-103.122 871.23,-88.1828 911.029,-77.9972"/>
<polygon fill="midnightblue" stroke="midnightblue" points="911.903,-81.3866 920.723,-75.5164 910.167,-74.6051 911.903,-81.3866"/>
</g>
<!-- Node27&#45;&gt;Node19 -->
<g id="edge28" class="edge"><title>Node27&#45;&gt;Node19</title>
<path fill="none" stroke="midnightblue" d="M924.528,-56.4435C890.498,-46.5639 834.731,-30.3734 799.76,-20.2208"/>
<polygon fill="midnightblue" stroke="midnightblue" points="800.633,-16.8296 790.053,-17.4026 798.681,-23.552 800.633,-16.8296"/>
</g>
<!-- Node27&#45;&gt;Node21 -->
<g id="edge32" class="edge"><title>Node27&#45;&gt;Node21</title>
<path fill="none" stroke="midnightblue" d="M934.352,-56.4435C914.035,-47.5961 882.097,-33.6875 858.902,-23.5865"/>
<polygon fill="midnightblue" stroke="midnightblue" points="860.122,-20.3002 849.556,-19.5164 857.327,-26.7181 860.122,-20.3002"/>
</g>
<!-- Node27&#45;&gt;Node22 -->
<g id="edge31" class="edge"><title>Node27&#45;&gt;Node22</title>
<path fill="none" stroke="midnightblue" d="M944.039,-56.324C934.873,-48.3414 921.063,-36.3128 909.972,-26.6529"/>
<polygon fill="midnightblue" stroke="midnightblue" points="911.982,-23.7624 902.143,-19.8339 907.385,-29.041 911.982,-23.7624"/>
</g>
<!-- Node27&#45;&gt;Node23 -->
<g id="edge33" class="edge"><title>Node27&#45;&gt;Node23</title>
<path fill="none" stroke="midnightblue" d="M965.568,-56.324C976.42,-48.1849 992.881,-35.8395 1005.88,-26.0874"/>
<polygon fill="midnightblue" stroke="midnightblue" points="1008.32,-28.6339 1014.22,-19.8339 1004.12,-23.0339 1008.32,-28.6339"/>
</g>
<!-- Node27&#45;&gt;Node24 -->
<g id="edge30" class="edge"><title>Node27&#45;&gt;Node24</title>
<path fill="none" stroke="midnightblue" d="M979.194,-56.4435C1007.04,-46.985 1051.93,-31.7421 1081.93,-21.551"/>
<polygon fill="midnightblue" stroke="midnightblue" points="1083.15,-24.8342 1091.49,-18.3042 1080.9,-18.206 1083.15,-24.8342"/>
</g>
<!-- Node27&#45;&gt;Node26 -->
<g id="edge27" class="edge"><title>Node27&#45;&gt;Node26</title>
<path fill="none" stroke="midnightblue" d="M995.453,-56.4426C1032.04,-48.6094 1086.97,-36.1691 1142.77,-20.1564"/>
<polygon fill="midnightblue" stroke="midnightblue" points="1143.83,-23.4924 1152.45,-17.3417 1141.88,-16.7703 1143.83,-23.4924"/>
</g>
<!-- Node28 -->
<g id="node28" class="node"><title>Node28</title>
<polygon fill="white" stroke="#bfbfbf" points="931.5,-0.5 931.5,-19.5 960.5,-19.5 960.5,-0.5 931.5,-0.5"/>
<text text-anchor="middle" x="946" y="-7.5" font-family="Helvetica,sans-Serif" font-size="10.00">list</text>
</g>
<!-- Node27&#45;&gt;Node28 -->
<g id="edge29" class="edge"><title>Node27&#45;&gt;Node28</title>
<path fill="none" stroke="midnightblue" d="M952.679,-56.083C951.619,-48.9272 950.094,-38.6353 948.769,-29.6911"/>
<polygon fill="midnightblue" stroke="midnightblue" points="952.224,-29.1302 947.296,-19.7511 945.3,-30.1561 952.224,-29.1302"/>
</g>
</g>
</svg>
