<?xml version="1.0" encoding="UTF-8" standalone="no"?>
<!DOCTYPE svg PUBLIC "-//W3C//DTD SVG 1.1//EN"
 "http://www.w3.org/Graphics/SVG/1.1/DTD/svg11.dtd">
<!-- Generated by graphviz version 2.38.0 (20140413.2041)
 -->
<!-- Title: convertlib.h Pages: 1 -->
<svg width="2762pt" height="196pt"
 viewBox="0.00 0.00 2762.00 196.00" xmlns="http://www.w3.org/2000/svg" xmlns:xlink="http://www.w3.org/1999/xlink">
<g id="graph0" class="graph" transform="scale(1 1) rotate(0) translate(4 192)">
<title>convertlib.h</title>
<polygon fill="white" stroke="none" points="-4,4 -4,-192 2758,-192 2758,4 -4,4"/>
<!-- Node1 -->
<g id="node1" class="node"><title>Node1</title>
<polygon fill="#bfbfbf" stroke="black" points="1973.5,-168.5 1973.5,-187.5 2040.5,-187.5 2040.5,-168.5 1973.5,-168.5"/>
<text text-anchor="middle" x="2007" y="-175.5" font-family="Helvetica,sans-Serif" font-size="10.00">convertlib.h</text>
</g>
<!-- Node2 -->
<g id="node2" class="node"><title>Node2</title>
<g id="a_node2"><a xlink:href="att__test_8cpp.html" target="_top" xlink:title="att_test.cpp">
<polygon fill="white" stroke="black" points="830,-112.5 830,-131.5 898,-131.5 898,-112.5 830,-112.5"/>
<text text-anchor="middle" x="864" y="-119.5" font-family="Helvetica,sans-Serif" font-size="10.00">att_test.cpp</text>
</a>
</g>
</g>
<!-- Node1&#45;&gt;Node2 -->
<g id="edge1" class="edge"><title>Node1&#45;&gt;Node2</title>
<path fill="none" stroke="midnightblue" d="M1963.22,-176.177C1785.41,-172.685 1116.8,-158.065 907,-132 904.124,-131.643 901.154,-131.193 898.182,-130.687"/>
<polygon fill="midnightblue" stroke="midnightblue" points="1963.19,-179.677 1973.25,-176.373 1963.32,-172.678 1963.19,-179.677"/>
</g>
<!-- Node3 -->
<g id="node3" class="node"><title>Node3</title>
<g id="a_node3"><a xlink:href="convert__test_8cpp.html" target="_top" xlink:title="convert_test.cpp">
<polygon fill="white" stroke="black" points="916.5,-112.5 916.5,-131.5 1005.5,-131.5 1005.5,-112.5 916.5,-112.5"/>
<text text-anchor="middle" x="961" y="-119.5" font-family="Helvetica,sans-Serif" font-size="10.00">convert_test.cpp</text>
</a>
</g>
</g>
<!-- Node1&#45;&gt;Node3 -->
<g id="edge2" class="edge"><title>Node1&#45;&gt;Node3</title>
<path fill="none" stroke="midnightblue" d="M1963.2,-176.932C1824.01,-176.307 1379.41,-171.155 1014,-132 1011.31,-131.712 1008.55,-131.373 1005.77,-130.999"/>
<polygon fill="midnightblue" stroke="midnightblue" points="1963.44,-180.433 1973.46,-176.972 1963.47,-173.433 1963.44,-180.433"/>
</g>
<!-- Node4 -->
<g id="node4" class="node"><title>Node4</title>
<g id="a_node4"><a xlink:href="jpl__test_8cpp.html" target="_top" xlink:title="jpl_test.cpp">
<polygon fill="white" stroke="black" points="1023.5,-112.5 1023.5,-131.5 1090.5,-131.5 1090.5,-112.5 1023.5,-112.5"/>
<text text-anchor="middle" x="1057" y="-119.5" font-family="Helvetica,sans-Serif" font-size="10.00">jpl_test.cpp</text>
</a>
</g>
</g>
<!-- Node1&#45;&gt;Node4 -->
<g id="edge3" class="edge"><title>Node1&#45;&gt;Node4</title>
<path fill="none" stroke="midnightblue" d="M1963.43,-177.252C1832.29,-177.494 1430,-174.454 1100,-132 1096.97,-131.611 1093.84,-131.123 1090.72,-130.578"/>
<polygon fill="midnightblue" stroke="midnightblue" points="1963.49,-180.752 1973.48,-177.226 1963.47,-173.752 1963.49,-180.752"/>
</g>
<!-- Node5 -->
<g id="node5" class="node"><title>Node5</title>
<g id="a_node5"><a xlink:href="physicslib_8h.html" target="_top" xlink:title="Orbit library include file. ">
<polygon fill="white" stroke="black" points="1109,-112.5 1109,-131.5 1177,-131.5 1177,-112.5 1109,-112.5"/>
<text text-anchor="middle" x="1143" y="-119.5" font-family="Helvetica,sans-Serif" font-size="10.00">physicslib.h</text>
</a>
</g>
</g>
<!-- Node1&#45;&gt;Node5 -->
<g id="edge4" class="edge"><title>Node1&#45;&gt;Node5</title>
<path fill="none" stroke="midnightblue" d="M1963.1,-174.256C1811.59,-164.787 1312.52,-133.595 1177.14,-125.134"/>
<polygon fill="midnightblue" stroke="midnightblue" points="1963.2,-177.769 1973.4,-174.9 1963.63,-170.783 1963.2,-177.769"/>
</g>
<!-- Node19 -->
<g id="node19" class="node"><title>Node19</title>
<g id="a_node19"><a xlink:href="fast__contacts_8cpp.html" target="_top" xlink:title="fast_contacts.cpp">
<polygon fill="white" stroke="black" points="1700.5,-56.5 1700.5,-75.5 1795.5,-75.5 1795.5,-56.5 1700.5,-56.5"/>
<text text-anchor="middle" x="1748" y="-63.5" font-family="Helvetica,sans-Serif" font-size="10.00">fast_contacts.cpp</text>
</a>
</g>
</g>
<!-- Node1&#45;&gt;Node19 -->
<g id="edge38" class="edge"><title>Node1&#45;&gt;Node19</title>
<path fill="none" stroke="midnightblue" d="M1963.25,-168.034C1931.08,-160.594 1886.74,-148.551 1850,-132 1814.58,-116.044 1777.09,-89.2046 1759.01,-75.5441"/>
<polygon fill="midnightblue" stroke="midnightblue" points="1962.72,-171.502 1973.24,-170.287 1964.26,-164.673 1962.72,-171.502"/>
</g>
<!-- Node21 -->
<g id="node21" class="node"><title>Node21</title>
<g id="a_node21"><a xlink:href="get__contacts_8cpp.html" target="_top" xlink:title="get_contacts.cpp">
<polygon fill="white" stroke="black" points="1814,-56.5 1814,-75.5 1906,-75.5 1906,-56.5 1814,-56.5"/>
<text text-anchor="middle" x="1860" y="-63.5" font-family="Helvetica,sans-Serif" font-size="10.00">get_contacts.cpp</text>
</a>
</g>
</g>
<!-- Node1&#45;&gt;Node21 -->
<g id="edge39" class="edge"><title>Node1&#45;&gt;Node21</title>
<path fill="none" stroke="midnightblue" d="M1963.35,-176.48C1929.5,-173.497 1884.51,-163.342 1861,-132 1848.54,-115.388 1853.47,-89.0767 1857.24,-75.5906"/>
<polygon fill="midnightblue" stroke="midnightblue" points="1963.25,-179.981 1973.47,-177.191 1963.74,-172.998 1963.25,-179.981"/>
</g>
<!-- Node24 -->
<g id="node24" class="node"><title>Node24</title>
<g id="a_node24"><a xlink:href="testcontainer_8h.html" target="_top" xlink:title="testcontainer.h">
<polygon fill="white" stroke="black" points="1869.5,-112.5 1869.5,-131.5 1950.5,-131.5 1950.5,-112.5 1869.5,-112.5"/>
<text text-anchor="middle" x="1910" y="-119.5" font-family="Helvetica,sans-Serif" font-size="10.00">testcontainer.h</text>
</a>
</g>
</g>
<!-- Node1&#45;&gt;Node24 -->
<g id="edge23" class="edge"><title>Node1&#45;&gt;Node24</title>
<path fill="none" stroke="midnightblue" d="M1982.66,-163.453C1964.76,-153.483 1940.95,-140.228 1925.55,-131.655"/>
<polygon fill="midnightblue" stroke="midnightblue" points="1980.98,-166.518 1991.42,-168.324 1984.38,-160.402 1980.98,-166.518"/>
</g>
<!-- Node31 -->
<g id="node31" class="node"><title>Node31</title>
<g id="a_node31"><a xlink:href="convertlib_8cpp.html" target="_top" xlink:title="Coordinate conversion library source file. ">
<polygon fill="white" stroke="black" points="1968.5,-112.5 1968.5,-131.5 2045.5,-131.5 2045.5,-112.5 1968.5,-112.5"/>
<text text-anchor="middle" x="2007" y="-119.5" font-family="Helvetica,sans-Serif" font-size="10.00">convertlib.cpp</text>
</a>
</g>
</g>
<!-- Node1&#45;&gt;Node31 -->
<g id="edge32" class="edge"><title>Node1&#45;&gt;Node31</title>
<path fill="none" stroke="midnightblue" d="M2007,-157.805C2007,-148.91 2007,-138.78 2007,-131.751"/>
<polygon fill="midnightblue" stroke="midnightblue" points="2003.5,-158.083 2007,-168.083 2010.5,-158.083 2003.5,-158.083"/>
</g>
<!-- Node32 -->
<g id="node32" class="node"><title>Node32</title>
<g id="a_node32"><a xlink:href="jsonlib_8cpp.html" target="_top" xlink:title="JSON support source file. ">
<polygon fill="white" stroke="black" points="2063.5,-112.5 2063.5,-131.5 2126.5,-131.5 2126.5,-112.5 2063.5,-112.5"/>
<text text-anchor="middle" x="2095" y="-119.5" font-family="Helvetica,sans-Serif" font-size="10.00">jsonlib.cpp</text>
</a>
</g>
</g>
<!-- Node1&#45;&gt;Node32 -->
<g id="edge33" class="edge"><title>Node1&#45;&gt;Node32</title>
<path fill="none" stroke="midnightblue" d="M2029.98,-162.901C2046.11,-152.999 2067.18,-140.071 2080.9,-131.655"/>
<polygon fill="midnightblue" stroke="midnightblue" points="2027.83,-160.111 2021.14,-168.324 2031.49,-166.077 2027.83,-160.111"/>
</g>
<!-- Node33 -->
<g id="node33" class="node"><title>Node33</title>
<g id="a_node33"><a xlink:href="agent__exec_8cpp.html" target="_top" xlink:title="Executive Agent source file. ">
<polygon fill="white" stroke="black" points="2145,-112.5 2145,-131.5 2231,-131.5 2231,-112.5 2145,-112.5"/>
<text text-anchor="middle" x="2188" y="-119.5" font-family="Helvetica,sans-Serif" font-size="10.00">agent_exec.cpp</text>
</a>
</g>
</g>
<!-- Node1&#45;&gt;Node33 -->
<g id="edge34" class="edge"><title>Node1&#45;&gt;Node33</title>
<path fill="none" stroke="midnightblue" d="M2045.32,-165.568C2079.46,-155.381 2128.66,-140.703 2159.45,-131.516"/>
<polygon fill="midnightblue" stroke="midnightblue" points="2044.26,-162.231 2035.68,-168.444 2046.26,-168.938 2044.26,-162.231"/>
</g>
<!-- Node34 -->
<g id="node34" class="node"><title>Node34</title>
<g id="a_node34"><a xlink:href="agent__monitor_8cpp.html" target="_top" xlink:title="agent_monitor.cpp">
<polygon fill="white" stroke="black" points="2249.5,-112.5 2249.5,-131.5 2346.5,-131.5 2346.5,-112.5 2249.5,-112.5"/>
<text text-anchor="middle" x="2298" y="-119.5" font-family="Helvetica,sans-Serif" font-size="10.00">agent_monitor.cpp</text>
</a>
</g>
</g>
<!-- Node1&#45;&gt;Node34 -->
<g id="edge35" class="edge"><title>Node1&#45;&gt;Node34</title>
<path fill="none" stroke="midnightblue" d="M2050.65,-168.901C2104.81,-158.85 2196.75,-141.789 2251.99,-131.539"/>
<polygon fill="midnightblue" stroke="midnightblue" points="2049.86,-165.487 2040.67,-170.753 2051.14,-172.369 2049.86,-165.487"/>
</g>
<!-- Node35 -->
<g id="node35" class="node"><title>Node35</title>
<g id="a_node35"><a xlink:href="agent__time_8cpp.html" target="_top" xlink:title="agent_time.cpp">
<polygon fill="white" stroke="black" points="2364.5,-112.5 2364.5,-131.5 2447.5,-131.5 2447.5,-112.5 2364.5,-112.5"/>
<text text-anchor="middle" x="2406" y="-119.5" font-family="Helvetica,sans-Serif" font-size="10.00">agent_time.cpp</text>
</a>
</g>
</g>
<!-- Node1&#45;&gt;Node35 -->
<g id="edge36" class="edge"><title>Node1&#45;&gt;Node35</title>
<path fill="none" stroke="midnightblue" d="M2050.84,-172.058C2117.08,-164.432 2246.54,-148.898 2356,-132 2358.7,-131.583 2361.48,-131.135 2364.28,-130.669"/>
<polygon fill="midnightblue" stroke="midnightblue" points="2050.31,-168.597 2040.77,-173.213 2051.1,-175.551 2050.31,-168.597"/>
</g>
<!-- Node36 -->
<g id="node36" class="node"><title>Node36</title>
<g id="a_node36"><a xlink:href="agent__antenna_8cpp.html" target="_top" xlink:title="Agent Antenna for Satellite Ground Station. ">
<polygon fill="white" stroke="black" points="2465.5,-112.5 2465.5,-131.5 2564.5,-131.5 2564.5,-112.5 2465.5,-112.5"/>
<text text-anchor="middle" x="2515" y="-119.5" font-family="Helvetica,sans-Serif" font-size="10.00">agent_antenna.cpp</text>
</a>
</g>
</g>
<!-- Node1&#45;&gt;Node36 -->
<g id="edge37" class="edge"><title>Node1&#45;&gt;Node36</title>
<path fill="none" stroke="midnightblue" d="M2050.92,-173.405C2131.54,-166.629 2308.48,-150.934 2457,-132 2459.73,-131.652 2462.53,-131.277 2465.35,-130.886"/>
<polygon fill="midnightblue" stroke="midnightblue" points="2050.33,-169.942 2040.66,-174.263 2050.92,-176.918 2050.33,-169.942"/>
</g>
<!-- Node37 -->
<g id="node37" class="node"><title>Node37</title>
<g id="a_node37"><a xlink:href="tle2state_8cpp.html" target="_top" xlink:title="tle2state.cpp">
<polygon fill="white" stroke="black" points="2582.5,-112.5 2582.5,-131.5 2655.5,-131.5 2655.5,-112.5 2582.5,-112.5"/>
<text text-anchor="middle" x="2619" y="-119.5" font-family="Helvetica,sans-Serif" font-size="10.00">tle2state.cpp</text>
</a>
</g>
</g>
<!-- Node1&#45;&gt;Node37 -->
<g id="edge40" class="edge"><title>Node1&#45;&gt;Node37</title>
<path fill="none" stroke="midnightblue" d="M2050.85,-175.287C2146.32,-171.171 2380.04,-158.997 2574,-132 2576.68,-131.627 2579.45,-131.194 2582.22,-130.723"/>
<polygon fill="midnightblue" stroke="midnightblue" points="2050.55,-171.797 2040.7,-175.717 2050.84,-178.791 2050.55,-171.797"/>
</g>
<!-- Node38 -->
<g id="node38" class="node"><title>Node38</title>
<g id="a_node38"><a xlink:href="udp__listen_8cpp.html" target="_top" xlink:title="udp_listen.cpp">
<polygon fill="white" stroke="black" points="2674,-112.5 2674,-131.5 2754,-131.5 2754,-112.5 2674,-112.5"/>
<text text-anchor="middle" x="2714" y="-119.5" font-family="Helvetica,sans-Serif" font-size="10.00">udp_listen.cpp</text>
</a>
</g>
</g>
<!-- Node1&#45;&gt;Node38 -->
<g id="edge41" class="edge"><title>Node1&#45;&gt;Node38</title>
<path fill="none" stroke="midnightblue" d="M2050.99,-175.714C2157.01,-172.241 2434.89,-160.907 2665,-132 2667.92,-131.633 2670.92,-131.206 2673.95,-130.739"/>
<polygon fill="midnightblue" stroke="midnightblue" points="2050.57,-172.226 2040.68,-176.045 2050.79,-179.222 2050.57,-172.226"/>
</g>
<!-- Node6 -->
<g id="node6" class="node"><title>Node6</title>
<g id="a_node6"><a xlink:href="agent__calc_8cpp.html" target="_top" xlink:title="Demonstration calculator Agent. ">
<polygon fill="white" stroke="black" points="1466.5,-56.5 1466.5,-75.5 1549.5,-75.5 1549.5,-56.5 1466.5,-56.5"/>
<text text-anchor="middle" x="1508" y="-63.5" font-family="Helvetica,sans-Serif" font-size="10.00">agent_calc.cpp</text>
</a>
</g>
</g>
<!-- Node5&#45;&gt;Node6 -->
<g id="edge5" class="edge"><title>Node5&#45;&gt;Node6</title>
<path fill="none" stroke="midnightblue" d="M1187.48,-115.087C1248.38,-106.885 1361.13,-91.3252 1457,-76 1460.02,-75.5175 1463.13,-75.0044 1466.27,-74.4773"/>
<polygon fill="midnightblue" stroke="midnightblue" points="1186.88,-111.635 1177.44,-116.435 1187.81,-118.573 1186.88,-111.635"/>
</g>
<!-- Node7 -->
<g id="node7" class="node"><title>Node7</title>
<g id="a_node7"><a xlink:href="propagator__simple_8cpp.html" target="_top" xlink:title="propagator_simple.cpp">
<polygon fill="white" stroke="black" points="1567.5,-56.5 1567.5,-75.5 1682.5,-75.5 1682.5,-56.5 1567.5,-56.5"/>
<text text-anchor="middle" x="1625" y="-63.5" font-family="Helvetica,sans-Serif" font-size="10.00">propagator_simple.cpp</text>
</a>
</g>
</g>
<!-- Node5&#45;&gt;Node7 -->
<g id="edge6" class="edge"><title>Node5&#45;&gt;Node7</title>
<path fill="none" stroke="midnightblue" d="M1187.34,-116.567C1263.3,-108.889 1423.15,-92.365 1558,-76 1561.03,-75.6324 1564.13,-75.2466 1567.27,-74.8501"/>
<polygon fill="midnightblue" stroke="midnightblue" points="1186.79,-113.104 1177.19,-117.59 1187.5,-120.069 1186.79,-113.104"/>
</g>
<!-- Node8 -->
<g id="node8" class="node"><title>Node8</title>
<g id="a_node8"><a xlink:href="testengine_8cpp.html" target="_top" xlink:title="Command line simulator. ">
<polygon fill="white" stroke="black" points="0,-56.5 0,-75.5 80,-75.5 80,-56.5 0,-56.5"/>
<text text-anchor="middle" x="40" y="-63.5" font-family="Helvetica,sans-Serif" font-size="10.00">testengine.cpp</text>
</a>
</g>
</g>
<!-- Node5&#45;&gt;Node8 -->
<g id="edge7" class="edge"><title>Node5&#45;&gt;Node8</title>
<path fill="none" stroke="midnightblue" d="M1099.31,-112.037C1099.2,-112.024 1099.1,-112.012 1099,-112 652.986,-58.8102 535.526,-124.702 89,-76 86.0766,-75.6811 83.0654,-75.2882 80.0413,-74.8466"/>
<polygon fill="midnightblue" stroke="midnightblue" points="1098.58,-115.467 1108.98,-113.46 1099.6,-108.542 1098.58,-115.467"/>
</g>
<!-- Node9 -->
<g id="node9" class="node"><title>Node9</title>
<g id="a_node9"><a xlink:href="physicslib_8cpp.html" target="_top" xlink:title="physicslib.cpp">
<polygon fill="white" stroke="black" points="98.5,-56.5 98.5,-75.5 177.5,-75.5 177.5,-56.5 98.5,-56.5"/>
<text text-anchor="middle" x="138" y="-63.5" font-family="Helvetica,sans-Serif" font-size="10.00">physicslib.cpp</text>
</a>
</g>
</g>
<!-- Node5&#45;&gt;Node9 -->
<g id="edge8" class="edge"><title>Node5&#45;&gt;Node9</title>
<path fill="none" stroke="midnightblue" d="M1099.31,-112.037C1099.2,-112.025 1099.1,-112.012 1099,-112 695.856,-63.1494 589.532,-121.54 186,-76 183.304,-75.6957 180.532,-75.3269 177.745,-74.9144"/>
<polygon fill="midnightblue" stroke="midnightblue" points="1098.57,-115.467 1108.98,-113.473 1099.6,-108.543 1098.57,-115.467"/>
</g>
<!-- Node10 -->
<g id="node10" class="node"><title>Node10</title>
<g id="a_node10"><a xlink:href="agent_8cpp.html" target="_top" xlink:title="Agent control program source. ">
<polygon fill="white" stroke="black" points="195.5,-56.5 195.5,-75.5 254.5,-75.5 254.5,-56.5 195.5,-56.5"/>
<text text-anchor="middle" x="225" y="-63.5" font-family="Helvetica,sans-Serif" font-size="10.00">agent.cpp</text>
</a>
</g>
</g>
<!-- Node5&#45;&gt;Node10 -->
<g id="edge9" class="edge"><title>Node5&#45;&gt;Node10</title>
<path fill="none" stroke="midnightblue" d="M1099.31,-112.038C1099.2,-112.025 1099.1,-112.012 1099,-112 729.882,-66.5934 631.375,-127.084 263,-76 260.314,-75.6275 257.539,-75.1517 254.77,-74.6139"/>
<polygon fill="midnightblue" stroke="midnightblue" points="1098.57,-115.467 1108.98,-113.485 1099.61,-108.544 1098.57,-115.467"/>
</g>
<!-- Node11 -->
<g id="node11" class="node"><title>Node11</title>
<g id="a_node11"><a xlink:href="agent__data_8cpp.html" target="_top" xlink:title="agent_data.cpp">
<polygon fill="white" stroke="black" points="272.5,-56.5 272.5,-75.5 355.5,-75.5 355.5,-56.5 272.5,-56.5"/>
<text text-anchor="middle" x="314" y="-63.5" font-family="Helvetica,sans-Serif" font-size="10.00">agent_data.cpp</text>
</a>
</g>
</g>
<!-- Node5&#45;&gt;Node11 -->
<g id="edge10" class="edge"><title>Node5&#45;&gt;Node11</title>
<path fill="none" stroke="midnightblue" d="M1099.3,-112.039C1099.2,-112.026 1099.1,-112.013 1099,-112 774.95,-71.1548 689.574,-112.452 365,-76 361.962,-75.6588 358.832,-75.2495 355.687,-74.7962"/>
<polygon fill="midnightblue" stroke="midnightblue" points="1098.56,-115.466 1108.98,-113.506 1099.61,-108.545 1098.56,-115.466"/>
</g>
<!-- Node12 -->
<g id="node12" class="node"><title>Node12</title>
<g id="a_node12"><a xlink:href="cosmos_8cpp.html" target="_top" xlink:title="cosmos.cpp">
<polygon fill="white" stroke="black" points="374,-56.5 374,-75.5 444,-75.5 444,-56.5 374,-56.5"/>
<text text-anchor="middle" x="409" y="-63.5" font-family="Helvetica,sans-Serif" font-size="10.00">cosmos.cpp</text>
</a>
</g>
</g>
<!-- Node5&#45;&gt;Node12 -->
<g id="edge11" class="edge"><title>Node5&#45;&gt;Node12</title>
<path fill="none" stroke="midnightblue" d="M1099.3,-112.04C1099.2,-112.026 1099.1,-112.013 1099,-112 813.822,-75.0889 738.178,-112.911 453,-76 450.216,-75.6397 447.345,-75.2028 444.467,-74.7178"/>
<polygon fill="midnightblue" stroke="midnightblue" points="1098.56,-115.466 1108.97,-113.528 1099.62,-108.547 1098.56,-115.466"/>
</g>
<!-- Node13 -->
<g id="node13" class="node"><title>Node13</title>
<g id="a_node13"><a xlink:href="agent__control_8cpp.html" target="_top" xlink:title="Agent Control for Satellite Ground Station. ">
<polygon fill="white" stroke="black" points="462,-56.5 462,-75.5 556,-75.5 556,-56.5 462,-56.5"/>
<text text-anchor="middle" x="509" y="-63.5" font-family="Helvetica,sans-Serif" font-size="10.00">agent_control.cpp</text>
</a>
</g>
</g>
<!-- Node5&#45;&gt;Node13 -->
<g id="edge12" class="edge"><title>Node5&#45;&gt;Node13</title>
<path fill="none" stroke="midnightblue" d="M1099.3,-112.041C1099.2,-112.028 1099.1,-112.014 1099,-112 863.278,-80.0936 801.346,-102.901 565,-76 562.065,-75.6659 559.049,-75.2865 556.011,-74.8771"/>
<polygon fill="midnightblue" stroke="midnightblue" points="1098.54,-115.465 1108.97,-113.568 1099.64,-108.55 1098.54,-115.465"/>
</g>
<!-- Node14 -->
<g id="node14" class="node"><title>Node14</title>
<g id="a_node14"><a xlink:href="agent__node_8cpp.html" target="_top" xlink:title="agent_node.cpp">
<polygon fill="white" stroke="black" points="574,-56.5 574,-75.5 660,-75.5 660,-56.5 574,-56.5"/>
<text text-anchor="middle" x="617" y="-63.5" font-family="Helvetica,sans-Serif" font-size="10.00">agent_node.cpp</text>
</a>
</g>
</g>
<!-- Node5&#45;&gt;Node14 -->
<g id="edge13" class="edge"><title>Node5&#45;&gt;Node14</title>
<path fill="none" stroke="midnightblue" d="M1099.3,-112.044C1099.2,-112.029 1099.1,-112.015 1099,-112 909.168,-84.7364 859.224,-100.377 669,-76 666.092,-75.6273 663.098,-75.2072 660.086,-74.7573"/>
<polygon fill="midnightblue" stroke="midnightblue" points="1098.53,-115.463 1108.96,-113.623 1099.66,-108.555 1098.53,-115.463"/>
</g>
<!-- Node15 -->
<g id="node15" class="node"><title>Node15</title>
<g id="a_node15"><a xlink:href="agent__orig_8cpp.html" target="_top" xlink:title="agent_orig.cpp">
<polygon fill="white" stroke="black" points="678,-56.5 678,-75.5 758,-75.5 758,-56.5 678,-56.5"/>
<text text-anchor="middle" x="718" y="-63.5" font-family="Helvetica,sans-Serif" font-size="10.00">agent_orig.cpp</text>
</a>
</g>
</g>
<!-- Node5&#45;&gt;Node15 -->
<g id="edge14" class="edge"><title>Node5&#45;&gt;Node15</title>
<path fill="none" stroke="midnightblue" d="M1099.3,-112.048C1099.2,-112.032 1099.1,-112.016 1099,-112 952.356,-89.1034 913.867,-97.4207 767,-76 764.09,-75.5756 761.089,-75.1051 758.072,-74.6084"/>
<polygon fill="midnightblue" stroke="midnightblue" points="1098.5,-115.46 1108.95,-113.706 1099.69,-108.562 1098.5,-115.46"/>
</g>
<!-- Node16 -->
<g id="node16" class="node"><title>Node16</title>
<g id="a_node16"><a xlink:href="agent__physics_8cpp.html" target="_top" xlink:title="agent_physics.cpp">
<polygon fill="white" stroke="black" points="776,-56.5 776,-75.5 874,-75.5 874,-56.5 776,-56.5"/>
<text text-anchor="middle" x="825" y="-63.5" font-family="Helvetica,sans-Serif" font-size="10.00">agent_physics.cpp</text>
</a>
</g>
</g>
<!-- Node5&#45;&gt;Node16 -->
<g id="edge15" class="edge"><title>Node5&#45;&gt;Node16</title>
<path fill="none" stroke="midnightblue" d="M1099.3,-112.056C1099.2,-112.037 1099.1,-112.019 1099,-112 1056.81,-104.223 940.821,-85.5053 874.059,-74.8211"/>
<polygon fill="midnightblue" stroke="midnightblue" points="1098.44,-115.454 1108.92,-113.892 1099.75,-108.578 1098.44,-115.454"/>
</g>
<!-- Node17 -->
<g id="node17" class="node"><title>Node17</title>
<g id="a_node17"><a xlink:href="agent__transmitter_8cpp.html" target="_top" xlink:title="agent_transmitter.cpp">
<polygon fill="white" stroke="black" points="891.5,-56.5 891.5,-75.5 1002.5,-75.5 1002.5,-56.5 891.5,-56.5"/>
<text text-anchor="middle" x="947" y="-63.5" font-family="Helvetica,sans-Serif" font-size="10.00">agent_transmitter.cpp</text>
</a>
</g>
</g>
<!-- Node5&#45;&gt;Node17 -->
<g id="edge16" class="edge"><title>Node5&#45;&gt;Node17</title>
<path fill="none" stroke="midnightblue" d="M1101.98,-109.699C1064.99,-99.507 1011.4,-84.7429 977.911,-75.5164"/>
<polygon fill="midnightblue" stroke="midnightblue" points="1101.37,-113.162 1111.94,-112.444 1103.23,-106.413 1101.37,-113.162"/>
</g>
<!-- Node18 -->
<g id="node18" class="node"><title>Node18</title>
<g id="a_node18"><a xlink:href="agent__transmitter2_8cpp.html" target="_top" xlink:title="agent_transmitter2.cpp">
<polygon fill="white" stroke="black" points="1021,-56.5 1021,-75.5 1137,-75.5 1137,-56.5 1021,-56.5"/>
<text text-anchor="middle" x="1079" y="-63.5" font-family="Helvetica,sans-Serif" font-size="10.00">agent_transmitter2.cpp</text>
</a>
</g>
</g>
<!-- Node5&#45;&gt;Node18 -->
<g id="edge17" class="edge"><title>Node5&#45;&gt;Node18</title>
<path fill="none" stroke="midnightblue" d="M1125.01,-105.82C1113.54,-96.1452 1099.09,-83.9481 1089.47,-75.8339"/>
<polygon fill="midnightblue" stroke="midnightblue" points="1122.82,-108.55 1132.72,-112.324 1127.33,-103.2 1122.82,-108.55"/>
</g>
<!-- Node5&#45;&gt;Node19 -->
<g id="edge18" class="edge"><title>Node5&#45;&gt;Node19</title>
<path fill="none" stroke="midnightblue" d="M1187.28,-118.489C1280.62,-112.949 1504.37,-98.3655 1691,-76 1694.08,-75.6305 1697.26,-75.2185 1700.45,-74.7797"/>
<polygon fill="midnightblue" stroke="midnightblue" points="1186.85,-115.008 1177.08,-119.089 1187.27,-121.996 1186.85,-115.008"/>
</g>
<!-- Node20 -->
<g id="node20" class="node"><title>Node20</title>
<g id="a_node20"><a xlink:href="fast__propagator_8cpp.html" target="_top" xlink:title="fast_propagator.cpp">
<polygon fill="white" stroke="black" points="1155.5,-56.5 1155.5,-75.5 1258.5,-75.5 1258.5,-56.5 1155.5,-56.5"/>
<text text-anchor="middle" x="1207" y="-63.5" font-family="Helvetica,sans-Serif" font-size="10.00">fast_propagator.cpp</text>
</a>
</g>
</g>
<!-- Node5&#45;&gt;Node20 -->
<g id="edge19" class="edge"><title>Node5&#45;&gt;Node20</title>
<path fill="none" stroke="midnightblue" d="M1160.99,-105.82C1172.46,-96.1452 1186.91,-83.9481 1196.53,-75.8339"/>
<polygon fill="midnightblue" stroke="midnightblue" points="1158.67,-103.2 1153.28,-112.324 1163.18,-108.55 1158.67,-103.2"/>
</g>
<!-- Node5&#45;&gt;Node21 -->
<g id="edge20" class="edge"><title>Node5&#45;&gt;Node21</title>
<path fill="none" stroke="midnightblue" d="M1187.21,-119.387C1293.66,-115.199 1572.57,-102.418 1804,-76 1807.23,-75.6314 1810.56,-75.2084 1813.9,-74.7509"/>
<polygon fill="midnightblue" stroke="midnightblue" points="1187.01,-115.892 1177.16,-119.777 1187.28,-122.887 1187.01,-115.892"/>
</g>
<!-- Node22 -->
<g id="node22" class="node"><title>Node22</title>
<g id="a_node22"><a xlink:href="propagator_8cpp.html" target="_top" xlink:title="propagator.cpp">
<polygon fill="white" stroke="black" points="1276.5,-56.5 1276.5,-75.5 1357.5,-75.5 1357.5,-56.5 1276.5,-56.5"/>
<text text-anchor="middle" x="1317" y="-63.5" font-family="Helvetica,sans-Serif" font-size="10.00">propagator.cpp</text>
</a>
</g>
</g>
<!-- Node5&#45;&gt;Node22 -->
<g id="edge21" class="edge"><title>Node5&#45;&gt;Node22</title>
<path fill="none" stroke="midnightblue" d="M1180.26,-109.436C1213.07,-99.2551 1260.08,-84.664 1289.56,-75.5164"/>
<polygon fill="midnightblue" stroke="midnightblue" points="1179.08,-106.137 1170.57,-112.444 1181.16,-112.822 1179.08,-106.137"/>
</g>
<!-- Node23 -->
<g id="node23" class="node"><title>Node23</title>
<g id="a_node23"><a xlink:href="state2tle_8cpp.html" target="_top" xlink:title="state2tle.cpp">
<polygon fill="white" stroke="black" points="1375.5,-56.5 1375.5,-75.5 1448.5,-75.5 1448.5,-56.5 1375.5,-56.5"/>
<text text-anchor="middle" x="1412" y="-63.5" font-family="Helvetica,sans-Serif" font-size="10.00">state2tle.cpp</text>
</a>
</g>
</g>
<!-- Node5&#45;&gt;Node23 -->
<g id="edge22" class="edge"><title>Node5&#45;&gt;Node23</title>
<path fill="none" stroke="midnightblue" d="M1187.08,-112.151C1239.54,-101.62 1326.17,-84.2293 1375.2,-74.3877"/>
<polygon fill="midnightblue" stroke="midnightblue" points="1186.18,-108.761 1177.07,-114.161 1187.56,-115.624 1186.18,-108.761"/>
</g>
<!-- Node25 -->
<g id="node25" class="node"><title>Node25</title>
<g id="a_node25"><a xlink:href="eci2kep__test_8h.html" target="_top" xlink:title="eci2kep_test.h">
<polygon fill="white" stroke="black" points="2159,-56.5 2159,-75.5 2239,-75.5 2239,-56.5 2159,-56.5"/>
<text text-anchor="middle" x="2199" y="-63.5" font-family="Helvetica,sans-Serif" font-size="10.00">eci2kep_test.h</text>
</a>
</g>
</g>
<!-- Node24&#45;&gt;Node25 -->
<g id="edge24" class="edge"><title>Node24&#45;&gt;Node25</title>
<path fill="none" stroke="midnightblue" d="M1960.93,-111.484C2017.36,-100.939 2107.21,-84.1513 2158.88,-74.4967"/>
<polygon fill="midnightblue" stroke="midnightblue" points="1959.98,-108.1 1950.79,-113.378 1961.27,-114.981 1959.98,-108.1"/>
</g>
<!-- Node27 -->
<g id="node27" class="node"><title>Node27</title>
<g id="a_node27"><a xlink:href="testcontainer_8cpp.html" target="_top" xlink:title="testcontainer.cpp">
<polygon fill="white" stroke="black" points="2064,-0.5 2064,-19.5 2156,-19.5 2156,-0.5 2064,-0.5"/>
<text text-anchor="middle" x="2110" y="-7.5" font-family="Helvetica,sans-Serif" font-size="10.00">testcontainer.cpp</text>
</a>
</g>
</g>
<!-- Node24&#45;&gt;Node27 -->
<g id="edge31" class="edge"><title>Node24&#45;&gt;Node27</title>
<path fill="none" stroke="midnightblue" d="M1960.69,-111.343C2018.94,-100.004 2107.2,-81.983 2112,-76 2124.99,-59.7922 2118.28,-33.304 2113.47,-19.6865"/>
<polygon fill="midnightblue" stroke="midnightblue" points="1959.7,-107.97 1950.55,-113.309 1961.03,-114.842 1959.7,-107.97"/>
</g>
<!-- Node28 -->
<g id="node28" class="node"><title>Node28</title>
<g id="a_node28"><a xlink:href="mainwindow_8cpp.html" target="_top" xlink:title="mainwindow.cpp">
<polygon fill="white" stroke="black" points="2013.5,-56.5 2013.5,-75.5 2102.5,-75.5 2102.5,-56.5 2013.5,-56.5"/>
<text text-anchor="middle" x="2058" y="-63.5" font-family="Helvetica,sans-Serif" font-size="10.00">mainwindow.cpp</text>
</a>
</g>
</g>
<!-- Node24&#45;&gt;Node28 -->
<g id="edge27" class="edge"><title>Node24&#45;&gt;Node28</title>
<path fill="none" stroke="midnightblue" d="M1943.15,-108.906C1970.97,-98.7536 2010.02,-84.5063 2034.66,-75.5164"/>
<polygon fill="midnightblue" stroke="midnightblue" points="1941.65,-105.728 1933.45,-112.444 1944.04,-112.304 1941.65,-105.728"/>
</g>
<!-- Node29 -->
<g id="node29" class="node"><title>Node29</title>
<g id="a_node29"><a xlink:href="rearth__test_8h.html" target="_top" xlink:title="rearth_test.h">
<polygon fill="white" stroke="black" points="1924.5,-56.5 1924.5,-75.5 1995.5,-75.5 1995.5,-56.5 1924.5,-56.5"/>
<text text-anchor="middle" x="1960" y="-63.5" font-family="Helvetica,sans-Serif" font-size="10.00">rearth_test.h</text>
</a>
</g>
</g>
<!-- Node24&#45;&gt;Node29 -->
<g id="edge28" class="edge"><title>Node24&#45;&gt;Node29</title>
<path fill="none" stroke="midnightblue" d="M1925.08,-104.718C1933.89,-95.1997 1944.67,-83.5608 1951.9,-75.7511"/>
<polygon fill="midnightblue" stroke="midnightblue" points="1922.48,-102.367 1918.26,-112.083 1927.62,-107.123 1922.48,-102.367"/>
</g>
<!-- Node26 -->
<g id="node26" class="node"><title>Node26</title>
<g id="a_node26"><a xlink:href="eci2kep__test_8cpp.html" target="_top" xlink:title="eci2kep_test.cpp">
<polygon fill="white" stroke="black" points="2174.5,-0.5 2174.5,-19.5 2265.5,-19.5 2265.5,-0.5 2174.5,-0.5"/>
<text text-anchor="middle" x="2220" y="-7.5" font-family="Helvetica,sans-Serif" font-size="10.00">eci2kep_test.cpp</text>
</a>
</g>
</g>
<!-- Node25&#45;&gt;Node26 -->
<g id="edge25" class="edge"><title>Node25&#45;&gt;Node26</title>
<path fill="none" stroke="midnightblue" d="M2206.12,-46.6897C2209.66,-37.589 2213.77,-27.0141 2216.6,-19.7511"/>
<polygon fill="midnightblue" stroke="midnightblue" points="2202.83,-45.4944 2202.47,-56.083 2209.35,-48.0315 2202.83,-45.4944"/>
</g>
<!-- Node25&#45;&gt;Node27 -->
<g id="edge26" class="edge"><title>Node25&#45;&gt;Node27</title>
<path fill="none" stroke="midnightblue" d="M2175.76,-50.9005C2159.44,-40.9986 2138.13,-28.0705 2124.26,-19.6545"/>
<polygon fill="midnightblue" stroke="midnightblue" points="2174.34,-54.1289 2184.7,-56.324 2177.97,-48.1444 2174.34,-54.1289"/>
</g>
<!-- Node29&#45;&gt;Node27 -->
<g id="edge30" class="edge"><title>Node29&#45;&gt;Node27</title>
<path fill="none" stroke="midnightblue" d="M1993.22,-53.0392C2021.45,-42.8786 2061.26,-28.5457 2086.34,-19.5164"/>
<polygon fill="midnightblue" stroke="midnightblue" points="1991.99,-49.7632 1983.77,-56.4435 1994.36,-56.3494 1991.99,-49.7632"/>
</g>
<!-- Node30 -->
<g id="node30" class="node"><title>Node30</title>
<g id="a_node30"><a xlink:href="rearth__test_8cpp.html" target="_top" xlink:title="rearth_test.cpp">
<polygon fill="white" stroke="black" points="1919,-0.5 1919,-19.5 2001,-19.5 2001,-0.5 1919,-0.5"/>
<text text-anchor="middle" x="1960" y="-7.5" font-family="Helvetica,sans-Serif" font-size="10.00">rearth_test.cpp</text>
</a>
</g>
</g>
<!-- Node29&#45;&gt;Node30 -->
<g id="edge29" class="edge"><title>Node29&#45;&gt;Node30</title>
<path fill="none" stroke="midnightblue" d="M1960,-45.8045C1960,-36.9102 1960,-26.7798 1960,-19.7511"/>
<polygon fill="midnightblue" stroke="midnightblue" points="1956.5,-46.083 1960,-56.083 1963.5,-46.083 1956.5,-46.083"/>
</g>
</g>
</svg>
