<?xml version="1.0" encoding="UTF-8" standalone="no"?>
<!DOCTYPE svg PUBLIC "-//W3C//DTD SVG 1.1//EN"
 "http://www.w3.org/Graphics/SVG/1.1/DTD/svg11.dtd">
<!-- Generated by graphviz version 2.38.0 (20140413.2041)
 -->
<!-- Title: cosmos&#45;errno.h Pages: 1 -->
<svg width="3517pt" height="252pt"
 viewBox="0.00 0.00 3517.00 252.00" xmlns="http://www.w3.org/2000/svg" xmlns:xlink="http://www.w3.org/1999/xlink">
<g id="graph0" class="graph" transform="scale(1 1) rotate(0) translate(4 248)">
<title>cosmos&#45;errno.h</title>
<polygon fill="white" stroke="none" points="-4,4 -4,-248 3513,-248 3513,4 -4,4"/>
<!-- Node1 -->
<g id="node1" class="node"><title>Node1</title>
<polygon fill="#bfbfbf" stroke="black" points="1402.5,-224.5 1402.5,-243.5 1486.5,-243.5 1486.5,-224.5 1402.5,-224.5"/>
<text text-anchor="middle" x="1444.5" y="-231.5" font-family="Helvetica,sans-Serif" font-size="10.00">cosmos&#45;errno.h</text>
</g>
<!-- Node2 -->
<g id="node2" class="node"><title>Node2</title>
<g id="a_node2"><a xlink:href="agentclass_8cpp.html" target="_top" xlink:title="Agent support functions. ">
<polygon fill="white" stroke="black" points="0,-56.5 0,-75.5 83,-75.5 83,-56.5 0,-56.5"/>
<text text-anchor="middle" x="41.5" y="-63.5" font-family="Helvetica,sans-Serif" font-size="10.00">agentclass.cpp</text>
</a>
</g>
</g>
<!-- Node1&#45;&gt;Node2 -->
<g id="edge1" class="edge"><title>Node1&#45;&gt;Node2</title>
<path fill="none" stroke="midnightblue" d="M1391.98,-232.464C1173.8,-230.046 345.199,-218.893 232.5,-188 153.378,-166.311 76.1424,-99.3873 50.4492,-75.5448"/>
<polygon fill="midnightblue" stroke="midnightblue" points="1392.16,-235.966 1402.2,-232.576 1392.24,-228.967 1392.16,-235.966"/>
</g>
<!-- Node3 -->
<g id="node3" class="node"><title>Node3</title>
<g id="a_node3"><a xlink:href="agentclass_8h.html" target="_top" xlink:title="Agent Server and Client header file. ">
<polygon fill="white" stroke="red" points="1730.5,-112.5 1730.5,-131.5 1802.5,-131.5 1802.5,-112.5 1730.5,-112.5"/>
<text text-anchor="middle" x="1766.5" y="-119.5" font-family="Helvetica,sans-Serif" font-size="10.00">agentclass.h</text>
</a>
</g>
</g>
<!-- Node1&#45;&gt;Node3 -->
<g id="edge2" class="edge"><title>Node1&#45;&gt;Node3</title>
<path fill="none" stroke="midnightblue" d="M1444.78,-214.225C1446.07,-199.431 1450.36,-179.45 1463.5,-168 1502.69,-133.843 1658.73,-125.612 1730.3,-123.629"/>
<polygon fill="midnightblue" stroke="midnightblue" points="1441.28,-214.141 1444.29,-224.301 1448.27,-214.485 1441.28,-214.141"/>
</g>
<!-- Node38 -->
<g id="node38" class="node"><title>Node38</title>
<g id="a_node38"><a xlink:href="gs232b__lib_8h.html" target="_top" xlink:title="GS&#45;232B controller includes. ">
<polygon fill="white" stroke="red" points="139,-112.5 139,-131.5 210,-131.5 210,-112.5 139,-112.5"/>
<text text-anchor="middle" x="174.5" y="-119.5" font-family="Helvetica,sans-Serif" font-size="10.00">gs232b_lib.h</text>
</a>
</g>
</g>
<!-- Node1&#45;&gt;Node38 -->
<g id="edge42" class="edge"><title>Node1&#45;&gt;Node38</title>
<path fill="none" stroke="midnightblue" d="M1392.2,-232.563C1179.49,-230.573 385.661,-220.983 278.5,-188 240.039,-176.162 201.682,-146.375 184.239,-131.594"/>
<polygon fill="midnightblue" stroke="midnightblue" points="1392.43,-236.066 1402.47,-232.658 1392.5,-229.066 1392.43,-236.066"/>
</g>
<!-- Node39 -->
<g id="node39" class="node"><title>Node39</title>
<g id="a_node39"><a xlink:href="kisstnc__lib_8h.html" target="_top" xlink:title="KISSTNC controller includes. ">
<polygon fill="white" stroke="red" points="1579,-168.5 1579,-187.5 1650,-187.5 1650,-168.5 1579,-168.5"/>
<text text-anchor="middle" x="1614.5" y="-175.5" font-family="Helvetica,sans-Serif" font-size="10.00">kisstnc_lib.h</text>
</a>
</g>
</g>
<!-- Node1&#45;&gt;Node39 -->
<g id="edge44" class="edge"><title>Node1&#45;&gt;Node39</title>
<path fill="none" stroke="midnightblue" d="M1481.32,-221.304C1513.35,-211.129 1559.02,-196.625 1587.69,-187.516"/>
<polygon fill="midnightblue" stroke="midnightblue" points="1479.91,-218.08 1471.44,-224.444 1482.03,-224.752 1479.91,-218.08"/>
</g>
<!-- Node40 -->
<g id="node40" class="node"><title>Node40</title>
<g id="a_node40"><a xlink:href="kpc9612p__lib_8h.html" target="_top" xlink:title="KPC&#45;9612P controller includes. ">
<polygon fill="white" stroke="red" points="3327.5,-112.5 3327.5,-131.5 3409.5,-131.5 3409.5,-112.5 3327.5,-112.5"/>
<text text-anchor="middle" x="3368.5" y="-119.5" font-family="Helvetica,sans-Serif" font-size="10.00">kpc9612p_lib.h</text>
</a>
</g>
</g>
<!-- Node1&#45;&gt;Node40 -->
<g id="edge45" class="edge"><title>Node1&#45;&gt;Node40</title>
<path fill="none" stroke="midnightblue" d="M1470.15,-219.794C1487.49,-210.851 1510.89,-198.752 1531.5,-188 1548.42,-179.171 1551.03,-172.809 1569.5,-168 1613.46,-156.553 3063,-128.752 3327.34,-123.771"/>
<polygon fill="midnightblue" stroke="midnightblue" points="1468.48,-216.716 1461.2,-224.408 1471.69,-222.938 1468.48,-216.716"/>
</g>
<!-- Node41 -->
<g id="node41" class="node"><title>Node41</title>
<g id="a_node41"><a xlink:href="mixwtnc__lib_8h.html" target="_top" xlink:title="MIXWTNC controller includes. ">
<polygon fill="white" stroke="red" points="1668,-168.5 1668,-187.5 1745,-187.5 1745,-168.5 1668,-168.5"/>
<text text-anchor="middle" x="1706.5" y="-175.5" font-family="Helvetica,sans-Serif" font-size="10.00">mixwtnc_lib.h</text>
</a>
</g>
</g>
<!-- Node1&#45;&gt;Node41 -->
<g id="edge47" class="edge"><title>Node1&#45;&gt;Node41</title>
<path fill="none" stroke="midnightblue" d="M1496.06,-222.372C1546.51,-211.974 1622.22,-196.372 1667.74,-186.988"/>
<polygon fill="midnightblue" stroke="midnightblue" points="1495.1,-218.997 1486.01,-224.444 1496.52,-225.853 1495.1,-218.997"/>
</g>
<!-- Node42 -->
<g id="node42" class="node"><title>Node42</title>
<g id="a_node42"><a xlink:href="prkx2su__class_8h.html" target="_top" xlink:title="prkx2su_class.h">
<polygon fill="white" stroke="red" points="358.5,-112.5 358.5,-131.5 446.5,-131.5 446.5,-112.5 358.5,-112.5"/>
<text text-anchor="middle" x="402.5" y="-119.5" font-family="Helvetica,sans-Serif" font-size="10.00">prkx2su_class.h</text>
</a>
</g>
</g>
<!-- Node1&#45;&gt;Node42 -->
<g id="edge48" class="edge"><title>Node1&#45;&gt;Node42</title>
<path fill="none" stroke="midnightblue" d="M1392.02,-231.507C1277.76,-227.82 998.051,-216.438 765.5,-188 646.821,-173.487 508.119,-145.558 441.763,-131.51"/>
<polygon fill="midnightblue" stroke="midnightblue" points="1392.13,-235.012 1402.23,-231.83 1392.35,-228.015 1392.13,-235.012"/>
</g>
<!-- Node43 -->
<g id="node43" class="node"><title>Node43</title>
<g id="a_node43"><a xlink:href="prkx2su__lib_8h.html" target="_top" xlink:title="prkx2su controller includes ">
<polygon fill="white" stroke="red" points="228.5,-112.5 228.5,-131.5 302.5,-131.5 302.5,-112.5 228.5,-112.5"/>
<text text-anchor="middle" x="265.5" y="-119.5" font-family="Helvetica,sans-Serif" font-size="10.00">prkx2su_lib.h</text>
</a>
</g>
</g>
<!-- Node1&#45;&gt;Node43 -->
<g id="edge49" class="edge"><title>Node1&#45;&gt;Node43</title>
<path fill="none" stroke="midnightblue" d="M1392.18,-232.364C1174.35,-229.532 348.443,-216.922 301.5,-188 280.852,-175.279 271.116,-146.187 267.4,-131.629"/>
<polygon fill="midnightblue" stroke="midnightblue" points="1392.35,-235.866 1402.39,-232.495 1392.44,-228.866 1392.35,-235.866"/>
</g>
<!-- Node44 -->
<g id="node44" class="node"><title>Node44</title>
<g id="a_node44"><a xlink:href="ts2000__lib_8h.html" target="_top" xlink:title="TS2000 controller includes. ">
<polygon fill="white" stroke="red" points="465,-112.5 465,-131.5 534,-131.5 534,-112.5 465,-112.5"/>
<text text-anchor="middle" x="499.5" y="-119.5" font-family="Helvetica,sans-Serif" font-size="10.00">ts2000_lib.h</text>
</a>
</g>
</g>
<!-- Node1&#45;&gt;Node44 -->
<g id="edge51" class="edge"><title>Node1&#45;&gt;Node44</title>
<path fill="none" stroke="midnightblue" d="M1392.46,-229.412C1299.54,-222.79 1099.03,-207.524 930.5,-188 757.426,-167.95 714.075,-162.306 542.5,-132 539.796,-131.522 537.002,-131.001 534.197,-130.458"/>
<polygon fill="midnightblue" stroke="midnightblue" points="1392.22,-232.904 1402.44,-230.12 1392.72,-225.922 1392.22,-232.904"/>
</g>
<!-- Node45 -->
<g id="node45" class="node"><title>Node45</title>
<g id="a_node45"><a xlink:href="mathlib_8h.html" target="_top" xlink:title="mathlib include file ">
<polygon fill="white" stroke="red" points="310.5,-168.5 310.5,-187.5 366.5,-187.5 366.5,-168.5 310.5,-168.5"/>
<text text-anchor="middle" x="338.5" y="-175.5" font-family="Helvetica,sans-Serif" font-size="10.00">mathlib.h</text>
</a>
</g>
</g>
<!-- Node1&#45;&gt;Node45 -->
<g id="edge52" class="edge"><title>Node1&#45;&gt;Node45</title>
<path fill="none" stroke="midnightblue" d="M1391.99,-231.99C1240.59,-228.801 790.191,-217.358 417.5,-188 400.574,-186.667 381.675,-184.537 366.607,-182.684"/>
<polygon fill="midnightblue" stroke="midnightblue" points="1392.3,-235.497 1402.37,-232.206 1392.45,-228.499 1392.3,-235.497"/>
</g>
<!-- Node46 -->
<g id="node46" class="node"><title>Node46</title>
<g id="a_node46"><a xlink:href="cosmos-errno_8cpp.html" target="_top" xlink:title="COSMOS Errno support library source file. ">
<polygon fill="white" stroke="black" points="1763,-168.5 1763,-187.5 1858,-187.5 1858,-168.5 1763,-168.5"/>
<text text-anchor="middle" x="1810.5" y="-175.5" font-family="Helvetica,sans-Serif" font-size="10.00">cosmos&#45;errno.cpp</text>
</a>
</g>
</g>
<!-- Node1&#45;&gt;Node46 -->
<g id="edge58" class="edge"><title>Node1&#45;&gt;Node46</title>
<path fill="none" stroke="midnightblue" d="M1496.72,-225.589C1558.19,-216.822 1663.31,-201.687 1753.5,-188 1756.57,-187.534 1759.73,-187.049 1762.92,-186.556"/>
<polygon fill="midnightblue" stroke="midnightblue" points="1495.91,-222.169 1486.51,-227.045 1496.9,-229.099 1495.91,-222.169"/>
</g>
<!-- Node47 -->
<g id="node47" class="node"><title>Node47</title>
<g id="a_node47"><a xlink:href="datalib_8h.html" target="_top" xlink:title="Data Management header file. ">
<polygon fill="white" stroke="red" points="552,-112.5 552,-131.5 605,-131.5 605,-112.5 552,-112.5"/>
<text text-anchor="middle" x="578.5" y="-119.5" font-family="Helvetica,sans-Serif" font-size="10.00">datalib.h</text>
</a>
</g>
</g>
<!-- Node1&#45;&gt;Node47 -->
<g id="edge59" class="edge"><title>Node1&#45;&gt;Node47</title>
<path fill="none" stroke="midnightblue" d="M1392.11,-226.346C1227.81,-205.476 726.387,-141.785 605.114,-126.381"/>
<polygon fill="midnightblue" stroke="midnightblue" points="1392.08,-229.869 1402.44,-227.657 1392.96,-222.925 1392.08,-229.869"/>
</g>
<!-- Node48 -->
<g id="node48" class="node"><title>Node48</title>
<g id="a_node48"><a xlink:href="jpleph_8h.html" target="_top" xlink:title="JPL Ephemeris Support header file. ">
<polygon fill="white" stroke="red" points="1876.5,-168.5 1876.5,-187.5 1926.5,-187.5 1926.5,-168.5 1876.5,-168.5"/>
<text text-anchor="middle" x="1901.5" y="-175.5" font-family="Helvetica,sans-Serif" font-size="10.00">jpleph.h</text>
</a>
</g>
</g>
<!-- Node1&#45;&gt;Node48 -->
<g id="edge67" class="edge"><title>Node1&#45;&gt;Node48</title>
<path fill="none" stroke="midnightblue" d="M1497.04,-229.863C1577.21,-224.522 1734.66,-211.849 1866.5,-188 1869.71,-187.419 1873.06,-186.703 1876.36,-185.93"/>
<polygon fill="midnightblue" stroke="midnightblue" points="1496.47,-226.393 1486.72,-230.538 1496.92,-233.378 1496.47,-226.393"/>
</g>
<!-- Node49 -->
<g id="node49" class="node"><title>Node49</title>
<g id="a_node49"><a xlink:href="jsonclass_8h.html" target="_top" xlink:title="jsonclass.h">
<polygon fill="white" stroke="red" points="1944.5,-168.5 1944.5,-187.5 2010.5,-187.5 2010.5,-168.5 1944.5,-168.5"/>
<text text-anchor="middle" x="1977.5" y="-175.5" font-family="Helvetica,sans-Serif" font-size="10.00">jsonclass.h</text>
</a>
</g>
</g>
<!-- Node1&#45;&gt;Node49 -->
<g id="edge68" class="edge"><title>Node1&#45;&gt;Node49</title>
<path fill="none" stroke="midnightblue" d="M1496.96,-230.259C1587.05,-225.091 1776.77,-212.192 1935.5,-188 1938.3,-187.573 1941.2,-187.075 1944.1,-186.535"/>
<polygon fill="midnightblue" stroke="midnightblue" points="1496.53,-226.778 1486.74,-230.836 1496.92,-233.767 1496.53,-226.778"/>
</g>
<!-- Node50 -->
<g id="node50" class="node"><title>Node50</title>
<g id="a_node50"><a xlink:href="sliplib_8h.html" target="_top" xlink:title="COSMOS SLIP support include file. ">
<polygon fill="white" stroke="red" points="1472.5,-168.5 1472.5,-187.5 1522.5,-187.5 1522.5,-168.5 1472.5,-168.5"/>
<text text-anchor="middle" x="1497.5" y="-175.5" font-family="Helvetica,sans-Serif" font-size="10.00">sliplib.h</text>
</a>
</g>
</g>
<!-- Node1&#45;&gt;Node50 -->
<g id="edge69" class="edge"><title>Node1&#45;&gt;Node50</title>
<path fill="none" stroke="midnightblue" d="M1460.48,-216.718C1469.82,-207.2 1481.25,-195.561 1488.91,-187.751"/>
<polygon fill="midnightblue" stroke="midnightblue" points="1457.76,-214.494 1453.25,-224.083 1462.75,-219.398 1457.76,-214.494"/>
</g>
<!-- Node3&#45;&gt;Node2 -->
<g id="edge15" class="edge"><title>Node3&#45;&gt;Node2</title>
<path fill="none" stroke="midnightblue" d="M1719.95,-120.702C1484.17,-119.045 420.137,-109.796 91.5,-76 88.7801,-75.7203 85.9858,-75.3764 83.1749,-74.9879"/>
<polygon fill="midnightblue" stroke="midnightblue" points="1720.2,-124.203 1730.23,-120.773 1720.25,-117.204 1720.2,-124.203"/>
</g>
<!-- Node4 -->
<g id="node4" class="node"><title>Node4</title>
<g id="a_node4"><a xlink:href="agent__001_8cpp.html" target="_top" xlink:title="agent_001.cpp">
<polygon fill="white" stroke="black" points="1628.5,-56.5 1628.5,-75.5 1708.5,-75.5 1708.5,-56.5 1628.5,-56.5"/>
<text text-anchor="middle" x="1668.5" y="-63.5" font-family="Helvetica,sans-Serif" font-size="10.00">agent_001.cpp</text>
</a>
</g>
</g>
<!-- Node3&#45;&gt;Node4 -->
<g id="edge3" class="edge"><title>Node3&#45;&gt;Node4</title>
<path fill="none" stroke="midnightblue" d="M1741.91,-107.453C1723.82,-97.4835 1699.77,-84.2279 1684.21,-75.6545"/>
<polygon fill="midnightblue" stroke="midnightblue" points="1740.31,-110.563 1750.75,-112.324 1743.69,-104.432 1740.31,-110.563"/>
</g>
<!-- Node5 -->
<g id="node5" class="node"><title>Node5</title>
<g id="a_node5"><a xlink:href="agent__002_8cpp.html" target="_top" xlink:title="agent_002.cpp">
<polygon fill="white" stroke="black" points="1726.5,-56.5 1726.5,-75.5 1806.5,-75.5 1806.5,-56.5 1726.5,-56.5"/>
<text text-anchor="middle" x="1766.5" y="-63.5" font-family="Helvetica,sans-Serif" font-size="10.00">agent_002.cpp</text>
</a>
</g>
</g>
<!-- Node3&#45;&gt;Node5 -->
<g id="edge4" class="edge"><title>Node3&#45;&gt;Node5</title>
<path fill="none" stroke="midnightblue" d="M1766.5,-101.805C1766.5,-92.9102 1766.5,-82.7798 1766.5,-75.7511"/>
<polygon fill="midnightblue" stroke="midnightblue" points="1763,-102.083 1766.5,-112.083 1770,-102.083 1763,-102.083"/>
</g>
<!-- Node6 -->
<g id="node6" class="node"><title>Node6</title>
<g id="a_node6"><a xlink:href="agent__004_8cpp.html" target="_top" xlink:title="agent_004.cpp">
<polygon fill="white" stroke="black" points="1900.5,-56.5 1900.5,-75.5 1980.5,-75.5 1980.5,-56.5 1900.5,-56.5"/>
<text text-anchor="middle" x="1940.5" y="-63.5" font-family="Helvetica,sans-Serif" font-size="10.00">agent_004.cpp</text>
</a>
</g>
</g>
<!-- Node3&#45;&gt;Node6 -->
<g id="edge5" class="edge"><title>Node3&#45;&gt;Node6</title>
<path fill="none" stroke="midnightblue" d="M1803.76,-109.436C1836.57,-99.2551 1883.58,-84.664 1913.06,-75.5164"/>
<polygon fill="midnightblue" stroke="midnightblue" points="1802.58,-106.137 1794.07,-112.444 1804.66,-112.822 1802.58,-106.137"/>
</g>
<!-- Node7 -->
<g id="node7" class="node"><title>Node7</title>
<g id="a_node7"><a xlink:href="agent__005_8cpp.html" target="_top" xlink:title="agent_005.cpp">
<polygon fill="white" stroke="black" points="1998.5,-56.5 1998.5,-75.5 2078.5,-75.5 2078.5,-56.5 1998.5,-56.5"/>
<text text-anchor="middle" x="2038.5" y="-63.5" font-family="Helvetica,sans-Serif" font-size="10.00">agent_005.cpp</text>
</a>
</g>
</g>
<!-- Node3&#45;&gt;Node7 -->
<g id="edge6" class="edge"><title>Node3&#45;&gt;Node7</title>
<path fill="none" stroke="midnightblue" d="M1812.59,-111.849C1864.69,-101.506 1948.68,-84.8316 1998.24,-74.9922"/>
<polygon fill="midnightblue" stroke="midnightblue" points="1811.75,-108.449 1802.62,-113.829 1813.11,-115.315 1811.75,-108.449"/>
</g>
<!-- Node8 -->
<g id="node8" class="node"><title>Node8</title>
<g id="a_node8"><a xlink:href="agent__006_8cpp.html" target="_top" xlink:title="agent_006.cpp">
<polygon fill="white" stroke="black" points="2096.5,-56.5 2096.5,-75.5 2176.5,-75.5 2176.5,-56.5 2096.5,-56.5"/>
<text text-anchor="middle" x="2136.5" y="-63.5" font-family="Helvetica,sans-Serif" font-size="10.00">agent_006.cpp</text>
</a>
</g>
</g>
<!-- Node3&#45;&gt;Node8 -->
<g id="edge7" class="edge"><title>Node3&#45;&gt;Node8</title>
<path fill="none" stroke="midnightblue" d="M1812.61,-115.16C1875.04,-107.111 1989.89,-91.7993 2087.5,-76 2090.4,-75.5301 2093.4,-75.0263 2096.41,-74.5059"/>
<polygon fill="midnightblue" stroke="midnightblue" points="1812.15,-111.69 1802.68,-116.436 1813.04,-118.633 1812.15,-111.69"/>
</g>
<!-- Node9 -->
<g id="node9" class="node"><title>Node9</title>
<g id="a_node9"><a xlink:href="agent__008_8cpp.html" target="_top" xlink:title="agent_008.cpp">
<polygon fill="white" stroke="black" points="2194.5,-56.5 2194.5,-75.5 2274.5,-75.5 2274.5,-56.5 2194.5,-56.5"/>
<text text-anchor="middle" x="2234.5" y="-63.5" font-family="Helvetica,sans-Serif" font-size="10.00">agent_008.cpp</text>
</a>
</g>
</g>
<!-- Node3&#45;&gt;Node9 -->
<g id="edge8" class="edge"><title>Node3&#45;&gt;Node9</title>
<path fill="none" stroke="midnightblue" d="M1813.14,-117.136C1890.67,-110.458 2050.83,-95.571 2185.5,-76 2188.41,-75.5771 2191.41,-75.1077 2194.43,-74.6118"/>
<polygon fill="midnightblue" stroke="midnightblue" points="1812.43,-113.684 1802.76,-118.024 1813.03,-120.659 1812.43,-113.684"/>
</g>
<!-- Node10 -->
<g id="node10" class="node"><title>Node10</title>
<g id="a_node10"><a xlink:href="agent__add__soh_8cpp.html" target="_top" xlink:title="agent_add_soh.cpp">
<polygon fill="white" stroke="black" points="2293,-56.5 2293,-75.5 2394,-75.5 2394,-56.5 2293,-56.5"/>
<text text-anchor="middle" x="2343.5" y="-63.5" font-family="Helvetica,sans-Serif" font-size="10.00">agent_add_soh.cpp</text>
</a>
</g>
</g>
<!-- Node3&#45;&gt;Node10 -->
<g id="edge9" class="edge"><title>Node3&#45;&gt;Node10</title>
<path fill="none" stroke="midnightblue" d="M1812.82,-117.937C1903.41,-111.732 2110.3,-96.5081 2283.5,-76 2286.53,-75.6408 2289.65,-75.2475 2292.79,-74.8325"/>
<polygon fill="midnightblue" stroke="midnightblue" points="1812.36,-114.46 1802.62,-118.631 1812.83,-121.444 1812.36,-114.46"/>
</g>
<!-- Node11 -->
<g id="node11" class="node"><title>Node11</title>
<g id="a_node11"><a xlink:href="agent__calc_8cpp.html" target="_top" xlink:title="Demonstration calculator Agent. ">
<polygon fill="white" stroke="black" points="2412,-56.5 2412,-75.5 2495,-75.5 2495,-56.5 2412,-56.5"/>
<text text-anchor="middle" x="2453.5" y="-63.5" font-family="Helvetica,sans-Serif" font-size="10.00">agent_calc.cpp</text>
</a>
</g>
</g>
<!-- Node3&#45;&gt;Node11 -->
<g id="edge10" class="edge"><title>Node3&#45;&gt;Node11</title>
<path fill="none" stroke="midnightblue" d="M1812.82,-119.436C1918.11,-115.509 2183.34,-103.51 2403.5,-76 2406.21,-75.661 2409,-75.2721 2411.81,-74.8504"/>
<polygon fill="midnightblue" stroke="midnightblue" points="1812.41,-115.949 1802.55,-119.813 1812.67,-122.944 1812.41,-115.949"/>
</g>
<!-- Node12 -->
<g id="node12" class="node"><title>Node12</title>
<g id="a_node12"><a xlink:href="agent__cpu__device__test_8cpp.html" target="_top" xlink:title="agent_cpu_device_test.cpp">
<polygon fill="white" stroke="black" points="2513.5,-56.5 2513.5,-75.5 2649.5,-75.5 2649.5,-56.5 2513.5,-56.5"/>
<text text-anchor="middle" x="2581.5" y="-63.5" font-family="Helvetica,sans-Serif" font-size="10.00">agent_cpu_device_test.cpp</text>
</a>
</g>
</g>
<!-- Node3&#45;&gt;Node12 -->
<g id="edge11" class="edge"><title>Node3&#45;&gt;Node12</title>
<path fill="none" stroke="midnightblue" d="M1812.97,-119.063C1929.51,-114.01 2243.5,-99.1922 2504.5,-76 2507.32,-75.7498 2510.19,-75.4801 2513.09,-75.1958"/>
<polygon fill="midnightblue" stroke="midnightblue" points="1812.49,-115.58 1802.65,-119.507 1812.79,-122.574 1812.49,-115.58"/>
</g>
<!-- Node13 -->
<g id="node13" class="node"><title>Node13</title>
<g id="a_node13"><a xlink:href="agent__receive_8cpp.html" target="_top" xlink:title="agent_receive.cpp">
<polygon fill="white" stroke="black" points="2667.5,-56.5 2667.5,-75.5 2763.5,-75.5 2763.5,-56.5 2667.5,-56.5"/>
<text text-anchor="middle" x="2715.5" y="-63.5" font-family="Helvetica,sans-Serif" font-size="10.00">agent_receive.cpp</text>
</a>
</g>
</g>
<!-- Node3&#45;&gt;Node13 -->
<g id="edge12" class="edge"><title>Node3&#45;&gt;Node13</title>
<path fill="none" stroke="midnightblue" d="M1812.9,-120.395C1945.28,-118.295 2336.03,-109.497 2658.5,-76 2661.39,-75.6998 2664.36,-75.3522 2667.35,-74.9716"/>
<polygon fill="midnightblue" stroke="midnightblue" points="1812.66,-116.898 1802.72,-120.551 1812.77,-123.897 1812.66,-116.898"/>
</g>
<!-- Node14 -->
<g id="node14" class="node"><title>Node14</title>
<g id="a_node14"><a xlink:href="agent__send_8cpp.html" target="_top" xlink:title="agent_send.cpp">
<polygon fill="white" stroke="black" points="2781.5,-56.5 2781.5,-75.5 2867.5,-75.5 2867.5,-56.5 2781.5,-56.5"/>
<text text-anchor="middle" x="2824.5" y="-63.5" font-family="Helvetica,sans-Serif" font-size="10.00">agent_send.cpp</text>
</a>
</g>
</g>
<!-- Node3&#45;&gt;Node14 -->
<g id="edge13" class="edge"><title>Node3&#45;&gt;Node14</title>
<path fill="none" stroke="midnightblue" d="M1812.89,-121.01C1956.16,-120.596 2404.12,-115.955 2772.5,-76 2775.41,-75.6839 2778.41,-75.3061 2781.43,-74.8871"/>
<polygon fill="midnightblue" stroke="midnightblue" points="1812.71,-117.511 1802.72,-121.034 1812.72,-124.511 1812.71,-117.511"/>
</g>
<!-- Node15 -->
<g id="node15" class="node"><title>Node15</title>
<g id="a_node15"><a xlink:href="propagator__simple_8cpp.html" target="_top" xlink:title="propagator_simple.cpp">
<polygon fill="white" stroke="black" points="218,-56.5 218,-75.5 333,-75.5 333,-56.5 218,-56.5"/>
<text text-anchor="middle" x="275.5" y="-63.5" font-family="Helvetica,sans-Serif" font-size="10.00">propagator_simple.cpp</text>
</a>
</g>
</g>
<!-- Node3&#45;&gt;Node15 -->
<g id="edge14" class="edge"><title>Node3&#45;&gt;Node15</title>
<path fill="none" stroke="midnightblue" d="M1720.24,-119.668C1551.23,-114.746 951.175,-96.7936 456.5,-76 415.321,-74.269 368.89,-71.9529 333.365,-70.1037"/>
<polygon fill="midnightblue" stroke="midnightblue" points="1720.19,-123.168 1730.29,-119.96 1720.39,-116.171 1720.19,-123.168"/>
</g>
<!-- Node16 -->
<g id="node16" class="node"><title>Node16</title>
<g id="a_node16"><a xlink:href="scheduler_8h.html" target="_top" xlink:title="Scheduler Class. ">
<polygon fill="white" stroke="red" points="772,-56.5 772,-75.5 839,-75.5 839,-56.5 772,-56.5"/>
<text text-anchor="middle" x="805.5" y="-63.5" font-family="Helvetica,sans-Serif" font-size="10.00">scheduler.h</text>
</a>
</g>
</g>
<!-- Node3&#45;&gt;Node16 -->
<g id="edge16" class="edge"><title>Node3&#45;&gt;Node16</title>
<path fill="none" stroke="midnightblue" d="M1720.01,-121.377C1584.74,-121.906 1179.83,-119.452 847.5,-76 844.838,-75.652 842.094,-75.2238 839.344,-74.745"/>
<polygon fill="midnightblue" stroke="midnightblue" points="1720.42,-124.875 1730.4,-121.328 1720.39,-117.876 1720.42,-124.875"/>
</g>
<!-- Node17 -->
<g id="node17" class="node"><title>Node17</title>
<g id="a_node17"><a xlink:href="acq__a35_8cpp.html" target="_top" xlink:title="acq_a35.cpp">
<polygon fill="white" stroke="black" points="2888.5,-0.5 2888.5,-19.5 2960.5,-19.5 2960.5,-0.5 2888.5,-0.5"/>
<text text-anchor="middle" x="2924.5" y="-7.5" font-family="Helvetica,sans-Serif" font-size="10.00">acq_a35.cpp</text>
</a>
</g>
</g>
<!-- Node3&#45;&gt;Node17 -->
<g id="edge17" class="edge"><title>Node3&#45;&gt;Node17</title>
<path fill="none" stroke="midnightblue" d="M1812.68,-120.24C2016.65,-116.742 2828.85,-101.272 2876.5,-76 2899.8,-63.6436 2914.76,-34.3807 2921.07,-19.7067"/>
<polygon fill="midnightblue" stroke="midnightblue" points="1812.54,-116.742 1802.6,-120.412 1812.66,-123.741 1812.54,-116.742"/>
</g>
<!-- Node18 -->
<g id="node18" class="node"><title>Node18</title>
<g id="a_node18"><a xlink:href="acq__a35_8h.html" target="_top" xlink:title="acq_a35.h">
<polygon fill="white" stroke="black" points="2923.5,-56.5 2923.5,-75.5 2985.5,-75.5 2985.5,-56.5 2923.5,-56.5"/>
<text text-anchor="middle" x="2954.5" y="-63.5" font-family="Helvetica,sans-Serif" font-size="10.00">acq_a35.h</text>
</a>
</g>
</g>
<!-- Node3&#45;&gt;Node18 -->
<g id="edge18" class="edge"><title>Node3&#45;&gt;Node18</title>
<path fill="none" stroke="midnightblue" d="M1812.94,-120.152C1999.11,-116.601 2691.75,-101.896 2909.5,-76 2913.93,-75.4731 2918.58,-74.746 2923.13,-73.9316"/>
<polygon fill="midnightblue" stroke="midnightblue" points="1812.61,-116.658 1802.68,-120.346 1812.74,-123.656 1812.61,-116.658"/>
</g>
<!-- Node19 -->
<g id="node19" class="node"><title>Node19</title>
<g id="a_node19"><a xlink:href="command__queue_8h.html" target="_top" xlink:title="Command Queue Class. ">
<polygon fill="white" stroke="red" points="857,-56.5 857,-75.5 956,-75.5 956,-56.5 857,-56.5"/>
<text text-anchor="middle" x="906.5" y="-63.5" font-family="Helvetica,sans-Serif" font-size="10.00">command_queue.h</text>
</a>
</g>
</g>
<!-- Node3&#45;&gt;Node19 -->
<g id="edge20" class="edge"><title>Node3&#45;&gt;Node19</title>
<path fill="none" stroke="midnightblue" d="M1720.29,-119.943C1597.25,-116.797 1251.55,-105.784 965.5,-76 962.408,-75.6781 959.231,-75.308 956.03,-74.9055"/>
<polygon fill="midnightblue" stroke="midnightblue" points="1720.39,-123.447 1730.48,-120.199 1720.57,-116.449 1720.39,-123.447"/>
</g>
<!-- Node20 -->
<g id="node20" class="node"><title>Node20</title>
<g id="a_node20"><a xlink:href="agent__exec_8cpp.html" target="_top" xlink:title="Executive Agent source file. ">
<polygon fill="white" stroke="black" points="938.5,-0.5 938.5,-19.5 1024.5,-19.5 1024.5,-0.5 938.5,-0.5"/>
<text text-anchor="middle" x="981.5" y="-7.5" font-family="Helvetica,sans-Serif" font-size="10.00">agent_exec.cpp</text>
</a>
</g>
</g>
<!-- Node3&#45;&gt;Node20 -->
<g id="edge27" class="edge"><title>Node3&#45;&gt;Node20</title>
<path fill="none" stroke="midnightblue" d="M1802.35,-108.742C1832.64,-96.5603 1868.2,-76.7439 1848.5,-56 1819.86,-25.8387 1195.94,-14.2332 1024.66,-11.6091"/>
<polygon fill="midnightblue" stroke="midnightblue" points="1800.86,-105.567 1792.78,-112.421 1803.37,-112.101 1800.86,-105.567"/>
</g>
<!-- Node21 -->
<g id="node21" class="node"><title>Node21</title>
<g id="a_node21"><a xlink:href="agent__monitor_8cpp.html" target="_top" xlink:title="agent_monitor.cpp">
<polygon fill="white" stroke="black" points="695,-0.5 695,-19.5 792,-19.5 792,-0.5 695,-0.5"/>
<text text-anchor="middle" x="743.5" y="-7.5" font-family="Helvetica,sans-Serif" font-size="10.00">agent_monitor.cpp</text>
</a>
</g>
</g>
<!-- Node3&#45;&gt;Node21 -->
<g id="edge33" class="edge"><title>Node3&#45;&gt;Node21</title>
<path fill="none" stroke="midnightblue" d="M1720.19,-120.413C1527.9,-117.787 800.59,-105.905 762.5,-76 745.3,-62.4959 743.064,-34.3019 743.127,-19.893"/>
<polygon fill="midnightblue" stroke="midnightblue" points="1720.21,-123.914 1730.26,-120.549 1720.3,-116.914 1720.21,-123.914"/>
</g>
<!-- Node22 -->
<g id="node22" class="node"><title>Node22</title>
<g id="a_node22"><a xlink:href="agent__time_8cpp.html" target="_top" xlink:title="agent_time.cpp">
<polygon fill="white" stroke="black" points="837,-0.5 837,-19.5 920,-19.5 920,-0.5 837,-0.5"/>
<text text-anchor="middle" x="878.5" y="-7.5" font-family="Helvetica,sans-Serif" font-size="10.00">agent_time.cpp</text>
</a>
</g>
</g>
<!-- Node3&#45;&gt;Node22 -->
<g id="edge35" class="edge"><title>Node3&#45;&gt;Node22</title>
<path fill="none" stroke="midnightblue" d="M1789.41,-106.753C1808.72,-93.0453 1830.95,-72.0885 1815.5,-56 1781.38,-20.4658 978.478,-25.2925 929.5,-20 926.461,-19.6716 923.329,-19.2717 920.184,-18.825"/>
<polygon fill="midnightblue" stroke="midnightblue" points="1787.22,-104.006 1780.88,-112.497 1791.13,-109.811 1787.22,-104.006"/>
</g>
<!-- Node23 -->
<g id="node23" class="node"><title>Node23</title>
<g id="a_node23"><a xlink:href="agent_8cpp.html" target="_top" xlink:title="Agent control program source. ">
<polygon fill="white" stroke="black" points="656,-56.5 656,-75.5 715,-75.5 715,-56.5 656,-56.5"/>
<text text-anchor="middle" x="685.5" y="-63.5" font-family="Helvetica,sans-Serif" font-size="10.00">agent.cpp</text>
</a>
</g>
</g>
<!-- Node3&#45;&gt;Node23 -->
<g id="edge24" class="edge"><title>Node3&#45;&gt;Node23</title>
<path fill="none" stroke="midnightblue" d="M1719.63,-121.6C1572.9,-122.917 1109.44,-122.802 729.5,-76 724.857,-75.428 719.973,-74.6298 715.217,-73.7428"/>
<polygon fill="midnightblue" stroke="midnightblue" points="1720.08,-125.096 1730.05,-121.499 1720.02,-118.096 1720.08,-125.096"/>
</g>
<!-- Node24 -->
<g id="node24" class="node"><title>Node24</title>
<g id="a_node24"><a xlink:href="agent__cpu_8cpp.html" target="_top" xlink:title="agent_cpu.cpp">
<polygon fill="white" stroke="black" points="974.5,-56.5 974.5,-75.5 1054.5,-75.5 1054.5,-56.5 974.5,-56.5"/>
<text text-anchor="middle" x="1014.5" y="-63.5" font-family="Helvetica,sans-Serif" font-size="10.00">agent_cpu.cpp</text>
</a>
</g>
</g>
<!-- Node3&#45;&gt;Node24 -->
<g id="edge25" class="edge"><title>Node3&#45;&gt;Node24</title>
<path fill="none" stroke="midnightblue" d="M1720.12,-119.918C1607.32,-116.878 1309.79,-106.394 1063.5,-76 1060.58,-75.6398 1057.57,-75.2166 1054.55,-74.7533"/>
<polygon fill="midnightblue" stroke="midnightblue" points="1720.05,-123.418 1730.14,-120.182 1720.24,-116.42 1720.05,-123.418"/>
</g>
<!-- Node25 -->
<g id="node25" class="node"><title>Node25</title>
<g id="a_node25"><a xlink:href="agent__data_8cpp.html" target="_top" xlink:title="agent_data.cpp">
<polygon fill="white" stroke="black" points="466,-56.5 466,-75.5 549,-75.5 549,-56.5 466,-56.5"/>
<text text-anchor="middle" x="507.5" y="-63.5" font-family="Helvetica,sans-Serif" font-size="10.00">agent_data.cpp</text>
</a>
</g>
</g>
<!-- Node3&#45;&gt;Node25 -->
<g id="edge26" class="edge"><title>Node3&#45;&gt;Node25</title>
<path fill="none" stroke="midnightblue" d="M1720.28,-120.129C1527.91,-116.373 790.06,-100.627 558.5,-76 555.46,-75.6767 552.328,-75.2805 549.182,-74.8366"/>
<polygon fill="midnightblue" stroke="midnightblue" points="1720.27,-123.629 1730.34,-120.324 1720.41,-116.631 1720.27,-123.629"/>
</g>
<!-- Node26 -->
<g id="node26" class="node"><title>Node26</title>
<g id="a_node26"><a xlink:href="agent__file_8cpp.html" target="_top" xlink:title="File Transfer Agent source file. ">
<polygon fill="white" stroke="black" points="3105,-56.5 3105,-75.5 3182,-75.5 3182,-56.5 3105,-56.5"/>
<text text-anchor="middle" x="3143.5" y="-63.5" font-family="Helvetica,sans-Serif" font-size="10.00">agent_file.cpp</text>
</a>
</g>
</g>
<!-- Node3&#45;&gt;Node26 -->
<g id="edge28" class="edge"><title>Node3&#45;&gt;Node26</title>
<path fill="none" stroke="midnightblue" d="M1812.65,-120.402C2016.79,-117.607 2839.79,-104.745 3096.5,-76 3099.22,-75.6949 3102.03,-75.3189 3104.84,-74.8954"/>
<polygon fill="midnightblue" stroke="midnightblue" points="1812.52,-116.903 1802.57,-120.538 1812.62,-123.902 1812.52,-116.903"/>
</g>
<!-- Node27 -->
<g id="node27" class="node"><title>Node27</title>
<g id="a_node27"><a xlink:href="agent__file2_8cpp.html" target="_top" xlink:title="agent_file2.cpp">
<polygon fill="white" stroke="black" points="3200,-56.5 3200,-75.5 3283,-75.5 3283,-56.5 3200,-56.5"/>
<text text-anchor="middle" x="3241.5" y="-63.5" font-family="Helvetica,sans-Serif" font-size="10.00">agent_file2.cpp</text>
</a>
</g>
</g>
<!-- Node3&#45;&gt;Node27 -->
<g id="edge29" class="edge"><title>Node3&#45;&gt;Node27</title>
<path fill="none" stroke="midnightblue" d="M1812.78,-120.452C2025.98,-117.785 2914.93,-105.1 3191.5,-76 3194.22,-75.7139 3197.01,-75.3651 3199.82,-74.973"/>
<polygon fill="midnightblue" stroke="midnightblue" points="1812.52,-116.954 1802.56,-120.578 1812.6,-123.954 1812.52,-116.954"/>
</g>
<!-- Node28 -->
<g id="node28" class="node"><title>Node28</title>
<g id="a_node28"><a xlink:href="agent__file3_8cpp.html" target="_top" xlink:title="agent_file3.cpp">
<polygon fill="white" stroke="black" points="3301,-56.5 3301,-75.5 3384,-75.5 3384,-56.5 3301,-56.5"/>
<text text-anchor="middle" x="3342.5" y="-63.5" font-family="Helvetica,sans-Serif" font-size="10.00">agent_file3.cpp</text>
</a>
</g>
</g>
<!-- Node3&#45;&gt;Node28 -->
<g id="edge30" class="edge"><title>Node3&#45;&gt;Node28</title>
<path fill="none" stroke="midnightblue" d="M1812.8,-120.563C2035.16,-118.322 2994.89,-107 3292.5,-76 3295.22,-75.7167 3298.01,-75.3701 3300.82,-74.9796"/>
<polygon fill="midnightblue" stroke="midnightblue" points="1812.74,-117.063 1802.77,-120.663 1812.81,-124.063 1812.74,-117.063"/>
</g>
<!-- Node29 -->
<g id="node29" class="node"><title>Node29</title>
<g id="a_node29"><a xlink:href="agent__file4_8cpp.html" target="_top" xlink:title="agent_file4.cpp">
<polygon fill="white" stroke="black" points="3004,-56.5 3004,-75.5 3087,-75.5 3087,-56.5 3004,-56.5"/>
<text text-anchor="middle" x="3045.5" y="-63.5" font-family="Helvetica,sans-Serif" font-size="10.00">agent_file4.cpp</text>
</a>
</g>
</g>
<!-- Node3&#45;&gt;Node29 -->
<g id="edge31" class="edge"><title>Node3&#45;&gt;Node29</title>
<path fill="none" stroke="midnightblue" d="M1812.84,-120.159C2007.38,-116.497 2758.84,-100.99 2994.5,-76 2997.54,-75.6776 3000.67,-75.2821 3003.82,-74.8386"/>
<polygon fill="midnightblue" stroke="midnightblue" points="1812.61,-116.663 1802.67,-120.349 1812.74,-123.661 1812.61,-116.663"/>
</g>
<!-- Node30 -->
<g id="node30" class="node"><title>Node30</title>
<g id="a_node30"><a xlink:href="agent__forward_8cpp.html" target="_top" xlink:title="agent_forward.cpp">
<polygon fill="white" stroke="black" points="1073,-56.5 1073,-75.5 1170,-75.5 1170,-56.5 1073,-56.5"/>
<text text-anchor="middle" x="1121.5" y="-63.5" font-family="Helvetica,sans-Serif" font-size="10.00">agent_forward.cpp</text>
</a>
</g>
</g>
<!-- Node3&#45;&gt;Node30 -->
<g id="edge32" class="edge"><title>Node3&#45;&gt;Node30</title>
<path fill="none" stroke="midnightblue" d="M1720.34,-118.68C1621.13,-113.427 1380.28,-99.2383 1179.5,-76 1176.46,-75.6485 1173.34,-75.2558 1170.2,-74.8364"/>
<polygon fill="midnightblue" stroke="midnightblue" points="1720.17,-122.176 1730.34,-119.204 1720.53,-115.185 1720.17,-122.176"/>
</g>
<!-- Node31 -->
<g id="node31" class="node"><title>Node31</title>
<g id="a_node31"><a xlink:href="agent__route_8cpp.html" target="_top" xlink:title="agent_route.cpp">
<polygon fill="white" stroke="black" points="1188.5,-56.5 1188.5,-75.5 1274.5,-75.5 1274.5,-56.5 1188.5,-56.5"/>
<text text-anchor="middle" x="1231.5" y="-63.5" font-family="Helvetica,sans-Serif" font-size="10.00">agent_route.cpp</text>
</a>
</g>
</g>
<!-- Node3&#45;&gt;Node31 -->
<g id="edge34" class="edge"><title>Node3&#45;&gt;Node31</title>
<path fill="none" stroke="midnightblue" d="M1720.11,-117.895C1633.88,-111.853 1443.18,-97.2237 1283.5,-76 1280.59,-75.6137 1277.6,-75.1834 1274.59,-74.726"/>
<polygon fill="midnightblue" stroke="midnightblue" points="1720.12,-121.404 1730.34,-118.606 1720.61,-114.421 1720.12,-121.404"/>
</g>
<!-- Node32 -->
<g id="node32" class="node"><title>Node32</title>
<g id="a_node32"><a xlink:href="agent__tunnel_8cpp.html" target="_top" xlink:title="agent_tunnel.cpp">
<polygon fill="white" stroke="black" points="1293,-56.5 1293,-75.5 1384,-75.5 1384,-56.5 1293,-56.5"/>
<text text-anchor="middle" x="1338.5" y="-63.5" font-family="Helvetica,sans-Serif" font-size="10.00">agent_tunnel.cpp</text>
</a>
</g>
</g>
<!-- Node3&#45;&gt;Node32 -->
<g id="edge36" class="edge"><title>Node3&#45;&gt;Node32</title>
<path fill="none" stroke="midnightblue" d="M1720.1,-116.038C1649.48,-108.342 1510.82,-92.6685 1393.5,-76 1390.43,-75.5645 1387.28,-75.0972 1384.1,-74.6129"/>
<polygon fill="midnightblue" stroke="midnightblue" points="1720.11,-119.559 1730.43,-117.159 1720.86,-112.6 1720.11,-119.559"/>
</g>
<!-- Node33 -->
<g id="node33" class="node"><title>Node33</title>
<g id="a_node33"><a xlink:href="agent__tunnel2_8cpp.html" target="_top" xlink:title="agent_tunnel2.cpp">
<polygon fill="white" stroke="black" points="1402.5,-56.5 1402.5,-75.5 1498.5,-75.5 1498.5,-56.5 1402.5,-56.5"/>
<text text-anchor="middle" x="1450.5" y="-63.5" font-family="Helvetica,sans-Serif" font-size="10.00">agent_tunnel2.cpp</text>
</a>
</g>
</g>
<!-- Node3&#45;&gt;Node33 -->
<g id="edge37" class="edge"><title>Node3&#45;&gt;Node33</title>
<path fill="none" stroke="midnightblue" d="M1720.06,-113.063C1660.78,-102.934 1558.75,-85.4987 1498.67,-75.2308"/>
<polygon fill="midnightblue" stroke="midnightblue" points="1719.8,-116.571 1730.25,-114.806 1720.98,-109.671 1719.8,-116.571"/>
</g>
<!-- Node34 -->
<g id="node34" class="node"><title>Node34</title>
<g id="a_node34"><a xlink:href="cosmos_8cpp.html" target="_top" xlink:title="cosmos.cpp">
<polygon fill="white" stroke="black" points="567.5,-56.5 567.5,-75.5 637.5,-75.5 637.5,-56.5 567.5,-56.5"/>
<text text-anchor="middle" x="602.5" y="-63.5" font-family="Helvetica,sans-Serif" font-size="10.00">cosmos.cpp</text>
</a>
</g>
</g>
<!-- Node3&#45;&gt;Node34 -->
<g id="edge38" class="edge"><title>Node3&#45;&gt;Node34</title>
<path fill="none" stroke="midnightblue" d="M1720.38,-120.142C1537.05,-116.577 859.57,-101.899 646.5,-76 643.714,-75.6613 640.841,-75.2399 637.961,-74.7657"/>
<polygon fill="midnightblue" stroke="midnightblue" points="1720.42,-123.643 1730.49,-120.337 1720.56,-116.645 1720.42,-123.643"/>
</g>
<!-- Node35 -->
<g id="node35" class="node"><title>Node35</title>
<g id="a_node35"><a xlink:href="agent__antenna_8cpp.html" target="_top" xlink:title="Agent Antenna for Satellite Ground Station. ">
<polygon fill="white" stroke="black" points="101,-56.5 101,-75.5 200,-75.5 200,-56.5 101,-56.5"/>
<text text-anchor="middle" x="150.5" y="-63.5" font-family="Helvetica,sans-Serif" font-size="10.00">agent_antenna.cpp</text>
</a>
</g>
</g>
<!-- Node3&#45;&gt;Node35 -->
<g id="edge39" class="edge"><title>Node3&#45;&gt;Node35</title>
<path fill="none" stroke="midnightblue" d="M1720.35,-120.447C1495.5,-117.632 513.216,-103.932 208.5,-76 205.76,-75.7489 202.953,-75.4506 200.124,-75.1179"/>
<polygon fill="midnightblue" stroke="midnightblue" points="1720.44,-123.948 1730.48,-120.573 1720.52,-116.949 1720.44,-123.948"/>
</g>
<!-- Node36 -->
<g id="node36" class="node"><title>Node36</title>
<g id="a_node36"><a xlink:href="agent__control_8cpp.html" target="_top" xlink:title="Agent Control for Satellite Ground Station. ">
<polygon fill="white" stroke="black" points="1516.5,-56.5 1516.5,-75.5 1610.5,-75.5 1610.5,-56.5 1516.5,-56.5"/>
<text text-anchor="middle" x="1563.5" y="-63.5" font-family="Helvetica,sans-Serif" font-size="10.00">agent_control.cpp</text>
</a>
</g>
</g>
<!-- Node3&#45;&gt;Node36 -->
<g id="edge40" class="edge"><title>Node3&#45;&gt;Node36</title>
<path fill="none" stroke="midnightblue" d="M1724.51,-109.829C1686.18,-99.6333 1630.35,-84.7823 1595.52,-75.5164"/>
<polygon fill="midnightblue" stroke="midnightblue" points="1723.77,-113.255 1734.33,-112.444 1725.57,-106.49 1723.77,-113.255"/>
</g>
<!-- Node37 -->
<g id="node37" class="node"><title>Node37</title>
<g id="a_node37"><a xlink:href="agent__kpc9612p_8cpp.html" target="_top" xlink:title="agent_kpc9612p.cpp">
<polygon fill="white" stroke="black" points="3402,-56.5 3402,-75.5 3509,-75.5 3509,-56.5 3402,-56.5"/>
<text text-anchor="middle" x="3455.5" y="-63.5" font-family="Helvetica,sans-Serif" font-size="10.00">agent_kpc9612p.cpp</text>
</a>
</g>
</g>
<!-- Node3&#45;&gt;Node37 -->
<g id="edge41" class="edge"><title>Node3&#45;&gt;Node37</title>
<path fill="none" stroke="midnightblue" d="M1812.82,-120.449C2043.98,-117.587 3074.29,-103.488 3393.5,-76 3396.21,-75.7667 3398.98,-75.4931 3401.78,-75.1894"/>
<polygon fill="midnightblue" stroke="midnightblue" points="1812.69,-116.95 1802.73,-120.573 1812.78,-123.95 1812.69,-116.95"/>
</g>
<!-- Node18&#45;&gt;Node17 -->
<g id="edge19" class="edge"><title>Node18&#45;&gt;Node17</title>
<path fill="none" stroke="midnightblue" d="M2944.65,-47.2747C2939.53,-38.0454 2933.48,-27.1703 2929.36,-19.7511"/>
<polygon fill="midnightblue" stroke="midnightblue" points="2941.63,-49.0412 2949.55,-56.083 2947.75,-45.6416 2941.63,-49.0412"/>
</g>
<!-- Node19&#45;&gt;Node20 -->
<g id="edge21" class="edge"><title>Node19&#45;&gt;Node20</title>
<path fill="none" stroke="midnightblue" d="M926.805,-50.3804C940.361,-40.6204 957.742,-28.1057 969.231,-19.8339"/>
<polygon fill="midnightblue" stroke="midnightblue" points="924.62,-47.6405 918.55,-56.324 928.71,-53.3213 924.62,-47.6405"/>
</g>
<!-- Node19&#45;&gt;Node21 -->
<g id="edge22" class="edge"><title>Node19&#45;&gt;Node21</title>
<path fill="none" stroke="midnightblue" d="M870.797,-53.172C840.104,-43.0039 796.581,-28.5852 769.207,-19.5164"/>
<polygon fill="midnightblue" stroke="midnightblue" points="870.079,-56.6211 880.672,-56.4435 872.28,-49.9762 870.079,-56.6211"/>
</g>
<!-- Node19&#45;&gt;Node22 -->
<g id="edge23" class="edge"><title>Node19&#45;&gt;Node22</title>
<path fill="none" stroke="midnightblue" d="M897.158,-46.9827C892.405,-37.8168 886.844,-27.0922 883.038,-19.7511"/>
<polygon fill="midnightblue" stroke="midnightblue" points="894.166,-48.8166 901.876,-56.083 900.38,-45.5943 894.166,-48.8166"/>
</g>
<!-- Node38&#45;&gt;Node35 -->
<g id="edge43" class="edge"><title>Node38&#45;&gt;Node35</title>
<path fill="none" stroke="midnightblue" d="M166.362,-102.69C162.317,-93.589 157.617,-83.0141 154.389,-75.7511"/>
<polygon fill="midnightblue" stroke="midnightblue" points="163.277,-104.366 170.537,-112.083 169.674,-101.523 163.277,-104.366"/>
</g>
<!-- Node40&#45;&gt;Node37 -->
<g id="edge46" class="edge"><title>Node40&#45;&gt;Node37</title>
<path fill="none" stroke="midnightblue" d="M3391.22,-106.901C3407.17,-96.9986 3428,-84.0705 3441.56,-75.6545"/>
<polygon fill="midnightblue" stroke="midnightblue" points="3389.13,-104.077 3382.48,-112.324 3392.82,-110.024 3389.13,-104.077"/>
</g>
<!-- Node43&#45;&gt;Node35 -->
<g id="edge50" class="edge"><title>Node43&#45;&gt;Node35</title>
<path fill="none" stroke="midnightblue" d="M238.019,-108.096C216.534,-98.0073 187.278,-84.2697 168.637,-75.5164"/>
<polygon fill="midnightblue" stroke="midnightblue" points="236.738,-111.361 247.278,-112.444 239.714,-105.025 236.738,-111.361"/>
</g>
<!-- Node45&#45;&gt;Node15 -->
<g id="edge53" class="edge"><title>Node45&#45;&gt;Node15</title>
<path fill="none" stroke="midnightblue" d="M332.465,-158.704C327.679,-145.308 320.337,-126.937 311.5,-112 303.451,-98.3948 291.624,-84.4421 283.749,-75.7534"/>
<polygon fill="midnightblue" stroke="midnightblue" points="329.175,-159.901 335.735,-168.22 335.796,-157.626 329.175,-159.901"/>
</g>
<!-- Node45&#45;&gt;Node38 -->
<g id="edge54" class="edge"><title>Node45&#45;&gt;Node38</title>
<path fill="none" stroke="midnightblue" d="M302.98,-165.304C272.078,-155.129 228.027,-140.625 200.365,-131.516"/>
<polygon fill="midnightblue" stroke="midnightblue" points="301.921,-168.64 312.514,-168.444 304.11,-161.992 301.921,-168.64"/>
</g>
<!-- Node45&#45;&gt;Node42 -->
<g id="edge55" class="edge"><title>Node45&#45;&gt;Node42</title>
<path fill="none" stroke="midnightblue" d="M356.491,-161.82C367.958,-152.145 382.413,-139.948 392.03,-131.834"/>
<polygon fill="midnightblue" stroke="midnightblue" points="354.169,-159.2 348.783,-168.324 358.683,-164.55 354.169,-159.2"/>
</g>
<!-- Node45&#45;&gt;Node43 -->
<g id="edge56" class="edge"><title>Node45&#45;&gt;Node43</title>
<path fill="none" stroke="midnightblue" d="M318.358,-162.101C305.221,-152.382 288.518,-140.027 277.442,-131.834"/>
<polygon fill="midnightblue" stroke="midnightblue" points="316.65,-165.191 326.771,-168.324 320.813,-159.563 316.65,-165.191"/>
</g>
<!-- Node45&#45;&gt;Node44 -->
<g id="edge57" class="edge"><title>Node45&#45;&gt;Node44</title>
<path fill="none" stroke="midnightblue" d="M373.765,-165.172C404.081,-155.004 447.07,-140.585 474.108,-131.516"/>
<polygon fill="midnightblue" stroke="midnightblue" points="372.379,-161.945 364.011,-168.444 374.605,-168.582 372.379,-161.945"/>
</g>
<!-- Node47&#45;&gt;Node15 -->
<g id="edge60" class="edge"><title>Node47&#45;&gt;Node15</title>
<path fill="none" stroke="midnightblue" d="M541.828,-112C463.922,-95.9092 385.048,-83.2361 333.035,-75.3694"/>
<polygon fill="midnightblue" stroke="midnightblue" points="541.313,-115.468 551.817,-114.083 542.742,-108.615 541.313,-115.468"/>
</g>
<!-- Node47&#45;&gt;Node20 -->
<g id="edge63" class="edge"><title>Node47&#45;&gt;Node20</title>
<path fill="none" stroke="midnightblue" d="M542.196,-109.925C508.138,-99.1712 461.67,-83.4169 456.5,-76 451.417,-68.7077 450.458,-62.52 456.5,-56 492.249,-17.4202 876.295,-26.4095 928.5,-20 931.742,-19.6019 935.089,-19.1445 938.45,-18.6513"/>
<polygon fill="midnightblue" stroke="midnightblue" points="541.279,-113.305 551.868,-112.95 543.369,-106.624 541.279,-113.305"/>
</g>
<!-- Node47&#45;&gt;Node21 -->
<g id="edge64" class="edge"><title>Node47&#45;&gt;Node21</title>
<path fill="none" stroke="midnightblue" d="M541.522,-112.032C459.774,-95.9943 338.5,-109.277 385.5,-56 405.65,-33.1582 601.835,-19.0492 694.933,-13.5886"/>
<polygon fill="midnightblue" stroke="midnightblue" points="541.263,-115.557 551.778,-114.258 542.748,-108.716 541.263,-115.557"/>
</g>
<!-- Node47&#45;&gt;Node22 -->
<g id="edge65" class="edge"><title>Node47&#45;&gt;Node22</title>
<path fill="none" stroke="midnightblue" d="M542.067,-111.597C497.41,-99.9 427.159,-80.872 423.5,-76 418.162,-68.8922 417.521,-62.5774 423.5,-56 451.805,-24.8632 758.652,-24.4119 800.5,-20 812.294,-18.7566 825.08,-17.3189 836.822,-15.9625"/>
<polygon fill="midnightblue" stroke="midnightblue" points="541.433,-115.049 551.993,-114.186 543.201,-108.275 541.433,-115.049"/>
</g>
<!-- Node47&#45;&gt;Node23 -->
<g id="edge61" class="edge"><title>Node47&#45;&gt;Node23</title>
<path fill="none" stroke="midnightblue" d="M604.802,-107.726C624.615,-97.7271 651.207,-84.3065 668.351,-75.6545"/>
<polygon fill="midnightblue" stroke="midnightblue" points="603.042,-104.694 595.691,-112.324 606.196,-110.943 603.042,-104.694"/>
</g>
<!-- Node47&#45;&gt;Node25 -->
<g id="edge62" class="edge"><title>Node47&#45;&gt;Node25</title>
<path fill="none" stroke="midnightblue" d="M558.91,-106.101C546.132,-96.3824 529.887,-84.0269 519.115,-75.8339"/>
<polygon fill="midnightblue" stroke="midnightblue" points="557.014,-109.056 567.093,-112.324 561.252,-103.484 557.014,-109.056"/>
</g>
<!-- Node47&#45;&gt;Node34 -->
<g id="edge66" class="edge"><title>Node47&#45;&gt;Node34</title>
<path fill="none" stroke="midnightblue" d="M586.638,-102.69C590.683,-93.589 595.383,-83.0141 598.611,-75.7511"/>
<polygon fill="midnightblue" stroke="midnightblue" points="583.326,-101.523 582.463,-112.083 589.723,-104.366 583.326,-101.523"/>
</g>
<!-- Node50&#45;&gt;Node3 -->
<g id="edge70" class="edge"><title>Node50&#45;&gt;Node3</title>
<path fill="none" stroke="midnightblue" d="M1532.66,-168.829C1533.95,-168.546 1535.24,-168.269 1536.5,-168 1604.75,-153.453 1684.78,-138.201 1730.17,-129.717"/>
<polygon fill="midnightblue" stroke="midnightblue" points="1531.64,-165.469 1522.65,-171.066 1533.17,-172.301 1531.64,-165.469"/>
</g>
<!-- Node50&#45;&gt;Node26 -->
<g id="edge71" class="edge"><title>Node50&#45;&gt;Node26</title>
<path fill="none" stroke="midnightblue" d="M1532.62,-168.6C1533.93,-168.382 1535.22,-168.18 1536.5,-168 1832.66,-126.216 1909.91,-149.412 2208.5,-132 2603.28,-108.978 2704.19,-125.73 3096.5,-76 3099.22,-75.6552 3102.02,-75.2498 3104.83,-74.8051"/>
<polygon fill="midnightblue" stroke="midnightblue" points="1531.71,-165.211 1522.56,-170.545 1533.04,-172.084 1531.71,-165.211"/>
</g>
<!-- Node50&#45;&gt;Node27 -->
<g id="edge72" class="edge"><title>Node50&#45;&gt;Node27</title>
<path fill="none" stroke="midnightblue" d="M1532.62,-168.576C1533.92,-168.364 1535.22,-168.171 1536.5,-168 1946.5,-113.252 2053.55,-155.932 2466.5,-132 2789.14,-113.302 2870.95,-117.123 3191.5,-76 3194.21,-75.6521 3197,-75.2565 3199.81,-74.8298"/>
<polygon fill="midnightblue" stroke="midnightblue" points="1531.72,-165.183 1522.55,-170.489 1533.03,-172.06 1531.72,-165.183"/>
</g>
<!-- Node50&#45;&gt;Node28 -->
<g id="edge73" class="edge"><title>Node50&#45;&gt;Node28</title>
<path fill="none" stroke="midnightblue" d="M1532.61,-168.565C1533.92,-168.356 1535.22,-168.166 1536.5,-168 2032.57,-103.45 2162.15,-162.123 2661.5,-132 2942.54,-115.046 3013.45,-113.42 3292.5,-76 3295.21,-75.6366 3298,-75.2292 3300.8,-74.7939"/>
<polygon fill="midnightblue" stroke="midnightblue" points="1531.72,-165.171 1522.54,-170.464 1533.02,-172.05 1531.72,-165.171"/>
</g>
<!-- Node50&#45;&gt;Node29 -->
<g id="edge74" class="edge"><title>Node50&#45;&gt;Node29</title>
<path fill="none" stroke="midnightblue" d="M1532.62,-168.616C1533.93,-168.393 1535.22,-168.186 1536.5,-168 2178.98,-74.242 2349.79,-152.983 2994.5,-76 2997.54,-75.6376 3000.66,-75.2126 3003.81,-74.7482"/>
<polygon fill="midnightblue" stroke="midnightblue" points="1531.7,-165.229 1522.56,-170.581 1533.05,-172.099 1531.7,-165.229"/>
</g>
</g>
</svg>
