<?xml version="1.0" encoding="UTF-8" standalone="no"?>
<!DOCTYPE svg PUBLIC "-//W3C//DTD SVG 1.1//EN"
 "http://www.w3.org/Graphics/SVG/1.1/DTD/svg11.dtd">
<!-- Generated by graphviz version 2.38.0 (20140413.2041)
 -->
<!-- Title: cssl_lib.cpp Pages: 1 -->
<!--zoomable 375 -->
<svg id="main" version="1.1" xmlns="http://www.w3.org/2000/svg" xmlns:xlink="http://www.w3.org/1999/xlink" xml:space="preserve" onload="init(evt)">
<style type="text/css"><![CDATA[
.edge:hover path { stroke: red; }
.edge:hover polygon { stroke: red; fill: red; }
]]></style>
<script type="text/javascript"><![CDATA[
var edges = document.getElementsByTagName('g');
if (edges && edges.length) {
  for (var i=0;i<edges.length;i++) {
    if (edges[i].id.substr(0,4)=='edge') {
      edges[i].setAttribute('class','edge');
    }
  }
}
]]></script>
        <defs>
                <circle id="rim" cx="0" cy="0" r="7"/>
                <circle id="rim2" cx="0" cy="0" r="3.5"/>
                <g id="zoomPlus">
                        <use xlink:href="#rim" fill="#404040">
                                <set attributeName="fill" to="#808080" begin="zoomplus.mouseover" end="zoomplus.mouseout"/>
                        </use>
                        <path d="M-4,0h8M0,-4v8" fill="none" stroke="white" stroke-width="1.5" pointer-events="none"/>
                </g>
                <g id="zoomMin">
                        <use xlink:href="#rim" fill="#404040">
                                <set attributeName="fill" to="#808080" begin="zoomminus.mouseover" end="zoomminus.mouseout"/>
                        </use>
                        <path d="M-4,0h8" fill="none" stroke="white" stroke-width="1.5" pointer-events="none"/>
                </g>
                <g id="dirArrow">
                        <path fill="none" stroke="white" stroke-width="1.5" d="M0,-3.0v7 M-2.5,-0.5L0,-3.0L2.5,-0.5"/>
                </g>
               <g id="resetDef">
                       <use xlink:href="#rim2" fill="#404040">
                               <set attributeName="fill" to="#808080" begin="reset.mouseover" end="reset.mouseout"/>
                       </use>
               </g>
        </defs>

<script type="text/javascript">
var viewWidth = 1458;
var viewHeight = 375;
var sectionId = 'dynsection-0';
</script>
<script xlink:href="svgpan.js"/>
<svg id="graph" class="graph">
<g id="viewport">
<title>cssl_lib.cpp</title>
<polygon fill="white" stroke="none" points="-4,4 -4,-371 1454,-371 1454,4 -4,4"/>
<!-- Node1 -->
<g id="node1" class="node"><title>Node1</title>
<polygon fill="#bfbfbf" stroke="black" points="890,-347.5 890,-366.5 958,-366.5 958,-347.5 890,-347.5"/>
<text text-anchor="middle" x="924" y="-354.5" font-family="Helvetica,sans-Serif" font-size="10.00">cssl_lib.cpp</text>
</g>
<!-- Node2 -->
<g id="node2" class="node"><title>Node2</title>
<g id="a_node2"><a xlink:href="config_cosmos_8h.html" target="_top" xlink:title="Headers and definitions common to all COSMOS. ">
<polygon fill="white" stroke="black" points="691.5,-112.5 691.5,-131.5 814.5,-131.5 814.5,-112.5 691.5,-112.5"/>
<text text-anchor="middle" x="753" y="-119.5" font-family="Helvetica,sans-Serif" font-size="10.00">support/configCosmos.h</text>
</a>
</g>
</g>
<!-- Node1&#45;&gt;Node2 -->
<g id="edge1" class="edge"><title>Node1&#45;&gt;Node2</title>
<path fill="none" stroke="midnightblue" d="M889.981,-356.073C854.927,-354.155 801.505,-345.287 773,-311 732.115,-261.822 741.88,-178.598 748.879,-141.641"/>
<polygon fill="midnightblue" stroke="midnightblue" points="752.328,-142.245 750.903,-131.746 745.47,-140.842 752.328,-142.245"/>
</g>
<!-- Node11 -->
<g id="node11" class="node"><title>Node11</title>
<polygon fill="white" stroke="#bfbfbf" points="1404,-56.5 1404,-75.5 1450,-75.5 1450,-56.5 1404,-56.5"/>
<text text-anchor="middle" x="1427" y="-63.5" font-family="Helvetica,sans-Serif" font-size="10.00">cstring</text>
</g>
<!-- Node1&#45;&gt;Node11 -->
<g id="edge34" class="edge"><title>Node1&#45;&gt;Node11</title>
<path fill="none" stroke="midnightblue" d="M958.099,-351.604C1045.92,-339.337 1273,-301.213 1273,-235 1273,-235 1273,-235 1273,-177 1273,-146.313 1354.99,-101.844 1399.32,-80.0426"/>
<polygon fill="midnightblue" stroke="midnightblue" points="1400.96,-83.1396 1408.42,-75.6242 1397.9,-76.8423 1400.96,-83.1396"/>
</g>
<!-- Node16 -->
<g id="node16" class="node"><title>Node16</title>
<polygon fill="white" stroke="#bfbfbf" points="0,-56.5 0,-75.5 44,-75.5 44,-56.5 0,-56.5"/>
<text text-anchor="middle" x="22" y="-63.5" font-family="Helvetica,sans-Serif" font-size="10.00">fcntl.h</text>
</g>
<!-- Node1&#45;&gt;Node16 -->
<g id="edge36" class="edge"><title>Node1&#45;&gt;Node16</title>
<path fill="none" stroke="midnightblue" d="M889.825,-356.217C765.284,-356.105 343,-347.434 343,-235 343,-235 343,-235 343,-177 343,-169.409 134.779,-102.692 53.7378,-77.0134"/>
<polygon fill="midnightblue" stroke="midnightblue" points="54.6537,-73.6322 44.0636,-73.9516 52.5414,-80.306 54.6537,-73.6322"/>
</g>
<!-- Node28 -->
<g id="node28" class="node"><title>Node28</title>
<polygon fill="white" stroke="#bfbfbf" points="901,-286 901,-305 947,-305 947,-286 901,-286"/>
<text text-anchor="middle" x="924" y="-293" font-family="Helvetica,sans-Serif" font-size="10.00">stdio.h</text>
</g>
<!-- Node1&#45;&gt;Node28 -->
<g id="edge33" class="edge"><title>Node1&#45;&gt;Node28</title>
<path fill="none" stroke="midnightblue" d="M924,-347.475C924,-339.08 924,-325.981 924,-315.163"/>
<polygon fill="midnightblue" stroke="midnightblue" points="927.5,-315.009 924,-305.009 920.5,-315.009 927.5,-315.009"/>
</g>
<!-- Node29 -->
<g id="node29" class="node"><title>Node29</title>
<polygon fill="white" stroke="#bfbfbf" points="965,-286 965,-305 1025,-305 1025,-286 965,-286"/>
<text text-anchor="middle" x="995" y="-293" font-family="Helvetica,sans-Serif" font-size="10.00">sys/stat.h</text>
</g>
<!-- Node1&#45;&gt;Node29 -->
<g id="edge35" class="edge"><title>Node1&#45;&gt;Node29</title>
<path fill="none" stroke="midnightblue" d="M934.173,-347.475C945.35,-338.108 963.517,-322.884 977.091,-311.508"/>
<polygon fill="midnightblue" stroke="midnightblue" points="979.43,-314.115 984.846,-305.009 974.934,-308.75 979.43,-314.115"/>
</g>
<!-- Node30 -->
<g id="node30" class="node"><title>Node30</title>
<polygon fill="white" stroke="#bfbfbf" points="1043,-286 1043,-305 1091,-305 1091,-286 1043,-286"/>
<text text-anchor="middle" x="1067" y="-293" font-family="Helvetica,sans-Serif" font-size="10.00">stdlib.h</text>
</g>
<!-- Node1&#45;&gt;Node30 -->
<g id="edge37" class="edge"><title>Node1&#45;&gt;Node30</title>
<path fill="none" stroke="midnightblue" d="M945.567,-347.367C967.795,-338.426 1003.42,-323.972 1034,-311 1035.4,-310.404 1036.84,-309.791 1038.29,-309.168"/>
<polygon fill="midnightblue" stroke="midnightblue" points="1040.06,-312.213 1047.84,-305.018 1037.27,-305.793 1040.06,-312.213"/>
</g>
<!-- Node31 -->
<g id="node31" class="node"><title>Node31</title>
<g id="a_node31"><a xlink:href="cssl__lib_8h.html" target="_top" xlink:title="Simple Serial library header file. ">
<polygon fill="white" stroke="black" points="781.5,-280.5 781.5,-310.5 882.5,-310.5 882.5,-280.5 781.5,-280.5"/>
<text text-anchor="start" x="789.5" y="-298.5" font-family="Helvetica,sans-Serif" font-size="10.00">device/general/cssl</text>
<text text-anchor="middle" x="832" y="-287.5" font-family="Helvetica,sans-Serif" font-size="10.00">_lib.h</text>
</a>
</g>
</g>
<!-- Node1&#45;&gt;Node31 -->
<g id="edge38" class="edge"><title>Node1&#45;&gt;Node31</title>
<path fill="none" stroke="midnightblue" d="M910.819,-347.475C898.242,-339.341 878.836,-326.791 862.428,-316.179"/>
<polygon fill="midnightblue" stroke="midnightblue" points="863.98,-313.015 853.683,-310.523 860.179,-318.893 863.98,-313.015"/>
</g>
<!-- Node3 -->
<g id="node3" class="node"><title>Node3</title>
<polygon fill="white" stroke="#bfbfbf" points="1137.5,-56.5 1137.5,-75.5 1182.5,-75.5 1182.5,-56.5 1137.5,-56.5"/>
<text text-anchor="middle" x="1160" y="-63.5" font-family="Helvetica,sans-Serif" font-size="10.00">climits</text>
</g>
<!-- Node2&#45;&gt;Node3 -->
<g id="edge2" class="edge"><title>Node2&#45;&gt;Node3</title>
<path fill="none" stroke="midnightblue" d="M814.828,-114.373C904.279,-104.632 1065.38,-86.4739 1123,-76 1124.46,-75.734 1125.96,-75.4452 1127.46,-75.1397"/>
<polygon fill="midnightblue" stroke="midnightblue" points="1128.38,-78.5203 1137.39,-72.9454 1126.87,-71.6852 1128.38,-78.5203"/>
</g>
<!-- Node4 -->
<g id="node4" class="node"><title>Node4</title>
<polygon fill="white" stroke="#bfbfbf" points="1200.5,-56.5 1200.5,-75.5 1247.5,-75.5 1247.5,-56.5 1200.5,-56.5"/>
<text text-anchor="middle" x="1224" y="-63.5" font-family="Helvetica,sans-Serif" font-size="10.00">csignal</text>
</g>
<!-- Node2&#45;&gt;Node4 -->
<g id="edge3" class="edge"><title>Node2&#45;&gt;Node4</title>
<path fill="none" stroke="midnightblue" d="M814.564,-114.972C921.95,-104.42 1136.6,-83.1562 1190.32,-75.7207"/>
<polygon fill="midnightblue" stroke="midnightblue" points="1191.01,-79.155 1200.34,-74.1432 1189.92,-72.24 1191.01,-79.155"/>
</g>
<!-- Node5 -->
<g id="node5" class="node"><title>Node5</title>
<polygon fill="white" stroke="#bfbfbf" points="1266,-56.5 1266,-75.5 1312,-75.5 1312,-56.5 1266,-56.5"/>
<text text-anchor="middle" x="1289" y="-63.5" font-family="Helvetica,sans-Serif" font-size="10.00">cstdint</text>
</g>
<!-- Node2&#45;&gt;Node5 -->
<g id="edge4" class="edge"><title>Node2&#45;&gt;Node5</title>
<path fill="none" stroke="midnightblue" d="M814.681,-115.024C825.453,-114.001 836.552,-112.959 847,-112 1025.87,-95.5848 1075.29,-108.424 1255.61,-75.9355"/>
<polygon fill="midnightblue" stroke="midnightblue" points="1256.49,-79.3332 1265.7,-74.0958 1255.23,-72.4468 1256.49,-79.3332"/>
</g>
<!-- Node6 -->
<g id="node6" class="node"><title>Node6</title>
<polygon fill="white" stroke="#bfbfbf" points="1330,-56.5 1330,-75.5 1386,-75.5 1386,-56.5 1330,-56.5"/>
<text text-anchor="middle" x="1358" y="-63.5" font-family="Helvetica,sans-Serif" font-size="10.00">cinttypes</text>
</g>
<!-- Node2&#45;&gt;Node6 -->
<g id="edge5" class="edge"><title>Node2&#45;&gt;Node6</title>
<path fill="none" stroke="midnightblue" d="M814.672,-114.921C825.444,-113.909 836.546,-112.897 847,-112 1054.21,-94.2133 1110.58,-108.612 1319.74,-75.9482"/>
<polygon fill="midnightblue" stroke="midnightblue" points="1320.48,-79.374 1329.81,-74.3569 1319.39,-72.4597 1320.48,-79.374"/>
</g>
<!-- Node7 -->
<g id="node7" class="node"><title>Node7</title>
<polygon fill="white" stroke="#bfbfbf" points="62.5,-56.5 62.5,-75.5 105.5,-75.5 105.5,-56.5 62.5,-56.5"/>
<text text-anchor="middle" x="84" y="-63.5" font-family="Helvetica,sans-Serif" font-size="10.00">cstdio</text>
</g>
<!-- Node2&#45;&gt;Node7 -->
<g id="edge6" class="edge"><title>Node2&#45;&gt;Node7</title>
<path fill="none" stroke="midnightblue" d="M691.196,-121.163C578.209,-120.481 330.858,-114.45 115.715,-75.9522"/>
<polygon fill="midnightblue" stroke="midnightblue" points="116.283,-72.4982 105.818,-74.154 115.032,-79.3854 116.283,-72.4982"/>
</g>
<!-- Node8 -->
<g id="node8" class="node"><title>Node8</title>
<polygon fill="white" stroke="#bfbfbf" points="123.5,-56.5 123.5,-75.5 172.5,-75.5 172.5,-56.5 123.5,-56.5"/>
<text text-anchor="middle" x="148" y="-63.5" font-family="Helvetica,sans-Serif" font-size="10.00">cstddef</text>
</g>
<!-- Node2&#45;&gt;Node8 -->
<g id="edge7" class="edge"><title>Node2&#45;&gt;Node8</title>
<path fill="none" stroke="midnightblue" d="M691.156,-119.929C587.528,-117.306 372.279,-108.309 182.622,-75.9936"/>
<polygon fill="midnightblue" stroke="midnightblue" points="183.204,-72.5423 172.754,-74.2868 182.011,-79.4399 183.204,-72.5423"/>
</g>
<!-- Node9 -->
<g id="node9" class="node"><title>Node9</title>
<polygon fill="white" stroke="#bfbfbf" points="190.5,-56.5 190.5,-75.5 235.5,-75.5 235.5,-56.5 190.5,-56.5"/>
<text text-anchor="middle" x="213" y="-63.5" font-family="Helvetica,sans-Serif" font-size="10.00">cstdlib</text>
</g>
<!-- Node2&#45;&gt;Node9 -->
<g id="edge8" class="edge"><title>Node2&#45;&gt;Node9</title>
<path fill="none" stroke="midnightblue" d="M691.119,-119.22C596.837,-115.695 411.573,-105.574 245.504,-75.7256"/>
<polygon fill="midnightblue" stroke="midnightblue" points="246.07,-72.2711 235.604,-73.9182 244.812,-79.1573 246.07,-72.2711"/>
</g>
<!-- Node10 -->
<g id="node10" class="node"><title>Node10</title>
<polygon fill="white" stroke="#bfbfbf" points="254,-56.5 254,-75.5 298,-75.5 298,-56.5 254,-56.5"/>
<text text-anchor="middle" x="276" y="-63.5" font-family="Helvetica,sans-Serif" font-size="10.00">cerrno</text>
</g>
<!-- Node2&#45;&gt;Node10 -->
<g id="edge9" class="edge"><title>Node2&#45;&gt;Node10</title>
<path fill="none" stroke="midnightblue" d="M691.163,-118.32C606.61,-113.869 450.161,-102.833 308.412,-75.9435"/>
<polygon fill="midnightblue" stroke="midnightblue" points="308.714,-72.4374 298.232,-73.9799 307.388,-79.3107 308.714,-72.4374"/>
</g>
<!-- Node2&#45;&gt;Node11 -->
<g id="edge10" class="edge"><title>Node2&#45;&gt;Node11</title>
<path fill="none" stroke="midnightblue" d="M814.664,-114.83C825.438,-113.828 836.542,-112.844 847,-112 1086.96,-92.6347 1152.65,-116.594 1393.59,-75.8868"/>
<polygon fill="midnightblue" stroke="midnightblue" points="1394.44,-79.2916 1403.71,-74.1565 1393.26,-72.3917 1394.44,-79.2916"/>
</g>
<!-- Node12 -->
<g id="node12" class="node"><title>Node12</title>
<polygon fill="white" stroke="#bfbfbf" points="316,-56.5 316,-75.5 360,-75.5 360,-56.5 316,-56.5"/>
<text text-anchor="middle" x="338" y="-63.5" font-family="Helvetica,sans-Serif" font-size="10.00">cmath</text>
</g>
<!-- Node2&#45;&gt;Node12 -->
<g id="edge11" class="edge"><title>Node2&#45;&gt;Node12</title>
<path fill="none" stroke="midnightblue" d="M691.318,-116.939C617.127,-111.349 488.761,-99.4338 370.214,-75.9446"/>
<polygon fill="midnightblue" stroke="midnightblue" points="370.735,-72.4794 360.241,-73.9361 369.353,-79.3416 370.735,-72.4794"/>
</g>
<!-- Node13 -->
<g id="node13" class="node"><title>Node13</title>
<polygon fill="white" stroke="#bfbfbf" points="378.5,-56.5 378.5,-75.5 423.5,-75.5 423.5,-56.5 378.5,-56.5"/>
<text text-anchor="middle" x="401" y="-63.5" font-family="Helvetica,sans-Serif" font-size="10.00">iosfwd</text>
</g>
<!-- Node2&#45;&gt;Node13 -->
<g id="edge12" class="edge"><title>Node2&#45;&gt;Node13</title>
<path fill="none" stroke="midnightblue" d="M691.228,-114.807C628.615,-107.969 528.843,-95.5344 433.444,-75.8278"/>
<polygon fill="midnightblue" stroke="midnightblue" points="434.138,-72.3971 423.632,-73.7716 432.702,-79.2483 434.138,-72.3971"/>
</g>
<!-- Node14 -->
<g id="node14" class="node"><title>Node14</title>
<polygon fill="white" stroke="#bfbfbf" points="442,-56.5 442,-75.5 496,-75.5 496,-56.5 442,-56.5"/>
<text text-anchor="middle" x="469" y="-63.5" font-family="Helvetica,sans-Serif" font-size="10.00">iostream</text>
</g>
<!-- Node2&#45;&gt;Node14 -->
<g id="edge13" class="edge"><title>Node2&#45;&gt;Node14</title>
<path fill="none" stroke="midnightblue" d="M701.262,-112.479C651.168,-104.015 573.151,-90.2713 506,-76 505.899,-75.9785 505.798,-75.957 505.696,-75.9354"/>
<polygon fill="midnightblue" stroke="midnightblue" points="506.56,-72.5421 496.036,-73.7693 505.028,-79.3725 506.56,-72.5421"/>
</g>
<!-- Node15 -->
<g id="node15" class="node"><title>Node15</title>
<polygon fill="white" stroke="#bfbfbf" points="514.5,-56.5 514.5,-75.5 565.5,-75.5 565.5,-56.5 514.5,-56.5"/>
<text text-anchor="middle" x="540" y="-63.5" font-family="Helvetica,sans-Serif" font-size="10.00">unistd.h</text>
</g>
<!-- Node2&#45;&gt;Node15 -->
<g id="edge14" class="edge"><title>Node2&#45;&gt;Node15</title>
<path fill="none" stroke="midnightblue" d="M719.197,-112.498C685.343,-103.973 631.489,-90.3864 575.37,-76.0866"/>
<polygon fill="midnightblue" stroke="midnightblue" points="576.166,-72.6776 565.611,-73.5985 574.436,-79.4606 576.166,-72.6776"/>
</g>
<!-- Node2&#45;&gt;Node16 -->
<g id="edge15" class="edge"><title>Node2&#45;&gt;Node16</title>
<path fill="none" stroke="midnightblue" d="M691.136,-121.531C570.118,-121.595 293.701,-116.938 54.1537,-75.8105"/>
<polygon fill="midnightblue" stroke="midnightblue" points="54.6664,-72.3472 44.2141,-74.0791 53.4651,-79.2433 54.6664,-72.3472"/>
</g>
<!-- Node17 -->
<g id="node17" class="node"><title>Node17</title>
<polygon fill="white" stroke="#bfbfbf" points="583.5,-56.5 583.5,-75.5 624.5,-75.5 624.5,-56.5 583.5,-56.5"/>
<text text-anchor="middle" x="604" y="-63.5" font-family="Helvetica,sans-Serif" font-size="10.00">string</text>
</g>
<!-- Node2&#45;&gt;Node17 -->
<g id="edge16" class="edge"><title>Node2&#45;&gt;Node17</title>
<path fill="none" stroke="midnightblue" d="M729.391,-112.444C703.665,-103.12 662.432,-88.1768 634.327,-77.9911"/>
<polygon fill="midnightblue" stroke="midnightblue" points="635.214,-74.5898 624.62,-74.473 632.829,-81.1709 635.214,-74.5898"/>
</g>
<!-- Node18 -->
<g id="node18" class="node"><title>Node18</title>
<polygon fill="white" stroke="#bfbfbf" points="650,-0.5 650,-19.5 694,-19.5 694,-0.5 650,-0.5"/>
<text text-anchor="middle" x="672" y="-7.5" font-family="Helvetica,sans-Serif" font-size="10.00">vector</text>
</g>
<!-- Node2&#45;&gt;Node18 -->
<g id="edge17" class="edge"><title>Node2&#45;&gt;Node18</title>
<path fill="none" stroke="midnightblue" d="M722.85,-112.43C705.01,-105.647 683.84,-94.2121 673,-76 664.792,-62.2105 665.394,-43.687 667.55,-29.9421"/>
<polygon fill="midnightblue" stroke="midnightblue" points="671.063,-30.2181 669.569,-19.7292 664.196,-28.8608 671.063,-30.2181"/>
</g>
<!-- Node19 -->
<g id="node19" class="node"><title>Node19</title>
<polygon fill="white" stroke="#bfbfbf" points="681.5,-56.5 681.5,-75.5 724.5,-75.5 724.5,-56.5 681.5,-56.5"/>
<text text-anchor="middle" x="703" y="-63.5" font-family="Helvetica,sans-Serif" font-size="10.00">deque</text>
</g>
<!-- Node2&#45;&gt;Node19 -->
<g id="edge18" class="edge"><title>Node2&#45;&gt;Node19</title>
<path fill="none" stroke="midnightblue" d="M744.744,-112.083C737.535,-104.298 726.89,-92.8015 718.154,-83.3665"/>
<polygon fill="midnightblue" stroke="midnightblue" points="720.465,-80.7108 711.103,-75.7511 715.329,-85.4666 720.465,-80.7108"/>
</g>
<!-- Node20 -->
<g id="node20" class="node"><title>Node20</title>
<polygon fill="white" stroke="#bfbfbf" points="733,-0.5 733,-19.5 777,-19.5 777,-0.5 733,-0.5"/>
<text text-anchor="middle" x="755" y="-7.5" font-family="Helvetica,sans-Serif" font-size="10.00">mutex</text>
</g>
<!-- Node2&#45;&gt;Node20 -->
<g id="edge19" class="edge"><title>Node2&#45;&gt;Node20</title>
<path fill="none" stroke="midnightblue" d="M753.157,-112.368C753.48,-94.617 754.224,-53.6664 754.662,-29.5974"/>
<polygon fill="midnightblue" stroke="midnightblue" points="758.161,-29.6534 754.844,-19.5914 751.162,-29.5261 758.161,-29.6534"/>
</g>
<!-- Node21 -->
<g id="node21" class="node"><title>Node21</title>
<polygon fill="white" stroke="#bfbfbf" points="799,-0.5 799,-19.5 843,-19.5 843,-0.5 799,-0.5"/>
<text text-anchor="middle" x="821" y="-7.5" font-family="Helvetica,sans-Serif" font-size="10.00">thread</text>
</g>
<!-- Node2&#45;&gt;Node21 -->
<g id="edge20" class="edge"><title>Node2&#45;&gt;Node21</title>
<path fill="none" stroke="midnightblue" d="M758.336,-112.368C769.508,-94.2957 795.545,-52.1764 810.301,-28.3074"/>
<polygon fill="midnightblue" stroke="midnightblue" points="813.408,-29.9378 815.689,-19.5914 807.454,-26.257 813.408,-29.9378"/>
</g>
<!-- Node22 -->
<g id="node22" class="node"><title>Node22</title>
<polygon fill="white" stroke="#bfbfbf" points="910.5,-0.5 910.5,-19.5 1005.5,-19.5 1005.5,-0.5 910.5,-0.5"/>
<text text-anchor="middle" x="958" y="-7.5" font-family="Helvetica,sans-Serif" font-size="10.00">condition_variable</text>
</g>
<!-- Node2&#45;&gt;Node22 -->
<g id="edge21" class="edge"><title>Node2&#45;&gt;Node22</title>
<path fill="none" stroke="midnightblue" d="M814.918,-113.625C863.608,-106.555 926.108,-94.24 944,-76 955.736,-64.0356 958.663,-44.7352 958.999,-30.2681"/>
<polygon fill="midnightblue" stroke="midnightblue" points="962.493,-29.8761 958.83,-19.9345 955.494,-29.9901 962.493,-29.8761"/>
</g>
<!-- Node23 -->
<g id="node23" class="node"><title>Node23</title>
<polygon fill="white" stroke="#bfbfbf" points="1025.5,-0.5 1025.5,-19.5 1068.5,-19.5 1068.5,-0.5 1025.5,-0.5"/>
<text text-anchor="middle" x="1047" y="-7.5" font-family="Helvetica,sans-Serif" font-size="10.00">queue</text>
</g>
<!-- Node2&#45;&gt;Node23 -->
<g id="edge22" class="edge"><title>Node2&#45;&gt;Node23</title>
<path fill="none" stroke="midnightblue" d="M814.728,-113.781C900.006,-103.511 1044.31,-84.9393 1052,-76 1062.93,-63.2993 1059.55,-43.5467 1054.75,-29.148"/>
<polygon fill="midnightblue" stroke="midnightblue" points="1058.01,-27.8903 1051.19,-19.7872 1051.47,-30.3782 1058.01,-27.8903"/>
</g>
<!-- Node24 -->
<g id="node24" class="node"><title>Node24</title>
<polygon fill="white" stroke="#bfbfbf" points="991,-56.5 991,-75.5 1043,-75.5 1043,-56.5 991,-56.5"/>
<text text-anchor="middle" x="1017" y="-63.5" font-family="Helvetica,sans-Serif" font-size="10.00">sstream</text>
</g>
<!-- Node2&#45;&gt;Node24 -->
<g id="edge23" class="edge"><title>Node2&#45;&gt;Node24</title>
<path fill="none" stroke="midnightblue" d="M797.264,-112.42C842.495,-103.58 914.732,-89.2579 977,-76 978.253,-75.7332 979.528,-75.4594 980.815,-75.1809"/>
<polygon fill="midnightblue" stroke="midnightblue" points="981.754,-78.5582 990.769,-72.9928 980.251,-71.7214 981.754,-78.5582"/>
</g>
<!-- Node25 -->
<g id="node25" class="node"><title>Node25</title>
<polygon fill="white" stroke="#bfbfbf" points="1090.5,-0.5 1090.5,-19.5 1125.5,-19.5 1125.5,-0.5 1090.5,-0.5"/>
<text text-anchor="middle" x="1108" y="-7.5" font-family="Helvetica,sans-Serif" font-size="10.00">map</text>
</g>
<!-- Node2&#45;&gt;Node25 -->
<g id="edge24" class="edge"><title>Node2&#45;&gt;Node25</title>
<path fill="none" stroke="midnightblue" d="M814.522,-115.103C900.438,-106.435 1048.22,-89.789 1069,-76 1085.41,-65.1083 1095.96,-44.7339 1101.9,-29.6881"/>
<polygon fill="midnightblue" stroke="midnightblue" points="1105.33,-30.4804 1105.42,-19.886 1098.75,-28.1129 1105.33,-30.4804"/>
</g>
<!-- Node26 -->
<g id="node26" class="node"><title>Node26</title>
<g id="a_node26"><a xlink:href="cosmos-defs_8h.html" target="_top" xlink:title="COSMOS definitions Definitions specific to the COSMOS environement. ">
<polygon fill="white" stroke="black" points="819,-56.5 819,-75.5 935,-75.5 935,-56.5 819,-56.5"/>
<text text-anchor="middle" x="877" y="-63.5" font-family="Helvetica,sans-Serif" font-size="10.00">support/cosmos&#45;defs.h</text>
</a>
</g>
</g>
<!-- Node2&#45;&gt;Node26 -->
<g id="edge25" class="edge"><title>Node2&#45;&gt;Node26</title>
<path fill="none" stroke="midnightblue" d="M772.648,-112.444C792.965,-103.596 824.903,-89.6875 848.098,-79.5865"/>
<polygon fill="midnightblue" stroke="midnightblue" points="849.673,-82.7181 857.444,-75.5164 846.878,-76.3002 849.673,-82.7181"/>
</g>
<!-- Node26&#45;&gt;Node18 -->
<g id="edge27" class="edge"><title>Node26&#45;&gt;Node18</title>
<path fill="none" stroke="midnightblue" d="M844.517,-56.4435C806.128,-46.3312 742.639,-29.6072 704.32,-19.5136"/>
<polygon fill="midnightblue" stroke="midnightblue" points="704.784,-16.0163 694.222,-16.8536 703,-22.7854 704.784,-16.0163"/>
</g>
<!-- Node26&#45;&gt;Node20 -->
<g id="edge31" class="edge"><title>Node26&#45;&gt;Node20</title>
<path fill="none" stroke="midnightblue" d="M857.669,-56.4435C837.68,-47.5961 806.257,-33.6875 783.436,-23.5865"/>
<polygon fill="midnightblue" stroke="midnightblue" points="784.802,-20.3635 774.241,-19.5164 781.968,-26.7645 784.802,-20.3635"/>
</g>
<!-- Node26&#45;&gt;Node21 -->
<g id="edge30" class="edge"><title>Node26&#45;&gt;Node21</title>
<path fill="none" stroke="midnightblue" d="M868.003,-56.324C859.806,-48.4196 847.494,-36.5482 837.528,-26.9377"/>
<polygon fill="midnightblue" stroke="midnightblue" points="839.789,-24.2558 830.161,-19.8339 834.93,-29.2947 839.789,-24.2558"/>
</g>
<!-- Node26&#45;&gt;Node22 -->
<g id="edge32" class="edge"><title>Node26&#45;&gt;Node22</title>
<path fill="none" stroke="midnightblue" d="M890.014,-56.324C902.532,-47.979 921.682,-35.2122 936.471,-25.3524"/>
<polygon fill="midnightblue" stroke="midnightblue" points="938.639,-28.1137 945.018,-19.6545 934.756,-22.2894 938.639,-28.1137"/>
</g>
<!-- Node26&#45;&gt;Node23 -->
<g id="edge29" class="edge"><title>Node26&#45;&gt;Node23</title>
<path fill="none" stroke="midnightblue" d="M903.937,-56.4435C934.266,-46.8097 983.486,-31.1752 1015.55,-20.9896"/>
<polygon fill="midnightblue" stroke="midnightblue" points="1016.84,-24.2519 1025.31,-17.8886 1014.72,-17.5803 1016.84,-24.2519"/>
</g>
<!-- Node26&#45;&gt;Node25 -->
<g id="edge26" class="edge"><title>Node26&#45;&gt;Node25</title>
<path fill="none" stroke="midnightblue" d="M919.172,-56.471C959.989,-48.0015 1023.51,-34.2533 1078,-20 1078.87,-19.7712 1079.76,-19.5342 1080.66,-19.291"/>
<polygon fill="midnightblue" stroke="midnightblue" points="1081.64,-22.6511 1090.29,-16.5402 1079.72,-15.9201 1081.64,-22.6511"/>
</g>
<!-- Node27 -->
<g id="node27" class="node"><title>Node27</title>
<polygon fill="white" stroke="#bfbfbf" points="862.5,-0.5 862.5,-19.5 891.5,-19.5 891.5,-0.5 862.5,-0.5"/>
<text text-anchor="middle" x="877" y="-7.5" font-family="Helvetica,sans-Serif" font-size="10.00">list</text>
</g>
<!-- Node26&#45;&gt;Node27 -->
<g id="edge28" class="edge"><title>Node26&#45;&gt;Node27</title>
<path fill="none" stroke="midnightblue" d="M877,-56.083C877,-49.0059 877,-38.8611 877,-29.9865"/>
<polygon fill="midnightblue" stroke="midnightblue" points="880.5,-29.751 877,-19.7511 873.5,-29.7511 880.5,-29.751"/>
</g>
<!-- Node31&#45;&gt;Node2 -->
<g id="edge39" class="edge"><title>Node31&#45;&gt;Node2</title>
<path fill="none" stroke="midnightblue" d="M823.87,-280.083C818.329,-270.072 810.948,-256.363 805,-244 787.721,-208.086 769.865,-164.983 760.228,-141.131"/>
<polygon fill="midnightblue" stroke="midnightblue" points="763.384,-139.597 756.41,-131.621 756.888,-142.205 763.384,-139.597"/>
</g>
<!-- Node32 -->
<g id="node32" class="node"><title>Node32</title>
<g id="a_node32"><a xlink:href="sliplib_8h.html" target="_top" xlink:title="COSMOS SLIP support include file. ">
<polygon fill="white" stroke="black" points="813.5,-224.5 813.5,-243.5 898.5,-243.5 898.5,-224.5 813.5,-224.5"/>
<text text-anchor="middle" x="856" y="-231.5" font-family="Helvetica,sans-Serif" font-size="10.00">support/sliplib.h</text>
</a>
</g>
</g>
<!-- Node31&#45;&gt;Node32 -->
<g id="edge40" class="edge"><title>Node31&#45;&gt;Node32</title>
<path fill="none" stroke="midnightblue" d="M837.688,-280.399C840.995,-272.199 845.198,-261.781 848.742,-252.994"/>
<polygon fill="midnightblue" stroke="midnightblue" points="852.013,-254.241 852.508,-243.658 845.521,-251.622 852.013,-254.241"/>
</g>
<!-- Node32&#45;&gt;Node2 -->
<g id="edge41" class="edge"><title>Node32&#45;&gt;Node2</title>
<path fill="none" stroke="midnightblue" d="M846.883,-224.183C837.683,-215.216 823.14,-200.85 811,-188 795.664,-171.767 778.724,-152.636 767.132,-139.35"/>
<polygon fill="midnightblue" stroke="midnightblue" points="769.558,-136.806 760.357,-131.552 764.274,-141.397 769.558,-136.806"/>
</g>
<!-- Node32&#45;&gt;Node11 -->
<g id="edge45" class="edge"><title>Node32&#45;&gt;Node11</title>
<path fill="none" stroke="midnightblue" d="M883.273,-224.473C948.174,-204.255 1116.99,-152.103 1259,-112 1316.23,-95.8372 1333.06,-92.7476 1394.17,-76.1912"/>
<polygon fill="midnightblue" stroke="midnightblue" points="1395.21,-79.5349 1403.94,-73.5314 1393.37,-72.7806 1395.21,-79.5349"/>
</g>
<!-- Node33 -->
<g id="node33" class="node"><title>Node33</title>
<g id="a_node33"><a xlink:href="cosmos-errno_8h.html" target="_top" xlink:title="COSMOS Error Codes. ">
<polygon fill="white" stroke="black" points="819.5,-168.5 819.5,-187.5 938.5,-187.5 938.5,-168.5 819.5,-168.5"/>
<text text-anchor="middle" x="879" y="-175.5" font-family="Helvetica,sans-Serif" font-size="10.00">support/cosmos&#45;errno.h</text>
</a>
</g>
</g>
<!-- Node32&#45;&gt;Node33 -->
<g id="edge42" class="edge"><title>Node32&#45;&gt;Node33</title>
<path fill="none" stroke="midnightblue" d="M859.798,-224.083C862.913,-216.77 867.423,-206.181 871.289,-197.103"/>
<polygon fill="midnightblue" stroke="midnightblue" points="874.574,-198.323 875.273,-187.751 868.134,-195.58 874.574,-198.323"/>
</g>
<!-- Node33&#45;&gt;Node2 -->
<g id="edge43" class="edge"><title>Node33&#45;&gt;Node2</title>
<path fill="none" stroke="midnightblue" d="M859.035,-168.444C838.391,-159.596 805.937,-145.687 782.368,-135.586"/>
<polygon fill="midnightblue" stroke="midnightblue" points="783.442,-132.239 772.872,-131.516 780.684,-138.673 783.442,-132.239"/>
</g>
<!-- Node34 -->
<g id="node34" class="node"><title>Node34</title>
<polygon fill="white" stroke="#bfbfbf" points="855.5,-112.5 855.5,-131.5 902.5,-131.5 902.5,-112.5 855.5,-112.5"/>
<text text-anchor="middle" x="879" y="-119.5" font-family="Helvetica,sans-Serif" font-size="10.00">errno.h</text>
</g>
<!-- Node33&#45;&gt;Node34 -->
<g id="edge44" class="edge"><title>Node33&#45;&gt;Node34</title>
<path fill="none" stroke="midnightblue" d="M879,-168.083C879,-161.006 879,-150.861 879,-141.986"/>
<polygon fill="midnightblue" stroke="midnightblue" points="882.5,-141.751 879,-131.751 875.5,-141.751 882.5,-141.751"/>
</g>
</g>
</svg>
        <g id="navigator" transform="translate(0 0)" fill="#404254">
                <rect fill="#f2f5e9" fill-opacity="0.5" stroke="#606060" stroke-width=".5" x="0" y="0" width="60" height="60"/>
                <use id="zoomplus" xlink:href="#zoomPlus" x="17" y="9" onmousedown="handleZoom(evt,'in')"/>
                <use id="zoomminus" xlink:href="#zoomMin" x="42" y="9" onmousedown="handleZoom(evt,'out')"/>
                <use id="reset" xlink:href="#resetDef" x="30" y="36" onmousedown="handleReset()"/>
                <g id="arrowUp" xlink:href="#dirArrow" transform="translate(30 24)" onmousedown="handlePan(0,-1)">
                  <use xlink:href="#rim" fill="#404040">
                        <set attributeName="fill" to="#808080" begin="arrowUp.mouseover" end="arrowUp.mouseout"/>
                  </use>
                  <path fill="none" stroke="white" stroke-width="1.5" d="M0,-3.0v7 M-2.5,-0.5L0,-3.0L2.5,-0.5"/>
                </g>
                <g id="arrowRight" xlink:href="#dirArrow" transform="rotate(90) translate(36 -43)" onmousedown="handlePan(1,0)">
                  <use xlink:href="#rim" fill="#404040">
                        <set attributeName="fill" to="#808080" begin="arrowRight.mouseover" end="arrowRight.mouseout"/>
                  </use>
                  <path fill="none" stroke="white" stroke-width="1.5" d="M0,-3.0v7 M-2.5,-0.5L0,-3.0L2.5,-0.5"/>
                </g>
                <g id="arrowDown" xlink:href="#dirArrow" transform="rotate(180) translate(-30 -48)" onmousedown="handlePan(0,1)">
                  <use xlink:href="#rim" fill="#404040">
                        <set attributeName="fill" to="#808080" begin="arrowDown.mouseover" end="arrowDown.mouseout"/>
                  </use>
                  <path fill="none" stroke="white" stroke-width="1.5" d="M0,-3.0v7 M-2.5,-0.5L0,-3.0L2.5,-0.5"/>
                </g>
                <g id="arrowLeft" xlink:href="#dirArrow" transform="rotate(270) translate(-36 17)" onmousedown="handlePan(-1,0)">
                  <use xlink:href="#rim" fill="#404040">
                        <set attributeName="fill" to="#808080" begin="arrowLeft.mouseover" end="arrowLeft.mouseout"/>
                  </use>
                  <path fill="none" stroke="white" stroke-width="1.5" d="M0,-3.0v7 M-2.5,-0.5L0,-3.0L2.5,-0.5"/>
                </g>
        </g>
        <svg viewBox="0 0 15 15" width="100%" height="30px" preserveAspectRatio="xMaxYMin meet">
         <g id="arrow_out" transform="scale(0.3 0.3)">
          <a xlink:href="cssl__lib_8cpp__incl_org.svg" target="_base">
           <rect id="button" ry="5" rx="5" y="6" x="6" height="38" width="38"
                fill="#f2f5e9" fill-opacity="0.5" stroke="#606060" stroke-width="1.0"/>
           <path id="arrow"
             d="M 11.500037,31.436501 C 11.940474,20.09759 22.043105,11.32322 32.158766,21.979434 L 37.068811,17.246167 C 37.068811,17.246167 37.088388,32 37.088388,32 L 22.160133,31.978069 C 22.160133,31.978069 26.997745,27.140456 26.997745,27.140456 C 18.528582,18.264221 13.291696,25.230495 11.500037,31.436501 z"
             style="fill:#404040;"/>
          </a>
         </g>
        </svg>
</svg>
