<?xml version="1.0" encoding="UTF-8" standalone="no"?>
<!DOCTYPE svg PUBLIC "-//W3C//DTD SVG 1.1//EN"
 "http://www.w3.org/Graphics/SVG/1.1/DTD/svg11.dtd">
<!-- Generated by graphviz version 2.38.0 (20140413.2041)
 -->
<!-- Title: cssl_lib.h Pages: 1 -->
<!--zoomable 140 -->
<svg id="main" version="1.1" xmlns="http://www.w3.org/2000/svg" xmlns:xlink="http://www.w3.org/1999/xlink" xml:space="preserve" onload="init(evt)">
<style type="text/css"><![CDATA[
.edge:hover path { stroke: red; }
.edge:hover polygon { stroke: red; fill: red; }
]]></style>
<script type="text/javascript"><![CDATA[
var edges = document.getElementsByTagName('g');
if (edges && edges.length) {
  for (var i=0;i<edges.length;i++) {
    if (edges[i].id.substr(0,4)=='edge') {
      edges[i].setAttribute('class','edge');
    }
  }
}
]]></script>
        <defs>
                <circle id="rim" cx="0" cy="0" r="7"/>
                <circle id="rim2" cx="0" cy="0" r="3.5"/>
                <g id="zoomPlus">
                        <use xlink:href="#rim" fill="#404040">
                                <set attributeName="fill" to="#808080" begin="zoomplus.mouseover" end="zoomplus.mouseout"/>
                        </use>
                        <path d="M-4,0h8M0,-4v8" fill="none" stroke="white" stroke-width="1.5" pointer-events="none"/>
                </g>
                <g id="zoomMin">
                        <use xlink:href="#rim" fill="#404040">
                                <set attributeName="fill" to="#808080" begin="zoomminus.mouseover" end="zoomminus.mouseout"/>
                        </use>
                        <path d="M-4,0h8" fill="none" stroke="white" stroke-width="1.5" pointer-events="none"/>
                </g>
                <g id="dirArrow">
                        <path fill="none" stroke="white" stroke-width="1.5" d="M0,-3.0v7 M-2.5,-0.5L0,-3.0L2.5,-0.5"/>
                </g>
               <g id="resetDef">
                       <use xlink:href="#rim2" fill="#404040">
                               <set attributeName="fill" to="#808080" begin="reset.mouseover" end="reset.mouseout"/>
                       </use>
               </g>
        </defs>

<script type="text/javascript">
var viewWidth = 1467;
var viewHeight = 140;
var sectionId = 'dynsection-1';
</script>
<script xlink:href="svgpan.js"/>
<svg id="graph" class="graph">
<g id="viewport">
<title>cssl_lib.h</title>
<polygon fill="white" stroke="none" points="-4,4 -4,-136 1462.5,-136 1462.5,4 -4,4"/>
<!-- Node1 -->
<g id="node1" class="node"><title>Node1</title>
<polygon fill="#bfbfbf" stroke="black" points="710.5,-112.5 710.5,-131.5 768.5,-131.5 768.5,-112.5 710.5,-112.5"/>
<text text-anchor="middle" x="739.5" y="-119.5" font-family="Helvetica,sans-Serif" font-size="10.00">cssl_lib.h</text>
</g>
<!-- Node2 -->
<g id="node2" class="node"><title>Node2</title>
<g id="a_node2"><a xlink:href="arduino__lib_8cpp.html" target="_top" xlink:title="arduino_lib.cpp">
<polygon fill="white" stroke="black" points="39.5,-56.5 39.5,-75.5 121.5,-75.5 121.5,-56.5 39.5,-56.5"/>
<text text-anchor="middle" x="80.5" y="-63.5" font-family="Helvetica,sans-Serif" font-size="10.00">arduino_lib.cpp</text>
</a>
</g>
</g>
<!-- Node1&#45;&gt;Node2 -->
<g id="edge1" class="edge"><title>Node1&#45;&gt;Node2</title>
<path fill="none" stroke="midnightblue" d="M700.345,-119.276C604.009,-114.776 347.859,-101.236 135.5,-76 130.984,-75.4634 126.273,-74.8204 121.59,-74.1283"/>
<polygon fill="midnightblue" stroke="midnightblue" points="700.344,-122.78 710.495,-119.744 700.667,-115.787 700.344,-122.78"/>
</g>
<!-- Node3 -->
<g id="node3" class="node"><title>Node3</title>
<g id="a_node3"><a xlink:href="bb_fctns_8cpp.html" target="_top" xlink:title="bbFctns.cpp">
<polygon fill="white" stroke="black" points="0,-0.5 0,-19.5 71,-19.5 71,-0.5 0,-0.5"/>
<text text-anchor="middle" x="35.5" y="-7.5" font-family="Helvetica,sans-Serif" font-size="10.00">bbFctns.cpp</text>
</a>
</g>
</g>
<!-- Node1&#45;&gt;Node3 -->
<g id="edge2" class="edge"><title>Node1&#45;&gt;Node3</title>
<path fill="none" stroke="midnightblue" d="M700.107,-119.961C587.969,-116.677 268.673,-104.975 168.5,-76 150.166,-70.697 147.572,-64.5314 130.5,-56 104.217,-42.8657 73.4183,-28.4533 54.1794,-19.5654"/>
<polygon fill="midnightblue" stroke="midnightblue" points="700.202,-123.465 710.298,-120.253 700.402,-116.468 700.202,-123.465"/>
</g>
<!-- Node4 -->
<g id="node4" class="node"><title>Node4</title>
<g id="a_node4"><a xlink:href="bb_fctns_8h.html" target="_top" xlink:title="bbFctns.h">
<polygon fill="white" stroke="black" points="177.5,-56.5 177.5,-75.5 237.5,-75.5 237.5,-56.5 177.5,-56.5"/>
<text text-anchor="middle" x="207.5" y="-63.5" font-family="Helvetica,sans-Serif" font-size="10.00">bbFctns.h</text>
</a>
</g>
</g>
<!-- Node1&#45;&gt;Node4 -->
<g id="edge3" class="edge"><title>Node1&#45;&gt;Node4</title>
<path fill="none" stroke="midnightblue" d="M700.355,-119.236C616.632,-115.066 414.148,-102.868 246.5,-76 243.618,-75.5382 240.632,-74.9856 237.654,-74.3846"/>
<polygon fill="midnightblue" stroke="midnightblue" points="700.275,-122.736 710.433,-119.727 700.616,-115.744 700.275,-122.736"/>
</g>
<!-- Node5 -->
<g id="node5" class="node"><title>Node5</title>
<g id="a_node5"><a xlink:href="cssl__lib_8cpp.html" target="_top" xlink:title="Simple Serial library source file. ">
<polygon fill="white" stroke="black" points="255.5,-56.5 255.5,-75.5 323.5,-75.5 323.5,-56.5 255.5,-56.5"/>
<text text-anchor="middle" x="289.5" y="-63.5" font-family="Helvetica,sans-Serif" font-size="10.00">cssl_lib.cpp</text>
</a>
</g>
</g>
<!-- Node1&#45;&gt;Node5 -->
<g id="edge5" class="edge"><title>Node1&#45;&gt;Node5</title>
<path fill="none" stroke="midnightblue" d="M700.343,-116.301C613.479,-105.877 405.857,-80.9628 323.755,-71.1106"/>
<polygon fill="midnightblue" stroke="midnightblue" points="699.975,-119.782 710.321,-117.499 700.809,-112.832 699.975,-119.782"/>
</g>
<!-- Node8 -->
<g id="node8" class="node"><title>Node8</title>
<g id="a_node8"><a xlink:href="gs232b__lib_8h.html" target="_top" xlink:title="GS&#45;232B controller includes. ">
<polygon fill="white" stroke="black" points="401,-56.5 401,-75.5 472,-75.5 472,-56.5 401,-56.5"/>
<text text-anchor="middle" x="436.5" y="-63.5" font-family="Helvetica,sans-Serif" font-size="10.00">gs232b_lib.h</text>
</a>
</g>
</g>
<!-- Node1&#45;&gt;Node8 -->
<g id="edge8" class="edge"><title>Node1&#45;&gt;Node8</title>
<path fill="none" stroke="midnightblue" d="M700.372,-114.027C641.17,-103.476 529.681,-83.6065 472.429,-73.4032"/>
<polygon fill="midnightblue" stroke="midnightblue" points="699.988,-117.513 710.447,-115.822 701.216,-110.622 699.988,-117.513"/>
</g>
<!-- Node11 -->
<g id="node11" class="node"><title>Node11</title>
<g id="a_node11"><a xlink:href="ic9100__lib_8h.html" target="_top" xlink:title="ic9100_lib.h">
<polygon fill="white" stroke="black" points="530.5,-56.5 530.5,-75.5 598.5,-75.5 598.5,-56.5 530.5,-56.5"/>
<text text-anchor="middle" x="564.5" y="-63.5" font-family="Helvetica,sans-Serif" font-size="10.00">ic9100_lib.h</text>
</a>
</g>
</g>
<!-- Node1&#45;&gt;Node11 -->
<g id="edge11" class="edge"><title>Node1&#45;&gt;Node11</title>
<path fill="none" stroke="midnightblue" d="M702.025,-109.436C669.03,-99.2551 621.744,-84.664 592.1,-75.5164"/>
<polygon fill="midnightblue" stroke="midnightblue" points="701.183,-112.839 711.771,-112.444 703.247,-106.151 701.183,-112.839"/>
</g>
<!-- Node14 -->
<g id="node14" class="node"><title>Node14</title>
<g id="a_node14"><a xlink:href="kisstnc__lib_8h.html" target="_top" xlink:title="KISSTNC controller includes. ">
<polygon fill="white" stroke="black" points="704,-56.5 704,-75.5 775,-75.5 775,-56.5 704,-56.5"/>
<text text-anchor="middle" x="739.5" y="-63.5" font-family="Helvetica,sans-Serif" font-size="10.00">kisstnc_lib.h</text>
</a>
</g>
</g>
<!-- Node1&#45;&gt;Node14 -->
<g id="edge14" class="edge"><title>Node1&#45;&gt;Node14</title>
<path fill="none" stroke="midnightblue" d="M739.5,-101.805C739.5,-92.9102 739.5,-82.7798 739.5,-75.7511"/>
<polygon fill="midnightblue" stroke="midnightblue" points="736,-102.083 739.5,-112.083 743,-102.083 736,-102.083"/>
</g>
<!-- Node16 -->
<g id="node16" class="node"><title>Node16</title>
<g id="a_node16"><a xlink:href="kpc9612p__lib_8h.html" target="_top" xlink:title="KPC&#45;9612P controller includes. ">
<polygon fill="white" stroke="black" points="831.5,-56.5 831.5,-75.5 913.5,-75.5 913.5,-56.5 831.5,-56.5"/>
<text text-anchor="middle" x="872.5" y="-63.5" font-family="Helvetica,sans-Serif" font-size="10.00">kpc9612p_lib.h</text>
</a>
</g>
</g>
<!-- Node1&#45;&gt;Node16 -->
<g id="edge16" class="edge"><title>Node1&#45;&gt;Node16</title>
<path fill="none" stroke="midnightblue" d="M769.948,-108.638C794.907,-98.504 829.577,-84.4274 851.524,-75.5164"/>
<polygon fill="midnightblue" stroke="midnightblue" points="768.523,-105.439 760.574,-112.444 771.156,-111.924 768.523,-105.439"/>
</g>
<!-- Node18 -->
<g id="node18" class="node"><title>Node18</title>
<g id="a_node18"><a xlink:href="agent__kpc9612p_8cpp.html" target="_top" xlink:title="agent_kpc9612p.cpp">
<polygon fill="white" stroke="black" points="806,-0.5 806,-19.5 913,-19.5 913,-0.5 806,-0.5"/>
<text text-anchor="middle" x="859.5" y="-7.5" font-family="Helvetica,sans-Serif" font-size="10.00">agent_kpc9612p.cpp</text>
</a>
</g>
</g>
<!-- Node1&#45;&gt;Node18 -->
<g id="edge27" class="edge"><title>Node1&#45;&gt;Node18</title>
<path fill="none" stroke="midnightblue" d="M756.396,-105.512C782.038,-82.0068 829.926,-38.1096 850.128,-19.5914"/>
<polygon fill="midnightblue" stroke="midnightblue" points="753.923,-103.031 748.916,-112.368 758.653,-108.191 753.923,-103.031"/>
</g>
<!-- Node21 -->
<g id="node21" class="node"><title>Node21</title>
<g id="a_node21"><a xlink:href="mixwtnc__lib_8h.html" target="_top" xlink:title="MIXWTNC controller includes. ">
<polygon fill="white" stroke="black" points="932,-56.5 932,-75.5 1009,-75.5 1009,-56.5 932,-56.5"/>
<text text-anchor="middle" x="970.5" y="-63.5" font-family="Helvetica,sans-Serif" font-size="10.00">mixwtnc_lib.h</text>
</a>
</g>
</g>
<!-- Node1&#45;&gt;Node21 -->
<g id="edge21" class="edge"><title>Node1&#45;&gt;Node21</title>
<path fill="none" stroke="midnightblue" d="M778.666,-111.844C822.072,-101.698 891.522,-85.4623 933.877,-75.5611"/>
<polygon fill="midnightblue" stroke="midnightblue" points="777.697,-108.476 768.756,-114.161 779.291,-115.293 777.697,-108.476"/>
</g>
<!-- Node23 -->
<g id="node23" class="node"><title>Node23</title>
<g id="a_node23"><a xlink:href="pic__lib_8h.html" target="_top" xlink:title="pic include file. ">
<polygon fill="white" stroke="black" points="1027,-56.5 1027,-75.5 1080,-75.5 1080,-56.5 1027,-56.5"/>
<text text-anchor="middle" x="1053.5" y="-63.5" font-family="Helvetica,sans-Serif" font-size="10.00">pic_lib.h</text>
</a>
</g>
</g>
<!-- Node1&#45;&gt;Node23 -->
<g id="edge23" class="edge"><title>Node1&#45;&gt;Node23</title>
<path fill="none" stroke="midnightblue" d="M779.053,-115.671C833.138,-108.14 933.092,-93.3502 1017.5,-76 1020.53,-75.3774 1023.69,-74.6718 1026.82,-73.9364"/>
<polygon fill="midnightblue" stroke="midnightblue" points="778.293,-112.243 768.866,-117.079 779.251,-119.177 778.293,-112.243"/>
</g>
<!-- Node25 -->
<g id="node25" class="node"><title>Node25</title>
<g id="a_node25"><a xlink:href="ts2000__lib_8h.html" target="_top" xlink:title="TS2000 controller includes. ">
<polygon fill="white" stroke="black" points="617,-56.5 617,-75.5 686,-75.5 686,-56.5 617,-56.5"/>
<text text-anchor="middle" x="651.5" y="-63.5" font-family="Helvetica,sans-Serif" font-size="10.00">ts2000_lib.h</text>
</a>
</g>
</g>
<!-- Node1&#45;&gt;Node25 -->
<g id="edge25" class="edge"><title>Node1&#45;&gt;Node25</title>
<path fill="none" stroke="midnightblue" d="M716.523,-106.901C700.387,-96.9986 679.319,-84.0705 665.604,-75.6545"/>
<polygon fill="midnightblue" stroke="midnightblue" points="715.007,-110.077 725.361,-112.324 718.669,-104.111 715.007,-110.077"/>
</g>
<!-- Node26 -->
<g id="node26" class="node"><title>Node26</title>
<g id="a_node26"><a xlink:href="agent__arduino_8cpp.html" target="_top" xlink:title="agent_arduino.cpp">
<polygon fill="white" stroke="black" points="1098.5,-56.5 1098.5,-75.5 1194.5,-75.5 1194.5,-56.5 1098.5,-56.5"/>
<text text-anchor="middle" x="1146.5" y="-63.5" font-family="Helvetica,sans-Serif" font-size="10.00">agent_arduino.cpp</text>
</a>
</g>
</g>
<!-- Node1&#45;&gt;Node26 -->
<g id="edge28" class="edge"><title>Node1&#45;&gt;Node26</title>
<path fill="none" stroke="midnightblue" d="M778.745,-116.327C843.532,-108.53 976.903,-92.1242 1089.5,-76 1092.38,-75.5881 1095.33,-75.1541 1098.31,-74.7082"/>
<polygon fill="midnightblue" stroke="midnightblue" points="778.089,-112.881 768.578,-117.548 778.924,-119.831 778.089,-112.881"/>
</g>
<!-- Node27 -->
<g id="node27" class="node"><title>Node27</title>
<g id="a_node27"><a xlink:href="agent__transmitter_8cpp.html" target="_top" xlink:title="agent_transmitter.cpp">
<polygon fill="white" stroke="black" points="1213,-56.5 1213,-75.5 1324,-75.5 1324,-56.5 1213,-56.5"/>
<text text-anchor="middle" x="1268.5" y="-63.5" font-family="Helvetica,sans-Serif" font-size="10.00">agent_transmitter.cpp</text>
</a>
</g>
</g>
<!-- Node1&#45;&gt;Node27 -->
<g id="edge29" class="edge"><title>Node1&#45;&gt;Node27</title>
<path fill="none" stroke="midnightblue" d="M778.699,-117.744C858.675,-110.979 1046.38,-94.4886 1203.5,-76 1206.55,-75.6405 1209.69,-75.2568 1212.85,-74.8578"/>
<polygon fill="midnightblue" stroke="midnightblue" points="778.261,-114.268 768.59,-118.595 778.849,-121.243 778.261,-114.268"/>
</g>
<!-- Node28 -->
<g id="node28" class="node"><title>Node28</title>
<g id="a_node28"><a xlink:href="agent__transmitter2_8cpp.html" target="_top" xlink:title="agent_transmitter2.cpp">
<polygon fill="white" stroke="black" points="1342.5,-56.5 1342.5,-75.5 1458.5,-75.5 1458.5,-56.5 1342.5,-56.5"/>
<text text-anchor="middle" x="1400.5" y="-63.5" font-family="Helvetica,sans-Serif" font-size="10.00">agent_transmitter2.cpp</text>
</a>
</g>
</g>
<!-- Node1&#45;&gt;Node28 -->
<g id="edge30" class="edge"><title>Node1&#45;&gt;Node28</title>
<path fill="none" stroke="midnightblue" d="M778.639,-118.822C873.8,-113.354 1124.81,-97.9026 1333.5,-76 1336.42,-75.6937 1339.41,-75.3615 1342.42,-75.0112"/>
<polygon fill="midnightblue" stroke="midnightblue" points="778.388,-115.33 768.604,-119.394 778.787,-122.319 778.388,-115.33"/>
</g>
<!-- Node4&#45;&gt;Node3 -->
<g id="edge4" class="edge"><title>Node4&#45;&gt;Node3</title>
<path fill="none" stroke="midnightblue" d="M170.668,-53.4363C138.238,-43.2551 91.7632,-28.664 62.6264,-19.5164"/>
<polygon fill="midnightblue" stroke="midnightblue" points="169.657,-56.7874 180.246,-56.4435 171.754,-50.1088 169.657,-56.7874"/>
</g>
<!-- Node6 -->
<g id="node6" class="node"><title>Node6</title>
<g id="a_node6"><a xlink:href="rw__test__v0_8cpp.html" target="_top" xlink:title="rw_test_v0.cpp">
<polygon fill="white" stroke="black" points="89,-0.5 89,-19.5 172,-19.5 172,-0.5 89,-0.5"/>
<text text-anchor="middle" x="130.5" y="-7.5" font-family="Helvetica,sans-Serif" font-size="10.00">rw_test_v0.cpp</text>
</a>
</g>
</g>
<!-- Node5&#45;&gt;Node6 -->
<g id="edge6" class="edge"><title>Node5&#45;&gt;Node6</title>
<path fill="none" stroke="midnightblue" d="M254.673,-53.172C224.734,-43.0039 182.279,-28.5852 155.576,-19.5164"/>
<polygon fill="midnightblue" stroke="midnightblue" points="253.712,-56.5417 264.306,-56.4435 255.963,-49.9136 253.712,-56.5417"/>
</g>
<!-- Node7 -->
<g id="node7" class="node"><title>Node7</title>
<g id="a_node7"><a xlink:href="razor__imu_8cpp.html" target="_top" xlink:title="razor_imu.cpp">
<polygon fill="white" stroke="black" points="190.5,-0.5 190.5,-19.5 268.5,-19.5 268.5,-0.5 190.5,-0.5"/>
<text text-anchor="middle" x="229.5" y="-7.5" font-family="Helvetica,sans-Serif" font-size="10.00">razor_imu.cpp</text>
</a>
</g>
</g>
<!-- Node5&#45;&gt;Node7 -->
<g id="edge7" class="edge"><title>Node5&#45;&gt;Node7</title>
<path fill="none" stroke="midnightblue" d="M272.319,-49.5372C261.621,-39.9087 248.244,-27.8694 239.315,-19.8339"/>
<polygon fill="midnightblue" stroke="midnightblue" points="270.086,-52.2358 279.86,-56.324 274.768,-47.0327 270.086,-52.2358"/>
</g>
<!-- Node9 -->
<g id="node9" class="node"><title>Node9</title>
<g id="a_node9"><a xlink:href="gs232b__lib_8cpp.html" target="_top" xlink:title="gs232b_lib.cpp">
<polygon fill="white" stroke="black" points="286.5,-0.5 286.5,-19.5 368.5,-19.5 368.5,-0.5 286.5,-0.5"/>
<text text-anchor="middle" x="327.5" y="-7.5" font-family="Helvetica,sans-Serif" font-size="10.00">gs232b_lib.cpp</text>
</a>
</g>
</g>
<!-- Node8&#45;&gt;Node9 -->
<g id="edge9" class="edge"><title>Node8&#45;&gt;Node9</title>
<path fill="none" stroke="midnightblue" d="M409.981,-51.8622C389.77,-41.8492 362.513,-28.3458 344.969,-19.6545"/>
<polygon fill="midnightblue" stroke="midnightblue" points="408.473,-55.0209 418.987,-56.324 411.58,-48.7485 408.473,-55.0209"/>
</g>
<!-- Node10 -->
<g id="node10" class="node"><title>Node10</title>
<g id="a_node10"><a xlink:href="agent__antenna_8cpp.html" target="_top" xlink:title="Agent Antenna for Satellite Ground Station. ">
<polygon fill="white" stroke="black" points="387,-0.5 387,-19.5 486,-19.5 486,-0.5 387,-0.5"/>
<text text-anchor="middle" x="436.5" y="-7.5" font-family="Helvetica,sans-Serif" font-size="10.00">agent_antenna.cpp</text>
</a>
</g>
</g>
<!-- Node8&#45;&gt;Node10 -->
<g id="edge10" class="edge"><title>Node8&#45;&gt;Node10</title>
<path fill="none" stroke="midnightblue" d="M436.5,-45.8045C436.5,-36.9102 436.5,-26.7798 436.5,-19.7511"/>
<polygon fill="midnightblue" stroke="midnightblue" points="433,-46.083 436.5,-56.083 440,-46.083 433,-46.083"/>
</g>
<!-- Node12 -->
<g id="node12" class="node"><title>Node12</title>
<g id="a_node12"><a xlink:href="ic9100__lib_8cpp.html" target="_top" xlink:title="ic9100_lib.cpp">
<polygon fill="white" stroke="black" points="504,-0.5 504,-19.5 583,-19.5 583,-0.5 504,-0.5"/>
<text text-anchor="middle" x="543.5" y="-7.5" font-family="Helvetica,sans-Serif" font-size="10.00">ic9100_lib.cpp</text>
</a>
</g>
</g>
<!-- Node11&#45;&gt;Node12 -->
<g id="edge12" class="edge"><title>Node11&#45;&gt;Node12</title>
<path fill="none" stroke="midnightblue" d="M557.379,-46.6897C553.84,-37.589 549.728,-27.0141 546.903,-19.7511"/>
<polygon fill="midnightblue" stroke="midnightblue" points="554.146,-48.0315 561.032,-56.083 560.67,-45.4944 554.146,-48.0315"/>
</g>
<!-- Node13 -->
<g id="node13" class="node"><title>Node13</title>
<g id="a_node13"><a xlink:href="agent__radio_8cpp.html" target="_top" xlink:title="Agent Radio for Satellite Ground Station. ">
<polygon fill="white" stroke="black" points="601.5,-0.5 601.5,-19.5 687.5,-19.5 687.5,-0.5 601.5,-0.5"/>
<text text-anchor="middle" x="644.5" y="-7.5" font-family="Helvetica,sans-Serif" font-size="10.00">agent_radio.cpp</text>
</a>
</g>
</g>
<!-- Node11&#45;&gt;Node13 -->
<g id="edge13" class="edge"><title>Node11&#45;&gt;Node13</title>
<path fill="none" stroke="midnightblue" d="M585.801,-50.6221C600.415,-40.7574 619.327,-27.9919 631.679,-19.6545"/>
<polygon fill="midnightblue" stroke="midnightblue" points="583.684,-47.8282 577.353,-56.324 587.6,-53.6302 583.684,-47.8282"/>
</g>
<!-- Node15 -->
<g id="node15" class="node"><title>Node15</title>
<g id="a_node15"><a xlink:href="kisstnc__lib_8cpp.html" target="_top" xlink:title="kisstnc_lib.cpp">
<polygon fill="white" stroke="black" points="705.5,-0.5 705.5,-19.5 787.5,-19.5 787.5,-0.5 705.5,-0.5"/>
<text text-anchor="middle" x="746.5" y="-7.5" font-family="Helvetica,sans-Serif" font-size="10.00">kisstnc_lib.cpp</text>
</a>
</g>
</g>
<!-- Node14&#45;&gt;Node15 -->
<g id="edge15" class="edge"><title>Node14&#45;&gt;Node15</title>
<path fill="none" stroke="midnightblue" d="M741.95,-46.1005C743.112,-37.1357 744.444,-26.8579 745.366,-19.7511"/>
<polygon fill="midnightblue" stroke="midnightblue" points="738.471,-45.716 740.656,-56.083 745.412,-46.6159 738.471,-45.716"/>
</g>
<!-- Node17 -->
<g id="node17" class="node"><title>Node17</title>
<g id="a_node17"><a xlink:href="kpc9612p__lib_8cpp.html" target="_top" xlink:title="kpc9612p_lib.cpp">
<polygon fill="white" stroke="black" points="931.5,-0.5 931.5,-19.5 1023.5,-19.5 1023.5,-0.5 931.5,-0.5"/>
<text text-anchor="middle" x="977.5" y="-7.5" font-family="Helvetica,sans-Serif" font-size="10.00">kpc9612p_lib.cpp</text>
</a>
</g>
</g>
<!-- Node16&#45;&gt;Node17 -->
<g id="edge17" class="edge"><title>Node16&#45;&gt;Node17</title>
<path fill="none" stroke="midnightblue" d="M898.31,-51.7261C917.753,-41.7271 943.848,-28.3065 960.672,-19.6545"/>
<polygon fill="midnightblue" stroke="midnightblue" points="896.662,-48.6379 889.37,-56.324 899.864,-54.8629 896.662,-48.6379"/>
</g>
<!-- Node16&#45;&gt;Node18 -->
<g id="edge18" class="edge"><title>Node16&#45;&gt;Node18</title>
<path fill="none" stroke="midnightblue" d="M867.95,-46.1005C865.792,-37.1357 863.318,-26.8579 861.607,-19.7511"/>
<polygon fill="midnightblue" stroke="midnightblue" points="864.61,-47.18 870.353,-56.083 871.415,-45.5415 864.61,-47.18"/>
</g>
<!-- Node19 -->
<g id="node19" class="node"><title>Node19</title>
<g id="a_node19"><a xlink:href="kpc9612p__recv_8cpp.html" target="_top" xlink:title="kpc9612p_recv.cpp">
<polygon fill="white" stroke="black" points="1042,-0.5 1042,-19.5 1143,-19.5 1143,-0.5 1042,-0.5"/>
<text text-anchor="middle" x="1092.5" y="-7.5" font-family="Helvetica,sans-Serif" font-size="10.00">kpc9612p_recv.cpp</text>
</a>
</g>
</g>
<!-- Node16&#45;&gt;Node19 -->
<g id="edge19" class="edge"><title>Node16&#45;&gt;Node19</title>
<path fill="none" stroke="midnightblue" d="M917.218,-54.0237C958.776,-43.8232 1019.81,-28.8414 1057.8,-19.5164"/>
<polygon fill="midnightblue" stroke="midnightblue" points="916.237,-50.6606 907.36,-56.4435 917.906,-57.4588 916.237,-50.6606"/>
</g>
<!-- Node20 -->
<g id="node20" class="node"><title>Node20</title>
<g id="a_node20"><a xlink:href="kpc9612p__send_8cpp.html" target="_top" xlink:title="kpc9612p_send.cpp">
<polygon fill="white" stroke="black" points="1161.5,-0.5 1161.5,-19.5 1265.5,-19.5 1265.5,-0.5 1161.5,-0.5"/>
<text text-anchor="middle" x="1213.5" y="-7.5" font-family="Helvetica,sans-Serif" font-size="10.00">kpc9612p_send.cpp</text>
</a>
</g>
</g>
<!-- Node16&#45;&gt;Node20 -->
<g id="edge20" class="edge"><title>Node16&#45;&gt;Node20</title>
<path fill="none" stroke="midnightblue" d="M923.815,-55.822C981.627,-46.3146 1094.69,-29.0384 1161.42,-18.8962"/>
<polygon fill="midnightblue" stroke="midnightblue" points="922.979,-52.4129 913.687,-57.5034 924.125,-59.3184 922.979,-52.4129"/>
</g>
<!-- Node22 -->
<g id="node22" class="node"><title>Node22</title>
<g id="a_node22"><a xlink:href="mixwtnc__lib_8cpp.html" target="_top" xlink:title="mixwtnc_lib.cpp">
<polygon fill="white" stroke="black" points="1284,-0.5 1284,-19.5 1371,-19.5 1371,-0.5 1284,-0.5"/>
<text text-anchor="middle" x="1327.5" y="-7.5" font-family="Helvetica,sans-Serif" font-size="10.00">mixwtnc_lib.cpp</text>
</a>
</g>
</g>
<!-- Node21&#45;&gt;Node22 -->
<g id="edge22" class="edge"><title>Node21&#45;&gt;Node22</title>
<path fill="none" stroke="midnightblue" d="M1019.35,-55.7562C1133.01,-37.1624 1163.75,-37.1564 1274.5,-20 1277.54,-19.5285 1280.68,-19.029 1283.84,-18.5166"/>
<polygon fill="midnightblue" stroke="midnightblue" points="1018.5,-52.3499 1009.2,-57.4302 1019.64,-59.2567 1018.5,-52.3499"/>
</g>
<!-- Node24 -->
<g id="node24" class="node"><title>Node24</title>
<g id="a_node24"><a xlink:href="pic__lib_8cpp.html" target="_top" xlink:title="pic_lib.cpp">
<polygon fill="white" stroke="black" points="1389,-0.5 1389,-19.5 1452,-19.5 1452,-0.5 1389,-0.5"/>
<text text-anchor="middle" x="1420.5" y="-7.5" font-family="Helvetica,sans-Serif" font-size="10.00">pic_lib.cpp</text>
</a>
</g>
</g>
<!-- Node23&#45;&gt;Node24 -->
<g id="edge24" class="edge"><title>Node23&#45;&gt;Node24</title>
<path fill="none" stroke="midnightblue" d="M1090.04,-56.125C1219.36,-32.6298 1255.24,-41.7851 1380.5,-20 1383.16,-19.5365 1385.92,-19.0123 1388.68,-18.4557"/>
<polygon fill="midnightblue" stroke="midnightblue" points="1089.35,-52.693 1080.16,-57.9513 1090.63,-59.5765 1089.35,-52.693"/>
</g>
<!-- Node25&#45;&gt;Node13 -->
<g id="edge26" class="edge"><title>Node25&#45;&gt;Node13</title>
<path fill="none" stroke="midnightblue" d="M649.05,-46.1005C647.888,-37.1357 646.556,-26.8579 645.634,-19.7511"/>
<polygon fill="midnightblue" stroke="midnightblue" points="645.588,-46.6159 650.344,-56.083 652.529,-45.716 645.588,-46.6159"/>
</g>
</g>
</svg>
        <g id="navigator" transform="translate(0 0)" fill="#404254">
                <rect fill="#f2f5e9" fill-opacity="0.5" stroke="#606060" stroke-width=".5" x="0" y="0" width="60" height="60"/>
                <use id="zoomplus" xlink:href="#zoomPlus" x="17" y="9" onmousedown="handleZoom(evt,'in')"/>
                <use id="zoomminus" xlink:href="#zoomMin" x="42" y="9" onmousedown="handleZoom(evt,'out')"/>
                <use id="reset" xlink:href="#resetDef" x="30" y="36" onmousedown="handleReset()"/>
                <g id="arrowUp" xlink:href="#dirArrow" transform="translate(30 24)" onmousedown="handlePan(0,-1)">
                  <use xlink:href="#rim" fill="#404040">
                        <set attributeName="fill" to="#808080" begin="arrowUp.mouseover" end="arrowUp.mouseout"/>
                  </use>
                  <path fill="none" stroke="white" stroke-width="1.5" d="M0,-3.0v7 M-2.5,-0.5L0,-3.0L2.5,-0.5"/>
                </g>
                <g id="arrowRight" xlink:href="#dirArrow" transform="rotate(90) translate(36 -43)" onmousedown="handlePan(1,0)">
                  <use xlink:href="#rim" fill="#404040">
                        <set attributeName="fill" to="#808080" begin="arrowRight.mouseover" end="arrowRight.mouseout"/>
                  </use>
                  <path fill="none" stroke="white" stroke-width="1.5" d="M0,-3.0v7 M-2.5,-0.5L0,-3.0L2.5,-0.5"/>
                </g>
                <g id="arrowDown" xlink:href="#dirArrow" transform="rotate(180) translate(-30 -48)" onmousedown="handlePan(0,1)">
                  <use xlink:href="#rim" fill="#404040">
                        <set attributeName="fill" to="#808080" begin="arrowDown.mouseover" end="arrowDown.mouseout"/>
                  </use>
                  <path fill="none" stroke="white" stroke-width="1.5" d="M0,-3.0v7 M-2.5,-0.5L0,-3.0L2.5,-0.5"/>
                </g>
                <g id="arrowLeft" xlink:href="#dirArrow" transform="rotate(270) translate(-36 17)" onmousedown="handlePan(-1,0)">
                  <use xlink:href="#rim" fill="#404040">
                        <set attributeName="fill" to="#808080" begin="arrowLeft.mouseover" end="arrowLeft.mouseout"/>
                  </use>
                  <path fill="none" stroke="white" stroke-width="1.5" d="M0,-3.0v7 M-2.5,-0.5L0,-3.0L2.5,-0.5"/>
                </g>
        </g>
        <svg viewBox="0 0 15 15" width="100%" height="30px" preserveAspectRatio="xMaxYMin meet">
         <g id="arrow_out" transform="scale(0.3 0.3)">
          <a xlink:href="cssl__lib_8h__dep__incl_org.svg" target="_base">
           <rect id="button" ry="5" rx="5" y="6" x="6" height="38" width="38"
                fill="#f2f5e9" fill-opacity="0.5" stroke="#606060" stroke-width="1.0"/>
           <path id="arrow"
             d="M 11.500037,31.436501 C 11.940474,20.09759 22.043105,11.32322 32.158766,21.979434 L 37.068811,17.246167 C 37.068811,17.246167 37.088388,32 37.088388,32 L 22.160133,31.978069 C 22.160133,31.978069 26.997745,27.140456 26.997745,27.140456 C 18.528582,18.264221 13.291696,25.230495 11.500037,31.436501 z"
             style="fill:#404040;"/>
          </a>
         </g>
        </svg>
</svg>
