<?xml version="1.0" encoding="UTF-8" standalone="no"?>
<!DOCTYPE svg PUBLIC "-//W3C//DTD SVG 1.1//EN"
 "http://www.w3.org/Graphics/SVG/1.1/DTD/svg11.dtd">
<!-- Generated by graphviz version 2.38.0 (20140413.2041)
 -->
<!-- Title: cubesat2obj.cpp Pages: 1 -->
<!--zoomable 532 -->
<svg id="main" version="1.1" xmlns="http://www.w3.org/2000/svg" xmlns:xlink="http://www.w3.org/1999/xlink" xml:space="preserve" onload="init(evt)">
<style type="text/css"><![CDATA[
.edge:hover path { stroke: red; }
.edge:hover polygon { stroke: red; fill: red; }
]]></style>
<script type="text/javascript"><![CDATA[
var edges = document.getElementsByTagName('g');
if (edges && edges.length) {
  for (var i=0;i<edges.length;i++) {
    if (edges[i].id.substr(0,4)=='edge') {
      edges[i].setAttribute('class','edge');
    }
  }
}
]]></script>
        <defs>
                <circle id="rim" cx="0" cy="0" r="7"/>
                <circle id="rim2" cx="0" cy="0" r="3.5"/>
                <g id="zoomPlus">
                        <use xlink:href="#rim" fill="#404040">
                                <set attributeName="fill" to="#808080" begin="zoomplus.mouseover" end="zoomplus.mouseout"/>
                        </use>
                        <path d="M-4,0h8M0,-4v8" fill="none" stroke="white" stroke-width="1.5" pointer-events="none"/>
                </g>
                <g id="zoomMin">
                        <use xlink:href="#rim" fill="#404040">
                                <set attributeName="fill" to="#808080" begin="zoomminus.mouseover" end="zoomminus.mouseout"/>
                        </use>
                        <path d="M-4,0h8" fill="none" stroke="white" stroke-width="1.5" pointer-events="none"/>
                </g>
                <g id="dirArrow">
                        <path fill="none" stroke="white" stroke-width="1.5" d="M0,-3.0v7 M-2.5,-0.5L0,-3.0L2.5,-0.5"/>
                </g>
               <g id="resetDef">
                       <use xlink:href="#rim2" fill="#404040">
                               <set attributeName="fill" to="#808080" begin="reset.mouseover" end="reset.mouseout"/>
                       </use>
               </g>
        </defs>

<script type="text/javascript">
var viewWidth = 1472;
var viewHeight = 532;
var sectionId = 'dynsection-0';
</script>
<script xlink:href="svgpan.js"/>
<svg id="graph" class="graph">
<g id="viewport">
<title>cubesat2obj.cpp</title>
<polygon fill="white" stroke="none" points="-4,4 -4,-528 1467.51,-528 1467.51,4 -4,4"/>
<!-- Node1 -->
<g id="node1" class="node"><title>Node1</title>
<polygon fill="#bfbfbf" stroke="black" points="873.509,-504.5 873.509,-523.5 961.509,-523.5 961.509,-504.5 873.509,-504.5"/>
<text text-anchor="middle" x="917.509" y="-511.5" font-family="Helvetica,sans-Serif" font-size="10.00">cubesat2obj.cpp</text>
</g>
<!-- Node2 -->
<g id="node2" class="node"><title>Node2</title>
<g id="a_node2"><a xlink:href="config_cosmos_8h.html" target="_top" xlink:title="Headers and definitions common to all COSMOS. ">
<polygon fill="white" stroke="black" points="795.009,-112.5 795.009,-131.5 918.009,-131.5 918.009,-112.5 795.009,-112.5"/>
<text text-anchor="middle" x="856.509" y="-119.5" font-family="Helvetica,sans-Serif" font-size="10.00">support/configCosmos.h</text>
</a>
</g>
</g>
<!-- Node1&#45;&gt;Node2 -->
<g id="edge1" class="edge"><title>Node1&#45;&gt;Node2</title>
<path fill="none" stroke="midnightblue" d="M900.715,-504.318C872.47,-488.374 818.509,-451.559 818.509,-403 818.509,-403 818.509,-403 818.509,-233 818.509,-198.813 835.109,-161.764 846.366,-140.571"/>
<polygon fill="midnightblue" stroke="midnightblue" points="849.456,-142.215 851.225,-131.769 843.328,-138.832 849.456,-142.215"/>
</g>
<!-- Node28 -->
<g id="node28" class="node"><title>Node28</title>
<g id="a_node28"><a xlink:href="objlib_8h.html" target="_top" xlink:title="support/objlib.h">
<polygon fill="white" stroke="black" points="976.009,-448.5 976.009,-467.5 1059.01,-467.5 1059.01,-448.5 976.009,-448.5"/>
<text text-anchor="middle" x="1017.51" y="-455.5" font-family="Helvetica,sans-Serif" font-size="10.00">support/objlib.h</text>
</a>
</g>
</g>
<!-- Node1&#45;&gt;Node28 -->
<g id="edge33" class="edge"><title>Node1&#45;&gt;Node28</title>
<path fill="none" stroke="midnightblue" d="M933.576,-504.324C949.467,-495.743 974.016,-482.486 992.467,-472.522"/>
<polygon fill="midnightblue" stroke="midnightblue" points="994.346,-475.486 1001.48,-467.655 991.02,-469.326 994.346,-475.486"/>
</g>
<!-- Node3 -->
<g id="node3" class="node"><title>Node3</title>
<polygon fill="white" stroke="#bfbfbf" points="1079.01,-56.5 1079.01,-75.5 1124.01,-75.5 1124.01,-56.5 1079.01,-56.5"/>
<text text-anchor="middle" x="1101.51" y="-63.5" font-family="Helvetica,sans-Serif" font-size="10.00">climits</text>
</g>
<!-- Node2&#45;&gt;Node3 -->
<g id="edge2" class="edge"><title>Node2&#45;&gt;Node3</title>
<path fill="none" stroke="midnightblue" d="M897.622,-112.429C939.631,-103.595 1006.72,-89.2783 1064.51,-76 1065.96,-75.6669 1067.44,-75.3229 1068.93,-74.9724"/>
<polygon fill="midnightblue" stroke="midnightblue" points="1069.92,-78.3364 1078.83,-72.6129 1068.29,-71.5271 1069.92,-78.3364"/>
</g>
<!-- Node4 -->
<g id="node4" class="node"><title>Node4</title>
<polygon fill="white" stroke="#bfbfbf" points="1142.01,-56.5 1142.01,-75.5 1189.01,-75.5 1189.01,-56.5 1142.01,-56.5"/>
<text text-anchor="middle" x="1165.51" y="-63.5" font-family="Helvetica,sans-Serif" font-size="10.00">csignal</text>
</g>
<!-- Node2&#45;&gt;Node4 -->
<g id="edge3" class="edge"><title>Node2&#45;&gt;Node4</title>
<path fill="none" stroke="midnightblue" d="M918.244,-112.821C972.106,-105.257 1052.52,-92.9361 1131.65,-75.9879"/>
<polygon fill="midnightblue" stroke="midnightblue" points="1132.76,-79.3281 1141.79,-73.7879 1131.27,-72.4871 1132.76,-79.3281"/>
</g>
<!-- Node5 -->
<g id="node5" class="node"><title>Node5</title>
<polygon fill="white" stroke="#bfbfbf" points="1245.51,-56.5 1245.51,-75.5 1291.51,-75.5 1291.51,-56.5 1245.51,-56.5"/>
<text text-anchor="middle" x="1268.51" y="-63.5" font-family="Helvetica,sans-Serif" font-size="10.00">cstdint</text>
</g>
<!-- Node2&#45;&gt;Node5 -->
<g id="edge4" class="edge"><title>Node2&#45;&gt;Node5</title>
<path fill="none" stroke="midnightblue" d="M918.228,-115.867C992.824,-109.141 1121.98,-95.8199 1231.51,-76 1232.79,-75.7682 1234.09,-75.5189 1235.41,-75.2561"/>
<polygon fill="midnightblue" stroke="midnightblue" points="1236.49,-78.6023 1245.51,-73.0443 1234.99,-71.7643 1236.49,-78.6023"/>
</g>
<!-- Node6 -->
<g id="node6" class="node"><title>Node6</title>
<polygon fill="white" stroke="#bfbfbf" points="13.5088,-56.5 13.5088,-75.5 69.5088,-75.5 69.5088,-56.5 13.5088,-56.5"/>
<text text-anchor="middle" x="41.5088" y="-63.5" font-family="Helvetica,sans-Serif" font-size="10.00">cinttypes</text>
</g>
<!-- Node2&#45;&gt;Node6 -->
<g id="edge5" class="edge"><title>Node2&#45;&gt;Node6</title>
<path fill="none" stroke="midnightblue" d="M794.849,-121.206C664.366,-120.826 350.735,-115.608 79.7144,-75.8982"/>
<polygon fill="midnightblue" stroke="midnightblue" points="80.0921,-72.416 69.6866,-74.4102 79.0645,-79.3402 80.0921,-72.416"/>
</g>
<!-- Node7 -->
<g id="node7" class="node"><title>Node7</title>
<polygon fill="white" stroke="#bfbfbf" points="88.0088,-56.5 88.0088,-75.5 131.009,-75.5 131.009,-56.5 88.0088,-56.5"/>
<text text-anchor="middle" x="109.509" y="-63.5" font-family="Helvetica,sans-Serif" font-size="10.00">cstdio</text>
</g>
<!-- Node2&#45;&gt;Node7 -->
<g id="edge6" class="edge"><title>Node2&#45;&gt;Node7</title>
<path fill="none" stroke="midnightblue" d="M794.56,-121.85C671.325,-122.517 386.836,-118.94 141.503,-75.983"/>
<polygon fill="midnightblue" stroke="midnightblue" points="141.782,-72.4778 131.324,-74.1738 140.557,-79.3698 141.782,-72.4778"/>
</g>
<!-- Node8 -->
<g id="node8" class="node"><title>Node8</title>
<polygon fill="white" stroke="#bfbfbf" points="149.009,-56.5 149.009,-75.5 198.009,-75.5 198.009,-56.5 149.009,-56.5"/>
<text text-anchor="middle" x="173.509" y="-63.5" font-family="Helvetica,sans-Serif" font-size="10.00">cstddef</text>
</g>
<!-- Node2&#45;&gt;Node8 -->
<g id="edge7" class="edge"><title>Node2&#45;&gt;Node8</title>
<path fill="none" stroke="midnightblue" d="M794.644,-120.76C680.288,-119.438 428.152,-112.418 208.368,-76.0118"/>
<polygon fill="midnightblue" stroke="midnightblue" points="208.7,-72.5185 198.258,-74.3123 207.539,-79.4217 208.7,-72.5185"/>
</g>
<!-- Node9 -->
<g id="node9" class="node"><title>Node9</title>
<polygon fill="white" stroke="#bfbfbf" points="216.009,-56.5 216.009,-75.5 261.009,-75.5 261.009,-56.5 216.009,-56.5"/>
<text text-anchor="middle" x="238.509" y="-63.5" font-family="Helvetica,sans-Serif" font-size="10.00">cstdlib</text>
</g>
<!-- Node2&#45;&gt;Node9 -->
<g id="edge8" class="edge"><title>Node2&#45;&gt;Node9</title>
<path fill="none" stroke="midnightblue" d="M794.845,-120.256C689.274,-118.111 467.176,-109.802 271.018,-75.701"/>
<polygon fill="midnightblue" stroke="midnightblue" points="271.562,-72.2431 261.106,-73.9518 270.346,-79.1365 271.562,-72.2431"/>
</g>
<!-- Node10 -->
<g id="node10" class="node"><title>Node10</title>
<polygon fill="white" stroke="#bfbfbf" points="279.509,-56.5 279.509,-75.5 323.509,-75.5 323.509,-56.5 279.509,-56.5"/>
<text text-anchor="middle" x="301.509" y="-63.5" font-family="Helvetica,sans-Serif" font-size="10.00">cerrno</text>
</g>
<!-- Node2&#45;&gt;Node10 -->
<g id="edge9" class="edge"><title>Node2&#45;&gt;Node10</title>
<path fill="none" stroke="midnightblue" d="M794.671,-119.622C697.991,-116.607 505.196,-107.128 333.696,-75.8659"/>
<polygon fill="midnightblue" stroke="midnightblue" points="334.204,-72.4004 323.734,-74.0205 332.929,-79.2833 334.204,-72.4004"/>
</g>
<!-- Node11 -->
<g id="node11" class="node"><title>Node11</title>
<polygon fill="white" stroke="#bfbfbf" points="341.509,-56.5 341.509,-75.5 387.509,-75.5 387.509,-56.5 341.509,-56.5"/>
<text text-anchor="middle" x="364.509" y="-63.5" font-family="Helvetica,sans-Serif" font-size="10.00">cstring</text>
</g>
<!-- Node2&#45;&gt;Node11 -->
<g id="edge10" class="edge"><title>Node2&#45;&gt;Node11</title>
<path fill="none" stroke="midnightblue" d="M795.008,-118.439C708.315,-114.067 545.205,-103.05 397.94,-75.9612"/>
<polygon fill="midnightblue" stroke="midnightblue" points="398.288,-72.4657 387.815,-74.0684 397.001,-79.3465 398.288,-72.4657"/>
</g>
<!-- Node12 -->
<g id="node12" class="node"><title>Node12</title>
<polygon fill="white" stroke="#bfbfbf" points="1419.51,-56.5 1419.51,-75.5 1463.51,-75.5 1463.51,-56.5 1419.51,-56.5"/>
<text text-anchor="middle" x="1441.51" y="-63.5" font-family="Helvetica,sans-Serif" font-size="10.00">cmath</text>
</g>
<!-- Node2&#45;&gt;Node12 -->
<g id="edge11" class="edge"><title>Node2&#45;&gt;Node12</title>
<path fill="none" stroke="midnightblue" d="M918.111,-120.035C1019.09,-117.572 1226.09,-108.819 1409.2,-75.8761"/>
<polygon fill="midnightblue" stroke="midnightblue" points="1410.08,-79.2743 1419.29,-74.0331 1408.82,-72.3884 1410.08,-79.2743"/>
</g>
<!-- Node13 -->
<g id="node13" class="node"><title>Node13</title>
<polygon fill="white" stroke="#bfbfbf" points="406.009,-56.5 406.009,-75.5 451.009,-75.5 451.009,-56.5 406.009,-56.5"/>
<text text-anchor="middle" x="428.509" y="-63.5" font-family="Helvetica,sans-Serif" font-size="10.00">iosfwd</text>
</g>
<!-- Node2&#45;&gt;Node13 -->
<g id="edge12" class="edge"><title>Node2&#45;&gt;Node13</title>
<path fill="none" stroke="midnightblue" d="M794.799,-117.262C718.369,-111.909 584.145,-100.145 461.06,-76.0221"/>
<polygon fill="midnightblue" stroke="midnightblue" points="461.577,-72.5564 451.086,-74.0349 460.209,-79.4215 461.577,-72.5564"/>
</g>
<!-- Node14 -->
<g id="node14" class="node"><title>Node14</title>
<polygon fill="white" stroke="#bfbfbf" points="1347.51,-56.5 1347.51,-75.5 1401.51,-75.5 1401.51,-56.5 1347.51,-56.5"/>
<text text-anchor="middle" x="1374.51" y="-63.5" font-family="Helvetica,sans-Serif" font-size="10.00">iostream</text>
</g>
<!-- Node2&#45;&gt;Node14 -->
<g id="edge13" class="edge"><title>Node2&#45;&gt;Node14</title>
<path fill="none" stroke="midnightblue" d="M918.322,-115.129C1004.14,-106.889 1164.22,-91.1932 1300.51,-76 1312.55,-74.6581 1325.67,-73.0946 1337.48,-71.6508"/>
<polygon fill="midnightblue" stroke="midnightblue" points="1337.96,-75.1179 1347.46,-70.4214 1337.11,-68.1705 1337.96,-75.1179"/>
</g>
<!-- Node15 -->
<g id="node15" class="node"><title>Node15</title>
<polygon fill="white" stroke="#bfbfbf" points="469.009,-56.5 469.009,-75.5 520.009,-75.5 520.009,-56.5 469.009,-56.5"/>
<text text-anchor="middle" x="494.509" y="-63.5" font-family="Helvetica,sans-Serif" font-size="10.00">unistd.h</text>
</g>
<!-- Node2&#45;&gt;Node15 -->
<g id="edge14" class="edge"><title>Node2&#45;&gt;Node15</title>
<path fill="none" stroke="midnightblue" d="M794.988,-114.67C731.19,-107.625 628.407,-94.9342 530.151,-75.9105"/>
<polygon fill="midnightblue" stroke="midnightblue" points="530.532,-72.4186 520.046,-73.928 529.185,-79.2877 530.532,-72.4186"/>
</g>
<!-- Node16 -->
<g id="node16" class="node"><title>Node16</title>
<polygon fill="white" stroke="#bfbfbf" points="538.509,-56.5 538.509,-75.5 582.509,-75.5 582.509,-56.5 538.509,-56.5"/>
<text text-anchor="middle" x="560.509" y="-63.5" font-family="Helvetica,sans-Serif" font-size="10.00">fcntl.h</text>
</g>
<!-- Node2&#45;&gt;Node16 -->
<g id="edge15" class="edge"><title>Node2&#45;&gt;Node16</title>
<path fill="none" stroke="midnightblue" d="M794.803,-112.564C743.16,-105.039 667.386,-92.9228 592.815,-76.0918"/>
<polygon fill="midnightblue" stroke="midnightblue" points="593.309,-72.6144 582.78,-73.7962 591.748,-79.4382 593.309,-72.6144"/>
</g>
<!-- Node17 -->
<g id="node17" class="node"><title>Node17</title>
<polygon fill="white" stroke="#bfbfbf" points="601.009,-56.5 601.009,-75.5 642.009,-75.5 642.009,-56.5 601.009,-56.5"/>
<text text-anchor="middle" x="621.509" y="-63.5" font-family="Helvetica,sans-Serif" font-size="10.00">string</text>
</g>
<!-- Node2&#45;&gt;Node17 -->
<g id="edge16" class="edge"><title>Node2&#45;&gt;Node17</title>
<path fill="none" stroke="midnightblue" d="M816.961,-112.473C776.555,-103.674 712.041,-89.384 656.509,-76 655.06,-75.6509 653.579,-75.2891 652.084,-74.9199"/>
<polygon fill="midnightblue" stroke="midnightblue" points="652.763,-71.4817 642.211,-72.4343 651.054,-78.2698 652.763,-71.4817"/>
</g>
<!-- Node18 -->
<g id="node18" class="node"><title>Node18</title>
<polygon fill="white" stroke="#bfbfbf" points="1195.51,-0.5 1195.51,-19.5 1239.51,-19.5 1239.51,-0.5 1195.51,-0.5"/>
<text text-anchor="middle" x="1217.51" y="-7.5" font-family="Helvetica,sans-Serif" font-size="10.00">vector</text>
</g>
<!-- Node2&#45;&gt;Node18 -->
<g id="edge17" class="edge"><title>Node2&#45;&gt;Node18</title>
<path fill="none" stroke="midnightblue" d="M918.335,-120.623C1004.98,-118.824 1156.52,-110.646 1197.51,-76 1210.87,-64.7028 1215.47,-44.6982 1216.97,-29.856"/>
<polygon fill="midnightblue" stroke="midnightblue" points="1220.47,-29.9423 1217.6,-19.7421 1213.48,-29.5023 1220.47,-29.9423"/>
</g>
<!-- Node19 -->
<g id="node19" class="node"><title>Node19</title>
<polygon fill="white" stroke="#bfbfbf" points="699.009,-56.5 699.009,-75.5 742.009,-75.5 742.009,-56.5 699.009,-56.5"/>
<text text-anchor="middle" x="720.509" y="-63.5" font-family="Helvetica,sans-Serif" font-size="10.00">deque</text>
</g>
<!-- Node2&#45;&gt;Node19 -->
<g id="edge18" class="edge"><title>Node2&#45;&gt;Node19</title>
<path fill="none" stroke="midnightblue" d="M834.959,-112.444C812.478,-103.517 777.021,-89.4387 751.529,-79.3168"/>
<polygon fill="midnightblue" stroke="midnightblue" points="752.543,-75.9539 741.958,-75.5164 749.96,-82.4598 752.543,-75.9539"/>
</g>
<!-- Node20 -->
<g id="node20" class="node"><title>Node20</title>
<polygon fill="white" stroke="#bfbfbf" points="282.509,-0.5 282.509,-19.5 326.509,-19.5 326.509,-0.5 282.509,-0.5"/>
<text text-anchor="middle" x="304.509" y="-7.5" font-family="Helvetica,sans-Serif" font-size="10.00">mutex</text>
</g>
<!-- Node2&#45;&gt;Node20 -->
<g id="edge19" class="edge"><title>Node2&#45;&gt;Node20</title>
<path fill="none" stroke="midnightblue" d="M794.768,-120.039C603.446,-116.764 31.6501,-104.613 4.50882,-76 -1.60857,-69.551 -1.29168,-62.7355 4.50882,-56 38.8327,-16.1435 202.234,-11.0876 272.389,-10.7901"/>
<polygon fill="midnightblue" stroke="midnightblue" points="272.431,-14.2902 282.426,-10.7779 272.422,-7.29019 272.431,-14.2902"/>
</g>
<!-- Node21 -->
<g id="node21" class="node"><title>Node21</title>
<polygon fill="white" stroke="#bfbfbf" points="655.509,-0.5 655.509,-19.5 699.509,-19.5 699.509,-0.5 655.509,-0.5"/>
<text text-anchor="middle" x="677.509" y="-7.5" font-family="Helvetica,sans-Serif" font-size="10.00">thread</text>
</g>
<!-- Node2&#45;&gt;Node21 -->
<g id="edge20" class="edge"><title>Node2&#45;&gt;Node21</title>
<path fill="none" stroke="midnightblue" d="M794.611,-119.926C758.955,-115.934 716.078,-104.803 689.509,-76 678.212,-63.7536 675.869,-44.491 675.958,-30.1095"/>
<polygon fill="midnightblue" stroke="midnightblue" points="679.466,-29.9986 676.425,-19.8496 672.474,-29.68 679.466,-29.9986"/>
</g>
<!-- Node22 -->
<g id="node22" class="node"><title>Node22</title>
<polygon fill="white" stroke="#bfbfbf" points="726.009,-0.5 726.009,-19.5 821.009,-19.5 821.009,-0.5 726.009,-0.5"/>
<text text-anchor="middle" x="773.509" y="-7.5" font-family="Helvetica,sans-Serif" font-size="10.00">condition_variable</text>
</g>
<!-- Node2&#45;&gt;Node22 -->
<g id="edge21" class="edge"><title>Node2&#45;&gt;Node22</title>
<path fill="none" stroke="midnightblue" d="M836.211,-112.346C821.102,-104.875 801.154,-92.649 789.509,-76 780.038,-62.4592 776.152,-43.9081 774.568,-30.0896"/>
<polygon fill="midnightblue" stroke="midnightblue" points="778.03,-29.4822 773.708,-19.809 771.054,-30.0661 778.03,-29.4822"/>
</g>
<!-- Node23 -->
<g id="node23" class="node"><title>Node23</title>
<polygon fill="white" stroke="#bfbfbf" points="905.009,-0.5 905.009,-19.5 948.009,-19.5 948.009,-0.5 905.009,-0.5"/>
<text text-anchor="middle" x="926.509" y="-7.5" font-family="Helvetica,sans-Serif" font-size="10.00">queue</text>
</g>
<!-- Node2&#45;&gt;Node23 -->
<g id="edge22" class="edge"><title>Node2&#45;&gt;Node23</title>
<path fill="none" stroke="midnightblue" d="M878.728,-112.491C894.201,-105.288 913.748,-93.3384 923.509,-76 931.389,-62.003 931.441,-43.5025 929.93,-29.8191"/>
<polygon fill="midnightblue" stroke="midnightblue" points="933.353,-29.0442 928.43,-19.6627 926.428,-30.0667 933.353,-29.0442"/>
</g>
<!-- Node24 -->
<g id="node24" class="node"><title>Node24</title>
<polygon fill="white" stroke="#bfbfbf" points="970.509,-56.5 970.509,-75.5 1022.51,-75.5 1022.51,-56.5 970.509,-56.5"/>
<text text-anchor="middle" x="996.509" y="-63.5" font-family="Helvetica,sans-Serif" font-size="10.00">sstream</text>
</g>
<!-- Node2&#45;&gt;Node24 -->
<g id="edge23" class="edge"><title>Node2&#45;&gt;Node24</title>
<path fill="none" stroke="midnightblue" d="M878.692,-112.444C901.937,-103.478 938.658,-89.314 964.924,-79.1827"/>
<polygon fill="midnightblue" stroke="midnightblue" points="966.359,-82.3807 974.429,-75.5164 963.84,-75.8497 966.359,-82.3807"/>
</g>
<!-- Node25 -->
<g id="node25" class="node"><title>Node25</title>
<polygon fill="white" stroke="#bfbfbf" points="1000.01,-0.5 1000.01,-19.5 1035.01,-19.5 1035.01,-0.5 1000.01,-0.5"/>
<text text-anchor="middle" x="1017.51" y="-7.5" font-family="Helvetica,sans-Serif" font-size="10.00">map</text>
</g>
<!-- Node2&#45;&gt;Node25 -->
<g id="edge24" class="edge"><title>Node2&#45;&gt;Node25</title>
<path fill="none" stroke="midnightblue" d="M918.36,-113.166C962.906,-106.106 1017.52,-94.0354 1031.51,-76 1042.08,-62.3619 1035.53,-42.4853 1028.25,-28.3076"/>
<polygon fill="midnightblue" stroke="midnightblue" points="1031.27,-26.5292 1023.3,-19.5494 1025.18,-29.9764 1031.27,-26.5292"/>
</g>
<!-- Node26 -->
<g id="node26" class="node"><title>Node26</title>
<g id="a_node26"><a xlink:href="cosmos-defs_8h.html" target="_top" xlink:title="COSMOS definitions Definitions specific to the COSMOS environement. ">
<polygon fill="white" stroke="black" points="798.509,-56.5 798.509,-75.5 914.509,-75.5 914.509,-56.5 798.509,-56.5"/>
<text text-anchor="middle" x="856.509" y="-63.5" font-family="Helvetica,sans-Serif" font-size="10.00">support/cosmos&#45;defs.h</text>
</a>
</g>
</g>
<!-- Node2&#45;&gt;Node26 -->
<g id="edge25" class="edge"><title>Node2&#45;&gt;Node26</title>
<path fill="none" stroke="midnightblue" d="M856.509,-112.083C856.509,-105.006 856.509,-94.8611 856.509,-85.9865"/>
<polygon fill="midnightblue" stroke="midnightblue" points="860.009,-85.751 856.509,-75.7511 853.009,-85.7511 860.009,-85.751"/>
</g>
<!-- Node26&#45;&gt;Node18 -->
<g id="edge27" class="edge"><title>Node26&#45;&gt;Node18</title>
<path fill="none" stroke="midnightblue" d="M913.71,-56.4435C990.419,-44.9691 1124.04,-24.9818 1185.23,-15.8281"/>
<polygon fill="midnightblue" stroke="midnightblue" points="1186.07,-19.2416 1195.44,-14.3006 1185.04,-12.3186 1186.07,-19.2416"/>
</g>
<!-- Node26&#45;&gt;Node20 -->
<g id="edge31" class="edge"><title>Node26&#45;&gt;Node20</title>
<path fill="none" stroke="midnightblue" d="M798.478,-59.3231C682.905,-48.017 427.332,-23.0153 336.952,-14.1738"/>
<polygon fill="midnightblue" stroke="midnightblue" points="337.062,-10.668 326.769,-13.1776 336.381,-17.6347 337.062,-10.668"/>
</g>
<!-- Node26&#45;&gt;Node21 -->
<g id="edge30" class="edge"><title>Node26&#45;&gt;Node21</title>
<path fill="none" stroke="midnightblue" d="M828.146,-56.4435C795.805,-46.6872 743.064,-30.7764 709.343,-20.6036"/>
<polygon fill="midnightblue" stroke="midnightblue" points="710.117,-17.1813 699.532,-17.6439 708.095,-23.883 710.117,-17.1813"/>
</g>
<!-- Node26&#45;&gt;Node22 -->
<g id="edge32" class="edge"><title>Node26&#45;&gt;Node22</title>
<path fill="none" stroke="midnightblue" d="M843.173,-56.324C830.347,-47.979 810.724,-35.2122 795.569,-25.3524"/>
<polygon fill="midnightblue" stroke="midnightblue" points="797.102,-22.1742 786.811,-19.6545 793.285,-28.0417 797.102,-22.1742"/>
</g>
<!-- Node26&#45;&gt;Node23 -->
<g id="edge29" class="edge"><title>Node26&#45;&gt;Node23</title>
<path fill="none" stroke="midnightblue" d="M867.756,-56.324C878.306,-48.1849 894.309,-35.8395 906.951,-26.0874"/>
<polygon fill="midnightblue" stroke="midnightblue" points="909.277,-28.7132 915.057,-19.8339 905.002,-23.1707 909.277,-28.7132"/>
</g>
<!-- Node26&#45;&gt;Node25 -->
<g id="edge26" class="edge"><title>Node26&#45;&gt;Node25</title>
<path fill="none" stroke="midnightblue" d="M882.02,-56.4435C911.495,-46.5575 959.81,-30.3524 990.076,-20.2011"/>
<polygon fill="midnightblue" stroke="midnightblue" points="991.227,-23.5068 999.595,-17.0084 989.001,-16.8701 991.227,-23.5068"/>
</g>
<!-- Node27 -->
<g id="node27" class="node"><title>Node27</title>
<polygon fill="white" stroke="#bfbfbf" points="842.009,-0.5 842.009,-19.5 871.009,-19.5 871.009,-0.5 842.009,-0.5"/>
<text text-anchor="middle" x="856.509" y="-7.5" font-family="Helvetica,sans-Serif" font-size="10.00">list</text>
</g>
<!-- Node26&#45;&gt;Node27 -->
<g id="edge28" class="edge"><title>Node26&#45;&gt;Node27</title>
<path fill="none" stroke="midnightblue" d="M856.509,-56.083C856.509,-49.0059 856.509,-38.8611 856.509,-29.9865"/>
<polygon fill="midnightblue" stroke="midnightblue" points="860.009,-29.751 856.509,-19.7511 853.009,-29.7511 860.009,-29.751"/>
</g>
<!-- Node28&#45;&gt;Node2 -->
<g id="edge34" class="edge"><title>Node28&#45;&gt;Node2</title>
<path fill="none" stroke="midnightblue" d="M978.124,-448.39C930.46,-435.381 856.509,-405.734 856.509,-347 856.509,-347 856.509,-347 856.509,-233 856.509,-200.948 856.509,-163.643 856.509,-141.749"/>
<polygon fill="midnightblue" stroke="midnightblue" points="860.009,-141.558 856.509,-131.558 853.009,-141.558 860.009,-141.558"/>
</g>
<!-- Node29 -->
<g id="node29" class="node"><title>Node29</title>
<g id="a_node29"><a xlink:href="mathlib_8h.html" target="_top" xlink:title="mathlib include file ">
<polygon fill="white" stroke="black" points="1107.01,-392.5 1107.01,-411.5 1188.01,-411.5 1188.01,-392.5 1107.01,-392.5"/>
<text text-anchor="middle" x="1147.51" y="-399.5" font-family="Helvetica,sans-Serif" font-size="10.00">math/mathlib.h</text>
</a>
</g>
</g>
<!-- Node28&#45;&gt;Node29 -->
<g id="edge35" class="edge"><title>Node28&#45;&gt;Node29</title>
<path fill="none" stroke="midnightblue" d="M1038.11,-448.444C1059.5,-439.557 1093.19,-425.563 1117.53,-415.451"/>
<polygon fill="midnightblue" stroke="midnightblue" points="1119.11,-418.585 1127.01,-411.516 1116.43,-412.12 1119.11,-418.585"/>
</g>
<!-- Node33 -->
<g id="node33" class="node"><title>Node33</title>
<g id="a_node33"><a xlink:href="vector_8h.html" target="_top" xlink:title="vector.h">
<polygon fill="white" stroke="black" points="1227.51,-224.5 1227.51,-243.5 1279.51,-243.5 1279.51,-224.5 1227.51,-224.5"/>
<text text-anchor="middle" x="1253.51" y="-231.5" font-family="Helvetica,sans-Serif" font-size="10.00">vector.h</text>
</a>
</g>
</g>
<!-- Node28&#45;&gt;Node33 -->
<g id="edge59" class="edge"><title>Node28&#45;&gt;Node33</title>
<path fill="none" stroke="midnightblue" d="M1059.35,-456.429C1098.83,-453.79 1157.62,-444.172 1196.51,-412 1244.76,-372.075 1252.62,-291.011 1253.59,-254.089"/>
<polygon fill="midnightblue" stroke="midnightblue" points="1257.09,-253.8 1253.71,-243.761 1250.09,-253.721 1257.09,-253.8"/>
</g>
<!-- Node29&#45;&gt;Node2 -->
<g id="edge36" class="edge"><title>Node29&#45;&gt;Node2</title>
<path fill="none" stroke="midnightblue" d="M1106.59,-398.016C1047.77,-392.922 943.303,-380.621 915.509,-356 892.784,-335.869 894.509,-321.359 894.509,-291 894.509,-291 894.509,-291 894.509,-233 894.509,-198.813 877.908,-161.764 866.652,-140.571"/>
<polygon fill="midnightblue" stroke="midnightblue" points="869.69,-138.832 861.793,-131.769 863.561,-142.215 869.69,-138.832"/>
</g>
<!-- Node29&#45;&gt;Node12 -->
<g id="edge57" class="edge"><title>Node29&#45;&gt;Node12</title>
<path fill="none" stroke="midnightblue" d="M1188.22,-395.251C1272.13,-382.259 1456.51,-347.303 1456.51,-291 1456.51,-291 1456.51,-291 1456.51,-177 1456.51,-144.502 1450,-107.095 1445.56,-85.343"/>
<polygon fill="midnightblue" stroke="midnightblue" points="1448.97,-84.5586 1443.47,-75.5039 1442.12,-86.0128 1448.97,-84.5586"/>
</g>
<!-- Node29&#45;&gt;Node14 -->
<g id="edge58" class="edge"><title>Node29&#45;&gt;Node14</title>
<path fill="none" stroke="midnightblue" d="M1185.72,-392.474C1251.82,-375.219 1380.51,-329.493 1380.51,-235 1380.51,-235 1380.51,-235 1380.51,-177 1380.51,-144.9 1377.93,-107.61 1376.15,-85.7319"/>
<polygon fill="midnightblue" stroke="midnightblue" points="1379.62,-85.2189 1375.29,-75.5491 1372.65,-85.8083 1379.62,-85.2189"/>
</g>
<!-- Node30 -->
<g id="node30" class="node"><title>Node30</title>
<g id="a_node30"><a xlink:href="cosmos-errno_8h.html" target="_top" xlink:title="COSMOS Error Codes. ">
<polygon fill="white" stroke="black" points="925.009,-336.5 925.009,-355.5 1044.01,-355.5 1044.01,-336.5 925.009,-336.5"/>
<text text-anchor="middle" x="984.509" y="-343.5" font-family="Helvetica,sans-Serif" font-size="10.00">support/cosmos&#45;errno.h</text>
</a>
</g>
</g>
<!-- Node29&#45;&gt;Node30 -->
<g id="edge37" class="edge"><title>Node29&#45;&gt;Node30</title>
<path fill="none" stroke="midnightblue" d="M1121.68,-392.444C1094.26,-383.359 1050.73,-368.939 1020.08,-358.783"/>
<polygon fill="midnightblue" stroke="midnightblue" points="1020.81,-355.339 1010.22,-355.516 1018.61,-361.984 1020.81,-355.339"/>
</g>
<!-- Node32 -->
<g id="node32" class="node"><title>Node32</title>
<g id="a_node32"><a xlink:href="math_2constants_8h.html" target="_top" xlink:title="constants.h">
<polygon fill="white" stroke="black" points="1102.51,-168.5 1102.51,-187.5 1170.51,-187.5 1170.51,-168.5 1102.51,-168.5"/>
<text text-anchor="middle" x="1136.51" y="-175.5" font-family="Helvetica,sans-Serif" font-size="10.00">constants.h</text>
</a>
</g>
</g>
<!-- Node29&#45;&gt;Node32 -->
<g id="edge40" class="edge"><title>Node29&#45;&gt;Node32</title>
<path fill="none" stroke="midnightblue" d="M1147.51,-392.165C1147.48,-379.657 1147.3,-356.074 1146.51,-336 1144.53,-285.887 1140.24,-226.889 1137.98,-197.534"/>
<polygon fill="midnightblue" stroke="midnightblue" points="1141.46,-197.198 1137.2,-187.502 1134.49,-197.744 1141.46,-197.198"/>
</g>
<!-- Node29&#45;&gt;Node33 -->
<g id="edge43" class="edge"><title>Node29&#45;&gt;Node33</title>
<path fill="none" stroke="midnightblue" d="M1160.48,-392.292C1171.96,-384.048 1188.55,-370.763 1199.51,-356 1223.76,-323.338 1240.27,-278.065 1248.17,-253.188"/>
<polygon fill="midnightblue" stroke="midnightblue" points="1251.52,-254.177 1251.1,-243.59 1244.83,-252.129 1251.52,-254.177"/>
</g>
<!-- Node35 -->
<g id="node35" class="node"><title>Node35</title>
<g id="a_node35"><a xlink:href="matrix_8h.html" target="_top" xlink:title="matrix.h">
<polygon fill="white" stroke="black" points="1065.51,-280.5 1065.51,-299.5 1117.51,-299.5 1117.51,-280.5 1065.51,-280.5"/>
<text text-anchor="middle" x="1091.51" y="-287.5" font-family="Helvetica,sans-Serif" font-size="10.00">matrix.h</text>
</a>
</g>
</g>
<!-- Node29&#45;&gt;Node35 -->
<g id="edge50" class="edge"><title>Node29&#45;&gt;Node35</title>
<path fill="none" stroke="midnightblue" d="M1145.9,-392.182C1143.3,-379.289 1137.45,-354.785 1127.51,-336 1122.02,-325.63 1114.01,-315.318 1106.93,-307.187"/>
<polygon fill="midnightblue" stroke="midnightblue" points="1109.36,-304.648 1100.05,-299.592 1104.17,-309.351 1109.36,-304.648"/>
</g>
<!-- Node36 -->
<g id="node36" class="node"><title>Node36</title>
<g id="a_node36"><a xlink:href="rotation_8h.html" target="_top" xlink:title="rotation.h">
<polygon fill="white" stroke="black" points="1062.01,-336.5 1062.01,-355.5 1119.01,-355.5 1119.01,-336.5 1062.01,-336.5"/>
<text text-anchor="middle" x="1090.51" y="-343.5" font-family="Helvetica,sans-Serif" font-size="10.00">rotation.h</text>
</a>
</g>
</g>
<!-- Node29&#45;&gt;Node36 -->
<g id="edge53" class="edge"><title>Node29&#45;&gt;Node36</title>
<path fill="none" stroke="midnightblue" d="M1138.35,-392.324C1130.01,-384.42 1117.48,-372.548 1107.33,-362.938"/>
<polygon fill="midnightblue" stroke="midnightblue" points="1109.5,-360.171 1099.83,-355.834 1104.69,-365.252 1109.5,-360.171"/>
</g>
<!-- Node30&#45;&gt;Node2 -->
<g id="edge38" class="edge"><title>Node30&#45;&gt;Node2</title>
<path fill="none" stroke="midnightblue" d="M976.774,-336.253C969.427,-327.57 958.493,-313.621 951.509,-300 923.355,-245.097 942.641,-219.401 908.509,-168 900.666,-156.189 888.91,-145.653 878.559,-137.75"/>
<polygon fill="midnightblue" stroke="midnightblue" points="880.46,-134.805 870.312,-131.761 876.347,-140.469 880.46,-134.805"/>
</g>
<!-- Node31 -->
<g id="node31" class="node"><title>Node31</title>
<polygon fill="white" stroke="#bfbfbf" points="961.009,-280.5 961.009,-299.5 1008.01,-299.5 1008.01,-280.5 961.009,-280.5"/>
<text text-anchor="middle" x="984.509" y="-287.5" font-family="Helvetica,sans-Serif" font-size="10.00">errno.h</text>
</g>
<!-- Node30&#45;&gt;Node31 -->
<g id="edge39" class="edge"><title>Node30&#45;&gt;Node31</title>
<path fill="none" stroke="midnightblue" d="M984.509,-336.083C984.509,-329.006 984.509,-318.861 984.509,-309.986"/>
<polygon fill="midnightblue" stroke="midnightblue" points="988.009,-309.751 984.509,-299.751 981.009,-309.751 988.009,-309.751"/>
</g>
<!-- Node32&#45;&gt;Node2 -->
<g id="edge41" class="edge"><title>Node32&#45;&gt;Node2</title>
<path fill="none" stroke="midnightblue" d="M1102.46,-170.433C1054.75,-161.232 967.509,-144.407 910.789,-133.468"/>
<polygon fill="midnightblue" stroke="midnightblue" points="911.399,-130.022 900.917,-131.564 910.074,-136.895 911.399,-130.022"/>
</g>
<!-- Node32&#45;&gt;Node5 -->
<g id="edge42" class="edge"><title>Node32&#45;&gt;Node5</title>
<path fill="none" stroke="midnightblue" d="M1146.87,-168.368C1169.23,-149.733 1222.27,-105.532 1250.35,-82.1338"/>
<polygon fill="midnightblue" stroke="midnightblue" points="1252.76,-84.6821 1258.2,-75.5914 1248.28,-79.3045 1252.76,-84.6821"/>
</g>
<!-- Node33&#45;&gt;Node2 -->
<g id="edge44" class="edge"><title>Node33&#45;&gt;Node2</title>
<path fill="none" stroke="midnightblue" d="M1255.71,-224.459C1258.73,-210.556 1262.24,-183.072 1247.51,-168 1225.64,-145.636 1035.05,-132.243 928.263,-126.429"/>
<polygon fill="midnightblue" stroke="midnightblue" points="928.371,-122.93 918.199,-125.89 927.997,-129.92 928.371,-122.93"/>
</g>
<!-- Node33&#45;&gt;Node12 -->
<g id="edge48" class="edge"><title>Node33&#45;&gt;Node12</title>
<path fill="none" stroke="midnightblue" d="M1275.39,-224.38C1293.66,-216.55 1319.79,-203.82 1339.51,-188 1378.27,-156.895 1413.18,-109.334 1430.33,-84.1028"/>
<polygon fill="midnightblue" stroke="midnightblue" points="1433.36,-85.8669 1436,-75.6071 1427.54,-81.9794 1433.36,-85.8669"/>
</g>
<!-- Node33&#45;&gt;Node14 -->
<g id="edge46" class="edge"><title>Node33&#45;&gt;Node14</title>
<path fill="none" stroke="midnightblue" d="M1270.9,-224.347C1285.22,-216.497 1305.26,-203.755 1318.51,-188 1344.86,-156.676 1361.53,-110.893 1369.31,-85.5714"/>
<polygon fill="midnightblue" stroke="midnightblue" points="1372.73,-86.3688 1372.19,-75.7876 1366.01,-84.3939 1372.73,-86.3688"/>
</g>
<!-- Node33&#45;&gt;Node18 -->
<g id="edge49" class="edge"><title>Node33&#45;&gt;Node18</title>
<path fill="none" stroke="midnightblue" d="M1260.25,-224.244C1280.13,-197.294 1334.99,-113.916 1300.51,-56 1289.42,-37.3758 1267.64,-25.9852 1249.18,-19.3246"/>
<polygon fill="midnightblue" stroke="midnightblue" points="1250.21,-15.9818 1239.62,-16.1772 1248.02,-22.6304 1250.21,-15.9818"/>
</g>
<!-- Node33&#45;&gt;Node32 -->
<g id="edge45" class="edge"><title>Node33&#45;&gt;Node32</title>
<path fill="none" stroke="midnightblue" d="M1234.97,-224.444C1215.89,-215.636 1185.93,-201.812 1164.07,-191.722"/>
<polygon fill="midnightblue" stroke="midnightblue" points="1165.51,-188.529 1154.96,-187.516 1162.57,-194.885 1165.51,-188.529"/>
</g>
<!-- Node34 -->
<g id="node34" class="node"><title>Node34</title>
<polygon fill="white" stroke="#bfbfbf" points="1188.51,-168.5 1188.51,-187.5 1238.51,-187.5 1238.51,-168.5 1188.51,-168.5"/>
<text text-anchor="middle" x="1213.51" y="-175.5" font-family="Helvetica,sans-Serif" font-size="10.00">iomanip</text>
</g>
<!-- Node33&#45;&gt;Node34 -->
<g id="edge47" class="edge"><title>Node33&#45;&gt;Node34</title>
<path fill="none" stroke="midnightblue" d="M1246.9,-224.083C1241.25,-216.455 1232.96,-205.264 1226.06,-195.941"/>
<polygon fill="midnightblue" stroke="midnightblue" points="1228.76,-193.703 1219.99,-187.751 1223.13,-197.87 1228.76,-193.703"/>
</g>
<!-- Node35&#45;&gt;Node2 -->
<g id="edge51" class="edge"><title>Node35&#45;&gt;Node2</title>
<path fill="none" stroke="midnightblue" d="M1091.3,-280.466C1090.29,-258.332 1084.37,-198.674 1050.51,-168 1032.51,-151.693 975.825,-139.731 928.346,-132.256"/>
<polygon fill="midnightblue" stroke="midnightblue" points="928.786,-128.783 918.371,-130.729 927.727,-135.702 928.786,-128.783"/>
</g>
<!-- Node35&#45;&gt;Node33 -->
<g id="edge52" class="edge"><title>Node35&#45;&gt;Node33</title>
<path fill="none" stroke="midnightblue" d="M1117.18,-280.444C1144.43,-271.359 1187.69,-256.939 1218.16,-246.783"/>
<polygon fill="midnightblue" stroke="midnightblue" points="1219.58,-249.999 1227.96,-243.516 1217.37,-243.358 1219.58,-249.999"/>
</g>
<!-- Node36&#45;&gt;Node2 -->
<g id="edge54" class="edge"><title>Node36&#45;&gt;Node2</title>
<path fill="none" stroke="midnightblue" d="M1083.81,-336.118C1062.94,-308.805 996.388,-224.494 928.509,-168 914.01,-155.933 896.015,-144.686 881.643,-136.454"/>
<polygon fill="midnightblue" stroke="midnightblue" points="883.23,-133.331 872.794,-131.501 879.811,-139.439 883.23,-133.331"/>
</g>
<!-- Node36&#45;&gt;Node33 -->
<g id="edge55" class="edge"><title>Node36&#45;&gt;Node33</title>
<path fill="none" stroke="midnightblue" d="M1103.3,-336.368C1131.27,-317.492 1198.11,-272.385 1232.41,-249.237"/>
<polygon fill="midnightblue" stroke="midnightblue" points="1234.45,-252.087 1240.78,-243.591 1230.53,-246.284 1234.45,-252.087"/>
</g>
<!-- Node36&#45;&gt;Node35 -->
<g id="edge56" class="edge"><title>Node36&#45;&gt;Node35</title>
<path fill="none" stroke="midnightblue" d="M1090.67,-336.083C1090.81,-329.006 1090.99,-318.861 1091.16,-309.986"/>
<polygon fill="midnightblue" stroke="midnightblue" points="1094.66,-309.814 1091.35,-299.751 1087.66,-309.685 1094.66,-309.814"/>
</g>
</g>
</svg>
        <g id="navigator" transform="translate(0 0)" fill="#404254">
                <rect fill="#f2f5e9" fill-opacity="0.5" stroke="#606060" stroke-width=".5" x="0" y="0" width="60" height="60"/>
                <use id="zoomplus" xlink:href="#zoomPlus" x="17" y="9" onmousedown="handleZoom(evt,'in')"/>
                <use id="zoomminus" xlink:href="#zoomMin" x="42" y="9" onmousedown="handleZoom(evt,'out')"/>
                <use id="reset" xlink:href="#resetDef" x="30" y="36" onmousedown="handleReset()"/>
                <g id="arrowUp" xlink:href="#dirArrow" transform="translate(30 24)" onmousedown="handlePan(0,-1)">
                  <use xlink:href="#rim" fill="#404040">
                        <set attributeName="fill" to="#808080" begin="arrowUp.mouseover" end="arrowUp.mouseout"/>
                  </use>
                  <path fill="none" stroke="white" stroke-width="1.5" d="M0,-3.0v7 M-2.5,-0.5L0,-3.0L2.5,-0.5"/>
                </g>
                <g id="arrowRight" xlink:href="#dirArrow" transform="rotate(90) translate(36 -43)" onmousedown="handlePan(1,0)">
                  <use xlink:href="#rim" fill="#404040">
                        <set attributeName="fill" to="#808080" begin="arrowRight.mouseover" end="arrowRight.mouseout"/>
                  </use>
                  <path fill="none" stroke="white" stroke-width="1.5" d="M0,-3.0v7 M-2.5,-0.5L0,-3.0L2.5,-0.5"/>
                </g>
                <g id="arrowDown" xlink:href="#dirArrow" transform="rotate(180) translate(-30 -48)" onmousedown="handlePan(0,1)">
                  <use xlink:href="#rim" fill="#404040">
                        <set attributeName="fill" to="#808080" begin="arrowDown.mouseover" end="arrowDown.mouseout"/>
                  </use>
                  <path fill="none" stroke="white" stroke-width="1.5" d="M0,-3.0v7 M-2.5,-0.5L0,-3.0L2.5,-0.5"/>
                </g>
                <g id="arrowLeft" xlink:href="#dirArrow" transform="rotate(270) translate(-36 17)" onmousedown="handlePan(-1,0)">
                  <use xlink:href="#rim" fill="#404040">
                        <set attributeName="fill" to="#808080" begin="arrowLeft.mouseover" end="arrowLeft.mouseout"/>
                  </use>
                  <path fill="none" stroke="white" stroke-width="1.5" d="M0,-3.0v7 M-2.5,-0.5L0,-3.0L2.5,-0.5"/>
                </g>
        </g>
        <svg viewBox="0 0 15 15" width="100%" height="30px" preserveAspectRatio="xMaxYMin meet">
         <g id="arrow_out" transform="scale(0.3 0.3)">
          <a xlink:href="cubesat2obj_8cpp__incl_org.svg" target="_base">
           <rect id="button" ry="5" rx="5" y="6" x="6" height="38" width="38"
                fill="#f2f5e9" fill-opacity="0.5" stroke="#606060" stroke-width="1.0"/>
           <path id="arrow"
             d="M 11.500037,31.436501 C 11.940474,20.09759 22.043105,11.32322 32.158766,21.979434 L 37.068811,17.246167 C 37.068811,17.246167 37.088388,32 37.088388,32 L 22.160133,31.978069 C 22.160133,31.978069 26.997745,27.140456 26.997745,27.140456 C 18.528582,18.264221 13.291696,25.230495 11.500037,31.436501 z"
             style="fill:#404040;"/>
          </a>
         </g>
        </svg>
</svg>
