<?xml version="1.0" encoding="UTF-8" standalone="no"?>
<!DOCTYPE svg PUBLIC "-//W3C//DTD SVG 1.1//EN"
 "http://www.w3.org/Graphics/SVG/1.1/DTD/svg11.dtd">
<!-- Generated by graphviz version 2.38.0 (20140413.2041)
 -->
<!-- Title: datalib.cpp Pages: 1 -->
<svg width="1485pt" height="532pt"
 viewBox="0.00 0.00 1485.00 532.00" xmlns="http://www.w3.org/2000/svg" xmlns:xlink="http://www.w3.org/1999/xlink">
<g id="graph0" class="graph" transform="scale(1 1) rotate(0) translate(4 528)">
<title>datalib.cpp</title>
<polygon fill="white" stroke="none" points="-4,4 -4,-528 1481,-528 1481,4 -4,4"/>
<!-- Node1 -->
<g id="node1" class="node"><title>Node1</title>
<polygon fill="#bfbfbf" stroke="black" points="982,-504.5 982,-523.5 1046,-523.5 1046,-504.5 982,-504.5"/>
<text text-anchor="middle" x="1014" y="-511.5" font-family="Helvetica,sans-Serif" font-size="10.00">datalib.cpp</text>
</g>
<!-- Node2 -->
<g id="node2" class="node"><title>Node2</title>
<g id="a_node2"><a xlink:href="datalib_8h.html" target="_top" xlink:title="Data Management header file. ">
<polygon fill="white" stroke="black" points="924.5,-448.5 924.5,-467.5 1013.5,-467.5 1013.5,-448.5 924.5,-448.5"/>
<text text-anchor="middle" x="969" y="-455.5" font-family="Helvetica,sans-Serif" font-size="10.00">support/datalib.h</text>
</a>
</g>
</g>
<!-- Node1&#45;&gt;Node2 -->
<g id="edge1" class="edge"><title>Node1&#45;&gt;Node2</title>
<path fill="none" stroke="midnightblue" d="M1006.57,-504.083C1000.15,-496.377 990.694,-485.033 982.878,-475.653"/>
<polygon fill="midnightblue" stroke="midnightblue" points="985.383,-473.193 976.293,-467.751 980.006,-477.674 985.383,-473.193"/>
</g>
<!-- Node50 -->
<g id="node50" class="node"><title>Node50</title>
<polygon fill="white" stroke="#bfbfbf" points="1031,-448.5 1031,-467.5 1087,-467.5 1087,-448.5 1031,-448.5"/>
<text text-anchor="middle" x="1059" y="-455.5" font-family="Helvetica,sans-Serif" font-size="10.00">algorithm</text>
</g>
<!-- Node1&#45;&gt;Node50 -->
<g id="edge84" class="edge"><title>Node1&#45;&gt;Node50</title>
<path fill="none" stroke="midnightblue" d="M1021.43,-504.083C1027.85,-496.377 1037.31,-485.033 1045.12,-475.653"/>
<polygon fill="midnightblue" stroke="midnightblue" points="1047.99,-477.674 1051.71,-467.751 1042.62,-473.193 1047.99,-477.674"/>
</g>
<!-- Node3 -->
<g id="node3" class="node"><title>Node3</title>
<g id="a_node3"><a xlink:href="config_cosmos_8h.html" target="_top" xlink:title="Headers and definitions common to all COSMOS. ">
<polygon fill="white" stroke="black" points="645.5,-112.5 645.5,-131.5 768.5,-131.5 768.5,-112.5 645.5,-112.5"/>
<text text-anchor="middle" x="707" y="-119.5" font-family="Helvetica,sans-Serif" font-size="10.00">support/configCosmos.h</text>
</a>
</g>
</g>
<!-- Node2&#45;&gt;Node3 -->
<g id="edge2" class="edge"><title>Node2&#45;&gt;Node3</title>
<path fill="none" stroke="midnightblue" d="M924.359,-453.185C789.26,-441.048 394,-400.931 394,-347 394,-347 394,-347 394,-233 394,-182.935 440.044,-187.864 486,-168 533.516,-147.462 590.893,-136.136 635.275,-129.984"/>
<polygon fill="midnightblue" stroke="midnightblue" points="635.947,-133.425 645.399,-128.638 635.025,-126.486 635.947,-133.425"/>
</g>
<!-- Node28 -->
<g id="node28" class="node"><title>Node28</title>
<g id="a_node28"><a xlink:href="cosmos-errno_8h.html" target="_top" xlink:title="COSMOS Error Codes. ">
<polygon fill="white" stroke="black" points="901.5,-168.5 901.5,-187.5 1020.5,-187.5 1020.5,-168.5 901.5,-168.5"/>
<text text-anchor="middle" x="961" y="-175.5" font-family="Helvetica,sans-Serif" font-size="10.00">support/cosmos&#45;errno.h</text>
</a>
</g>
</g>
<!-- Node2&#45;&gt;Node28 -->
<g id="edge33" class="edge"><title>Node2&#45;&gt;Node28</title>
<path fill="none" stroke="midnightblue" d="M969,-448.442C969,-429.936 969,-384.812 969,-347 969,-347 969,-347 969,-289 969,-256.863 965.561,-219.584 963.193,-197.719"/>
<polygon fill="midnightblue" stroke="midnightblue" points="966.644,-197.087 962.046,-187.542 959.688,-197.872 966.644,-197.087"/>
</g>
<!-- Node30 -->
<g id="node30" class="node"><title>Node30</title>
<g id="a_node30"><a xlink:href="datadef_8h.html" target="_top" xlink:title="Data Management definitions file. ">
<polygon fill="white" stroke="black" points="470,-336.5 470,-355.5 562,-355.5 562,-336.5 470,-336.5"/>
<text text-anchor="middle" x="516" y="-343.5" font-family="Helvetica,sans-Serif" font-size="10.00">support/datadef.h</text>
</a>
</g>
</g>
<!-- Node2&#45;&gt;Node30 -->
<g id="edge36" class="edge"><title>Node2&#45;&gt;Node30</title>
<path fill="none" stroke="midnightblue" d="M931.798,-448.442C893.091,-439.499 830.745,-424.99 777,-412 700.405,-393.487 611.381,-371.137 559.595,-358.053"/>
<polygon fill="midnightblue" stroke="midnightblue" points="560.302,-354.622 549.749,-355.564 558.586,-361.408 560.302,-354.622"/>
</g>
<!-- Node31 -->
<g id="node31" class="node"><title>Node31</title>
<g id="a_node31"><a xlink:href="jsondef_8h.html" target="_top" xlink:title="support/jsondef.h">
<polygon fill="white" stroke="black" points="652,-336.5 652,-355.5 744,-355.5 744,-336.5 652,-336.5"/>
<text text-anchor="middle" x="698" y="-343.5" font-family="Helvetica,sans-Serif" font-size="10.00">support/jsondef.h</text>
</a>
</g>
</g>
<!-- Node2&#45;&gt;Node31 -->
<g id="edge38" class="edge"><title>Node2&#45;&gt;Node31</title>
<path fill="none" stroke="midnightblue" d="M935.349,-448.487C905.363,-440.466 860.546,-427.4 823,-412 786.44,-397.004 746.242,-375.049 721.558,-360.89"/>
<polygon fill="midnightblue" stroke="midnightblue" points="723.001,-357.681 712.593,-355.698 719.493,-363.738 723.001,-357.681"/>
</g>
<!-- Node37 -->
<g id="node37" class="node"><title>Node37</title>
<g id="a_node37"><a xlink:href="jsonlib_8h.html" target="_top" xlink:title="JSON Support definitions. ">
<polygon fill="white" stroke="black" points="832,-392.5 832,-411.5 920,-411.5 920,-392.5 832,-392.5"/>
<text text-anchor="middle" x="876" y="-399.5" font-family="Helvetica,sans-Serif" font-size="10.00">support/jsonlib.h</text>
</a>
</g>
</g>
<!-- Node2&#45;&gt;Node37 -->
<g id="edge55" class="edge"><title>Node2&#45;&gt;Node37</title>
<path fill="none" stroke="midnightblue" d="M948.943,-448.324C932.612,-439.9 910.046,-426.971 894.23,-417.074"/>
<polygon fill="midnightblue" stroke="midnightblue" points="896.1,-414.116 885.795,-411.655 892.316,-420.005 896.1,-414.116"/>
</g>
<!-- Node40 -->
<g id="node40" class="node"><title>Node40</title>
<g id="a_node40"><a xlink:href="zlib_8h.html" target="_top" xlink:title="thirdparty/zlib/zlib.h">
<polygon fill="white" stroke="black" points="1035.5,-392.5 1035.5,-411.5 1136.5,-411.5 1136.5,-392.5 1035.5,-392.5"/>
<text text-anchor="middle" x="1086" y="-399.5" font-family="Helvetica,sans-Serif" font-size="10.00">thirdparty/zlib/zlib.h</text>
</a>
</g>
</g>
<!-- Node2&#45;&gt;Node40 -->
<g id="edge65" class="edge"><title>Node2&#45;&gt;Node40</title>
<path fill="none" stroke="midnightblue" d="M987.539,-448.444C1006.62,-439.636 1036.57,-425.812 1058.44,-415.722"/>
<polygon fill="midnightblue" stroke="midnightblue" points="1059.93,-418.885 1067.55,-411.516 1057,-412.529 1059.93,-418.885"/>
</g>
<!-- Node42 -->
<g id="node42" class="node"><title>Node42</title>
<g id="a_node42"><a xlink:href="timelib_8h.html" target="_top" xlink:title="timelib include file A library providing functions for handling various types of time. ">
<polygon fill="white" stroke="red" points="1192.5,-280.5 1192.5,-299.5 1281.5,-299.5 1281.5,-280.5 1192.5,-280.5"/>
<text text-anchor="middle" x="1237" y="-287.5" font-family="Helvetica,sans-Serif" font-size="10.00">support/timelib.h</text>
</a>
</g>
</g>
<!-- Node2&#45;&gt;Node42 -->
<g id="edge68" class="edge"><title>Node2&#45;&gt;Node42</title>
<path fill="none" stroke="midnightblue" d="M974.768,-448.426C984.174,-434.964 1003.99,-408.684 1026,-392 1081.55,-349.891 1157.45,-318.847 1201.45,-302.958"/>
<polygon fill="midnightblue" stroke="midnightblue" points="1202.88,-306.167 1211.13,-299.523 1200.53,-299.57 1202.88,-306.167"/>
</g>
<!-- Node47 -->
<g id="node47" class="node"><title>Node47</title>
<polygon fill="white" stroke="#bfbfbf" points="1155,-392.5 1155,-411.5 1215,-411.5 1215,-392.5 1155,-392.5"/>
<text text-anchor="middle" x="1185" y="-399.5" font-family="Helvetica,sans-Serif" font-size="10.00">sys/stat.h</text>
</g>
<!-- Node2&#45;&gt;Node47 -->
<g id="edge81" class="edge"><title>Node2&#45;&gt;Node47</title>
<path fill="none" stroke="midnightblue" d="M1003.23,-448.444C1041.72,-438.821 1104.16,-423.21 1144.9,-413.024"/>
<polygon fill="midnightblue" stroke="midnightblue" points="1145.92,-416.379 1154.77,-410.558 1144.22,-409.588 1145.92,-416.379"/>
</g>
<!-- Node48 -->
<g id="node48" class="node"><title>Node48</title>
<polygon fill="white" stroke="#bfbfbf" points="1233,-392.5 1233,-411.5 1283,-411.5 1283,-392.5 1233,-392.5"/>
<text text-anchor="middle" x="1258" y="-399.5" font-family="Helvetica,sans-Serif" font-size="10.00">fstream</text>
</g>
<!-- Node2&#45;&gt;Node48 -->
<g id="edge82" class="edge"><title>Node2&#45;&gt;Node48</title>
<path fill="none" stroke="midnightblue" d="M1013.65,-449.331C1075.17,-438.736 1182.25,-420.181 1222.84,-412.017"/>
<polygon fill="midnightblue" stroke="midnightblue" points="1223.74,-415.404 1232.81,-409.921 1222.3,-408.554 1223.74,-415.404"/>
</g>
<!-- Node49 -->
<g id="node49" class="node"><title>Node49</title>
<g id="a_node49"><a xlink:href="dirent_8h.html" target="_top" xlink:title="dirent.h">
<polygon fill="white" stroke="black" points="1301.5,-392.5 1301.5,-411.5 1350.5,-411.5 1350.5,-392.5 1301.5,-392.5"/>
<text text-anchor="middle" x="1326" y="-399.5" font-family="Helvetica,sans-Serif" font-size="10.00">dirent.h</text>
</a>
</g>
</g>
<!-- Node2&#45;&gt;Node49 -->
<g id="edge83" class="edge"><title>Node2&#45;&gt;Node49</title>
<path fill="none" stroke="midnightblue" d="M1013.51,-449.323C1016.38,-448.864 1019.23,-448.419 1022,-448 1138.54,-430.342 1171.52,-435.254 1291.28,-411.911"/>
<polygon fill="midnightblue" stroke="midnightblue" points="1292.07,-415.322 1301.2,-409.951 1290.71,-408.455 1292.07,-415.322"/>
</g>
<!-- Node4 -->
<g id="node4" class="node"><title>Node4</title>
<polygon fill="white" stroke="#bfbfbf" points="486.5,-56.5 486.5,-75.5 531.5,-75.5 531.5,-56.5 486.5,-56.5"/>
<text text-anchor="middle" x="509" y="-63.5" font-family="Helvetica,sans-Serif" font-size="10.00">climits</text>
</g>
<!-- Node3&#45;&gt;Node4 -->
<g id="edge3" class="edge"><title>Node3&#45;&gt;Node4</title>
<path fill="none" stroke="midnightblue" d="M674.622,-112.474C642.914,-104.081 592.985,-90.7483 541.333,-76.3392"/>
<polygon fill="midnightblue" stroke="midnightblue" points="542.246,-72.9602 531.672,-73.6371 540.36,-79.7015 542.246,-72.9602"/>
</g>
<!-- Node5 -->
<g id="node5" class="node"><title>Node5</title>
<polygon fill="white" stroke="#bfbfbf" points="549.5,-56.5 549.5,-75.5 596.5,-75.5 596.5,-56.5 549.5,-56.5"/>
<text text-anchor="middle" x="573" y="-63.5" font-family="Helvetica,sans-Serif" font-size="10.00">csignal</text>
</g>
<!-- Node3&#45;&gt;Node5 -->
<g id="edge4" class="edge"><title>Node3&#45;&gt;Node5</title>
<path fill="none" stroke="midnightblue" d="M685.767,-112.444C663.616,-103.517 628.681,-89.4387 603.564,-79.3168"/>
<polygon fill="midnightblue" stroke="midnightblue" points="604.717,-76.0079 594.133,-75.5164 602.1,-82.5006 604.717,-76.0079"/>
</g>
<!-- Node6 -->
<g id="node6" class="node"><title>Node6</title>
<polygon fill="white" stroke="#bfbfbf" points="615,-56.5 615,-75.5 661,-75.5 661,-56.5 615,-56.5"/>
<text text-anchor="middle" x="638" y="-63.5" font-family="Helvetica,sans-Serif" font-size="10.00">cstdint</text>
</g>
<!-- Node3&#45;&gt;Node6 -->
<g id="edge5" class="edge"><title>Node3&#45;&gt;Node6</title>
<path fill="none" stroke="midnightblue" d="M695.914,-112.324C685.514,-104.185 669.739,-91.8395 657.278,-82.0874"/>
<polygon fill="midnightblue" stroke="midnightblue" points="659.32,-79.2407 649.288,-75.8339 655.006,-84.7533 659.32,-79.2407"/>
</g>
<!-- Node7 -->
<g id="node7" class="node"><title>Node7</title>
<polygon fill="white" stroke="#bfbfbf" points="679,-56.5 679,-75.5 735,-75.5 735,-56.5 679,-56.5"/>
<text text-anchor="middle" x="707" y="-63.5" font-family="Helvetica,sans-Serif" font-size="10.00">cinttypes</text>
</g>
<!-- Node3&#45;&gt;Node7 -->
<g id="edge6" class="edge"><title>Node3&#45;&gt;Node7</title>
<path fill="none" stroke="midnightblue" d="M707,-112.083C707,-105.006 707,-94.8611 707,-85.9865"/>
<polygon fill="midnightblue" stroke="midnightblue" points="710.5,-85.751 707,-75.7511 703.5,-85.7511 710.5,-85.751"/>
</g>
<!-- Node8 -->
<g id="node8" class="node"><title>Node8</title>
<polygon fill="white" stroke="#bfbfbf" points="753.5,-56.5 753.5,-75.5 796.5,-75.5 796.5,-56.5 753.5,-56.5"/>
<text text-anchor="middle" x="775" y="-63.5" font-family="Helvetica,sans-Serif" font-size="10.00">cstdio</text>
</g>
<!-- Node3&#45;&gt;Node8 -->
<g id="edge7" class="edge"><title>Node3&#45;&gt;Node8</title>
<path fill="none" stroke="midnightblue" d="M717.925,-112.324C728.175,-104.185 743.721,-91.8395 756.001,-82.0874"/>
<polygon fill="midnightblue" stroke="midnightblue" points="758.221,-84.7937 763.876,-75.8339 753.868,-79.3119 758.221,-84.7937"/>
</g>
<!-- Node9 -->
<g id="node9" class="node"><title>Node9</title>
<polygon fill="white" stroke="#bfbfbf" points="814.5,-56.5 814.5,-75.5 863.5,-75.5 863.5,-56.5 814.5,-56.5"/>
<text text-anchor="middle" x="839" y="-63.5" font-family="Helvetica,sans-Serif" font-size="10.00">cstddef</text>
</g>
<!-- Node3&#45;&gt;Node9 -->
<g id="edge8" class="edge"><title>Node3&#45;&gt;Node9</title>
<path fill="none" stroke="midnightblue" d="M727.916,-112.444C749.736,-103.517 784.15,-89.4387 808.892,-79.3168"/>
<polygon fill="midnightblue" stroke="midnightblue" points="810.252,-82.5422 818.182,-75.5164 807.601,-76.0634 810.252,-82.5422"/>
</g>
<!-- Node10 -->
<g id="node10" class="node"><title>Node10</title>
<polygon fill="white" stroke="#bfbfbf" points="881.5,-56.5 881.5,-75.5 926.5,-75.5 926.5,-56.5 881.5,-56.5"/>
<text text-anchor="middle" x="904" y="-63.5" font-family="Helvetica,sans-Serif" font-size="10.00">cstdlib</text>
</g>
<!-- Node3&#45;&gt;Node10 -->
<g id="edge9" class="edge"><title>Node3&#45;&gt;Node10</title>
<path fill="none" stroke="midnightblue" d="M738.652,-112.447C769.936,-103.977 819.415,-90.5326 871.524,-76.116"/>
<polygon fill="midnightblue" stroke="midnightblue" points="872.578,-79.456 881.281,-73.4138 870.709,-72.7099 872.578,-79.456"/>
</g>
<!-- Node11 -->
<g id="node11" class="node"><title>Node11</title>
<polygon fill="white" stroke="#bfbfbf" points="945,-56.5 945,-75.5 989,-75.5 989,-56.5 945,-56.5"/>
<text text-anchor="middle" x="967" y="-63.5" font-family="Helvetica,sans-Serif" font-size="10.00">cerrno</text>
</g>
<!-- Node3&#45;&gt;Node11 -->
<g id="edge10" class="edge"><title>Node3&#45;&gt;Node11</title>
<path fill="none" stroke="midnightblue" d="M756.167,-112.46C800.336,-104.527 867.155,-91.881 934.71,-75.9028"/>
<polygon fill="midnightblue" stroke="midnightblue" points="935.766,-79.2489 944.679,-73.5213 934.14,-72.4405 935.766,-79.2489"/>
</g>
<!-- Node12 -->
<g id="node12" class="node"><title>Node12</title>
<polygon fill="white" stroke="#bfbfbf" points="1007,-56.5 1007,-75.5 1053,-75.5 1053,-56.5 1007,-56.5"/>
<text text-anchor="middle" x="1030" y="-63.5" font-family="Helvetica,sans-Serif" font-size="10.00">cstring</text>
</g>
<!-- Node3&#45;&gt;Node12 -->
<g id="edge11" class="edge"><title>Node3&#45;&gt;Node12</title>
<path fill="none" stroke="midnightblue" d="M768.709,-113.656C825.634,-106.384 912.631,-94.0163 996.694,-76.0725"/>
<polygon fill="midnightblue" stroke="midnightblue" points="997.63,-79.451 1006.66,-73.9148 996.149,-72.6094 997.63,-79.451"/>
</g>
<!-- Node13 -->
<g id="node13" class="node"><title>Node13</title>
<polygon fill="white" stroke="#bfbfbf" points="1205,-56.5 1205,-75.5 1249,-75.5 1249,-56.5 1205,-56.5"/>
<text text-anchor="middle" x="1227" y="-63.5" font-family="Helvetica,sans-Serif" font-size="10.00">cmath</text>
</g>
<!-- Node3&#45;&gt;Node13 -->
<g id="edge12" class="edge"><title>Node3&#45;&gt;Node13</title>
<path fill="none" stroke="midnightblue" d="M768.696,-115.986C884.115,-106.513 1126.53,-86.155 1194.74,-75.7126"/>
<polygon fill="midnightblue" stroke="midnightblue" points="1195.5,-79.1336 1204.77,-74.0039 1194.33,-72.233 1195.5,-79.1336"/>
</g>
<!-- Node14 -->
<g id="node14" class="node"><title>Node14</title>
<polygon fill="white" stroke="#bfbfbf" points="1071.5,-56.5 1071.5,-75.5 1116.5,-75.5 1116.5,-56.5 1071.5,-56.5"/>
<text text-anchor="middle" x="1094" y="-63.5" font-family="Helvetica,sans-Serif" font-size="10.00">iosfwd</text>
</g>
<!-- Node3&#45;&gt;Node14 -->
<g id="edge13" class="edge"><title>Node3&#45;&gt;Node14</title>
<path fill="none" stroke="midnightblue" d="M768.7,-115.972C837.717,-109.724 952.931,-97.4292 1061.25,-75.8579"/>
<polygon fill="midnightblue" stroke="midnightblue" points="1062.27,-79.2235 1071.38,-73.8104 1060.88,-72.3624 1062.27,-79.2235"/>
</g>
<!-- Node15 -->
<g id="node15" class="node"><title>Node15</title>
<polygon fill="white" stroke="#bfbfbf" points="1267,-56.5 1267,-75.5 1321,-75.5 1321,-56.5 1267,-56.5"/>
<text text-anchor="middle" x="1294" y="-63.5" font-family="Helvetica,sans-Serif" font-size="10.00">iostream</text>
</g>
<!-- Node3&#45;&gt;Node15 -->
<g id="edge14" class="edge"><title>Node3&#45;&gt;Node15</title>
<path fill="none" stroke="midnightblue" d="M768.792,-117.232C888.351,-109.738 1148.39,-92.3951 1256.95,-75.8579"/>
<polygon fill="midnightblue" stroke="midnightblue" points="1257.65,-79.2908 1266.97,-74.2605 1256.55,-72.3781 1257.65,-79.2908"/>
</g>
<!-- Node16 -->
<g id="node16" class="node"><title>Node16</title>
<polygon fill="white" stroke="#bfbfbf" points="1424.5,-56.5 1424.5,-75.5 1475.5,-75.5 1475.5,-56.5 1424.5,-56.5"/>
<text text-anchor="middle" x="1450" y="-63.5" font-family="Helvetica,sans-Serif" font-size="10.00">unistd.h</text>
</g>
<!-- Node3&#45;&gt;Node16 -->
<g id="edge15" class="edge"><title>Node3&#45;&gt;Node16</title>
<path fill="none" stroke="midnightblue" d="M768.837,-118.649C888.862,-113.704 1161.68,-100.603 1390,-76 1397.86,-75.1526 1406.28,-74.0279 1414.24,-72.8616"/>
<polygon fill="midnightblue" stroke="midnightblue" points="1415.01,-76.2857 1424.37,-71.3241 1413.95,-69.365 1415.01,-76.2857"/>
</g>
<!-- Node17 -->
<g id="node17" class="node"><title>Node17</title>
<polygon fill="white" stroke="#bfbfbf" points="0,-56.5 0,-75.5 44,-75.5 44,-56.5 0,-56.5"/>
<text text-anchor="middle" x="22" y="-63.5" font-family="Helvetica,sans-Serif" font-size="10.00">fcntl.h</text>
</g>
<!-- Node3&#45;&gt;Node17 -->
<g id="edge16" class="edge"><title>Node3&#45;&gt;Node17</title>
<path fill="none" stroke="midnightblue" d="M645.301,-120.322C529.482,-118.255 271.903,-109.884 58,-76 56.7473,-75.8016 55.4743,-75.5804 54.1917,-75.3412"/>
<polygon fill="midnightblue" stroke="midnightblue" points="54.8544,-71.9039 44.3432,-73.2319 53.3884,-78.7486 54.8544,-71.9039"/>
</g>
<!-- Node18 -->
<g id="node18" class="node"><title>Node18</title>
<polygon fill="white" stroke="#bfbfbf" points="1339.5,-56.5 1339.5,-75.5 1380.5,-75.5 1380.5,-56.5 1339.5,-56.5"/>
<text text-anchor="middle" x="1360" y="-63.5" font-family="Helvetica,sans-Serif" font-size="10.00">string</text>
</g>
<!-- Node3&#45;&gt;Node18 -->
<g id="edge17" class="edge"><title>Node3&#45;&gt;Node18</title>
<path fill="none" stroke="midnightblue" d="M768.58,-121.004C879.29,-120.044 1119.17,-113.554 1329.5,-75.6299"/>
<polygon fill="midnightblue" stroke="midnightblue" points="1330.28,-79.0442 1339.49,-73.8002 1329.02,-72.1587 1330.28,-79.0442"/>
</g>
<!-- Node19 -->
<g id="node19" class="node"><title>Node19</title>
<polygon fill="white" stroke="#bfbfbf" points="69,-0.5 69,-19.5 113,-19.5 113,-0.5 69,-0.5"/>
<text text-anchor="middle" x="91" y="-7.5" font-family="Helvetica,sans-Serif" font-size="10.00">vector</text>
</g>
<!-- Node3&#45;&gt;Node19 -->
<g id="edge18" class="edge"><title>Node3&#45;&gt;Node19</title>
<path fill="none" stroke="midnightblue" d="M645.413,-121.141C496.84,-120.841 128.211,-116.029 91,-76 79.7343,-63.8813 81.3736,-44.3216 84.8307,-29.8202"/>
<polygon fill="midnightblue" stroke="midnightblue" points="88.2762,-30.4998 87.6451,-19.9238 81.5431,-28.585 88.2762,-30.4998"/>
</g>
<!-- Node20 -->
<g id="node20" class="node"><title>Node20</title>
<polygon fill="white" stroke="#bfbfbf" points="100.5,-56.5 100.5,-75.5 143.5,-75.5 143.5,-56.5 100.5,-56.5"/>
<text text-anchor="middle" x="122" y="-63.5" font-family="Helvetica,sans-Serif" font-size="10.00">deque</text>
</g>
<!-- Node3&#45;&gt;Node20 -->
<g id="edge19" class="edge"><title>Node3&#45;&gt;Node20</title>
<path fill="none" stroke="midnightblue" d="M645.261,-119.221C543.228,-115.549 333.271,-104.894 158,-76 156.53,-75.7577 155.032,-75.4857 153.523,-75.1914"/>
<polygon fill="midnightblue" stroke="midnightblue" points="154.101,-71.735 143.582,-73.0029 152.596,-78.5713 154.101,-71.735"/>
</g>
<!-- Node21 -->
<g id="node21" class="node"><title>Node21</title>
<polygon fill="white" stroke="#bfbfbf" points="146,-0.5 146,-19.5 190,-19.5 190,-0.5 146,-0.5"/>
<text text-anchor="middle" x="168" y="-7.5" font-family="Helvetica,sans-Serif" font-size="10.00">mutex</text>
</g>
<!-- Node3&#45;&gt;Node21 -->
<g id="edge20" class="edge"><title>Node3&#45;&gt;Node21</title>
<path fill="none" stroke="midnightblue" d="M645.379,-121.376C530.779,-121.098 289.97,-115.639 218,-76 198.768,-65.4075 184.562,-43.9883 176.306,-28.6308"/>
<polygon fill="midnightblue" stroke="midnightblue" points="179.374,-26.9422 171.747,-19.5889 173.124,-30.0938 179.374,-26.9422"/>
</g>
<!-- Node22 -->
<g id="node22" class="node"><title>Node22</title>
<polygon fill="white" stroke="#bfbfbf" points="208,-0.5 208,-19.5 252,-19.5 252,-0.5 208,-0.5"/>
<text text-anchor="middle" x="230" y="-7.5" font-family="Helvetica,sans-Serif" font-size="10.00">thread</text>
</g>
<!-- Node3&#45;&gt;Node22 -->
<g id="edge21" class="edge"><title>Node3&#45;&gt;Node22</title>
<path fill="none" stroke="midnightblue" d="M645.067,-119.72C522.082,-116.536 256.494,-106.203 229,-76 217.861,-63.7626 219.809,-44.2202 223.508,-29.7551"/>
<polygon fill="midnightblue" stroke="midnightblue" points="226.947,-30.4734 226.49,-19.8884 220.247,-28.4484 226.947,-30.4734"/>
</g>
<!-- Node23 -->
<g id="node23" class="node"><title>Node23</title>
<polygon fill="white" stroke="#bfbfbf" points="270.5,-0.5 270.5,-19.5 365.5,-19.5 365.5,-0.5 270.5,-0.5"/>
<text text-anchor="middle" x="318" y="-7.5" font-family="Helvetica,sans-Serif" font-size="10.00">condition_variable</text>
</g>
<!-- Node3&#45;&gt;Node23 -->
<g id="edge22" class="edge"><title>Node3&#45;&gt;Node23</title>
<path fill="none" stroke="midnightblue" d="M645.288,-116.845C589.167,-111.662 504.713,-100.31 435,-76 398.939,-63.425 360.956,-40.2049 338.383,-25.1914"/>
<polygon fill="midnightblue" stroke="midnightblue" points="340.219,-22.2079 329.975,-19.5025 336.296,-28.0054 340.219,-22.2079"/>
</g>
<!-- Node24 -->
<g id="node24" class="node"><title>Node24</title>
<polygon fill="white" stroke="#bfbfbf" points="383.5,-0.5 383.5,-19.5 426.5,-19.5 426.5,-0.5 383.5,-0.5"/>
<text text-anchor="middle" x="405" y="-7.5" font-family="Helvetica,sans-Serif" font-size="10.00">queue</text>
</g>
<!-- Node3&#45;&gt;Node24 -->
<g id="edge23" class="edge"><title>Node3&#45;&gt;Node24</title>
<path fill="none" stroke="midnightblue" d="M645.306,-120.741C593.329,-118.034 518.603,-108.128 462,-76 441.894,-64.5878 425.348,-43.3771 415.356,-28.2906"/>
<polygon fill="midnightblue" stroke="midnightblue" points="418.311,-26.4138 410.009,-19.8309 412.393,-30.1539 418.311,-26.4138"/>
</g>
<!-- Node25 -->
<g id="node25" class="node"><title>Node25</title>
<polygon fill="white" stroke="#bfbfbf" points="1135,-56.5 1135,-75.5 1187,-75.5 1187,-56.5 1135,-56.5"/>
<text text-anchor="middle" x="1161" y="-63.5" font-family="Helvetica,sans-Serif" font-size="10.00">sstream</text>
</g>
<!-- Node3&#45;&gt;Node25 -->
<g id="edge24" class="edge"><title>Node3&#45;&gt;Node25</title>
<path fill="none" stroke="midnightblue" d="M768.677,-115.414C863.728,-106.634 1042.71,-89.3837 1124.76,-75.738"/>
<polygon fill="midnightblue" stroke="midnightblue" points="1125.49,-79.1643 1134.74,-74.0078 1124.29,-72.2671 1125.49,-79.1643"/>
</g>
<!-- Node26 -->
<g id="node26" class="node"><title>Node26</title>
<polygon fill="white" stroke="#bfbfbf" points="444.5,-0.5 444.5,-19.5 479.5,-19.5 479.5,-0.5 444.5,-0.5"/>
<text text-anchor="middle" x="462" y="-7.5" font-family="Helvetica,sans-Serif" font-size="10.00">map</text>
</g>
<!-- Node3&#45;&gt;Node26 -->
<g id="edge25" class="edge"><title>Node3&#45;&gt;Node26</title>
<path fill="none" stroke="midnightblue" d="M645.493,-116.441C585.71,-110.734 500.582,-98.8034 477,-76 464.781,-64.1846 461.642,-44.5528 461.188,-29.9504"/>
<polygon fill="midnightblue" stroke="midnightblue" points="464.691,-29.5931 461.278,-19.5633 457.692,-29.5327 464.691,-29.5931"/>
</g>
<!-- Node27 -->
<g id="node27" class="node"><title>Node27</title>
<g id="a_node27"><a xlink:href="cosmos-defs_8h.html" target="_top" xlink:title="COSMOS definitions Definitions specific to the COSMOS environement. ">
<polygon fill="white" stroke="red" points="238,-56.5 238,-75.5 354,-75.5 354,-56.5 238,-56.5"/>
<text text-anchor="middle" x="296" y="-63.5" font-family="Helvetica,sans-Serif" font-size="10.00">support/cosmos&#45;defs.h</text>
</a>
</g>
</g>
<!-- Node3&#45;&gt;Node27 -->
<g id="edge26" class="edge"><title>Node3&#45;&gt;Node27</title>
<path fill="none" stroke="midnightblue" d="M645.469,-112.916C570.138,-103.018 442.936,-86.3055 364.544,-76.0057"/>
<polygon fill="midnightblue" stroke="midnightblue" points="364.66,-72.491 354.289,-74.6584 363.748,-79.4313 364.66,-72.491"/>
</g>
<!-- Node27&#45;&gt;Node19 -->
<g id="edge28" class="edge"><title>Node27&#45;&gt;Node19</title>
<path fill="none" stroke="midnightblue" d="M263.517,-56.4435C225.128,-46.3312 161.639,-29.6072 123.32,-19.5136"/>
<polygon fill="midnightblue" stroke="midnightblue" points="123.784,-16.0163 113.222,-16.8536 122,-22.7854 123.784,-16.0163"/>
</g>
<!-- Node27&#45;&gt;Node21 -->
<g id="edge31" class="edge"><title>Node27&#45;&gt;Node21</title>
<path fill="none" stroke="midnightblue" d="M275.718,-56.4435C254.653,-47.5566 221.483,-33.5632 197.514,-23.4514"/>
<polygon fill="midnightblue" stroke="midnightblue" points="198.761,-20.1787 188.187,-19.5164 196.04,-26.6283 198.761,-20.1787"/>
</g>
<!-- Node27&#45;&gt;Node22 -->
<g id="edge30" class="edge"><title>Node27&#45;&gt;Node22</title>
<path fill="none" stroke="midnightblue" d="M285.396,-56.324C275.544,-48.2631 260.649,-36.0765 248.785,-26.3695"/>
<polygon fill="midnightblue" stroke="midnightblue" points="250.753,-23.4575 240.797,-19.8339 246.32,-28.8752 250.753,-23.4575"/>
</g>
<!-- Node27&#45;&gt;Node23 -->
<g id="edge32" class="edge"><title>Node27&#45;&gt;Node23</title>
<path fill="none" stroke="midnightblue" d="M299.633,-56.083C302.612,-48.77 306.926,-38.1814 310.625,-29.1034"/>
<polygon fill="midnightblue" stroke="midnightblue" points="313.903,-30.3326 314.435,-19.7511 307.42,-27.6914 313.903,-30.3326"/>
</g>
<!-- Node27&#45;&gt;Node24 -->
<g id="edge29" class="edge"><title>Node27&#45;&gt;Node24</title>
<path fill="none" stroke="midnightblue" d="M313.513,-56.324C331.072,-47.6247 358.331,-34.1202 378.531,-24.113"/>
<polygon fill="midnightblue" stroke="midnightblue" points="380.124,-27.23 387.531,-19.6545 377.016,-20.9575 380.124,-27.23"/>
</g>
<!-- Node27&#45;&gt;Node26 -->
<g id="edge27" class="edge"><title>Node27&#45;&gt;Node26</title>
<path fill="none" stroke="midnightblue" d="M322.67,-56.4416C348.809,-48.0368 390.022,-34.7415 434.705,-20.0769"/>
<polygon fill="midnightblue" stroke="midnightblue" points="435.881,-23.3749 444.289,-16.9282 433.696,-16.7246 435.881,-23.3749"/>
</g>
<!-- Node28&#45;&gt;Node3 -->
<g id="edge34" class="edge"><title>Node28&#45;&gt;Node3</title>
<path fill="none" stroke="midnightblue" d="M920.753,-168.444C876.35,-159.004 804.847,-143.802 756.912,-133.611"/>
<polygon fill="midnightblue" stroke="midnightblue" points="757.568,-130.173 747.059,-131.516 756.112,-137.02 757.568,-130.173"/>
</g>
<!-- Node29 -->
<g id="node29" class="node"><title>Node29</title>
<polygon fill="white" stroke="#bfbfbf" points="1063.5,-112.5 1063.5,-131.5 1110.5,-131.5 1110.5,-112.5 1063.5,-112.5"/>
<text text-anchor="middle" x="1087" y="-119.5" font-family="Helvetica,sans-Serif" font-size="10.00">errno.h</text>
</g>
<!-- Node28&#45;&gt;Node29 -->
<g id="edge35" class="edge"><title>Node28&#45;&gt;Node29</title>
<path fill="none" stroke="midnightblue" d="M980.965,-168.444C1001.61,-159.596 1034.06,-145.687 1057.63,-135.586"/>
<polygon fill="midnightblue" stroke="midnightblue" points="1059.32,-138.673 1067.13,-131.516 1056.56,-132.239 1059.32,-138.673"/>
</g>
<!-- Node30&#45;&gt;Node3 -->
<g id="edge37" class="edge"><title>Node30&#45;&gt;Node3</title>
<path fill="none" stroke="midnightblue" d="M511.911,-336.345C504.078,-319.2 487.27,-279.504 482,-244 476.737,-208.542 480.959,-190.33 509,-168 544.463,-139.759 594.263,-128.536 635.046,-124.359"/>
<polygon fill="midnightblue" stroke="midnightblue" points="635.561,-127.827 645.206,-123.443 634.932,-120.856 635.561,-127.827"/>
</g>
<!-- Node31&#45;&gt;Node3 -->
<g id="edge39" class="edge"><title>Node31&#45;&gt;Node3</title>
<path fill="none" stroke="midnightblue" d="M651.723,-338.92C582.451,-327.369 462.575,-296.59 489,-224 510.19,-165.792 580.157,-141.129 635.178,-130.68"/>
<polygon fill="midnightblue" stroke="midnightblue" points="636.029,-134.083 645.263,-128.889 634.805,-127.191 636.029,-134.083"/>
</g>
<!-- Node32 -->
<g id="node32" class="node"><title>Node32</title>
<g id="a_node32"><a xlink:href="mathlib_8h.html" target="_top" xlink:title="mathlib include file ">
<polygon fill="white" stroke="red" points="807.5,-224.5 807.5,-243.5 888.5,-243.5 888.5,-224.5 807.5,-224.5"/>
<text text-anchor="middle" x="848" y="-231.5" font-family="Helvetica,sans-Serif" font-size="10.00">math/mathlib.h</text>
</a>
</g>
</g>
<!-- Node31&#45;&gt;Node32 -->
<g id="edge40" class="edge"><title>Node31&#45;&gt;Node32</title>
<path fill="none" stroke="midnightblue" d="M744.208,-341.556C774.335,-336.826 812.162,-325.756 835,-300 846.085,-287.498 848.778,-268.27 849.032,-253.966"/>
<polygon fill="midnightblue" stroke="midnightblue" points="852.528,-253.7 848.827,-243.773 845.529,-253.841 852.528,-253.7"/>
</g>
<!-- Node33 -->
<g id="node33" class="node"><title>Node33</title>
<g id="a_node33"><a xlink:href="convertdef_8h.html" target="_top" xlink:title="support/convertdef.h">
<polygon fill="white" stroke="black" points="619,-280.5 619,-299.5 725,-299.5 725,-280.5 619,-280.5"/>
<text text-anchor="middle" x="672" y="-287.5" font-family="Helvetica,sans-Serif" font-size="10.00">support/convertdef.h</text>
</a>
</g>
</g>
<!-- Node31&#45;&gt;Node33 -->
<g id="edge45" class="edge"><title>Node31&#45;&gt;Node33</title>
<path fill="none" stroke="midnightblue" d="M693.707,-336.083C690.148,-328.691 684.978,-317.953 680.576,-308.811"/>
<polygon fill="midnightblue" stroke="midnightblue" points="683.705,-307.243 676.213,-299.751 677.398,-310.279 683.705,-307.243"/>
</g>
<!-- Node34 -->
<g id="node34" class="node"><title>Node34</title>
<g id="a_node34"><a xlink:href="physicsdef_8h.html" target="_top" xlink:title="Orbit library support definitions. ">
<polygon fill="white" stroke="red" points="498.5,-224.5 498.5,-243.5 607.5,-243.5 607.5,-224.5 498.5,-224.5"/>
<text text-anchor="middle" x="553" y="-231.5" font-family="Helvetica,sans-Serif" font-size="10.00">physics/physicsdef.h</text>
</a>
</g>
</g>
<!-- Node31&#45;&gt;Node34 -->
<g id="edge48" class="edge"><title>Node31&#45;&gt;Node34</title>
<path fill="none" stroke="midnightblue" d="M651.809,-337.513C626.804,-331.294 597.024,-320.071 577,-300 564.665,-287.636 558.602,-268.389 555.664,-254.043"/>
<polygon fill="midnightblue" stroke="midnightblue" points="559.051,-253.083 553.918,-243.814 552.15,-254.261 559.051,-253.083"/>
</g>
<!-- Node35 -->
<g id="node35" class="node"><title>Node35</title>
<g id="a_node35"><a xlink:href="socketlib_8h.html" target="_top" xlink:title="Socket Support header file. ">
<polygon fill="white" stroke="red" points="555.5,-168.5 555.5,-187.5 654.5,-187.5 654.5,-168.5 555.5,-168.5"/>
<text text-anchor="middle" x="605" y="-175.5" font-family="Helvetica,sans-Serif" font-size="10.00">support/socketlib.h</text>
</a>
</g>
</g>
<!-- Node31&#45;&gt;Node35 -->
<g id="edge50" class="edge"><title>Node31&#45;&gt;Node35</title>
<path fill="none" stroke="midnightblue" d="M662.148,-336.397C643.119,-329.81 621.373,-318.589 610,-300 605.361,-292.418 609.267,-288.859 610,-280 612.065,-255.054 618.993,-248.852 616,-224 614.929,-215.107 612.708,-205.434 610.54,-197.344"/>
<polygon fill="midnightblue" stroke="midnightblue" points="613.844,-196.167 607.73,-187.514 607.113,-198.091 613.844,-196.167"/>
</g>
<!-- Node36 -->
<g id="node36" class="node"><title>Node36</title>
<g id="a_node36"><a xlink:href="objlib_8h.html" target="_top" xlink:title="support/objlib.h">
<polygon fill="white" stroke="red" points="743.5,-280.5 743.5,-299.5 826.5,-299.5 826.5,-280.5 743.5,-280.5"/>
<text text-anchor="middle" x="785" y="-287.5" font-family="Helvetica,sans-Serif" font-size="10.00">support/objlib.h</text>
</a>
</g>
</g>
<!-- Node31&#45;&gt;Node36 -->
<g id="edge52" class="edge"><title>Node31&#45;&gt;Node36</title>
<path fill="none" stroke="midnightblue" d="M711.978,-336.324C725.55,-327.9 746.38,-314.971 762.325,-305.074"/>
<polygon fill="midnightblue" stroke="midnightblue" points="764.406,-307.902 771.057,-299.655 760.714,-301.954 764.406,-307.902"/>
</g>
<!-- Node32&#45;&gt;Node3 -->
<g id="edge41" class="edge"><title>Node32&#45;&gt;Node3</title>
<path fill="none" stroke="midnightblue" d="M838.591,-224.219C824.669,-211.371 797.572,-186.924 773,-168 758.853,-157.105 742.242,-145.787 729.224,-137.227"/>
<polygon fill="midnightblue" stroke="midnightblue" points="730.757,-134.048 720.466,-131.527 726.938,-139.915 730.757,-134.048"/>
</g>
<!-- Node32&#45;&gt;Node13 -->
<g id="edge43" class="edge"><title>Node32&#45;&gt;Node13</title>
<path fill="none" stroke="midnightblue" d="M845.606,-224.5C839.97,-202.447 828.517,-142.967 859,-112 909.822,-60.3704 1106.32,-88.2253 1194.78,-75.6547"/>
<polygon fill="midnightblue" stroke="midnightblue" points="1195.49,-79.0845 1204.76,-73.9639 1194.32,-72.1828 1195.49,-79.0845"/>
</g>
<!-- Node32&#45;&gt;Node15 -->
<g id="edge44" class="edge"><title>Node32&#45;&gt;Node15</title>
<path fill="none" stroke="midnightblue" d="M851.762,-224.089C858.078,-210.163 872.104,-183.26 892,-168 1022.49,-67.9179 1091.24,-109.234 1256.9,-76.0595"/>
<polygon fill="midnightblue" stroke="midnightblue" points="1257.84,-79.4405 1266.92,-73.9866 1256.42,-72.5857 1257.84,-79.4405"/>
</g>
<!-- Node32&#45;&gt;Node28 -->
<g id="edge42" class="edge"><title>Node32&#45;&gt;Node28</title>
<path fill="none" stroke="midnightblue" d="M865.905,-224.444C884.254,-215.675 913.005,-201.935 934.094,-191.858"/>
<polygon fill="midnightblue" stroke="midnightblue" points="935.665,-194.986 943.179,-187.516 932.647,-188.67 935.665,-194.986"/>
</g>
<!-- Node33&#45;&gt;Node3 -->
<g id="edge46" class="edge"><title>Node33&#45;&gt;Node3</title>
<path fill="none" stroke="midnightblue" d="M673.882,-280.075C679.391,-253.945 695.57,-177.211 703.083,-141.577"/>
<polygon fill="midnightblue" stroke="midnightblue" points="706.555,-142.075 705.193,-131.568 699.706,-140.631 706.555,-142.075"/>
</g>
<!-- Node33&#45;&gt;Node32 -->
<g id="edge47" class="edge"><title>Node33&#45;&gt;Node32</title>
<path fill="none" stroke="midnightblue" d="M699.888,-280.444C729.754,-271.28 777.315,-256.688 810.456,-246.519"/>
<polygon fill="midnightblue" stroke="midnightblue" points="811.709,-249.796 820.243,-243.516 809.656,-243.104 811.709,-249.796"/>
</g>
<!-- Node34&#45;&gt;Node3 -->
<g id="edge49" class="edge"><title>Node34&#45;&gt;Node3</title>
<path fill="none" stroke="midnightblue" d="M548.655,-224.415C542.515,-210.937 533.376,-184.636 546,-168 557.716,-152.56 601.032,-140.982 639.786,-133.439"/>
<polygon fill="midnightblue" stroke="midnightblue" points="640.857,-136.799 650.04,-131.513 639.566,-129.919 640.857,-136.799"/>
</g>
<!-- Node35&#45;&gt;Node3 -->
<g id="edge51" class="edge"><title>Node35&#45;&gt;Node3</title>
<path fill="none" stroke="midnightblue" d="M621.388,-168.324C637.671,-159.703 662.867,-146.364 681.716,-136.386"/>
<polygon fill="midnightblue" stroke="midnightblue" points="683.452,-139.427 690.653,-131.655 680.177,-133.24 683.452,-139.427"/>
</g>
<!-- Node36&#45;&gt;Node3 -->
<g id="edge53" class="edge"><title>Node36&#45;&gt;Node3</title>
<path fill="none" stroke="midnightblue" d="M780.473,-280.432C775.746,-271.421 768.177,-256.801 762,-244 744.521,-207.775 725.346,-164.785 714.888,-141.036"/>
<polygon fill="midnightblue" stroke="midnightblue" points="717.958,-139.321 710.734,-131.571 711.549,-142.135 717.958,-139.321"/>
</g>
<!-- Node36&#45;&gt;Node32 -->
<g id="edge54" class="edge"><title>Node36&#45;&gt;Node32</title>
<path fill="none" stroke="midnightblue" d="M795.122,-280.324C804.526,-272.263 818.744,-260.077 830.069,-250.369"/>
<polygon fill="midnightblue" stroke="midnightblue" points="832.379,-252.999 837.694,-243.834 827.823,-247.684 832.379,-252.999"/>
</g>
<!-- Node37&#45;&gt;Node2 -->
<g id="edge58" class="edge"><title>Node37&#45;&gt;Node2</title>
<path fill="none" stroke="midnightblue" d="M896.015,-411.655C912.336,-420.071 934.902,-432.999 950.73,-442.901"/>
<polygon fill="midnightblue" stroke="midnightblue" points="948.867,-445.864 959.173,-448.324 952.651,-439.974 948.867,-445.864"/>
</g>
<!-- Node37&#45;&gt;Node3 -->
<g id="edge56" class="edge"><title>Node37&#45;&gt;Node3</title>
<path fill="none" stroke="midnightblue" d="M874.545,-392.485C870.73,-371.852 859.027,-318.079 835,-280 822.756,-260.596 812.851,-261.489 798,-244 771.344,-212.611 770.089,-200.655 745,-168 737.524,-158.27 728.707,-147.774 721.449,-139.368"/>
<polygon fill="midnightblue" stroke="midnightblue" points="724.029,-137.001 714.818,-131.765 718.753,-141.602 724.029,-137.001"/>
</g>
<!-- Node37&#45;&gt;Node31 -->
<g id="edge57" class="edge"><title>Node37&#45;&gt;Node31</title>
<path fill="none" stroke="midnightblue" d="M847.795,-392.444C817.59,-383.28 769.489,-368.688 735.971,-358.519"/>
<polygon fill="midnightblue" stroke="midnightblue" points="736.658,-355.07 726.073,-355.516 734.626,-361.769 736.658,-355.07"/>
</g>
<!-- Node38 -->
<g id="node38" class="node"><title>Node38</title>
<g id="a_node38"><a xlink:href="stringlib_8h.html" target="_top" xlink:title="stringlib include file A library providing functions for handling various types of string...">
<polygon fill="white" stroke="red" points="1115,-168.5 1115,-187.5 1209,-187.5 1209,-168.5 1115,-168.5"/>
<text text-anchor="middle" x="1162" y="-175.5" font-family="Helvetica,sans-Serif" font-size="10.00">support/stringlib.h</text>
</a>
</g>
</g>
<!-- Node37&#45;&gt;Node38 -->
<g id="edge59" class="edge"><title>Node37&#45;&gt;Node38</title>
<path fill="none" stroke="midnightblue" d="M886.121,-392.456C901.05,-379.903 929.915,-355.82 955,-336 1022.54,-282.639 1104.41,-221.593 1141.71,-193.97"/>
<polygon fill="midnightblue" stroke="midnightblue" points="1144.24,-196.452 1150.2,-187.692 1140.08,-190.824 1144.24,-196.452"/>
</g>
<!-- Node39 -->
<g id="node39" class="node"><title>Node39</title>
<polygon fill="white" stroke="#bfbfbf" points="787,-336.5 787,-355.5 827,-355.5 827,-336.5 787,-336.5"/>
<text text-anchor="middle" x="807" y="-343.5" font-family="Helvetica,sans-Serif" font-size="10.00">limits</text>
</g>
<!-- Node37&#45;&gt;Node39 -->
<g id="edge64" class="edge"><title>Node37&#45;&gt;Node39</title>
<path fill="none" stroke="midnightblue" d="M864.914,-392.324C854.514,-384.185 838.739,-371.839 826.278,-362.087"/>
<polygon fill="midnightblue" stroke="midnightblue" points="828.32,-359.241 818.288,-355.834 824.006,-364.753 828.32,-359.241"/>
</g>
<!-- Node38&#45;&gt;Node3 -->
<g id="edge60" class="edge"><title>Node38&#45;&gt;Node3</title>
<path fill="none" stroke="midnightblue" d="M1114.59,-171.374C1034.66,-161.887 872.604,-142.654 778.701,-131.51"/>
<polygon fill="midnightblue" stroke="midnightblue" points="779.057,-128.027 768.715,-130.324 778.232,-134.979 779.057,-128.027"/>
</g>
<!-- Node38&#45;&gt;Node18 -->
<g id="edge62" class="edge"><title>Node38&#45;&gt;Node18</title>
<path fill="none" stroke="midnightblue" d="M1177.54,-168.368C1211.88,-149.292 1294.44,-103.422 1335.69,-80.5054"/>
<polygon fill="midnightblue" stroke="midnightblue" points="1337.49,-83.5075 1344.54,-75.5914 1334.09,-77.3883 1337.49,-83.5075"/>
</g>
<!-- Node38&#45;&gt;Node25 -->
<g id="edge63" class="edge"><title>Node38&#45;&gt;Node25</title>
<path fill="none" stroke="midnightblue" d="M1161.92,-168.368C1161.76,-150.617 1161.39,-109.666 1161.17,-85.5974"/>
<polygon fill="midnightblue" stroke="midnightblue" points="1164.67,-85.5592 1161.08,-75.5914 1157.67,-85.6229 1164.67,-85.5592"/>
</g>
<!-- Node38&#45;&gt;Node29 -->
<g id="edge61" class="edge"><title>Node38&#45;&gt;Node29</title>
<path fill="none" stroke="midnightblue" d="M1149.95,-168.324C1138.54,-160.107 1121.17,-147.602 1107.57,-137.807"/>
<polygon fill="midnightblue" stroke="midnightblue" points="1109.43,-134.837 1099.27,-131.834 1105.34,-140.517 1109.43,-134.837"/>
</g>
<!-- Node41 -->
<g id="node41" class="node"><title>Node41</title>
<g id="a_node41"><a xlink:href="zconf_8h.html" target="_top" xlink:title="zconf.h">
<polygon fill="white" stroke="red" points="1260.5,-336.5 1260.5,-355.5 1309.5,-355.5 1309.5,-336.5 1260.5,-336.5"/>
<text text-anchor="middle" x="1285" y="-343.5" font-family="Helvetica,sans-Serif" font-size="10.00">zconf.h</text>
</a>
</g>
</g>
<!-- Node40&#45;&gt;Node41 -->
<g id="edge66" class="edge"><title>Node40&#45;&gt;Node41</title>
<path fill="none" stroke="midnightblue" d="M1117.53,-392.444C1153.7,-382.63 1212.81,-366.591 1250.26,-356.426"/>
<polygon fill="midnightblue" stroke="midnightblue" points="1251.48,-359.722 1260.22,-353.725 1249.65,-352.966 1251.48,-359.722"/>
</g>
<!-- Node41&#45;&gt;Node16 -->
<g id="edge67" class="edge"><title>Node41&#45;&gt;Node16</title>
<path fill="none" stroke="midnightblue" d="M1309.71,-342.386C1361.56,-335.391 1477,-311.256 1477,-235 1477,-235 1477,-235 1477,-177 1477,-143.861 1465.3,-106.682 1457.3,-85.1445"/>
<polygon fill="midnightblue" stroke="midnightblue" points="1460.51,-83.7302 1453.64,-75.6622 1453.98,-86.2517 1460.51,-83.7302"/>
</g>
<!-- Node42&#45;&gt;Node3 -->
<g id="edge69" class="edge"><title>Node42&#45;&gt;Node3</title>
<path fill="none" stroke="midnightblue" d="M1213.4,-280.363C1192.06,-272.167 1160.09,-258.912 1134,-244 1083.98,-215.415 1082.44,-189.512 1029,-168 947.318,-135.12 845.622,-125.602 778.632,-123.183"/>
<polygon fill="midnightblue" stroke="midnightblue" points="778.703,-119.684 768.597,-122.865 778.48,-126.68 778.703,-119.684"/>
</g>
<!-- Node42&#45;&gt;Node13 -->
<g id="edge76" class="edge"><title>Node42&#45;&gt;Node13</title>
<path fill="none" stroke="midnightblue" d="M1236.61,-280.297C1235.14,-247.633 1229.92,-131.866 1227.85,-85.9573"/>
<polygon fill="midnightblue" stroke="midnightblue" points="1231.35,-85.7161 1227.4,-75.8837 1224.35,-86.0311 1231.35,-85.7161"/>
</g>
<!-- Node42&#45;&gt;Node29 -->
<g id="edge78" class="edge"><title>Node42&#45;&gt;Node29</title>
<path fill="none" stroke="midnightblue" d="M1219.73,-280.369C1191.63,-265.44 1136.12,-232.11 1106,-188 1096.57,-174.195 1091.76,-155.673 1089.34,-141.933"/>
<polygon fill="midnightblue" stroke="midnightblue" points="1092.75,-141.101 1087.82,-131.724 1085.83,-142.13 1092.75,-141.101"/>
</g>
<!-- Node42&#45;&gt;Node32 -->
<g id="edge75" class="edge"><title>Node42&#45;&gt;Node32</title>
<path fill="none" stroke="midnightblue" d="M1192.38,-282.806C1119.57,-272.698 975.659,-252.721 898.95,-242.073"/>
<polygon fill="midnightblue" stroke="midnightblue" points="898.972,-238.542 888.586,-240.634 898.01,-245.476 898.972,-238.542"/>
</g>
<!-- Node43 -->
<g id="node43" class="node"><title>Node43</title>
<g id="a_node43"><a xlink:href="elapsedtime_8h.html" target="_top" xlink:title="Elapsed Time header file. ">
<polygon fill="white" stroke="red" points="1265.5,-168.5 1265.5,-187.5 1378.5,-187.5 1378.5,-168.5 1265.5,-168.5"/>
<text text-anchor="middle" x="1322" y="-175.5" font-family="Helvetica,sans-Serif" font-size="10.00">support/elapsedtime.h</text>
</a>
</g>
</g>
<!-- Node42&#45;&gt;Node43 -->
<g id="edge70" class="edge"><title>Node42&#45;&gt;Node43</title>
<path fill="none" stroke="midnightblue" d="M1243.67,-280.368C1257.76,-262.135 1290.76,-219.426 1309.11,-195.675"/>
<polygon fill="midnightblue" stroke="midnightblue" points="1312.02,-197.644 1315.36,-187.591 1306.48,-193.364 1312.02,-197.644"/>
</g>
<!-- Node44 -->
<g id="node44" class="node"><title>Node44</title>
<polygon fill="white" stroke="#bfbfbf" points="1373.5,-112.5 1373.5,-131.5 1414.5,-131.5 1414.5,-112.5 1373.5,-112.5"/>
<text text-anchor="middle" x="1394" y="-119.5" font-family="Helvetica,sans-Serif" font-size="10.00">ctime</text>
</g>
<!-- Node42&#45;&gt;Node44 -->
<g id="edge80" class="edge"><title>Node42&#45;&gt;Node44</title>
<path fill="none" stroke="midnightblue" d="M1249.22,-280.473C1267.24,-267.941 1302.02,-243.884 1332,-224 1356.66,-207.644 1372.64,-213.29 1388,-188 1396.36,-174.227 1397.29,-155.702 1396.46,-141.952"/>
<polygon fill="midnightblue" stroke="midnightblue" points="1399.91,-141.352 1395.47,-131.735 1392.95,-142.025 1399.91,-141.352"/>
</g>
<!-- Node45 -->
<g id="node45" class="node"><title>Node45</title>
<polygon fill="white" stroke="#bfbfbf" points="1341,-224.5 1341,-243.5 1385,-243.5 1385,-224.5 1341,-224.5"/>
<text text-anchor="middle" x="1363" y="-231.5" font-family="Helvetica,sans-Serif" font-size="10.00">time.h</text>
</g>
<!-- Node42&#45;&gt;Node45 -->
<g id="edge77" class="edge"><title>Node42&#45;&gt;Node45</title>
<path fill="none" stroke="midnightblue" d="M1256.97,-280.444C1277.61,-271.596 1310.06,-257.687 1333.63,-247.586"/>
<polygon fill="midnightblue" stroke="midnightblue" points="1335.32,-250.673 1343.13,-243.516 1332.56,-244.239 1335.32,-250.673"/>
</g>
<!-- Node46 -->
<g id="node46" class="node"><title>Node46</title>
<polygon fill="white" stroke="#bfbfbf" points="1403,-224.5 1403,-243.5 1449,-243.5 1449,-224.5 1403,-224.5"/>
<text text-anchor="middle" x="1426" y="-231.5" font-family="Helvetica,sans-Serif" font-size="10.00">stdio.h</text>
</g>
<!-- Node42&#45;&gt;Node46 -->
<g id="edge79" class="edge"><title>Node42&#45;&gt;Node46</title>
<path fill="none" stroke="midnightblue" d="M1266.95,-280.444C1301.24,-270.645 1357.26,-254.639 1392.85,-244.472"/>
<polygon fill="midnightblue" stroke="midnightblue" points="1394.09,-247.756 1402.75,-241.644 1392.17,-241.026 1394.09,-247.756"/>
</g>
<!-- Node43&#45;&gt;Node3 -->
<g id="edge71" class="edge"><title>Node43&#45;&gt;Node3</title>
<path fill="none" stroke="midnightblue" d="M1265.24,-172.017C1152.88,-162.15 902.296,-140.148 778.722,-129.298"/>
<polygon fill="midnightblue" stroke="midnightblue" points="778.875,-125.798 768.607,-128.409 778.262,-132.771 778.875,-125.798"/>
</g>
<!-- Node43&#45;&gt;Node15 -->
<g id="edge72" class="edge"><title>Node43&#45;&gt;Node15</title>
<path fill="none" stroke="midnightblue" d="M1319.8,-168.368C1315.28,-150.617 1304.86,-109.666 1298.73,-85.5974"/>
<polygon fill="midnightblue" stroke="midnightblue" points="1302.05,-84.419 1296.19,-75.5914 1295.26,-86.1458 1302.05,-84.419"/>
</g>
<!-- Node43&#45;&gt;Node18 -->
<g id="edge73" class="edge"><title>Node43&#45;&gt;Node18</title>
<path fill="none" stroke="midnightblue" d="M1324.98,-168.368C1331.14,-150.537 1345.39,-109.295 1353.69,-85.2717"/>
<polygon fill="midnightblue" stroke="midnightblue" points="1357.07,-86.1862 1357.03,-75.5914 1350.46,-83.9005 1357.07,-86.1862"/>
</g>
<!-- Node43&#45;&gt;Node44 -->
<g id="edge74" class="edge"><title>Node43&#45;&gt;Node44</title>
<path fill="none" stroke="midnightblue" d="M1333.57,-168.324C1344.42,-160.185 1360.88,-147.839 1373.88,-138.087"/>
<polygon fill="midnightblue" stroke="midnightblue" points="1376.32,-140.634 1382.22,-131.834 1372.12,-135.034 1376.32,-140.634"/>
</g>
</g>
</svg>
