<?xml version="1.0" encoding="UTF-8" standalone="no"?>
<!DOCTYPE svg PUBLIC "-//W3C//DTD SVG 1.1//EN"
 "http://www.w3.org/Graphics/SVG/1.1/DTD/svg11.dtd">
<!-- Generated by graphviz version 2.38.0 (20140413.2041)
 -->
<!-- Title: demlib.h Pages: 1 -->
<!--zoomable 140 -->
<svg id="main" version="1.1" xmlns="http://www.w3.org/2000/svg" xmlns:xlink="http://www.w3.org/1999/xlink" xml:space="preserve" onload="init(evt)">
<style type="text/css"><![CDATA[
.edge:hover path { stroke: red; }
.edge:hover polygon { stroke: red; fill: red; }
]]></style>
<script type="text/javascript"><![CDATA[
var edges = document.getElementsByTagName('g');
if (edges && edges.length) {
  for (var i=0;i<edges.length;i++) {
    if (edges[i].id.substr(0,4)=='edge') {
      edges[i].setAttribute('class','edge');
    }
  }
}
]]></script>
        <defs>
                <circle id="rim" cx="0" cy="0" r="7"/>
                <circle id="rim2" cx="0" cy="0" r="3.5"/>
                <g id="zoomPlus">
                        <use xlink:href="#rim" fill="#404040">
                                <set attributeName="fill" to="#808080" begin="zoomplus.mouseover" end="zoomplus.mouseout"/>
                        </use>
                        <path d="M-4,0h8M0,-4v8" fill="none" stroke="white" stroke-width="1.5" pointer-events="none"/>
                </g>
                <g id="zoomMin">
                        <use xlink:href="#rim" fill="#404040">
                                <set attributeName="fill" to="#808080" begin="zoomminus.mouseover" end="zoomminus.mouseout"/>
                        </use>
                        <path d="M-4,0h8" fill="none" stroke="white" stroke-width="1.5" pointer-events="none"/>
                </g>
                <g id="dirArrow">
                        <path fill="none" stroke="white" stroke-width="1.5" d="M0,-3.0v7 M-2.5,-0.5L0,-3.0L2.5,-0.5"/>
                </g>
               <g id="resetDef">
                       <use xlink:href="#rim2" fill="#404040">
                               <set attributeName="fill" to="#808080" begin="reset.mouseover" end="reset.mouseout"/>
                       </use>
               </g>
        </defs>

<script type="text/javascript">
var viewWidth = 1915;
var viewHeight = 140;
var sectionId = 'dynsection-1';
</script>
<script xlink:href="svgpan.js"/>
<svg id="graph" class="graph">
<g id="viewport">
<title>demlib.h</title>
<polygon fill="white" stroke="none" points="-4,4 -4,-136 1911,-136 1911,4 -4,4"/>
<!-- Node1 -->
<g id="node1" class="node"><title>Node1</title>
<polygon fill="#bfbfbf" stroke="black" points="917,-112.5 917,-131.5 970,-131.5 970,-112.5 917,-112.5"/>
<text text-anchor="middle" x="943.5" y="-119.5" font-family="Helvetica,sans-Serif" font-size="10.00">demlib.h</text>
</g>
<!-- Node2 -->
<g id="node2" class="node"><title>Node2</title>
<g id="a_node2"><a xlink:href="physicslib_8h.html" target="_top" xlink:title="Orbit library include file. ">
<polygon fill="white" stroke="black" points="867.5,-56.5 867.5,-75.5 935.5,-75.5 935.5,-56.5 867.5,-56.5"/>
<text text-anchor="middle" x="901.5" y="-63.5" font-family="Helvetica,sans-Serif" font-size="10.00">physicslib.h</text>
</a>
</g>
</g>
<!-- Node1&#45;&gt;Node2 -->
<g id="edge1" class="edge"><title>Node1&#45;&gt;Node2</title>
<path fill="none" stroke="midnightblue" d="M930.39,-104.144C923.072,-94.7357 914.259,-83.4046 908.306,-75.7511"/>
<polygon fill="midnightblue" stroke="midnightblue" points="927.662,-106.338 936.565,-112.083 933.188,-102.041 927.662,-106.338"/>
</g>
<!-- Node21 -->
<g id="node21" class="node"><title>Node21</title>
<g id="a_node21"><a xlink:href="demlib_8cpp.html" target="_top" xlink:title="demlib.cpp">
<polygon fill="white" stroke="black" points="953.5,-56.5 953.5,-75.5 1017.5,-75.5 1017.5,-56.5 953.5,-56.5"/>
<text text-anchor="middle" x="985.5" y="-63.5" font-family="Helvetica,sans-Serif" font-size="10.00">demlib.cpp</text>
</a>
</g>
</g>
<!-- Node1&#45;&gt;Node21 -->
<g id="edge20" class="edge"><title>Node1&#45;&gt;Node21</title>
<path fill="none" stroke="midnightblue" d="M956.61,-104.144C963.928,-94.7357 972.741,-83.4046 978.694,-75.7511"/>
<polygon fill="midnightblue" stroke="midnightblue" points="953.812,-102.041 950.435,-112.083 959.338,-106.338 953.812,-102.041"/>
</g>
<!-- Node3 -->
<g id="node3" class="node"><title>Node3</title>
<g id="a_node3"><a xlink:href="agent__calc_8cpp.html" target="_top" xlink:title="Demonstration calculator Agent. ">
<polygon fill="white" stroke="black" points="0,-0.5 0,-19.5 83,-19.5 83,-0.5 0,-0.5"/>
<text text-anchor="middle" x="41.5" y="-7.5" font-family="Helvetica,sans-Serif" font-size="10.00">agent_calc.cpp</text>
</a>
</g>
</g>
<!-- Node2&#45;&gt;Node3 -->
<g id="edge2" class="edge"><title>Node2&#45;&gt;Node3</title>
<path fill="none" stroke="midnightblue" d="M857.329,-64.4459C735.129,-62.5038 382.371,-54.1278 91.5,-20 88.7844,-19.6814 85.9933,-19.308 83.1848,-18.8977"/>
<polygon fill="midnightblue" stroke="midnightblue" points="857.367,-67.9468 867.419,-64.5998 857.474,-60.9476 857.367,-67.9468"/>
</g>
<!-- Node4 -->
<g id="node4" class="node"><title>Node4</title>
<g id="a_node4"><a xlink:href="propagator__simple_8cpp.html" target="_top" xlink:title="propagator_simple.cpp">
<polygon fill="white" stroke="black" points="101,-0.5 101,-19.5 216,-19.5 216,-0.5 101,-0.5"/>
<text text-anchor="middle" x="158.5" y="-7.5" font-family="Helvetica,sans-Serif" font-size="10.00">propagator_simple.cpp</text>
</a>
</g>
</g>
<!-- Node2&#45;&gt;Node4 -->
<g id="edge3" class="edge"><title>Node2&#45;&gt;Node4</title>
<path fill="none" stroke="midnightblue" d="M857.107,-63.0767C748.914,-58.1647 463.066,-43.836 225.5,-20 222.464,-19.6954 219.353,-19.3598 216.215,-19.0027"/>
<polygon fill="midnightblue" stroke="midnightblue" points="857.169,-66.5829 867.316,-63.5361 857.484,-59.59 857.169,-66.5829"/>
</g>
<!-- Node5 -->
<g id="node5" class="node"><title>Node5</title>
<g id="a_node5"><a xlink:href="testengine_8cpp.html" target="_top" xlink:title="Command line simulator. ">
<polygon fill="white" stroke="black" points="234.5,-0.5 234.5,-19.5 314.5,-19.5 314.5,-0.5 234.5,-0.5"/>
<text text-anchor="middle" x="274.5" y="-7.5" font-family="Helvetica,sans-Serif" font-size="10.00">testengine.cpp</text>
</a>
</g>
</g>
<!-- Node2&#45;&gt;Node5 -->
<g id="edge4" class="edge"><title>Node2&#45;&gt;Node5</title>
<path fill="none" stroke="midnightblue" d="M857.482,-63.1366C760.627,-58.6943 521.872,-45.8687 323.5,-20 320.584,-19.6197 317.578,-19.1817 314.558,-18.708"/>
<polygon fill="midnightblue" stroke="midnightblue" points="857.347,-66.634 867.495,-63.589 857.663,-59.6411 857.347,-66.634"/>
</g>
<!-- Node6 -->
<g id="node6" class="node"><title>Node6</title>
<g id="a_node6"><a xlink:href="physicslib_8cpp.html" target="_top" xlink:title="physicslib.cpp">
<polygon fill="white" stroke="black" points="333,-0.5 333,-19.5 412,-19.5 412,-0.5 333,-0.5"/>
<text text-anchor="middle" x="372.5" y="-7.5" font-family="Helvetica,sans-Serif" font-size="10.00">physicslib.cpp</text>
</a>
</g>
</g>
<!-- Node2&#45;&gt;Node6 -->
<g id="edge5" class="edge"><title>Node2&#45;&gt;Node6</title>
<path fill="none" stroke="midnightblue" d="M857.191,-62.2243C772.215,-56.5982 580.565,-42.4449 420.5,-20 417.729,-19.6115 414.875,-19.1735 412.005,-18.7054"/>
<polygon fill="midnightblue" stroke="midnightblue" points="857.05,-65.7225 867.258,-62.8838 857.508,-58.7375 857.05,-65.7225"/>
</g>
<!-- Node7 -->
<g id="node7" class="node"><title>Node7</title>
<g id="a_node7"><a xlink:href="agent_8cpp.html" target="_top" xlink:title="Agent control program source. ">
<polygon fill="white" stroke="black" points="430,-0.5 430,-19.5 489,-19.5 489,-0.5 430,-0.5"/>
<text text-anchor="middle" x="459.5" y="-7.5" font-family="Helvetica,sans-Serif" font-size="10.00">agent.cpp</text>
</a>
</g>
</g>
<!-- Node2&#45;&gt;Node7 -->
<g id="edge6" class="edge"><title>Node2&#45;&gt;Node7</title>
<path fill="none" stroke="midnightblue" d="M857.274,-61.8444C782.692,-56.1281 627.333,-42.5198 497.5,-20 494.828,-19.5365 492.063,-18.9982 489.3,-18.4196"/>
<polygon fill="midnightblue" stroke="midnightblue" points="857.015,-65.3348 867.251,-62.5988 857.543,-58.3547 857.015,-65.3348"/>
</g>
<!-- Node8 -->
<g id="node8" class="node"><title>Node8</title>
<g id="a_node8"><a xlink:href="agent__data_8cpp.html" target="_top" xlink:title="agent_data.cpp">
<polygon fill="white" stroke="black" points="507,-0.5 507,-19.5 590,-19.5 590,-0.5 507,-0.5"/>
<text text-anchor="middle" x="548.5" y="-7.5" font-family="Helvetica,sans-Serif" font-size="10.00">agent_data.cpp</text>
</a>
</g>
</g>
<!-- Node2&#45;&gt;Node8 -->
<g id="edge7" class="edge"><title>Node2&#45;&gt;Node8</title>
<path fill="none" stroke="midnightblue" d="M857.423,-58.8091C798.558,-50.4549 691.059,-34.8974 599.5,-20 596.483,-19.5091 593.367,-18.9898 590.233,-18.4583"/>
<polygon fill="midnightblue" stroke="midnightblue" points="857.094,-62.2974 867.486,-60.2343 858.076,-55.3665 857.094,-62.2974"/>
</g>
<!-- Node9 -->
<g id="node9" class="node"><title>Node9</title>
<g id="a_node9"><a xlink:href="cosmos_8cpp.html" target="_top" xlink:title="cosmos.cpp">
<polygon fill="white" stroke="black" points="608.5,-0.5 608.5,-19.5 678.5,-19.5 678.5,-0.5 608.5,-0.5"/>
<text text-anchor="middle" x="643.5" y="-7.5" font-family="Helvetica,sans-Serif" font-size="10.00">cosmos.cpp</text>
</a>
</g>
</g>
<!-- Node2&#45;&gt;Node9 -->
<g id="edge8" class="edge"><title>Node2&#45;&gt;Node9</title>
<path fill="none" stroke="midnightblue" d="M857.265,-55.7415C806.754,-45.1695 725.135,-28.0864 678.73,-18.3736"/>
<polygon fill="midnightblue" stroke="midnightblue" points="856.735,-59.2063 867.24,-57.8292 858.169,-52.3547 856.735,-59.2063"/>
</g>
<!-- Node10 -->
<g id="node10" class="node"><title>Node10</title>
<g id="a_node10"><a xlink:href="agent__control_8cpp.html" target="_top" xlink:title="Agent Control for Satellite Ground Station. ">
<polygon fill="white" stroke="black" points="696.5,-0.5 696.5,-19.5 790.5,-19.5 790.5,-0.5 696.5,-0.5"/>
<text text-anchor="middle" x="743.5" y="-7.5" font-family="Helvetica,sans-Serif" font-size="10.00">agent_control.cpp</text>
</a>
</g>
</g>
<!-- Node2&#45;&gt;Node10 -->
<g id="edge9" class="edge"><title>Node2&#45;&gt;Node10</title>
<path fill="none" stroke="midnightblue" d="M866.892,-53.172C837.141,-43.0039 794.953,-28.5852 768.418,-19.5164"/>
<polygon fill="midnightblue" stroke="midnightblue" points="865.87,-56.5213 876.464,-56.4435 868.134,-49.8975 865.87,-56.5213"/>
</g>
<!-- Node11 -->
<g id="node11" class="node"><title>Node11</title>
<g id="a_node11"><a xlink:href="agent__node_8cpp.html" target="_top" xlink:title="agent_node.cpp">
<polygon fill="white" stroke="black" points="808.5,-0.5 808.5,-19.5 894.5,-19.5 894.5,-0.5 808.5,-0.5"/>
<text text-anchor="middle" x="851.5" y="-7.5" font-family="Helvetica,sans-Serif" font-size="10.00">agent_node.cpp</text>
</a>
</g>
</g>
<!-- Node2&#45;&gt;Node11 -->
<g id="edge10" class="edge"><title>Node2&#45;&gt;Node11</title>
<path fill="none" stroke="midnightblue" d="M886.424,-48.7175C877.611,-39.1997 866.834,-27.5608 859.603,-19.7511"/>
<polygon fill="midnightblue" stroke="midnightblue" points="883.881,-51.1233 893.244,-56.083 889.018,-46.3674 883.881,-51.1233"/>
</g>
<!-- Node12 -->
<g id="node12" class="node"><title>Node12</title>
<g id="a_node12"><a xlink:href="agent__orig_8cpp.html" target="_top" xlink:title="agent_orig.cpp">
<polygon fill="white" stroke="black" points="912.5,-0.5 912.5,-19.5 992.5,-19.5 992.5,-0.5 912.5,-0.5"/>
<text text-anchor="middle" x="952.5" y="-7.5" font-family="Helvetica,sans-Serif" font-size="10.00">agent_orig.cpp</text>
</a>
</g>
</g>
<!-- Node2&#45;&gt;Node12 -->
<g id="edge11" class="edge"><title>Node2&#45;&gt;Node12</title>
<path fill="none" stroke="midnightblue" d="M916.878,-48.7175C925.867,-39.1997 936.859,-27.5608 944.235,-19.7511"/>
<polygon fill="midnightblue" stroke="midnightblue" points="914.243,-46.4096 909.922,-56.083 919.332,-51.216 914.243,-46.4096"/>
</g>
<!-- Node13 -->
<g id="node13" class="node"><title>Node13</title>
<g id="a_node13"><a xlink:href="agent__physics_8cpp.html" target="_top" xlink:title="agent_physics.cpp">
<polygon fill="white" stroke="black" points="1010.5,-0.5 1010.5,-19.5 1108.5,-19.5 1108.5,-0.5 1010.5,-0.5"/>
<text text-anchor="middle" x="1059.5" y="-7.5" font-family="Helvetica,sans-Serif" font-size="10.00">agent_physics.cpp</text>
</a>
</g>
</g>
<!-- Node2&#45;&gt;Node13 -->
<g id="edge12" class="edge"><title>Node2&#45;&gt;Node13</title>
<path fill="none" stroke="midnightblue" d="M936.108,-53.172C965.859,-43.0039 1008.05,-28.5852 1034.58,-19.5164"/>
<polygon fill="midnightblue" stroke="midnightblue" points="934.866,-49.8975 926.536,-56.4435 937.13,-56.5213 934.866,-49.8975"/>
</g>
<!-- Node14 -->
<g id="node14" class="node"><title>Node14</title>
<g id="a_node14"><a xlink:href="agent__transmitter_8cpp.html" target="_top" xlink:title="agent_transmitter.cpp">
<polygon fill="white" stroke="black" points="1126,-0.5 1126,-19.5 1237,-19.5 1237,-0.5 1126,-0.5"/>
<text text-anchor="middle" x="1181.5" y="-7.5" font-family="Helvetica,sans-Serif" font-size="10.00">agent_transmitter.cpp</text>
</a>
</g>
</g>
<!-- Node2&#45;&gt;Node14 -->
<g id="edge13" class="edge"><title>Node2&#45;&gt;Node14</title>
<path fill="none" stroke="midnightblue" d="M945.854,-55.757C1017.46,-41.5213 1089.46,-28.0089 1135.13,-19.5397"/>
<polygon fill="midnightblue" stroke="midnightblue" points="944.878,-52.3824 935.756,-57.77 946.247,-59.2473 944.878,-52.3824"/>
</g>
<!-- Node15 -->
<g id="node15" class="node"><title>Node15</title>
<g id="a_node15"><a xlink:href="agent__transmitter2_8cpp.html" target="_top" xlink:title="agent_transmitter2.cpp">
<polygon fill="white" stroke="black" points="1255.5,-0.5 1255.5,-19.5 1371.5,-19.5 1371.5,-0.5 1255.5,-0.5"/>
<text text-anchor="middle" x="1313.5" y="-7.5" font-family="Helvetica,sans-Serif" font-size="10.00">agent_transmitter2.cpp</text>
</a>
</g>
</g>
<!-- Node2&#45;&gt;Node15 -->
<g id="edge14" class="edge"><title>Node2&#45;&gt;Node15</title>
<path fill="none" stroke="midnightblue" d="M945.941,-55.8868C1079.64,-34.2611 1115.67,-36.5834 1246.5,-20 1249.41,-19.631 1252.39,-19.2483 1255.4,-18.858"/>
<polygon fill="midnightblue" stroke="midnightblue" points="945.022,-52.4903 935.717,-57.556 946.15,-59.3989 945.022,-52.4903"/>
</g>
<!-- Node16 -->
<g id="node16" class="node"><title>Node16</title>
<g id="a_node16"><a xlink:href="fast__contacts_8cpp.html" target="_top" xlink:title="fast_contacts.cpp">
<polygon fill="white" stroke="black" points="1390,-0.5 1390,-19.5 1485,-19.5 1485,-0.5 1390,-0.5"/>
<text text-anchor="middle" x="1437.5" y="-7.5" font-family="Helvetica,sans-Serif" font-size="10.00">fast_contacts.cpp</text>
</a>
</g>
</g>
<!-- Node2&#45;&gt;Node16 -->
<g id="edge15" class="edge"><title>Node2&#45;&gt;Node16</title>
<path fill="none" stroke="midnightblue" d="M945.598,-56.0146C1138.63,-28.5222 1190.65,-42.7936 1380.5,-20 1383.58,-19.6298 1386.76,-19.2172 1389.95,-18.7781"/>
<polygon fill="midnightblue" stroke="midnightblue" points="945.097,-52.5505 935.699,-57.443 946.097,-59.4787 945.097,-52.5505"/>
</g>
<!-- Node17 -->
<g id="node17" class="node"><title>Node17</title>
<g id="a_node17"><a xlink:href="fast__propagator_8cpp.html" target="_top" xlink:title="fast_propagator.cpp">
<polygon fill="white" stroke="black" points="1503,-0.5 1503,-19.5 1606,-19.5 1606,-0.5 1503,-0.5"/>
<text text-anchor="middle" x="1554.5" y="-7.5" font-family="Helvetica,sans-Serif" font-size="10.00">fast_propagator.cpp</text>
</a>
</g>
</g>
<!-- Node2&#45;&gt;Node17 -->
<g id="edge16" class="edge"><title>Node2&#45;&gt;Node17</title>
<path fill="none" stroke="midnightblue" d="M945.904,-56.0044C1188.99,-23.4549 1254.27,-45.834 1494.5,-20 1497.22,-19.7072 1500.01,-19.381 1502.82,-19.0313"/>
<polygon fill="midnightblue" stroke="midnightblue" points="945.131,-52.5772 935.692,-57.3899 946.072,-59.5136 945.131,-52.5772"/>
</g>
<!-- Node18 -->
<g id="node18" class="node"><title>Node18</title>
<g id="a_node18"><a xlink:href="get__contacts_8cpp.html" target="_top" xlink:title="get_contacts.cpp">
<polygon fill="white" stroke="black" points="1624.5,-0.5 1624.5,-19.5 1716.5,-19.5 1716.5,-0.5 1624.5,-0.5"/>
<text text-anchor="middle" x="1670.5" y="-7.5" font-family="Helvetica,sans-Serif" font-size="10.00">get_contacts.cpp</text>
</a>
</g>
</g>
<!-- Node2&#45;&gt;Node18 -->
<g id="edge17" class="edge"><title>Node2&#45;&gt;Node18</title>
<path fill="none" stroke="midnightblue" d="M945.876,-56.0317C1242.41,-18.0706 1321.92,-51.8006 1615.5,-20 1618.39,-19.6874 1621.35,-19.3245 1624.34,-18.9273"/>
<polygon fill="midnightblue" stroke="midnightblue" points="945.154,-52.596 935.687,-57.3532 946.054,-59.5378 945.154,-52.596"/>
</g>
<!-- Node19 -->
<g id="node19" class="node"><title>Node19</title>
<g id="a_node19"><a xlink:href="propagator_8cpp.html" target="_top" xlink:title="propagator.cpp">
<polygon fill="white" stroke="black" points="1735,-0.5 1735,-19.5 1816,-19.5 1816,-0.5 1735,-0.5"/>
<text text-anchor="middle" x="1775.5" y="-7.5" font-family="Helvetica,sans-Serif" font-size="10.00">propagator.cpp</text>
</a>
</g>
</g>
<!-- Node2&#45;&gt;Node19 -->
<g id="edge18" class="edge"><title>Node2&#45;&gt;Node19</title>
<path fill="none" stroke="midnightblue" d="M945.711,-56.0672C1290.97,-13.1464 1383.49,-58.4932 1725.5,-20 1728.57,-19.6547 1731.73,-19.2357 1734.91,-18.7694"/>
<polygon fill="midnightblue" stroke="midnightblue" points="945.168,-52.6078 935.684,-57.3296 946.043,-59.553 945.168,-52.6078"/>
</g>
<!-- Node20 -->
<g id="node20" class="node"><title>Node20</title>
<g id="a_node20"><a xlink:href="state2tle_8cpp.html" target="_top" xlink:title="state2tle.cpp">
<polygon fill="white" stroke="black" points="1834,-0.5 1834,-19.5 1907,-19.5 1907,-0.5 1834,-0.5"/>
<text text-anchor="middle" x="1870.5" y="-7.5" font-family="Helvetica,sans-Serif" font-size="10.00">state2tle.cpp</text>
</a>
</g>
</g>
<!-- Node2&#45;&gt;Node20 -->
<g id="edge19" class="edge"><title>Node2&#45;&gt;Node20</title>
<path fill="none" stroke="midnightblue" d="M945.813,-56.0649C1335.17,-8.6921 1439.72,-66.1719 1825.5,-20 1828.19,-19.6781 1830.96,-19.2829 1833.74,-18.8397"/>
<polygon fill="midnightblue" stroke="midnightblue" points="945.179,-52.6165 935.682,-57.3133 946.035,-59.5639 945.179,-52.6165"/>
</g>
</g>
</svg>
        <g id="navigator" transform="translate(0 0)" fill="#404254">
                <rect fill="#f2f5e9" fill-opacity="0.5" stroke="#606060" stroke-width=".5" x="0" y="0" width="60" height="60"/>
                <use id="zoomplus" xlink:href="#zoomPlus" x="17" y="9" onmousedown="handleZoom(evt,'in')"/>
                <use id="zoomminus" xlink:href="#zoomMin" x="42" y="9" onmousedown="handleZoom(evt,'out')"/>
                <use id="reset" xlink:href="#resetDef" x="30" y="36" onmousedown="handleReset()"/>
                <g id="arrowUp" xlink:href="#dirArrow" transform="translate(30 24)" onmousedown="handlePan(0,-1)">
                  <use xlink:href="#rim" fill="#404040">
                        <set attributeName="fill" to="#808080" begin="arrowUp.mouseover" end="arrowUp.mouseout"/>
                  </use>
                  <path fill="none" stroke="white" stroke-width="1.5" d="M0,-3.0v7 M-2.5,-0.5L0,-3.0L2.5,-0.5"/>
                </g>
                <g id="arrowRight" xlink:href="#dirArrow" transform="rotate(90) translate(36 -43)" onmousedown="handlePan(1,0)">
                  <use xlink:href="#rim" fill="#404040">
                        <set attributeName="fill" to="#808080" begin="arrowRight.mouseover" end="arrowRight.mouseout"/>
                  </use>
                  <path fill="none" stroke="white" stroke-width="1.5" d="M0,-3.0v7 M-2.5,-0.5L0,-3.0L2.5,-0.5"/>
                </g>
                <g id="arrowDown" xlink:href="#dirArrow" transform="rotate(180) translate(-30 -48)" onmousedown="handlePan(0,1)">
                  <use xlink:href="#rim" fill="#404040">
                        <set attributeName="fill" to="#808080" begin="arrowDown.mouseover" end="arrowDown.mouseout"/>
                  </use>
                  <path fill="none" stroke="white" stroke-width="1.5" d="M0,-3.0v7 M-2.5,-0.5L0,-3.0L2.5,-0.5"/>
                </g>
                <g id="arrowLeft" xlink:href="#dirArrow" transform="rotate(270) translate(-36 17)" onmousedown="handlePan(-1,0)">
                  <use xlink:href="#rim" fill="#404040">
                        <set attributeName="fill" to="#808080" begin="arrowLeft.mouseover" end="arrowLeft.mouseout"/>
                  </use>
                  <path fill="none" stroke="white" stroke-width="1.5" d="M0,-3.0v7 M-2.5,-0.5L0,-3.0L2.5,-0.5"/>
                </g>
        </g>
        <svg viewBox="0 0 15 15" width="100%" height="30px" preserveAspectRatio="xMaxYMin meet">
         <g id="arrow_out" transform="scale(0.3 0.3)">
          <a xlink:href="demlib_8h__dep__incl_org.svg" target="_base">
           <rect id="button" ry="5" rx="5" y="6" x="6" height="38" width="38"
                fill="#f2f5e9" fill-opacity="0.5" stroke="#606060" stroke-width="1.0"/>
           <path id="arrow"
             d="M 11.500037,31.436501 C 11.940474,20.09759 22.043105,11.32322 32.158766,21.979434 L 37.068811,17.246167 C 37.068811,17.246167 37.088388,32 37.088388,32 L 22.160133,31.978069 C 22.160133,31.978069 26.997745,27.140456 26.997745,27.140456 C 18.528582,18.264221 13.291696,25.230495 11.500037,31.436501 z"
             style="fill:#404040;"/>
          </a>
         </g>
        </svg>
</svg>
