<?xml version="1.0" encoding="UTF-8" standalone="no"?>
<!DOCTYPE svg PUBLIC "-//W3C//DTD SVG 1.1//EN"
 "http://www.w3.org/Graphics/SVG/1.1/DTD/svg11.dtd">
<!-- Generated by graphviz version 2.38.0 (20140413.2041)
 -->
<!-- Title: devicecpu.h Pages: 1 -->
<!--zoomable 196 -->
<svg id="main" version="1.1" xmlns="http://www.w3.org/2000/svg" xmlns:xlink="http://www.w3.org/1999/xlink" xml:space="preserve" onload="init(evt)">
<style type="text/css"><![CDATA[
.edge:hover path { stroke: red; }
.edge:hover polygon { stroke: red; fill: red; }
]]></style>
<script type="text/javascript"><![CDATA[
var edges = document.getElementsByTagName('g');
if (edges && edges.length) {
  for (var i=0;i<edges.length;i++) {
    if (edges[i].id.substr(0,4)=='edge') {
      edges[i].setAttribute('class','edge');
    }
  }
}
]]></script>
        <defs>
                <circle id="rim" cx="0" cy="0" r="7"/>
                <circle id="rim2" cx="0" cy="0" r="3.5"/>
                <g id="zoomPlus">
                        <use xlink:href="#rim" fill="#404040">
                                <set attributeName="fill" to="#808080" begin="zoomplus.mouseover" end="zoomplus.mouseout"/>
                        </use>
                        <path d="M-4,0h8M0,-4v8" fill="none" stroke="white" stroke-width="1.5" pointer-events="none"/>
                </g>
                <g id="zoomMin">
                        <use xlink:href="#rim" fill="#404040">
                                <set attributeName="fill" to="#808080" begin="zoomminus.mouseover" end="zoomminus.mouseout"/>
                        </use>
                        <path d="M-4,0h8" fill="none" stroke="white" stroke-width="1.5" pointer-events="none"/>
                </g>
                <g id="dirArrow">
                        <path fill="none" stroke="white" stroke-width="1.5" d="M0,-3.0v7 M-2.5,-0.5L0,-3.0L2.5,-0.5"/>
                </g>
               <g id="resetDef">
                       <use xlink:href="#rim2" fill="#404040">
                               <set attributeName="fill" to="#808080" begin="reset.mouseover" end="reset.mouseout"/>
                       </use>
               </g>
        </defs>

<script type="text/javascript">
var viewWidth = 4519;
var viewHeight = 196;
var sectionId = 'dynsection-1';
</script>
<script xlink:href="svgpan.js"/>
<svg id="graph" class="graph">
<g id="viewport">
<title>devicecpu.h</title>
<polygon fill="white" stroke="none" points="-4,4 -4,-192 4514.5,-192 4514.5,4 -4,4"/>
<!-- Node1 -->
<g id="node1" class="node"><title>Node1</title>
<polygon fill="#bfbfbf" stroke="black" points="2121.5,-168.5 2121.5,-187.5 2190.5,-187.5 2190.5,-168.5 2121.5,-168.5"/>
<text text-anchor="middle" x="2156" y="-175.5" font-family="Helvetica,sans-Serif" font-size="10.00">devicecpu.h</text>
</g>
<!-- Node2 -->
<g id="node2" class="node"><title>Node2</title>
<g id="a_node2"><a xlink:href="playground_8cpp.html" target="_top" xlink:title="playground.cpp">
<polygon fill="white" stroke="black" points="1916.5,-112.5 1916.5,-131.5 1999.5,-131.5 1999.5,-112.5 1916.5,-112.5"/>
<text text-anchor="middle" x="1958" y="-119.5" font-family="Helvetica,sans-Serif" font-size="10.00">playground.cpp</text>
</a>
</g>
</g>
<!-- Node1&#45;&gt;Node2 -->
<g id="edge1" class="edge"><title>Node1&#45;&gt;Node2</title>
<path fill="none" stroke="midnightblue" d="M2114.56,-165.699C2077.19,-155.507 2023.06,-140.743 1989.23,-131.516"/>
<polygon fill="midnightblue" stroke="midnightblue" points="2114.06,-169.189 2124.63,-168.444 2115.9,-162.436 2114.06,-169.189"/>
</g>
<!-- Node3 -->
<g id="node3" class="node"><title>Node3</title>
<g id="a_node3"><a xlink:href="agentclass_8h.html" target="_top" xlink:title="Agent Server and Client header file. ">
<polygon fill="white" stroke="red" points="2056,-112.5 2056,-131.5 2128,-131.5 2128,-112.5 2056,-112.5"/>
<text text-anchor="middle" x="2092" y="-119.5" font-family="Helvetica,sans-Serif" font-size="10.00">agentclass.h</text>
</a>
</g>
</g>
<!-- Node1&#45;&gt;Node3 -->
<g id="edge2" class="edge"><title>Node1&#45;&gt;Node3</title>
<path fill="none" stroke="midnightblue" d="M2138.01,-161.82C2126.54,-152.145 2112.09,-139.948 2102.47,-131.834"/>
<polygon fill="midnightblue" stroke="midnightblue" points="2135.82,-164.55 2145.72,-168.324 2140.33,-159.2 2135.82,-164.55"/>
</g>
<!-- Node25 -->
<g id="node25" class="node"><title>Node25</title>
<g id="a_node25"><a xlink:href="agent__cpu_8cpp.html" target="_top" xlink:title="agent_cpu.cpp">
<polygon fill="white" stroke="black" points="0,-56.5 0,-75.5 80,-75.5 80,-56.5 0,-56.5"/>
<text text-anchor="middle" x="40" y="-63.5" font-family="Helvetica,sans-Serif" font-size="10.00">agent_cpu.cpp</text>
</a>
</g>
</g>
<!-- Node1&#45;&gt;Node25 -->
<g id="edge54" class="edge"><title>Node1&#45;&gt;Node25</title>
<path fill="none" stroke="midnightblue" d="M2124.17,-164.66C2102.27,-155.977 2072.63,-143.837 2047,-132 2029.32,-123.832 2026.89,-116.75 2008,-112 1801.18,-60.0027 301.19,-97.3336 89,-76 86.074,-75.7058 83.0609,-75.331 80.0355,-74.9022"/>
<polygon fill="midnightblue" stroke="midnightblue" points="2123.05,-167.983 2133.64,-168.393 2125.62,-161.471 2123.05,-167.983"/>
</g>
<!-- Node40 -->
<g id="node40" class="node"><title>Node40</title>
<g id="a_node40"><a xlink:href="agent__arduino_8cpp.html" target="_top" xlink:title="agent_arduino.cpp">
<polygon fill="white" stroke="black" points="4295,-56.5 4295,-75.5 4391,-75.5 4391,-56.5 4295,-56.5"/>
<text text-anchor="middle" x="4343" y="-63.5" font-family="Helvetica,sans-Serif" font-size="10.00">agent_arduino.cpp</text>
</a>
</g>
</g>
<!-- Node1&#45;&gt;Node40 -->
<g id="edge55" class="edge"><title>Node1&#45;&gt;Node40</title>
<path fill="none" stroke="midnightblue" d="M2157.38,-158.11C2159.59,-142.912 2165.3,-122.428 2180,-112 2227.72,-78.1431 4227.71,-81.0749 4286,-76 4288.89,-75.748 4291.86,-75.4376 4294.86,-75.0853"/>
<polygon fill="midnightblue" stroke="midnightblue" points="2153.85,-158.134 2156.28,-168.448 2160.81,-158.874 2153.85,-158.134"/>
</g>
<!-- Node41 -->
<g id="node41" class="node"><title>Node41</title>
<g id="a_node41"><a xlink:href="agent__example_8cpp.html" target="_top" xlink:title="agent_example.cpp">
<polygon fill="white" stroke="black" points="4409.5,-56.5 4409.5,-75.5 4510.5,-75.5 4510.5,-56.5 4409.5,-56.5"/>
<text text-anchor="middle" x="4460" y="-63.5" font-family="Helvetica,sans-Serif" font-size="10.00">agent_example.cpp</text>
</a>
</g>
</g>
<!-- Node1&#45;&gt;Node41 -->
<g id="edge56" class="edge"><title>Node1&#45;&gt;Node41</title>
<path fill="none" stroke="midnightblue" d="M2165.63,-159.403C2175.3,-143.735 2191.8,-121.819 2213,-112 2323.27,-60.9384 4278.9,-86.0349 4400,-76 4403.04,-75.7477 4406.17,-75.4372 4409.32,-75.0847"/>
<polygon fill="midnightblue" stroke="midnightblue" points="2162.52,-157.786 2160.51,-168.188 2168.57,-161.311 2162.52,-157.786"/>
</g>
<!-- Node49 -->
<g id="node49" class="node"><title>Node49</title>
<g id="a_node49"><a xlink:href="devicecpu_8cpp.html" target="_top" xlink:title="devicecpu.cpp">
<polygon fill="white" stroke="black" points="2222,-112.5 2222,-131.5 2302,-131.5 2302,-112.5 2222,-112.5"/>
<text text-anchor="middle" x="2262" y="-119.5" font-family="Helvetica,sans-Serif" font-size="10.00">devicecpu.cpp</text>
</a>
</g>
</g>
<!-- Node1&#45;&gt;Node49 -->
<g id="edge52" class="edge"><title>Node1&#45;&gt;Node49</title>
<path fill="none" stroke="midnightblue" d="M2182.06,-163.726C2201.68,-153.727 2228.03,-140.307 2245.01,-131.655"/>
<polygon fill="midnightblue" stroke="midnightblue" points="2180.35,-160.666 2173.03,-168.324 2183.53,-166.903 2180.35,-160.666"/>
</g>
<!-- Node50 -->
<g id="node50" class="node"><title>Node50</title>
<g id="a_node50"><a xlink:href="jsonlib_8cpp.html" target="_top" xlink:title="JSON support source file. ">
<polygon fill="white" stroke="black" points="2320.5,-112.5 2320.5,-131.5 2383.5,-131.5 2383.5,-112.5 2320.5,-112.5"/>
<text text-anchor="middle" x="2352" y="-119.5" font-family="Helvetica,sans-Serif" font-size="10.00">jsonlib.cpp</text>
</a>
</g>
</g>
<!-- Node1&#45;&gt;Node50 -->
<g id="edge53" class="edge"><title>Node1&#45;&gt;Node50</title>
<path fill="none" stroke="midnightblue" d="M2197.02,-165.699C2234.01,-155.507 2287.6,-140.743 2321.09,-131.516"/>
<polygon fill="midnightblue" stroke="midnightblue" points="2195.77,-162.413 2187.06,-168.444 2197.63,-169.162 2195.77,-162.413"/>
</g>
<!-- Node4 -->
<g id="node4" class="node"><title>Node4</title>
<g id="a_node4"><a xlink:href="agent__001_8cpp.html" target="_top" xlink:title="agent_001.cpp">
<polygon fill="white" stroke="black" points="3332,-56.5 3332,-75.5 3412,-75.5 3412,-56.5 3332,-56.5"/>
<text text-anchor="middle" x="3372" y="-63.5" font-family="Helvetica,sans-Serif" font-size="10.00">agent_001.cpp</text>
</a>
</g>
</g>
<!-- Node3&#45;&gt;Node4 -->
<g id="edge3" class="edge"><title>Node3&#45;&gt;Node4</title>
<path fill="none" stroke="midnightblue" d="M2138.18,-112.434C2139.47,-112.277 2140.74,-112.132 2142,-112 2664.28,-57.3368 2800.82,-131.592 3323,-76 3325.92,-75.6887 3328.94,-75.3013 3331.96,-74.8636"/>
<polygon fill="midnightblue" stroke="midnightblue" points="2137.65,-108.974 2128.23,-113.83 2138.62,-115.906 2137.65,-108.974"/>
</g>
<!-- Node5 -->
<g id="node5" class="node"><title>Node5</title>
<g id="a_node5"><a xlink:href="agent__002_8cpp.html" target="_top" xlink:title="agent_002.cpp">
<polygon fill="white" stroke="black" points="3430,-56.5 3430,-75.5 3510,-75.5 3510,-56.5 3430,-56.5"/>
<text text-anchor="middle" x="3470" y="-63.5" font-family="Helvetica,sans-Serif" font-size="10.00">agent_002.cpp</text>
</a>
</g>
</g>
<!-- Node3&#45;&gt;Node5 -->
<g id="edge4" class="edge"><title>Node3&#45;&gt;Node5</title>
<path fill="none" stroke="midnightblue" d="M2138.18,-112.43C2139.47,-112.274 2140.74,-112.13 2142,-112 2707.65,-53.4648 2855.46,-135.541 3421,-76 3423.92,-75.6921 3426.94,-75.3072 3429.96,-74.8713"/>
<polygon fill="midnightblue" stroke="midnightblue" points="2137.65,-108.97 2128.23,-113.82 2138.62,-115.903 2137.65,-108.97"/>
</g>
<!-- Node6 -->
<g id="node6" class="node"><title>Node6</title>
<g id="a_node6"><a xlink:href="agent__004_8cpp.html" target="_top" xlink:title="agent_004.cpp">
<polygon fill="white" stroke="black" points="3528,-56.5 3528,-75.5 3608,-75.5 3608,-56.5 3528,-56.5"/>
<text text-anchor="middle" x="3568" y="-63.5" font-family="Helvetica,sans-Serif" font-size="10.00">agent_004.cpp</text>
</a>
</g>
</g>
<!-- Node3&#45;&gt;Node6 -->
<g id="edge5" class="edge"><title>Node3&#45;&gt;Node6</title>
<path fill="none" stroke="midnightblue" d="M2138.18,-112.426C2139.47,-112.272 2140.74,-112.129 2142,-112 2751.02,-49.5926 2910.09,-139.49 3519,-76 3521.92,-75.695 3524.94,-75.3123 3527.96,-74.8779"/>
<polygon fill="midnightblue" stroke="midnightblue" points="2137.65,-108.966 2128.23,-113.811 2138.62,-115.9 2137.65,-108.966"/>
</g>
<!-- Node7 -->
<g id="node7" class="node"><title>Node7</title>
<g id="a_node7"><a xlink:href="agent__005_8cpp.html" target="_top" xlink:title="agent_005.cpp">
<polygon fill="white" stroke="black" points="3626,-56.5 3626,-75.5 3706,-75.5 3706,-56.5 3626,-56.5"/>
<text text-anchor="middle" x="3666" y="-63.5" font-family="Helvetica,sans-Serif" font-size="10.00">agent_005.cpp</text>
</a>
</g>
</g>
<!-- Node3&#45;&gt;Node7 -->
<g id="edge6" class="edge"><title>Node3&#45;&gt;Node7</title>
<path fill="none" stroke="midnightblue" d="M2138.18,-112.423C2139.47,-112.27 2140.74,-112.128 2142,-112 2794.39,-45.7203 2964.73,-143.44 3617,-76 3619.93,-75.6976 3622.94,-75.3167 3625.96,-74.8836"/>
<polygon fill="midnightblue" stroke="midnightblue" points="2137.65,-108.963 2128.23,-113.804 2138.61,-115.897 2137.65,-108.963"/>
</g>
<!-- Node8 -->
<g id="node8" class="node"><title>Node8</title>
<g id="a_node8"><a xlink:href="agent__006_8cpp.html" target="_top" xlink:title="agent_006.cpp">
<polygon fill="white" stroke="black" points="3724,-56.5 3724,-75.5 3804,-75.5 3804,-56.5 3724,-56.5"/>
<text text-anchor="middle" x="3764" y="-63.5" font-family="Helvetica,sans-Serif" font-size="10.00">agent_006.cpp</text>
</a>
</g>
</g>
<!-- Node3&#45;&gt;Node8 -->
<g id="edge7" class="edge"><title>Node3&#45;&gt;Node8</title>
<path fill="none" stroke="midnightblue" d="M2138.18,-112.421C2139.47,-112.268 2140.74,-112.127 2142,-112 2837.77,-41.8478 3019.36,-147.389 3715,-76 3717.93,-75.6998 3720.94,-75.3206 3723.96,-74.8886"/>
<polygon fill="midnightblue" stroke="midnightblue" points="2137.65,-108.96 2128.23,-113.797 2138.61,-115.894 2137.65,-108.96"/>
</g>
<!-- Node9 -->
<g id="node9" class="node"><title>Node9</title>
<g id="a_node9"><a xlink:href="agent__008_8cpp.html" target="_top" xlink:title="agent_008.cpp">
<polygon fill="white" stroke="black" points="3822,-56.5 3822,-75.5 3902,-75.5 3902,-56.5 3822,-56.5"/>
<text text-anchor="middle" x="3862" y="-63.5" font-family="Helvetica,sans-Serif" font-size="10.00">agent_008.cpp</text>
</a>
</g>
</g>
<!-- Node3&#45;&gt;Node9 -->
<g id="edge8" class="edge"><title>Node3&#45;&gt;Node9</title>
<path fill="none" stroke="midnightblue" d="M2138.18,-112.419C2139.47,-112.266 2140.74,-112.126 2142,-112 2881.14,-37.9753 3073.99,-151.339 3813,-76 3815.93,-75.7017 3818.94,-75.324 3821.96,-74.893"/>
<polygon fill="midnightblue" stroke="midnightblue" points="2137.66,-108.958 2128.23,-113.792 2138.61,-115.892 2137.66,-108.958"/>
</g>
<!-- Node10 -->
<g id="node10" class="node"><title>Node10</title>
<g id="a_node10"><a xlink:href="agent__add__soh_8cpp.html" target="_top" xlink:title="agent_add_soh.cpp">
<polygon fill="white" stroke="black" points="3920.5,-56.5 3920.5,-75.5 4021.5,-75.5 4021.5,-56.5 3920.5,-56.5"/>
<text text-anchor="middle" x="3971" y="-63.5" font-family="Helvetica,sans-Serif" font-size="10.00">agent_add_soh.cpp</text>
</a>
</g>
</g>
<!-- Node3&#45;&gt;Node10 -->
<g id="edge9" class="edge"><title>Node3&#45;&gt;Node10</title>
<path fill="none" stroke="midnightblue" d="M2138.18,-112.417C2139.47,-112.265 2140.74,-112.125 2142,-112 2924.52,-34.1026 3127.43,-142.464 3911,-76 3914.04,-75.7418 3917.17,-75.4267 3920.31,-75.0707"/>
<polygon fill="midnightblue" stroke="midnightblue" points="2137.66,-108.956 2128.23,-113.786 2138.61,-115.89 2137.66,-108.956"/>
</g>
<!-- Node11 -->
<g id="node11" class="node"><title>Node11</title>
<g id="a_node11"><a xlink:href="agent__calc_8cpp.html" target="_top" xlink:title="Demonstration calculator Agent. ">
<polygon fill="white" stroke="black" points="4039.5,-56.5 4039.5,-75.5 4122.5,-75.5 4122.5,-56.5 4039.5,-56.5"/>
<text text-anchor="middle" x="4081" y="-63.5" font-family="Helvetica,sans-Serif" font-size="10.00">agent_calc.cpp</text>
</a>
</g>
</g>
<!-- Node3&#45;&gt;Node11 -->
<g id="edge10" class="edge"><title>Node3&#45;&gt;Node11</title>
<path fill="none" stroke="midnightblue" d="M2138.18,-112.414C2139.47,-112.263 2140.74,-112.125 2142,-112 2977.63,-29.3605 3195.37,-158.64 4031,-76 4033.72,-75.7309 4036.52,-75.395 4039.33,-75.0125"/>
<polygon fill="midnightblue" stroke="midnightblue" points="2137.66,-108.953 2128.23,-113.781 2138.61,-115.888 2137.66,-108.953"/>
</g>
<!-- Node12 -->
<g id="node12" class="node"><title>Node12</title>
<g id="a_node12"><a xlink:href="agent__cpu__device__test_8cpp.html" target="_top" xlink:title="agent_cpu_device_test.cpp">
<polygon fill="white" stroke="black" points="4141,-56.5 4141,-75.5 4277,-75.5 4277,-56.5 4141,-56.5"/>
<text text-anchor="middle" x="4209" y="-63.5" font-family="Helvetica,sans-Serif" font-size="10.00">agent_cpu_device_test.cpp</text>
</a>
</g>
</g>
<!-- Node3&#45;&gt;Node12 -->
<g id="edge11" class="edge"><title>Node3&#45;&gt;Node12</title>
<path fill="none" stroke="midnightblue" d="M2138.18,-112.413C2139.47,-112.262 2140.74,-112.124 2142,-112 3022.34,-25.3691 3249.41,-135.419 4132,-76 4134.82,-75.8101 4137.7,-75.5909 4140.6,-75.3483"/>
<polygon fill="midnightblue" stroke="midnightblue" points="2137.66,-108.952 2128.23,-113.777 2138.61,-115.887 2137.66,-108.952"/>
</g>
<!-- Node13 -->
<g id="node13" class="node"><title>Node13</title>
<g id="a_node13"><a xlink:href="agent__receive_8cpp.html" target="_top" xlink:title="agent_receive.cpp">
<polygon fill="white" stroke="black" points="98,-56.5 98,-75.5 194,-75.5 194,-56.5 98,-56.5"/>
<text text-anchor="middle" x="146" y="-63.5" font-family="Helvetica,sans-Serif" font-size="10.00">agent_receive.cpp</text>
</a>
</g>
</g>
<!-- Node3&#45;&gt;Node13 -->
<g id="edge12" class="edge"><title>Node3&#45;&gt;Node13</title>
<path fill="none" stroke="midnightblue" d="M2045.82,-112.415C2044.53,-112.264 2043.26,-112.125 2042,-112 1228.5,-31.3364 1017.32,-147.918 203,-76 200.106,-75.7444 197.136,-75.4312 194.145,-75.0768"/>
<polygon fill="midnightblue" stroke="midnightblue" points="2045.39,-115.889 2055.77,-113.783 2046.34,-108.954 2045.39,-115.889"/>
</g>
<!-- Node14 -->
<g id="node14" class="node"><title>Node14</title>
<g id="a_node14"><a xlink:href="agent__send_8cpp.html" target="_top" xlink:title="agent_send.cpp">
<polygon fill="white" stroke="black" points="212,-56.5 212,-75.5 298,-75.5 298,-56.5 212,-56.5"/>
<text text-anchor="middle" x="255" y="-63.5" font-family="Helvetica,sans-Serif" font-size="10.00">agent_send.cpp</text>
</a>
</g>
</g>
<!-- Node3&#45;&gt;Node14 -->
<g id="edge13" class="edge"><title>Node3&#45;&gt;Node14</title>
<path fill="none" stroke="midnightblue" d="M2045.82,-112.417C2044.53,-112.265 2043.26,-112.126 2042,-112 1274.53,-35.4462 1074.72,-149.977 307,-76 304.082,-75.7188 301.08,-75.3673 298.063,-74.9674"/>
<polygon fill="midnightblue" stroke="midnightblue" points="2045.39,-115.891 2055.77,-113.788 2046.34,-108.957 2045.39,-115.891"/>
</g>
<!-- Node15 -->
<g id="node15" class="node"><title>Node15</title>
<g id="a_node15"><a xlink:href="propagator__simple_8cpp.html" target="_top" xlink:title="propagator_simple.cpp">
<polygon fill="white" stroke="black" points="316.5,-56.5 316.5,-75.5 431.5,-75.5 431.5,-56.5 316.5,-56.5"/>
<text text-anchor="middle" x="374" y="-63.5" font-family="Helvetica,sans-Serif" font-size="10.00">propagator_simple.cpp</text>
</a>
</g>
</g>
<!-- Node3&#45;&gt;Node15 -->
<g id="edge14" class="edge"><title>Node3&#45;&gt;Node15</title>
<path fill="none" stroke="midnightblue" d="M2045.82,-112.42C2044.53,-112.267 2043.26,-112.127 2042,-112 1333.4,-40.7019 1149.96,-132.202 440,-76 437.233,-75.781 434.405,-75.5239 431.552,-75.2379"/>
<polygon fill="midnightblue" stroke="midnightblue" points="2045.39,-115.894 2055.77,-113.796 2046.35,-108.96 2045.39,-115.894"/>
</g>
<!-- Node16 -->
<g id="node16" class="node"><title>Node16</title>
<g id="a_node16"><a xlink:href="agentclass_8cpp.html" target="_top" xlink:title="Agent support functions. ">
<polygon fill="white" stroke="black" points="449.5,-56.5 449.5,-75.5 532.5,-75.5 532.5,-56.5 449.5,-56.5"/>
<text text-anchor="middle" x="491" y="-63.5" font-family="Helvetica,sans-Serif" font-size="10.00">agentclass.cpp</text>
</a>
</g>
</g>
<!-- Node3&#45;&gt;Node16 -->
<g id="edge15" class="edge"><title>Node3&#45;&gt;Node16</title>
<path fill="none" stroke="midnightblue" d="M2045.82,-112.423C2044.53,-112.269 2043.26,-112.128 2042,-112 1378.1,-44.6929 1204.9,-143.307 541,-76 538.28,-75.7242 535.485,-75.3832 532.674,-74.9969"/>
<polygon fill="midnightblue" stroke="midnightblue" points="2045.39,-115.896 2055.77,-113.802 2046.35,-108.962 2045.39,-115.896"/>
</g>
<!-- Node17 -->
<g id="node17" class="node"><title>Node17</title>
<g id="a_node17"><a xlink:href="scheduler_8h.html" target="_top" xlink:title="Scheduler Class. ">
<polygon fill="white" stroke="red" points="550.5,-56.5 550.5,-75.5 617.5,-75.5 617.5,-56.5 550.5,-56.5"/>
<text text-anchor="middle" x="584" y="-63.5" font-family="Helvetica,sans-Serif" font-size="10.00">scheduler.h</text>
</a>
</g>
</g>
<!-- Node3&#45;&gt;Node17 -->
<g id="edge16" class="edge"><title>Node3&#45;&gt;Node17</title>
<path fill="none" stroke="midnightblue" d="M2045.82,-112.425C2044.53,-112.271 2043.26,-112.129 2042,-112 1416.16,-48.0911 1251.87,-148.736 627,-76 623.97,-75.6473 620.836,-75.185 617.707,-74.6561"/>
<polygon fill="midnightblue" stroke="midnightblue" points="2045.38,-115.899 2055.77,-113.808 2046.35,-108.965 2045.38,-115.899"/>
</g>
<!-- Node18 -->
<g id="node18" class="node"><title>Node18</title>
<g id="a_node18"><a xlink:href="acq__a35_8cpp.html" target="_top" xlink:title="acq_a35.cpp">
<polygon fill="white" stroke="black" points="631,-0.5 631,-19.5 703,-19.5 703,-0.5 631,-0.5"/>
<text text-anchor="middle" x="667" y="-7.5" font-family="Helvetica,sans-Serif" font-size="10.00">acq_a35.cpp</text>
</a>
</g>
</g>
<!-- Node3&#45;&gt;Node18 -->
<g id="edge17" class="edge"><title>Node3&#45;&gt;Node18</title>
<path fill="none" stroke="midnightblue" d="M2045.82,-112.431C2044.53,-112.275 2043.26,-112.131 2042,-112 1903.02,-97.5835 919.808,-112.738 785,-76 742.351,-64.3771 698.359,-34.4873 678.253,-19.638"/>
<polygon fill="midnightblue" stroke="midnightblue" points="2045.38,-115.904 2055.77,-113.822 2046.35,-108.971 2045.38,-115.904"/>
</g>
<!-- Node19 -->
<g id="node19" class="node"><title>Node19</title>
<g id="a_node19"><a xlink:href="acq__a35_8h.html" target="_top" xlink:title="acq_a35.h">
<polygon fill="white" stroke="black" points="636,-56.5 636,-75.5 698,-75.5 698,-56.5 636,-56.5"/>
<text text-anchor="middle" x="667" y="-63.5" font-family="Helvetica,sans-Serif" font-size="10.00">acq_a35.h</text>
</a>
</g>
</g>
<!-- Node3&#45;&gt;Node19 -->
<g id="edge18" class="edge"><title>Node3&#45;&gt;Node19</title>
<path fill="none" stroke="midnightblue" d="M2045.82,-112.428C2044.53,-112.273 2043.26,-112.13 2042,-112 1453.78,-51.4497 1299.61,-142.224 712,-76 707.566,-75.5003 702.919,-74.7886 698.364,-73.9815"/>
<polygon fill="midnightblue" stroke="midnightblue" points="2045.38,-115.901 2055.77,-113.815 2046.35,-108.968 2045.38,-115.901"/>
</g>
<!-- Node20 -->
<g id="node20" class="node"><title>Node20</title>
<g id="a_node20"><a xlink:href="command__queue_8h.html" target="_top" xlink:title="Command Queue Class. ">
<polygon fill="white" stroke="red" points="830.5,-56.5 830.5,-75.5 929.5,-75.5 929.5,-56.5 830.5,-56.5"/>
<text text-anchor="middle" x="880" y="-63.5" font-family="Helvetica,sans-Serif" font-size="10.00">command_queue.h</text>
</a>
</g>
</g>
<!-- Node3&#45;&gt;Node20 -->
<g id="edge20" class="edge"><title>Node3&#45;&gt;Node20</title>
<path fill="none" stroke="midnightblue" d="M2045.82,-112.438C2044.53,-112.28 2043.26,-112.133 2042,-112 1556.45,-60.6159 1430.45,-118.057 944,-76 939.305,-75.5941 934.428,-75.0791 929.555,-74.5018"/>
<polygon fill="midnightblue" stroke="midnightblue" points="2045.38,-115.91 2055.77,-113.84 2046.35,-108.979 2045.38,-115.91"/>
</g>
<!-- Node21 -->
<g id="node21" class="node"><title>Node21</title>
<g id="a_node21"><a xlink:href="agent__exec_8cpp.html" target="_top" xlink:title="Executive Agent source file. ">
<polygon fill="white" stroke="black" points="721,-0.5 721,-19.5 807,-19.5 807,-0.5 721,-0.5"/>
<text text-anchor="middle" x="764" y="-7.5" font-family="Helvetica,sans-Serif" font-size="10.00">agent_exec.cpp</text>
</a>
</g>
</g>
<!-- Node3&#45;&gt;Node21 -->
<g id="edge27" class="edge"><title>Node3&#45;&gt;Node21</title>
<path fill="none" stroke="midnightblue" d="M2045.82,-112.432C2044.53,-112.275 2043.26,-112.131 2042,-112 1974,-104.925 872.574,-107.689 812,-76 788.632,-63.775 773.699,-34.4505 767.415,-19.7345"/>
<polygon fill="midnightblue" stroke="midnightblue" points="2045.38,-115.905 2055.77,-113.825 2046.35,-108.972 2045.38,-115.905"/>
</g>
<!-- Node22 -->
<g id="node22" class="node"><title>Node22</title>
<g id="a_node22"><a xlink:href="agent__monitor_8cpp.html" target="_top" xlink:title="agent_monitor.cpp">
<polygon fill="white" stroke="black" points="825.5,-0.5 825.5,-19.5 922.5,-19.5 922.5,-0.5 825.5,-0.5"/>
<text text-anchor="middle" x="874" y="-7.5" font-family="Helvetica,sans-Serif" font-size="10.00">agent_monitor.cpp</text>
</a>
</g>
</g>
<!-- Node3&#45;&gt;Node22 -->
<g id="edge33" class="edge"><title>Node3&#45;&gt;Node22</title>
<path fill="none" stroke="midnightblue" d="M2045.82,-112.432C2044.53,-112.276 2043.26,-112.131 2042,-112 1974.5,-104.97 868.274,-124.688 821,-76 802.641,-57.0918 836.737,-32.4279 858.291,-19.5993"/>
<polygon fill="midnightblue" stroke="midnightblue" points="2045.38,-115.905 2055.77,-113.826 2046.35,-108.973 2045.38,-115.905"/>
</g>
<!-- Node23 -->
<g id="node23" class="node"><title>Node23</title>
<g id="a_node23"><a xlink:href="agent__time_8cpp.html" target="_top" xlink:title="agent_time.cpp">
<polygon fill="white" stroke="black" points="940.5,-0.5 940.5,-19.5 1023.5,-19.5 1023.5,-0.5 940.5,-0.5"/>
<text text-anchor="middle" x="982" y="-7.5" font-family="Helvetica,sans-Serif" font-size="10.00">agent_time.cpp</text>
</a>
</g>
</g>
<!-- Node3&#45;&gt;Node23 -->
<g id="edge35" class="edge"><title>Node3&#45;&gt;Node23</title>
<path fill="none" stroke="midnightblue" d="M2045.82,-112.439C2044.53,-112.281 2043.26,-112.134 2042,-112 1983.13,-105.74 1018.15,-118.562 977,-76 962.368,-60.8649 971.638,-33.41 977.801,-19.5271"/>
<polygon fill="midnightblue" stroke="midnightblue" points="2045.38,-115.912 2055.77,-113.844 2046.36,-108.98 2045.38,-115.912"/>
</g>
<!-- Node24 -->
<g id="node24" class="node"><title>Node24</title>
<g id="a_node24"><a xlink:href="agent_8cpp.html" target="_top" xlink:title="Agent control program source. ">
<polygon fill="white" stroke="black" points="986.5,-56.5 986.5,-75.5 1045.5,-75.5 1045.5,-56.5 986.5,-56.5"/>
<text text-anchor="middle" x="1016" y="-63.5" font-family="Helvetica,sans-Serif" font-size="10.00">agent.cpp</text>
</a>
</g>
</g>
<!-- Node3&#45;&gt;Node24 -->
<g id="edge24" class="edge"><title>Node3&#45;&gt;Node24</title>
<path fill="none" stroke="midnightblue" d="M2045.82,-112.444C2044.53,-112.284 2043.26,-112.135 2042,-112 1605.12,-64.9613 1489.43,-134.917 1054,-76 1051.31,-75.6364 1048.54,-75.1667 1045.77,-74.6329"/>
<polygon fill="midnightblue" stroke="midnightblue" points="2045.37,-115.916 2055.77,-113.856 2046.36,-108.985 2045.37,-115.916"/>
</g>
<!-- Node3&#45;&gt;Node25 -->
<g id="edge25" class="edge"><title>Node3&#45;&gt;Node25</title>
<path fill="none" stroke="midnightblue" d="M2045.82,-112.413C2044.53,-112.263 2043.26,-112.124 2042,-112 1178.04,-26.8313 952.807,-162.705 89,-76 86.074,-75.7063 83.0608,-75.3319 80.0354,-74.9033"/>
<polygon fill="midnightblue" stroke="midnightblue" points="2045.39,-115.887 2055.77,-113.778 2046.34,-108.952 2045.39,-115.887"/>
</g>
<!-- Node26 -->
<g id="node26" class="node"><title>Node26</title>
<g id="a_node26"><a xlink:href="agent__data_8cpp.html" target="_top" xlink:title="agent_data.cpp">
<polygon fill="white" stroke="black" points="1063.5,-56.5 1063.5,-75.5 1146.5,-75.5 1146.5,-56.5 1063.5,-56.5"/>
<text text-anchor="middle" x="1105" y="-63.5" font-family="Helvetica,sans-Serif" font-size="10.00">agent_data.cpp</text>
</a>
</g>
</g>
<!-- Node3&#45;&gt;Node26 -->
<g id="edge26" class="edge"><title>Node3&#45;&gt;Node26</title>
<path fill="none" stroke="midnightblue" d="M2045.82,-112.451C2044.53,-112.289 2043.26,-112.138 2042,-112 1649.81,-68.9507 1547.19,-119.049 1155,-76 1152.28,-75.7017 1149.49,-75.3436 1146.68,-74.9447"/>
<polygon fill="midnightblue" stroke="midnightblue" points="2045.37,-115.922 2055.76,-113.873 2046.36,-108.993 2045.37,-115.922"/>
</g>
<!-- Node27 -->
<g id="node27" class="node"><title>Node27</title>
<g id="a_node27"><a xlink:href="agent__file_8cpp.html" target="_top" xlink:title="File Transfer Agent source file. ">
<polygon fill="white" stroke="black" points="1164.5,-56.5 1164.5,-75.5 1241.5,-75.5 1241.5,-56.5 1164.5,-56.5"/>
<text text-anchor="middle" x="1203" y="-63.5" font-family="Helvetica,sans-Serif" font-size="10.00">agent_file.cpp</text>
</a>
</g>
</g>
<!-- Node3&#45;&gt;Node27 -->
<g id="edge28" class="edge"><title>Node3&#45;&gt;Node27</title>
<path fill="none" stroke="midnightblue" d="M2045.81,-112.459C2044.53,-112.295 2043.26,-112.141 2042,-112 1691.83,-72.7025 1599.94,-117.241 1250,-76 1247.28,-75.6791 1244.48,-75.2914 1241.66,-74.8594"/>
<polygon fill="midnightblue" stroke="midnightblue" points="2045.36,-115.93 2055.76,-113.894 2046.36,-109.002 2045.36,-115.93"/>
</g>
<!-- Node28 -->
<g id="node28" class="node"><title>Node28</title>
<g id="a_node28"><a xlink:href="agent__file2_8cpp.html" target="_top" xlink:title="agent_file2.cpp">
<polygon fill="white" stroke="black" points="1259.5,-56.5 1259.5,-75.5 1342.5,-75.5 1342.5,-56.5 1259.5,-56.5"/>
<text text-anchor="middle" x="1301" y="-63.5" font-family="Helvetica,sans-Serif" font-size="10.00">agent_file2.cpp</text>
</a>
</g>
</g>
<!-- Node3&#45;&gt;Node28 -->
<g id="edge29" class="edge"><title>Node3&#45;&gt;Node28</title>
<path fill="none" stroke="midnightblue" d="M2045.81,-112.47C2044.53,-112.302 2043.26,-112.145 2042,-112 1736.51,-76.6902 1656.49,-111.31 1351,-76 1348.28,-75.6861 1345.49,-75.3162 1342.68,-74.9085"/>
<polygon fill="midnightblue" stroke="midnightblue" points="2045.36,-115.941 2055.76,-113.923 2046.37,-109.014 2045.36,-115.941"/>
</g>
<!-- Node29 -->
<g id="node29" class="node"><title>Node29</title>
<g id="a_node29"><a xlink:href="agent__file3_8cpp.html" target="_top" xlink:title="agent_file3.cpp">
<polygon fill="white" stroke="black" points="1360.5,-56.5 1360.5,-75.5 1443.5,-75.5 1443.5,-56.5 1360.5,-56.5"/>
<text text-anchor="middle" x="1402" y="-63.5" font-family="Helvetica,sans-Serif" font-size="10.00">agent_file3.cpp</text>
</a>
</g>
</g>
<!-- Node3&#45;&gt;Node29 -->
<g id="edge30" class="edge"><title>Node3&#45;&gt;Node29</title>
<path fill="none" stroke="midnightblue" d="M2045.81,-112.485C2044.53,-112.313 2043.26,-112.151 2042,-112 1781.16,-80.6764 1712.84,-107.324 1452,-76 1449.29,-75.674 1446.49,-75.295 1443.69,-74.8805"/>
<polygon fill="midnightblue" stroke="midnightblue" points="2045.35,-115.954 2055.75,-113.961 2046.38,-109.03 2045.35,-115.954"/>
</g>
<!-- Node30 -->
<g id="node30" class="node"><title>Node30</title>
<g id="a_node30"><a xlink:href="agent__file4_8cpp.html" target="_top" xlink:title="agent_file4.cpp">
<polygon fill="white" stroke="black" points="1461.5,-56.5 1461.5,-75.5 1544.5,-75.5 1544.5,-56.5 1461.5,-56.5"/>
<text text-anchor="middle" x="1503" y="-63.5" font-family="Helvetica,sans-Serif" font-size="10.00">agent_file4.cpp</text>
</a>
</g>
</g>
<!-- Node3&#45;&gt;Node30 -->
<g id="edge31" class="edge"><title>Node3&#45;&gt;Node30</title>
<path fill="none" stroke="midnightblue" d="M2045.81,-112.506C2044.53,-112.328 2043.26,-112.159 2042,-112 1825.8,-84.6599 1769.2,-103.34 1553,-76 1550.29,-75.657 1547.5,-75.265 1544.69,-74.8411"/>
<polygon fill="midnightblue" stroke="midnightblue" points="2045.34,-115.974 2055.75,-114.015 2046.39,-109.053 2045.34,-115.974"/>
</g>
<!-- Node31 -->
<g id="node31" class="node"><title>Node31</title>
<g id="a_node31"><a xlink:href="agent__forward_8cpp.html" target="_top" xlink:title="agent_forward.cpp">
<polygon fill="white" stroke="black" points="1562.5,-56.5 1562.5,-75.5 1659.5,-75.5 1659.5,-56.5 1562.5,-56.5"/>
<text text-anchor="middle" x="1611" y="-63.5" font-family="Helvetica,sans-Serif" font-size="10.00">agent_forward.cpp</text>
</a>
</g>
</g>
<!-- Node3&#45;&gt;Node31 -->
<g id="edge32" class="edge"><title>Node3&#45;&gt;Node31</title>
<path fill="none" stroke="midnightblue" d="M2045.8,-112.544C2044.52,-112.355 2043.25,-112.173 2042,-112 1877.02,-89.2287 1834.25,-96.7777 1669,-76 1665.97,-75.6186 1662.85,-75.203 1659.71,-74.7665"/>
<polygon fill="midnightblue" stroke="midnightblue" points="2045.31,-116.01 2055.73,-114.112 2046.4,-109.095 2045.31,-116.01"/>
</g>
<!-- Node32 -->
<g id="node32" class="node"><title>Node32</title>
<g id="a_node32"><a xlink:href="agent__route_8cpp.html" target="_top" xlink:title="agent_route.cpp">
<polygon fill="white" stroke="black" points="1678,-56.5 1678,-75.5 1764,-75.5 1764,-56.5 1678,-56.5"/>
<text text-anchor="middle" x="1721" y="-63.5" font-family="Helvetica,sans-Serif" font-size="10.00">agent_route.cpp</text>
</a>
</g>
</g>
<!-- Node3&#45;&gt;Node32 -->
<g id="edge34" class="edge"><title>Node3&#45;&gt;Node32</title>
<path fill="none" stroke="midnightblue" d="M2045.87,-112.618C2044.57,-112.406 2043.27,-112.2 2042,-112 1922.84,-93.311 1892.23,-94.2888 1773,-76 1770.1,-75.5555 1767.12,-75.0814 1764.11,-74.5922"/>
<polygon fill="midnightblue" stroke="midnightblue" points="2045.54,-116.112 2055.98,-114.317 2046.7,-109.208 2045.54,-116.112"/>
</g>
<!-- Node33 -->
<g id="node33" class="node"><title>Node33</title>
<g id="a_node33"><a xlink:href="agent__tunnel_8cpp.html" target="_top" xlink:title="agent_tunnel.cpp">
<polygon fill="white" stroke="black" points="1782.5,-56.5 1782.5,-75.5 1873.5,-75.5 1873.5,-56.5 1782.5,-56.5"/>
<text text-anchor="middle" x="1828" y="-63.5" font-family="Helvetica,sans-Serif" font-size="10.00">agent_tunnel.cpp</text>
</a>
</g>
</g>
<!-- Node3&#45;&gt;Node33 -->
<g id="edge36" class="edge"><title>Node3&#45;&gt;Node33</title>
<path fill="none" stroke="midnightblue" d="M2046,-111.592C1996.31,-101.426 1917.81,-85.3694 1869.8,-75.5509"/>
<polygon fill="midnightblue" stroke="midnightblue" points="2045.35,-115.03 2055.85,-113.605 2046.75,-108.172 2045.35,-115.03"/>
</g>
<!-- Node34 -->
<g id="node34" class="node"><title>Node34</title>
<g id="a_node34"><a xlink:href="agent__tunnel2_8cpp.html" target="_top" xlink:title="agent_tunnel2.cpp">
<polygon fill="white" stroke="black" points="1892,-56.5 1892,-75.5 1988,-75.5 1988,-56.5 1892,-56.5"/>
<text text-anchor="middle" x="1940" y="-63.5" font-family="Helvetica,sans-Serif" font-size="10.00">agent_tunnel2.cpp</text>
</a>
</g>
</g>
<!-- Node3&#45;&gt;Node34 -->
<g id="edge37" class="edge"><title>Node3&#45;&gt;Node34</title>
<path fill="none" stroke="midnightblue" d="M2058.33,-109.039C2029.73,-98.8786 1989.39,-84.5457 1963.97,-75.5164"/>
<polygon fill="midnightblue" stroke="midnightblue" points="2057.32,-112.394 2067.92,-112.444 2059.66,-105.798 2057.32,-112.394"/>
</g>
<!-- Node35 -->
<g id="node35" class="node"><title>Node35</title>
<g id="a_node35"><a xlink:href="cosmos_8cpp.html" target="_top" xlink:title="cosmos.cpp">
<polygon fill="white" stroke="black" points="2006,-56.5 2006,-75.5 2076,-75.5 2076,-56.5 2006,-56.5"/>
<text text-anchor="middle" x="2041" y="-63.5" font-family="Helvetica,sans-Serif" font-size="10.00">cosmos.cpp</text>
</a>
</g>
</g>
<!-- Node3&#45;&gt;Node35 -->
<g id="edge38" class="edge"><title>Node3&#45;&gt;Node35</title>
<path fill="none" stroke="midnightblue" d="M2076.62,-104.718C2067.63,-95.1997 2056.64,-83.5608 2049.26,-75.7511"/>
<polygon fill="midnightblue" stroke="midnightblue" points="2074.17,-107.216 2083.58,-112.083 2079.26,-102.41 2074.17,-107.216"/>
</g>
<!-- Node36 -->
<g id="node36" class="node"><title>Node36</title>
<g id="a_node36"><a xlink:href="agent__antenna_8cpp.html" target="_top" xlink:title="Agent Antenna for Satellite Ground Station. ">
<polygon fill="white" stroke="black" points="2094.5,-56.5 2094.5,-75.5 2193.5,-75.5 2193.5,-56.5 2094.5,-56.5"/>
<text text-anchor="middle" x="2144" y="-63.5" font-family="Helvetica,sans-Serif" font-size="10.00">agent_antenna.cpp</text>
</a>
</g>
</g>
<!-- Node3&#45;&gt;Node36 -->
<g id="edge39" class="edge"><title>Node3&#45;&gt;Node36</title>
<path fill="none" stroke="midnightblue" d="M2107.68,-104.718C2116.84,-95.1997 2128.05,-83.5608 2135.57,-75.7511"/>
<polygon fill="midnightblue" stroke="midnightblue" points="2105,-102.452 2100.59,-112.083 2110.04,-107.308 2105,-102.452"/>
</g>
<!-- Node37 -->
<g id="node37" class="node"><title>Node37</title>
<g id="a_node37"><a xlink:href="agent__control_8cpp.html" target="_top" xlink:title="Agent Control for Satellite Ground Station. ">
<polygon fill="white" stroke="black" points="2212,-56.5 2212,-75.5 2306,-75.5 2306,-56.5 2212,-56.5"/>
<text text-anchor="middle" x="2259" y="-63.5" font-family="Helvetica,sans-Serif" font-size="10.00">agent_control.cpp</text>
</a>
</g>
</g>
<!-- Node3&#45;&gt;Node37 -->
<g id="edge40" class="edge"><title>Node3&#45;&gt;Node37</title>
<path fill="none" stroke="midnightblue" d="M2128.17,-109.304C2159.64,-99.1294 2204.49,-84.6246 2232.66,-75.5164"/>
<polygon fill="midnightblue" stroke="midnightblue" points="2126.9,-106.037 2118.46,-112.444 2129.05,-112.697 2126.9,-106.037"/>
</g>
<!-- Node38 -->
<g id="node38" class="node"><title>Node38</title>
<g id="a_node38"><a xlink:href="agent__kpc9612p_8cpp.html" target="_top" xlink:title="agent_kpc9612p.cpp">
<polygon fill="white" stroke="black" points="2324.5,-56.5 2324.5,-75.5 2431.5,-75.5 2431.5,-56.5 2324.5,-56.5"/>
<text text-anchor="middle" x="2378" y="-63.5" font-family="Helvetica,sans-Serif" font-size="10.00">agent_kpc9612p.cpp</text>
</a>
</g>
</g>
<!-- Node3&#45;&gt;Node38 -->
<g id="edge41" class="edge"><title>Node3&#45;&gt;Node38</title>
<path fill="none" stroke="midnightblue" d="M2138.13,-112.29C2191.68,-102.178 2279.44,-85.6085 2332.66,-75.5611"/>
<polygon fill="midnightblue" stroke="midnightblue" points="2137.4,-108.866 2128.22,-114.161 2138.7,-115.745 2137.4,-108.866"/>
</g>
<!-- Node39 -->
<g id="node39" class="node"><title>Node39</title>
<g id="a_node39"><a xlink:href="agent__radio_8cpp.html" target="_top" xlink:title="Agent Radio for Satellite Ground Station. ">
<polygon fill="white" stroke="black" points="2450,-56.5 2450,-75.5 2536,-75.5 2536,-56.5 2450,-56.5"/>
<text text-anchor="middle" x="2493" y="-63.5" font-family="Helvetica,sans-Serif" font-size="10.00">agent_radio.cpp</text>
</a>
</g>
</g>
<!-- Node3&#45;&gt;Node39 -->
<g id="edge42" class="edge"><title>Node3&#45;&gt;Node39</title>
<path fill="none" stroke="midnightblue" d="M2138.13,-112.596C2139.43,-112.391 2140.72,-112.192 2142,-112 2273.93,-92.1749 2307.98,-95.1727 2440,-76 2443.23,-75.5305 2446.57,-75.0212 2449.93,-74.4917"/>
<polygon fill="midnightblue" stroke="midnightblue" points="2137.31,-109.184 2128.01,-114.262 2138.44,-116.091 2137.31,-109.184"/>
</g>
<!-- Node3&#45;&gt;Node40 -->
<g id="edge43" class="edge"><title>Node3&#45;&gt;Node40</title>
<path fill="none" stroke="midnightblue" d="M2138.18,-112.411C2139.47,-112.261 2140.74,-112.123 2142,-112 3090.5,-19.2832 3336.56,-158.52 4286,-76 4288.89,-75.7484 4291.86,-75.4384 4294.86,-75.0863"/>
<polygon fill="midnightblue" stroke="midnightblue" points="2137.66,-108.949 2128.23,-113.771 2138.61,-115.885 2137.66,-108.949"/>
</g>
<!-- Node3&#45;&gt;Node41 -->
<g id="edge44" class="edge"><title>Node3&#45;&gt;Node41</title>
<path fill="none" stroke="midnightblue" d="M2138.32,-115.511C2151.74,-114.124 2166.44,-112.802 2180,-112 3165.08,-53.7472 3416.56,-157.37 4400,-76 4403.04,-75.7481 4406.17,-75.4378 4409.32,-75.0855"/>
<polygon fill="midnightblue" stroke="midnightblue" points="2137.91,-112.035 2128.34,-116.577 2138.65,-118.995 2137.91,-112.035"/>
</g>
<!-- Node42 -->
<g id="node42" class="node"><title>Node42</title>
<g id="a_node42"><a xlink:href="agent__node_8cpp.html" target="_top" xlink:title="agent_node.cpp">
<polygon fill="white" stroke="black" points="2554,-56.5 2554,-75.5 2640,-75.5 2640,-56.5 2554,-56.5"/>
<text text-anchor="middle" x="2597" y="-63.5" font-family="Helvetica,sans-Serif" font-size="10.00">agent_node.cpp</text>
</a>
</g>
</g>
<!-- Node3&#45;&gt;Node42 -->
<g id="edge45" class="edge"><title>Node3&#45;&gt;Node42</title>
<path fill="none" stroke="midnightblue" d="M2138.19,-112.532C2139.48,-112.346 2140.75,-112.169 2142,-112 2320.22,-88.0481 2366.7,-99.3535 2545,-76 2547.91,-75.6192 2550.9,-75.1931 2553.91,-74.7387"/>
<polygon fill="midnightblue" stroke="midnightblue" points="2137.6,-109.082 2128.26,-114.082 2138.68,-115.998 2137.6,-109.082"/>
</g>
<!-- Node43 -->
<g id="node43" class="node"><title>Node43</title>
<g id="a_node43"><a xlink:href="agent__orig_8cpp.html" target="_top" xlink:title="agent_orig.cpp">
<polygon fill="white" stroke="black" points="2658,-56.5 2658,-75.5 2738,-75.5 2738,-56.5 2658,-56.5"/>
<text text-anchor="middle" x="2698" y="-63.5" font-family="Helvetica,sans-Serif" font-size="10.00">agent_orig.cpp</text>
</a>
</g>
</g>
<!-- Node3&#45;&gt;Node43 -->
<g id="edge46" class="edge"><title>Node3&#45;&gt;Node43</title>
<path fill="none" stroke="midnightblue" d="M2138.19,-112.502C2139.47,-112.325 2140.74,-112.157 2142,-112 2366.15,-83.9502 2424.9,-104.448 2649,-76 2651.92,-75.6297 2654.92,-75.1989 2657.94,-74.7304"/>
<polygon fill="midnightblue" stroke="midnightblue" points="2137.62,-109.049 2128.25,-114.004 2138.66,-115.97 2137.62,-109.049"/>
</g>
<!-- Node44 -->
<g id="node44" class="node"><title>Node44</title>
<g id="a_node44"><a xlink:href="agent__physics_8cpp.html" target="_top" xlink:title="agent_physics.cpp">
<polygon fill="white" stroke="black" points="2756,-56.5 2756,-75.5 2854,-75.5 2854,-56.5 2756,-56.5"/>
<text text-anchor="middle" x="2805" y="-63.5" font-family="Helvetica,sans-Serif" font-size="10.00">agent_physics.cpp</text>
</a>
</g>
</g>
<!-- Node3&#45;&gt;Node44 -->
<g id="edge47" class="edge"><title>Node3&#45;&gt;Node44</title>
<path fill="none" stroke="midnightblue" d="M2138.19,-112.482C2139.47,-112.311 2140.74,-112.15 2142,-112 2409.47,-80.0845 2479.17,-104.684 2747,-76 2749.94,-75.6853 2752.96,-75.3264 2756,-74.9374"/>
<polygon fill="midnightblue" stroke="midnightblue" points="2137.62,-109.028 2128.24,-113.955 2138.65,-115.952 2137.62,-109.028"/>
</g>
<!-- Node45 -->
<g id="node45" class="node"><title>Node45</title>
<g id="a_node45"><a xlink:href="agent__transmitter_8cpp.html" target="_top" xlink:title="agent_transmitter.cpp">
<polygon fill="white" stroke="black" points="2871.5,-56.5 2871.5,-75.5 2982.5,-75.5 2982.5,-56.5 2871.5,-56.5"/>
<text text-anchor="middle" x="2927" y="-63.5" font-family="Helvetica,sans-Serif" font-size="10.00">agent_transmitter.cpp</text>
</a>
</g>
</g>
<!-- Node3&#45;&gt;Node45 -->
<g id="edge48" class="edge"><title>Node3&#45;&gt;Node45</title>
<path fill="none" stroke="midnightblue" d="M2138.19,-112.466C2139.47,-112.3 2140.74,-112.144 2142,-112 2460.76,-75.5058 2543.6,-106.37 2863,-76 2865.68,-75.7451 2868.42,-75.4589 2871.19,-75.1495"/>
<polygon fill="midnightblue" stroke="midnightblue" points="2137.63,-109.01 2128.24,-113.914 2138.64,-115.937 2137.63,-109.01"/>
</g>
<!-- Node46 -->
<g id="node46" class="node"><title>Node46</title>
<g id="a_node46"><a xlink:href="agent__transmitter2_8cpp.html" target="_top" xlink:title="agent_transmitter2.cpp">
<polygon fill="white" stroke="black" points="3001,-56.5 3001,-75.5 3117,-75.5 3117,-56.5 3001,-56.5"/>
<text text-anchor="middle" x="3059" y="-63.5" font-family="Helvetica,sans-Serif" font-size="10.00">agent_transmitter2.cpp</text>
</a>
</g>
</g>
<!-- Node3&#45;&gt;Node46 -->
<g id="edge49" class="edge"><title>Node3&#45;&gt;Node46</title>
<path fill="none" stroke="midnightblue" d="M2138.19,-112.454C2139.47,-112.291 2140.74,-112.139 2142,-112 2517.38,-70.4515 2614.76,-108.81 2991,-76 2994.2,-75.7207 2997.49,-75.4002 3000.8,-75.0502"/>
<polygon fill="midnightblue" stroke="midnightblue" points="2137.64,-108.996 2128.24,-113.881 2138.63,-115.925 2137.64,-108.996"/>
</g>
<!-- Node47 -->
<g id="node47" class="node"><title>Node47</title>
<g id="a_node47"><a xlink:href="archive_8cpp.html" target="_top" xlink:title="archive.cpp">
<polygon fill="white" stroke="black" points="3135.5,-56.5 3135.5,-75.5 3202.5,-75.5 3202.5,-56.5 3135.5,-56.5"/>
<text text-anchor="middle" x="3169" y="-63.5" font-family="Helvetica,sans-Serif" font-size="10.00">archive.cpp</text>
</a>
</g>
</g>
<!-- Node3&#45;&gt;Node47 -->
<g id="edge50" class="edge"><title>Node3&#45;&gt;Node47</title>
<path fill="none" stroke="midnightblue" d="M2138.18,-112.444C2139.47,-112.284 2140.74,-112.136 2142,-112 2577.11,-65.1193 2691.6,-129.018 3126,-76 3129.03,-75.6304 3132.16,-75.1566 3135.29,-74.6201"/>
<polygon fill="midnightblue" stroke="midnightblue" points="2137.64,-108.986 2128.23,-113.856 2138.63,-115.916 2137.64,-108.986"/>
</g>
<!-- Node48 -->
<g id="node48" class="node"><title>Node48</title>
<g id="a_node48"><a xlink:href="cosmos__size_8cpp.html" target="_top" xlink:title="cosmos_size.cpp">
<polygon fill="white" stroke="black" points="3220.5,-56.5 3220.5,-75.5 3313.5,-75.5 3313.5,-56.5 3220.5,-56.5"/>
<text text-anchor="middle" x="3267" y="-63.5" font-family="Helvetica,sans-Serif" font-size="10.00">cosmos_size.cpp</text>
</a>
</g>
</g>
<!-- Node3&#45;&gt;Node48 -->
<g id="edge51" class="edge"><title>Node3&#45;&gt;Node48</title>
<path fill="none" stroke="midnightblue" d="M2138.18,-112.439C2139.47,-112.281 2140.74,-112.134 2142,-112 2615.16,-61.722 2738.45,-122.516 3212,-76 3214.7,-75.7352 3217.46,-75.4206 3220.25,-75.0703"/>
<polygon fill="midnightblue" stroke="midnightblue" points="2137.65,-108.98 2128.23,-113.844 2138.62,-115.911 2137.65,-108.98"/>
</g>
<!-- Node19&#45;&gt;Node18 -->
<g id="edge19" class="edge"><title>Node19&#45;&gt;Node18</title>
<path fill="none" stroke="midnightblue" d="M667,-45.8045C667,-36.9102 667,-26.7798 667,-19.7511"/>
<polygon fill="midnightblue" stroke="midnightblue" points="663.5,-46.083 667,-56.083 670.5,-46.083 663.5,-46.083"/>
</g>
<!-- Node20&#45;&gt;Node21 -->
<g id="edge21" class="edge"><title>Node20&#45;&gt;Node21</title>
<path fill="none" stroke="midnightblue" d="M852.28,-52.096C830.608,-42.0073 801.098,-28.2697 782.295,-19.5164"/>
<polygon fill="midnightblue" stroke="midnightblue" points="851.077,-55.3962 861.619,-56.4435 854.031,-49.0501 851.077,-55.3962"/>
</g>
<!-- Node20&#45;&gt;Node22 -->
<g id="edge22" class="edge"><title>Node20&#45;&gt;Node22</title>
<path fill="none" stroke="midnightblue" d="M877.9,-46.1005C876.904,-37.1357 875.762,-26.8579 874.972,-19.7511"/>
<polygon fill="midnightblue" stroke="midnightblue" points="874.426,-46.5307 879.009,-56.083 881.383,-45.7576 874.426,-46.5307"/>
</g>
<!-- Node20&#45;&gt;Node23 -->
<g id="edge23" class="edge"><title>Node20&#45;&gt;Node23</title>
<path fill="none" stroke="midnightblue" d="M905.331,-51.5895C924.19,-41.6052 949.384,-28.2672 965.653,-19.6545"/>
<polygon fill="midnightblue" stroke="midnightblue" points="903.588,-48.5518 896.388,-56.324 906.864,-54.7383 903.588,-48.5518"/>
</g>
</g>
</svg>
        <g id="navigator" transform="translate(0 0)" fill="#404254">
                <rect fill="#f2f5e9" fill-opacity="0.5" stroke="#606060" stroke-width=".5" x="0" y="0" width="60" height="60"/>
                <use id="zoomplus" xlink:href="#zoomPlus" x="17" y="9" onmousedown="handleZoom(evt,'in')"/>
                <use id="zoomminus" xlink:href="#zoomMin" x="42" y="9" onmousedown="handleZoom(evt,'out')"/>
                <use id="reset" xlink:href="#resetDef" x="30" y="36" onmousedown="handleReset()"/>
                <g id="arrowUp" xlink:href="#dirArrow" transform="translate(30 24)" onmousedown="handlePan(0,-1)">
                  <use xlink:href="#rim" fill="#404040">
                        <set attributeName="fill" to="#808080" begin="arrowUp.mouseover" end="arrowUp.mouseout"/>
                  </use>
                  <path fill="none" stroke="white" stroke-width="1.5" d="M0,-3.0v7 M-2.5,-0.5L0,-3.0L2.5,-0.5"/>
                </g>
                <g id="arrowRight" xlink:href="#dirArrow" transform="rotate(90) translate(36 -43)" onmousedown="handlePan(1,0)">
                  <use xlink:href="#rim" fill="#404040">
                        <set attributeName="fill" to="#808080" begin="arrowRight.mouseover" end="arrowRight.mouseout"/>
                  </use>
                  <path fill="none" stroke="white" stroke-width="1.5" d="M0,-3.0v7 M-2.5,-0.5L0,-3.0L2.5,-0.5"/>
                </g>
                <g id="arrowDown" xlink:href="#dirArrow" transform="rotate(180) translate(-30 -48)" onmousedown="handlePan(0,1)">
                  <use xlink:href="#rim" fill="#404040">
                        <set attributeName="fill" to="#808080" begin="arrowDown.mouseover" end="arrowDown.mouseout"/>
                  </use>
                  <path fill="none" stroke="white" stroke-width="1.5" d="M0,-3.0v7 M-2.5,-0.5L0,-3.0L2.5,-0.5"/>
                </g>
                <g id="arrowLeft" xlink:href="#dirArrow" transform="rotate(270) translate(-36 17)" onmousedown="handlePan(-1,0)">
                  <use xlink:href="#rim" fill="#404040">
                        <set attributeName="fill" to="#808080" begin="arrowLeft.mouseover" end="arrowLeft.mouseout"/>
                  </use>
                  <path fill="none" stroke="white" stroke-width="1.5" d="M0,-3.0v7 M-2.5,-0.5L0,-3.0L2.5,-0.5"/>
                </g>
        </g>
        <svg viewBox="0 0 15 15" width="100%" height="30px" preserveAspectRatio="xMaxYMin meet">
         <g id="arrow_out" transform="scale(0.3 0.3)">
          <a xlink:href="devicecpu_8h__dep__incl_org.svg" target="_base">
           <rect id="button" ry="5" rx="5" y="6" x="6" height="38" width="38"
                fill="#f2f5e9" fill-opacity="0.5" stroke="#606060" stroke-width="1.0"/>
           <path id="arrow"
             d="M 11.500037,31.436501 C 11.940474,20.09759 22.043105,11.32322 32.158766,21.979434 L 37.068811,17.246167 C 37.068811,17.246167 37.088388,32 37.088388,32 L 22.160133,31.978069 C 22.160133,31.978069 26.997745,27.140456 26.997745,27.140456 C 18.528582,18.264221 13.291696,25.230495 11.500037,31.436501 z"
             style="fill:#404040;"/>
          </a>
         </g>
        </svg>
</svg>
