<?xml version="1.0" encoding="UTF-8" standalone="no"?>
<!DOCTYPE svg PUBLIC "-//W3C//DTD SVG 1.1//EN"
 "http://www.w3.org/Graphics/SVG/1.1/DTD/svg11.dtd">
<!-- Generated by graphviz version 2.38.0 (20140413.2041)
 -->
<!-- Title: devicecpu.h Pages: 1 -->
<svg width="1483pt" height="476pt"
 viewBox="0.00 0.00 1482.65 476.00" xmlns="http://www.w3.org/2000/svg" xmlns:xlink="http://www.w3.org/1999/xlink">
<g id="graph0" class="graph" transform="scale(1 1) rotate(0) translate(4 472)">
<title>devicecpu.h</title>
<polygon fill="white" stroke="none" points="-4,4 -4,-472 1478.65,-472 1478.65,4 -4,4"/>
<!-- Node1 -->
<g id="node1" class="node"><title>Node1</title>
<polygon fill="#bfbfbf" stroke="black" points="738,-448.5 738,-467.5 807,-467.5 807,-448.5 738,-448.5"/>
<text text-anchor="middle" x="772.5" y="-455.5" font-family="Helvetica,sans-Serif" font-size="10.00">devicecpu.h</text>
</g>
<!-- Node2 -->
<g id="node2" class="node"><title>Node2</title>
<g id="a_node2"><a xlink:href="config_cosmos_8h.html" target="_top" xlink:title="Headers and definitions common to all COSMOS. ">
<polygon fill="white" stroke="black" points="665,-112.5 665,-131.5 788,-131.5 788,-112.5 665,-112.5"/>
<text text-anchor="middle" x="726.5" y="-119.5" font-family="Helvetica,sans-Serif" font-size="10.00">support/configCosmos.h</text>
</a>
</g>
</g>
<!-- Node1&#45;&gt;Node2 -->
<g id="edge1" class="edge"><title>Node1&#45;&gt;Node2</title>
<path fill="none" stroke="midnightblue" d="M768.994,-448.325C761.897,-429.959 746.5,-385.658 746.5,-347 746.5,-347 746.5,-347 746.5,-233 746.5,-200.438 737.912,-163.315 731.991,-141.592"/>
<polygon fill="midnightblue" stroke="midnightblue" points="735.293,-140.408 729.197,-131.742 728.558,-142.317 735.293,-140.408"/>
</g>
<!-- Node28 -->
<g id="node28" class="node"><title>Node28</title>
<g id="a_node28"><a xlink:href="stringlib_8h.html" target="_top" xlink:title="stringlib include file A library providing functions for handling various types of string...">
<polygon fill="white" stroke="black" points="513.5,-392.5 513.5,-411.5 607.5,-411.5 607.5,-392.5 513.5,-392.5"/>
<text text-anchor="middle" x="560.5" y="-399.5" font-family="Helvetica,sans-Serif" font-size="10.00">support/stringlib.h</text>
</a>
</g>
</g>
<!-- Node1&#45;&gt;Node28 -->
<g id="edge33" class="edge"><title>Node1&#45;&gt;Node28</title>
<path fill="none" stroke="midnightblue" d="M738.908,-448.444C702.313,-439.122 643.662,-424.183 603.674,-413.997"/>
<polygon fill="midnightblue" stroke="midnightblue" points="604.489,-410.593 593.935,-411.516 602.761,-417.377 604.489,-410.593"/>
</g>
<!-- Node35 -->
<g id="node35" class="node"><title>Node35</title>
<polygon fill="white" stroke="#bfbfbf" points="774.5,-392.5 774.5,-411.5 824.5,-411.5 824.5,-392.5 774.5,-392.5"/>
<text text-anchor="middle" x="799.5" y="-399.5" font-family="Helvetica,sans-Serif" font-size="10.00">fstream</text>
</g>
<!-- Node1&#45;&gt;Node35 -->
<g id="edge50" class="edge"><title>Node1&#45;&gt;Node35</title>
<path fill="none" stroke="midnightblue" d="M776.959,-448.083C780.654,-440.691 786.023,-429.953 790.594,-420.811"/>
<polygon fill="midnightblue" stroke="midnightblue" points="793.783,-422.261 795.124,-411.751 787.522,-419.13 793.783,-422.261"/>
</g>
<!-- Node36 -->
<g id="node36" class="node"><title>Node36</title>
<polygon fill="white" stroke="#bfbfbf" points="842.5,-392.5 842.5,-411.5 898.5,-411.5 898.5,-392.5 842.5,-392.5"/>
<text text-anchor="middle" x="870.5" y="-399.5" font-family="Helvetica,sans-Serif" font-size="10.00">algorithm</text>
</g>
<!-- Node1&#45;&gt;Node36 -->
<g id="edge51" class="edge"><title>Node1&#45;&gt;Node36</title>
<path fill="none" stroke="midnightblue" d="M788.245,-448.324C803.819,-439.743 827.877,-426.486 845.959,-416.522"/>
<polygon fill="midnightblue" stroke="midnightblue" points="847.724,-419.546 854.794,-411.655 844.346,-413.415 847.724,-419.546"/>
</g>
<!-- Node3 -->
<g id="node3" class="node"><title>Node3</title>
<polygon fill="white" stroke="#bfbfbf" points="512,-56.5 512,-75.5 557,-75.5 557,-56.5 512,-56.5"/>
<text text-anchor="middle" x="534.5" y="-63.5" font-family="Helvetica,sans-Serif" font-size="10.00">climits</text>
</g>
<!-- Node2&#45;&gt;Node3 -->
<g id="edge2" class="edge"><title>Node2&#45;&gt;Node3</title>
<path fill="none" stroke="midnightblue" d="M695.609,-112.465C665.143,-104.025 616.997,-90.6298 566.888,-76.3779"/>
<polygon fill="midnightblue" stroke="midnightblue" points="567.756,-72.9858 557.179,-73.6127 565.838,-79.7181 567.756,-72.9858"/>
</g>
<!-- Node4 -->
<g id="node4" class="node"><title>Node4</title>
<polygon fill="white" stroke="#bfbfbf" points="575,-56.5 575,-75.5 622,-75.5 622,-56.5 575,-56.5"/>
<text text-anchor="middle" x="598.5" y="-63.5" font-family="Helvetica,sans-Serif" font-size="10.00">csignal</text>
</g>
<!-- Node2&#45;&gt;Node4 -->
<g id="edge3" class="edge"><title>Node2&#45;&gt;Node4</title>
<path fill="none" stroke="midnightblue" d="M706.218,-112.444C685.153,-103.557 651.983,-89.5632 628.014,-79.4514"/>
<polygon fill="midnightblue" stroke="midnightblue" points="629.261,-76.1787 618.687,-75.5164 626.54,-82.6283 629.261,-76.1787"/>
</g>
<!-- Node5 -->
<g id="node5" class="node"><title>Node5</title>
<polygon fill="white" stroke="#bfbfbf" points="1268.5,-56.5 1268.5,-75.5 1314.5,-75.5 1314.5,-56.5 1268.5,-56.5"/>
<text text-anchor="middle" x="1291.5" y="-63.5" font-family="Helvetica,sans-Serif" font-size="10.00">cstdint</text>
</g>
<!-- Node2&#45;&gt;Node5 -->
<g id="edge4" class="edge"><title>Node2&#45;&gt;Node5</title>
<path fill="none" stroke="midnightblue" d="M788.255,-118.813C887.217,-114.619 1087.21,-103.31 1254.5,-76 1255.75,-75.7963 1257.02,-75.5728 1258.29,-75.3336"/>
<polygon fill="midnightblue" stroke="midnightblue" points="1259.06,-78.7489 1268.12,-73.2605 1257.62,-71.8996 1259.06,-78.7489"/>
</g>
<!-- Node6 -->
<g id="node6" class="node"><title>Node6</title>
<polygon fill="white" stroke="#bfbfbf" points="926.5,-56.5 926.5,-75.5 982.5,-75.5 982.5,-56.5 926.5,-56.5"/>
<text text-anchor="middle" x="954.5" y="-63.5" font-family="Helvetica,sans-Serif" font-size="10.00">cinttypes</text>
</g>
<!-- Node2&#45;&gt;Node6 -->
<g id="edge5" class="edge"><title>Node2&#45;&gt;Node6</title>
<path fill="none" stroke="midnightblue" d="M762.627,-112.444C804.709,-102.477 873.907,-86.0877 916.694,-75.954"/>
<polygon fill="midnightblue" stroke="midnightblue" points="917.524,-79.3544 926.448,-73.6439 915.911,-72.5428 917.524,-79.3544"/>
</g>
<!-- Node7 -->
<g id="node7" class="node"><title>Node7</title>
<polygon fill="white" stroke="#bfbfbf" points="1039,-56.5 1039,-75.5 1082,-75.5 1082,-56.5 1039,-56.5"/>
<text text-anchor="middle" x="1060.5" y="-63.5" font-family="Helvetica,sans-Serif" font-size="10.00">cstdio</text>
</g>
<!-- Node2&#45;&gt;Node7 -->
<g id="edge6" class="edge"><title>Node2&#45;&gt;Node7</title>
<path fill="none" stroke="midnightblue" d="M788.151,-113.431C848.622,-105.599 943.308,-92.241 1024.5,-76 1025.96,-75.7078 1027.45,-75.3949 1028.95,-75.0675"/>
<polygon fill="midnightblue" stroke="midnightblue" points="1029.93,-78.4351 1038.87,-72.7608 1028.34,-71.617 1029.93,-78.4351"/>
</g>
<!-- Node8 -->
<g id="node8" class="node"><title>Node8</title>
<polygon fill="white" stroke="#bfbfbf" points="1100,-56.5 1100,-75.5 1149,-75.5 1149,-56.5 1100,-56.5"/>
<text text-anchor="middle" x="1124.5" y="-63.5" font-family="Helvetica,sans-Serif" font-size="10.00">cstddef</text>
</g>
<!-- Node2&#45;&gt;Node8 -->
<g id="edge7" class="edge"><title>Node2&#45;&gt;Node8</title>
<path fill="none" stroke="midnightblue" d="M788.28,-116.108C859.076,-109.894 978.68,-97.5404 1089.7,-76.1304"/>
<polygon fill="midnightblue" stroke="midnightblue" points="1090.58,-79.5235 1099.72,-74.1671 1089.24,-72.654 1090.58,-79.5235"/>
</g>
<!-- Node9 -->
<g id="node9" class="node"><title>Node9</title>
<polygon fill="white" stroke="#bfbfbf" points="1167,-56.5 1167,-75.5 1212,-75.5 1212,-56.5 1167,-56.5"/>
<text text-anchor="middle" x="1189.5" y="-63.5" font-family="Helvetica,sans-Serif" font-size="10.00">cstdlib</text>
</g>
<!-- Node2&#45;&gt;Node9 -->
<g id="edge8" class="edge"><title>Node2&#45;&gt;Node9</title>
<path fill="none" stroke="midnightblue" d="M788.178,-118.048C870.41,-113.344 1020.51,-102.082 1156.73,-76.042"/>
<polygon fill="midnightblue" stroke="midnightblue" points="1157.78,-79.4033 1166.93,-74.0592 1156.44,-72.532 1157.78,-79.4033"/>
</g>
<!-- Node10 -->
<g id="node10" class="node"><title>Node10</title>
<polygon fill="white" stroke="#bfbfbf" points="129.5,-56.5 129.5,-75.5 173.5,-75.5 173.5,-56.5 129.5,-56.5"/>
<text text-anchor="middle" x="151.5" y="-63.5" font-family="Helvetica,sans-Serif" font-size="10.00">cerrno</text>
</g>
<!-- Node2&#45;&gt;Node10 -->
<g id="edge9" class="edge"><title>Node2&#45;&gt;Node10</title>
<path fill="none" stroke="midnightblue" d="M664.785,-119.902C565.179,-117.253 362.852,-108.246 183.593,-75.8415"/>
<polygon fill="midnightblue" stroke="midnightblue" points="184.191,-72.3928 173.723,-74.0291 182.927,-79.2777 184.191,-72.3928"/>
</g>
<!-- Node11 -->
<g id="node11" class="node"><title>Node11</title>
<polygon fill="white" stroke="#bfbfbf" points="191.5,-56.5 191.5,-75.5 237.5,-75.5 237.5,-56.5 191.5,-56.5"/>
<text text-anchor="middle" x="214.5" y="-63.5" font-family="Helvetica,sans-Serif" font-size="10.00">cstring</text>
</g>
<!-- Node2&#45;&gt;Node11 -->
<g id="edge10" class="edge"><title>Node2&#45;&gt;Node11</title>
<path fill="none" stroke="midnightblue" d="M664.633,-118.772C574.709,-114.748 402.627,-104.086 247.965,-75.9577"/>
<polygon fill="midnightblue" stroke="midnightblue" points="248.273,-72.4555 237.804,-74.0795 247.001,-79.3389 248.273,-72.4555"/>
</g>
<!-- Node12 -->
<g id="node12" class="node"><title>Node12</title>
<polygon fill="white" stroke="#bfbfbf" points="1332.5,-56.5 1332.5,-75.5 1376.5,-75.5 1376.5,-56.5 1332.5,-56.5"/>
<text text-anchor="middle" x="1354.5" y="-63.5" font-family="Helvetica,sans-Serif" font-size="10.00">cmath</text>
</g>
<!-- Node2&#45;&gt;Node12 -->
<g id="edge11" class="edge"><title>Node2&#45;&gt;Node12</title>
<path fill="none" stroke="midnightblue" d="M788.049,-120.549C895.106,-118.854 1122.48,-111.216 1322.19,-75.8632"/>
<polygon fill="midnightblue" stroke="midnightblue" points="1323.06,-79.2635 1332.28,-74.049 1321.82,-72.3739 1323.06,-79.2635"/>
</g>
<!-- Node13 -->
<g id="node13" class="node"><title>Node13</title>
<polygon fill="white" stroke="#bfbfbf" points="256,-56.5 256,-75.5 301,-75.5 301,-56.5 256,-56.5"/>
<text text-anchor="middle" x="278.5" y="-63.5" font-family="Helvetica,sans-Serif" font-size="10.00">iosfwd</text>
</g>
<!-- Node2&#45;&gt;Node13 -->
<g id="edge12" class="edge"><title>Node2&#45;&gt;Node13</title>
<path fill="none" stroke="midnightblue" d="M664.872,-117.73C585.126,-112.751 441.843,-101.262 311.253,-76.048"/>
<polygon fill="midnightblue" stroke="midnightblue" points="311.561,-72.5417 301.074,-74.0493 310.212,-79.4105 311.561,-72.5417"/>
</g>
<!-- Node14 -->
<g id="node14" class="node"><title>Node14</title>
<polygon fill="white" stroke="#bfbfbf" points="1394.5,-56.5 1394.5,-75.5 1448.5,-75.5 1448.5,-56.5 1394.5,-56.5"/>
<text text-anchor="middle" x="1421.5" y="-63.5" font-family="Helvetica,sans-Serif" font-size="10.00">iostream</text>
</g>
<!-- Node2&#45;&gt;Node14 -->
<g id="edge13" class="edge"><title>Node2&#45;&gt;Node14</title>
<path fill="none" stroke="midnightblue" d="M788.233,-120.414C903.672,-118.529 1160.08,-110.616 1384.49,-75.8674"/>
<polygon fill="midnightblue" stroke="midnightblue" points="1385.14,-79.3082 1394.48,-74.2998 1384.06,-72.3929 1385.14,-79.3082"/>
</g>
<!-- Node15 -->
<g id="node15" class="node"><title>Node15</title>
<polygon fill="white" stroke="#bfbfbf" points="319,-56.5 319,-75.5 370,-75.5 370,-56.5 319,-56.5"/>
<text text-anchor="middle" x="344.5" y="-63.5" font-family="Helvetica,sans-Serif" font-size="10.00">unistd.h</text>
</g>
<!-- Node2&#45;&gt;Node15 -->
<g id="edge14" class="edge"><title>Node2&#45;&gt;Node15</title>
<path fill="none" stroke="midnightblue" d="M664.707,-115.299C597.136,-108.546 485.531,-95.874 379.906,-75.8484"/>
<polygon fill="midnightblue" stroke="midnightblue" points="380.513,-72.4011 370.032,-73.9513 379.192,-79.2754 380.513,-72.4011"/>
</g>
<!-- Node16 -->
<g id="node16" class="node"><title>Node16</title>
<polygon fill="white" stroke="#bfbfbf" points="388.5,-56.5 388.5,-75.5 432.5,-75.5 432.5,-56.5 388.5,-56.5"/>
<text text-anchor="middle" x="410.5" y="-63.5" font-family="Helvetica,sans-Serif" font-size="10.00">fcntl.h</text>
</g>
<!-- Node2&#45;&gt;Node16 -->
<g id="edge15" class="edge"><title>Node2&#45;&gt;Node16</title>
<path fill="none" stroke="midnightblue" d="M664.924,-113.557C609.181,-106.303 524.685,-94.0274 442.742,-76.0485"/>
<polygon fill="midnightblue" stroke="midnightblue" points="443.286,-72.5838 432.764,-73.8276 441.765,-79.4167 443.286,-72.5838"/>
</g>
<!-- Node17 -->
<g id="node17" class="node"><title>Node17</title>
<polygon fill="white" stroke="#bfbfbf" points="0,-56.5 0,-75.5 41,-75.5 41,-56.5 0,-56.5"/>
<text text-anchor="middle" x="20.5" y="-63.5" font-family="Helvetica,sans-Serif" font-size="10.00">string</text>
</g>
<!-- Node2&#45;&gt;Node17 -->
<g id="edge16" class="edge"><title>Node2&#45;&gt;Node17</title>
<path fill="none" stroke="midnightblue" d="M664.88,-121.507C547.061,-121.479 281.822,-116.603 50.9357,-75.605"/>
<polygon fill="midnightblue" stroke="midnightblue" points="51.4707,-72.1451 41.0085,-73.8159 50.2291,-79.0341 51.4707,-72.1451"/>
</g>
<!-- Node18 -->
<g id="node18" class="node"><title>Node18</title>
<polygon fill="white" stroke="#bfbfbf" points="1218.5,-0.5 1218.5,-19.5 1262.5,-19.5 1262.5,-0.5 1218.5,-0.5"/>
<text text-anchor="middle" x="1240.5" y="-7.5" font-family="Helvetica,sans-Serif" font-size="10.00">vector</text>
</g>
<!-- Node2&#45;&gt;Node18 -->
<g id="edge17" class="edge"><title>Node2&#45;&gt;Node18</title>
<path fill="none" stroke="midnightblue" d="M788.029,-119.234C913.245,-115.095 1188.68,-103.004 1221.5,-76 1234.96,-64.9274 1239.2,-44.8873 1240.39,-29.9754"/>
<polygon fill="midnightblue" stroke="midnightblue" points="1243.89,-29.9397 1240.8,-19.8053 1236.9,-29.6543 1243.89,-29.9397"/>
</g>
<!-- Node19 -->
<g id="node19" class="node"><title>Node19</title>
<polygon fill="white" stroke="#bfbfbf" points="451,-56.5 451,-75.5 494,-75.5 494,-56.5 451,-56.5"/>
<text text-anchor="middle" x="472.5" y="-63.5" font-family="Helvetica,sans-Serif" font-size="10.00">deque</text>
</g>
<!-- Node2&#45;&gt;Node19 -->
<g id="edge18" class="edge"><title>Node2&#45;&gt;Node19</title>
<path fill="none" stroke="midnightblue" d="M677.266,-112.473C633.909,-104.658 568.882,-92.196 504.044,-76.2192"/>
<polygon fill="midnightblue" stroke="midnightblue" points="504.613,-72.7539 494.064,-73.731 502.92,-79.5461 504.613,-72.7539"/>
</g>
<!-- Node20 -->
<g id="node20" class="node"><title>Node20</title>
<polygon fill="white" stroke="#bfbfbf" points="680.5,-0.5 680.5,-19.5 724.5,-19.5 724.5,-0.5 680.5,-0.5"/>
<text text-anchor="middle" x="702.5" y="-7.5" font-family="Helvetica,sans-Serif" font-size="10.00">mutex</text>
</g>
<!-- Node2&#45;&gt;Node20 -->
<g id="edge19" class="edge"><title>Node2&#45;&gt;Node20</title>
<path fill="none" stroke="midnightblue" d="M723.431,-112.478C720.298,-103.504 715.485,-88.9142 712.5,-76 708.96,-60.6851 706.336,-43.0437 704.666,-30.0074"/>
<polygon fill="midnightblue" stroke="midnightblue" points="708.12,-29.4184 703.445,-19.9109 701.171,-30.2588 708.12,-29.4184"/>
</g>
<!-- Node21 -->
<g id="node21" class="node"><title>Node21</title>
<polygon fill="white" stroke="#bfbfbf" points="742.5,-0.5 742.5,-19.5 786.5,-19.5 786.5,-0.5 742.5,-0.5"/>
<text text-anchor="middle" x="764.5" y="-7.5" font-family="Helvetica,sans-Serif" font-size="10.00">thread</text>
</g>
<!-- Node2&#45;&gt;Node21 -->
<g id="edge20" class="edge"><title>Node2&#45;&gt;Node21</title>
<path fill="none" stroke="midnightblue" d="M728.653,-112.487C731.893,-99.9728 738.404,-75.9372 745.5,-56 748.739,-46.8996 752.857,-36.9887 756.431,-28.7901"/>
<polygon fill="midnightblue" stroke="midnightblue" points="759.692,-30.0702 760.559,-19.5109 753.297,-27.2247 759.692,-30.0702"/>
</g>
<!-- Node22 -->
<g id="node22" class="node"><title>Node22</title>
<polygon fill="white" stroke="#bfbfbf" points="851,-0.5 851,-19.5 946,-19.5 946,-0.5 851,-0.5"/>
<text text-anchor="middle" x="898.5" y="-7.5" font-family="Helvetica,sans-Serif" font-size="10.00">condition_variable</text>
</g>
<!-- Node2&#45;&gt;Node22 -->
<g id="edge21" class="edge"><title>Node2&#45;&gt;Node22</title>
<path fill="none" stroke="midnightblue" d="M788.378,-116.633C819.474,-111.338 855.537,-100.003 879.5,-76 891.56,-63.9199 896.052,-44.635 897.681,-30.203"/>
<polygon fill="midnightblue" stroke="midnightblue" points="901.196,-30.136 898.464,-19.8997 894.216,-29.6058 901.196,-30.136"/>
</g>
<!-- Node23 -->
<g id="node23" class="node"><title>Node23</title>
<polygon fill="white" stroke="#bfbfbf" points="977,-0.5 977,-19.5 1020,-19.5 1020,-0.5 977,-0.5"/>
<text text-anchor="middle" x="998.5" y="-7.5" font-family="Helvetica,sans-Serif" font-size="10.00">queue</text>
</g>
<!-- Node2&#45;&gt;Node23 -->
<g id="edge22" class="edge"><title>Node2&#45;&gt;Node23</title>
<path fill="none" stroke="midnightblue" d="M788.153,-118.892C857.646,-115.131 964.479,-104.719 991.5,-76 1002.9,-63.8794 1003.54,-44.32 1002,-29.8191"/>
<polygon fill="midnightblue" stroke="midnightblue" points="1005.47,-29.3067 1000.55,-19.9232 998.54,-30.3264 1005.47,-29.3067"/>
</g>
<!-- Node24 -->
<g id="node24" class="node"><title>Node24</title>
<polygon fill="white" stroke="#bfbfbf" points="59.5,-56.5 59.5,-75.5 111.5,-75.5 111.5,-56.5 59.5,-56.5"/>
<text text-anchor="middle" x="85.5" y="-63.5" font-family="Helvetica,sans-Serif" font-size="10.00">sstream</text>
</g>
<!-- Node2&#45;&gt;Node24 -->
<g id="edge23" class="edge"><title>Node2&#45;&gt;Node24</title>
<path fill="none" stroke="midnightblue" d="M664.568,-120.022C556.194,-117.52 325.113,-108.673 121.736,-75.9164"/>
<polygon fill="midnightblue" stroke="midnightblue" points="122.2,-72.4459 111.767,-74.2877 121.072,-79.3544 122.2,-72.4459"/>
</g>
<!-- Node25 -->
<g id="node25" class="node"><title>Node25</title>
<polygon fill="white" stroke="#bfbfbf" points="627,-0.5 627,-19.5 662,-19.5 662,-0.5 627,-0.5"/>
<text text-anchor="middle" x="644.5" y="-7.5" font-family="Helvetica,sans-Serif" font-size="10.00">map</text>
</g>
<!-- Node2&#45;&gt;Node25 -->
<g id="edge24" class="edge"><title>Node2&#45;&gt;Node25</title>
<path fill="none" stroke="midnightblue" d="M720.066,-112.368C706.473,-94.135 674.636,-51.4257 656.931,-27.6752"/>
<polygon fill="midnightblue" stroke="midnightblue" points="659.687,-25.5171 650.905,-19.5914 654.075,-29.7007 659.687,-25.5171"/>
</g>
<!-- Node26 -->
<g id="node26" class="node"><title>Node26</title>
<g id="a_node26"><a xlink:href="cosmos-defs_8h.html" target="_top" xlink:title="COSMOS definitions Definitions specific to the COSMOS environement. ">
<polygon fill="white" stroke="black" points="754.5,-56.5 754.5,-75.5 870.5,-75.5 870.5,-56.5 754.5,-56.5"/>
<text text-anchor="middle" x="812.5" y="-63.5" font-family="Helvetica,sans-Serif" font-size="10.00">support/cosmos&#45;defs.h</text>
</a>
</g>
</g>
<!-- Node2&#45;&gt;Node26 -->
<g id="edge25" class="edge"><title>Node2&#45;&gt;Node26</title>
<path fill="none" stroke="midnightblue" d="M740.317,-112.324C753.733,-103.9 774.324,-90.9709 790.086,-81.0741"/>
<polygon fill="midnightblue" stroke="midnightblue" points="792.109,-83.9364 798.717,-75.6545 788.387,-78.0081 792.109,-83.9364"/>
</g>
<!-- Node26&#45;&gt;Node18 -->
<g id="edge27" class="edge"><title>Node26&#45;&gt;Node18</title>
<path fill="none" stroke="midnightblue" d="M870.667,-57.6611C961.976,-46.1409 1135.95,-24.1908 1208,-15.1003"/>
<polygon fill="midnightblue" stroke="midnightblue" points="1208.78,-18.5295 1218.27,-13.8051 1207.91,-11.5845 1208.78,-18.5295"/>
</g>
<!-- Node26&#45;&gt;Node20 -->
<g id="edge31" class="edge"><title>Node26&#45;&gt;Node20</title>
<path fill="none" stroke="midnightblue" d="M794.827,-56.324C777.106,-47.6247 749.597,-34.1202 729.212,-24.113"/>
<polygon fill="midnightblue" stroke="midnightblue" points="730.649,-20.9195 720.13,-19.6545 727.564,-27.2031 730.649,-20.9195"/>
</g>
<!-- Node26&#45;&gt;Node21 -->
<g id="edge30" class="edge"><title>Node26&#45;&gt;Node21</title>
<path fill="none" stroke="midnightblue" d="M804.574,-56.083C797.654,-48.2982 787.435,-36.8015 779.048,-27.3665"/>
<polygon fill="midnightblue" stroke="midnightblue" points="781.538,-24.8999 772.279,-19.7511 776.306,-29.5505 781.538,-24.8999"/>
</g>
<!-- Node26&#45;&gt;Node22 -->
<g id="edge32" class="edge"><title>Node26&#45;&gt;Node22</title>
<path fill="none" stroke="midnightblue" d="M826.317,-56.324C839.733,-47.9002 860.324,-34.9709 876.086,-25.0741"/>
<polygon fill="midnightblue" stroke="midnightblue" points="878.109,-27.9364 884.717,-19.6545 874.387,-22.0081 878.109,-27.9364"/>
</g>
<!-- Node26&#45;&gt;Node23 -->
<g id="edge29" class="edge"><title>Node26&#45;&gt;Node23</title>
<path fill="none" stroke="midnightblue" d="M841.972,-56.4435C876.189,-46.5098 932.381,-30.1958 967.312,-20.0544"/>
<polygon fill="midnightblue" stroke="midnightblue" points="968.366,-23.3931 976.994,-17.2437 966.414,-16.6707 968.366,-23.3931"/>
</g>
<!-- Node26&#45;&gt;Node25 -->
<g id="edge26" class="edge"><title>Node26&#45;&gt;Node25</title>
<path fill="none" stroke="midnightblue" d="M785.436,-56.4759C758.913,-48.0972 717.1,-34.8233 671.9,-20.101"/>
<polygon fill="midnightblue" stroke="midnightblue" points="672.8,-16.7132 662.208,-16.9387 670.629,-23.368 672.8,-16.7132"/>
</g>
<!-- Node27 -->
<g id="node27" class="node"><title>Node27</title>
<polygon fill="white" stroke="#bfbfbf" points="804,-0.5 804,-19.5 833,-19.5 833,-0.5 804,-0.5"/>
<text text-anchor="middle" x="818.5" y="-7.5" font-family="Helvetica,sans-Serif" font-size="10.00">list</text>
</g>
<!-- Node26&#45;&gt;Node27 -->
<g id="edge28" class="edge"><title>Node26&#45;&gt;Node27</title>
<path fill="none" stroke="midnightblue" d="M813.491,-56.083C814.286,-48.9272 815.429,-38.6353 816.423,-29.6911"/>
<polygon fill="midnightblue" stroke="midnightblue" points="819.902,-30.0765 817.528,-19.7511 812.945,-29.3034 819.902,-30.0765"/>
</g>
<!-- Node28&#45;&gt;Node2 -->
<g id="edge34" class="edge"><title>Node28&#45;&gt;Node2</title>
<path fill="none" stroke="midnightblue" d="M564.006,-392.325C571.103,-373.959 586.5,-329.658 586.5,-291 586.5,-291 586.5,-291 586.5,-233 586.5,-181.347 646.151,-150.258 687.579,-134.895"/>
<polygon fill="midnightblue" stroke="midnightblue" points="688.896,-138.142 697.151,-131.501 686.557,-131.544 688.896,-138.142"/>
</g>
<!-- Node28&#45;&gt;Node17 -->
<g id="edge48" class="edge"><title>Node28&#45;&gt;Node17</title>
<path fill="none" stroke="midnightblue" d="M513.298,-399.399C398.019,-394.211 111.5,-373.062 111.5,-291 111.5,-291 111.5,-291 111.5,-177 111.5,-134.468 70.6112,-99.5303 43.6507,-81.1161"/>
<polygon fill="midnightblue" stroke="midnightblue" points="45.4014,-78.0787 35.1207,-75.5177 41.5605,-83.9308 45.4014,-78.0787"/>
</g>
<!-- Node28&#45;&gt;Node24 -->
<g id="edge49" class="edge"><title>Node28&#45;&gt;Node24</title>
<path fill="none" stroke="midnightblue" d="M513.295,-394.428C457.314,-383.667 371.5,-356.49 371.5,-291 371.5,-291 371.5,-291 371.5,-177 371.5,-150.494 198.156,-98.5881 121.373,-76.8966"/>
<polygon fill="midnightblue" stroke="midnightblue" points="122.213,-73.4971 111.639,-74.1626 120.32,-80.2364 122.213,-73.4971"/>
</g>
<!-- Node29 -->
<g id="node29" class="node"><title>Node29</title>
<g id="a_node29"><a xlink:href="jsonobject_8h.html" target="_top" xlink:title="support/jsonobject.h">
<polygon fill="white" stroke="black" points="614.5,-336.5 614.5,-355.5 718.5,-355.5 718.5,-336.5 614.5,-336.5"/>
<text text-anchor="middle" x="666.5" y="-343.5" font-family="Helvetica,sans-Serif" font-size="10.00">support/jsonobject.h</text>
</a>
</g>
</g>
<!-- Node28&#45;&gt;Node29 -->
<g id="edge35" class="edge"><title>Node28&#45;&gt;Node29</title>
<path fill="none" stroke="midnightblue" d="M577.531,-392.324C594.53,-383.664 620.876,-370.242 640.493,-360.249"/>
<polygon fill="midnightblue" stroke="midnightblue" points="642.19,-363.312 649.512,-355.655 639.012,-357.075 642.19,-363.312"/>
</g>
<!-- Node34 -->
<g id="node34" class="node"><title>Node34</title>
<polygon fill="white" stroke="#bfbfbf" points="511,-336.5 511,-355.5 558,-355.5 558,-336.5 511,-336.5"/>
<text text-anchor="middle" x="534.5" y="-343.5" font-family="Helvetica,sans-Serif" font-size="10.00">errno.h</text>
</g>
<!-- Node28&#45;&gt;Node34 -->
<g id="edge47" class="edge"><title>Node28&#45;&gt;Node34</title>
<path fill="none" stroke="midnightblue" d="M556.207,-392.083C552.648,-384.691 547.478,-373.953 543.076,-364.811"/>
<polygon fill="midnightblue" stroke="midnightblue" points="546.205,-363.243 538.713,-355.751 539.898,-366.279 546.205,-363.243"/>
</g>
<!-- Node30 -->
<g id="node30" class="node"><title>Node30</title>
<g id="a_node30"><a xlink:href="jsonvalue_8h.html" target="_top" xlink:title="support/jsonvalue.h">
<polygon fill="white" stroke="black" points="617,-280.5 617,-299.5 718,-299.5 718,-280.5 617,-280.5"/>
<text text-anchor="middle" x="667.5" y="-287.5" font-family="Helvetica,sans-Serif" font-size="10.00">support/jsonvalue.h</text>
</a>
</g>
</g>
<!-- Node29&#45;&gt;Node30 -->
<g id="edge36" class="edge"><title>Node29&#45;&gt;Node30</title>
<path fill="none" stroke="midnightblue" d="M666.665,-336.083C666.796,-329.006 666.984,-318.861 667.148,-309.986"/>
<polygon fill="midnightblue" stroke="midnightblue" points="670.652,-309.814 667.338,-299.751 663.653,-309.685 670.652,-309.814"/>
</g>
<!-- Node30&#45;&gt;Node2 -->
<g id="edge37" class="edge"><title>Node30&#45;&gt;Node2</title>
<path fill="none" stroke="midnightblue" d="M670.672,-280.075C679.999,-253.832 707.469,-176.545 720.061,-141.117"/>
<polygon fill="midnightblue" stroke="midnightblue" points="723.404,-142.163 723.455,-131.568 716.808,-139.818 723.404,-142.163"/>
</g>
<!-- Node31 -->
<g id="node31" class="node"><title>Node31</title>
<g id="a_node31"><a xlink:href="vector_8h.html" target="_top" xlink:title="math/vector.h">
<polygon fill="white" stroke="black" points="1277,-224.5 1277,-243.5 1354,-243.5 1354,-224.5 1277,-224.5"/>
<text text-anchor="middle" x="1315.5" y="-231.5" font-family="Helvetica,sans-Serif" font-size="10.00">math/vector.h</text>
</a>
</g>
</g>
<!-- Node30&#45;&gt;Node31 -->
<g id="edge38" class="edge"><title>Node30&#45;&gt;Node31</title>
<path fill="none" stroke="midnightblue" d="M718.078,-284.785C839.637,-274.655 1146.98,-249.044 1266.7,-239.067"/>
<polygon fill="midnightblue" stroke="midnightblue" points="1267.01,-242.553 1276.68,-238.235 1266.43,-235.577 1267.01,-242.553"/>
</g>
<!-- Node31&#45;&gt;Node2 -->
<g id="edge39" class="edge"><title>Node31&#45;&gt;Node2</title>
<path fill="none" stroke="midnightblue" d="M1276.85,-225.783C1175.27,-206.81 900.417,-155.48 782.006,-133.366"/>
<polygon fill="midnightblue" stroke="midnightblue" points="782.532,-129.904 772.06,-131.509 781.247,-136.785 782.532,-129.904"/>
</g>
<!-- Node31&#45;&gt;Node12 -->
<g id="edge45" class="edge"><title>Node31&#45;&gt;Node12</title>
<path fill="none" stroke="midnightblue" d="M1317.6,-224.075C1323.74,-197.945 1341.76,-121.211 1350.14,-85.577"/>
<polygon fill="midnightblue" stroke="midnightblue" points="1353.61,-86.1036 1352.49,-75.5681 1346.79,-84.5025 1353.61,-86.1036"/>
</g>
<!-- Node31&#45;&gt;Node14 -->
<g id="edge43" class="edge"><title>Node31&#45;&gt;Node14</title>
<path fill="none" stroke="midnightblue" d="M1347.72,-224.371C1366.65,-217.604 1389.37,-206.209 1402.5,-188 1424.5,-157.484 1425.17,-111.362 1423.48,-85.7748"/>
<polygon fill="midnightblue" stroke="midnightblue" points="1426.95,-85.258 1422.61,-75.5934 1419.97,-85.8558 1426.95,-85.258"/>
</g>
<!-- Node31&#45;&gt;Node18 -->
<g id="edge46" class="edge"><title>Node31&#45;&gt;Node18</title>
<path fill="none" stroke="midnightblue" d="M1354,-225.122C1376.49,-218.668 1403.84,-207.338 1421.5,-188 1462.51,-143.101 1495.89,-103.163 1457.5,-56 1434.62,-27.8846 1327.85,-16.7779 1273.08,-12.8737"/>
<polygon fill="midnightblue" stroke="midnightblue" points="1273.08,-9.36546 1262.86,-12.186 1272.61,-16.3497 1273.08,-9.36546"/>
</g>
<!-- Node32 -->
<g id="node32" class="node"><title>Node32</title>
<g id="a_node32"><a xlink:href="math_2constants_8h.html" target="_top" xlink:title="constants.h">
<polygon fill="white" stroke="black" points="1219.5,-168.5 1219.5,-187.5 1287.5,-187.5 1287.5,-168.5 1219.5,-168.5"/>
<text text-anchor="middle" x="1253.5" y="-175.5" font-family="Helvetica,sans-Serif" font-size="10.00">constants.h</text>
</a>
</g>
</g>
<!-- Node31&#45;&gt;Node32 -->
<g id="edge40" class="edge"><title>Node31&#45;&gt;Node32</title>
<path fill="none" stroke="midnightblue" d="M1305.54,-224.324C1296.37,-216.341 1282.56,-204.313 1271.47,-194.653"/>
<polygon fill="midnightblue" stroke="midnightblue" points="1273.48,-191.762 1263.64,-187.834 1268.88,-197.041 1273.48,-191.762"/>
</g>
<!-- Node33 -->
<g id="node33" class="node"><title>Node33</title>
<polygon fill="white" stroke="#bfbfbf" points="1343.5,-168.5 1343.5,-187.5 1393.5,-187.5 1393.5,-168.5 1343.5,-168.5"/>
<text text-anchor="middle" x="1368.5" y="-175.5" font-family="Helvetica,sans-Serif" font-size="10.00">iomanip</text>
</g>
<!-- Node31&#45;&gt;Node33 -->
<g id="edge44" class="edge"><title>Node31&#45;&gt;Node33</title>
<path fill="none" stroke="midnightblue" d="M1324.25,-224.083C1331.97,-216.22 1343.4,-204.569 1352.72,-195.081"/>
<polygon fill="midnightblue" stroke="midnightblue" points="1355.4,-197.34 1359.91,-187.751 1350.41,-192.436 1355.4,-197.34"/>
</g>
<!-- Node32&#45;&gt;Node2 -->
<g id="edge41" class="edge"><title>Node32&#45;&gt;Node2</title>
<path fill="none" stroke="midnightblue" d="M1219.33,-173.499C1134.64,-164.821 913.607,-142.172 798.516,-130.379"/>
<polygon fill="midnightblue" stroke="midnightblue" points="798.696,-126.879 788.391,-129.342 797.982,-133.843 798.696,-126.879"/>
</g>
<!-- Node32&#45;&gt;Node5 -->
<g id="edge42" class="edge"><title>Node32&#45;&gt;Node5</title>
<path fill="none" stroke="midnightblue" d="M1256.48,-168.368C1262.64,-150.537 1276.89,-109.295 1285.19,-85.2717"/>
<polygon fill="midnightblue" stroke="midnightblue" points="1288.57,-86.1862 1288.53,-75.5914 1281.96,-83.9005 1288.57,-86.1862"/>
</g>
</g>
</svg>
