<?xml version="1.0" encoding="UTF-8" standalone="no"?>
<!DOCTYPE svg PUBLIC "-//W3C//DTD SVG 1.1//EN"
 "http://www.w3.org/Graphics/SVG/1.1/DTD/svg11.dtd">
<!-- Generated by graphviz version 2.38.0 (20140413.2041)
 -->
<!-- Title: devstruc_size.cpp Pages: 1 -->
<svg width="1504pt" height="588pt"
 viewBox="0.00 0.00 1503.50 588.00" xmlns="http://www.w3.org/2000/svg" xmlns:xlink="http://www.w3.org/1999/xlink">
<g id="graph0" class="graph" transform="scale(1 1) rotate(0) translate(4 584)">
<title>devstruc_size.cpp</title>
<polygon fill="white" stroke="none" points="-4,4 -4,-584 1499.5,-584 1499.5,4 -4,4"/>
<!-- Node1 -->
<g id="node1" class="node"><title>Node1</title>
<polygon fill="#bfbfbf" stroke="black" points="578.5,-560.5 578.5,-579.5 674.5,-579.5 674.5,-560.5 578.5,-560.5"/>
<text text-anchor="middle" x="626.5" y="-567.5" font-family="Helvetica,sans-Serif" font-size="10.00">devstruc_size.cpp</text>
</g>
<!-- Node2 -->
<g id="node2" class="node"><title>Node2</title>
<g id="a_node2"><a xlink:href="config_cosmos_8h.html" target="_top" xlink:title="Headers and definitions common to all COSMOS. ">
<polygon fill="white" stroke="black" points="762,-112.5 762,-131.5 885,-131.5 885,-112.5 762,-112.5"/>
<text text-anchor="middle" x="823.5" y="-119.5" font-family="Helvetica,sans-Serif" font-size="10.00">support/configCosmos.h</text>
</a>
</g>
</g>
<!-- Node1&#45;&gt;Node2 -->
<g id="edge1" class="edge"><title>Node1&#45;&gt;Node2</title>
<path fill="none" stroke="midnightblue" d="M578.413,-564.119C518.102,-555.036 422.5,-529.516 422.5,-459 422.5,-459 422.5,-459 422.5,-233 422.5,-187.532 459.867,-186.277 501.5,-168 545.055,-148.879 670.829,-135.43 751.683,-128.473"/>
<polygon fill="midnightblue" stroke="midnightblue" points="752.132,-131.947 761.801,-127.616 751.541,-124.972 752.132,-131.947"/>
</g>
<!-- Node28 -->
<g id="node28" class="node"><title>Node28</title>
<g id="a_node28"><a xlink:href="jsondef_8h.html" target="_top" xlink:title="support/jsondef.h">
<polygon fill="white" stroke="black" points="784.5,-504.5 784.5,-523.5 876.5,-523.5 876.5,-504.5 784.5,-504.5"/>
<text text-anchor="middle" x="830.5" y="-511.5" font-family="Helvetica,sans-Serif" font-size="10.00">support/jsondef.h</text>
</a>
</g>
</g>
<!-- Node1&#45;&gt;Node28 -->
<g id="edge33" class="edge"><title>Node1&#45;&gt;Node28</title>
<path fill="none" stroke="midnightblue" d="M658.824,-560.444C693.889,-551.162 749.998,-536.309 788.465,-526.127"/>
<polygon fill="midnightblue" stroke="midnightblue" points="789.555,-529.459 798.327,-523.516 787.764,-522.692 789.555,-529.459"/>
</g>
<!-- Node3 -->
<g id="node3" class="node"><title>Node3</title>
<polygon fill="white" stroke="#bfbfbf" points="0,-56.5 0,-75.5 45,-75.5 45,-56.5 0,-56.5"/>
<text text-anchor="middle" x="22.5" y="-63.5" font-family="Helvetica,sans-Serif" font-size="10.00">climits</text>
</g>
<!-- Node2&#45;&gt;Node3 -->
<g id="edge2" class="edge"><title>Node2&#45;&gt;Node3</title>
<path fill="none" stroke="midnightblue" d="M761.836,-119.18C607.721,-114.353 207.771,-100.033 55.1711,-75.8624"/>
<polygon fill="midnightblue" stroke="midnightblue" points="55.4884,-72.3672 45.0499,-74.1807 54.341,-79.2726 55.4884,-72.3672"/>
</g>
<!-- Node4 -->
<g id="node4" class="node"><title>Node4</title>
<polygon fill="white" stroke="#bfbfbf" points="63,-56.5 63,-75.5 110,-75.5 110,-56.5 63,-56.5"/>
<text text-anchor="middle" x="86.5" y="-63.5" font-family="Helvetica,sans-Serif" font-size="10.00">csignal</text>
</g>
<!-- Node2&#45;&gt;Node4 -->
<g id="edge3" class="edge"><title>Node2&#45;&gt;Node4</title>
<path fill="none" stroke="midnightblue" d="M761.815,-121.233C640.458,-120.786 362.214,-115.29 120.208,-75.7349"/>
<polygon fill="midnightblue" stroke="midnightblue" points="120.603,-72.2528 110.166,-74.0703 119.459,-79.1586 120.603,-72.2528"/>
</g>
<!-- Node5 -->
<g id="node5" class="node"><title>Node5</title>
<polygon fill="white" stroke="#bfbfbf" points="1269.5,-56.5 1269.5,-75.5 1315.5,-75.5 1315.5,-56.5 1269.5,-56.5"/>
<text text-anchor="middle" x="1292.5" y="-63.5" font-family="Helvetica,sans-Serif" font-size="10.00">cstdint</text>
</g>
<!-- Node2&#45;&gt;Node5 -->
<g id="edge4" class="edge"><title>Node2&#45;&gt;Node5</title>
<path fill="none" stroke="midnightblue" d="M885.024,-117.212C969.138,-111.437 1124.54,-98.6421 1255.5,-76 1256.75,-75.7846 1258.01,-75.5512 1259.29,-75.3036"/>
<polygon fill="midnightblue" stroke="midnightblue" points="1260.07,-78.7156 1269.11,-73.1932 1258.6,-71.8718 1260.07,-78.7156"/>
</g>
<!-- Node6 -->
<g id="node6" class="node"><title>Node6</title>
<polygon fill="white" stroke="#bfbfbf" points="128.5,-56.5 128.5,-75.5 184.5,-75.5 184.5,-56.5 128.5,-56.5"/>
<text text-anchor="middle" x="156.5" y="-63.5" font-family="Helvetica,sans-Serif" font-size="10.00">cinttypes</text>
</g>
<!-- Node2&#45;&gt;Node6 -->
<g id="edge5" class="edge"><title>Node2&#45;&gt;Node6</title>
<path fill="none" stroke="midnightblue" d="M761.856,-120.012C650.392,-117.481 407.89,-108.567 194.808,-75.9417"/>
<polygon fill="midnightblue" stroke="midnightblue" points="195.102,-72.4456 184.684,-74.3701 194.029,-79.3628 195.102,-72.4456"/>
</g>
<!-- Node7 -->
<g id="node7" class="node"><title>Node7</title>
<polygon fill="white" stroke="#bfbfbf" points="203,-56.5 203,-75.5 246,-75.5 246,-56.5 203,-56.5"/>
<text text-anchor="middle" x="224.5" y="-63.5" font-family="Helvetica,sans-Serif" font-size="10.00">cstdio</text>
</g>
<!-- Node2&#45;&gt;Node7 -->
<g id="edge6" class="edge"><title>Node2&#45;&gt;Node7</title>
<path fill="none" stroke="midnightblue" d="M761.89,-120.399C658.725,-118.461 444.578,-110.455 256.398,-76.0063"/>
<polygon fill="midnightblue" stroke="midnightblue" points="256.794,-72.52 246.323,-74.1316 255.514,-79.4019 256.794,-72.52"/>
</g>
<!-- Node8 -->
<g id="node8" class="node"><title>Node8</title>
<polygon fill="white" stroke="#bfbfbf" points="264,-56.5 264,-75.5 313,-75.5 313,-56.5 264,-56.5"/>
<text text-anchor="middle" x="288.5" y="-63.5" font-family="Helvetica,sans-Serif" font-size="10.00">cstddef</text>
</g>
<!-- Node2&#45;&gt;Node8 -->
<g id="edge7" class="edge"><title>Node2&#45;&gt;Node8</title>
<path fill="none" stroke="midnightblue" d="M761.988,-118.987C668.825,-115.17 486.353,-104.69 323.463,-76.0783"/>
<polygon fill="midnightblue" stroke="midnightblue" points="323.718,-72.5685 313.259,-74.2572 322.488,-79.4597 323.718,-72.5685"/>
</g>
<!-- Node9 -->
<g id="node9" class="node"><title>Node9</title>
<polygon fill="white" stroke="#bfbfbf" points="331,-56.5 331,-75.5 376,-75.5 376,-56.5 331,-56.5"/>
<text text-anchor="middle" x="353.5" y="-63.5" font-family="Helvetica,sans-Serif" font-size="10.00">cstdlib</text>
</g>
<!-- Node2&#45;&gt;Node9 -->
<g id="edge8" class="edge"><title>Node2&#45;&gt;Node9</title>
<path fill="none" stroke="midnightblue" d="M761.721,-118.003C678.464,-113.223 525.601,-101.838 386.129,-75.7798"/>
<polygon fill="midnightblue" stroke="midnightblue" points="386.588,-72.3046 376.111,-73.8781 385.283,-79.1818 386.588,-72.3046"/>
</g>
<!-- Node10 -->
<g id="node10" class="node"><title>Node10</title>
<polygon fill="white" stroke="#bfbfbf" points="394.5,-56.5 394.5,-75.5 438.5,-75.5 438.5,-56.5 394.5,-56.5"/>
<text text-anchor="middle" x="416.5" y="-63.5" font-family="Helvetica,sans-Serif" font-size="10.00">cerrno</text>
</g>
<!-- Node2&#45;&gt;Node10 -->
<g id="edge9" class="edge"><title>Node2&#45;&gt;Node10</title>
<path fill="none" stroke="midnightblue" d="M761.789,-116.725C689.011,-110.991 564.33,-98.9998 448.818,-75.9712"/>
<polygon fill="midnightblue" stroke="midnightblue" points="449.238,-72.4854 438.742,-73.9294 447.848,-79.3459 449.238,-72.4854"/>
</g>
<!-- Node11 -->
<g id="node11" class="node"><title>Node11</title>
<polygon fill="white" stroke="#bfbfbf" points="456.5,-56.5 456.5,-75.5 502.5,-75.5 502.5,-56.5 456.5,-56.5"/>
<text text-anchor="middle" x="479.5" y="-63.5" font-family="Helvetica,sans-Serif" font-size="10.00">cstring</text>
</g>
<!-- Node2&#45;&gt;Node11 -->
<g id="edge10" class="edge"><title>Node2&#45;&gt;Node11</title>
<path fill="none" stroke="midnightblue" d="M761.808,-114.517C700.788,-107.561 604.62,-95.14 512.844,-76.0555"/>
<polygon fill="midnightblue" stroke="midnightblue" points="513.338,-72.5828 502.831,-73.9427 511.893,-79.432 513.338,-72.5828"/>
</g>
<!-- Node12 -->
<g id="node12" class="node"><title>Node12</title>
<polygon fill="white" stroke="#bfbfbf" points="1371.5,-56.5 1371.5,-75.5 1415.5,-75.5 1415.5,-56.5 1371.5,-56.5"/>
<text text-anchor="middle" x="1393.5" y="-63.5" font-family="Helvetica,sans-Serif" font-size="10.00">cmath</text>
</g>
<!-- Node2&#45;&gt;Node12 -->
<g id="edge11" class="edge"><title>Node2&#45;&gt;Node12</title>
<path fill="none" stroke="midnightblue" d="M885.283,-116.253C979.943,-108.799 1166.51,-93.3914 1324.5,-76 1336.54,-74.6742 1349.74,-73.0058 1361.34,-71.4667"/>
<polygon fill="midnightblue" stroke="midnightblue" points="1362.02,-74.9068 1371.46,-70.1032 1361.09,-67.9694 1362.02,-74.9068"/>
</g>
<!-- Node13 -->
<g id="node13" class="node"><title>Node13</title>
<polygon fill="white" stroke="#bfbfbf" points="521,-56.5 521,-75.5 566,-75.5 566,-56.5 521,-56.5"/>
<text text-anchor="middle" x="543.5" y="-63.5" font-family="Helvetica,sans-Serif" font-size="10.00">iosfwd</text>
</g>
<!-- Node2&#45;&gt;Node13 -->
<g id="edge12" class="edge"><title>Node2&#45;&gt;Node13</title>
<path fill="none" stroke="midnightblue" d="M766.787,-112.471C718.37,-104.8 646.723,-92.5312 576.075,-76.1921"/>
<polygon fill="midnightblue" stroke="midnightblue" points="576.65,-72.7322 566.115,-73.8596 575.054,-79.5477 576.65,-72.7322"/>
</g>
<!-- Node14 -->
<g id="node14" class="node"><title>Node14</title>
<polygon fill="white" stroke="#bfbfbf" points="1433.5,-56.5 1433.5,-75.5 1487.5,-75.5 1487.5,-56.5 1433.5,-56.5"/>
<text text-anchor="middle" x="1460.5" y="-63.5" font-family="Helvetica,sans-Serif" font-size="10.00">iostream</text>
</g>
<!-- Node2&#45;&gt;Node14 -->
<g id="edge13" class="edge"><title>Node2&#45;&gt;Node14</title>
<path fill="none" stroke="midnightblue" d="M885.333,-119.835C992.964,-117.05 1221.74,-107.783 1423.58,-75.8668"/>
<polygon fill="midnightblue" stroke="midnightblue" points="1424.16,-79.3194 1433.48,-74.2804 1423.05,-72.4077 1424.16,-79.3194"/>
</g>
<!-- Node15 -->
<g id="node15" class="node"><title>Node15</title>
<polygon fill="white" stroke="#bfbfbf" points="584,-56.5 584,-75.5 635,-75.5 635,-56.5 584,-56.5"/>
<text text-anchor="middle" x="609.5" y="-63.5" font-family="Helvetica,sans-Serif" font-size="10.00">unistd.h</text>
</g>
<!-- Node2&#45;&gt;Node15 -->
<g id="edge14" class="edge"><title>Node2&#45;&gt;Node15</title>
<path fill="none" stroke="midnightblue" d="M789.171,-112.428C755.098,-103.907 701.121,-90.3746 644.889,-76.0886"/>
<polygon fill="midnightblue" stroke="midnightblue" points="645.664,-72.6745 635.11,-73.6024 643.939,-79.4586 645.664,-72.6745"/>
</g>
<!-- Node16 -->
<g id="node16" class="node"><title>Node16</title>
<polygon fill="white" stroke="#bfbfbf" points="653.5,-56.5 653.5,-75.5 697.5,-75.5 697.5,-56.5 653.5,-56.5"/>
<text text-anchor="middle" x="675.5" y="-63.5" font-family="Helvetica,sans-Serif" font-size="10.00">fcntl.h</text>
</g>
<!-- Node2&#45;&gt;Node16 -->
<g id="edge15" class="edge"><title>Node2&#45;&gt;Node16</title>
<path fill="none" stroke="midnightblue" d="M800.049,-112.444C775.077,-103.332 735.394,-88.8531 707.547,-78.6929"/>
<polygon fill="midnightblue" stroke="midnightblue" points="708.466,-75.3027 697.873,-75.1629 706.067,-81.8786 708.466,-75.3027"/>
</g>
<!-- Node17 -->
<g id="node17" class="node"><title>Node17</title>
<polygon fill="white" stroke="#bfbfbf" points="716,-56.5 716,-75.5 757,-75.5 757,-56.5 716,-56.5"/>
<text text-anchor="middle" x="736.5" y="-63.5" font-family="Helvetica,sans-Serif" font-size="10.00">string</text>
</g>
<!-- Node2&#45;&gt;Node17 -->
<g id="edge16" class="edge"><title>Node2&#45;&gt;Node17</title>
<path fill="none" stroke="midnightblue" d="M809.522,-112.324C795.95,-103.9 775.12,-90.9709 759.175,-81.0741"/>
<polygon fill="midnightblue" stroke="midnightblue" points="760.786,-77.9544 750.443,-75.6545 757.094,-83.9019 760.786,-77.9544"/>
</g>
<!-- Node18 -->
<g id="node18" class="node"><title>Node18</title>
<polygon fill="white" stroke="#bfbfbf" points="1219.5,-0.5 1219.5,-19.5 1263.5,-19.5 1263.5,-0.5 1219.5,-0.5"/>
<text text-anchor="middle" x="1241.5" y="-7.5" font-family="Helvetica,sans-Serif" font-size="10.00">vector</text>
</g>
<!-- Node2&#45;&gt;Node18 -->
<g id="edge17" class="edge"><title>Node2&#45;&gt;Node18</title>
<path fill="none" stroke="midnightblue" d="M885.369,-120.065C978.816,-117.596 1150.48,-108.616 1201.5,-76 1218.37,-65.2141 1229.26,-44.5108 1235.36,-29.3579"/>
<polygon fill="midnightblue" stroke="midnightblue" points="1238.65,-30.5378 1238.82,-19.9444 1232.08,-28.1194 1238.65,-30.5378"/>
</g>
<!-- Node19 -->
<g id="node19" class="node"><title>Node19</title>
<polygon fill="white" stroke="#bfbfbf" points="814,-56.5 814,-75.5 857,-75.5 857,-56.5 814,-56.5"/>
<text text-anchor="middle" x="835.5" y="-63.5" font-family="Helvetica,sans-Serif" font-size="10.00">deque</text>
</g>
<!-- Node2&#45;&gt;Node19 -->
<g id="edge18" class="edge"><title>Node2&#45;&gt;Node19</title>
<path fill="none" stroke="midnightblue" d="M825.482,-112.083C827.072,-104.927 829.359,-94.6353 831.346,-85.6911"/>
<polygon fill="midnightblue" stroke="midnightblue" points="834.803,-86.2722 833.555,-75.7511 827.969,-84.7537 834.803,-86.2722"/>
</g>
<!-- Node20 -->
<g id="node20" class="node"><title>Node20</title>
<polygon fill="white" stroke="#bfbfbf" points="776.5,-0.5 776.5,-19.5 820.5,-19.5 820.5,-0.5 776.5,-0.5"/>
<text text-anchor="middle" x="798.5" y="-7.5" font-family="Helvetica,sans-Serif" font-size="10.00">mutex</text>
</g>
<!-- Node2&#45;&gt;Node20 -->
<g id="edge19" class="edge"><title>Node2&#45;&gt;Node20</title>
<path fill="none" stroke="midnightblue" d="M818.881,-112.314C814.398,-103.449 807.801,-89.1608 804.5,-76 800.661,-60.6969 799.223,-42.8148 798.71,-29.6846"/>
<polygon fill="midnightblue" stroke="midnightblue" points="802.206,-29.464 798.46,-19.5534 795.208,-29.6367 802.206,-29.464"/>
</g>
<!-- Node21 -->
<g id="node21" class="node"><title>Node21</title>
<polygon fill="white" stroke="#bfbfbf" points="851.5,-0.5 851.5,-19.5 895.5,-19.5 895.5,-0.5 851.5,-0.5"/>
<text text-anchor="middle" x="873.5" y="-7.5" font-family="Helvetica,sans-Serif" font-size="10.00">thread</text>
</g>
<!-- Node2&#45;&gt;Node21 -->
<g id="edge20" class="edge"><title>Node2&#45;&gt;Node21</title>
<path fill="none" stroke="midnightblue" d="M834.875,-112.364C844.754,-104.168 858.539,-90.9129 865.5,-76 872.195,-61.6565 873.974,-43.6903 874.204,-30.2836"/>
<polygon fill="midnightblue" stroke="midnightblue" points="877.7,-29.8431 874.092,-19.8814 870.7,-29.9185 877.7,-29.8431"/>
</g>
<!-- Node22 -->
<g id="node22" class="node"><title>Node22</title>
<polygon fill="white" stroke="#bfbfbf" points="914,-0.5 914,-19.5 1009,-19.5 1009,-0.5 914,-0.5"/>
<text text-anchor="middle" x="961.5" y="-7.5" font-family="Helvetica,sans-Serif" font-size="10.00">condition_variable</text>
</g>
<!-- Node2&#45;&gt;Node22 -->
<g id="edge21" class="edge"><title>Node2&#45;&gt;Node22</title>
<path fill="none" stroke="midnightblue" d="M834.906,-112.496C846.861,-103.538 866.143,-88.9602 882.5,-76 903.643,-59.2485 927.504,-39.4957 943.417,-26.1985"/>
<polygon fill="midnightblue" stroke="midnightblue" points="945.953,-28.6397 951.372,-19.5354 941.458,-23.2735 945.953,-28.6397"/>
</g>
<!-- Node23 -->
<g id="node23" class="node"><title>Node23</title>
<polygon fill="white" stroke="#bfbfbf" points="1074,-0.5 1074,-19.5 1117,-19.5 1117,-0.5 1074,-0.5"/>
<text text-anchor="middle" x="1095.5" y="-7.5" font-family="Helvetica,sans-Serif" font-size="10.00">queue</text>
</g>
<!-- Node2&#45;&gt;Node23 -->
<g id="edge22" class="edge"><title>Node2&#45;&gt;Node23</title>
<path fill="none" stroke="midnightblue" d="M885.103,-117.394C950.741,-112.307 1048.94,-100.727 1076.5,-76 1089.47,-64.3633 1093.79,-44.4123 1095.13,-29.6755"/>
<polygon fill="midnightblue" stroke="midnightblue" points="1098.63,-29.8192 1095.67,-19.6465 1091.64,-29.4453 1098.63,-29.8192"/>
</g>
<!-- Node24 -->
<g id="node24" class="node"><title>Node24</title>
<polygon fill="white" stroke="#bfbfbf" points="1123.5,-56.5 1123.5,-75.5 1175.5,-75.5 1175.5,-56.5 1123.5,-56.5"/>
<text text-anchor="middle" x="1149.5" y="-63.5" font-family="Helvetica,sans-Serif" font-size="10.00">sstream</text>
</g>
<!-- Node2&#45;&gt;Node24 -->
<g id="edge23" class="edge"><title>Node2&#45;&gt;Node24</title>
<path fill="none" stroke="midnightblue" d="M885.07,-112.498C943.126,-104.201 1032.48,-90.7077 1109.5,-76 1110.76,-75.7597 1112.04,-75.5087 1113.33,-75.2496"/>
<polygon fill="midnightblue" stroke="midnightblue" points="1114.24,-78.6355 1123.3,-73.1518 1112.79,-71.7854 1114.24,-78.6355"/>
</g>
<!-- Node25 -->
<g id="node25" class="node"><title>Node25</title>
<polygon fill="white" stroke="#bfbfbf" points="1151,-0.5 1151,-19.5 1186,-19.5 1186,-0.5 1151,-0.5"/>
<text text-anchor="middle" x="1168.5" y="-7.5" font-family="Helvetica,sans-Serif" font-size="10.00">map</text>
</g>
<!-- Node2&#45;&gt;Node25 -->
<g id="edge24" class="edge"><title>Node2&#45;&gt;Node25</title>
<path fill="none" stroke="midnightblue" d="M885.352,-117.684C983.299,-111.794 1165.06,-98.0138 1184.5,-76 1196.11,-62.8516 1188.47,-42.612 1180.24,-28.2139"/>
<polygon fill="midnightblue" stroke="midnightblue" points="1183.21,-26.3592 1174.94,-19.729 1177.27,-30.0655 1183.21,-26.3592"/>
</g>
<!-- Node26 -->
<g id="node26" class="node"><title>Node26</title>
<g id="a_node26"><a xlink:href="cosmos-defs_8h.html" target="_top" xlink:title="COSMOS definitions Definitions specific to the COSMOS environement. ">
<polygon fill="white" stroke="black" points="951.5,-56.5 951.5,-75.5 1067.5,-75.5 1067.5,-56.5 951.5,-56.5"/>
<text text-anchor="middle" x="1009.5" y="-63.5" font-family="Helvetica,sans-Serif" font-size="10.00">support/cosmos&#45;defs.h</text>
</a>
</g>
</g>
<!-- Node2&#45;&gt;Node26 -->
<g id="edge25" class="edge"><title>Node2&#45;&gt;Node26</title>
<path fill="none" stroke="midnightblue" d="M852.972,-112.444C884.671,-103.241 935.232,-88.5617 970.275,-78.3879"/>
<polygon fill="midnightblue" stroke="midnightblue" points="971.538,-81.6658 980.166,-75.5164 969.586,-74.9434 971.538,-81.6658"/>
</g>
<!-- Node26&#45;&gt;Node18 -->
<g id="edge27" class="edge"><title>Node26&#45;&gt;Node18</title>
<path fill="none" stroke="midnightblue" d="M1046.26,-56.4435C1091.23,-45.9759 1166.64,-28.4239 1209.39,-18.4748"/>
<polygon fill="midnightblue" stroke="midnightblue" points="1210.31,-21.8531 1219.26,-16.1772 1208.72,-15.0354 1210.31,-21.8531"/>
</g>
<!-- Node26&#45;&gt;Node20 -->
<g id="edge31" class="edge"><title>Node26&#45;&gt;Node20</title>
<path fill="none" stroke="midnightblue" d="M976.066,-56.4435C936.171,-46.2334 869.939,-29.2831 830.629,-19.2226"/>
<polygon fill="midnightblue" stroke="midnightblue" points="831.329,-15.789 820.774,-16.7003 829.594,-22.5705 831.329,-15.789"/>
</g>
<!-- Node26&#45;&gt;Node21 -->
<g id="edge30" class="edge"><title>Node26&#45;&gt;Node21</title>
<path fill="none" stroke="midnightblue" d="M987.95,-56.4435C965.469,-47.5171 930.012,-33.4387 904.52,-23.3168"/>
<polygon fill="midnightblue" stroke="midnightblue" points="905.535,-19.9539 894.949,-19.5164 902.951,-26.4598 905.535,-19.9539"/>
</g>
<!-- Node26&#45;&gt;Node22 -->
<g id="edge32" class="edge"><title>Node26&#45;&gt;Node22</title>
<path fill="none" stroke="midnightblue" d="M1001.57,-56.083C994.654,-48.2982 984.435,-36.8015 976.048,-27.3665"/>
<polygon fill="midnightblue" stroke="midnightblue" points="978.538,-24.8999 969.279,-19.7511 973.306,-29.5505 978.538,-24.8999"/>
</g>
<!-- Node26&#45;&gt;Node23 -->
<g id="edge29" class="edge"><title>Node26&#45;&gt;Node23</title>
<path fill="none" stroke="midnightblue" d="M1023.32,-56.324C1036.73,-47.9002 1057.32,-34.9709 1073.09,-25.0741"/>
<polygon fill="midnightblue" stroke="midnightblue" points="1075.11,-27.9364 1081.72,-19.6545 1071.39,-22.0081 1075.11,-27.9364"/>
</g>
<!-- Node26&#45;&gt;Node25 -->
<g id="edge26" class="edge"><title>Node26&#45;&gt;Node25</title>
<path fill="none" stroke="midnightblue" d="M1034.69,-56.4435C1063.68,-46.6005 1111.1,-30.4932 1141.02,-20.3338"/>
<polygon fill="midnightblue" stroke="midnightblue" points="1142.47,-23.5384 1150.81,-17.0084 1140.21,-16.9102 1142.47,-23.5384"/>
</g>
<!-- Node27 -->
<g id="node27" class="node"><title>Node27</title>
<polygon fill="white" stroke="#bfbfbf" points="1027,-0.5 1027,-19.5 1056,-19.5 1056,-0.5 1027,-0.5"/>
<text text-anchor="middle" x="1041.5" y="-7.5" font-family="Helvetica,sans-Serif" font-size="10.00">list</text>
</g>
<!-- Node26&#45;&gt;Node27 -->
<g id="edge28" class="edge"><title>Node26&#45;&gt;Node27</title>
<path fill="none" stroke="midnightblue" d="M1014.78,-56.083C1019.21,-48.6127 1025.66,-37.7244 1031.12,-28.5199"/>
<polygon fill="midnightblue" stroke="midnightblue" points="1034.23,-30.1383 1036.31,-19.7511 1028.21,-26.5697 1034.23,-30.1383"/>
</g>
<!-- Node28&#45;&gt;Node2 -->
<g id="edge34" class="edge"><title>Node28&#45;&gt;Node2</title>
<path fill="none" stroke="midnightblue" d="M814.813,-504.396C787.83,-488.314 735.5,-450.943 735.5,-403 735.5,-403 735.5,-403 735.5,-233 735.5,-191.032 775.041,-155.902 801.112,-137.3"/>
<polygon fill="midnightblue" stroke="midnightblue" points="803.097,-140.183 809.361,-131.639 799.136,-134.412 803.097,-140.183"/>
</g>
<!-- Node29 -->
<g id="node29" class="node"><title>Node29</title>
<g id="a_node29"><a xlink:href="mathlib_8h.html" target="_top" xlink:title="mathlib include file ">
<polygon fill="white" stroke="black" points="1095,-392.5 1095,-411.5 1176,-411.5 1176,-392.5 1095,-392.5"/>
<text text-anchor="middle" x="1135.5" y="-399.5" font-family="Helvetica,sans-Serif" font-size="10.00">math/mathlib.h</text>
</a>
</g>
</g>
<!-- Node28&#45;&gt;Node29 -->
<g id="edge35" class="edge"><title>Node28&#45;&gt;Node29</title>
<path fill="none" stroke="midnightblue" d="M860.024,-504.431C889.093,-495.825 934.654,-481.882 973.5,-468 1020.57,-451.179 1074.23,-429.052 1106.46,-415.438"/>
<polygon fill="midnightblue" stroke="midnightblue" points="1107.9,-418.628 1115.74,-411.501 1105.16,-412.184 1107.9,-418.628"/>
</g>
<!-- Node37 -->
<g id="node37" class="node"><title>Node37</title>
<g id="a_node37"><a xlink:href="convertdef_8h.html" target="_top" xlink:title="support/convertdef.h">
<polygon fill="white" stroke="black" points="858.5,-448.5 858.5,-467.5 964.5,-467.5 964.5,-448.5 858.5,-448.5"/>
<text text-anchor="middle" x="911.5" y="-455.5" font-family="Helvetica,sans-Serif" font-size="10.00">support/convertdef.h</text>
</a>
</g>
</g>
<!-- Node28&#45;&gt;Node37 -->
<g id="edge59" class="edge"><title>Node28&#45;&gt;Node37</title>
<path fill="none" stroke="midnightblue" d="M843.514,-504.324C856.032,-495.979 875.182,-483.212 889.971,-473.352"/>
<polygon fill="midnightblue" stroke="midnightblue" points="892.139,-476.114 898.518,-467.655 888.256,-470.289 892.139,-476.114"/>
</g>
<!-- Node38 -->
<g id="node38" class="node"><title>Node38</title>
<g id="a_node38"><a xlink:href="physicsdef_8h.html" target="_top" xlink:title="Orbit library support definitions. ">
<polygon fill="white" stroke="black" points="840,-280.5 840,-299.5 949,-299.5 949,-280.5 840,-280.5"/>
<text text-anchor="middle" x="894.5" y="-287.5" font-family="Helvetica,sans-Serif" font-size="10.00">physics/physicsdef.h</text>
</a>
</g>
</g>
<!-- Node28&#45;&gt;Node38 -->
<g id="edge62" class="edge"><title>Node28&#45;&gt;Node38</title>
<path fill="none" stroke="midnightblue" d="M833.009,-504.297C842.446,-471.563 875.941,-355.375 889.119,-309.666"/>
<polygon fill="midnightblue" stroke="midnightblue" points="892.532,-310.462 891.939,-299.884 885.806,-308.523 892.532,-310.462"/>
</g>
<!-- Node39 -->
<g id="node39" class="node"><title>Node39</title>
<g id="a_node39"><a xlink:href="socketlib_8h.html" target="_top" xlink:title="Socket Support header file. ">
<polygon fill="white" stroke="black" points="543,-448.5 543,-467.5 642,-467.5 642,-448.5 543,-448.5"/>
<text text-anchor="middle" x="592.5" y="-455.5" font-family="Helvetica,sans-Serif" font-size="10.00">support/socketlib.h</text>
</a>
</g>
</g>
<!-- Node28&#45;&gt;Node39 -->
<g id="edge65" class="edge"><title>Node28&#45;&gt;Node39</title>
<path fill="none" stroke="midnightblue" d="M792.788,-504.444C751.357,-495.043 684.743,-479.929 639.833,-469.739"/>
<polygon fill="midnightblue" stroke="midnightblue" points="640.562,-466.316 630.035,-467.516 639.013,-473.142 640.562,-466.316"/>
</g>
<!-- Node43 -->
<g id="node43" class="node"><title>Node43</title>
<g id="a_node43"><a xlink:href="objlib_8h.html" target="_top" xlink:title="support/objlib.h">
<polygon fill="white" stroke="black" points="1075,-448.5 1075,-467.5 1158,-467.5 1158,-448.5 1075,-448.5"/>
<text text-anchor="middle" x="1116.5" y="-455.5" font-family="Helvetica,sans-Serif" font-size="10.00">support/objlib.h</text>
</a>
</g>
</g>
<!-- Node28&#45;&gt;Node43 -->
<g id="edge70" class="edge"><title>Node28&#45;&gt;Node43</title>
<path fill="none" stroke="midnightblue" d="M875.818,-504.444C927.164,-494.749 1010.7,-478.977 1064.61,-468.797"/>
<polygon fill="midnightblue" stroke="midnightblue" points="1065.47,-472.196 1074.65,-466.902 1064.18,-465.318 1065.47,-472.196"/>
</g>
<!-- Node29&#45;&gt;Node2 -->
<g id="edge36" class="edge"><title>Node29&#45;&gt;Node2</title>
<path fill="none" stroke="midnightblue" d="M1094.88,-400.007C1059.47,-396.941 1009.13,-386.923 978.5,-356 953.839,-331.102 973.932,-310.952 957.5,-280 926.301,-221.233 869.87,-165.124 841.219,-138.731"/>
<polygon fill="midnightblue" stroke="midnightblue" points="843.353,-135.941 833.597,-131.81 838.647,-141.123 843.353,-135.941"/>
</g>
<!-- Node29&#45;&gt;Node12 -->
<g id="edge57" class="edge"><title>Node29&#45;&gt;Node12</title>
<path fill="none" stroke="midnightblue" d="M1176.19,-396.186C1254.72,-384.388 1419.5,-346.365 1419.5,-235 1419.5,-235 1419.5,-235 1419.5,-177 1419.5,-143.929 1408.23,-106.729 1400.53,-85.1685"/>
<polygon fill="midnightblue" stroke="midnightblue" points="1403.77,-83.8308 1397.01,-75.675 1397.21,-86.2679 1403.77,-83.8308"/>
</g>
<!-- Node29&#45;&gt;Node14 -->
<g id="edge58" class="edge"><title>Node29&#45;&gt;Node14</title>
<path fill="none" stroke="midnightblue" d="M1176.1,-397.265C1270.25,-387.484 1495.5,-357.169 1495.5,-291 1495.5,-291 1495.5,-291 1495.5,-177 1495.5,-143.072 1480.19,-105.911 1469.82,-84.631"/>
<polygon fill="midnightblue" stroke="midnightblue" points="1472.86,-82.8822 1465.22,-75.544 1466.62,-86.0463 1472.86,-82.8822"/>
</g>
<!-- Node30 -->
<g id="node30" class="node"><title>Node30</title>
<g id="a_node30"><a xlink:href="cosmos-errno_8h.html" target="_top" xlink:title="COSMOS Error Codes. ">
<polygon fill="white" stroke="black" points="988,-336.5 988,-355.5 1107,-355.5 1107,-336.5 988,-336.5"/>
<text text-anchor="middle" x="1047.5" y="-343.5" font-family="Helvetica,sans-Serif" font-size="10.00">support/cosmos&#45;errno.h</text>
</a>
</g>
</g>
<!-- Node29&#45;&gt;Node30 -->
<g id="edge37" class="edge"><title>Node29&#45;&gt;Node30</title>
<path fill="none" stroke="midnightblue" d="M1121.36,-392.324C1107.63,-383.9 1086.56,-370.971 1070.44,-361.074"/>
<polygon fill="midnightblue" stroke="midnightblue" points="1071.96,-357.902 1061.6,-355.655 1068.3,-363.868 1071.96,-357.902"/>
</g>
<!-- Node32 -->
<g id="node32" class="node"><title>Node32</title>
<g id="a_node32"><a xlink:href="math_2constants_8h.html" target="_top" xlink:title="constants.h">
<polygon fill="white" stroke="black" points="1141.5,-168.5 1141.5,-187.5 1209.5,-187.5 1209.5,-168.5 1141.5,-168.5"/>
<text text-anchor="middle" x="1175.5" y="-175.5" font-family="Helvetica,sans-Serif" font-size="10.00">constants.h</text>
</a>
</g>
</g>
<!-- Node29&#45;&gt;Node32 -->
<g id="edge40" class="edge"><title>Node29&#45;&gt;Node32</title>
<path fill="none" stroke="midnightblue" d="M1137.07,-392.297C1142.95,-359.633 1163.81,-243.866 1172.08,-197.957"/>
<polygon fill="midnightblue" stroke="midnightblue" points="1175.57,-198.346 1173.9,-187.884 1168.68,-197.105 1175.57,-198.346"/>
</g>
<!-- Node33 -->
<g id="node33" class="node"><title>Node33</title>
<g id="a_node33"><a xlink:href="vector_8h.html" target="_top" xlink:title="vector.h">
<polygon fill="white" stroke="black" points="1264.5,-224.5 1264.5,-243.5 1316.5,-243.5 1316.5,-224.5 1264.5,-224.5"/>
<text text-anchor="middle" x="1290.5" y="-231.5" font-family="Helvetica,sans-Serif" font-size="10.00">vector.h</text>
</a>
</g>
</g>
<!-- Node29&#45;&gt;Node33 -->
<g id="edge43" class="edge"><title>Node29&#45;&gt;Node33</title>
<path fill="none" stroke="midnightblue" d="M1176.06,-397.813C1205.73,-393.273 1244.64,-382.325 1267.5,-356 1292.54,-327.168 1293.84,-279.683 1292.33,-253.598"/>
<polygon fill="midnightblue" stroke="midnightblue" points="1295.81,-253.25 1291.55,-243.553 1288.84,-253.795 1295.81,-253.25"/>
</g>
<!-- Node35 -->
<g id="node35" class="node"><title>Node35</title>
<g id="a_node35"><a xlink:href="matrix_8h.html" target="_top" xlink:title="matrix.h">
<polygon fill="white" stroke="black" points="1185.5,-280.5 1185.5,-299.5 1237.5,-299.5 1237.5,-280.5 1185.5,-280.5"/>
<text text-anchor="middle" x="1211.5" y="-287.5" font-family="Helvetica,sans-Serif" font-size="10.00">matrix.h</text>
</a>
</g>
</g>
<!-- Node29&#45;&gt;Node35 -->
<g id="edge50" class="edge"><title>Node29&#45;&gt;Node35</title>
<path fill="none" stroke="midnightblue" d="M1141.46,-392.368C1154.01,-374.215 1183.31,-331.802 1199.76,-307.99"/>
<polygon fill="midnightblue" stroke="midnightblue" points="1202.76,-309.808 1205.56,-299.591 1197,-305.829 1202.76,-309.808"/>
</g>
<!-- Node36 -->
<g id="node36" class="node"><title>Node36</title>
<g id="a_node36"><a xlink:href="rotation_8h.html" target="_top" xlink:title="rotation.h">
<polygon fill="white" stroke="black" points="1202,-336.5 1202,-355.5 1259,-355.5 1259,-336.5 1202,-336.5"/>
<text text-anchor="middle" x="1230.5" y="-343.5" font-family="Helvetica,sans-Serif" font-size="10.00">rotation.h</text>
</a>
</g>
</g>
<!-- Node29&#45;&gt;Node36 -->
<g id="edge53" class="edge"><title>Node29&#45;&gt;Node36</title>
<path fill="none" stroke="midnightblue" d="M1150.76,-392.324C1165.72,-383.822 1188.75,-370.729 1206.23,-360.797"/>
<polygon fill="midnightblue" stroke="midnightblue" points="1208.31,-363.639 1215.27,-355.655 1204.85,-357.553 1208.31,-363.639"/>
</g>
<!-- Node30&#45;&gt;Node2 -->
<g id="edge38" class="edge"><title>Node30&#45;&gt;Node2</title>
<path fill="none" stroke="midnightblue" d="M1045.01,-336.324C1034.99,-301.593 997.935,-174.154 991.5,-168 965.889,-143.509 928.452,-132.016 895.416,-126.75"/>
<polygon fill="midnightblue" stroke="midnightblue" points="895.716,-123.258 885.322,-125.308 894.726,-130.187 895.716,-123.258"/>
</g>
<!-- Node31 -->
<g id="node31" class="node"><title>Node31</title>
<polygon fill="white" stroke="#bfbfbf" points="1044,-280.5 1044,-299.5 1091,-299.5 1091,-280.5 1044,-280.5"/>
<text text-anchor="middle" x="1067.5" y="-287.5" font-family="Helvetica,sans-Serif" font-size="10.00">errno.h</text>
</g>
<!-- Node30&#45;&gt;Node31 -->
<g id="edge39" class="edge"><title>Node30&#45;&gt;Node31</title>
<path fill="none" stroke="midnightblue" d="M1050.8,-336.083C1053.48,-328.849 1057.35,-318.409 1060.69,-309.397"/>
<polygon fill="midnightblue" stroke="midnightblue" points="1064.07,-310.344 1064.26,-299.751 1057.5,-307.913 1064.07,-310.344"/>
</g>
<!-- Node32&#45;&gt;Node2 -->
<g id="edge41" class="edge"><title>Node32&#45;&gt;Node2</title>
<path fill="none" stroke="midnightblue" d="M1141.44,-170.447C1136.76,-169.595 1132.02,-168.757 1127.5,-168 1048.12,-154.689 956.736,-141.44 895.055,-132.802"/>
<polygon fill="midnightblue" stroke="midnightblue" points="895.425,-129.319 885.037,-131.403 894.456,-136.252 895.425,-129.319"/>
</g>
<!-- Node32&#45;&gt;Node5 -->
<g id="edge42" class="edge"><title>Node32&#45;&gt;Node5</title>
<path fill="none" stroke="midnightblue" d="M1184.68,-168.368C1204.33,-149.894 1250.71,-106.293 1275.75,-82.7436"/>
<polygon fill="midnightblue" stroke="midnightblue" points="1278.47,-84.9912 1283.36,-75.5914 1273.68,-79.8912 1278.47,-84.9912"/>
</g>
<!-- Node33&#45;&gt;Node2 -->
<g id="edge44" class="edge"><title>Node33&#45;&gt;Node2</title>
<path fill="none" stroke="midnightblue" d="M1284.07,-224.434C1272.66,-209.973 1247.36,-181.022 1218.5,-168 1162.45,-142.707 993.045,-130.822 895.25,-125.934"/>
<polygon fill="midnightblue" stroke="midnightblue" points="895.303,-122.433 885.145,-125.441 894.962,-129.425 895.303,-122.433"/>
</g>
<!-- Node33&#45;&gt;Node12 -->
<g id="edge48" class="edge"><title>Node33&#45;&gt;Node12</title>
<path fill="none" stroke="midnightblue" d="M1309.96,-224.497C1325.01,-216.966 1345.29,-204.592 1357.5,-188 1380.36,-156.922 1388.81,-111.369 1391.85,-85.9441"/>
<polygon fill="midnightblue" stroke="midnightblue" points="1395.35,-86.1107 1392.9,-75.8032 1388.39,-85.3891 1395.35,-86.1107"/>
</g>
<!-- Node33&#45;&gt;Node14 -->
<g id="edge46" class="edge"><title>Node33&#45;&gt;Node14</title>
<path fill="none" stroke="midnightblue" d="M1314.2,-224.473C1332.86,-216.929 1358.76,-204.548 1377.5,-188 1411.73,-157.765 1438.73,-110.528 1451.83,-84.9354"/>
<polygon fill="midnightblue" stroke="midnightblue" points="1455.11,-86.2022 1456.44,-75.691 1448.85,-83.0797 1455.11,-86.2022"/>
</g>
<!-- Node33&#45;&gt;Node18 -->
<g id="edge49" class="edge"><title>Node33&#45;&gt;Node18</title>
<path fill="none" stroke="midnightblue" d="M1299.79,-224.395C1308.08,-216.025 1319.64,-202.483 1324.5,-188 1343.15,-132.377 1354.51,-106.409 1324.5,-56 1313.41,-37.3758 1291.63,-25.9852 1273.17,-19.3246"/>
<polygon fill="midnightblue" stroke="midnightblue" points="1274.21,-15.9818 1263.61,-16.1772 1272.01,-22.6304 1274.21,-15.9818"/>
</g>
<!-- Node33&#45;&gt;Node32 -->
<g id="edge45" class="edge"><title>Node33&#45;&gt;Node32</title>
<path fill="none" stroke="midnightblue" d="M1272.28,-224.444C1253.6,-215.675 1224.34,-201.935 1202.88,-191.858"/>
<polygon fill="midnightblue" stroke="midnightblue" points="1204.18,-188.599 1193.64,-187.516 1201.2,-194.935 1204.18,-188.599"/>
</g>
<!-- Node34 -->
<g id="node34" class="node"><title>Node34</title>
<polygon fill="white" stroke="#bfbfbf" points="1265.5,-168.5 1265.5,-187.5 1315.5,-187.5 1315.5,-168.5 1265.5,-168.5"/>
<text text-anchor="middle" x="1290.5" y="-175.5" font-family="Helvetica,sans-Serif" font-size="10.00">iomanip</text>
</g>
<!-- Node33&#45;&gt;Node34 -->
<g id="edge47" class="edge"><title>Node33&#45;&gt;Node34</title>
<path fill="none" stroke="midnightblue" d="M1290.5,-224.083C1290.5,-217.006 1290.5,-206.861 1290.5,-197.986"/>
<polygon fill="midnightblue" stroke="midnightblue" points="1294,-197.751 1290.5,-187.751 1287,-197.751 1294,-197.751"/>
</g>
<!-- Node35&#45;&gt;Node2 -->
<g id="edge51" class="edge"><title>Node35&#45;&gt;Node2</title>
<path fill="none" stroke="midnightblue" d="M1205.84,-280.499C1190.29,-257.912 1144.43,-196.21 1089.5,-168 1028.8,-136.829 951.046,-126.562 895.301,-123.502"/>
<polygon fill="midnightblue" stroke="midnightblue" points="895.316,-119.999 885.158,-123.011 894.977,-126.99 895.316,-119.999"/>
</g>
<!-- Node35&#45;&gt;Node33 -->
<g id="edge52" class="edge"><title>Node35&#45;&gt;Node33</title>
<path fill="none" stroke="midnightblue" d="M1224.19,-280.324C1236.4,-271.979 1255.08,-259.212 1269.5,-249.352"/>
<polygon fill="midnightblue" stroke="midnightblue" points="1271.56,-252.187 1277.84,-243.655 1267.61,-246.408 1271.56,-252.187"/>
</g>
<!-- Node36&#45;&gt;Node2 -->
<g id="edge54" class="edge"><title>Node36&#45;&gt;Node2</title>
<path fill="none" stroke="midnightblue" d="M1219.97,-336.314C1177.78,-301.543 1022.65,-173.974 1010.5,-168 974.479,-150.295 931.058,-139.296 895.128,-132.608"/>
<polygon fill="midnightblue" stroke="midnightblue" points="895.664,-129.149 885.204,-130.834 894.432,-136.039 895.664,-129.149"/>
</g>
<!-- Node36&#45;&gt;Node33 -->
<g id="edge55" class="edge"><title>Node36&#45;&gt;Node33</title>
<path fill="none" stroke="midnightblue" d="M1235.21,-336.368C1245.02,-318.376 1267.84,-276.55 1280.89,-252.627"/>
<polygon fill="midnightblue" stroke="midnightblue" points="1284.1,-254.046 1285.81,-243.591 1277.95,-250.694 1284.1,-254.046"/>
</g>
<!-- Node36&#45;&gt;Node35 -->
<g id="edge56" class="edge"><title>Node36&#45;&gt;Node35</title>
<path fill="none" stroke="midnightblue" d="M1227.36,-336.083C1224.82,-328.849 1221.14,-318.409 1217.97,-309.397"/>
<polygon fill="midnightblue" stroke="midnightblue" points="1221.2,-308.023 1214.58,-299.751 1214.6,-310.346 1221.2,-308.023"/>
</g>
<!-- Node37&#45;&gt;Node2 -->
<g id="edge60" class="edge"><title>Node37&#45;&gt;Node2</title>
<path fill="none" stroke="midnightblue" d="M882.906,-448.487C842.485,-434.482 773.5,-402.455 773.5,-347 773.5,-347 773.5,-347 773.5,-233 773.5,-197.184 795.74,-160.214 810.555,-139.56"/>
<polygon fill="midnightblue" stroke="midnightblue" points="813.378,-141.629 816.548,-131.519 807.765,-137.446 813.378,-141.629"/>
</g>
<!-- Node37&#45;&gt;Node29 -->
<g id="edge61" class="edge"><title>Node37&#45;&gt;Node29</title>
<path fill="none" stroke="midnightblue" d="M946.993,-448.444C985.824,-439.083 1048.16,-424.056 1090.42,-413.868"/>
<polygon fill="midnightblue" stroke="midnightblue" points="1091.27,-417.263 1100.17,-411.516 1089.63,-410.458 1091.27,-417.263"/>
</g>
<!-- Node38&#45;&gt;Node2 -->
<g id="edge63" class="edge"><title>Node38&#45;&gt;Node2</title>
<path fill="none" stroke="midnightblue" d="M890.683,-280.075C879.458,-253.832 846.402,-176.545 831.249,-141.117"/>
<polygon fill="midnightblue" stroke="midnightblue" points="834.315,-139.386 827.165,-131.568 827.879,-142.139 834.315,-139.386"/>
</g>
<!-- Node38&#45;&gt;Node33 -->
<g id="edge64" class="edge"><title>Node38&#45;&gt;Node33</title>
<path fill="none" stroke="midnightblue" d="M949.146,-281.548C1031.28,-270.348 1184.36,-249.473 1254.15,-239.957"/>
<polygon fill="midnightblue" stroke="midnightblue" points="1254.78,-243.403 1264.21,-238.584 1253.83,-236.468 1254.78,-243.403"/>
</g>
<!-- Node39&#45;&gt;Node2 -->
<g id="edge66" class="edge"><title>Node39&#45;&gt;Node2</title>
<path fill="none" stroke="midnightblue" d="M545.713,-448.425C522.878,-441.988 496.693,-430.901 479.5,-412 459.248,-389.735 460.5,-377.098 460.5,-347 460.5,-347 460.5,-347 460.5,-233 460.5,-172.716 646.184,-142.395 751.945,-130.015"/>
<polygon fill="midnightblue" stroke="midnightblue" points="752.385,-133.488 761.922,-128.873 751.589,-126.533 752.385,-133.488"/>
</g>
<!-- Node40 -->
<g id="node40" class="node"><title>Node40</title>
<polygon fill="white" stroke="#bfbfbf" points="634,-392.5 634,-411.5 707,-411.5 707,-392.5 634,-392.5"/>
<text text-anchor="middle" x="670.5" y="-399.5" font-family="Helvetica,sans-Serif" font-size="10.00">sys/socket.h</text>
</g>
<!-- Node39&#45;&gt;Node40 -->
<g id="edge67" class="edge"><title>Node39&#45;&gt;Node40</title>
<path fill="none" stroke="midnightblue" d="M605.032,-448.324C617.086,-439.979 635.527,-427.212 649.769,-417.352"/>
<polygon fill="midnightblue" stroke="midnightblue" points="651.769,-420.224 657.999,-411.655 647.785,-414.469 651.769,-420.224"/>
</g>
<!-- Node41 -->
<g id="node41" class="node"><title>Node41</title>
<polygon fill="white" stroke="#bfbfbf" points="488.5,-392.5 488.5,-411.5 550.5,-411.5 550.5,-392.5 488.5,-392.5"/>
<text text-anchor="middle" x="519.5" y="-399.5" font-family="Helvetica,sans-Serif" font-size="10.00">sys/ioctl.h</text>
</g>
<!-- Node39&#45;&gt;Node41 -->
<g id="edge68" class="edge"><title>Node39&#45;&gt;Node41</title>
<path fill="none" stroke="midnightblue" d="M580.771,-448.324C569.663,-440.107 552.758,-427.602 539.517,-417.807"/>
<polygon fill="midnightblue" stroke="midnightblue" points="541.563,-414.967 531.442,-411.834 537.4,-420.595 541.563,-414.967"/>
</g>
<!-- Node42 -->
<g id="node42" class="node"><title>Node42</title>
<polygon fill="white" stroke="#bfbfbf" points="569,-392.5 569,-411.5 616,-411.5 616,-392.5 569,-392.5"/>
<text text-anchor="middle" x="592.5" y="-399.5" font-family="Helvetica,sans-Serif" font-size="10.00">net/if.h</text>
</g>
<!-- Node39&#45;&gt;Node42 -->
<g id="edge69" class="edge"><title>Node39&#45;&gt;Node42</title>
<path fill="none" stroke="midnightblue" d="M592.5,-448.083C592.5,-441.006 592.5,-430.861 592.5,-421.986"/>
<polygon fill="midnightblue" stroke="midnightblue" points="596,-421.751 592.5,-411.751 589,-421.751 596,-421.751"/>
</g>
<!-- Node43&#45;&gt;Node2 -->
<g id="edge71" class="edge"><title>Node43&#45;&gt;Node2</title>
<path fill="none" stroke="midnightblue" d="M1074.73,-453.464C991.199,-443.87 811.5,-409.462 811.5,-291 811.5,-291 811.5,-291 811.5,-233 811.5,-200.758 816.658,-163.512 820.211,-141.681"/>
<polygon fill="midnightblue" stroke="midnightblue" points="823.712,-141.967 821.931,-131.523 816.81,-140.798 823.712,-141.967"/>
</g>
<!-- Node43&#45;&gt;Node29 -->
<g id="edge72" class="edge"><title>Node43&#45;&gt;Node29</title>
<path fill="none" stroke="midnightblue" d="M1119.64,-448.083C1122.18,-440.849 1125.86,-430.409 1129.03,-421.397"/>
<polygon fill="midnightblue" stroke="midnightblue" points="1132.4,-422.346 1132.42,-411.751 1125.8,-420.023 1132.4,-422.346"/>
</g>
<!-- Node43&#45;&gt;Node33 -->
<g id="edge73" class="edge"><title>Node43&#45;&gt;Node33</title>
<path fill="none" stroke="midnightblue" d="M1142.67,-448.443C1180.33,-434.817 1249.53,-404.647 1288.5,-356 1310.2,-328.909 1312.4,-314.207 1306.5,-280 1304.93,-270.91 1301.71,-261.222 1298.56,-253.173"/>
<polygon fill="midnightblue" stroke="midnightblue" points="1301.69,-251.602 1294.61,-243.723 1295.24,-254.299 1301.69,-251.602"/>
</g>
</g>
</svg>
