<?xml version="1.0" encoding="UTF-8" standalone="no"?>
<!DOCTYPE svg PUBLIC "-//W3C//DTD SVG 1.1//EN"
 "http://www.w3.org/Graphics/SVG/1.1/DTD/svg11.dtd">
<!-- Generated by graphviz version 2.38.0 (20140413.2041)
 -->
<!-- Title: general Pages: 1 -->
<svg width="134pt" height="295pt"
 viewBox="0.00 0.00 134.00 295.00" xmlns="http://www.w3.org/2000/svg" xmlns:xlink="http://www.w3.org/1999/xlink">
<g id="graph0" class="graph" transform="scale(1 1) rotate(0) translate(4 291)">
<title>general</title>
<polygon fill="white" stroke="none" points="-4,4 -4,-291 130,-291 130,4 -4,4"/>
<g id="clust1" class="cluster"><title>clusterdir_89e1dd23c9798627a4fa5c93437cdf71</title>
<g id="a_clust1"><a xlink:href="dir_89e1dd23c9798627a4fa5c93437cdf71.html" target="_top" xlink:title="device">
<polygon fill="#ddddee" stroke="black" points="43,-208 43,-279 113,-279 113,-208 43,-208"/>
<text text-anchor="middle" x="78" y="-267" font-family="Helvetica,sans-Serif" font-size="10.00">device</text>
</a>
</g>
</g>
<!-- dir_184c0b8cd06f2340f9d0a23a16cabf8e -->
<g id="node1" class="node"><title>dir_184c0b8cd06f2340f9d0a23a16cabf8e</title>
<g id="a_node1"><a xlink:href="dir_184c0b8cd06f2340f9d0a23a16cabf8e.html" target="_top" xlink:title="general">
<polygon fill="#eeeeff" stroke="black" points="105,-252 51,-252 51,-216 105,-216 105,-252"/>
<text text-anchor="middle" x="78" y="-231.5" font-family="Helvetica,sans-Serif" font-size="10.00">general</text>
</a>
</g>
</g>
<!-- dir_19bf41b5bf83c7288008927ab83c7306 -->
<g id="node2" class="node"><title>dir_19bf41b5bf83c7288008927ab83c7306</title>
<g id="a_node2"><a xlink:href="dir_19bf41b5bf83c7288008927ab83c7306.html" target="_top" xlink:title="serial">
<polygon fill="none" stroke="black" points="78,-180 24,-180 24,-144 78,-144 78,-180"/>
<text text-anchor="middle" x="51" y="-159.5" font-family="Helvetica,sans-Serif" font-size="10.00">serial</text>
</a>
</g>
</g>
<!-- dir_184c0b8cd06f2340f9d0a23a16cabf8e&#45;&gt;dir_19bf41b5bf83c7288008927ab83c7306 -->
<g id="edge1" class="edge"><title>dir_184c0b8cd06f2340f9d0a23a16cabf8e&#45;&gt;dir_19bf41b5bf83c7288008927ab83c7306</title>
<path fill="none" stroke="black" d="M71.3258,-215.697C68.2851,-207.813 64.6173,-198.304 61.2393,-189.546"/>
<polygon fill="black" stroke="black" points="64.4617,-188.175 57.5974,-180.104 57.9307,-190.694 64.4617,-188.175"/>
<g id="a_edge1&#45;headlabel"><a xlink:href="dir_000002_000049.html" target="_top" xlink:title="2">
<text text-anchor="middle" x="68.4043" y="-188.007" font-family="Helvetica,sans-Serif" font-size="10.00">2</text>
</a>
</g>
</g>
<!-- dir_9a8b31d1dfb38e26822c551fe4043c03 -->
<g id="node3" class="node"><title>dir_9a8b31d1dfb38e26822c551fe4043c03</title>
<g id="a_node3"><a xlink:href="dir_9a8b31d1dfb38e26822c551fe4043c03.html" target="_top" xlink:title="math">
<polygon fill="none" stroke="black" points="54,-36 0,-36 0,-0 54,-0 54,-36"/>
<text text-anchor="middle" x="27" y="-15.5" font-family="Helvetica,sans-Serif" font-size="10.00">math</text>
</a>
</g>
</g>
<!-- dir_184c0b8cd06f2340f9d0a23a16cabf8e&#45;&gt;dir_9a8b31d1dfb38e26822c551fe4043c03 -->
<g id="edge2" class="edge"><title>dir_184c0b8cd06f2340f9d0a23a16cabf8e&#45;&gt;dir_9a8b31d1dfb38e26822c551fe4043c03</title>
<path fill="none" stroke="black" d="M50.9901,-218.074C37.4948,-209.005 22.4801,-196.068 15,-180 -5.17416,-136.664 6.85667,-79.6159 17.1369,-46.3574"/>
<polygon fill="black" stroke="black" points="20.5973,-47.0351 20.3701,-36.4427 13.9422,-44.8648 20.5973,-47.0351"/>
<g id="a_edge2&#45;headlabel"><a xlink:href="dir_000002_000034.html" target="_top" xlink:title="5">
<text text-anchor="middle" x="22.1823" y="-48.8328" font-family="Helvetica,sans-Serif" font-size="10.00">5</text>
</a>
</g>
</g>
<!-- dir_566a3ff4a5a303bab03e0e4ba38c8a31 -->
<g id="node4" class="node"><title>dir_566a3ff4a5a303bab03e0e4ba38c8a31</title>
<g id="a_node4"><a xlink:href="dir_566a3ff4a5a303bab03e0e4ba38c8a31.html" target="_top" xlink:title="support">
<polygon fill="white" stroke="red" points="86,-108 32,-108 32,-72 86,-72 86,-108"/>
<text text-anchor="middle" x="59" y="-87.5" font-family="Helvetica,sans-Serif" font-size="10.00">support</text>
</a>
</g>
</g>
<!-- dir_184c0b8cd06f2340f9d0a23a16cabf8e&#45;&gt;dir_566a3ff4a5a303bab03e0e4ba38c8a31 -->
<g id="edge3" class="edge"><title>dir_184c0b8cd06f2340f9d0a23a16cabf8e&#45;&gt;dir_566a3ff4a5a303bab03e0e4ba38c8a31</title>
<path fill="none" stroke="black" d="M83.1979,-215.691C87.8419,-197.573 93.054,-168.42 87,-144 84.7075,-134.753 80.474,-125.342 75.9808,-117.067"/>
<polygon fill="black" stroke="black" points="78.9289,-115.173 70.8872,-108.275 72.8721,-118.682 78.9289,-115.173"/>
<g id="a_edge3&#45;headlabel"><a xlink:href="dir_000002_000032.html" target="_top" xlink:title="31">
<text text-anchor="middle" x="83.1876" y="-114.36" font-family="Helvetica,sans-Serif" font-size="10.00">31</text>
</a>
</g>
</g>
<!-- dir_739af9132a68080d8ad3f48982bb0ae5 -->
<g id="node5" class="node"><title>dir_739af9132a68080d8ad3f48982bb0ae5</title>
<g id="a_node5"><a xlink:href="dir_739af9132a68080d8ad3f48982bb0ae5.html" target="_top" xlink:title="agent">
<polygon fill="none" stroke="black" points="126,-36 72,-36 72,-0 126,-0 126,-36"/>
<text text-anchor="middle" x="99" y="-15.5" font-family="Helvetica,sans-Serif" font-size="10.00">agent</text>
</a>
</g>
</g>
<!-- dir_184c0b8cd06f2340f9d0a23a16cabf8e&#45;&gt;dir_739af9132a68080d8ad3f48982bb0ae5 -->
<g id="edge4" class="edge"><title>dir_184c0b8cd06f2340f9d0a23a16cabf8e&#45;&gt;dir_739af9132a68080d8ad3f48982bb0ae5</title>
<path fill="none" stroke="black" d="M88.6251,-215.556C94.0979,-205.543 100.198,-192.509 103,-180 113.323,-133.916 108.283,-78.5565 103.658,-46.2227"/>
<polygon fill="black" stroke="black" points="107.096,-45.5452 102.129,-36.1868 100.176,-46.6 107.096,-45.5452"/>
<g id="a_edge4&#45;headlabel"><a xlink:href="dir_000002_000023.html" target="_top" xlink:title="2">
<text text-anchor="middle" x="110.444" y="-46.1711" font-family="Helvetica,sans-Serif" font-size="10.00">2</text>
</a>
</g>
</g>
<!-- dir_19bf41b5bf83c7288008927ab83c7306&#45;&gt;dir_566a3ff4a5a303bab03e0e4ba38c8a31 -->
<g id="edge5" class="edge"><title>dir_19bf41b5bf83c7288008927ab83c7306&#45;&gt;dir_566a3ff4a5a303bab03e0e4ba38c8a31</title>
<path fill="none" stroke="black" d="M52.9775,-143.697C53.8591,-135.983 54.9186,-126.712 55.9014,-118.112"/>
<polygon fill="black" stroke="black" points="59.387,-118.437 57.0452,-108.104 52.4323,-117.642 59.387,-118.437"/>
<g id="a_edge5&#45;headlabel"><a xlink:href="dir_000049_000032.html" target="_top" xlink:title="4">
<text text-anchor="middle" x="61.7999" y="-119.831" font-family="Helvetica,sans-Serif" font-size="10.00">4</text>
</a>
</g>
</g>
<!-- dir_9a8b31d1dfb38e26822c551fe4043c03&#45;&gt;dir_566a3ff4a5a303bab03e0e4ba38c8a31 -->
<g id="edge6" class="edge"><title>dir_9a8b31d1dfb38e26822c551fe4043c03&#45;&gt;dir_566a3ff4a5a303bab03e0e4ba38c8a31</title>
<path fill="none" stroke="black" d="M40.7142,-36.1043C45.1286,-43.9602 49.7009,-53.4616 53.3444,-62.232"/>
<polygon fill="black" stroke="black" points="50.1335,-63.6328 57.0056,-71.6966 56.6621,-61.1074 50.1335,-63.6328"/>
<g id="a_edge6&#45;headlabel"><a xlink:href="dir_000034_000032.html" target="_top" xlink:title="8">
<text text-anchor="middle" x="46.1887" y="-58.8046" font-family="Helvetica,sans-Serif" font-size="10.00">8</text>
</a>
</g>
</g>
<!-- dir_566a3ff4a5a303bab03e0e4ba38c8a31&#45;&gt;dir_9a8b31d1dfb38e26822c551fe4043c03 -->
<g id="edge7" class="edge"><title>dir_566a3ff4a5a303bab03e0e4ba38c8a31&#45;&gt;dir_9a8b31d1dfb38e26822c551fe4043c03</title>
<path fill="none" stroke="black" d="M45.1742,-71.6966C40.7571,-63.8132 36.1914,-54.3042 32.5636,-45.5464"/>
<polygon fill="black" stroke="black" points="35.7866,-44.1763 28.9241,-36.1043 29.255,-46.694 35.7866,-44.1763"/>
<g id="a_edge7&#45;headlabel"><a xlink:href="dir_000032_000034.html" target="_top" xlink:title="14">
<text text-anchor="middle" x="39.7287" y="-44.0092" font-family="Helvetica,sans-Serif" font-size="10.00">14</text>
</a>
</g>
</g>
<!-- dir_566a3ff4a5a303bab03e0e4ba38c8a31&#45;&gt;dir_739af9132a68080d8ad3f48982bb0ae5 -->
<g id="edge8" class="edge"><title>dir_566a3ff4a5a303bab03e0e4ba38c8a31&#45;&gt;dir_739af9132a68080d8ad3f48982bb0ae5</title>
<path fill="none" stroke="black" d="M62.9719,-71.6966C66.7826,-63.5589 72.2166,-53.689 77.7799,-44.7013"/>
<polygon fill="black" stroke="black" points="80.8468,-46.4038 83.3311,-36.1043 74.9662,-42.6066 80.8468,-46.4038"/>
<g id="a_edge8&#45;headlabel"><a xlink:href="dir_000032_000023.html" target="_top" xlink:title="1">
<text text-anchor="middle" x="81.2821" y="-48.4637" font-family="Helvetica,sans-Serif" font-size="10.00">1</text>
</a>
</g>
</g>
<!-- dir_739af9132a68080d8ad3f48982bb0ae5&#45;&gt;dir_566a3ff4a5a303bab03e0e4ba38c8a31 -->
<g id="edge9" class="edge"><title>dir_739af9132a68080d8ad3f48982bb0ae5&#45;&gt;dir_566a3ff4a5a303bab03e0e4ba38c8a31</title>
<path fill="none" stroke="black" d="M95.1211,-36.1043C91.337,-44.2136 85.9175,-54.0763 80.3564,-63.0783"/>
<polygon fill="black" stroke="black" points="77.2776,-61.3947 74.8034,-71.6966 83.1619,-65.1862 77.2776,-61.3947"/>
<g id="a_edge9&#45;headlabel"><a xlink:href="dir_000023_000032.html" target="_top" xlink:title="13">
<text text-anchor="middle" x="76.8378" y="-54.3352" font-family="Helvetica,sans-Serif" font-size="10.00">13</text>
</a>
</g>
</g>
</g>
</svg>
