<?xml version="1.0" encoding="UTF-8" standalone="no"?>
<!DOCTYPE svg PUBLIC "-//W3C//DTD SVG 1.1//EN"
 "http://www.w3.org/Graphics/SVG/1.1/DTD/svg11.dtd">
<!-- Generated by graphviz version 2.38.0 (20140413.2041)
 -->
<!-- Title: device Pages: 1 -->
<!--zoomable 255 -->
<svg id="main" version="1.1" xmlns="http://www.w3.org/2000/svg" xmlns:xlink="http://www.w3.org/1999/xlink" xml:space="preserve" onload="init(evt)">
<style type="text/css"><![CDATA[
.edge:hover path { stroke: red; }
.edge:hover polygon { stroke: red; fill: red; }
]]></style>
<script type="text/javascript"><![CDATA[
var edges = document.getElementsByTagName('g');
if (edges && edges.length) {
  for (var i=0;i<edges.length;i++) {
    if (edges[i].id.substr(0,4)=='edge') {
      edges[i].setAttribute('class','edge');
    }
  }
}
]]></script>
        <defs>
                <circle id="rim" cx="0" cy="0" r="7"/>
                <circle id="rim2" cx="0" cy="0" r="3.5"/>
                <g id="zoomPlus">
                        <use xlink:href="#rim" fill="#404040">
                                <set attributeName="fill" to="#808080" begin="zoomplus.mouseover" end="zoomplus.mouseout"/>
                        </use>
                        <path d="M-4,0h8M0,-4v8" fill="none" stroke="white" stroke-width="1.5" pointer-events="none"/>
                </g>
                <g id="zoomMin">
                        <use xlink:href="#rim" fill="#404040">
                                <set attributeName="fill" to="#808080" begin="zoomminus.mouseover" end="zoomminus.mouseout"/>
                        </use>
                        <path d="M-4,0h8" fill="none" stroke="white" stroke-width="1.5" pointer-events="none"/>
                </g>
                <g id="dirArrow">
                        <path fill="none" stroke="white" stroke-width="1.5" d="M0,-3.0v7 M-2.5,-0.5L0,-3.0L2.5,-0.5"/>
                </g>
               <g id="resetDef">
                       <use xlink:href="#rim2" fill="#404040">
                               <set attributeName="fill" to="#808080" begin="reset.mouseover" end="reset.mouseout"/>
                       </use>
               </g>
        </defs>

<script type="text/javascript">
var viewWidth = 596;
var viewHeight = 255;
var sectionId = 'dynsection-0';
</script>
<script xlink:href="svgpan.js"/>
<svg id="graph" class="graph">
<g id="viewport">
<title>device</title>
<polygon fill="white" stroke="none" points="-4,4 -4,-251 592,-251 592,4 -4,4"/>
<g id="clust1" class="cluster"><title>clusterdir_bc0718b08fb2015b8e59c47b2805f60c</title>
<g id="a_clust1"><a xlink:href="dir_bc0718b08fb2015b8e59c47b2805f60c.html" target="_top" xlink:title="libraries">
<polygon fill="#ddddee" stroke="black" points="8,-8 8,-239 454,-239 454,-8 8,-8"/>
<text text-anchor="middle" x="231" y="-227" font-family="Helvetica,sans-Serif" font-size="10.00">libraries</text>
</a>
</g>
</g>
<g id="clust2" class="cluster"><title>clusterdir_89e1dd23c9798627a4fa5c93437cdf71</title>
<g id="a_clust2"><a xlink:href="dir_89e1dd23c9798627a4fa5c93437cdf71.html" target="_top">
<polygon fill="#eeeeff" stroke="black" points="16,-16 16,-212 446,-212 446,-16 16,-16"/>
</a>
</g>
</g>
<!-- dir_89e1dd23c9798627a4fa5c93437cdf71 -->
<g id="node1" class="node"><title>dir_89e1dd23c9798627a4fa5c93437cdf71</title>
<text text-anchor="middle" x="411" y="-183.5" font-family="Helvetica,sans-Serif" font-size="10.00">device</text>
</g>
<!-- dir_56851b7b813a827b1a4688037de3433f -->
<g id="node2" class="node"><title>dir_56851b7b813a827b1a4688037de3433f</title>
<g id="a_node2"><a xlink:href="dir_56851b7b813a827b1a4688037de3433f.html" target="_top" xlink:title="arduino">
<polygon fill="white" stroke="black" points="78,-204 24,-204 24,-168 78,-168 78,-204"/>
<text text-anchor="middle" x="51" y="-183.5" font-family="Helvetica,sans-Serif" font-size="10.00">arduino</text>
</a>
</g>
</g>
<!-- dir_184c0b8cd06f2340f9d0a23a16cabf8e -->
<g id="node6" class="node"><title>dir_184c0b8cd06f2340f9d0a23a16cabf8e</title>
<g id="a_node6"><a xlink:href="dir_184c0b8cd06f2340f9d0a23a16cabf8e.html" target="_top" xlink:title="general">
<polygon fill="white" stroke="black" points="438,-132 384,-132 384,-96 438,-96 438,-132"/>
<text text-anchor="middle" x="411" y="-111.5" font-family="Helvetica,sans-Serif" font-size="10.00">general</text>
</a>
</g>
</g>
<!-- dir_56851b7b813a827b1a4688037de3433f&#45;&gt;dir_184c0b8cd06f2340f9d0a23a16cabf8e -->
<g id="edge19" class="edge"><title>dir_56851b7b813a827b1a4688037de3433f&#45;&gt;dir_184c0b8cd06f2340f9d0a23a16cabf8e</title>
<path fill="none" stroke="black" d="M78.2008,-171.193C81.127,-169.999 84.0961,-168.904 87,-168 187.886,-136.609 312.549,-122.889 373.659,-117.708"/>
<polygon fill="black" stroke="black" points="374.278,-121.169 383.96,-116.866 373.708,-114.193 374.278,-121.169"/>
<g id="a_edge19&#45;headlabel"><a xlink:href="dir_000026_000002.html" target="_top" xlink:title="1">
<text text-anchor="middle" x="370.927" y="-121.792" font-family="Helvetica,sans-Serif" font-size="10.00">1</text>
</a>
</g>
</g>
<!-- dir_566a3ff4a5a303bab03e0e4ba38c8a31 -->
<g id="node10" class="node"><title>dir_566a3ff4a5a303bab03e0e4ba38c8a31</title>
<g id="a_node10"><a xlink:href="dir_566a3ff4a5a303bab03e0e4ba38c8a31.html" target="_top" xlink:title="support">
<polygon fill="white" stroke="red" points="516,-132 462,-132 462,-96 516,-96 516,-132"/>
<text text-anchor="middle" x="489" y="-111.5" font-family="Helvetica,sans-Serif" font-size="10.00">support</text>
</a>
</g>
</g>
<!-- dir_56851b7b813a827b1a4688037de3433f&#45;&gt;dir_566a3ff4a5a303bab03e0e4ba38c8a31 -->
<g id="edge20" class="edge"><title>dir_56851b7b813a827b1a4688037de3433f&#45;&gt;dir_566a3ff4a5a303bab03e0e4ba38c8a31</title>
<path fill="none" stroke="black" d="M78.145,-171.003C81.082,-169.846 84.069,-168.811 87,-168 243.251,-124.754 293.116,-172.889 450,-132 450.724,-131.811 451.451,-131.611 452.181,-131.4"/>
<polygon fill="black" stroke="black" points="453.341,-134.703 461.683,-128.171 451.089,-128.075 453.341,-134.703"/>
<g id="a_edge20&#45;headlabel"><a xlink:href="dir_000026_000032.html" target="_top" xlink:title="2">
<text text-anchor="middle" x="450.851" y="-136.048" font-family="Helvetica,sans-Serif" font-size="10.00">2</text>
</a>
</g>
</g>
<!-- dir_e03c3aa98fe1dbbdc89ac3e2b1e23a4d -->
<g id="node3" class="node"><title>dir_e03c3aa98fe1dbbdc89ac3e2b1e23a4d</title>
<g id="a_node3"><a xlink:href="dir_e03c3aa98fe1dbbdc89ac3e2b1e23a4d.html" target="_top" xlink:title="ccsds">
<polygon fill="white" stroke="black" points="294,-204 240,-204 240,-168 294,-168 294,-204"/>
<text text-anchor="middle" x="267" y="-183.5" font-family="Helvetica,sans-Serif" font-size="10.00">ccsds</text>
</a>
</g>
</g>
<!-- dir_e03c3aa98fe1dbbdc89ac3e2b1e23a4d&#45;&gt;dir_566a3ff4a5a303bab03e0e4ba38c8a31 -->
<g id="edge3" class="edge"><title>dir_e03c3aa98fe1dbbdc89ac3e2b1e23a4d&#45;&gt;dir_566a3ff4a5a303bab03e0e4ba38c8a31</title>
<path fill="none" stroke="black" d="M294.278,-171.425C297.189,-170.185 300.134,-169.016 303,-168 366.398,-145.526 386.271,-153.517 450,-132 450.857,-131.711 451.722,-131.41 452.591,-131.1"/>
<polygon fill="black" stroke="black" points="453.884,-134.353 461.958,-127.493 451.368,-127.82 453.884,-134.353"/>
<g id="a_edge3&#45;headlabel"><a xlink:href="dir_000050_000032.html" target="_top" xlink:title="2">
<text text-anchor="middle" x="451.549" y="-135.794" font-family="Helvetica,sans-Serif" font-size="10.00">2</text>
</a>
</g>
</g>
<!-- dir_6d6d18888f500cef1caa23d8e9a04249 -->
<g id="node4" class="node"><title>dir_6d6d18888f500cef1caa23d8e9a04249</title>
<g id="a_node4"><a xlink:href="dir_6d6d18888f500cef1caa23d8e9a04249.html" target="_top" xlink:title="cpu">
<polygon fill="white" stroke="black" points="366,-204 312,-204 312,-168 366,-168 366,-204"/>
<text text-anchor="middle" x="339" y="-183.5" font-family="Helvetica,sans-Serif" font-size="10.00">cpu</text>
</a>
</g>
</g>
<!-- dir_6d6d18888f500cef1caa23d8e9a04249&#45;&gt;dir_566a3ff4a5a303bab03e0e4ba38c8a31 -->
<g id="edge18" class="edge"><title>dir_6d6d18888f500cef1caa23d8e9a04249&#45;&gt;dir_566a3ff4a5a303bab03e0e4ba38c8a31</title>
<path fill="none" stroke="black" d="M366.297,-167.861C395.058,-154.386 427.907,-139.131 452.535,-128.484"/>
<polygon fill="black" stroke="black" points="454.052,-131.643 461.88,-124.503 451.308,-125.203 454.052,-131.643"/>
<g id="a_edge18&#45;headlabel"><a xlink:href="dir_000035_000032.html" target="_top" xlink:title="3">
<text text-anchor="middle" x="451.858" y="-133.164" font-family="Helvetica,sans-Serif" font-size="10.00">3</text>
</a>
</g>
</g>
<!-- dir_a0b8de2a6df68ff0ca40d58abd8aa1eb -->
<g id="node5" class="node"><title>dir_a0b8de2a6df68ff0ca40d58abd8aa1eb</title>
<g id="a_node5"><a xlink:href="dir_a0b8de2a6df68ff0ca40d58abd8aa1eb.html" target="_top" xlink:title="disk">
<polygon fill="white" stroke="black" points="222,-204 168,-204 168,-168 222,-168 222,-204"/>
<text text-anchor="middle" x="195" y="-183.5" font-family="Helvetica,sans-Serif" font-size="10.00">disk</text>
</a>
</g>
</g>
<!-- dir_a0b8de2a6df68ff0ca40d58abd8aa1eb&#45;&gt;dir_566a3ff4a5a303bab03e0e4ba38c8a31 -->
<g id="edge2" class="edge"><title>dir_a0b8de2a6df68ff0ca40d58abd8aa1eb&#45;&gt;dir_566a3ff4a5a303bab03e0e4ba38c8a31</title>
<path fill="none" stroke="black" d="M222.276,-167.914C316.233,-138.698 346.487,-159.895 441,-132 444.719,-130.902 448.553,-129.54 452.376,-128.067"/>
<polygon fill="black" stroke="black" points="453.822,-131.258 461.784,-124.269 451.201,-124.767 453.822,-131.258"/>
<g id="a_edge2&#45;headlabel"><a xlink:href="dir_000036_000032.html" target="_top" xlink:title="2">
<text text-anchor="middle" x="451.551" y="-132.737" font-family="Helvetica,sans-Serif" font-size="10.00">2</text>
</a>
</g>
</g>
<!-- dir_19bf41b5bf83c7288008927ab83c7306 -->
<g id="node8" class="node"><title>dir_19bf41b5bf83c7288008927ab83c7306</title>
<g id="a_node8"><a xlink:href="dir_19bf41b5bf83c7288008927ab83c7306.html" target="_top" xlink:title="serial">
<polygon fill="white" stroke="black" points="438,-60 384,-60 384,-24 438,-24 438,-60"/>
<text text-anchor="middle" x="411" y="-39.5" font-family="Helvetica,sans-Serif" font-size="10.00">serial</text>
</a>
</g>
</g>
<!-- dir_184c0b8cd06f2340f9d0a23a16cabf8e&#45;&gt;dir_19bf41b5bf83c7288008927ab83c7306 -->
<g id="edge4" class="edge"><title>dir_184c0b8cd06f2340f9d0a23a16cabf8e&#45;&gt;dir_19bf41b5bf83c7288008927ab83c7306</title>
<path fill="none" stroke="black" d="M411,-95.6966C411,-87.9827 411,-78.7125 411,-70.1124"/>
<polygon fill="black" stroke="black" points="414.5,-70.1043 411,-60.1043 407.5,-70.1044 414.5,-70.1043"/>
<g id="a_edge4&#45;headlabel"><a xlink:href="dir_000002_000049.html" target="_top" xlink:title="2">
<text text-anchor="middle" x="417.339" y="-71.199" font-family="Helvetica,sans-Serif" font-size="10.00">2</text>
</a>
</g>
</g>
<!-- dir_9a8b31d1dfb38e26822c551fe4043c03 -->
<g id="node9" class="node"><title>dir_9a8b31d1dfb38e26822c551fe4043c03</title>
<g id="a_node9"><a xlink:href="dir_9a8b31d1dfb38e26822c551fe4043c03.html" target="_top" xlink:title="math">
<polygon fill="none" stroke="black" points="516,-60 462,-60 462,-24 516,-24 516,-60"/>
<text text-anchor="middle" x="489" y="-39.5" font-family="Helvetica,sans-Serif" font-size="10.00">math</text>
</a>
</g>
</g>
<!-- dir_184c0b8cd06f2340f9d0a23a16cabf8e&#45;&gt;dir_9a8b31d1dfb38e26822c551fe4043c03 -->
<g id="edge5" class="edge"><title>dir_184c0b8cd06f2340f9d0a23a16cabf8e&#45;&gt;dir_9a8b31d1dfb38e26822c551fe4043c03</title>
<path fill="none" stroke="black" d="M430.281,-95.6966C439.915,-87.0503 451.729,-76.4486 462.227,-67.027"/>
<polygon fill="black" stroke="black" points="464.836,-69.3883 469.941,-60.1043 460.161,-64.1786 464.836,-69.3883"/>
<g id="a_edge5&#45;headlabel"><a xlink:href="dir_000002_000034.html" target="_top" xlink:title="5">
<text text-anchor="middle" x="464.057" y="-71.4023" font-family="Helvetica,sans-Serif" font-size="10.00">5</text>
</a>
</g>
</g>
<!-- dir_184c0b8cd06f2340f9d0a23a16cabf8e&#45;&gt;dir_566a3ff4a5a303bab03e0e4ba38c8a31 -->
<g id="edge6" class="edge"><title>dir_184c0b8cd06f2340f9d0a23a16cabf8e&#45;&gt;dir_566a3ff4a5a303bab03e0e4ba38c8a31</title>
<path fill="none" stroke="black" d="M438.117,-114C442.714,-114 447.31,-114 451.906,-114"/>
<polygon fill="black" stroke="black" points="451.969,-117.5 461.969,-114 451.968,-110.5 451.969,-117.5"/>
<g id="a_edge6&#45;headlabel"><a xlink:href="dir_000002_000032.html" target="_top" xlink:title="31">
<text text-anchor="middle" x="448.374" y="-117.839" font-family="Helvetica,sans-Serif" font-size="10.00">31</text>
</a>
</g>
</g>
<!-- dir_739af9132a68080d8ad3f48982bb0ae5 -->
<g id="node11" class="node"><title>dir_739af9132a68080d8ad3f48982bb0ae5</title>
<g id="a_node11"><a xlink:href="dir_739af9132a68080d8ad3f48982bb0ae5.html" target="_top" xlink:title="agent">
<polygon fill="none" stroke="black" points="588,-60 534,-60 534,-24 588,-24 588,-60"/>
<text text-anchor="middle" x="561" y="-39.5" font-family="Helvetica,sans-Serif" font-size="10.00">agent</text>
</a>
</g>
</g>
<!-- dir_184c0b8cd06f2340f9d0a23a16cabf8e&#45;&gt;dir_739af9132a68080d8ad3f48982bb0ae5 -->
<g id="edge7" class="edge"><title>dir_184c0b8cd06f2340f9d0a23a16cabf8e&#45;&gt;dir_739af9132a68080d8ad3f48982bb0ae5</title>
<path fill="none" stroke="black" d="M438.201,-100.409C459.415,-90.5781 489.842,-76.4503 524.494,-60.2256"/>
<polygon fill="black" stroke="black" points="526.311,-63.2395 533.881,-55.8273 523.341,-56.9007 526.311,-63.2395"/>
<g id="a_edge7&#45;headlabel"><a xlink:href="dir_000002_000023.html" target="_top" xlink:title="2">
<text text-anchor="middle" x="524.261" y="-64.8356" font-family="Helvetica,sans-Serif" font-size="10.00">2</text>
</a>
</g>
</g>
<!-- dir_69a82afb99d26636ea26f479e4c542c1 -->
<g id="node7" class="node"><title>dir_69a82afb99d26636ea26f479e4c542c1</title>
<g id="a_node7"><a xlink:href="dir_69a82afb99d26636ea26f479e4c542c1.html" target="_top" xlink:title="i2c">
<polygon fill="white" stroke="black" points="150,-204 96,-204 96,-168 150,-168 150,-204"/>
<text text-anchor="middle" x="123" y="-183.5" font-family="Helvetica,sans-Serif" font-size="10.00">i2c</text>
</a>
</g>
</g>
<!-- dir_69a82afb99d26636ea26f479e4c542c1&#45;&gt;dir_566a3ff4a5a303bab03e0e4ba38c8a31 -->
<g id="edge1" class="edge"><title>dir_69a82afb99d26636ea26f479e4c542c1&#45;&gt;dir_566a3ff4a5a303bab03e0e4ba38c8a31</title>
<path fill="none" stroke="black" d="M150.166,-171.076C153.099,-169.905 156.079,-168.847 159,-168 284.167,-131.719 324.301,-166.393 450,-132 450.721,-131.803 451.447,-131.594 452.174,-131.376"/>
<polygon fill="black" stroke="black" points="453.36,-134.669 461.66,-128.084 451.065,-128.056 453.36,-134.669"/>
<g id="a_edge1&#45;headlabel"><a xlink:href="dir_000039_000032.html" target="_top" xlink:title="3">
<text text-anchor="middle" x="450.895" y="-136.03" font-family="Helvetica,sans-Serif" font-size="10.00">3</text>
</a>
</g>
</g>
<!-- dir_19bf41b5bf83c7288008927ab83c7306&#45;&gt;dir_566a3ff4a5a303bab03e0e4ba38c8a31 -->
<g id="edge8" class="edge"><title>dir_19bf41b5bf83c7288008927ab83c7306&#45;&gt;dir_566a3ff4a5a303bab03e0e4ba38c8a31</title>
<path fill="none" stroke="black" d="M430.059,-60.1043C439.66,-68.7205 451.466,-79.316 461.985,-88.7555"/>
<polygon fill="black" stroke="black" points="459.939,-91.6224 469.719,-95.6966 464.614,-86.4126 459.939,-91.6224"/>
<g id="a_edge8&#45;headlabel"><a xlink:href="dir_000049_000032.html" target="_top" xlink:title="4">
<text text-anchor="middle" x="455.367" y="-88.8346" font-family="Helvetica,sans-Serif" font-size="10.00">4</text>
</a>
</g>
</g>
<!-- dir_9a8b31d1dfb38e26822c551fe4043c03&#45;&gt;dir_566a3ff4a5a303bab03e0e4ba38c8a31 -->
<g id="edge9" class="edge"><title>dir_9a8b31d1dfb38e26822c551fe4043c03&#45;&gt;dir_566a3ff4a5a303bab03e0e4ba38c8a31</title>
<path fill="none" stroke="black" d="M494.895,-60.1043C495.701,-67.7913 495.937,-77.0537 495.604,-85.6651"/>
<polygon fill="black" stroke="black" points="492.109,-85.4805 494.916,-95.6966 499.092,-85.9597 492.109,-85.4805"/>
<g id="a_edge9&#45;headlabel"><a xlink:href="dir_000034_000032.html" target="_top" xlink:title="8">
<text text-anchor="middle" x="489.522" y="-79.2" font-family="Helvetica,sans-Serif" font-size="10.00">8</text>
</a>
</g>
</g>
<!-- dir_566a3ff4a5a303bab03e0e4ba38c8a31&#45;&gt;dir_89e1dd23c9798627a4fa5c93437cdf71 -->
<g id="edge14" class="edge"><title>dir_566a3ff4a5a303bab03e0e4ba38c8a31&#45;&gt;dir_89e1dd23c9798627a4fa5c93437cdf71</title>
<path fill="none" stroke="black" d="M469.941,-132.104C460.34,-140.72 448.534,-151.316 438.015,-160.755"/>
<polygon fill="black" stroke="black" points="435.386,-158.413 430.281,-167.697 440.061,-163.622 435.386,-158.413"/>
<g id="a_edge14&#45;headlabel"><a xlink:href="dir_000032_000001.html" target="_top" xlink:title="2">
<text text-anchor="middle" x="436.165" y="-151.399" font-family="Helvetica,sans-Serif" font-size="10.00">2</text>
</a>
</g>
</g>
<!-- dir_566a3ff4a5a303bab03e0e4ba38c8a31&#45;&gt;dir_6d6d18888f500cef1caa23d8e9a04249 -->
<g id="edge13" class="edge"><title>dir_566a3ff4a5a303bab03e0e4ba38c8a31&#45;&gt;dir_6d6d18888f500cef1caa23d8e9a04249</title>
<path fill="none" stroke="black" d="M461.758,-131.183C440.477,-141.651 410.484,-155.591 384,-168 381.272,-169.278 378.428,-170.614 375.544,-171.951"/>
<polygon fill="black" stroke="black" points="373.942,-168.835 366.284,-176.155 376.836,-175.209 373.942,-168.835"/>
<g id="a_edge13&#45;headlabel"><a xlink:href="dir_000032_000035.html" target="_top" xlink:title="1">
<text text-anchor="middle" x="376.042" y="-162.264" font-family="Helvetica,sans-Serif" font-size="10.00">1</text>
</a>
</g>
</g>
<!-- dir_566a3ff4a5a303bab03e0e4ba38c8a31&#45;&gt;dir_a0b8de2a6df68ff0ca40d58abd8aa1eb -->
<g id="edge10" class="edge"><title>dir_566a3ff4a5a303bab03e0e4ba38c8a31&#45;&gt;dir_a0b8de2a6df68ff0ca40d58abd8aa1eb</title>
<path fill="none" stroke="black" d="M461.994,-131.068C460.992,-131.396 459.992,-131.707 459,-132 364.395,-159.922 334.174,-138.657 240,-168 237.278,-168.848 234.498,-169.864 231.713,-170.972"/>
<polygon fill="black" stroke="black" points="230.124,-167.845 222.295,-174.983 232.866,-174.285 230.124,-167.845"/>
<g id="a_edge10&#45;headlabel"><a xlink:href="dir_000032_000036.html" target="_top" xlink:title="1">
<text text-anchor="middle" x="232.319" y="-161.324" font-family="Helvetica,sans-Serif" font-size="10.00">1</text>
</a>
</g>
</g>
<!-- dir_566a3ff4a5a303bab03e0e4ba38c8a31&#45;&gt;dir_9a8b31d1dfb38e26822c551fe4043c03 -->
<g id="edge11" class="edge"><title>dir_566a3ff4a5a303bab03e0e4ba38c8a31&#45;&gt;dir_9a8b31d1dfb38e26822c551fe4043c03</title>
<path fill="none" stroke="black" d="M483.084,-95.6966C482.289,-87.9827 482.062,-78.7125 482.405,-70.1124"/>
<polygon fill="black" stroke="black" points="485.898,-70.3243 483.105,-60.1043 478.915,-69.8356 485.898,-70.3243"/>
<g id="a_edge11&#45;headlabel"><a xlink:href="dir_000032_000034.html" target="_top" xlink:title="14">
<text text-anchor="middle" x="488.48" y="-71.6083" font-family="Helvetica,sans-Serif" font-size="10.00">14</text>
</a>
</g>
</g>
<!-- dir_566a3ff4a5a303bab03e0e4ba38c8a31&#45;&gt;dir_739af9132a68080d8ad3f48982bb0ae5 -->
<g id="edge12" class="edge"><title>dir_566a3ff4a5a303bab03e0e4ba38c8a31&#45;&gt;dir_739af9132a68080d8ad3f48982bb0ae5</title>
<path fill="none" stroke="black" d="M500.882,-95.6966C508.884,-87.0503 519.611,-76.4486 529.84,-67.027"/>
<polygon fill="black" stroke="black" points="532.433,-69.4023 537.512,-60.1043 527.743,-64.2054 532.433,-69.4023"/>
<g id="a_edge12&#45;headlabel"><a xlink:href="dir_000032_000023.html" target="_top" xlink:title="1">
<text text-anchor="middle" x="531.666" y="-71.4183" font-family="Helvetica,sans-Serif" font-size="10.00">1</text>
</a>
</g>
</g>
<!-- dir_739af9132a68080d8ad3f48982bb0ae5&#45;&gt;dir_89e1dd23c9798627a4fa5c93437cdf71 -->
<g id="edge17" class="edge"><title>dir_739af9132a68080d8ad3f48982bb0ae5&#45;&gt;dir_89e1dd23c9798627a4fa5c93437cdf71</title>
<path fill="none" stroke="black" d="M565.674,-60.2227C569.842,-79.612 573.195,-111.126 558,-132 532.824,-166.586 482.889,-178.673 448.249,-182.856"/>
<polygon fill="black" stroke="black" points="447.619,-179.403 438.034,-183.917 448.342,-186.366 447.619,-179.403"/>
<g id="a_edge17&#45;headlabel"><a xlink:href="dir_000023_000001.html" target="_top" xlink:title="1">
<text text-anchor="middle" x="450.901" y="-173.708" font-family="Helvetica,sans-Serif" font-size="10.00">1</text>
</a>
</g>
</g>
<!-- dir_739af9132a68080d8ad3f48982bb0ae5&#45;&gt;dir_6d6d18888f500cef1caa23d8e9a04249 -->
<g id="edge16" class="edge"><title>dir_739af9132a68080d8ad3f48982bb0ae5&#45;&gt;dir_6d6d18888f500cef1caa23d8e9a04249</title>
<path fill="none" stroke="black" d="M558.81,-60.1234C555.3,-80.3294 546.47,-113.509 525,-132 475.384,-174.731 442.709,-147.918 375.928,-168.221"/>
<polygon fill="black" stroke="black" points="374.67,-164.951 366.273,-171.411 376.866,-171.597 374.67,-164.951"/>
<g id="a_edge16&#45;headlabel"><a xlink:href="dir_000023_000035.html" target="_top" xlink:title="1">
<text text-anchor="middle" x="377.193" y="-158.627" font-family="Helvetica,sans-Serif" font-size="10.00">1</text>
</a>
</g>
</g>
<!-- dir_739af9132a68080d8ad3f48982bb0ae5&#45;&gt;dir_566a3ff4a5a303bab03e0e4ba38c8a31 -->
<g id="edge15" class="edge"><title>dir_739af9132a68080d8ad3f48982bb0ae5&#45;&gt;dir_566a3ff4a5a303bab03e0e4ba38c8a31</title>
<path fill="none" stroke="black" d="M549.302,-60.1043C541.343,-68.7205 530.632,-79.316 520.396,-88.7555"/>
<polygon fill="black" stroke="black" points="517.787,-86.3955 512.713,-95.6966 522.48,-91.5894 517.787,-86.3955"/>
<g id="a_edge15&#45;headlabel"><a xlink:href="dir_000023_000032.html" target="_top" xlink:title="13">
<text text-anchor="middle" x="518.551" y="-79.3789" font-family="Helvetica,sans-Serif" font-size="10.00">13</text>
</a>
</g>
</g>
</g>
</svg>
        <g id="navigator" transform="translate(0 0)" fill="#404254">
                <rect fill="#f2f5e9" fill-opacity="0.5" stroke="#606060" stroke-width=".5" x="0" y="0" width="60" height="60"/>
                <use id="zoomplus" xlink:href="#zoomPlus" x="17" y="9" onmousedown="handleZoom(evt,'in')"/>
                <use id="zoomminus" xlink:href="#zoomMin" x="42" y="9" onmousedown="handleZoom(evt,'out')"/>
                <use id="reset" xlink:href="#resetDef" x="30" y="36" onmousedown="handleReset()"/>
                <g id="arrowUp" xlink:href="#dirArrow" transform="translate(30 24)" onmousedown="handlePan(0,-1)">
                  <use xlink:href="#rim" fill="#404040">
                        <set attributeName="fill" to="#808080" begin="arrowUp.mouseover" end="arrowUp.mouseout"/>
                  </use>
                  <path fill="none" stroke="white" stroke-width="1.5" d="M0,-3.0v7 M-2.5,-0.5L0,-3.0L2.5,-0.5"/>
                </g>
                <g id="arrowRight" xlink:href="#dirArrow" transform="rotate(90) translate(36 -43)" onmousedown="handlePan(1,0)">
                  <use xlink:href="#rim" fill="#404040">
                        <set attributeName="fill" to="#808080" begin="arrowRight.mouseover" end="arrowRight.mouseout"/>
                  </use>
                  <path fill="none" stroke="white" stroke-width="1.5" d="M0,-3.0v7 M-2.5,-0.5L0,-3.0L2.5,-0.5"/>
                </g>
                <g id="arrowDown" xlink:href="#dirArrow" transform="rotate(180) translate(-30 -48)" onmousedown="handlePan(0,1)">
                  <use xlink:href="#rim" fill="#404040">
                        <set attributeName="fill" to="#808080" begin="arrowDown.mouseover" end="arrowDown.mouseout"/>
                  </use>
                  <path fill="none" stroke="white" stroke-width="1.5" d="M0,-3.0v7 M-2.5,-0.5L0,-3.0L2.5,-0.5"/>
                </g>
                <g id="arrowLeft" xlink:href="#dirArrow" transform="rotate(270) translate(-36 17)" onmousedown="handlePan(-1,0)">
                  <use xlink:href="#rim" fill="#404040">
                        <set attributeName="fill" to="#808080" begin="arrowLeft.mouseover" end="arrowLeft.mouseout"/>
                  </use>
                  <path fill="none" stroke="white" stroke-width="1.5" d="M0,-3.0v7 M-2.5,-0.5L0,-3.0L2.5,-0.5"/>
                </g>
        </g>
        <svg viewBox="0 0 15 15" width="100%" height="30px" preserveAspectRatio="xMaxYMin meet">
         <g id="arrow_out" transform="scale(0.3 0.3)">
          <a xlink:href="dir_89e1dd23c9798627a4fa5c93437cdf71_dep_org.svg" target="_base">
           <rect id="button" ry="5" rx="5" y="6" x="6" height="38" width="38"
                fill="#f2f5e9" fill-opacity="0.5" stroke="#606060" stroke-width="1.0"/>
           <path id="arrow"
             d="M 11.500037,31.436501 C 11.940474,20.09759 22.043105,11.32322 32.158766,21.979434 L 37.068811,17.246167 C 37.068811,17.246167 37.088388,32 37.088388,32 L 22.160133,31.978069 C 22.160133,31.978069 26.997745,27.140456 26.997745,27.140456 C 18.528582,18.264221 13.291696,25.230495 11.500037,31.436501 z"
             style="fill:#404040;"/>
          </a>
         </g>
        </svg>
</svg>
