<?xml version="1.0" encoding="UTF-8" standalone="no"?>
<!DOCTYPE svg PUBLIC "-//W3C//DTD SVG 1.1//EN"
 "http://www.w3.org/Graphics/SVG/1.1/DTD/svg11.dtd">
<!-- Generated by graphviz version 2.38.0 (20140413.2041)
 -->
<!-- Title: support Pages: 1 -->
<svg width="343pt" height="195pt"
 viewBox="0.00 0.00 343.00 195.00" xmlns="http://www.w3.org/2000/svg" xmlns:xlink="http://www.w3.org/1999/xlink">
<g id="graph0" class="graph" transform="scale(1 1) rotate(0) translate(4 191)">
<title>support</title>
<polygon fill="white" stroke="none" points="-4,4 -4,-191 339,-191 339,4 -4,4"/>
<g id="clust1" class="cluster"><title>clusterdir_bc0718b08fb2015b8e59c47b2805f60c</title>
<g id="a_clust1"><a xlink:href="dir_bc0718b08fb2015b8e59c47b2805f60c.html" target="_top" xlink:title="libraries">
<polygon fill="#ddddee" stroke="black" points="134,-56 134,-143 327,-143 327,-56 134,-56"/>
<text text-anchor="middle" x="230.5" y="-131" font-family="Helvetica,sans-Serif" font-size="10.00">libraries</text>
</a>
</g>
</g>
<g id="clust2" class="cluster"><title>clusterdir_566a3ff4a5a303bab03e0e4ba38c8a31</title>
<g id="a_clust2"><a xlink:href="dir_566a3ff4a5a303bab03e0e4ba38c8a31.html" target="_top">
<polygon fill="#eeeeff" stroke="black" points="142,-64 142,-116 319,-116 319,-64 142,-64"/>
</a>
</g>
</g>
<!-- dir_566a3ff4a5a303bab03e0e4ba38c8a31 -->
<g id="node1" class="node"><title>dir_566a3ff4a5a303bab03e0e4ba38c8a31</title>
<text text-anchor="middle" x="284" y="-87.5" font-family="Helvetica,sans-Serif" font-size="10.00">support</text>
</g>
<!-- dir_739af9132a68080d8ad3f48982bb0ae5 -->
<g id="node4" class="node"><title>dir_739af9132a68080d8ad3f48982bb0ae5</title>
<g id="a_node4"><a xlink:href="dir_739af9132a68080d8ad3f48982bb0ae5.html" target="_top" xlink:title="agent">
<polygon fill="none" stroke="black" points="126,-187 72,-187 72,-151 126,-151 126,-187"/>
<text text-anchor="middle" x="99" y="-166.5" font-family="Helvetica,sans-Serif" font-size="10.00">agent</text>
</a>
</g>
</g>
<!-- dir_566a3ff4a5a303bab03e0e4ba38c8a31&#45;&gt;dir_739af9132a68080d8ad3f48982bb0ae5 -->
<g id="edge2" class="edge"><title>dir_566a3ff4a5a303bab03e0e4ba38c8a31&#45;&gt;dir_739af9132a68080d8ad3f48982bb0ae5</title>
<path fill="none" stroke="black" d="M268.989,-108.279C261.527,-119.981 251.977,-134.76 239,-143 221.97,-153.813 171.614,-160.658 136.079,-164.399"/>
<polygon fill="black" stroke="black" points="135.632,-160.926 126.036,-165.417 136.338,-167.891 135.632,-160.926"/>
<g id="a_edge2&#45;headlabel"><a xlink:href="dir_000032_000023.html" target="_top" xlink:title="1">
<text text-anchor="middle" x="138.922" y="-155.239" font-family="Helvetica,sans-Serif" font-size="10.00">1</text>
</a>
</g>
</g>
<!-- dir_b741540ffa95870770d8883c9def5afb -->
<g id="node5" class="node"><title>dir_b741540ffa95870770d8883c9def5afb</title>
<g id="a_node5"><a xlink:href="dir_b741540ffa95870770d8883c9def5afb.html" target="_top" xlink:title="physics">
<polygon fill="none" stroke="black" points="54,-108 0,-108 0,-72 54,-72 54,-108"/>
<text text-anchor="middle" x="27" y="-87.5" font-family="Helvetica,sans-Serif" font-size="10.00">physics</text>
</a>
</g>
</g>
<!-- dir_566a3ff4a5a303bab03e0e4ba38c8a31&#45;&gt;dir_b741540ffa95870770d8883c9def5afb -->
<g id="edge3" class="edge"><title>dir_566a3ff4a5a303bab03e0e4ba38c8a31&#45;&gt;dir_b741540ffa95870770d8883c9def5afb</title>
<path fill="none" stroke="black" d="M277.307,-108.016C270.42,-123.161 257.993,-142.969 239,-147 220.849,-150.852 90.1513,-150.852 72,-147 56.7162,-143.757 45.6847,-130.297 38.3701,-117.272"/>
<polygon fill="black" stroke="black" points="41.3271,-115.363 33.6931,-108.016 35.0795,-118.52 41.3271,-115.363"/>
<g id="a_edge3&#45;headlabel"><a xlink:href="dir_000032_000033.html" target="_top" xlink:title="1">
<text text-anchor="middle" x="45.4823" y="-114.791" font-family="Helvetica,sans-Serif" font-size="10.00">1</text>
</a>
</g>
</g>
<!-- dir_5773f15e83476c19a1fcaed287799864 -->
<g id="node6" class="node"><title>dir_5773f15e83476c19a1fcaed287799864</title>
<g id="a_node6"><a xlink:href="dir_5773f15e83476c19a1fcaed287799864.html" target="_top" xlink:title="thirdparty">
<polygon fill="white" stroke="red" points="312.5,-36 255.5,-36 255.5,-0 312.5,-0 312.5,-36"/>
<text text-anchor="middle" x="284" y="-15.5" font-family="Helvetica,sans-Serif" font-size="10.00">thirdparty</text>
</a>
</g>
</g>
<!-- dir_566a3ff4a5a303bab03e0e4ba38c8a31&#45;&gt;dir_5773f15e83476c19a1fcaed287799864 -->
<g id="edge4" class="edge"><title>dir_566a3ff4a5a303bab03e0e4ba38c8a31&#45;&gt;dir_5773f15e83476c19a1fcaed287799864</title>
<path fill="none" stroke="black" d="M284,-71.6966C284,-63.9827 284,-54.7125 284,-46.1124"/>
<polygon fill="black" stroke="black" points="287.5,-46.1043 284,-36.1043 280.5,-46.1044 287.5,-46.1043"/>
<g id="a_edge4&#45;headlabel"><a xlink:href="dir_000032_000003.html" target="_top" xlink:title="2">
<text text-anchor="middle" x="290.339" y="-47.199" font-family="Helvetica,sans-Serif" font-size="10.00">2</text>
</a>
</g>
</g>
<!-- dir_89e1dd23c9798627a4fa5c93437cdf71 -->
<g id="node7" class="node"><title>dir_89e1dd23c9798627a4fa5c93437cdf71</title>
<g id="a_node7"><a xlink:href="dir_89e1dd23c9798627a4fa5c93437cdf71.html" target="_top" xlink:title="device">
<polygon fill="white" stroke="red" points="126,-108 72,-108 72,-72 126,-72 126,-108"/>
<text text-anchor="middle" x="99" y="-87.5" font-family="Helvetica,sans-Serif" font-size="10.00">device</text>
</a>
</g>
</g>
<!-- dir_566a3ff4a5a303bab03e0e4ba38c8a31&#45;&gt;dir_89e1dd23c9798627a4fa5c93437cdf71 -->
<g id="edge5" class="edge"><title>dir_566a3ff4a5a303bab03e0e4ba38c8a31&#45;&gt;dir_89e1dd23c9798627a4fa5c93437cdf71</title>
<path fill="none" stroke="black" d="M275.057,-108.125C268.764,-119.368 259.437,-133.441 248,-143 244.641,-145.807 243.282,-146.091 239,-147 219.001,-151.244 166.999,-151.244 147,-147 131.268,-143.661 119.496,-130.124 111.548,-117.081"/>
<polygon fill="black" stroke="black" points="114.567,-115.307 106.655,-108.261 108.446,-118.703 114.567,-115.307"/>
<g id="a_edge5&#45;headlabel"><a xlink:href="dir_000032_000001.html" target="_top" xlink:title="2">
<text text-anchor="middle" x="118.793" y="-114.573" font-family="Helvetica,sans-Serif" font-size="10.00">2</text>
</a>
</g>
</g>
<!-- dir_51b0a304660ce6e271c554c46d5eefb9 -->
<g id="node2" class="node"><title>dir_51b0a304660ce6e271c554c46d5eefb9</title>
<g id="a_node2"><a xlink:href="dir_51b0a304660ce6e271c554c46d5eefb9.html" target="_top" xlink:title="convert_test_gui">
<polygon fill="white" stroke="black" points="238.5,-108 149.5,-108 149.5,-72 238.5,-72 238.5,-108"/>
<text text-anchor="middle" x="194" y="-87.5" font-family="Helvetica,sans-Serif" font-size="10.00">convert_test_gui</text>
</a>
</g>
</g>
<!-- dir_9a8b31d1dfb38e26822c551fe4043c03 -->
<g id="node3" class="node"><title>dir_9a8b31d1dfb38e26822c551fe4043c03</title>
<g id="a_node3"><a xlink:href="dir_9a8b31d1dfb38e26822c551fe4043c03.html" target="_top" xlink:title="math">
<polygon fill="none" stroke="black" points="173,-36 119,-36 119,-0 173,-0 173,-36"/>
<text text-anchor="middle" x="146" y="-15.5" font-family="Helvetica,sans-Serif" font-size="10.00">math</text>
</a>
</g>
</g>
<!-- dir_51b0a304660ce6e271c554c46d5eefb9&#45;&gt;dir_9a8b31d1dfb38e26822c551fe4043c03 -->
<g id="edge10" class="edge"><title>dir_51b0a304660ce6e271c554c46d5eefb9&#45;&gt;dir_9a8b31d1dfb38e26822c551fe4043c03</title>
<path fill="none" stroke="black" d="M182.135,-71.6966C176.497,-63.4741 169.646,-53.4832 163.431,-44.4207"/>
<polygon fill="black" stroke="black" points="166.271,-42.3723 157.729,-36.1043 160.497,-46.331 166.271,-42.3723"/>
<g id="a_edge10&#45;headlabel"><a xlink:href="dir_000038_000034.html" target="_top" xlink:title="1">
<text text-anchor="middle" x="170.645" y="-41.2312" font-family="Helvetica,sans-Serif" font-size="10.00">1</text>
</a>
</g>
</g>
<!-- dir_9a8b31d1dfb38e26822c551fe4043c03&#45;&gt;dir_566a3ff4a5a303bab03e0e4ba38c8a31 -->
<g id="edge1" class="edge"><title>dir_9a8b31d1dfb38e26822c551fe4043c03&#45;&gt;dir_566a3ff4a5a303bab03e0e4ba38c8a31</title>
<path fill="none" stroke="black" d="M173.286,-25.7265C194.612,-31.7134 224.481,-41.743 248,-56 252.219,-58.5574 256.38,-61.6572 260.291,-64.9206"/>
<polygon fill="black" stroke="black" points="258.119,-67.6735 267.908,-71.7276 262.784,-62.4542 258.119,-67.6735"/>
<g id="a_edge1&#45;headlabel"><a xlink:href="dir_000034_000032.html" target="_top" xlink:title="8">
<text text-anchor="middle" x="253.547" y="-64.8952" font-family="Helvetica,sans-Serif" font-size="10.00">8</text>
</a>
</g>
</g>
<!-- dir_739af9132a68080d8ad3f48982bb0ae5&#45;&gt;dir_566a3ff4a5a303bab03e0e4ba38c8a31 -->
<g id="edge6" class="edge"><title>dir_739af9132a68080d8ad3f48982bb0ae5&#45;&gt;dir_566a3ff4a5a303bab03e0e4ba38c8a31</title>
<path fill="none" stroke="black" d="M126.3,-166.419C165.961,-163.465 236.241,-156.181 257,-143 266.733,-136.82 274.538,-126.962 279.738,-117.482"/>
<polygon fill="black" stroke="black" points="282.976,-118.82 284.045,-108.279 276.636,-115.852 282.976,-118.82"/>
<g id="a_edge6&#45;headlabel"><a xlink:href="dir_000023_000032.html" target="_top" xlink:title="13">
<text text-anchor="middle" x="284.024" y="-120.779" font-family="Helvetica,sans-Serif" font-size="10.00">13</text>
</a>
</g>
</g>
<!-- dir_739af9132a68080d8ad3f48982bb0ae5&#45;&gt;dir_89e1dd23c9798627a4fa5c93437cdf71 -->
<g id="edge7" class="edge"><title>dir_739af9132a68080d8ad3f48982bb0ae5&#45;&gt;dir_89e1dd23c9798627a4fa5c93437cdf71</title>
<path fill="none" stroke="black" d="M93.28,-150.911C92.2487,-141.341 91.9919,-129.183 92.5094,-118.323"/>
<polygon fill="black" stroke="black" points="96.0229,-118.276 93.2851,-108.041 89.0427,-117.749 96.0229,-118.276"/>
<g id="a_edge7&#45;headlabel"><a xlink:href="dir_000023_000001.html" target="_top" xlink:title="1">
<text text-anchor="middle" x="98.5838" y="-119.574" font-family="Helvetica,sans-Serif" font-size="10.00">1</text>
</a>
</g>
</g>
<!-- dir_b741540ffa95870770d8883c9def5afb&#45;&gt;dir_566a3ff4a5a303bab03e0e4ba38c8a31 -->
<g id="edge9" class="edge"><title>dir_b741540ffa95870770d8883c9def5afb&#45;&gt;dir_566a3ff4a5a303bab03e0e4ba38c8a31</title>
<path fill="none" stroke="black" d="M33.6931,-108.016C40.5801,-123.161 53.0066,-142.969 72,-147 90.1513,-150.852 220.849,-150.852 239,-147 254.284,-143.757 265.315,-130.297 272.63,-117.272"/>
<polygon fill="black" stroke="black" points="275.921,-118.52 277.307,-108.016 269.673,-115.363 275.921,-118.52"/>
<g id="a_edge9&#45;headlabel"><a xlink:href="dir_000033_000032.html" target="_top" xlink:title="10">
<text text-anchor="middle" x="276.833" y="-120.509" font-family="Helvetica,sans-Serif" font-size="10.00">10</text>
</a>
</g>
</g>
<!-- dir_b741540ffa95870770d8883c9def5afb&#45;&gt;dir_9a8b31d1dfb38e26822c551fe4043c03 -->
<g id="edge8" class="edge"><title>dir_b741540ffa95870770d8883c9def5afb&#45;&gt;dir_9a8b31d1dfb38e26822c551fe4043c03</title>
<path fill="none" stroke="black" d="M43.6343,-71.6738C49.4307,-66.2218 56.1946,-60.465 63,-56 77.2834,-46.6288 94.333,-38.5656 109.253,-32.3805"/>
<polygon fill="black" stroke="black" points="110.721,-35.5628 118.7,-28.5923 108.116,-29.0657 110.721,-35.5628"/>
<g id="a_edge8&#45;headlabel"><a xlink:href="dir_000033_000034.html" target="_top" xlink:title="2">
<text text-anchor="middle" x="108.442" y="-37.0359" font-family="Helvetica,sans-Serif" font-size="10.00">2</text>
</a>
</g>
</g>
<!-- dir_89e1dd23c9798627a4fa5c93437cdf71&#45;&gt;dir_9a8b31d1dfb38e26822c551fe4043c03 -->
<g id="edge11" class="edge"><title>dir_89e1dd23c9798627a4fa5c93437cdf71&#45;&gt;dir_9a8b31d1dfb38e26822c551fe4043c03</title>
<path fill="none" stroke="black" d="M110.618,-71.6966C116.139,-63.4741 122.847,-53.4832 128.932,-44.4207"/>
<polygon fill="black" stroke="black" points="131.847,-46.3576 134.516,-36.1043 126.035,-42.4555 131.847,-46.3576"/>
<g id="a_edge11&#45;headlabel"><a xlink:href="dir_000001_000034.html" target="_top" xlink:title="5">
<text text-anchor="middle" x="132.201" y="-48.4246" font-family="Helvetica,sans-Serif" font-size="10.00">5</text>
</a>
</g>
</g>
<!-- dir_89e1dd23c9798627a4fa5c93437cdf71&#45;&gt;dir_739af9132a68080d8ad3f48982bb0ae5 -->
<g id="edge12" class="edge"><title>dir_89e1dd23c9798627a4fa5c93437cdf71&#45;&gt;dir_739af9132a68080d8ad3f48982bb0ae5</title>
<path fill="none" stroke="black" d="M104.715,-108.041C105.749,-117.603 106.008,-129.759 105.493,-140.622"/>
<polygon fill="black" stroke="black" points="101.979,-140.677 104.72,-150.911 108.96,-141.202 101.979,-140.677"/>
<g id="a_edge12&#45;headlabel"><a xlink:href="dir_000001_000023.html" target="_top" xlink:title="2">
<text text-anchor="middle" x="99.4172" y="-134.38" font-family="Helvetica,sans-Serif" font-size="10.00">2</text>
</a>
</g>
</g>
</g>
</svg>
