<?xml version="1.0" encoding="UTF-8" standalone="no"?>
<!DOCTYPE svg PUBLIC "-//W3C//DTD SVG 1.1//EN"
 "http://www.w3.org/Graphics/SVG/1.1/DTD/svg11.dtd">
<!-- Generated by graphviz version 2.38.0 (20140413.2041)
 -->
<!-- Title: agents Pages: 1 -->
<svg width="1006pt" height="159pt"
 viewBox="0.00 0.00 1006.00 159.00" xmlns="http://www.w3.org/2000/svg" xmlns:xlink="http://www.w3.org/1999/xlink">
<g id="graph0" class="graph" transform="scale(1 1) rotate(0) translate(4 155)">
<title>agents</title>
<polygon fill="white" stroke="none" points="-4,4 -4,-155 1002,-155 1002,4 -4,4"/>
<g id="clust1" class="cluster"><title>clusterdir_0d353d24d0afa59909efab6593124f6d</title>
<g id="a_clust1"><a xlink:href="dir_0d353d24d0afa59909efab6593124f6d.html" target="_top" xlink:title="tutorials">
<polygon fill="#ddddee" stroke="black" points="8,-56 8,-143 990,-143 990,-56 8,-56"/>
<text text-anchor="middle" x="499" y="-131" font-family="Helvetica,sans-Serif" font-size="10.00">tutorials</text>
</a>
</g>
</g>
<g id="clust2" class="cluster"><title>clusterdir_de2ddffd02070d381f43b5b22cb08a64</title>
<g id="a_clust2"><a xlink:href="dir_de2ddffd02070d381f43b5b22cb08a64.html" target="_top">
<polygon fill="#eeeeff" stroke="black" points="16,-64 16,-116 982,-116 982,-64 16,-64"/>
</a>
</g>
</g>
<!-- dir_de2ddffd02070d381f43b5b22cb08a64 -->
<g id="node1" class="node"><title>dir_de2ddffd02070d381f43b5b22cb08a64</title>
<text text-anchor="middle" x="947" y="-87.5" font-family="Helvetica,sans-Serif" font-size="10.00">agents</text>
</g>
<!-- dir_cc701361d3a0317adc89676d3ffe54d6 -->
<g id="node2" class="node"><title>dir_cc701361d3a0317adc89676d3ffe54d6</title>
<g id="a_node2"><a xlink:href="dir_cc701361d3a0317adc89676d3ffe54d6.html" target="_top" xlink:title="agent_001">
<polygon fill="white" stroke="black" points="902,-108 840,-108 840,-72 902,-72 902,-108"/>
<text text-anchor="middle" x="871" y="-87.5" font-family="Helvetica,sans-Serif" font-size="10.00">agent_001</text>
</a>
</g>
</g>
<!-- dir_bc0718b08fb2015b8e59c47b2805f60c -->
<g id="node12" class="node"><title>dir_bc0718b08fb2015b8e59c47b2805f60c</title>
<g id="a_node12"><a xlink:href="dir_bc0718b08fb2015b8e59c47b2805f60c.html" target="_top" xlink:title="libraries">
<polygon fill="white" stroke="red" points="538,-36 484,-36 484,-0 538,-0 538,-36"/>
<text text-anchor="middle" x="511" y="-15.5" font-family="Helvetica,sans-Serif" font-size="10.00">libraries</text>
</a>
</g>
</g>
<!-- dir_cc701361d3a0317adc89676d3ffe54d6&#45;&gt;dir_bc0718b08fb2015b8e59c47b2805f60c -->
<g id="edge7" class="edge"><title>dir_cc701361d3a0317adc89676d3ffe54d6&#45;&gt;dir_bc0718b08fb2015b8e59c47b2805f60c</title>
<path fill="none" stroke="black" d="M854.552,-71.7923C847.832,-65.8011 839.615,-59.6672 831,-56 780.851,-34.6521 621.562,-24.363 548.399,-20.6682"/>
<polygon fill="black" stroke="black" points="548.412,-17.1647 538.253,-20.1704 548.069,-24.1563 548.412,-17.1647"/>
<g id="a_edge7&#45;headlabel"><a xlink:href="dir_000009_000000.html" target="_top" xlink:title="4">
<text text-anchor="middle" x="552.142" y="-12.0049" font-family="Helvetica,sans-Serif" font-size="10.00">4</text>
</a>
</g>
</g>
<!-- dir_595ccfbf0d34f4aecde86869d6531d63 -->
<g id="node3" class="node"><title>dir_595ccfbf0d34f4aecde86869d6531d63</title>
<g id="a_node3"><a xlink:href="dir_595ccfbf0d34f4aecde86869d6531d63.html" target="_top" xlink:title="agent_002">
<polygon fill="white" stroke="black" points="822,-108 760,-108 760,-72 822,-72 822,-108"/>
<text text-anchor="middle" x="791" y="-87.5" font-family="Helvetica,sans-Serif" font-size="10.00">agent_002</text>
</a>
</g>
</g>
<!-- dir_595ccfbf0d34f4aecde86869d6531d63&#45;&gt;dir_bc0718b08fb2015b8e59c47b2805f60c -->
<g id="edge10" class="edge"><title>dir_595ccfbf0d34f4aecde86869d6531d63&#45;&gt;dir_bc0718b08fb2015b8e59c47b2805f60c</title>
<path fill="none" stroke="black" d="M774.477,-71.964C767.747,-65.9939 759.544,-59.8296 751,-56 683.977,-25.9582 597.026,-19.6697 548.311,-18.7177"/>
<polygon fill="black" stroke="black" points="548.273,-15.217 538.228,-18.5871 548.182,-22.2165 548.273,-15.217"/>
<g id="a_edge10&#45;headlabel"><a xlink:href="dir_000010_000000.html" target="_top" xlink:title="2">
<text text-anchor="middle" x="551.904" y="-9.92447" font-family="Helvetica,sans-Serif" font-size="10.00">2</text>
</a>
</g>
</g>
<!-- dir_4e1a1a79ac2307f1c03540afa9038ea1 -->
<g id="node4" class="node"><title>dir_4e1a1a79ac2307f1c03540afa9038ea1</title>
<g id="a_node4"><a xlink:href="dir_4e1a1a79ac2307f1c03540afa9038ea1.html" target="_top" xlink:title="agent_004">
<polygon fill="white" stroke="black" points="742,-108 680,-108 680,-72 742,-72 742,-108"/>
<text text-anchor="middle" x="711" y="-87.5" font-family="Helvetica,sans-Serif" font-size="10.00">agent_004</text>
</a>
</g>
</g>
<!-- dir_4e1a1a79ac2307f1c03540afa9038ea1&#45;&gt;dir_bc0718b08fb2015b8e59c47b2805f60c -->
<g id="edge3" class="edge"><title>dir_4e1a1a79ac2307f1c03540afa9038ea1&#45;&gt;dir_bc0718b08fb2015b8e59c47b2805f60c</title>
<path fill="none" stroke="black" d="M693.929,-71.9544C687.257,-66.129 679.234,-60.0645 671,-56 631.667,-36.5846 581.823,-27.1422 548.308,-22.6981"/>
<polygon fill="black" stroke="black" points="548.388,-19.1814 538.034,-21.4245 547.527,-26.1282 548.388,-19.1814"/>
<g id="a_edge3&#45;headlabel"><a xlink:href="dir_000011_000000.html" target="_top" xlink:title="4">
<text text-anchor="middle" x="552.305" y="-14.3058" font-family="Helvetica,sans-Serif" font-size="10.00">4</text>
</a>
</g>
</g>
<!-- dir_7f19d4c5c2e20f733c2ace9f35cd3a37 -->
<g id="node5" class="node"><title>dir_7f19d4c5c2e20f733c2ace9f35cd3a37</title>
<g id="a_node5"><a xlink:href="dir_7f19d4c5c2e20f733c2ace9f35cd3a37.html" target="_top" xlink:title="agent_005">
<polygon fill="white" stroke="black" points="662,-108 600,-108 600,-72 662,-72 662,-108"/>
<text text-anchor="middle" x="631" y="-87.5" font-family="Helvetica,sans-Serif" font-size="10.00">agent_005</text>
</a>
</g>
</g>
<!-- dir_7f19d4c5c2e20f733c2ace9f35cd3a37&#45;&gt;dir_bc0718b08fb2015b8e59c47b2805f60c -->
<g id="edge1" class="edge"><title>dir_7f19d4c5c2e20f733c2ace9f35cd3a37&#45;&gt;dir_bc0718b08fb2015b8e59c47b2805f60c</title>
<path fill="none" stroke="black" d="M612.229,-71.8341C605.769,-66.3929 598.316,-60.6018 591,-56 577.424,-47.46 561.554,-39.7107 547.545,-33.5363"/>
<polygon fill="black" stroke="black" points="548.764,-30.2509 538.194,-29.5228 546.003,-36.6834 548.764,-30.2509"/>
<g id="a_edge1&#45;headlabel"><a xlink:href="dir_000012_000000.html" target="_top" xlink:title="4">
<text text-anchor="middle" x="553.187" y="-26.5595" font-family="Helvetica,sans-Serif" font-size="10.00">4</text>
</a>
</g>
</g>
<!-- dir_b739a05bf8e9dc402ec436a832ad5153 -->
<g id="node6" class="node"><title>dir_b739a05bf8e9dc402ec436a832ad5153</title>
<g id="a_node6"><a xlink:href="dir_b739a05bf8e9dc402ec436a832ad5153.html" target="_top" xlink:title="agent_006">
<polygon fill="white" stroke="black" points="582,-108 520,-108 520,-72 582,-72 582,-108"/>
<text text-anchor="middle" x="551" y="-87.5" font-family="Helvetica,sans-Serif" font-size="10.00">agent_006</text>
</a>
</g>
</g>
<!-- dir_b739a05bf8e9dc402ec436a832ad5153&#45;&gt;dir_bc0718b08fb2015b8e59c47b2805f60c -->
<g id="edge8" class="edge"><title>dir_b739a05bf8e9dc402ec436a832ad5153&#45;&gt;dir_bc0718b08fb2015b8e59c47b2805f60c</title>
<path fill="none" stroke="black" d="M541.112,-71.6966C536.511,-63.6436 530.94,-53.8945 525.847,-44.9824"/>
<polygon fill="black" stroke="black" points="528.774,-43.0503 520.774,-36.1043 522.696,-46.5233 528.774,-43.0503"/>
<g id="a_edge8&#45;headlabel"><a xlink:href="dir_000013_000000.html" target="_top" xlink:title="2">
<text text-anchor="middle" x="533.023" y="-42.2626" font-family="Helvetica,sans-Serif" font-size="10.00">2</text>
</a>
</g>
</g>
<!-- dir_fe7a18ad938dd96e26e16a474abaa72f -->
<g id="node7" class="node"><title>dir_fe7a18ad938dd96e26e16a474abaa72f</title>
<g id="a_node7"><a xlink:href="dir_fe7a18ad938dd96e26e16a474abaa72f.html" target="_top" xlink:title="agent_008">
<polygon fill="white" stroke="black" points="502,-108 440,-108 440,-72 502,-72 502,-108"/>
<text text-anchor="middle" x="471" y="-87.5" font-family="Helvetica,sans-Serif" font-size="10.00">agent_008</text>
</a>
</g>
</g>
<!-- dir_fe7a18ad938dd96e26e16a474abaa72f&#45;&gt;dir_bc0718b08fb2015b8e59c47b2805f60c -->
<g id="edge2" class="edge"><title>dir_fe7a18ad938dd96e26e16a474abaa72f&#45;&gt;dir_bc0718b08fb2015b8e59c47b2805f60c</title>
<path fill="none" stroke="black" d="M480.888,-71.6966C485.489,-63.6436 491.06,-53.8945 496.153,-44.9824"/>
<polygon fill="black" stroke="black" points="499.304,-46.5233 501.226,-36.1043 493.226,-43.0503 499.304,-46.5233"/>
<g id="a_edge2&#45;headlabel"><a xlink:href="dir_000014_000000.html" target="_top" xlink:title="4">
<text text-anchor="middle" x="499.985" y="-48.5529" font-family="Helvetica,sans-Serif" font-size="10.00">4</text>
</a>
</g>
</g>
<!-- dir_bea6445d82c9776923745ed4e9b889aa -->
<g id="node8" class="node"><title>dir_bea6445d82c9776923745ed4e9b889aa</title>
<g id="a_node8"><a xlink:href="dir_bea6445d82c9776923745ed4e9b889aa.html" target="_top" xlink:title="agent_add_soh">
<polygon fill="white" stroke="black" points="421.5,-108 338.5,-108 338.5,-72 421.5,-72 421.5,-108"/>
<text text-anchor="middle" x="380" y="-87.5" font-family="Helvetica,sans-Serif" font-size="10.00">agent_add_soh</text>
</a>
</g>
</g>
<!-- dir_bea6445d82c9776923745ed4e9b889aa&#45;&gt;dir_bc0718b08fb2015b8e59c47b2805f60c -->
<g id="edge9" class="edge"><title>dir_bea6445d82c9776923745ed4e9b889aa&#45;&gt;dir_bc0718b08fb2015b8e59c47b2805f60c</title>
<path fill="none" stroke="black" d="M404.732,-71.999C412.94,-66.6275 422.226,-60.8362 431,-56 444.938,-48.3178 460.754,-40.771 474.622,-34.5173"/>
<polygon fill="black" stroke="black" points="476.149,-37.669 483.865,-30.4088 473.306,-31.2724 476.149,-37.669"/>
<g id="a_edge9&#45;headlabel"><a xlink:href="dir_000015_000000.html" target="_top" xlink:title="4">
<text text-anchor="middle" x="474.018" y="-39.2235" font-family="Helvetica,sans-Serif" font-size="10.00">4</text>
</a>
</g>
</g>
<!-- dir_c61fd5d57179b8cbb7011821504466b0 -->
<g id="node9" class="node"><title>dir_c61fd5d57179b8cbb7011821504466b0</title>
<g id="a_node9"><a xlink:href="dir_c61fd5d57179b8cbb7011821504466b0.html" target="_top" xlink:title="agent_calc">
<polygon fill="white" stroke="black" points="320,-108 256,-108 256,-72 320,-72 320,-108"/>
<text text-anchor="middle" x="288" y="-87.5" font-family="Helvetica,sans-Serif" font-size="10.00">agent_calc</text>
</a>
</g>
</g>
<!-- dir_c61fd5d57179b8cbb7011821504466b0&#45;&gt;dir_bc0718b08fb2015b8e59c47b2805f60c -->
<g id="edge6" class="edge"><title>dir_c61fd5d57179b8cbb7011821504466b0&#45;&gt;dir_bc0718b08fb2015b8e59c47b2805f60c</title>
<path fill="none" stroke="black" d="M305.993,-71.858C313.007,-66.0221 321.417,-59.9757 330,-56 376.686,-34.3735 435.935,-25.322 473.67,-21.5778"/>
<polygon fill="black" stroke="black" points="474.076,-25.0553 483.715,-20.6564 473.437,-18.0846 474.076,-25.0553"/>
<g id="a_edge6&#45;headlabel"><a xlink:href="dir_000018_000000.html" target="_top" xlink:title="4">
<text text-anchor="middle" x="470.756" y="-25.711" font-family="Helvetica,sans-Serif" font-size="10.00">4</text>
</a>
</g>
</g>
<!-- dir_f577775fa0598a1713ac5ec153134318 -->
<g id="node10" class="node"><title>dir_f577775fa0598a1713ac5ec153134318</title>
<g id="a_node10"><a xlink:href="dir_f577775fa0598a1713ac5ec153134318.html" target="_top" xlink:title="agent_cpu_device_test">
<polygon fill="white" stroke="black" points="237.5,-108 120.5,-108 120.5,-72 237.5,-72 237.5,-108"/>
<text text-anchor="middle" x="179" y="-87.5" font-family="Helvetica,sans-Serif" font-size="10.00">agent_cpu_device_test</text>
</a>
</g>
</g>
<!-- dir_f577775fa0598a1713ac5ec153134318&#45;&gt;dir_bc0718b08fb2015b8e59c47b2805f60c -->
<g id="edge4" class="edge"><title>dir_f577775fa0598a1713ac5ec153134318&#45;&gt;dir_bc0718b08fb2015b8e59c47b2805f60c</title>
<path fill="none" stroke="black" d="M208.979,-71.9457C220.537,-66.0474 234.07,-59.9365 247,-56 325.493,-32.1032 421.881,-23.5598 473.734,-20.5653"/>
<polygon fill="black" stroke="black" points="474,-24.0561 483.797,-20.0221 473.623,-17.0663 474,-24.0561"/>
<g id="a_edge4&#45;headlabel"><a xlink:href="dir_000019_000000.html" target="_top" xlink:title="4">
<text text-anchor="middle" x="470.564" y="-24.5849" font-family="Helvetica,sans-Serif" font-size="10.00">4</text>
</a>
</g>
</g>
<!-- dir_bed6ad3ccde05cebfcb9c5288df58571 -->
<g id="node11" class="node"><title>dir_bed6ad3ccde05cebfcb9c5288df58571</title>
<g id="a_node11"><a xlink:href="dir_bed6ad3ccde05cebfcb9c5288df58571.html" target="_top" xlink:title="agent_talkfree">
<polygon fill="white" stroke="black" points="102,-108 24,-108 24,-72 102,-72 102,-108"/>
<text text-anchor="middle" x="63" y="-87.5" font-family="Helvetica,sans-Serif" font-size="10.00">agent_talkfree</text>
</a>
</g>
</g>
<!-- dir_bed6ad3ccde05cebfcb9c5288df58571&#45;&gt;dir_bc0718b08fb2015b8e59c47b2805f60c -->
<g id="edge5" class="edge"><title>dir_bed6ad3ccde05cebfcb9c5288df58571&#45;&gt;dir_bc0718b08fb2015b8e59c47b2805f60c</title>
<path fill="none" stroke="black" d="M83.6843,-71.7033C91.9826,-65.7012 101.953,-59.5831 112,-56 178.126,-32.4166 387.995,-23.0212 473.849,-20.101"/>
<polygon fill="black" stroke="black" points="474.046,-23.5965 483.925,-19.7689 473.815,-16.6003 474.046,-23.5965"/>
<g id="a_edge5&#45;headlabel"><a xlink:href="dir_000022_000000.html" target="_top" xlink:title="2">
<text text-anchor="middle" x="470.547" y="-24.0526" font-family="Helvetica,sans-Serif" font-size="10.00">2</text>
</a>
</g>
</g>
</g>
</svg>
