<?xml version="1.0" encoding="UTF-8" standalone="no"?>
<!DOCTYPE svg PUBLIC "-//W3C//DTD SVG 1.1//EN"
 "http://www.w3.org/Graphics/SVG/1.1/DTD/svg11.dtd">
<!-- Generated by graphviz version 2.38.0 (20140413.2041)
 -->
<!-- Title: libraries Pages: 1 -->
<svg width="210pt" height="364pt"
 viewBox="0.00 0.00 210.00 364.00" xmlns="http://www.w3.org/2000/svg" xmlns:xlink="http://www.w3.org/1999/xlink">
<g id="graph0" class="graph" transform="scale(1 1) rotate(0) translate(4 360)">
<title>libraries</title>
<polygon fill="white" stroke="none" points="-4,4 -4,-360 206,-360 206,4 -4,4"/>
<g id="clust1" class="cluster"><title>clusterdir_bc0718b08fb2015b8e59c47b2805f60c</title>
<g id="a_clust1"><a xlink:href="dir_bc0718b08fb2015b8e59c47b2805f60c.html" target="_top">
<polygon fill="#eeeeff" stroke="black" points="8,-8 8,-348 194,-348 194,-8 8,-8"/>
</a>
</g>
</g>
<!-- dir_bc0718b08fb2015b8e59c47b2805f60c -->
<g id="node1" class="node"><title>dir_bc0718b08fb2015b8e59c47b2805f60c</title>
<text text-anchor="middle" x="148" y="-319.5" font-family="Helvetica,sans-Serif" font-size="10.00">libraries</text>
</g>
<!-- dir_739af9132a68080d8ad3f48982bb0ae5 -->
<g id="node2" class="node"><title>dir_739af9132a68080d8ad3f48982bb0ae5</title>
<g id="a_node2"><a xlink:href="dir_739af9132a68080d8ad3f48982bb0ae5.html" target="_top" xlink:title="agent">
<polygon fill="white" stroke="black" points="92,-340 38,-340 38,-304 92,-304 92,-340"/>
<text text-anchor="middle" x="65" y="-319.5" font-family="Helvetica,sans-Serif" font-size="10.00">agent</text>
</a>
</g>
</g>
<!-- dir_89e1dd23c9798627a4fa5c93437cdf71 -->
<g id="node3" class="node"><title>dir_89e1dd23c9798627a4fa5c93437cdf71</title>
<g id="a_node3"><a xlink:href="dir_89e1dd23c9798627a4fa5c93437cdf71.html" target="_top" xlink:title="device">
<polygon fill="white" stroke="red" points="70,-268 16,-268 16,-232 70,-232 70,-268"/>
<text text-anchor="middle" x="43" y="-247.5" font-family="Helvetica,sans-Serif" font-size="10.00">device</text>
</a>
</g>
</g>
<!-- dir_739af9132a68080d8ad3f48982bb0ae5&#45;&gt;dir_89e1dd23c9798627a4fa5c93437cdf71 -->
<g id="edge8" class="edge"><title>dir_739af9132a68080d8ad3f48982bb0ae5&#45;&gt;dir_89e1dd23c9798627a4fa5c93437cdf71</title>
<path fill="none" stroke="black" d="M53.6461,-303.697C50.3906,-295.898 47.217,-286.509 44.8482,-277.829"/>
<polygon fill="black" stroke="black" points="48.2469,-276.993 42.4806,-268.104 41.4455,-278.648 48.2469,-276.993"/>
<g id="a_edge8&#45;headlabel"><a xlink:href="dir_000023_000001.html" target="_top" xlink:title="1">
<text text-anchor="middle" x="51.8558" y="-277.314" font-family="Helvetica,sans-Serif" font-size="10.00">1</text>
</a>
</g>
</g>
<!-- dir_566a3ff4a5a303bab03e0e4ba38c8a31 -->
<g id="node6" class="node"><title>dir_566a3ff4a5a303bab03e0e4ba38c8a31</title>
<g id="a_node6"><a xlink:href="dir_566a3ff4a5a303bab03e0e4ba38c8a31.html" target="_top" xlink:title="support">
<polygon fill="white" stroke="red" points="110,-196 56,-196 56,-160 110,-160 110,-196"/>
<text text-anchor="middle" x="83" y="-175.5" font-family="Helvetica,sans-Serif" font-size="10.00">support</text>
</a>
</g>
</g>
<!-- dir_739af9132a68080d8ad3f48982bb0ae5&#45;&gt;dir_566a3ff4a5a303bab03e0e4ba38c8a31 -->
<g id="edge7" class="edge"><title>dir_739af9132a68080d8ad3f48982bb0ae5&#45;&gt;dir_566a3ff4a5a303bab03e0e4ba38c8a31</title>
<path fill="none" stroke="black" d="M62.7454,-303.532C64.6605,-293.292 68.1605,-280.042 70,-268 73.1333,-247.488 74.0811,-224.033 75.5688,-206.352"/>
<polygon fill="black" stroke="black" points="79.0747,-206.467 76.5892,-196.168 72.1096,-205.769 79.0747,-206.467"/>
<g id="a_edge7&#45;headlabel"><a xlink:href="dir_000023_000032.html" target="_top" xlink:title="13">
<text text-anchor="middle" x="81.5416" y="-207.827" font-family="Helvetica,sans-Serif" font-size="10.00">13</text>
</a>
</g>
</g>
<!-- dir_89e1dd23c9798627a4fa5c93437cdf71&#45;&gt;dir_739af9132a68080d8ad3f48982bb0ae5 -->
<g id="edge13" class="edge"><title>dir_89e1dd23c9798627a4fa5c93437cdf71&#45;&gt;dir_739af9132a68080d8ad3f48982bb0ae5</title>
<path fill="none" stroke="black" d="M54.2707,-268.104C57.5275,-275.876 60.7086,-285.257 63.091,-293.949"/>
<polygon fill="black" stroke="black" points="59.6998,-294.816 65.4775,-303.697 66.499,-293.151 59.6998,-294.816"/>
<g id="a_edge13&#45;headlabel"><a xlink:href="dir_000001_000023.html" target="_top" xlink:title="2">
<text text-anchor="middle" x="56.0873" y="-289.499" font-family="Helvetica,sans-Serif" font-size="10.00">2</text>
</a>
</g>
</g>
<!-- dir_9a8b31d1dfb38e26822c551fe4043c03 -->
<g id="node4" class="node"><title>dir_9a8b31d1dfb38e26822c551fe4043c03</title>
<g id="a_node4"><a xlink:href="dir_9a8b31d1dfb38e26822c551fe4043c03.html" target="_top" xlink:title="math">
<polygon fill="white" stroke="black" points="70,-52 16,-52 16,-16 70,-16 70,-52"/>
<text text-anchor="middle" x="43" y="-31.5" font-family="Helvetica,sans-Serif" font-size="10.00">math</text>
</a>
</g>
</g>
<!-- dir_89e1dd23c9798627a4fa5c93437cdf71&#45;&gt;dir_9a8b31d1dfb38e26822c551fe4043c03 -->
<g id="edge11" class="edge"><title>dir_89e1dd23c9798627a4fa5c93437cdf71&#45;&gt;dir_9a8b31d1dfb38e26822c551fe4043c03</title>
<path fill="none" stroke="black" d="M41.2851,-231.598C38.6131,-202.058 34.0534,-140.222 37,-88 37.4768,-79.5491 38.3781,-70.3761 39.3399,-62.0742"/>
<polygon fill="black" stroke="black" points="42.8142,-62.4971 40.5632,-52.1441 35.8667,-61.6412 42.8142,-62.4971"/>
<g id="a_edge11&#45;headlabel"><a xlink:href="dir_000001_000034.html" target="_top" xlink:title="5">
<text text-anchor="middle" x="45.1927" y="-63.9118" font-family="Helvetica,sans-Serif" font-size="10.00">5</text>
</a>
</g>
</g>
<!-- dir_89e1dd23c9798627a4fa5c93437cdf71&#45;&gt;dir_566a3ff4a5a303bab03e0e4ba38c8a31 -->
<g id="edge12" class="edge"><title>dir_89e1dd23c9798627a4fa5c93437cdf71&#45;&gt;dir_566a3ff4a5a303bab03e0e4ba38c8a31</title>
<path fill="none" stroke="black" d="M46.9719,-231.697C50.7826,-223.559 56.2166,-213.689 61.7799,-204.701"/>
<polygon fill="black" stroke="black" points="64.8468,-206.404 67.3311,-196.104 58.9662,-202.607 64.8468,-206.404"/>
<g id="a_edge12&#45;headlabel"><a xlink:href="dir_000001_000032.html" target="_top" xlink:title="47">
<text text-anchor="middle" x="65.2821" y="-208.464" font-family="Helvetica,sans-Serif" font-size="10.00">47</text>
</a>
</g>
</g>
<!-- dir_9a8b31d1dfb38e26822c551fe4043c03&#45;&gt;dir_566a3ff4a5a303bab03e0e4ba38c8a31 -->
<g id="edge1" class="edge"><title>dir_9a8b31d1dfb38e26822c551fe4043c03&#45;&gt;dir_566a3ff4a5a303bab03e0e4ba38c8a31</title>
<path fill="none" stroke="black" d="M47.7296,-52.2305C48.6026,-70.5354 48.0506,-100.075 56,-124 59.1939,-133.612 64.6707,-143.093 69.9971,-151.318"/>
<polygon fill="black" stroke="black" points="67.1335,-153.332 75.6026,-159.698 72.9519,-149.44 67.1335,-153.332"/>
<g id="a_edge1&#45;headlabel"><a xlink:href="dir_000034_000032.html" target="_top" xlink:title="8">
<text text-anchor="middle" x="62.775" y="-149.423" font-family="Helvetica,sans-Serif" font-size="10.00">8</text>
</a>
</g>
</g>
<!-- dir_b741540ffa95870770d8883c9def5afb -->
<g id="node5" class="node"><title>dir_b741540ffa95870770d8883c9def5afb</title>
<g id="a_node5"><a xlink:href="dir_b741540ffa95870770d8883c9def5afb.html" target="_top" xlink:title="physics">
<polygon fill="white" stroke="black" points="110,-124 56,-124 56,-88 110,-88 110,-124"/>
<text text-anchor="middle" x="83" y="-103.5" font-family="Helvetica,sans-Serif" font-size="10.00">physics</text>
</a>
</g>
</g>
<!-- dir_b741540ffa95870770d8883c9def5afb&#45;&gt;dir_9a8b31d1dfb38e26822c551fe4043c03 -->
<g id="edge9" class="edge"><title>dir_b741540ffa95870770d8883c9def5afb&#45;&gt;dir_9a8b31d1dfb38e26822c551fe4043c03</title>
<path fill="none" stroke="black" d="M73.1124,-87.6966C68.5107,-79.6436 62.9397,-69.8945 57.8471,-60.9824"/>
<polygon fill="black" stroke="black" points="60.7742,-59.0503 52.7739,-52.1043 54.6965,-62.5233 60.7742,-59.0503"/>
<g id="a_edge9&#45;headlabel"><a xlink:href="dir_000033_000034.html" target="_top" xlink:title="2">
<text text-anchor="middle" x="65.0228" y="-58.2626" font-family="Helvetica,sans-Serif" font-size="10.00">2</text>
</a>
</g>
</g>
<!-- dir_b741540ffa95870770d8883c9def5afb&#45;&gt;dir_566a3ff4a5a303bab03e0e4ba38c8a31 -->
<g id="edge10" class="edge"><title>dir_b741540ffa95870770d8883c9def5afb&#45;&gt;dir_566a3ff4a5a303bab03e0e4ba38c8a31</title>
<path fill="none" stroke="black" d="M88.895,-124.104C89.7005,-131.791 89.9369,-141.054 89.604,-149.665"/>
<polygon fill="black" stroke="black" points="86.1085,-149.48 88.9157,-159.697 93.0921,-149.96 86.1085,-149.48"/>
<g id="a_edge10&#45;headlabel"><a xlink:href="dir_000033_000032.html" target="_top" xlink:title="10">
<text text-anchor="middle" x="83.5219" y="-143.2" font-family="Helvetica,sans-Serif" font-size="10.00">10</text>
</a>
</g>
</g>
<!-- dir_566a3ff4a5a303bab03e0e4ba38c8a31&#45;&gt;dir_739af9132a68080d8ad3f48982bb0ae5 -->
<g id="edge3" class="edge"><title>dir_566a3ff4a5a303bab03e0e4ba38c8a31&#45;&gt;dir_739af9132a68080d8ad3f48982bb0ae5</title>
<path fill="none" stroke="black" d="M90.0278,-196.168C92.3804,-214.17 91.7836,-243.231 88,-268 86.6922,-276.561 84.5452,-285.733 81.9166,-293.999"/>
<polygon fill="black" stroke="black" points="78.5793,-292.937 78.4954,-303.532 85.1678,-295.302 78.5793,-292.937"/>
<g id="a_edge3&#45;headlabel"><a xlink:href="dir_000032_000023.html" target="_top" xlink:title="1">
<text text-anchor="middle" x="77.1211" y="-286.095" font-family="Helvetica,sans-Serif" font-size="10.00">1</text>
</a>
</g>
</g>
<!-- dir_566a3ff4a5a303bab03e0e4ba38c8a31&#45;&gt;dir_89e1dd23c9798627a4fa5c93437cdf71 -->
<g id="edge6" class="edge"><title>dir_566a3ff4a5a303bab03e0e4ba38c8a31&#45;&gt;dir_89e1dd23c9798627a4fa5c93437cdf71</title>
<path fill="none" stroke="black" d="M79.1211,-196.104C75.337,-204.214 69.9175,-214.076 64.3564,-223.078"/>
<polygon fill="black" stroke="black" points="61.2776,-221.395 58.8034,-231.697 67.1619,-225.186 61.2776,-221.395"/>
<g id="a_edge6&#45;headlabel"><a xlink:href="dir_000032_000001.html" target="_top" xlink:title="2">
<text text-anchor="middle" x="60.8378" y="-214.335" font-family="Helvetica,sans-Serif" font-size="10.00">2</text>
</a>
</g>
</g>
<!-- dir_566a3ff4a5a303bab03e0e4ba38c8a31&#45;&gt;dir_9a8b31d1dfb38e26822c551fe4043c03 -->
<g id="edge2" class="edge"><title>dir_566a3ff4a5a303bab03e0e4ba38c8a31&#45;&gt;dir_9a8b31d1dfb38e26822c551fe4043c03</title>
<path fill="none" stroke="black" d="M59.6482,-159.698C50.9313,-149.933 42.3491,-137.089 38,-124 31.3858,-104.094 30.657,-80.3004 32.7722,-62.3255"/>
<polygon fill="black" stroke="black" points="36.2636,-62.6558 34.376,-52.2305 29.3503,-61.5575 36.2636,-62.6558"/>
<g id="a_edge2&#45;headlabel"><a xlink:href="dir_000032_000034.html" target="_top" xlink:title="14">
<text text-anchor="middle" x="38.5038" y="-64.1514" font-family="Helvetica,sans-Serif" font-size="10.00">14</text>
</a>
</g>
</g>
<!-- dir_566a3ff4a5a303bab03e0e4ba38c8a31&#45;&gt;dir_b741540ffa95870770d8883c9def5afb -->
<g id="edge4" class="edge"><title>dir_566a3ff4a5a303bab03e0e4ba38c8a31&#45;&gt;dir_b741540ffa95870770d8883c9def5afb</title>
<path fill="none" stroke="black" d="M77.0843,-159.697C76.2886,-151.983 76.0621,-142.712 76.4047,-134.112"/>
<polygon fill="black" stroke="black" points="79.8984,-134.324 77.105,-124.104 72.9154,-133.836 79.8984,-134.324"/>
<g id="a_edge4&#45;headlabel"><a xlink:href="dir_000032_000033.html" target="_top" xlink:title="1">
<text text-anchor="middle" x="82.4799" y="-135.608" font-family="Helvetica,sans-Serif" font-size="10.00">1</text>
</a>
</g>
</g>
<!-- dir_5773f15e83476c19a1fcaed287799864 -->
<g id="node7" class="node"><title>dir_5773f15e83476c19a1fcaed287799864</title>
<g id="a_node7"><a xlink:href="dir_5773f15e83476c19a1fcaed287799864.html" target="_top" xlink:title="thirdparty">
<polygon fill="white" stroke="red" points="185.5,-124 128.5,-124 128.5,-88 185.5,-88 185.5,-124"/>
<text text-anchor="middle" x="157" y="-103.5" font-family="Helvetica,sans-Serif" font-size="10.00">thirdparty</text>
</a>
</g>
</g>
<!-- dir_566a3ff4a5a303bab03e0e4ba38c8a31&#45;&gt;dir_5773f15e83476c19a1fcaed287799864 -->
<g id="edge5" class="edge"><title>dir_566a3ff4a5a303bab03e0e4ba38c8a31&#45;&gt;dir_5773f15e83476c19a1fcaed287799864</title>
<path fill="none" stroke="black" d="M101.292,-159.697C110.433,-151.05 121.64,-140.449 131.6,-131.027"/>
<polygon fill="black" stroke="black" points="134.059,-133.519 138.918,-124.104 129.248,-128.434 134.059,-133.519"/>
<g id="a_edge5&#45;headlabel"><a xlink:href="dir_000032_000003.html" target="_top" xlink:title="2">
<text text-anchor="middle" x="133.399" y="-135.552" font-family="Helvetica,sans-Serif" font-size="10.00">2</text>
</a>
</g>
</g>
</g>
</svg>
