<?xml version="1.0" encoding="UTF-8" standalone="no"?>
<!DOCTYPE svg PUBLIC "-//W3C//DTD SVG 1.1//EN"
 "http://www.w3.org/Graphics/SVG/1.1/DTD/svg11.dtd">
<!-- Generated by graphviz version 2.38.0 (20140413.2041)
 -->
<!-- Title: elapsedtime.h Pages: 1 -->
<svg width="3845pt" height="263pt"
 viewBox="0.00 0.00 3844.91 263.00" xmlns="http://www.w3.org/2000/svg" xmlns:xlink="http://www.w3.org/1999/xlink">
<g id="graph0" class="graph" transform="scale(1 1) rotate(0) translate(4 259)">
<title>elapsedtime.h</title>
<polygon fill="white" stroke="none" points="-4,4 -4,-259 3840.91,-259 3840.91,4 -4,4"/>
<!-- Node1 -->
<g id="node1" class="node"><title>Node1</title>
<polygon fill="#bfbfbf" stroke="black" points="1592.91,-235.5 1592.91,-254.5 1669.91,-254.5 1669.91,-235.5 1592.91,-235.5"/>
<text text-anchor="middle" x="1631.41" y="-242.5" font-family="Helvetica,sans-Serif" font-size="10.00">elapsedtime.h</text>
</g>
<!-- Node2 -->
<g id="node2" class="node"><title>Node2</title>
<g id="a_node2"><a xlink:href="agent__001_8cpp.html" target="_top" xlink:title="agent_001.cpp">
<polygon fill="white" stroke="black" points="13.4072,-56.5 13.4072,-75.5 93.4072,-75.5 93.4072,-56.5 13.4072,-56.5"/>
<text text-anchor="middle" x="53.4072" y="-63.5" font-family="Helvetica,sans-Serif" font-size="10.00">agent_001.cpp</text>
</a>
</g>
</g>
<!-- Node1&#45;&gt;Node2 -->
<g id="edge1" class="edge"><title>Node1&#45;&gt;Node2</title>
<path fill="none" stroke="midnightblue" d="M1582.63,-243.968C1388.95,-243.56 673.88,-239.295 451.407,-199 300.978,-171.754 129.528,-100.384 72.7695,-75.6151"/>
<polygon fill="midnightblue" stroke="midnightblue" points="1582.78,-247.468 1592.79,-243.987 1582.79,-240.468 1582.78,-247.468"/>
</g>
<!-- Node3 -->
<g id="node3" class="node"><title>Node3</title>
<g id="a_node3"><a xlink:href="agent__004_8cpp.html" target="_top" xlink:title="agent_004.cpp">
<polygon fill="white" stroke="black" points="111.407,-56.5 111.407,-75.5 191.407,-75.5 191.407,-56.5 111.407,-56.5"/>
<text text-anchor="middle" x="151.407" y="-63.5" font-family="Helvetica,sans-Serif" font-size="10.00">agent_004.cpp</text>
</a>
</g>
</g>
<!-- Node1&#45;&gt;Node3 -->
<g id="edge2" class="edge"><title>Node1&#45;&gt;Node3</title>
<path fill="none" stroke="midnightblue" d="M1582.7,-243.532C1403.48,-241.556 780.953,-232.391 585.407,-199 422.381,-171.162 234.776,-100.171 172.619,-75.5578"/>
<polygon fill="midnightblue" stroke="midnightblue" points="1582.84,-247.033 1592.88,-243.641 1582.92,-240.034 1582.84,-247.033"/>
</g>
<!-- Node4 -->
<g id="node4" class="node"><title>Node4</title>
<g id="a_node4"><a xlink:href="agent__005_8cpp.html" target="_top" xlink:title="agent_005.cpp">
<polygon fill="white" stroke="black" points="209.407,-56.5 209.407,-75.5 289.407,-75.5 289.407,-56.5 209.407,-56.5"/>
<text text-anchor="middle" x="249.407" y="-63.5" font-family="Helvetica,sans-Serif" font-size="10.00">agent_005.cpp</text>
</a>
</g>
</g>
<!-- Node1&#45;&gt;Node4 -->
<g id="edge3" class="edge"><title>Node1&#45;&gt;Node4</title>
<path fill="none" stroke="midnightblue" d="M1582.5,-242.942C1420.02,-239.21 899.141,-225.433 733.407,-199 553.002,-170.227 343.307,-99.9903 273.427,-75.551"/>
<polygon fill="midnightblue" stroke="midnightblue" points="1582.6,-246.445 1592.68,-243.174 1582.76,-239.447 1582.6,-246.445"/>
</g>
<!-- Node5 -->
<g id="node5" class="node"><title>Node5</title>
<g id="a_node5"><a xlink:href="agent__008_8cpp.html" target="_top" xlink:title="agent_008.cpp">
<polygon fill="white" stroke="black" points="307.407,-56.5 307.407,-75.5 387.407,-75.5 387.407,-56.5 307.407,-56.5"/>
<text text-anchor="middle" x="347.407" y="-63.5" font-family="Helvetica,sans-Serif" font-size="10.00">agent_008.cpp</text>
</a>
</g>
</g>
<!-- Node1&#45;&gt;Node5 -->
<g id="edge4" class="edge"><title>Node1&#45;&gt;Node5</title>
<path fill="none" stroke="midnightblue" d="M1582.71,-243.874C1465.11,-242.946 1156.56,-236.781 902.407,-199 697.415,-168.527 456.733,-99.679 375.664,-75.5497"/>
<polygon fill="midnightblue" stroke="midnightblue" points="1582.81,-247.375 1592.83,-243.945 1582.85,-240.375 1582.81,-247.375"/>
</g>
<!-- Node6 -->
<g id="node6" class="node"><title>Node6</title>
<g id="a_node6"><a xlink:href="agent__add__soh_8cpp.html" target="_top" xlink:title="agent_add_soh.cpp">
<polygon fill="white" stroke="black" points="405.907,-56.5 405.907,-75.5 506.907,-75.5 506.907,-56.5 405.907,-56.5"/>
<text text-anchor="middle" x="456.407" y="-63.5" font-family="Helvetica,sans-Serif" font-size="10.00">agent_add_soh.cpp</text>
</a>
</g>
</g>
<!-- Node1&#45;&gt;Node6 -->
<g id="edge5" class="edge"><title>Node1&#45;&gt;Node6</title>
<path fill="none" stroke="midnightblue" d="M1582.61,-242.128C1485.95,-237.957 1263.48,-226.054 1078.41,-199 850.663,-165.707 581.299,-99.0852 489.18,-75.5084"/>
<polygon fill="midnightblue" stroke="midnightblue" points="1582.53,-245.627 1592.67,-242.553 1582.82,-238.634 1582.53,-245.627"/>
</g>
<!-- Node7 -->
<g id="node7" class="node"><title>Node7</title>
<g id="a_node7"><a xlink:href="agent__cpu__device__test_8cpp.html" target="_top" xlink:title="agent_cpu_device_test.cpp">
<polygon fill="white" stroke="black" points="525.407,-56.5 525.407,-75.5 661.407,-75.5 661.407,-56.5 525.407,-56.5"/>
<text text-anchor="middle" x="593.407" y="-63.5" font-family="Helvetica,sans-Serif" font-size="10.00">agent_cpu_device_test.cpp</text>
</a>
</g>
</g>
<!-- Node1&#45;&gt;Node7 -->
<g id="edge6" class="edge"><title>Node1&#45;&gt;Node7</title>
<path fill="none" stroke="midnightblue" d="M1582.53,-239.526C1509.71,-232.571 1368.52,-217.967 1249.41,-199 1011.92,-161.183 729.587,-98.2185 630.206,-75.5003"/>
<polygon fill="midnightblue" stroke="midnightblue" points="1582.48,-243.037 1592.77,-240.497 1583.14,-236.068 1582.48,-243.037"/>
</g>
<!-- Node8 -->
<g id="node8" class="node"><title>Node8</title>
<g id="a_node8"><a xlink:href="agent__generic__device__test_8cpp.html" target="_top" xlink:title="agent_generic_device\l_test.cpp">
<polygon fill="white" stroke="black" points="1763.91,-168.5 1763.91,-198.5 1874.91,-198.5 1874.91,-168.5 1763.91,-168.5"/>
<text text-anchor="start" x="1771.91" y="-186.5" font-family="Helvetica,sans-Serif" font-size="10.00">agent_generic_device</text>
<text text-anchor="middle" x="1819.41" y="-175.5" font-family="Helvetica,sans-Serif" font-size="10.00">_test.cpp</text>
</a>
</g>
</g>
<!-- Node1&#45;&gt;Node8 -->
<g id="edge7" class="edge"><title>Node1&#45;&gt;Node8</title>
<path fill="none" stroke="midnightblue" d="M1668.2,-232.357C1698.83,-222.662 1742.54,-208.826 1775.1,-198.523"/>
<polygon fill="midnightblue" stroke="midnightblue" points="1666.82,-229.121 1658.34,-235.475 1668.93,-235.795 1666.82,-229.121"/>
</g>
<!-- Node9 -->
<g id="node9" class="node"><title>Node9</title>
<g id="a_node9"><a xlink:href="playground_8cpp.html" target="_top" xlink:title="playground.cpp">
<polygon fill="white" stroke="black" points="1892.91,-174 1892.91,-193 1975.91,-193 1975.91,-174 1892.91,-174"/>
<text text-anchor="middle" x="1934.41" y="-181" font-family="Helvetica,sans-Serif" font-size="10.00">playground.cpp</text>
</a>
</g>
</g>
<!-- Node1&#45;&gt;Node9 -->
<g id="edge8" class="edge"><title>Node1&#45;&gt;Node9</title>
<path fill="none" stroke="midnightblue" d="M1680.36,-236.872C1731.56,-229.051 1814.09,-215.401 1884.41,-199 1891.8,-197.276 1899.73,-195.122 1907.04,-193.006"/>
<polygon fill="midnightblue" stroke="midnightblue" points="1679.61,-233.447 1670.24,-238.405 1680.65,-240.368 1679.61,-233.447"/>
</g>
<!-- Node10 -->
<g id="node10" class="node"><title>Node10</title>
<g id="a_node10"><a xlink:href="agentclass_8h.html" target="_top" xlink:title="Agent Server and Client header file. ">
<polygon fill="white" stroke="red" points="1504.41,-112.5 1504.41,-131.5 1576.41,-131.5 1576.41,-112.5 1504.41,-112.5"/>
<text text-anchor="middle" x="1540.41" y="-119.5" font-family="Helvetica,sans-Serif" font-size="10.00">agentclass.h</text>
</a>
</g>
</g>
<!-- Node1&#45;&gt;Node10 -->
<g id="edge9" class="edge"><title>Node1&#45;&gt;Node10</title>
<path fill="none" stroke="midnightblue" d="M1605.46,-230.386C1592.82,-222.637 1578.25,-211.898 1568.41,-199 1552.37,-177.983 1544.79,-146.848 1541.89,-131.79"/>
<polygon fill="midnightblue" stroke="midnightblue" points="1603.83,-233.488 1614.24,-235.488 1607.35,-227.436 1603.83,-233.488"/>
</g>
<!-- Node19 -->
<g id="node19" class="node"><title>Node19</title>
<g id="a_node19"><a xlink:href="acq__a35_8cpp.html" target="_top" xlink:title="acq_a35.cpp">
<polygon fill="white" stroke="black" points="837.407,-0.5 837.407,-19.5 909.407,-19.5 909.407,-0.5 837.407,-0.5"/>
<text text-anchor="middle" x="873.407" y="-7.5" font-family="Helvetica,sans-Serif" font-size="10.00">acq_a35.cpp</text>
</a>
</g>
</g>
<!-- Node1&#45;&gt;Node19 -->
<g id="edge53" class="edge"><title>Node1&#45;&gt;Node19</title>
<path fill="none" stroke="midnightblue" d="M1582.69,-243.637C1389.22,-241.963 674.847,-233.529 451.407,-199 247.774,-167.532 129.293,-239.892 4.40723,-76 -0.980251,-68.9298 -1.71349,-62.4459 4.40723,-56 33.5177,-25.3431 676.299,-13.8912 837.164,-11.4997"/>
<polygon fill="midnightblue" stroke="midnightblue" points="1582.8,-247.138 1592.83,-243.722 1582.86,-240.138 1582.8,-247.138"/>
</g>
<!-- Node26 -->
<g id="node26" class="node"><title>Node26</title>
<g id="a_node26"><a xlink:href="agent__cpu_8cpp.html" target="_top" xlink:title="agent_cpu.cpp">
<polygon fill="white" stroke="black" points="679.407,-56.5 679.407,-75.5 759.407,-75.5 759.407,-56.5 679.407,-56.5"/>
<text text-anchor="middle" x="719.407" y="-63.5" font-family="Helvetica,sans-Serif" font-size="10.00">agent_cpu.cpp</text>
</a>
</g>
</g>
<!-- Node1&#45;&gt;Node26 -->
<g id="edge62" class="edge"><title>Node1&#45;&gt;Node26</title>
<path fill="none" stroke="midnightblue" d="M1582.71,-234.548C1421.55,-203.272 907.456,-103.496 759.561,-74.793"/>
<polygon fill="midnightblue" stroke="midnightblue" points="1582.32,-238.038 1592.8,-236.508 1583.65,-231.166 1582.32,-238.038"/>
</g>
<!-- Node37 -->
<g id="node37" class="node"><title>Node37</title>
<g id="a_node37"><a xlink:href="agent__antenna_8cpp.html" target="_top" xlink:title="Agent Antenna for Satellite Ground Station. ">
<polygon fill="white" stroke="black" points="3648.91,-56.5 3648.91,-75.5 3747.91,-75.5 3747.91,-56.5 3648.91,-56.5"/>
<text text-anchor="middle" x="3698.41" y="-63.5" font-family="Helvetica,sans-Serif" font-size="10.00">agent_antenna.cpp</text>
</a>
</g>
</g>
<!-- Node1&#45;&gt;Node37 -->
<g id="edge63" class="edge"><title>Node1&#45;&gt;Node37</title>
<path fill="none" stroke="midnightblue" d="M1646.21,-227.448C1675.8,-194.832 1742.04,-124.338 1772.41,-112 1868.57,-72.9357 3537,-84.9783 3640.41,-76 3643.15,-75.762 3645.96,-75.4741 3648.79,-75.1495"/>
<polygon fill="midnightblue" stroke="midnightblue" points="1643.3,-225.446 1639.2,-235.216 1648.5,-230.134 1643.3,-225.446"/>
</g>
<!-- Node43 -->
<g id="node43" class="node"><title>Node43</title>
<g id="a_node43"><a xlink:href="gige__list_8cpp.html" target="_top" xlink:title="gige_list.cpp">
<polygon fill="white" stroke="black" points="3765.91,-56.5 3765.91,-75.5 3836.91,-75.5 3836.91,-56.5 3765.91,-56.5"/>
<text text-anchor="middle" x="3801.41" y="-63.5" font-family="Helvetica,sans-Serif" font-size="10.00">gige_list.cpp</text>
</a>
</g>
</g>
<!-- Node1&#45;&gt;Node43 -->
<g id="edge64" class="edge"><title>Node1&#45;&gt;Node43</title>
<path fill="none" stroke="midnightblue" d="M1653.84,-230.054C1688.81,-208.348 1752.61,-168.859 1755.41,-168 2181.15,-37.2867 3315.46,-131.013 3757.41,-76 3760.04,-75.6725 3762.75,-75.2733 3765.46,-74.8271"/>
<polygon fill="midnightblue" stroke="midnightblue" points="1651.87,-227.157 1645.22,-235.407 1655.57,-233.104 1651.87,-227.157"/>
</g>
<!-- Node44 -->
<g id="node44" class="node"><title>Node44</title>
<g id="a_node44"><a xlink:href="i2c_8cpp.html" target="_top" xlink:title="i2c.cpp">
<polygon fill="white" stroke="black" points="1994.41,-174 1994.41,-193 2042.41,-193 2042.41,-174 1994.41,-174"/>
<text text-anchor="middle" x="2018.41" y="-181" font-family="Helvetica,sans-Serif" font-size="10.00">i2c.cpp</text>
</a>
</g>
</g>
<!-- Node1&#45;&gt;Node44 -->
<g id="edge54" class="edge"><title>Node1&#45;&gt;Node44</title>
<path fill="none" stroke="midnightblue" d="M1680.25,-242.218C1749.35,-238.706 1879.07,-228.455 1985.41,-199 1990.71,-197.53 1996.27,-195.357 2001.28,-193.139"/>
<polygon fill="midnightblue" stroke="midnightblue" points="1679.92,-238.73 1670.1,-242.707 1680.26,-245.721 1679.92,-238.73"/>
</g>
<!-- Node45 -->
<g id="node45" class="node"><title>Node45</title>
<g id="a_node45"><a xlink:href="serialclass_8cpp.html" target="_top" xlink:title="serialclass.cpp">
<polygon fill="white" stroke="black" points="2060.41,-174 2060.41,-193 2142.41,-193 2142.41,-174 2060.41,-174"/>
<text text-anchor="middle" x="2101.41" y="-181" font-family="Helvetica,sans-Serif" font-size="10.00">serialclass.cpp</text>
</a>
</g>
</g>
<!-- Node1&#45;&gt;Node45 -->
<g id="edge55" class="edge"><title>Node1&#45;&gt;Node45</title>
<path fill="none" stroke="midnightblue" d="M1680.06,-241.565C1758.74,-237.007 1918.51,-225.179 2051.41,-199 2059.21,-197.463 2067.56,-195.269 2075.15,-193.052"/>
<polygon fill="midnightblue" stroke="midnightblue" points="1679.75,-238.077 1669.97,-242.135 1680.15,-245.066 1679.75,-238.077"/>
</g>
<!-- Node46 -->
<g id="node46" class="node"><title>Node46</title>
<g id="a_node46"><a xlink:href="elapsedtime_8cpp.html" target="_top" xlink:title="elapsedtime.cpp">
<polygon fill="white" stroke="black" points="1632.41,-112.5 1632.41,-131.5 1720.41,-131.5 1720.41,-112.5 1632.41,-112.5"/>
<text text-anchor="middle" x="1676.41" y="-119.5" font-family="Helvetica,sans-Serif" font-size="10.00">elapsedtime.cpp</text>
</a>
</g>
</g>
<!-- Node1&#45;&gt;Node46 -->
<g id="edge56" class="edge"><title>Node1&#45;&gt;Node46</title>
<path fill="none" stroke="midnightblue" d="M1638.21,-225.7C1648.07,-199.197 1665.93,-151.169 1673.2,-131.623"/>
<polygon fill="midnightblue" stroke="midnightblue" points="1634.85,-224.705 1634.64,-235.298 1641.41,-227.145 1634.85,-224.705"/>
</g>
<!-- Node47 -->
<g id="node47" class="node"><title>Node47</title>
<g id="a_node47"><a xlink:href="socketlib_8cpp.html" target="_top" xlink:title="socketlib.cpp">
<polygon fill="white" stroke="black" points="2160.41,-174 2160.41,-193 2234.41,-193 2234.41,-174 2160.41,-174"/>
<text text-anchor="middle" x="2197.41" y="-181" font-family="Helvetica,sans-Serif" font-size="10.00">socketlib.cpp</text>
</a>
</g>
</g>
<!-- Node1&#45;&gt;Node47 -->
<g id="edge57" class="edge"><title>Node1&#45;&gt;Node47</title>
<path fill="none" stroke="midnightblue" d="M1680.17,-243.327C1772.85,-241.27 1980.45,-232.915 2151.41,-199 2158.8,-197.534 2166.68,-195.306 2173.79,-193.034"/>
<polygon fill="midnightblue" stroke="midnightblue" points="1679.9,-239.832 1669.98,-243.538 1680.05,-246.831 1679.9,-239.832"/>
</g>
<!-- Node48 -->
<g id="node48" class="node"><title>Node48</title>
<g id="a_node48"><a xlink:href="timelib_8h.html" target="_top" xlink:title="timelib include file A library providing functions for handling various types of time. ">
<polygon fill="white" stroke="red" points="1577.91,-174 1577.91,-193 1630.91,-193 1630.91,-174 1577.91,-174"/>
<text text-anchor="middle" x="1604.41" y="-181" font-family="Helvetica,sans-Serif" font-size="10.00">timelib.h</text>
</a>
</g>
</g>
<!-- Node1&#45;&gt;Node48 -->
<g id="edge58" class="edge"><title>Node1&#45;&gt;Node48</title>
<path fill="none" stroke="midnightblue" d="M1623.39,-226.335C1618.4,-215.328 1612.2,-201.663 1608.27,-193.009"/>
<polygon fill="midnightblue" stroke="midnightblue" points="1620.22,-227.815 1627.54,-235.475 1626.59,-224.922 1620.22,-227.815"/>
</g>
<!-- Node49 -->
<g id="node49" class="node"><title>Node49</title>
<g id="a_node49"><a xlink:href="serial__listen_8cpp.html" target="_top" xlink:title="serial_listen.cpp">
<polygon fill="white" stroke="black" points="2252.91,-174 2252.91,-193 2339.91,-193 2339.91,-174 2252.91,-174"/>
<text text-anchor="middle" x="2296.41" y="-181" font-family="Helvetica,sans-Serif" font-size="10.00">serial_listen.cpp</text>
</a>
</g>
</g>
<!-- Node1&#45;&gt;Node49 -->
<g id="edge65" class="edge"><title>Node1&#45;&gt;Node49</title>
<path fill="none" stroke="midnightblue" d="M1680.24,-243.608C1784.46,-242.072 2036.07,-234.638 2243.41,-199 2251.87,-197.546 2260.93,-195.322 2269.13,-193.049"/>
<polygon fill="midnightblue" stroke="midnightblue" points="1679.98,-240.111 1670.03,-243.746 1680.08,-247.11 1679.98,-240.111"/>
</g>
<!-- Node50 -->
<g id="node50" class="node"><title>Node50</title>
<g id="a_node50"><a xlink:href="serial__talk_8cpp.html" target="_top" xlink:title="serial_talk.cpp">
<polygon fill="white" stroke="black" points="2358.41,-174 2358.41,-193 2438.41,-193 2438.41,-174 2358.41,-174"/>
<text text-anchor="middle" x="2398.41" y="-181" font-family="Helvetica,sans-Serif" font-size="10.00">serial_talk.cpp</text>
</a>
</g>
</g>
<!-- Node1&#45;&gt;Node50 -->
<g id="edge66" class="edge"><title>Node1&#45;&gt;Node50</title>
<path fill="none" stroke="midnightblue" d="M1680.35,-244.704C1797.11,-245.569 2100.79,-242.996 2349.41,-199 2357.36,-197.593 2365.85,-195.354 2373.49,-193.053"/>
<polygon fill="midnightblue" stroke="midnightblue" points="1680.33,-241.204 1670.3,-244.618 1680.27,-248.204 1680.33,-241.204"/>
</g>
<!-- Node10&#45;&gt;Node2 -->
<g id="edge10" class="edge"><title>Node10&#45;&gt;Node2</title>
<path fill="none" stroke="midnightblue" d="M1494.06,-120.488C1279.53,-117.975 381.601,-105.838 102.407,-76 99.4831,-75.6875 96.4714,-75.2993 93.447,-74.8609"/>
<polygon fill="midnightblue" stroke="midnightblue" points="1494.29,-123.991 1504.33,-120.607 1494.37,-116.991 1494.29,-123.991"/>
</g>
<!-- Node10&#45;&gt;Node3 -->
<g id="edge12" class="edge"><title>Node10&#45;&gt;Node3</title>
<path fill="none" stroke="midnightblue" d="M1494.25,-120.368C1289.18,-117.421 459.295,-103.967 200.407,-76 197.483,-75.6842 194.472,-75.2935 191.448,-74.8534"/>
<polygon fill="midnightblue" stroke="midnightblue" points="1494.33,-123.87 1504.38,-120.513 1494.43,-116.871 1494.33,-123.87"/>
</g>
<!-- Node10&#45;&gt;Node4 -->
<g id="edge13" class="edge"><title>Node10&#45;&gt;Node4</title>
<path fill="none" stroke="midnightblue" d="M1493.86,-120.221C1297.6,-116.795 536.794,-102.071 298.407,-76 295.484,-75.6803 292.473,-75.2868 289.449,-74.8446"/>
<polygon fill="midnightblue" stroke="midnightblue" points="1494.05,-123.724 1504.11,-120.398 1494.17,-116.725 1494.05,-123.724"/>
</g>
<!-- Node10&#45;&gt;Node5 -->
<g id="edge15" class="edge"><title>Node10&#45;&gt;Node5</title>
<path fill="none" stroke="midnightblue" d="M1494.06,-121.536C1338.47,-122.833 820.779,-123.077 396.407,-76 393.484,-75.6758 390.474,-75.2789 387.45,-74.8344"/>
<polygon fill="midnightblue" stroke="midnightblue" points="1494.23,-125.035 1504.2,-121.446 1494.17,-118.035 1494.23,-125.035"/>
</g>
<!-- Node10&#45;&gt;Node6 -->
<g id="edge16" class="edge"><title>Node10&#45;&gt;Node6</title>
<path fill="none" stroke="midnightblue" d="M1493.72,-120.691C1348.55,-119.355 892.245,-112.345 516.407,-76 513.367,-75.706 510.245,-75.3631 507.1,-74.9861"/>
<polygon fill="midnightblue" stroke="midnightblue" points="1494,-124.193 1504.03,-120.781 1494.06,-117.193 1494,-124.193"/>
</g>
<!-- Node10&#45;&gt;Node7 -->
<g id="edge18" class="edge"><title>Node10&#45;&gt;Node7</title>
<path fill="none" stroke="midnightblue" d="M1493.92,-119.654C1363.72,-115.656 984.474,-102.449 670.407,-76 667.591,-75.7628 664.718,-75.504 661.818,-75.2286"/>
<polygon fill="midnightblue" stroke="midnightblue" points="1494.2,-123.164 1504.3,-119.97 1494.41,-116.167 1494.2,-123.164"/>
</g>
<!-- Node11 -->
<g id="node11" class="node"><title>Node11</title>
<g id="a_node11"><a xlink:href="agent__002_8cpp.html" target="_top" xlink:title="agent_002.cpp">
<polygon fill="white" stroke="black" points="2898.41,-56.5 2898.41,-75.5 2978.41,-75.5 2978.41,-56.5 2898.41,-56.5"/>
<text text-anchor="middle" x="2938.41" y="-63.5" font-family="Helvetica,sans-Serif" font-size="10.00">agent_002.cpp</text>
</a>
</g>
</g>
<!-- Node10&#45;&gt;Node11 -->
<g id="edge11" class="edge"><title>Node10&#45;&gt;Node11</title>
<path fill="none" stroke="midnightblue" d="M1586.59,-112.429C1587.87,-112.274 1589.15,-112.13 1590.41,-112 2164.91,-52.6746 2315.01,-136.347 2889.41,-76 2892.33,-75.6927 2895.34,-75.3083 2898.37,-74.8727"/>
<polygon fill="midnightblue" stroke="midnightblue" points="1586.06,-108.969 1576.64,-113.818 1587.02,-115.902 1586.06,-108.969"/>
</g>
<!-- Node12 -->
<g id="node12" class="node"><title>Node12</title>
<g id="a_node12"><a xlink:href="agent__006_8cpp.html" target="_top" xlink:title="agent_006.cpp">
<polygon fill="white" stroke="black" points="2996.41,-56.5 2996.41,-75.5 3076.41,-75.5 3076.41,-56.5 2996.41,-56.5"/>
<text text-anchor="middle" x="3036.41" y="-63.5" font-family="Helvetica,sans-Serif" font-size="10.00">agent_006.cpp</text>
</a>
</g>
</g>
<!-- Node10&#45;&gt;Node12 -->
<g id="edge14" class="edge"><title>Node10&#45;&gt;Node12</title>
<path fill="none" stroke="midnightblue" d="M1586.59,-112.426C1587.87,-112.271 1589.15,-112.129 1590.41,-112 2208.28,-48.8024 2369.65,-140.296 2987.41,-76 2990.33,-75.6956 2993.34,-75.3133 2996.37,-74.8791"/>
<polygon fill="midnightblue" stroke="midnightblue" points="1586.06,-108.966 1576.64,-113.81 1587.02,-115.899 1586.06,-108.966"/>
</g>
<!-- Node13 -->
<g id="node13" class="node"><title>Node13</title>
<g id="a_node13"><a xlink:href="agent__calc_8cpp.html" target="_top" xlink:title="Demonstration calculator Agent. ">
<polygon fill="white" stroke="black" points="3094.91,-56.5 3094.91,-75.5 3177.91,-75.5 3177.91,-56.5 3094.91,-56.5"/>
<text text-anchor="middle" x="3136.41" y="-63.5" font-family="Helvetica,sans-Serif" font-size="10.00">agent_calc.cpp</text>
</a>
</g>
</g>
<!-- Node10&#45;&gt;Node13 -->
<g id="edge17" class="edge"><title>Node10&#45;&gt;Node13</title>
<path fill="none" stroke="midnightblue" d="M1586.59,-112.423C1587.87,-112.269 1589.15,-112.128 1590.41,-112 2251.65,-44.93 2424.05,-141.939 3085.41,-76 3088.45,-75.6967 3091.58,-75.3152 3094.73,-74.8817"/>
<polygon fill="midnightblue" stroke="midnightblue" points="1586.06,-108.963 1576.64,-113.803 1587.02,-115.896 1586.06,-108.963"/>
</g>
<!-- Node14 -->
<g id="node14" class="node"><title>Node14</title>
<g id="a_node14"><a xlink:href="agent__receive_8cpp.html" target="_top" xlink:title="agent_receive.cpp">
<polygon fill="white" stroke="black" points="3196.41,-56.5 3196.41,-75.5 3292.41,-75.5 3292.41,-56.5 3196.41,-56.5"/>
<text text-anchor="middle" x="3244.41" y="-63.5" font-family="Helvetica,sans-Serif" font-size="10.00">agent_receive.cpp</text>
</a>
</g>
</g>
<!-- Node10&#45;&gt;Node14 -->
<g id="edge19" class="edge"><title>Node10&#45;&gt;Node14</title>
<path fill="none" stroke="midnightblue" d="M1586.59,-112.42C1587.87,-112.267 1589.15,-112.127 1590.41,-112 2296.8,-40.8995 2480.3,-139.506 3187.41,-76 3190.3,-75.7401 3193.27,-75.4236 3196.26,-75.0667"/>
<polygon fill="midnightblue" stroke="midnightblue" points="1586.06,-108.96 1576.63,-113.796 1587.02,-115.894 1586.06,-108.96"/>
</g>
<!-- Node15 -->
<g id="node15" class="node"><title>Node15</title>
<g id="a_node15"><a xlink:href="agent__send_8cpp.html" target="_top" xlink:title="agent_send.cpp">
<polygon fill="white" stroke="black" points="3310.41,-56.5 3310.41,-75.5 3396.41,-75.5 3396.41,-56.5 3310.41,-56.5"/>
<text text-anchor="middle" x="3353.41" y="-63.5" font-family="Helvetica,sans-Serif" font-size="10.00">agent_send.cpp</text>
</a>
</g>
</g>
<!-- Node10&#45;&gt;Node15 -->
<g id="edge20" class="edge"><title>Node10&#45;&gt;Node15</title>
<path fill="none" stroke="midnightblue" d="M1586.59,-112.418C1587.87,-112.266 1589.15,-112.126 1590.41,-112 2347.25,-36.3946 2544.31,-149.064 3301.41,-76 3304.33,-75.7184 3307.33,-75.3665 3310.34,-74.9664"/>
<polygon fill="midnightblue" stroke="midnightblue" points="1586.06,-108.957 1576.63,-113.789 1587.02,-115.892 1586.06,-108.957"/>
</g>
<!-- Node16 -->
<g id="node16" class="node"><title>Node16</title>
<g id="a_node16"><a xlink:href="propagator__simple_8cpp.html" target="_top" xlink:title="propagator_simple.cpp">
<polygon fill="white" stroke="black" points="3414.91,-56.5 3414.91,-75.5 3529.91,-75.5 3529.91,-56.5 3414.91,-56.5"/>
<text text-anchor="middle" x="3472.41" y="-63.5" font-family="Helvetica,sans-Serif" font-size="10.00">propagator_simple.cpp</text>
</a>
</g>
</g>
<!-- Node10&#45;&gt;Node16 -->
<g id="edge21" class="edge"><title>Node10&#45;&gt;Node16</title>
<path fill="none" stroke="midnightblue" d="M1586.59,-112.416C1587.87,-112.264 1589.15,-112.125 1590.41,-112 2393.28,-32.2848 2600.95,-137.807 3405.41,-76 3408.45,-75.7662 3411.57,-75.4871 3414.71,-75.1743"/>
<polygon fill="midnightblue" stroke="midnightblue" points="1586.06,-108.955 1576.63,-113.784 1587.02,-115.89 1586.06,-108.955"/>
</g>
<!-- Node17 -->
<g id="node17" class="node"><title>Node17</title>
<g id="a_node17"><a xlink:href="agentclass_8cpp.html" target="_top" xlink:title="Agent support functions. ">
<polygon fill="white" stroke="black" points="3547.91,-56.5 3547.91,-75.5 3630.91,-75.5 3630.91,-56.5 3547.91,-56.5"/>
<text text-anchor="middle" x="3589.41" y="-63.5" font-family="Helvetica,sans-Serif" font-size="10.00">agentclass.cpp</text>
</a>
</g>
</g>
<!-- Node10&#45;&gt;Node17 -->
<g id="edge22" class="edge"><title>Node10&#45;&gt;Node17</title>
<path fill="none" stroke="midnightblue" d="M1586.59,-112.413C1587.87,-112.263 1589.15,-112.124 1590.41,-112 2452.6,-26.9894 2677.22,-161.011 3539.41,-76 3542.13,-75.7317 3544.92,-75.3964 3547.73,-75.0143"/>
<polygon fill="midnightblue" stroke="midnightblue" points="1586.06,-108.952 1576.63,-113.778 1587.02,-115.887 1586.06,-108.952"/>
</g>
<!-- Node18 -->
<g id="node18" class="node"><title>Node18</title>
<g id="a_node18"><a xlink:href="scheduler_8h.html" target="_top" xlink:title="Scheduler Class. ">
<polygon fill="white" stroke="red" points="777.907,-56.5 777.907,-75.5 844.907,-75.5 844.907,-56.5 777.907,-56.5"/>
<text text-anchor="middle" x="811.407" y="-63.5" font-family="Helvetica,sans-Serif" font-size="10.00">scheduler.h</text>
</a>
</g>
</g>
<!-- Node10&#45;&gt;Node18 -->
<g id="edge23" class="edge"><title>Node10&#45;&gt;Node18</title>
<path fill="none" stroke="midnightblue" d="M1493.96,-119.841C1383.54,-116.672 1096.85,-105.996 859.407,-76 854.781,-75.4155 849.927,-74.6668 845.156,-73.8513"/>
<polygon fill="midnightblue" stroke="midnightblue" points="1493.99,-123.344 1504.09,-120.125 1494.19,-116.346 1493.99,-123.344"/>
</g>
<!-- Node10&#45;&gt;Node19 -->
<g id="edge24" class="edge"><title>Node10&#45;&gt;Node19</title>
<path fill="none" stroke="midnightblue" d="M1494.06,-120.794C1353.54,-119.757 939.003,-113.517 892.407,-76 875.374,-62.2858 873.062,-34.187 873.072,-19.8459"/>
<polygon fill="midnightblue" stroke="midnightblue" points="1494.06,-124.294 1504.09,-120.862 1494.11,-117.294 1494.06,-124.294"/>
</g>
<!-- Node20 -->
<g id="node20" class="node"><title>Node20</title>
<g id="a_node20"><a xlink:href="acq__a35_8h.html" target="_top" xlink:title="acq_a35.h">
<polygon fill="white" stroke="black" points="901.407,-56.5 901.407,-75.5 963.407,-75.5 963.407,-56.5 901.407,-56.5"/>
<text text-anchor="middle" x="932.407" y="-63.5" font-family="Helvetica,sans-Serif" font-size="10.00">acq_a35.h</text>
</a>
</g>
</g>
<!-- Node10&#45;&gt;Node20 -->
<g id="edge25" class="edge"><title>Node10&#45;&gt;Node20</title>
<path fill="none" stroke="midnightblue" d="M1494.36,-119.156C1398.02,-114.896 1168.32,-102.627 977.407,-76 972.988,-75.3837 968.349,-74.6064 963.798,-73.7679"/>
<polygon fill="midnightblue" stroke="midnightblue" points="1494.21,-122.653 1504.35,-119.59 1494.51,-115.659 1494.21,-122.653"/>
</g>
<!-- Node21 -->
<g id="node21" class="node"><title>Node21</title>
<g id="a_node21"><a xlink:href="command__queue_8h.html" target="_top" xlink:title="Command Queue Class. ">
<polygon fill="white" stroke="red" points="1019.91,-56.5 1019.91,-75.5 1118.91,-75.5 1118.91,-56.5 1019.91,-56.5"/>
<text text-anchor="middle" x="1069.41" y="-63.5" font-family="Helvetica,sans-Serif" font-size="10.00">command_queue.h</text>
</a>
</g>
</g>
<!-- Node10&#45;&gt;Node21 -->
<g id="edge27" class="edge"><title>Node10&#45;&gt;Node21</title>
<path fill="none" stroke="midnightblue" d="M1494.02,-116.323C1418.42,-108.597 1263.93,-92.3897 1133.41,-76 1128.73,-75.4129 1123.87,-74.7761 1119,-74.1219"/>
<polygon fill="midnightblue" stroke="midnightblue" points="1493.85,-119.824 1504.16,-117.356 1494.56,-112.86 1493.85,-119.824"/>
</g>
<!-- Node22 -->
<g id="node22" class="node"><title>Node22</title>
<g id="a_node22"><a xlink:href="agent__exec_8cpp.html" target="_top" xlink:title="Executive Agent source file. ">
<polygon fill="white" stroke="black" points="959.407,-0.5 959.407,-19.5 1045.41,-19.5 1045.41,-0.5 959.407,-0.5"/>
<text text-anchor="middle" x="1002.41" y="-7.5" font-family="Helvetica,sans-Serif" font-size="10.00">agent_exec.cpp</text>
</a>
</g>
</g>
<!-- Node10&#45;&gt;Node22 -->
<g id="edge34" class="edge"><title>Node10&#45;&gt;Node22</title>
<path fill="none" stroke="midnightblue" d="M1494.18,-120.343C1371.54,-118.151 1044.91,-109.22 1010.41,-76 995.174,-61.3311 997.853,-33.6649 1000.46,-19.6317"/>
<polygon fill="midnightblue" stroke="midnightblue" points="1494.31,-123.846 1504.37,-120.518 1494.43,-116.847 1494.31,-123.846"/>
</g>
<!-- Node23 -->
<g id="node23" class="node"><title>Node23</title>
<g id="a_node23"><a xlink:href="agent__monitor_8cpp.html" target="_top" xlink:title="agent_monitor.cpp">
<polygon fill="white" stroke="black" points="1086.91,-0.5 1086.91,-19.5 1183.91,-19.5 1183.91,-0.5 1086.91,-0.5"/>
<text text-anchor="middle" x="1135.41" y="-7.5" font-family="Helvetica,sans-Serif" font-size="10.00">agent_monitor.cpp</text>
</a>
</g>
</g>
<!-- Node10&#45;&gt;Node23 -->
<g id="edge40" class="edge"><title>Node10&#45;&gt;Node23</title>
<path fill="none" stroke="midnightblue" d="M1494.11,-120.869C1405.89,-119.756 1217.9,-112.977 1166.41,-76 1147.52,-62.4361 1139.71,-34.2692 1136.86,-19.8796"/>
<polygon fill="midnightblue" stroke="midnightblue" points="1494.32,-124.371 1504.36,-120.978 1494.4,-117.372 1494.32,-124.371"/>
</g>
<!-- Node24 -->
<g id="node24" class="node"><title>Node24</title>
<g id="a_node24"><a xlink:href="agent__time_8cpp.html" target="_top" xlink:title="agent_time.cpp">
<polygon fill="white" stroke="black" points="1415.91,-0.5 1415.91,-19.5 1498.91,-19.5 1498.91,-0.5 1415.91,-0.5"/>
<text text-anchor="middle" x="1457.41" y="-7.5" font-family="Helvetica,sans-Serif" font-size="10.00">agent_time.cpp</text>
</a>
</g>
</g>
<!-- Node10&#45;&gt;Node24 -->
<g id="edge42" class="edge"><title>Node10&#45;&gt;Node24</title>
<path fill="none" stroke="midnightblue" d="M1586.43,-109.918C1621.6,-99.2185 1661,-80.9637 1641.41,-56 1624.05,-33.8821 1547.78,-21.2341 1499.05,-15.2735"/>
<polygon fill="midnightblue" stroke="midnightblue" points="1585.31,-106.599 1576.67,-112.735 1587.25,-113.324 1585.31,-106.599"/>
</g>
<!-- Node25 -->
<g id="node25" class="node"><title>Node25</title>
<g id="a_node25"><a xlink:href="agent_8cpp.html" target="_top" xlink:title="Agent control program source. ">
<polygon fill="white" stroke="black" points="1175.91,-56.5 1175.91,-75.5 1234.91,-75.5 1234.91,-56.5 1175.91,-56.5"/>
<text text-anchor="middle" x="1205.41" y="-63.5" font-family="Helvetica,sans-Serif" font-size="10.00">agent.cpp</text>
</a>
</g>
</g>
<!-- Node10&#45;&gt;Node25 -->
<g id="edge31" class="edge"><title>Node10&#45;&gt;Node25</title>
<path fill="none" stroke="midnightblue" d="M1494.07,-115.18C1435.46,-107.543 1331.55,-93.0857 1243.41,-76 1240.74,-75.4839 1237.99,-74.9094 1235.23,-74.3073"/>
<polygon fill="midnightblue" stroke="midnightblue" points="1493.76,-118.668 1504.13,-116.481 1494.66,-111.726 1493.76,-118.668"/>
</g>
<!-- Node10&#45;&gt;Node26 -->
<g id="edge32" class="edge"><title>Node10&#45;&gt;Node26</title>
<path fill="none" stroke="midnightblue" d="M1493.77,-120.285C1373.3,-118.004 1042.06,-108.979 768.407,-76 765.488,-75.6481 762.479,-75.231 759.457,-74.7721"/>
<polygon fill="midnightblue" stroke="midnightblue" points="1494.03,-123.79 1504.09,-120.473 1494.16,-116.791 1494.03,-123.79"/>
</g>
<!-- Node27 -->
<g id="node27" class="node"><title>Node27</title>
<g id="a_node27"><a xlink:href="agent__data_8cpp.html" target="_top" xlink:title="agent_data.cpp">
<polygon fill="white" stroke="black" points="1252.91,-56.5 1252.91,-75.5 1335.91,-75.5 1335.91,-56.5 1252.91,-56.5"/>
<text text-anchor="middle" x="1294.41" y="-63.5" font-family="Helvetica,sans-Serif" font-size="10.00">agent_data.cpp</text>
</a>
</g>
</g>
<!-- Node10&#45;&gt;Node27 -->
<g id="edge33" class="edge"><title>Node10&#45;&gt;Node27</title>
<path fill="none" stroke="midnightblue" d="M1494.58,-110.939C1448.17,-100.752 1377.17,-85.1671 1333.38,-75.5558"/>
<polygon fill="midnightblue" stroke="midnightblue" points="1493.86,-114.365 1504.37,-113.09 1495.36,-107.527 1493.86,-114.365"/>
</g>
<!-- Node28 -->
<g id="node28" class="node"><title>Node28</title>
<g id="a_node28"><a xlink:href="agent__file_8cpp.html" target="_top" xlink:title="File Transfer Agent source file. ">
<polygon fill="white" stroke="black" points="1353.91,-56.5 1353.91,-75.5 1430.91,-75.5 1430.91,-56.5 1353.91,-56.5"/>
<text text-anchor="middle" x="1392.41" y="-63.5" font-family="Helvetica,sans-Serif" font-size="10.00">agent_file.cpp</text>
</a>
</g>
</g>
<!-- Node10&#45;&gt;Node28 -->
<g id="edge35" class="edge"><title>Node10&#45;&gt;Node28</title>
<path fill="none" stroke="midnightblue" d="M1507.26,-108.906C1479.44,-98.7536 1440.39,-84.5063 1415.75,-75.5164"/>
<polygon fill="midnightblue" stroke="midnightblue" points="1506.36,-112.304 1516.96,-112.444 1508.76,-105.728 1506.36,-112.304"/>
</g>
<!-- Node29 -->
<g id="node29" class="node"><title>Node29</title>
<g id="a_node29"><a xlink:href="agent__file2_8cpp.html" target="_top" xlink:title="agent_file2.cpp">
<polygon fill="white" stroke="black" points="1448.91,-56.5 1448.91,-75.5 1531.91,-75.5 1531.91,-56.5 1448.91,-56.5"/>
<text text-anchor="middle" x="1490.41" y="-63.5" font-family="Helvetica,sans-Serif" font-size="10.00">agent_file2.cpp</text>
</a>
</g>
</g>
<!-- Node10&#45;&gt;Node29 -->
<g id="edge36" class="edge"><title>Node10&#45;&gt;Node29</title>
<path fill="none" stroke="midnightblue" d="M1525.33,-104.718C1516.52,-95.1997 1505.74,-83.5608 1498.51,-75.7511"/>
<polygon fill="midnightblue" stroke="midnightblue" points="1522.79,-107.123 1532.15,-112.083 1527.92,-102.367 1522.79,-107.123"/>
</g>
<!-- Node30 -->
<g id="node30" class="node"><title>Node30</title>
<g id="a_node30"><a xlink:href="agent__file3_8cpp.html" target="_top" xlink:title="agent_file3.cpp">
<polygon fill="white" stroke="black" points="1549.91,-56.5 1549.91,-75.5 1632.91,-75.5 1632.91,-56.5 1549.91,-56.5"/>
<text text-anchor="middle" x="1591.41" y="-63.5" font-family="Helvetica,sans-Serif" font-size="10.00">agent_file3.cpp</text>
</a>
</g>
</g>
<!-- Node10&#45;&gt;Node30 -->
<g id="edge37" class="edge"><title>Node10&#45;&gt;Node30</title>
<path fill="none" stroke="midnightblue" d="M1555.79,-104.718C1564.77,-95.1997 1575.77,-83.5608 1583.14,-75.7511"/>
<polygon fill="midnightblue" stroke="midnightblue" points="1553.15,-102.41 1548.83,-112.083 1558.24,-107.216 1553.15,-102.41"/>
</g>
<!-- Node31 -->
<g id="node31" class="node"><title>Node31</title>
<g id="a_node31"><a xlink:href="agent__file4_8cpp.html" target="_top" xlink:title="agent_file4.cpp">
<polygon fill="white" stroke="black" points="1689.91,-56.5 1689.91,-75.5 1772.91,-75.5 1772.91,-56.5 1689.91,-56.5"/>
<text text-anchor="middle" x="1731.41" y="-63.5" font-family="Helvetica,sans-Serif" font-size="10.00">agent_file4.cpp</text>
</a>
</g>
</g>
<!-- Node10&#45;&gt;Node31 -->
<g id="edge38" class="edge"><title>Node10&#45;&gt;Node31</title>
<path fill="none" stroke="midnightblue" d="M1580.38,-109.699C1616.43,-99.507 1668.65,-84.7429 1701.28,-75.5164"/>
<polygon fill="midnightblue" stroke="midnightblue" points="1579.34,-106.355 1570.67,-112.444 1581.25,-113.091 1579.34,-106.355"/>
</g>
<!-- Node32 -->
<g id="node32" class="node"><title>Node32</title>
<g id="a_node32"><a xlink:href="agent__forward_8cpp.html" target="_top" xlink:title="agent_forward.cpp">
<polygon fill="white" stroke="black" points="1790.91,-56.5 1790.91,-75.5 1887.91,-75.5 1887.91,-56.5 1790.91,-56.5"/>
<text text-anchor="middle" x="1839.41" y="-63.5" font-family="Helvetica,sans-Serif" font-size="10.00">agent_forward.cpp</text>
</a>
</g>
</g>
<!-- Node10&#45;&gt;Node32 -->
<g id="edge39" class="edge"><title>Node10&#45;&gt;Node32</title>
<path fill="none" stroke="midnightblue" d="M1586.44,-112.687C1642.24,-102.609 1735.78,-85.7146 1792.14,-75.537"/>
<polygon fill="midnightblue" stroke="midnightblue" points="1585.69,-109.265 1576.47,-114.486 1586.94,-116.153 1585.69,-109.265"/>
</g>
<!-- Node33 -->
<g id="node33" class="node"><title>Node33</title>
<g id="a_node33"><a xlink:href="agent__route_8cpp.html" target="_top" xlink:title="agent_route.cpp">
<polygon fill="white" stroke="black" points="1906.41,-56.5 1906.41,-75.5 1992.41,-75.5 1992.41,-56.5 1906.41,-56.5"/>
<text text-anchor="middle" x="1949.41" y="-63.5" font-family="Helvetica,sans-Serif" font-size="10.00">agent_route.cpp</text>
</a>
</g>
</g>
<!-- Node10&#45;&gt;Node33 -->
<g id="edge41" class="edge"><title>Node10&#45;&gt;Node33</title>
<path fill="none" stroke="midnightblue" d="M1586.53,-112.59C1587.84,-112.387 1589.13,-112.189 1590.41,-112 1726.3,-91.8219 1761.45,-95.7218 1897.41,-76 1900.31,-75.5791 1903.3,-75.1228 1906.31,-74.6466"/>
<polygon fill="midnightblue" stroke="midnightblue" points="1585.72,-109.177 1576.41,-114.246 1586.85,-116.085 1585.72,-109.177"/>
</g>
<!-- Node34 -->
<g id="node34" class="node"><title>Node34</title>
<g id="a_node34"><a xlink:href="agent__tunnel_8cpp.html" target="_top" xlink:title="agent_tunnel.cpp">
<polygon fill="white" stroke="black" points="2010.91,-56.5 2010.91,-75.5 2101.91,-75.5 2101.91,-56.5 2010.91,-56.5"/>
<text text-anchor="middle" x="2056.41" y="-63.5" font-family="Helvetica,sans-Serif" font-size="10.00">agent_tunnel.cpp</text>
</a>
</g>
</g>
<!-- Node10&#45;&gt;Node34 -->
<g id="edge43" class="edge"><title>Node10&#45;&gt;Node34</title>
<path fill="none" stroke="midnightblue" d="M1586.6,-112.529C1587.88,-112.344 1589.15,-112.167 1590.41,-112 1772.16,-87.7331 1819.47,-98.8217 2001.41,-76 2004.48,-75.6146 2007.64,-75.185 2010.83,-74.7282"/>
<polygon fill="midnightblue" stroke="midnightblue" points="1586.01,-109.079 1576.67,-114.074 1587.09,-115.996 1586.01,-109.079"/>
</g>
<!-- Node35 -->
<g id="node35" class="node"><title>Node35</title>
<g id="a_node35"><a xlink:href="agent__tunnel2_8cpp.html" target="_top" xlink:title="agent_tunnel2.cpp">
<polygon fill="white" stroke="black" points="2120.41,-56.5 2120.41,-75.5 2216.41,-75.5 2216.41,-56.5 2120.41,-56.5"/>
<text text-anchor="middle" x="2168.41" y="-63.5" font-family="Helvetica,sans-Serif" font-size="10.00">agent_tunnel2.cpp</text>
</a>
</g>
</g>
<!-- Node10&#45;&gt;Node35 -->
<g id="edge44" class="edge"><title>Node10&#45;&gt;Node35</title>
<path fill="none" stroke="midnightblue" d="M1586.6,-112.498C1587.88,-112.323 1589.15,-112.156 1590.41,-112 1820.75,-83.3982 1880.77,-102.125 2111.41,-76 2114.29,-75.673 2117.26,-75.3046 2120.25,-74.9083"/>
<polygon fill="midnightblue" stroke="midnightblue" points="1586.02,-109.045 1576.66,-113.996 1587.07,-115.967 1586.02,-109.045"/>
</g>
<!-- Node36 -->
<g id="node36" class="node"><title>Node36</title>
<g id="a_node36"><a xlink:href="cosmos_8cpp.html" target="_top" xlink:title="cosmos.cpp">
<polygon fill="white" stroke="black" points="2234.41,-56.5 2234.41,-75.5 2304.41,-75.5 2304.41,-56.5 2234.41,-56.5"/>
<text text-anchor="middle" x="2269.41" y="-63.5" font-family="Helvetica,sans-Serif" font-size="10.00">cosmos.cpp</text>
</a>
</g>
</g>
<!-- Node10&#45;&gt;Node36 -->
<g id="edge45" class="edge"><title>Node10&#45;&gt;Node36</title>
<path fill="none" stroke="midnightblue" d="M1586.6,-112.478C1587.88,-112.308 1589.15,-112.148 1590.41,-112 1871.14,-78.9006 1945.09,-112.419 2225.41,-76 2228.19,-75.6384 2231.06,-75.2005 2233.94,-74.7149"/>
<polygon fill="midnightblue" stroke="midnightblue" points="1586.03,-109.022 1576.65,-113.943 1587.05,-115.948 1586.03,-109.022"/>
</g>
<!-- Node10&#45;&gt;Node37 -->
<g id="edge46" class="edge"><title>Node10&#45;&gt;Node37</title>
<path fill="none" stroke="midnightblue" d="M1586.59,-112.412C1587.87,-112.262 1589.15,-112.124 1590.41,-112 2497.3,-22.998 2732.5,-154.046 3640.41,-76 3643.15,-75.7644 3645.96,-75.4783 3648.79,-75.1551"/>
<polygon fill="midnightblue" stroke="midnightblue" points="1586.07,-108.951 1576.63,-113.774 1587.01,-115.886 1586.07,-108.951"/>
</g>
<!-- Node38 -->
<g id="node38" class="node"><title>Node38</title>
<g id="a_node38"><a xlink:href="agent__control_8cpp.html" target="_top" xlink:title="Agent Control for Satellite Ground Station. ">
<polygon fill="white" stroke="black" points="2322.41,-56.5 2322.41,-75.5 2416.41,-75.5 2416.41,-56.5 2322.41,-56.5"/>
<text text-anchor="middle" x="2369.41" y="-63.5" font-family="Helvetica,sans-Serif" font-size="10.00">agent_control.cpp</text>
</a>
</g>
</g>
<!-- Node10&#45;&gt;Node38 -->
<g id="edge47" class="edge"><title>Node10&#45;&gt;Node38</title>
<path fill="none" stroke="midnightblue" d="M1586.59,-112.466C1587.88,-112.3 1589.15,-112.144 1590.41,-112 1910.05,-75.4269 1993.43,-109.576 2313.41,-76 2316.35,-75.6917 2319.36,-75.3321 2322.4,-74.9374"/>
<polygon fill="midnightblue" stroke="midnightblue" points="1586.04,-109.01 1576.65,-113.913 1587.05,-115.937 1586.04,-109.01"/>
</g>
<!-- Node39 -->
<g id="node39" class="node"><title>Node39</title>
<g id="a_node39"><a xlink:href="agent__kpc9612p_8cpp.html" target="_top" xlink:title="agent_kpc9612p.cpp">
<polygon fill="white" stroke="black" points="2434.91,-56.5 2434.91,-75.5 2541.91,-75.5 2541.91,-56.5 2434.91,-56.5"/>
<text text-anchor="middle" x="2488.41" y="-63.5" font-family="Helvetica,sans-Serif" font-size="10.00">agent_kpc9612p.cpp</text>
</a>
</g>
</g>
<!-- Node10&#45;&gt;Node39 -->
<g id="edge48" class="edge"><title>Node10&#45;&gt;Node39</title>
<path fill="none" stroke="midnightblue" d="M1586.59,-112.455C1587.88,-112.292 1589.15,-112.14 1590.41,-112 1959.59,-71.0044 2055.54,-110.308 2425.41,-76 2428.49,-75.7143 2431.65,-75.3834 2434.83,-75.0206"/>
<polygon fill="midnightblue" stroke="midnightblue" points="1586.04,-108.998 1576.64,-113.884 1587.04,-115.926 1586.04,-108.998"/>
</g>
<!-- Node40 -->
<g id="node40" class="node"><title>Node40</title>
<g id="a_node40"><a xlink:href="agent__radio_8cpp.html" target="_top" xlink:title="Agent Radio for Satellite Ground Station. ">
<polygon fill="white" stroke="black" points="2560.41,-56.5 2560.41,-75.5 2646.41,-75.5 2646.41,-56.5 2560.41,-56.5"/>
<text text-anchor="middle" x="2603.41" y="-63.5" font-family="Helvetica,sans-Serif" font-size="10.00">agent_radio.cpp</text>
</a>
</g>
</g>
<!-- Node10&#45;&gt;Node40 -->
<g id="edge49" class="edge"><title>Node10&#45;&gt;Node40</title>
<path fill="none" stroke="midnightblue" d="M1586.59,-112.445C1587.88,-112.285 1589.15,-112.136 1590.41,-112 2015.34,-66.0278 2126.32,-120.545 2551.41,-76 2554.32,-75.6944 2557.32,-75.3246 2560.34,-74.9114"/>
<polygon fill="midnightblue" stroke="midnightblue" points="1586.05,-108.987 1576.64,-113.86 1587.03,-115.917 1586.05,-108.987"/>
</g>
<!-- Node41 -->
<g id="node41" class="node"><title>Node41</title>
<g id="a_node41"><a xlink:href="agent__arduino_8cpp.html" target="_top" xlink:title="agent_arduino.cpp">
<polygon fill="white" stroke="black" points="2664.41,-56.5 2664.41,-75.5 2760.41,-75.5 2760.41,-56.5 2664.41,-56.5"/>
<text text-anchor="middle" x="2712.41" y="-63.5" font-family="Helvetica,sans-Serif" font-size="10.00">agent_arduino.cpp</text>
</a>
</g>
</g>
<!-- Node10&#45;&gt;Node41 -->
<g id="edge50" class="edge"><title>Node10&#45;&gt;Node41</title>
<path fill="none" stroke="midnightblue" d="M1586.59,-112.439C1587.88,-112.281 1589.15,-112.134 1590.41,-112 2061.36,-61.9195 2183.95,-121.017 2655.41,-76 2658.3,-75.7238 2661.27,-75.3948 2664.26,-75.0283"/>
<polygon fill="midnightblue" stroke="midnightblue" points="1586.05,-108.98 1576.64,-113.844 1587.03,-115.912 1586.05,-108.98"/>
</g>
<!-- Node42 -->
<g id="node42" class="node"><title>Node42</title>
<g id="a_node42"><a xlink:href="agent__example_8cpp.html" target="_top" xlink:title="agent_example.cpp">
<polygon fill="white" stroke="black" points="2778.91,-56.5 2778.91,-75.5 2879.91,-75.5 2879.91,-56.5 2778.91,-56.5"/>
<text text-anchor="middle" x="2829.41" y="-63.5" font-family="Helvetica,sans-Serif" font-size="10.00">agent_example.cpp</text>
</a>
</g>
</g>
<!-- Node10&#45;&gt;Node42 -->
<g id="edge51" class="edge"><title>Node10&#45;&gt;Node42</title>
<path fill="none" stroke="midnightblue" d="M1586.59,-112.434C1587.87,-112.277 1589.15,-112.132 1590.41,-112 2111.8,-57.4158 2247.27,-122.966 2769.41,-76 2772.45,-75.7263 2775.57,-75.3992 2778.72,-75.0342"/>
<polygon fill="midnightblue" stroke="midnightblue" points="1586.05,-108.974 1576.64,-113.83 1587.03,-115.907 1586.05,-108.974"/>
</g>
<!-- Node10&#45;&gt;Node43 -->
<g id="edge52" class="edge"><title>Node10&#45;&gt;Node43</title>
<path fill="none" stroke="midnightblue" d="M1586.88,-115.206C1598.77,-113.931 1611.55,-112.741 1623.41,-112 2096.77,-82.4046 3285.95,-127.744 3757.41,-76 3760.04,-75.7108 3762.75,-75.3396 3765.47,-74.9134"/>
<polygon fill="midnightblue" stroke="midnightblue" points="1586.26,-111.753 1576.71,-116.339 1587.03,-118.71 1586.26,-111.753"/>
</g>
<!-- Node20&#45;&gt;Node19 -->
<g id="edge26" class="edge"><title>Node20&#45;&gt;Node19</title>
<path fill="none" stroke="midnightblue" d="M915.513,-49.5372C904.993,-39.9087 891.839,-27.8694 883.059,-19.8339"/>
<polygon fill="midnightblue" stroke="midnightblue" points="913.188,-52.1542 922.928,-56.324 917.914,-46.9905 913.188,-52.1542"/>
</g>
<!-- Node21&#45;&gt;Node22 -->
<g id="edge28" class="edge"><title>Node21&#45;&gt;Node22</title>
<path fill="none" stroke="midnightblue" d="M1050.57,-49.8197C1038.57,-40.1452 1023.44,-27.9481 1013.37,-19.8339"/>
<polygon fill="midnightblue" stroke="midnightblue" points="1048.66,-52.7738 1058.64,-56.324 1053.05,-47.3236 1048.66,-52.7738"/>
</g>
<!-- Node21&#45;&gt;Node23 -->
<g id="edge29" class="edge"><title>Node21&#45;&gt;Node23</title>
<path fill="none" stroke="midnightblue" d="M1087.96,-49.8197C1099.79,-40.1452 1114.69,-27.9481 1124.61,-19.8339"/>
<polygon fill="midnightblue" stroke="midnightblue" points="1085.53,-47.2827 1080.01,-56.324 1089.97,-52.7004 1085.53,-47.2827"/>
</g>
<!-- Node21&#45;&gt;Node24 -->
<g id="edge30" class="edge"><title>Node21&#45;&gt;Node24</title>
<path fill="none" stroke="midnightblue" d="M1129.28,-56.6679C1208.72,-45.6114 1346.94,-26.3741 1415.86,-16.7823"/>
<polygon fill="midnightblue" stroke="midnightblue" points="1128.36,-53.2609 1118.94,-58.106 1129.33,-60.1941 1128.36,-53.2609"/>
</g>
<!-- Node48&#45;&gt;Node10 -->
<g id="edge59" class="edge"><title>Node48&#45;&gt;Node10</title>
<path fill="none" stroke="midnightblue" d="M1587.9,-167.15C1575.69,-155.806 1559.53,-140.781 1549.56,-131.509"/>
<polygon fill="midnightblue" stroke="midnightblue" points="1585.53,-169.73 1595.24,-173.975 1590.3,-164.603 1585.53,-169.73"/>
</g>
<!-- Node48&#45;&gt;Node37 -->
<g id="edge61" class="edge"><title>Node48&#45;&gt;Node37</title>
<path fill="none" stroke="midnightblue" d="M1603.72,-163.683C1604.25,-147.196 1607.98,-124.04 1623.41,-112 1667.58,-77.5237 3584.58,-80.8074 3640.41,-76 3643.15,-75.764 3645.96,-75.4776 3648.79,-75.1542"/>
<polygon fill="midnightblue" stroke="midnightblue" points="1600.22,-163.827 1603.76,-173.813 1607.22,-163.8 1600.22,-163.827"/>
</g>
<!-- Node48&#45;&gt;Node46 -->
<g id="edge60" class="edge"><title>Node48&#45;&gt;Node46</title>
<path fill="none" stroke="midnightblue" d="M1622.59,-167.473C1636.36,-156.093 1654.78,-140.869 1666.11,-131.509"/>
<polygon fill="midnightblue" stroke="midnightblue" points="1620.2,-164.907 1614.72,-173.975 1624.66,-170.303 1620.2,-164.907"/>
</g>
</g>
</svg>
