<?xml version="1.0" encoding="UTF-8" standalone="no"?>
<!DOCTYPE svg PUBLIC "-//W3C//DTD SVG 1.1//EN"
 "http://www.w3.org/Graphics/SVG/1.1/DTD/svg11.dtd">
<!-- Generated by graphviz version 2.38.0 (20140413.2041)
 -->
<!-- Title: elapsedtime.h Pages: 1 -->
<svg width="1458pt" height="196pt"
 viewBox="0.00 0.00 1457.50 196.00" xmlns="http://www.w3.org/2000/svg" xmlns:xlink="http://www.w3.org/1999/xlink">
<g id="graph0" class="graph" transform="scale(1 1) rotate(0) translate(4 192)">
<title>elapsedtime.h</title>
<polygon fill="white" stroke="none" points="-4,4 -4,-192 1453.5,-192 1453.5,4 -4,4"/>
<!-- Node1 -->
<g id="node1" class="node"><title>Node1</title>
<polygon fill="#bfbfbf" stroke="black" points="785.5,-168.5 785.5,-187.5 862.5,-187.5 862.5,-168.5 785.5,-168.5"/>
<text text-anchor="middle" x="824" y="-175.5" font-family="Helvetica,sans-Serif" font-size="10.00">elapsedtime.h</text>
</g>
<!-- Node2 -->
<g id="node2" class="node"><title>Node2</title>
<g id="a_node2"><a xlink:href="config_cosmos_8h.html" target="_top" xlink:title="Headers and definitions common to all COSMOS. ">
<polygon fill="white" stroke="black" points="672.5,-112.5 672.5,-131.5 795.5,-131.5 795.5,-112.5 672.5,-112.5"/>
<text text-anchor="middle" x="734" y="-119.5" font-family="Helvetica,sans-Serif" font-size="10.00">support/configCosmos.h</text>
</a>
</g>
</g>
<!-- Node1&#45;&gt;Node2 -->
<g id="edge1" class="edge"><title>Node1&#45;&gt;Node2</title>
<path fill="none" stroke="midnightblue" d="M809.54,-168.324C795.5,-159.9 773.952,-146.971 757.457,-137.074"/>
<polygon fill="midnightblue" stroke="midnightblue" points="758.8,-133.798 748.424,-131.655 755.198,-139.801 758.8,-133.798"/>
</g>
<!-- Node14 -->
<g id="node14" class="node"><title>Node14</title>
<polygon fill="white" stroke="#bfbfbf" points="0,-56.5 0,-75.5 54,-75.5 54,-56.5 0,-56.5"/>
<text text-anchor="middle" x="27" y="-63.5" font-family="Helvetica,sans-Serif" font-size="10.00">iostream</text>
</g>
<!-- Node1&#45;&gt;Node14 -->
<g id="edge33" class="edge"><title>Node1&#45;&gt;Node14</title>
<path fill="none" stroke="midnightblue" d="M785.347,-173.43C674.403,-162.852 345.43,-129.175 64.0434,-76.0113"/>
<polygon fill="midnightblue" stroke="midnightblue" points="64.5319,-72.5415 54.0541,-74.1118 63.2243,-79.4183 64.5319,-72.5415"/>
</g>
<!-- Node17 -->
<g id="node17" class="node"><title>Node17</title>
<polygon fill="white" stroke="#bfbfbf" points="1408.5,-56.5 1408.5,-75.5 1449.5,-75.5 1449.5,-56.5 1408.5,-56.5"/>
<text text-anchor="middle" x="1429" y="-63.5" font-family="Helvetica,sans-Serif" font-size="10.00">string</text>
</g>
<!-- Node1&#45;&gt;Node17 -->
<g id="edge34" class="edge"><title>Node1&#45;&gt;Node17</title>
<path fill="none" stroke="midnightblue" d="M823.803,-168.131C824.017,-153.757 826.766,-125.611 844,-112 890.637,-75.1667 1304,-86.2455 1398.17,-75.5452"/>
<polygon fill="midnightblue" stroke="midnightblue" points="1398.84,-78.9845 1408.24,-74.0876 1397.84,-72.0567 1398.84,-78.9845"/>
</g>
<!-- Node28 -->
<g id="node28" class="node"><title>Node28</title>
<polygon fill="white" stroke="#bfbfbf" points="852.5,-112.5 852.5,-131.5 893.5,-131.5 893.5,-112.5 852.5,-112.5"/>
<text text-anchor="middle" x="873" y="-119.5" font-family="Helvetica,sans-Serif" font-size="10.00">ctime</text>
</g>
<!-- Node1&#45;&gt;Node28 -->
<g id="edge35" class="edge"><title>Node1&#45;&gt;Node28</title>
<path fill="none" stroke="midnightblue" d="M832.091,-168.083C839.155,-160.298 849.588,-148.801 858.149,-139.367"/>
<polygon fill="midnightblue" stroke="midnightblue" points="860.931,-141.509 865.059,-131.751 855.747,-136.805 860.931,-141.509"/>
</g>
<!-- Node29 -->
<g id="node29" class="node"><title>Node29</title>
<polygon fill="white" stroke="#bfbfbf" points="912,-112.5 912,-131.5 958,-131.5 958,-112.5 912,-112.5"/>
<text text-anchor="middle" x="935" y="-119.5" font-family="Helvetica,sans-Serif" font-size="10.00">chrono</text>
</g>
<!-- Node1&#45;&gt;Node29 -->
<g id="edge36" class="edge"><title>Node1&#45;&gt;Node29</title>
<path fill="none" stroke="midnightblue" d="M841.834,-168.324C859.716,-159.625 887.475,-146.12 908.046,-136.113"/>
<polygon fill="midnightblue" stroke="midnightblue" points="909.749,-139.177 917.21,-131.655 906.687,-132.882 909.749,-139.177"/>
</g>
<!-- Node3 -->
<g id="node3" class="node"><title>Node3</title>
<polygon fill="white" stroke="#bfbfbf" points="1013.5,-56.5 1013.5,-75.5 1058.5,-75.5 1058.5,-56.5 1013.5,-56.5"/>
<text text-anchor="middle" x="1036" y="-63.5" font-family="Helvetica,sans-Serif" font-size="10.00">climits</text>
</g>
<!-- Node2&#45;&gt;Node3 -->
<g id="edge2" class="edge"><title>Node2&#45;&gt;Node3</title>
<path fill="none" stroke="midnightblue" d="M795.76,-112.663C848.472,-105.103 926.439,-92.8717 1003.47,-75.9025"/>
<polygon fill="midnightblue" stroke="midnightblue" points="1004.35,-79.2925 1013.35,-73.6992 1002.83,-72.4604 1004.35,-79.2925"/>
</g>
<!-- Node4 -->
<g id="node4" class="node"><title>Node4</title>
<polygon fill="white" stroke="#bfbfbf" points="1076.5,-56.5 1076.5,-75.5 1123.5,-75.5 1123.5,-56.5 1076.5,-56.5"/>
<text text-anchor="middle" x="1100" y="-63.5" font-family="Helvetica,sans-Serif" font-size="10.00">csignal</text>
</g>
<!-- Node2&#45;&gt;Node4 -->
<g id="edge3" class="edge"><title>Node2&#45;&gt;Node4</title>
<path fill="none" stroke="midnightblue" d="M795.79,-113.152C878.186,-102.619 1018.47,-84.431 1066.43,-75.9483"/>
<polygon fill="midnightblue" stroke="midnightblue" points="1067.16,-79.3723 1076.33,-74.0578 1065.85,-72.4967 1067.16,-79.3723"/>
</g>
<!-- Node5 -->
<g id="node5" class="node"><title>Node5</title>
<polygon fill="white" stroke="#bfbfbf" points="1142,-56.5 1142,-75.5 1188,-75.5 1188,-56.5 1142,-56.5"/>
<text text-anchor="middle" x="1165" y="-63.5" font-family="Helvetica,sans-Serif" font-size="10.00">cstdint</text>
</g>
<!-- Node2&#45;&gt;Node5 -->
<g id="edge4" class="edge"><title>Node2&#45;&gt;Node5</title>
<path fill="none" stroke="midnightblue" d="M795.798,-113.646C800.603,-113.085 805.38,-112.531 810,-112 950.277,-95.8771 989.478,-103.293 1131.72,-75.9704"/>
<polygon fill="midnightblue" stroke="midnightblue" points="1132.54,-79.3761 1141.69,-74.0313 1131.2,-72.5048 1132.54,-79.3761"/>
</g>
<!-- Node6 -->
<g id="node6" class="node"><title>Node6</title>
<polygon fill="white" stroke="#bfbfbf" points="1206,-56.5 1206,-75.5 1262,-75.5 1262,-56.5 1206,-56.5"/>
<text text-anchor="middle" x="1234" y="-63.5" font-family="Helvetica,sans-Serif" font-size="10.00">cinttypes</text>
</g>
<!-- Node2&#45;&gt;Node6 -->
<g id="edge5" class="edge"><title>Node2&#45;&gt;Node6</title>
<path fill="none" stroke="midnightblue" d="M795.787,-113.552C800.595,-113.012 805.375,-112.489 810,-112 978.514,-94.1872 1024.87,-104.095 1195.71,-75.9872"/>
<polygon fill="midnightblue" stroke="midnightblue" points="1196.52,-79.4018 1205.81,-74.3068 1195.37,-72.4968 1196.52,-79.4018"/>
</g>
<!-- Node7 -->
<g id="node7" class="node"><title>Node7</title>
<polygon fill="white" stroke="#bfbfbf" points="1280.5,-56.5 1280.5,-75.5 1323.5,-75.5 1323.5,-56.5 1280.5,-56.5"/>
<text text-anchor="middle" x="1302" y="-63.5" font-family="Helvetica,sans-Serif" font-size="10.00">cstdio</text>
</g>
<!-- Node2&#45;&gt;Node7 -->
<g id="edge6" class="edge"><title>Node2&#45;&gt;Node7</title>
<path fill="none" stroke="midnightblue" d="M795.779,-113.475C800.589,-112.953 805.372,-112.455 810,-112 1011.23,-92.2356 1067.03,-112.178 1270.35,-75.7041"/>
<polygon fill="midnightblue" stroke="midnightblue" points="1271.24,-79.0986 1280.45,-73.8663 1269.99,-72.2114 1271.24,-79.0986"/>
</g>
<!-- Node8 -->
<g id="node8" class="node"><title>Node8</title>
<polygon fill="white" stroke="#bfbfbf" points="1341.5,-56.5 1341.5,-75.5 1390.5,-75.5 1390.5,-56.5 1341.5,-56.5"/>
<text text-anchor="middle" x="1366" y="-63.5" font-family="Helvetica,sans-Serif" font-size="10.00">cstddef</text>
</g>
<!-- Node2&#45;&gt;Node8 -->
<g id="edge7" class="edge"><title>Node2&#45;&gt;Node8</title>
<path fill="none" stroke="midnightblue" d="M795.775,-113.427C800.585,-112.916 805.37,-112.433 810,-112 1038.7,-90.6008 1101.5,-114.156 1331.25,-75.9962"/>
<polygon fill="midnightblue" stroke="midnightblue" points="1331.97,-79.4237 1341.25,-74.3134 1330.81,-72.5207 1331.97,-79.4237"/>
</g>
<!-- Node9 -->
<g id="node9" class="node"><title>Node9</title>
<polygon fill="white" stroke="#bfbfbf" points="72.5,-56.5 72.5,-75.5 117.5,-75.5 117.5,-56.5 72.5,-56.5"/>
<text text-anchor="middle" x="95" y="-63.5" font-family="Helvetica,sans-Serif" font-size="10.00">cstdlib</text>
</g>
<!-- Node2&#45;&gt;Node9 -->
<g id="edge8" class="edge"><title>Node2&#45;&gt;Node9</title>
<path fill="none" stroke="midnightblue" d="M672.326,-120.489C563.843,-118.706 331.852,-110.94 127.608,-75.7123"/>
<polygon fill="midnightblue" stroke="midnightblue" points="128.05,-72.2366 117.596,-73.9594 126.843,-79.1317 128.05,-72.2366"/>
</g>
<!-- Node10 -->
<g id="node10" class="node"><title>Node10</title>
<polygon fill="white" stroke="#bfbfbf" points="136,-56.5 136,-75.5 180,-75.5 180,-56.5 136,-56.5"/>
<text text-anchor="middle" x="158" y="-63.5" font-family="Helvetica,sans-Serif" font-size="10.00">cerrno</text>
</g>
<!-- Node2&#45;&gt;Node10 -->
<g id="edge9" class="edge"><title>Node2&#45;&gt;Node10</title>
<path fill="none" stroke="midnightblue" d="M672.171,-119.912C572.383,-117.278 369.684,-108.29 190.111,-75.8443"/>
<polygon fill="midnightblue" stroke="midnightblue" points="190.691,-72.3924 180.223,-74.0295 189.427,-79.2773 190.691,-72.3924"/>
</g>
<!-- Node11 -->
<g id="node11" class="node"><title>Node11</title>
<polygon fill="white" stroke="#bfbfbf" points="198,-56.5 198,-75.5 244,-75.5 244,-56.5 198,-56.5"/>
<text text-anchor="middle" x="221" y="-63.5" font-family="Helvetica,sans-Serif" font-size="10.00">cstring</text>
</g>
<!-- Node2&#45;&gt;Node11 -->
<g id="edge10" class="edge"><title>Node2&#45;&gt;Node11</title>
<path fill="none" stroke="midnightblue" d="M672.387,-118.8C582.384,-114.803 409.671,-104.166 254.498,-75.9633"/>
<polygon fill="midnightblue" stroke="midnightblue" points="254.773,-72.4549 244.304,-74.0801 253.502,-79.3385 254.773,-72.4549"/>
</g>
<!-- Node12 -->
<g id="node12" class="node"><title>Node12</title>
<polygon fill="white" stroke="#bfbfbf" points="262,-56.5 262,-75.5 306,-75.5 306,-56.5 262,-56.5"/>
<text text-anchor="middle" x="284" y="-63.5" font-family="Helvetica,sans-Serif" font-size="10.00">cmath</text>
</g>
<!-- Node2&#45;&gt;Node12 -->
<g id="edge11" class="edge"><title>Node2&#45;&gt;Node12</title>
<path fill="none" stroke="midnightblue" d="M672.429,-117.778C592.293,-112.833 447.88,-101.358 316.104,-75.9"/>
<polygon fill="midnightblue" stroke="midnightblue" points="316.723,-72.4548 306.236,-73.9624 315.374,-79.3236 316.723,-72.4548"/>
</g>
<!-- Node13 -->
<g id="node13" class="node"><title>Node13</title>
<polygon fill="white" stroke="#bfbfbf" points="324.5,-56.5 324.5,-75.5 369.5,-75.5 369.5,-56.5 324.5,-56.5"/>
<text text-anchor="middle" x="347" y="-63.5" font-family="Helvetica,sans-Serif" font-size="10.00">iosfwd</text>
</g>
<!-- Node2&#45;&gt;Node13 -->
<g id="edge12" class="edge"><title>Node2&#45;&gt;Node13</title>
<path fill="none" stroke="midnightblue" d="M672.3,-115.972C603.283,-109.724 488.069,-97.4292 379.748,-75.8579"/>
<polygon fill="midnightblue" stroke="midnightblue" points="380.12,-72.3624 369.624,-73.8104 378.732,-79.2235 380.12,-72.3624"/>
</g>
<!-- Node2&#45;&gt;Node14 -->
<g id="edge13" class="edge"><title>Node2&#45;&gt;Node14</title>
<path fill="none" stroke="midnightblue" d="M672.072,-120.518C554.986,-118.81 293.131,-111.186 64.208,-75.8957"/>
<polygon fill="midnightblue" stroke="midnightblue" points="64.4414,-72.3897 54.0208,-74.3033 63.3603,-79.3058 64.4414,-72.3897"/>
</g>
<!-- Node15 -->
<g id="node15" class="node"><title>Node15</title>
<polygon fill="white" stroke="#bfbfbf" points="387.5,-56.5 387.5,-75.5 438.5,-75.5 438.5,-56.5 387.5,-56.5"/>
<text text-anchor="middle" x="413" y="-63.5" font-family="Helvetica,sans-Serif" font-size="10.00">unistd.h</text>
</g>
<!-- Node2&#45;&gt;Node15 -->
<g id="edge14" class="edge"><title>Node2&#45;&gt;Node15</title>
<path fill="none" stroke="midnightblue" d="M672.324,-113.032C616.407,-105.415 531.552,-92.8763 448.414,-75.9068"/>
<polygon fill="midnightblue" stroke="midnightblue" points="449.05,-72.4643 438.548,-73.8703 447.634,-79.3198 449.05,-72.4643"/>
</g>
<!-- Node16 -->
<g id="node16" class="node"><title>Node16</title>
<polygon fill="white" stroke="#bfbfbf" points="457,-56.5 457,-75.5 501,-75.5 501,-56.5 457,-56.5"/>
<text text-anchor="middle" x="479" y="-63.5" font-family="Helvetica,sans-Serif" font-size="10.00">fcntl.h</text>
</g>
<!-- Node2&#45;&gt;Node16 -->
<g id="edge15" class="edge"><title>Node2&#45;&gt;Node16</title>
<path fill="none" stroke="midnightblue" d="M689.838,-112.496C645.523,-103.828 575.366,-89.7413 515,-76 513.728,-75.7104 512.432,-75.4104 511.124,-75.1033"/>
<polygon fill="midnightblue" stroke="midnightblue" points="511.592,-71.6157 501.049,-72.6691 509.948,-78.4199 511.592,-71.6157"/>
</g>
<!-- Node2&#45;&gt;Node17 -->
<g id="edge16" class="edge"><title>Node2&#45;&gt;Node17</title>
<path fill="none" stroke="midnightblue" d="M795.771,-113.387C800.582,-112.885 805.368,-112.415 810,-112 1068.34,-88.841 1139.77,-122.401 1398.18,-75.9298"/>
<polygon fill="midnightblue" stroke="midnightblue" points="1399.03,-79.3325 1408.24,-74.0971 1397.78,-72.4458 1399.03,-79.3325"/>
</g>
<!-- Node18 -->
<g id="node18" class="node"><title>Node18</title>
<polygon fill="white" stroke="#bfbfbf" points="483,-0.5 483,-19.5 527,-19.5 527,-0.5 483,-0.5"/>
<text text-anchor="middle" x="505" y="-7.5" font-family="Helvetica,sans-Serif" font-size="10.00">vector</text>
</g>
<!-- Node2&#45;&gt;Node18 -->
<g id="edge17" class="edge"><title>Node2&#45;&gt;Node18</title>
<path fill="none" stroke="midnightblue" d="M694.656,-112.483C665.108,-105.182 624.196,-93.1154 591,-76 564.936,-62.5615 538.56,-41.2232 522.018,-26.6897"/>
<polygon fill="midnightblue" stroke="midnightblue" points="524.101,-23.8561 514.318,-19.7877 519.429,-29.0686 524.101,-23.8561"/>
</g>
<!-- Node19 -->
<g id="node19" class="node"><title>Node19</title>
<polygon fill="white" stroke="#bfbfbf" points="881.5,-56.5 881.5,-75.5 924.5,-75.5 924.5,-56.5 881.5,-56.5"/>
<text text-anchor="middle" x="903" y="-63.5" font-family="Helvetica,sans-Serif" font-size="10.00">deque</text>
</g>
<!-- Node2&#45;&gt;Node19 -->
<g id="edge18" class="edge"><title>Node2&#45;&gt;Node19</title>
<path fill="none" stroke="midnightblue" d="M760.779,-112.444C790.929,-102.81 839.859,-87.1752 871.736,-76.9896"/>
<polygon fill="midnightblue" stroke="midnightblue" points="872.981,-80.2663 881.441,-73.8886 870.85,-73.5984 872.981,-80.2663"/>
</g>
<!-- Node20 -->
<g id="node20" class="node"><title>Node20</title>
<polygon fill="white" stroke="#bfbfbf" points="545,-0.5 545,-19.5 589,-19.5 589,-0.5 545,-0.5"/>
<text text-anchor="middle" x="567" y="-7.5" font-family="Helvetica,sans-Serif" font-size="10.00">mutex</text>
</g>
<!-- Node2&#45;&gt;Node20 -->
<g id="edge19" class="edge"><title>Node2&#45;&gt;Node20</title>
<path fill="none" stroke="midnightblue" d="M694.644,-112.479C669.708,-105.653 637.792,-94.1529 614,-76 597.449,-63.3715 584.2,-43.3252 576.041,-28.8317"/>
<polygon fill="midnightblue" stroke="midnightblue" points="579.034,-27.0073 571.228,-19.8443 572.864,-30.3121 579.034,-27.0073"/>
</g>
<!-- Node21 -->
<g id="node21" class="node"><title>Node21</title>
<polygon fill="white" stroke="#bfbfbf" points="607,-0.5 607,-19.5 651,-19.5 651,-0.5 607,-0.5"/>
<text text-anchor="middle" x="629" y="-7.5" font-family="Helvetica,sans-Serif" font-size="10.00">thread</text>
</g>
<!-- Node2&#45;&gt;Node21 -->
<g id="edge20" class="edge"><title>Node2&#45;&gt;Node21</title>
<path fill="none" stroke="midnightblue" d="M680.681,-112.431C659.344,-106.1 636.823,-95.101 624,-76 614.851,-62.3717 617.673,-43.323 621.839,-29.3696"/>
<polygon fill="midnightblue" stroke="midnightblue" points="625.164,-30.4614 625.11,-19.8667 618.545,-28.1827 625.164,-30.4614"/>
</g>
<!-- Node22 -->
<g id="node22" class="node"><title>Node22</title>
<polygon fill="white" stroke="#bfbfbf" points="715.5,-0.5 715.5,-19.5 810.5,-19.5 810.5,-0.5 715.5,-0.5"/>
<text text-anchor="middle" x="763" y="-7.5" font-family="Helvetica,sans-Serif" font-size="10.00">condition_variable</text>
</g>
<!-- Node2&#45;&gt;Node22 -->
<g id="edge21" class="edge"><title>Node2&#45;&gt;Node22</title>
<path fill="none" stroke="midnightblue" d="M739.923,-112.5C745.654,-103.779 754.039,-89.6017 758,-76 762.405,-60.8715 763.498,-42.9741 763.578,-29.7936"/>
<polygon fill="midnightblue" stroke="midnightblue" points="767.076,-29.5667 763.446,-19.6131 760.076,-29.6578 767.076,-29.5667"/>
</g>
<!-- Node23 -->
<g id="node23" class="node"><title>Node23</title>
<polygon fill="white" stroke="#bfbfbf" points="828.5,-0.5 828.5,-19.5 871.5,-19.5 871.5,-0.5 828.5,-0.5"/>
<text text-anchor="middle" x="850" y="-7.5" font-family="Helvetica,sans-Serif" font-size="10.00">queue</text>
</g>
<!-- Node2&#45;&gt;Node23 -->
<g id="edge22" class="edge"><title>Node2&#45;&gt;Node23</title>
<path fill="none" stroke="midnightblue" d="M743.102,-112.368C762.584,-93.8941 808.564,-50.2926 833.398,-26.7436"/>
<polygon fill="midnightblue" stroke="midnightblue" points="836.092,-29.0121 840.94,-19.5914 831.275,-23.9327 836.092,-29.0121"/>
</g>
<!-- Node24 -->
<g id="node24" class="node"><title>Node24</title>
<polygon fill="white" stroke="#bfbfbf" points="943,-56.5 943,-75.5 995,-75.5 995,-56.5 943,-56.5"/>
<text text-anchor="middle" x="969" y="-63.5" font-family="Helvetica,sans-Serif" font-size="10.00">sstream</text>
</g>
<!-- Node2&#45;&gt;Node24 -->
<g id="edge23" class="edge"><title>Node2&#45;&gt;Node24</title>
<path fill="none" stroke="midnightblue" d="M773.548,-112.473C811.902,-104.121 871.978,-90.8211 932.871,-76.2213"/>
<polygon fill="midnightblue" stroke="midnightblue" points="933.745,-79.611 942.648,-73.8676 932.107,-72.8055 933.745,-79.611"/>
</g>
<!-- Node25 -->
<g id="node25" class="node"><title>Node25</title>
<polygon fill="white" stroke="#bfbfbf" points="889.5,-0.5 889.5,-19.5 924.5,-19.5 924.5,-0.5 889.5,-0.5"/>
<text text-anchor="middle" x="907" y="-7.5" font-family="Helvetica,sans-Serif" font-size="10.00">map</text>
</g>
<!-- Node2&#45;&gt;Node25 -->
<g id="edge24" class="edge"><title>Node2&#45;&gt;Node25</title>
<path fill="none" stroke="midnightblue" d="M747.837,-112.427C762.358,-103.413 785.834,-88.79 806,-76 833.334,-58.6637 864.654,-38.453 885.076,-25.2277"/>
<polygon fill="midnightblue" stroke="midnightblue" points="887.151,-28.0539 893.639,-19.6782 883.344,-22.1797 887.151,-28.0539"/>
</g>
<!-- Node26 -->
<g id="node26" class="node"><title>Node26</title>
<g id="a_node26"><a xlink:href="cosmos-defs_8h.html" target="_top" xlink:title="COSMOS definitions Definitions specific to the COSMOS environement. ">
<polygon fill="white" stroke="black" points="633,-56.5 633,-75.5 749,-75.5 749,-56.5 633,-56.5"/>
<text text-anchor="middle" x="691" y="-63.5" font-family="Helvetica,sans-Serif" font-size="10.00">support/cosmos&#45;defs.h</text>
</a>
</g>
</g>
<!-- Node2&#45;&gt;Node26 -->
<g id="edge25" class="edge"><title>Node2&#45;&gt;Node26</title>
<path fill="none" stroke="midnightblue" d="M726.899,-112.083C720.763,-104.377 711.73,-93.0333 704.261,-83.6531"/>
<polygon fill="midnightblue" stroke="midnightblue" points="706.936,-81.3936 697.968,-75.7511 701.46,-85.7542 706.936,-81.3936"/>
</g>
<!-- Node26&#45;&gt;Node18 -->
<g id="edge27" class="edge"><title>Node26&#45;&gt;Node18</title>
<path fill="none" stroke="midnightblue" d="M661.528,-56.4435C627.498,-46.5639 571.731,-30.3734 536.76,-20.2208"/>
<polygon fill="midnightblue" stroke="midnightblue" points="537.633,-16.8296 527.053,-17.4026 535.681,-23.552 537.633,-16.8296"/>
</g>
<!-- Node26&#45;&gt;Node20 -->
<g id="edge31" class="edge"><title>Node26&#45;&gt;Node20</title>
<path fill="none" stroke="midnightblue" d="M671.352,-56.4435C651.035,-47.5961 619.097,-33.6875 595.902,-23.5865"/>
<polygon fill="midnightblue" stroke="midnightblue" points="597.122,-20.3002 586.556,-19.5164 594.327,-26.7181 597.122,-20.3002"/>
</g>
<!-- Node26&#45;&gt;Node21 -->
<g id="edge30" class="edge"><title>Node26&#45;&gt;Node21</title>
<path fill="none" stroke="midnightblue" d="M681.039,-56.324C671.873,-48.3414 658.063,-36.3128 646.972,-26.6529"/>
<polygon fill="midnightblue" stroke="midnightblue" points="648.982,-23.7624 639.143,-19.8339 644.385,-29.041 648.982,-23.7624"/>
</g>
<!-- Node26&#45;&gt;Node22 -->
<g id="edge32" class="edge"><title>Node26&#45;&gt;Node22</title>
<path fill="none" stroke="midnightblue" d="M702.568,-56.324C713.42,-48.1849 729.881,-35.8395 742.883,-26.0874"/>
<polygon fill="midnightblue" stroke="midnightblue" points="745.321,-28.6339 751.221,-19.8339 741.121,-23.0339 745.321,-28.6339"/>
</g>
<!-- Node26&#45;&gt;Node23 -->
<g id="edge29" class="edge"><title>Node26&#45;&gt;Node23</title>
<path fill="none" stroke="midnightblue" d="M716.194,-56.4435C744.044,-46.985 788.926,-31.7421 818.933,-21.551"/>
<polygon fill="midnightblue" stroke="midnightblue" points="820.15,-24.8342 828.493,-18.3042 817.899,-18.206 820.15,-24.8342"/>
</g>
<!-- Node26&#45;&gt;Node25 -->
<g id="edge26" class="edge"><title>Node26&#45;&gt;Node25</title>
<path fill="none" stroke="midnightblue" d="M732.453,-56.4426C769.039,-48.6094 823.966,-36.1691 879.765,-20.1564"/>
<polygon fill="midnightblue" stroke="midnightblue" points="880.828,-23.4924 889.455,-17.3417 878.875,-16.7703 880.828,-23.4924"/>
</g>
<!-- Node27 -->
<g id="node27" class="node"><title>Node27</title>
<polygon fill="white" stroke="#bfbfbf" points="668.5,-0.5 668.5,-19.5 697.5,-19.5 697.5,-0.5 668.5,-0.5"/>
<text text-anchor="middle" x="683" y="-7.5" font-family="Helvetica,sans-Serif" font-size="10.00">list</text>
</g>
<!-- Node26&#45;&gt;Node27 -->
<g id="edge28" class="edge"><title>Node26&#45;&gt;Node27</title>
<path fill="none" stroke="midnightblue" d="M689.679,-56.083C688.619,-48.9272 687.094,-38.6353 685.769,-29.6911"/>
<polygon fill="midnightblue" stroke="midnightblue" points="689.224,-29.1302 684.296,-19.7511 682.3,-30.1561 689.224,-29.1302"/>
</g>
</g>
</svg>
