<?xml version="1.0" encoding="UTF-8" standalone="no"?>
<!DOCTYPE svg PUBLIC "-//W3C//DTD SVG 1.1//EN"
 "http://www.w3.org/Graphics/SVG/1.1/DTD/svg11.dtd">
<!-- Generated by graphviz version 2.38.0 (20140413.2041)
 -->
<!-- Title: elapsedtime.cpp Pages: 1 -->
<!--zoomable 532 -->
<svg id="main" version="1.1" xmlns="http://www.w3.org/2000/svg" xmlns:xlink="http://www.w3.org/1999/xlink" xml:space="preserve" onload="init(evt)">
<style type="text/css"><![CDATA[
.edge:hover path { stroke: red; }
.edge:hover polygon { stroke: red; fill: red; }
]]></style>
<script type="text/javascript"><![CDATA[
var edges = document.getElementsByTagName('g');
if (edges && edges.length) {
  for (var i=0;i<edges.length;i++) {
    if (edges[i].id.substr(0,4)=='edge') {
      edges[i].setAttribute('class','edge');
    }
  }
}
]]></script>
        <defs>
                <circle id="rim" cx="0" cy="0" r="7"/>
                <circle id="rim2" cx="0" cy="0" r="3.5"/>
                <g id="zoomPlus">
                        <use xlink:href="#rim" fill="#404040">
                                <set attributeName="fill" to="#808080" begin="zoomplus.mouseover" end="zoomplus.mouseout"/>
                        </use>
                        <path d="M-4,0h8M0,-4v8" fill="none" stroke="white" stroke-width="1.5" pointer-events="none"/>
                </g>
                <g id="zoomMin">
                        <use xlink:href="#rim" fill="#404040">
                                <set attributeName="fill" to="#808080" begin="zoomminus.mouseover" end="zoomminus.mouseout"/>
                        </use>
                        <path d="M-4,0h8" fill="none" stroke="white" stroke-width="1.5" pointer-events="none"/>
                </g>
                <g id="dirArrow">
                        <path fill="none" stroke="white" stroke-width="1.5" d="M0,-3.0v7 M-2.5,-0.5L0,-3.0L2.5,-0.5"/>
                </g>
               <g id="resetDef">
                       <use xlink:href="#rim2" fill="#404040">
                               <set attributeName="fill" to="#808080" begin="reset.mouseover" end="reset.mouseout"/>
                       </use>
               </g>
        </defs>

<script type="text/javascript">
var viewWidth = 1565;
var viewHeight = 532;
var sectionId = 'dynsection-0';
</script>
<script xlink:href="svgpan.js"/>
<svg id="graph" class="graph">
<g id="viewport">
<title>elapsedtime.cpp</title>
<polygon fill="white" stroke="none" points="-4,4 -4,-528 1560.5,-528 1560.5,4 -4,4"/>
<!-- Node1 -->
<g id="node1" class="node"><title>Node1</title>
<polygon fill="#bfbfbf" stroke="black" points="1255.5,-504.5 1255.5,-523.5 1343.5,-523.5 1343.5,-504.5 1255.5,-504.5"/>
<text text-anchor="middle" x="1299.5" y="-511.5" font-family="Helvetica,sans-Serif" font-size="10.00">elapsedtime.cpp</text>
</g>
<!-- Node2 -->
<g id="node2" class="node"><title>Node2</title>
<g id="a_node2"><a xlink:href="elapsedtime_8h.html" target="_top" xlink:title="Elapsed Time header file. ">
<polygon fill="white" stroke="black" points="1339,-392.5 1339,-411.5 1452,-411.5 1452,-392.5 1339,-392.5"/>
<text text-anchor="middle" x="1395.5" y="-399.5" font-family="Helvetica,sans-Serif" font-size="10.00">support/elapsedtime.h</text>
</a>
</g>
</g>
<!-- Node1&#45;&gt;Node2 -->
<g id="edge1" class="edge"><title>Node1&#45;&gt;Node2</title>
<path fill="none" stroke="midnightblue" d="M1307.03,-504.368C1323.02,-486.055 1360.55,-443.049 1381.22,-419.362"/>
<polygon fill="midnightblue" stroke="midnightblue" points="1384.06,-421.427 1388,-411.591 1378.79,-416.824 1384.06,-421.427"/>
</g>
<!-- Node31 -->
<g id="node31" class="node"><title>Node31</title>
<g id="a_node31"><a xlink:href="timelib_8h.html" target="_top" xlink:title="timelib include file A library providing functions for handling various types of time. ">
<polygon fill="white" stroke="black" points="1190,-448.5 1190,-467.5 1279,-467.5 1279,-448.5 1190,-448.5"/>
<text text-anchor="middle" x="1234.5" y="-455.5" font-family="Helvetica,sans-Serif" font-size="10.00">support/timelib.h</text>
</a>
</g>
</g>
<!-- Node1&#45;&gt;Node31 -->
<g id="edge38" class="edge"><title>Node1&#45;&gt;Node31</title>
<path fill="none" stroke="midnightblue" d="M1289.06,-504.324C1279.35,-496.263 1264.68,-484.077 1253,-474.369"/>
<polygon fill="midnightblue" stroke="midnightblue" points="1255.06,-471.532 1245.13,-467.834 1250.59,-476.916 1255.06,-471.532"/>
</g>
<!-- Node3 -->
<g id="node3" class="node"><title>Node3</title>
<g id="a_node3"><a xlink:href="config_cosmos_8h.html" target="_top" xlink:title="Headers and definitions common to all COSMOS. ">
<polygon fill="white" stroke="black" points="798,-112.5 798,-131.5 921,-131.5 921,-112.5 798,-112.5"/>
<text text-anchor="middle" x="859.5" y="-119.5" font-family="Helvetica,sans-Serif" font-size="10.00">support/configCosmos.h</text>
</a>
</g>
</g>
<!-- Node2&#45;&gt;Node3 -->
<g id="edge2" class="edge"><title>Node2&#45;&gt;Node3</title>
<path fill="none" stroke="midnightblue" d="M1390.9,-392.277C1371.81,-357.012 1294.76,-224.2 1189.5,-168 1146.1,-144.831 1014.61,-132.581 931.3,-126.971"/>
<polygon fill="midnightblue" stroke="midnightblue" points="931.345,-123.467 921.137,-126.303 930.886,-130.452 931.345,-123.467"/>
</g>
<!-- Node15 -->
<g id="node15" class="node"><title>Node15</title>
<polygon fill="white" stroke="#bfbfbf" points="1371.5,-56.5 1371.5,-75.5 1425.5,-75.5 1425.5,-56.5 1371.5,-56.5"/>
<text text-anchor="middle" x="1398.5" y="-63.5" font-family="Helvetica,sans-Serif" font-size="10.00">iostream</text>
</g>
<!-- Node2&#45;&gt;Node15 -->
<g id="edge34" class="edge"><title>Node2&#45;&gt;Node15</title>
<path fill="none" stroke="midnightblue" d="M1400.03,-392.376C1408.77,-375.287 1427.87,-335.684 1436.5,-300 1456.3,-218.128 1435.58,-193.011 1412.5,-112 1409.98,-103.136 1406.96,-93.3608 1404.38,-85.1917"/>
<polygon fill="midnightblue" stroke="midnightblue" points="1407.69,-84.0484 1401.31,-75.5899 1401.02,-86.1808 1407.69,-84.0484"/>
</g>
<!-- Node18 -->
<g id="node18" class="node"><title>Node18</title>
<polygon fill="white" stroke="#bfbfbf" points="1274,-56.5 1274,-75.5 1315,-75.5 1315,-56.5 1274,-56.5"/>
<text text-anchor="middle" x="1294.5" y="-63.5" font-family="Helvetica,sans-Serif" font-size="10.00">string</text>
</g>
<!-- Node2&#45;&gt;Node18 -->
<g id="edge35" class="edge"><title>Node2&#45;&gt;Node18</title>
<path fill="none" stroke="midnightblue" d="M1393.14,-392.145C1389.77,-379.615 1383.35,-356.004 1377.5,-336 1349.84,-241.501 1314.31,-129.142 1300.43,-85.5572"/>
<polygon fill="midnightblue" stroke="midnightblue" points="1303.69,-84.259 1297.32,-75.7958 1297.02,-86.3865 1303.69,-84.259"/>
</g>
<!-- Node29 -->
<g id="node29" class="node"><title>Node29</title>
<polygon fill="white" stroke="#bfbfbf" points="1289,-336.5 1289,-355.5 1330,-355.5 1330,-336.5 1289,-336.5"/>
<text text-anchor="middle" x="1309.5" y="-343.5" font-family="Helvetica,sans-Serif" font-size="10.00">ctime</text>
</g>
<!-- Node2&#45;&gt;Node29 -->
<g id="edge36" class="edge"><title>Node2&#45;&gt;Node29</title>
<path fill="none" stroke="midnightblue" d="M1381.68,-392.324C1368.27,-383.9 1347.68,-370.971 1331.91,-361.074"/>
<polygon fill="midnightblue" stroke="midnightblue" points="1333.61,-358.008 1323.28,-355.655 1329.89,-363.936 1333.61,-358.008"/>
</g>
<!-- Node30 -->
<g id="node30" class="node"><title>Node30</title>
<polygon fill="white" stroke="#bfbfbf" points="1482.5,-336.5 1482.5,-355.5 1528.5,-355.5 1528.5,-336.5 1482.5,-336.5"/>
<text text-anchor="middle" x="1505.5" y="-343.5" font-family="Helvetica,sans-Serif" font-size="10.00">chrono</text>
</g>
<!-- Node2&#45;&gt;Node30 -->
<g id="edge37" class="edge"><title>Node2&#45;&gt;Node30</title>
<path fill="none" stroke="midnightblue" d="M1413.17,-392.324C1430.89,-383.625 1458.4,-370.12 1478.79,-360.113"/>
<polygon fill="midnightblue" stroke="midnightblue" points="1480.44,-363.203 1487.87,-355.655 1477.35,-356.919 1480.44,-363.203"/>
</g>
<!-- Node4 -->
<g id="node4" class="node"><title>Node4</title>
<polygon fill="white" stroke="#bfbfbf" points="645,-56.5 645,-75.5 690,-75.5 690,-56.5 645,-56.5"/>
<text text-anchor="middle" x="667.5" y="-63.5" font-family="Helvetica,sans-Serif" font-size="10.00">climits</text>
</g>
<!-- Node3&#45;&gt;Node4 -->
<g id="edge3" class="edge"><title>Node3&#45;&gt;Node4</title>
<path fill="none" stroke="midnightblue" d="M828.609,-112.465C798.143,-104.025 749.997,-90.6298 699.888,-76.3779"/>
<polygon fill="midnightblue" stroke="midnightblue" points="700.756,-72.9858 690.179,-73.6127 698.838,-79.7181 700.756,-72.9858"/>
</g>
<!-- Node5 -->
<g id="node5" class="node"><title>Node5</title>
<polygon fill="white" stroke="#bfbfbf" points="708,-56.5 708,-75.5 755,-75.5 755,-56.5 708,-56.5"/>
<text text-anchor="middle" x="731.5" y="-63.5" font-family="Helvetica,sans-Serif" font-size="10.00">csignal</text>
</g>
<!-- Node3&#45;&gt;Node5 -->
<g id="edge4" class="edge"><title>Node3&#45;&gt;Node5</title>
<path fill="none" stroke="midnightblue" d="M839.218,-112.444C818.153,-103.557 784.983,-89.5632 761.014,-79.4514"/>
<polygon fill="midnightblue" stroke="midnightblue" points="762.261,-76.1787 751.687,-75.5164 759.54,-82.6283 762.261,-76.1787"/>
</g>
<!-- Node6 -->
<g id="node6" class="node"><title>Node6</title>
<polygon fill="white" stroke="#bfbfbf" points="1209.5,-56.5 1209.5,-75.5 1255.5,-75.5 1255.5,-56.5 1209.5,-56.5"/>
<text text-anchor="middle" x="1232.5" y="-63.5" font-family="Helvetica,sans-Serif" font-size="10.00">cstdint</text>
</g>
<!-- Node3&#45;&gt;Node6 -->
<g id="edge5" class="edge"><title>Node3&#45;&gt;Node6</title>
<path fill="none" stroke="midnightblue" d="M921.123,-114.72C988.748,-107.371 1100.35,-93.8919 1195.5,-76 1196.78,-75.7595 1198.08,-75.5027 1199.39,-75.2336"/>
<polygon fill="midnightblue" stroke="midnightblue" points="1200.48,-78.5768 1209.49,-72.9949 1198.97,-71.7428 1200.48,-78.5768"/>
</g>
<!-- Node7 -->
<g id="node7" class="node"><title>Node7</title>
<polygon fill="white" stroke="#bfbfbf" points="1097.5,-56.5 1097.5,-75.5 1153.5,-75.5 1153.5,-56.5 1097.5,-56.5"/>
<text text-anchor="middle" x="1125.5" y="-63.5" font-family="Helvetica,sans-Serif" font-size="10.00">cinttypes</text>
</g>
<!-- Node3&#45;&gt;Node7 -->
<g id="edge6" class="edge"><title>Node3&#45;&gt;Node7</title>
<path fill="none" stroke="midnightblue" d="M902.894,-112.454C948.044,-103.522 1020.78,-89.0201 1083.5,-76 1084.77,-75.7357 1086.07,-75.4657 1087.38,-75.1919"/>
<polygon fill="midnightblue" stroke="midnightblue" points="1088.44,-78.545 1097.5,-73.0531 1086.99,-71.6963 1088.44,-78.545"/>
</g>
<!-- Node8 -->
<g id="node8" class="node"><title>Node8</title>
<polygon fill="white" stroke="#bfbfbf" points="0,-56.5 0,-75.5 43,-75.5 43,-56.5 0,-56.5"/>
<text text-anchor="middle" x="21.5" y="-63.5" font-family="Helvetica,sans-Serif" font-size="10.00">cstdio</text>
</g>
<!-- Node3&#45;&gt;Node8 -->
<g id="edge7" class="edge"><title>Node3&#45;&gt;Node8</title>
<path fill="none" stroke="midnightblue" d="M797.768,-119.445C638.124,-115.129 213.502,-101.703 53.4648,-75.9091"/>
<polygon fill="midnightblue" stroke="midnightblue" points="53.7553,-72.4086 43.3116,-74.1922 52.588,-79.3106 53.7553,-72.4086"/>
</g>
<!-- Node9 -->
<g id="node9" class="node"><title>Node9</title>
<polygon fill="white" stroke="#bfbfbf" points="61,-56.5 61,-75.5 110,-75.5 110,-56.5 61,-56.5"/>
<text text-anchor="middle" x="85.5" y="-63.5" font-family="Helvetica,sans-Serif" font-size="10.00">cstddef</text>
</g>
<!-- Node3&#45;&gt;Node9 -->
<g id="edge8" class="edge"><title>Node3&#45;&gt;Node9</title>
<path fill="none" stroke="midnightblue" d="M797.541,-121.517C671.379,-121.645 375.675,-117.225 120.452,-76.0071"/>
<polygon fill="midnightblue" stroke="midnightblue" points="120.68,-72.4978 110.245,-74.3353 119.548,-79.4057 120.68,-72.4978"/>
</g>
<!-- Node10 -->
<g id="node10" class="node"><title>Node10</title>
<polygon fill="white" stroke="#bfbfbf" points="128,-56.5 128,-75.5 173,-75.5 173,-56.5 128,-56.5"/>
<text text-anchor="middle" x="150.5" y="-63.5" font-family="Helvetica,sans-Serif" font-size="10.00">cstdlib</text>
</g>
<!-- Node3&#45;&gt;Node10 -->
<g id="edge9" class="edge"><title>Node3&#45;&gt;Node10</title>
<path fill="none" stroke="midnightblue" d="M797.851,-121.167C679.962,-120.562 414.502,-114.741 183.044,-75.6848"/>
<polygon fill="midnightblue" stroke="midnightblue" points="183.54,-72.2188 173.092,-73.9812 182.358,-79.1184 183.54,-72.2188"/>
</g>
<!-- Node11 -->
<g id="node11" class="node"><title>Node11</title>
<polygon fill="white" stroke="#bfbfbf" points="191.5,-56.5 191.5,-75.5 235.5,-75.5 235.5,-56.5 191.5,-56.5"/>
<text text-anchor="middle" x="213.5" y="-63.5" font-family="Helvetica,sans-Serif" font-size="10.00">cerrno</text>
</g>
<!-- Node3&#45;&gt;Node11 -->
<g id="edge10" class="edge"><title>Node3&#45;&gt;Node11</title>
<path fill="none" stroke="midnightblue" d="M797.866,-120.743C688.291,-119.36 452.459,-112.211 245.845,-75.8643"/>
<polygon fill="midnightblue" stroke="midnightblue" points="246.178,-72.3684 235.718,-74.055 244.947,-79.2593 246.178,-72.3684"/>
</g>
<!-- Node12 -->
<g id="node12" class="node"><title>Node12</title>
<polygon fill="white" stroke="#bfbfbf" points="253.5,-56.5 253.5,-75.5 299.5,-75.5 299.5,-56.5 253.5,-56.5"/>
<text text-anchor="middle" x="276.5" y="-63.5" font-family="Helvetica,sans-Serif" font-size="10.00">cstring</text>
</g>
<!-- Node3&#45;&gt;Node12 -->
<g id="edge11" class="edge"><title>Node3&#45;&gt;Node12</title>
<path fill="none" stroke="midnightblue" d="M797.849,-119.83C697.307,-117.075 491.802,-107.918 309.818,-75.903"/>
<polygon fill="midnightblue" stroke="midnightblue" points="310.258,-72.4262 299.798,-74.1126 309.026,-79.3171 310.258,-72.4262"/>
</g>
<!-- Node13 -->
<g id="node13" class="node"><title>Node13</title>
<polygon fill="white" stroke="#bfbfbf" points="1443.5,-56.5 1443.5,-75.5 1487.5,-75.5 1487.5,-56.5 1443.5,-56.5"/>
<text text-anchor="middle" x="1465.5" y="-63.5" font-family="Helvetica,sans-Serif" font-size="10.00">cmath</text>
</g>
<!-- Node3&#45;&gt;Node13 -->
<g id="edge12" class="edge"><title>Node3&#45;&gt;Node13</title>
<path fill="none" stroke="midnightblue" d="M921.302,-120.291C1025.39,-118.197 1242.22,-109.961 1433.33,-75.8443"/>
<polygon fill="midnightblue" stroke="midnightblue" points="1434.06,-79.2692 1443.28,-74.0412 1432.82,-72.3815 1434.06,-79.2692"/>
</g>
<!-- Node14 -->
<g id="node14" class="node"><title>Node14</title>
<polygon fill="white" stroke="#bfbfbf" points="318,-56.5 318,-75.5 363,-75.5 363,-56.5 318,-56.5"/>
<text text-anchor="middle" x="340.5" y="-63.5" font-family="Helvetica,sans-Serif" font-size="10.00">iosfwd</text>
</g>
<!-- Node3&#45;&gt;Node14 -->
<g id="edge13" class="edge"><title>Node3&#45;&gt;Node14</title>
<path fill="none" stroke="midnightblue" d="M797.732,-119.073C706.514,-115.399 530.426,-105.141 372.933,-75.9494"/>
<polygon fill="midnightblue" stroke="midnightblue" points="373.541,-72.5025 363.066,-74.0908 372.245,-79.3815 373.541,-72.5025"/>
</g>
<!-- Node3&#45;&gt;Node15 -->
<g id="edge14" class="edge"><title>Node3&#45;&gt;Node15</title>
<path fill="none" stroke="midnightblue" d="M921.091,-115.476C1010.01,-107.399 1179.47,-91.6235 1323.5,-76 1335.8,-74.6655 1349.23,-73.092 1361.27,-71.637"/>
<polygon fill="midnightblue" stroke="midnightblue" points="1361.94,-75.0819 1371.44,-70.3979 1361.09,-68.1333 1361.94,-75.0819"/>
</g>
<!-- Node16 -->
<g id="node16" class="node"><title>Node16</title>
<polygon fill="white" stroke="#bfbfbf" points="381,-56.5 381,-75.5 432,-75.5 432,-56.5 381,-56.5"/>
<text text-anchor="middle" x="406.5" y="-63.5" font-family="Helvetica,sans-Serif" font-size="10.00">unistd.h</text>
</g>
<!-- Node3&#45;&gt;Node16 -->
<g id="edge15" class="edge"><title>Node3&#45;&gt;Node16</title>
<path fill="none" stroke="midnightblue" d="M797.835,-117.159C717.936,-111.561 574.232,-99.3815 441.93,-75.8077"/>
<polygon fill="midnightblue" stroke="midnightblue" points="442.483,-72.351 432.02,-74.0164 441.238,-79.2394 442.483,-72.351"/>
</g>
<!-- Node17 -->
<g id="node17" class="node"><title>Node17</title>
<polygon fill="white" stroke="#bfbfbf" points="450.5,-56.5 450.5,-75.5 494.5,-75.5 494.5,-56.5 450.5,-56.5"/>
<text text-anchor="middle" x="472.5" y="-63.5" font-family="Helvetica,sans-Serif" font-size="10.00">fcntl.h</text>
</g>
<!-- Node3&#45;&gt;Node17 -->
<g id="edge16" class="edge"><title>Node3&#45;&gt;Node17</title>
<path fill="none" stroke="midnightblue" d="M797.914,-116.169C728.714,-110.081 612.954,-97.9199 504.847,-75.9935"/>
<polygon fill="midnightblue" stroke="midnightblue" points="505.247,-72.5025 494.746,-73.9114 503.834,-79.3583 505.247,-72.5025"/>
</g>
<!-- Node3&#45;&gt;Node18 -->
<g id="edge17" class="edge"><title>Node3&#45;&gt;Node18</title>
<path fill="none" stroke="midnightblue" d="M921.102,-117.629C998.928,-112.6 1136.99,-101.115 1264.06,-75.7074"/>
<polygon fill="midnightblue" stroke="midnightblue" points="1264.87,-79.1153 1273.97,-73.6931 1263.47,-72.2557 1264.87,-79.1153"/>
</g>
<!-- Node19 -->
<g id="node19" class="node"><title>Node19</title>
<polygon fill="white" stroke="#bfbfbf" points="1159.5,-0.5 1159.5,-19.5 1203.5,-19.5 1203.5,-0.5 1159.5,-0.5"/>
<text text-anchor="middle" x="1181.5" y="-7.5" font-family="Helvetica,sans-Serif" font-size="10.00">vector</text>
</g>
<!-- Node3&#45;&gt;Node19 -->
<g id="edge18" class="edge"><title>Node3&#45;&gt;Node19</title>
<path fill="none" stroke="midnightblue" d="M921.106,-119.505C999.078,-116.349 1127.47,-106.532 1162.5,-76 1175.64,-64.5499 1179.93,-44.5694 1181.22,-29.7747"/>
<polygon fill="midnightblue" stroke="midnightblue" points="1184.72,-29.8588 1181.71,-19.699 1177.73,-29.5152 1184.72,-29.8588"/>
</g>
<!-- Node20 -->
<g id="node20" class="node"><title>Node20</title>
<polygon fill="white" stroke="#bfbfbf" points="513,-56.5 513,-75.5 556,-75.5 556,-56.5 513,-56.5"/>
<text text-anchor="middle" x="534.5" y="-63.5" font-family="Helvetica,sans-Serif" font-size="10.00">deque</text>
</g>
<!-- Node3&#45;&gt;Node20 -->
<g id="edge19" class="edge"><title>Node3&#45;&gt;Node20</title>
<path fill="none" stroke="midnightblue" d="M797.974,-113.96C740.41,-106.837 651.909,-94.5126 566.006,-75.8447"/>
<polygon fill="midnightblue" stroke="midnightblue" points="566.606,-72.3931 556.087,-73.658 565.099,-79.2289 566.606,-72.3931"/>
</g>
<!-- Node21 -->
<g id="node21" class="node"><title>Node21</title>
<polygon fill="white" stroke="#bfbfbf" points="807.5,-0.5 807.5,-19.5 851.5,-19.5 851.5,-0.5 807.5,-0.5"/>
<text text-anchor="middle" x="829.5" y="-7.5" font-family="Helvetica,sans-Serif" font-size="10.00">mutex</text>
</g>
<!-- Node3&#45;&gt;Node21 -->
<g id="edge20" class="edge"><title>Node3&#45;&gt;Node21</title>
<path fill="none" stroke="midnightblue" d="M856.661,-112.419C853.717,-103.398 849.054,-88.7691 845.5,-76 841.209,-60.5864 836.906,-42.9525 833.845,-29.9442"/>
<polygon fill="midnightblue" stroke="midnightblue" points="837.178,-28.824 831.506,-19.8754 830.36,-30.408 837.178,-28.824"/>
</g>
<!-- Node22 -->
<g id="node22" class="node"><title>Node22</title>
<polygon fill="white" stroke="#bfbfbf" points="869.5,-0.5 869.5,-19.5 913.5,-19.5 913.5,-0.5 869.5,-0.5"/>
<text text-anchor="middle" x="891.5" y="-7.5" font-family="Helvetica,sans-Serif" font-size="10.00">thread</text>
</g>
<!-- Node3&#45;&gt;Node22 -->
<g id="edge21" class="edge"><title>Node3&#45;&gt;Node22</title>
<path fill="none" stroke="midnightblue" d="M862.011,-112.368C867.198,-94.5366 879.196,-53.2953 886.185,-29.2717"/>
<polygon fill="midnightblue" stroke="midnightblue" points="889.568,-30.1711 889.001,-19.5914 882.847,-28.2157 889.568,-30.1711"/>
</g>
<!-- Node23 -->
<g id="node23" class="node"><title>Node23</title>
<polygon fill="white" stroke="#bfbfbf" points="978,-0.5 978,-19.5 1073,-19.5 1073,-0.5 978,-0.5"/>
<text text-anchor="middle" x="1025.5" y="-7.5" font-family="Helvetica,sans-Serif" font-size="10.00">condition_variable</text>
</g>
<!-- Node3&#45;&gt;Node23 -->
<g id="edge22" class="edge"><title>Node3&#45;&gt;Node23</title>
<path fill="none" stroke="midnightblue" d="M921.098,-117.648C952.702,-112.678 989.323,-101.329 1012.5,-76 1023.78,-63.6734 1026.45,-44.4216 1026.64,-30.0644"/>
<polygon fill="midnightblue" stroke="midnightblue" points="1030.13,-29.7349 1026.39,-19.8255 1023.14,-29.9099 1030.13,-29.7349"/>
</g>
<!-- Node24 -->
<g id="node24" class="node"><title>Node24</title>
<polygon fill="white" stroke="#bfbfbf" points="1091,-0.5 1091,-19.5 1134,-19.5 1134,-0.5 1091,-0.5"/>
<text text-anchor="middle" x="1112.5" y="-7.5" font-family="Helvetica,sans-Serif" font-size="10.00">queue</text>
</g>
<!-- Node3&#45;&gt;Node24 -->
<g id="edge23" class="edge"><title>Node3&#45;&gt;Node24</title>
<path fill="none" stroke="midnightblue" d="M916.615,-112.495C951.434,-105.794 996.086,-94.4239 1032.5,-76 1057.56,-63.321 1081.96,-41.7595 1097.09,-26.971"/>
<polygon fill="midnightblue" stroke="midnightblue" points="1099.91,-29.1041 1104.49,-19.5514 1094.95,-24.1615 1099.91,-29.1041"/>
</g>
<!-- Node25 -->
<g id="node25" class="node"><title>Node25</title>
<polygon fill="white" stroke="#bfbfbf" points="574.5,-56.5 574.5,-75.5 626.5,-75.5 626.5,-56.5 574.5,-56.5"/>
<text text-anchor="middle" x="600.5" y="-63.5" font-family="Helvetica,sans-Serif" font-size="10.00">sstream</text>
</g>
<!-- Node3&#45;&gt;Node25 -->
<g id="edge24" class="edge"><title>Node3&#45;&gt;Node25</title>
<path fill="none" stroke="midnightblue" d="M813.443,-112.493C770.178,-104.334 703.41,-91.3172 636.679,-76.1812"/>
<polygon fill="midnightblue" stroke="midnightblue" points="637.365,-72.7478 626.837,-73.933 635.806,-79.572 637.365,-72.7478"/>
</g>
<!-- Node26 -->
<g id="node26" class="node"><title>Node26</title>
<polygon fill="white" stroke="#bfbfbf" points="754,-0.5 754,-19.5 789,-19.5 789,-0.5 754,-0.5"/>
<text text-anchor="middle" x="771.5" y="-7.5" font-family="Helvetica,sans-Serif" font-size="10.00">map</text>
</g>
<!-- Node3&#45;&gt;Node26 -->
<g id="edge25" class="edge"><title>Node3&#45;&gt;Node26</title>
<path fill="none" stroke="midnightblue" d="M852.595,-112.368C838.008,-94.135 803.841,-51.4257 784.84,-27.6752"/>
<polygon fill="midnightblue" stroke="midnightblue" points="787.353,-25.2137 778.373,-19.5914 781.887,-29.5866 787.353,-25.2137"/>
</g>
<!-- Node27 -->
<g id="node27" class="node"><title>Node27</title>
<g id="a_node27"><a xlink:href="cosmos-defs_8h.html" target="_top" xlink:title="COSMOS definitions Definitions specific to the COSMOS environement. ">
<polygon fill="white" stroke="black" points="887.5,-56.5 887.5,-75.5 1003.5,-75.5 1003.5,-56.5 887.5,-56.5"/>
<text text-anchor="middle" x="945.5" y="-63.5" font-family="Helvetica,sans-Serif" font-size="10.00">support/cosmos&#45;defs.h</text>
</a>
</g>
</g>
<!-- Node3&#45;&gt;Node27 -->
<g id="edge26" class="edge"><title>Node3&#45;&gt;Node27</title>
<path fill="none" stroke="midnightblue" d="M873.317,-112.324C886.733,-103.9 907.324,-90.9709 923.086,-81.0741"/>
<polygon fill="midnightblue" stroke="midnightblue" points="925.109,-83.9364 931.717,-75.6545 921.387,-78.0081 925.109,-83.9364"/>
</g>
<!-- Node27&#45;&gt;Node19 -->
<g id="edge28" class="edge"><title>Node27&#45;&gt;Node19</title>
<path fill="none" stroke="midnightblue" d="M982.905,-56.4817C1022.54,-47.4504 1086.94,-32.7571 1142.5,-20 1144.7,-19.4946 1146.97,-18.9725 1149.26,-18.4461"/>
<polygon fill="midnightblue" stroke="midnightblue" points="1150.27,-21.8051 1159.23,-16.1487 1148.7,-14.9839 1150.27,-21.8051"/>
</g>
<!-- Node27&#45;&gt;Node21 -->
<g id="edge32" class="edge"><title>Node27&#45;&gt;Node21</title>
<path fill="none" stroke="midnightblue" d="M927.119,-56.4435C908.284,-47.6751 878.769,-33.9355 857.121,-23.8579"/>
<polygon fill="midnightblue" stroke="midnightblue" points="858.338,-20.5637 847.795,-19.5164 855.383,-26.9098 858.338,-20.5637"/>
</g>
<!-- Node27&#45;&gt;Node22 -->
<g id="edge31" class="edge"><title>Node27&#45;&gt;Node22</title>
<path fill="none" stroke="midnightblue" d="M936.583,-56.083C928.72,-48.2195 917.069,-36.5688 907.581,-27.0813"/>
<polygon fill="midnightblue" stroke="midnightblue" points="909.797,-24.3473 900.251,-19.7511 904.847,-29.2971 909.797,-24.3473"/>
</g>
<!-- Node27&#45;&gt;Node23 -->
<g id="edge33" class="edge"><title>Node27&#45;&gt;Node23</title>
<path fill="none" stroke="midnightblue" d="M958.353,-56.324C970.716,-47.979 989.63,-35.2122 1004.24,-25.3524"/>
<polygon fill="midnightblue" stroke="midnightblue" points="1006.35,-28.1503 1012.68,-19.6545 1002.43,-22.3483 1006.35,-28.1503"/>
</g>
<!-- Node27&#45;&gt;Node24 -->
<g id="edge30" class="edge"><title>Node27&#45;&gt;Node24</title>
<path fill="none" stroke="midnightblue" d="M971.962,-56.4435C1001.67,-46.8366 1049.84,-31.2622 1081.34,-21.0749"/>
<polygon fill="midnightblue" stroke="midnightblue" points="1082.5,-24.378 1090.94,-17.971 1080.35,-17.7175 1082.5,-24.378"/>
</g>
<!-- Node27&#45;&gt;Node26 -->
<g id="edge27" class="edge"><title>Node27&#45;&gt;Node26</title>
<path fill="none" stroke="midnightblue" d="M916.98,-56.4967C889.227,-48.1726 845.638,-34.9676 798.899,-20.0708"/>
<polygon fill="midnightblue" stroke="midnightblue" points="799.789,-16.6809 789.198,-16.9689 797.657,-23.3483 799.789,-16.6809"/>
</g>
<!-- Node28 -->
<g id="node28" class="node"><title>Node28</title>
<polygon fill="white" stroke="#bfbfbf" points="931,-0.5 931,-19.5 960,-19.5 960,-0.5 931,-0.5"/>
<text text-anchor="middle" x="945.5" y="-7.5" font-family="Helvetica,sans-Serif" font-size="10.00">list</text>
</g>
<!-- Node27&#45;&gt;Node28 -->
<g id="edge29" class="edge"><title>Node27&#45;&gt;Node28</title>
<path fill="none" stroke="midnightblue" d="M945.5,-56.083C945.5,-49.0059 945.5,-38.8611 945.5,-29.9865"/>
<polygon fill="midnightblue" stroke="midnightblue" points="949,-29.751 945.5,-19.7511 942,-29.7511 949,-29.751"/>
</g>
<!-- Node31&#45;&gt;Node2 -->
<g id="edge40" class="edge"><title>Node31&#45;&gt;Node2</title>
<path fill="none" stroke="midnightblue" d="M1260.01,-448.444C1287.1,-439.359 1330.09,-424.939 1360.37,-414.783"/>
<polygon fill="midnightblue" stroke="midnightblue" points="1361.74,-418.015 1370.11,-411.516 1359.51,-411.378 1361.74,-418.015"/>
</g>
<!-- Node31&#45;&gt;Node3 -->
<g id="edge39" class="edge"><title>Node31&#45;&gt;Node3</title>
<path fill="none" stroke="midnightblue" d="M1189.6,-456.64C1066.63,-454.452 733.5,-439.947 733.5,-347 733.5,-347 733.5,-347 733.5,-233 733.5,-183.953 788.351,-151.742 825.672,-135.502"/>
<polygon fill="midnightblue" stroke="midnightblue" points="827.321,-138.606 835.206,-131.53 824.629,-132.145 827.321,-138.606"/>
</g>
<!-- Node31&#45;&gt;Node13 -->
<g id="edge65" class="edge"><title>Node31&#45;&gt;Node13</title>
<path fill="none" stroke="midnightblue" d="M1279.27,-451.245C1367.75,-438.617 1556.5,-404.893 1556.5,-347 1556.5,-347 1556.5,-347 1556.5,-177 1556.5,-134.468 1515.61,-99.5303 1488.65,-81.1161"/>
<polygon fill="midnightblue" stroke="midnightblue" points="1490.4,-78.0787 1480.12,-75.5177 1486.56,-83.9308 1490.4,-78.0787"/>
</g>
<!-- Node31&#45;&gt;Node29 -->
<g id="edge69" class="edge"><title>Node31&#45;&gt;Node29</title>
<path fill="none" stroke="midnightblue" d="M1249.75,-448.402C1262.43,-440.501 1280.04,-427.658 1290.5,-412 1299.79,-398.101 1304.62,-379.59 1307.08,-365.877"/>
<polygon fill="midnightblue" stroke="midnightblue" points="1310.59,-366.108 1308.64,-355.694 1303.67,-365.051 1310.59,-366.108"/>
</g>
<!-- Node32 -->
<g id="node32" class="node"><title>Node32</title>
<g id="a_node32"><a xlink:href="mathlib_8h.html" target="_top" xlink:title="mathlib include file ">
<polygon fill="white" stroke="black" points="1021,-392.5 1021,-411.5 1102,-411.5 1102,-392.5 1021,-392.5"/>
<text text-anchor="middle" x="1061.5" y="-399.5" font-family="Helvetica,sans-Serif" font-size="10.00">math/mathlib.h</text>
</a>
</g>
</g>
<!-- Node31&#45;&gt;Node32 -->
<g id="edge41" class="edge"><title>Node31&#45;&gt;Node32</title>
<path fill="none" stroke="midnightblue" d="M1207.09,-448.444C1177.73,-439.28 1130.98,-424.688 1098.4,-414.519"/>
<polygon fill="midnightblue" stroke="midnightblue" points="1099.37,-411.155 1088.78,-411.516 1097.29,-417.837 1099.37,-411.155"/>
</g>
<!-- Node34 -->
<g id="node34" class="node"><title>Node34</title>
<polygon fill="white" stroke="#bfbfbf" points="773,-280.5 773,-299.5 820,-299.5 820,-280.5 773,-280.5"/>
<text text-anchor="middle" x="796.5" y="-287.5" font-family="Helvetica,sans-Serif" font-size="10.00">errno.h</text>
</g>
<!-- Node31&#45;&gt;Node34 -->
<g id="edge67" class="edge"><title>Node31&#45;&gt;Node34</title>
<path fill="none" stroke="midnightblue" d="M1189.73,-453.794C1087.02,-445.402 839.475,-418.933 790.5,-356 780.295,-342.886 783.748,-323.471 788.562,-309.275"/>
<polygon fill="midnightblue" stroke="midnightblue" points="791.951,-310.216 792.304,-299.628 785.424,-307.685 791.951,-310.216"/>
</g>
<!-- Node40 -->
<g id="node40" class="node"><title>Node40</title>
<polygon fill="white" stroke="#bfbfbf" points="1120.5,-392.5 1120.5,-411.5 1164.5,-411.5 1164.5,-392.5 1120.5,-392.5"/>
<text text-anchor="middle" x="1142.5" y="-399.5" font-family="Helvetica,sans-Serif" font-size="10.00">time.h</text>
</g>
<!-- Node31&#45;&gt;Node40 -->
<g id="edge66" class="edge"><title>Node31&#45;&gt;Node40</title>
<path fill="none" stroke="midnightblue" d="M1219.72,-448.324C1205.23,-439.822 1182.93,-426.729 1166.01,-416.797"/>
<polygon fill="midnightblue" stroke="midnightblue" points="1167.64,-413.698 1157.24,-411.655 1164.1,-419.735 1167.64,-413.698"/>
</g>
<!-- Node41 -->
<g id="node41" class="node"><title>Node41</title>
<polygon fill="white" stroke="#bfbfbf" points="1182.5,-392.5 1182.5,-411.5 1228.5,-411.5 1228.5,-392.5 1182.5,-392.5"/>
<text text-anchor="middle" x="1205.5" y="-399.5" font-family="Helvetica,sans-Serif" font-size="10.00">stdio.h</text>
</g>
<!-- Node31&#45;&gt;Node41 -->
<g id="edge68" class="edge"><title>Node31&#45;&gt;Node41</title>
<path fill="none" stroke="midnightblue" d="M1229.71,-448.083C1225.74,-440.691 1219.97,-429.953 1215.07,-420.811"/>
<polygon fill="midnightblue" stroke="midnightblue" points="1218.01,-418.905 1210.2,-411.751 1211.85,-422.217 1218.01,-418.905"/>
</g>
<!-- Node42 -->
<g id="node42" class="node"><title>Node42</title>
<polygon fill="white" stroke="#bfbfbf" points="1247,-392.5 1247,-411.5 1282,-411.5 1282,-392.5 1247,-392.5"/>
<text text-anchor="middle" x="1264.5" y="-399.5" font-family="Helvetica,sans-Serif" font-size="10.00">ratio</text>
</g>
<!-- Node31&#45;&gt;Node42 -->
<g id="edge70" class="edge"><title>Node31&#45;&gt;Node42</title>
<path fill="none" stroke="midnightblue" d="M1239.45,-448.083C1243.6,-440.613 1249.65,-429.724 1254.77,-420.52"/>
<polygon fill="midnightblue" stroke="midnightblue" points="1257.84,-422.192 1259.64,-411.751 1251.72,-418.793 1257.84,-422.192"/>
</g>
<!-- Node32&#45;&gt;Node3 -->
<g id="edge42" class="edge"><title>Node32&#45;&gt;Node3</title>
<path fill="none" stroke="midnightblue" d="M1030.39,-392.397C1010.05,-385.421 984.074,-373.784 966.5,-356 933.994,-323.106 883.765,-190.111 865.998,-141.181"/>
<polygon fill="midnightblue" stroke="midnightblue" points="869.228,-139.823 862.545,-131.602 862.643,-142.196 869.228,-139.823"/>
</g>
<!-- Node32&#45;&gt;Node13 -->
<g id="edge63" class="edge"><title>Node32&#45;&gt;Node13</title>
<path fill="none" stroke="midnightblue" d="M1076.85,-392.359C1091.74,-383.754 1114.78,-369.861 1133.5,-356 1262.11,-260.756 1402.48,-127.935 1449.3,-82.7587"/>
<polygon fill="midnightblue" stroke="midnightblue" points="1451.95,-85.0665 1456.7,-75.5964 1447.08,-80.037 1451.95,-85.0665"/>
</g>
<!-- Node32&#45;&gt;Node15 -->
<g id="edge64" class="edge"><title>Node32&#45;&gt;Node15</title>
<path fill="none" stroke="midnightblue" d="M1070.79,-392.461C1080.52,-383.473 1096.21,-368.872 1109.5,-356 1215.56,-253.31 1340.11,-126.654 1383.04,-82.8103"/>
<polygon fill="midnightblue" stroke="midnightblue" points="1385.6,-85.207 1390.09,-75.612 1380.59,-80.311 1385.6,-85.207"/>
</g>
<!-- Node33 -->
<g id="node33" class="node"><title>Node33</title>
<g id="a_node33"><a xlink:href="cosmos-errno_8h.html" target="_top" xlink:title="COSMOS Error Codes. ">
<polygon fill="white" stroke="black" points="800,-336.5 800,-355.5 919,-355.5 919,-336.5 800,-336.5"/>
<text text-anchor="middle" x="859.5" y="-343.5" font-family="Helvetica,sans-Serif" font-size="10.00">support/cosmos&#45;errno.h</text>
</a>
</g>
</g>
<!-- Node32&#45;&gt;Node33 -->
<g id="edge43" class="edge"><title>Node32&#45;&gt;Node33</title>
<path fill="none" stroke="midnightblue" d="M1029.49,-392.444C994.771,-383.162 939.212,-368.309 901.123,-358.127"/>
<polygon fill="midnightblue" stroke="midnightblue" points="901.922,-354.718 891.358,-355.516 900.115,-361.48 901.922,-354.718"/>
</g>
<!-- Node35 -->
<g id="node35" class="node"><title>Node35</title>
<g id="a_node35"><a xlink:href="math_2constants_8h.html" target="_top" xlink:title="constants.h">
<polygon fill="white" stroke="black" points="1112.5,-168.5 1112.5,-187.5 1180.5,-187.5 1180.5,-168.5 1112.5,-168.5"/>
<text text-anchor="middle" x="1146.5" y="-175.5" font-family="Helvetica,sans-Serif" font-size="10.00">constants.h</text>
</a>
</g>
</g>
<!-- Node32&#45;&gt;Node35 -->
<g id="edge46" class="edge"><title>Node32&#45;&gt;Node35</title>
<path fill="none" stroke="midnightblue" d="M1067.97,-392.422C1074.36,-383.641 1084.09,-369.418 1090.5,-356 1116.73,-301.111 1134.72,-230.944 1142.37,-197.865"/>
<polygon fill="midnightblue" stroke="midnightblue" points="1145.85,-198.322 1144.64,-187.797 1139.02,-196.783 1145.85,-198.322"/>
</g>
<!-- Node36 -->
<g id="node36" class="node"><title>Node36</title>
<g id="a_node36"><a xlink:href="vector_8h.html" target="_top" xlink:title="vector.h">
<polygon fill="white" stroke="black" points="1066.5,-224.5 1066.5,-243.5 1118.5,-243.5 1118.5,-224.5 1066.5,-224.5"/>
<text text-anchor="middle" x="1092.5" y="-231.5" font-family="Helvetica,sans-Serif" font-size="10.00">vector.h</text>
</a>
</g>
</g>
<!-- Node32&#45;&gt;Node36 -->
<g id="edge49" class="edge"><title>Node32&#45;&gt;Node36</title>
<path fill="none" stroke="midnightblue" d="M1063.92,-392.429C1068.74,-375.108 1079.54,-334.636 1085.5,-300 1088.15,-284.6 1089.97,-266.965 1091.09,-253.953"/>
<polygon fill="midnightblue" stroke="midnightblue" points="1094.59,-254.128 1091.9,-243.88 1087.61,-253.569 1094.59,-254.128"/>
</g>
<!-- Node38 -->
<g id="node38" class="node"><title>Node38</title>
<g id="a_node38"><a xlink:href="matrix_8h.html" target="_top" xlink:title="matrix.h">
<polygon fill="white" stroke="black" points="1024.5,-280.5 1024.5,-299.5 1076.5,-299.5 1076.5,-280.5 1024.5,-280.5"/>
<text text-anchor="middle" x="1050.5" y="-287.5" font-family="Helvetica,sans-Serif" font-size="10.00">matrix.h</text>
</a>
</g>
</g>
<!-- Node32&#45;&gt;Node38 -->
<g id="edge56" class="edge"><title>Node32&#45;&gt;Node38</title>
<path fill="none" stroke="midnightblue" d="M1060.64,-392.368C1058.86,-374.617 1054.77,-333.666 1052.36,-309.597"/>
<polygon fill="midnightblue" stroke="midnightblue" points="1055.84,-309.193 1051.36,-299.591 1048.87,-309.89 1055.84,-309.193"/>
</g>
<!-- Node39 -->
<g id="node39" class="node"><title>Node39</title>
<g id="a_node39"><a xlink:href="rotation_8h.html" target="_top" xlink:title="rotation.h">
<polygon fill="white" stroke="black" points="976,-336.5 976,-355.5 1033,-355.5 1033,-336.5 976,-336.5"/>
<text text-anchor="middle" x="1004.5" y="-343.5" font-family="Helvetica,sans-Serif" font-size="10.00">rotation.h</text>
</a>
</g>
</g>
<!-- Node32&#45;&gt;Node39 -->
<g id="edge59" class="edge"><title>Node32&#45;&gt;Node39</title>
<path fill="none" stroke="midnightblue" d="M1052.34,-392.324C1044,-384.42 1031.47,-372.548 1021.32,-362.938"/>
<polygon fill="midnightblue" stroke="midnightblue" points="1023.49,-360.171 1013.82,-355.834 1018.68,-365.252 1023.49,-360.171"/>
</g>
<!-- Node33&#45;&gt;Node3 -->
<g id="edge44" class="edge"><title>Node33&#45;&gt;Node3</title>
<path fill="none" stroke="midnightblue" d="M859.5,-336.297C859.5,-303.633 859.5,-187.866 859.5,-141.957"/>
<polygon fill="midnightblue" stroke="midnightblue" points="863,-141.884 859.5,-131.884 856,-141.884 863,-141.884"/>
</g>
<!-- Node33&#45;&gt;Node34 -->
<g id="edge45" class="edge"><title>Node33&#45;&gt;Node34</title>
<path fill="none" stroke="midnightblue" d="M849.378,-336.324C839.974,-328.263 825.756,-316.077 814.431,-306.369"/>
<polygon fill="midnightblue" stroke="midnightblue" points="816.677,-303.684 806.806,-299.834 812.121,-308.999 816.677,-303.684"/>
</g>
<!-- Node35&#45;&gt;Node3 -->
<g id="edge47" class="edge"><title>Node35&#45;&gt;Node3</title>
<path fill="none" stroke="midnightblue" d="M1112.25,-169.754C1109.29,-169.152 1106.34,-168.56 1103.5,-168 1040.04,-155.508 967.078,-142.189 917.595,-133.31"/>
<polygon fill="midnightblue" stroke="midnightblue" points="918.174,-129.858 907.713,-131.54 916.939,-136.749 918.174,-129.858"/>
</g>
<!-- Node35&#45;&gt;Node6 -->
<g id="edge48" class="edge"><title>Node35&#45;&gt;Node6</title>
<path fill="none" stroke="midnightblue" d="M1152.54,-168.454C1161.48,-155.899 1178.85,-131.813 1194.5,-112 1202.11,-102.372 1210.93,-91.8826 1218.16,-83.4548"/>
<polygon fill="midnightblue" stroke="midnightblue" points="1220.87,-85.6778 1224.76,-75.8225 1215.57,-81.1016 1220.87,-85.6778"/>
</g>
<!-- Node36&#45;&gt;Node3 -->
<g id="edge50" class="edge"><title>Node36&#45;&gt;Node3</title>
<path fill="none" stroke="midnightblue" d="M1081.35,-224.411C1063.45,-210.926 1026.78,-184.617 992.5,-168 963.324,-153.859 928.563,-142.265 901.896,-134.388"/>
<polygon fill="midnightblue" stroke="midnightblue" points="902.68,-130.971 892.101,-131.554 900.734,-137.696 902.68,-130.971"/>
</g>
<!-- Node36&#45;&gt;Node13 -->
<g id="edge54" class="edge"><title>Node36&#45;&gt;Node13</title>
<path fill="none" stroke="midnightblue" d="M1118.7,-227.837C1151.3,-220.938 1208.31,-207.301 1254.5,-188 1328.13,-157.231 1408.04,-105.949 1444.83,-81.2089"/>
<polygon fill="midnightblue" stroke="midnightblue" points="1446.91,-84.0272 1453.22,-75.5194 1442.98,-78.2328 1446.91,-84.0272"/>
</g>
<!-- Node36&#45;&gt;Node15 -->
<g id="edge52" class="edge"><title>Node36&#45;&gt;Node15</title>
<path fill="none" stroke="midnightblue" d="M1118.75,-226.188C1145.62,-218.696 1188.2,-205.377 1222.5,-188 1275.51,-161.145 1283.51,-145.627 1332.5,-112 1347.55,-101.67 1364.57,-90.0666 1377.56,-81.2297"/>
<polygon fill="midnightblue" stroke="midnightblue" points="1379.53,-84.1214 1385.83,-75.6036 1375.59,-78.3331 1379.53,-84.1214"/>
</g>
<!-- Node36&#45;&gt;Node19 -->
<g id="edge55" class="edge"><title>Node36&#45;&gt;Node19</title>
<path fill="none" stroke="midnightblue" d="M1115.32,-224.397C1135.55,-216.317 1165.52,-203.214 1189.5,-188 1222.27,-167.211 1307.06,-111.157 1323.5,-76 1344.64,-30.7877 1261.96,-16.988 1213.83,-12.8028"/>
<polygon fill="midnightblue" stroke="midnightblue" points="1213.81,-9.29038 1203.56,-12.0087 1213.27,-16.2695 1213.81,-9.29038"/>
</g>
<!-- Node36&#45;&gt;Node35 -->
<g id="edge51" class="edge"><title>Node36&#45;&gt;Node35</title>
<path fill="none" stroke="midnightblue" d="M1101.42,-224.083C1109.28,-216.22 1120.93,-204.569 1130.42,-195.081"/>
<polygon fill="midnightblue" stroke="midnightblue" points="1133.15,-197.297 1137.75,-187.751 1128.2,-192.347 1133.15,-197.297"/>
</g>
<!-- Node37 -->
<g id="node37" class="node"><title>Node37</title>
<polygon fill="white" stroke="#bfbfbf" points="1044.5,-168.5 1044.5,-187.5 1094.5,-187.5 1094.5,-168.5 1044.5,-168.5"/>
<text text-anchor="middle" x="1069.5" y="-175.5" font-family="Helvetica,sans-Serif" font-size="10.00">iomanip</text>
</g>
<!-- Node36&#45;&gt;Node37 -->
<g id="edge53" class="edge"><title>Node36&#45;&gt;Node37</title>
<path fill="none" stroke="midnightblue" d="M1088.7,-224.083C1085.59,-216.77 1081.08,-206.181 1077.21,-197.103"/>
<polygon fill="midnightblue" stroke="midnightblue" points="1080.37,-195.58 1073.23,-187.751 1073.93,-198.323 1080.37,-195.58"/>
</g>
<!-- Node38&#45;&gt;Node3 -->
<g id="edge57" class="edge"><title>Node38&#45;&gt;Node3</title>
<path fill="none" stroke="midnightblue" d="M1045.53,-280.262C1032.86,-258.658 997.336,-202.023 954.5,-168 936.733,-153.888 913.816,-142.869 894.942,-135.268"/>
<polygon fill="midnightblue" stroke="midnightblue" points="896.079,-131.955 885.49,-131.606 893.55,-138.482 896.079,-131.955"/>
</g>
<!-- Node38&#45;&gt;Node36 -->
<g id="edge58" class="edge"><title>Node38&#45;&gt;Node36</title>
<path fill="none" stroke="midnightblue" d="M1057.44,-280.083C1063.43,-272.377 1072.25,-261.033 1079.55,-251.653"/>
<polygon fill="midnightblue" stroke="midnightblue" points="1082.32,-253.793 1085.69,-243.751 1076.79,-249.496 1082.32,-253.793"/>
</g>
<!-- Node39&#45;&gt;Node3 -->
<g id="edge60" class="edge"><title>Node39&#45;&gt;Node3</title>
<path fill="none" stroke="midnightblue" d="M1001.79,-336.499C992.898,-309.597 962.573,-224.748 916.5,-168 906.843,-156.106 893.511,-145.364 882.169,-137.361"/>
<polygon fill="midnightblue" stroke="midnightblue" points="883.849,-134.272 873.607,-131.56 879.923,-140.067 883.849,-134.272"/>
</g>
<!-- Node39&#45;&gt;Node36 -->
<g id="edge61" class="edge"><title>Node39&#45;&gt;Node36</title>
<path fill="none" stroke="midnightblue" d="M1003.76,-336.142C1003.09,-322.76 1003.66,-297.136 1015.5,-280 1025.63,-265.338 1042.22,-254.764 1057.41,-247.565"/>
<polygon fill="midnightblue" stroke="midnightblue" points="1058.88,-250.744 1066.62,-243.512 1056.06,-244.338 1058.88,-250.744"/>
</g>
<!-- Node39&#45;&gt;Node38 -->
<g id="edge62" class="edge"><title>Node39&#45;&gt;Node38</title>
<path fill="none" stroke="midnightblue" d="M1012.1,-336.083C1018.73,-328.298 1028.52,-316.801 1036.56,-307.367"/>
<polygon fill="midnightblue" stroke="midnightblue" points="1039.23,-309.633 1043.05,-299.751 1033.9,-305.094 1039.23,-309.633"/>
</g>
</g>
</svg>
        <g id="navigator" transform="translate(0 0)" fill="#404254">
                <rect fill="#f2f5e9" fill-opacity="0.5" stroke="#606060" stroke-width=".5" x="0" y="0" width="60" height="60"/>
                <use id="zoomplus" xlink:href="#zoomPlus" x="17" y="9" onmousedown="handleZoom(evt,'in')"/>
                <use id="zoomminus" xlink:href="#zoomMin" x="42" y="9" onmousedown="handleZoom(evt,'out')"/>
                <use id="reset" xlink:href="#resetDef" x="30" y="36" onmousedown="handleReset()"/>
                <g id="arrowUp" xlink:href="#dirArrow" transform="translate(30 24)" onmousedown="handlePan(0,-1)">
                  <use xlink:href="#rim" fill="#404040">
                        <set attributeName="fill" to="#808080" begin="arrowUp.mouseover" end="arrowUp.mouseout"/>
                  </use>
                  <path fill="none" stroke="white" stroke-width="1.5" d="M0,-3.0v7 M-2.5,-0.5L0,-3.0L2.5,-0.5"/>
                </g>
                <g id="arrowRight" xlink:href="#dirArrow" transform="rotate(90) translate(36 -43)" onmousedown="handlePan(1,0)">
                  <use xlink:href="#rim" fill="#404040">
                        <set attributeName="fill" to="#808080" begin="arrowRight.mouseover" end="arrowRight.mouseout"/>
                  </use>
                  <path fill="none" stroke="white" stroke-width="1.5" d="M0,-3.0v7 M-2.5,-0.5L0,-3.0L2.5,-0.5"/>
                </g>
                <g id="arrowDown" xlink:href="#dirArrow" transform="rotate(180) translate(-30 -48)" onmousedown="handlePan(0,1)">
                  <use xlink:href="#rim" fill="#404040">
                        <set attributeName="fill" to="#808080" begin="arrowDown.mouseover" end="arrowDown.mouseout"/>
                  </use>
                  <path fill="none" stroke="white" stroke-width="1.5" d="M0,-3.0v7 M-2.5,-0.5L0,-3.0L2.5,-0.5"/>
                </g>
                <g id="arrowLeft" xlink:href="#dirArrow" transform="rotate(270) translate(-36 17)" onmousedown="handlePan(-1,0)">
                  <use xlink:href="#rim" fill="#404040">
                        <set attributeName="fill" to="#808080" begin="arrowLeft.mouseover" end="arrowLeft.mouseout"/>
                  </use>
                  <path fill="none" stroke="white" stroke-width="1.5" d="M0,-3.0v7 M-2.5,-0.5L0,-3.0L2.5,-0.5"/>
                </g>
        </g>
        <svg viewBox="0 0 15 15" width="100%" height="30px" preserveAspectRatio="xMaxYMin meet">
         <g id="arrow_out" transform="scale(0.3 0.3)">
          <a xlink:href="elapsedtime_8cpp__incl_org.svg" target="_base">
           <rect id="button" ry="5" rx="5" y="6" x="6" height="38" width="38"
                fill="#f2f5e9" fill-opacity="0.5" stroke="#606060" stroke-width="1.0"/>
           <path id="arrow"
             d="M 11.500037,31.436501 C 11.940474,20.09759 22.043105,11.32322 32.158766,21.979434 L 37.068811,17.246167 C 37.068811,17.246167 37.088388,32 37.088388,32 L 22.160133,31.978069 C 22.160133,31.978069 26.997745,27.140456 26.997745,27.140456 C 18.528582,18.264221 13.291696,25.230495 11.500037,31.436501 z"
             style="fill:#404040;"/>
          </a>
         </g>
        </svg>
</svg>
