<?xml version="1.0" encoding="UTF-8" standalone="no"?>
<!DOCTYPE svg PUBLIC "-//W3C//DTD SVG 1.1//EN"
 "http://www.w3.org/Graphics/SVG/1.1/DTD/svg11.dtd">
<!-- Generated by graphviz version 2.38.0 (20140413.2041)
 -->
<!-- Title: ephemlib.h Pages: 1 -->
<!--zoomable 532 -->
<svg id="main" version="1.1" xmlns="http://www.w3.org/2000/svg" xmlns:xlink="http://www.w3.org/1999/xlink" xml:space="preserve" onload="init(evt)">
<style type="text/css"><![CDATA[
.edge:hover path { stroke: red; }
.edge:hover polygon { stroke: red; fill: red; }
]]></style>
<script type="text/javascript"><![CDATA[
var edges = document.getElementsByTagName('g');
if (edges && edges.length) {
  for (var i=0;i<edges.length;i++) {
    if (edges[i].id.substr(0,4)=='edge') {
      edges[i].setAttribute('class','edge');
    }
  }
}
]]></script>
        <defs>
                <circle id="rim" cx="0" cy="0" r="7"/>
                <circle id="rim2" cx="0" cy="0" r="3.5"/>
                <g id="zoomPlus">
                        <use xlink:href="#rim" fill="#404040">
                                <set attributeName="fill" to="#808080" begin="zoomplus.mouseover" end="zoomplus.mouseout"/>
                        </use>
                        <path d="M-4,0h8M0,-4v8" fill="none" stroke="white" stroke-width="1.5" pointer-events="none"/>
                </g>
                <g id="zoomMin">
                        <use xlink:href="#rim" fill="#404040">
                                <set attributeName="fill" to="#808080" begin="zoomminus.mouseover" end="zoomminus.mouseout"/>
                        </use>
                        <path d="M-4,0h8" fill="none" stroke="white" stroke-width="1.5" pointer-events="none"/>
                </g>
                <g id="dirArrow">
                        <path fill="none" stroke="white" stroke-width="1.5" d="M0,-3.0v7 M-2.5,-0.5L0,-3.0L2.5,-0.5"/>
                </g>
               <g id="resetDef">
                       <use xlink:href="#rim2" fill="#404040">
                               <set attributeName="fill" to="#808080" begin="reset.mouseover" end="reset.mouseout"/>
                       </use>
               </g>
        </defs>

<script type="text/javascript">
var viewWidth = 1496;
var viewHeight = 532;
var sectionId = 'dynsection-0';
</script>
<script xlink:href="svgpan.js"/>
<svg id="graph" class="graph">
<g id="viewport">
<title>ephemlib.h</title>
<polygon fill="white" stroke="none" points="-4,4 -4,-528 1491.5,-528 1491.5,4 -4,4"/>
<!-- Node1 -->
<g id="node1" class="node"><title>Node1</title>
<polygon fill="#bfbfbf" stroke="black" points="373,-504.5 373,-523.5 437,-523.5 437,-504.5 373,-504.5"/>
<text text-anchor="middle" x="405" y="-511.5" font-family="Helvetica,sans-Serif" font-size="10.00">ephemlib.h</text>
</g>
<!-- Node2 -->
<g id="node2" class="node"><title>Node2</title>
<g id="a_node2"><a xlink:href="mathlib_8h.html" target="_top" xlink:title="mathlib include file ">
<polygon fill="white" stroke="black" points="324.5,-392.5 324.5,-411.5 405.5,-411.5 405.5,-392.5 324.5,-392.5"/>
<text text-anchor="middle" x="365" y="-399.5" font-family="Helvetica,sans-Serif" font-size="10.00">math/mathlib.h</text>
</a>
</g>
</g>
<!-- Node1&#45;&gt;Node2 -->
<g id="edge1" class="edge"><title>Node1&#45;&gt;Node2</title>
<path fill="none" stroke="midnightblue" d="M400.408,-504.207C395.853,-495.259 388.866,-480.907 384,-468 378.168,-452.53 373.01,-434.442 369.545,-421.28"/>
<polygon fill="midnightblue" stroke="midnightblue" points="372.925,-420.369 367.056,-411.549 366.143,-422.105 372.925,-420.369"/>
</g>
<!-- Node36 -->
<g id="node36" class="node"><title>Node36</title>
<g id="a_node36"><a xlink:href="convertdef_8h.html" target="_top" xlink:title="support/convertdef.h">
<polygon fill="white" stroke="black" points="393,-448.5 393,-467.5 499,-467.5 499,-448.5 393,-448.5"/>
<text text-anchor="middle" x="446" y="-455.5" font-family="Helvetica,sans-Serif" font-size="10.00">support/convertdef.h</text>
</a>
</g>
</g>
<!-- Node1&#45;&gt;Node36 -->
<g id="edge56" class="edge"><title>Node1&#45;&gt;Node36</title>
<path fill="none" stroke="midnightblue" d="M411.77,-504.083C417.562,-496.455 426.058,-485.264 433.138,-475.941"/>
<polygon fill="midnightblue" stroke="midnightblue" points="436.096,-477.832 439.356,-467.751 430.521,-473.599 436.096,-477.832"/>
</g>
<!-- Node3 -->
<g id="node3" class="node"><title>Node3</title>
<g id="a_node3"><a xlink:href="config_cosmos_8h.html" target="_top" xlink:title="Headers and definitions common to all COSMOS. ">
<polygon fill="white" stroke="black" points="558.5,-112.5 558.5,-131.5 681.5,-131.5 681.5,-112.5 558.5,-112.5"/>
<text text-anchor="middle" x="620" y="-119.5" font-family="Helvetica,sans-Serif" font-size="10.00">support/configCosmos.h</text>
</a>
</g>
</g>
<!-- Node2&#45;&gt;Node3 -->
<g id="edge2" class="edge"><title>Node2&#45;&gt;Node3</title>
<path fill="none" stroke="midnightblue" d="M405.518,-400.096C445.28,-397.27 505.788,-387.571 547,-356 573.216,-335.917 583,-324.024 583,-291 583,-291 583,-291 583,-233 583,-198.889 599.182,-161.787 610.142,-140.568"/>
<polygon fill="midnightblue" stroke="midnightblue" points="613.359,-141.976 615.01,-131.51 607.193,-138.662 613.359,-141.976"/>
</g>
<!-- Node13 -->
<g id="node13" class="node"><title>Node13</title>
<polygon fill="white" stroke="#bfbfbf" points="72,-56.5 72,-75.5 116,-75.5 116,-56.5 72,-56.5"/>
<text text-anchor="middle" x="94" y="-63.5" font-family="Helvetica,sans-Serif" font-size="10.00">cmath</text>
</g>
<!-- Node2&#45;&gt;Node13 -->
<g id="edge54" class="edge"><title>Node2&#45;&gt;Node13</title>
<path fill="none" stroke="midnightblue" d="M324.473,-395.326C240.444,-382.421 55,-347.536 55,-291 55,-291 55,-291 55,-233 55,-178.158 75.4221,-115.762 86.7101,-85.4624"/>
<polygon fill="midnightblue" stroke="midnightblue" points="90.093,-86.4153 90.4009,-75.8249 83.556,-83.9118 90.093,-86.4153"/>
</g>
<!-- Node15 -->
<g id="node15" class="node"><title>Node15</title>
<polygon fill="white" stroke="#bfbfbf" points="0,-56.5 0,-75.5 54,-75.5 54,-56.5 0,-56.5"/>
<text text-anchor="middle" x="27" y="-63.5" font-family="Helvetica,sans-Serif" font-size="10.00">iostream</text>
</g>
<!-- Node2&#45;&gt;Node15 -->
<g id="edge55" class="edge"><title>Node2&#45;&gt;Node15</title>
<path fill="none" stroke="midnightblue" d="M324.368,-400.661C269.99,-398.798 171.635,-390.424 96,-356 54.6165,-337.165 17,-336.468 17,-291 17,-291 17,-291 17,-177 17,-144.816 21.2982,-107.552 24.2588,-85.7018"/>
<polygon fill="midnightblue" stroke="midnightblue" points="27.7619,-85.9245 25.6927,-75.5338 20.8305,-84.947 27.7619,-85.9245"/>
</g>
<!-- Node29 -->
<g id="node29" class="node"><title>Node29</title>
<g id="a_node29"><a xlink:href="cosmos-errno_8h.html" target="_top" xlink:title="COSMOS Error Codes. ">
<polygon fill="white" stroke="black" points="305.5,-336.5 305.5,-355.5 424.5,-355.5 424.5,-336.5 305.5,-336.5"/>
<text text-anchor="middle" x="365" y="-343.5" font-family="Helvetica,sans-Serif" font-size="10.00">support/cosmos&#45;errno.h</text>
</a>
</g>
</g>
<!-- Node2&#45;&gt;Node29 -->
<g id="edge34" class="edge"><title>Node2&#45;&gt;Node29</title>
<path fill="none" stroke="midnightblue" d="M365,-392.083C365,-385.006 365,-374.861 365,-365.986"/>
<polygon fill="midnightblue" stroke="midnightblue" points="368.5,-365.751 365,-355.751 361.5,-365.751 368.5,-365.751"/>
</g>
<!-- Node31 -->
<g id="node31" class="node"><title>Node31</title>
<g id="a_node31"><a xlink:href="math_2constants_8h.html" target="_top" xlink:title="constants.h">
<polygon fill="white" stroke="black" points="197,-168.5 197,-187.5 265,-187.5 265,-168.5 197,-168.5"/>
<text text-anchor="middle" x="231" y="-175.5" font-family="Helvetica,sans-Serif" font-size="10.00">constants.h</text>
</a>
</g>
</g>
<!-- Node2&#45;&gt;Node31 -->
<g id="edge37" class="edge"><title>Node2&#45;&gt;Node31</title>
<path fill="none" stroke="midnightblue" d="M338.893,-392.449C321.046,-385.339 298.148,-373.523 284,-356 245.439,-308.238 234.913,-232.976 232.055,-198.017"/>
<polygon fill="midnightblue" stroke="midnightblue" points="235.531,-197.54 231.351,-187.804 228.547,-198.021 235.531,-197.54"/>
</g>
<!-- Node32 -->
<g id="node32" class="node"><title>Node32</title>
<g id="a_node32"><a xlink:href="vector_8h.html" target="_top" xlink:title="vector.h">
<polygon fill="white" stroke="black" points="259,-224.5 259,-243.5 311,-243.5 311,-224.5 259,-224.5"/>
<text text-anchor="middle" x="285" y="-231.5" font-family="Helvetica,sans-Serif" font-size="10.00">vector.h</text>
</a>
</g>
</g>
<!-- Node2&#45;&gt;Node32 -->
<g id="edge40" class="edge"><title>Node2&#45;&gt;Node32</title>
<path fill="none" stroke="midnightblue" d="M342.033,-392.376C326.274,-385.174 306.398,-373.277 296,-356 276.852,-324.185 278.837,-278.908 281.945,-253.728"/>
<polygon fill="midnightblue" stroke="midnightblue" points="285.429,-254.089 283.38,-243.694 278.499,-253.098 285.429,-254.089"/>
</g>
<!-- Node34 -->
<g id="node34" class="node"><title>Node34</title>
<g id="a_node34"><a xlink:href="matrix_8h.html" target="_top" xlink:title="matrix.h">
<polygon fill="white" stroke="black" points="465,-280.5 465,-299.5 517,-299.5 517,-280.5 465,-280.5"/>
<text text-anchor="middle" x="491" y="-287.5" font-family="Helvetica,sans-Serif" font-size="10.00">matrix.h</text>
</a>
</g>
</g>
<!-- Node2&#45;&gt;Node34 -->
<g id="edge47" class="edge"><title>Node2&#45;&gt;Node34</title>
<path fill="none" stroke="midnightblue" d="M380.378,-392.381C394.703,-384.001 416.302,-370.452 433,-356 450.073,-341.223 466.959,-321.574 478.069,-307.762"/>
<polygon fill="midnightblue" stroke="midnightblue" points="481.033,-309.657 484.48,-299.638 475.538,-305.32 481.033,-309.657"/>
</g>
<!-- Node35 -->
<g id="node35" class="node"><title>Node35</title>
<g id="a_node35"><a xlink:href="rotation_8h.html" target="_top" xlink:title="rotation.h">
<polygon fill="white" stroke="black" points="481.5,-336.5 481.5,-355.5 538.5,-355.5 538.5,-336.5 481.5,-336.5"/>
<text text-anchor="middle" x="510" y="-343.5" font-family="Helvetica,sans-Serif" font-size="10.00">rotation.h</text>
</a>
</g>
</g>
<!-- Node2&#45;&gt;Node35 -->
<g id="edge50" class="edge"><title>Node2&#45;&gt;Node35</title>
<path fill="none" stroke="midnightblue" d="M387.976,-392.444C412.157,-383.438 450.418,-369.189 477.646,-359.049"/>
<polygon fill="midnightblue" stroke="midnightblue" points="478.982,-362.286 487.132,-355.516 476.539,-355.727 478.982,-362.286"/>
</g>
<!-- Node4 -->
<g id="node4" class="node"><title>Node4</title>
<polygon fill="white" stroke="#bfbfbf" points="1241.5,-56.5 1241.5,-75.5 1286.5,-75.5 1286.5,-56.5 1241.5,-56.5"/>
<text text-anchor="middle" x="1264" y="-63.5" font-family="Helvetica,sans-Serif" font-size="10.00">climits</text>
</g>
<!-- Node3&#45;&gt;Node4 -->
<g id="edge3" class="edge"><title>Node3&#45;&gt;Node4</title>
<path fill="none" stroke="midnightblue" d="M681.555,-119.778C791.63,-116.853 1029.19,-107.172 1227,-76 1228.47,-75.7684 1229.97,-75.5081 1231.47,-75.2257"/>
<polygon fill="midnightblue" stroke="midnightblue" points="1232.36,-78.6149 1241.42,-73.1164 1230.91,-71.7672 1232.36,-78.6149"/>
</g>
<!-- Node5 -->
<g id="node5" class="node"><title>Node5</title>
<polygon fill="white" stroke="#bfbfbf" points="1304.5,-56.5 1304.5,-75.5 1351.5,-75.5 1351.5,-56.5 1304.5,-56.5"/>
<text text-anchor="middle" x="1328" y="-63.5" font-family="Helvetica,sans-Serif" font-size="10.00">csignal</text>
</g>
<!-- Node3&#45;&gt;Node5 -->
<g id="edge4" class="edge"><title>Node3&#45;&gt;Node5</title>
<path fill="none" stroke="midnightblue" d="M681.558,-121.159C799.273,-120.539 1064.34,-114.696 1294.47,-75.9304"/>
<polygon fill="midnightblue" stroke="midnightblue" points="1295.09,-79.3742 1304.36,-74.2396 1293.91,-72.4742 1295.09,-79.3742"/>
</g>
<!-- Node6 -->
<g id="node6" class="node"><title>Node6</title>
<polygon fill="white" stroke="#bfbfbf" points="172,-56.5 172,-75.5 218,-75.5 218,-56.5 172,-56.5"/>
<text text-anchor="middle" x="195" y="-63.5" font-family="Helvetica,sans-Serif" font-size="10.00">cstdint</text>
</g>
<!-- Node3&#45;&gt;Node6 -->
<g id="edge5" class="edge"><title>Node3&#45;&gt;Node6</title>
<path fill="none" stroke="midnightblue" d="M558.17,-116.194C481.314,-109.678 346.314,-96.4519 232,-76 230.755,-75.7773 229.49,-75.5377 228.215,-75.2849"/>
<polygon fill="midnightblue" stroke="midnightblue" points="228.911,-71.8545 218.396,-73.1514 227.424,-78.6949 228.911,-71.8545"/>
</g>
<!-- Node7 -->
<g id="node7" class="node"><title>Node7</title>
<polygon fill="white" stroke="#bfbfbf" points="1370,-56.5 1370,-75.5 1426,-75.5 1426,-56.5 1370,-56.5"/>
<text text-anchor="middle" x="1398" y="-63.5" font-family="Helvetica,sans-Serif" font-size="10.00">cinttypes</text>
</g>
<!-- Node3&#45;&gt;Node7 -->
<g id="edge6" class="edge"><title>Node3&#45;&gt;Node7</title>
<path fill="none" stroke="midnightblue" d="M681.869,-120.949C807.868,-120.042 1103.29,-113.825 1359.57,-75.9372"/>
<polygon fill="midnightblue" stroke="midnightblue" points="1360.45,-79.3446 1369.82,-74.4017 1359.41,-72.4219 1360.45,-79.3446"/>
</g>
<!-- Node8 -->
<g id="node8" class="node"><title>Node8</title>
<polygon fill="white" stroke="#bfbfbf" points="1444.5,-56.5 1444.5,-75.5 1487.5,-75.5 1487.5,-56.5 1444.5,-56.5"/>
<text text-anchor="middle" x="1466" y="-63.5" font-family="Helvetica,sans-Serif" font-size="10.00">cstdio</text>
</g>
<!-- Node3&#45;&gt;Node8 -->
<g id="edge7" class="edge"><title>Node3&#45;&gt;Node8</title>
<path fill="none" stroke="midnightblue" d="M681.66,-119.411C842.189,-114.989 1271.27,-101.284 1434.13,-75.6373"/>
<polygon fill="midnightblue" stroke="midnightblue" points="1435.17,-79.013 1444.47,-73.9307 1434.03,-72.1066 1435.17,-79.013"/>
</g>
<!-- Node9 -->
<g id="node9" class="node"><title>Node9</title>
<polygon fill="white" stroke="#bfbfbf" points="274.5,-56.5 274.5,-75.5 323.5,-75.5 323.5,-56.5 274.5,-56.5"/>
<text text-anchor="middle" x="299" y="-63.5" font-family="Helvetica,sans-Serif" font-size="10.00">cstddef</text>
</g>
<!-- Node3&#45;&gt;Node9 -->
<g id="edge8" class="edge"><title>Node3&#45;&gt;Node9</title>
<path fill="none" stroke="midnightblue" d="M558.399,-113.395C502.067,-105.982 416.288,-93.5506 333.599,-76.1678"/>
<polygon fill="midnightblue" stroke="midnightblue" points="334.303,-72.7394 323.794,-74.0797 332.845,-79.5858 334.303,-72.7394"/>
</g>
<!-- Node10 -->
<g id="node10" class="node"><title>Node10</title>
<polygon fill="white" stroke="#bfbfbf" points="341.5,-56.5 341.5,-75.5 386.5,-75.5 386.5,-56.5 341.5,-56.5"/>
<text text-anchor="middle" x="364" y="-63.5" font-family="Helvetica,sans-Serif" font-size="10.00">cstdlib</text>
</g>
<!-- Node3&#45;&gt;Node10 -->
<g id="edge9" class="edge"><title>Node3&#45;&gt;Node10</title>
<path fill="none" stroke="midnightblue" d="M572.14,-112.474C528.762,-104.502 462.887,-91.7892 396.47,-75.9628"/>
<polygon fill="midnightblue" stroke="midnightblue" points="397.211,-72.5412 386.67,-73.6054 395.574,-79.3471 397.211,-72.5412"/>
</g>
<!-- Node11 -->
<g id="node11" class="node"><title>Node11</title>
<polygon fill="white" stroke="#bfbfbf" points="405,-56.5 405,-75.5 449,-75.5 449,-56.5 405,-56.5"/>
<text text-anchor="middle" x="427" y="-63.5" font-family="Helvetica,sans-Serif" font-size="10.00">cerrno</text>
</g>
<!-- Node3&#45;&gt;Node11 -->
<g id="edge10" class="edge"><title>Node3&#45;&gt;Node11</title>
<path fill="none" stroke="midnightblue" d="M588.913,-112.48C558.255,-104.052 509.807,-90.6664 458.88,-76.227"/>
<polygon fill="midnightblue" stroke="midnightblue" points="459.582,-72.7881 449.006,-73.4231 457.67,-79.5219 459.582,-72.7881"/>
</g>
<!-- Node12 -->
<g id="node12" class="node"><title>Node12</title>
<polygon fill="white" stroke="#bfbfbf" points="467,-56.5 467,-75.5 513,-75.5 513,-56.5 467,-56.5"/>
<text text-anchor="middle" x="490" y="-63.5" font-family="Helvetica,sans-Serif" font-size="10.00">cstring</text>
</g>
<!-- Node3&#45;&gt;Node12 -->
<g id="edge11" class="edge"><title>Node3&#45;&gt;Node12</title>
<path fill="none" stroke="midnightblue" d="M599.401,-112.444C578.007,-103.557 544.319,-89.5632 519.976,-79.4514"/>
<polygon fill="midnightblue" stroke="midnightblue" points="521.08,-76.1203 510.503,-75.5164 518.395,-82.5848 521.08,-76.1203"/>
</g>
<!-- Node3&#45;&gt;Node13 -->
<g id="edge12" class="edge"><title>Node3&#45;&gt;Node13</title>
<path fill="none" stroke="midnightblue" d="M558.213,-115.539C470.322,-107.63 304.187,-92.155 163,-76 150.962,-74.6226 137.765,-72.943 126.166,-71.4095"/>
<polygon fill="midnightblue" stroke="midnightblue" points="126.417,-67.912 116.041,-70.055 125.489,-74.8502 126.417,-67.912"/>
</g>
<!-- Node14 -->
<g id="node14" class="node"><title>Node14</title>
<polygon fill="white" stroke="#bfbfbf" points="531.5,-56.5 531.5,-75.5 576.5,-75.5 576.5,-56.5 531.5,-56.5"/>
<text text-anchor="middle" x="554" y="-63.5" font-family="Helvetica,sans-Serif" font-size="10.00">iosfwd</text>
</g>
<!-- Node3&#45;&gt;Node14 -->
<g id="edge13" class="edge"><title>Node3&#45;&gt;Node14</title>
<path fill="none" stroke="midnightblue" d="M609.396,-112.324C599.544,-104.263 584.649,-92.0765 572.785,-82.3695"/>
<polygon fill="midnightblue" stroke="midnightblue" points="574.753,-79.4575 564.797,-75.8339 570.32,-84.8752 574.753,-79.4575"/>
</g>
<!-- Node3&#45;&gt;Node15 -->
<g id="edge14" class="edge"><title>Node3&#45;&gt;Node15</title>
<path fill="none" stroke="midnightblue" d="M558.194,-119.321C456.803,-115.84 248.782,-105.653 63.9269,-75.8801"/>
<polygon fill="midnightblue" stroke="midnightblue" points="64.4607,-72.421 54.0273,-74.263 63.3322,-79.3294 64.4607,-72.421"/>
</g>
<!-- Node16 -->
<g id="node16" class="node"><title>Node16</title>
<polygon fill="white" stroke="#bfbfbf" points="594.5,-56.5 594.5,-75.5 645.5,-75.5 645.5,-56.5 594.5,-56.5"/>
<text text-anchor="middle" x="620" y="-63.5" font-family="Helvetica,sans-Serif" font-size="10.00">unistd.h</text>
</g>
<!-- Node3&#45;&gt;Node16 -->
<g id="edge15" class="edge"><title>Node3&#45;&gt;Node16</title>
<path fill="none" stroke="midnightblue" d="M620,-112.083C620,-105.006 620,-94.8611 620,-85.9865"/>
<polygon fill="midnightblue" stroke="midnightblue" points="623.5,-85.751 620,-75.7511 616.5,-85.7511 623.5,-85.751"/>
</g>
<!-- Node17 -->
<g id="node17" class="node"><title>Node17</title>
<polygon fill="white" stroke="#bfbfbf" points="664,-56.5 664,-75.5 708,-75.5 708,-56.5 664,-56.5"/>
<text text-anchor="middle" x="686" y="-63.5" font-family="Helvetica,sans-Serif" font-size="10.00">fcntl.h</text>
</g>
<!-- Node3&#45;&gt;Node17 -->
<g id="edge16" class="edge"><title>Node3&#45;&gt;Node17</title>
<path fill="none" stroke="midnightblue" d="M630.604,-112.324C640.456,-104.263 655.351,-92.0765 667.215,-82.3695"/>
<polygon fill="midnightblue" stroke="midnightblue" points="669.68,-84.8752 675.203,-75.8339 665.247,-79.4575 669.68,-84.8752"/>
</g>
<!-- Node18 -->
<g id="node18" class="node"><title>Node18</title>
<polygon fill="white" stroke="#bfbfbf" points="726.5,-56.5 726.5,-75.5 767.5,-75.5 767.5,-56.5 726.5,-56.5"/>
<text text-anchor="middle" x="747" y="-63.5" font-family="Helvetica,sans-Serif" font-size="10.00">string</text>
</g>
<!-- Node3&#45;&gt;Node18 -->
<g id="edge17" class="edge"><title>Node3&#45;&gt;Node18</title>
<path fill="none" stroke="midnightblue" d="M640.124,-112.444C661.024,-103.557 693.935,-89.5632 717.716,-79.4514"/>
<polygon fill="midnightblue" stroke="midnightblue" points="719.138,-82.6504 726.971,-75.5164 716.398,-76.2085 719.138,-82.6504"/>
</g>
<!-- Node19 -->
<g id="node19" class="node"><title>Node19</title>
<polygon fill="white" stroke="#bfbfbf" points="224,-0.5 224,-19.5 268,-19.5 268,-0.5 224,-0.5"/>
<text text-anchor="middle" x="246" y="-7.5" font-family="Helvetica,sans-Serif" font-size="10.00">vector</text>
</g>
<!-- Node3&#45;&gt;Node19 -->
<g id="edge18" class="edge"><title>Node3&#45;&gt;Node19</title>
<path fill="none" stroke="midnightblue" d="M558.202,-121.081C468.409,-119.916 307.893,-112.589 265,-76 251.742,-64.6908 247.467,-44.6881 246.218,-29.8496"/>
<polygon fill="midnightblue" stroke="midnightblue" points="249.709,-29.5675 245.753,-19.7387 242.716,-29.8888 249.709,-29.5675"/>
</g>
<!-- Node20 -->
<g id="node20" class="node"><title>Node20</title>
<polygon fill="white" stroke="#bfbfbf" points="785.5,-56.5 785.5,-75.5 828.5,-75.5 828.5,-56.5 785.5,-56.5"/>
<text text-anchor="middle" x="807" y="-63.5" font-family="Helvetica,sans-Serif" font-size="10.00">deque</text>
</g>
<!-- Node3&#45;&gt;Node20 -->
<g id="edge19" class="edge"><title>Node3&#45;&gt;Node20</title>
<path fill="none" stroke="midnightblue" d="M649.62,-112.472C679.103,-103.98 725.897,-90.4924 775.665,-76.0933"/>
<polygon fill="midnightblue" stroke="midnightblue" points="776.688,-79.4409 785.321,-73.299 774.742,-72.7168 776.688,-79.4409"/>
</g>
<!-- Node21 -->
<g id="node21" class="node"><title>Node21</title>
<polygon fill="white" stroke="#bfbfbf" points="837,-0.5 837,-19.5 881,-19.5 881,-0.5 837,-0.5"/>
<text text-anchor="middle" x="859" y="-7.5" font-family="Helvetica,sans-Serif" font-size="10.00">mutex</text>
</g>
<!-- Node3&#45;&gt;Node21 -->
<g id="edge20" class="edge"><title>Node3&#45;&gt;Node21</title>
<path fill="none" stroke="midnightblue" d="M681.578,-115.059C737.402,-108.485 814.31,-96.0801 837,-76 850.223,-64.2974 855.509,-44.3568 857.617,-29.6404"/>
<polygon fill="midnightblue" stroke="midnightblue" points="861.104,-29.9434 858.687,-19.628 854.144,-29.1992 861.104,-29.9434"/>
</g>
<!-- Node22 -->
<g id="node22" class="node"><title>Node22</title>
<polygon fill="white" stroke="#bfbfbf" points="901,-0.5 901,-19.5 945,-19.5 945,-0.5 901,-0.5"/>
<text text-anchor="middle" x="923" y="-7.5" font-family="Helvetica,sans-Serif" font-size="10.00">thread</text>
</g>
<!-- Node3&#45;&gt;Node22 -->
<g id="edge21" class="edge"><title>Node3&#45;&gt;Node22</title>
<path fill="none" stroke="midnightblue" d="M681.702,-119.275C731.786,-115.61 802.881,-105.127 858,-76 879.939,-64.4067 899.206,-42.9184 910.954,-27.8313"/>
<polygon fill="midnightblue" stroke="midnightblue" points="913.768,-29.9122 916.965,-19.8112 908.167,-25.7139 913.768,-29.9122"/>
</g>
<!-- Node23 -->
<g id="node23" class="node"><title>Node23</title>
<polygon fill="white" stroke="#bfbfbf" points="1016.5,-0.5 1016.5,-19.5 1111.5,-19.5 1111.5,-0.5 1016.5,-0.5"/>
<text text-anchor="middle" x="1064" y="-7.5" font-family="Helvetica,sans-Serif" font-size="10.00">condition_variable</text>
</g>
<!-- Node3&#45;&gt;Node23 -->
<g id="edge22" class="edge"><title>Node3&#45;&gt;Node23</title>
<path fill="none" stroke="midnightblue" d="M681.807,-118.388C793.735,-113.097 1020.97,-99.5693 1048,-76 1060.98,-64.6795 1064.3,-44.6785 1064.78,-29.8436"/>
<polygon fill="midnightblue" stroke="midnightblue" points="1068.28,-29.7131 1064.72,-19.7355 1061.28,-29.7575 1068.28,-29.7131"/>
</g>
<!-- Node24 -->
<g id="node24" class="node"><title>Node24</title>
<polygon fill="white" stroke="#bfbfbf" points="1131.5,-0.5 1131.5,-19.5 1174.5,-19.5 1174.5,-0.5 1131.5,-0.5"/>
<text text-anchor="middle" x="1153" y="-7.5" font-family="Helvetica,sans-Serif" font-size="10.00">queue</text>
</g>
<!-- Node3&#45;&gt;Node24 -->
<g id="edge23" class="edge"><title>Node3&#45;&gt;Node24</title>
<path fill="none" stroke="midnightblue" d="M681.69,-120.409C815.798,-118.482 1124.43,-110.326 1156,-76 1167.32,-63.688 1164.54,-43.8745 1160.19,-29.3554"/>
<polygon fill="midnightblue" stroke="midnightblue" points="1163.49,-28.2076 1156.92,-19.9018 1156.88,-30.4966 1163.49,-28.2076"/>
</g>
<!-- Node25 -->
<g id="node25" class="node"><title>Node25</title>
<polygon fill="white" stroke="#bfbfbf" points="1095,-56.5 1095,-75.5 1147,-75.5 1147,-56.5 1095,-56.5"/>
<text text-anchor="middle" x="1121" y="-63.5" font-family="Helvetica,sans-Serif" font-size="10.00">sstream</text>
</g>
<!-- Node3&#45;&gt;Node25 -->
<g id="edge24" class="edge"><title>Node3&#45;&gt;Node25</title>
<path fill="none" stroke="midnightblue" d="M681.829,-117.409C770.591,-111.701 939.078,-98.8028 1081,-76 1082.27,-75.7967 1083.55,-75.5776 1084.85,-75.3457"/>
<polygon fill="midnightblue" stroke="midnightblue" points="1085.71,-78.7434 1094.84,-73.3742 1084.35,-71.8758 1085.71,-78.7434"/>
</g>
<!-- Node26 -->
<g id="node26" class="node"><title>Node26</title>
<polygon fill="white" stroke="#bfbfbf" points="1193.5,-0.5 1193.5,-19.5 1228.5,-19.5 1228.5,-0.5 1193.5,-0.5"/>
<text text-anchor="middle" x="1211" y="-7.5" font-family="Helvetica,sans-Serif" font-size="10.00">map</text>
</g>
<!-- Node3&#45;&gt;Node26 -->
<g id="edge25" class="edge"><title>Node3&#45;&gt;Node26</title>
<path fill="none" stroke="midnightblue" d="M681.702,-119.172C817.246,-114.701 1132.21,-101.659 1173,-76 1189.74,-65.471 1199.96,-44.6872 1205.53,-29.4455"/>
<polygon fill="midnightblue" stroke="midnightblue" points="1208.98,-30.1455 1208.78,-19.5525 1202.33,-27.9578 1208.98,-30.1455"/>
</g>
<!-- Node27 -->
<g id="node27" class="node"><title>Node27</title>
<g id="a_node27"><a xlink:href="cosmos-defs_8h.html" target="_top" xlink:title="COSMOS definitions Definitions specific to the COSMOS environement. ">
<polygon fill="white" stroke="black" points="923,-56.5 923,-75.5 1039,-75.5 1039,-56.5 923,-56.5"/>
<text text-anchor="middle" x="981" y="-63.5" font-family="Helvetica,sans-Serif" font-size="10.00">support/cosmos&#45;defs.h</text>
</a>
</g>
</g>
<!-- Node3&#45;&gt;Node27 -->
<g id="edge26" class="edge"><title>Node3&#45;&gt;Node27</title>
<path fill="none" stroke="midnightblue" d="M677.202,-112.444C741.497,-102.826 845.775,-87.2275 913.875,-77.0409"/>
<polygon fill="midnightblue" stroke="midnightblue" points="914.694,-80.4574 924.066,-75.5164 913.658,-73.5344 914.694,-80.4574"/>
</g>
<!-- Node27&#45;&gt;Node19 -->
<g id="edge28" class="edge"><title>Node27&#45;&gt;Node19</title>
<path fill="none" stroke="midnightblue" d="M922.711,-60.7176C775.517,-49.9033 392.438,-21.7587 278.452,-13.3843"/>
<polygon fill="midnightblue" stroke="midnightblue" points="278.508,-9.87901 268.279,-12.6368 277.995,-16.8602 278.508,-9.87901"/>
</g>
<!-- Node27&#45;&gt;Node21 -->
<g id="edge32" class="edge"><title>Node27&#45;&gt;Node21</title>
<path fill="none" stroke="midnightblue" d="M961.669,-56.4435C941.68,-47.5961 910.257,-33.6875 887.436,-23.5865"/>
<polygon fill="midnightblue" stroke="midnightblue" points="888.802,-20.3635 878.241,-19.5164 885.968,-26.7645 888.802,-20.3635"/>
</g>
<!-- Node27&#45;&gt;Node22 -->
<g id="edge31" class="edge"><title>Node27&#45;&gt;Node22</title>
<path fill="none" stroke="midnightblue" d="M971.681,-56.324C963.107,-48.3414 950.188,-36.3128 939.812,-26.6529"/>
<polygon fill="midnightblue" stroke="midnightblue" points="942.192,-24.0865 932.488,-19.8339 937.422,-29.2098 942.192,-24.0865"/>
</g>
<!-- Node27&#45;&gt;Node23 -->
<g id="edge33" class="edge"><title>Node27&#45;&gt;Node23</title>
<path fill="none" stroke="midnightblue" d="M994.335,-56.324C1007.16,-47.979 1026.78,-35.2122 1041.94,-25.3524"/>
<polygon fill="midnightblue" stroke="midnightblue" points="1044.22,-28.0417 1050.7,-19.6545 1040.41,-22.1742 1044.22,-28.0417"/>
</g>
<!-- Node27&#45;&gt;Node24 -->
<g id="edge30" class="edge"><title>Node27&#45;&gt;Node24</title>
<path fill="none" stroke="midnightblue" d="M1008.25,-56.4435C1039.02,-46.7829 1089.02,-31.088 1121.45,-20.9046"/>
<polygon fill="midnightblue" stroke="midnightblue" points="1122.83,-24.1414 1131.32,-17.8067 1120.73,-17.4628 1122.83,-24.1414"/>
</g>
<!-- Node27&#45;&gt;Node26 -->
<g id="edge27" class="edge"><title>Node27&#45;&gt;Node26</title>
<path fill="none" stroke="midnightblue" d="M1025.68,-56.4814C1064.85,-48.7037 1123.48,-36.3152 1183.35,-19.9421"/>
<polygon fill="midnightblue" stroke="midnightblue" points="1184.66,-23.2127 1193.36,-17.1706 1182.79,-16.4666 1184.66,-23.2127"/>
</g>
<!-- Node28 -->
<g id="node28" class="node"><title>Node28</title>
<polygon fill="white" stroke="#bfbfbf" points="966.5,-0.5 966.5,-19.5 995.5,-19.5 995.5,-0.5 966.5,-0.5"/>
<text text-anchor="middle" x="981" y="-7.5" font-family="Helvetica,sans-Serif" font-size="10.00">list</text>
</g>
<!-- Node27&#45;&gt;Node28 -->
<g id="edge29" class="edge"><title>Node27&#45;&gt;Node28</title>
<path fill="none" stroke="midnightblue" d="M981,-56.083C981,-49.0059 981,-38.8611 981,-29.9865"/>
<polygon fill="midnightblue" stroke="midnightblue" points="984.5,-29.751 981,-19.7511 977.5,-29.7511 984.5,-29.751"/>
</g>
<!-- Node29&#45;&gt;Node3 -->
<g id="edge35" class="edge"><title>Node29&#45;&gt;Node3</title>
<path fill="none" stroke="midnightblue" d="M370.189,-336.407C387.433,-308.494 445.672,-219.224 515,-168 534.829,-153.349 560.16,-142.316 580.973,-134.842"/>
<polygon fill="midnightblue" stroke="midnightblue" points="582.172,-138.13 590.482,-131.558 579.887,-131.514 582.172,-138.13"/>
</g>
<!-- Node30 -->
<g id="node30" class="node"><title>Node30</title>
<polygon fill="white" stroke="#bfbfbf" points="323.5,-280.5 323.5,-299.5 370.5,-299.5 370.5,-280.5 323.5,-280.5"/>
<text text-anchor="middle" x="347" y="-287.5" font-family="Helvetica,sans-Serif" font-size="10.00">errno.h</text>
</g>
<!-- Node29&#45;&gt;Node30 -->
<g id="edge36" class="edge"><title>Node29&#45;&gt;Node30</title>
<path fill="none" stroke="midnightblue" d="M362.028,-336.083C359.616,-328.849 356.136,-318.409 353.132,-309.397"/>
<polygon fill="midnightblue" stroke="midnightblue" points="356.4,-308.131 349.917,-299.751 349.759,-310.345 356.4,-308.131"/>
</g>
<!-- Node31&#45;&gt;Node3 -->
<g id="edge38" class="edge"><title>Node31&#45;&gt;Node3</title>
<path fill="none" stroke="midnightblue" d="M265.222,-169.589C268.186,-169.023 271.142,-168.484 274,-168 368.353,-152.015 478.019,-138.622 548.167,-130.709"/>
<polygon fill="midnightblue" stroke="midnightblue" points="548.675,-134.174 558.223,-129.582 547.895,-127.218 548.675,-134.174"/>
</g>
<!-- Node31&#45;&gt;Node6 -->
<g id="edge39" class="edge"><title>Node31&#45;&gt;Node6</title>
<path fill="none" stroke="midnightblue" d="M228.175,-168.368C222.339,-150.537 208.842,-109.295 200.98,-85.2717"/>
<polygon fill="midnightblue" stroke="midnightblue" points="204.249,-84.0067 197.812,-75.5914 197.596,-86.1841 204.249,-84.0067"/>
</g>
<!-- Node32&#45;&gt;Node3 -->
<g id="edge41" class="edge"><title>Node32&#45;&gt;Node3</title>
<path fill="none" stroke="midnightblue" d="M295.328,-224.305C312.673,-210.18 349.274,-182.385 385,-168 437.413,-146.896 500.472,-135.514 548.066,-129.481"/>
<polygon fill="midnightblue" stroke="midnightblue" points="548.779,-132.921 558.283,-128.238 547.934,-125.972 548.779,-132.921"/>
</g>
<!-- Node32&#45;&gt;Node13 -->
<g id="edge45" class="edge"><title>Node32&#45;&gt;Node13</title>
<path fill="none" stroke="midnightblue" d="M258.903,-229.86C230.37,-225.205 184.754,-214.02 155,-188 123.234,-160.221 106.036,-111.965 98.5858,-85.5656"/>
<polygon fill="midnightblue" stroke="midnightblue" points="101.92,-84.4837 95.9759,-75.7134 95.1534,-86.2763 101.92,-84.4837"/>
</g>
<!-- Node32&#45;&gt;Node15 -->
<g id="edge43" class="edge"><title>Node32&#45;&gt;Node15</title>
<path fill="none" stroke="midnightblue" d="M258.876,-229.693C227.239,-224.725 173.312,-213.097 134,-188 90.8451,-160.45 54.8206,-110.651 37.7065,-84.3514"/>
<polygon fill="midnightblue" stroke="midnightblue" points="40.5962,-82.373 32.2786,-75.8103 34.6882,-86.1275 40.5962,-82.373"/>
</g>
<!-- Node32&#45;&gt;Node19 -->
<g id="edge46" class="edge"><title>Node32&#45;&gt;Node19</title>
<path fill="none" stroke="midnightblue" d="M258.744,-227.635C236.577,-221.72 205.7,-209.976 188,-188 156.008,-148.278 168.589,-126.696 163,-76 162.026,-67.1646 158.453,-63.6378 163,-56 174.088,-37.3758 195.867,-25.9852 214.333,-19.3246"/>
<polygon fill="midnightblue" stroke="midnightblue" points="215.485,-22.6304 223.888,-16.1772 213.295,-15.9818 215.485,-22.6304"/>
</g>
<!-- Node32&#45;&gt;Node31 -->
<g id="edge42" class="edge"><title>Node32&#45;&gt;Node31</title>
<path fill="none" stroke="midnightblue" d="M276.083,-224.083C268.22,-216.22 256.569,-204.569 247.081,-195.081"/>
<polygon fill="midnightblue" stroke="midnightblue" points="249.297,-192.347 239.751,-187.751 244.347,-197.297 249.297,-192.347"/>
</g>
<!-- Node33 -->
<g id="node33" class="node"><title>Node33</title>
<polygon fill="white" stroke="#bfbfbf" points="283,-168.5 283,-187.5 333,-187.5 333,-168.5 283,-168.5"/>
<text text-anchor="middle" x="308" y="-175.5" font-family="Helvetica,sans-Serif" font-size="10.00">iomanip</text>
</g>
<!-- Node32&#45;&gt;Node33 -->
<g id="edge44" class="edge"><title>Node32&#45;&gt;Node33</title>
<path fill="none" stroke="midnightblue" d="M288.798,-224.083C291.913,-216.77 296.423,-206.181 300.289,-197.103"/>
<polygon fill="midnightblue" stroke="midnightblue" points="303.574,-198.323 304.273,-187.751 297.134,-195.58 303.574,-198.323"/>
</g>
<!-- Node34&#45;&gt;Node3 -->
<g id="edge48" class="edge"><title>Node34&#45;&gt;Node3</title>
<path fill="none" stroke="midnightblue" d="M491.635,-280.284C493.634,-258.73 501.546,-202.2 531,-168 543.965,-152.945 563.189,-142.346 580.456,-135.232"/>
<polygon fill="midnightblue" stroke="midnightblue" points="581.723,-138.494 589.796,-131.632 579.206,-131.963 581.723,-138.494"/>
</g>
<!-- Node34&#45;&gt;Node32 -->
<g id="edge49" class="edge"><title>Node34&#45;&gt;Node32</title>
<path fill="none" stroke="midnightblue" d="M464.91,-282.161C428.48,-272.611 362.229,-255.245 321.088,-244.46"/>
<polygon fill="midnightblue" stroke="midnightblue" points="321.763,-241.019 311.203,-241.869 319.988,-247.79 321.763,-241.019"/>
</g>
<!-- Node35&#45;&gt;Node3 -->
<g id="edge51" class="edge"><title>Node35&#45;&gt;Node3</title>
<path fill="none" stroke="midnightblue" d="M513.136,-336.397C516.412,-327.358 521.669,-312.715 526,-300 545.893,-241.594 535.116,-219.564 569,-168 576.802,-156.127 588.535,-145.475 598.781,-137.518"/>
<polygon fill="midnightblue" stroke="midnightblue" points="600.959,-140.261 606.919,-131.501 596.797,-134.632 600.959,-140.261"/>
</g>
<!-- Node35&#45;&gt;Node32 -->
<g id="edge52" class="edge"><title>Node35&#45;&gt;Node32</title>
<path fill="none" stroke="midnightblue" d="M492.662,-336.3C467.622,-323.757 419.852,-299.912 379,-280 356.563,-269.064 331.011,-256.847 312.217,-247.905"/>
<polygon fill="midnightblue" stroke="midnightblue" points="313.591,-244.683 303.057,-243.551 310.586,-251.005 313.591,-244.683"/>
</g>
<!-- Node35&#45;&gt;Node34 -->
<g id="edge53" class="edge"><title>Node35&#45;&gt;Node34</title>
<path fill="none" stroke="midnightblue" d="M506.863,-336.083C504.317,-328.849 500.644,-318.409 497.473,-309.397"/>
<polygon fill="midnightblue" stroke="midnightblue" points="500.7,-308.023 494.079,-299.751 494.097,-310.346 500.7,-308.023"/>
</g>
<!-- Node36&#45;&gt;Node2 -->
<g id="edge58" class="edge"><title>Node36&#45;&gt;Node2</title>
<path fill="none" stroke="midnightblue" d="M432.986,-448.324C420.468,-439.979 401.318,-427.212 386.529,-417.352"/>
<polygon fill="midnightblue" stroke="midnightblue" points="388.244,-414.289 377.982,-411.655 384.361,-420.114 388.244,-414.289"/>
</g>
<!-- Node36&#45;&gt;Node3 -->
<g id="edge57" class="edge"><title>Node36&#45;&gt;Node3</title>
<path fill="none" stroke="midnightblue" d="M493.358,-448.425C545.185,-435.99 621,-407.467 621,-347 621,-347 621,-347 621,-233 621,-200.947 620.57,-163.642 620.274,-141.748"/>
<polygon fill="midnightblue" stroke="midnightblue" points="623.771,-141.507 620.131,-131.558 616.772,-141.606 623.771,-141.507"/>
</g>
</g>
</svg>
        <g id="navigator" transform="translate(0 0)" fill="#404254">
                <rect fill="#f2f5e9" fill-opacity="0.5" stroke="#606060" stroke-width=".5" x="0" y="0" width="60" height="60"/>
                <use id="zoomplus" xlink:href="#zoomPlus" x="17" y="9" onmousedown="handleZoom(evt,'in')"/>
                <use id="zoomminus" xlink:href="#zoomMin" x="42" y="9" onmousedown="handleZoom(evt,'out')"/>
                <use id="reset" xlink:href="#resetDef" x="30" y="36" onmousedown="handleReset()"/>
                <g id="arrowUp" xlink:href="#dirArrow" transform="translate(30 24)" onmousedown="handlePan(0,-1)">
                  <use xlink:href="#rim" fill="#404040">
                        <set attributeName="fill" to="#808080" begin="arrowUp.mouseover" end="arrowUp.mouseout"/>
                  </use>
                  <path fill="none" stroke="white" stroke-width="1.5" d="M0,-3.0v7 M-2.5,-0.5L0,-3.0L2.5,-0.5"/>
                </g>
                <g id="arrowRight" xlink:href="#dirArrow" transform="rotate(90) translate(36 -43)" onmousedown="handlePan(1,0)">
                  <use xlink:href="#rim" fill="#404040">
                        <set attributeName="fill" to="#808080" begin="arrowRight.mouseover" end="arrowRight.mouseout"/>
                  </use>
                  <path fill="none" stroke="white" stroke-width="1.5" d="M0,-3.0v7 M-2.5,-0.5L0,-3.0L2.5,-0.5"/>
                </g>
                <g id="arrowDown" xlink:href="#dirArrow" transform="rotate(180) translate(-30 -48)" onmousedown="handlePan(0,1)">
                  <use xlink:href="#rim" fill="#404040">
                        <set attributeName="fill" to="#808080" begin="arrowDown.mouseover" end="arrowDown.mouseout"/>
                  </use>
                  <path fill="none" stroke="white" stroke-width="1.5" d="M0,-3.0v7 M-2.5,-0.5L0,-3.0L2.5,-0.5"/>
                </g>
                <g id="arrowLeft" xlink:href="#dirArrow" transform="rotate(270) translate(-36 17)" onmousedown="handlePan(-1,0)">
                  <use xlink:href="#rim" fill="#404040">
                        <set attributeName="fill" to="#808080" begin="arrowLeft.mouseover" end="arrowLeft.mouseout"/>
                  </use>
                  <path fill="none" stroke="white" stroke-width="1.5" d="M0,-3.0v7 M-2.5,-0.5L0,-3.0L2.5,-0.5"/>
                </g>
        </g>
        <svg viewBox="0 0 15 15" width="100%" height="30px" preserveAspectRatio="xMaxYMin meet">
         <g id="arrow_out" transform="scale(0.3 0.3)">
          <a xlink:href="ephemlib_8h__incl_org.svg" target="_base">
           <rect id="button" ry="5" rx="5" y="6" x="6" height="38" width="38"
                fill="#f2f5e9" fill-opacity="0.5" stroke="#606060" stroke-width="1.0"/>
           <path id="arrow"
             d="M 11.500037,31.436501 C 11.940474,20.09759 22.043105,11.32322 32.158766,21.979434 L 37.068811,17.246167 C 37.068811,17.246167 37.088388,32 37.088388,32 L 22.160133,31.978069 C 22.160133,31.978069 26.997745,27.140456 26.997745,27.140456 C 18.528582,18.264221 13.291696,25.230495 11.500037,31.436501 z"
             style="fill:#404040;"/>
          </a>
         </g>
        </svg>
</svg>
