<?xml version="1.0" encoding="UTF-8" standalone="no"?>
<!DOCTYPE svg PUBLIC "-//W3C//DTD SVG 1.1//EN"
 "http://www.w3.org/Graphics/SVG/1.1/DTD/svg11.dtd">
<!-- Generated by graphviz version 2.38.0 (20140413.2041)
 -->
<!-- Title: event.h Pages: 1 -->
<svg width="854pt" height="140pt"
 viewBox="0.00 0.00 853.50 140.00" xmlns="http://www.w3.org/2000/svg" xmlns:xlink="http://www.w3.org/1999/xlink">
<g id="graph0" class="graph" transform="scale(1 1) rotate(0) translate(4 136)">
<title>event.h</title>
<polygon fill="white" stroke="none" points="-4,4 -4,-136 849.5,-136 849.5,4 -4,4"/>
<!-- Node1 -->
<g id="node1" class="node"><title>Node1</title>
<polygon fill="#bfbfbf" stroke="black" points="292.5,-112.5 292.5,-131.5 341.5,-131.5 341.5,-112.5 292.5,-112.5"/>
<text text-anchor="middle" x="317" y="-119.5" font-family="Helvetica,sans-Serif" font-size="10.00">event.h</text>
</g>
<!-- Node2 -->
<g id="node2" class="node"><title>Node2</title>
<g id="a_node2"><a xlink:href="scheduler_8h.html" target="_top" xlink:title="Scheduler Class. ">
<polygon fill="white" stroke="black" points="184.5,-56.5 184.5,-75.5 251.5,-75.5 251.5,-56.5 184.5,-56.5"/>
<text text-anchor="middle" x="218" y="-63.5" font-family="Helvetica,sans-Serif" font-size="10.00">scheduler.h</text>
</a>
</g>
</g>
<!-- Node1&#45;&gt;Node2 -->
<g id="edge1" class="edge"><title>Node1&#45;&gt;Node2</title>
<path fill="none" stroke="midnightblue" d="M292.163,-107.453C273.886,-97.4835 249.584,-84.2279 233.867,-75.6545"/>
<polygon fill="midnightblue" stroke="midnightblue" points="290.639,-110.608 301.094,-112.324 293.991,-104.463 290.639,-110.608"/>
</g>
<!-- Node4 -->
<g id="node4" class="node"><title>Node4</title>
<g id="a_node4"><a xlink:href="command__generator_8cpp.html" target="_top" xlink:title="command_generator.cpp">
<polygon fill="white" stroke="black" points="0,-0.5 0,-19.5 124,-19.5 124,-0.5 0,-0.5"/>
<text text-anchor="middle" x="62" y="-7.5" font-family="Helvetica,sans-Serif" font-size="10.00">command_generator.cpp</text>
</a>
</g>
</g>
<!-- Node1&#45;&gt;Node4 -->
<g id="edge11" class="edge"><title>Node1&#45;&gt;Node4</title>
<path fill="none" stroke="midnightblue" d="M282.552,-112.322C253.316,-104.433 210.574,-91.65 175,-76 136.882,-59.2311 95.1829,-32.9884 74.7421,-19.5533"/>
<polygon fill="midnightblue" stroke="midnightblue" points="281.732,-115.726 292.295,-114.905 283.526,-108.96 281.732,-115.726"/>
</g>
<!-- Node5 -->
<g id="node5" class="node"><title>Node5</title>
<g id="a_node5"><a xlink:href="command__generator__remote_8cpp.html" target="_top" xlink:title="command_generator_remote.cpp">
<polygon fill="white" stroke="black" points="237.5,-0.5 237.5,-19.5 396.5,-19.5 396.5,-0.5 237.5,-0.5"/>
<text text-anchor="middle" x="317" y="-7.5" font-family="Helvetica,sans-Serif" font-size="10.00">command_generator_remote.cpp</text>
</a>
</g>
</g>
<!-- Node1&#45;&gt;Node5 -->
<g id="edge12" class="edge"><title>Node1&#45;&gt;Node5</title>
<path fill="none" stroke="midnightblue" d="M317,-102.348C317,-78.2538 317,-37.3079 317,-19.5914"/>
<polygon fill="midnightblue" stroke="midnightblue" points="313.5,-102.368 317,-112.368 320.5,-102.369 313.5,-102.368"/>
</g>
<!-- Node6 -->
<g id="node6" class="node"><title>Node6</title>
<g id="a_node6"><a xlink:href="command__queue_8h.html" target="_top" xlink:title="Command Queue Class. ">
<polygon fill="white" stroke="black" points="463.5,-56.5 463.5,-75.5 562.5,-75.5 562.5,-56.5 463.5,-56.5"/>
<text text-anchor="middle" x="513" y="-63.5" font-family="Helvetica,sans-Serif" font-size="10.00">command_queue.h</text>
</a>
</g>
</g>
<!-- Node1&#45;&gt;Node6 -->
<g id="edge5" class="edge"><title>Node1&#45;&gt;Node6</title>
<path fill="none" stroke="midnightblue" d="M351.641,-111.456C388.549,-101.288 446.444,-85.337 481.926,-75.5611"/>
<polygon fill="midnightblue" stroke="midnightblue" points="350.535,-108.13 341.824,-114.161 352.394,-114.879 350.535,-108.13"/>
</g>
<!-- Node11 -->
<g id="node11" class="node"><title>Node11</title>
<g id="a_node11"><a xlink:href="event_8cpp.html" target="_top" xlink:title="event.cpp">
<polygon fill="white" stroke="black" points="580.5,-56.5 580.5,-75.5 639.5,-75.5 639.5,-56.5 580.5,-56.5"/>
<text text-anchor="middle" x="610" y="-63.5" font-family="Helvetica,sans-Serif" font-size="10.00">event.cpp</text>
</a>
</g>
</g>
<!-- Node1&#45;&gt;Node11 -->
<g id="edge10" class="edge"><title>Node1&#45;&gt;Node11</title>
<path fill="none" stroke="midnightblue" d="M351.814,-115.512C401.022,-107.606 493.658,-92.1757 572,-76 574.656,-75.4516 577.41,-74.8549 580.166,-74.2383"/>
<polygon fill="midnightblue" stroke="midnightblue" points="351.029,-112.093 341.707,-117.128 352.134,-119.005 351.029,-112.093"/>
</g>
<!-- Node3 -->
<g id="node3" class="node"><title>Node3</title>
<g id="a_node3"><a xlink:href="scheduler_8cpp.html" target="_top" xlink:title="Agent support functions. ">
<polygon fill="white" stroke="black" points="142.5,-0.5 142.5,-19.5 219.5,-19.5 219.5,-0.5 142.5,-0.5"/>
<text text-anchor="middle" x="181" y="-7.5" font-family="Helvetica,sans-Serif" font-size="10.00">scheduler.cpp</text>
</a>
</g>
</g>
<!-- Node2&#45;&gt;Node3 -->
<g id="edge2" class="edge"><title>Node2&#45;&gt;Node3</title>
<path fill="none" stroke="midnightblue" d="M206.054,-47.5656C199.688,-38.2747 192.133,-27.2484 186.996,-19.7511"/>
<polygon fill="midnightblue" stroke="midnightblue" points="203.351,-49.812 211.89,-56.083 209.125,-45.8553 203.351,-49.812"/>
</g>
<!-- Node2&#45;&gt;Node4 -->
<g id="edge3" class="edge"><title>Node2&#45;&gt;Node4</title>
<path fill="none" stroke="midnightblue" d="M183.83,-53.172C154.456,-43.0039 112.802,-28.5852 86.603,-19.5164"/>
<polygon fill="midnightblue" stroke="midnightblue" points="182.687,-56.4798 193.281,-56.4435 184.976,-49.8649 182.687,-56.4798"/>
</g>
<!-- Node2&#45;&gt;Node5 -->
<g id="edge4" class="edge"><title>Node2&#45;&gt;Node5</title>
<path fill="none" stroke="midnightblue" d="M242.837,-51.4526C261.114,-41.4835 285.416,-28.2279 301.133,-19.6545"/>
<polygon fill="midnightblue" stroke="midnightblue" points="241.009,-48.4628 233.906,-56.324 244.361,-54.608 241.009,-48.4628"/>
</g>
<!-- Node7 -->
<g id="node7" class="node"><title>Node7</title>
<g id="a_node7"><a xlink:href="command__queue_8cpp.html" target="_top" xlink:title="command_queue.cpp">
<polygon fill="white" stroke="black" points="516,-0.5 516,-19.5 626,-19.5 626,-0.5 516,-0.5"/>
<text text-anchor="middle" x="571" y="-7.5" font-family="Helvetica,sans-Serif" font-size="10.00">command_queue.cpp</text>
</a>
</g>
</g>
<!-- Node6&#45;&gt;Node7 -->
<g id="edge6" class="edge"><title>Node6&#45;&gt;Node7</title>
<path fill="none" stroke="midnightblue" d="M529.913,-49.2533C540.203,-39.6731 552.966,-27.7906 561.512,-19.8339"/>
<polygon fill="midnightblue" stroke="midnightblue" points="527.253,-46.9481 522.319,-56.324 532.023,-52.0714 527.253,-46.9481"/>
</g>
<!-- Node8 -->
<g id="node8" class="node"><title>Node8</title>
<g id="a_node8"><a xlink:href="agent__exec_8cpp.html" target="_top" xlink:title="Executive Agent source file. ">
<polygon fill="white" stroke="black" points="644,-0.5 644,-19.5 730,-19.5 730,-0.5 644,-0.5"/>
<text text-anchor="middle" x="687" y="-7.5" font-family="Helvetica,sans-Serif" font-size="10.00">agent_exec.cpp</text>
</a>
</g>
</g>
<!-- Node6&#45;&gt;Node8 -->
<g id="edge7" class="edge"><title>Node6&#45;&gt;Node8</title>
<path fill="none" stroke="midnightblue" d="M550.261,-53.4363C583.067,-43.2551 630.083,-28.664 659.558,-19.5164"/>
<polygon fill="midnightblue" stroke="midnightblue" points="549.084,-50.1368 540.571,-56.4435 551.159,-56.8222 549.084,-50.1368"/>
</g>
<!-- Node9 -->
<g id="node9" class="node"><title>Node9</title>
<g id="a_node9"><a xlink:href="agent__monitor_8cpp.html" target="_top" xlink:title="agent_monitor.cpp">
<polygon fill="white" stroke="black" points="748.5,-0.5 748.5,-19.5 845.5,-19.5 845.5,-0.5 748.5,-0.5"/>
<text text-anchor="middle" x="797" y="-7.5" font-family="Helvetica,sans-Serif" font-size="10.00">agent_monitor.cpp</text>
</a>
</g>
</g>
<!-- Node6&#45;&gt;Node9 -->
<g id="edge8" class="edge"><title>Node6&#45;&gt;Node9</title>
<path fill="none" stroke="midnightblue" d="M568.027,-54.5371C621.701,-44.3316 702.338,-28.9992 752.21,-19.5164"/>
<polygon fill="midnightblue" stroke="midnightblue" points="567.171,-51.1371 558.001,-56.4435 568.478,-58.0139 567.171,-51.1371"/>
</g>
<!-- Node10 -->
<g id="node10" class="node"><title>Node10</title>
<g id="a_node10"><a xlink:href="agent__time_8cpp.html" target="_top" xlink:title="agent_time.cpp">
<polygon fill="white" stroke="black" points="414.5,-0.5 414.5,-19.5 497.5,-19.5 497.5,-0.5 414.5,-0.5"/>
<text text-anchor="middle" x="456" y="-7.5" font-family="Helvetica,sans-Serif" font-size="10.00">agent_time.cpp</text>
</a>
</g>
</g>
<!-- Node6&#45;&gt;Node10 -->
<g id="edge9" class="edge"><title>Node6&#45;&gt;Node10</title>
<path fill="none" stroke="midnightblue" d="M496.379,-49.2533C486.266,-39.6731 473.723,-27.7906 465.325,-19.8339"/>
<polygon fill="midnightblue" stroke="midnightblue" points="494.175,-51.9873 503.842,-56.324 498.99,-46.9056 494.175,-51.9873"/>
</g>
</g>
</svg>
