<?xml version="1.0" encoding="UTF-8" standalone="no"?>
<!DOCTYPE svg PUBLIC "-//W3C//DTD SVG 1.1//EN"
 "http://www.w3.org/Graphics/SVG/1.1/DTD/svg11.dtd">
<!-- Generated by graphviz version 2.38.0 (20140413.2041)
 -->
<!-- Title: geomag.h Pages: 1 -->
<svg width="1496pt" height="476pt"
 viewBox="0.00 0.00 1496.00 476.00" xmlns="http://www.w3.org/2000/svg" xmlns:xlink="http://www.w3.org/1999/xlink">
<g id="graph0" class="graph" transform="scale(1 1) rotate(0) translate(4 472)">
<title>geomag.h</title>
<polygon fill="white" stroke="none" points="-4,4 -4,-472 1492,-472 1492,4 -4,4"/>
<!-- Node1 -->
<g id="node1" class="node"><title>Node1</title>
<polygon fill="#bfbfbf" stroke="black" points="927.5,-448.5 927.5,-467.5 986.5,-467.5 986.5,-448.5 927.5,-448.5"/>
<text text-anchor="middle" x="957" y="-455.5" font-family="Helvetica,sans-Serif" font-size="10.00">geomag.h</text>
</g>
<!-- Node2 -->
<g id="node2" class="node"><title>Node2</title>
<g id="a_node2"><a xlink:href="config_cosmos_8h.html" target="_top" xlink:title="Headers and definitions common to all COSMOS. ">
<polygon fill="white" stroke="black" points="798.5,-112.5 798.5,-131.5 921.5,-131.5 921.5,-112.5 798.5,-112.5"/>
<text text-anchor="middle" x="860" y="-119.5" font-family="Helvetica,sans-Serif" font-size="10.00">support/configCosmos.h</text>
</a>
</g>
</g>
<!-- Node1&#45;&gt;Node2 -->
<g id="edge1" class="edge"><title>Node1&#45;&gt;Node2</title>
<path fill="none" stroke="midnightblue" d="M927.466,-450.734C881.484,-439.051 798,-409.265 798,-347 798,-347 798,-347 798,-233 798,-202.902 801.953,-194.066 817,-168 823.386,-156.937 833.044,-146.495 841.59,-138.46"/>
<polygon fill="midnightblue" stroke="midnightblue" points="844.188,-140.832 849.3,-131.552 839.517,-135.618 844.188,-140.832"/>
</g>
<!-- Node28 -->
<g id="node28" class="node"><title>Node28</title>
<g id="a_node28"><a xlink:href="mathlib_8h.html" target="_top" xlink:title="mathlib include file ">
<polygon fill="white" stroke="black" points="1075.5,-392.5 1075.5,-411.5 1156.5,-411.5 1156.5,-392.5 1075.5,-392.5"/>
<text text-anchor="middle" x="1116" y="-399.5" font-family="Helvetica,sans-Serif" font-size="10.00">math/mathlib.h</text>
</a>
</g>
</g>
<!-- Node1&#45;&gt;Node28 -->
<g id="edge33" class="edge"><title>Node1&#45;&gt;Node28</title>
<path fill="none" stroke="midnightblue" d="M982.194,-448.444C1008.94,-439.359 1051.4,-424.939 1081.31,-414.783"/>
<polygon fill="midnightblue" stroke="midnightblue" points="1082.58,-418.046 1090.92,-411.516 1080.33,-411.418 1082.58,-418.046"/>
</g>
<!-- Node3 -->
<g id="node3" class="node"><title>Node3</title>
<polygon fill="white" stroke="#bfbfbf" points="862.5,-56.5 862.5,-75.5 907.5,-75.5 907.5,-56.5 862.5,-56.5"/>
<text text-anchor="middle" x="885" y="-63.5" font-family="Helvetica,sans-Serif" font-size="10.00">climits</text>
</g>
<!-- Node2&#45;&gt;Node3 -->
<g id="edge2" class="edge"><title>Node2&#45;&gt;Node3</title>
<path fill="none" stroke="midnightblue" d="M864.128,-112.083C867.514,-104.77 872.416,-94.1814 876.619,-85.1034"/>
<polygon fill="midnightblue" stroke="midnightblue" points="879.923,-86.2962 880.949,-75.7511 873.571,-83.3553 879.923,-86.2962"/>
</g>
<!-- Node4 -->
<g id="node4" class="node"><title>Node4</title>
<polygon fill="white" stroke="#bfbfbf" points="925.5,-56.5 925.5,-75.5 972.5,-75.5 972.5,-56.5 925.5,-56.5"/>
<text text-anchor="middle" x="949" y="-63.5" font-family="Helvetica,sans-Serif" font-size="10.00">csignal</text>
</g>
<!-- Node2&#45;&gt;Node4 -->
<g id="edge3" class="edge"><title>Node2&#45;&gt;Node4</title>
<path fill="none" stroke="midnightblue" d="M874.299,-112.324C888.183,-103.9 909.492,-90.9709 925.804,-81.0741"/>
<polygon fill="midnightblue" stroke="midnightblue" points="928.002,-83.8341 934.736,-75.6545 924.371,-77.8495 928.002,-83.8341"/>
</g>
<!-- Node5 -->
<g id="node5" class="node"><title>Node5</title>
<polygon fill="white" stroke="#bfbfbf" points="0,-56.5 0,-75.5 46,-75.5 46,-56.5 0,-56.5"/>
<text text-anchor="middle" x="23" y="-63.5" font-family="Helvetica,sans-Serif" font-size="10.00">cstdint</text>
</g>
<!-- Node2&#45;&gt;Node5 -->
<g id="edge4" class="edge"><title>Node2&#45;&gt;Node5</title>
<path fill="none" stroke="midnightblue" d="M798.225,-119.292C639.002,-114.617 216.5,-100.411 56.4431,-75.8183"/>
<polygon fill="midnightblue" stroke="midnightblue" points="56.7146,-72.317 46.2855,-74.1834 55.6022,-79.2281 56.7146,-72.317"/>
</g>
<!-- Node6 -->
<g id="node6" class="node"><title>Node6</title>
<polygon fill="white" stroke="#bfbfbf" points="991,-56.5 991,-75.5 1047,-75.5 1047,-56.5 991,-56.5"/>
<text text-anchor="middle" x="1019" y="-63.5" font-family="Helvetica,sans-Serif" font-size="10.00">cinttypes</text>
</g>
<!-- Node2&#45;&gt;Node6 -->
<g id="edge5" class="edge"><title>Node2&#45;&gt;Node6</title>
<path fill="none" stroke="midnightblue" d="M885.194,-112.444C911.943,-103.359 954.403,-88.9388 984.305,-78.7831"/>
<polygon fill="midnightblue" stroke="midnightblue" points="985.581,-82.0464 993.924,-75.5164 983.329,-75.4182 985.581,-82.0464"/>
</g>
<!-- Node7 -->
<g id="node7" class="node"><title>Node7</title>
<polygon fill="white" stroke="#bfbfbf" points="1065.5,-56.5 1065.5,-75.5 1108.5,-75.5 1108.5,-56.5 1065.5,-56.5"/>
<text text-anchor="middle" x="1087" y="-63.5" font-family="Helvetica,sans-Serif" font-size="10.00">cstdio</text>
</g>
<!-- Node2&#45;&gt;Node7 -->
<g id="edge6" class="edge"><title>Node2&#45;&gt;Node7</title>
<path fill="none" stroke="midnightblue" d="M900.328,-112.443C937.973,-104.3 995.925,-91.3662 1055.42,-76.0343"/>
<polygon fill="midnightblue" stroke="midnightblue" points="1056.56,-79.3525 1065.36,-73.4518 1054.8,-72.5772 1056.56,-79.3525"/>
</g>
<!-- Node8 -->
<g id="node8" class="node"><title>Node8</title>
<polygon fill="white" stroke="#bfbfbf" points="1165.5,-56.5 1165.5,-75.5 1214.5,-75.5 1214.5,-56.5 1165.5,-56.5"/>
<text text-anchor="middle" x="1190" y="-63.5" font-family="Helvetica,sans-Serif" font-size="10.00">cstddef</text>
</g>
<!-- Node2&#45;&gt;Node8 -->
<g id="edge7" class="edge"><title>Node2&#45;&gt;Node8</title>
<path fill="none" stroke="midnightblue" d="M921.538,-112.82C980.593,-104.656 1072.19,-91.1667 1151,-76 1152.45,-75.721 1153.93,-75.4262 1155.42,-75.1204"/>
<polygon fill="midnightblue" stroke="midnightblue" points="1156.26,-78.5187 1165.3,-72.9877 1154.79,-71.6763 1156.26,-78.5187"/>
</g>
<!-- Node9 -->
<g id="node9" class="node"><title>Node9</title>
<polygon fill="white" stroke="#bfbfbf" points="1232.5,-56.5 1232.5,-75.5 1277.5,-75.5 1277.5,-56.5 1232.5,-56.5"/>
<text text-anchor="middle" x="1255" y="-63.5" font-family="Helvetica,sans-Serif" font-size="10.00">cstdlib</text>
</g>
<!-- Node2&#45;&gt;Node9 -->
<g id="edge8" class="edge"><title>Node2&#45;&gt;Node9</title>
<path fill="none" stroke="midnightblue" d="M921.67,-116.395C992.329,-110.446 1111.66,-98.3441 1222.41,-76.0541"/>
<polygon fill="midnightblue" stroke="midnightblue" points="1223.32,-79.441 1232.42,-74.0079 1221.92,-72.583 1223.32,-79.441"/>
</g>
<!-- Node10 -->
<g id="node10" class="node"><title>Node10</title>
<polygon fill="white" stroke="#bfbfbf" points="64,-56.5 64,-75.5 108,-75.5 108,-56.5 64,-56.5"/>
<text text-anchor="middle" x="86" y="-63.5" font-family="Helvetica,sans-Serif" font-size="10.00">cerrno</text>
</g>
<!-- Node2&#45;&gt;Node10 -->
<g id="edge9" class="edge"><title>Node2&#45;&gt;Node10</title>
<path fill="none" stroke="midnightblue" d="M798.307,-121.864C671.918,-122.642 374.567,-119.372 118.086,-75.7905"/>
<polygon fill="midnightblue" stroke="midnightblue" points="118.661,-72.3383 108.212,-74.0893 117.473,-79.2366 118.661,-72.3383"/>
</g>
<!-- Node11 -->
<g id="node11" class="node"><title>Node11</title>
<polygon fill="white" stroke="#bfbfbf" points="126,-56.5 126,-75.5 172,-75.5 172,-56.5 126,-56.5"/>
<text text-anchor="middle" x="149" y="-63.5" font-family="Helvetica,sans-Serif" font-size="10.00">cstring</text>
</g>
<!-- Node2&#45;&gt;Node11 -->
<g id="edge10" class="edge"><title>Node2&#45;&gt;Node11</title>
<path fill="none" stroke="midnightblue" d="M798.169,-121.183C679.932,-120.606 413.688,-114.831 182.241,-75.855"/>
<polygon fill="midnightblue" stroke="midnightblue" points="182.737,-72.389 172.29,-74.1549 181.558,-79.289 182.737,-72.389"/>
</g>
<!-- Node12 -->
<g id="node12" class="node"><title>Node12</title>
<polygon fill="white" stroke="#bfbfbf" points="1444,-56.5 1444,-75.5 1488,-75.5 1488,-56.5 1444,-56.5"/>
<text text-anchor="middle" x="1466" y="-63.5" font-family="Helvetica,sans-Serif" font-size="10.00">cmath</text>
</g>
<!-- Node2&#45;&gt;Node12 -->
<g id="edge11" class="edge"><title>Node2&#45;&gt;Node12</title>
<path fill="none" stroke="midnightblue" d="M921.802,-120.291C1025.89,-118.197 1242.72,-109.961 1433.83,-75.8443"/>
<polygon fill="midnightblue" stroke="midnightblue" points="1434.56,-79.2692 1443.78,-74.0412 1433.32,-72.3815 1434.56,-79.2692"/>
</g>
<!-- Node13 -->
<g id="node13" class="node"><title>Node13</title>
<polygon fill="white" stroke="#bfbfbf" points="190.5,-56.5 190.5,-75.5 235.5,-75.5 235.5,-56.5 190.5,-56.5"/>
<text text-anchor="middle" x="213" y="-63.5" font-family="Helvetica,sans-Serif" font-size="10.00">iosfwd</text>
</g>
<!-- Node2&#45;&gt;Node13 -->
<g id="edge12" class="edge"><title>Node2&#45;&gt;Node13</title>
<path fill="none" stroke="midnightblue" d="M798.265,-120.752C688.513,-119.384 452.297,-112.256 245.684,-75.9492"/>
<polygon fill="midnightblue" stroke="midnightblue" points="246.016,-72.4533 235.557,-74.1418 244.786,-79.3444 246.016,-72.4533"/>
</g>
<!-- Node14 -->
<g id="node14" class="node"><title>Node14</title>
<polygon fill="white" stroke="#bfbfbf" points="1372,-56.5 1372,-75.5 1426,-75.5 1426,-56.5 1372,-56.5"/>
<text text-anchor="middle" x="1399" y="-63.5" font-family="Helvetica,sans-Serif" font-size="10.00">iostream</text>
</g>
<!-- Node2&#45;&gt;Node14 -->
<g id="edge13" class="edge"><title>Node2&#45;&gt;Node14</title>
<path fill="none" stroke="midnightblue" d="M921.787,-115.271C1010.12,-107.008 1177.56,-91.0795 1320,-76 1333.65,-74.5551 1348.61,-72.8751 1361.81,-71.3604"/>
<polygon fill="midnightblue" stroke="midnightblue" points="1362.42,-74.8128 1371.96,-70.1889 1361.62,-67.859 1362.42,-74.8128"/>
</g>
<!-- Node15 -->
<g id="node15" class="node"><title>Node15</title>
<polygon fill="white" stroke="#bfbfbf" points="253.5,-56.5 253.5,-75.5 304.5,-75.5 304.5,-56.5 253.5,-56.5"/>
<text text-anchor="middle" x="279" y="-63.5" font-family="Helvetica,sans-Serif" font-size="10.00">unistd.h</text>
</g>
<!-- Node2&#45;&gt;Node15 -->
<g id="edge14" class="edge"><title>Node2&#45;&gt;Node15</title>
<path fill="none" stroke="midnightblue" d="M798.165,-119.312C698.344,-115.841 495.481,-105.697 314.475,-75.7638"/>
<polygon fill="midnightblue" stroke="midnightblue" points="314.948,-72.2944 304.507,-74.0914 313.79,-79.1979 314.948,-72.2944"/>
</g>
<!-- Node16 -->
<g id="node16" class="node"><title>Node16</title>
<polygon fill="white" stroke="#bfbfbf" points="323,-56.5 323,-75.5 367,-75.5 367,-56.5 323,-56.5"/>
<text text-anchor="middle" x="345" y="-63.5" font-family="Helvetica,sans-Serif" font-size="10.00">fcntl.h</text>
</g>
<!-- Node2&#45;&gt;Node16 -->
<g id="edge15" class="edge"><title>Node2&#45;&gt;Node16</title>
<path fill="none" stroke="midnightblue" d="M798.356,-119.012C707.864,-115.272 533.751,-104.949 377.494,-75.9392"/>
<polygon fill="midnightblue" stroke="midnightblue" points="377.704,-72.4172 367.228,-74.0013 376.405,-79.2957 377.704,-72.4172"/>
</g>
<!-- Node17 -->
<g id="node17" class="node"><title>Node17</title>
<polygon fill="white" stroke="#bfbfbf" points="385.5,-56.5 385.5,-75.5 426.5,-75.5 426.5,-56.5 385.5,-56.5"/>
<text text-anchor="middle" x="406" y="-63.5" font-family="Helvetica,sans-Serif" font-size="10.00">string</text>
</g>
<!-- Node2&#45;&gt;Node17 -->
<g id="edge16" class="edge"><title>Node2&#45;&gt;Node17</title>
<path fill="none" stroke="midnightblue" d="M798.189,-118.245C716.98,-113.787 569.938,-102.831 436.753,-76.0253"/>
<polygon fill="midnightblue" stroke="midnightblue" points="437.281,-72.5608 426.782,-73.983 435.876,-79.4184 437.281,-72.5608"/>
</g>
<!-- Node18 -->
<g id="node18" class="node"><title>Node18</title>
<polygon fill="white" stroke="#bfbfbf" points="1284,-0.5 1284,-19.5 1328,-19.5 1328,-0.5 1284,-0.5"/>
<text text-anchor="middle" x="1306" y="-7.5" font-family="Helvetica,sans-Serif" font-size="10.00">vector</text>
</g>
<!-- Node2&#45;&gt;Node18 -->
<g id="edge17" class="edge"><title>Node2&#45;&gt;Node18</title>
<path fill="none" stroke="midnightblue" d="M921.569,-118.269C1033.08,-112.779 1259.53,-98.9326 1287,-76 1300.38,-64.8312 1304.63,-44.8063 1305.85,-29.9243"/>
<polygon fill="midnightblue" stroke="midnightblue" points="1309.35,-29.919 1306.28,-19.7782 1302.36,-29.6191 1309.35,-29.919"/>
</g>
<!-- Node19 -->
<g id="node19" class="node"><title>Node19</title>
<polygon fill="white" stroke="#bfbfbf" points="444.5,-56.5 444.5,-75.5 487.5,-75.5 487.5,-56.5 444.5,-56.5"/>
<text text-anchor="middle" x="466" y="-63.5" font-family="Helvetica,sans-Serif" font-size="10.00">deque</text>
</g>
<!-- Node2&#45;&gt;Node19 -->
<g id="edge18" class="edge"><title>Node2&#45;&gt;Node19</title>
<path fill="none" stroke="midnightblue" d="M798.204,-115.505C726.569,-108.61 605.134,-95.3017 502,-76 500.536,-75.7259 499.042,-75.428 497.537,-75.1126"/>
<polygon fill="midnightblue" stroke="midnightblue" points="498.137,-71.6599 487.61,-72.8489 496.581,-78.4847 498.137,-71.6599"/>
</g>
<!-- Node20 -->
<g id="node20" class="node"><title>Node20</title>
<polygon fill="white" stroke="#bfbfbf" points="494,-0.5 494,-19.5 538,-19.5 538,-0.5 494,-0.5"/>
<text text-anchor="middle" x="516" y="-7.5" font-family="Helvetica,sans-Serif" font-size="10.00">mutex</text>
</g>
<!-- Node2&#45;&gt;Node20 -->
<g id="edge19" class="edge"><title>Node2&#45;&gt;Node20</title>
<path fill="none" stroke="midnightblue" d="M798.427,-121.089C740.539,-118.886 652.879,-109.536 585,-76 562.058,-64.6657 541.531,-43.1218 528.949,-27.9511"/>
<polygon fill="midnightblue" stroke="midnightblue" points="531.477,-25.5081 522.5,-19.8807 526.008,-29.8779 531.477,-25.5081"/>
</g>
<!-- Node21 -->
<g id="node21" class="node"><title>Node21</title>
<polygon fill="white" stroke="#bfbfbf" points="556,-0.5 556,-19.5 600,-19.5 600,-0.5 556,-0.5"/>
<text text-anchor="middle" x="578" y="-7.5" font-family="Helvetica,sans-Serif" font-size="10.00">thread</text>
</g>
<!-- Node2&#45;&gt;Node21 -->
<g id="edge20" class="edge"><title>Node2&#45;&gt;Node21</title>
<path fill="none" stroke="midnightblue" d="M798.405,-117.131C732.074,-111.788 632.12,-99.9594 603,-76 589.162,-64.6139 582.967,-44.6233 580.204,-29.8087"/>
<polygon fill="midnightblue" stroke="midnightblue" points="583.635,-29.0872 578.69,-19.717 576.712,-30.1256 583.635,-29.0872"/>
</g>
<!-- Node22 -->
<g id="node22" class="node"><title>Node22</title>
<polygon fill="white" stroke="#bfbfbf" points="619.5,-0.5 619.5,-19.5 714.5,-19.5 714.5,-0.5 619.5,-0.5"/>
<text text-anchor="middle" x="667" y="-7.5" font-family="Helvetica,sans-Serif" font-size="10.00">condition_variable</text>
</g>
<!-- Node2&#45;&gt;Node22 -->
<g id="edge21" class="edge"><title>Node2&#45;&gt;Node22</title>
<path fill="none" stroke="midnightblue" d="M798.278,-118.618C732.429,-114.627 634.413,-104.023 611,-76 596.042,-58.0966 620.349,-37.7696 641.474,-24.6862"/>
<polygon fill="midnightblue" stroke="midnightblue" points="643.363,-27.6362 650.209,-19.5507 639.815,-21.6018 643.363,-27.6362"/>
</g>
<!-- Node23 -->
<g id="node23" class="node"><title>Node23</title>
<polygon fill="white" stroke="#bfbfbf" points="796.5,-0.5 796.5,-19.5 839.5,-19.5 839.5,-0.5 796.5,-0.5"/>
<text text-anchor="middle" x="818" y="-7.5" font-family="Helvetica,sans-Serif" font-size="10.00">queue</text>
</g>
<!-- Node2&#45;&gt;Node23 -->
<g id="edge22" class="edge"><title>Node2&#45;&gt;Node23</title>
<path fill="none" stroke="midnightblue" d="M856.704,-112.368C849.865,-94.4563 834.007,-52.9233 824.853,-28.9482"/>
<polygon fill="midnightblue" stroke="midnightblue" points="828.117,-27.6851 821.28,-19.5914 821.578,-30.1821 828.117,-27.6851"/>
</g>
<!-- Node24 -->
<g id="node24" class="node"><title>Node24</title>
<polygon fill="white" stroke="#bfbfbf" points="620,-56.5 620,-75.5 672,-75.5 672,-56.5 620,-56.5"/>
<text text-anchor="middle" x="646" y="-63.5" font-family="Helvetica,sans-Serif" font-size="10.00">sstream</text>
</g>
<!-- Node2&#45;&gt;Node24 -->
<g id="edge23" class="edge"><title>Node2&#45;&gt;Node24</title>
<path fill="none" stroke="midnightblue" d="M825.671,-112.428C791.668,-103.925 737.844,-90.4305 682.375,-76.3404"/>
<polygon fill="midnightblue" stroke="midnightblue" points="682.923,-72.8687 672.369,-73.7969 681.199,-79.6529 682.923,-72.8687"/>
</g>
<!-- Node25 -->
<g id="node25" class="node"><title>Node25</title>
<polygon fill="white" stroke="#bfbfbf" points="996.5,-0.5 996.5,-19.5 1031.5,-19.5 1031.5,-0.5 996.5,-0.5"/>
<text text-anchor="middle" x="1014" y="-7.5" font-family="Helvetica,sans-Serif" font-size="10.00">map</text>
</g>
<!-- Node2&#45;&gt;Node25 -->
<g id="edge24" class="edge"><title>Node2&#45;&gt;Node25</title>
<path fill="none" stroke="midnightblue" d="M921.55,-119.031C989.493,-115.409 1092.52,-105.133 1117,-76 1141.62,-46.6989 1079.95,-26.3404 1041.69,-16.925"/>
<polygon fill="midnightblue" stroke="midnightblue" points="1042.15,-13.4373 1031.61,-14.5613 1040.55,-20.2523 1042.15,-13.4373"/>
</g>
<!-- Node26 -->
<g id="node26" class="node"><title>Node26</title>
<g id="a_node26"><a xlink:href="cosmos-defs_8h.html" target="_top" xlink:title="COSMOS definitions Definitions specific to the COSMOS environement. ">
<polygon fill="white" stroke="black" points="690,-56.5 690,-75.5 806,-75.5 806,-56.5 690,-56.5"/>
<text text-anchor="middle" x="748" y="-63.5" font-family="Helvetica,sans-Serif" font-size="10.00">support/cosmos&#45;defs.h</text>
</a>
</g>
</g>
<!-- Node2&#45;&gt;Node26 -->
<g id="edge25" class="edge"><title>Node2&#45;&gt;Node26</title>
<path fill="none" stroke="midnightblue" d="M842.005,-112.324C823.962,-103.625 795.953,-90.1202 775.197,-80.113"/>
<polygon fill="midnightblue" stroke="midnightblue" points="776.478,-76.8449 765.95,-75.6545 773.438,-83.1502 776.478,-76.8449"/>
</g>
<!-- Node26&#45;&gt;Node18 -->
<g id="edge27" class="edge"><title>Node26&#45;&gt;Node18</title>
<path fill="none" stroke="midnightblue" d="M806.137,-59.3739C923.071,-48.0577 1183.28,-22.8759 1274.04,-14.0934"/>
<polygon fill="midnightblue" stroke="midnightblue" points="1274.38,-17.5762 1284,-13.1292 1273.71,-10.6088 1274.38,-17.5762"/>
</g>
<!-- Node26&#45;&gt;Node20 -->
<g id="edge31" class="edge"><title>Node26&#45;&gt;Node20</title>
<path fill="none" stroke="midnightblue" d="M706.244,-56.4445C667.614,-48.3528 608.383,-35.5008 548.338,-20.2285"/>
<polygon fill="midnightblue" stroke="midnightblue" points="548.861,-16.7497 538.305,-17.6558 547.123,-23.5303 548.861,-16.7497"/>
</g>
<!-- Node26&#45;&gt;Node21 -->
<g id="edge30" class="edge"><title>Node26&#45;&gt;Node21</title>
<path fill="none" stroke="midnightblue" d="M721.063,-56.4435C690.903,-46.8634 642.062,-31.3492 609.986,-21.1604"/>
<polygon fill="midnightblue" stroke="midnightblue" points="610.796,-17.7454 600.206,-18.0537 608.677,-24.4169 610.796,-17.7454"/>
</g>
<!-- Node26&#45;&gt;Node22 -->
<g id="edge32" class="edge"><title>Node26&#45;&gt;Node22</title>
<path fill="none" stroke="midnightblue" d="M734.986,-56.324C722.468,-47.979 703.318,-35.2122 688.529,-25.3524"/>
<polygon fill="midnightblue" stroke="midnightblue" points="690.244,-22.2894 679.982,-19.6545 686.361,-28.1137 690.244,-22.2894"/>
</g>
<!-- Node26&#45;&gt;Node23 -->
<g id="edge29" class="edge"><title>Node26&#45;&gt;Node23</title>
<path fill="none" stroke="midnightblue" d="M759.247,-56.324C769.797,-48.1849 785.801,-35.8395 798.442,-26.0874"/>
<polygon fill="midnightblue" stroke="midnightblue" points="800.769,-28.7132 806.549,-19.8339 796.493,-23.1707 800.769,-28.7132"/>
</g>
<!-- Node26&#45;&gt;Node25 -->
<g id="edge26" class="edge"><title>Node26&#45;&gt;Node25</title>
<path fill="none" stroke="midnightblue" d="M790.148,-56.4435C845.055,-45.2971 939.532,-26.1175 986.222,-16.6392"/>
<polygon fill="midnightblue" stroke="midnightblue" points="987.118,-20.0288 996.221,-14.6092 985.725,-13.1687 987.118,-20.0288"/>
</g>
<!-- Node27 -->
<g id="node27" class="node"><title>Node27</title>
<polygon fill="white" stroke="#bfbfbf" points="733.5,-0.5 733.5,-19.5 762.5,-19.5 762.5,-0.5 733.5,-0.5"/>
<text text-anchor="middle" x="748" y="-7.5" font-family="Helvetica,sans-Serif" font-size="10.00">list</text>
</g>
<!-- Node26&#45;&gt;Node27 -->
<g id="edge28" class="edge"><title>Node26&#45;&gt;Node27</title>
<path fill="none" stroke="midnightblue" d="M748,-56.083C748,-49.0059 748,-38.8611 748,-29.9865"/>
<polygon fill="midnightblue" stroke="midnightblue" points="751.5,-29.751 748,-19.7511 744.5,-29.7511 751.5,-29.751"/>
</g>
<!-- Node28&#45;&gt;Node2 -->
<g id="edge34" class="edge"><title>Node28&#45;&gt;Node2</title>
<path fill="none" stroke="midnightblue" d="M1075.47,-401.472C1036.04,-399.702 976.954,-390.797 941,-356 919.373,-335.068 922,-321.098 922,-291 922,-291 922,-291 922,-233 922,-202.902 918.047,-194.066 903,-168 896.614,-156.937 886.956,-146.495 878.41,-138.46"/>
<polygon fill="midnightblue" stroke="midnightblue" points="880.483,-135.618 870.7,-131.552 875.812,-140.832 880.483,-135.618"/>
</g>
<!-- Node28&#45;&gt;Node12 -->
<g id="edge55" class="edge"><title>Node28&#45;&gt;Node12</title>
<path fill="none" stroke="midnightblue" d="M1156.61,-399.839C1210.51,-397.052 1307.74,-387.642 1384,-356 1429.91,-336.952 1475,-340.702 1475,-291 1475,-291 1475,-291 1475,-177 1475,-144.841 1471.13,-107.569 1468.47,-85.7107"/>
<polygon fill="midnightblue" stroke="midnightblue" points="1471.91,-85.0183 1467.18,-75.5383 1464.96,-85.8993 1471.91,-85.0183"/>
</g>
<!-- Node28&#45;&gt;Node14 -->
<g id="edge56" class="edge"><title>Node28&#45;&gt;Node14</title>
<path fill="none" stroke="midnightblue" d="M1156.65,-395.786C1243.03,-383.571 1437,-349.616 1437,-291 1437,-291 1437,-291 1437,-233 1437,-178.231 1417.1,-115.802 1406.1,-85.479"/>
<polygon fill="midnightblue" stroke="midnightblue" points="1409.28,-83.9808 1402.51,-75.8335 1402.72,-86.4262 1409.28,-83.9808"/>
</g>
<!-- Node29 -->
<g id="node29" class="node"><title>Node29</title>
<g id="a_node29"><a xlink:href="cosmos-errno_8h.html" target="_top" xlink:title="COSMOS Error Codes. ">
<polygon fill="white" stroke="black" points="950.5,-336.5 950.5,-355.5 1069.5,-355.5 1069.5,-336.5 950.5,-336.5"/>
<text text-anchor="middle" x="1010" y="-343.5" font-family="Helvetica,sans-Serif" font-size="10.00">support/cosmos&#45;errno.h</text>
</a>
</g>
</g>
<!-- Node28&#45;&gt;Node29 -->
<g id="edge35" class="edge"><title>Node28&#45;&gt;Node29</title>
<path fill="none" stroke="midnightblue" d="M1098.97,-392.324C1081.97,-383.664 1055.62,-370.242 1036.01,-360.249"/>
<polygon fill="midnightblue" stroke="midnightblue" points="1037.49,-357.075 1026.99,-355.655 1034.31,-363.312 1037.49,-357.075"/>
</g>
<!-- Node31 -->
<g id="node31" class="node"><title>Node31</title>
<g id="a_node31"><a xlink:href="math_2constants_8h.html" target="_top" xlink:title="constants.h">
<polygon fill="white" stroke="black" points="826,-168.5 826,-187.5 894,-187.5 894,-168.5 826,-168.5"/>
<text text-anchor="middle" x="860" y="-175.5" font-family="Helvetica,sans-Serif" font-size="10.00">constants.h</text>
</a>
</g>
</g>
<!-- Node28&#45;&gt;Node31 -->
<g id="edge38" class="edge"><title>Node28&#45;&gt;Node31</title>
<path fill="none" stroke="midnightblue" d="M1075.12,-397.172C1021.56,-391.335 931.644,-378.451 908,-356 863.207,-313.467 858.738,-233.748 859.201,-197.631"/>
<polygon fill="midnightblue" stroke="midnightblue" points="862.702,-197.632 859.479,-187.539 855.705,-197.438 862.702,-197.632"/>
</g>
<!-- Node32 -->
<g id="node32" class="node"><title>Node32</title>
<g id="a_node32"><a xlink:href="vector_8h.html" target="_top" xlink:title="vector.h">
<polygon fill="white" stroke="black" points="1190,-224.5 1190,-243.5 1242,-243.5 1242,-224.5 1190,-224.5"/>
<text text-anchor="middle" x="1216" y="-231.5" font-family="Helvetica,sans-Serif" font-size="10.00">vector.h</text>
</a>
</g>
</g>
<!-- Node28&#45;&gt;Node32 -->
<g id="edge41" class="edge"><title>Node28&#45;&gt;Node32</title>
<path fill="none" stroke="midnightblue" d="M1129.33,-392.278C1141.16,-384.024 1158.33,-370.732 1170,-356 1194.68,-324.834 1207.22,-278.96 1212.61,-253.588"/>
<polygon fill="midnightblue" stroke="midnightblue" points="1216.1,-253.989 1214.6,-243.501 1209.23,-252.633 1216.1,-253.989"/>
</g>
<!-- Node34 -->
<g id="node34" class="node"><title>Node34</title>
<g id="a_node34"><a xlink:href="matrix_8h.html" target="_top" xlink:title="matrix.h">
<polygon fill="white" stroke="black" points="1137,-280.5 1137,-299.5 1189,-299.5 1189,-280.5 1137,-280.5"/>
<text text-anchor="middle" x="1163" y="-287.5" font-family="Helvetica,sans-Serif" font-size="10.00">matrix.h</text>
</a>
</g>
</g>
<!-- Node28&#45;&gt;Node34 -->
<g id="edge48" class="edge"><title>Node28&#45;&gt;Node34</title>
<path fill="none" stroke="midnightblue" d="M1125.89,-392.434C1134.81,-384.092 1147.5,-370.569 1154,-356 1160.46,-341.514 1162.55,-323.561 1163.12,-310.195"/>
<polygon fill="midnightblue" stroke="midnightblue" points="1166.63,-309.891 1163.3,-299.833 1159.63,-309.772 1166.63,-309.891"/>
</g>
<!-- Node35 -->
<g id="node35" class="node"><title>Node35</title>
<g id="a_node35"><a xlink:href="rotation_8h.html" target="_top" xlink:title="rotation.h">
<polygon fill="white" stroke="black" points="1087.5,-336.5 1087.5,-355.5 1144.5,-355.5 1144.5,-336.5 1087.5,-336.5"/>
<text text-anchor="middle" x="1116" y="-343.5" font-family="Helvetica,sans-Serif" font-size="10.00">rotation.h</text>
</a>
</g>
</g>
<!-- Node28&#45;&gt;Node35 -->
<g id="edge51" class="edge"><title>Node28&#45;&gt;Node35</title>
<path fill="none" stroke="midnightblue" d="M1116,-392.083C1116,-385.006 1116,-374.861 1116,-365.986"/>
<polygon fill="midnightblue" stroke="midnightblue" points="1119.5,-365.751 1116,-355.751 1112.5,-365.751 1119.5,-365.751"/>
</g>
<!-- Node29&#45;&gt;Node2 -->
<g id="edge36" class="edge"><title>Node29&#45;&gt;Node2</title>
<path fill="none" stroke="midnightblue" d="M1002.77,-336.173C995.894,-327.429 985.642,-313.437 979,-300 951.659,-244.687 974.584,-216.149 936,-168 924.752,-153.963 907.855,-143.342 892.847,-135.953"/>
<polygon fill="midnightblue" stroke="midnightblue" points="893.882,-132.576 883.336,-131.561 890.947,-138.931 893.882,-132.576"/>
</g>
<!-- Node30 -->
<g id="node30" class="node"><title>Node30</title>
<polygon fill="white" stroke="#bfbfbf" points="988.5,-280.5 988.5,-299.5 1035.5,-299.5 1035.5,-280.5 988.5,-280.5"/>
<text text-anchor="middle" x="1012" y="-287.5" font-family="Helvetica,sans-Serif" font-size="10.00">errno.h</text>
</g>
<!-- Node29&#45;&gt;Node30 -->
<g id="edge37" class="edge"><title>Node29&#45;&gt;Node30</title>
<path fill="none" stroke="midnightblue" d="M1010.33,-336.083C1010.59,-329.006 1010.97,-318.861 1011.3,-309.986"/>
<polygon fill="midnightblue" stroke="midnightblue" points="1014.8,-309.874 1011.68,-299.751 1007.81,-309.615 1014.8,-309.874"/>
</g>
<!-- Node31&#45;&gt;Node2 -->
<g id="edge39" class="edge"><title>Node31&#45;&gt;Node2</title>
<path fill="none" stroke="midnightblue" d="M860,-168.083C860,-161.006 860,-150.861 860,-141.986"/>
<polygon fill="midnightblue" stroke="midnightblue" points="863.5,-141.751 860,-131.751 856.5,-141.751 863.5,-141.751"/>
</g>
<!-- Node31&#45;&gt;Node5 -->
<g id="edge40" class="edge"><title>Node31&#45;&gt;Node5</title>
<path fill="none" stroke="midnightblue" d="M825.964,-174.56C715.668,-166.268 358.238,-136.385 56.1418,-75.9722"/>
<polygon fill="midnightblue" stroke="midnightblue" points="56.8149,-72.5375 46.3205,-73.9933 55.4322,-79.3996 56.8149,-72.5375"/>
</g>
<!-- Node32&#45;&gt;Node2 -->
<g id="edge42" class="edge"><title>Node32&#45;&gt;Node2</title>
<path fill="none" stroke="midnightblue" d="M1216.24,-224.274C1216.1,-210.105 1213.59,-182.247 1197,-168 1158.34,-134.8 1018.53,-125.914 931.596,-123.647"/>
<polygon fill="midnightblue" stroke="midnightblue" points="931.609,-120.146 921.528,-123.407 931.442,-127.144 931.609,-120.146"/>
</g>
<!-- Node32&#45;&gt;Node12 -->
<g id="edge46" class="edge"><title>Node32&#45;&gt;Node12</title>
<path fill="none" stroke="midnightblue" d="M1242.2,-228.904C1271.93,-223.332 1320.95,-211.273 1357,-188 1400.37,-160.003 1437.32,-110.394 1454.95,-84.2413"/>
<polygon fill="midnightblue" stroke="midnightblue" points="1457.96,-86.0263 1460.54,-75.7506 1452.12,-82.1741 1457.96,-86.0263"/>
</g>
<!-- Node32&#45;&gt;Node14 -->
<g id="edge44" class="edge"><title>Node32&#45;&gt;Node14</title>
<path fill="none" stroke="midnightblue" d="M1242.48,-228.913C1269.13,-223.592 1310.03,-211.974 1337,-188 1353.57,-173.27 1379.21,-115.005 1391.68,-85.0273"/>
<polygon fill="midnightblue" stroke="midnightblue" points="1394.94,-86.3011 1395.51,-75.7214 1388.47,-83.6386 1394.94,-86.3011"/>
</g>
<!-- Node32&#45;&gt;Node18 -->
<g id="edge47" class="edge"><title>Node32&#45;&gt;Node18</title>
<path fill="none" stroke="midnightblue" d="M1223.4,-224.216C1241.96,-201.527 1290.23,-138.369 1307,-76 1311.08,-60.8265 1310.43,-42.9331 1308.98,-29.7655"/>
<polygon fill="midnightblue" stroke="midnightblue" points="1312.41,-29.0386 1307.61,-19.5977 1305.48,-29.9765 1312.41,-29.0386"/>
</g>
<!-- Node32&#45;&gt;Node31 -->
<g id="edge43" class="edge"><title>Node32&#45;&gt;Node31</title>
<path fill="none" stroke="midnightblue" d="M1189.82,-229.029C1129.32,-219.852 979.253,-197.089 904.205,-185.705"/>
<polygon fill="midnightblue" stroke="midnightblue" points="904.542,-182.216 894.13,-184.177 903.492,-189.137 904.542,-182.216"/>
</g>
<!-- Node33 -->
<g id="node33" class="node"><title>Node33</title>
<polygon fill="white" stroke="#bfbfbf" points="1138,-168.5 1138,-187.5 1188,-187.5 1188,-168.5 1138,-168.5"/>
<text text-anchor="middle" x="1163" y="-175.5" font-family="Helvetica,sans-Serif" font-size="10.00">iomanip</text>
</g>
<!-- Node32&#45;&gt;Node33 -->
<g id="edge45" class="edge"><title>Node32&#45;&gt;Node33</title>
<path fill="none" stroke="midnightblue" d="M1207.25,-224.083C1199.53,-216.22 1188.1,-204.569 1178.78,-195.081"/>
<polygon fill="midnightblue" stroke="midnightblue" points="1181.09,-192.436 1171.59,-187.751 1176.1,-197.34 1181.09,-192.436"/>
</g>
<!-- Node34&#45;&gt;Node2 -->
<g id="edge49" class="edge"><title>Node34&#45;&gt;Node2</title>
<path fill="none" stroke="midnightblue" d="M1160.11,-280.272C1152.13,-257.67 1127.56,-196.978 1085,-168 1060.38,-151.238 987.766,-138.705 931.617,-131.179"/>
<polygon fill="midnightblue" stroke="midnightblue" points="932.066,-127.708 921.695,-129.878 931.155,-134.649 932.066,-127.708"/>
</g>
<!-- Node34&#45;&gt;Node32 -->
<g id="edge50" class="edge"><title>Node34&#45;&gt;Node32</title>
<path fill="none" stroke="midnightblue" d="M1171.75,-280.083C1179.47,-272.22 1190.9,-260.569 1200.22,-251.081"/>
<polygon fill="midnightblue" stroke="midnightblue" points="1202.9,-253.34 1207.41,-243.751 1197.91,-248.436 1202.9,-253.34"/>
</g>
<!-- Node35&#45;&gt;Node2 -->
<g id="edge52" class="edge"><title>Node35&#45;&gt;Node2</title>
<path fill="none" stroke="midnightblue" d="M1110.04,-336.123C1090.84,-308.105 1027.75,-220.306 957,-168 938.1,-154.027 914.169,-142.868 894.806,-135.158"/>
<polygon fill="midnightblue" stroke="midnightblue" points="896.019,-131.875 885.429,-131.548 893.504,-138.407 896.019,-131.875"/>
</g>
<!-- Node35&#45;&gt;Node32 -->
<g id="edge53" class="edge"><title>Node35&#45;&gt;Node32</title>
<path fill="none" stroke="midnightblue" d="M1115.32,-336.485C1114.7,-323.103 1115.38,-296.932 1128,-280 1140.77,-262.854 1161.96,-251.738 1180.35,-244.844"/>
<polygon fill="midnightblue" stroke="midnightblue" points="1181.62,-248.108 1189.92,-241.526 1179.33,-241.493 1181.62,-248.108"/>
</g>
<!-- Node35&#45;&gt;Node34 -->
<g id="edge54" class="edge"><title>Node35&#45;&gt;Node34</title>
<path fill="none" stroke="midnightblue" d="M1123.76,-336.083C1130.54,-328.298 1140.54,-316.801 1148.76,-307.367"/>
<polygon fill="midnightblue" stroke="midnightblue" points="1151.46,-309.592 1155.38,-299.751 1146.18,-304.996 1151.46,-309.592"/>
</g>
</g>
</svg>
