<?xml version="1.0" encoding="UTF-8" standalone="no"?>
<!DOCTYPE svg PUBLIC "-//W3C//DTD SVG 1.1//EN"
 "http://www.w3.org/Graphics/SVG/1.1/DTD/svg11.dtd">
<!-- Generated by graphviz version 2.38.0 (20140413.2041)
 -->
<!-- Title: Data Management Pages: 1 -->
<svg width="404pt" height="176pt"
 viewBox="0.00 0.00 404.00 176.00" xmlns="http://www.w3.org/2000/svg" xmlns:xlink="http://www.w3.org/1999/xlink">
<g id="graph0" class="graph" transform="scale(1 1) rotate(0) translate(4 172)">
<title>Data Management</title>
<polygon fill="white" stroke="none" points="-4,4 -4,-172 400,-172 400,4 -4,4"/>
<!-- Node3 -->
<g id="node1" class="node"><title>Node3</title>
<g id="a_node1"><a xlink:href="group__datalib__typedefs.html" target="_top" xlink:title="Data Management type\l definitions">
<polygon fill="white" stroke="black" points="268,-137.5 268,-167.5 387,-167.5 387,-137.5 268,-137.5"/>
<text text-anchor="start" x="276" y="-155.5" font-family="Helvetica,sans-Serif" font-size="10.00">Data Management type</text>
<text text-anchor="middle" x="327.5" y="-144.5" font-family="Helvetica,sans-Serif" font-size="10.00"> definitions</text>
</a>
</g>
</g>
<!-- Node0 -->
<g id="node2" class="node"><title>Node0</title>
<polygon fill="#bfbfbf" stroke="black" points="126,-77 126,-96 223,-96 223,-77 126,-77"/>
<text text-anchor="middle" x="174.5" y="-84" font-family="Helvetica,sans-Serif" font-size="10.00">Data Management</text>
</g>
<!-- Node0&#45;&gt;Node3 -->
<g id="edge3" class="edge"><title>Node0&#45;&gt;Node3</title>
<path fill="none" stroke="black" d="M202.727,-100.742C218.891,-108.976 239.896,-119.297 259,-127.5 266.923,-130.902 275.479,-134.286 283.751,-137.415"/>
<polygon fill="black" stroke="black" points="204.315,-97.6228 193.82,-96.1665 201.116,-103.849 204.315,-97.6228"/>
</g>
<!-- Node2 -->
<g id="node4" class="node"><title>Node2</title>
<g id="a_node4"><a xlink:href="group__datalib__constants.html" target="_top" xlink:title="Data Management contants">
<polygon fill="white" stroke="black" points="259,-99 259,-118 396,-118 396,-99 259,-99"/>
<text text-anchor="middle" x="327.5" y="-106" font-family="Helvetica,sans-Serif" font-size="10.00">Data Management contants</text>
</a>
</g>
</g>
<!-- Node0&#45;&gt;Node2 -->
<g id="edge2" class="edge"><title>Node0&#45;&gt;Node2</title>
<path fill="none" stroke="black" d="M233.343,-94.9274C242.421,-96.25 251.859,-97.6252 261.093,-98.9704"/>
<polygon fill="black" stroke="black" points="233.678,-91.4393 223.277,-93.4609 232.668,-98.3662 233.678,-91.4393"/>
</g>
<!-- Node4 -->
<g id="node5" class="node"><title>Node4</title>
<g id="a_node5"><a xlink:href="group__datalib__statics.html" target="_top" xlink:title="Static variables for\l Data functions.">
<polygon fill="white" stroke="black" points="278.5,-49.5 278.5,-79.5 376.5,-79.5 376.5,-49.5 278.5,-49.5"/>
<text text-anchor="start" x="286.5" y="-67.5" font-family="Helvetica,sans-Serif" font-size="10.00">Static variables for</text>
<text text-anchor="middle" x="327.5" y="-56.5" font-family="Helvetica,sans-Serif" font-size="10.00"> Data functions.</text>
</a>
</g>
</g>
<!-- Node0&#45;&gt;Node4 -->
<g id="edge4" class="edge"><title>Node0&#45;&gt;Node4</title>
<path fill="none" stroke="black" d="M233.358,-78.0704C248.184,-75.9103 263.971,-73.6101 278.256,-71.529"/>
<polygon fill="black" stroke="black" points="232.668,-74.6338 223.277,-79.5391 233.678,-81.5607 232.668,-74.6338"/>
</g>
<!-- Node5 -->
<g id="node6" class="node"><title>Node5</title>
<g id="a_node6"><a xlink:href="group__datalib__functions.html" target="_top" xlink:title="Data Management function\l declarations">
<polygon fill="white" stroke="black" points="260.5,-0.5 260.5,-30.5 394.5,-30.5 394.5,-0.5 260.5,-0.5"/>
<text text-anchor="start" x="268.5" y="-18.5" font-family="Helvetica,sans-Serif" font-size="10.00">Data Management function</text>
<text text-anchor="middle" x="327.5" y="-7.5" font-family="Helvetica,sans-Serif" font-size="10.00"> declarations</text>
</a>
</g>
</g>
<!-- Node0&#45;&gt;Node5 -->
<g id="edge5" class="edge"><title>Node0&#45;&gt;Node5</title>
<path fill="none" stroke="black" d="M199.675,-71.4343C216.045,-61.5994 238.37,-48.8902 259,-39.5 265.905,-36.357 273.352,-33.3491 280.691,-30.5905"/>
<polygon fill="black" stroke="black" points="197.505,-68.6575 190.782,-76.8459 201.144,-74.6373 197.505,-68.6575"/>
</g>
<!-- Node1 -->
<g id="node3" class="node"><title>Node1</title>
<g id="a_node3"><a xlink:href="group__support.html" target="_top" xlink:title="Support Libraries">
<polygon fill="white" stroke="black" points="0,-77 0,-96 90,-96 90,-77 0,-77"/>
<text text-anchor="middle" x="45" y="-84" font-family="Helvetica,sans-Serif" font-size="10.00">Support Libraries</text>
</a>
</g>
</g>
<!-- Node1&#45;&gt;Node0 -->
<g id="edge1" class="edge"><title>Node1&#45;&gt;Node0</title>
<path fill="none" stroke="black" d="M100.409,-86.5C108.875,-86.5 117.565,-86.5 125.865,-86.5"/>
<polygon fill="black" stroke="black" points="100.236,-83.0001 90.2355,-86.5 100.235,-90.0001 100.236,-83.0001"/>
</g>
</g>
</svg>
