<?xml version="1.0" encoding="UTF-8" standalone="no"?>
<!DOCTYPE svg PUBLIC "-//W3C//DTD SVG 1.1//EN"
 "http://www.w3.org/Graphics/SVG/1.1/DTD/svg11.dtd">
<!-- Generated by graphviz version 2.38.0 (20140413.2041)
 -->
<!-- Title: GigE Vision support. Pages: 1 -->
<svg width="288pt" height="339pt"
 viewBox="0.00 0.00 288.00 339.00" xmlns="http://www.w3.org/2000/svg" xmlns:xlink="http://www.w3.org/1999/xlink">
<g id="graph0" class="graph" transform="scale(1 1) rotate(0) translate(4 335)">
<title>GigE Vision support.</title>
<polygon fill="white" stroke="none" points="-4,4 -4,-335 284,-335 284,4 -4,4"/>
<!-- Node4 -->
<g id="node1" class="node"><title>Node4</title>
<g id="a_node1"><a xlink:href="group__gige__prosilica__constants.html" target="_top" xlink:title="GigE Vision Prosilica\l constants">
<polygon fill="white" stroke="black" points="157,-300.5 157,-330.5 266,-330.5 266,-300.5 157,-300.5"/>
<text text-anchor="start" x="165" y="-318.5" font-family="Helvetica,sans-Serif" font-size="10.00">GigE Vision Prosilica</text>
<text text-anchor="middle" x="211.5" y="-307.5" font-family="Helvetica,sans-Serif" font-size="10.00"> constants</text>
</a>
</g>
</g>
<!-- Node2 -->
<g id="node2" class="node"><title>Node2</title>
<g id="a_node2"><a xlink:href="group__gige__ack__constants.html" target="_top" xlink:title="GigE Vision Acknowledge\l constants">
<polygon fill="white" stroke="black" points="146.5,-251.5 146.5,-281.5 276.5,-281.5 276.5,-251.5 146.5,-251.5"/>
<text text-anchor="start" x="154.5" y="-269.5" font-family="Helvetica,sans-Serif" font-size="10.00">GigE Vision Acknowledge</text>
<text text-anchor="middle" x="211.5" y="-258.5" font-family="Helvetica,sans-Serif" font-size="10.00"> constants</text>
</a>
</g>
</g>
<!-- Node7 -->
<g id="node3" class="node"><title>Node7</title>
<g id="a_node3"><a xlink:href="group__gige__a35__constants.html" target="_top" xlink:title="GigE Vision A35 constants">
<polygon fill="white" stroke="black" points="144.5,-213 144.5,-232 278.5,-232 278.5,-213 144.5,-213"/>
<text text-anchor="middle" x="211.5" y="-220" font-family="Helvetica,sans-Serif" font-size="10.00">GigE Vision A35 constants</text>
</a>
</g>
</g>
<!-- Node6 -->
<g id="node4" class="node"><title>Node6</title>
<g id="a_node4"><a xlink:href="group__gige__functions.html" target="_top" xlink:title="GigE Vision functions">
<polygon fill="white" stroke="black" points="156,-175 156,-194 267,-194 267,-175 156,-175"/>
<text text-anchor="middle" x="211.5" y="-182" font-family="Helvetica,sans-Serif" font-size="10.00">GigE Vision functions</text>
</a>
</g>
</g>
<!-- Node0 -->
<g id="node5" class="node"><title>Node0</title>
<polygon fill="#bfbfbf" stroke="black" points="0,-156 0,-175 107,-175 107,-156 0,-156"/>
<text text-anchor="middle" x="53.5" y="-163" font-family="Helvetica,sans-Serif" font-size="10.00">GigE Vision support.</text>
</g>
<!-- Node0&#45;&gt;Node4 -->
<g id="edge4" class="edge"><title>Node0&#45;&gt;Node4</title>
<path fill="none" stroke="black" d="M63.14,-184.52C76.5027,-211.914 104.695,-262.378 143,-291.5 147.455,-294.887 152.43,-297.825 157.604,-300.367"/>
<polygon fill="black" stroke="black" points="66.1925,-182.787 58.7545,-175.243 59.864,-185.779 66.1925,-182.787"/>
</g>
<!-- Node0&#45;&gt;Node2 -->
<g id="edge2" class="edge"><title>Node0&#45;&gt;Node2</title>
<path fill="none" stroke="black" d="M70.7709,-182.66C87.541,-199.532 115.104,-225.075 143,-241.5 149.246,-245.177 156.126,-248.472 163.033,-251.368"/>
<polygon fill="black" stroke="black" points="72.9381,-179.869 63.4511,-175.153 67.9259,-184.756 72.9381,-179.869"/>
</g>
<!-- Node0&#45;&gt;Node7 -->
<g id="edge7" class="edge"><title>Node0&#45;&gt;Node7</title>
<path fill="none" stroke="black" d="M83.9927,-179.317C101.021,-187.002 122.97,-196.415 143,-203.5 152.641,-206.91 163.222,-210.128 173.089,-212.913"/>
<polygon fill="black" stroke="black" points="85.1373,-175.992 74.5869,-175.023 82.23,-182.36 85.1373,-175.992"/>
</g>
<!-- Node0&#45;&gt;Node6 -->
<g id="edge6" class="edge"><title>Node0&#45;&gt;Node6</title>
<path fill="none" stroke="black" d="M117.39,-173.16C130.137,-174.712 143.444,-176.333 155.877,-177.847"/>
<polygon fill="black" stroke="black" points="117.664,-169.667 107.314,-171.933 116.818,-176.616 117.664,-169.667"/>
</g>
<!-- Node5 -->
<g id="node6" class="node"><title>Node5</title>
<g id="a_node6"><a xlink:href="group__gige__typedefs.html" target="_top" xlink:title="GigE Vision type definitions">
<polygon fill="white" stroke="black" points="143,-137 143,-156 280,-156 280,-137 143,-137"/>
<text text-anchor="middle" x="211.5" y="-144" font-family="Helvetica,sans-Serif" font-size="10.00">GigE Vision type definitions</text>
</a>
</g>
</g>
<!-- Node0&#45;&gt;Node5 -->
<g id="edge5" class="edge"><title>Node0&#45;&gt;Node5</title>
<path fill="none" stroke="black" d="M117.377,-157.842C125.747,-156.822 134.359,-155.774 142.806,-154.745"/>
<polygon fill="black" stroke="black" points="116.818,-154.384 107.314,-159.067 117.664,-161.333 116.818,-154.384"/>
</g>
<!-- Node8 -->
<g id="node7" class="node"><title>Node8</title>
<g id="a_node7"><a xlink:href="group__sinclair__functions.html" target="_top" xlink:title="Sinclair_functions">
<polygon fill="white" stroke="black" points="164.5,-99 164.5,-118 258.5,-118 258.5,-99 164.5,-99"/>
<text text-anchor="middle" x="211.5" y="-106" font-family="Helvetica,sans-Serif" font-size="10.00">Sinclair_functions</text>
</a>
</g>
</g>
<!-- Node0&#45;&gt;Node8 -->
<g id="edge8" class="edge"><title>Node0&#45;&gt;Node8</title>
<path fill="none" stroke="black" d="M83.9927,-151.683C101.021,-143.998 122.97,-134.585 143,-127.5 152.641,-124.09 163.222,-120.872 173.089,-118.087"/>
<polygon fill="black" stroke="black" points="82.23,-148.64 74.5869,-155.977 85.1373,-155.008 82.23,-148.64"/>
</g>
<!-- Node1 -->
<g id="node8" class="node"><title>Node1</title>
<g id="a_node8"><a xlink:href="group__gige__cmd__constants.html" target="_top" xlink:title="GigE Vision Command\l constants">
<polygon fill="white" stroke="black" points="153.5,-49.5 153.5,-79.5 269.5,-79.5 269.5,-49.5 153.5,-49.5"/>
<text text-anchor="start" x="161.5" y="-67.5" font-family="Helvetica,sans-Serif" font-size="10.00">GigE Vision Command</text>
<text text-anchor="middle" x="211.5" y="-56.5" font-family="Helvetica,sans-Serif" font-size="10.00"> constants</text>
</a>
</g>
</g>
<!-- Node0&#45;&gt;Node1 -->
<g id="edge1" class="edge"><title>Node0&#45;&gt;Node1</title>
<path fill="none" stroke="black" d="M70.7709,-148.34C87.541,-131.468 115.104,-105.925 143,-89.5 149.246,-85.8225 156.126,-82.5282 163.033,-79.6321"/>
<polygon fill="black" stroke="black" points="67.9259,-146.244 63.4511,-155.847 72.9381,-151.131 67.9259,-146.244"/>
</g>
<!-- Node3 -->
<g id="node9" class="node"><title>Node3</title>
<g id="a_node9"><a xlink:href="group__gige__reg__constants.html" target="_top" xlink:title="GigE Vision Register\l constants">
<polygon fill="white" stroke="black" points="157.5,-0.5 157.5,-30.5 265.5,-30.5 265.5,-0.5 157.5,-0.5"/>
<text text-anchor="start" x="165.5" y="-18.5" font-family="Helvetica,sans-Serif" font-size="10.00">GigE Vision Register</text>
<text text-anchor="middle" x="211.5" y="-7.5" font-family="Helvetica,sans-Serif" font-size="10.00"> constants</text>
</a>
</g>
</g>
<!-- Node0&#45;&gt;Node3 -->
<g id="edge3" class="edge"><title>Node0&#45;&gt;Node3</title>
<path fill="none" stroke="black" d="M63.2296,-146.698C76.704,-119.605 105.034,-69.6452 143,-40.5 147.956,-36.6952 153.552,-33.423 159.347,-30.6204"/>
<polygon fill="black" stroke="black" points="59.9969,-145.344 58.8036,-155.872 66.3015,-148.386 59.9969,-145.344"/>
</g>
</g>
</svg>
