<?xml version="1.0" encoding="UTF-8" standalone="no"?>
<!DOCTYPE svg PUBLIC "-//W3C//DTD SVG 1.1//EN"
 "http://www.w3.org/Graphics/SVG/1.1/DTD/svg11.dtd">
<!-- Generated by graphviz version 2.38.0 (20140413.2041)
 -->
<!-- Title: gs232b_lib.h Pages: 1 -->
<!--zoomable 487 -->
<svg id="main" version="1.1" xmlns="http://www.w3.org/2000/svg" xmlns:xlink="http://www.w3.org/1999/xlink" xml:space="preserve" onload="init(evt)">
<style type="text/css"><![CDATA[
.edge:hover path { stroke: red; }
.edge:hover polygon { stroke: red; fill: red; }
]]></style>
<script type="text/javascript"><![CDATA[
var edges = document.getElementsByTagName('g');
if (edges && edges.length) {
  for (var i=0;i<edges.length;i++) {
    if (edges[i].id.substr(0,4)=='edge') {
      edges[i].setAttribute('class','edge');
    }
  }
}
]]></script>
        <defs>
                <circle id="rim" cx="0" cy="0" r="7"/>
                <circle id="rim2" cx="0" cy="0" r="3.5"/>
                <g id="zoomPlus">
                        <use xlink:href="#rim" fill="#404040">
                                <set attributeName="fill" to="#808080" begin="zoomplus.mouseover" end="zoomplus.mouseout"/>
                        </use>
                        <path d="M-4,0h8M0,-4v8" fill="none" stroke="white" stroke-width="1.5" pointer-events="none"/>
                </g>
                <g id="zoomMin">
                        <use xlink:href="#rim" fill="#404040">
                                <set attributeName="fill" to="#808080" begin="zoomminus.mouseover" end="zoomminus.mouseout"/>
                        </use>
                        <path d="M-4,0h8" fill="none" stroke="white" stroke-width="1.5" pointer-events="none"/>
                </g>
                <g id="dirArrow">
                        <path fill="none" stroke="white" stroke-width="1.5" d="M0,-3.0v7 M-2.5,-0.5L0,-3.0L2.5,-0.5"/>
                </g>
               <g id="resetDef">
                       <use xlink:href="#rim2" fill="#404040">
                               <set attributeName="fill" to="#808080" begin="reset.mouseover" end="reset.mouseout"/>
                       </use>
               </g>
        </defs>

<script type="text/javascript">
var viewWidth = 1495;
var viewHeight = 487;
var sectionId = 'dynsection-0';
</script>
<script xlink:href="svgpan.js"/>
<svg id="graph" class="graph">
<g id="viewport">
<title>gs232b_lib.h</title>
<polygon fill="white" stroke="none" points="-4,4 -4,-483 1491,-483 1491,4 -4,4"/>
<!-- Node1 -->
<g id="node1" class="node"><title>Node1</title>
<polygon fill="#bfbfbf" stroke="black" points="640.5,-459.5 640.5,-478.5 711.5,-478.5 711.5,-459.5 640.5,-459.5"/>
<text text-anchor="middle" x="676" y="-466.5" font-family="Helvetica,sans-Serif" font-size="10.00">gs232b_lib.h</text>
</g>
<!-- Node2 -->
<g id="node2" class="node"><title>Node2</title>
<g id="a_node2"><a xlink:href="config_cosmos_8h.html" target="_top" xlink:title="Headers and definitions common to all COSMOS. ">
<polygon fill="white" stroke="black" points="562.5,-112.5 562.5,-131.5 685.5,-131.5 685.5,-112.5 562.5,-112.5"/>
<text text-anchor="middle" x="624" y="-119.5" font-family="Helvetica,sans-Serif" font-size="10.00">support/configCosmos.h</text>
</a>
</g>
</g>
<!-- Node1&#45;&gt;Node2 -->
<g id="edge1" class="edge"><title>Node1&#45;&gt;Node2</title>
<path fill="none" stroke="midnightblue" d="M671.452,-459.475C659.426,-436.389 626.963,-370.398 616,-311 604.706,-249.81 614.646,-175.603 620.476,-141.621"/>
<polygon fill="midnightblue" stroke="midnightblue" points="623.932,-142.178 622.258,-131.716 617.042,-140.938 623.932,-142.178"/>
</g>
<!-- Node28 -->
<g id="node28" class="node"><title>Node28</title>
<g id="a_node28"><a xlink:href="mathlib_8h.html" target="_top" xlink:title="mathlib include file ">
<polygon fill="white" stroke="black" points="336.5,-403.5 336.5,-422.5 417.5,-422.5 417.5,-403.5 336.5,-403.5"/>
<text text-anchor="middle" x="377" y="-410.5" font-family="Helvetica,sans-Serif" font-size="10.00">math/mathlib.h</text>
</a>
</g>
</g>
<!-- Node1&#45;&gt;Node28 -->
<g id="edge33" class="edge"><title>Node1&#45;&gt;Node28</title>
<path fill="none" stroke="midnightblue" d="M640.231,-461.54C587.333,-451.987 488.01,-434.049 427.649,-423.147"/>
<polygon fill="midnightblue" stroke="midnightblue" points="428.043,-419.662 417.58,-421.329 426.799,-426.551 428.043,-419.662"/>
</g>
<!-- Node29 -->
<g id="node29" class="node"><title>Node29</title>
<g id="a_node29"><a xlink:href="cosmos-errno_8h.html" target="_top" xlink:title="COSMOS Error Codes. ">
<polygon fill="white" stroke="black" points="690.5,-168.5 690.5,-187.5 809.5,-187.5 809.5,-168.5 690.5,-168.5"/>
<text text-anchor="middle" x="750" y="-175.5" font-family="Helvetica,sans-Serif" font-size="10.00">support/cosmos&#45;errno.h</text>
</a>
</g>
</g>
<!-- Node1&#45;&gt;Node29 -->
<g id="edge57" class="edge"><title>Node1&#45;&gt;Node29</title>
<path fill="none" stroke="midnightblue" d="M690.46,-459.442C715.901,-443.165 766,-405.129 766,-358 766,-358 766,-358 766,-294.5 766,-260.038 758.925,-220.334 754.184,-197.599"/>
<polygon fill="midnightblue" stroke="midnightblue" points="757.564,-196.669 752.026,-187.637 750.722,-198.151 757.564,-196.669"/>
</g>
<!-- Node36 -->
<g id="node36" class="node"><title>Node36</title>
<g id="a_node36"><a xlink:href="cssl__lib_8h.html" target="_top" xlink:title="Simple Serial library header file. ">
<polygon fill="white" stroke="black" points="625.5,-280.5 625.5,-310.5 726.5,-310.5 726.5,-280.5 625.5,-280.5"/>
<text text-anchor="start" x="633.5" y="-298.5" font-family="Helvetica,sans-Serif" font-size="10.00">device/general/cssl</text>
<text text-anchor="middle" x="676" y="-287.5" font-family="Helvetica,sans-Serif" font-size="10.00">_lib.h</text>
</a>
</g>
</g>
<!-- Node1&#45;&gt;Node36 -->
<g id="edge58" class="edge"><title>Node1&#45;&gt;Node36</title>
<path fill="none" stroke="midnightblue" d="M676,-459.26C676,-433.974 676,-360.079 676,-321.149"/>
<polygon fill="midnightblue" stroke="midnightblue" points="679.5,-320.723 676,-310.723 672.5,-320.723 679.5,-320.723"/>
</g>
<!-- Node38 -->
<g id="node38" class="node"><title>Node38</title>
<polygon fill="white" stroke="#bfbfbf" points="794,-403.5 794,-422.5 840,-422.5 840,-403.5 794,-403.5"/>
<text text-anchor="middle" x="817" y="-410.5" font-family="Helvetica,sans-Serif" font-size="10.00">stdio.h</text>
</g>
<!-- Node1&#45;&gt;Node38 -->
<g id="edge64" class="edge"><title>Node1&#45;&gt;Node38</title>
<path fill="none" stroke="midnightblue" d="M698.342,-459.444C721.753,-450.478 758.736,-436.314 785.19,-426.183"/>
<polygon fill="midnightblue" stroke="midnightblue" points="786.676,-429.361 794.763,-422.516 784.172,-422.824 786.676,-429.361"/>
</g>
<!-- Node3 -->
<g id="node3" class="node"><title>Node3</title>
<polygon fill="white" stroke="#bfbfbf" points="1238.5,-56.5 1238.5,-75.5 1283.5,-75.5 1283.5,-56.5 1238.5,-56.5"/>
<text text-anchor="middle" x="1261" y="-63.5" font-family="Helvetica,sans-Serif" font-size="10.00">climits</text>
</g>
<!-- Node2&#45;&gt;Node3 -->
<g id="edge2" class="edge"><title>Node2&#45;&gt;Node3</title>
<path fill="none" stroke="midnightblue" d="M685.511,-114.823C696.013,-113.833 706.816,-112.854 717,-112 942.11,-93.1186 1000.8,-110.818 1224,-76 1225.47,-75.7707 1226.97,-75.5123 1228.48,-75.2314"/>
<polygon fill="midnightblue" stroke="midnightblue" points="1229.36,-78.6211 1238.42,-73.1277 1227.91,-71.7726 1229.36,-78.6211"/>
</g>
<!-- Node4 -->
<g id="node4" class="node"><title>Node4</title>
<polygon fill="white" stroke="#bfbfbf" points="1301.5,-56.5 1301.5,-75.5 1348.5,-75.5 1348.5,-56.5 1301.5,-56.5"/>
<text text-anchor="middle" x="1325" y="-63.5" font-family="Helvetica,sans-Serif" font-size="10.00">csignal</text>
</g>
<!-- Node2&#45;&gt;Node4 -->
<g id="edge3" class="edge"><title>Node2&#45;&gt;Node4</title>
<path fill="none" stroke="midnightblue" d="M685.505,-114.75C696.007,-113.768 706.813,-112.811 717,-112 969.32,-91.9119 1038.31,-118.252 1291.13,-75.9817"/>
<polygon fill="midnightblue" stroke="midnightblue" points="1292.09,-79.3697 1301.36,-74.2505 1290.92,-72.4678 1292.09,-79.3697"/>
</g>
<!-- Node5 -->
<g id="node5" class="node"><title>Node5</title>
<polygon fill="white" stroke="#bfbfbf" points="172,-56.5 172,-75.5 218,-75.5 218,-56.5 172,-56.5"/>
<text text-anchor="middle" x="195" y="-63.5" font-family="Helvetica,sans-Serif" font-size="10.00">cstdint</text>
</g>
<!-- Node2&#45;&gt;Node5 -->
<g id="edge4" class="edge"><title>Node2&#45;&gt;Node5</title>
<path fill="none" stroke="midnightblue" d="M562.21,-116.297C484.678,-109.848 347.826,-96.6526 232,-76 230.755,-75.7781 229.49,-75.5391 228.214,-75.2868"/>
<polygon fill="midnightblue" stroke="midnightblue" points="228.91,-71.8563 218.395,-73.1556 227.425,-78.697 228.91,-71.8563"/>
</g>
<!-- Node6 -->
<g id="node6" class="node"><title>Node6</title>
<polygon fill="white" stroke="#bfbfbf" points="1367,-56.5 1367,-75.5 1423,-75.5 1423,-56.5 1367,-56.5"/>
<text text-anchor="middle" x="1395" y="-63.5" font-family="Helvetica,sans-Serif" font-size="10.00">cinttypes</text>
</g>
<!-- Node2&#45;&gt;Node6 -->
<g id="edge5" class="edge"><title>Node2&#45;&gt;Node6</title>
<path fill="none" stroke="midnightblue" d="M685.501,-114.695C696.004,-113.719 706.81,-112.779 717,-112 998.174,-90.5079 1073.99,-117.253 1356.68,-75.9146"/>
<polygon fill="midnightblue" stroke="midnightblue" points="1357.44,-79.3398 1366.82,-74.4151 1356.42,-72.4151 1357.44,-79.3398"/>
</g>
<!-- Node7 -->
<g id="node7" class="node"><title>Node7</title>
<polygon fill="white" stroke="#bfbfbf" points="274.5,-56.5 274.5,-75.5 317.5,-75.5 317.5,-56.5 274.5,-56.5"/>
<text text-anchor="middle" x="296" y="-63.5" font-family="Helvetica,sans-Serif" font-size="10.00">cstdio</text>
</g>
<!-- Node2&#45;&gt;Node7 -->
<g id="edge6" class="edge"><title>Node2&#45;&gt;Node7</title>
<path fill="none" stroke="midnightblue" d="M562.461,-114.289C504.121,-107.344 413.92,-95.1033 327.506,-76.0868"/>
<polygon fill="midnightblue" stroke="midnightblue" points="328.056,-72.6235 317.533,-73.8578 326.529,-79.4549 328.056,-72.6235"/>
</g>
<!-- Node8 -->
<g id="node8" class="node"><title>Node8</title>
<polygon fill="white" stroke="#bfbfbf" points="335.5,-56.5 335.5,-75.5 384.5,-75.5 384.5,-56.5 335.5,-56.5"/>
<text text-anchor="middle" x="360" y="-63.5" font-family="Helvetica,sans-Serif" font-size="10.00">cstddef</text>
</g>
<!-- Node2&#45;&gt;Node8 -->
<g id="edge7" class="edge"><title>Node2&#45;&gt;Node8</title>
<path fill="none" stroke="midnightblue" d="M574.658,-112.478C529.934,-104.508 462.006,-91.7972 394.734,-76.2875"/>
<polygon fill="midnightblue" stroke="midnightblue" points="395.349,-72.8372 384.816,-73.9791 393.762,-79.655 395.349,-72.8372"/>
</g>
<!-- Node9 -->
<g id="node9" class="node"><title>Node9</title>
<polygon fill="white" stroke="#bfbfbf" points="402.5,-56.5 402.5,-75.5 447.5,-75.5 447.5,-56.5 402.5,-56.5"/>
<text text-anchor="middle" x="425" y="-63.5" font-family="Helvetica,sans-Serif" font-size="10.00">cstdlib</text>
</g>
<!-- Node2&#45;&gt;Node9 -->
<g id="edge8" class="edge"><title>Node2&#45;&gt;Node9</title>
<path fill="none" stroke="midnightblue" d="M591.957,-112.477C560.288,-104.029 510.204,-90.6039 457.571,-76.1351"/>
<polygon fill="midnightblue" stroke="midnightblue" points="458.287,-72.7023 447.717,-73.4223 456.429,-79.4512 458.287,-72.7023"/>
</g>
<!-- Node10 -->
<g id="node10" class="node"><title>Node10</title>
<polygon fill="white" stroke="#bfbfbf" points="466,-56.5 466,-75.5 510,-75.5 510,-56.5 466,-56.5"/>
<text text-anchor="middle" x="488" y="-63.5" font-family="Helvetica,sans-Serif" font-size="10.00">cerrno</text>
</g>
<!-- Node2&#45;&gt;Node10 -->
<g id="edge9" class="edge"><title>Node2&#45;&gt;Node10</title>
<path fill="none" stroke="midnightblue" d="M602.45,-112.444C579.969,-103.517 544.512,-89.4387 519.02,-79.3168"/>
<polygon fill="midnightblue" stroke="midnightblue" points="520.035,-75.9539 509.449,-75.5164 517.451,-82.4598 520.035,-75.9539"/>
</g>
<!-- Node11 -->
<g id="node11" class="node"><title>Node11</title>
<polygon fill="white" stroke="#bfbfbf" points="1441,-56.5 1441,-75.5 1487,-75.5 1487,-56.5 1441,-56.5"/>
<text text-anchor="middle" x="1464" y="-63.5" font-family="Helvetica,sans-Serif" font-size="10.00">cstring</text>
</g>
<!-- Node2&#45;&gt;Node11 -->
<g id="edge10" class="edge"><title>Node2&#45;&gt;Node11</title>
<path fill="none" stroke="midnightblue" d="M685.747,-114.622C696.172,-113.66 706.889,-112.743 717,-112 1030.92,-88.9202 1116.17,-126.57 1430.4,-75.8814"/>
<polygon fill="midnightblue" stroke="midnightblue" points="1431.41,-79.2627 1440.72,-74.1987 1430.28,-72.354 1431.41,-79.2627"/>
</g>
<!-- Node12 -->
<g id="node12" class="node"><title>Node12</title>
<polygon fill="white" stroke="#bfbfbf" points="0,-56.5 0,-75.5 44,-75.5 44,-56.5 0,-56.5"/>
<text text-anchor="middle" x="22" y="-63.5" font-family="Helvetica,sans-Serif" font-size="10.00">cmath</text>
</g>
<!-- Node2&#45;&gt;Node12 -->
<g id="edge11" class="edge"><title>Node2&#45;&gt;Node12</title>
<path fill="none" stroke="midnightblue" d="M562.207,-120.243C458.675,-118.077 243.682,-109.737 54.0869,-75.8315"/>
<polygon fill="midnightblue" stroke="midnightblue" points="54.6857,-72.3831 44.2212,-74.0397 53.4347,-79.2704 54.6857,-72.3831"/>
</g>
<!-- Node13 -->
<g id="node13" class="node"><title>Node13</title>
<polygon fill="white" stroke="#bfbfbf" points="528.5,-56.5 528.5,-75.5 573.5,-75.5 573.5,-56.5 528.5,-56.5"/>
<text text-anchor="middle" x="551" y="-63.5" font-family="Helvetica,sans-Serif" font-size="10.00">iosfwd</text>
</g>
<!-- Node2&#45;&gt;Node13 -->
<g id="edge12" class="edge"><title>Node2&#45;&gt;Node13</title>
<path fill="none" stroke="midnightblue" d="M612.271,-112.324C601.163,-104.107 584.258,-91.6017 571.017,-81.8069"/>
<polygon fill="midnightblue" stroke="midnightblue" points="573.063,-78.9671 562.942,-75.8339 568.9,-84.5948 573.063,-78.9671"/>
</g>
<!-- Node14 -->
<g id="node14" class="node"><title>Node14</title>
<polygon fill="white" stroke="#bfbfbf" points="62,-56.5 62,-75.5 116,-75.5 116,-56.5 62,-56.5"/>
<text text-anchor="middle" x="89" y="-63.5" font-family="Helvetica,sans-Serif" font-size="10.00">iostream</text>
</g>
<!-- Node2&#45;&gt;Node14 -->
<g id="edge13" class="edge"><title>Node2&#45;&gt;Node14</title>
<path fill="none" stroke="midnightblue" d="M562.434,-115.458C473.991,-107.391 305.886,-91.6607 163,-76 150.96,-74.6804 137.834,-73.1229 126.024,-71.6777"/>
<polygon fill="midnightblue" stroke="midnightblue" points="126.399,-68.1975 116.045,-70.4454 125.541,-75.1447 126.399,-68.1975"/>
</g>
<!-- Node15 -->
<g id="node15" class="node"><title>Node15</title>
<polygon fill="white" stroke="#bfbfbf" points="591.5,-56.5 591.5,-75.5 642.5,-75.5 642.5,-56.5 591.5,-56.5"/>
<text text-anchor="middle" x="617" y="-63.5" font-family="Helvetica,sans-Serif" font-size="10.00">unistd.h</text>
</g>
<!-- Node2&#45;&gt;Node15 -->
<g id="edge14" class="edge"><title>Node2&#45;&gt;Node15</title>
<path fill="none" stroke="midnightblue" d="M622.844,-112.083C621.916,-104.927 620.582,-94.6353 619.423,-85.6911"/>
<polygon fill="midnightblue" stroke="midnightblue" points="622.891,-85.2181 618.134,-75.7511 615.949,-86.1181 622.891,-85.2181"/>
</g>
<!-- Node16 -->
<g id="node16" class="node"><title>Node16</title>
<polygon fill="white" stroke="#bfbfbf" points="661,-56.5 661,-75.5 705,-75.5 705,-56.5 661,-56.5"/>
<text text-anchor="middle" x="683" y="-63.5" font-family="Helvetica,sans-Serif" font-size="10.00">fcntl.h</text>
</g>
<!-- Node2&#45;&gt;Node16 -->
<g id="edge15" class="edge"><title>Node2&#45;&gt;Node16</title>
<path fill="none" stroke="midnightblue" d="M633.479,-112.324C642.201,-104.341 655.343,-92.3128 665.898,-82.6529"/>
<polygon fill="midnightblue" stroke="midnightblue" points="668.334,-85.1674 673.348,-75.8339 663.608,-80.0036 668.334,-85.1674"/>
</g>
<!-- Node17 -->
<g id="node17" class="node"><title>Node17</title>
<polygon fill="white" stroke="#bfbfbf" points="723.5,-56.5 723.5,-75.5 764.5,-75.5 764.5,-56.5 723.5,-56.5"/>
<text text-anchor="middle" x="744" y="-63.5" font-family="Helvetica,sans-Serif" font-size="10.00">string</text>
</g>
<!-- Node2&#45;&gt;Node17 -->
<g id="edge16" class="edge"><title>Node2&#45;&gt;Node17</title>
<path fill="none" stroke="midnightblue" d="M643.014,-112.444C662.588,-103.636 693.308,-89.8116 715.729,-79.722"/>
<polygon fill="midnightblue" stroke="midnightblue" points="717.392,-82.8119 725.075,-75.5164 714.519,-76.4284 717.392,-82.8119"/>
</g>
<!-- Node18 -->
<g id="node18" class="node"><title>Node18</title>
<polygon fill="white" stroke="#bfbfbf" points="224,-0.5 224,-19.5 268,-19.5 268,-0.5 224,-0.5"/>
<text text-anchor="middle" x="246" y="-7.5" font-family="Helvetica,sans-Serif" font-size="10.00">vector</text>
</g>
<!-- Node2&#45;&gt;Node18 -->
<g id="edge17" class="edge"><title>Node2&#45;&gt;Node18</title>
<path fill="none" stroke="midnightblue" d="M562.259,-121.185C471.607,-120.173 308.514,-113.066 265,-76 251.734,-64.7 247.461,-44.6958 246.214,-29.8545"/>
<polygon fill="midnightblue" stroke="midnightblue" points="249.704,-29.5709 245.751,-19.7413 242.712,-29.8908 249.704,-29.5709"/>
</g>
<!-- Node19 -->
<g id="node19" class="node"><title>Node19</title>
<polygon fill="white" stroke="#bfbfbf" points="782.5,-56.5 782.5,-75.5 825.5,-75.5 825.5,-56.5 782.5,-56.5"/>
<text text-anchor="middle" x="804" y="-63.5" font-family="Helvetica,sans-Serif" font-size="10.00">deque</text>
</g>
<!-- Node2&#45;&gt;Node19 -->
<g id="edge18" class="edge"><title>Node2&#45;&gt;Node19</title>
<path fill="none" stroke="midnightblue" d="M652.522,-112.444C685.222,-102.633 738.665,-86.6004 772.548,-76.4355"/>
<polygon fill="midnightblue" stroke="midnightblue" points="773.819,-79.7086 782.391,-73.4826 771.807,-73.0038 773.819,-79.7086"/>
</g>
<!-- Node20 -->
<g id="node20" class="node"><title>Node20</title>
<polygon fill="white" stroke="#bfbfbf" points="834,-0.5 834,-19.5 878,-19.5 878,-0.5 834,-0.5"/>
<text text-anchor="middle" x="856" y="-7.5" font-family="Helvetica,sans-Serif" font-size="10.00">mutex</text>
</g>
<!-- Node2&#45;&gt;Node20 -->
<g id="edge19" class="edge"><title>Node2&#45;&gt;Node20</title>
<path fill="none" stroke="midnightblue" d="M685.675,-114.555C739.523,-107.744 812.354,-95.2841 834,-76 847.185,-64.2538 852.477,-44.3201 854.596,-29.6172"/>
<polygon fill="midnightblue" stroke="midnightblue" points="858.082,-29.9337 855.676,-19.6157 851.122,-29.182 858.082,-29.9337"/>
</g>
<!-- Node21 -->
<g id="node21" class="node"><title>Node21</title>
<polygon fill="white" stroke="#bfbfbf" points="898,-0.5 898,-19.5 942,-19.5 942,-0.5 898,-0.5"/>
<text text-anchor="middle" x="920" y="-7.5" font-family="Helvetica,sans-Serif" font-size="10.00">thread</text>
</g>
<!-- Node2&#45;&gt;Node21 -->
<g id="edge20" class="edge"><title>Node2&#45;&gt;Node21</title>
<path fill="none" stroke="midnightblue" d="M685.736,-113.123C743.9,-104.963 826.278,-91.2793 855,-76 876.907,-64.3462 896.181,-42.8708 907.939,-27.8033"/>
<polygon fill="midnightblue" stroke="midnightblue" points="910.747,-29.8921 913.956,-19.795 905.151,-25.6871 910.747,-29.8921"/>
</g>
<!-- Node22 -->
<g id="node22" class="node"><title>Node22</title>
<polygon fill="white" stroke="#bfbfbf" points="1013.5,-0.5 1013.5,-19.5 1108.5,-19.5 1108.5,-0.5 1013.5,-0.5"/>
<text text-anchor="middle" x="1061" y="-7.5" font-family="Helvetica,sans-Serif" font-size="10.00">condition_variable</text>
</g>
<!-- Node2&#45;&gt;Node22 -->
<g id="edge21" class="edge"><title>Node2&#45;&gt;Node22</title>
<path fill="none" stroke="midnightblue" d="M685.529,-114.876C801.603,-103.263 1041.64,-78.9316 1045,-76 1057.97,-64.6683 1061.29,-44.6691 1061.78,-29.8376"/>
<polygon fill="midnightblue" stroke="midnightblue" points="1065.28,-29.7108 1061.72,-19.7324 1058.28,-29.7535 1065.28,-29.7108"/>
</g>
<!-- Node23 -->
<g id="node23" class="node"><title>Node23</title>
<polygon fill="white" stroke="#bfbfbf" points="1128.5,-0.5 1128.5,-19.5 1171.5,-19.5 1171.5,-0.5 1128.5,-0.5"/>
<text text-anchor="middle" x="1150" y="-7.5" font-family="Helvetica,sans-Serif" font-size="10.00">queue</text>
</g>
<!-- Node2&#45;&gt;Node23 -->
<g id="edge22" class="edge"><title>Node2&#45;&gt;Node23</title>
<path fill="none" stroke="midnightblue" d="M685.52,-114.923C696.02,-113.921 706.821,-112.913 717,-112 765.415,-107.659 1120.07,-111.758 1153,-76 1164.33,-63.6958 1161.55,-43.8811 1157.19,-29.3595"/>
<polygon fill="midnightblue" stroke="midnightblue" points="1160.5,-28.209 1153.92,-19.9041 1153.88,-30.4989 1160.5,-28.209"/>
</g>
<!-- Node24 -->
<g id="node24" class="node"><title>Node24</title>
<polygon fill="white" stroke="#bfbfbf" points="1092,-56.5 1092,-75.5 1144,-75.5 1144,-56.5 1092,-56.5"/>
<text text-anchor="middle" x="1118" y="-63.5" font-family="Helvetica,sans-Serif" font-size="10.00">sstream</text>
</g>
<!-- Node2&#45;&gt;Node24 -->
<g id="edge23" class="edge"><title>Node2&#45;&gt;Node24</title>
<path fill="none" stroke="midnightblue" d="M685.548,-114.998C807.384,-103.103 1068.42,-77.5463 1078,-76 1079.26,-75.7958 1080.55,-75.5758 1081.85,-75.3433"/>
<polygon fill="midnightblue" stroke="midnightblue" points="1082.71,-78.7407 1091.84,-73.3686 1081.35,-71.8735 1082.71,-78.7407"/>
</g>
<!-- Node25 -->
<g id="node25" class="node"><title>Node25</title>
<polygon fill="white" stroke="#bfbfbf" points="1190.5,-0.5 1190.5,-19.5 1225.5,-19.5 1225.5,-0.5 1190.5,-0.5"/>
<text text-anchor="middle" x="1208" y="-7.5" font-family="Helvetica,sans-Serif" font-size="10.00">map</text>
</g>
<!-- Node2&#45;&gt;Node25 -->
<g id="edge24" class="edge"><title>Node2&#45;&gt;Node25</title>
<path fill="none" stroke="midnightblue" d="M685.517,-114.896C696.018,-113.898 706.82,-112.897 717,-112 817.594,-103.136 1084.47,-129.687 1170,-76 1186.75,-65.4869 1196.97,-44.7002 1202.53,-29.4535"/>
<polygon fill="midnightblue" stroke="midnightblue" points="1205.99,-30.1496 1205.79,-19.5567 1199.34,-27.9641 1205.99,-30.1496"/>
</g>
<!-- Node26 -->
<g id="node26" class="node"><title>Node26</title>
<g id="a_node26"><a xlink:href="cosmos-defs_8h.html" target="_top" xlink:title="COSMOS definitions Definitions specific to the COSMOS environement. ">
<polygon fill="white" stroke="black" points="920,-56.5 920,-75.5 1036,-75.5 1036,-56.5 920,-56.5"/>
<text text-anchor="middle" x="978" y="-63.5" font-family="Helvetica,sans-Serif" font-size="10.00">support/cosmos&#45;defs.h</text>
</a>
</g>
</g>
<!-- Node2&#45;&gt;Node26 -->
<g id="edge25" class="edge"><title>Node2&#45;&gt;Node26</title>
<path fill="none" stroke="midnightblue" d="M680.092,-112.444C743.141,-102.826 845.397,-87.2275 912.176,-77.0409"/>
<polygon fill="midnightblue" stroke="midnightblue" points="912.812,-80.4845 922.17,-75.5164 911.757,-73.5645 912.812,-80.4845"/>
</g>
<!-- Node26&#45;&gt;Node18 -->
<g id="edge27" class="edge"><title>Node26&#45;&gt;Node18</title>
<path fill="none" stroke="midnightblue" d="M919.949,-60.7176C773.355,-49.9033 391.84,-21.7587 278.32,-13.3843"/>
<polygon fill="midnightblue" stroke="midnightblue" points="278.418,-9.88207 268.188,-12.6368 277.903,-16.8631 278.418,-9.88207"/>
</g>
<!-- Node26&#45;&gt;Node20 -->
<g id="edge31" class="edge"><title>Node26&#45;&gt;Node20</title>
<path fill="none" stroke="midnightblue" d="M958.669,-56.4435C938.68,-47.5961 907.257,-33.6875 884.436,-23.5865"/>
<polygon fill="midnightblue" stroke="midnightblue" points="885.802,-20.3635 875.241,-19.5164 882.968,-26.7645 885.802,-20.3635"/>
</g>
<!-- Node26&#45;&gt;Node21 -->
<g id="edge30" class="edge"><title>Node26&#45;&gt;Node21</title>
<path fill="none" stroke="midnightblue" d="M968.681,-56.324C960.107,-48.3414 947.188,-36.3128 936.812,-26.6529"/>
<polygon fill="midnightblue" stroke="midnightblue" points="939.192,-24.0865 929.488,-19.8339 934.422,-29.2098 939.192,-24.0865"/>
</g>
<!-- Node26&#45;&gt;Node22 -->
<g id="edge32" class="edge"><title>Node26&#45;&gt;Node22</title>
<path fill="none" stroke="midnightblue" d="M991.335,-56.324C1004.16,-47.979 1023.78,-35.2122 1038.94,-25.3524"/>
<polygon fill="midnightblue" stroke="midnightblue" points="1041.22,-28.0417 1047.7,-19.6545 1037.41,-22.1742 1041.22,-28.0417"/>
</g>
<!-- Node26&#45;&gt;Node23 -->
<g id="edge29" class="edge"><title>Node26&#45;&gt;Node23</title>
<path fill="none" stroke="midnightblue" d="M1005.25,-56.4435C1036.02,-46.7829 1086.02,-31.088 1118.45,-20.9046"/>
<polygon fill="midnightblue" stroke="midnightblue" points="1119.83,-24.1414 1128.32,-17.8067 1117.73,-17.4628 1119.83,-24.1414"/>
</g>
<!-- Node26&#45;&gt;Node25 -->
<g id="edge26" class="edge"><title>Node26&#45;&gt;Node25</title>
<path fill="none" stroke="midnightblue" d="M1022.68,-56.4814C1061.85,-48.7037 1120.48,-36.3152 1180.35,-19.9421"/>
<polygon fill="midnightblue" stroke="midnightblue" points="1181.66,-23.2127 1190.36,-17.1706 1179.79,-16.4666 1181.66,-23.2127"/>
</g>
<!-- Node27 -->
<g id="node27" class="node"><title>Node27</title>
<polygon fill="white" stroke="#bfbfbf" points="963.5,-0.5 963.5,-19.5 992.5,-19.5 992.5,-0.5 963.5,-0.5"/>
<text text-anchor="middle" x="978" y="-7.5" font-family="Helvetica,sans-Serif" font-size="10.00">list</text>
</g>
<!-- Node26&#45;&gt;Node27 -->
<g id="edge28" class="edge"><title>Node26&#45;&gt;Node27</title>
<path fill="none" stroke="midnightblue" d="M978,-56.083C978,-49.0059 978,-38.8611 978,-29.9865"/>
<polygon fill="midnightblue" stroke="midnightblue" points="981.5,-29.751 978,-19.7511 974.5,-29.7511 981.5,-29.751"/>
</g>
<!-- Node28&#45;&gt;Node2 -->
<g id="edge34" class="edge"><title>Node28&#45;&gt;Node2</title>
<path fill="none" stroke="midnightblue" d="M406.058,-403.358C426.185,-396.206 452.57,-384.377 471,-367 497.054,-342.435 510,-332.308 510,-296.5 510,-296.5 510,-296.5 510,-233 510,-202.205 513.454,-190.939 534,-168 547.473,-152.958 567.128,-142.325 584.636,-135.187"/>
<polygon fill="midnightblue" stroke="midnightblue" points="585.997,-138.414 594.089,-131.574 583.499,-131.875 585.997,-138.414"/>
</g>
<!-- Node28&#45;&gt;Node12 -->
<g id="edge55" class="edge"><title>Node28&#45;&gt;Node12</title>
<path fill="none" stroke="midnightblue" d="M336.134,-411.574C281.428,-409.613 182.427,-401.129 106,-367 60.2409,-346.566 18,-346.614 18,-296.5 18,-296.5 18,-296.5 18,-177 18,-144.927 19.7193,-107.628 20.9035,-85.7413"/>
<polygon fill="midnightblue" stroke="midnightblue" points="24.4093,-85.7349 21.4771,-75.5539 17.4204,-85.3413 24.4093,-85.7349"/>
</g>
<!-- Node28&#45;&gt;Node14 -->
<g id="edge56" class="edge"><title>Node28&#45;&gt;Node14</title>
<path fill="none" stroke="midnightblue" d="M336.345,-406.136C249.969,-392.535 56,-355.431 56,-296.5 56,-296.5 56,-296.5 56,-177 56,-143.245 70.4322,-106.028 80.2081,-84.6908"/>
<polygon fill="midnightblue" stroke="midnightblue" points="83.409,-86.1095 84.5495,-75.5762 77.0893,-83.0993 83.409,-86.1095"/>
</g>
<!-- Node28&#45;&gt;Node29 -->
<g id="edge35" class="edge"><title>Node28&#45;&gt;Node29</title>
<path fill="none" stroke="midnightblue" d="M417.769,-406.044C448.896,-400.022 491.776,-388.432 524,-367 592.847,-321.211 576.553,-273.207 643,-224 662.993,-209.194 688.585,-198.204 709.728,-190.792"/>
<polygon fill="midnightblue" stroke="midnightblue" points="711.036,-194.044 719.398,-187.538 708.804,-187.41 711.036,-194.044"/>
</g>
<!-- Node31 -->
<g id="node31" class="node"><title>Node31</title>
<g id="a_node31"><a xlink:href="math_2constants_8h.html" target="_top" xlink:title="constants.h">
<polygon fill="white" stroke="black" points="304,-168.5 304,-187.5 372,-187.5 372,-168.5 304,-168.5"/>
<text text-anchor="middle" x="338" y="-175.5" font-family="Helvetica,sans-Serif" font-size="10.00">constants.h</text>
</a>
</g>
</g>
<!-- Node28&#45;&gt;Node31 -->
<g id="edge38" class="edge"><title>Node28&#45;&gt;Node31</title>
<path fill="none" stroke="midnightblue" d="M373.402,-403.275C366.47,-386.008 351.385,-346.108 345,-311 337.771,-271.253 337.174,-223.752 337.506,-197.956"/>
<polygon fill="midnightblue" stroke="midnightblue" points="341.01,-197.803 337.704,-187.737 334.011,-197.667 341.01,-197.803"/>
</g>
<!-- Node32 -->
<g id="node32" class="node"><title>Node32</title>
<g id="a_node32"><a xlink:href="vector_8h.html" target="_top" xlink:title="vector.h">
<polygon fill="white" stroke="black" points="246,-224.5 246,-243.5 298,-243.5 298,-224.5 246,-224.5"/>
<text text-anchor="middle" x="272" y="-231.5" font-family="Helvetica,sans-Serif" font-size="10.00">vector.h</text>
</a>
</g>
</g>
<!-- Node28&#45;&gt;Node32 -->
<g id="edge41" class="edge"><title>Node28&#45;&gt;Node32</title>
<path fill="none" stroke="midnightblue" d="M358.443,-403.496C343.819,-395.892 323.963,-383.417 312,-367 286.58,-332.117 277.126,-280.916 273.757,-253.67"/>
<polygon fill="midnightblue" stroke="midnightblue" points="277.22,-253.139 272.657,-243.577 270.261,-253.897 277.22,-253.139"/>
</g>
<!-- Node34 -->
<g id="node34" class="node"><title>Node34</title>
<g id="a_node34"><a xlink:href="matrix_8h.html" target="_top" xlink:title="matrix.h">
<polygon fill="white" stroke="black" points="354,-286 354,-305 406,-305 406,-286 354,-286"/>
<text text-anchor="middle" x="380" y="-293" font-family="Helvetica,sans-Serif" font-size="10.00">matrix.h</text>
</a>
</g>
</g>
<!-- Node28&#45;&gt;Node34 -->
<g id="edge48" class="edge"><title>Node28&#45;&gt;Node34</title>
<path fill="none" stroke="midnightblue" d="M377.225,-403.319C377.708,-384.757 378.848,-340.839 379.507,-315.473"/>
<polygon fill="midnightblue" stroke="midnightblue" points="383.011,-315.37 379.772,-305.282 376.013,-315.188 383.011,-315.37"/>
</g>
<!-- Node35 -->
<g id="node35" class="node"><title>Node35</title>
<g id="a_node35"><a xlink:href="rotation_8h.html" target="_top" xlink:title="rotation.h">
<polygon fill="white" stroke="black" points="405.5,-347.5 405.5,-366.5 462.5,-366.5 462.5,-347.5 405.5,-347.5"/>
<text text-anchor="middle" x="434" y="-354.5" font-family="Helvetica,sans-Serif" font-size="10.00">rotation.h</text>
</a>
</g>
</g>
<!-- Node28&#45;&gt;Node35 -->
<g id="edge51" class="edge"><title>Node28&#45;&gt;Node35</title>
<path fill="none" stroke="midnightblue" d="M386.158,-403.324C394.501,-395.42 407.032,-383.548 417.177,-373.938"/>
<polygon fill="midnightblue" stroke="midnightblue" points="419.823,-376.252 424.675,-366.834 415.009,-371.171 419.823,-376.252"/>
</g>
<!-- Node29&#45;&gt;Node2 -->
<g id="edge36" class="edge"><title>Node29&#45;&gt;Node2</title>
<path fill="none" stroke="midnightblue" d="M730.035,-168.444C709.391,-159.596 676.937,-145.687 653.368,-135.586"/>
<polygon fill="midnightblue" stroke="midnightblue" points="654.442,-132.239 643.872,-131.516 651.684,-138.673 654.442,-132.239"/>
</g>
<!-- Node30 -->
<g id="node30" class="node"><title>Node30</title>
<polygon fill="white" stroke="#bfbfbf" points="726.5,-112.5 726.5,-131.5 773.5,-131.5 773.5,-112.5 726.5,-112.5"/>
<text text-anchor="middle" x="750" y="-119.5" font-family="Helvetica,sans-Serif" font-size="10.00">errno.h</text>
</g>
<!-- Node29&#45;&gt;Node30 -->
<g id="edge37" class="edge"><title>Node29&#45;&gt;Node30</title>
<path fill="none" stroke="midnightblue" d="M750,-168.083C750,-161.006 750,-150.861 750,-141.986"/>
<polygon fill="midnightblue" stroke="midnightblue" points="753.5,-141.751 750,-131.751 746.5,-141.751 753.5,-141.751"/>
</g>
<!-- Node31&#45;&gt;Node2 -->
<g id="edge39" class="edge"><title>Node31&#45;&gt;Node2</title>
<path fill="none" stroke="midnightblue" d="M372.214,-170.54C420.889,-161.35 510.66,-144.4 568.814,-133.42"/>
<polygon fill="midnightblue" stroke="midnightblue" points="569.754,-136.804 578.931,-131.509 568.456,-129.926 569.754,-136.804"/>
</g>
<!-- Node31&#45;&gt;Node5 -->
<g id="edge40" class="edge"><title>Node31&#45;&gt;Node5</title>
<path fill="none" stroke="midnightblue" d="M326.779,-168.368C302.449,-149.653 244.596,-105.151 214.282,-81.8324"/>
<polygon fill="midnightblue" stroke="midnightblue" points="216.229,-78.9144 206.169,-75.5914 211.961,-84.4628 216.229,-78.9144"/>
</g>
<!-- Node32&#45;&gt;Node2 -->
<g id="edge42" class="edge"><title>Node32&#45;&gt;Node2</title>
<path fill="none" stroke="midnightblue" d="M272.346,-224.231C273.416,-210.001 277.734,-182.057 295,-168 333.288,-136.827 467.627,-127.224 552.343,-124.281"/>
<polygon fill="midnightblue" stroke="midnightblue" points="552.537,-127.777 562.418,-123.954 552.31,-120.78 552.537,-127.777"/>
</g>
<!-- Node32&#45;&gt;Node12 -->
<g id="edge46" class="edge"><title>Node32&#45;&gt;Node12</title>
<path fill="none" stroke="midnightblue" d="M245.947,-228.15C217.699,-222.038 172.09,-209.623 138,-188 93.1321,-159.542 53.2602,-110.13 34.08,-84.1273"/>
<polygon fill="midnightblue" stroke="midnightblue" points="36.6744,-81.7419 27.9789,-75.6889 31.0018,-85.8433 36.6744,-81.7419"/>
</g>
<!-- Node32&#45;&gt;Node14 -->
<g id="edge44" class="edge"><title>Node32&#45;&gt;Node14</title>
<path fill="none" stroke="midnightblue" d="M245.803,-228.241C220.357,-222.474 181.876,-210.585 156,-188 139.008,-173.169 110.877,-114.951 97.1036,-85.0059"/>
<polygon fill="midnightblue" stroke="midnightblue" points="100.201,-83.3619 92.8724,-75.7105 93.8299,-86.262 100.201,-83.3619"/>
</g>
<!-- Node32&#45;&gt;Node18 -->
<g id="edge47" class="edge"><title>Node32&#45;&gt;Node18</title>
<path fill="none" stroke="midnightblue" d="M245.673,-225.191C227.1,-218.335 203.105,-206.515 189,-188 158.032,-147.351 168.816,-126.769 163,-76 161.988,-67.1689 158.453,-63.6378 163,-56 174.088,-37.3758 195.867,-25.9852 214.333,-19.3246"/>
<polygon fill="midnightblue" stroke="midnightblue" points="215.485,-22.6304 223.888,-16.1772 213.295,-15.9818 215.485,-22.6304"/>
</g>
<!-- Node32&#45;&gt;Node31 -->
<g id="edge43" class="edge"><title>Node32&#45;&gt;Node31</title>
<path fill="none" stroke="midnightblue" d="M282.604,-224.324C292.456,-216.263 307.351,-204.077 319.215,-194.369"/>
<polygon fill="midnightblue" stroke="midnightblue" points="321.68,-196.875 327.203,-187.834 317.247,-191.457 321.68,-196.875"/>
</g>
<!-- Node33 -->
<g id="node33" class="node"><title>Node33</title>
<polygon fill="white" stroke="#bfbfbf" points="198,-168.5 198,-187.5 248,-187.5 248,-168.5 198,-168.5"/>
<text text-anchor="middle" x="223" y="-175.5" font-family="Helvetica,sans-Serif" font-size="10.00">iomanip</text>
</g>
<!-- Node32&#45;&gt;Node33 -->
<g id="edge45" class="edge"><title>Node32&#45;&gt;Node33</title>
<path fill="none" stroke="midnightblue" d="M263.909,-224.083C256.845,-216.298 246.412,-204.801 237.851,-195.367"/>
<polygon fill="midnightblue" stroke="midnightblue" points="240.253,-192.805 230.941,-187.751 235.069,-197.509 240.253,-192.805"/>
</g>
<!-- Node34&#45;&gt;Node2 -->
<g id="edge49" class="edge"><title>Node34&#45;&gt;Node2</title>
<path fill="none" stroke="midnightblue" d="M382.776,-285.883C390.621,-262.943 415.209,-199.959 458,-168 485.2,-147.685 520.982,-136.539 552.359,-130.424"/>
<polygon fill="midnightblue" stroke="midnightblue" points="553.158,-133.836 562.375,-128.611 551.911,-126.949 553.158,-133.836"/>
</g>
<!-- Node34&#45;&gt;Node32 -->
<g id="edge50" class="edge"><title>Node34&#45;&gt;Node32</title>
<path fill="none" stroke="midnightblue" d="M364.526,-285.975C346.722,-276.166 317.259,-259.935 296.368,-248.425"/>
<polygon fill="midnightblue" stroke="midnightblue" points="297.893,-245.269 287.445,-243.509 294.515,-251.4 297.893,-245.269"/>
</g>
<!-- Node35&#45;&gt;Node2 -->
<g id="edge52" class="edge"><title>Node35&#45;&gt;Node2</title>
<path fill="none" stroke="midnightblue" d="M434.28,-347.138C435.697,-317.502 444.263,-220.756 496,-168 512.233,-151.447 534.905,-140.97 556.665,-134.345"/>
<polygon fill="midnightblue" stroke="midnightblue" points="557.89,-137.636 566.572,-131.563 555.998,-130.896 557.89,-137.636"/>
</g>
<!-- Node35&#45;&gt;Node32 -->
<g id="edge53" class="edge"><title>Node35&#45;&gt;Node32</title>
<path fill="none" stroke="midnightblue" d="M434.395,-347.201C434.601,-331.564 432.717,-298.811 415,-280 387.305,-250.595 340.631,-240.304 308.169,-236.759"/>
<polygon fill="midnightblue" stroke="midnightblue" points="308.453,-233.27 298.171,-235.83 307.804,-240.24 308.453,-233.27"/>
</g>
<!-- Node35&#45;&gt;Node34 -->
<g id="edge54" class="edge"><title>Node35&#45;&gt;Node34</title>
<path fill="none" stroke="midnightblue" d="M426.263,-347.475C418.003,-338.373 404.723,-323.741 394.506,-312.483"/>
<polygon fill="midnightblue" stroke="midnightblue" points="397.035,-310.062 387.723,-305.009 391.851,-314.766 397.035,-310.062"/>
</g>
<!-- Node36&#45;&gt;Node2 -->
<g id="edge59" class="edge"><title>Node36&#45;&gt;Node2</title>
<path fill="none" stroke="midnightblue" d="M664.416,-280.377C657.108,-270.715 648.115,-257.294 643,-244 629.745,-209.548 625.73,-166.182 624.518,-141.832"/>
<polygon fill="midnightblue" stroke="midnightblue" points="628.004,-141.386 624.121,-131.529 621.009,-141.657 628.004,-141.386"/>
</g>
<!-- Node37 -->
<g id="node37" class="node"><title>Node37</title>
<g id="a_node37"><a xlink:href="sliplib_8h.html" target="_top" xlink:title="COSMOS SLIP support include file. ">
<polygon fill="white" stroke="black" points="652.5,-224.5 652.5,-243.5 737.5,-243.5 737.5,-224.5 652.5,-224.5"/>
<text text-anchor="middle" x="695" y="-231.5" font-family="Helvetica,sans-Serif" font-size="10.00">support/sliplib.h</text>
</a>
</g>
</g>
<!-- Node36&#45;&gt;Node37 -->
<g id="edge60" class="edge"><title>Node36&#45;&gt;Node37</title>
<path fill="none" stroke="midnightblue" d="M680.503,-280.399C683.093,-272.288 686.376,-262.007 689.162,-253.281"/>
<polygon fill="midnightblue" stroke="midnightblue" points="692.527,-254.249 692.235,-243.658 685.859,-252.119 692.527,-254.249"/>
</g>
<!-- Node37&#45;&gt;Node2 -->
<g id="edge61" class="edge"><title>Node37&#45;&gt;Node2</title>
<path fill="none" stroke="midnightblue" d="M689.429,-224.368C677.764,-206.296 650.577,-164.176 635.171,-140.307"/>
<polygon fill="midnightblue" stroke="midnightblue" points="637.909,-138.095 629.545,-131.591 632.028,-141.891 637.909,-138.095"/>
</g>
<!-- Node37&#45;&gt;Node11 -->
<g id="edge63" class="edge"><title>Node37&#45;&gt;Node11</title>
<path fill="none" stroke="midnightblue" d="M737.591,-224.923C849.646,-203.459 1161.98,-142.265 1431.02,-76.1211"/>
<polygon fill="midnightblue" stroke="midnightblue" points="1432.1,-79.459 1440.97,-73.6667 1430.43,-72.6625 1432.1,-79.459"/>
</g>
<!-- Node37&#45;&gt;Node29 -->
<g id="edge62" class="edge"><title>Node37&#45;&gt;Node29</title>
<path fill="none" stroke="midnightblue" d="M704.082,-224.083C712.171,-216.141 724.195,-204.335 733.91,-194.797"/>
<polygon fill="midnightblue" stroke="midnightblue" points="736.403,-197.254 741.087,-187.751 731.499,-192.26 736.403,-197.254"/>
</g>
</g>
</svg>
        <g id="navigator" transform="translate(0 0)" fill="#404254">
                <rect fill="#f2f5e9" fill-opacity="0.5" stroke="#606060" stroke-width=".5" x="0" y="0" width="60" height="60"/>
                <use id="zoomplus" xlink:href="#zoomPlus" x="17" y="9" onmousedown="handleZoom(evt,'in')"/>
                <use id="zoomminus" xlink:href="#zoomMin" x="42" y="9" onmousedown="handleZoom(evt,'out')"/>
                <use id="reset" xlink:href="#resetDef" x="30" y="36" onmousedown="handleReset()"/>
                <g id="arrowUp" xlink:href="#dirArrow" transform="translate(30 24)" onmousedown="handlePan(0,-1)">
                  <use xlink:href="#rim" fill="#404040">
                        <set attributeName="fill" to="#808080" begin="arrowUp.mouseover" end="arrowUp.mouseout"/>
                  </use>
                  <path fill="none" stroke="white" stroke-width="1.5" d="M0,-3.0v7 M-2.5,-0.5L0,-3.0L2.5,-0.5"/>
                </g>
                <g id="arrowRight" xlink:href="#dirArrow" transform="rotate(90) translate(36 -43)" onmousedown="handlePan(1,0)">
                  <use xlink:href="#rim" fill="#404040">
                        <set attributeName="fill" to="#808080" begin="arrowRight.mouseover" end="arrowRight.mouseout"/>
                  </use>
                  <path fill="none" stroke="white" stroke-width="1.5" d="M0,-3.0v7 M-2.5,-0.5L0,-3.0L2.5,-0.5"/>
                </g>
                <g id="arrowDown" xlink:href="#dirArrow" transform="rotate(180) translate(-30 -48)" onmousedown="handlePan(0,1)">
                  <use xlink:href="#rim" fill="#404040">
                        <set attributeName="fill" to="#808080" begin="arrowDown.mouseover" end="arrowDown.mouseout"/>
                  </use>
                  <path fill="none" stroke="white" stroke-width="1.5" d="M0,-3.0v7 M-2.5,-0.5L0,-3.0L2.5,-0.5"/>
                </g>
                <g id="arrowLeft" xlink:href="#dirArrow" transform="rotate(270) translate(-36 17)" onmousedown="handlePan(-1,0)">
                  <use xlink:href="#rim" fill="#404040">
                        <set attributeName="fill" to="#808080" begin="arrowLeft.mouseover" end="arrowLeft.mouseout"/>
                  </use>
                  <path fill="none" stroke="white" stroke-width="1.5" d="M0,-3.0v7 M-2.5,-0.5L0,-3.0L2.5,-0.5"/>
                </g>
        </g>
        <svg viewBox="0 0 15 15" width="100%" height="30px" preserveAspectRatio="xMaxYMin meet">
         <g id="arrow_out" transform="scale(0.3 0.3)">
          <a xlink:href="gs232b__lib_8h__incl_org.svg" target="_base">
           <rect id="button" ry="5" rx="5" y="6" x="6" height="38" width="38"
                fill="#f2f5e9" fill-opacity="0.5" stroke="#606060" stroke-width="1.0"/>
           <path id="arrow"
             d="M 11.500037,31.436501 C 11.940474,20.09759 22.043105,11.32322 32.158766,21.979434 L 37.068811,17.246167 C 37.068811,17.246167 37.088388,32 37.088388,32 L 22.160133,31.978069 C 22.160133,31.978069 26.997745,27.140456 26.997745,27.140456 C 18.528582,18.264221 13.291696,25.230495 11.500037,31.436501 z"
             style="fill:#404040;"/>
          </a>
         </g>
        </svg>
</svg>
