<?xml version="1.0" encoding="UTF-8" standalone="no"?>
<!DOCTYPE svg PUBLIC "-//W3C//DTD SVG 1.1//EN"
 "http://www.w3.org/Graphics/SVG/1.1/DTD/svg11.dtd">
<!-- Generated by graphviz version 2.38.0 (20140413.2041)
 -->
<!-- Title: gs232b_lib.cpp Pages: 1 -->
<svg width="1495pt" height="554pt"
 viewBox="0.00 0.00 1495.00 554.00" xmlns="http://www.w3.org/2000/svg" xmlns:xlink="http://www.w3.org/1999/xlink">
<g id="graph0" class="graph" transform="scale(1 1) rotate(0) translate(4 550)">
<title>gs232b_lib.cpp</title>
<polygon fill="white" stroke="none" points="-4,4 -4,-550 1491,-550 1491,4 -4,4"/>
<!-- Node1 -->
<g id="node1" class="node"><title>Node1</title>
<polygon fill="#bfbfbf" stroke="black" points="401,-526.5 401,-545.5 483,-545.5 483,-526.5 401,-526.5"/>
<text text-anchor="middle" x="442" y="-533.5" font-family="Helvetica,sans-Serif" font-size="10.00">gs232b_lib.cpp</text>
</g>
<!-- Node2 -->
<g id="node2" class="node"><title>Node2</title>
<g id="a_node2"><a xlink:href="config_cosmos_8h.html" target="_top" xlink:title="Headers and definitions common to all COSMOS. ">
<polygon fill="white" stroke="black" points="554.5,-112.5 554.5,-131.5 677.5,-131.5 677.5,-112.5 554.5,-112.5"/>
<text text-anchor="middle" x="616" y="-119.5" font-family="Helvetica,sans-Serif" font-size="10.00">support/configCosmos.h</text>
</a>
</g>
</g>
<!-- Node1&#45;&gt;Node2 -->
<g id="edge1" class="edge"><title>Node1&#45;&gt;Node2</title>
<path fill="none" stroke="midnightblue" d="M400.811,-531.408C335.625,-523.217 216,-496.892 216,-414 216,-414 216,-414 216,-233 216,-194.577 239.11,-186.105 273,-168 318.605,-143.636 458.028,-131.689 544.437,-126.478"/>
<polygon fill="midnightblue" stroke="midnightblue" points="544.664,-129.97 554.442,-125.89 544.254,-122.982 544.664,-129.97"/>
</g>
<!-- Node11 -->
<g id="node11" class="node"><title>Node11</title>
<polygon fill="white" stroke="#bfbfbf" points="1441,-56.5 1441,-75.5 1487,-75.5 1487,-56.5 1441,-56.5"/>
<text text-anchor="middle" x="1464" y="-63.5" font-family="Helvetica,sans-Serif" font-size="10.00">cstring</text>
</g>
<!-- Node1&#45;&gt;Node11 -->
<g id="edge67" class="edge"><title>Node1&#45;&gt;Node11</title>
<path fill="none" stroke="midnightblue" d="M483.211,-534.088C664.246,-529.549 1380,-505.796 1380,-414 1380,-414 1380,-414 1380,-177 1380,-135.731 1417.81,-100.325 1442.69,-81.4905"/>
<polygon fill="midnightblue" stroke="midnightblue" points="1444.85,-84.2514 1450.88,-75.5372 1440.73,-78.5916 1444.85,-84.2514"/>
</g>
<!-- Node12 -->
<g id="node12" class="node"><title>Node12</title>
<polygon fill="white" stroke="#bfbfbf" points="0,-56.5 0,-75.5 44,-75.5 44,-56.5 0,-56.5"/>
<text text-anchor="middle" x="22" y="-63.5" font-family="Helvetica,sans-Serif" font-size="10.00">cmath</text>
</g>
<!-- Node1&#45;&gt;Node12 -->
<g id="edge68" class="edge"><title>Node1&#45;&gt;Node12</title>
<path fill="none" stroke="midnightblue" d="M400.727,-530.233C305.008,-518.032 76,-481.761 76,-414 76,-414 76,-414 76,-177 76,-140.863 52.2254,-104.252 36.2265,-83.7063"/>
<polygon fill="midnightblue" stroke="midnightblue" points="38.7507,-81.2619 29.7369,-75.694 33.3112,-85.6678 38.7507,-81.2619"/>
</g>
<!-- Node28 -->
<g id="node28" class="node"><title>Node28</title>
<g id="a_node28"><a xlink:href="gs232b__lib_8h.html" target="_top" xlink:title="GS&#45;232B controller includes. ">
<polygon fill="white" stroke="black" points="586,-459.5 586,-489.5 700,-489.5 700,-459.5 586,-459.5"/>
<text text-anchor="start" x="594" y="-477.5" font-family="Helvetica,sans-Serif" font-size="10.00">device/general/gs232b</text>
<text text-anchor="middle" x="643" y="-466.5" font-family="Helvetica,sans-Serif" font-size="10.00">_lib.h</text>
</a>
</g>
</g>
<!-- Node1&#45;&gt;Node28 -->
<g id="edge33" class="edge"><title>Node1&#45;&gt;Node28</title>
<path fill="none" stroke="midnightblue" d="M470.798,-526.475C500.692,-517.626 548.247,-503.549 585.816,-492.428"/>
<polygon fill="midnightblue" stroke="midnightblue" points="587.033,-495.718 595.628,-489.523 585.046,-489.005 587.033,-495.718"/>
</g>
<!-- Node3 -->
<g id="node3" class="node"><title>Node3</title>
<polygon fill="white" stroke="#bfbfbf" points="1202.5,-56.5 1202.5,-75.5 1247.5,-75.5 1247.5,-56.5 1202.5,-56.5"/>
<text text-anchor="middle" x="1225" y="-63.5" font-family="Helvetica,sans-Serif" font-size="10.00">climits</text>
</g>
<!-- Node2&#45;&gt;Node3 -->
<g id="edge2" class="edge"><title>Node2&#45;&gt;Node3</title>
<path fill="none" stroke="midnightblue" d="M677.776,-113.443C682.586,-112.928 687.371,-112.44 692,-112 910.983,-91.1774 971.33,-113.737 1192.44,-75.7027"/>
<polygon fill="midnightblue" stroke="midnightblue" points="1193.15,-79.1304 1202.4,-73.9659 1191.95,-72.2343 1193.15,-79.1304"/>
</g>
<!-- Node4 -->
<g id="node4" class="node"><title>Node4</title>
<polygon fill="white" stroke="#bfbfbf" points="1265.5,-56.5 1265.5,-75.5 1312.5,-75.5 1312.5,-56.5 1265.5,-56.5"/>
<text text-anchor="middle" x="1289" y="-63.5" font-family="Helvetica,sans-Serif" font-size="10.00">csignal</text>
</g>
<!-- Node2&#45;&gt;Node4 -->
<g id="edge3" class="edge"><title>Node2&#45;&gt;Node4</title>
<path fill="none" stroke="midnightblue" d="M677.772,-113.402C682.583,-112.896 687.369,-112.422 692,-112 938.844,-89.5228 1006.46,-116.525 1255.26,-75.7418"/>
<polygon fill="midnightblue" stroke="midnightblue" points="1256.04,-79.1607 1265.33,-74.0706 1254.9,-72.2551 1256.04,-79.1607"/>
</g>
<!-- Node5 -->
<g id="node5" class="node"><title>Node5</title>
<polygon fill="white" stroke="#bfbfbf" points="100,-56.5 100,-75.5 146,-75.5 146,-56.5 100,-56.5"/>
<text text-anchor="middle" x="123" y="-63.5" font-family="Helvetica,sans-Serif" font-size="10.00">cstdint</text>
</g>
<!-- Node2&#45;&gt;Node5 -->
<g id="edge4" class="edge"><title>Node2&#45;&gt;Node5</title>
<path fill="none" stroke="midnightblue" d="M554.418,-117.672C466.456,-112.295 299.988,-99.812 160,-76 158.754,-75.788 157.487,-75.5574 156.21,-75.3122"/>
<polygon fill="midnightblue" stroke="midnightblue" points="156.896,-71.8798 146.385,-73.2127 155.433,-78.7253 156.896,-71.8798"/>
</g>
<!-- Node6 -->
<g id="node6" class="node"><title>Node6</title>
<polygon fill="white" stroke="#bfbfbf" points="488,-56.5 488,-75.5 544,-75.5 544,-56.5 488,-56.5"/>
<text text-anchor="middle" x="516" y="-63.5" font-family="Helvetica,sans-Serif" font-size="10.00">cinttypes</text>
</g>
<!-- Node2&#45;&gt;Node6 -->
<g id="edge5" class="edge"><title>Node2&#45;&gt;Node6</title>
<path fill="none" stroke="midnightblue" d="M599.933,-112.324C584.042,-103.743 559.493,-90.486 541.042,-80.5224"/>
<polygon fill="midnightblue" stroke="midnightblue" points="542.489,-77.3264 532.027,-75.6545 539.163,-83.4857 542.489,-77.3264"/>
</g>
<!-- Node7 -->
<g id="node7" class="node"><title>Node7</title>
<polygon fill="white" stroke="#bfbfbf" points="562.5,-56.5 562.5,-75.5 605.5,-75.5 605.5,-56.5 562.5,-56.5"/>
<text text-anchor="middle" x="584" y="-63.5" font-family="Helvetica,sans-Serif" font-size="10.00">cstdio</text>
</g>
<!-- Node2&#45;&gt;Node7 -->
<g id="edge6" class="edge"><title>Node2&#45;&gt;Node7</title>
<path fill="none" stroke="midnightblue" d="M610.716,-112.083C606.289,-104.613 599.837,-93.7244 594.382,-84.5199"/>
<polygon fill="midnightblue" stroke="midnightblue" points="597.295,-82.5697 589.186,-75.7511 591.273,-86.1383 597.295,-82.5697"/>
</g>
<!-- Node8 -->
<g id="node8" class="node"><title>Node8</title>
<polygon fill="white" stroke="#bfbfbf" points="623.5,-56.5 623.5,-75.5 672.5,-75.5 672.5,-56.5 623.5,-56.5"/>
<text text-anchor="middle" x="648" y="-63.5" font-family="Helvetica,sans-Serif" font-size="10.00">cstddef</text>
</g>
<!-- Node2&#45;&gt;Node8 -->
<g id="edge7" class="edge"><title>Node2&#45;&gt;Node8</title>
<path fill="none" stroke="midnightblue" d="M621.284,-112.083C625.711,-104.613 632.163,-93.7244 637.618,-84.5199"/>
<polygon fill="midnightblue" stroke="midnightblue" points="640.727,-86.1383 642.814,-75.7511 634.705,-82.5697 640.727,-86.1383"/>
</g>
<!-- Node9 -->
<g id="node9" class="node"><title>Node9</title>
<polygon fill="white" stroke="#bfbfbf" points="690.5,-56.5 690.5,-75.5 735.5,-75.5 735.5,-56.5 690.5,-56.5"/>
<text text-anchor="middle" x="713" y="-63.5" font-family="Helvetica,sans-Serif" font-size="10.00">cstdlib</text>
</g>
<!-- Node2&#45;&gt;Node9 -->
<g id="edge8" class="edge"><title>Node2&#45;&gt;Node9</title>
<path fill="none" stroke="midnightblue" d="M631.585,-112.324C646.999,-103.743 670.812,-90.486 688.71,-80.5224"/>
<polygon fill="midnightblue" stroke="midnightblue" points="690.419,-83.5767 697.454,-75.6545 687.014,-77.4606 690.419,-83.5767"/>
</g>
<!-- Node10 -->
<g id="node10" class="node"><title>Node10</title>
<polygon fill="white" stroke="#bfbfbf" points="754,-56.5 754,-75.5 798,-75.5 798,-56.5 754,-56.5"/>
<text text-anchor="middle" x="776" y="-63.5" font-family="Helvetica,sans-Serif" font-size="10.00">cerrno</text>
</g>
<!-- Node2&#45;&gt;Node10 -->
<g id="edge9" class="edge"><title>Node2&#45;&gt;Node10</title>
<path fill="none" stroke="midnightblue" d="M641.352,-112.444C669.219,-103.038 714.032,-87.9142 744.225,-77.7242"/>
<polygon fill="midnightblue" stroke="midnightblue" points="745.502,-80.9871 753.858,-74.473 743.264,-74.3546 745.502,-80.9871"/>
</g>
<!-- Node2&#45;&gt;Node11 -->
<g id="edge10" class="edge"><title>Node2&#45;&gt;Node11</title>
<path fill="none" stroke="midnightblue" d="M677.503,-118.387C848.472,-111.017 1323.38,-89.7944 1430.5,-75.6971"/>
<polygon fill="midnightblue" stroke="midnightblue" points="1431.34,-79.112 1440.71,-74.1855 1430.31,-72.1875 1431.34,-79.112"/>
</g>
<!-- Node2&#45;&gt;Node12 -->
<g id="edge11" class="edge"><title>Node2&#45;&gt;Node12</title>
<path fill="none" stroke="midnightblue" d="M554.488,-116.613C456.35,-109.416 258.35,-94.0773 91,-76 78.9536,-74.6987 65.7552,-73.0356 54.1566,-71.494"/>
<polygon fill="midnightblue" stroke="midnightblue" points="54.4121,-67.9968 44.0334,-70.1262 53.4747,-74.9337 54.4121,-67.9968"/>
</g>
<!-- Node13 -->
<g id="node13" class="node"><title>Node13</title>
<polygon fill="white" stroke="#bfbfbf" points="816.5,-56.5 816.5,-75.5 861.5,-75.5 861.5,-56.5 816.5,-56.5"/>
<text text-anchor="middle" x="839" y="-63.5" font-family="Helvetica,sans-Serif" font-size="10.00">iosfwd</text>
</g>
<!-- Node2&#45;&gt;Node13 -->
<g id="edge12" class="edge"><title>Node2&#45;&gt;Node13</title>
<path fill="none" stroke="midnightblue" d="M654.532,-112.431C691.154,-104.173 747.997,-91.0641 806.52,-76.0385"/>
<polygon fill="midnightblue" stroke="midnightblue" points="807.499,-79.4007 816.307,-73.5118 805.749,-72.6229 807.499,-79.4007"/>
</g>
<!-- Node14 -->
<g id="node14" class="node"><title>Node14</title>
<polygon fill="white" stroke="#bfbfbf" points="1369,-56.5 1369,-75.5 1423,-75.5 1423,-56.5 1369,-56.5"/>
<text text-anchor="middle" x="1396" y="-63.5" font-family="Helvetica,sans-Serif" font-size="10.00">iostream</text>
</g>
<!-- Node2&#45;&gt;Node14 -->
<g id="edge13" class="edge"><title>Node2&#45;&gt;Node14</title>
<path fill="none" stroke="midnightblue" d="M677.768,-113.352C682.58,-112.858 687.367,-112.4 692,-112 986.009,-86.6353 1062.59,-115.766 1355,-76 1356.26,-75.8288 1357.54,-75.6391 1358.83,-75.4343"/>
<polygon fill="midnightblue" stroke="midnightblue" points="1359.55,-78.8595 1368.76,-73.6231 1358.3,-71.9729 1359.55,-78.8595"/>
</g>
<!-- Node15 -->
<g id="node15" class="node"><title>Node15</title>
<polygon fill="white" stroke="#bfbfbf" points="879.5,-56.5 879.5,-75.5 930.5,-75.5 930.5,-56.5 879.5,-56.5"/>
<text text-anchor="middle" x="905" y="-63.5" font-family="Helvetica,sans-Serif" font-size="10.00">unistd.h</text>
</g>
<!-- Node2&#45;&gt;Node15 -->
<g id="edge14" class="edge"><title>Node2&#45;&gt;Node15</title>
<path fill="none" stroke="midnightblue" d="M671.235,-112.462C720.63,-104.545 795.196,-91.9013 869.443,-75.9774"/>
<polygon fill="midnightblue" stroke="midnightblue" points="870.407,-79.3499 879.439,-73.8129 868.925,-72.5085 870.407,-79.3499"/>
</g>
<!-- Node16 -->
<g id="node16" class="node"><title>Node16</title>
<polygon fill="white" stroke="#bfbfbf" points="949,-56.5 949,-75.5 993,-75.5 993,-56.5 949,-56.5"/>
<text text-anchor="middle" x="971" y="-63.5" font-family="Helvetica,sans-Serif" font-size="10.00">fcntl.h</text>
</g>
<!-- Node2&#45;&gt;Node16 -->
<g id="edge15" class="edge"><title>Node2&#45;&gt;Node16</title>
<path fill="none" stroke="midnightblue" d="M677.643,-113.426C752.812,-104.023 876.517,-87.9702 938.888,-75.6971"/>
<polygon fill="midnightblue" stroke="midnightblue" points="939.622,-79.1196 948.716,-73.6843 938.217,-72.262 939.622,-79.1196"/>
</g>
<!-- Node17 -->
<g id="node17" class="node"><title>Node17</title>
<polygon fill="white" stroke="#bfbfbf" points="1011.5,-56.5 1011.5,-75.5 1052.5,-75.5 1052.5,-56.5 1011.5,-56.5"/>
<text text-anchor="middle" x="1032" y="-63.5" font-family="Helvetica,sans-Serif" font-size="10.00">string</text>
</g>
<!-- Node2&#45;&gt;Node17 -->
<g id="edge16" class="edge"><title>Node2&#45;&gt;Node17</title>
<path fill="none" stroke="midnightblue" d="M677.8,-113.67C682.605,-113.103 687.381,-112.542 692,-112 826.531,-96.2229 864.397,-103.666 1001.43,-75.7511"/>
<polygon fill="midnightblue" stroke="midnightblue" points="1002.38,-79.1281 1011.47,-73.6794 1000.96,-72.2726 1002.38,-79.1281"/>
</g>
<!-- Node18 -->
<g id="node18" class="node"><title>Node18</title>
<polygon fill="white" stroke="#bfbfbf" points="132,-0.5 132,-19.5 176,-19.5 176,-0.5 132,-0.5"/>
<text text-anchor="middle" x="154" y="-7.5" font-family="Helvetica,sans-Serif" font-size="10.00">vector</text>
</g>
<!-- Node2&#45;&gt;Node18 -->
<g id="edge17" class="edge"><title>Node2&#45;&gt;Node18</title>
<path fill="none" stroke="midnightblue" d="M554.237,-117.78C461.726,-112.27 292.051,-99.3069 236,-76 209.146,-64.8337 183.81,-42.213 168.596,-26.8313"/>
<polygon fill="midnightblue" stroke="midnightblue" points="171.057,-24.3403 161.608,-19.5466 166.005,-29.1861 171.057,-24.3403"/>
</g>
<!-- Node19 -->
<g id="node19" class="node"><title>Node19</title>
<polygon fill="white" stroke="#bfbfbf" points="1070.5,-56.5 1070.5,-75.5 1113.5,-75.5 1113.5,-56.5 1070.5,-56.5"/>
<text text-anchor="middle" x="1092" y="-63.5" font-family="Helvetica,sans-Serif" font-size="10.00">deque</text>
</g>
<!-- Node2&#45;&gt;Node19 -->
<g id="edge18" class="edge"><title>Node2&#45;&gt;Node19</title>
<path fill="none" stroke="midnightblue" d="M677.79,-113.575C682.597,-113.03 687.377,-112.499 692,-112 852.627,-94.6556 897.444,-106.616 1060.55,-75.7103"/>
<polygon fill="midnightblue" stroke="midnightblue" points="1061.28,-79.1342 1070.44,-73.8117 1059.96,-72.2597 1061.28,-79.1342"/>
</g>
<!-- Node20 -->
<g id="node20" class="node"><title>Node20</title>
<polygon fill="white" stroke="#bfbfbf" points="194,-0.5 194,-19.5 238,-19.5 238,-0.5 194,-0.5"/>
<text text-anchor="middle" x="216" y="-7.5" font-family="Helvetica,sans-Serif" font-size="10.00">mutex</text>
</g>
<!-- Node2&#45;&gt;Node20 -->
<g id="edge19" class="edge"><title>Node2&#45;&gt;Node20</title>
<path fill="none" stroke="midnightblue" d="M554.395,-119.358C465.6,-115.975 307.023,-105.833 259,-76 241.631,-65.2099 229.783,-44.5073 222.992,-29.3558"/>
<polygon fill="midnightblue" stroke="midnightblue" points="226.153,-27.8418 219.092,-19.9432 219.686,-30.5214 226.153,-27.8418"/>
</g>
<!-- Node21 -->
<g id="node21" class="node"><title>Node21</title>
<polygon fill="white" stroke="#bfbfbf" points="256,-0.5 256,-19.5 300,-19.5 300,-0.5 256,-0.5"/>
<text text-anchor="middle" x="278" y="-7.5" font-family="Helvetica,sans-Serif" font-size="10.00">thread</text>
</g>
<!-- Node2&#45;&gt;Node21 -->
<g id="edge20" class="edge"><title>Node2&#45;&gt;Node21</title>
<path fill="none" stroke="midnightblue" d="M554.243,-117.356C459.568,-111.131 287.495,-97.0485 269,-76 257.866,-63.3289 262.622,-43.5717 268.611,-29.1638"/>
<polygon fill="midnightblue" stroke="midnightblue" points="271.926,-30.338 272.981,-19.7959 265.582,-27.3788 271.926,-30.338"/>
</g>
<!-- Node22 -->
<g id="node22" class="node"><title>Node22</title>
<polygon fill="white" stroke="#bfbfbf" points="364.5,-0.5 364.5,-19.5 459.5,-19.5 459.5,-0.5 364.5,-0.5"/>
<text text-anchor="middle" x="412" y="-7.5" font-family="Helvetica,sans-Serif" font-size="10.00">condition_variable</text>
</g>
<!-- Node2&#45;&gt;Node22 -->
<g id="edge21" class="edge"><title>Node2&#45;&gt;Node22</title>
<path fill="none" stroke="midnightblue" d="M566.539,-112.486C537.122,-105.817 500.008,-94.4846 471,-76 451.203,-63.385 433.87,-42.4189 423.202,-27.7181"/>
<polygon fill="midnightblue" stroke="midnightblue" points="426.058,-25.6947 417.459,-19.5051 420.322,-29.706 426.058,-25.6947"/>
</g>
<!-- Node23 -->
<g id="node23" class="node"><title>Node23</title>
<polygon fill="white" stroke="#bfbfbf" points="477.5,-0.5 477.5,-19.5 520.5,-19.5 520.5,-0.5 477.5,-0.5"/>
<text text-anchor="middle" x="499" y="-7.5" font-family="Helvetica,sans-Serif" font-size="10.00">queue</text>
</g>
<!-- Node2&#45;&gt;Node23 -->
<g id="edge22" class="edge"><title>Node2&#45;&gt;Node23</title>
<path fill="none" stroke="midnightblue" d="M554.239,-116.659C526.529,-111.26 496.252,-99.8258 479,-76 468.662,-61.7227 477.184,-41.9909 486.085,-28.0225"/>
<polygon fill="midnightblue" stroke="midnightblue" points="488.971,-30.0027 491.794,-19.7909 483.219,-26.0134 488.971,-30.0027"/>
</g>
<!-- Node24 -->
<g id="node24" class="node"><title>Node24</title>
<polygon fill="white" stroke="#bfbfbf" points="1132,-56.5 1132,-75.5 1184,-75.5 1184,-56.5 1132,-56.5"/>
<text text-anchor="middle" x="1158" y="-63.5" font-family="Helvetica,sans-Serif" font-size="10.00">sstream</text>
</g>
<!-- Node2&#45;&gt;Node24 -->
<g id="edge23" class="edge"><title>Node2&#45;&gt;Node24</title>
<path fill="none" stroke="midnightblue" d="M677.782,-113.504C682.591,-112.975 687.373,-112.467 692,-112 879.547,-93.0501 931.052,-106.868 1121.69,-75.7455"/>
<polygon fill="midnightblue" stroke="midnightblue" points="1122.46,-79.1649 1131.76,-74.081 1121.32,-72.2586 1122.46,-79.1649"/>
</g>
<!-- Node25 -->
<g id="node25" class="node"><title>Node25</title>
<polygon fill="white" stroke="#bfbfbf" points="932.5,-0.5 932.5,-19.5 967.5,-19.5 967.5,-0.5 932.5,-0.5"/>
<text text-anchor="middle" x="950" y="-7.5" font-family="Helvetica,sans-Serif" font-size="10.00">map</text>
</g>
<!-- Node2&#45;&gt;Node25 -->
<g id="edge24" class="edge"><title>Node2&#45;&gt;Node25</title>
<path fill="none" stroke="midnightblue" d="M677.769,-113.367C682.581,-112.87 687.367,-112.406 692,-112 761.735,-105.881 1272.94,-126.894 1321,-76 1369.48,-24.6677 1072.17,-13.6856 977.96,-11.5058"/>
<polygon fill="midnightblue" stroke="midnightblue" points="977.831,-8.00231 967.758,-11.2863 977.681,-15.0007 977.831,-8.00231"/>
</g>
<!-- Node26 -->
<g id="node26" class="node"><title>Node26</title>
<g id="a_node26"><a xlink:href="cosmos-defs_8h.html" target="_top" xlink:title="COSMOS definitions Definitions specific to the COSMOS environement. ">
<polygon fill="white" stroke="black" points="278,-56.5 278,-75.5 394,-75.5 394,-56.5 278,-56.5"/>
<text text-anchor="middle" x="336" y="-63.5" font-family="Helvetica,sans-Serif" font-size="10.00">support/cosmos&#45;defs.h</text>
</a>
</g>
</g>
<!-- Node2&#45;&gt;Node26 -->
<g id="edge25" class="edge"><title>Node2&#45;&gt;Node26</title>
<path fill="none" stroke="midnightblue" d="M571.633,-112.444C522.378,-102.944 442.872,-87.611 390.029,-77.4198"/>
<polygon fill="midnightblue" stroke="midnightblue" points="390.641,-73.9735 380.159,-75.5164 389.316,-80.8469 390.641,-73.9735"/>
</g>
<!-- Node26&#45;&gt;Node18 -->
<g id="edge27" class="edge"><title>Node26&#45;&gt;Node18</title>
<path fill="none" stroke="midnightblue" d="M307.162,-56.4435C274.188,-46.6602 220.357,-30.6884 186.084,-20.5194"/>
<polygon fill="midnightblue" stroke="midnightblue" points="186.702,-17.0522 176.12,-17.5631 184.711,-23.763 186.702,-17.0522"/>
</g>
<!-- Node26&#45;&gt;Node20 -->
<g id="edge31" class="edge"><title>Node26&#45;&gt;Node20</title>
<path fill="none" stroke="midnightblue" d="M316.986,-56.4435C297.412,-47.6356 266.692,-33.8116 244.271,-23.722"/>
<polygon fill="midnightblue" stroke="midnightblue" points="245.481,-20.4284 234.925,-19.5164 242.608,-26.8119 245.481,-20.4284"/>
</g>
<!-- Node26&#45;&gt;Node21 -->
<g id="edge30" class="edge"><title>Node26&#45;&gt;Node21</title>
<path fill="none" stroke="midnightblue" d="M326.681,-56.324C318.107,-48.3414 305.188,-36.3128 294.812,-26.6529"/>
<polygon fill="midnightblue" stroke="midnightblue" points="297.192,-24.0865 287.488,-19.8339 292.422,-29.2098 297.192,-24.0865"/>
</g>
<!-- Node26&#45;&gt;Node22 -->
<g id="edge32" class="edge"><title>Node26&#45;&gt;Node22</title>
<path fill="none" stroke="midnightblue" d="M348.211,-56.324C359.776,-48.1066 377.375,-35.6017 391.161,-25.8069"/>
<polygon fill="midnightblue" stroke="midnightblue" points="393.443,-28.4791 399.567,-19.8339 389.388,-22.7729 393.443,-28.4791"/>
</g>
<!-- Node26&#45;&gt;Node23 -->
<g id="edge29" class="edge"><title>Node26&#45;&gt;Node23</title>
<path fill="none" stroke="midnightblue" d="M361.828,-56.4435C390.54,-46.9316 436.91,-31.5697 467.672,-21.3787"/>
<polygon fill="midnightblue" stroke="midnightblue" points="469.065,-24.6041 477.457,-18.1368 466.864,-17.9593 469.065,-24.6041"/>
</g>
<!-- Node26&#45;&gt;Node25 -->
<g id="edge26" class="edge"><title>Node26&#45;&gt;Node25</title>
<path fill="none" stroke="midnightblue" d="M394.04,-59.8955C522.864,-48.5657 828.683,-21.6695 922.292,-13.4369"/>
<polygon fill="midnightblue" stroke="midnightblue" points="922.734,-16.9116 932.389,-12.5489 922.121,-9.93851 922.734,-16.9116"/>
</g>
<!-- Node27 -->
<g id="node27" class="node"><title>Node27</title>
<polygon fill="white" stroke="#bfbfbf" points="317.5,-0.5 317.5,-19.5 346.5,-19.5 346.5,-0.5 317.5,-0.5"/>
<text text-anchor="middle" x="332" y="-7.5" font-family="Helvetica,sans-Serif" font-size="10.00">list</text>
</g>
<!-- Node26&#45;&gt;Node27 -->
<g id="edge28" class="edge"><title>Node26&#45;&gt;Node27</title>
<path fill="none" stroke="midnightblue" d="M335.339,-56.083C334.815,-49.0059 334.064,-38.8611 333.406,-29.9865"/>
<polygon fill="midnightblue" stroke="midnightblue" points="336.877,-29.4652 332.648,-19.7511 329.897,-29.9823 336.877,-29.4652"/>
</g>
<!-- Node28&#45;&gt;Node2 -->
<g id="edge34" class="edge"><title>Node28&#45;&gt;Node2</title>
<path fill="none" stroke="midnightblue" d="M648.059,-459.487C655.364,-437.965 668,-395.34 668,-358 668,-358 668,-358 668,-233 668,-197.119 645.106,-160.424 629.7,-139.793"/>
<polygon fill="midnightblue" stroke="midnightblue" points="632.348,-137.497 623.45,-131.744 626.818,-141.789 632.348,-137.497"/>
</g>
<!-- Node29 -->
<g id="node29" class="node"><title>Node29</title>
<g id="a_node29"><a xlink:href="mathlib_8h.html" target="_top" xlink:title="mathlib include file ">
<polygon fill="white" stroke="black" points="494.5,-403.5 494.5,-422.5 575.5,-422.5 575.5,-403.5 494.5,-403.5"/>
<text text-anchor="middle" x="535" y="-410.5" font-family="Helvetica,sans-Serif" font-size="10.00">math/mathlib.h</text>
</a>
</g>
</g>
<!-- Node28&#45;&gt;Node29 -->
<g id="edge35" class="edge"><title>Node28&#45;&gt;Node29</title>
<path fill="none" stroke="midnightblue" d="M617.406,-459.399C599.932,-449.773 576.912,-437.09 559.644,-427.577"/>
<polygon fill="midnightblue" stroke="midnightblue" points="561.163,-424.418 550.715,-422.658 557.785,-430.549 561.163,-424.418"/>
</g>
<!-- Node30 -->
<g id="node30" class="node"><title>Node30</title>
<g id="a_node30"><a xlink:href="cosmos-errno_8h.html" target="_top" xlink:title="COSMOS Error Codes. ">
<polygon fill="white" stroke="black" points="848.5,-168.5 848.5,-187.5 967.5,-187.5 967.5,-168.5 848.5,-168.5"/>
<text text-anchor="middle" x="908" y="-175.5" font-family="Helvetica,sans-Serif" font-size="10.00">support/cosmos&#45;errno.h</text>
</a>
</g>
</g>
<!-- Node28&#45;&gt;Node30 -->
<g id="edge59" class="edge"><title>Node28&#45;&gt;Node30</title>
<path fill="none" stroke="midnightblue" d="M700.333,-465.301C794.115,-450.261 970,-414.52 970,-358 970,-358 970,-358 970,-294.5 970,-261.401 962.294,-252.811 946,-224 940.035,-213.453 931.45,-203.028 923.949,-194.872"/>
<polygon fill="midnightblue" stroke="midnightblue" points="926.388,-192.358 916.946,-187.552 921.33,-197.197 926.388,-192.358"/>
</g>
<!-- Node37 -->
<g id="node37" class="node"><title>Node37</title>
<g id="a_node37"><a xlink:href="cssl__lib_8h.html" target="_top" xlink:title="Simple Serial library header file. ">
<polygon fill="white" stroke="black" points="840.5,-280.5 840.5,-310.5 941.5,-310.5 941.5,-280.5 840.5,-280.5"/>
<text text-anchor="start" x="848.5" y="-298.5" font-family="Helvetica,sans-Serif" font-size="10.00">device/general/cssl</text>
<text text-anchor="middle" x="891" y="-287.5" font-family="Helvetica,sans-Serif" font-size="10.00">_lib.h</text>
</a>
</g>
</g>
<!-- Node28&#45;&gt;Node37 -->
<g id="edge60" class="edge"><title>Node28&#45;&gt;Node37</title>
<path fill="none" stroke="midnightblue" d="M673.254,-459.411C711.037,-441.053 776.699,-406.584 826,-367 843.797,-352.711 861.173,-333.508 873.476,-318.752"/>
<polygon fill="midnightblue" stroke="midnightblue" points="876.48,-320.606 880.098,-310.648 871.06,-316.177 876.48,-320.606"/>
</g>
<!-- Node39 -->
<g id="node39" class="node"><title>Node39</title>
<polygon fill="white" stroke="#bfbfbf" points="594,-403.5 594,-422.5 640,-422.5 640,-403.5 594,-403.5"/>
<text text-anchor="middle" x="617" y="-410.5" font-family="Helvetica,sans-Serif" font-size="10.00">stdio.h</text>
</g>
<!-- Node28&#45;&gt;Node39 -->
<g id="edge66" class="edge"><title>Node28&#45;&gt;Node39</title>
<path fill="none" stroke="midnightblue" d="M636.838,-459.399C633.255,-451.199 628.703,-440.781 624.863,-431.994"/>
<polygon fill="midnightblue" stroke="midnightblue" points="627.995,-430.42 620.783,-422.658 621.58,-433.223 627.995,-430.42"/>
</g>
<!-- Node29&#45;&gt;Node2 -->
<g id="edge36" class="edge"><title>Node29&#45;&gt;Node2</title>
<path fill="none" stroke="midnightblue" d="M549.844,-403.3C576.562,-386.394 630,-346.35 630,-296.5 630,-296.5 630,-296.5 630,-233 630,-200.541 623.927,-163.121 619.781,-141.356"/>
<polygon fill="midnightblue" stroke="midnightblue" points="623.207,-140.64 617.83,-131.511 616.34,-142 623.207,-140.64"/>
</g>
<!-- Node29&#45;&gt;Node12 -->
<g id="edge57" class="edge"><title>Node29&#45;&gt;Node12</title>
<path fill="none" stroke="midnightblue" d="M494.188,-408.266C396.446,-398.2 157,-366.407 157,-296.5 157,-296.5 157,-296.5 157,-177 157,-124.045 93.8017,-92.0594 53.8862,-77.1384"/>
<polygon fill="midnightblue" stroke="midnightblue" points="54.8871,-73.7793 44.2925,-73.7102 52.5316,-80.3711 54.8871,-73.7793"/>
</g>
<!-- Node29&#45;&gt;Node14 -->
<g id="edge58" class="edge"><title>Node29&#45;&gt;Node14</title>
<path fill="none" stroke="midnightblue" d="M561.895,-403.364C618.343,-384.426 744,-337.646 744,-296.5 744,-296.5 744,-296.5 744,-177 744,-112.005 812.344,-129.28 875,-112 1073.97,-57.1273 1132.98,-99.8417 1338,-76 1344.8,-75.2092 1352.03,-74.2135 1358.99,-73.175"/>
<polygon fill="midnightblue" stroke="midnightblue" points="1359.56,-76.6275 1368.91,-71.6417 1358.49,-69.7095 1359.56,-76.6275"/>
</g>
<!-- Node29&#45;&gt;Node30 -->
<g id="edge37" class="edge"><title>Node29&#45;&gt;Node30</title>
<path fill="none" stroke="midnightblue" d="M575.731,-404.663C638.02,-393.317 750.57,-372.269 758,-367 818.311,-324.233 792.561,-278.059 843,-224 854.528,-211.645 870.002,-200.765 882.959,-192.8"/>
<polygon fill="midnightblue" stroke="midnightblue" points="885.033,-195.64 891.858,-187.535 881.469,-189.615 885.033,-195.64"/>
</g>
<!-- Node32 -->
<g id="node32" class="node"><title>Node32</title>
<g id="a_node32"><a xlink:href="math_2constants_8h.html" target="_top" xlink:title="constants.h">
<polygon fill="white" stroke="black" points="282,-168.5 282,-187.5 350,-187.5 350,-168.5 282,-168.5"/>
<text text-anchor="middle" x="316" y="-175.5" font-family="Helvetica,sans-Serif" font-size="10.00">constants.h</text>
</a>
</g>
</g>
<!-- Node29&#45;&gt;Node32 -->
<g id="edge40" class="edge"><title>Node29&#45;&gt;Node32</title>
<path fill="none" stroke="midnightblue" d="M519.948,-403.465C505.955,-395.145 484.932,-381.637 469,-367 408.382,-311.31 351.072,-230.962 327.406,-196.153"/>
<polygon fill="midnightblue" stroke="midnightblue" points="330.136,-193.941 321.648,-187.601 324.33,-197.851 330.136,-193.941"/>
</g>
<!-- Node33 -->
<g id="node33" class="node"><title>Node33</title>
<g id="a_node33"><a xlink:href="vector_8h.html" target="_top" xlink:title="vector.h">
<polygon fill="white" stroke="black" points="420,-224.5 420,-243.5 472,-243.5 472,-224.5 420,-224.5"/>
<text text-anchor="middle" x="446" y="-231.5" font-family="Helvetica,sans-Serif" font-size="10.00">vector.h</text>
</a>
</g>
</g>
<!-- Node29&#45;&gt;Node33 -->
<g id="edge43" class="edge"><title>Node29&#45;&gt;Node33</title>
<path fill="none" stroke="midnightblue" d="M521.04,-403.341C509.231,-395.314 492.722,-382.323 483,-367 460.129,-330.952 451.143,-280.614 447.813,-253.71"/>
<polygon fill="midnightblue" stroke="midnightblue" points="451.287,-253.278 446.708,-243.724 444.329,-254.048 451.287,-253.278"/>
</g>
<!-- Node35 -->
<g id="node35" class="node"><title>Node35</title>
<g id="a_node35"><a xlink:href="matrix_8h.html" target="_top" xlink:title="matrix.h">
<polygon fill="white" stroke="black" points="550,-286 550,-305 602,-305 602,-286 550,-286"/>
<text text-anchor="middle" x="576" y="-293" font-family="Helvetica,sans-Serif" font-size="10.00">matrix.h</text>
</a>
</g>
</g>
<!-- Node29&#45;&gt;Node35 -->
<g id="edge50" class="edge"><title>Node29&#45;&gt;Node35</title>
<path fill="none" stroke="midnightblue" d="M540.184,-403.302C545.294,-394.427 553.038,-380.132 558,-367 564.412,-350.03 569.294,-329.913 572.346,-315.521"/>
<polygon fill="midnightblue" stroke="midnightblue" points="575.846,-315.871 574.394,-305.376 568.984,-314.485 575.846,-315.871"/>
</g>
<!-- Node36 -->
<g id="node36" class="node"><title>Node36</title>
<g id="a_node36"><a xlink:href="rotation_8h.html" target="_top" xlink:title="rotation.h">
<polygon fill="white" stroke="black" points="492.5,-347.5 492.5,-366.5 549.5,-366.5 549.5,-347.5 492.5,-347.5"/>
<text text-anchor="middle" x="521" y="-354.5" font-family="Helvetica,sans-Serif" font-size="10.00">rotation.h</text>
</a>
</g>
</g>
<!-- Node29&#45;&gt;Node36 -->
<g id="edge53" class="edge"><title>Node29&#45;&gt;Node36</title>
<path fill="none" stroke="midnightblue" d="M532.688,-403.083C530.833,-395.927 528.165,-385.635 525.846,-376.691"/>
<polygon fill="midnightblue" stroke="midnightblue" points="529.166,-375.553 523.269,-366.751 522.391,-377.309 529.166,-375.553"/>
</g>
<!-- Node30&#45;&gt;Node2 -->
<g id="edge38" class="edge"><title>Node30&#45;&gt;Node2</title>
<path fill="none" stroke="midnightblue" d="M861.732,-168.444C810.259,-158.925 727.107,-143.547 672.001,-133.356"/>
<polygon fill="midnightblue" stroke="midnightblue" points="672.522,-129.893 662.052,-131.516 671.249,-136.777 672.522,-129.893"/>
</g>
<!-- Node31 -->
<g id="node31" class="node"><title>Node31</title>
<polygon fill="white" stroke="#bfbfbf" points="884.5,-112.5 884.5,-131.5 931.5,-131.5 931.5,-112.5 884.5,-112.5"/>
<text text-anchor="middle" x="908" y="-119.5" font-family="Helvetica,sans-Serif" font-size="10.00">errno.h</text>
</g>
<!-- Node30&#45;&gt;Node31 -->
<g id="edge39" class="edge"><title>Node30&#45;&gt;Node31</title>
<path fill="none" stroke="midnightblue" d="M908,-168.083C908,-161.006 908,-150.861 908,-141.986"/>
<polygon fill="midnightblue" stroke="midnightblue" points="911.5,-141.751 908,-131.751 904.5,-141.751 911.5,-141.751"/>
</g>
<!-- Node32&#45;&gt;Node2 -->
<g id="edge41" class="edge"><title>Node32&#45;&gt;Node2</title>
<path fill="none" stroke="midnightblue" d="M350.247,-169.726C353.205,-169.13 356.154,-168.547 359,-168 425.516,-155.219 502.011,-142.016 554.133,-133.244"/>
<polygon fill="midnightblue" stroke="midnightblue" points="554.939,-136.658 564.222,-131.551 553.78,-129.755 554.939,-136.658"/>
</g>
<!-- Node32&#45;&gt;Node5 -->
<g id="edge42" class="edge"><title>Node32&#45;&gt;Node5</title>
<path fill="none" stroke="midnightblue" d="M311.967,-168.468C304.97,-154.579 289.269,-127.114 268,-112 258.71,-105.399 195.796,-87.179 155.95,-76.0517"/>
<polygon fill="midnightblue" stroke="midnightblue" points="156.692,-72.6252 146.12,-73.3195 154.817,-79.3696 156.692,-72.6252"/>
</g>
<!-- Node33&#45;&gt;Node2 -->
<g id="edge44" class="edge"><title>Node33&#45;&gt;Node2</title>
<path fill="none" stroke="midnightblue" d="M452.341,-224.323C462.666,-210.718 484.348,-184.247 508,-168 528.958,-153.603 555.242,-142.527 576.633,-134.965"/>
<polygon fill="midnightblue" stroke="midnightblue" points="578.052,-138.179 586.387,-131.638 575.793,-131.554 578.052,-138.179"/>
</g>
<!-- Node33&#45;&gt;Node12 -->
<g id="edge48" class="edge"><title>Node33&#45;&gt;Node12</title>
<path fill="none" stroke="midnightblue" d="M419.707,-229.393C384.828,-223.897 321.964,-211.496 273,-188 222.031,-163.541 221.484,-137.443 171,-112 150.432,-101.634 91.185,-85.1191 53.893,-75.2411"/>
<polygon fill="midnightblue" stroke="midnightblue" points="54.5687,-71.7999 44.0074,-72.6416 52.7885,-78.5697 54.5687,-71.7999"/>
</g>
<!-- Node33&#45;&gt;Node14 -->
<g id="edge46" class="edge"><title>Node33&#45;&gt;Node14</title>
<path fill="none" stroke="midnightblue" d="M466.952,-224.416C508.759,-207.237 605.449,-167.248 686,-132 705.679,-123.389 709.15,-117.166 730,-112 992.75,-46.8968 1068.84,-104.786 1338,-76 1344.81,-75.2719 1352.04,-74.3061 1359,-73.2775"/>
<polygon fill="midnightblue" stroke="midnightblue" points="1359.57,-76.73 1368.92,-71.7458 1358.51,-69.8119 1359.57,-76.73"/>
</g>
<!-- Node33&#45;&gt;Node18 -->
<g id="edge49" class="edge"><title>Node33&#45;&gt;Node18</title>
<path fill="none" stroke="midnightblue" d="M445.998,-224.066C445.493,-210.109 442.427,-183.165 427,-168 399.396,-140.865 114.48,-106.773 91,-76 76.1883,-56.5875 102.563,-36.7953 125.586,-24.2352"/>
<polygon fill="midnightblue" stroke="midnightblue" points="127.202,-27.3398 134.473,-19.6335 123.983,-21.1237 127.202,-27.3398"/>
</g>
<!-- Node33&#45;&gt;Node32 -->
<g id="edge45" class="edge"><title>Node33&#45;&gt;Node32</title>
<path fill="none" stroke="midnightblue" d="M425.401,-224.444C404.007,-215.557 370.319,-201.563 345.976,-191.451"/>
<polygon fill="midnightblue" stroke="midnightblue" points="347.08,-188.12 336.503,-187.516 344.395,-194.585 347.08,-188.12"/>
</g>
<!-- Node34 -->
<g id="node34" class="node"><title>Node34</title>
<polygon fill="white" stroke="#bfbfbf" points="368,-168.5 368,-187.5 418,-187.5 418,-168.5 368,-168.5"/>
<text text-anchor="middle" x="393" y="-175.5" font-family="Helvetica,sans-Serif" font-size="10.00">iomanip</text>
</g>
<!-- Node33&#45;&gt;Node34 -->
<g id="edge47" class="edge"><title>Node33&#45;&gt;Node34</title>
<path fill="none" stroke="midnightblue" d="M437.248,-224.083C429.53,-216.22 418.095,-204.569 408.783,-195.081"/>
<polygon fill="midnightblue" stroke="midnightblue" points="411.092,-192.436 401.589,-187.751 406.096,-197.34 411.092,-192.436"/>
</g>
<!-- Node35&#45;&gt;Node2 -->
<g id="edge51" class="edge"><title>Node35&#45;&gt;Node2</title>
<path fill="none" stroke="midnightblue" d="M578.039,-285.76C584.271,-259.036 603.168,-178.017 611.717,-141.362"/>
<polygon fill="midnightblue" stroke="midnightblue" points="615.15,-142.053 614.013,-131.519 608.333,-140.463 615.15,-142.053"/>
</g>
<!-- Node35&#45;&gt;Node33 -->
<g id="edge52" class="edge"><title>Node35&#45;&gt;Node33</title>
<path fill="none" stroke="midnightblue" d="M557.374,-285.975C535.557,-275.99 499.196,-259.348 473.983,-247.807"/>
<polygon fill="midnightblue" stroke="midnightblue" points="475.141,-244.488 464.591,-243.509 472.228,-250.853 475.141,-244.488"/>
</g>
<!-- Node36&#45;&gt;Node2 -->
<g id="edge54" class="edge"><title>Node36&#45;&gt;Node2</title>
<path fill="none" stroke="midnightblue" d="M522.708,-347.405C525.664,-333.15 532.263,-303.826 541,-280 560.174,-227.715 590.628,-169.313 606.171,-140.72"/>
<polygon fill="midnightblue" stroke="midnightblue" points="609.433,-142.052 611.175,-131.601 603.296,-138.685 609.433,-142.052"/>
</g>
<!-- Node36&#45;&gt;Node33 -->
<g id="edge55" class="edge"><title>Node36&#45;&gt;Node33</title>
<path fill="none" stroke="midnightblue" d="M515.606,-347.298C503.282,-327.414 472.871,-278.352 456.628,-252.147"/>
<polygon fill="midnightblue" stroke="midnightblue" points="459.588,-250.279 451.345,-243.623 453.638,-253.967 459.588,-250.279"/>
</g>
<!-- Node36&#45;&gt;Node35 -->
<g id="edge56" class="edge"><title>Node36&#45;&gt;Node35</title>
<path fill="none" stroke="midnightblue" d="M528.88,-347.475C537.294,-338.373 550.819,-323.741 561.226,-312.483"/>
<polygon fill="midnightblue" stroke="midnightblue" points="563.917,-314.728 568.134,-305.009 558.776,-309.977 563.917,-314.728"/>
</g>
<!-- Node37&#45;&gt;Node2 -->
<g id="edge61" class="edge"><title>Node37&#45;&gt;Node2</title>
<path fill="none" stroke="midnightblue" d="M868.496,-280.465C816.81,-248.232 690.102,-169.213 638.46,-137.007"/>
<polygon fill="midnightblue" stroke="midnightblue" points="640.063,-133.882 629.725,-131.56 636.359,-139.821 640.063,-133.882"/>
</g>
<!-- Node38 -->
<g id="node38" class="node"><title>Node38</title>
<g id="a_node38"><a xlink:href="sliplib_8h.html" target="_top" xlink:title="COSMOS SLIP support include file. ">
<polygon fill="white" stroke="black" points="852.5,-224.5 852.5,-243.5 937.5,-243.5 937.5,-224.5 852.5,-224.5"/>
<text text-anchor="middle" x="895" y="-231.5" font-family="Helvetica,sans-Serif" font-size="10.00">support/sliplib.h</text>
</a>
</g>
</g>
<!-- Node37&#45;&gt;Node38 -->
<g id="edge62" class="edge"><title>Node37&#45;&gt;Node38</title>
<path fill="none" stroke="midnightblue" d="M891.948,-280.399C892.481,-272.466 893.154,-262.458 893.732,-253.858"/>
<polygon fill="midnightblue" stroke="midnightblue" points="897.239,-253.87 894.418,-243.658 890.255,-253.4 897.239,-253.87"/>
</g>
<!-- Node38&#45;&gt;Node2 -->
<g id="edge63" class="edge"><title>Node38&#45;&gt;Node2</title>
<path fill="none" stroke="midnightblue" d="M884.418,-224.297C867.026,-210.413 830.84,-183.266 796,-168 759.077,-151.821 715.238,-140.707 680.068,-133.571"/>
<polygon fill="midnightblue" stroke="midnightblue" points="680.41,-130.071 669.922,-131.573 679.057,-136.939 680.41,-130.071"/>
</g>
<!-- Node38&#45;&gt;Node11 -->
<g id="edge65" class="edge"><title>Node38&#45;&gt;Node11</title>
<path fill="none" stroke="midnightblue" d="M924.394,-224.425C1021.2,-196.183 1329.63,-106.2 1431.21,-76.5656"/>
<polygon fill="midnightblue" stroke="midnightblue" points="1432.31,-79.8915 1440.93,-73.7308 1430.35,-73.1716 1432.31,-79.8915"/>
</g>
<!-- Node38&#45;&gt;Node30 -->
<g id="edge64" class="edge"><title>Node38&#45;&gt;Node30</title>
<path fill="none" stroke="midnightblue" d="M897.147,-224.083C898.869,-216.927 901.347,-206.635 903.5,-197.691"/>
<polygon fill="midnightblue" stroke="midnightblue" points="906.955,-198.293 905.893,-187.751 900.15,-196.654 906.955,-198.293"/>
</g>
</g>
</svg>
