<?xml version="1.0" encoding="UTF-8" standalone="no"?>
<!DOCTYPE svg PUBLIC "-//W3C//DTD SVG 1.1//EN"
 "http://www.w3.org/Graphics/SVG/1.1/DTD/svg11.dtd">
<!-- Generated by graphviz version 2.38.0 (20140413.2041)
 -->
<!-- Title: i2c.h Pages: 1 -->
<!--zoomable 207 -->
<svg id="main" version="1.1" xmlns="http://www.w3.org/2000/svg" xmlns:xlink="http://www.w3.org/1999/xlink" xml:space="preserve" onload="init(evt)">
<style type="text/css"><![CDATA[
.edge:hover path { stroke: red; }
.edge:hover polygon { stroke: red; fill: red; }
]]></style>
<script type="text/javascript"><![CDATA[
var edges = document.getElementsByTagName('g');
if (edges && edges.length) {
  for (var i=0;i<edges.length;i++) {
    if (edges[i].id.substr(0,4)=='edge') {
      edges[i].setAttribute('class','edge');
    }
  }
}
]]></script>
        <defs>
                <circle id="rim" cx="0" cy="0" r="7"/>
                <circle id="rim2" cx="0" cy="0" r="3.5"/>
                <g id="zoomPlus">
                        <use xlink:href="#rim" fill="#404040">
                                <set attributeName="fill" to="#808080" begin="zoomplus.mouseover" end="zoomplus.mouseout"/>
                        </use>
                        <path d="M-4,0h8M0,-4v8" fill="none" stroke="white" stroke-width="1.5" pointer-events="none"/>
                </g>
                <g id="zoomMin">
                        <use xlink:href="#rim" fill="#404040">
                                <set attributeName="fill" to="#808080" begin="zoomminus.mouseover" end="zoomminus.mouseout"/>
                        </use>
                        <path d="M-4,0h8" fill="none" stroke="white" stroke-width="1.5" pointer-events="none"/>
                </g>
                <g id="dirArrow">
                        <path fill="none" stroke="white" stroke-width="1.5" d="M0,-3.0v7 M-2.5,-0.5L0,-3.0L2.5,-0.5"/>
                </g>
               <g id="resetDef">
                       <use xlink:href="#rim2" fill="#404040">
                               <set attributeName="fill" to="#808080" begin="reset.mouseover" end="reset.mouseout"/>
                       </use>
               </g>
        </defs>

<script type="text/javascript">
var viewWidth = 1459;
var viewHeight = 207;
var sectionId = 'dynsection-0';
</script>
<script xlink:href="svgpan.js"/>
<svg id="graph" class="graph">
<g id="viewport">
<title>i2c.h</title>
<polygon fill="white" stroke="none" points="-4,4 -4,-203 1454.5,-203 1454.5,4 -4,4"/>
<!-- Node1 -->
<g id="node1" class="node"><title>Node1</title>
<polygon fill="#bfbfbf" stroke="black" points="816.5,-179.5 816.5,-198.5 854.5,-198.5 854.5,-179.5 816.5,-179.5"/>
<text text-anchor="middle" x="835.5" y="-186.5" font-family="Helvetica,sans-Serif" font-size="10.00">i2c.h</text>
</g>
<!-- Node2 -->
<g id="node2" class="node"><title>Node2</title>
<g id="a_node2"><a xlink:href="config_cosmos_8h.html" target="_top" xlink:title="Headers and definitions common to all COSMOS. ">
<polygon fill="white" stroke="black" points="711,-118 711,-137 834,-137 834,-118 711,-118"/>
<text text-anchor="middle" x="772.5" y="-125" font-family="Helvetica,sans-Serif" font-size="10.00">support/configCosmos.h</text>
</a>
</g>
</g>
<!-- Node1&#45;&gt;Node2 -->
<g id="edge1" class="edge"><title>Node1&#45;&gt;Node2</title>
<path fill="none" stroke="midnightblue" d="M826.474,-179.475C816.743,-170.285 801.042,-155.456 789.077,-144.156"/>
<polygon fill="midnightblue" stroke="midnightblue" points="791.183,-141.331 781.51,-137.009 786.377,-146.42 791.183,-141.331"/>
</g>
<!-- Node28 -->
<g id="node28" class="node"><title>Node28</title>
<g id="a_node28"><a xlink:href="i2c-dev-smbus_8h.html" target="_top" xlink:title="device/i2c/i2c&#45;dev\l&#45;smbus.h">
<polygon fill="white" stroke="black" points="852,-112.5 852,-142.5 947,-142.5 947,-112.5 852,-112.5"/>
<text text-anchor="start" x="860" y="-130.5" font-family="Helvetica,sans-Serif" font-size="10.00">device/i2c/i2c&#45;dev</text>
<text text-anchor="middle" x="899.5" y="-119.5" font-family="Helvetica,sans-Serif" font-size="10.00">&#45;smbus.h</text>
</a>
</g>
</g>
<!-- Node1&#45;&gt;Node28 -->
<g id="edge33" class="edge"><title>Node1&#45;&gt;Node28</title>
<path fill="none" stroke="midnightblue" d="M844.67,-179.475C853.095,-171.643 865.925,-159.714 877.056,-149.366"/>
<polygon fill="midnightblue" stroke="midnightblue" points="879.476,-151.895 884.416,-142.523 874.709,-146.769 879.476,-151.895"/>
</g>
<!-- Node3 -->
<g id="node3" class="node"><title>Node3</title>
<polygon fill="white" stroke="#bfbfbf" points="0,-56.5 0,-75.5 45,-75.5 45,-56.5 0,-56.5"/>
<text text-anchor="middle" x="22.5" y="-63.5" font-family="Helvetica,sans-Serif" font-size="10.00">climits</text>
</g>
<!-- Node2&#45;&gt;Node3 -->
<g id="edge2" class="edge"><title>Node2&#45;&gt;Node3</title>
<path fill="none" stroke="midnightblue" d="M710.885,-126.559C587.553,-125.729 301.702,-119.04 54.9247,-75.898"/>
<polygon fill="midnightblue" stroke="midnightblue" points="55.5127,-72.4477 45.0554,-74.1493 54.2914,-79.3404 55.5127,-72.4477"/>
</g>
<!-- Node4 -->
<g id="node4" class="node"><title>Node4</title>
<polygon fill="white" stroke="#bfbfbf" points="63,-56.5 63,-75.5 110,-75.5 110,-56.5 63,-56.5"/>
<text text-anchor="middle" x="86.5" y="-63.5" font-family="Helvetica,sans-Serif" font-size="10.00">csignal</text>
</g>
<!-- Node2&#45;&gt;Node4 -->
<g id="edge3" class="edge"><title>Node2&#45;&gt;Node4</title>
<path fill="none" stroke="midnightblue" d="M710.801,-125.604C596.071,-123.096 342.185,-113.589 120.057,-75.7386"/>
<polygon fill="midnightblue" stroke="midnightblue" points="120.622,-72.2844 110.172,-74.0316 119.431,-79.1823 120.622,-72.2844"/>
</g>
<!-- Node5 -->
<g id="node5" class="node"><title>Node5</title>
<polygon fill="white" stroke="#bfbfbf" points="128.5,-56.5 128.5,-75.5 174.5,-75.5 174.5,-56.5 128.5,-56.5"/>
<text text-anchor="middle" x="151.5" y="-63.5" font-family="Helvetica,sans-Serif" font-size="10.00">cstdint</text>
</g>
<!-- Node2&#45;&gt;Node5 -->
<g id="edge4" class="edge"><title>Node2&#45;&gt;Node5</title>
<path fill="none" stroke="midnightblue" d="M710.946,-125.037C605.007,-121.686 381.424,-110.97 184.737,-75.8986"/>
<polygon fill="midnightblue" stroke="midnightblue" points="185.263,-72.437 174.8,-74.1015 184.017,-79.3252 185.263,-72.437"/>
</g>
<!-- Node6 -->
<g id="node6" class="node"><title>Node6</title>
<polygon fill="white" stroke="#bfbfbf" points="192.5,-56.5 192.5,-75.5 248.5,-75.5 248.5,-56.5 192.5,-56.5"/>
<text text-anchor="middle" x="220.5" y="-63.5" font-family="Helvetica,sans-Serif" font-size="10.00">cinttypes</text>
</g>
<!-- Node2&#45;&gt;Node6 -->
<g id="edge5" class="edge"><title>Node2&#45;&gt;Node6</title>
<path fill="none" stroke="midnightblue" d="M710.83,-123.131C613.989,-117.238 420.574,-103.029 258.5,-76 258.4,-75.9833 258.299,-75.9664 258.199,-75.9495"/>
<polygon fill="midnightblue" stroke="midnightblue" points="259.117,-72.5621 248.636,-74.1093 257.794,-79.436 259.117,-72.5621"/>
</g>
<!-- Node7 -->
<g id="node7" class="node"><title>Node7</title>
<polygon fill="white" stroke="#bfbfbf" points="267,-56.5 267,-75.5 310,-75.5 310,-56.5 267,-56.5"/>
<text text-anchor="middle" x="288.5" y="-63.5" font-family="Helvetica,sans-Serif" font-size="10.00">cstdio</text>
</g>
<!-- Node2&#45;&gt;Node7 -->
<g id="edge6" class="edge"><title>Node2&#45;&gt;Node7</title>
<path fill="none" stroke="midnightblue" d="M710.806,-122.987C625.118,-117.365 465.219,-104.188 320.046,-75.7569"/>
<polygon fill="midnightblue" stroke="midnightblue" points="320.554,-72.2895 310.063,-73.7729 319.189,-79.1552 320.554,-72.2895"/>
</g>
<!-- Node8 -->
<g id="node8" class="node"><title>Node8</title>
<polygon fill="white" stroke="#bfbfbf" points="328,-56.5 328,-75.5 377,-75.5 377,-56.5 328,-56.5"/>
<text text-anchor="middle" x="352.5" y="-63.5" font-family="Helvetica,sans-Serif" font-size="10.00">cstddef</text>
</g>
<!-- Node2&#45;&gt;Node8 -->
<g id="edge7" class="edge"><title>Node2&#45;&gt;Node8</title>
<path fill="none" stroke="midnightblue" d="M710.934,-120.913C636.511,-113.609 507.363,-99.1787 387.392,-75.9392"/>
<polygon fill="midnightblue" stroke="midnightblue" points="387.783,-72.4494 377.297,-73.9583 386.436,-79.3184 387.783,-72.4494"/>
</g>
<!-- Node9 -->
<g id="node9" class="node"><title>Node9</title>
<polygon fill="white" stroke="#bfbfbf" points="395,-56.5 395,-75.5 440,-75.5 440,-56.5 395,-56.5"/>
<text text-anchor="middle" x="417.5" y="-63.5" font-family="Helvetica,sans-Serif" font-size="10.00">cstdlib</text>
</g>
<!-- Node2&#45;&gt;Node9 -->
<g id="edge8" class="edge"><title>Node2&#45;&gt;Node9</title>
<path fill="none" stroke="midnightblue" d="M710.776,-119.073C647.64,-110.975 546.6,-96.6361 450.07,-75.8882"/>
<polygon fill="midnightblue" stroke="midnightblue" points="450.657,-72.4342 440.142,-73.7278 449.169,-79.2741 450.657,-72.4342"/>
</g>
<!-- Node10 -->
<g id="node10" class="node"><title>Node10</title>
<polygon fill="white" stroke="#bfbfbf" points="458.5,-56.5 458.5,-75.5 502.5,-75.5 502.5,-56.5 458.5,-56.5"/>
<text text-anchor="middle" x="480.5" y="-63.5" font-family="Helvetica,sans-Serif" font-size="10.00">cerrno</text>
</g>
<!-- Node2&#45;&gt;Node10 -->
<g id="edge9" class="edge"><title>Node2&#45;&gt;Node10</title>
<path fill="none" stroke="midnightblue" d="M720.697,-117.916C669.985,-109.191 590.371,-94.6361 512.734,-76.1303"/>
<polygon fill="midnightblue" stroke="midnightblue" points="513.327,-72.6732 502.786,-73.7343 511.688,-79.4786 513.327,-72.6732"/>
</g>
<!-- Node11 -->
<g id="node11" class="node"><title>Node11</title>
<polygon fill="white" stroke="#bfbfbf" points="520.5,-56.5 520.5,-75.5 566.5,-75.5 566.5,-56.5 520.5,-56.5"/>
<text text-anchor="middle" x="543.5" y="-63.5" font-family="Helvetica,sans-Serif" font-size="10.00">cstring</text>
</g>
<!-- Node2&#45;&gt;Node11 -->
<g id="edge10" class="edge"><title>Node2&#45;&gt;Node11</title>
<path fill="none" stroke="midnightblue" d="M738.272,-117.982C700.925,-108.632 639.125,-92.9948 576.593,-76.2493"/>
<polygon fill="midnightblue" stroke="midnightblue" points="577.12,-72.7669 566.554,-73.553 575.304,-79.5273 577.12,-72.7669"/>
</g>
<!-- Node12 -->
<g id="node12" class="node"><title>Node12</title>
<polygon fill="white" stroke="#bfbfbf" points="584.5,-56.5 584.5,-75.5 628.5,-75.5 628.5,-56.5 584.5,-56.5"/>
<text text-anchor="middle" x="606.5" y="-63.5" font-family="Helvetica,sans-Serif" font-size="10.00">cmath</text>
</g>
<!-- Node2&#45;&gt;Node12 -->
<g id="edge11" class="edge"><title>Node2&#45;&gt;Node12</title>
<path fill="none" stroke="midnightblue" d="M748.716,-117.975C719.631,-107.55 670.302,-89.8686 638.063,-78.3133"/>
<polygon fill="midnightblue" stroke="midnightblue" points="639.243,-75.0181 628.648,-74.9386 636.881,-81.6076 639.243,-75.0181"/>
</g>
<!-- Node13 -->
<g id="node13" class="node"><title>Node13</title>
<polygon fill="white" stroke="#bfbfbf" points="647,-56.5 647,-75.5 692,-75.5 692,-56.5 647,-56.5"/>
<text text-anchor="middle" x="669.5" y="-63.5" font-family="Helvetica,sans-Serif" font-size="10.00">iosfwd</text>
</g>
<!-- Node2&#45;&gt;Node13 -->
<g id="edge12" class="edge"><title>Node2&#45;&gt;Node13</title>
<path fill="none" stroke="midnightblue" d="M757.743,-117.975C740.839,-108.211 712.917,-92.0807 693.01,-80.5808"/>
<polygon fill="midnightblue" stroke="midnightblue" points="694.64,-77.4805 684.23,-75.5091 691.138,-83.5419 694.64,-77.4805"/>
</g>
<!-- Node14 -->
<g id="node14" class="node"><title>Node14</title>
<polygon fill="white" stroke="#bfbfbf" points="710.5,-56.5 710.5,-75.5 764.5,-75.5 764.5,-56.5 710.5,-56.5"/>
<text text-anchor="middle" x="737.5" y="-63.5" font-family="Helvetica,sans-Serif" font-size="10.00">iostream</text>
</g>
<!-- Node2&#45;&gt;Node14 -->
<g id="edge13" class="edge"><title>Node2&#45;&gt;Node14</title>
<path fill="none" stroke="midnightblue" d="M767.485,-117.975C762.339,-109.227 754.188,-95.3691 747.682,-84.3093"/>
<polygon fill="midnightblue" stroke="midnightblue" points="750.592,-82.3539 742.505,-75.5091 744.559,-85.903 750.592,-82.3539"/>
</g>
<!-- Node15 -->
<g id="node15" class="node"><title>Node15</title>
<polygon fill="white" stroke="#bfbfbf" points="783,-56.5 783,-75.5 834,-75.5 834,-56.5 783,-56.5"/>
<text text-anchor="middle" x="808.5" y="-63.5" font-family="Helvetica,sans-Serif" font-size="10.00">unistd.h</text>
</g>
<!-- Node2&#45;&gt;Node15 -->
<g id="edge14" class="edge"><title>Node2&#45;&gt;Node15</title>
<path fill="none" stroke="midnightblue" d="M777.658,-117.975C782.951,-109.227 791.335,-95.3691 798.027,-84.3093"/>
<polygon fill="midnightblue" stroke="midnightblue" points="801.17,-85.8768 803.352,-75.5091 795.18,-82.2531 801.17,-85.8768"/>
</g>
<!-- Node16 -->
<g id="node16" class="node"><title>Node16</title>
<polygon fill="white" stroke="#bfbfbf" points="852.5,-56.5 852.5,-75.5 896.5,-75.5 896.5,-56.5 852.5,-56.5"/>
<text text-anchor="middle" x="874.5" y="-63.5" font-family="Helvetica,sans-Serif" font-size="10.00">fcntl.h</text>
</g>
<!-- Node2&#45;&gt;Node16 -->
<g id="edge15" class="edge"><title>Node2&#45;&gt;Node16</title>
<path fill="none" stroke="midnightblue" d="M787.114,-117.975C803.853,-108.211 831.504,-92.0807 851.219,-80.5808"/>
<polygon fill="midnightblue" stroke="midnightblue" points="853.039,-83.5711 859.913,-75.5091 849.512,-77.5246 853.039,-83.5711"/>
</g>
<!-- Node17 -->
<g id="node17" class="node"><title>Node17</title>
<polygon fill="white" stroke="#bfbfbf" points="915,-56.5 915,-75.5 956,-75.5 956,-56.5 915,-56.5"/>
<text text-anchor="middle" x="935.5" y="-63.5" font-family="Helvetica,sans-Serif" font-size="10.00">string</text>
</g>
<!-- Node2&#45;&gt;Node17 -->
<g id="edge16" class="edge"><title>Node2&#45;&gt;Node17</title>
<path fill="none" stroke="midnightblue" d="M795.854,-117.975C824.609,-107.479 873.513,-89.6273 905.152,-78.0779"/>
<polygon fill="midnightblue" stroke="midnightblue" points="906.577,-81.2837 914.771,-74.5669 904.177,-74.7081 906.577,-81.2837"/>
</g>
<!-- Node18 -->
<g id="node18" class="node"><title>Node18</title>
<polygon fill="white" stroke="#bfbfbf" points="938.5,-0.5 938.5,-19.5 982.5,-19.5 982.5,-0.5 938.5,-0.5"/>
<text text-anchor="middle" x="960.5" y="-7.5" font-family="Helvetica,sans-Serif" font-size="10.00">vector</text>
</g>
<!-- Node2&#45;&gt;Node18 -->
<g id="edge17" class="edge"><title>Node2&#45;&gt;Node18</title>
<path fill="none" stroke="midnightblue" d="M809.899,-117.949C864.642,-105.256 960.672,-82.2542 965.5,-76 975.641,-62.864 972.525,-43.4523 968.012,-29.263"/>
<polygon fill="midnightblue" stroke="midnightblue" points="971.207,-27.8095 964.484,-19.6208 964.633,-30.2146 971.207,-27.8095"/>
</g>
<!-- Node19 -->
<g id="node19" class="node"><title>Node19</title>
<polygon fill="white" stroke="#bfbfbf" points="1337,-56.5 1337,-75.5 1380,-75.5 1380,-56.5 1337,-56.5"/>
<text text-anchor="middle" x="1358.5" y="-63.5" font-family="Helvetica,sans-Serif" font-size="10.00">deque</text>
</g>
<!-- Node2&#45;&gt;Node19 -->
<g id="edge18" class="edge"><title>Node2&#45;&gt;Node19</title>
<path fill="none" stroke="midnightblue" d="M809.932,-117.933C820.718,-115.716 832.534,-113.526 843.5,-112 1054.95,-82.5821 1111.74,-110.012 1322.5,-76 1323.97,-75.7627 1325.47,-75.4947 1326.98,-75.2037"/>
<polygon fill="midnightblue" stroke="midnightblue" points="1327.9,-78.5848 1336.92,-73.0271 1326.4,-71.7468 1327.9,-78.5848"/>
</g>
<!-- Node20 -->
<g id="node20" class="node"><title>Node20</title>
<polygon fill="white" stroke="#bfbfbf" points="1000.5,-0.5 1000.5,-19.5 1044.5,-19.5 1044.5,-0.5 1000.5,-0.5"/>
<text text-anchor="middle" x="1022.5" y="-7.5" font-family="Helvetica,sans-Serif" font-size="10.00">mutex</text>
</g>
<!-- Node2&#45;&gt;Node20 -->
<g id="edge19" class="edge"><title>Node2&#45;&gt;Node20</title>
<path fill="none" stroke="midnightblue" d="M811.333,-117.965C870.087,-104.937 975.519,-81.0641 982.5,-76 998.553,-64.3551 1009.51,-44.1083 1015.84,-29.2983"/>
<polygon fill="midnightblue" stroke="midnightblue" points="1019.22,-30.2626 1019.64,-19.676 1012.71,-27.6918 1019.22,-30.2626"/>
</g>
<!-- Node21 -->
<g id="node21" class="node"><title>Node21</title>
<polygon fill="white" stroke="#bfbfbf" points="1062.5,-0.5 1062.5,-19.5 1106.5,-19.5 1106.5,-0.5 1062.5,-0.5"/>
<text text-anchor="middle" x="1084.5" y="-7.5" font-family="Helvetica,sans-Serif" font-size="10.00">thread</text>
</g>
<!-- Node2&#45;&gt;Node21 -->
<g id="edge20" class="edge"><title>Node2&#45;&gt;Node21</title>
<path fill="none" stroke="midnightblue" d="M814.338,-117.964C879.041,-104.687 996.885,-80.1716 1005.5,-76 1030.59,-63.8518 1054.6,-42.1703 1069.44,-27.2094"/>
<polygon fill="midnightblue" stroke="midnightblue" points="1072.26,-29.3221 1076.68,-19.6925 1067.22,-24.465 1072.26,-29.3221"/>
</g>
<!-- Node22 -->
<g id="node22" class="node"><title>Node22</title>
<polygon fill="white" stroke="#bfbfbf" points="1171,-0.5 1171,-19.5 1266,-19.5 1266,-0.5 1171,-0.5"/>
<text text-anchor="middle" x="1218.5" y="-7.5" font-family="Helvetica,sans-Serif" font-size="10.00">condition_variable</text>
</g>
<!-- Node2&#45;&gt;Node22 -->
<g id="edge21" class="edge"><title>Node2&#45;&gt;Node22</title>
<path fill="none" stroke="midnightblue" d="M810.691,-117.938C821.277,-115.773 832.801,-113.609 843.5,-112 925.192,-99.7183 1155.68,-135.002 1213.5,-76 1225.24,-64.0186 1225.06,-44.1221 1222.83,-29.4921"/>
<polygon fill="midnightblue" stroke="midnightblue" points="1226.24,-28.6924 1220.89,-19.5495 1219.37,-30.0352 1226.24,-28.6924"/>
</g>
<!-- Node23 -->
<g id="node23" class="node"><title>Node23</title>
<polygon fill="white" stroke="#bfbfbf" points="1284,-0.5 1284,-19.5 1327,-19.5 1327,-0.5 1284,-0.5"/>
<text text-anchor="middle" x="1305.5" y="-7.5" font-family="Helvetica,sans-Serif" font-size="10.00">queue</text>
</g>
<!-- Node2&#45;&gt;Node23 -->
<g id="edge22" class="edge"><title>Node2&#45;&gt;Node23</title>
<path fill="none" stroke="midnightblue" d="M810.318,-117.982C821.005,-115.791 832.673,-113.603 843.5,-112 1014.82,-86.6356 1072.44,-144.497 1231.5,-76 1256.41,-65.2719 1278.86,-42.8826 1292.34,-27.4023"/>
<polygon fill="midnightblue" stroke="midnightblue" points="1295.11,-29.541 1298.86,-19.6308 1289.75,-25.0413 1295.11,-29.541"/>
</g>
<!-- Node24 -->
<g id="node24" class="node"><title>Node24</title>
<polygon fill="white" stroke="#bfbfbf" points="1398.5,-56.5 1398.5,-75.5 1450.5,-75.5 1450.5,-56.5 1398.5,-56.5"/>
<text text-anchor="middle" x="1424.5" y="-63.5" font-family="Helvetica,sans-Serif" font-size="10.00">sstream</text>
</g>
<!-- Node2&#45;&gt;Node24 -->
<g id="edge23" class="edge"><title>Node2&#45;&gt;Node24</title>
<path fill="none" stroke="midnightblue" d="M809.555,-117.944C820.44,-115.699 832.403,-113.492 843.5,-112 1081.23,-80.0376 1147.56,-113.508 1388.13,-75.9161"/>
<polygon fill="midnightblue" stroke="midnightblue" points="1388.91,-79.3365 1398.24,-74.3116 1387.81,-72.4231 1388.91,-79.3365"/>
</g>
<!-- Node25 -->
<g id="node25" class="node"><title>Node25</title>
<polygon fill="white" stroke="#bfbfbf" points="1345,-0.5 1345,-19.5 1380,-19.5 1380,-0.5 1345,-0.5"/>
<text text-anchor="middle" x="1362.5" y="-7.5" font-family="Helvetica,sans-Serif" font-size="10.00">map</text>
</g>
<!-- Node2&#45;&gt;Node25 -->
<g id="edge24" class="edge"><title>Node2&#45;&gt;Node25</title>
<path fill="none" stroke="midnightblue" d="M810.311,-117.936C820.998,-115.745 832.668,-113.568 843.5,-112 1027.6,-85.3446 1084.32,-135.705 1260.5,-76 1292.92,-65.0124 1325.42,-41.6577 1344.74,-26.1438"/>
<polygon fill="midnightblue" stroke="midnightblue" points="1347.15,-28.6965 1352.65,-19.6402 1342.7,-23.2909 1347.15,-28.6965"/>
</g>
<!-- Node26 -->
<g id="node26" class="node"><title>Node26</title>
<g id="a_node26"><a xlink:href="cosmos-defs_8h.html" target="_top" xlink:title="COSMOS definitions Definitions specific to the COSMOS environement. ">
<polygon fill="white" stroke="black" points="1088.5,-56.5 1088.5,-75.5 1204.5,-75.5 1204.5,-56.5 1088.5,-56.5"/>
<text text-anchor="middle" x="1146.5" y="-63.5" font-family="Helvetica,sans-Serif" font-size="10.00">support/cosmos&#45;defs.h</text>
</a>
</g>
</g>
<!-- Node2&#45;&gt;Node26 -->
<g id="edge25" class="edge"><title>Node2&#45;&gt;Node26</title>
<path fill="none" stroke="midnightblue" d="M812.232,-117.992C822.405,-115.922 833.34,-113.791 843.5,-112 923.872,-97.8355 1016.76,-84.4827 1078.29,-76.0582"/>
<polygon fill="midnightblue" stroke="midnightblue" points="1078.83,-79.517 1088.26,-74.6978 1077.88,-72.5812 1078.83,-79.517"/>
</g>
<!-- Node26&#45;&gt;Node18 -->
<g id="edge27" class="edge"><title>Node26&#45;&gt;Node18</title>
<path fill="none" stroke="midnightblue" d="M1117.03,-56.4435C1083,-46.5639 1027.23,-30.3734 992.26,-20.2208"/>
<polygon fill="midnightblue" stroke="midnightblue" points="993.133,-16.8296 982.553,-17.4026 991.181,-23.552 993.133,-16.8296"/>
</g>
<!-- Node26&#45;&gt;Node20 -->
<g id="edge31" class="edge"><title>Node26&#45;&gt;Node20</title>
<path fill="none" stroke="midnightblue" d="M1126.85,-56.4435C1106.54,-47.5961 1074.6,-33.6875 1051.4,-23.5865"/>
<polygon fill="midnightblue" stroke="midnightblue" points="1052.62,-20.3002 1042.06,-19.5164 1049.83,-26.7181 1052.62,-20.3002"/>
</g>
<!-- Node26&#45;&gt;Node21 -->
<g id="edge30" class="edge"><title>Node26&#45;&gt;Node21</title>
<path fill="none" stroke="midnightblue" d="M1136.54,-56.324C1127.37,-48.3414 1113.56,-36.3128 1102.47,-26.6529"/>
<polygon fill="midnightblue" stroke="midnightblue" points="1104.48,-23.7624 1094.64,-19.8339 1099.88,-29.041 1104.48,-23.7624"/>
</g>
<!-- Node26&#45;&gt;Node22 -->
<g id="edge32" class="edge"><title>Node26&#45;&gt;Node22</title>
<path fill="none" stroke="midnightblue" d="M1158.07,-56.324C1168.92,-48.1849 1185.38,-35.8395 1198.38,-26.0874"/>
<polygon fill="midnightblue" stroke="midnightblue" points="1200.82,-28.6339 1206.72,-19.8339 1196.62,-23.0339 1200.82,-28.6339"/>
</g>
<!-- Node26&#45;&gt;Node23 -->
<g id="edge29" class="edge"><title>Node26&#45;&gt;Node23</title>
<path fill="none" stroke="midnightblue" d="M1171.69,-56.4435C1199.54,-46.985 1244.43,-31.7421 1274.43,-21.551"/>
<polygon fill="midnightblue" stroke="midnightblue" points="1275.65,-24.8342 1283.99,-18.3042 1273.4,-18.206 1275.65,-24.8342"/>
</g>
<!-- Node26&#45;&gt;Node25 -->
<g id="edge26" class="edge"><title>Node26&#45;&gt;Node25</title>
<path fill="none" stroke="midnightblue" d="M1187.95,-56.4426C1224.54,-48.6094 1279.47,-36.1691 1335.27,-20.1564"/>
<polygon fill="midnightblue" stroke="midnightblue" points="1336.33,-23.4924 1344.95,-17.3417 1334.38,-16.7703 1336.33,-23.4924"/>
</g>
<!-- Node27 -->
<g id="node27" class="node"><title>Node27</title>
<polygon fill="white" stroke="#bfbfbf" points="1124,-0.5 1124,-19.5 1153,-19.5 1153,-0.5 1124,-0.5"/>
<text text-anchor="middle" x="1138.5" y="-7.5" font-family="Helvetica,sans-Serif" font-size="10.00">list</text>
</g>
<!-- Node26&#45;&gt;Node27 -->
<g id="edge28" class="edge"><title>Node26&#45;&gt;Node27</title>
<path fill="none" stroke="midnightblue" d="M1145.18,-56.083C1144.12,-48.9272 1142.59,-38.6353 1141.27,-29.6911"/>
<polygon fill="midnightblue" stroke="midnightblue" points="1144.72,-29.1302 1139.8,-19.7511 1137.8,-30.1561 1144.72,-29.1302"/>
</g>
</g>
</svg>
        <g id="navigator" transform="translate(0 0)" fill="#404254">
                <rect fill="#f2f5e9" fill-opacity="0.5" stroke="#606060" stroke-width=".5" x="0" y="0" width="60" height="60"/>
                <use id="zoomplus" xlink:href="#zoomPlus" x="17" y="9" onmousedown="handleZoom(evt,'in')"/>
                <use id="zoomminus" xlink:href="#zoomMin" x="42" y="9" onmousedown="handleZoom(evt,'out')"/>
                <use id="reset" xlink:href="#resetDef" x="30" y="36" onmousedown="handleReset()"/>
                <g id="arrowUp" xlink:href="#dirArrow" transform="translate(30 24)" onmousedown="handlePan(0,-1)">
                  <use xlink:href="#rim" fill="#404040">
                        <set attributeName="fill" to="#808080" begin="arrowUp.mouseover" end="arrowUp.mouseout"/>
                  </use>
                  <path fill="none" stroke="white" stroke-width="1.5" d="M0,-3.0v7 M-2.5,-0.5L0,-3.0L2.5,-0.5"/>
                </g>
                <g id="arrowRight" xlink:href="#dirArrow" transform="rotate(90) translate(36 -43)" onmousedown="handlePan(1,0)">
                  <use xlink:href="#rim" fill="#404040">
                        <set attributeName="fill" to="#808080" begin="arrowRight.mouseover" end="arrowRight.mouseout"/>
                  </use>
                  <path fill="none" stroke="white" stroke-width="1.5" d="M0,-3.0v7 M-2.5,-0.5L0,-3.0L2.5,-0.5"/>
                </g>
                <g id="arrowDown" xlink:href="#dirArrow" transform="rotate(180) translate(-30 -48)" onmousedown="handlePan(0,1)">
                  <use xlink:href="#rim" fill="#404040">
                        <set attributeName="fill" to="#808080" begin="arrowDown.mouseover" end="arrowDown.mouseout"/>
                  </use>
                  <path fill="none" stroke="white" stroke-width="1.5" d="M0,-3.0v7 M-2.5,-0.5L0,-3.0L2.5,-0.5"/>
                </g>
                <g id="arrowLeft" xlink:href="#dirArrow" transform="rotate(270) translate(-36 17)" onmousedown="handlePan(-1,0)">
                  <use xlink:href="#rim" fill="#404040">
                        <set attributeName="fill" to="#808080" begin="arrowLeft.mouseover" end="arrowLeft.mouseout"/>
                  </use>
                  <path fill="none" stroke="white" stroke-width="1.5" d="M0,-3.0v7 M-2.5,-0.5L0,-3.0L2.5,-0.5"/>
                </g>
        </g>
        <svg viewBox="0 0 15 15" width="100%" height="30px" preserveAspectRatio="xMaxYMin meet">
         <g id="arrow_out" transform="scale(0.3 0.3)">
          <a xlink:href="i2c_8h__incl_org.svg" target="_base">
           <rect id="button" ry="5" rx="5" y="6" x="6" height="38" width="38"
                fill="#f2f5e9" fill-opacity="0.5" stroke="#606060" stroke-width="1.0"/>
           <path id="arrow"
             d="M 11.500037,31.436501 C 11.940474,20.09759 22.043105,11.32322 32.158766,21.979434 L 37.068811,17.246167 C 37.068811,17.246167 37.088388,32 37.088388,32 L 22.160133,31.978069 C 22.160133,31.978069 26.997745,27.140456 26.997745,27.140456 C 18.528582,18.264221 13.291696,25.230495 11.500037,31.436501 z"
             style="fill:#404040;"/>
          </a>
         </g>
        </svg>
</svg>
