<?xml version="1.0" encoding="UTF-8" standalone="no"?>
<!DOCTYPE svg PUBLIC "-//W3C//DTD SVG 1.1//EN"
 "http://www.w3.org/Graphics/SVG/1.1/DTD/svg11.dtd">
<!-- Generated by graphviz version 2.38.0 (20140413.2041)
 -->
<!-- Title: i2c.cpp Pages: 1 -->
<svg width="1458pt" height="263pt"
 viewBox="0.00 0.00 1458.00 263.00" xmlns="http://www.w3.org/2000/svg" xmlns:xlink="http://www.w3.org/1999/xlink">
<g id="graph0" class="graph" transform="scale(1 1) rotate(0) translate(4 259)">
<title>i2c.cpp</title>
<polygon fill="white" stroke="none" points="-4,4 -4,-259 1454,-259 1454,4 -4,4"/>
<!-- Node1 -->
<g id="node1" class="node"><title>Node1</title>
<polygon fill="#bfbfbf" stroke="black" points="792.5,-235.5 792.5,-254.5 840.5,-254.5 840.5,-235.5 792.5,-235.5"/>
<text text-anchor="middle" x="816.5" y="-242.5" font-family="Helvetica,sans-Serif" font-size="10.00">i2c.cpp</text>
</g>
<!-- Node2 -->
<g id="node2" class="node"><title>Node2</title>
<g id="a_node2"><a xlink:href="config_cosmos_8h.html" target="_top" xlink:title="Headers and definitions common to all COSMOS. ">
<polygon fill="white" stroke="black" points="732,-118 732,-137 855,-137 855,-118 732,-118"/>
<text text-anchor="middle" x="793.5" y="-125" font-family="Helvetica,sans-Serif" font-size="10.00">support/configCosmos.h</text>
</a>
</g>
</g>
<!-- Node1&#45;&gt;Node2 -->
<g id="edge1" class="edge"><title>Node1&#45;&gt;Node2</title>
<path fill="none" stroke="midnightblue" d="M814.771,-235.319C811.058,-216.673 802.251,-172.443 797.21,-147.132"/>
<polygon fill="midnightblue" stroke="midnightblue" points="800.634,-146.406 795.249,-137.282 793.769,-147.773 800.634,-146.406"/>
</g>
<!-- Node28 -->
<g id="node28" class="node"><title>Node28</title>
<g id="a_node28"><a xlink:href="i2c_8h.html" target="_top" xlink:title="device/i2c/i2c.h">
<polygon fill="white" stroke="black" points="703,-179.5 703,-198.5 788,-198.5 788,-179.5 703,-179.5"/>
<text text-anchor="middle" x="745.5" y="-186.5" font-family="Helvetica,sans-Serif" font-size="10.00">device/i2c/i2c.h</text>
</a>
</g>
</g>
<!-- Node1&#45;&gt;Node28 -->
<g id="edge33" class="edge"><title>Node1&#45;&gt;Node28</title>
<path fill="none" stroke="midnightblue" d="M805.093,-235.324C794.391,-227.185 778.159,-214.839 765.337,-205.087"/>
<polygon fill="midnightblue" stroke="midnightblue" points="767.193,-202.102 757.115,-198.834 762.956,-207.673 767.193,-202.102"/>
</g>
<!-- Node30 -->
<g id="node30" class="node"><title>Node30</title>
<g id="a_node30"><a xlink:href="elapsedtime_8h.html" target="_top" xlink:title="Elapsed Time header file. ">
<polygon fill="white" stroke="black" points="1060,-179.5 1060,-198.5 1173,-198.5 1173,-179.5 1060,-179.5"/>
<text text-anchor="middle" x="1116.5" y="-186.5" font-family="Helvetica,sans-Serif" font-size="10.00">support/elapsedtime.h</text>
</a>
</g>
</g>
<!-- Node1&#45;&gt;Node30 -->
<g id="edge36" class="edge"><title>Node1&#45;&gt;Node30</title>
<path fill="none" stroke="midnightblue" d="M840.543,-239.672C887.625,-231.198 993.134,-212.206 1059.19,-200.315"/>
<polygon fill="midnightblue" stroke="midnightblue" points="1059.82,-203.759 1069.04,-198.542 1058.58,-196.869 1059.82,-203.759"/>
</g>
<!-- Node3 -->
<g id="node3" class="node"><title>Node3</title>
<polygon fill="white" stroke="#bfbfbf" points="941,-56.5 941,-75.5 986,-75.5 986,-56.5 941,-56.5"/>
<text text-anchor="middle" x="963.5" y="-63.5" font-family="Helvetica,sans-Serif" font-size="10.00">climits</text>
</g>
<!-- Node2&#45;&gt;Node3 -->
<g id="edge2" class="edge"><title>Node2&#45;&gt;Node3</title>
<path fill="none" stroke="midnightblue" d="M817.857,-117.975C847.643,-107.55 898.161,-89.8686 931.176,-78.3133"/>
<polygon fill="midnightblue" stroke="midnightblue" points="932.536,-81.5457 940.818,-74.9386 930.223,-74.9387 932.536,-81.5457"/>
</g>
<!-- Node4 -->
<g id="node4" class="node"><title>Node4</title>
<polygon fill="white" stroke="#bfbfbf" points="1004,-56.5 1004,-75.5 1051,-75.5 1051,-56.5 1004,-56.5"/>
<text text-anchor="middle" x="1027.5" y="-63.5" font-family="Helvetica,sans-Serif" font-size="10.00">csignal</text>
</g>
<!-- Node2&#45;&gt;Node4 -->
<g id="edge3" class="edge"><title>Node2&#45;&gt;Node4</title>
<path fill="none" stroke="midnightblue" d="M828.414,-117.954C866.589,-108.56 929.816,-92.8555 993.857,-76.1294"/>
<polygon fill="midnightblue" stroke="midnightblue" points="994.935,-79.4651 1003.72,-73.5461 993.162,-72.6934 994.935,-79.4651"/>
</g>
<!-- Node5 -->
<g id="node5" class="node"><title>Node5</title>
<polygon fill="white" stroke="#bfbfbf" points="1069.5,-56.5 1069.5,-75.5 1115.5,-75.5 1115.5,-56.5 1069.5,-56.5"/>
<text text-anchor="middle" x="1092.5" y="-63.5" font-family="Helvetica,sans-Serif" font-size="10.00">cstdint</text>
</g>
<!-- Node2&#45;&gt;Node5 -->
<g id="edge4" class="edge"><title>Node2&#45;&gt;Node5</title>
<path fill="none" stroke="midnightblue" d="M844.992,-117.961C898.76,-108.756 985.418,-93.1064 1059.5,-76 1059.6,-75.9766 1059.7,-75.9531 1059.8,-75.9296"/>
<polygon fill="midnightblue" stroke="midnightblue" points="1060.62,-79.3338 1069.48,-73.5264 1058.93,-72.5403 1060.62,-79.3338"/>
</g>
<!-- Node6 -->
<g id="node6" class="node"><title>Node6</title>
<polygon fill="white" stroke="#bfbfbf" points="1133.5,-56.5 1133.5,-75.5 1189.5,-75.5 1189.5,-56.5 1133.5,-56.5"/>
<text text-anchor="middle" x="1161.5" y="-63.5" font-family="Helvetica,sans-Serif" font-size="10.00">cinttypes</text>
</g>
<!-- Node2&#45;&gt;Node6 -->
<g id="edge5" class="edge"><title>Node2&#45;&gt;Node6</title>
<path fill="none" stroke="midnightblue" d="M855.089,-118.739C919.62,-110.238 1024.11,-95.4375 1123.38,-76.0828"/>
<polygon fill="midnightblue" stroke="midnightblue" points="1124.14,-79.5 1133.27,-74.1342 1122.79,-72.6319 1124.14,-79.5"/>
</g>
<!-- Node7 -->
<g id="node7" class="node"><title>Node7</title>
<polygon fill="white" stroke="#bfbfbf" points="1208,-56.5 1208,-75.5 1251,-75.5 1251,-56.5 1208,-56.5"/>
<text text-anchor="middle" x="1229.5" y="-63.5" font-family="Helvetica,sans-Serif" font-size="10.00">cstdio</text>
</g>
<!-- Node2&#45;&gt;Node7 -->
<g id="edge6" class="edge"><title>Node2&#45;&gt;Node7</title>
<path fill="none" stroke="midnightblue" d="M855.06,-121.88C932.843,-115.364 1070.86,-101.547 1198.01,-75.7748"/>
<polygon fill="midnightblue" stroke="midnightblue" points="1198.84,-79.1786 1207.93,-73.7362 1197.43,-72.3221 1198.84,-79.1786"/>
</g>
<!-- Node8 -->
<g id="node8" class="node"><title>Node8</title>
<polygon fill="white" stroke="#bfbfbf" points="1269,-56.5 1269,-75.5 1318,-75.5 1318,-56.5 1269,-56.5"/>
<text text-anchor="middle" x="1293.5" y="-63.5" font-family="Helvetica,sans-Serif" font-size="10.00">cstddef</text>
</g>
<!-- Node2&#45;&gt;Node8 -->
<g id="edge7" class="edge"><title>Node2&#45;&gt;Node8</title>
<path fill="none" stroke="midnightblue" d="M855.368,-122.776C943.109,-116.837 1108.77,-103.199 1258.85,-75.8445"/>
<polygon fill="midnightblue" stroke="midnightblue" points="1259.52,-79.281 1268.72,-74.0228 1258.25,-72.3975 1259.52,-79.281"/>
</g>
<!-- Node9 -->
<g id="node9" class="node"><title>Node9</title>
<polygon fill="white" stroke="#bfbfbf" points="0,-56.5 0,-75.5 45,-75.5 45,-56.5 0,-56.5"/>
<text text-anchor="middle" x="22.5" y="-63.5" font-family="Helvetica,sans-Serif" font-size="10.00">cstdlib</text>
</g>
<!-- Node2&#45;&gt;Node9 -->
<g id="edge8" class="edge"><title>Node2&#45;&gt;Node9</title>
<path fill="none" stroke="midnightblue" d="M756.822,-117.935C745.84,-115.661 733.731,-113.441 722.5,-112 430.911,-74.5759 349.649,-123.423 55.2024,-75.6816"/>
<polygon fill="midnightblue" stroke="midnightblue" points="55.5219,-72.1872 45.0863,-74.0172 54.3854,-79.0943 55.5219,-72.1872"/>
</g>
<!-- Node10 -->
<g id="node10" class="node"><title>Node10</title>
<polygon fill="white" stroke="#bfbfbf" points="63.5,-56.5 63.5,-75.5 107.5,-75.5 107.5,-56.5 63.5,-56.5"/>
<text text-anchor="middle" x="85.5" y="-63.5" font-family="Helvetica,sans-Serif" font-size="10.00">cerrno</text>
</g>
<!-- Node2&#45;&gt;Node10 -->
<g id="edge9" class="edge"><title>Node2&#45;&gt;Node10</title>
<path fill="none" stroke="midnightblue" d="M756.817,-117.973C745.835,-115.701 733.727,-113.472 722.5,-112 458.248,-77.3461 384.177,-120.812 117.681,-75.802"/>
<polygon fill="midnightblue" stroke="midnightblue" points="118.16,-72.3331 107.712,-74.0924 116.976,-79.2324 118.16,-72.3331"/>
</g>
<!-- Node11 -->
<g id="node11" class="node"><title>Node11</title>
<polygon fill="white" stroke="#bfbfbf" points="125.5,-56.5 125.5,-75.5 171.5,-75.5 171.5,-56.5 125.5,-56.5"/>
<text text-anchor="middle" x="148.5" y="-63.5" font-family="Helvetica,sans-Serif" font-size="10.00">cstring</text>
</g>
<!-- Node2&#45;&gt;Node11 -->
<g id="edge10" class="edge"><title>Node2&#45;&gt;Node11</title>
<path fill="none" stroke="midnightblue" d="M756.444,-117.947C745.559,-115.703 733.597,-113.495 722.5,-112 486.512,-80.2136 420.234,-115.9 181.805,-75.8634"/>
<polygon fill="midnightblue" stroke="midnightblue" points="182.237,-72.3865 171.79,-74.1545 181.059,-79.2867 182.237,-72.3865"/>
</g>
<!-- Node12 -->
<g id="node12" class="node"><title>Node12</title>
<polygon fill="white" stroke="#bfbfbf" points="189.5,-56.5 189.5,-75.5 233.5,-75.5 233.5,-56.5 189.5,-56.5"/>
<text text-anchor="middle" x="211.5" y="-63.5" font-family="Helvetica,sans-Serif" font-size="10.00">cmath</text>
</g>
<!-- Node2&#45;&gt;Node12 -->
<g id="edge11" class="edge"><title>Node2&#45;&gt;Node12</title>
<path fill="none" stroke="midnightblue" d="M756.069,-117.932C745.282,-115.715 733.466,-113.525 722.5,-112 513.813,-82.9835 454.804,-113.089 243.568,-75.8168"/>
<polygon fill="midnightblue" stroke="midnightblue" points="244.18,-72.3708 233.719,-74.05 242.944,-79.2608 244.18,-72.3708"/>
</g>
<!-- Node13 -->
<g id="node13" class="node"><title>Node13</title>
<polygon fill="white" stroke="#bfbfbf" points="252,-56.5 252,-75.5 297,-75.5 297,-56.5 252,-56.5"/>
<text text-anchor="middle" x="274.5" y="-63.5" font-family="Helvetica,sans-Serif" font-size="10.00">iosfwd</text>
</g>
<!-- Node2&#45;&gt;Node13 -->
<g id="edge12" class="edge"><title>Node2&#45;&gt;Node13</title>
<path fill="none" stroke="midnightblue" d="M755.689,-117.936C745.002,-115.745 733.332,-113.568 722.5,-112 541.633,-85.8131 490.171,-109.243 307.022,-75.9487"/>
<polygon fill="midnightblue" stroke="midnightblue" points="307.533,-72.4839 297.063,-74.1064 306.26,-79.3671 307.533,-72.4839"/>
</g>
<!-- Node14 -->
<g id="node14" class="node"><title>Node14</title>
<polygon fill="white" stroke="#bfbfbf" points="1336.5,-56.5 1336.5,-75.5 1390.5,-75.5 1390.5,-56.5 1336.5,-56.5"/>
<text text-anchor="middle" x="1363.5" y="-63.5" font-family="Helvetica,sans-Serif" font-size="10.00">iostream</text>
</g>
<!-- Node2&#45;&gt;Node14 -->
<g id="edge13" class="edge"><title>Node2&#45;&gt;Node14</title>
<path fill="none" stroke="midnightblue" d="M855.026,-123.557C952.788,-118.247 1149.67,-104.971 1326.13,-75.7993"/>
<polygon fill="midnightblue" stroke="midnightblue" points="1326.83,-79.2308 1336.11,-74.1277 1325.67,-72.3269 1326.83,-79.2308"/>
</g>
<!-- Node15 -->
<g id="node15" class="node"><title>Node15</title>
<polygon fill="white" stroke="#bfbfbf" points="315,-56.5 315,-75.5 366,-75.5 366,-56.5 315,-56.5"/>
<text text-anchor="middle" x="340.5" y="-63.5" font-family="Helvetica,sans-Serif" font-size="10.00">unistd.h</text>
</g>
<!-- Node2&#45;&gt;Node15 -->
<g id="edge14" class="edge"><title>Node2&#45;&gt;Node15</title>
<path fill="none" stroke="midnightblue" d="M755.302,-117.983C744.716,-115.818 733.194,-113.643 722.5,-112 572.54,-88.9651 529.932,-102.759 376.3,-75.8594"/>
<polygon fill="midnightblue" stroke="midnightblue" points="376.477,-72.3358 366.018,-74.0279 375.249,-79.2274 376.477,-72.3358"/>
</g>
<!-- Node16 -->
<g id="node16" class="node"><title>Node16</title>
<polygon fill="white" stroke="#bfbfbf" points="384.5,-56.5 384.5,-75.5 428.5,-75.5 428.5,-56.5 384.5,-56.5"/>
<text text-anchor="middle" x="406.5" y="-63.5" font-family="Helvetica,sans-Serif" font-size="10.00">fcntl.h</text>
</g>
<!-- Node2&#45;&gt;Node16 -->
<g id="edge15" class="edge"><title>Node2&#45;&gt;Node16</title>
<path fill="none" stroke="midnightblue" d="M754.163,-117.929C743.886,-115.838 732.801,-113.712 722.5,-112 598.728,-91.4332 565.795,-99.2552 442.5,-76 441.254,-75.7649 439.986,-75.5128 438.708,-75.2476"/>
<polygon fill="midnightblue" stroke="midnightblue" points="439.405,-71.8168 428.879,-73.0255 437.861,-78.6445 439.405,-71.8168"/>
</g>
<!-- Node17 -->
<g id="node17" class="node"><title>Node17</title>
<polygon fill="white" stroke="#bfbfbf" points="1409,-56.5 1409,-75.5 1450,-75.5 1450,-56.5 1409,-56.5"/>
<text text-anchor="middle" x="1429.5" y="-63.5" font-family="Helvetica,sans-Serif" font-size="10.00">string</text>
</g>
<!-- Node2&#45;&gt;Node17 -->
<g id="edge16" class="edge"><title>Node2&#45;&gt;Node17</title>
<path fill="none" stroke="midnightblue" d="M855.15,-122.999C983.99,-115.422 1279.02,-96.6514 1398.95,-75.6145"/>
<polygon fill="midnightblue" stroke="midnightblue" points="1399.78,-79.0206 1408.98,-73.7695 1398.51,-72.1361 1399.78,-79.0206"/>
</g>
<!-- Node18 -->
<g id="node18" class="node"><title>Node18</title>
<polygon fill="white" stroke="#bfbfbf" points="455.5,-0.5 455.5,-19.5 499.5,-19.5 499.5,-0.5 455.5,-0.5"/>
<text text-anchor="middle" x="477.5" y="-7.5" font-family="Helvetica,sans-Serif" font-size="10.00">vector</text>
</g>
<!-- Node2&#45;&gt;Node18 -->
<g id="edge17" class="edge"><title>Node2&#45;&gt;Node18</title>
<path fill="none" stroke="midnightblue" d="M753.771,-117.973C743.599,-115.903 732.662,-113.777 722.5,-112 667.86,-102.447 511.784,-117.956 475.5,-76 464.671,-63.4788 466.903,-43.9777 470.787,-29.5997"/>
<polygon fill="midnightblue" stroke="midnightblue" points="474.207,-30.394 473.89,-19.8039 467.533,-28.2802 474.207,-30.394"/>
</g>
<!-- Node19 -->
<g id="node19" class="node"><title>Node19</title>
<polygon fill="white" stroke="#bfbfbf" points="485,-56.5 485,-75.5 528,-75.5 528,-56.5 485,-56.5"/>
<text text-anchor="middle" x="506.5" y="-63.5" font-family="Helvetica,sans-Serif" font-size="10.00">deque</text>
</g>
<!-- Node2&#45;&gt;Node19 -->
<g id="edge18" class="edge"><title>Node2&#45;&gt;Node19</title>
<path fill="none" stroke="midnightblue" d="M751.833,-117.961C742.202,-115.996 731.995,-113.919 722.5,-112 642.533,-95.8377 622.097,-93.8986 542.5,-76 541.047,-75.6732 539.562,-75.3319 538.064,-74.9816"/>
<polygon fill="midnightblue" stroke="midnightblue" points="538.704,-71.5358 528.162,-72.5928 537.062,-78.3406 538.704,-71.5358"/>
</g>
<!-- Node20 -->
<g id="node20" class="node"><title>Node20</title>
<polygon fill="white" stroke="#bfbfbf" points="536.5,-0.5 536.5,-19.5 580.5,-19.5 580.5,-0.5 536.5,-0.5"/>
<text text-anchor="middle" x="558.5" y="-7.5" font-family="Helvetica,sans-Serif" font-size="10.00">mutex</text>
</g>
<!-- Node2&#45;&gt;Node20 -->
<g id="edge19" class="edge"><title>Node2&#45;&gt;Node20</title>
<path fill="none" stroke="midnightblue" d="M755.665,-117.926C703.91,-105.972 615.997,-84.7813 603.5,-76 586.529,-64.0747 573.913,-43.5772 566.424,-28.7843"/>
<polygon fill="midnightblue" stroke="midnightblue" points="569.525,-27.156 562.068,-19.6298 563.204,-30.1636 569.525,-27.156"/>
</g>
<!-- Node21 -->
<g id="node21" class="node"><title>Node21</title>
<polygon fill="white" stroke="#bfbfbf" points="600.5,-0.5 600.5,-19.5 644.5,-19.5 644.5,-0.5 600.5,-0.5"/>
<text text-anchor="middle" x="622.5" y="-7.5" font-family="Helvetica,sans-Serif" font-size="10.00">thread</text>
</g>
<!-- Node2&#45;&gt;Node21 -->
<g id="edge20" class="edge"><title>Node2&#45;&gt;Node21</title>
<path fill="none" stroke="midnightblue" d="M753.419,-117.931C703.042,-106.76 622.078,-87.3159 613.5,-76 603.31,-62.5579 607.918,-42.9216 613.615,-28.7527"/>
<polygon fill="midnightblue" stroke="midnightblue" points="616.836,-30.1231 617.76,-19.5685 610.456,-27.2436 616.836,-30.1231"/>
</g>
<!-- Node22 -->
<g id="node22" class="node"><title>Node22</title>
<polygon fill="white" stroke="#bfbfbf" points="716,-0.5 716,-19.5 811,-19.5 811,-0.5 716,-0.5"/>
<text text-anchor="middle" x="763.5" y="-7.5" font-family="Helvetica,sans-Serif" font-size="10.00">condition_variable</text>
</g>
<!-- Node2&#45;&gt;Node22 -->
<g id="edge21" class="edge"><title>Node2&#45;&gt;Node22</title>
<path fill="none" stroke="midnightblue" d="M791.245,-117.819C786.402,-99.1732 774.914,-54.943 768.339,-29.6317"/>
<polygon fill="midnightblue" stroke="midnightblue" points="771.683,-28.5809 765.781,-19.782 764.908,-30.3408 771.683,-28.5809"/>
</g>
<!-- Node23 -->
<g id="node23" class="node"><title>Node23</title>
<polygon fill="white" stroke="#bfbfbf" points="831,-0.5 831,-19.5 874,-19.5 874,-0.5 831,-0.5"/>
<text text-anchor="middle" x="852.5" y="-7.5" font-family="Helvetica,sans-Serif" font-size="10.00">queue</text>
</g>
<!-- Node2&#45;&gt;Node23 -->
<g id="edge22" class="edge"><title>Node2&#45;&gt;Node23</title>
<path fill="none" stroke="midnightblue" d="M811.106,-117.87C826.018,-109.476 846.383,-95.1843 855.5,-76 862.319,-61.6518 860.741,-43.4533 857.934,-29.9642"/>
<polygon fill="midnightblue" stroke="midnightblue" points="861.249,-28.7917 855.444,-19.9288 854.455,-30.4774 861.249,-28.7917"/>
</g>
<!-- Node24 -->
<g id="node24" class="node"><title>Node24</title>
<polygon fill="white" stroke="#bfbfbf" points="794.5,-56.5 794.5,-75.5 846.5,-75.5 846.5,-56.5 794.5,-56.5"/>
<text text-anchor="middle" x="820.5" y="-63.5" font-family="Helvetica,sans-Serif" font-size="10.00">sstream</text>
</g>
<!-- Node2&#45;&gt;Node24 -->
<g id="edge23" class="edge"><title>Node2&#45;&gt;Node24</title>
<path fill="none" stroke="midnightblue" d="M797.368,-117.975C801.298,-109.315 807.5,-95.6486 812.493,-84.6453"/>
<polygon fill="midnightblue" stroke="midnightblue" points="815.694,-86.0617 816.639,-75.5091 809.319,-83.1691 815.694,-86.0617"/>
</g>
<!-- Node25 -->
<g id="node25" class="node"><title>Node25</title>
<polygon fill="white" stroke="#bfbfbf" points="893,-0.5 893,-19.5 928,-19.5 928,-0.5 893,-0.5"/>
<text text-anchor="middle" x="910.5" y="-7.5" font-family="Helvetica,sans-Serif" font-size="10.00">map</text>
</g>
<!-- Node2&#45;&gt;Node25 -->
<g id="edge24" class="edge"><title>Node2&#45;&gt;Node25</title>
<path fill="none" stroke="midnightblue" d="M811.861,-117.951C829.091,-109.246 854.791,-94.4267 872.5,-76 885.636,-62.331 896.085,-43.2877 902.675,-29.3466"/>
<polygon fill="midnightblue" stroke="midnightblue" points="906.034,-30.4097 906.942,-19.8539 899.65,-27.5393 906.034,-30.4097"/>
</g>
<!-- Node26 -->
<g id="node26" class="node"><title>Node26</title>
<g id="a_node26"><a xlink:href="cosmos-defs_8h.html" target="_top" xlink:title="COSMOS definitions Definitions specific to the COSMOS environement. ">
<polygon fill="white" stroke="black" points="622.5,-56.5 622.5,-75.5 738.5,-75.5 738.5,-56.5 622.5,-56.5"/>
<text text-anchor="middle" x="680.5" y="-63.5" font-family="Helvetica,sans-Serif" font-size="10.00">support/cosmos&#45;defs.h</text>
</a>
</g>
</g>
<!-- Node2&#45;&gt;Node26 -->
<g id="edge25" class="edge"><title>Node2&#45;&gt;Node26</title>
<path fill="none" stroke="midnightblue" d="M777.31,-117.975C758.598,-108.122 727.577,-91.7883 705.701,-80.2697"/>
<polygon fill="midnightblue" stroke="midnightblue" points="707.139,-77.0713 696.66,-75.5091 703.878,-83.2651 707.139,-77.0713"/>
</g>
<!-- Node26&#45;&gt;Node18 -->
<g id="edge27" class="edge"><title>Node26&#45;&gt;Node18</title>
<path fill="none" stroke="midnightblue" d="M648.334,-56.4435C610.319,-46.3312 547.449,-29.6072 509.505,-19.5136"/>
<polygon fill="midnightblue" stroke="midnightblue" points="510.069,-16.042 499.505,-16.8536 508.269,-22.8067 510.069,-16.042"/>
</g>
<!-- Node26&#45;&gt;Node20 -->
<g id="edge31" class="edge"><title>Node26&#45;&gt;Node20</title>
<path fill="none" stroke="midnightblue" d="M661.169,-56.4435C641.18,-47.5961 609.757,-33.6875 586.936,-23.5865"/>
<polygon fill="midnightblue" stroke="midnightblue" points="588.302,-20.3635 577.741,-19.5164 585.468,-26.7645 588.302,-20.3635"/>
</g>
<!-- Node26&#45;&gt;Node21 -->
<g id="edge30" class="edge"><title>Node26&#45;&gt;Node21</title>
<path fill="none" stroke="midnightblue" d="M671.181,-56.324C662.607,-48.3414 649.688,-36.3128 639.312,-26.6529"/>
<polygon fill="midnightblue" stroke="midnightblue" points="641.692,-24.0865 631.988,-19.8339 636.922,-29.2098 641.692,-24.0865"/>
</g>
<!-- Node26&#45;&gt;Node22 -->
<g id="edge32" class="edge"><title>Node26&#45;&gt;Node22</title>
<path fill="none" stroke="midnightblue" d="M693.835,-56.324C706.662,-47.979 726.285,-35.2122 741.44,-25.3524"/>
<polygon fill="midnightblue" stroke="midnightblue" points="743.724,-28.0417 750.198,-19.6545 739.907,-22.1742 743.724,-28.0417"/>
</g>
<!-- Node26&#45;&gt;Node23 -->
<g id="edge29" class="edge"><title>Node26&#45;&gt;Node23</title>
<path fill="none" stroke="midnightblue" d="M707.754,-56.4435C738.525,-46.7829 788.516,-31.088 820.952,-20.9046"/>
<polygon fill="midnightblue" stroke="midnightblue" points="822.327,-24.1414 830.82,-17.8067 820.23,-17.4628 822.327,-24.1414"/>
</g>
<!-- Node26&#45;&gt;Node25 -->
<g id="edge26" class="edge"><title>Node26&#45;&gt;Node25</title>
<path fill="none" stroke="midnightblue" d="M724.127,-56.4873C765.231,-48.1829 828.409,-34.685 882.5,-20 882.709,-19.9431 882.92,-19.8857 883.13,-19.8277"/>
<polygon fill="midnightblue" stroke="midnightblue" points="884.206,-23.1593 892.799,-16.9605 882.216,-16.4482 884.206,-23.1593"/>
</g>
<!-- Node27 -->
<g id="node27" class="node"><title>Node27</title>
<polygon fill="white" stroke="#bfbfbf" points="666,-0.5 666,-19.5 695,-19.5 695,-0.5 666,-0.5"/>
<text text-anchor="middle" x="680.5" y="-7.5" font-family="Helvetica,sans-Serif" font-size="10.00">list</text>
</g>
<!-- Node26&#45;&gt;Node27 -->
<g id="edge28" class="edge"><title>Node26&#45;&gt;Node27</title>
<path fill="none" stroke="midnightblue" d="M680.5,-56.083C680.5,-49.0059 680.5,-38.8611 680.5,-29.9865"/>
<polygon fill="midnightblue" stroke="midnightblue" points="684,-29.751 680.5,-19.7511 677,-29.7511 684,-29.751"/>
</g>
<!-- Node28&#45;&gt;Node2 -->
<g id="edge34" class="edge"><title>Node28&#45;&gt;Node2</title>
<path fill="none" stroke="midnightblue" d="M752.377,-179.475C759.649,-170.462 771.295,-156.025 780.341,-144.812"/>
<polygon fill="midnightblue" stroke="midnightblue" points="783.081,-146.99 786.636,-137.009 777.633,-142.595 783.081,-146.99"/>
</g>
<!-- Node29 -->
<g id="node29" class="node"><title>Node29</title>
<g id="a_node29"><a xlink:href="i2c-dev-smbus_8h.html" target="_top" xlink:title="device/i2c/i2c&#45;dev\l&#45;smbus.h">
<polygon fill="white" stroke="black" points="619,-112.5 619,-142.5 714,-142.5 714,-112.5 619,-112.5"/>
<text text-anchor="start" x="627" y="-130.5" font-family="Helvetica,sans-Serif" font-size="10.00">device/i2c/i2c&#45;dev</text>
<text text-anchor="middle" x="666.5" y="-119.5" font-family="Helvetica,sans-Serif" font-size="10.00">&#45;smbus.h</text>
</a>
</g>
</g>
<!-- Node28&#45;&gt;Node29 -->
<g id="edge35" class="edge"><title>Node28&#45;&gt;Node29</title>
<path fill="none" stroke="midnightblue" d="M734.181,-179.475C723.582,-171.492 707.333,-159.254 693.414,-148.77"/>
<polygon fill="midnightblue" stroke="midnightblue" points="695.212,-145.743 685.119,-142.523 691.001,-151.335 695.212,-145.743"/>
</g>
<!-- Node30&#45;&gt;Node2 -->
<g id="edge37" class="edge"><title>Node30&#45;&gt;Node2</title>
<path fill="none" stroke="midnightblue" d="M1070.22,-179.475C1012.06,-168.761 912.288,-150.382 849.773,-138.866"/>
<polygon fill="midnightblue" stroke="midnightblue" points="850.161,-135.379 839.692,-137.009 848.893,-142.263 850.161,-135.379"/>
</g>
<!-- Node30&#45;&gt;Node14 -->
<g id="edge38" class="edge"><title>Node30&#45;&gt;Node14</title>
<path fill="none" stroke="midnightblue" d="M1133.87,-179.492C1176.37,-158.671 1285.84,-105.042 1336.74,-80.108"/>
<polygon fill="midnightblue" stroke="midnightblue" points="1338.38,-83.2035 1345.82,-75.661 1335.3,-76.9173 1338.38,-83.2035"/>
</g>
<!-- Node30&#45;&gt;Node17 -->
<g id="edge39" class="edge"><title>Node30&#45;&gt;Node17</title>
<path fill="none" stroke="midnightblue" d="M1145.32,-179.472C1173.43,-170.95 1217.27,-157.118 1254.5,-143 1307.49,-122.904 1367.83,-95.7186 1402.01,-79.8992"/>
<polygon fill="midnightblue" stroke="midnightblue" points="1403.75,-82.953 1411.34,-75.5645 1400.8,-76.605 1403.75,-82.953"/>
</g>
<!-- Node31 -->
<g id="node31" class="node"><title>Node31</title>
<polygon fill="white" stroke="#bfbfbf" points="1065,-118 1065,-137 1106,-137 1106,-118 1065,-118"/>
<text text-anchor="middle" x="1085.5" y="-125" font-family="Helvetica,sans-Serif" font-size="10.00">ctime</text>
</g>
<!-- Node30&#45;&gt;Node31 -->
<g id="edge40" class="edge"><title>Node30&#45;&gt;Node31</title>
<path fill="none" stroke="midnightblue" d="M1112.06,-179.475C1107.55,-170.815 1100.43,-157.149 1094.69,-146.145"/>
<polygon fill="midnightblue" stroke="midnightblue" points="1097.66,-144.26 1089.93,-137.009 1091.45,-147.495 1097.66,-144.26"/>
</g>
<!-- Node32 -->
<g id="node32" class="node"><title>Node32</title>
<polygon fill="white" stroke="#bfbfbf" points="1124.5,-118 1124.5,-137 1170.5,-137 1170.5,-118 1124.5,-118"/>
<text text-anchor="middle" x="1147.5" y="-125" font-family="Helvetica,sans-Serif" font-size="10.00">chrono</text>
</g>
<!-- Node30&#45;&gt;Node32 -->
<g id="edge41" class="edge"><title>Node30&#45;&gt;Node32</title>
<path fill="none" stroke="midnightblue" d="M1120.94,-179.475C1125.45,-170.815 1132.57,-157.149 1138.31,-146.145"/>
<polygon fill="midnightblue" stroke="midnightblue" points="1141.55,-147.495 1143.07,-137.009 1135.34,-144.26 1141.55,-147.495"/>
</g>
</g>
</svg>
