<?xml version="1.0" encoding="UTF-8" standalone="no"?>
<!DOCTYPE svg PUBLIC "-//W3C//DTD SVG 1.1//EN"
 "http://www.w3.org/Graphics/SVG/1.1/DTD/svg11.dtd">
<!-- Generated by graphviz version 2.38.0 (20140413.2041)
 -->
<!-- Title: ic9100_lib.h Pages: 1 -->
<svg width="192pt" height="84pt"
 viewBox="0.00 0.00 191.50 84.00" xmlns="http://www.w3.org/2000/svg" xmlns:xlink="http://www.w3.org/1999/xlink">
<g id="graph0" class="graph" transform="scale(1 1) rotate(0) translate(4 80)">
<title>ic9100_lib.h</title>
<polygon fill="white" stroke="none" points="-4,4 -4,-80 187.5,-80 187.5,4 -4,4"/>
<!-- Node1 -->
<g id="node1" class="node"><title>Node1</title>
<polygon fill="#bfbfbf" stroke="black" points="55.5,-56.5 55.5,-75.5 123.5,-75.5 123.5,-56.5 55.5,-56.5"/>
<text text-anchor="middle" x="89.5" y="-63.5" font-family="Helvetica,sans-Serif" font-size="10.00">ic9100_lib.h</text>
</g>
<!-- Node2 -->
<g id="node2" class="node"><title>Node2</title>
<g id="a_node2"><a xlink:href="ic9100__lib_8cpp.html" target="_top" xlink:title="ic9100_lib.cpp">
<polygon fill="white" stroke="black" points="0,-0.5 0,-19.5 79,-19.5 79,-0.5 0,-0.5"/>
<text text-anchor="middle" x="39.5" y="-7.5" font-family="Helvetica,sans-Serif" font-size="10.00">ic9100_lib.cpp</text>
</a>
</g>
</g>
<!-- Node1&#45;&gt;Node2 -->
<g id="edge1" class="edge"><title>Node1&#45;&gt;Node2</title>
<path fill="none" stroke="midnightblue" d="M74.4237,-48.7175C65.6109,-39.1997 54.8341,-27.5608 47.6028,-19.7511"/>
<polygon fill="midnightblue" stroke="midnightblue" points="71.8812,-51.1233 81.2435,-56.083 77.0176,-46.3674 71.8812,-51.1233"/>
</g>
<!-- Node3 -->
<g id="node3" class="node"><title>Node3</title>
<g id="a_node3"><a xlink:href="agent__radio_8cpp.html" target="_top" xlink:title="Agent Radio for Satellite Ground Station. ">
<polygon fill="white" stroke="black" points="97.5,-0.5 97.5,-19.5 183.5,-19.5 183.5,-0.5 97.5,-0.5"/>
<text text-anchor="middle" x="140.5" y="-7.5" font-family="Helvetica,sans-Serif" font-size="10.00">agent_radio.cpp</text>
</a>
</g>
</g>
<!-- Node1&#45;&gt;Node3 -->
<g id="edge2" class="edge"><title>Node1&#45;&gt;Node3</title>
<path fill="none" stroke="midnightblue" d="M104.878,-48.7175C113.867,-39.1997 124.859,-27.5608 132.235,-19.7511"/>
<polygon fill="midnightblue" stroke="midnightblue" points="102.243,-46.4096 97.9216,-56.083 107.332,-51.216 102.243,-46.4096"/>
</g>
</g>
</svg>
