<?xml version="1.0" encoding="UTF-8" standalone="no"?>
<!DOCTYPE svg PUBLIC "-//W3C//DTD SVG 1.1//EN"
 "http://www.w3.org/Graphics/SVG/1.1/DTD/svg11.dtd">
<!-- Generated by graphviz version 2.38.0 (20140413.2041)
 -->
<!-- Title: Graphical Class Hierarchy Pages: 1 -->
<svg width="157pt" height="1168pt"
 viewBox="0.00 0.00 157.00 1168.00" xmlns="http://www.w3.org/2000/svg" xmlns:xlink="http://www.w3.org/1999/xlink">
<g id="graph0" class="graph" transform="scale(1 1) rotate(0) translate(4 1164)">
<title>Graphical Class Hierarchy</title>
<polygon fill="white" stroke="none" points="-4,4 -4,-1164 153,-1164 153,4 -4,4"/>
<!-- Node1 -->
<g id="node1" class="node"><title>Node1</title>
<g id="a_node1"><a xlink:href="structallstruc.html" target="_top" xlink:title="All Component structure. ">
<polygon fill="white" stroke="black" points="0,-570.5 0,-589.5 48,-589.5 48,-570.5 0,-570.5"/>
<text text-anchor="middle" x="24" y="-577.5" font-family="Helvetica,sans-Serif" font-size="10.00">allstruc</text>
</a>
</g>
</g>
<!-- Node2 -->
<g id="node2" class="node"><title>Node2</title>
<g id="a_node2"><a xlink:href="structantstruc.html" target="_top" xlink:title="Antenna information. ">
<polygon fill="white" stroke="black" points="90.5,-1140.5 90.5,-1159.5 142.5,-1159.5 142.5,-1140.5 90.5,-1140.5"/>
<text text-anchor="middle" x="116.5" y="-1147.5" font-family="Helvetica,sans-Serif" font-size="10.00">antstruc</text>
</a>
</g>
</g>
<!-- Node1&#45;&gt;Node2 -->
<g id="edge1" class="edge"><title>Node1&#45;&gt;Node2</title>
<path fill="none" stroke="midnightblue" d="M24.8175,-600.042C24.3602,-688.106 26.2316,-1040.35 84,-1131 86.4025,-1134.77 89.8464,-1137.9 93.5824,-1140.46"/>
<polygon fill="midnightblue" stroke="midnightblue" points="28.3188,-599.85 24.8883,-589.826 21.319,-599.801 28.3188,-599.85"/>
</g>
<!-- Node3 -->
<g id="node3" class="node"><title>Node3</title>
<g id="a_node3"><a xlink:href="structbattstruc.html" target="_top" xlink:title="Battery (BATT) structure. ">
<polygon fill="white" stroke="black" points="89,-1102.5 89,-1121.5 144,-1121.5 144,-1102.5 89,-1102.5"/>
<text text-anchor="middle" x="116.5" y="-1109.5" font-family="Helvetica,sans-Serif" font-size="10.00">battstruc</text>
</a>
</g>
</g>
<!-- Node1&#45;&gt;Node3 -->
<g id="edge2" class="edge"><title>Node1&#45;&gt;Node3</title>
<path fill="none" stroke="midnightblue" d="M24.996,-599.707C25.3158,-683.422 30.0645,-1009.09 84,-1093 86.4173,-1096.76 89.8678,-1099.89 93.6058,-1102.44"/>
<polygon fill="midnightblue" stroke="midnightblue" points="28.4958,-599.544 24.9756,-589.551 21.4958,-599.558 28.4958,-599.544"/>
</g>
<!-- Node4 -->
<g id="node4" class="node"><title>Node4</title>
<g id="a_node4"><a xlink:href="structbcregstruc.html" target="_top" xlink:title="BCREG (PV Regulator) Structure definition. ">
<polygon fill="white" stroke="black" points="85.5,-1064.5 85.5,-1083.5 147.5,-1083.5 147.5,-1064.5 85.5,-1064.5"/>
<text text-anchor="middle" x="116.5" y="-1071.5" font-family="Helvetica,sans-Serif" font-size="10.00">bcregstruc</text>
</a>
</g>
</g>
<!-- Node1&#45;&gt;Node4 -->
<g id="edge3" class="edge"><title>Node1&#45;&gt;Node4</title>
<path fill="none" stroke="midnightblue" d="M25.2012,-599.754C26.3495,-679.607 33.9719,-977.939 84,-1055 86.4343,-1058.75 89.8925,-1061.87 93.6327,-1064.42"/>
<polygon fill="midnightblue" stroke="midnightblue" points="28.6992,-599.565 25.0745,-589.61 21.6997,-599.653 28.6992,-599.565"/>
</g>
<!-- Node5 -->
<g id="node5" class="node"><title>Node5</title>
<g id="a_node5"><a xlink:href="structbusstruc.html" target="_top" xlink:title="busstruc">
<polygon fill="white" stroke="black" points="89.5,-1026.5 89.5,-1045.5 143.5,-1045.5 143.5,-1026.5 89.5,-1026.5"/>
<text text-anchor="middle" x="116.5" y="-1033.5" font-family="Helvetica,sans-Serif" font-size="10.00">busstruc</text>
</a>
</g>
</g>
<!-- Node1&#45;&gt;Node5 -->
<g id="edge4" class="edge"><title>Node1&#45;&gt;Node5</title>
<path fill="none" stroke="midnightblue" d="M25.4371,-599.606C27.4513,-675.158 37.8294,-946.701 84,-1017 86.4542,-1020.74 89.9214,-1023.85 93.6642,-1026.4"/>
<polygon fill="midnightblue" stroke="midnightblue" points="28.9353,-599.485 25.1893,-589.574 21.9374,-599.658 28.9353,-599.485"/>
</g>
<!-- Node6 -->
<g id="node6" class="node"><title>Node6</title>
<g id="a_node6"><a xlink:href="structcamstruc.html" target="_top" xlink:title="camstruc">
<polygon fill="white" stroke="black" points="88,-988.5 88,-1007.5 145,-1007.5 145,-988.5 88,-988.5"/>
<text text-anchor="middle" x="116.5" y="-995.5" font-family="Helvetica,sans-Serif" font-size="10.00">camstruc</text>
</a>
</g>
</g>
<!-- Node1&#45;&gt;Node6 -->
<g id="edge5" class="edge"><title>Node1&#45;&gt;Node6</title>
<path fill="none" stroke="midnightblue" d="M25.7425,-600.16C28.7297,-672.152 41.8154,-915.644 84,-979 86.4777,-982.721 89.9556,-985.828 93.7015,-988.378"/>
<polygon fill="midnightblue" stroke="midnightblue" points="29.225,-599.646 25.3342,-589.791 22.2305,-599.921 29.225,-599.646"/>
</g>
<!-- Node7 -->
<g id="node7" class="node"><title>Node7</title>
<g id="a_node7"><a xlink:href="structcpustruc.html" target="_top" xlink:title="CPU information. ">
<polygon fill="white" stroke="black" points="89.5,-950.5 89.5,-969.5 143.5,-969.5 143.5,-950.5 89.5,-950.5"/>
<text text-anchor="middle" x="116.5" y="-957.5" font-family="Helvetica,sans-Serif" font-size="10.00">cpustruc</text>
</a>
</g>
</g>
<!-- Node1&#45;&gt;Node7 -->
<g id="edge6" class="edge"><title>Node1&#45;&gt;Node7</title>
<path fill="none" stroke="midnightblue" d="M26.0552,-599.523C29.9827,-666.242 45.5551,-884.201 84,-941 86.5059,-944.702 89.9966,-947.8 93.7461,-950.348"/>
<polygon fill="midnightblue" stroke="midnightblue" points="29.5488,-599.308 25.4883,-589.522 22.56,-599.704 29.5488,-599.308"/>
</g>
<!-- Node8 -->
<g id="node8" class="node"><title>Node8</title>
<g id="a_node8"><a xlink:href="structdiskstruc.html" target="_top" xlink:title="Disk information. ">
<polygon fill="white" stroke="black" points="88.5,-912.5 88.5,-931.5 144.5,-931.5 144.5,-912.5 88.5,-912.5"/>
<text text-anchor="middle" x="116.5" y="-919.5" font-family="Helvetica,sans-Serif" font-size="10.00">diskstruc</text>
</a>
</g>
</g>
<!-- Node1&#45;&gt;Node8 -->
<g id="edge7" class="edge"><title>Node1&#45;&gt;Node8</title>
<path fill="none" stroke="midnightblue" d="M26.4985,-599.848C31.5283,-662.204 49.4658,-852.991 84,-903 86.5403,-906.679 90.0466,-909.766 93.8007,-912.311"/>
<polygon fill="midnightblue" stroke="midnightblue" points="29.9788,-599.459 25.7085,-589.763 23.0002,-600.005 29.9788,-599.459"/>
</g>
<!-- Node9 -->
<g id="node9" class="node"><title>Node9</title>
<g id="a_node9"><a xlink:href="structgpsstruc.html" target="_top" xlink:title="gpsstruc">
<polygon fill="white" stroke="black" points="89.5,-874.5 89.5,-893.5 143.5,-893.5 143.5,-874.5 89.5,-874.5"/>
<text text-anchor="middle" x="116.5" y="-881.5" font-family="Helvetica,sans-Serif" font-size="10.00">gpsstruc</text>
</a>
</g>
</g>
<!-- Node1&#45;&gt;Node9 -->
<g id="edge8" class="edge"><title>Node1&#45;&gt;Node9</title>
<path fill="none" stroke="midnightblue" d="M27.058,-600.08C33.2748,-657.612 53.338,-821.693 84,-865 86.6571,-868.753 90.3113,-871.898 94.1916,-874.48"/>
<polygon fill="midnightblue" stroke="midnightblue" points="30.5014,-599.358 25.9714,-589.781 23.5401,-600.093 30.5014,-599.358"/>
</g>
<!-- Node10 -->
<g id="node10" class="node"><title>Node10</title>
<g id="a_node10"><a xlink:href="structhtrstruc.html" target="_top" xlink:title="Heater Structure definition. ">
<polygon fill="white" stroke="black" points="91.5,-836.5 91.5,-855.5 141.5,-855.5 141.5,-836.5 91.5,-836.5"/>
<text text-anchor="middle" x="116.5" y="-843.5" font-family="Helvetica,sans-Serif" font-size="10.00">htrstruc</text>
</a>
</g>
</g>
<!-- Node1&#45;&gt;Node10 -->
<g id="edge9" class="edge"><title>Node1&#45;&gt;Node10</title>
<path fill="none" stroke="midnightblue" d="M24.7606,-599.703C25.1862,-644.499 31.8202,-755.623 84,-827 86.7138,-830.712 90.3927,-833.839 94.2793,-836.417"/>
<polygon fill="midnightblue" stroke="midnightblue" points="28.2605,-599.584 24.7646,-589.582 21.2605,-599.581 28.2605,-599.584"/>
</g>
<!-- Node11 -->
<g id="node11" class="node"><title>Node11</title>
<g id="a_node11"><a xlink:href="structimustruc.html" target="_top" xlink:title="Inertial Measurement Unit (IMU) structure. ">
<polygon fill="white" stroke="black" points="89.5,-798.5 89.5,-817.5 143.5,-817.5 143.5,-798.5 89.5,-798.5"/>
<text text-anchor="middle" x="116.5" y="-805.5" font-family="Helvetica,sans-Serif" font-size="10.00">imustruc</text>
</a>
</g>
</g>
<!-- Node1&#45;&gt;Node11 -->
<g id="edge10" class="edge"><title>Node1&#45;&gt;Node11</title>
<path fill="none" stroke="midnightblue" d="M25.8508,-599.87C28.4976,-639.698 39.3696,-730.485 84,-789 86.7887,-792.656 90.5004,-795.759 94.3954,-798.33"/>
<polygon fill="midnightblue" stroke="midnightblue" points="29.3435,-599.64 25.292,-589.85 22.3544,-600.03 29.3435,-599.64"/>
</g>
<!-- Node12 -->
<g id="node12" class="node"><title>Node12</title>
<g id="a_node12"><a xlink:href="structmccstruc.html" target="_top" xlink:title="Motion Capture Camera (MCC) Structure. ">
<polygon fill="white" stroke="black" points="88,-760.5 88,-779.5 145,-779.5 145,-760.5 88,-760.5"/>
<text text-anchor="middle" x="116.5" y="-767.5" font-family="Helvetica,sans-Serif" font-size="10.00">mccstruc</text>
</a>
</g>
</g>
<!-- Node1&#45;&gt;Node12 -->
<g id="edge11" class="edge"><title>Node1&#45;&gt;Node12</title>
<path fill="none" stroke="midnightblue" d="M27.3638,-599.703C32.3522,-633.887 46.736,-704.932 84,-751 86.9722,-754.674 90.8582,-757.812 94.8813,-760.416"/>
<polygon fill="midnightblue" stroke="midnightblue" points="30.809,-599.06 26.0128,-589.613 23.8709,-599.989 30.809,-599.06"/>
</g>
<!-- Node13 -->
<g id="node13" class="node"><title>Node13</title>
<g id="a_node13"><a xlink:href="structmotrstruc.html" target="_top" xlink:title="motrstruc">
<polygon fill="white" stroke="black" points="87.5,-722.5 87.5,-741.5 145.5,-741.5 145.5,-722.5 87.5,-722.5"/>
<text text-anchor="middle" x="116.5" y="-729.5" font-family="Helvetica,sans-Serif" font-size="10.00">motrstruc</text>
</a>
</g>
</g>
<!-- Node1&#45;&gt;Node13 -->
<g id="edge12" class="edge"><title>Node1&#45;&gt;Node13</title>
<path fill="none" stroke="midnightblue" d="M29.6581,-599.557C37.1223,-627.455 54.0555,-679.05 84,-713 87.2107,-716.64 91.2912,-719.794 95.4422,-722.428"/>
<polygon fill="midnightblue" stroke="midnightblue" points="33.033,-598.626 27.1779,-589.796 26.2486,-600.35 33.033,-598.626"/>
</g>
<!-- Node14 -->
<g id="node14" class="node"><title>Node14</title>
<g id="a_node14"><a xlink:href="structmtrstruc.html" target="_top" xlink:title="Magnetic Torque Rod structure: z axis is aligned with rod. ">
<polygon fill="white" stroke="black" points="90,-684.5 90,-703.5 143,-703.5 143,-684.5 90,-684.5"/>
<text text-anchor="middle" x="116.5" y="-691.5" font-family="Helvetica,sans-Serif" font-size="10.00">mtrstruc</text>
</a>
</g>
</g>
<!-- Node1&#45;&gt;Node14 -->
<g id="edge13" class="edge"><title>Node1&#45;&gt;Node14</title>
<path fill="none" stroke="midnightblue" d="M33.4039,-598.908C43.2588,-619.494 61.1867,-652.481 84,-675 87.6362,-678.589 92.0759,-681.791 96.4619,-684.496"/>
<polygon fill="midnightblue" stroke="midnightblue" points="36.4934,-597.25 29.1157,-589.646 30.1412,-600.191 36.4934,-597.25"/>
</g>
<!-- Node15 -->
<g id="node15" class="node"><title>Node15</title>
<g id="a_node15"><a xlink:href="structploadstruc.html" target="_top" xlink:title="Payload (PLOAD) structure. ">
<polygon fill="white" stroke="black" points="85.5,-646.5 85.5,-665.5 147.5,-665.5 147.5,-646.5 85.5,-646.5"/>
<text text-anchor="middle" x="116.5" y="-653.5" font-family="Helvetica,sans-Serif" font-size="10.00">ploadstruc</text>
</a>
</g>
</g>
<!-- Node1&#45;&gt;Node15 -->
<g id="edge14" class="edge"><title>Node1&#45;&gt;Node15</title>
<path fill="none" stroke="midnightblue" d="M40.688,-597.082C52.087,-608.996 68.2208,-624.868 84,-637 88.3542,-640.348 93.3379,-643.59 98.0366,-646.421"/>
<polygon fill="midnightblue" stroke="midnightblue" points="43.0157,-594.448 33.6154,-589.561 37.9163,-599.243 43.0157,-594.448"/>
</g>
<!-- Node16 -->
<g id="node16" class="node"><title>Node16</title>
<g id="a_node16"><a xlink:href="structpropstruc.html" target="_top" xlink:title="Propellant Tank (PROP) structure. ">
<polygon fill="white" stroke="black" points="88,-608.5 88,-627.5 145,-627.5 145,-608.5 88,-608.5"/>
<text text-anchor="middle" x="116.5" y="-615.5" font-family="Helvetica,sans-Serif" font-size="10.00">propstruc</text>
</a>
</g>
</g>
<!-- Node1&#45;&gt;Node16 -->
<g id="edge15" class="edge"><title>Node1&#45;&gt;Node16</title>
<path fill="none" stroke="midnightblue" d="M57.291,-593.559C68.991,-598.471 81.9533,-603.914 92.6703,-608.414"/>
<polygon fill="midnightblue" stroke="midnightblue" points="58.4122,-590.233 47.837,-589.589 55.7021,-596.688 58.4122,-590.233"/>
</g>
<!-- Node17 -->
<g id="node17" class="node"><title>Node17</title>
<g id="a_node17"><a xlink:href="structpsenstruc.html" target="_top" xlink:title="psenstruc">
<polygon fill="white" stroke="black" points="87,-570.5 87,-589.5 146,-589.5 146,-570.5 87,-570.5"/>
<text text-anchor="middle" x="116.5" y="-577.5" font-family="Helvetica,sans-Serif" font-size="10.00">psenstruc</text>
</a>
</g>
</g>
<!-- Node1&#45;&gt;Node17 -->
<g id="edge16" class="edge"><title>Node1&#45;&gt;Node17</title>
<path fill="none" stroke="midnightblue" d="M58.4194,-580C67.7292,-580 77.7576,-580 86.772,-580"/>
<polygon fill="midnightblue" stroke="midnightblue" points="58.306,-576.5 48.306,-580 58.306,-583.5 58.306,-576.5"/>
</g>
<!-- Node18 -->
<g id="node18" class="node"><title>Node18</title>
<g id="a_node18"><a xlink:href="structpvstrgstruc.html" target="_top" xlink:title="PV String (STRG) structure. ">
<polygon fill="white" stroke="black" points="84,-532.5 84,-551.5 149,-551.5 149,-532.5 84,-532.5"/>
<text text-anchor="middle" x="116.5" y="-539.5" font-family="Helvetica,sans-Serif" font-size="10.00">pvstrgstruc</text>
</a>
</g>
</g>
<!-- Node1&#45;&gt;Node18 -->
<g id="edge17" class="edge"><title>Node1&#45;&gt;Node18</title>
<path fill="none" stroke="midnightblue" d="M57.291,-566.441C68.991,-561.529 81.9533,-556.086 92.6703,-551.586"/>
<polygon fill="midnightblue" stroke="midnightblue" points="55.7021,-563.312 47.837,-570.411 58.4122,-569.767 55.7021,-563.312"/>
</g>
<!-- Node19 -->
<g id="node19" class="node"><title>Node19</title>
<g id="a_node19"><a xlink:href="structrotstruc.html" target="_top" xlink:title="Rotor Structure definition. ">
<polygon fill="white" stroke="black" points="91.5,-494.5 91.5,-513.5 141.5,-513.5 141.5,-494.5 91.5,-494.5"/>
<text text-anchor="middle" x="116.5" y="-501.5" font-family="Helvetica,sans-Serif" font-size="10.00">rotstruc</text>
</a>
</g>
</g>
<!-- Node1&#45;&gt;Node19 -->
<g id="edge18" class="edge"><title>Node1&#45;&gt;Node19</title>
<path fill="none" stroke="midnightblue" d="M40.688,-562.918C52.087,-551.004 68.2208,-535.132 84,-523 88.3542,-519.652 93.3379,-516.41 98.0366,-513.579"/>
<polygon fill="midnightblue" stroke="midnightblue" points="37.9163,-560.757 33.6154,-570.439 43.0157,-565.552 37.9163,-560.757"/>
</g>
<!-- Node20 -->
<g id="node20" class="node"><title>Node20</title>
<g id="a_node20"><a xlink:href="structrwstruc.html" target="_top" xlink:title="Reaction Wheel structure: z axis is aligned with axis of rotation. ">
<polygon fill="white" stroke="black" points="92,-456.5 92,-475.5 141,-475.5 141,-456.5 92,-456.5"/>
<text text-anchor="middle" x="116.5" y="-463.5" font-family="Helvetica,sans-Serif" font-size="10.00">rwstruc</text>
</a>
</g>
</g>
<!-- Node1&#45;&gt;Node20 -->
<g id="edge19" class="edge"><title>Node1&#45;&gt;Node20</title>
<path fill="none" stroke="midnightblue" d="M33.4039,-561.092C43.2588,-540.506 61.1867,-507.519 84,-485 87.6362,-481.411 92.0759,-478.209 96.4619,-475.504"/>
<polygon fill="midnightblue" stroke="midnightblue" points="30.1412,-559.809 29.1157,-570.354 36.4934,-562.75 30.1412,-559.809"/>
</g>
<!-- Node21 -->
<g id="node21" class="node"><title>Node21</title>
<g id="a_node21"><a xlink:href="structrxrstruc.html" target="_top" xlink:title="Receiver information. ">
<polygon fill="white" stroke="black" points="91.5,-418.5 91.5,-437.5 141.5,-437.5 141.5,-418.5 91.5,-418.5"/>
<text text-anchor="middle" x="116.5" y="-425.5" font-family="Helvetica,sans-Serif" font-size="10.00">rxrstruc</text>
</a>
</g>
</g>
<!-- Node1&#45;&gt;Node21 -->
<g id="edge20" class="edge"><title>Node1&#45;&gt;Node21</title>
<path fill="none" stroke="midnightblue" d="M29.6581,-560.443C37.1223,-532.545 54.0555,-480.95 84,-447 87.2107,-443.36 91.2912,-440.206 95.4422,-437.572"/>
<polygon fill="midnightblue" stroke="midnightblue" points="26.2486,-559.65 27.1779,-570.204 33.033,-561.374 26.2486,-559.65"/>
</g>
<!-- Node22 -->
<g id="node22" class="node"><title>Node22</title>
<g id="a_node22"><a xlink:href="structssenstruc.html" target="_top" xlink:title="Sun Sensor (SSEN) Sructure. ">
<polygon fill="white" stroke="black" points="87,-380.5 87,-399.5 146,-399.5 146,-380.5 87,-380.5"/>
<text text-anchor="middle" x="116.5" y="-387.5" font-family="Helvetica,sans-Serif" font-size="10.00">ssenstruc</text>
</a>
</g>
</g>
<!-- Node1&#45;&gt;Node22 -->
<g id="edge21" class="edge"><title>Node1&#45;&gt;Node22</title>
<path fill="none" stroke="midnightblue" d="M27.3638,-560.297C32.3522,-526.113 46.736,-455.068 84,-409 86.9722,-405.326 90.8582,-402.188 94.8813,-399.584"/>
<polygon fill="midnightblue" stroke="midnightblue" points="23.8709,-560.011 26.0128,-570.387 30.809,-560.94 23.8709,-560.011"/>
</g>
<!-- Node23 -->
<g id="node23" class="node"><title>Node23</title>
<g id="a_node23"><a xlink:href="structsttstruc.html" target="_top" xlink:title="Star Tracker (STT) Sructure. ">
<polygon fill="white" stroke="black" points="91.5,-342.5 91.5,-361.5 141.5,-361.5 141.5,-342.5 91.5,-342.5"/>
<text text-anchor="middle" x="116.5" y="-349.5" font-family="Helvetica,sans-Serif" font-size="10.00">sttstruc</text>
</a>
</g>
</g>
<!-- Node1&#45;&gt;Node23 -->
<g id="edge22" class="edge"><title>Node1&#45;&gt;Node23</title>
<path fill="none" stroke="midnightblue" d="M25.8508,-560.13C28.4976,-520.302 39.3696,-429.515 84,-371 86.7887,-367.344 90.5004,-364.241 94.3954,-361.67"/>
<polygon fill="midnightblue" stroke="midnightblue" points="22.3544,-559.97 25.292,-570.15 29.3435,-560.36 22.3544,-559.97"/>
</g>
<!-- Node24 -->
<g id="node24" class="node"><title>Node24</title>
<g id="a_node24"><a xlink:href="structsuchistruc.html" target="_top" xlink:title="SUCHI Sructure. ">
<polygon fill="white" stroke="black" points="85.5,-304.5 85.5,-323.5 147.5,-323.5 147.5,-304.5 85.5,-304.5"/>
<text text-anchor="middle" x="116.5" y="-311.5" font-family="Helvetica,sans-Serif" font-size="10.00">suchistruc</text>
</a>
</g>
</g>
<!-- Node1&#45;&gt;Node24 -->
<g id="edge23" class="edge"><title>Node1&#45;&gt;Node24</title>
<path fill="none" stroke="midnightblue" d="M24.7606,-560.297C25.1862,-515.501 31.8202,-404.377 84,-333 86.7138,-329.288 90.3927,-326.161 94.2793,-323.583"/>
<polygon fill="midnightblue" stroke="midnightblue" points="21.2605,-560.419 24.7646,-570.418 28.2605,-560.416 21.2605,-560.419"/>
</g>
<!-- Node25 -->
<g id="node25" class="node"><title>Node25</title>
<g id="a_node25"><a xlink:href="structswchstruc.html" target="_top" xlink:title="Switch Structure definition. ">
<polygon fill="white" stroke="black" points="85.5,-266.5 85.5,-285.5 147.5,-285.5 147.5,-266.5 85.5,-266.5"/>
<text text-anchor="middle" x="116.5" y="-273.5" font-family="Helvetica,sans-Serif" font-size="10.00">swchstruc</text>
</a>
</g>
</g>
<!-- Node1&#45;&gt;Node25 -->
<g id="edge24" class="edge"><title>Node1&#45;&gt;Node25</title>
<path fill="none" stroke="midnightblue" d="M27.058,-559.92C33.2748,-502.388 53.338,-338.307 84,-295 86.6571,-291.247 90.3113,-288.102 94.1916,-285.52"/>
<polygon fill="midnightblue" stroke="midnightblue" points="23.5401,-559.907 25.9714,-570.219 30.5014,-560.642 23.5401,-559.907"/>
</g>
<!-- Node26 -->
<g id="node26" class="node"><title>Node26</title>
<g id="a_node26"><a xlink:href="structtcustruc.html" target="_top" xlink:title="Torque Rod Control Unit. ">
<polygon fill="white" stroke="black" points="90.5,-228.5 90.5,-247.5 142.5,-247.5 142.5,-228.5 90.5,-228.5"/>
<text text-anchor="middle" x="116.5" y="-235.5" font-family="Helvetica,sans-Serif" font-size="10.00">tcustruc</text>
</a>
</g>
</g>
<!-- Node1&#45;&gt;Node26 -->
<g id="edge25" class="edge"><title>Node1&#45;&gt;Node26</title>
<path fill="none" stroke="midnightblue" d="M26.4985,-560.152C31.5283,-497.796 49.4658,-307.009 84,-257 86.5403,-253.321 90.0466,-250.234 93.8007,-247.689"/>
<polygon fill="midnightblue" stroke="midnightblue" points="23.0002,-559.995 25.7085,-570.237 29.9788,-560.541 23.0002,-559.995"/>
</g>
<!-- Node27 -->
<g id="node27" class="node"><title>Node27</title>
<g id="a_node27"><a xlink:href="structtcvstruc.html" target="_top" xlink:title="Transceiver information. ">
<polygon fill="white" stroke="black" points="90.5,-190.5 90.5,-209.5 142.5,-209.5 142.5,-190.5 90.5,-190.5"/>
<text text-anchor="middle" x="116.5" y="-197.5" font-family="Helvetica,sans-Serif" font-size="10.00">tcvstruc</text>
</a>
</g>
</g>
<!-- Node1&#45;&gt;Node27 -->
<g id="edge26" class="edge"><title>Node1&#45;&gt;Node27</title>
<path fill="none" stroke="midnightblue" d="M26.0552,-560.477C29.9827,-493.758 45.5551,-275.799 84,-219 86.5059,-215.298 89.9966,-212.2 93.7461,-209.652"/>
<polygon fill="midnightblue" stroke="midnightblue" points="22.56,-560.296 25.4883,-570.478 29.5488,-560.692 22.56,-560.296"/>
</g>
<!-- Node28 -->
<g id="node28" class="node"><title>Node28</title>
<g id="a_node28"><a xlink:href="structtelemstruc.html" target="_top" xlink:title="Telemetry (TELEM) structure. ">
<polygon fill="white" stroke="black" points="85.5,-152.5 85.5,-171.5 147.5,-171.5 147.5,-152.5 85.5,-152.5"/>
<text text-anchor="middle" x="116.5" y="-159.5" font-family="Helvetica,sans-Serif" font-size="10.00">telemstruc</text>
</a>
</g>
</g>
<!-- Node1&#45;&gt;Node28 -->
<g id="edge27" class="edge"><title>Node1&#45;&gt;Node28</title>
<path fill="none" stroke="midnightblue" d="M25.7425,-559.84C28.7297,-487.848 41.8154,-244.356 84,-181 86.4777,-177.279 89.9556,-174.172 93.7015,-171.622"/>
<polygon fill="midnightblue" stroke="midnightblue" points="22.2305,-560.079 25.3342,-570.209 29.225,-560.354 22.2305,-560.079"/>
</g>
<!-- Node29 -->
<g id="node29" class="node"><title>Node29</title>
<g id="a_node29"><a xlink:href="structthststruc.html" target="_top" xlink:title="Thruster (THST) dynamic structure. ">
<polygon fill="white" stroke="black" points="89,-114.5 89,-133.5 144,-133.5 144,-114.5 89,-114.5"/>
<text text-anchor="middle" x="116.5" y="-121.5" font-family="Helvetica,sans-Serif" font-size="10.00">thststruc</text>
</a>
</g>
</g>
<!-- Node1&#45;&gt;Node29 -->
<g id="edge28" class="edge"><title>Node1&#45;&gt;Node29</title>
<path fill="none" stroke="midnightblue" d="M25.4371,-560.394C27.4513,-484.842 37.8294,-213.299 84,-143 86.4542,-139.263 89.9214,-136.149 93.6642,-133.597"/>
<polygon fill="midnightblue" stroke="midnightblue" points="21.9374,-560.342 25.1893,-570.426 28.9353,-560.515 21.9374,-560.342"/>
</g>
<!-- Node30 -->
<g id="node30" class="node"><title>Node30</title>
<g id="a_node30"><a xlink:href="structtncstruc.html" target="_top" xlink:title="TNC Structure definition. ">
<polygon fill="white" stroke="black" points="90.5,-76.5 90.5,-95.5 142.5,-95.5 142.5,-76.5 90.5,-76.5"/>
<text text-anchor="middle" x="116.5" y="-83.5" font-family="Helvetica,sans-Serif" font-size="10.00">tncstruc</text>
</a>
</g>
</g>
<!-- Node1&#45;&gt;Node30 -->
<g id="edge29" class="edge"><title>Node1&#45;&gt;Node30</title>
<path fill="none" stroke="midnightblue" d="M25.2012,-560.246C26.3495,-480.393 33.9719,-182.061 84,-105 86.4343,-101.25 89.8925,-98.1306 93.6327,-95.5768"/>
<polygon fill="midnightblue" stroke="midnightblue" points="21.6997,-560.347 25.0745,-570.39 28.6992,-560.435 21.6997,-560.347"/>
</g>
<!-- Node31 -->
<g id="node31" class="node"><title>Node31</title>
<g id="a_node31"><a xlink:href="structtsenstruc.html" target="_top" xlink:title="tsenstruc">
<polygon fill="white" stroke="black" points="88,-38.5 88,-57.5 145,-57.5 145,-38.5 88,-38.5"/>
<text text-anchor="middle" x="116.5" y="-45.5" font-family="Helvetica,sans-Serif" font-size="10.00">tsenstruc</text>
</a>
</g>
</g>
<!-- Node1&#45;&gt;Node31 -->
<g id="edge30" class="edge"><title>Node1&#45;&gt;Node31</title>
<path fill="none" stroke="midnightblue" d="M24.996,-560.293C25.3158,-476.578 30.0645,-150.911 84,-67 86.4173,-63.2393 89.8678,-60.1146 93.6058,-57.5593"/>
<polygon fill="midnightblue" stroke="midnightblue" points="21.4958,-560.442 24.9756,-570.449 28.4958,-560.456 21.4958,-560.442"/>
</g>
<!-- Node32 -->
<g id="node32" class="node"><title>Node32</title>
<g id="a_node32"><a xlink:href="structtxrstruc.html" target="_top" xlink:title="Transmitter information. ">
<polygon fill="white" stroke="black" points="91.5,-0.5 91.5,-19.5 141.5,-19.5 141.5,-0.5 91.5,-0.5"/>
<text text-anchor="middle" x="116.5" y="-7.5" font-family="Helvetica,sans-Serif" font-size="10.00">txrstruc</text>
</a>
</g>
</g>
<!-- Node1&#45;&gt;Node32 -->
<g id="edge31" class="edge"><title>Node1&#45;&gt;Node32</title>
<path fill="none" stroke="midnightblue" d="M24.8175,-559.958C24.3602,-471.894 26.2316,-119.653 84,-29 86.4025,-25.2298 89.8464,-22.1009 93.5824,-19.5444"/>
<polygon fill="midnightblue" stroke="midnightblue" points="21.319,-560.199 24.8883,-570.174 28.3188,-560.15 21.319,-560.199"/>
</g>
</g>
</svg>
