<?xml version="1.0" encoding="UTF-8" standalone="no"?>
<!DOCTYPE svg PUBLIC "-//W3C//DTD SVG 1.1//EN"
 "http://www.w3.org/Graphics/SVG/1.1/DTD/svg11.dtd">
<!-- Generated by graphviz version 2.38.0 (20140413.2041)
 -->
<!-- Title: jpleph.cpp Pages: 1 -->
<!--zoomable 308 -->
<svg id="main" version="1.1" xmlns="http://www.w3.org/2000/svg" xmlns:xlink="http://www.w3.org/1999/xlink" xml:space="preserve" onload="init(evt)">
<style type="text/css"><![CDATA[
.edge:hover path { stroke: red; }
.edge:hover polygon { stroke: red; fill: red; }
]]></style>
<script type="text/javascript"><![CDATA[
var edges = document.getElementsByTagName('g');
if (edges && edges.length) {
  for (var i=0;i<edges.length;i++) {
    if (edges[i].id.substr(0,4)=='edge') {
      edges[i].setAttribute('class','edge');
    }
  }
}
]]></script>
        <defs>
                <circle id="rim" cx="0" cy="0" r="7"/>
                <circle id="rim2" cx="0" cy="0" r="3.5"/>
                <g id="zoomPlus">
                        <use xlink:href="#rim" fill="#404040">
                                <set attributeName="fill" to="#808080" begin="zoomplus.mouseover" end="zoomplus.mouseout"/>
                        </use>
                        <path d="M-4,0h8M0,-4v8" fill="none" stroke="white" stroke-width="1.5" pointer-events="none"/>
                </g>
                <g id="zoomMin">
                        <use xlink:href="#rim" fill="#404040">
                                <set attributeName="fill" to="#808080" begin="zoomminus.mouseover" end="zoomminus.mouseout"/>
                        </use>
                        <path d="M-4,0h8" fill="none" stroke="white" stroke-width="1.5" pointer-events="none"/>
                </g>
                <g id="dirArrow">
                        <path fill="none" stroke="white" stroke-width="1.5" d="M0,-3.0v7 M-2.5,-0.5L0,-3.0L2.5,-0.5"/>
                </g>
               <g id="resetDef">
                       <use xlink:href="#rim2" fill="#404040">
                               <set attributeName="fill" to="#808080" begin="reset.mouseover" end="reset.mouseout"/>
                       </use>
               </g>
        </defs>

<script type="text/javascript">
var viewWidth = 1460;
var viewHeight = 308;
var sectionId = 'dynsection-0';
</script>
<script xlink:href="svgpan.js"/>
<svg id="graph" class="graph">
<g id="viewport">
<title>jpleph.cpp</title>
<polygon fill="white" stroke="none" points="-4,4 -4,-304 1455.5,-304 1455.5,4 -4,4"/>
<!-- Node1 -->
<g id="node1" class="node"><title>Node1</title>
<polygon fill="#bfbfbf" stroke="black" points="562.5,-280.5 562.5,-299.5 623.5,-299.5 623.5,-280.5 562.5,-280.5"/>
<text text-anchor="middle" x="593" y="-287.5" font-family="Helvetica,sans-Serif" font-size="10.00">jpleph.cpp</text>
</g>
<!-- Node2 -->
<g id="node2" class="node"><title>Node2</title>
<g id="a_node2"><a xlink:href="config_cosmos_8h.html" target="_top" xlink:title="Headers and definitions common to all COSMOS. ">
<polygon fill="white" stroke="black" points="585.5,-112.5 585.5,-131.5 708.5,-131.5 708.5,-112.5 585.5,-112.5"/>
<text text-anchor="middle" x="647" y="-119.5" font-family="Helvetica,sans-Serif" font-size="10.00">support/configCosmos.h</text>
</a>
</g>
</g>
<!-- Node1&#45;&gt;Node2 -->
<g id="edge1" class="edge"><title>Node1&#45;&gt;Node2</title>
<path fill="none" stroke="midnightblue" d="M587.97,-280.143C581.5,-267.608 571.69,-243.993 577,-224 586.111,-189.693 612.946,-157.318 630.619,-138.854"/>
<polygon fill="midnightblue" stroke="midnightblue" points="633.238,-141.184 637.776,-131.61 628.258,-136.264 633.238,-141.184"/>
</g>
<!-- Node11 -->
<g id="node11" class="node"><title>Node11</title>
<polygon fill="white" stroke="#bfbfbf" points="0,-56.5 0,-75.5 46,-75.5 46,-56.5 0,-56.5"/>
<text text-anchor="middle" x="23" y="-63.5" font-family="Helvetica,sans-Serif" font-size="10.00">cstring</text>
</g>
<!-- Node1&#45;&gt;Node11 -->
<g id="edge35" class="edge"><title>Node1&#45;&gt;Node11</title>
<path fill="none" stroke="midnightblue" d="M562.235,-280.814C531.691,-272.443 483.68,-258.626 443,-244 292.497,-189.888 117.831,-110.885 50.9788,-80.0286"/>
<polygon fill="midnightblue" stroke="midnightblue" points="52.0988,-76.6904 41.5535,-75.6672 49.159,-83.0432 52.0988,-76.6904"/>
</g>
<!-- Node12 -->
<g id="node12" class="node"><title>Node12</title>
<polygon fill="white" stroke="#bfbfbf" points="64,-56.5 64,-75.5 108,-75.5 108,-56.5 64,-56.5"/>
<text text-anchor="middle" x="86" y="-63.5" font-family="Helvetica,sans-Serif" font-size="10.00">cmath</text>
</g>
<!-- Node1&#45;&gt;Node12 -->
<g id="edge34" class="edge"><title>Node1&#45;&gt;Node12</title>
<path fill="none" stroke="midnightblue" d="M573.436,-280.433C495.564,-246.336 207.386,-120.151 114.825,-79.6217"/>
<polygon fill="midnightblue" stroke="midnightblue" points="116.07,-76.3461 105.506,-75.5411 113.262,-82.7583 116.07,-76.3461"/>
</g>
<!-- Node28 -->
<g id="node28" class="node"><title>Node28</title>
<polygon fill="white" stroke="#bfbfbf" points="762,-168.5 762,-187.5 808,-187.5 808,-168.5 762,-168.5"/>
<text text-anchor="middle" x="785" y="-175.5" font-family="Helvetica,sans-Serif" font-size="10.00">stdio.h</text>
</g>
<!-- Node1&#45;&gt;Node28 -->
<g id="edge33" class="edge"><title>Node1&#45;&gt;Node28</title>
<path fill="none" stroke="midnightblue" d="M610.767,-280.473C628.711,-271.732 657.115,-257.538 681,-244 710.206,-227.446 742.886,-206.627 763.682,-193.076"/>
<polygon fill="midnightblue" stroke="midnightblue" points="765.635,-195.981 772.084,-187.575 761.801,-190.124 765.635,-195.981"/>
</g>
<!-- Node29 -->
<g id="node29" class="node"><title>Node29</title>
<polygon fill="white" stroke="#bfbfbf" points="728,-224.5 728,-243.5 776,-243.5 776,-224.5 728,-224.5"/>
<text text-anchor="middle" x="752" y="-231.5" font-family="Helvetica,sans-Serif" font-size="10.00">stdlib.h</text>
</g>
<!-- Node1&#45;&gt;Node29 -->
<g id="edge36" class="edge"><title>Node1&#45;&gt;Node29</title>
<path fill="none" stroke="midnightblue" d="M618.194,-280.444C645.257,-271.252 688.404,-256.599 718.355,-246.426"/>
<polygon fill="midnightblue" stroke="midnightblue" points="719.621,-249.693 727.965,-243.163 717.37,-243.065 719.621,-249.693"/>
</g>
<!-- Node30 -->
<g id="node30" class="node"><title>Node30</title>
<g id="a_node30"><a xlink:href="jpleph_8h.html" target="_top" xlink:title="JPL Ephemeris Support header file. ">
<polygon fill="white" stroke="black" points="586,-224.5 586,-243.5 672,-243.5 672,-224.5 586,-224.5"/>
<text text-anchor="middle" x="629" y="-231.5" font-family="Helvetica,sans-Serif" font-size="10.00">support/jpleph.h</text>
</a>
</g>
</g>
<!-- Node1&#45;&gt;Node30 -->
<g id="edge37" class="edge"><title>Node1&#45;&gt;Node30</title>
<path fill="none" stroke="midnightblue" d="M598.945,-280.083C603.977,-272.534 611.337,-261.495 617.513,-252.23"/>
<polygon fill="midnightblue" stroke="midnightblue" points="620.531,-254.013 623.166,-243.751 614.707,-250.13 620.531,-254.013"/>
</g>
<!-- Node3 -->
<g id="node3" class="node"><title>Node3</title>
<polygon fill="white" stroke="#bfbfbf" points="1074.5,-56.5 1074.5,-75.5 1119.5,-75.5 1119.5,-56.5 1074.5,-56.5"/>
<text text-anchor="middle" x="1097" y="-63.5" font-family="Helvetica,sans-Serif" font-size="10.00">climits</text>
</g>
<!-- Node2&#45;&gt;Node3 -->
<g id="edge2" class="edge"><title>Node2&#45;&gt;Node3</title>
<path fill="none" stroke="midnightblue" d="M708.563,-113.109C711.754,-112.728 714.914,-112.356 718,-112 868.721,-94.6311 910.904,-104.643 1064.13,-75.83"/>
<polygon fill="midnightblue" stroke="midnightblue" points="1065.22,-79.1857 1074.39,-73.8753 1063.91,-72.3095 1065.22,-79.1857"/>
</g>
<!-- Node4 -->
<g id="node4" class="node"><title>Node4</title>
<polygon fill="white" stroke="#bfbfbf" points="1137.5,-56.5 1137.5,-75.5 1184.5,-75.5 1184.5,-56.5 1137.5,-56.5"/>
<text text-anchor="middle" x="1161" y="-63.5" font-family="Helvetica,sans-Serif" font-size="10.00">csignal</text>
</g>
<!-- Node2&#45;&gt;Node4 -->
<g id="edge3" class="edge"><title>Node2&#45;&gt;Node4</title>
<path fill="none" stroke="midnightblue" d="M708.557,-113.049C711.749,-112.683 714.911,-112.331 718,-112 897.029,-92.8197 946.833,-108.382 1127.26,-76.0186"/>
<polygon fill="midnightblue" stroke="midnightblue" points="1128.14,-79.416 1137.35,-74.1831 1126.88,-72.5289 1128.14,-79.416"/>
</g>
<!-- Node5 -->
<g id="node5" class="node"><title>Node5</title>
<polygon fill="white" stroke="#bfbfbf" points="1203,-56.5 1203,-75.5 1249,-75.5 1249,-56.5 1203,-56.5"/>
<text text-anchor="middle" x="1226" y="-63.5" font-family="Helvetica,sans-Serif" font-size="10.00">cstdint</text>
</g>
<!-- Node2&#45;&gt;Node5 -->
<g id="edge4" class="edge"><title>Node2&#45;&gt;Node5</title>
<path fill="none" stroke="midnightblue" d="M708.552,-113.004C711.746,-112.65 714.91,-112.313 718,-112 925.785,-90.9867 983.287,-112.218 1192.62,-75.9024"/>
<polygon fill="midnightblue" stroke="midnightblue" points="1193.46,-79.3082 1202.71,-74.1292 1192.25,-72.4139 1193.46,-79.3082"/>
</g>
<!-- Node6 -->
<g id="node6" class="node"><title>Node6</title>
<polygon fill="white" stroke="#bfbfbf" points="1267,-56.5 1267,-75.5 1323,-75.5 1323,-56.5 1267,-56.5"/>
<text text-anchor="middle" x="1295" y="-63.5" font-family="Helvetica,sans-Serif" font-size="10.00">cinttypes</text>
</g>
<!-- Node2&#45;&gt;Node6 -->
<g id="edge5" class="edge"><title>Node2&#45;&gt;Node6</title>
<path fill="none" stroke="midnightblue" d="M708.549,-112.97C711.743,-112.625 714.908,-112.299 718,-112 954.144,-89.182 1018.51,-111.921 1256.81,-75.9156"/>
<polygon fill="midnightblue" stroke="midnightblue" points="1257.46,-79.3562 1266.82,-74.3842 1256.4,-72.4367 1257.46,-79.3562"/>
</g>
<!-- Node7 -->
<g id="node7" class="node"><title>Node7</title>
<polygon fill="white" stroke="#bfbfbf" points="1341.5,-56.5 1341.5,-75.5 1384.5,-75.5 1384.5,-56.5 1341.5,-56.5"/>
<text text-anchor="middle" x="1363" y="-63.5" font-family="Helvetica,sans-Serif" font-size="10.00">cstdio</text>
</g>
<!-- Node2&#45;&gt;Node7 -->
<g id="edge6" class="edge"><title>Node2&#45;&gt;Node7</title>
<path fill="none" stroke="midnightblue" d="M708.546,-112.94C711.741,-112.603 714.907,-112.286 718,-112 986.871,-87.1053 1060.81,-121.538 1331.34,-75.659"/>
<polygon fill="midnightblue" stroke="midnightblue" points="1332.2,-79.0631 1341.46,-73.9211 1331.02,-72.1641 1332.2,-79.0631"/>
</g>
<!-- Node8 -->
<g id="node8" class="node"><title>Node8</title>
<polygon fill="white" stroke="#bfbfbf" points="1402.5,-56.5 1402.5,-75.5 1451.5,-75.5 1451.5,-56.5 1402.5,-56.5"/>
<text text-anchor="middle" x="1427" y="-63.5" font-family="Helvetica,sans-Serif" font-size="10.00">cstddef</text>
</g>
<!-- Node2&#45;&gt;Node8 -->
<g id="edge7" class="edge"><title>Node2&#45;&gt;Node8</title>
<path fill="none" stroke="midnightblue" d="M708.544,-112.92C711.74,-112.588 714.906,-112.278 718,-112 1014.3,-85.3668 1095.15,-122.99 1392.06,-75.99"/>
<polygon fill="midnightblue" stroke="midnightblue" points="1392.94,-79.3937 1402.26,-74.3556 1391.83,-72.4818 1392.94,-79.3937"/>
</g>
<!-- Node9 -->
<g id="node9" class="node"><title>Node9</title>
<polygon fill="white" stroke="#bfbfbf" points="126.5,-56.5 126.5,-75.5 171.5,-75.5 171.5,-56.5 126.5,-56.5"/>
<text text-anchor="middle" x="149" y="-63.5" font-family="Helvetica,sans-Serif" font-size="10.00">cstdlib</text>
</g>
<!-- Node2&#45;&gt;Node9 -->
<g id="edge8" class="edge"><title>Node2&#45;&gt;Node9</title>
<path fill="none" stroke="midnightblue" d="M585.448,-118.544C497.735,-114.276 331.728,-103.351 181.481,-75.7386"/>
<polygon fill="midnightblue" stroke="midnightblue" points="182.08,-72.2902 171.608,-73.8956 180.796,-79.1713 182.08,-72.2902"/>
</g>
<!-- Node10 -->
<g id="node10" class="node"><title>Node10</title>
<polygon fill="white" stroke="#bfbfbf" points="190,-56.5 190,-75.5 234,-75.5 234,-56.5 190,-56.5"/>
<text text-anchor="middle" x="212" y="-63.5" font-family="Helvetica,sans-Serif" font-size="10.00">cerrno</text>
</g>
<!-- Node2&#45;&gt;Node10 -->
<g id="edge9" class="edge"><title>Node2&#45;&gt;Node10</title>
<path fill="none" stroke="midnightblue" d="M585.239,-117.426C507.575,-112.197 370.111,-100.513 244.065,-75.9016"/>
<polygon fill="midnightblue" stroke="midnightblue" points="244.728,-72.4651 234.238,-73.9516 243.365,-79.3312 244.728,-72.4651"/>
</g>
<!-- Node2&#45;&gt;Node11 -->
<g id="edge10" class="edge"><title>Node2&#45;&gt;Node11</title>
<path fill="none" stroke="midnightblue" d="M585.136,-120.32C478.663,-118.274 253.948,-110.109 56.282,-75.8838"/>
<polygon fill="midnightblue" stroke="midnightblue" points="56.75,-72.4125 46.295,-74.1281 55.5379,-79.3068 56.75,-72.4125"/>
</g>
<!-- Node2&#45;&gt;Node12 -->
<g id="edge11" class="edge"><title>Node2&#45;&gt;Node12</title>
<path fill="none" stroke="midnightblue" d="M585.265,-119.71C487.704,-116.807 291.949,-107.466 118.062,-75.8408"/>
<polygon fill="midnightblue" stroke="midnightblue" points="118.694,-72.3983 108.224,-74.0231 117.422,-79.2818 118.694,-72.3983"/>
</g>
<!-- Node13 -->
<g id="node13" class="node"><title>Node13</title>
<polygon fill="white" stroke="#bfbfbf" points="252.5,-56.5 252.5,-75.5 297.5,-75.5 297.5,-56.5 252.5,-56.5"/>
<text text-anchor="middle" x="275" y="-63.5" font-family="Helvetica,sans-Serif" font-size="10.00">iosfwd</text>
</g>
<!-- Node2&#45;&gt;Node13 -->
<g id="edge12" class="edge"><title>Node2&#45;&gt;Node13</title>
<path fill="none" stroke="midnightblue" d="M585.447,-115.519C519.139,-109.016 410.433,-96.6305 307.563,-75.8337"/>
<polygon fill="midnightblue" stroke="midnightblue" points="308.127,-72.3766 297.628,-73.7947 306.72,-79.2337 308.127,-72.3766"/>
</g>
<!-- Node14 -->
<g id="node14" class="node"><title>Node14</title>
<polygon fill="white" stroke="#bfbfbf" points="316,-56.5 316,-75.5 370,-75.5 370,-56.5 316,-56.5"/>
<text text-anchor="middle" x="343" y="-63.5" font-family="Helvetica,sans-Serif" font-size="10.00">iostream</text>
</g>
<!-- Node2&#45;&gt;Node14 -->
<g id="edge13" class="edge"><title>Node2&#45;&gt;Node14</title>
<path fill="none" stroke="midnightblue" d="M588.198,-112.487C535.967,-104.617 457.359,-92.0204 379.992,-76.0751"/>
<polygon fill="midnightblue" stroke="midnightblue" points="380.578,-72.622 370.074,-74.0109 379.151,-79.4752 380.578,-72.622"/>
</g>
<!-- Node15 -->
<g id="node15" class="node"><title>Node15</title>
<polygon fill="white" stroke="#bfbfbf" points="388.5,-56.5 388.5,-75.5 439.5,-75.5 439.5,-56.5 388.5,-56.5"/>
<text text-anchor="middle" x="414" y="-63.5" font-family="Helvetica,sans-Serif" font-size="10.00">unistd.h</text>
</g>
<!-- Node2&#45;&gt;Node15 -->
<g id="edge14" class="edge"><title>Node2&#45;&gt;Node15</title>
<path fill="none" stroke="midnightblue" d="M607.852,-112.445C569.886,-104.071 510.414,-90.755 449.397,-76.0426"/>
<polygon fill="midnightblue" stroke="midnightblue" points="450.136,-72.6206 439.593,-73.6699 448.489,-79.4242 450.136,-72.6206"/>
</g>
<!-- Node16 -->
<g id="node16" class="node"><title>Node16</title>
<polygon fill="white" stroke="#bfbfbf" points="458,-56.5 458,-75.5 502,-75.5 502,-56.5 458,-56.5"/>
<text text-anchor="middle" x="480" y="-63.5" font-family="Helvetica,sans-Serif" font-size="10.00">fcntl.h</text>
</g>
<!-- Node2&#45;&gt;Node16 -->
<g id="edge15" class="edge"><title>Node2&#45;&gt;Node16</title>
<path fill="none" stroke="midnightblue" d="M620.538,-112.444C590.994,-102.89 543.2,-87.436 511.687,-77.2461"/>
<polygon fill="midnightblue" stroke="midnightblue" points="512.663,-73.8833 502.071,-74.1368 510.509,-80.5438 512.663,-73.8833"/>
</g>
<!-- Node17 -->
<g id="node17" class="node"><title>Node17</title>
<polygon fill="white" stroke="#bfbfbf" points="520.5,-56.5 520.5,-75.5 561.5,-75.5 561.5,-56.5 520.5,-56.5"/>
<text text-anchor="middle" x="541" y="-63.5" font-family="Helvetica,sans-Serif" font-size="10.00">string</text>
</g>
<!-- Node2&#45;&gt;Node17 -->
<g id="edge16" class="edge"><title>Node2&#45;&gt;Node17</title>
<path fill="none" stroke="midnightblue" d="M629.969,-112.324C612.97,-103.664 586.624,-90.2424 567.007,-80.249"/>
<polygon fill="midnightblue" stroke="midnightblue" points="568.488,-77.0752 557.988,-75.6545 565.31,-83.3125 568.488,-77.0752"/>
</g>
<!-- Node18 -->
<g id="node18" class="node"><title>Node18</title>
<polygon fill="white" stroke="#bfbfbf" points="544,-0.5 544,-19.5 588,-19.5 588,-0.5 544,-0.5"/>
<text text-anchor="middle" x="566" y="-7.5" font-family="Helvetica,sans-Serif" font-size="10.00">vector</text>
</g>
<!-- Node2&#45;&gt;Node18 -->
<g id="edge17" class="edge"><title>Node2&#45;&gt;Node18</title>
<path fill="none" stroke="midnightblue" d="M640.644,-112.368C627.218,-94.135 595.768,-51.4257 578.279,-27.6752"/>
<polygon fill="midnightblue" stroke="midnightblue" points="581.074,-25.5685 572.326,-19.5914 575.438,-29.7192 581.074,-25.5685"/>
</g>
<!-- Node19 -->
<g id="node19" class="node"><title>Node19</title>
<polygon fill="white" stroke="#bfbfbf" points="942.5,-56.5 942.5,-75.5 985.5,-75.5 985.5,-56.5 942.5,-56.5"/>
<text text-anchor="middle" x="964" y="-63.5" font-family="Helvetica,sans-Serif" font-size="10.00">deque</text>
</g>
<!-- Node2&#45;&gt;Node19 -->
<g id="edge18" class="edge"><title>Node2&#45;&gt;Node19</title>
<path fill="none" stroke="midnightblue" d="M708.67,-112.684C765.789,-104.613 852.976,-91.3556 928,-76 929.46,-75.7013 930.949,-75.3831 932.451,-75.0514"/>
<polygon fill="midnightblue" stroke="midnightblue" points="933.429,-78.4173 942.367,-72.7292 931.832,-71.6017 933.429,-78.4173"/>
</g>
<!-- Node20 -->
<g id="node20" class="node"><title>Node20</title>
<polygon fill="white" stroke="#bfbfbf" points="606,-0.5 606,-19.5 650,-19.5 650,-0.5 606,-0.5"/>
<text text-anchor="middle" x="628" y="-7.5" font-family="Helvetica,sans-Serif" font-size="10.00">mutex</text>
</g>
<!-- Node2&#45;&gt;Node20 -->
<g id="edge19" class="edge"><title>Node2&#45;&gt;Node20</title>
<path fill="none" stroke="midnightblue" d="M645.509,-112.368C642.443,-94.617 635.37,-53.6664 631.212,-29.5974"/>
<polygon fill="midnightblue" stroke="midnightblue" points="634.635,-28.8498 629.484,-19.5914 627.737,-30.0413 634.635,-28.8498"/>
</g>
<!-- Node21 -->
<g id="node21" class="node"><title>Node21</title>
<polygon fill="white" stroke="#bfbfbf" points="668,-0.5 668,-19.5 712,-19.5 712,-0.5 668,-0.5"/>
<text text-anchor="middle" x="690" y="-7.5" font-family="Helvetica,sans-Serif" font-size="10.00">thread</text>
</g>
<!-- Node2&#45;&gt;Node21 -->
<g id="edge20" class="edge"><title>Node2&#45;&gt;Node21</title>
<path fill="none" stroke="midnightblue" d="M650.374,-112.368C657.376,-94.4563 673.612,-52.9233 682.984,-28.9482"/>
<polygon fill="midnightblue" stroke="midnightblue" points="686.26,-30.1794 686.642,-19.5914 679.741,-27.6308 686.26,-30.1794"/>
</g>
<!-- Node22 -->
<g id="node22" class="node"><title>Node22</title>
<polygon fill="white" stroke="#bfbfbf" points="776.5,-0.5 776.5,-19.5 871.5,-19.5 871.5,-0.5 776.5,-0.5"/>
<text text-anchor="middle" x="824" y="-7.5" font-family="Helvetica,sans-Serif" font-size="10.00">condition_variable</text>
</g>
<!-- Node2&#45;&gt;Node22 -->
<g id="edge21" class="edge"><title>Node2&#45;&gt;Node22</title>
<path fill="none" stroke="midnightblue" d="M708.779,-112.491C752.113,-105.163 804.754,-93.057 819,-76 829.534,-63.3879 829.727,-44.1744 827.922,-29.9039"/>
<polygon fill="midnightblue" stroke="midnightblue" points="831.321,-29.0166 826.204,-19.7396 824.419,-30.1831 831.321,-29.0166"/>
</g>
<!-- Node23 -->
<g id="node23" class="node"><title>Node23</title>
<polygon fill="white" stroke="#bfbfbf" points="889.5,-0.5 889.5,-19.5 932.5,-19.5 932.5,-0.5 889.5,-0.5"/>
<text text-anchor="middle" x="911" y="-7.5" font-family="Helvetica,sans-Serif" font-size="10.00">queue</text>
</g>
<!-- Node2&#45;&gt;Node23 -->
<g id="edge22" class="edge"><title>Node2&#45;&gt;Node23</title>
<path fill="none" stroke="midnightblue" d="M694.728,-112.433C742.567,-103.362 812.527,-88.6367 837,-76 860.845,-63.6877 883.264,-42.0432 897.045,-27.1357"/>
<polygon fill="midnightblue" stroke="midnightblue" points="899.69,-29.4283 903.766,-19.6489 894.481,-24.752 899.69,-29.4283"/>
</g>
<!-- Node24 -->
<g id="node24" class="node"><title>Node24</title>
<polygon fill="white" stroke="#bfbfbf" points="1004,-56.5 1004,-75.5 1056,-75.5 1056,-56.5 1004,-56.5"/>
<text text-anchor="middle" x="1030" y="-63.5" font-family="Helvetica,sans-Serif" font-size="10.00">sstream</text>
</g>
<!-- Node2&#45;&gt;Node24 -->
<g id="edge23" class="edge"><title>Node2&#45;&gt;Node24</title>
<path fill="none" stroke="midnightblue" d="M708.873,-113.097C796.846,-101.848 951.445,-82.0311 993.799,-75.7369"/>
<polygon fill="midnightblue" stroke="midnightblue" points="994.394,-79.1862 1003.71,-74.1315 993.274,-72.2764 994.394,-79.1862"/>
</g>
<!-- Node25 -->
<g id="node25" class="node"><title>Node25</title>
<polygon fill="white" stroke="#bfbfbf" points="950.5,-0.5 950.5,-19.5 985.5,-19.5 985.5,-0.5 950.5,-0.5"/>
<text text-anchor="middle" x="968" y="-7.5" font-family="Helvetica,sans-Serif" font-size="10.00">map</text>
</g>
<!-- Node2&#45;&gt;Node25 -->
<g id="edge24" class="edge"><title>Node2&#45;&gt;Node25</title>
<path fill="none" stroke="midnightblue" d="M699.343,-112.418C753.913,-103.077 835.52,-87.886 865,-76 896.632,-63.2462 929.293,-40.76 949.128,-25.8685"/>
<polygon fill="midnightblue" stroke="midnightblue" points="951.475,-28.4798 957.29,-19.6232 947.221,-22.9207 951.475,-28.4798"/>
</g>
<!-- Node26 -->
<g id="node26" class="node"><title>Node26</title>
<g id="a_node26"><a xlink:href="cosmos-defs_8h.html" target="_top" xlink:title="COSMOS definitions Definitions specific to the COSMOS environement. ">
<polygon fill="white" stroke="black" points="694,-56.5 694,-75.5 810,-75.5 810,-56.5 694,-56.5"/>
<text text-anchor="middle" x="752" y="-63.5" font-family="Helvetica,sans-Serif" font-size="10.00">support/cosmos&#45;defs.h</text>
</a>
</g>
</g>
<!-- Node2&#45;&gt;Node26 -->
<g id="edge25" class="edge"><title>Node2&#45;&gt;Node26</title>
<path fill="none" stroke="midnightblue" d="M663.87,-112.324C680.709,-103.664 706.807,-90.2424 726.238,-80.249"/>
<polygon fill="midnightblue" stroke="midnightblue" points="727.88,-83.3405 735.172,-75.6545 724.678,-77.1155 727.88,-83.3405"/>
</g>
<!-- Node26&#45;&gt;Node18 -->
<g id="edge27" class="edge"><title>Node26&#45;&gt;Node18</title>
<path fill="none" stroke="midnightblue" d="M722.528,-56.4435C688.498,-46.5639 632.731,-30.3734 597.76,-20.2208"/>
<polygon fill="midnightblue" stroke="midnightblue" points="598.633,-16.8296 588.053,-17.4026 596.681,-23.552 598.633,-16.8296"/>
</g>
<!-- Node26&#45;&gt;Node20 -->
<g id="edge31" class="edge"><title>Node26&#45;&gt;Node20</title>
<path fill="none" stroke="midnightblue" d="M732.352,-56.4435C712.035,-47.5961 680.097,-33.6875 656.902,-23.5865"/>
<polygon fill="midnightblue" stroke="midnightblue" points="658.122,-20.3002 647.556,-19.5164 655.327,-26.7181 658.122,-20.3002"/>
</g>
<!-- Node26&#45;&gt;Node21 -->
<g id="edge30" class="edge"><title>Node26&#45;&gt;Node21</title>
<path fill="none" stroke="midnightblue" d="M742.039,-56.324C732.873,-48.3414 719.063,-36.3128 707.972,-26.6529"/>
<polygon fill="midnightblue" stroke="midnightblue" points="709.982,-23.7624 700.143,-19.8339 705.385,-29.041 709.982,-23.7624"/>
</g>
<!-- Node26&#45;&gt;Node22 -->
<g id="edge32" class="edge"><title>Node26&#45;&gt;Node22</title>
<path fill="none" stroke="midnightblue" d="M763.568,-56.324C774.42,-48.1849 790.881,-35.8395 803.883,-26.0874"/>
<polygon fill="midnightblue" stroke="midnightblue" points="806.321,-28.6339 812.221,-19.8339 802.121,-23.0339 806.321,-28.6339"/>
</g>
<!-- Node26&#45;&gt;Node23 -->
<g id="edge29" class="edge"><title>Node26&#45;&gt;Node23</title>
<path fill="none" stroke="midnightblue" d="M777.194,-56.4435C805.044,-46.985 849.926,-31.7421 879.933,-21.551"/>
<polygon fill="midnightblue" stroke="midnightblue" points="881.15,-24.8342 889.493,-18.3042 878.899,-18.206 881.15,-24.8342"/>
</g>
<!-- Node26&#45;&gt;Node25 -->
<g id="edge26" class="edge"><title>Node26&#45;&gt;Node25</title>
<path fill="none" stroke="midnightblue" d="M793.453,-56.4426C830.039,-48.6094 884.966,-36.1691 940.765,-20.1564"/>
<polygon fill="midnightblue" stroke="midnightblue" points="941.828,-23.4924 950.455,-17.3417 939.875,-16.7703 941.828,-23.4924"/>
</g>
<!-- Node27 -->
<g id="node27" class="node"><title>Node27</title>
<polygon fill="white" stroke="#bfbfbf" points="729.5,-0.5 729.5,-19.5 758.5,-19.5 758.5,-0.5 729.5,-0.5"/>
<text text-anchor="middle" x="744" y="-7.5" font-family="Helvetica,sans-Serif" font-size="10.00">list</text>
</g>
<!-- Node26&#45;&gt;Node27 -->
<g id="edge28" class="edge"><title>Node26&#45;&gt;Node27</title>
<path fill="none" stroke="midnightblue" d="M750.679,-56.083C749.619,-48.9272 748.094,-38.6353 746.769,-29.6911"/>
<polygon fill="midnightblue" stroke="midnightblue" points="750.224,-29.1302 745.296,-19.7511 743.3,-30.1561 750.224,-29.1302"/>
</g>
<!-- Node30&#45;&gt;Node2 -->
<g id="edge38" class="edge"><title>Node30&#45;&gt;Node2</title>
<path fill="none" stroke="midnightblue" d="M624.36,-224.449C618.169,-211.888 608.68,-187.794 615,-168 618.341,-157.538 625.1,-147.428 631.549,-139.45"/>
<polygon fill="midnightblue" stroke="midnightblue" points="634.348,-141.564 638.249,-131.714 629.056,-136.981 634.348,-141.564"/>
</g>
<!-- Node30&#45;&gt;Node28 -->
<g id="edge42" class="edge"><title>Node30&#45;&gt;Node28</title>
<path fill="none" stroke="midnightblue" d="M653.719,-224.444C680.31,-215.239 722.726,-200.556 752.117,-190.383"/>
<polygon fill="midnightblue" stroke="midnightblue" points="753.618,-193.567 761.923,-186.988 751.328,-186.952 753.618,-193.567"/>
</g>
<!-- Node31 -->
<g id="node31" class="node"><title>Node31</title>
<g id="a_node31"><a xlink:href="cosmos-errno_8h.html" target="_top" xlink:title="COSMOS Error Codes. ">
<polygon fill="white" stroke="black" points="624.5,-168.5 624.5,-187.5 743.5,-187.5 743.5,-168.5 624.5,-168.5"/>
<text text-anchor="middle" x="684" y="-175.5" font-family="Helvetica,sans-Serif" font-size="10.00">support/cosmos&#45;errno.h</text>
</a>
</g>
</g>
<!-- Node30&#45;&gt;Node31 -->
<g id="edge39" class="edge"><title>Node30&#45;&gt;Node31</title>
<path fill="none" stroke="midnightblue" d="M638.082,-224.083C646.171,-216.141 658.195,-204.335 667.91,-194.797"/>
<polygon fill="midnightblue" stroke="midnightblue" points="670.403,-197.254 675.087,-187.751 665.499,-192.26 670.403,-197.254"/>
</g>
<!-- Node31&#45;&gt;Node2 -->
<g id="edge40" class="edge"><title>Node31&#45;&gt;Node2</title>
<path fill="none" stroke="midnightblue" d="M677.89,-168.083C672.718,-160.534 665.154,-149.495 658.806,-140.23"/>
<polygon fill="midnightblue" stroke="midnightblue" points="661.536,-138.022 652.996,-131.751 655.761,-141.979 661.536,-138.022"/>
</g>
<!-- Node32 -->
<g id="node32" class="node"><title>Node32</title>
<polygon fill="white" stroke="#bfbfbf" points="726.5,-112.5 726.5,-131.5 773.5,-131.5 773.5,-112.5 726.5,-112.5"/>
<text text-anchor="middle" x="750" y="-119.5" font-family="Helvetica,sans-Serif" font-size="10.00">errno.h</text>
</g>
<!-- Node31&#45;&gt;Node32 -->
<g id="edge41" class="edge"><title>Node31&#45;&gt;Node32</title>
<path fill="none" stroke="midnightblue" d="M694.604,-168.324C704.456,-160.263 719.351,-148.077 731.215,-138.369"/>
<polygon fill="midnightblue" stroke="midnightblue" points="733.68,-140.875 739.203,-131.834 729.247,-135.457 733.68,-140.875"/>
</g>
</g>
</svg>
        <g id="navigator" transform="translate(0 0)" fill="#404254">
                <rect fill="#f2f5e9" fill-opacity="0.5" stroke="#606060" stroke-width=".5" x="0" y="0" width="60" height="60"/>
                <use id="zoomplus" xlink:href="#zoomPlus" x="17" y="9" onmousedown="handleZoom(evt,'in')"/>
                <use id="zoomminus" xlink:href="#zoomMin" x="42" y="9" onmousedown="handleZoom(evt,'out')"/>
                <use id="reset" xlink:href="#resetDef" x="30" y="36" onmousedown="handleReset()"/>
                <g id="arrowUp" xlink:href="#dirArrow" transform="translate(30 24)" onmousedown="handlePan(0,-1)">
                  <use xlink:href="#rim" fill="#404040">
                        <set attributeName="fill" to="#808080" begin="arrowUp.mouseover" end="arrowUp.mouseout"/>
                  </use>
                  <path fill="none" stroke="white" stroke-width="1.5" d="M0,-3.0v7 M-2.5,-0.5L0,-3.0L2.5,-0.5"/>
                </g>
                <g id="arrowRight" xlink:href="#dirArrow" transform="rotate(90) translate(36 -43)" onmousedown="handlePan(1,0)">
                  <use xlink:href="#rim" fill="#404040">
                        <set attributeName="fill" to="#808080" begin="arrowRight.mouseover" end="arrowRight.mouseout"/>
                  </use>
                  <path fill="none" stroke="white" stroke-width="1.5" d="M0,-3.0v7 M-2.5,-0.5L0,-3.0L2.5,-0.5"/>
                </g>
                <g id="arrowDown" xlink:href="#dirArrow" transform="rotate(180) translate(-30 -48)" onmousedown="handlePan(0,1)">
                  <use xlink:href="#rim" fill="#404040">
                        <set attributeName="fill" to="#808080" begin="arrowDown.mouseover" end="arrowDown.mouseout"/>
                  </use>
                  <path fill="none" stroke="white" stroke-width="1.5" d="M0,-3.0v7 M-2.5,-0.5L0,-3.0L2.5,-0.5"/>
                </g>
                <g id="arrowLeft" xlink:href="#dirArrow" transform="rotate(270) translate(-36 17)" onmousedown="handlePan(-1,0)">
                  <use xlink:href="#rim" fill="#404040">
                        <set attributeName="fill" to="#808080" begin="arrowLeft.mouseover" end="arrowLeft.mouseout"/>
                  </use>
                  <path fill="none" stroke="white" stroke-width="1.5" d="M0,-3.0v7 M-2.5,-0.5L0,-3.0L2.5,-0.5"/>
                </g>
        </g>
        <svg viewBox="0 0 15 15" width="100%" height="30px" preserveAspectRatio="xMaxYMin meet">
         <g id="arrow_out" transform="scale(0.3 0.3)">
          <a xlink:href="jpleph_8cpp__incl_org.svg" target="_base">
           <rect id="button" ry="5" rx="5" y="6" x="6" height="38" width="38"
                fill="#f2f5e9" fill-opacity="0.5" stroke="#606060" stroke-width="1.0"/>
           <path id="arrow"
             d="M 11.500037,31.436501 C 11.940474,20.09759 22.043105,11.32322 32.158766,21.979434 L 37.068811,17.246167 C 37.068811,17.246167 37.088388,32 37.088388,32 L 22.160133,31.978069 C 22.160133,31.978069 26.997745,27.140456 26.997745,27.140456 C 18.528582,18.264221 13.291696,25.230495 11.500037,31.436501 z"
             style="fill:#404040;"/>
          </a>
         </g>
        </svg>
</svg>
