<?xml version="1.0" encoding="UTF-8" standalone="no"?>
<!DOCTYPE svg PUBLIC "-//W3C//DTD SVG 1.1//EN"
 "http://www.w3.org/Graphics/SVG/1.1/DTD/svg11.dtd">
<!-- Generated by graphviz version 2.38.0 (20140413.2041)
 -->
<!-- Title: jpleph.h Pages: 1 -->
<svg width="1459pt" height="252pt"
 viewBox="0.00 0.00 1458.50 252.00" xmlns="http://www.w3.org/2000/svg" xmlns:xlink="http://www.w3.org/1999/xlink">
<g id="graph0" class="graph" transform="scale(1 1) rotate(0) translate(4 248)">
<title>jpleph.h</title>
<polygon fill="white" stroke="none" points="-4,4 -4,-248 1454.5,-248 1454.5,4 -4,4"/>
<!-- Node1 -->
<g id="node1" class="node"><title>Node1</title>
<polygon fill="#bfbfbf" stroke="black" points="835.5,-224.5 835.5,-243.5 885.5,-243.5 885.5,-224.5 835.5,-224.5"/>
<text text-anchor="middle" x="860.5" y="-231.5" font-family="Helvetica,sans-Serif" font-size="10.00">jpleph.h</text>
</g>
<!-- Node2 -->
<g id="node2" class="node"><title>Node2</title>
<g id="a_node2"><a xlink:href="config_cosmos_8h.html" target="_top" xlink:title="Headers and definitions common to all COSMOS. ">
<polygon fill="white" stroke="black" points="711,-112.5 711,-131.5 834,-131.5 834,-112.5 711,-112.5"/>
<text text-anchor="middle" x="772.5" y="-119.5" font-family="Helvetica,sans-Serif" font-size="10.00">support/configCosmos.h</text>
</a>
</g>
</g>
<!-- Node1&#45;&gt;Node2 -->
<g id="edge1" class="edge"><title>Node1&#45;&gt;Node2</title>
<path fill="none" stroke="midnightblue" d="M839.805,-224.347C824.356,-216.876 803.862,-204.65 791.5,-188 781.535,-174.578 776.778,-156.014 774.518,-142.16"/>
<polygon fill="midnightblue" stroke="midnightblue" points="777.935,-141.299 773.148,-131.847 770.996,-142.221 777.935,-141.299"/>
</g>
<!-- Node28 -->
<g id="node28" class="node"><title>Node28</title>
<g id="a_node28"><a xlink:href="cosmos-errno_8h.html" target="_top" xlink:title="COSMOS Error Codes. ">
<polygon fill="white" stroke="black" points="801,-168.5 801,-187.5 920,-187.5 920,-168.5 801,-168.5"/>
<text text-anchor="middle" x="860.5" y="-175.5" font-family="Helvetica,sans-Serif" font-size="10.00">support/cosmos&#45;errno.h</text>
</a>
</g>
</g>
<!-- Node1&#45;&gt;Node28 -->
<g id="edge33" class="edge"><title>Node1&#45;&gt;Node28</title>
<path fill="none" stroke="midnightblue" d="M860.5,-224.083C860.5,-217.006 860.5,-206.861 860.5,-197.986"/>
<polygon fill="midnightblue" stroke="midnightblue" points="864,-197.751 860.5,-187.751 857,-197.751 864,-197.751"/>
</g>
<!-- Node30 -->
<g id="node30" class="node"><title>Node30</title>
<polygon fill="white" stroke="#bfbfbf" points="938.5,-168.5 938.5,-187.5 984.5,-187.5 984.5,-168.5 938.5,-168.5"/>
<text text-anchor="middle" x="961.5" y="-175.5" font-family="Helvetica,sans-Serif" font-size="10.00">stdio.h</text>
</g>
<!-- Node1&#45;&gt;Node30 -->
<g id="edge36" class="edge"><title>Node1&#45;&gt;Node30</title>
<path fill="none" stroke="midnightblue" d="M876.727,-224.324C892.851,-215.703 917.8,-202.364 936.464,-192.386"/>
<polygon fill="midnightblue" stroke="midnightblue" points="938.144,-195.456 945.313,-187.655 934.844,-189.283 938.144,-195.456"/>
</g>
<!-- Node3 -->
<g id="node3" class="node"><title>Node3</title>
<polygon fill="white" stroke="#bfbfbf" points="0,-56.5 0,-75.5 45,-75.5 45,-56.5 0,-56.5"/>
<text text-anchor="middle" x="22.5" y="-63.5" font-family="Helvetica,sans-Serif" font-size="10.00">climits</text>
</g>
<!-- Node2&#45;&gt;Node3 -->
<g id="edge2" class="edge"><title>Node2&#45;&gt;Node3</title>
<path fill="none" stroke="midnightblue" d="M710.891,-121.683C587.572,-122.069 301.741,-118.032 54.9228,-75.8796"/>
<polygon fill="midnightblue" stroke="midnightblue" points="55.5025,-72.428 45.0518,-74.1697 54.3077,-79.3253 55.5025,-72.428"/>
</g>
<!-- Node4 -->
<g id="node4" class="node"><title>Node4</title>
<polygon fill="white" stroke="#bfbfbf" points="63,-56.5 63,-75.5 110,-75.5 110,-56.5 63,-56.5"/>
<text text-anchor="middle" x="86.5" y="-63.5" font-family="Helvetica,sans-Serif" font-size="10.00">csignal</text>
</g>
<!-- Node2&#45;&gt;Node4 -->
<g id="edge3" class="edge"><title>Node2&#45;&gt;Node4</title>
<path fill="none" stroke="midnightblue" d="M710.805,-120.79C596.082,-119.522 342.207,-112.588 120.054,-75.7201"/>
<polygon fill="midnightblue" stroke="midnightblue" points="120.61,-72.2646 110.168,-74.0559 119.448,-79.1675 120.61,-72.2646"/>
</g>
<!-- Node5 -->
<g id="node5" class="node"><title>Node5</title>
<polygon fill="white" stroke="#bfbfbf" points="128.5,-56.5 128.5,-75.5 174.5,-75.5 174.5,-56.5 128.5,-56.5"/>
<text text-anchor="middle" x="151.5" y="-63.5" font-family="Helvetica,sans-Serif" font-size="10.00">cstdint</text>
</g>
<!-- Node2&#45;&gt;Node5 -->
<g id="edge4" class="edge"><title>Node2&#45;&gt;Node5</title>
<path fill="none" stroke="midnightblue" d="M710.95,-120.293C605.015,-118.204 381.439,-109.977 184.734,-75.8763"/>
<polygon fill="midnightblue" stroke="midnightblue" points="185.251,-72.4136 174.795,-74.127 184.037,-79.3076 185.251,-72.4136"/>
</g>
<!-- Node6 -->
<g id="node6" class="node"><title>Node6</title>
<polygon fill="white" stroke="#bfbfbf" points="192.5,-56.5 192.5,-75.5 248.5,-75.5 248.5,-56.5 192.5,-56.5"/>
<text text-anchor="middle" x="220.5" y="-63.5" font-family="Helvetica,sans-Serif" font-size="10.00">cinttypes</text>
</g>
<!-- Node2&#45;&gt;Node6 -->
<g id="edge5" class="edge"><title>Node2&#45;&gt;Node6</title>
<path fill="none" stroke="midnightblue" d="M710.686,-118.625C615.52,-114.303 427.325,-103.119 258.742,-75.9651"/>
<polygon fill="midnightblue" stroke="midnightblue" points="259.125,-72.4814 248.691,-74.3233 257.996,-79.3898 259.125,-72.4814"/>
</g>
<!-- Node7 -->
<g id="node7" class="node"><title>Node7</title>
<polygon fill="white" stroke="#bfbfbf" points="267,-56.5 267,-75.5 310,-75.5 310,-56.5 267,-56.5"/>
<text text-anchor="middle" x="288.5" y="-63.5" font-family="Helvetica,sans-Serif" font-size="10.00">cstdio</text>
</g>
<!-- Node2&#45;&gt;Node7 -->
<g id="edge6" class="edge"><title>Node2&#45;&gt;Node7</title>
<path fill="none" stroke="midnightblue" d="M710.633,-118.644C624.713,-114.539 464.411,-103.868 319.938,-75.9447"/>
<polygon fill="midnightblue" stroke="midnightblue" points="320.492,-72.4868 310.005,-73.9924 319.142,-79.3554 320.492,-72.4868"/>
</g>
<!-- Node8 -->
<g id="node8" class="node"><title>Node8</title>
<polygon fill="white" stroke="#bfbfbf" points="328,-56.5 328,-75.5 377,-75.5 377,-56.5 328,-56.5"/>
<text text-anchor="middle" x="352.5" y="-63.5" font-family="Helvetica,sans-Serif" font-size="10.00">cstddef</text>
</g>
<!-- Node2&#45;&gt;Node8 -->
<g id="edge7" class="edge"><title>Node2&#45;&gt;Node8</title>
<path fill="none" stroke="midnightblue" d="M710.733,-116.7C636.076,-110.861 506.553,-98.6805 387.304,-76.1137"/>
<polygon fill="midnightblue" stroke="midnightblue" points="387.753,-72.6361 377.272,-74.1858 386.432,-79.5103 387.753,-72.6361"/>
</g>
<!-- Node9 -->
<g id="node9" class="node"><title>Node9</title>
<polygon fill="white" stroke="#bfbfbf" points="395,-56.5 395,-75.5 440,-75.5 440,-56.5 395,-56.5"/>
<text text-anchor="middle" x="417.5" y="-63.5" font-family="Helvetica,sans-Serif" font-size="10.00">cstdlib</text>
</g>
<!-- Node2&#45;&gt;Node9 -->
<g id="edge8" class="edge"><title>Node2&#45;&gt;Node9</title>
<path fill="none" stroke="midnightblue" d="M710.751,-114.918C647.596,-108.131 546.539,-95.706 450.055,-75.8476"/>
<polygon fill="midnightblue" stroke="midnightblue" points="450.636,-72.3936 440.132,-73.7752 449.205,-79.2458 450.636,-72.3936"/>
</g>
<!-- Node10 -->
<g id="node10" class="node"><title>Node10</title>
<polygon fill="white" stroke="#bfbfbf" points="458.5,-56.5 458.5,-75.5 502.5,-75.5 502.5,-56.5 458.5,-56.5"/>
<text text-anchor="middle" x="480.5" y="-63.5" font-family="Helvetica,sans-Serif" font-size="10.00">cerrno</text>
</g>
<!-- Node2&#45;&gt;Node10 -->
<g id="edge9" class="edge"><title>Node2&#45;&gt;Node10</title>
<path fill="none" stroke="midnightblue" d="M711.73,-112.491C660.87,-104.922 586.241,-92.779 512.673,-76.0679"/>
<polygon fill="midnightblue" stroke="midnightblue" points="513.303,-72.6214 502.773,-73.7893 511.733,-79.4431 513.303,-72.6214"/>
</g>
<!-- Node11 -->
<g id="node11" class="node"><title>Node11</title>
<polygon fill="white" stroke="#bfbfbf" points="520.5,-56.5 520.5,-75.5 566.5,-75.5 566.5,-56.5 520.5,-56.5"/>
<text text-anchor="middle" x="543.5" y="-63.5" font-family="Helvetica,sans-Serif" font-size="10.00">cstring</text>
</g>
<!-- Node2&#45;&gt;Node11 -->
<g id="edge10" class="edge"><title>Node2&#45;&gt;Node11</title>
<path fill="none" stroke="midnightblue" d="M732.366,-112.443C694.563,-104.248 636.126,-91.2306 576.501,-76.1613"/>
<polygon fill="midnightblue" stroke="midnightblue" points="577.09,-72.6996 566.535,-73.6259 575.364,-79.4835 577.09,-72.6996"/>
</g>
<!-- Node12 -->
<g id="node12" class="node"><title>Node12</title>
<polygon fill="white" stroke="#bfbfbf" points="584.5,-56.5 584.5,-75.5 628.5,-75.5 628.5,-56.5 584.5,-56.5"/>
<text text-anchor="middle" x="606.5" y="-63.5" font-family="Helvetica,sans-Serif" font-size="10.00">cmath</text>
</g>
<!-- Node2&#45;&gt;Node12 -->
<g id="edge11" class="edge"><title>Node2&#45;&gt;Node12</title>
<path fill="none" stroke="midnightblue" d="M746.197,-112.444C716.912,-102.917 669.589,-87.5228 638.262,-77.3321"/>
<polygon fill="midnightblue" stroke="midnightblue" points="639.288,-73.9855 628.696,-74.2203 637.123,-80.6422 639.288,-73.9855"/>
</g>
<!-- Node13 -->
<g id="node13" class="node"><title>Node13</title>
<polygon fill="white" stroke="#bfbfbf" points="647,-56.5 647,-75.5 692,-75.5 692,-56.5 647,-56.5"/>
<text text-anchor="middle" x="669.5" y="-63.5" font-family="Helvetica,sans-Serif" font-size="10.00">iosfwd</text>
</g>
<!-- Node2&#45;&gt;Node13 -->
<g id="edge12" class="edge"><title>Node2&#45;&gt;Node13</title>
<path fill="none" stroke="midnightblue" d="M755.951,-112.324C739.508,-103.703 714.065,-90.3643 695.032,-80.3855"/>
<polygon fill="midnightblue" stroke="midnightblue" points="696.489,-77.198 686.008,-75.6545 693.239,-83.3977 696.489,-77.198"/>
</g>
<!-- Node14 -->
<g id="node14" class="node"><title>Node14</title>
<polygon fill="white" stroke="#bfbfbf" points="710.5,-56.5 710.5,-75.5 764.5,-75.5 764.5,-56.5 710.5,-56.5"/>
<text text-anchor="middle" x="737.5" y="-63.5" font-family="Helvetica,sans-Serif" font-size="10.00">iostream</text>
</g>
<!-- Node2&#45;&gt;Node14 -->
<g id="edge13" class="edge"><title>Node2&#45;&gt;Node14</title>
<path fill="none" stroke="midnightblue" d="M766.72,-112.083C761.828,-104.534 754.673,-93.4948 748.667,-84.2298"/>
<polygon fill="midnightblue" stroke="midnightblue" points="751.548,-82.239 743.172,-75.7511 745.674,-86.0463 751.548,-82.239"/>
</g>
<!-- Node15 -->
<g id="node15" class="node"><title>Node15</title>
<polygon fill="white" stroke="#bfbfbf" points="783,-56.5 783,-75.5 834,-75.5 834,-56.5 783,-56.5"/>
<text text-anchor="middle" x="808.5" y="-63.5" font-family="Helvetica,sans-Serif" font-size="10.00">unistd.h</text>
</g>
<!-- Node2&#45;&gt;Node15 -->
<g id="edge14" class="edge"><title>Node2&#45;&gt;Node15</title>
<path fill="none" stroke="midnightblue" d="M778.445,-112.083C783.477,-104.534 790.837,-93.4948 797.013,-84.2298"/>
<polygon fill="midnightblue" stroke="midnightblue" points="800.031,-86.0131 802.666,-75.7511 794.207,-82.1301 800.031,-86.0131"/>
</g>
<!-- Node16 -->
<g id="node16" class="node"><title>Node16</title>
<polygon fill="white" stroke="#bfbfbf" points="852.5,-56.5 852.5,-75.5 896.5,-75.5 896.5,-56.5 852.5,-56.5"/>
<text text-anchor="middle" x="874.5" y="-63.5" font-family="Helvetica,sans-Serif" font-size="10.00">fcntl.h</text>
</g>
<!-- Node2&#45;&gt;Node16 -->
<g id="edge15" class="edge"><title>Node2&#45;&gt;Node16</title>
<path fill="none" stroke="midnightblue" d="M788.888,-112.324C805.171,-103.703 830.367,-90.3643 849.216,-80.3855"/>
<polygon fill="midnightblue" stroke="midnightblue" points="850.952,-83.4267 858.153,-75.6545 847.677,-77.2402 850.952,-83.4267"/>
</g>
<!-- Node17 -->
<g id="node17" class="node"><title>Node17</title>
<polygon fill="white" stroke="#bfbfbf" points="915,-56.5 915,-75.5 956,-75.5 956,-56.5 915,-56.5"/>
<text text-anchor="middle" x="935.5" y="-63.5" font-family="Helvetica,sans-Serif" font-size="10.00">string</text>
</g>
<!-- Node2&#45;&gt;Node17 -->
<g id="edge16" class="edge"><title>Node2&#45;&gt;Node17</title>
<path fill="none" stroke="midnightblue" d="M798.328,-112.444C827.362,-102.825 874.454,-87.2238 905.203,-77.0372"/>
<polygon fill="midnightblue" stroke="midnightblue" points="906.562,-80.2739 914.954,-73.8067 904.361,-73.6291 906.562,-80.2739"/>
</g>
<!-- Node18 -->
<g id="node18" class="node"><title>Node18</title>
<polygon fill="white" stroke="#bfbfbf" points="938.5,-0.5 938.5,-19.5 982.5,-19.5 982.5,-0.5 938.5,-0.5"/>
<text text-anchor="middle" x="960.5" y="-7.5" font-family="Helvetica,sans-Serif" font-size="10.00">vector</text>
</g>
<!-- Node2&#45;&gt;Node18 -->
<g id="edge17" class="edge"><title>Node2&#45;&gt;Node18</title>
<path fill="none" stroke="midnightblue" d="M823.247,-112.44C877.092,-102.844 955.647,-87.1677 964.5,-76 974.798,-63.0091 971.988,-43.5764 967.706,-29.3425"/>
<polygon fill="midnightblue" stroke="midnightblue" points="970.93,-27.9582 964.338,-19.6641 964.319,-30.2589 970.93,-27.9582"/>
</g>
<!-- Node19 -->
<g id="node19" class="node"><title>Node19</title>
<polygon fill="white" stroke="#bfbfbf" points="1337,-56.5 1337,-75.5 1380,-75.5 1380,-56.5 1337,-56.5"/>
<text text-anchor="middle" x="1358.5" y="-63.5" font-family="Helvetica,sans-Serif" font-size="10.00">deque</text>
</g>
<!-- Node2&#45;&gt;Node19 -->
<g id="edge18" class="edge"><title>Node2&#45;&gt;Node19</title>
<path fill="none" stroke="midnightblue" d="M834.316,-112.872C837.08,-112.565 839.818,-112.273 842.5,-112 1055.33,-90.3519 1111.3,-110.066 1322.5,-76 1323.97,-75.7628 1325.47,-75.495 1326.98,-75.204"/>
<polygon fill="midnightblue" stroke="midnightblue" points="1327.9,-78.5852 1336.92,-73.0276 1326.4,-71.7471 1327.9,-78.5852"/>
</g>
<!-- Node20 -->
<g id="node20" class="node"><title>Node20</title>
<polygon fill="white" stroke="#bfbfbf" points="1000.5,-0.5 1000.5,-19.5 1044.5,-19.5 1044.5,-0.5 1000.5,-0.5"/>
<text text-anchor="middle" x="1022.5" y="-7.5" font-family="Helvetica,sans-Serif" font-size="10.00">mutex</text>
</g>
<!-- Node2&#45;&gt;Node20 -->
<g id="edge19" class="edge"><title>Node2&#45;&gt;Node20</title>
<path fill="none" stroke="midnightblue" d="M822.021,-112.498C879.896,-102.236 969.463,-85.2116 982.5,-76 998.697,-64.5559 1009.63,-44.275 1015.91,-29.4022"/>
<polygon fill="midnightblue" stroke="midnightblue" points="1019.31,-30.3205 1019.68,-19.732 1012.79,-27.7808 1019.31,-30.3205"/>
</g>
<!-- Node21 -->
<g id="node21" class="node"><title>Node21</title>
<polygon fill="white" stroke="#bfbfbf" points="1062.5,-0.5 1062.5,-19.5 1106.5,-19.5 1106.5,-0.5 1062.5,-0.5"/>
<text text-anchor="middle" x="1084.5" y="-7.5" font-family="Helvetica,sans-Serif" font-size="10.00">thread</text>
</g>
<!-- Node2&#45;&gt;Node21 -->
<g id="edge20" class="edge"><title>Node2&#45;&gt;Node21</title>
<path fill="none" stroke="midnightblue" d="M834.196,-112.699C892.924,-104.16 976.637,-90.1453 1006.5,-76 1031.5,-64.1578 1055.16,-42.407 1069.73,-27.3469"/>
<polygon fill="midnightblue" stroke="midnightblue" points="1072.55,-29.4603 1076.84,-19.7738 1067.44,-24.6694 1072.55,-29.4603"/>
</g>
<!-- Node22 -->
<g id="node22" class="node"><title>Node22</title>
<polygon fill="white" stroke="#bfbfbf" points="1171,-0.5 1171,-19.5 1266,-19.5 1266,-0.5 1171,-0.5"/>
<text text-anchor="middle" x="1218.5" y="-7.5" font-family="Helvetica,sans-Serif" font-size="10.00">condition_variable</text>
</g>
<!-- Node2&#45;&gt;Node22 -->
<g id="edge21" class="edge"><title>Node2&#45;&gt;Node22</title>
<path fill="none" stroke="midnightblue" d="M834.324,-112.945C837.086,-112.619 839.821,-112.302 842.5,-112 883.655,-107.359 1184.51,-105.576 1213.5,-76 1225.24,-64.0201 1225.06,-44.1234 1222.83,-29.493"/>
<polygon fill="midnightblue" stroke="midnightblue" points="1226.24,-28.6926 1220.89,-19.5499 1219.37,-30.0357 1226.24,-28.6926"/>
</g>
<!-- Node23 -->
<g id="node23" class="node"><title>Node23</title>
<polygon fill="white" stroke="#bfbfbf" points="1284,-0.5 1284,-19.5 1327,-19.5 1327,-0.5 1284,-0.5"/>
<text text-anchor="middle" x="1305.5" y="-7.5" font-family="Helvetica,sans-Serif" font-size="10.00">queue</text>
</g>
<!-- Node2&#45;&gt;Node23 -->
<g id="edge22" class="edge"><title>Node2&#45;&gt;Node23</title>
<path fill="none" stroke="midnightblue" d="M834.322,-112.929C837.085,-112.607 839.821,-112.296 842.5,-112 929.009,-102.449 1152.67,-110.675 1232.5,-76 1257.19,-65.276 1279.31,-42.8857 1292.57,-27.404"/>
<polygon fill="midnightblue" stroke="midnightblue" points="1295.31,-29.5728 1298.98,-19.6318 1289.91,-25.118 1295.31,-29.5728"/>
</g>
<!-- Node24 -->
<g id="node24" class="node"><title>Node24</title>
<polygon fill="white" stroke="#bfbfbf" points="1398.5,-56.5 1398.5,-75.5 1450.5,-75.5 1450.5,-56.5 1398.5,-56.5"/>
<text text-anchor="middle" x="1424.5" y="-63.5" font-family="Helvetica,sans-Serif" font-size="10.00">sstream</text>
</g>
<!-- Node2&#45;&gt;Node24 -->
<g id="edge23" class="edge"><title>Node2&#45;&gt;Node24</title>
<path fill="none" stroke="midnightblue" d="M834.313,-112.841C837.078,-112.543 839.817,-112.261 842.5,-112 1081.24,-88.804 1146.46,-112.964 1388.11,-75.72"/>
<polygon fill="midnightblue" stroke="midnightblue" points="1388.92,-79.1359 1398.27,-74.1356 1387.85,-72.2197 1388.92,-79.1359"/>
</g>
<!-- Node25 -->
<g id="node25" class="node"><title>Node25</title>
<polygon fill="white" stroke="#bfbfbf" points="1345,-0.5 1345,-19.5 1380,-19.5 1380,-0.5 1345,-0.5"/>
<text text-anchor="middle" x="1362.5" y="-7.5" font-family="Helvetica,sans-Serif" font-size="10.00">map</text>
</g>
<!-- Node2&#45;&gt;Node25 -->
<g id="edge24" class="edge"><title>Node2&#45;&gt;Node25</title>
<path fill="none" stroke="midnightblue" d="M834.32,-112.907C837.083,-112.591 839.82,-112.287 842.5,-112 1028.79,-92.0499 1085.32,-136.876 1262.5,-76 1294.43,-65.031 1326.25,-41.6712 1345.15,-26.1512"/>
<polygon fill="midnightblue" stroke="midnightblue" points="1347.48,-28.7625 1352.87,-19.6447 1342.97,-23.4074 1347.48,-28.7625"/>
</g>
<!-- Node26 -->
<g id="node26" class="node"><title>Node26</title>
<g id="a_node26"><a xlink:href="cosmos-defs_8h.html" target="_top" xlink:title="COSMOS definitions Definitions specific to the COSMOS environement. ">
<polygon fill="white" stroke="black" points="1088.5,-56.5 1088.5,-75.5 1204.5,-75.5 1204.5,-56.5 1088.5,-56.5"/>
<text text-anchor="middle" x="1146.5" y="-63.5" font-family="Helvetica,sans-Serif" font-size="10.00">support/cosmos&#45;defs.h</text>
</a>
</g>
</g>
<!-- Node2&#45;&gt;Node26 -->
<g id="edge25" class="edge"><title>Node2&#45;&gt;Node26</title>
<path fill="none" stroke="midnightblue" d="M831.761,-112.444C898.804,-102.764 1007.81,-87.0253 1078.32,-76.8437"/>
<polygon fill="midnightblue" stroke="midnightblue" points="1079.04,-80.2764 1088.44,-75.3832 1078.04,-73.3483 1079.04,-80.2764"/>
</g>
<!-- Node26&#45;&gt;Node18 -->
<g id="edge27" class="edge"><title>Node26&#45;&gt;Node18</title>
<path fill="none" stroke="midnightblue" d="M1117.03,-56.4435C1083,-46.5639 1027.23,-30.3734 992.26,-20.2208"/>
<polygon fill="midnightblue" stroke="midnightblue" points="993.133,-16.8296 982.553,-17.4026 991.181,-23.552 993.133,-16.8296"/>
</g>
<!-- Node26&#45;&gt;Node20 -->
<g id="edge31" class="edge"><title>Node26&#45;&gt;Node20</title>
<path fill="none" stroke="midnightblue" d="M1126.85,-56.4435C1106.54,-47.5961 1074.6,-33.6875 1051.4,-23.5865"/>
<polygon fill="midnightblue" stroke="midnightblue" points="1052.62,-20.3002 1042.06,-19.5164 1049.83,-26.7181 1052.62,-20.3002"/>
</g>
<!-- Node26&#45;&gt;Node21 -->
<g id="edge30" class="edge"><title>Node26&#45;&gt;Node21</title>
<path fill="none" stroke="midnightblue" d="M1136.54,-56.324C1127.37,-48.3414 1113.56,-36.3128 1102.47,-26.6529"/>
<polygon fill="midnightblue" stroke="midnightblue" points="1104.48,-23.7624 1094.64,-19.8339 1099.88,-29.041 1104.48,-23.7624"/>
</g>
<!-- Node26&#45;&gt;Node22 -->
<g id="edge32" class="edge"><title>Node26&#45;&gt;Node22</title>
<path fill="none" stroke="midnightblue" d="M1158.07,-56.324C1168.92,-48.1849 1185.38,-35.8395 1198.38,-26.0874"/>
<polygon fill="midnightblue" stroke="midnightblue" points="1200.82,-28.6339 1206.72,-19.8339 1196.62,-23.0339 1200.82,-28.6339"/>
</g>
<!-- Node26&#45;&gt;Node23 -->
<g id="edge29" class="edge"><title>Node26&#45;&gt;Node23</title>
<path fill="none" stroke="midnightblue" d="M1171.69,-56.4435C1199.54,-46.985 1244.43,-31.7421 1274.43,-21.551"/>
<polygon fill="midnightblue" stroke="midnightblue" points="1275.65,-24.8342 1283.99,-18.3042 1273.4,-18.206 1275.65,-24.8342"/>
</g>
<!-- Node26&#45;&gt;Node25 -->
<g id="edge26" class="edge"><title>Node26&#45;&gt;Node25</title>
<path fill="none" stroke="midnightblue" d="M1186.95,-56.4499C1223.3,-48.5269 1278.31,-35.945 1335,-19.9421"/>
<polygon fill="midnightblue" stroke="midnightblue" points="1336.19,-23.2404 1344.85,-17.1306 1334.27,-16.5091 1336.19,-23.2404"/>
</g>
<!-- Node27 -->
<g id="node27" class="node"><title>Node27</title>
<polygon fill="white" stroke="#bfbfbf" points="1124,-0.5 1124,-19.5 1153,-19.5 1153,-0.5 1124,-0.5"/>
<text text-anchor="middle" x="1138.5" y="-7.5" font-family="Helvetica,sans-Serif" font-size="10.00">list</text>
</g>
<!-- Node26&#45;&gt;Node27 -->
<g id="edge28" class="edge"><title>Node26&#45;&gt;Node27</title>
<path fill="none" stroke="midnightblue" d="M1145.18,-56.083C1144.12,-48.9272 1142.59,-38.6353 1141.27,-29.6911"/>
<polygon fill="midnightblue" stroke="midnightblue" points="1144.72,-29.1302 1139.8,-19.7511 1137.8,-30.1561 1144.72,-29.1302"/>
</g>
<!-- Node28&#45;&gt;Node2 -->
<g id="edge34" class="edge"><title>Node28&#45;&gt;Node2</title>
<path fill="none" stroke="midnightblue" d="M846.361,-168.324C832.634,-159.9 811.564,-146.971 795.436,-137.074"/>
<polygon fill="midnightblue" stroke="midnightblue" points="796.957,-133.902 786.604,-131.655 793.296,-139.868 796.957,-133.902"/>
</g>
<!-- Node29 -->
<g id="node29" class="node"><title>Node29</title>
<polygon fill="white" stroke="#bfbfbf" points="852,-112.5 852,-131.5 899,-131.5 899,-112.5 852,-112.5"/>
<text text-anchor="middle" x="875.5" y="-119.5" font-family="Helvetica,sans-Serif" font-size="10.00">errno.h</text>
</g>
<!-- Node28&#45;&gt;Node29 -->
<g id="edge35" class="edge"><title>Node28&#45;&gt;Node29</title>
<path fill="none" stroke="midnightblue" d="M862.977,-168.083C864.986,-160.849 867.886,-150.409 870.39,-141.397"/>
<polygon fill="midnightblue" stroke="midnightblue" points="873.765,-142.323 873.069,-131.751 867.02,-140.449 873.765,-142.323"/>
</g>
</g>
</svg>
