<?xml version="1.0" encoding="UTF-8" standalone="no"?>
<!DOCTYPE svg PUBLIC "-//W3C//DTD SVG 1.1//EN"
 "http://www.w3.org/Graphics/SVG/1.1/DTD/svg11.dtd">
<!-- Generated by graphviz version 2.38.0 (20140413.2041)
 -->
<!-- Title: jsonobject.cpp Pages: 1 -->
<!--zoomable 420 -->
<svg id="main" version="1.1" xmlns="http://www.w3.org/2000/svg" xmlns:xlink="http://www.w3.org/1999/xlink" xml:space="preserve" onload="init(evt)">
<style type="text/css"><![CDATA[
.edge:hover path { stroke: red; }
.edge:hover polygon { stroke: red; fill: red; }
]]></style>
<script type="text/javascript"><![CDATA[
var edges = document.getElementsByTagName('g');
if (edges && edges.length) {
  for (var i=0;i<edges.length;i++) {
    if (edges[i].id.substr(0,4)=='edge') {
      edges[i].setAttribute('class','edge');
    }
  }
}
]]></script>
        <defs>
                <circle id="rim" cx="0" cy="0" r="7"/>
                <circle id="rim2" cx="0" cy="0" r="3.5"/>
                <g id="zoomPlus">
                        <use xlink:href="#rim" fill="#404040">
                                <set attributeName="fill" to="#808080" begin="zoomplus.mouseover" end="zoomplus.mouseout"/>
                        </use>
                        <path d="M-4,0h8M0,-4v8" fill="none" stroke="white" stroke-width="1.5" pointer-events="none"/>
                </g>
                <g id="zoomMin">
                        <use xlink:href="#rim" fill="#404040">
                                <set attributeName="fill" to="#808080" begin="zoomminus.mouseover" end="zoomminus.mouseout"/>
                        </use>
                        <path d="M-4,0h8" fill="none" stroke="white" stroke-width="1.5" pointer-events="none"/>
                </g>
                <g id="dirArrow">
                        <path fill="none" stroke="white" stroke-width="1.5" d="M0,-3.0v7 M-2.5,-0.5L0,-3.0L2.5,-0.5"/>
                </g>
               <g id="resetDef">
                       <use xlink:href="#rim2" fill="#404040">
                               <set attributeName="fill" to="#808080" begin="reset.mouseover" end="reset.mouseout"/>
                       </use>
               </g>
        </defs>

<script type="text/javascript">
var viewWidth = 1472;
var viewHeight = 420;
var sectionId = 'dynsection-0';
</script>
<script xlink:href="svgpan.js"/>
<svg id="graph" class="graph">
<g id="viewport">
<title>jsonobject.cpp</title>
<polygon fill="white" stroke="none" points="-4,4 -4,-416 1467.69,-416 1467.69,4 -4,4"/>
<!-- Node1 -->
<g id="node1" class="node"><title>Node1</title>
<polygon fill="#bfbfbf" stroke="black" points="761,-392.5 761,-411.5 841,-411.5 841,-392.5 761,-392.5"/>
<text text-anchor="middle" x="801" y="-399.5" font-family="Helvetica,sans-Serif" font-size="10.00">jsonobject.cpp</text>
</g>
<!-- Node2 -->
<g id="node2" class="node"><title>Node2</title>
<g id="a_node2"><a xlink:href="jsonobject_8h.html" target="_top" xlink:title="support/jsonobject.h">
<polygon fill="white" stroke="black" points="749,-336.5 749,-355.5 853,-355.5 853,-336.5 749,-336.5"/>
<text text-anchor="middle" x="801" y="-343.5" font-family="Helvetica,sans-Serif" font-size="10.00">support/jsonobject.h</text>
</a>
</g>
</g>
<!-- Node1&#45;&gt;Node2 -->
<g id="edge1" class="edge"><title>Node1&#45;&gt;Node2</title>
<path fill="none" stroke="midnightblue" d="M801,-392.083C801,-385.006 801,-374.861 801,-365.986"/>
<polygon fill="midnightblue" stroke="midnightblue" points="804.5,-365.751 801,-355.751 797.5,-365.751 804.5,-365.751"/>
</g>
<!-- Node3 -->
<g id="node3" class="node"><title>Node3</title>
<g id="a_node3"><a xlink:href="jsonvalue_8h.html" target="_top" xlink:title="support/jsonvalue.h">
<polygon fill="white" stroke="black" points="750.5,-280.5 750.5,-299.5 851.5,-299.5 851.5,-280.5 750.5,-280.5"/>
<text text-anchor="middle" x="801" y="-287.5" font-family="Helvetica,sans-Serif" font-size="10.00">support/jsonvalue.h</text>
</a>
</g>
</g>
<!-- Node2&#45;&gt;Node3 -->
<g id="edge2" class="edge"><title>Node2&#45;&gt;Node3</title>
<path fill="none" stroke="midnightblue" d="M801,-336.083C801,-329.006 801,-318.861 801,-309.986"/>
<polygon fill="midnightblue" stroke="midnightblue" points="804.5,-309.751 801,-299.751 797.5,-309.751 804.5,-309.751"/>
</g>
<!-- Node4 -->
<g id="node4" class="node"><title>Node4</title>
<g id="a_node4"><a xlink:href="config_cosmos_8h.html" target="_top" xlink:title="Headers and definitions common to all COSMOS. ">
<polygon fill="white" stroke="black" points="777.5,-112.5 777.5,-131.5 900.5,-131.5 900.5,-112.5 777.5,-112.5"/>
<text text-anchor="middle" x="839" y="-119.5" font-family="Helvetica,sans-Serif" font-size="10.00">support/configCosmos.h</text>
</a>
</g>
</g>
<!-- Node3&#45;&gt;Node4 -->
<g id="edge3" class="edge"><title>Node3&#45;&gt;Node4</title>
<path fill="none" stroke="midnightblue" d="M803.043,-280.075C809.025,-253.945 826.59,-177.211 834.747,-141.577"/>
<polygon fill="midnightblue" stroke="midnightblue" points="838.219,-142.097 837.039,-131.568 831.395,-140.535 838.219,-142.097"/>
</g>
<!-- Node30 -->
<g id="node30" class="node"><title>Node30</title>
<g id="a_node30"><a xlink:href="vector_8h.html" target="_top" xlink:title="math/vector.h">
<polygon fill="white" stroke="black" points="853.5,-224.5 853.5,-243.5 930.5,-243.5 930.5,-224.5 853.5,-224.5"/>
<text text-anchor="middle" x="892" y="-231.5" font-family="Helvetica,sans-Serif" font-size="10.00">math/vector.h</text>
</a>
</g>
</g>
<!-- Node3&#45;&gt;Node30 -->
<g id="edge35" class="edge"><title>Node3&#45;&gt;Node30</title>
<path fill="none" stroke="midnightblue" d="M815.621,-280.324C829.949,-271.822 852.013,-258.729 868.749,-248.797"/>
<polygon fill="midnightblue" stroke="midnightblue" points="870.602,-251.768 877.416,-243.655 867.03,-245.748 870.602,-251.768"/>
</g>
<!-- Node5 -->
<g id="node5" class="node"><title>Node5</title>
<polygon fill="white" stroke="#bfbfbf" points="850.5,-56.5 850.5,-75.5 895.5,-75.5 895.5,-56.5 850.5,-56.5"/>
<text text-anchor="middle" x="873" y="-63.5" font-family="Helvetica,sans-Serif" font-size="10.00">climits</text>
</g>
<!-- Node4&#45;&gt;Node5 -->
<g id="edge4" class="edge"><title>Node4&#45;&gt;Node5</title>
<path fill="none" stroke="midnightblue" d="M844.614,-112.083C849.367,-104.534 856.318,-93.4948 862.152,-84.2298"/>
<polygon fill="midnightblue" stroke="midnightblue" points="865.124,-86.0783 867.49,-75.7511 859.2,-82.3486 865.124,-86.0783"/>
</g>
<!-- Node6 -->
<g id="node6" class="node"><title>Node6</title>
<polygon fill="white" stroke="#bfbfbf" points="913.5,-56.5 913.5,-75.5 960.5,-75.5 960.5,-56.5 913.5,-56.5"/>
<text text-anchor="middle" x="937" y="-63.5" font-family="Helvetica,sans-Serif" font-size="10.00">csignal</text>
</g>
<!-- Node4&#45;&gt;Node6 -->
<g id="edge5" class="edge"><title>Node4&#45;&gt;Node6</title>
<path fill="none" stroke="midnightblue" d="M854.745,-112.324C870.319,-103.743 894.377,-90.486 912.459,-80.5224"/>
<polygon fill="midnightblue" stroke="midnightblue" points="914.224,-83.546 921.294,-75.6545 910.846,-77.4152 914.224,-83.546"/>
</g>
<!-- Node7 -->
<g id="node7" class="node"><title>Node7</title>
<polygon fill="white" stroke="#bfbfbf" points="1341,-56.5 1341,-75.5 1387,-75.5 1387,-56.5 1341,-56.5"/>
<text text-anchor="middle" x="1364" y="-63.5" font-family="Helvetica,sans-Serif" font-size="10.00">cstdint</text>
</g>
<!-- Node4&#45;&gt;Node7 -->
<g id="edge6" class="edge"><title>Node4&#45;&gt;Node7</title>
<path fill="none" stroke="midnightblue" d="M900.616,-118.22C993.549,-113.374 1174.89,-101.372 1327,-76 1328.25,-75.792 1329.51,-75.5648 1330.79,-75.3225"/>
<polygon fill="midnightblue" stroke="midnightblue" points="1331.56,-78.7366 1340.62,-73.2357 1330.11,-71.8893 1331.56,-78.7366"/>
</g>
<!-- Node8 -->
<g id="node8" class="node"><title>Node8</title>
<polygon fill="white" stroke="#bfbfbf" points="72,-56.5 72,-75.5 128,-75.5 128,-56.5 72,-56.5"/>
<text text-anchor="middle" x="100" y="-63.5" font-family="Helvetica,sans-Serif" font-size="10.00">cinttypes</text>
</g>
<!-- Node4&#45;&gt;Node8 -->
<g id="edge7" class="edge"><title>Node4&#45;&gt;Node8</title>
<path fill="none" stroke="midnightblue" d="M777.23,-113.369C772.419,-112.871 767.632,-112.407 763,-112 488.641,-87.8884 414.368,-116.418 138.092,-75.8825"/>
<polygon fill="midnightblue" stroke="midnightblue" points="138.583,-72.4172 128.178,-74.4112 137.555,-79.3413 138.583,-72.4172"/>
</g>
<!-- Node9 -->
<g id="node9" class="node"><title>Node9</title>
<polygon fill="white" stroke="#bfbfbf" points="146.5,-56.5 146.5,-75.5 189.5,-75.5 189.5,-56.5 146.5,-56.5"/>
<text text-anchor="middle" x="168" y="-63.5" font-family="Helvetica,sans-Serif" font-size="10.00">cstdio</text>
</g>
<!-- Node4&#45;&gt;Node9 -->
<g id="edge8" class="edge"><title>Node4&#45;&gt;Node9</title>
<path fill="none" stroke="midnightblue" d="M777.228,-113.401C772.417,-112.896 767.631,-112.421 763,-112 515.719,-89.4971 447.457,-119.625 199.837,-75.9612"/>
<polygon fill="midnightblue" stroke="midnightblue" points="200.275,-72.4842 189.815,-74.1714 199.044,-79.3751 200.275,-72.4842"/>
</g>
<!-- Node10 -->
<g id="node10" class="node"><title>Node10</title>
<polygon fill="white" stroke="#bfbfbf" points="207.5,-56.5 207.5,-75.5 256.5,-75.5 256.5,-56.5 207.5,-56.5"/>
<text text-anchor="middle" x="232" y="-63.5" font-family="Helvetica,sans-Serif" font-size="10.00">cstddef</text>
</g>
<!-- Node4&#45;&gt;Node10 -->
<g id="edge9" class="edge"><title>Node4&#45;&gt;Node10</title>
<path fill="none" stroke="midnightblue" d="M777.223,-113.445C772.413,-112.93 767.629,-112.441 763,-112 545.326,-91.2546 485.486,-112.723 266.618,-75.9815"/>
<polygon fill="midnightblue" stroke="midnightblue" points="267.196,-72.5296 256.751,-74.304 266.023,-79.4306 267.196,-72.5296"/>
</g>
<!-- Node11 -->
<g id="node11" class="node"><title>Node11</title>
<polygon fill="white" stroke="#bfbfbf" points="274.5,-56.5 274.5,-75.5 319.5,-75.5 319.5,-56.5 274.5,-56.5"/>
<text text-anchor="middle" x="297" y="-63.5" font-family="Helvetica,sans-Serif" font-size="10.00">cstdlib</text>
</g>
<!-- Node4&#45;&gt;Node11 -->
<g id="edge10" class="edge"><title>Node4&#45;&gt;Node11</title>
<path fill="none" stroke="midnightblue" d="M777.218,-113.5C772.409,-112.972 767.627,-112.466 763,-112 573.713,-92.9475 521.26,-109.763 329.719,-75.7547"/>
<polygon fill="midnightblue" stroke="midnightblue" points="330.062,-72.2604 319.601,-73.9343 328.823,-79.1497 330.062,-72.2604"/>
</g>
<!-- Node12 -->
<g id="node12" class="node"><title>Node12</title>
<polygon fill="white" stroke="#bfbfbf" points="338,-56.5 338,-75.5 382,-75.5 382,-56.5 338,-56.5"/>
<text text-anchor="middle" x="360" y="-63.5" font-family="Helvetica,sans-Serif" font-size="10.00">cerrno</text>
</g>
<!-- Node4&#45;&gt;Node12 -->
<g id="edge11" class="edge"><title>Node4&#45;&gt;Node12</title>
<path fill="none" stroke="midnightblue" d="M777.211,-113.571C772.404,-113.027 767.624,-112.497 763,-112 601.073,-94.5791 555.886,-106.793 392.158,-75.8897"/>
<polygon fill="midnightblue" stroke="midnightblue" points="392.71,-72.4319 382.23,-73.991 391.395,-79.3073 392.71,-72.4319"/>
</g>
<!-- Node13 -->
<g id="node13" class="node"><title>Node13</title>
<polygon fill="white" stroke="#bfbfbf" points="400,-56.5 400,-75.5 446,-75.5 446,-56.5 400,-56.5"/>
<text text-anchor="middle" x="423" y="-63.5" font-family="Helvetica,sans-Serif" font-size="10.00">cstring</text>
</g>
<!-- Node4&#45;&gt;Node13 -->
<g id="edge12" class="edge"><title>Node4&#45;&gt;Node13</title>
<path fill="none" stroke="midnightblue" d="M777.199,-113.674C772.395,-113.106 767.618,-112.543 763,-112 629.331,-96.2736 591.941,-102.432 456.258,-75.9784"/>
<polygon fill="midnightblue" stroke="midnightblue" points="456.804,-72.5188 446.316,-74.0166 455.449,-79.3864 456.804,-72.5188"/>
</g>
<!-- Node14 -->
<g id="node14" class="node"><title>Node14</title>
<polygon fill="white" stroke="#bfbfbf" points="1405,-56.5 1405,-75.5 1449,-75.5 1449,-56.5 1405,-56.5"/>
<text text-anchor="middle" x="1427" y="-63.5" font-family="Helvetica,sans-Serif" font-size="10.00">cmath</text>
</g>
<!-- Node4&#45;&gt;Node14 -->
<g id="edge13" class="edge"><title>Node4&#45;&gt;Node14</title>
<path fill="none" stroke="midnightblue" d="M900.519,-120.076C1001.94,-117.668 1210.54,-108.988 1394.91,-75.8373"/>
<polygon fill="midnightblue" stroke="midnightblue" points="1395.57,-79.2741 1404.78,-74.0343 1394.31,-72.388 1395.57,-79.2741"/>
</g>
<!-- Node15 -->
<g id="node15" class="node"><title>Node15</title>
<polygon fill="white" stroke="#bfbfbf" points="464.5,-56.5 464.5,-75.5 509.5,-75.5 509.5,-56.5 464.5,-56.5"/>
<text text-anchor="middle" x="487" y="-63.5" font-family="Helvetica,sans-Serif" font-size="10.00">iosfwd</text>
</g>
<!-- Node4&#45;&gt;Node15 -->
<g id="edge14" class="edge"><title>Node4&#45;&gt;Node15</title>
<path fill="none" stroke="midnightblue" d="M777.256,-113.322C702.865,-103.906 581.208,-87.9409 519.685,-75.8323"/>
<polygon fill="midnightblue" stroke="midnightblue" points="520.132,-72.3511 509.632,-73.7716 518.726,-79.2085 520.132,-72.3511"/>
</g>
<!-- Node16 -->
<g id="node16" class="node"><title>Node16</title>
<polygon fill="white" stroke="#bfbfbf" points="0,-56.5 0,-75.5 54,-75.5 54,-56.5 0,-56.5"/>
<text text-anchor="middle" x="27" y="-63.5" font-family="Helvetica,sans-Serif" font-size="10.00">iostream</text>
</g>
<!-- Node4&#45;&gt;Node16 -->
<g id="edge15" class="edge"><title>Node4&#45;&gt;Node16</title>
<path fill="none" stroke="midnightblue" d="M777.233,-113.338C772.421,-112.847 767.634,-112.393 763,-112 455.927,-85.9509 372.885,-121.22 64.1516,-75.8559"/>
<polygon fill="midnightblue" stroke="midnightblue" points="64.4196,-72.3574 54.0137,-74.3494 63.3906,-79.2814 64.4196,-72.3574"/>
</g>
<!-- Node17 -->
<g id="node17" class="node"><title>Node17</title>
<polygon fill="white" stroke="#bfbfbf" points="527.5,-56.5 527.5,-75.5 578.5,-75.5 578.5,-56.5 527.5,-56.5"/>
<text text-anchor="middle" x="553" y="-63.5" font-family="Helvetica,sans-Serif" font-size="10.00">unistd.h</text>
</g>
<!-- Node4&#45;&gt;Node17 -->
<g id="edge16" class="edge"><title>Node4&#45;&gt;Node17</title>
<path fill="none" stroke="midnightblue" d="M784.913,-112.496C736.115,-104.554 662.17,-91.8537 588.483,-75.9659"/>
<polygon fill="midnightblue" stroke="midnightblue" points="589.078,-72.5133 578.562,-73.8067 587.589,-79.3532 589.078,-72.5133"/>
</g>
<!-- Node18 -->
<g id="node18" class="node"><title>Node18</title>
<polygon fill="white" stroke="#bfbfbf" points="597,-56.5 597,-75.5 641,-75.5 641,-56.5 597,-56.5"/>
<text text-anchor="middle" x="619" y="-63.5" font-family="Helvetica,sans-Serif" font-size="10.00">fcntl.h</text>
</g>
<!-- Node4&#45;&gt;Node18 -->
<g id="edge17" class="edge"><title>Node4&#45;&gt;Node18</title>
<path fill="none" stroke="midnightblue" d="M801.439,-112.466C763.413,-103.719 702.967,-89.5218 651,-76 650.899,-75.9737 650.797,-75.9472 650.696,-75.9207"/>
<polygon fill="midnightblue" stroke="midnightblue" points="651.569,-72.5313 641.003,-73.3108 649.749,-79.2906 651.569,-72.5313"/>
</g>
<!-- Node19 -->
<g id="node19" class="node"><title>Node19</title>
<polygon fill="white" stroke="#bfbfbf" points="659.5,-56.5 659.5,-75.5 700.5,-75.5 700.5,-56.5 659.5,-56.5"/>
<text text-anchor="middle" x="680" y="-63.5" font-family="Helvetica,sans-Serif" font-size="10.00">string</text>
</g>
<!-- Node4&#45;&gt;Node19 -->
<g id="edge18" class="edge"><title>Node4&#45;&gt;Node19</title>
<path fill="none" stroke="midnightblue" d="M813.806,-112.444C785.641,-102.878 740.058,-87.3969 710.055,-77.2075"/>
<polygon fill="midnightblue" stroke="midnightblue" points="711.12,-73.8728 700.526,-73.971 708.869,-80.501 711.12,-73.8728"/>
</g>
<!-- Node20 -->
<g id="node20" class="node"><title>Node20</title>
<polygon fill="white" stroke="#bfbfbf" points="1320,-0.5 1320,-19.5 1364,-19.5 1364,-0.5 1320,-0.5"/>
<text text-anchor="middle" x="1342" y="-7.5" font-family="Helvetica,sans-Serif" font-size="10.00">vector</text>
</g>
<!-- Node4&#45;&gt;Node20 -->
<g id="edge19" class="edge"><title>Node4&#45;&gt;Node20</title>
<path fill="none" stroke="midnightblue" d="M900.566,-118.68C1001.5,-114.173 1197.32,-102.27 1261,-76 1287.68,-64.9925 1312.67,-42.3321 1327.65,-26.8982"/>
<polygon fill="midnightblue" stroke="midnightblue" points="1330.22,-29.2689 1334.52,-19.586 1325.12,-24.4738 1330.22,-29.2689"/>
</g>
<!-- Node21 -->
<g id="node21" class="node"><title>Node21</title>
<polygon fill="white" stroke="#bfbfbf" points="718.5,-56.5 718.5,-75.5 761.5,-75.5 761.5,-56.5 718.5,-56.5"/>
<text text-anchor="middle" x="740" y="-63.5" font-family="Helvetica,sans-Serif" font-size="10.00">deque</text>
</g>
<!-- Node4&#45;&gt;Node21 -->
<g id="edge20" class="edge"><title>Node4&#45;&gt;Node21</title>
<path fill="none" stroke="midnightblue" d="M823.094,-112.324C807.362,-103.743 783.058,-90.486 764.791,-80.5224"/>
<polygon fill="midnightblue" stroke="midnightblue" points="766.322,-77.3704 755.867,-75.6545 762.97,-83.5157 766.322,-77.3704"/>
</g>
<!-- Node22 -->
<g id="node22" class="node"><title>Node22</title>
<polygon fill="white" stroke="#bfbfbf" points="921,-0.5 921,-19.5 965,-19.5 965,-0.5 921,-0.5"/>
<text text-anchor="middle" x="943" y="-7.5" font-family="Helvetica,sans-Serif" font-size="10.00">mutex</text>
</g>
<!-- Node4&#45;&gt;Node22 -->
<g id="edge21" class="edge"><title>Node4&#45;&gt;Node22</title>
<path fill="none" stroke="midnightblue" d="M900.502,-115.418C926.353,-109.677 954.072,-98.3125 970,-76 980.7,-61.0102 969.442,-41.1404 958.373,-27.3325"/>
<polygon fill="midnightblue" stroke="midnightblue" points="960.89,-24.8928 951.703,-19.6163 955.595,-29.4705 960.89,-24.8928"/>
</g>
<!-- Node23 -->
<g id="node23" class="node"><title>Node23</title>
<polygon fill="white" stroke="#bfbfbf" points="983,-0.5 983,-19.5 1027,-19.5 1027,-0.5 983,-0.5"/>
<text text-anchor="middle" x="1005" y="-7.5" font-family="Helvetica,sans-Serif" font-size="10.00">thread</text>
</g>
<!-- Node4&#45;&gt;Node23 -->
<g id="edge22" class="edge"><title>Node4&#45;&gt;Node23</title>
<path fill="none" stroke="midnightblue" d="M900.697,-115.619C930.071,-110.008 963.591,-98.6952 986,-76 997.993,-63.8537 1002.49,-44.5776 1004.14,-30.1658"/>
<polygon fill="midnightblue" stroke="midnightblue" points="1007.66,-30.1211 1004.94,-19.8797 1000.68,-29.5782 1007.66,-30.1211"/>
</g>
<!-- Node24 -->
<g id="node24" class="node"><title>Node24</title>
<polygon fill="white" stroke="#bfbfbf" points="1045.5,-0.5 1045.5,-19.5 1140.5,-19.5 1140.5,-0.5 1045.5,-0.5"/>
<text text-anchor="middle" x="1093" y="-7.5" font-family="Helvetica,sans-Serif" font-size="10.00">condition_variable</text>
</g>
<!-- Node4&#45;&gt;Node24 -->
<g id="edge23" class="edge"><title>Node4&#45;&gt;Node24</title>
<path fill="none" stroke="midnightblue" d="M889.018,-112.491C922.893,-105.53 968.039,-93.8752 1005,-76 1031.79,-63.043 1058.75,-41.5968 1075.64,-26.9071"/>
<polygon fill="midnightblue" stroke="midnightblue" points="1078.35,-29.1816 1083.5,-19.9219 1073.7,-23.9497 1078.35,-29.1816"/>
</g>
<!-- Node25 -->
<g id="node25" class="node"><title>Node25</title>
<polygon fill="white" stroke="#bfbfbf" points="1205.5,-0.5 1205.5,-19.5 1248.5,-19.5 1248.5,-0.5 1205.5,-0.5"/>
<text text-anchor="middle" x="1227" y="-7.5" font-family="Helvetica,sans-Serif" font-size="10.00">queue</text>
</g>
<!-- Node4&#45;&gt;Node25 -->
<g id="edge24" class="edge"><title>Node4&#45;&gt;Node25</title>
<path fill="none" stroke="midnightblue" d="M900.716,-117.754C1002.31,-111.816 1195.8,-97.7774 1218,-76 1230.06,-64.1765 1231.17,-44.255 1229.97,-29.5761"/>
<polygon fill="midnightblue" stroke="midnightblue" points="1233.44,-29.0929 1228.74,-19.5939 1226.49,-29.9459 1233.44,-29.0929"/>
</g>
<!-- Node26 -->
<g id="node26" class="node"><title>Node26</title>
<polygon fill="white" stroke="#bfbfbf" points="780,-56.5 780,-75.5 832,-75.5 832,-56.5 780,-56.5"/>
<text text-anchor="middle" x="806" y="-63.5" font-family="Helvetica,sans-Serif" font-size="10.00">sstream</text>
</g>
<!-- Node4&#45;&gt;Node26 -->
<g id="edge25" class="edge"><title>Node4&#45;&gt;Node26</title>
<path fill="none" stroke="midnightblue" d="M833.551,-112.083C828.986,-104.613 822.332,-93.7244 816.707,-84.5199"/>
<polygon fill="midnightblue" stroke="midnightblue" points="819.549,-82.4588 811.348,-75.7511 813.576,-86.109 819.549,-82.4588"/>
</g>
<!-- Node27 -->
<g id="node27" class="node"><title>Node27</title>
<polygon fill="white" stroke="#bfbfbf" points="1266.5,-0.5 1266.5,-19.5 1301.5,-19.5 1301.5,-0.5 1266.5,-0.5"/>
<text text-anchor="middle" x="1284" y="-7.5" font-family="Helvetica,sans-Serif" font-size="10.00">map</text>
</g>
<!-- Node4&#45;&gt;Node27 -->
<g id="edge26" class="edge"><title>Node4&#45;&gt;Node27</title>
<path fill="none" stroke="midnightblue" d="M900.65,-120.033C997.849,-117.521 1181.38,-108.487 1237,-76 1255.37,-65.271 1268.55,-44.2038 1276.19,-28.9554"/>
<polygon fill="midnightblue" stroke="midnightblue" points="1279.54,-30.0686 1280.6,-19.527 1273.2,-27.1062 1279.54,-30.0686"/>
</g>
<!-- Node28 -->
<g id="node28" class="node"><title>Node28</title>
<g id="a_node28"><a xlink:href="cosmos-defs_8h.html" target="_top" xlink:title="COSMOS definitions Definitions specific to the COSMOS environement. ">
<polygon fill="white" stroke="black" points="1093,-56.5 1093,-75.5 1209,-75.5 1209,-56.5 1093,-56.5"/>
<text text-anchor="middle" x="1151" y="-63.5" font-family="Helvetica,sans-Serif" font-size="10.00">support/cosmos&#45;defs.h</text>
</a>
</g>
</g>
<!-- Node4&#45;&gt;Node28 -->
<g id="edge27" class="edge"><title>Node4&#45;&gt;Node28</title>
<path fill="none" stroke="midnightblue" d="M888.437,-112.444C943.664,-102.885 1033.02,-87.4195 1091.89,-77.2298"/>
<polygon fill="midnightblue" stroke="midnightblue" points="1092.54,-80.6707 1101.79,-75.5164 1091.34,-73.7732 1092.54,-80.6707"/>
</g>
<!-- Node28&#45;&gt;Node20 -->
<g id="edge29" class="edge"><title>Node28&#45;&gt;Node20</title>
<path fill="none" stroke="midnightblue" d="M1181.69,-56.4495C1211.97,-47.998 1259.81,-34.5933 1310.22,-20.2071"/>
<polygon fill="midnightblue" stroke="midnightblue" points="1311.34,-23.5272 1319.99,-17.4144 1309.41,-16.7966 1311.34,-23.5272"/>
</g>
<!-- Node28&#45;&gt;Node22 -->
<g id="edge33" class="edge"><title>Node28&#45;&gt;Node22</title>
<path fill="none" stroke="midnightblue" d="M1115.98,-56.4652C1082.23,-48.1589 1029.5,-34.9673 975.133,-20.2462"/>
<polygon fill="midnightblue" stroke="midnightblue" points="975.894,-16.826 965.326,-17.5788 974.057,-23.5807 975.894,-16.826"/>
</g>
<!-- Node28&#45;&gt;Node23 -->
<g id="edge32" class="edge"><title>Node28&#45;&gt;Node23</title>
<path fill="none" stroke="midnightblue" d="M1127.87,-56.4435C1103.23,-47.3322 1064.08,-32.8531 1036.61,-22.6929"/>
<polygon fill="midnightblue" stroke="midnightblue" points="1037.66,-19.3493 1027.07,-19.1629 1035.24,-25.9146 1037.66,-19.3493"/>
</g>
<!-- Node28&#45;&gt;Node24 -->
<g id="edge34" class="edge"><title>Node28&#45;&gt;Node24</title>
<path fill="none" stroke="midnightblue" d="M1141.68,-56.324C1133.11,-48.3414 1120.19,-36.3128 1109.81,-26.6529"/>
<polygon fill="midnightblue" stroke="midnightblue" points="1112.19,-24.0865 1102.49,-19.8339 1107.42,-29.2098 1112.19,-24.0865"/>
</g>
<!-- Node28&#45;&gt;Node25 -->
<g id="edge31" class="edge"><title>Node28&#45;&gt;Node25</title>
<path fill="none" stroke="midnightblue" d="M1163.21,-56.324C1174.78,-48.1066 1192.38,-35.6017 1206.16,-25.8069"/>
<polygon fill="midnightblue" stroke="midnightblue" points="1208.44,-28.4791 1214.57,-19.8339 1204.39,-22.7729 1208.44,-28.4791"/>
</g>
<!-- Node28&#45;&gt;Node27 -->
<g id="edge28" class="edge"><title>Node28&#45;&gt;Node27</title>
<path fill="none" stroke="midnightblue" d="M1172.07,-56.4435C1195.09,-47.097 1232.03,-32.1023 1257.12,-21.9151"/>
<polygon fill="midnightblue" stroke="midnightblue" points="1258.47,-25.1417 1266.42,-18.1368 1255.84,-18.6559 1258.47,-25.1417"/>
</g>
<!-- Node29 -->
<g id="node29" class="node"><title>Node29</title>
<polygon fill="white" stroke="#bfbfbf" points="1158.5,-0.5 1158.5,-19.5 1187.5,-19.5 1187.5,-0.5 1158.5,-0.5"/>
<text text-anchor="middle" x="1173" y="-7.5" font-family="Helvetica,sans-Serif" font-size="10.00">list</text>
</g>
<!-- Node28&#45;&gt;Node29 -->
<g id="edge30" class="edge"><title>Node28&#45;&gt;Node29</title>
<path fill="none" stroke="midnightblue" d="M1154.63,-56.083C1157.61,-48.77 1161.93,-38.1814 1165.62,-29.1034"/>
<polygon fill="midnightblue" stroke="midnightblue" points="1168.9,-30.3326 1169.43,-19.7511 1162.42,-27.6914 1168.9,-30.3326"/>
</g>
<!-- Node30&#45;&gt;Node4 -->
<g id="edge36" class="edge"><title>Node30&#45;&gt;Node4</title>
<path fill="none" stroke="midnightblue" d="M883.921,-224.343C876.27,-215.725 864.947,-201.823 858,-188 850.576,-173.228 845.575,-155.071 842.575,-141.706"/>
<polygon fill="midnightblue" stroke="midnightblue" points="845.975,-140.866 840.517,-131.785 839.121,-142.288 845.975,-140.866"/>
</g>
<!-- Node30&#45;&gt;Node14 -->
<g id="edge42" class="edge"><title>Node30&#45;&gt;Node14</title>
<path fill="none" stroke="midnightblue" d="M919.637,-224.425C1010.27,-196.304 1298.18,-106.971 1394.93,-76.9501"/>
<polygon fill="midnightblue" stroke="midnightblue" points="1396.21,-80.2169 1404.73,-73.9106 1394.14,-73.5313 1396.21,-80.2169"/>
</g>
<!-- Node30&#45;&gt;Node16 -->
<g id="edge40" class="edge"><title>Node30&#45;&gt;Node16</title>
<path fill="none" stroke="midnightblue" d="M853.412,-226.51C736.189,-206.621 373.861,-143.868 64.1573,-76.1575"/>
<polygon fill="midnightblue" stroke="midnightblue" points="64.6048,-72.6726 54.0873,-73.95 63.1059,-79.5102 64.6048,-72.6726"/>
</g>
<!-- Node30&#45;&gt;Node20 -->
<g id="edge43" class="edge"><title>Node30&#45;&gt;Node20</title>
<path fill="none" stroke="midnightblue" d="M930.676,-228.352C1047.59,-213.426 1393.27,-162.566 1458,-76 1482.71,-42.9514 1416.35,-24.3634 1374.06,-16.1553"/>
<polygon fill="midnightblue" stroke="midnightblue" points="1374.62,-12.6999 1364.15,-14.3344 1373.35,-19.5846 1374.62,-12.6999"/>
</g>
<!-- Node31 -->
<g id="node31" class="node"><title>Node31</title>
<g id="a_node31"><a xlink:href="math_2constants_8h.html" target="_top" xlink:title="constants.h">
<polygon fill="white" stroke="black" points="935,-168.5 935,-187.5 1003,-187.5 1003,-168.5 935,-168.5"/>
<text text-anchor="middle" x="969" y="-175.5" font-family="Helvetica,sans-Serif" font-size="10.00">constants.h</text>
</a>
</g>
</g>
<!-- Node30&#45;&gt;Node31 -->
<g id="edge37" class="edge"><title>Node30&#45;&gt;Node31</title>
<path fill="none" stroke="midnightblue" d="M904.371,-224.324C916.158,-216.058 934.132,-203.453 948.136,-193.632"/>
<polygon fill="midnightblue" stroke="midnightblue" points="950.482,-196.262 956.659,-187.655 946.462,-190.531 950.482,-196.262"/>
</g>
<!-- Node32 -->
<g id="node32" class="node"><title>Node32</title>
<polygon fill="white" stroke="#bfbfbf" points="867,-168.5 867,-187.5 917,-187.5 917,-168.5 867,-168.5"/>
<text text-anchor="middle" x="892" y="-175.5" font-family="Helvetica,sans-Serif" font-size="10.00">iomanip</text>
</g>
<!-- Node30&#45;&gt;Node32 -->
<g id="edge41" class="edge"><title>Node30&#45;&gt;Node32</title>
<path fill="none" stroke="midnightblue" d="M892,-224.083C892,-217.006 892,-206.861 892,-197.986"/>
<polygon fill="midnightblue" stroke="midnightblue" points="895.5,-197.751 892,-187.751 888.5,-197.751 895.5,-197.751"/>
</g>
<!-- Node31&#45;&gt;Node4 -->
<g id="edge38" class="edge"><title>Node31&#45;&gt;Node4</title>
<path fill="none" stroke="midnightblue" d="M948.401,-168.444C927.007,-159.557 893.319,-145.563 868.976,-135.451"/>
<polygon fill="midnightblue" stroke="midnightblue" points="870.08,-132.12 859.503,-131.516 867.395,-138.585 870.08,-132.12"/>
</g>
<!-- Node31&#45;&gt;Node7 -->
<g id="edge39" class="edge"><title>Node31&#45;&gt;Node7</title>
<path fill="none" stroke="midnightblue" d="M999.666,-168.46C1072.55,-148.163 1255.66,-97.1713 1330.92,-76.2135"/>
<polygon fill="midnightblue" stroke="midnightblue" points="1332.1,-79.5164 1340.8,-73.4619 1330.22,-72.773 1332.1,-79.5164"/>
</g>
</g>
</svg>
        <g id="navigator" transform="translate(0 0)" fill="#404254">
                <rect fill="#f2f5e9" fill-opacity="0.5" stroke="#606060" stroke-width=".5" x="0" y="0" width="60" height="60"/>
                <use id="zoomplus" xlink:href="#zoomPlus" x="17" y="9" onmousedown="handleZoom(evt,'in')"/>
                <use id="zoomminus" xlink:href="#zoomMin" x="42" y="9" onmousedown="handleZoom(evt,'out')"/>
                <use id="reset" xlink:href="#resetDef" x="30" y="36" onmousedown="handleReset()"/>
                <g id="arrowUp" xlink:href="#dirArrow" transform="translate(30 24)" onmousedown="handlePan(0,-1)">
                  <use xlink:href="#rim" fill="#404040">
                        <set attributeName="fill" to="#808080" begin="arrowUp.mouseover" end="arrowUp.mouseout"/>
                  </use>
                  <path fill="none" stroke="white" stroke-width="1.5" d="M0,-3.0v7 M-2.5,-0.5L0,-3.0L2.5,-0.5"/>
                </g>
                <g id="arrowRight" xlink:href="#dirArrow" transform="rotate(90) translate(36 -43)" onmousedown="handlePan(1,0)">
                  <use xlink:href="#rim" fill="#404040">
                        <set attributeName="fill" to="#808080" begin="arrowRight.mouseover" end="arrowRight.mouseout"/>
                  </use>
                  <path fill="none" stroke="white" stroke-width="1.5" d="M0,-3.0v7 M-2.5,-0.5L0,-3.0L2.5,-0.5"/>
                </g>
                <g id="arrowDown" xlink:href="#dirArrow" transform="rotate(180) translate(-30 -48)" onmousedown="handlePan(0,1)">
                  <use xlink:href="#rim" fill="#404040">
                        <set attributeName="fill" to="#808080" begin="arrowDown.mouseover" end="arrowDown.mouseout"/>
                  </use>
                  <path fill="none" stroke="white" stroke-width="1.5" d="M0,-3.0v7 M-2.5,-0.5L0,-3.0L2.5,-0.5"/>
                </g>
                <g id="arrowLeft" xlink:href="#dirArrow" transform="rotate(270) translate(-36 17)" onmousedown="handlePan(-1,0)">
                  <use xlink:href="#rim" fill="#404040">
                        <set attributeName="fill" to="#808080" begin="arrowLeft.mouseover" end="arrowLeft.mouseout"/>
                  </use>
                  <path fill="none" stroke="white" stroke-width="1.5" d="M0,-3.0v7 M-2.5,-0.5L0,-3.0L2.5,-0.5"/>
                </g>
        </g>
        <svg viewBox="0 0 15 15" width="100%" height="30px" preserveAspectRatio="xMaxYMin meet">
         <g id="arrow_out" transform="scale(0.3 0.3)">
          <a xlink:href="jsonobject_8cpp__incl_org.svg" target="_base">
           <rect id="button" ry="5" rx="5" y="6" x="6" height="38" width="38"
                fill="#f2f5e9" fill-opacity="0.5" stroke="#606060" stroke-width="1.0"/>
           <path id="arrow"
             d="M 11.500037,31.436501 C 11.940474,20.09759 22.043105,11.32322 32.158766,21.979434 L 37.068811,17.246167 C 37.068811,17.246167 37.088388,32 37.088388,32 L 22.160133,31.978069 C 22.160133,31.978069 26.997745,27.140456 26.997745,27.140456 C 18.528582,18.264221 13.291696,25.230495 11.500037,31.436501 z"
             style="fill:#404040;"/>
          </a>
         </g>
        </svg>
</svg>
