<?xml version="1.0" encoding="UTF-8" standalone="no"?>
<!DOCTYPE svg PUBLIC "-//W3C//DTD SVG 1.1//EN"
 "http://www.w3.org/Graphics/SVG/1.1/DTD/svg11.dtd">
<!-- Generated by graphviz version 2.38.0 (20140413.2041)
 -->
<!-- Title: jsonvalue.cpp Pages: 1 -->
<!--zoomable 476 -->
<svg id="main" version="1.1" xmlns="http://www.w3.org/2000/svg" xmlns:xlink="http://www.w3.org/1999/xlink" xml:space="preserve" onload="init(evt)">
<style type="text/css"><![CDATA[
.edge:hover path { stroke: red; }
.edge:hover polygon { stroke: red; fill: red; }
]]></style>
<script type="text/javascript"><![CDATA[
var edges = document.getElementsByTagName('g');
if (edges && edges.length) {
  for (var i=0;i<edges.length;i++) {
    if (edges[i].id.substr(0,4)=='edge') {
      edges[i].setAttribute('class','edge');
    }
  }
}
]]></script>
        <defs>
                <circle id="rim" cx="0" cy="0" r="7"/>
                <circle id="rim2" cx="0" cy="0" r="3.5"/>
                <g id="zoomPlus">
                        <use xlink:href="#rim" fill="#404040">
                                <set attributeName="fill" to="#808080" begin="zoomplus.mouseover" end="zoomplus.mouseout"/>
                        </use>
                        <path d="M-4,0h8M0,-4v8" fill="none" stroke="white" stroke-width="1.5" pointer-events="none"/>
                </g>
                <g id="zoomMin">
                        <use xlink:href="#rim" fill="#404040">
                                <set attributeName="fill" to="#808080" begin="zoomminus.mouseover" end="zoomminus.mouseout"/>
                        </use>
                        <path d="M-4,0h8" fill="none" stroke="white" stroke-width="1.5" pointer-events="none"/>
                </g>
                <g id="dirArrow">
                        <path fill="none" stroke="white" stroke-width="1.5" d="M0,-3.0v7 M-2.5,-0.5L0,-3.0L2.5,-0.5"/>
                </g>
               <g id="resetDef">
                       <use xlink:href="#rim2" fill="#404040">
                               <set attributeName="fill" to="#808080" begin="reset.mouseover" end="reset.mouseout"/>
                       </use>
               </g>
        </defs>

<script type="text/javascript">
var viewWidth = 1479;
var viewHeight = 476;
var sectionId = 'dynsection-0';
</script>
<script xlink:href="svgpan.js"/>
<svg id="graph" class="graph">
<g id="viewport">
<title>jsonvalue.cpp</title>
<polygon fill="white" stroke="none" points="-4,4 -4,-472 1475.19,-472 1475.19,4 -4,4"/>
<!-- Node1 -->
<g id="node1" class="node"><title>Node1</title>
<polygon fill="#bfbfbf" stroke="black" points="797.687,-448.5 797.687,-467.5 874.687,-467.5 874.687,-448.5 797.687,-448.5"/>
<text text-anchor="middle" x="836.187" y="-455.5" font-family="Helvetica,sans-Serif" font-size="10.00">jsonvalue.cpp</text>
</g>
<!-- Node2 -->
<g id="node2" class="node"><title>Node2</title>
<g id="a_node2"><a xlink:href="jsonvalue_8h.html" target="_top" xlink:title="support/jsonvalue.h">
<polygon fill="white" stroke="black" points="705.687,-280.5 705.687,-299.5 806.687,-299.5 806.687,-280.5 705.687,-280.5"/>
<text text-anchor="middle" x="756.187" y="-287.5" font-family="Helvetica,sans-Serif" font-size="10.00">support/jsonvalue.h</text>
</a>
</g>
</g>
<!-- Node1&#45;&gt;Node2 -->
<g id="edge1" class="edge"><title>Node1&#45;&gt;Node2</title>
<path fill="none" stroke="midnightblue" d="M829.998,-448.5C817.959,-431.626 791.168,-392.385 775.187,-356 768.538,-340.863 763.461,-322.742 760.235,-309.483"/>
<polygon fill="midnightblue" stroke="midnightblue" points="763.627,-308.618 757.966,-299.662 756.807,-310.193 763.627,-308.618"/>
</g>
<!-- Node32 -->
<g id="node32" class="node"><title>Node32</title>
<g id="a_node32"><a xlink:href="jsonobject_8h.html" target="_top" xlink:title="support/jsonobject.h">
<polygon fill="white" stroke="black" points="784.187,-336.5 784.187,-355.5 888.187,-355.5 888.187,-336.5 784.187,-336.5"/>
<text text-anchor="middle" x="836.187" y="-343.5" font-family="Helvetica,sans-Serif" font-size="10.00">support/jsonobject.h</text>
</a>
</g>
</g>
<!-- Node1&#45;&gt;Node32 -->
<g id="edge43" class="edge"><title>Node1&#45;&gt;Node32</title>
<path fill="none" stroke="midnightblue" d="M836.187,-448.368C836.187,-430.617 836.187,-389.666 836.187,-365.597"/>
<polygon fill="midnightblue" stroke="midnightblue" points="839.687,-365.591 836.187,-355.591 832.687,-365.591 839.687,-365.591"/>
</g>
<!-- Node33 -->
<g id="node33" class="node"><title>Node33</title>
<g id="a_node33"><a xlink:href="stringlib_8h.html" target="_top" xlink:title="stringlib include file A library providing functions for handling various types of string...">
<polygon fill="white" stroke="black" points="895.187,-392.5 895.187,-411.5 989.187,-411.5 989.187,-392.5 895.187,-392.5"/>
<text text-anchor="middle" x="942.187" y="-399.5" font-family="Helvetica,sans-Serif" font-size="10.00">support/stringlib.h</text>
</a>
</g>
</g>
<!-- Node1&#45;&gt;Node33 -->
<g id="edge45" class="edge"><title>Node1&#45;&gt;Node33</title>
<path fill="none" stroke="midnightblue" d="M853.218,-448.324C870.217,-439.664 896.563,-426.242 916.18,-416.249"/>
<polygon fill="midnightblue" stroke="midnightblue" points="917.877,-419.312 925.199,-411.655 914.699,-413.075 917.877,-419.312"/>
</g>
<!-- Node3 -->
<g id="node3" class="node"><title>Node3</title>
<g id="a_node3"><a xlink:href="config_cosmos_8h.html" target="_top" xlink:title="Headers and definitions common to all COSMOS. ">
<polygon fill="white" stroke="black" points="694.687,-112.5 694.687,-131.5 817.687,-131.5 817.687,-112.5 694.687,-112.5"/>
<text text-anchor="middle" x="756.187" y="-119.5" font-family="Helvetica,sans-Serif" font-size="10.00">support/configCosmos.h</text>
</a>
</g>
</g>
<!-- Node2&#45;&gt;Node3 -->
<g id="edge2" class="edge"><title>Node2&#45;&gt;Node3</title>
<path fill="none" stroke="midnightblue" d="M756.187,-280.075C756.187,-253.945 756.187,-177.211 756.187,-141.577"/>
<polygon fill="midnightblue" stroke="midnightblue" points="759.687,-141.568 756.187,-131.568 752.687,-141.568 759.687,-141.568"/>
</g>
<!-- Node29 -->
<g id="node29" class="node"><title>Node29</title>
<g id="a_node29"><a xlink:href="vector_8h.html" target="_top" xlink:title="math/vector.h">
<polygon fill="white" stroke="black" points="139.687,-224.5 139.687,-243.5 216.687,-243.5 216.687,-224.5 139.687,-224.5"/>
<text text-anchor="middle" x="178.187" y="-231.5" font-family="Helvetica,sans-Serif" font-size="10.00">math/vector.h</text>
</a>
</g>
</g>
<!-- Node2&#45;&gt;Node29 -->
<g id="edge34" class="edge"><title>Node2&#45;&gt;Node29</title>
<path fill="none" stroke="midnightblue" d="M705.653,-284.279C595.6,-273.997 335.455,-249.693 226.994,-239.56"/>
<polygon fill="midnightblue" stroke="midnightblue" points="227.263,-236.07 216.981,-238.624 226.612,-243.039 227.263,-236.07"/>
</g>
<!-- Node4 -->
<g id="node4" class="node"><title>Node4</title>
<polygon fill="white" stroke="#bfbfbf" points="467.687,-56.5 467.687,-75.5 512.687,-75.5 512.687,-56.5 467.687,-56.5"/>
<text text-anchor="middle" x="490.187" y="-63.5" font-family="Helvetica,sans-Serif" font-size="10.00">climits</text>
</g>
<!-- Node3&#45;&gt;Node4 -->
<g id="edge3" class="edge"><title>Node3&#45;&gt;Node4</title>
<path fill="none" stroke="midnightblue" d="M704.084,-112.461C658.506,-104.667 590.348,-92.2327 522.772,-76.2204"/>
<polygon fill="midnightblue" stroke="midnightblue" points="523.349,-72.7597 512.809,-73.8321 521.717,-79.5668 523.349,-72.7597"/>
</g>
<!-- Node5 -->
<g id="node5" class="node"><title>Node5</title>
<polygon fill="white" stroke="#bfbfbf" points="530.687,-56.5 530.687,-75.5 577.687,-75.5 577.687,-56.5 530.687,-56.5"/>
<text text-anchor="middle" x="554.187" y="-63.5" font-family="Helvetica,sans-Serif" font-size="10.00">csignal</text>
</g>
<!-- Node3&#45;&gt;Node5 -->
<g id="edge4" class="edge"><title>Node3&#45;&gt;Node5</title>
<path fill="none" stroke="midnightblue" d="M723.773,-112.431C691.735,-103.948 641.06,-90.4933 587.922,-76.1864"/>
<polygon fill="midnightblue" stroke="midnightblue" points="588.542,-72.7286 577.975,-73.5061 586.72,-79.4875 588.542,-72.7286"/>
</g>
<!-- Node6 -->
<g id="node6" class="node"><title>Node6</title>
<polygon fill="white" stroke="#bfbfbf" points="155.187,-56.5 155.187,-75.5 201.187,-75.5 201.187,-56.5 155.187,-56.5"/>
<text text-anchor="middle" x="178.187" y="-63.5" font-family="Helvetica,sans-Serif" font-size="10.00">cstdint</text>
</g>
<!-- Node3&#45;&gt;Node6 -->
<g id="edge5" class="edge"><title>Node3&#45;&gt;Node6</title>
<path fill="none" stroke="midnightblue" d="M694.554,-118.994C593.738,-115.015 387.529,-103.954 215.187,-76 213.939,-75.7976 212.671,-75.5752 211.393,-75.3369"/>
<polygon fill="midnightblue" stroke="midnightblue" points="212.069,-71.9026 201.563,-73.2678 210.627,-78.7525 212.069,-71.9026"/>
</g>
<!-- Node7 -->
<g id="node7" class="node"><title>Node7</title>
<polygon fill="white" stroke="#bfbfbf" points="596.187,-56.5 596.187,-75.5 652.187,-75.5 652.187,-56.5 596.187,-56.5"/>
<text text-anchor="middle" x="624.187" y="-63.5" font-family="Helvetica,sans-Serif" font-size="10.00">cinttypes</text>
</g>
<!-- Node3&#45;&gt;Node7 -->
<g id="edge6" class="edge"><title>Node3&#45;&gt;Node7</title>
<path fill="none" stroke="midnightblue" d="M735.271,-112.444C713.451,-103.517 679.037,-89.4387 654.295,-79.3168"/>
<polygon fill="midnightblue" stroke="midnightblue" points="655.586,-76.0634 645.005,-75.5164 652.935,-82.5422 655.586,-76.0634"/>
</g>
<!-- Node8 -->
<g id="node8" class="node"><title>Node8</title>
<polygon fill="white" stroke="#bfbfbf" points="670.687,-56.5 670.687,-75.5 713.687,-75.5 713.687,-56.5 670.687,-56.5"/>
<text text-anchor="middle" x="692.187" y="-63.5" font-family="Helvetica,sans-Serif" font-size="10.00">cstdio</text>
</g>
<!-- Node3&#45;&gt;Node8 -->
<g id="edge7" class="edge"><title>Node3&#45;&gt;Node8</title>
<path fill="none" stroke="midnightblue" d="M745.904,-112.324C736.351,-104.263 721.907,-92.0765 710.403,-82.3695"/>
<polygon fill="midnightblue" stroke="midnightblue" points="712.557,-79.6076 702.657,-75.8339 708.043,-84.9577 712.557,-79.6076"/>
</g>
<!-- Node9 -->
<g id="node9" class="node"><title>Node9</title>
<polygon fill="white" stroke="#bfbfbf" points="731.687,-56.5 731.687,-75.5 780.687,-75.5 780.687,-56.5 731.687,-56.5"/>
<text text-anchor="middle" x="756.187" y="-63.5" font-family="Helvetica,sans-Serif" font-size="10.00">cstddef</text>
</g>
<!-- Node3&#45;&gt;Node9 -->
<g id="edge8" class="edge"><title>Node3&#45;&gt;Node9</title>
<path fill="none" stroke="midnightblue" d="M756.187,-112.083C756.187,-105.006 756.187,-94.8611 756.187,-85.9865"/>
<polygon fill="midnightblue" stroke="midnightblue" points="759.687,-85.751 756.187,-75.7511 752.687,-85.7511 759.687,-85.751"/>
</g>
<!-- Node10 -->
<g id="node10" class="node"><title>Node10</title>
<polygon fill="white" stroke="#bfbfbf" points="798.687,-56.5 798.687,-75.5 843.687,-75.5 843.687,-56.5 798.687,-56.5"/>
<text text-anchor="middle" x="821.187" y="-63.5" font-family="Helvetica,sans-Serif" font-size="10.00">cstdlib</text>
</g>
<!-- Node3&#45;&gt;Node10 -->
<g id="edge9" class="edge"><title>Node3&#45;&gt;Node10</title>
<path fill="none" stroke="midnightblue" d="M766.63,-112.324C776.333,-104.263 791.002,-92.0765 802.687,-82.3695"/>
<polygon fill="midnightblue" stroke="midnightblue" points="805.098,-84.9163 810.554,-75.8339 800.625,-79.532 805.098,-84.9163"/>
</g>
<!-- Node11 -->
<g id="node11" class="node"><title>Node11</title>
<polygon fill="white" stroke="#bfbfbf" points="862.187,-56.5 862.187,-75.5 906.187,-75.5 906.187,-56.5 862.187,-56.5"/>
<text text-anchor="middle" x="884.187" y="-63.5" font-family="Helvetica,sans-Serif" font-size="10.00">cerrno</text>
</g>
<!-- Node3&#45;&gt;Node11 -->
<g id="edge10" class="edge"><title>Node3&#45;&gt;Node11</title>
<path fill="none" stroke="midnightblue" d="M776.469,-112.444C797.534,-103.557 830.704,-89.5632 854.673,-79.4514"/>
<polygon fill="midnightblue" stroke="midnightblue" points="856.147,-82.6283 864,-75.5164 853.426,-76.1787 856.147,-82.6283"/>
</g>
<!-- Node12 -->
<g id="node12" class="node"><title>Node12</title>
<polygon fill="white" stroke="#bfbfbf" points="924.187,-56.5 924.187,-75.5 970.187,-75.5 970.187,-56.5 924.187,-56.5"/>
<text text-anchor="middle" x="947.187" y="-63.5" font-family="Helvetica,sans-Serif" font-size="10.00">cstring</text>
</g>
<!-- Node3&#45;&gt;Node12 -->
<g id="edge11" class="edge"><title>Node3&#45;&gt;Node12</title>
<path fill="none" stroke="midnightblue" d="M786.452,-112.444C821.205,-102.618 878.036,-86.5506 913.981,-76.3882"/>
<polygon fill="midnightblue" stroke="midnightblue" points="915.303,-79.6517 923.973,-73.5631 913.398,-72.9157 915.303,-79.6517"/>
</g>
<!-- Node13 -->
<g id="node13" class="node"><title>Node13</title>
<polygon fill="white" stroke="#bfbfbf" points="21.1871,-56.5 21.1871,-75.5 65.1871,-75.5 65.1871,-56.5 21.1871,-56.5"/>
<text text-anchor="middle" x="43.1871" y="-63.5" font-family="Helvetica,sans-Serif" font-size="10.00">cmath</text>
</g>
<!-- Node3&#45;&gt;Node13 -->
<g id="edge12" class="edge"><title>Node3&#45;&gt;Node13</title>
<path fill="none" stroke="midnightblue" d="M694.52,-121.38C575.949,-121.147 308.046,-115.951 75.4043,-75.8253"/>
<polygon fill="midnightblue" stroke="midnightblue" points="75.8557,-72.3511 65.402,-74.0745 74.6488,-79.2463 75.8557,-72.3511"/>
</g>
<!-- Node14 -->
<g id="node14" class="node"><title>Node14</title>
<polygon fill="white" stroke="#bfbfbf" points="1026.69,-56.5 1026.69,-75.5 1071.69,-75.5 1071.69,-56.5 1026.69,-56.5"/>
<text text-anchor="middle" x="1049.19" y="-63.5" font-family="Helvetica,sans-Serif" font-size="10.00">iosfwd</text>
</g>
<!-- Node3&#45;&gt;Node14 -->
<g id="edge13" class="edge"><title>Node3&#45;&gt;Node14</title>
<path fill="none" stroke="midnightblue" d="M810.817,-112.447C862.781,-104.063 943.063,-90.4666 1012.19,-76 1013.64,-75.6953 1015.13,-75.3746 1016.63,-75.0432"/>
<polygon fill="midnightblue" stroke="midnightblue" points="1017.59,-78.4142 1026.54,-72.7536 1016.01,-71.5938 1017.59,-78.4142"/>
</g>
<!-- Node15 -->
<g id="node15" class="node"><title>Node15</title>
<polygon fill="white" stroke="#bfbfbf" points="83.1871,-56.5 83.1871,-75.5 137.187,-75.5 137.187,-56.5 83.1871,-56.5"/>
<text text-anchor="middle" x="110.187" y="-63.5" font-family="Helvetica,sans-Serif" font-size="10.00">iostream</text>
</g>
<!-- Node3&#45;&gt;Node15 -->
<g id="edge14" class="edge"><title>Node3&#45;&gt;Node15</title>
<path fill="none" stroke="midnightblue" d="M694.307,-119.93C585.44,-117.286 352.532,-108.221 147.273,-75.8909"/>
<polygon fill="midnightblue" stroke="midnightblue" points="147.638,-72.4049 137.211,-74.2836 146.534,-79.3173 147.638,-72.4049"/>
</g>
<!-- Node16 -->
<g id="node16" class="node"><title>Node16</title>
<polygon fill="white" stroke="#bfbfbf" points="1089.69,-56.5 1089.69,-75.5 1140.69,-75.5 1140.69,-56.5 1089.69,-56.5"/>
<text text-anchor="middle" x="1115.19" y="-63.5" font-family="Helvetica,sans-Serif" font-size="10.00">unistd.h</text>
</g>
<!-- Node3&#45;&gt;Node16 -->
<g id="edge15" class="edge"><title>Node3&#45;&gt;Node16</title>
<path fill="none" stroke="midnightblue" d="M817.743,-114.561C881.005,-107.468 982.494,-94.7738 1079.66,-75.8916"/>
<polygon fill="midnightblue" stroke="midnightblue" points="1080.51,-79.29 1089.65,-73.9243 1079.16,-72.4218 1080.51,-79.29"/>
</g>
<!-- Node17 -->
<g id="node17" class="node"><title>Node17</title>
<polygon fill="white" stroke="#bfbfbf" points="1159.19,-56.5 1159.19,-75.5 1203.19,-75.5 1203.19,-56.5 1159.19,-56.5"/>
<text text-anchor="middle" x="1181.19" y="-63.5" font-family="Helvetica,sans-Serif" font-size="10.00">fcntl.h</text>
</g>
<!-- Node3&#45;&gt;Node17 -->
<g id="edge16" class="edge"><title>Node3&#45;&gt;Node17</title>
<path fill="none" stroke="midnightblue" d="M817.921,-117.003C893.668,-111.416 1026.07,-99.4357 1148.96,-75.7087"/>
<polygon fill="midnightblue" stroke="midnightblue" points="1149.78,-79.1143 1158.92,-73.7551 1148.43,-72.2451 1149.78,-79.1143"/>
</g>
<!-- Node18 -->
<g id="node18" class="node"><title>Node18</title>
<polygon fill="white" stroke="#bfbfbf" points="1359.69,-56.5 1359.69,-75.5 1400.69,-75.5 1400.69,-56.5 1359.69,-56.5"/>
<text text-anchor="middle" x="1380.19" y="-63.5" font-family="Helvetica,sans-Serif" font-size="10.00">string</text>
</g>
<!-- Node3&#45;&gt;Node18 -->
<g id="edge17" class="edge"><title>Node3&#45;&gt;Node18</title>
<path fill="none" stroke="midnightblue" d="M818.09,-119.835C925.875,-117.014 1154.72,-107.515 1345.19,-76 1346.66,-75.7568 1348.16,-75.4812 1349.66,-75.1814"/>
<polygon fill="midnightblue" stroke="midnightblue" points="1350.61,-78.5571 1359.59,-72.9369 1349.06,-71.7296 1350.61,-78.5571"/>
</g>
<!-- Node19 -->
<g id="node19" class="node"><title>Node19</title>
<polygon fill="white" stroke="#bfbfbf" points="175.187,-0.5 175.187,-19.5 219.187,-19.5 219.187,-0.5 175.187,-0.5"/>
<text text-anchor="middle" x="197.187" y="-7.5" font-family="Helvetica,sans-Serif" font-size="10.00">vector</text>
</g>
<!-- Node3&#45;&gt;Node19 -->
<g id="edge18" class="edge"><title>Node3&#45;&gt;Node19</title>
<path fill="none" stroke="midnightblue" d="M694.562,-118.628C586.641,-113.868 368.073,-101.368 296.187,-76 264.577,-64.845 233.077,-41.5361 214.367,-26.0776"/>
<polygon fill="midnightblue" stroke="midnightblue" points="216.609,-23.3903 206.716,-19.5993 212.086,-28.7325 216.609,-23.3903"/>
</g>
<!-- Node20 -->
<g id="node20" class="node"><title>Node20</title>
<polygon fill="white" stroke="#bfbfbf" points="1221.69,-56.5 1221.69,-75.5 1264.69,-75.5 1264.69,-56.5 1221.69,-56.5"/>
<text text-anchor="middle" x="1243.19" y="-63.5" font-family="Helvetica,sans-Serif" font-size="10.00">deque</text>
</g>
<!-- Node3&#45;&gt;Node20 -->
<g id="edge19" class="edge"><title>Node3&#45;&gt;Node20</title>
<path fill="none" stroke="midnightblue" d="M817.922,-118.516C904.088,-114.252 1065.31,-103.385 1211.57,-75.7408"/>
<polygon fill="midnightblue" stroke="midnightblue" points="1212.47,-79.1325 1221.63,-73.8086 1211.15,-72.2582 1212.47,-79.1325"/>
</g>
<!-- Node21 -->
<g id="node21" class="node"><title>Node21</title>
<polygon fill="white" stroke="#bfbfbf" points="1023.19,-0.5 1023.19,-19.5 1067.19,-19.5 1067.19,-0.5 1023.19,-0.5"/>
<text text-anchor="middle" x="1045.19" y="-7.5" font-family="Helvetica,sans-Serif" font-size="10.00">mutex</text>
</g>
<!-- Node3&#45;&gt;Node21 -->
<g id="edge20" class="edge"><title>Node3&#45;&gt;Node21</title>
<path fill="none" stroke="midnightblue" d="M817.77,-120.215C948.407,-117.91 1243.88,-109.059 1274.19,-76 1280.19,-69.4483 1279.83,-62.8647 1274.19,-56 1249.64,-26.1631 1134.58,-15.8074 1077.49,-12.4659"/>
<polygon fill="midnightblue" stroke="midnightblue" points="1077.39,-8.95521 1067.21,-11.9039 1077,-15.9448 1077.39,-8.95521"/>
</g>
<!-- Node22 -->
<g id="node22" class="node"><title>Node22</title>
<polygon fill="white" stroke="#bfbfbf" points="1206.19,-0.5 1206.19,-19.5 1250.19,-19.5 1250.19,-0.5 1206.19,-0.5"/>
<text text-anchor="middle" x="1228.19" y="-7.5" font-family="Helvetica,sans-Serif" font-size="10.00">thread</text>
</g>
<!-- Node3&#45;&gt;Node22 -->
<g id="edge21" class="edge"><title>Node3&#45;&gt;Node22</title>
<path fill="none" stroke="midnightblue" d="M817.898,-120.387C951.641,-118.418 1258.76,-110.183 1290.19,-76 1306.87,-57.8573 1279.33,-37.3456 1255.81,-24.3026"/>
<polygon fill="midnightblue" stroke="midnightblue" points="1257.24,-21.1026 1246.77,-19.5263 1253.97,-27.2921 1257.24,-21.1026"/>
</g>
<!-- Node23 -->
<g id="node23" class="node"><title>Node23</title>
<polygon fill="white" stroke="#bfbfbf" points="237.687,-0.5 237.687,-19.5 332.687,-19.5 332.687,-0.5 237.687,-0.5"/>
<text text-anchor="middle" x="285.187" y="-7.5" font-family="Helvetica,sans-Serif" font-size="10.00">condition_variable</text>
</g>
<!-- Node3&#45;&gt;Node23 -->
<g id="edge22" class="edge"><title>Node3&#45;&gt;Node23</title>
<path fill="none" stroke="midnightblue" d="M694.58,-121.952C588.182,-122.431 375.661,-117.909 316.187,-76 300.891,-65.2212 292.884,-44.8277 288.872,-29.7466"/>
<polygon fill="midnightblue" stroke="midnightblue" points="292.263,-28.8774 286.609,-19.9174 285.442,-30.4478 292.263,-28.8774"/>
</g>
<!-- Node24 -->
<g id="node24" class="node"><title>Node24</title>
<polygon fill="white" stroke="#bfbfbf" points="350.687,-0.5 350.687,-19.5 393.687,-19.5 393.687,-0.5 350.687,-0.5"/>
<text text-anchor="middle" x="372.187" y="-7.5" font-family="Helvetica,sans-Serif" font-size="10.00">queue</text>
</g>
<!-- Node3&#45;&gt;Node24 -->
<g id="edge23" class="edge"><title>Node3&#45;&gt;Node24</title>
<path fill="none" stroke="midnightblue" d="M694.56,-119.06C581.11,-114.848 348.513,-102.992 324.187,-76 309.446,-59.6437 330.826,-38.9092 349.575,-25.3141"/>
<polygon fill="midnightblue" stroke="midnightblue" points="351.609,-28.1626 357.864,-19.6114 347.642,-22.3954 351.609,-28.1626"/>
</g>
<!-- Node25 -->
<g id="node25" class="node"><title>Node25</title>
<polygon fill="white" stroke="#bfbfbf" points="1419.19,-56.5 1419.19,-75.5 1471.19,-75.5 1471.19,-56.5 1419.19,-56.5"/>
<text text-anchor="middle" x="1445.19" y="-63.5" font-family="Helvetica,sans-Serif" font-size="10.00">sstream</text>
</g>
<!-- Node3&#45;&gt;Node25 -->
<g id="edge24" class="edge"><title>Node3&#45;&gt;Node25</title>
<path fill="none" stroke="midnightblue" d="M817.928,-120.504C932.746,-118.766 1186.88,-111.085 1409.04,-75.8912"/>
<polygon fill="midnightblue" stroke="midnightblue" points="1409.6,-79.345 1418.92,-74.3033 1408.49,-72.4336 1409.6,-79.345"/>
</g>
<!-- Node26 -->
<g id="node26" class="node"><title>Node26</title>
<polygon fill="white" stroke="#bfbfbf" points="728.687,-0.5 728.687,-19.5 763.687,-19.5 763.687,-0.5 728.687,-0.5"/>
<text text-anchor="middle" x="746.187" y="-7.5" font-family="Helvetica,sans-Serif" font-size="10.00">map</text>
</g>
<!-- Node3&#45;&gt;Node26 -->
<g id="edge25" class="edge"><title>Node3&#45;&gt;Node26</title>
<path fill="none" stroke="midnightblue" d="M817.753,-117.126C876.556,-111.989 959.114,-100.529 979.187,-76 984.817,-69.121 984.845,-62.8555 979.187,-56 953.433,-24.7966 830.05,-14.9848 774.001,-12.1076"/>
<polygon fill="midnightblue" stroke="midnightblue" points="773.892,-8.5986 763.738,-11.6203 773.56,-15.5907 773.892,-8.5986"/>
</g>
<!-- Node27 -->
<g id="node27" class="node"><title>Node27</title>
<g id="a_node27"><a xlink:href="cosmos-defs_8h.html" target="_top" xlink:title="COSMOS definitions Definitions specific to the COSMOS environement. ">
<polygon fill="white" stroke="black" points="333.187,-56.5 333.187,-75.5 449.187,-75.5 449.187,-56.5 333.187,-56.5"/>
<text text-anchor="middle" x="391.187" y="-63.5" font-family="Helvetica,sans-Serif" font-size="10.00">support/cosmos&#45;defs.h</text>
</a>
</g>
</g>
<!-- Node3&#45;&gt;Node27 -->
<g id="edge26" class="edge"><title>Node3&#45;&gt;Node27</title>
<path fill="none" stroke="midnightblue" d="M698.352,-112.444C633.344,-102.826 527.91,-87.2275 459.056,-77.0409"/>
<polygon fill="midnightblue" stroke="midnightblue" points="459.156,-73.5177 448.752,-75.5164 458.132,-80.4423 459.156,-73.5177"/>
</g>
<!-- Node27&#45;&gt;Node19 -->
<g id="edge28" class="edge"><title>Node27&#45;&gt;Node19</title>
<path fill="none" stroke="midnightblue" d="M359.905,-56.4954C329.054,-48.079 280.304,-34.7031 229.116,-20.2369"/>
<polygon fill="midnightblue" stroke="midnightblue" points="229.768,-16.784 219.192,-17.4274 227.861,-23.5193 229.768,-16.784"/>
</g>
<!-- Node27&#45;&gt;Node21 -->
<g id="edge32" class="edge"><title>Node27&#45;&gt;Node21</title>
<path fill="none" stroke="midnightblue" d="M449.267,-56.992C452.282,-56.6409 455.269,-56.3076 458.187,-56 669.195,-33.7581 923.98,-17.9978 1012.79,-12.8328"/>
<polygon fill="midnightblue" stroke="midnightblue" points="1013.24,-16.3127 1023.02,-12.2421 1012.84,-9.32435 1013.24,-16.3127"/>
</g>
<!-- Node27&#45;&gt;Node22 -->
<g id="edge31" class="edge"><title>Node27&#45;&gt;Node22</title>
<path fill="none" stroke="midnightblue" d="M449.261,-56.9267C452.277,-56.5926 455.266,-56.2808 458.187,-56 732.056,-29.6668 801.528,-36.1311 1076.19,-20 1117.5,-17.5737 1165.12,-14.7494 1195.89,-12.9211"/>
<polygon fill="midnightblue" stroke="midnightblue" points="1196.26,-16.4055 1206.04,-12.3183 1195.85,-9.41786 1196.26,-16.4055"/>
</g>
<!-- Node27&#45;&gt;Node23 -->
<g id="edge33" class="edge"><title>Node27&#45;&gt;Node23</title>
<path fill="none" stroke="midnightblue" d="M374.156,-56.324C357.157,-47.6641 330.811,-34.2424 311.194,-24.249"/>
<polygon fill="midnightblue" stroke="midnightblue" points="312.675,-21.0752 302.176,-19.6545 309.497,-27.3125 312.675,-21.0752"/>
</g>
<!-- Node27&#45;&gt;Node24 -->
<g id="edge30" class="edge"><title>Node27&#45;&gt;Node24</title>
<path fill="none" stroke="midnightblue" d="M388.05,-56.083C385.504,-48.8486 381.831,-38.4087 378.66,-29.3968"/>
<polygon fill="midnightblue" stroke="midnightblue" points="381.887,-28.0225 375.266,-19.7511 375.284,-30.3459 381.887,-28.0225"/>
</g>
<!-- Node27&#45;&gt;Node26 -->
<g id="edge27" class="edge"><title>Node27&#45;&gt;Node26</title>
<path fill="none" stroke="midnightblue" d="M447.438,-56.4435C524.58,-44.7093 660.249,-24.0723 718.424,-15.2232"/>
<polygon fill="midnightblue" stroke="midnightblue" points="719.31,-18.6287 728.67,-13.6646 718.257,-11.7083 719.31,-18.6287"/>
</g>
<!-- Node28 -->
<g id="node28" class="node"><title>Node28</title>
<polygon fill="white" stroke="#bfbfbf" points="411.687,-0.5 411.687,-19.5 440.687,-19.5 440.687,-0.5 411.687,-0.5"/>
<text text-anchor="middle" x="426.187" y="-7.5" font-family="Helvetica,sans-Serif" font-size="10.00">list</text>
</g>
<!-- Node27&#45;&gt;Node28 -->
<g id="edge29" class="edge"><title>Node27&#45;&gt;Node28</title>
<path fill="none" stroke="midnightblue" d="M396.967,-56.083C401.859,-48.5341 409.015,-37.4948 415.02,-28.2298"/>
<polygon fill="midnightblue" stroke="midnightblue" points="418.013,-30.0463 420.515,-19.7511 412.139,-26.239 418.013,-30.0463"/>
</g>
<!-- Node29&#45;&gt;Node3 -->
<g id="edge35" class="edge"><title>Node29&#45;&gt;Node3</title>
<path fill="none" stroke="midnightblue" d="M185.642,-224.361C198.802,-209.789 227.749,-180.676 259.187,-168 334.433,-137.66 565.596,-127.628 684.262,-124.428"/>
<polygon fill="midnightblue" stroke="midnightblue" points="684.439,-127.925 694.344,-124.165 684.256,-120.927 684.439,-127.925"/>
</g>
<!-- Node29&#45;&gt;Node13 -->
<g id="edge41" class="edge"><title>Node29&#45;&gt;Node13</title>
<path fill="none" stroke="midnightblue" d="M165.472,-224.303C153.69,-215.868 136.088,-202.282 123.187,-188 93.0693,-154.657 66.0738,-109.017 52.4777,-84.4163"/>
<polygon fill="midnightblue" stroke="midnightblue" points="55.4995,-82.6468 47.6479,-75.5333 49.3498,-85.9906 55.4995,-82.6468"/>
</g>
<!-- Node29&#45;&gt;Node15 -->
<g id="edge39" class="edge"><title>Node29&#45;&gt;Node15</title>
<path fill="none" stroke="midnightblue" d="M166.83,-224.279C156.909,-216.027 142.919,-202.736 135.187,-188 117.807,-154.876 112.505,-110.734 110.89,-85.9542"/>
<polygon fill="midnightblue" stroke="midnightblue" points="114.375,-85.5661 110.368,-75.7586 107.384,-85.9247 114.375,-85.5661"/>
</g>
<!-- Node29&#45;&gt;Node19 -->
<g id="edge42" class="edge"><title>Node29&#45;&gt;Node19</title>
<path fill="none" stroke="midnightblue" d="M158.348,-224.471C103.547,-199.748 -42.3505,-125.394 12.1871,-56 30.8437,-32.2613 117.082,-19.4872 164.948,-14.1175"/>
<polygon fill="midnightblue" stroke="midnightblue" points="165.536,-17.5745 175.104,-13.0247 164.787,-10.6147 165.536,-17.5745"/>
</g>
<!-- Node30 -->
<g id="node30" class="node"><title>Node30</title>
<g id="a_node30"><a xlink:href="math_2constants_8h.html" target="_top" xlink:title="constants.h">
<polygon fill="white" stroke="black" points="144.187,-168.5 144.187,-187.5 212.187,-187.5 212.187,-168.5 144.187,-168.5"/>
<text text-anchor="middle" x="178.187" y="-175.5" font-family="Helvetica,sans-Serif" font-size="10.00">constants.h</text>
</a>
</g>
</g>
<!-- Node29&#45;&gt;Node30 -->
<g id="edge36" class="edge"><title>Node29&#45;&gt;Node30</title>
<path fill="none" stroke="midnightblue" d="M178.187,-224.083C178.187,-217.006 178.187,-206.861 178.187,-197.986"/>
<polygon fill="midnightblue" stroke="midnightblue" points="181.687,-197.751 178.187,-187.751 174.687,-197.751 181.687,-197.751"/>
</g>
<!-- Node31 -->
<g id="node31" class="node"><title>Node31</title>
<polygon fill="white" stroke="#bfbfbf" points="268.187,-168.5 268.187,-187.5 318.187,-187.5 318.187,-168.5 268.187,-168.5"/>
<text text-anchor="middle" x="293.187" y="-175.5" font-family="Helvetica,sans-Serif" font-size="10.00">iomanip</text>
</g>
<!-- Node29&#45;&gt;Node31 -->
<g id="edge40" class="edge"><title>Node29&#45;&gt;Node31</title>
<path fill="none" stroke="midnightblue" d="M196.409,-224.444C215.083,-215.675 244.343,-201.935 265.804,-191.858"/>
<polygon fill="midnightblue" stroke="midnightblue" points="267.486,-194.935 275.05,-187.516 264.511,-188.599 267.486,-194.935"/>
</g>
<!-- Node30&#45;&gt;Node3 -->
<g id="edge37" class="edge"><title>Node30&#45;&gt;Node3</title>
<path fill="none" stroke="midnightblue" d="M212.207,-170.184C216.892,-169.373 221.65,-168.616 226.187,-168 389.186,-145.856 581.961,-132.741 684.153,-126.811"/>
<polygon fill="midnightblue" stroke="midnightblue" points="684.573,-130.293 694.356,-126.226 684.172,-123.304 684.573,-130.293"/>
</g>
<!-- Node30&#45;&gt;Node6 -->
<g id="edge38" class="edge"><title>Node30&#45;&gt;Node6</title>
<path fill="none" stroke="midnightblue" d="M178.187,-168.368C178.187,-150.617 178.187,-109.666 178.187,-85.5974"/>
<polygon fill="midnightblue" stroke="midnightblue" points="181.687,-85.5914 178.187,-75.5914 174.687,-85.5915 181.687,-85.5914"/>
</g>
<!-- Node32&#45;&gt;Node2 -->
<g id="edge44" class="edge"><title>Node32&#45;&gt;Node2</title>
<path fill="none" stroke="midnightblue" d="M823.334,-336.324C810.971,-327.979 792.057,-315.212 777.45,-305.352"/>
<polygon fill="midnightblue" stroke="midnightblue" points="779.255,-302.348 769.009,-299.655 775.339,-308.15 779.255,-302.348"/>
</g>
<!-- Node33&#45;&gt;Node3 -->
<g id="edge46" class="edge"><title>Node33&#45;&gt;Node3</title>
<path fill="none" stroke="midnightblue" d="M938.681,-392.325C931.584,-373.959 916.187,-329.658 916.187,-291 916.187,-291 916.187,-291 916.187,-233 916.187,-178.241 851.762,-148.685 804.674,-134.395"/>
<polygon fill="midnightblue" stroke="midnightblue" points="805.497,-130.99 794.919,-131.574 803.553,-137.714 805.497,-130.99"/>
</g>
<!-- Node33&#45;&gt;Node18 -->
<g id="edge49" class="edge"><title>Node33&#45;&gt;Node18</title>
<path fill="none" stroke="midnightblue" d="M989.208,-401.149C1063.62,-398.644 1200.19,-381.691 1200.19,-291 1200.19,-291 1200.19,-291 1200.19,-177 1200.19,-107.789 1298.28,-80.8177 1349.64,-71.4393"/>
<polygon fill="midnightblue" stroke="midnightblue" points="1350.27,-74.8813 1359.54,-69.7434 1349.09,-67.9818 1350.27,-74.8813"/>
</g>
<!-- Node33&#45;&gt;Node25 -->
<g id="edge50" class="edge"><title>Node33&#45;&gt;Node25</title>
<path fill="none" stroke="midnightblue" d="M989.524,-397.949C1095.22,-389.841 1341.19,-363.214 1341.19,-291 1341.19,-291 1341.19,-291 1341.19,-177 1341.19,-132.223 1387.25,-98.3249 1418.07,-80.658"/>
<polygon fill="midnightblue" stroke="midnightblue" points="1420,-83.5898 1427.07,-75.7022 1416.62,-77.457 1420,-83.5898"/>
</g>
<!-- Node33&#45;&gt;Node32 -->
<g id="edge47" class="edge"><title>Node33&#45;&gt;Node32</title>
<path fill="none" stroke="midnightblue" d="M925.156,-392.324C908.157,-383.664 881.811,-370.242 862.194,-360.249"/>
<polygon fill="midnightblue" stroke="midnightblue" points="863.675,-357.075 853.176,-355.655 860.497,-363.312 863.675,-357.075"/>
</g>
<!-- Node34 -->
<g id="node34" class="node"><title>Node34</title>
<polygon fill="white" stroke="#bfbfbf" points="944.687,-336.5 944.687,-355.5 991.687,-355.5 991.687,-336.5 944.687,-336.5"/>
<text text-anchor="middle" x="968.187" y="-343.5" font-family="Helvetica,sans-Serif" font-size="10.00">errno.h</text>
</g>
<!-- Node33&#45;&gt;Node34 -->
<g id="edge48" class="edge"><title>Node33&#45;&gt;Node34</title>
<path fill="none" stroke="midnightblue" d="M946.48,-392.083C950.039,-384.691 955.21,-373.953 959.611,-364.811"/>
<polygon fill="midnightblue" stroke="midnightblue" points="962.789,-366.279 963.974,-355.751 956.482,-363.243 962.789,-366.279"/>
</g>
</g>
</svg>
        <g id="navigator" transform="translate(0 0)" fill="#404254">
                <rect fill="#f2f5e9" fill-opacity="0.5" stroke="#606060" stroke-width=".5" x="0" y="0" width="60" height="60"/>
                <use id="zoomplus" xlink:href="#zoomPlus" x="17" y="9" onmousedown="handleZoom(evt,'in')"/>
                <use id="zoomminus" xlink:href="#zoomMin" x="42" y="9" onmousedown="handleZoom(evt,'out')"/>
                <use id="reset" xlink:href="#resetDef" x="30" y="36" onmousedown="handleReset()"/>
                <g id="arrowUp" xlink:href="#dirArrow" transform="translate(30 24)" onmousedown="handlePan(0,-1)">
                  <use xlink:href="#rim" fill="#404040">
                        <set attributeName="fill" to="#808080" begin="arrowUp.mouseover" end="arrowUp.mouseout"/>
                  </use>
                  <path fill="none" stroke="white" stroke-width="1.5" d="M0,-3.0v7 M-2.5,-0.5L0,-3.0L2.5,-0.5"/>
                </g>
                <g id="arrowRight" xlink:href="#dirArrow" transform="rotate(90) translate(36 -43)" onmousedown="handlePan(1,0)">
                  <use xlink:href="#rim" fill="#404040">
                        <set attributeName="fill" to="#808080" begin="arrowRight.mouseover" end="arrowRight.mouseout"/>
                  </use>
                  <path fill="none" stroke="white" stroke-width="1.5" d="M0,-3.0v7 M-2.5,-0.5L0,-3.0L2.5,-0.5"/>
                </g>
                <g id="arrowDown" xlink:href="#dirArrow" transform="rotate(180) translate(-30 -48)" onmousedown="handlePan(0,1)">
                  <use xlink:href="#rim" fill="#404040">
                        <set attributeName="fill" to="#808080" begin="arrowDown.mouseover" end="arrowDown.mouseout"/>
                  </use>
                  <path fill="none" stroke="white" stroke-width="1.5" d="M0,-3.0v7 M-2.5,-0.5L0,-3.0L2.5,-0.5"/>
                </g>
                <g id="arrowLeft" xlink:href="#dirArrow" transform="rotate(270) translate(-36 17)" onmousedown="handlePan(-1,0)">
                  <use xlink:href="#rim" fill="#404040">
                        <set attributeName="fill" to="#808080" begin="arrowLeft.mouseover" end="arrowLeft.mouseout"/>
                  </use>
                  <path fill="none" stroke="white" stroke-width="1.5" d="M0,-3.0v7 M-2.5,-0.5L0,-3.0L2.5,-0.5"/>
                </g>
        </g>
        <svg viewBox="0 0 15 15" width="100%" height="30px" preserveAspectRatio="xMaxYMin meet">
         <g id="arrow_out" transform="scale(0.3 0.3)">
          <a xlink:href="jsonvalue_8cpp__incl_org.svg" target="_base">
           <rect id="button" ry="5" rx="5" y="6" x="6" height="38" width="38"
                fill="#f2f5e9" fill-opacity="0.5" stroke="#606060" stroke-width="1.0"/>
           <path id="arrow"
             d="M 11.500037,31.436501 C 11.940474,20.09759 22.043105,11.32322 32.158766,21.979434 L 37.068811,17.246167 C 37.068811,17.246167 37.088388,32 37.088388,32 L 22.160133,31.978069 C 22.160133,31.978069 26.997745,27.140456 26.997745,27.140456 C 18.528582,18.264221 13.291696,25.230495 11.500037,31.436501 z"
             style="fill:#404040;"/>
          </a>
         </g>
        </svg>
</svg>
