<?xml version="1.0" encoding="UTF-8" standalone="no"?>
<!DOCTYPE svg PUBLIC "-//W3C//DTD SVG 1.1//EN"
 "http://www.w3.org/Graphics/SVG/1.1/DTD/svg11.dtd">
<!-- Generated by graphviz version 2.38.0 (20140413.2041)
 -->
<!-- Title: jsondef.h Pages: 1 -->
<svg width="1505pt" height="532pt"
 viewBox="0.00 0.00 1504.50 532.00" xmlns="http://www.w3.org/2000/svg" xmlns:xlink="http://www.w3.org/1999/xlink">
<g id="graph0" class="graph" transform="scale(1 1) rotate(0) translate(4 528)">
<title>jsondef.h</title>
<polygon fill="white" stroke="none" points="-4,4 -4,-528 1500.5,-528 1500.5,4 -4,4"/>
<!-- Node1 -->
<g id="node1" class="node"><title>Node1</title>
<polygon fill="#bfbfbf" stroke="black" points="750.5,-504.5 750.5,-523.5 806.5,-523.5 806.5,-504.5 750.5,-504.5"/>
<text text-anchor="middle" x="778.5" y="-511.5" font-family="Helvetica,sans-Serif" font-size="10.00">jsondef.h</text>
</g>
<!-- Node2 -->
<g id="node2" class="node"><title>Node2</title>
<g id="a_node2"><a xlink:href="config_cosmos_8h.html" target="_top" xlink:title="Headers and definitions common to all COSMOS. ">
<polygon fill="white" stroke="black" points="761,-112.5 761,-131.5 884,-131.5 884,-112.5 761,-112.5"/>
<text text-anchor="middle" x="822.5" y="-119.5" font-family="Helvetica,sans-Serif" font-size="10.00">support/configCosmos.h</text>
</a>
</g>
</g>
<!-- Node1&#45;&gt;Node2 -->
<g id="edge1" class="edge"><title>Node1&#45;&gt;Node2</title>
<path fill="none" stroke="midnightblue" d="M750.209,-510.338C666.444,-501.681 425.5,-470.882 425.5,-403 425.5,-403 425.5,-403 425.5,-233 425.5,-166.265 636.468,-138.372 750.823,-128.154"/>
<polygon fill="midnightblue" stroke="midnightblue" points="751.245,-131.631 760.904,-127.277 750.639,-124.657 751.245,-131.631"/>
</g>
<!-- Node28 -->
<g id="node28" class="node"><title>Node28</title>
<g id="a_node28"><a xlink:href="mathlib_8h.html" target="_top" xlink:title="mathlib include file ">
<polygon fill="white" stroke="black" points="1064,-392.5 1064,-411.5 1145,-411.5 1145,-392.5 1064,-392.5"/>
<text text-anchor="middle" x="1104.5" y="-399.5" font-family="Helvetica,sans-Serif" font-size="10.00">math/mathlib.h</text>
</a>
</g>
</g>
<!-- Node1&#45;&gt;Node28 -->
<g id="edge33" class="edge"><title>Node1&#45;&gt;Node28</title>
<path fill="none" stroke="midnightblue" d="M803.809,-504.46C861.581,-484.966 1003.26,-437.159 1069.41,-414.839"/>
<polygon fill="midnightblue" stroke="midnightblue" points="1070.63,-418.124 1078.98,-411.61 1068.39,-411.491 1070.63,-418.124"/>
</g>
<!-- Node36 -->
<g id="node36" class="node"><title>Node36</title>
<g id="a_node36"><a xlink:href="convertdef_8h.html" target="_top" xlink:title="support/convertdef.h">
<polygon fill="white" stroke="black" points="766.5,-448.5 766.5,-467.5 872.5,-467.5 872.5,-448.5 766.5,-448.5"/>
<text text-anchor="middle" x="819.5" y="-455.5" font-family="Helvetica,sans-Serif" font-size="10.00">support/convertdef.h</text>
</a>
</g>
</g>
<!-- Node1&#45;&gt;Node36 -->
<g id="edge57" class="edge"><title>Node1&#45;&gt;Node36</title>
<path fill="none" stroke="midnightblue" d="M785.27,-504.083C791.062,-496.455 799.558,-485.264 806.638,-475.941"/>
<polygon fill="midnightblue" stroke="midnightblue" points="809.596,-477.832 812.856,-467.751 804.021,-473.599 809.596,-477.832"/>
</g>
<!-- Node37 -->
<g id="node37" class="node"><title>Node37</title>
<g id="a_node37"><a xlink:href="physicsdef_8h.html" target="_top" xlink:title="Orbit library support definitions. ">
<polygon fill="white" stroke="black" points="805,-280.5 805,-299.5 914,-299.5 914,-280.5 805,-280.5"/>
<text text-anchor="middle" x="859.5" y="-287.5" font-family="Helvetica,sans-Serif" font-size="10.00">physics/physicsdef.h</text>
</a>
</g>
</g>
<!-- Node1&#45;&gt;Node37 -->
<g id="edge60" class="edge"><title>Node1&#45;&gt;Node37</title>
<path fill="none" stroke="midnightblue" d="M772.169,-504.211C763.998,-491.758 751.503,-468.239 757.5,-448 774.582,-390.351 820.234,-334.041 844.249,-307.235"/>
<polygon fill="midnightblue" stroke="midnightblue" points="847.06,-309.347 851.222,-299.604 841.893,-304.625 847.06,-309.347"/>
</g>
<!-- Node38 -->
<g id="node38" class="node"><title>Node38</title>
<g id="a_node38"><a xlink:href="socketlib_8h.html" target="_top" xlink:title="Socket Support header file. ">
<polygon fill="white" stroke="black" points="592,-448.5 592,-467.5 691,-467.5 691,-448.5 592,-448.5"/>
<text text-anchor="middle" x="641.5" y="-455.5" font-family="Helvetica,sans-Serif" font-size="10.00">support/socketlib.h</text>
</a>
</g>
</g>
<!-- Node1&#45;&gt;Node38 -->
<g id="edge63" class="edge"><title>Node1&#45;&gt;Node38</title>
<path fill="none" stroke="midnightblue" d="M756.792,-504.444C734.145,-495.517 698.428,-481.439 672.748,-471.317"/>
<polygon fill="midnightblue" stroke="midnightblue" points="673.693,-467.927 663.106,-467.516 671.126,-474.44 673.693,-467.927"/>
</g>
<!-- Node42 -->
<g id="node42" class="node"><title>Node42</title>
<g id="a_node42"><a xlink:href="objlib_8h.html" target="_top" xlink:title="support/objlib.h">
<polygon fill="white" stroke="black" points="1126,-448.5 1126,-467.5 1209,-467.5 1209,-448.5 1126,-448.5"/>
<text text-anchor="middle" x="1167.5" y="-455.5" font-family="Helvetica,sans-Serif" font-size="10.00">support/objlib.h</text>
</a>
</g>
</g>
<!-- Node1&#45;&gt;Node42 -->
<g id="edge68" class="edge"><title>Node1&#45;&gt;Node42</title>
<path fill="none" stroke="midnightblue" d="M806.789,-509.073C871.825,-500.045 1032.76,-477.704 1115.92,-466.16"/>
<polygon fill="midnightblue" stroke="midnightblue" points="1116.48,-469.616 1125.91,-464.774 1115.52,-462.682 1116.48,-469.616"/>
</g>
<!-- Node3 -->
<g id="node3" class="node"><title>Node3</title>
<polygon fill="white" stroke="#bfbfbf" points="1169,-56.5 1169,-75.5 1214,-75.5 1214,-56.5 1169,-56.5"/>
<text text-anchor="middle" x="1191.5" y="-63.5" font-family="Helvetica,sans-Serif" font-size="10.00">climits</text>
</g>
<!-- Node2&#45;&gt;Node3 -->
<g id="edge2" class="edge"><title>Node2&#45;&gt;Node3</title>
<path fill="none" stroke="midnightblue" d="M884.304,-114.567C951.21,-107.151 1060.91,-93.6762 1154.5,-76 1155.96,-75.724 1157.45,-75.4269 1158.96,-75.1147"/>
<polygon fill="midnightblue" stroke="midnightblue" points="1159.89,-78.4929 1168.88,-72.8957 1158.36,-71.6614 1159.89,-78.4929"/>
</g>
<!-- Node4 -->
<g id="node4" class="node"><title>Node4</title>
<polygon fill="white" stroke="#bfbfbf" points="0,-56.5 0,-75.5 47,-75.5 47,-56.5 0,-56.5"/>
<text text-anchor="middle" x="23.5" y="-63.5" font-family="Helvetica,sans-Serif" font-size="10.00">csignal</text>
</g>
<!-- Node2&#45;&gt;Node4 -->
<g id="edge3" class="edge"><title>Node2&#45;&gt;Node4</title>
<path fill="none" stroke="midnightblue" d="M760.959,-121.693C631.938,-122.217 323.762,-118.597 57.4164,-75.7574"/>
<polygon fill="midnightblue" stroke="midnightblue" points="57.5962,-72.2406 47.1632,-74.0853 56.4695,-79.1493 57.5962,-72.2406"/>
</g>
<!-- Node5 -->
<g id="node5" class="node"><title>Node5</title>
<polygon fill="white" stroke="#bfbfbf" points="1270.5,-56.5 1270.5,-75.5 1316.5,-75.5 1316.5,-56.5 1270.5,-56.5"/>
<text text-anchor="middle" x="1293.5" y="-63.5" font-family="Helvetica,sans-Serif" font-size="10.00">cstdint</text>
</g>
<!-- Node2&#45;&gt;Node5 -->
<g id="edge4" class="edge"><title>Node2&#45;&gt;Node5</title>
<path fill="none" stroke="midnightblue" d="M884.309,-117.233C968.813,-111.482 1124.93,-98.7145 1256.5,-76 1257.75,-75.7849 1259.01,-75.5517 1260.29,-75.3043"/>
<polygon fill="midnightblue" stroke="midnightblue" points="1261.07,-78.7165 1270.11,-73.1949 1259.6,-71.8725 1261.07,-78.7165"/>
</g>
<!-- Node6 -->
<g id="node6" class="node"><title>Node6</title>
<polygon fill="white" stroke="#bfbfbf" points="65.5,-56.5 65.5,-75.5 121.5,-75.5 121.5,-56.5 65.5,-56.5"/>
<text text-anchor="middle" x="93.5" y="-63.5" font-family="Helvetica,sans-Serif" font-size="10.00">cinttypes</text>
</g>
<!-- Node2&#45;&gt;Node6 -->
<g id="edge5" class="edge"><title>Node2&#45;&gt;Node6</title>
<path fill="none" stroke="midnightblue" d="M760.549,-120.568C640.736,-118.951 368.919,-111.483 131.873,-75.9381"/>
<polygon fill="midnightblue" stroke="midnightblue" points="132.093,-72.4314 121.681,-74.389 131.042,-79.3519 132.093,-72.4314"/>
</g>
<!-- Node7 -->
<g id="node7" class="node"><title>Node7</title>
<polygon fill="white" stroke="#bfbfbf" points="140,-56.5 140,-75.5 183,-75.5 183,-56.5 140,-56.5"/>
<text text-anchor="middle" x="161.5" y="-63.5" font-family="Helvetica,sans-Serif" font-size="10.00">cstdio</text>
</g>
<!-- Node2&#45;&gt;Node7 -->
<g id="edge6" class="edge"><title>Node2&#45;&gt;Node7</title>
<path fill="none" stroke="midnightblue" d="M760.578,-121.083C648.65,-120.256 405.318,-113.98 193.386,-75.9851"/>
<polygon fill="midnightblue" stroke="midnightblue" points="193.784,-72.5 183.319,-74.1517 192.53,-79.3867 193.784,-72.5"/>
</g>
<!-- Node8 -->
<g id="node8" class="node"><title>Node8</title>
<polygon fill="white" stroke="#bfbfbf" points="201,-56.5 201,-75.5 250,-75.5 250,-56.5 201,-56.5"/>
<text text-anchor="middle" x="225.5" y="-63.5" font-family="Helvetica,sans-Serif" font-size="10.00">cstddef</text>
</g>
<!-- Node2&#45;&gt;Node8 -->
<g id="edge7" class="edge"><title>Node2&#45;&gt;Node8</title>
<path fill="none" stroke="midnightblue" d="M760.686,-119.832C658.235,-117.074 446.805,-107.896 260.244,-76.0169"/>
<polygon fill="midnightblue" stroke="midnightblue" points="260.705,-72.5447 250.254,-74.2838 259.509,-79.4417 260.705,-72.5447"/>
</g>
<!-- Node9 -->
<g id="node9" class="node"><title>Node9</title>
<polygon fill="white" stroke="#bfbfbf" points="268,-56.5 268,-75.5 313,-75.5 313,-56.5 268,-56.5"/>
<text text-anchor="middle" x="290.5" y="-63.5" font-family="Helvetica,sans-Serif" font-size="10.00">cstdlib</text>
</g>
<!-- Node2&#45;&gt;Node9 -->
<g id="edge8" class="edge"><title>Node2&#45;&gt;Node9</title>
<path fill="none" stroke="midnightblue" d="M760.815,-119.104C667.867,-115.445 486.359,-105.177 323.32,-75.7856"/>
<polygon fill="midnightblue" stroke="midnightblue" points="323.571,-72.2735 313.104,-73.9142 322.31,-79.1589 323.571,-72.2735"/>
</g>
<!-- Node10 -->
<g id="node10" class="node"><title>Node10</title>
<polygon fill="white" stroke="#bfbfbf" points="331.5,-56.5 331.5,-75.5 375.5,-75.5 375.5,-56.5 331.5,-56.5"/>
<text text-anchor="middle" x="353.5" y="-63.5" font-family="Helvetica,sans-Serif" font-size="10.00">cerrno</text>
</g>
<!-- Node2&#45;&gt;Node10 -->
<g id="edge9" class="edge"><title>Node2&#45;&gt;Node10</title>
<path fill="none" stroke="midnightblue" d="M760.69,-118.163C677.399,-113.563 524.496,-102.385 385.701,-75.9078"/>
<polygon fill="midnightblue" stroke="midnightblue" points="386.217,-72.4427 375.733,-73.9749 384.884,-79.3147 386.217,-72.4427"/>
</g>
<!-- Node11 -->
<g id="node11" class="node"><title>Node11</title>
<polygon fill="white" stroke="#bfbfbf" points="393.5,-56.5 393.5,-75.5 439.5,-75.5 439.5,-56.5 393.5,-56.5"/>
<text text-anchor="middle" x="416.5" y="-63.5" font-family="Helvetica,sans-Serif" font-size="10.00">cstring</text>
</g>
<!-- Node2&#45;&gt;Node11 -->
<g id="edge10" class="edge"><title>Node2&#45;&gt;Node11</title>
<path fill="none" stroke="midnightblue" d="M760.82,-116.516C688.41,-110.596 564.627,-98.438 449.831,-75.9958"/>
<polygon fill="midnightblue" stroke="midnightblue" points="450.308,-72.5223 439.818,-74.0073 448.944,-79.3882 450.308,-72.5223"/>
</g>
<!-- Node12 -->
<g id="node12" class="node"><title>Node12</title>
<polygon fill="white" stroke="#bfbfbf" points="1372.5,-56.5 1372.5,-75.5 1416.5,-75.5 1416.5,-56.5 1372.5,-56.5"/>
<text text-anchor="middle" x="1394.5" y="-63.5" font-family="Helvetica,sans-Serif" font-size="10.00">cmath</text>
</g>
<!-- Node2&#45;&gt;Node12 -->
<g id="edge11" class="edge"><title>Node2&#45;&gt;Node12</title>
<path fill="none" stroke="midnightblue" d="M884.139,-116.294C979.054,-108.865 1166.67,-93.4561 1325.5,-76 1337.54,-74.6763 1350.74,-73.0084 1362.34,-71.4691"/>
<polygon fill="midnightblue" stroke="midnightblue" points="1363.02,-74.9092 1372.46,-70.1052 1362.09,-67.9718 1363.02,-74.9092"/>
</g>
<!-- Node13 -->
<g id="node13" class="node"><title>Node13</title>
<polygon fill="white" stroke="#bfbfbf" points="458,-56.5 458,-75.5 503,-75.5 503,-56.5 458,-56.5"/>
<text text-anchor="middle" x="480.5" y="-63.5" font-family="Helvetica,sans-Serif" font-size="10.00">iosfwd</text>
</g>
<!-- Node2&#45;&gt;Node13 -->
<g id="edge12" class="edge"><title>Node2&#45;&gt;Node13</title>
<path fill="none" stroke="midnightblue" d="M760.975,-114.651C700.126,-107.796 604.247,-95.4561 513.043,-76.097"/>
<polygon fill="midnightblue" stroke="midnightblue" points="513.607,-72.6382 503.094,-73.9528 512.132,-79.4811 513.607,-72.6382"/>
</g>
<!-- Node14 -->
<g id="node14" class="node"><title>Node14</title>
<polygon fill="white" stroke="#bfbfbf" points="1434.5,-56.5 1434.5,-75.5 1488.5,-75.5 1488.5,-56.5 1434.5,-56.5"/>
<text text-anchor="middle" x="1461.5" y="-63.5" font-family="Helvetica,sans-Serif" font-size="10.00">iostream</text>
</g>
<!-- Node2&#45;&gt;Node14 -->
<g id="edge13" class="edge"><title>Node2&#45;&gt;Node14</title>
<path fill="none" stroke="midnightblue" d="M884.104,-119.862C991.908,-117.116 1221.79,-107.903 1424.54,-75.8732"/>
<polygon fill="midnightblue" stroke="midnightblue" points="1425.16,-79.3189 1434.48,-74.2811 1424.05,-72.4071 1425.16,-79.3189"/>
</g>
<!-- Node15 -->
<g id="node15" class="node"><title>Node15</title>
<polygon fill="white" stroke="#bfbfbf" points="521,-56.5 521,-75.5 572,-75.5 572,-56.5 521,-56.5"/>
<text text-anchor="middle" x="546.5" y="-63.5" font-family="Helvetica,sans-Serif" font-size="10.00">unistd.h</text>
</g>
<!-- Node2&#45;&gt;Node15 -->
<g id="edge14" class="edge"><title>Node2&#45;&gt;Node15</title>
<path fill="none" stroke="midnightblue" d="M771.053,-112.424C724.318,-104.401 653.27,-91.628 582.106,-76.0081"/>
<polygon fill="midnightblue" stroke="midnightblue" points="582.587,-72.5297 572.067,-73.7853 581.074,-79.3642 582.587,-72.5297"/>
</g>
<!-- Node16 -->
<g id="node16" class="node"><title>Node16</title>
<polygon fill="white" stroke="#bfbfbf" points="590.5,-56.5 590.5,-75.5 634.5,-75.5 634.5,-56.5 590.5,-56.5"/>
<text text-anchor="middle" x="612.5" y="-63.5" font-family="Helvetica,sans-Serif" font-size="10.00">fcntl.h</text>
</g>
<!-- Node2&#45;&gt;Node16 -->
<g id="edge15" class="edge"><title>Node2&#45;&gt;Node16</title>
<path fill="none" stroke="midnightblue" d="M787.08,-112.497C752.947,-104.214 699.615,-91.0408 644.724,-76.2642"/>
<polygon fill="midnightblue" stroke="midnightblue" points="645.391,-72.8188 634.824,-73.5859 643.563,-79.5759 645.391,-72.8188"/>
</g>
<!-- Node17 -->
<g id="node17" class="node"><title>Node17</title>
<polygon fill="white" stroke="#bfbfbf" points="653,-56.5 653,-75.5 694,-75.5 694,-56.5 653,-56.5"/>
<text text-anchor="middle" x="673.5" y="-63.5" font-family="Helvetica,sans-Serif" font-size="10.00">string</text>
</g>
<!-- Node2&#45;&gt;Node17 -->
<g id="edge16" class="edge"><title>Node2&#45;&gt;Node17</title>
<path fill="none" stroke="midnightblue" d="M798.891,-112.444C773.165,-103.12 731.932,-88.1768 703.827,-77.9911"/>
<polygon fill="midnightblue" stroke="midnightblue" points="704.714,-74.5898 694.12,-74.473 702.329,-81.1709 704.714,-74.5898"/>
</g>
<!-- Node18 -->
<g id="node18" class="node"><title>Node18</title>
<polygon fill="white" stroke="#bfbfbf" points="1220.5,-0.5 1220.5,-19.5 1264.5,-19.5 1264.5,-0.5 1220.5,-0.5"/>
<text text-anchor="middle" x="1242.5" y="-7.5" font-family="Helvetica,sans-Serif" font-size="10.00">vector</text>
</g>
<!-- Node2&#45;&gt;Node18 -->
<g id="edge17" class="edge"><title>Node2&#45;&gt;Node18</title>
<path fill="none" stroke="midnightblue" d="M884.291,-117.745C990.079,-111.635 1197.01,-97.1289 1222.5,-76 1235.97,-64.8315 1240.55,-44.8065 1242.01,-29.9244"/>
<polygon fill="midnightblue" stroke="midnightblue" points="1245.52,-29.9703 1242.62,-19.7783 1238.53,-29.5502 1245.52,-29.9703"/>
</g>
<!-- Node19 -->
<g id="node19" class="node"><title>Node19</title>
<polygon fill="white" stroke="#bfbfbf" points="751,-56.5 751,-75.5 794,-75.5 794,-56.5 751,-56.5"/>
<text text-anchor="middle" x="772.5" y="-63.5" font-family="Helvetica,sans-Serif" font-size="10.00">deque</text>
</g>
<!-- Node2&#45;&gt;Node19 -->
<g id="edge18" class="edge"><title>Node2&#45;&gt;Node19</title>
<path fill="none" stroke="midnightblue" d="M814.244,-112.083C807.035,-104.298 796.39,-92.8015 787.654,-83.3665"/>
<polygon fill="midnightblue" stroke="midnightblue" points="789.965,-80.7108 780.603,-75.7511 784.829,-85.4666 789.965,-80.7108"/>
</g>
<!-- Node20 -->
<g id="node20" class="node"><title>Node20</title>
<polygon fill="white" stroke="#bfbfbf" points="713.5,-0.5 713.5,-19.5 757.5,-19.5 757.5,-0.5 713.5,-0.5"/>
<text text-anchor="middle" x="735.5" y="-7.5" font-family="Helvetica,sans-Serif" font-size="10.00">mutex</text>
</g>
<!-- Node2&#45;&gt;Node20 -->
<g id="edge19" class="edge"><title>Node2&#45;&gt;Node20</title>
<path fill="none" stroke="midnightblue" d="M792.868,-112.383C774.916,-105.539 753.275,-94.0563 741.5,-76 732.698,-62.5028 731.823,-43.9469 732.784,-30.1154"/>
<polygon fill="midnightblue" stroke="midnightblue" points="736.302,-30.1397 733.89,-19.823 729.342,-29.3918 736.302,-30.1397"/>
</g>
<!-- Node21 -->
<g id="node21" class="node"><title>Node21</title>
<polygon fill="white" stroke="#bfbfbf" points="788.5,-0.5 788.5,-19.5 832.5,-19.5 832.5,-0.5 788.5,-0.5"/>
<text text-anchor="middle" x="810.5" y="-7.5" font-family="Helvetica,sans-Serif" font-size="10.00">thread</text>
</g>
<!-- Node2&#45;&gt;Node21 -->
<g id="edge20" class="edge"><title>Node2&#45;&gt;Node21</title>
<path fill="none" stroke="midnightblue" d="M821.558,-112.368C819.622,-94.617 815.155,-53.6664 812.529,-29.5974"/>
<polygon fill="midnightblue" stroke="midnightblue" points="816.001,-29.1528 811.437,-19.5914 809.042,-29.912 816.001,-29.1528"/>
</g>
<!-- Node22 -->
<g id="node22" class="node"><title>Node22</title>
<polygon fill="white" stroke="#bfbfbf" points="851,-0.5 851,-19.5 946,-19.5 946,-0.5 851,-0.5"/>
<text text-anchor="middle" x="898.5" y="-7.5" font-family="Helvetica,sans-Serif" font-size="10.00">condition_variable</text>
</g>
<!-- Node2&#45;&gt;Node22 -->
<g id="edge21" class="edge"><title>Node2&#45;&gt;Node22</title>
<path fill="none" stroke="midnightblue" d="M828.464,-112.368C841.006,-94.2153 870.31,-51.8015 886.761,-27.9902"/>
<polygon fill="midnightblue" stroke="midnightblue" points="889.759,-29.8083 892.564,-19.5914 884,-25.8292 889.759,-29.8083"/>
</g>
<!-- Node23 -->
<g id="node23" class="node"><title>Node23</title>
<polygon fill="white" stroke="#bfbfbf" points="1011,-0.5 1011,-19.5 1054,-19.5 1054,-0.5 1011,-0.5"/>
<text text-anchor="middle" x="1032.5" y="-7.5" font-family="Helvetica,sans-Serif" font-size="10.00">queue</text>
</g>
<!-- Node2&#45;&gt;Node23 -->
<g id="edge22" class="edge"><title>Node2&#45;&gt;Node23</title>
<path fill="none" stroke="midnightblue" d="M884.086,-113.287C932.572,-106.01 994.961,-93.582 1013.5,-76 1026.02,-64.1264 1030.43,-44.5031 1031.91,-29.9186"/>
<polygon fill="midnightblue" stroke="midnightblue" points="1035.43,-29.7492 1032.57,-19.5467 1028.44,-29.3037 1035.43,-29.7492"/>
</g>
<!-- Node24 -->
<g id="node24" class="node"><title>Node24</title>
<polygon fill="white" stroke="#bfbfbf" points="1060.5,-56.5 1060.5,-75.5 1112.5,-75.5 1112.5,-56.5 1060.5,-56.5"/>
<text text-anchor="middle" x="1086.5" y="-63.5" font-family="Helvetica,sans-Serif" font-size="10.00">sstream</text>
</g>
<!-- Node2&#45;&gt;Node24 -->
<g id="edge23" class="edge"><title>Node2&#45;&gt;Node24</title>
<path fill="none" stroke="midnightblue" d="M866.764,-112.42C911.995,-103.58 984.232,-89.2579 1046.5,-76 1047.75,-75.7332 1049.03,-75.4594 1050.31,-75.1809"/>
<polygon fill="midnightblue" stroke="midnightblue" points="1051.25,-78.5582 1060.27,-72.9928 1049.75,-71.7214 1051.25,-78.5582"/>
</g>
<!-- Node25 -->
<g id="node25" class="node"><title>Node25</title>
<polygon fill="white" stroke="#bfbfbf" points="1098,-0.5 1098,-19.5 1133,-19.5 1133,-0.5 1098,-0.5"/>
<text text-anchor="middle" x="1115.5" y="-7.5" font-family="Helvetica,sans-Serif" font-size="10.00">map</text>
</g>
<!-- Node2&#45;&gt;Node25 -->
<g id="edge24" class="edge"><title>Node2&#45;&gt;Node25</title>
<path fill="none" stroke="midnightblue" d="M884.023,-120.798C962.447,-119.082 1091.49,-110.862 1121.5,-76 1132.45,-63.2828 1128.72,-43.5329 1123.64,-29.1393"/>
<polygon fill="midnightblue" stroke="midnightblue" points="1126.86,-27.7604 1119.88,-19.7823 1120.36,-30.3665 1126.86,-27.7604"/>
</g>
<!-- Node26 -->
<g id="node26" class="node"><title>Node26</title>
<g id="a_node26"><a xlink:href="cosmos-defs_8h.html" target="_top" xlink:title="COSMOS definitions Definitions specific to the COSMOS environement. ">
<polygon fill="white" stroke="black" points="888.5,-56.5 888.5,-75.5 1004.5,-75.5 1004.5,-56.5 888.5,-56.5"/>
<text text-anchor="middle" x="946.5" y="-63.5" font-family="Helvetica,sans-Serif" font-size="10.00">support/cosmos&#45;defs.h</text>
</a>
</g>
</g>
<!-- Node2&#45;&gt;Node26 -->
<g id="edge25" class="edge"><title>Node2&#45;&gt;Node26</title>
<path fill="none" stroke="midnightblue" d="M842.148,-112.444C862.465,-103.596 894.403,-89.6875 917.598,-79.5865"/>
<polygon fill="midnightblue" stroke="midnightblue" points="919.173,-82.7181 926.944,-75.5164 916.378,-76.3002 919.173,-82.7181"/>
</g>
<!-- Node26&#45;&gt;Node18 -->
<g id="edge27" class="edge"><title>Node26&#45;&gt;Node18</title>
<path fill="none" stroke="midnightblue" d="M993.402,-56.4435C1053.95,-45.398 1157.73,-26.4641 1210.17,-16.8989"/>
<polygon fill="midnightblue" stroke="midnightblue" points="1211.03,-20.299 1220.24,-15.061 1209.77,-13.4126 1211.03,-20.299"/>
</g>
<!-- Node26&#45;&gt;Node20 -->
<g id="edge31" class="edge"><title>Node26&#45;&gt;Node20</title>
<path fill="none" stroke="midnightblue" d="M913.066,-56.4435C873.171,-46.2334 806.939,-29.2831 767.629,-19.2226"/>
<polygon fill="midnightblue" stroke="midnightblue" points="768.329,-15.789 757.774,-16.7003 766.594,-22.5705 768.329,-15.789"/>
</g>
<!-- Node26&#45;&gt;Node21 -->
<g id="edge30" class="edge"><title>Node26&#45;&gt;Node21</title>
<path fill="none" stroke="midnightblue" d="M924.95,-56.4435C902.469,-47.5171 867.012,-33.4387 841.52,-23.3168"/>
<polygon fill="midnightblue" stroke="midnightblue" points="842.535,-19.9539 831.949,-19.5164 839.951,-26.4598 842.535,-19.9539"/>
</g>
<!-- Node26&#45;&gt;Node22 -->
<g id="edge32" class="edge"><title>Node26&#45;&gt;Node22</title>
<path fill="none" stroke="midnightblue" d="M938.574,-56.083C931.654,-48.2982 921.435,-36.8015 913.048,-27.3665"/>
<polygon fill="midnightblue" stroke="midnightblue" points="915.538,-24.8999 906.279,-19.7511 910.306,-29.5505 915.538,-24.8999"/>
</g>
<!-- Node26&#45;&gt;Node23 -->
<g id="edge29" class="edge"><title>Node26&#45;&gt;Node23</title>
<path fill="none" stroke="midnightblue" d="M960.317,-56.324C973.733,-47.9002 994.324,-34.9709 1010.09,-25.0741"/>
<polygon fill="midnightblue" stroke="midnightblue" points="1012.11,-27.9364 1018.72,-19.6545 1008.39,-22.0081 1012.11,-27.9364"/>
</g>
<!-- Node26&#45;&gt;Node25 -->
<g id="edge26" class="edge"><title>Node26&#45;&gt;Node25</title>
<path fill="none" stroke="midnightblue" d="M973.279,-56.4435C1004.55,-46.4507 1056.03,-30.0013 1087.73,-19.874"/>
<polygon fill="midnightblue" stroke="midnightblue" points="1089.2,-23.078 1097.66,-16.7003 1087.07,-16.4101 1089.2,-23.078"/>
</g>
<!-- Node27 -->
<g id="node27" class="node"><title>Node27</title>
<polygon fill="white" stroke="#bfbfbf" points="964,-0.5 964,-19.5 993,-19.5 993,-0.5 964,-0.5"/>
<text text-anchor="middle" x="978.5" y="-7.5" font-family="Helvetica,sans-Serif" font-size="10.00">list</text>
</g>
<!-- Node26&#45;&gt;Node27 -->
<g id="edge28" class="edge"><title>Node26&#45;&gt;Node27</title>
<path fill="none" stroke="midnightblue" d="M951.784,-56.083C956.211,-48.6127 962.663,-37.7244 968.118,-28.5199"/>
<polygon fill="midnightblue" stroke="midnightblue" points="971.227,-30.1383 973.314,-19.7511 965.205,-26.5697 971.227,-30.1383"/>
</g>
<!-- Node28&#45;&gt;Node2 -->
<g id="edge34" class="edge"><title>Node28&#45;&gt;Node2</title>
<path fill="none" stroke="midnightblue" d="M1063.93,-396.797C1015.5,-390.846 938.859,-378.144 921.5,-356 900.66,-329.414 931.951,-312.432 922.5,-280 905.775,-222.608 861.008,-166.184 837.457,-139.294"/>
<polygon fill="midnightblue" stroke="midnightblue" points="839.89,-136.764 830.618,-131.638 834.669,-141.427 839.89,-136.764"/>
</g>
<!-- Node28&#45;&gt;Node12 -->
<g id="edge55" class="edge"><title>Node28&#45;&gt;Node12</title>
<path fill="none" stroke="midnightblue" d="M1145.16,-395.57C1230.51,-383.035 1420.5,-348.654 1420.5,-291 1420.5,-291 1420.5,-291 1420.5,-177 1420.5,-143.929 1409.23,-106.729 1401.53,-85.1685"/>
<polygon fill="midnightblue" stroke="midnightblue" points="1404.77,-83.8308 1398.01,-75.675 1398.21,-86.2679 1404.77,-83.8308"/>
</g>
<!-- Node28&#45;&gt;Node14 -->
<g id="edge56" class="edge"><title>Node28&#45;&gt;Node14</title>
<path fill="none" stroke="midnightblue" d="M1145.34,-398.24C1245.74,-390.339 1496.5,-363.363 1496.5,-291 1496.5,-291 1496.5,-291 1496.5,-177 1496.5,-143.072 1481.19,-105.911 1470.82,-84.631"/>
<polygon fill="midnightblue" stroke="midnightblue" points="1473.86,-82.8822 1466.22,-75.544 1467.62,-86.0463 1473.86,-82.8822"/>
</g>
<!-- Node29 -->
<g id="node29" class="node"><title>Node29</title>
<g id="a_node29"><a xlink:href="cosmos-errno_8h.html" target="_top" xlink:title="COSMOS Error Codes. ">
<polygon fill="white" stroke="black" points="1045,-336.5 1045,-355.5 1164,-355.5 1164,-336.5 1045,-336.5"/>
<text text-anchor="middle" x="1104.5" y="-343.5" font-family="Helvetica,sans-Serif" font-size="10.00">support/cosmos&#45;errno.h</text>
</a>
</g>
</g>
<!-- Node28&#45;&gt;Node29 -->
<g id="edge35" class="edge"><title>Node28&#45;&gt;Node29</title>
<path fill="none" stroke="midnightblue" d="M1104.5,-392.083C1104.5,-385.006 1104.5,-374.861 1104.5,-365.986"/>
<polygon fill="midnightblue" stroke="midnightblue" points="1108,-365.751 1104.5,-355.751 1101,-365.751 1108,-365.751"/>
</g>
<!-- Node31 -->
<g id="node31" class="node"><title>Node31</title>
<g id="a_node31"><a xlink:href="math_2constants_8h.html" target="_top" xlink:title="constants.h">
<polygon fill="white" stroke="black" points="1210.5,-168.5 1210.5,-187.5 1278.5,-187.5 1278.5,-168.5 1210.5,-168.5"/>
<text text-anchor="middle" x="1244.5" y="-175.5" font-family="Helvetica,sans-Serif" font-size="10.00">constants.h</text>
</a>
</g>
</g>
<!-- Node28&#45;&gt;Node31 -->
<g id="edge38" class="edge"><title>Node28&#45;&gt;Node31</title>
<path fill="none" stroke="midnightblue" d="M1133.67,-392.398C1152.59,-385.422 1176.45,-373.785 1191.5,-356 1231.15,-309.138 1241.14,-233.43 1243.65,-198.189"/>
<polygon fill="midnightblue" stroke="midnightblue" points="1247.17,-198.075 1244.25,-187.889 1240.18,-197.669 1247.17,-198.075"/>
</g>
<!-- Node32 -->
<g id="node32" class="node"><title>Node32</title>
<g id="a_node32"><a xlink:href="vector_8h.html" target="_top" xlink:title="vector.h">
<polygon fill="white" stroke="black" points="1166.5,-224.5 1166.5,-243.5 1218.5,-243.5 1218.5,-224.5 1166.5,-224.5"/>
<text text-anchor="middle" x="1192.5" y="-231.5" font-family="Helvetica,sans-Serif" font-size="10.00">vector.h</text>
</a>
</g>
</g>
<!-- Node28&#45;&gt;Node32 -->
<g id="edge41" class="edge"><title>Node28&#45;&gt;Node32</title>
<path fill="none" stroke="midnightblue" d="M1126.12,-392.367C1141.56,-385.039 1161.49,-372.988 1172.5,-356 1192.88,-324.545 1194.69,-279.134 1193.83,-253.834"/>
<polygon fill="midnightblue" stroke="midnightblue" points="1197.32,-253.552 1193.31,-243.747 1190.33,-253.916 1197.32,-253.552"/>
</g>
<!-- Node34 -->
<g id="node34" class="node"><title>Node34</title>
<g id="a_node34"><a xlink:href="matrix_8h.html" target="_top" xlink:title="matrix.h">
<polygon fill="white" stroke="black" points="970.5,-280.5 970.5,-299.5 1022.5,-299.5 1022.5,-280.5 970.5,-280.5"/>
<text text-anchor="middle" x="996.5" y="-287.5" font-family="Helvetica,sans-Serif" font-size="10.00">matrix.h</text>
</a>
</g>
</g>
<!-- Node28&#45;&gt;Node34 -->
<g id="edge48" class="edge"><title>Node28&#45;&gt;Node34</title>
<path fill="none" stroke="midnightblue" d="M1086.76,-392.349C1071.8,-384.415 1050.48,-371.554 1035.5,-356 1022.13,-342.119 1011.29,-322.847 1004.47,-308.895"/>
<polygon fill="midnightblue" stroke="midnightblue" points="1007.63,-307.405 1000.23,-299.829 1001.29,-310.371 1007.63,-307.405"/>
</g>
<!-- Node35 -->
<g id="node35" class="node"><title>Node35</title>
<g id="a_node35"><a xlink:href="rotation_8h.html" target="_top" xlink:title="rotation.h">
<polygon fill="white" stroke="black" points="931,-336.5 931,-355.5 988,-355.5 988,-336.5 931,-336.5"/>
<text text-anchor="middle" x="959.5" y="-343.5" font-family="Helvetica,sans-Serif" font-size="10.00">rotation.h</text>
</a>
</g>
</g>
<!-- Node28&#45;&gt;Node35 -->
<g id="edge51" class="edge"><title>Node28&#45;&gt;Node35</title>
<path fill="none" stroke="midnightblue" d="M1081.52,-392.444C1057.34,-383.438 1019.08,-369.189 991.854,-359.049"/>
<polygon fill="midnightblue" stroke="midnightblue" points="992.961,-355.727 982.368,-355.516 990.518,-362.286 992.961,-355.727"/>
</g>
<!-- Node29&#45;&gt;Node2 -->
<g id="edge36" class="edge"><title>Node29&#45;&gt;Node2</title>
<path fill="none" stroke="midnightblue" d="M1100.93,-336.442C1088.57,-307.864 1044.67,-214.889 978.5,-168 953.71,-150.433 922.138,-139.681 893.892,-133.12"/>
<polygon fill="midnightblue" stroke="midnightblue" points="894.572,-129.686 884.056,-130.97 893.077,-136.525 894.572,-129.686"/>
</g>
<!-- Node30 -->
<g id="node30" class="node"><title>Node30</title>
<polygon fill="white" stroke="#bfbfbf" points="1117,-280.5 1117,-299.5 1164,-299.5 1164,-280.5 1117,-280.5"/>
<text text-anchor="middle" x="1140.5" y="-287.5" font-family="Helvetica,sans-Serif" font-size="10.00">errno.h</text>
</g>
<!-- Node29&#45;&gt;Node30 -->
<g id="edge37" class="edge"><title>Node29&#45;&gt;Node30</title>
<path fill="none" stroke="midnightblue" d="M1110.44,-336.083C1115.48,-328.534 1122.84,-317.495 1129.01,-308.23"/>
<polygon fill="midnightblue" stroke="midnightblue" points="1132.03,-310.013 1134.67,-299.751 1126.21,-306.13 1132.03,-310.013"/>
</g>
<!-- Node31&#45;&gt;Node2 -->
<g id="edge39" class="edge"><title>Node31&#45;&gt;Node2</title>
<path fill="none" stroke="midnightblue" d="M1210.28,-169.555C1207.32,-168.996 1204.36,-168.468 1201.5,-168 1094.96,-150.56 970.507,-137.091 894.105,-129.603"/>
<polygon fill="midnightblue" stroke="midnightblue" points="894.402,-126.115 884.11,-128.631 893.724,-133.082 894.402,-126.115"/>
</g>
<!-- Node31&#45;&gt;Node5 -->
<g id="edge40" class="edge"><title>Node31&#45;&gt;Node5</title>
<path fill="none" stroke="midnightblue" d="M1248.34,-168.368C1256.32,-150.456 1274.83,-108.923 1285.5,-84.9482"/>
<polygon fill="midnightblue" stroke="midnightblue" points="1288.8,-86.1503 1289.67,-75.5914 1282.41,-83.3019 1288.8,-86.1503"/>
</g>
<!-- Node32&#45;&gt;Node2 -->
<g id="edge42" class="edge"><title>Node32&#45;&gt;Node2</title>
<path fill="none" stroke="midnightblue" d="M1178.87,-224.417C1156.08,-210.453 1108.4,-182.884 1064.5,-168 1008.86,-149.138 943.195,-137.557 894.313,-130.877"/>
<polygon fill="midnightblue" stroke="midnightblue" points="894.521,-127.374 884.147,-129.525 893.598,-134.312 894.521,-127.374"/>
</g>
<!-- Node32&#45;&gt;Node12 -->
<g id="edge46" class="edge"><title>Node32&#45;&gt;Node12</title>
<path fill="none" stroke="midnightblue" d="M1218.75,-233.351C1255.07,-232.376 1320.46,-225.12 1358.5,-188 1386.51,-160.666 1392.96,-112.589 1394.3,-86.0085"/>
<polygon fill="midnightblue" stroke="midnightblue" points="1397.81,-85.8591 1394.61,-75.7572 1390.81,-85.6461 1397.81,-85.8591"/>
</g>
<!-- Node32&#45;&gt;Node14 -->
<g id="edge44" class="edge"><title>Node32&#45;&gt;Node14</title>
<path fill="none" stroke="midnightblue" d="M1218.61,-232.61C1257.3,-230.824 1330.64,-222.695 1380.5,-188 1418.24,-161.742 1443.23,-111.728 1454.55,-84.9611"/>
<polygon fill="midnightblue" stroke="midnightblue" points="1457.81,-86.2228 1458.33,-75.6405 1451.33,-83.5919 1457.81,-86.2228"/>
</g>
<!-- Node32&#45;&gt;Node18 -->
<g id="edge47" class="edge"><title>Node32&#45;&gt;Node18</title>
<path fill="none" stroke="midnightblue" d="M1218.51,-226.757C1239.8,-220.376 1269.29,-208.44 1287.5,-188 1322.47,-148.752 1316.94,-127.863 1325.5,-76 1326.95,-67.2297 1330.05,-63.6378 1325.5,-56 1314.41,-37.3758 1292.63,-25.9852 1274.17,-19.3246"/>
<polygon fill="midnightblue" stroke="midnightblue" points="1275.21,-15.9818 1264.61,-16.1772 1273.01,-22.6304 1275.21,-15.9818"/>
</g>
<!-- Node32&#45;&gt;Node31 -->
<g id="edge43" class="edge"><title>Node32&#45;&gt;Node31</title>
<path fill="none" stroke="midnightblue" d="M1201.09,-224.083C1208.66,-216.22 1219.88,-204.569 1229.01,-195.081"/>
<polygon fill="midnightblue" stroke="midnightblue" points="1231.66,-197.382 1236.07,-187.751 1226.62,-192.527 1231.66,-197.382"/>
</g>
<!-- Node33 -->
<g id="node33" class="node"><title>Node33</title>
<polygon fill="white" stroke="#bfbfbf" points="1142.5,-168.5 1142.5,-187.5 1192.5,-187.5 1192.5,-168.5 1142.5,-168.5"/>
<text text-anchor="middle" x="1167.5" y="-175.5" font-family="Helvetica,sans-Serif" font-size="10.00">iomanip</text>
</g>
<!-- Node32&#45;&gt;Node33 -->
<g id="edge45" class="edge"><title>Node32&#45;&gt;Node33</title>
<path fill="none" stroke="midnightblue" d="M1188.37,-224.083C1184.99,-216.77 1180.08,-206.181 1175.88,-197.103"/>
<polygon fill="midnightblue" stroke="midnightblue" points="1178.93,-195.355 1171.55,-187.751 1172.58,-198.296 1178.93,-195.355"/>
</g>
<!-- Node34&#45;&gt;Node2 -->
<g id="edge49" class="edge"><title>Node34&#45;&gt;Node2</title>
<path fill="none" stroke="midnightblue" d="M996.18,-280.334C994.898,-258.4 988.496,-200.147 956.5,-168 939.761,-151.182 916.55,-140.648 894.145,-134.052"/>
<polygon fill="midnightblue" stroke="midnightblue" points="894.842,-130.614 884.275,-131.374 893.009,-137.37 894.842,-130.614"/>
</g>
<!-- Node34&#45;&gt;Node32 -->
<g id="edge50" class="edge"><title>Node34&#45;&gt;Node32</title>
<path fill="none" stroke="midnightblue" d="M1022.53,-281.829C1056.94,-272.348 1117.74,-255.597 1156.53,-244.911"/>
<polygon fill="midnightblue" stroke="midnightblue" points="1157.65,-248.231 1166.37,-242.2 1155.79,-241.482 1157.65,-248.231"/>
</g>
<!-- Node35&#45;&gt;Node2 -->
<g id="edge52" class="edge"><title>Node35&#45;&gt;Node2</title>
<path fill="none" stroke="midnightblue" d="M930.746,-341.3C888.228,-335.171 811.837,-321.423 795.5,-300 758.959,-252.081 793.245,-175.234 812.042,-140.752"/>
<polygon fill="midnightblue" stroke="midnightblue" points="815.201,-142.276 817.072,-131.848 809.106,-138.833 815.201,-142.276"/>
</g>
<!-- Node35&#45;&gt;Node32 -->
<g id="edge53" class="edge"><title>Node35&#45;&gt;Node32</title>
<path fill="none" stroke="midnightblue" d="M977.783,-336.368C1018.53,-317.131 1116.99,-270.648 1165.11,-247.931"/>
<polygon fill="midnightblue" stroke="midnightblue" points="1166.75,-251.026 1174.3,-243.591 1163.76,-244.696 1166.75,-251.026"/>
</g>
<!-- Node35&#45;&gt;Node34 -->
<g id="edge54" class="edge"><title>Node35&#45;&gt;Node34</title>
<path fill="none" stroke="midnightblue" d="M965.61,-336.083C970.782,-328.534 978.346,-317.495 984.694,-308.23"/>
<polygon fill="midnightblue" stroke="midnightblue" points="987.739,-309.979 990.504,-299.751 981.964,-306.022 987.739,-309.979"/>
</g>
<!-- Node36&#45;&gt;Node2 -->
<g id="edge58" class="edge"><title>Node36&#45;&gt;Node2</title>
<path fill="none" stroke="midnightblue" d="M815.927,-448.189C803.897,-417.509 766.132,-312.424 775.5,-224 778.182,-198.688 776.749,-191.072 787.5,-168 792.402,-157.48 800.157,-147.155 807.123,-139.055"/>
<polygon fill="midnightblue" stroke="midnightblue" points="809.838,-141.27 813.944,-131.503 804.643,-136.578 809.838,-141.27"/>
</g>
<!-- Node36&#45;&gt;Node28 -->
<g id="edge59" class="edge"><title>Node36&#45;&gt;Node28</title>
<path fill="none" stroke="midnightblue" d="M864.659,-448.444C916.121,-438.693 1000.03,-422.795 1053.72,-412.622"/>
<polygon fill="midnightblue" stroke="midnightblue" points="1054.53,-416.03 1063.71,-410.729 1053.23,-409.152 1054.53,-416.03"/>
</g>
<!-- Node37&#45;&gt;Node2 -->
<g id="edge61" class="edge"><title>Node37&#45;&gt;Node2</title>
<path fill="none" stroke="midnightblue" d="M857.511,-280.075C851.687,-253.945 834.583,-177.211 826.641,-141.577"/>
<polygon fill="midnightblue" stroke="midnightblue" points="830.002,-140.567 824.41,-131.568 823.169,-142.09 830.002,-140.567"/>
</g>
<!-- Node37&#45;&gt;Node32 -->
<g id="edge62" class="edge"><title>Node37&#45;&gt;Node32</title>
<path fill="none" stroke="midnightblue" d="M912.265,-280.444C980.429,-269.39 1097.31,-250.436 1156.25,-240.878"/>
<polygon fill="midnightblue" stroke="midnightblue" points="1156.91,-244.317 1166.22,-239.262 1155.79,-237.408 1156.91,-244.317"/>
</g>
<!-- Node38&#45;&gt;Node2 -->
<g id="edge64" class="edge"><title>Node38&#45;&gt;Node2</title>
<path fill="none" stroke="midnightblue" d="M651.427,-448.296C660.477,-439.856 673.604,-426.267 681.5,-412 696.075,-385.667 700.5,-377.098 700.5,-347 700.5,-347 700.5,-347 700.5,-233 700.5,-184.568 754.188,-151.986 790.334,-135.538"/>
<polygon fill="midnightblue" stroke="midnightblue" points="791.787,-138.723 799.553,-131.515 788.987,-132.307 791.787,-138.723"/>
</g>
<!-- Node39 -->
<g id="node39" class="node"><title>Node39</title>
<polygon fill="white" stroke="#bfbfbf" points="519,-392.5 519,-411.5 592,-411.5 592,-392.5 519,-392.5"/>
<text text-anchor="middle" x="555.5" y="-399.5" font-family="Helvetica,sans-Serif" font-size="10.00">sys/socket.h</text>
</g>
<!-- Node38&#45;&gt;Node39 -->
<g id="edge65" class="edge"><title>Node38&#45;&gt;Node39</title>
<path fill="none" stroke="midnightblue" d="M627.683,-448.324C614.267,-439.9 593.676,-426.971 577.914,-417.074"/>
<polygon fill="midnightblue" stroke="midnightblue" points="579.613,-414.008 569.283,-411.655 575.891,-419.936 579.613,-414.008"/>
</g>
<!-- Node40 -->
<g id="node40" class="node"><title>Node40</title>
<polygon fill="white" stroke="#bfbfbf" points="610.5,-392.5 610.5,-411.5 672.5,-411.5 672.5,-392.5 610.5,-392.5"/>
<text text-anchor="middle" x="641.5" y="-399.5" font-family="Helvetica,sans-Serif" font-size="10.00">sys/ioctl.h</text>
</g>
<!-- Node38&#45;&gt;Node40 -->
<g id="edge66" class="edge"><title>Node38&#45;&gt;Node40</title>
<path fill="none" stroke="midnightblue" d="M641.5,-448.083C641.5,-441.006 641.5,-430.861 641.5,-421.986"/>
<polygon fill="midnightblue" stroke="midnightblue" points="645,-421.751 641.5,-411.751 638,-421.751 645,-421.751"/>
</g>
<!-- Node41 -->
<g id="node41" class="node"><title>Node41</title>
<polygon fill="white" stroke="#bfbfbf" points="454,-392.5 454,-411.5 501,-411.5 501,-392.5 454,-392.5"/>
<text text-anchor="middle" x="477.5" y="-399.5" font-family="Helvetica,sans-Serif" font-size="10.00">net/if.h</text>
</g>
<!-- Node38&#45;&gt;Node41 -->
<g id="edge67" class="edge"><title>Node38&#45;&gt;Node41</title>
<path fill="none" stroke="midnightblue" d="M615.514,-448.444C587.275,-439.145 542.059,-424.257 511.131,-414.073"/>
<polygon fill="midnightblue" stroke="midnightblue" points="511.828,-410.618 501.235,-410.815 509.638,-417.267 511.828,-410.618"/>
</g>
<!-- Node42&#45;&gt;Node2 -->
<g id="edge69" class="edge"><title>Node42&#45;&gt;Node2</title>
<path fill="none" stroke="midnightblue" d="M1196.64,-448.435C1237.4,-434.449 1306.5,-402.548 1306.5,-347 1306.5,-347 1306.5,-347 1306.5,-233 1306.5,-202.902 1310.69,-187.192 1287.5,-168 1257.91,-143.509 1017.52,-130.624 894.485,-125.578"/>
<polygon fill="midnightblue" stroke="midnightblue" points="894.527,-122.077 884.394,-125.171 894.245,-129.071 894.527,-122.077"/>
</g>
<!-- Node42&#45;&gt;Node28 -->
<g id="edge70" class="edge"><title>Node42&#45;&gt;Node28</title>
<path fill="none" stroke="midnightblue" d="M1157.38,-448.324C1147.97,-440.263 1133.76,-428.077 1122.43,-418.369"/>
<polygon fill="midnightblue" stroke="midnightblue" points="1124.68,-415.684 1114.81,-411.834 1120.12,-420.999 1124.68,-415.684"/>
</g>
<!-- Node42&#45;&gt;Node32 -->
<g id="edge71" class="edge"><title>Node42&#45;&gt;Node32</title>
<path fill="none" stroke="midnightblue" d="M1170.54,-448.296C1178.57,-424.766 1200.26,-357.772 1207.5,-300 1208.61,-291.18 1208.92,-288.774 1207.5,-280 1206.03,-270.957 1203.01,-261.275 1200.06,-253.218"/>
<polygon fill="midnightblue" stroke="midnightblue" points="1203.26,-251.791 1196.36,-243.751 1196.74,-254.339 1203.26,-251.791"/>
</g>
</g>
</svg>
