<?xml version="1.0" encoding="UTF-8" standalone="no"?>
<!DOCTYPE svg PUBLIC "-//W3C//DTD SVG 1.1//EN"
 "http://www.w3.org/Graphics/SVG/1.1/DTD/svg11.dtd">
<!-- Generated by graphviz version 2.38.0 (20140413.2041)
 -->
<!-- Title: json2tab.cpp Pages: 1 -->
<!--zoomable 420 -->
<svg id="main" version="1.1" xmlns="http://www.w3.org/2000/svg" xmlns:xlink="http://www.w3.org/1999/xlink" xml:space="preserve" onload="init(evt)">
<style type="text/css"><![CDATA[
.edge:hover path { stroke: red; }
.edge:hover polygon { stroke: red; fill: red; }
]]></style>
<script type="text/javascript"><![CDATA[
var edges = document.getElementsByTagName('g');
if (edges && edges.length) {
  for (var i=0;i<edges.length;i++) {
    if (edges[i].id.substr(0,4)=='edge') {
      edges[i].setAttribute('class','edge');
    }
  }
}
]]></script>
        <defs>
                <circle id="rim" cx="0" cy="0" r="7"/>
                <circle id="rim2" cx="0" cy="0" r="3.5"/>
                <g id="zoomPlus">
                        <use xlink:href="#rim" fill="#404040">
                                <set attributeName="fill" to="#808080" begin="zoomplus.mouseover" end="zoomplus.mouseout"/>
                        </use>
                        <path d="M-4,0h8M0,-4v8" fill="none" stroke="white" stroke-width="1.5" pointer-events="none"/>
                </g>
                <g id="zoomMin">
                        <use xlink:href="#rim" fill="#404040">
                                <set attributeName="fill" to="#808080" begin="zoomminus.mouseover" end="zoomminus.mouseout"/>
                        </use>
                        <path d="M-4,0h8" fill="none" stroke="white" stroke-width="1.5" pointer-events="none"/>
                </g>
                <g id="dirArrow">
                        <path fill="none" stroke="white" stroke-width="1.5" d="M0,-3.0v7 M-2.5,-0.5L0,-3.0L2.5,-0.5"/>
                </g>
               <g id="resetDef">
                       <use xlink:href="#rim2" fill="#404040">
                               <set attributeName="fill" to="#808080" begin="reset.mouseover" end="reset.mouseout"/>
                       </use>
               </g>
        </defs>

<script type="text/javascript">
var viewWidth = 1522;
var viewHeight = 420;
var sectionId = 'dynsection-0';
</script>
<script xlink:href="svgpan.js"/>
<svg id="graph" class="graph">
<g id="viewport">
<title>json2tab.cpp</title>
<polygon fill="white" stroke="none" points="-4,4 -4,-416 1518.2,-416 1518.2,4 -4,4"/>
<!-- Node1 -->
<g id="node1" class="node"><title>Node1</title>
<polygon fill="#bfbfbf" stroke="black" points="691.695,-392.5 691.695,-411.5 763.695,-411.5 763.695,-392.5 691.695,-392.5"/>
<text text-anchor="middle" x="727.695" y="-399.5" font-family="Helvetica,sans-Serif" font-size="10.00">json2tab.cpp</text>
</g>
<!-- Node2 -->
<g id="node2" class="node"><title>Node2</title>
<g id="a_node2"><a xlink:href="config_cosmos_8h.html" target="_top" xlink:title="Headers and definitions common to all COSMOS. ">
<polygon fill="white" stroke="black" points="645.195,-112.5 645.195,-131.5 768.195,-131.5 768.195,-112.5 645.195,-112.5"/>
<text text-anchor="middle" x="706.695" y="-119.5" font-family="Helvetica,sans-Serif" font-size="10.00">support/configCosmos.h</text>
</a>
</g>
</g>
<!-- Node1&#45;&gt;Node2 -->
<g id="edge1" class="edge"><title>Node1&#45;&gt;Node2</title>
<path fill="none" stroke="midnightblue" d="M747.54,-392.391C779.467,-377.043 838.695,-341.734 838.695,-291 838.695,-291 838.695,-291 838.695,-233 838.695,-202.775 839.157,-190.247 818.695,-168 803.761,-151.763 782.17,-141.271 761.922,-134.544"/>
<polygon fill="midnightblue" stroke="midnightblue" points="762.712,-131.125 752.125,-131.535 760.657,-137.817 762.712,-131.125"/>
</g>
<!-- Node28 -->
<g id="node28" class="node"><title>Node28</title>
<g id="a_node28"><a xlink:href="jsonclass_8h.html" target="_top" xlink:title="support/jsonclass.h">
<polygon fill="white" stroke="black" points="677.195,-224.5 677.195,-243.5 778.195,-243.5 778.195,-224.5 677.195,-224.5"/>
<text text-anchor="middle" x="727.695" y="-231.5" font-family="Helvetica,sans-Serif" font-size="10.00">support/jsonclass.h</text>
</a>
</g>
</g>
<!-- Node1&#45;&gt;Node28 -->
<g id="edge33" class="edge"><title>Node1&#45;&gt;Node28</title>
<path fill="none" stroke="midnightblue" d="M727.695,-392.075C727.695,-365.945 727.695,-289.211 727.695,-253.577"/>
<polygon fill="midnightblue" stroke="midnightblue" points="731.195,-253.568 727.695,-243.568 724.195,-253.568 731.195,-253.568"/>
</g>
<!-- Node31 -->
<g id="node31" class="node"><title>Node31</title>
<g id="a_node31"><a xlink:href="jsonobject_8h.html" target="_top" xlink:title="support/jsonobject.h">
<polygon fill="white" stroke="black" points="584.695,-336.5 584.695,-355.5 688.695,-355.5 688.695,-336.5 584.695,-336.5"/>
<text text-anchor="middle" x="636.695" y="-343.5" font-family="Helvetica,sans-Serif" font-size="10.00">support/jsonobject.h</text>
</a>
</g>
</g>
<!-- Node1&#45;&gt;Node31 -->
<g id="edge38" class="edge"><title>Node1&#45;&gt;Node31</title>
<path fill="none" stroke="midnightblue" d="M713.075,-392.324C698.746,-383.822 676.683,-370.729 659.947,-360.797"/>
<polygon fill="midnightblue" stroke="midnightblue" points="661.666,-357.748 651.28,-355.655 658.093,-363.768 661.666,-357.748"/>
</g>
<!-- Node3 -->
<g id="node3" class="node"><title>Node3</title>
<polygon fill="white" stroke="#bfbfbf" points="1042.2,-56.5 1042.2,-75.5 1087.2,-75.5 1087.2,-56.5 1042.2,-56.5"/>
<text text-anchor="middle" x="1064.7" y="-63.5" font-family="Helvetica,sans-Serif" font-size="10.00">climits</text>
</g>
<!-- Node2&#45;&gt;Node3 -->
<g id="edge2" class="edge"><title>Node2&#45;&gt;Node3</title>
<path fill="none" stroke="midnightblue" d="M768.554,-112.666C854.642,-101.015 1002.86,-80.7497 1027.7,-76 1029.16,-75.7206 1030.65,-75.4208 1032.15,-75.1064"/>
<polygon fill="midnightblue" stroke="midnightblue" points="1033.08,-78.4837 1042.07,-72.8792 1031.55,-71.6535 1033.08,-78.4837"/>
</g>
<!-- Node4 -->
<g id="node4" class="node"><title>Node4</title>
<polygon fill="white" stroke="#bfbfbf" points="1105.2,-56.5 1105.2,-75.5 1152.2,-75.5 1152.2,-56.5 1105.2,-56.5"/>
<text text-anchor="middle" x="1128.7" y="-63.5" font-family="Helvetica,sans-Serif" font-size="10.00">csignal</text>
</g>
<!-- Node2&#45;&gt;Node4 -->
<g id="edge3" class="edge"><title>Node2&#45;&gt;Node4</title>
<path fill="none" stroke="midnightblue" d="M768.525,-112.996C771.286,-112.656 774.019,-112.323 776.695,-112 915.595,-95.2587 954.501,-103.092 1095.17,-76.0375"/>
<polygon fill="midnightblue" stroke="midnightblue" points="1095.89,-79.4643 1105.03,-74.1166 1094.55,-72.5934 1095.89,-79.4643"/>
</g>
<!-- Node5 -->
<g id="node5" class="node"><title>Node5</title>
<polygon fill="white" stroke="#bfbfbf" points="161.695,-56.5 161.695,-75.5 207.695,-75.5 207.695,-56.5 161.695,-56.5"/>
<text text-anchor="middle" x="184.695" y="-63.5" font-family="Helvetica,sans-Serif" font-size="10.00">cstdint</text>
</g>
<!-- Node2&#45;&gt;Node5 -->
<g id="edge4" class="edge"><title>Node2&#45;&gt;Node5</title>
<path fill="none" stroke="midnightblue" d="M645.091,-118.949C553.652,-115.111 376.612,-104.638 217.939,-75.9132"/>
<polygon fill="midnightblue" stroke="midnightblue" points="218.466,-72.4514 207.998,-74.0848 217.2,-79.336 218.466,-72.4514"/>
</g>
<!-- Node6 -->
<g id="node6" class="node"><title>Node6</title>
<polygon fill="white" stroke="#bfbfbf" points="225.695,-56.5 225.695,-75.5 281.695,-75.5 281.695,-56.5 225.695,-56.5"/>
<text text-anchor="middle" x="253.695" y="-63.5" font-family="Helvetica,sans-Serif" font-size="10.00">cinttypes</text>
</g>
<!-- Node2&#45;&gt;Node6 -->
<g id="edge5" class="edge"><title>Node2&#45;&gt;Node6</title>
<path fill="none" stroke="midnightblue" d="M645.02,-116.863C565.558,-110.97 423.031,-98.4978 292.105,-76.0383"/>
<polygon fill="midnightblue" stroke="midnightblue" points="292.349,-72.5283 281.897,-74.2626 291.149,-79.4247 292.349,-72.5283"/>
</g>
<!-- Node7 -->
<g id="node7" class="node"><title>Node7</title>
<polygon fill="white" stroke="#bfbfbf" points="300.195,-56.5 300.195,-75.5 343.195,-75.5 343.195,-56.5 300.195,-56.5"/>
<text text-anchor="middle" x="321.695" y="-63.5" font-family="Helvetica,sans-Serif" font-size="10.00">cstdio</text>
</g>
<!-- Node2&#45;&gt;Node7 -->
<g id="edge6" class="edge"><title>Node2&#45;&gt;Node7</title>
<path fill="none" stroke="midnightblue" d="M644.93,-116.289C575.854,-110.325 460.585,-98.2923 353.243,-76.035"/>
<polygon fill="midnightblue" stroke="midnightblue" points="353.722,-72.559 343.215,-73.9204 352.278,-79.4084 353.722,-72.559"/>
</g>
<!-- Node8 -->
<g id="node8" class="node"><title>Node8</title>
<polygon fill="white" stroke="#bfbfbf" points="361.195,-56.5 361.195,-75.5 410.195,-75.5 410.195,-56.5 361.195,-56.5"/>
<text text-anchor="middle" x="385.695" y="-63.5" font-family="Helvetica,sans-Serif" font-size="10.00">cstddef</text>
</g>
<!-- Node2&#45;&gt;Node8 -->
<g id="edge7" class="edge"><title>Node2&#45;&gt;Node8</title>
<path fill="none" stroke="midnightblue" d="M645.094,-113.395C588.762,-105.982 502.983,-93.5506 420.294,-76.1678"/>
<polygon fill="midnightblue" stroke="midnightblue" points="420.999,-72.7394 410.489,-74.0797 419.541,-79.5858 420.999,-72.7394"/>
</g>
<!-- Node9 -->
<g id="node9" class="node"><title>Node9</title>
<polygon fill="white" stroke="#bfbfbf" points="428.195,-56.5 428.195,-75.5 473.195,-75.5 473.195,-56.5 428.195,-56.5"/>
<text text-anchor="middle" x="450.695" y="-63.5" font-family="Helvetica,sans-Serif" font-size="10.00">cstdlib</text>
</g>
<!-- Node2&#45;&gt;Node9 -->
<g id="edge8" class="edge"><title>Node2&#45;&gt;Node9</title>
<path fill="none" stroke="midnightblue" d="M658.835,-112.474C615.458,-104.502 549.583,-91.7892 483.166,-75.9628"/>
<polygon fill="midnightblue" stroke="midnightblue" points="483.906,-72.5412 473.365,-73.6054 482.269,-79.3471 483.906,-72.5412"/>
</g>
<!-- Node10 -->
<g id="node10" class="node"><title>Node10</title>
<polygon fill="white" stroke="#bfbfbf" points="491.695,-56.5 491.695,-75.5 535.695,-75.5 535.695,-56.5 491.695,-56.5"/>
<text text-anchor="middle" x="513.695" y="-63.5" font-family="Helvetica,sans-Serif" font-size="10.00">cerrno</text>
</g>
<!-- Node2&#45;&gt;Node10 -->
<g id="edge9" class="edge"><title>Node2&#45;&gt;Node10</title>
<path fill="none" stroke="midnightblue" d="M675.609,-112.48C644.95,-104.052 596.502,-90.6664 545.575,-76.227"/>
<polygon fill="midnightblue" stroke="midnightblue" points="546.277,-72.7881 535.702,-73.4231 544.365,-79.5219 546.277,-72.7881"/>
</g>
<!-- Node11 -->
<g id="node11" class="node"><title>Node11</title>
<polygon fill="white" stroke="#bfbfbf" points="553.695,-56.5 553.695,-75.5 599.695,-75.5 599.695,-56.5 553.695,-56.5"/>
<text text-anchor="middle" x="576.695" y="-63.5" font-family="Helvetica,sans-Serif" font-size="10.00">cstring</text>
</g>
<!-- Node2&#45;&gt;Node11 -->
<g id="edge10" class="edge"><title>Node2&#45;&gt;Node11</title>
<path fill="none" stroke="midnightblue" d="M686.096,-112.444C664.702,-103.557 631.014,-89.5632 606.671,-79.4514"/>
<polygon fill="midnightblue" stroke="midnightblue" points="607.775,-76.1203 597.198,-75.5164 605.09,-82.5848 607.775,-76.1203"/>
</g>
<!-- Node12 -->
<g id="node12" class="node"><title>Node12</title>
<polygon fill="white" stroke="#bfbfbf" points="27.6953,-56.5 27.6953,-75.5 71.6953,-75.5 71.6953,-56.5 27.6953,-56.5"/>
<text text-anchor="middle" x="49.6953" y="-63.5" font-family="Helvetica,sans-Serif" font-size="10.00">cmath</text>
</g>
<!-- Node2&#45;&gt;Node12 -->
<g id="edge11" class="edge"><title>Node2&#45;&gt;Node12</title>
<path fill="none" stroke="midnightblue" d="M644.852,-120.854C533.66,-119.657 292.699,-112.8 81.9264,-75.8413"/>
<polygon fill="midnightblue" stroke="midnightblue" points="82.3717,-72.3656 71.913,-74.0585 81.1447,-79.2572 82.3717,-72.3656"/>
</g>
<!-- Node13 -->
<g id="node13" class="node"><title>Node13</title>
<polygon fill="white" stroke="#bfbfbf" points="618.195,-56.5 618.195,-75.5 663.195,-75.5 663.195,-56.5 618.195,-56.5"/>
<text text-anchor="middle" x="640.695" y="-63.5" font-family="Helvetica,sans-Serif" font-size="10.00">iosfwd</text>
</g>
<!-- Node2&#45;&gt;Node13 -->
<g id="edge12" class="edge"><title>Node2&#45;&gt;Node13</title>
<path fill="none" stroke="midnightblue" d="M696.091,-112.324C686.239,-104.263 671.344,-92.0765 659.48,-82.3695"/>
<polygon fill="midnightblue" stroke="midnightblue" points="661.448,-79.4575 651.492,-75.8339 657.016,-84.8752 661.448,-79.4575"/>
</g>
<!-- Node14 -->
<g id="node14" class="node"><title>Node14</title>
<polygon fill="white" stroke="#bfbfbf" points="89.6953,-56.5 89.6953,-75.5 143.695,-75.5 143.695,-56.5 89.6953,-56.5"/>
<text text-anchor="middle" x="116.695" y="-63.5" font-family="Helvetica,sans-Serif" font-size="10.00">iostream</text>
</g>
<!-- Node2&#45;&gt;Node14 -->
<g id="edge13" class="edge"><title>Node2&#45;&gt;Node14</title>
<path fill="none" stroke="midnightblue" d="M644.809,-119.28C543.86,-115.75 337.433,-105.508 153.833,-75.9149"/>
<polygon fill="midnightblue" stroke="midnightblue" points="154.157,-72.4215 143.723,-74.2617 153.027,-79.3297 154.157,-72.4215"/>
</g>
<!-- Node15 -->
<g id="node15" class="node"><title>Node15</title>
<polygon fill="white" stroke="#bfbfbf" points="681.195,-56.5 681.195,-75.5 732.195,-75.5 732.195,-56.5 681.195,-56.5"/>
<text text-anchor="middle" x="706.695" y="-63.5" font-family="Helvetica,sans-Serif" font-size="10.00">unistd.h</text>
</g>
<!-- Node2&#45;&gt;Node15 -->
<g id="edge14" class="edge"><title>Node2&#45;&gt;Node15</title>
<path fill="none" stroke="midnightblue" d="M706.695,-112.083C706.695,-105.006 706.695,-94.8611 706.695,-85.9865"/>
<polygon fill="midnightblue" stroke="midnightblue" points="710.195,-85.751 706.695,-75.7511 703.195,-85.7511 710.195,-85.751"/>
</g>
<!-- Node16 -->
<g id="node16" class="node"><title>Node16</title>
<polygon fill="white" stroke="#bfbfbf" points="750.695,-56.5 750.695,-75.5 794.695,-75.5 794.695,-56.5 750.695,-56.5"/>
<text text-anchor="middle" x="772.695" y="-63.5" font-family="Helvetica,sans-Serif" font-size="10.00">fcntl.h</text>
</g>
<!-- Node2&#45;&gt;Node16 -->
<g id="edge15" class="edge"><title>Node2&#45;&gt;Node16</title>
<path fill="none" stroke="midnightblue" d="M717.299,-112.324C727.151,-104.263 742.046,-92.0765 753.91,-82.3695"/>
<polygon fill="midnightblue" stroke="midnightblue" points="756.375,-84.8752 761.898,-75.8339 751.942,-79.4575 756.375,-84.8752"/>
</g>
<!-- Node17 -->
<g id="node17" class="node"><title>Node17</title>
<polygon fill="white" stroke="#bfbfbf" points="813.195,-56.5 813.195,-75.5 854.195,-75.5 854.195,-56.5 813.195,-56.5"/>
<text text-anchor="middle" x="833.695" y="-63.5" font-family="Helvetica,sans-Serif" font-size="10.00">string</text>
</g>
<!-- Node2&#45;&gt;Node17 -->
<g id="edge16" class="edge"><title>Node2&#45;&gt;Node17</title>
<path fill="none" stroke="midnightblue" d="M726.819,-112.444C747.72,-103.557 780.63,-89.5632 804.411,-79.4514"/>
<polygon fill="midnightblue" stroke="midnightblue" points="805.833,-82.6504 813.666,-75.5164 803.094,-76.2085 805.833,-82.6504"/>
</g>
<!-- Node18 -->
<g id="node18" class="node"><title>Node18</title>
<polygon fill="white" stroke="#bfbfbf" points="991.695,-0.5 991.695,-19.5 1035.7,-19.5 1035.7,-0.5 991.695,-0.5"/>
<text text-anchor="middle" x="1013.7" y="-7.5" font-family="Helvetica,sans-Serif" font-size="10.00">vector</text>
</g>
<!-- Node2&#45;&gt;Node18 -->
<g id="edge17" class="edge"><title>Node2&#45;&gt;Node18</title>
<path fill="none" stroke="midnightblue" d="M768.256,-113.082C850.304,-102.284 986.235,-83.4306 994.695,-76 1007.79,-64.5003 1012.09,-44.5277 1013.39,-29.7483"/>
<polygon fill="midnightblue" stroke="midnightblue" points="1016.89,-29.8482 1013.9,-19.6851 1009.9,-29.4967 1016.89,-29.8482"/>
</g>
<!-- Node19 -->
<g id="node19" class="node"><title>Node19</title>
<polygon fill="white" stroke="#bfbfbf" points="872.195,-56.5 872.195,-75.5 915.195,-75.5 915.195,-56.5 872.195,-56.5"/>
<text text-anchor="middle" x="893.695" y="-63.5" font-family="Helvetica,sans-Serif" font-size="10.00">deque</text>
</g>
<!-- Node2&#45;&gt;Node19 -->
<g id="edge18" class="edge"><title>Node2&#45;&gt;Node19</title>
<path fill="none" stroke="midnightblue" d="M736.316,-112.472C765.798,-103.98 812.592,-90.4924 862.361,-76.0933"/>
<polygon fill="midnightblue" stroke="midnightblue" points="863.384,-79.4409 872.016,-73.299 861.438,-72.7168 863.384,-79.4409"/>
</g>
<!-- Node20 -->
<g id="node20" class="node"><title>Node20</title>
<polygon fill="white" stroke="#bfbfbf" points="1134.7,-0.5 1134.7,-19.5 1178.7,-19.5 1178.7,-0.5 1134.7,-0.5"/>
<text text-anchor="middle" x="1156.7" y="-7.5" font-family="Helvetica,sans-Serif" font-size="10.00">mutex</text>
</g>
<!-- Node2&#45;&gt;Node20 -->
<g id="edge19" class="edge"><title>Node2&#45;&gt;Node20</title>
<path fill="none" stroke="midnightblue" d="M768.518,-112.933C771.28,-112.61 774.016,-112.297 776.695,-112 819.397,-107.26 1132.76,-107.763 1161.7,-76 1172.98,-63.6111 1169.54,-43.8097 1164.63,-29.3144"/>
<polygon fill="midnightblue" stroke="midnightblue" points="1167.85,-27.947 1160.99,-19.8791 1161.32,-30.4686 1167.85,-27.947"/>
</g>
<!-- Node21 -->
<g id="node21" class="node"><title>Node21</title>
<polygon fill="white" stroke="#bfbfbf" points="1196.7,-0.5 1196.7,-19.5 1240.7,-19.5 1240.7,-0.5 1196.7,-0.5"/>
<text text-anchor="middle" x="1218.7" y="-7.5" font-family="Helvetica,sans-Serif" font-size="10.00">thread</text>
</g>
<!-- Node2&#45;&gt;Node21 -->
<g id="edge20" class="edge"><title>Node2&#45;&gt;Node21</title>
<path fill="none" stroke="midnightblue" d="M768.516,-112.92C771.279,-112.601 774.016,-112.292 776.695,-112 865.858,-102.279 1102.43,-123.203 1178.7,-76 1195.91,-65.348 1206.82,-44.266 1212.82,-28.993"/>
<polygon fill="midnightblue" stroke="midnightblue" points="1216.13,-30.1416 1216.21,-19.5471 1209.54,-27.7777 1216.13,-30.1416"/>
</g>
<!-- Node22 -->
<g id="node22" class="node"><title>Node22</title>
<polygon fill="white" stroke="#bfbfbf" points="1305.2,-0.5 1305.2,-19.5 1400.2,-19.5 1400.2,-0.5 1305.2,-0.5"/>
<text text-anchor="middle" x="1352.7" y="-7.5" font-family="Helvetica,sans-Serif" font-size="10.00">condition_variable</text>
</g>
<!-- Node2&#45;&gt;Node22 -->
<g id="edge21" class="edge"><title>Node2&#45;&gt;Node22</title>
<path fill="none" stroke="midnightblue" d="M768.506,-112.823C771.272,-112.53 774.012,-112.253 776.695,-112 842.634,-105.773 1326.3,-124.227 1371.7,-76 1383.86,-63.0786 1375.07,-42.7983 1365.81,-28.3285"/>
<polygon fill="midnightblue" stroke="midnightblue" points="1368.46,-26.0043 1359.88,-19.7947 1362.72,-30.0023 1368.46,-26.0043"/>
</g>
<!-- Node23 -->
<g id="node23" class="node"><title>Node23</title>
<polygon fill="white" stroke="#bfbfbf" points="1418.2,-0.5 1418.2,-19.5 1461.2,-19.5 1461.2,-0.5 1418.2,-0.5"/>
<text text-anchor="middle" x="1439.7" y="-7.5" font-family="Helvetica,sans-Serif" font-size="10.00">queue</text>
</g>
<!-- Node2&#45;&gt;Node23 -->
<g id="edge22" class="edge"><title>Node2&#45;&gt;Node23</title>
<path fill="none" stroke="midnightblue" d="M768.506,-112.818C771.272,-112.526 774.011,-112.251 776.695,-112 844.406,-105.66 1327.29,-107.25 1387.7,-76 1407.49,-65.7587 1422.31,-44.2676 1430.96,-28.7974"/>
<polygon fill="midnightblue" stroke="midnightblue" points="1434.2,-30.1605 1435.75,-19.6795 1428,-26.907 1434.2,-30.1605"/>
</g>
<!-- Node24 -->
<g id="node24" class="node"><title>Node24</title>
<polygon fill="white" stroke="#bfbfbf" points="933.695,-56.5 933.695,-75.5 985.695,-75.5 985.695,-56.5 933.695,-56.5"/>
<text text-anchor="middle" x="959.695" y="-63.5" font-family="Helvetica,sans-Serif" font-size="10.00">sstream</text>
</g>
<!-- Node2&#45;&gt;Node24 -->
<g id="edge23" class="edge"><title>Node2&#45;&gt;Node24</title>
<path fill="none" stroke="midnightblue" d="M750.45,-112.467C792.298,-104.186 857.41,-90.9855 923.607,-75.9423"/>
<polygon fill="midnightblue" stroke="midnightblue" points="924.409,-79.3491 933.379,-73.7098 922.85,-72.525 924.409,-79.3491"/>
</g>
<!-- Node25 -->
<g id="node25" class="node"><title>Node25</title>
<polygon fill="white" stroke="#bfbfbf" points="1479.2,-0.5 1479.2,-19.5 1514.2,-19.5 1514.2,-0.5 1479.2,-0.5"/>
<text text-anchor="middle" x="1496.7" y="-7.5" font-family="Helvetica,sans-Serif" font-size="10.00">map</text>
</g>
<!-- Node2&#45;&gt;Node25 -->
<g id="edge24" class="edge"><title>Node2&#45;&gt;Node25</title>
<path fill="none" stroke="midnightblue" d="M768.505,-112.81C771.271,-112.52 774.011,-112.248 776.695,-112 917.875,-98.9516 1281.02,-126.001 1413.7,-76 1441.11,-65.6666 1466.7,-42.8371 1482.02,-27.182"/>
<polygon fill="midnightblue" stroke="midnightblue" points="1484.72,-29.4219 1489.05,-19.7536 1479.64,-24.6096 1484.72,-29.4219"/>
</g>
<!-- Node26 -->
<g id="node26" class="node"><title>Node26</title>
<g id="a_node26"><a xlink:href="cosmos-defs_8h.html" target="_top" xlink:title="COSMOS definitions Definitions specific to the COSMOS environement. ">
<polygon fill="white" stroke="black" points="1246.7,-56.5 1246.7,-75.5 1362.7,-75.5 1362.7,-56.5 1246.7,-56.5"/>
<text text-anchor="middle" x="1304.7" y="-63.5" font-family="Helvetica,sans-Serif" font-size="10.00">support/cosmos&#45;defs.h</text>
</a>
</g>
</g>
<!-- Node2&#45;&gt;Node26 -->
<g id="edge25" class="edge"><title>Node2&#45;&gt;Node26</title>
<path fill="none" stroke="midnightblue" d="M768.513,-112.885C771.277,-112.575 774.014,-112.278 776.695,-112 978.908,-91.0313 1030.45,-96.6133 1232.7,-76 1233.96,-75.8707 1235.25,-75.7375 1236.54,-75.601"/>
<polygon fill="midnightblue" stroke="midnightblue" points="1237.01,-79.0705 1246.56,-74.4973 1236.24,-72.1126 1237.01,-79.0705"/>
</g>
<!-- Node26&#45;&gt;Node18 -->
<g id="edge27" class="edge"><title>Node26&#45;&gt;Node18</title>
<path fill="none" stroke="midnightblue" d="M1258.59,-56.4435C1199.21,-45.4258 1097.54,-26.5594 1045.87,-16.9714"/>
<polygon fill="midnightblue" stroke="midnightblue" points="1046.41,-13.5108 1035.94,-15.1274 1045.13,-20.3933 1046.41,-13.5108"/>
</g>
<!-- Node26&#45;&gt;Node20 -->
<g id="edge31" class="edge"><title>Node26&#45;&gt;Node20</title>
<path fill="none" stroke="midnightblue" d="M1281.24,-56.4435C1256.27,-47.3322 1216.59,-32.8531 1188.74,-22.6929"/>
<polygon fill="midnightblue" stroke="midnightblue" points="1189.66,-19.3027 1179.07,-19.1629 1187.26,-25.8786 1189.66,-19.3027"/>
</g>
<!-- Node26&#45;&gt;Node21 -->
<g id="edge30" class="edge"><title>Node26&#45;&gt;Node21</title>
<path fill="none" stroke="midnightblue" d="M1290.88,-56.324C1277.46,-47.9002 1256.87,-34.9709 1241.11,-25.0741"/>
<polygon fill="midnightblue" stroke="midnightblue" points="1242.81,-22.0081 1232.48,-19.6545 1239.09,-27.9364 1242.81,-22.0081"/>
</g>
<!-- Node26&#45;&gt;Node22 -->
<g id="edge32" class="edge"><title>Node26&#45;&gt;Node22</title>
<path fill="none" stroke="midnightblue" d="M1312.62,-56.083C1319.54,-48.2982 1329.76,-36.8015 1338.15,-27.3665"/>
<polygon fill="midnightblue" stroke="midnightblue" points="1340.89,-29.5505 1344.92,-19.7511 1335.66,-24.8999 1340.89,-29.5505"/>
</g>
<!-- Node26&#45;&gt;Node23 -->
<g id="edge29" class="edge"><title>Node26&#45;&gt;Node23</title>
<path fill="none" stroke="midnightblue" d="M1326.09,-56.4435C1348.4,-47.5171 1383.6,-33.4387 1408.9,-23.3168"/>
<polygon fill="midnightblue" stroke="midnightblue" points="1410.42,-26.4801 1418.4,-19.5164 1407.82,-19.9807 1410.42,-26.4801"/>
</g>
<!-- Node26&#45;&gt;Node25 -->
<g id="edge26" class="edge"><title>Node26&#45;&gt;Node25</title>
<path fill="none" stroke="midnightblue" d="M1338.91,-56.456C1370.57,-48.3886 1419.14,-35.6073 1469.39,-20.2623"/>
<polygon fill="midnightblue" stroke="midnightblue" points="1470.6,-23.5528 1479.13,-17.2641 1468.54,-16.863 1470.6,-23.5528"/>
</g>
<!-- Node27 -->
<g id="node27" class="node"><title>Node27</title>
<polygon fill="white" stroke="#bfbfbf" points="1258.2,-0.5 1258.2,-19.5 1287.2,-19.5 1287.2,-0.5 1258.2,-0.5"/>
<text text-anchor="middle" x="1272.7" y="-7.5" font-family="Helvetica,sans-Serif" font-size="10.00">list</text>
</g>
<!-- Node26&#45;&gt;Node27 -->
<g id="edge28" class="edge"><title>Node26&#45;&gt;Node27</title>
<path fill="none" stroke="midnightblue" d="M1299.41,-56.083C1294.98,-48.6127 1288.53,-37.7244 1283.08,-28.5199"/>
<polygon fill="midnightblue" stroke="midnightblue" points="1285.99,-26.5697 1277.88,-19.7511 1279.97,-30.1383 1285.99,-26.5697"/>
</g>
<!-- Node28&#45;&gt;Node2 -->
<g id="edge34" class="edge"><title>Node28&#45;&gt;Node2</title>
<path fill="none" stroke="midnightblue" d="M713.909,-224.189C702.869,-216.241 688.193,-203.447 681.695,-188 674.915,-171.882 683.775,-153.23 692.767,-140.052"/>
<polygon fill="midnightblue" stroke="midnightblue" points="695.668,-142.015 698.823,-131.901 690.049,-137.84 695.668,-142.015"/>
</g>
<!-- Node29 -->
<g id="node29" class="node"><title>Node29</title>
<g id="a_node29"><a xlink:href="cosmos-errno_8h.html" target="_top" xlink:title="COSMOS Error Codes. ">
<polygon fill="white" stroke="black" points="691.195,-168.5 691.195,-187.5 810.195,-187.5 810.195,-168.5 691.195,-168.5"/>
<text text-anchor="middle" x="750.695" y="-175.5" font-family="Helvetica,sans-Serif" font-size="10.00">support/cosmos&#45;errno.h</text>
</a>
</g>
</g>
<!-- Node28&#45;&gt;Node29 -->
<g id="edge35" class="edge"><title>Node28&#45;&gt;Node29</title>
<path fill="none" stroke="midnightblue" d="M731.493,-224.083C734.608,-216.77 739.118,-206.181 742.985,-197.103"/>
<polygon fill="midnightblue" stroke="midnightblue" points="746.269,-198.323 746.968,-187.751 739.829,-195.58 746.269,-198.323"/>
</g>
<!-- Node29&#45;&gt;Node2 -->
<g id="edge36" class="edge"><title>Node29&#45;&gt;Node2</title>
<path fill="none" stroke="midnightblue" d="M743.43,-168.083C737.15,-160.377 727.908,-149.033 720.264,-139.653"/>
<polygon fill="midnightblue" stroke="midnightblue" points="722.856,-137.293 713.826,-131.751 717.429,-141.714 722.856,-137.293"/>
</g>
<!-- Node30 -->
<g id="node30" class="node"><title>Node30</title>
<polygon fill="white" stroke="#bfbfbf" points="786.195,-112.5 786.195,-131.5 833.195,-131.5 833.195,-112.5 786.195,-112.5"/>
<text text-anchor="middle" x="809.695" y="-119.5" font-family="Helvetica,sans-Serif" font-size="10.00">errno.h</text>
</g>
<!-- Node29&#45;&gt;Node30 -->
<g id="edge37" class="edge"><title>Node29&#45;&gt;Node30</title>
<path fill="none" stroke="midnightblue" d="M760.175,-168.324C768.896,-160.341 782.039,-148.313 792.593,-138.653"/>
<polygon fill="midnightblue" stroke="midnightblue" points="795.03,-141.167 800.043,-131.834 790.304,-136.004 795.03,-141.167"/>
</g>
<!-- Node32 -->
<g id="node32" class="node"><title>Node32</title>
<g id="a_node32"><a xlink:href="jsonvalue_8h.html" target="_top" xlink:title="support/jsonvalue.h">
<polygon fill="white" stroke="black" points="574.195,-280.5 574.195,-299.5 675.195,-299.5 675.195,-280.5 574.195,-280.5"/>
<text text-anchor="middle" x="624.695" y="-287.5" font-family="Helvetica,sans-Serif" font-size="10.00">support/jsonvalue.h</text>
</a>
</g>
</g>
<!-- Node31&#45;&gt;Node32 -->
<g id="edge39" class="edge"><title>Node31&#45;&gt;Node32</title>
<path fill="none" stroke="midnightblue" d="M634.714,-336.083C633.124,-328.927 630.836,-318.635 628.849,-309.691"/>
<polygon fill="midnightblue" stroke="midnightblue" points="632.226,-308.754 626.64,-299.751 625.393,-310.272 632.226,-308.754"/>
</g>
<!-- Node32&#45;&gt;Node2 -->
<g id="edge40" class="edge"><title>Node32&#45;&gt;Node2</title>
<path fill="none" stroke="midnightblue" d="M627.698,-280.21C634.798,-259.861 653.685,-208.189 675.695,-168 681.05,-158.223 688.02,-147.941 693.994,-139.677"/>
<polygon fill="midnightblue" stroke="midnightblue" points="696.822,-141.74 699.963,-131.622 691.197,-137.573 696.822,-141.74"/>
</g>
<!-- Node33 -->
<g id="node33" class="node"><title>Node33</title>
<g id="a_node33"><a xlink:href="vector_8h.html" target="_top" xlink:title="math/vector.h">
<polygon fill="white" stroke="black" points="117.195,-224.5 117.195,-243.5 194.195,-243.5 194.195,-224.5 117.195,-224.5"/>
<text text-anchor="middle" x="155.695" y="-231.5" font-family="Helvetica,sans-Serif" font-size="10.00">math/vector.h</text>
</a>
</g>
</g>
<!-- Node32&#45;&gt;Node33 -->
<g id="edge41" class="edge"><title>Node32&#45;&gt;Node33</title>
<path fill="none" stroke="midnightblue" d="M574.058,-283.17C483.264,-272.716 293.921,-250.915 204.484,-240.617"/>
<polygon fill="midnightblue" stroke="midnightblue" points="204.677,-237.117 194.342,-239.45 203.876,-244.071 204.677,-237.117"/>
</g>
<!-- Node33&#45;&gt;Node2 -->
<g id="edge42" class="edge"><title>Node33&#45;&gt;Node2</title>
<path fill="none" stroke="midnightblue" d="M194.441,-225.265C291.24,-205.94 543.759,-155.528 653.967,-133.527"/>
<polygon fill="midnightblue" stroke="midnightblue" points="654.742,-136.941 663.863,-131.551 653.371,-130.076 654.742,-136.941"/>
</g>
<!-- Node33&#45;&gt;Node12 -->
<g id="edge48" class="edge"><title>Node33&#45;&gt;Node12</title>
<path fill="none" stroke="midnightblue" d="M123.473,-224.371C104.542,-217.604 81.8215,-206.209 68.6953,-188 46.6973,-157.484 46.0291,-111.362 47.716,-85.7748"/>
<polygon fill="midnightblue" stroke="midnightblue" points="51.2218,-85.8558 48.5887,-75.5934 44.2474,-85.258 51.2218,-85.8558"/>
</g>
<!-- Node33&#45;&gt;Node14 -->
<g id="edge46" class="edge"><title>Node33&#45;&gt;Node14</title>
<path fill="none" stroke="midnightblue" d="M153.598,-224.075C147.46,-197.945 129.431,-121.211 121.06,-85.577"/>
<polygon fill="midnightblue" stroke="midnightblue" points="124.403,-84.5025 118.708,-75.5681 117.588,-86.1036 124.403,-84.5025"/>
</g>
<!-- Node33&#45;&gt;Node18 -->
<g id="edge49" class="edge"><title>Node33&#45;&gt;Node18</title>
<path fill="none" stroke="midnightblue" d="M117.998,-224.372C96.7505,-217.714 71.2337,-206.431 54.6953,-188 14.0833,-142.74 -23.3209,-99.9593 18.6953,-56 52.7093,-20.4129 813.716,-12.5295 981.261,-11.2229"/>
<polygon fill="midnightblue" stroke="midnightblue" points="981.452,-14.7217 991.425,-11.1462 981.399,-7.7219 981.452,-14.7217"/>
</g>
<!-- Node34 -->
<g id="node34" class="node"><title>Node34</title>
<g id="a_node34"><a xlink:href="math_2constants_8h.html" target="_top" xlink:title="constants.h">
<polygon fill="white" stroke="black" points="183.695,-168.5 183.695,-187.5 251.695,-187.5 251.695,-168.5 183.695,-168.5"/>
<text text-anchor="middle" x="217.695" y="-175.5" font-family="Helvetica,sans-Serif" font-size="10.00">constants.h</text>
</a>
</g>
</g>
<!-- Node33&#45;&gt;Node34 -->
<g id="edge43" class="edge"><title>Node33&#45;&gt;Node34</title>
<path fill="none" stroke="midnightblue" d="M165.657,-224.324C174.822,-216.341 188.632,-204.313 199.723,-194.653"/>
<polygon fill="midnightblue" stroke="midnightblue" points="202.311,-197.041 207.553,-187.834 197.713,-191.762 202.311,-197.041"/>
</g>
<!-- Node35 -->
<g id="node35" class="node"><title>Node35</title>
<polygon fill="white" stroke="#bfbfbf" points="77.6953,-168.5 77.6953,-187.5 127.695,-187.5 127.695,-168.5 77.6953,-168.5"/>
<text text-anchor="middle" x="102.695" y="-175.5" font-family="Helvetica,sans-Serif" font-size="10.00">iomanip</text>
</g>
<!-- Node33&#45;&gt;Node35 -->
<g id="edge47" class="edge"><title>Node33&#45;&gt;Node35</title>
<path fill="none" stroke="midnightblue" d="M146.943,-224.083C139.226,-216.22 127.791,-204.569 118.479,-195.081"/>
<polygon fill="midnightblue" stroke="midnightblue" points="120.787,-192.436 111.284,-187.751 115.791,-197.34 120.787,-192.436"/>
</g>
<!-- Node34&#45;&gt;Node2 -->
<g id="edge44" class="edge"><title>Node34&#45;&gt;Node2</title>
<path fill="none" stroke="midnightblue" d="M252.081,-173.203C331.267,-164.458 527.876,-142.747 634.754,-130.944"/>
<polygon fill="midnightblue" stroke="midnightblue" points="635.254,-134.411 644.81,-129.834 634.486,-127.453 635.254,-134.411"/>
</g>
<!-- Node34&#45;&gt;Node5 -->
<g id="edge45" class="edge"><title>Node34&#45;&gt;Node5</title>
<path fill="none" stroke="midnightblue" d="M215.106,-168.368C209.756,-150.537 197.384,-109.295 190.177,-85.2717"/>
<polygon fill="midnightblue" stroke="midnightblue" points="193.499,-84.1639 187.273,-75.5914 186.794,-86.1754 193.499,-84.1639"/>
</g>
</g>
</svg>
        <g id="navigator" transform="translate(0 0)" fill="#404254">
                <rect fill="#f2f5e9" fill-opacity="0.5" stroke="#606060" stroke-width=".5" x="0" y="0" width="60" height="60"/>
                <use id="zoomplus" xlink:href="#zoomPlus" x="17" y="9" onmousedown="handleZoom(evt,'in')"/>
                <use id="zoomminus" xlink:href="#zoomMin" x="42" y="9" onmousedown="handleZoom(evt,'out')"/>
                <use id="reset" xlink:href="#resetDef" x="30" y="36" onmousedown="handleReset()"/>
                <g id="arrowUp" xlink:href="#dirArrow" transform="translate(30 24)" onmousedown="handlePan(0,-1)">
                  <use xlink:href="#rim" fill="#404040">
                        <set attributeName="fill" to="#808080" begin="arrowUp.mouseover" end="arrowUp.mouseout"/>
                  </use>
                  <path fill="none" stroke="white" stroke-width="1.5" d="M0,-3.0v7 M-2.5,-0.5L0,-3.0L2.5,-0.5"/>
                </g>
                <g id="arrowRight" xlink:href="#dirArrow" transform="rotate(90) translate(36 -43)" onmousedown="handlePan(1,0)">
                  <use xlink:href="#rim" fill="#404040">
                        <set attributeName="fill" to="#808080" begin="arrowRight.mouseover" end="arrowRight.mouseout"/>
                  </use>
                  <path fill="none" stroke="white" stroke-width="1.5" d="M0,-3.0v7 M-2.5,-0.5L0,-3.0L2.5,-0.5"/>
                </g>
                <g id="arrowDown" xlink:href="#dirArrow" transform="rotate(180) translate(-30 -48)" onmousedown="handlePan(0,1)">
                  <use xlink:href="#rim" fill="#404040">
                        <set attributeName="fill" to="#808080" begin="arrowDown.mouseover" end="arrowDown.mouseout"/>
                  </use>
                  <path fill="none" stroke="white" stroke-width="1.5" d="M0,-3.0v7 M-2.5,-0.5L0,-3.0L2.5,-0.5"/>
                </g>
                <g id="arrowLeft" xlink:href="#dirArrow" transform="rotate(270) translate(-36 17)" onmousedown="handlePan(-1,0)">
                  <use xlink:href="#rim" fill="#404040">
                        <set attributeName="fill" to="#808080" begin="arrowLeft.mouseover" end="arrowLeft.mouseout"/>
                  </use>
                  <path fill="none" stroke="white" stroke-width="1.5" d="M0,-3.0v7 M-2.5,-0.5L0,-3.0L2.5,-0.5"/>
                </g>
        </g>
        <svg viewBox="0 0 15 15" width="100%" height="30px" preserveAspectRatio="xMaxYMin meet">
         <g id="arrow_out" transform="scale(0.3 0.3)">
          <a xlink:href="json2tab_8cpp__incl_org.svg" target="_base">
           <rect id="button" ry="5" rx="5" y="6" x="6" height="38" width="38"
                fill="#f2f5e9" fill-opacity="0.5" stroke="#606060" stroke-width="1.0"/>
           <path id="arrow"
             d="M 11.500037,31.436501 C 11.940474,20.09759 22.043105,11.32322 32.158766,21.979434 L 37.068811,17.246167 C 37.068811,17.246167 37.088388,32 37.088388,32 L 22.160133,31.978069 C 22.160133,31.978069 26.997745,27.140456 26.997745,27.140456 C 18.528582,18.264221 13.291696,25.230495 11.500037,31.436501 z"
             style="fill:#404040;"/>
          </a>
         </g>
        </svg>
</svg>
