<?xml version="1.0" encoding="UTF-8" standalone="no"?>
<!DOCTYPE svg PUBLIC "-//W3C//DTD SVG 1.1//EN"
 "http://www.w3.org/Graphics/SVG/1.1/DTD/svg11.dtd">
<!-- Generated by graphviz version 2.38.0 (20140413.2041)
 -->
<!-- Title: jsonclass.h Pages: 1 -->
<svg width="266pt" height="84pt"
 viewBox="0.00 0.00 265.50 84.00" xmlns="http://www.w3.org/2000/svg" xmlns:xlink="http://www.w3.org/1999/xlink">
<g id="graph0" class="graph" transform="scale(1 1) rotate(0) translate(4 80)">
<title>jsonclass.h</title>
<polygon fill="white" stroke="none" points="-4,4 -4,-80 261.5,-80 261.5,4 -4,4"/>
<!-- Node1 -->
<g id="node1" class="node"><title>Node1</title>
<polygon fill="#bfbfbf" stroke="black" points="98.5,-56.5 98.5,-75.5 164.5,-75.5 164.5,-56.5 98.5,-56.5"/>
<text text-anchor="middle" x="131.5" y="-63.5" font-family="Helvetica,sans-Serif" font-size="10.00">jsonclass.h</text>
</g>
<!-- Node2 -->
<g id="node2" class="node"><title>Node2</title>
<g id="a_node2"><a xlink:href="jsonclass_8cpp.html" target="_top" xlink:title="jsonclass.cpp">
<polygon fill="white" stroke="black" points="0,-0.5 0,-19.5 77,-19.5 77,-0.5 0,-0.5"/>
<text text-anchor="middle" x="38.5" y="-7.5" font-family="Helvetica,sans-Serif" font-size="10.00">jsonclass.cpp</text>
</a>
</g>
</g>
<!-- Node1&#45;&gt;Node2 -->
<g id="edge1" class="edge"><title>Node1&#45;&gt;Node2</title>
<path fill="none" stroke="midnightblue" d="M107.694,-51.1774C90.5811,-41.2407 68.0347,-28.1492 53.405,-19.6545"/>
<polygon fill="midnightblue" stroke="midnightblue" points="106.153,-54.3293 116.558,-56.324 109.668,-48.2758 106.153,-54.3293"/>
</g>
<!-- Node3 -->
<g id="node3" class="node"><title>Node3</title>
<g id="a_node3"><a xlink:href="json2tab_8cpp.html" target="_top" xlink:title="json2tab.cpp">
<polygon fill="white" stroke="black" points="95.5,-0.5 95.5,-19.5 167.5,-19.5 167.5,-0.5 95.5,-0.5"/>
<text text-anchor="middle" x="131.5" y="-7.5" font-family="Helvetica,sans-Serif" font-size="10.00">json2tab.cpp</text>
</a>
</g>
</g>
<!-- Node1&#45;&gt;Node3 -->
<g id="edge2" class="edge"><title>Node1&#45;&gt;Node3</title>
<path fill="none" stroke="midnightblue" d="M131.5,-45.8045C131.5,-36.9102 131.5,-26.7798 131.5,-19.7511"/>
<polygon fill="midnightblue" stroke="midnightblue" points="128,-46.083 131.5,-56.083 135,-46.083 128,-46.083"/>
</g>
<!-- Node4 -->
<g id="node4" class="node"><title>Node4</title>
<g id="a_node4"><a xlink:href="tab2json_8cpp.html" target="_top" xlink:title="tab2json.cpp">
<polygon fill="white" stroke="black" points="185.5,-0.5 185.5,-19.5 257.5,-19.5 257.5,-0.5 185.5,-0.5"/>
<text text-anchor="middle" x="221.5" y="-7.5" font-family="Helvetica,sans-Serif" font-size="10.00">tab2json.cpp</text>
</a>
</g>
</g>
<!-- Node1&#45;&gt;Node4 -->
<g id="edge3" class="edge"><title>Node1&#45;&gt;Node4</title>
<path fill="none" stroke="midnightblue" d="M154.538,-51.1774C171.099,-41.2407 192.918,-28.1492 207.076,-19.6545"/>
<polygon fill="midnightblue" stroke="midnightblue" points="152.734,-48.1777 145.96,-56.324 156.336,-54.1802 152.734,-48.1777"/>
</g>
</g>
</svg>
