<?xml version="1.0" encoding="UTF-8" standalone="no"?>
<!DOCTYPE svg PUBLIC "-//W3C//DTD SVG 1.1//EN"
 "http://www.w3.org/Graphics/SVG/1.1/DTD/svg11.dtd">
<!-- Generated by graphviz version 2.38.0 (20140413.2041)
 -->
<!-- Title: julian.cpp Pages: 1 -->
<!--zoomable 532 -->
<svg id="main" version="1.1" xmlns="http://www.w3.org/2000/svg" xmlns:xlink="http://www.w3.org/1999/xlink" xml:space="preserve" onload="init(evt)">
<style type="text/css"><![CDATA[
.edge:hover path { stroke: red; }
.edge:hover polygon { stroke: red; fill: red; }
]]></style>
<script type="text/javascript"><![CDATA[
var edges = document.getElementsByTagName('g');
if (edges && edges.length) {
  for (var i=0;i<edges.length;i++) {
    if (edges[i].id.substr(0,4)=='edge') {
      edges[i].setAttribute('class','edge');
    }
  }
}
]]></script>
        <defs>
                <circle id="rim" cx="0" cy="0" r="7"/>
                <circle id="rim2" cx="0" cy="0" r="3.5"/>
                <g id="zoomPlus">
                        <use xlink:href="#rim" fill="#404040">
                                <set attributeName="fill" to="#808080" begin="zoomplus.mouseover" end="zoomplus.mouseout"/>
                        </use>
                        <path d="M-4,0h8M0,-4v8" fill="none" stroke="white" stroke-width="1.5" pointer-events="none"/>
                </g>
                <g id="zoomMin">
                        <use xlink:href="#rim" fill="#404040">
                                <set attributeName="fill" to="#808080" begin="zoomminus.mouseover" end="zoomminus.mouseout"/>
                        </use>
                        <path d="M-4,0h8" fill="none" stroke="white" stroke-width="1.5" pointer-events="none"/>
                </g>
                <g id="dirArrow">
                        <path fill="none" stroke="white" stroke-width="1.5" d="M0,-3.0v7 M-2.5,-0.5L0,-3.0L2.5,-0.5"/>
                </g>
               <g id="resetDef">
                       <use xlink:href="#rim2" fill="#404040">
                               <set attributeName="fill" to="#808080" begin="reset.mouseover" end="reset.mouseout"/>
                       </use>
               </g>
        </defs>

<script type="text/javascript">
var viewWidth = 1497;
var viewHeight = 532;
var sectionId = 'dynsection-0';
</script>
<script xlink:href="svgpan.js"/>
<svg id="graph" class="graph">
<g id="viewport">
<title>julian.cpp</title>
<polygon fill="white" stroke="none" points="-4,4 -4,-528 1492.5,-528 1492.5,4 -4,4"/>
<!-- Node1 -->
<g id="node1" class="node"><title>Node1</title>
<polygon fill="#bfbfbf" stroke="black" points="1254.5,-504.5 1254.5,-523.5 1312.5,-523.5 1312.5,-504.5 1254.5,-504.5"/>
<text text-anchor="middle" x="1283.5" y="-511.5" font-family="Helvetica,sans-Serif" font-size="10.00">julian.cpp</text>
</g>
<!-- Node2 -->
<g id="node2" class="node"><title>Node2</title>
<g id="a_node2"><a xlink:href="config_cosmos_8h.html" target="_top" xlink:title="Headers and definitions common to all COSMOS. ">
<polygon fill="white" stroke="black" points="809,-112.5 809,-131.5 932,-131.5 932,-112.5 809,-112.5"/>
<text text-anchor="middle" x="870.5" y="-119.5" font-family="Helvetica,sans-Serif" font-size="10.00">support/configCosmos.h</text>
</a>
</g>
</g>
<!-- Node1&#45;&gt;Node2 -->
<g id="edge1" class="edge"><title>Node1&#45;&gt;Node2</title>
<path fill="none" stroke="midnightblue" d="M1286.2,-504.258C1291.66,-485.765 1303.5,-441.238 1303.5,-403 1303.5,-403 1303.5,-403 1303.5,-233 1303.5,-191.829 1274.57,-185.904 1237.5,-168 1186.94,-143.583 1034.09,-131.523 942.374,-126.334"/>
<polygon fill="midnightblue" stroke="midnightblue" points="942.503,-122.835 932.325,-125.779 942.117,-129.825 942.503,-122.835"/>
</g>
<!-- Node15 -->
<g id="node15" class="node"><title>Node15</title>
<polygon fill="white" stroke="#bfbfbf" points="1337,-56.5 1337,-75.5 1388,-75.5 1388,-56.5 1337,-56.5"/>
<text text-anchor="middle" x="1362.5" y="-63.5" font-family="Helvetica,sans-Serif" font-size="10.00">unistd.h</text>
</g>
<!-- Node1&#45;&gt;Node15 -->
<g id="edge74" class="edge"><title>Node1&#45;&gt;Node15</title>
<path fill="none" stroke="midnightblue" d="M1291.81,-504.411C1307.85,-486.887 1341.5,-445.099 1341.5,-403 1341.5,-403 1341.5,-403 1341.5,-177 1341.5,-144.384 1350.52,-107.278 1356.73,-85.5732"/>
<polygon fill="midnightblue" stroke="midnightblue" points="1360.17,-86.3151 1359.67,-75.7319 1353.46,-84.3156 1360.17,-86.3151"/>
</g>
<!-- Node28 -->
<g id="node28" class="node"><title>Node28</title>
<g id="a_node28"><a xlink:href="timelib_8h.html" target="_top" xlink:title="timelib include file A library providing functions for handling various types of time. ">
<polygon fill="white" stroke="black" points="885,-448.5 885,-467.5 974,-467.5 974,-448.5 885,-448.5"/>
<text text-anchor="middle" x="929.5" y="-455.5" font-family="Helvetica,sans-Serif" font-size="10.00">support/timelib.h</text>
</a>
</g>
</g>
<!-- Node1&#45;&gt;Node28 -->
<g id="edge33" class="edge"><title>Node1&#45;&gt;Node28</title>
<path fill="none" stroke="midnightblue" d="M1254.23,-508.535C1195.06,-499.509 1060.4,-478.967 984.376,-467.371"/>
<polygon fill="midnightblue" stroke="midnightblue" points="984.466,-463.844 974.053,-465.796 983.411,-470.764 984.466,-463.844"/>
</g>
<!-- Node40 -->
<g id="node40" class="node"><title>Node40</title>
<polygon fill="white" stroke="#bfbfbf" points="1167.5,-392.5 1167.5,-411.5 1211.5,-411.5 1211.5,-392.5 1167.5,-392.5"/>
<text text-anchor="middle" x="1189.5" y="-399.5" font-family="Helvetica,sans-Serif" font-size="10.00">time.h</text>
</g>
<!-- Node1&#45;&gt;Node40 -->
<g id="edge73" class="edge"><title>Node1&#45;&gt;Node40</title>
<path fill="none" stroke="midnightblue" d="M1276.12,-504.368C1260.47,-486.055 1223.72,-443.049 1203.48,-419.362"/>
<polygon fill="midnightblue" stroke="midnightblue" points="1206,-416.92 1196.84,-411.591 1200.68,-421.468 1206,-416.92"/>
</g>
<!-- Node41 -->
<g id="node41" class="node"><title>Node41</title>
<polygon fill="white" stroke="#bfbfbf" points="1229.5,-392.5 1229.5,-411.5 1275.5,-411.5 1275.5,-392.5 1229.5,-392.5"/>
<text text-anchor="middle" x="1252.5" y="-399.5" font-family="Helvetica,sans-Serif" font-size="10.00">stdio.h</text>
</g>
<!-- Node1&#45;&gt;Node41 -->
<g id="edge71" class="edge"><title>Node1&#45;&gt;Node41</title>
<path fill="none" stroke="midnightblue" d="M1281.07,-504.368C1276.04,-486.537 1264.42,-445.295 1257.65,-421.272"/>
<polygon fill="midnightblue" stroke="midnightblue" points="1261,-420.267 1254.92,-411.591 1254.27,-422.166 1261,-420.267"/>
</g>
<!-- Node43 -->
<g id="node43" class="node"><title>Node43</title>
<polygon fill="white" stroke="#bfbfbf" points="1369.5,-448.5 1369.5,-467.5 1431.5,-467.5 1431.5,-448.5 1369.5,-448.5"/>
<text text-anchor="middle" x="1400.5" y="-455.5" font-family="Helvetica,sans-Serif" font-size="10.00">sys/time.h</text>
</g>
<!-- Node1&#45;&gt;Node43 -->
<g id="edge72" class="edge"><title>Node1&#45;&gt;Node43</title>
<path fill="none" stroke="midnightblue" d="M1302.04,-504.444C1321.12,-495.636 1351.07,-481.812 1372.94,-471.722"/>
<polygon fill="midnightblue" stroke="midnightblue" points="1374.43,-474.885 1382.05,-467.516 1371.5,-468.529 1374.43,-474.885"/>
</g>
<!-- Node3 -->
<g id="node3" class="node"><title>Node3</title>
<polygon fill="white" stroke="#bfbfbf" points="1106,-56.5 1106,-75.5 1151,-75.5 1151,-56.5 1106,-56.5"/>
<text text-anchor="middle" x="1128.5" y="-63.5" font-family="Helvetica,sans-Serif" font-size="10.00">climits</text>
</g>
<!-- Node2&#45;&gt;Node3 -->
<g id="edge2" class="edge"><title>Node2&#45;&gt;Node3</title>
<path fill="none" stroke="midnightblue" d="M919.232,-112.427C963.011,-104.471 1029.24,-91.8101 1095.98,-75.9701"/>
<polygon fill="midnightblue" stroke="midnightblue" points="1096.92,-79.3442 1105.83,-73.6102 1095.29,-72.537 1096.92,-79.3442"/>
</g>
<!-- Node4 -->
<g id="node4" class="node"><title>Node4</title>
<polygon fill="white" stroke="#bfbfbf" points="1169,-56.5 1169,-75.5 1216,-75.5 1216,-56.5 1169,-56.5"/>
<text text-anchor="middle" x="1192.5" y="-63.5" font-family="Helvetica,sans-Serif" font-size="10.00">csignal</text>
</g>
<!-- Node2&#45;&gt;Node4 -->
<g id="edge3" class="edge"><title>Node2&#45;&gt;Node4</title>
<path fill="none" stroke="midnightblue" d="M932.035,-113.448C988.555,-106.051 1074.78,-93.6132 1158.82,-75.9332"/>
<polygon fill="midnightblue" stroke="midnightblue" points="1159.73,-79.3162 1168.78,-73.8085 1158.27,-72.4699 1159.73,-79.3162"/>
</g>
<!-- Node5 -->
<g id="node5" class="node"><title>Node5</title>
<polygon fill="white" stroke="#bfbfbf" points="1272.5,-56.5 1272.5,-75.5 1318.5,-75.5 1318.5,-56.5 1272.5,-56.5"/>
<text text-anchor="middle" x="1295.5" y="-63.5" font-family="Helvetica,sans-Serif" font-size="10.00">cstdint</text>
</g>
<!-- Node2&#45;&gt;Node5 -->
<g id="edge4" class="edge"><title>Node2&#45;&gt;Node5</title>
<path fill="none" stroke="midnightblue" d="M932.33,-116.194C1009.19,-109.678 1144.19,-96.4519 1258.5,-76 1259.74,-75.7773 1261.01,-75.5377 1262.29,-75.2849"/>
<polygon fill="midnightblue" stroke="midnightblue" points="1263.08,-78.6949 1272.1,-73.1514 1261.59,-71.8545 1263.08,-78.6949"/>
</g>
<!-- Node6 -->
<g id="node6" class="node"><title>Node6</title>
<polygon fill="white" stroke="#bfbfbf" points="455.5,-56.5 455.5,-75.5 511.5,-75.5 511.5,-56.5 455.5,-56.5"/>
<text text-anchor="middle" x="483.5" y="-63.5" font-family="Helvetica,sans-Serif" font-size="10.00">cinttypes</text>
</g>
<!-- Node2&#45;&gt;Node6 -->
<g id="edge5" class="edge"><title>Node2&#45;&gt;Node6</title>
<path fill="none" stroke="midnightblue" d="M808.835,-113.449C722.692,-102.847 572.002,-84.0924 521.59,-75.9133"/>
<polygon fill="midnightblue" stroke="midnightblue" points="522.163,-72.4605 511.712,-74.2033 520.969,-79.3579 522.163,-72.4605"/>
</g>
<!-- Node7 -->
<g id="node7" class="node"><title>Node7</title>
<polygon fill="white" stroke="#bfbfbf" points="530,-56.5 530,-75.5 573,-75.5 573,-56.5 530,-56.5"/>
<text text-anchor="middle" x="551.5" y="-63.5" font-family="Helvetica,sans-Serif" font-size="10.00">cstdio</text>
</g>
<!-- Node2&#45;&gt;Node7 -->
<g id="edge6" class="edge"><title>Node2&#45;&gt;Node7</title>
<path fill="none" stroke="midnightblue" d="M809.45,-112.497C742.226,-102.969 637.387,-87.5799 582.917,-76.0287"/>
<polygon fill="midnightblue" stroke="midnightblue" points="583.556,-72.5856 573.036,-73.8458 582.046,-79.4208 583.556,-72.5856"/>
</g>
<!-- Node8 -->
<g id="node8" class="node"><title>Node8</title>
<polygon fill="white" stroke="#bfbfbf" points="591,-56.5 591,-75.5 640,-75.5 640,-56.5 591,-56.5"/>
<text text-anchor="middle" x="615.5" y="-63.5" font-family="Helvetica,sans-Serif" font-size="10.00">cstddef</text>
</g>
<!-- Node2&#45;&gt;Node8 -->
<g id="edge7" class="edge"><title>Node2&#45;&gt;Node8</title>
<path fill="none" stroke="midnightblue" d="M823.958,-112.496C781.104,-104.457 715.552,-91.6374 650.356,-76.3347"/>
<polygon fill="midnightblue" stroke="midnightblue" points="650.858,-72.8571 640.321,-73.9587 649.246,-79.6687 650.858,-72.8571"/>
</g>
<!-- Node9 -->
<g id="node9" class="node"><title>Node9</title>
<polygon fill="white" stroke="#bfbfbf" points="658,-56.5 658,-75.5 703,-75.5 703,-56.5 658,-56.5"/>
<text text-anchor="middle" x="680.5" y="-63.5" font-family="Helvetica,sans-Serif" font-size="10.00">cstdlib</text>
</g>
<!-- Node2&#45;&gt;Node9 -->
<g id="edge8" class="edge"><title>Node2&#45;&gt;Node9</title>
<path fill="none" stroke="midnightblue" d="M840.394,-112.444C805.632,-102.564 748.666,-86.3734 712.944,-76.2208"/>
<polygon fill="midnightblue" stroke="midnightblue" points="713.604,-72.7698 703.028,-73.4026 711.69,-79.5032 713.604,-72.7698"/>
</g>
<!-- Node10 -->
<g id="node10" class="node"><title>Node10</title>
<polygon fill="white" stroke="#bfbfbf" points="721.5,-56.5 721.5,-75.5 765.5,-75.5 765.5,-56.5 721.5,-56.5"/>
<text text-anchor="middle" x="743.5" y="-63.5" font-family="Helvetica,sans-Serif" font-size="10.00">cerrno</text>
</g>
<!-- Node2&#45;&gt;Node10 -->
<g id="edge9" class="edge"><title>Node2&#45;&gt;Node10</title>
<path fill="none" stroke="midnightblue" d="M850.376,-112.444C829.476,-103.557 796.565,-89.5632 772.784,-79.4514"/>
<polygon fill="midnightblue" stroke="midnightblue" points="774.102,-76.2085 763.529,-75.5164 771.362,-82.6504 774.102,-76.2085"/>
</g>
<!-- Node11 -->
<g id="node11" class="node"><title>Node11</title>
<polygon fill="white" stroke="#bfbfbf" points="783.5,-56.5 783.5,-75.5 829.5,-75.5 829.5,-56.5 783.5,-56.5"/>
<text text-anchor="middle" x="806.5" y="-63.5" font-family="Helvetica,sans-Serif" font-size="10.00">cstring</text>
</g>
<!-- Node2&#45;&gt;Node11 -->
<g id="edge10" class="edge"><title>Node2&#45;&gt;Node11</title>
<path fill="none" stroke="midnightblue" d="M860.217,-112.324C850.664,-104.263 836.22,-92.0765 824.716,-82.3695"/>
<polygon fill="midnightblue" stroke="midnightblue" points="826.87,-79.6076 816.97,-75.8339 822.356,-84.9577 826.87,-79.6076"/>
</g>
<!-- Node12 -->
<g id="node12" class="node"><title>Node12</title>
<polygon fill="white" stroke="#bfbfbf" points="1444.5,-56.5 1444.5,-75.5 1488.5,-75.5 1488.5,-56.5 1444.5,-56.5"/>
<text text-anchor="middle" x="1466.5" y="-63.5" font-family="Helvetica,sans-Serif" font-size="10.00">cmath</text>
</g>
<!-- Node2&#45;&gt;Node12 -->
<g id="edge11" class="edge"><title>Node2&#45;&gt;Node12</title>
<path fill="none" stroke="midnightblue" d="M932.126,-116.582C1030.45,-109.341 1228.82,-93.9443 1396.5,-76 1408.94,-74.6689 1422.59,-72.9681 1434.51,-71.4042"/>
<polygon fill="midnightblue" stroke="midnightblue" points="1435.01,-74.8682 1444.46,-70.0778 1434.08,-67.9296 1435.01,-74.8682"/>
</g>
<!-- Node13 -->
<g id="node13" class="node"><title>Node13</title>
<polygon fill="white" stroke="#bfbfbf" points="848,-56.5 848,-75.5 893,-75.5 893,-56.5 848,-56.5"/>
<text text-anchor="middle" x="870.5" y="-63.5" font-family="Helvetica,sans-Serif" font-size="10.00">iosfwd</text>
</g>
<!-- Node2&#45;&gt;Node13 -->
<g id="edge12" class="edge"><title>Node2&#45;&gt;Node13</title>
<path fill="none" stroke="midnightblue" d="M870.5,-112.083C870.5,-105.006 870.5,-94.8611 870.5,-85.9865"/>
<polygon fill="midnightblue" stroke="midnightblue" points="874,-85.751 870.5,-75.7511 867,-85.7511 874,-85.751"/>
</g>
<!-- Node14 -->
<g id="node14" class="node"><title>Node14</title>
<polygon fill="white" stroke="#bfbfbf" points="59.5,-56.5 59.5,-75.5 113.5,-75.5 113.5,-56.5 59.5,-56.5"/>
<text text-anchor="middle" x="86.5" y="-63.5" font-family="Helvetica,sans-Serif" font-size="10.00">iostream</text>
</g>
<!-- Node2&#45;&gt;Node14 -->
<g id="edge13" class="edge"><title>Node2&#45;&gt;Node14</title>
<path fill="none" stroke="midnightblue" d="M808.732,-113.351C803.92,-112.857 799.133,-112.399 794.5,-112 498.719,-86.5308 421.675,-115.957 127.5,-76 126.241,-75.829 124.963,-75.6395 123.675,-75.4348"/>
<polygon fill="midnightblue" stroke="midnightblue" points="124.202,-71.9734 113.737,-73.6243 122.948,-78.8601 124.202,-71.9734"/>
</g>
<!-- Node2&#45;&gt;Node15 -->
<g id="edge14" class="edge"><title>Node2&#45;&gt;Node15</title>
<path fill="none" stroke="midnightblue" d="M932.261,-117.934C1018.49,-112.987 1179.91,-101.306 1326.88,-75.8222"/>
<polygon fill="midnightblue" stroke="midnightblue" points="1327.74,-79.2239 1336.98,-74.0436 1326.53,-72.3298 1327.74,-79.2239"/>
</g>
<!-- Node16 -->
<g id="node16" class="node"><title>Node16</title>
<polygon fill="white" stroke="#bfbfbf" points="911.5,-56.5 911.5,-75.5 955.5,-75.5 955.5,-56.5 911.5,-56.5"/>
<text text-anchor="middle" x="933.5" y="-63.5" font-family="Helvetica,sans-Serif" font-size="10.00">fcntl.h</text>
</g>
<!-- Node2&#45;&gt;Node16 -->
<g id="edge15" class="edge"><title>Node2&#45;&gt;Node16</title>
<path fill="none" stroke="midnightblue" d="M880.622,-112.324C890.026,-104.263 904.244,-92.0765 915.569,-82.3695"/>
<polygon fill="midnightblue" stroke="midnightblue" points="917.879,-84.9993 923.194,-75.8339 913.323,-79.6844 917.879,-84.9993"/>
</g>
<!-- Node17 -->
<g id="node17" class="node"><title>Node17</title>
<polygon fill="white" stroke="#bfbfbf" points="0,-56.5 0,-75.5 41,-75.5 41,-56.5 0,-56.5"/>
<text text-anchor="middle" x="20.5" y="-63.5" font-family="Helvetica,sans-Serif" font-size="10.00">string</text>
</g>
<!-- Node2&#45;&gt;Node17 -->
<g id="edge16" class="edge"><title>Node2&#45;&gt;Node17</title>
<path fill="none" stroke="midnightblue" d="M808.803,-118.014C633.199,-109.465 138.231,-85.0005 50.9764,-75.2095"/>
<polygon fill="midnightblue" stroke="midnightblue" points="51.3842,-71.7327 41.0027,-73.8483 50.4376,-78.6685 51.3842,-71.7327"/>
</g>
<!-- Node18 -->
<g id="node18" class="node"><title>Node18</title>
<polygon fill="white" stroke="#bfbfbf" points="1222.5,-0.5 1222.5,-19.5 1266.5,-19.5 1266.5,-0.5 1222.5,-0.5"/>
<text text-anchor="middle" x="1244.5" y="-7.5" font-family="Helvetica,sans-Serif" font-size="10.00">vector</text>
</g>
<!-- Node2&#45;&gt;Node18 -->
<g id="edge17" class="edge"><title>Node2&#45;&gt;Node18</title>
<path fill="none" stroke="midnightblue" d="M932.06,-120.98C1021.52,-119.685 1181.48,-112.192 1224.5,-76 1237.89,-64.7347 1242.48,-44.725 1243.97,-29.8729"/>
<polygon fill="midnightblue" stroke="midnightblue" points="1247.47,-29.9492 1244.6,-19.751 1240.49,-29.5142 1247.47,-29.9492"/>
</g>
<!-- Node19 -->
<g id="node19" class="node"><title>Node19</title>
<polygon fill="white" stroke="#bfbfbf" points="974,-56.5 974,-75.5 1017,-75.5 1017,-56.5 974,-56.5"/>
<text text-anchor="middle" x="995.5" y="-63.5" font-family="Helvetica,sans-Serif" font-size="10.00">deque</text>
</g>
<!-- Node2&#45;&gt;Node19 -->
<g id="edge18" class="edge"><title>Node2&#45;&gt;Node19</title>
<path fill="none" stroke="midnightblue" d="M890.307,-112.444C910.787,-103.596 942.983,-89.6875 966.365,-79.5865"/>
<polygon fill="midnightblue" stroke="midnightblue" points="967.994,-82.6953 975.786,-75.5164 965.218,-76.2692 967.994,-82.6953"/>
</g>
<!-- Node20 -->
<g id="node20" class="node"><title>Node20</title>
<polygon fill="white" stroke="#bfbfbf" points="83.5,-0.5 83.5,-19.5 127.5,-19.5 127.5,-0.5 83.5,-0.5"/>
<text text-anchor="middle" x="105.5" y="-7.5" font-family="Helvetica,sans-Serif" font-size="10.00">mutex</text>
</g>
<!-- Node2&#45;&gt;Node20 -->
<g id="edge19" class="edge"><title>Node2&#45;&gt;Node20</title>
<path fill="none" stroke="midnightblue" d="M808.729,-113.383C803.918,-112.882 799.132,-112.414 794.5,-112 662.119,-100.18 322.903,-120.03 197.5,-76 167.688,-65.5329 138.862,-42.3885 121.652,-26.7371"/>
<polygon fill="midnightblue" stroke="midnightblue" points="123.874,-24.0236 114.182,-19.744 119.09,-29.1336 123.874,-24.0236"/>
</g>
<!-- Node21 -->
<g id="node21" class="node"><title>Node21</title>
<polygon fill="white" stroke="#bfbfbf" points="145.5,-0.5 145.5,-19.5 189.5,-19.5 189.5,-0.5 145.5,-0.5"/>
<text text-anchor="middle" x="167.5" y="-7.5" font-family="Helvetica,sans-Serif" font-size="10.00">thread</text>
</g>
<!-- Node2&#45;&gt;Node21 -->
<g id="edge20" class="edge"><title>Node2&#45;&gt;Node21</title>
<path fill="none" stroke="midnightblue" d="M808.728,-113.4C803.917,-112.895 799.131,-112.421 794.5,-112 668.765,-100.572 341.491,-130.278 227.5,-76 205.913,-65.721 188.391,-43.9041 177.974,-28.3846"/>
<polygon fill="midnightblue" stroke="midnightblue" points="180.761,-26.245 172.433,-19.6948 174.859,-30.0084 180.761,-26.245"/>
</g>
<!-- Node22 -->
<g id="node22" class="node"><title>Node22</title>
<polygon fill="white" stroke="#bfbfbf" points="208,-0.5 208,-19.5 303,-19.5 303,-0.5 208,-0.5"/>
<text text-anchor="middle" x="255.5" y="-7.5" font-family="Helvetica,sans-Serif" font-size="10.00">condition_variable</text>
</g>
<!-- Node2&#45;&gt;Node22 -->
<g id="edge21" class="edge"><title>Node2&#45;&gt;Node22</title>
<path fill="none" stroke="midnightblue" d="M808.727,-113.405C803.916,-112.899 799.131,-112.423 794.5,-112 732.629,-106.345 278.994,-121.324 236.5,-76 224.363,-63.0543 233.143,-42.7784 242.393,-28.3163"/>
<polygon fill="midnightblue" stroke="midnightblue" points="245.489,-29.9957 248.325,-19.7876 239.742,-25.9986 245.489,-29.9957"/>
</g>
<!-- Node23 -->
<g id="node23" class="node"><title>Node23</title>
<polygon fill="white" stroke="#bfbfbf" points="368,-0.5 368,-19.5 411,-19.5 411,-0.5 368,-0.5"/>
<text text-anchor="middle" x="389.5" y="-7.5" font-family="Helvetica,sans-Serif" font-size="10.00">queue</text>
</g>
<!-- Node2&#45;&gt;Node23 -->
<g id="edge22" class="edge"><title>Node2&#45;&gt;Node23</title>
<path fill="none" stroke="midnightblue" d="M808.709,-113.587C803.902,-113.04 799.123,-112.505 794.5,-112 714.576,-103.272 503.769,-116.815 434.5,-76 416.437,-65.3569 403.909,-44.2731 396.741,-28.9974"/>
<polygon fill="midnightblue" stroke="midnightblue" points="399.83,-27.3244 392.633,-19.5494 393.411,-30.1157 399.83,-27.3244"/>
</g>
<!-- Node24 -->
<g id="node24" class="node"><title>Node24</title>
<polygon fill="white" stroke="#bfbfbf" points="1035.5,-56.5 1035.5,-75.5 1087.5,-75.5 1087.5,-56.5 1035.5,-56.5"/>
<text text-anchor="middle" x="1061.5" y="-63.5" font-family="Helvetica,sans-Serif" font-size="10.00">sstream</text>
</g>
<!-- Node2&#45;&gt;Node24 -->
<g id="edge23" class="edge"><title>Node2&#45;&gt;Node24</title>
<path fill="none" stroke="midnightblue" d="M900.765,-112.444C934.705,-102.848 989.704,-87.2984 1025.74,-77.1104"/>
<polygon fill="midnightblue" stroke="midnightblue" points="1026.7,-80.4771 1035.37,-74.3884 1024.79,-73.7411 1026.7,-80.4771"/>
</g>
<!-- Node25 -->
<g id="node25" class="node"><title>Node25</title>
<polygon fill="white" stroke="#bfbfbf" points="429,-0.5 429,-19.5 464,-19.5 464,-0.5 429,-0.5"/>
<text text-anchor="middle" x="446.5" y="-7.5" font-family="Helvetica,sans-Serif" font-size="10.00">map</text>
</g>
<!-- Node2&#45;&gt;Node25 -->
<g id="edge24" class="edge"><title>Node2&#45;&gt;Node25</title>
<path fill="none" stroke="midnightblue" d="M808.707,-113.605C803.901,-113.053 799.122,-112.513 794.5,-112 755.864,-107.714 472.535,-104.867 446.5,-76 435.418,-63.7128 437.031,-44.1777 440.431,-29.7279"/>
<polygon fill="midnightblue" stroke="midnightblue" points="443.865,-30.4476 443.2,-19.8736 437.126,-28.5542 443.865,-30.4476"/>
</g>
<!-- Node26 -->
<g id="node26" class="node"><title>Node26</title>
<g id="a_node26"><a xlink:href="cosmos-defs_8h.html" target="_top" xlink:title="COSMOS definitions Definitions specific to the COSMOS environement. ">
<polygon fill="white" stroke="black" points="245.5,-56.5 245.5,-75.5 361.5,-75.5 361.5,-56.5 245.5,-56.5"/>
<text text-anchor="middle" x="303.5" y="-63.5" font-family="Helvetica,sans-Serif" font-size="10.00">support/cosmos&#45;defs.h</text>
</a>
</g>
</g>
<!-- Node2&#45;&gt;Node26 -->
<g id="edge25" class="edge"><title>Node2&#45;&gt;Node26</title>
<path fill="none" stroke="midnightblue" d="M808.717,-113.515C803.908,-112.984 799.126,-112.473 794.5,-112 608.559,-93.0074 561.378,-95.5952 375.5,-76 374.232,-75.8663 372.951,-75.7291 371.661,-75.5888"/>
<polygon fill="midnightblue" stroke="midnightblue" points="371.965,-72.1011 361.637,-74.4627 371.183,-79.0573 371.965,-72.1011"/>
</g>
<!-- Node26&#45;&gt;Node18 -->
<g id="edge27" class="edge"><title>Node26&#45;&gt;Node18</title>
<path fill="none" stroke="midnightblue" d="M361.591,-61.2577C387.566,-59.6066 418.565,-57.6667 446.5,-56 743.794,-38.2624 1103.51,-18.6363 1212.01,-12.7561"/>
<polygon fill="midnightblue" stroke="midnightblue" points="1212.49,-16.2353 1222.28,-12.1996 1212.11,-9.24556 1212.49,-16.2353"/>
</g>
<!-- Node26&#45;&gt;Node20 -->
<g id="edge31" class="edge"><title>Node26&#45;&gt;Node20</title>
<path fill="none" stroke="midnightblue" d="M271.122,-56.4741C239.414,-48.0806 189.485,-34.7483 137.272,-20.1782"/>
<polygon fill="midnightblue" stroke="midnightblue" points="138.074,-16.768 127.5,-17.4442 136.188,-23.5092 138.074,-16.768"/>
</g>
<!-- Node26&#45;&gt;Node21 -->
<g id="edge30" class="edge"><title>Node26&#45;&gt;Node21</title>
<path fill="none" stroke="midnightblue" d="M281.95,-56.4435C259.469,-47.5171 224.012,-33.4387 198.52,-23.3168"/>
<polygon fill="midnightblue" stroke="midnightblue" points="199.535,-19.9539 188.949,-19.5164 196.951,-26.4598 199.535,-19.9539"/>
</g>
<!-- Node26&#45;&gt;Node22 -->
<g id="edge32" class="edge"><title>Node26&#45;&gt;Node22</title>
<path fill="none" stroke="midnightblue" d="M295.574,-56.083C288.654,-48.2982 278.435,-36.8015 270.048,-27.3665"/>
<polygon fill="midnightblue" stroke="midnightblue" points="272.538,-24.8999 263.279,-19.7511 267.306,-29.5505 272.538,-24.8999"/>
</g>
<!-- Node26&#45;&gt;Node23 -->
<g id="edge29" class="edge"><title>Node26&#45;&gt;Node23</title>
<path fill="none" stroke="midnightblue" d="M317.317,-56.324C330.733,-47.9002 351.324,-34.9709 367.086,-25.0741"/>
<polygon fill="midnightblue" stroke="midnightblue" points="369.109,-27.9364 375.717,-19.6545 365.387,-22.0081 369.109,-27.9364"/>
</g>
<!-- Node26&#45;&gt;Node25 -->
<g id="edge26" class="edge"><title>Node26&#45;&gt;Node25</title>
<path fill="none" stroke="midnightblue" d="M326.159,-56.4435C351.438,-46.8974 392.321,-31.4593 419.306,-21.2692"/>
<polygon fill="midnightblue" stroke="midnightblue" points="420.787,-24.451 428.906,-17.6439 418.314,-17.9023 420.787,-24.451"/>
</g>
<!-- Node27 -->
<g id="node27" class="node"><title>Node27</title>
<polygon fill="white" stroke="#bfbfbf" points="321,-0.5 321,-19.5 350,-19.5 350,-0.5 321,-0.5"/>
<text text-anchor="middle" x="335.5" y="-7.5" font-family="Helvetica,sans-Serif" font-size="10.00">list</text>
</g>
<!-- Node26&#45;&gt;Node27 -->
<g id="edge28" class="edge"><title>Node26&#45;&gt;Node27</title>
<path fill="none" stroke="midnightblue" d="M308.784,-56.083C313.211,-48.6127 319.663,-37.7244 325.118,-28.5199"/>
<polygon fill="midnightblue" stroke="midnightblue" points="328.227,-30.1383 330.314,-19.7511 322.205,-26.5697 328.227,-30.1383"/>
</g>
<!-- Node28&#45;&gt;Node2 -->
<g id="edge34" class="edge"><title>Node28&#45;&gt;Node2</title>
<path fill="none" stroke="midnightblue" d="M905.667,-448.474C871.749,-434.887 810.861,-404.765 785.5,-356 745.419,-278.931 821.298,-178.631 855.262,-139.577"/>
<polygon fill="midnightblue" stroke="midnightblue" points="858.147,-141.6 862.181,-131.803 852.918,-136.946 858.147,-141.6"/>
</g>
<!-- Node28&#45;&gt;Node12 -->
<g id="edge65" class="edge"><title>Node28&#45;&gt;Node12</title>
<path fill="none" stroke="midnightblue" d="M966.629,-448.456C998.858,-440.546 1046.5,-427.662 1086.5,-412 1242.11,-351.072 1276.02,-311.593 1388.5,-188 1410.76,-163.541 1419.67,-159.857 1437.5,-132 1446.96,-117.217 1454.85,-98.8295 1460,-85.3877"/>
<polygon fill="midnightblue" stroke="midnightblue" points="1463.35,-86.4246 1463.52,-75.8312 1456.78,-84.0049 1463.35,-86.4246"/>
</g>
<!-- Node29 -->
<g id="node29" class="node"><title>Node29</title>
<g id="a_node29"><a xlink:href="elapsedtime_8h.html" target="_top" xlink:title="Elapsed Time header file. ">
<polygon fill="white" stroke="black" points="601,-168.5 601,-187.5 714,-187.5 714,-168.5 601,-168.5"/>
<text text-anchor="middle" x="657.5" y="-175.5" font-family="Helvetica,sans-Serif" font-size="10.00">support/elapsedtime.h</text>
</a>
</g>
</g>
<!-- Node28&#45;&gt;Node29 -->
<g id="edge35" class="edge"><title>Node28&#45;&gt;Node29</title>
<path fill="none" stroke="midnightblue" d="M884.886,-457.562C809.851,-455.919 666.5,-440.541 666.5,-347 666.5,-347 666.5,-347 666.5,-289 666.5,-256.841 662.632,-219.569 659.967,-197.711"/>
<polygon fill="midnightblue" stroke="midnightblue" points="663.407,-197.018 658.677,-187.538 656.463,-197.899 663.407,-197.018"/>
</g>
<!-- Node30 -->
<g id="node30" class="node"><title>Node30</title>
<polygon fill="white" stroke="#bfbfbf" points="524,-112.5 524,-131.5 565,-131.5 565,-112.5 524,-112.5"/>
<text text-anchor="middle" x="544.5" y="-119.5" font-family="Helvetica,sans-Serif" font-size="10.00">ctime</text>
</g>
<!-- Node28&#45;&gt;Node30 -->
<g id="edge69" class="edge"><title>Node28&#45;&gt;Node30</title>
<path fill="none" stroke="midnightblue" d="M884.749,-453.228C786.074,-443.677 558.5,-414.349 558.5,-347 558.5,-347 558.5,-347 558.5,-233 558.5,-200.541 552.427,-163.121 548.281,-141.356"/>
<polygon fill="midnightblue" stroke="midnightblue" points="551.707,-140.64 546.33,-131.511 544.84,-142 551.707,-140.64"/>
</g>
<!-- Node32 -->
<g id="node32" class="node"><title>Node32</title>
<g id="a_node32"><a xlink:href="mathlib_8h.html" target="_top" xlink:title="mathlib include file ">
<polygon fill="white" stroke="black" points="997,-392.5 997,-411.5 1078,-411.5 1078,-392.5 997,-392.5"/>
<text text-anchor="middle" x="1037.5" y="-399.5" font-family="Helvetica,sans-Serif" font-size="10.00">math/mathlib.h</text>
</a>
</g>
</g>
<!-- Node28&#45;&gt;Node32 -->
<g id="edge41" class="edge"><title>Node28&#45;&gt;Node32</title>
<path fill="none" stroke="midnightblue" d="M946.852,-448.324C964.172,-439.664 991.015,-426.242 1011,-416.249"/>
<polygon fill="midnightblue" stroke="midnightblue" points="1012.81,-419.257 1020.19,-411.655 1009.68,-412.996 1012.81,-419.257"/>
</g>
<!-- Node34 -->
<g id="node34" class="node"><title>Node34</title>
<polygon fill="white" stroke="#bfbfbf" points="795,-280.5 795,-299.5 842,-299.5 842,-280.5 795,-280.5"/>
<text text-anchor="middle" x="818.5" y="-287.5" font-family="Helvetica,sans-Serif" font-size="10.00">errno.h</text>
</g>
<!-- Node28&#45;&gt;Node34 -->
<g id="edge67" class="edge"><title>Node28&#45;&gt;Node34</title>
<path fill="none" stroke="midnightblue" d="M884.74,-452.725C834.38,-446.882 757.268,-434.468 739.5,-412 710.766,-375.666 764.577,-328.799 796.809,-305.494"/>
<polygon fill="midnightblue" stroke="midnightblue" points="799.068,-308.185 805.242,-299.574 795.046,-302.456 799.068,-308.185"/>
</g>
<!-- Node28&#45;&gt;Node40 -->
<g id="edge66" class="edge"><title>Node28&#45;&gt;Node40</title>
<path fill="none" stroke="midnightblue" d="M974.255,-448.647C1019.57,-440.041 1091.59,-425.95 1153.5,-412 1154.77,-411.713 1156.07,-411.416 1157.38,-411.11"/>
<polygon fill="midnightblue" stroke="midnightblue" points="1158.55,-414.428 1167.45,-408.685 1156.91,-407.623 1158.55,-414.428"/>
</g>
<!-- Node28&#45;&gt;Node41 -->
<g id="edge68" class="edge"><title>Node28&#45;&gt;Node41</title>
<path fill="none" stroke="midnightblue" d="M974.178,-451.794C1029.6,-444.96 1127.12,-431.71 1219.39,-412.029"/>
<polygon fill="midnightblue" stroke="midnightblue" points="1220.13,-415.45 1229.16,-409.915 1218.65,-408.608 1220.13,-415.45"/>
</g>
<!-- Node42 -->
<g id="node42" class="node"><title>Node42</title>
<polygon fill="white" stroke="#bfbfbf" points="749,-392.5 749,-411.5 784,-411.5 784,-392.5 749,-392.5"/>
<text text-anchor="middle" x="766.5" y="-399.5" font-family="Helvetica,sans-Serif" font-size="10.00">ratio</text>
</g>
<!-- Node28&#45;&gt;Node42 -->
<g id="edge70" class="edge"><title>Node28&#45;&gt;Node42</title>
<path fill="none" stroke="midnightblue" d="M903.672,-448.444C873.67,-438.504 824.386,-422.177 793.778,-412.037"/>
<polygon fill="midnightblue" stroke="midnightblue" points="794.762,-408.676 784.169,-408.854 792.561,-415.321 794.762,-408.676"/>
</g>
<!-- Node29&#45;&gt;Node2 -->
<g id="edge36" class="edge"><title>Node29&#45;&gt;Node2</title>
<path fill="none" stroke="midnightblue" d="M691.25,-168.444C728.018,-159.122 786.946,-144.183 827.122,-133.997"/>
<polygon fill="midnightblue" stroke="midnightblue" points="828.074,-137.367 836.907,-131.516 826.354,-130.581 828.074,-137.367"/>
</g>
<!-- Node29&#45;&gt;Node14 -->
<g id="edge37" class="edge"><title>Node29&#45;&gt;Node14</title>
<path fill="none" stroke="midnightblue" d="M663.644,-168.147C672.432,-154.302 686.015,-127.507 671.5,-112 630.104,-67.7742 187.475,-84.518 127.5,-76 126.242,-75.8213 124.965,-75.6252 123.677,-75.4149"/>
<polygon fill="midnightblue" stroke="midnightblue" points="124.213,-71.9547 113.743,-73.5774 122.94,-78.8379 124.213,-71.9547"/>
</g>
<!-- Node29&#45;&gt;Node17 -->
<g id="edge38" class="edge"><title>Node29&#45;&gt;Node17</title>
<path fill="none" stroke="midnightblue" d="M657.848,-168.138C657.876,-153.775 655.589,-125.644 638.5,-112 589.297,-72.7148 150.314,-86.32 51.1422,-75.2647"/>
<polygon fill="midnightblue" stroke="midnightblue" points="51.3975,-71.766 41.0058,-73.8307 50.417,-78.697 51.3975,-71.766"/>
</g>
<!-- Node29&#45;&gt;Node30 -->
<g id="edge39" class="edge"><title>Node29&#45;&gt;Node30</title>
<path fill="none" stroke="midnightblue" d="M639.595,-168.444C621.246,-159.675 592.495,-145.935 571.406,-135.858"/>
<polygon fill="midnightblue" stroke="midnightblue" points="572.853,-132.67 562.321,-131.516 569.835,-138.986 572.853,-132.67"/>
</g>
<!-- Node31 -->
<g id="node31" class="node"><title>Node31</title>
<polygon fill="white" stroke="#bfbfbf" points="583.5,-112.5 583.5,-131.5 629.5,-131.5 629.5,-112.5 583.5,-112.5"/>
<text text-anchor="middle" x="606.5" y="-119.5" font-family="Helvetica,sans-Serif" font-size="10.00">chrono</text>
</g>
<!-- Node29&#45;&gt;Node31 -->
<g id="edge40" class="edge"><title>Node29&#45;&gt;Node31</title>
<path fill="none" stroke="midnightblue" d="M649.078,-168.083C641.652,-160.22 630.648,-148.569 621.688,-139.081"/>
<polygon fill="midnightblue" stroke="midnightblue" points="624.176,-136.618 614.765,-131.751 619.087,-141.424 624.176,-136.618"/>
</g>
<!-- Node32&#45;&gt;Node2 -->
<g id="edge42" class="edge"><title>Node32&#45;&gt;Node2</title>
<path fill="none" stroke="midnightblue" d="M1053.19,-392.396C1080.17,-376.314 1132.5,-338.943 1132.5,-291 1132.5,-291 1132.5,-291 1132.5,-233 1132.5,-202.641 1134.3,-188.051 1111.5,-168 1086.79,-146.264 1003.99,-134.367 942.302,-128.355"/>
<polygon fill="midnightblue" stroke="midnightblue" points="942.493,-124.857 932.209,-127.404 941.837,-131.826 942.493,-124.857"/>
</g>
<!-- Node32&#45;&gt;Node12 -->
<g id="edge63" class="edge"><title>Node32&#45;&gt;Node12</title>
<path fill="none" stroke="midnightblue" d="M1076.11,-392.445C1103.27,-385.333 1139.75,-373.517 1168.5,-356 1297.99,-277.1 1415.93,-132.673 1453.83,-83.729"/>
<polygon fill="midnightblue" stroke="midnightblue" points="1456.65,-85.8029 1459.96,-75.7385 1451.1,-81.5419 1456.65,-85.8029"/>
</g>
<!-- Node32&#45;&gt;Node14 -->
<g id="edge64" class="edge"><title>Node32&#45;&gt;Node14</title>
<path fill="none" stroke="midnightblue" d="M1028.61,-392.285C982.799,-347.615 772.454,-145.15 689.5,-112 579.056,-67.8647 273.859,-87.6972 155.5,-76 145.131,-74.9752 133.917,-73.6194 123.604,-72.2719"/>
<polygon fill="midnightblue" stroke="midnightblue" points="124.032,-68.7981 113.656,-70.9397 123.103,-75.7361 124.032,-68.7981"/>
</g>
<!-- Node33 -->
<g id="node33" class="node"><title>Node33</title>
<g id="a_node33"><a xlink:href="cosmos-errno_8h.html" target="_top" xlink:title="COSMOS Error Codes. ">
<polygon fill="white" stroke="black" points="795,-336.5 795,-355.5 914,-355.5 914,-336.5 795,-336.5"/>
<text text-anchor="middle" x="854.5" y="-343.5" font-family="Helvetica,sans-Serif" font-size="10.00">support/cosmos&#45;errno.h</text>
</a>
</g>
</g>
<!-- Node32&#45;&gt;Node33 -->
<g id="edge43" class="edge"><title>Node32&#45;&gt;Node33</title>
<path fill="none" stroke="midnightblue" d="M1008.5,-392.444C977.315,-383.241 927.57,-368.562 893.092,-358.388"/>
<polygon fill="midnightblue" stroke="midnightblue" points="893.943,-354.99 883.361,-355.516 891.962,-361.704 893.943,-354.99"/>
</g>
<!-- Node35 -->
<g id="node35" class="node"><title>Node35</title>
<g id="a_node35"><a xlink:href="math_2constants_8h.html" target="_top" xlink:title="constants.h">
<polygon fill="white" stroke="black" points="1160.5,-168.5 1160.5,-187.5 1228.5,-187.5 1228.5,-168.5 1160.5,-168.5"/>
<text text-anchor="middle" x="1194.5" y="-175.5" font-family="Helvetica,sans-Serif" font-size="10.00">constants.h</text>
</a>
</g>
</g>
<!-- Node32&#45;&gt;Node35 -->
<g id="edge46" class="edge"><title>Node32&#45;&gt;Node35</title>
<path fill="none" stroke="midnightblue" d="M1078.21,-393.47C1101.29,-387.178 1128.98,-375.896 1146.5,-356 1186.96,-310.06 1193.72,-233.287 1194.58,-197.908"/>
<polygon fill="midnightblue" stroke="midnightblue" points="1198.08,-197.636 1194.68,-187.6 1191.08,-197.564 1198.08,-197.636"/>
</g>
<!-- Node36 -->
<g id="node36" class="node"><title>Node36</title>
<g id="a_node36"><a xlink:href="vector_8h.html" target="_top" xlink:title="vector.h">
<polygon fill="white" stroke="black" points="1051.5,-224.5 1051.5,-243.5 1103.5,-243.5 1103.5,-224.5 1051.5,-224.5"/>
<text text-anchor="middle" x="1077.5" y="-231.5" font-family="Helvetica,sans-Serif" font-size="10.00">vector.h</text>
</a>
</g>
</g>
<!-- Node32&#45;&gt;Node36 -->
<g id="edge49" class="edge"><title>Node32&#45;&gt;Node36</title>
<path fill="none" stroke="midnightblue" d="M1047.85,-392.213C1056.78,-383.916 1069.06,-370.597 1074.5,-356 1087.29,-321.66 1084.05,-277.958 1080.68,-253.583"/>
<polygon fill="midnightblue" stroke="midnightblue" points="1084.12,-252.919 1079.13,-243.57 1077.2,-253.987 1084.12,-252.919"/>
</g>
<!-- Node38 -->
<g id="node38" class="node"><title>Node38</title>
<g id="a_node38"><a xlink:href="matrix_8h.html" target="_top" xlink:title="matrix.h">
<polygon fill="white" stroke="black" points="975.5,-280.5 975.5,-299.5 1027.5,-299.5 1027.5,-280.5 975.5,-280.5"/>
<text text-anchor="middle" x="1001.5" y="-287.5" font-family="Helvetica,sans-Serif" font-size="10.00">matrix.h</text>
</a>
</g>
</g>
<!-- Node32&#45;&gt;Node38 -->
<g id="edge56" class="edge"><title>Node32&#45;&gt;Node38</title>
<path fill="none" stroke="midnightblue" d="M1026.79,-392.305C1017.56,-384.069 1004.91,-370.789 999.5,-356 994.047,-341.089 995.188,-322.946 997.324,-309.621"/>
<polygon fill="midnightblue" stroke="midnightblue" points="1000.77,-310.22 999.23,-299.739 993.9,-308.895 1000.77,-310.22"/>
</g>
<!-- Node39 -->
<g id="node39" class="node"><title>Node39</title>
<g id="a_node39"><a xlink:href="rotation_8h.html" target="_top" xlink:title="rotation.h">
<polygon fill="white" stroke="black" points="1009,-336.5 1009,-355.5 1066,-355.5 1066,-336.5 1009,-336.5"/>
<text text-anchor="middle" x="1037.5" y="-343.5" font-family="Helvetica,sans-Serif" font-size="10.00">rotation.h</text>
</a>
</g>
</g>
<!-- Node32&#45;&gt;Node39 -->
<g id="edge59" class="edge"><title>Node32&#45;&gt;Node39</title>
<path fill="none" stroke="midnightblue" d="M1037.5,-392.083C1037.5,-385.006 1037.5,-374.861 1037.5,-365.986"/>
<polygon fill="midnightblue" stroke="midnightblue" points="1041,-365.751 1037.5,-355.751 1034,-365.751 1041,-365.751"/>
</g>
<!-- Node33&#45;&gt;Node2 -->
<g id="edge44" class="edge"><title>Node33&#45;&gt;Node2</title>
<path fill="none" stroke="midnightblue" d="M855.127,-336.297C857.481,-303.633 865.825,-187.866 869.134,-141.957"/>
<polygon fill="midnightblue" stroke="midnightblue" points="872.632,-142.11 869.86,-131.884 865.65,-141.606 872.632,-142.11"/>
</g>
<!-- Node33&#45;&gt;Node34 -->
<g id="edge45" class="edge"><title>Node33&#45;&gt;Node34</title>
<path fill="none" stroke="midnightblue" d="M848.555,-336.083C843.523,-328.534 836.163,-317.495 829.987,-308.23"/>
<polygon fill="midnightblue" stroke="midnightblue" points="832.793,-306.13 824.334,-299.751 826.969,-310.013 832.793,-306.13"/>
</g>
<!-- Node35&#45;&gt;Node2 -->
<g id="edge47" class="edge"><title>Node35&#45;&gt;Node2</title>
<path fill="none" stroke="midnightblue" d="M1160.43,-170.509C1155.75,-169.648 1151.01,-168.79 1146.5,-168 1074.36,-155.357 991.395,-141.988 935.418,-133.139"/>
<polygon fill="midnightblue" stroke="midnightblue" points="935.711,-129.642 925.288,-131.54 934.62,-136.556 935.711,-129.642"/>
</g>
<!-- Node35&#45;&gt;Node5 -->
<g id="edge48" class="edge"><title>Node35&#45;&gt;Node5</title>
<path fill="none" stroke="midnightblue" d="M1202.43,-168.368C1219.31,-149.974 1259.07,-106.671 1280.76,-83.0519"/>
<polygon fill="midnightblue" stroke="midnightblue" points="1283.43,-85.3246 1287.61,-75.5914 1278.27,-80.5903 1283.43,-85.3246"/>
</g>
<!-- Node36&#45;&gt;Node2 -->
<g id="edge50" class="edge"><title>Node36&#45;&gt;Node2</title>
<path fill="none" stroke="midnightblue" d="M1069.29,-224.244C1056.02,-210.531 1028.48,-183.915 1000.5,-168 974.109,-152.989 941.871,-141.789 916.102,-134.318"/>
<polygon fill="midnightblue" stroke="midnightblue" points="916.784,-130.874 906.21,-131.539 914.891,-137.613 916.784,-130.874"/>
</g>
<!-- Node36&#45;&gt;Node12 -->
<g id="edge54" class="edge"><title>Node36&#45;&gt;Node12</title>
<path fill="none" stroke="midnightblue" d="M1103.58,-230.187C1142.96,-225.286 1219.35,-213.199 1279.5,-188 1314.4,-173.379 1405.22,-110.402 1446.07,-81.5441"/>
<polygon fill="midnightblue" stroke="midnightblue" points="1448.3,-84.2546 1454.44,-75.6178 1444.25,-78.5428 1448.3,-84.2546"/>
</g>
<!-- Node36&#45;&gt;Node14 -->
<g id="edge52" class="edge"><title>Node36&#45;&gt;Node14</title>
<path fill="none" stroke="midnightblue" d="M1051.53,-224.409C1002.01,-207.84 890.855,-169.757 799.5,-132 780.021,-123.949 776.934,-117.165 756.5,-112 497.07,-46.422 421.889,-101.32 155.5,-76 145.127,-75.0141 133.912,-73.6709 123.599,-72.3231"/>
<polygon fill="midnightblue" stroke="midnightblue" points="124.028,-68.8494 113.651,-70.9868 123.096,-75.7871 124.028,-68.8494"/>
</g>
<!-- Node36&#45;&gt;Node18 -->
<g id="edge55" class="edge"><title>Node36&#45;&gt;Node18</title>
<path fill="none" stroke="midnightblue" d="M1103.68,-228.475C1136.19,-222.227 1192.81,-209.254 1237.5,-188 1276.53,-169.438 1376.6,-114.364 1396.5,-76 1421.29,-28.2124 1328.15,-15.5576 1276.58,-12.2067"/>
<polygon fill="midnightblue" stroke="midnightblue" points="1276.75,-8.71075 1266.57,-11.6381 1276.36,-15.6995 1276.75,-8.71075"/>
</g>
<!-- Node36&#45;&gt;Node35 -->
<g id="edge51" class="edge"><title>Node36&#45;&gt;Node35</title>
<path fill="none" stroke="midnightblue" d="M1096.04,-224.444C1115.12,-215.636 1145.07,-201.812 1166.94,-191.722"/>
<polygon fill="midnightblue" stroke="midnightblue" points="1168.43,-194.885 1176.05,-187.516 1165.5,-188.529 1168.43,-194.885"/>
</g>
<!-- Node37 -->
<g id="node37" class="node"><title>Node37</title>
<polygon fill="white" stroke="#bfbfbf" points="1052.5,-168.5 1052.5,-187.5 1102.5,-187.5 1102.5,-168.5 1052.5,-168.5"/>
<text text-anchor="middle" x="1077.5" y="-175.5" font-family="Helvetica,sans-Serif" font-size="10.00">iomanip</text>
</g>
<!-- Node36&#45;&gt;Node37 -->
<g id="edge53" class="edge"><title>Node36&#45;&gt;Node37</title>
<path fill="none" stroke="midnightblue" d="M1077.5,-224.083C1077.5,-217.006 1077.5,-206.861 1077.5,-197.986"/>
<polygon fill="midnightblue" stroke="midnightblue" points="1081,-197.751 1077.5,-187.751 1074,-197.751 1081,-197.751"/>
</g>
<!-- Node38&#45;&gt;Node2 -->
<g id="edge57" class="edge"><title>Node38&#45;&gt;Node2</title>
<path fill="none" stroke="midnightblue" d="M1000.88,-280.268C998.928,-258.677 991.105,-202.069 961.5,-168 948.332,-152.846 928.866,-142.269 911.314,-135.195"/>
<polygon fill="midnightblue" stroke="midnightblue" points="912.403,-131.866 901.811,-131.619 909.938,-138.417 912.403,-131.866"/>
</g>
<!-- Node38&#45;&gt;Node36 -->
<g id="edge58" class="edge"><title>Node38&#45;&gt;Node36</title>
<path fill="none" stroke="midnightblue" d="M1013.71,-280.324C1025.28,-272.107 1042.88,-259.602 1056.66,-249.807"/>
<polygon fill="midnightblue" stroke="midnightblue" points="1058.94,-252.479 1065.07,-243.834 1054.89,-246.773 1058.94,-252.479"/>
</g>
<!-- Node39&#45;&gt;Node2 -->
<g id="edge60" class="edge"><title>Node39&#45;&gt;Node2</title>
<path fill="none" stroke="midnightblue" d="M1018.75,-336.471C1003.25,-328.696 981.444,-315.996 966.5,-300 920.631,-250.904 889.525,-175.759 876.869,-141.353"/>
<polygon fill="midnightblue" stroke="midnightblue" points="880.079,-139.934 873.413,-131.699 873.488,-142.293 880.079,-139.934"/>
</g>
<!-- Node39&#45;&gt;Node36 -->
<g id="edge61" class="edge"><title>Node39&#45;&gt;Node36</title>
<path fill="none" stroke="midnightblue" d="M1040.64,-336.368C1047.12,-318.537 1062.12,-277.295 1070.86,-253.272"/>
<polygon fill="midnightblue" stroke="midnightblue" points="1074.25,-254.185 1074.38,-243.591 1067.67,-251.793 1074.25,-254.185"/>
</g>
<!-- Node39&#45;&gt;Node38 -->
<g id="edge62" class="edge"><title>Node39&#45;&gt;Node38</title>
<path fill="none" stroke="midnightblue" d="M1031.56,-336.083C1026.52,-328.534 1019.16,-317.495 1012.99,-308.23"/>
<polygon fill="midnightblue" stroke="midnightblue" points="1015.79,-306.13 1007.33,-299.751 1009.97,-310.013 1015.79,-306.13"/>
</g>
</g>
</svg>
        <g id="navigator" transform="translate(0 0)" fill="#404254">
                <rect fill="#f2f5e9" fill-opacity="0.5" stroke="#606060" stroke-width=".5" x="0" y="0" width="60" height="60"/>
                <use id="zoomplus" xlink:href="#zoomPlus" x="17" y="9" onmousedown="handleZoom(evt,'in')"/>
                <use id="zoomminus" xlink:href="#zoomMin" x="42" y="9" onmousedown="handleZoom(evt,'out')"/>
                <use id="reset" xlink:href="#resetDef" x="30" y="36" onmousedown="handleReset()"/>
                <g id="arrowUp" xlink:href="#dirArrow" transform="translate(30 24)" onmousedown="handlePan(0,-1)">
                  <use xlink:href="#rim" fill="#404040">
                        <set attributeName="fill" to="#808080" begin="arrowUp.mouseover" end="arrowUp.mouseout"/>
                  </use>
                  <path fill="none" stroke="white" stroke-width="1.5" d="M0,-3.0v7 M-2.5,-0.5L0,-3.0L2.5,-0.5"/>
                </g>
                <g id="arrowRight" xlink:href="#dirArrow" transform="rotate(90) translate(36 -43)" onmousedown="handlePan(1,0)">
                  <use xlink:href="#rim" fill="#404040">
                        <set attributeName="fill" to="#808080" begin="arrowRight.mouseover" end="arrowRight.mouseout"/>
                  </use>
                  <path fill="none" stroke="white" stroke-width="1.5" d="M0,-3.0v7 M-2.5,-0.5L0,-3.0L2.5,-0.5"/>
                </g>
                <g id="arrowDown" xlink:href="#dirArrow" transform="rotate(180) translate(-30 -48)" onmousedown="handlePan(0,1)">
                  <use xlink:href="#rim" fill="#404040">
                        <set attributeName="fill" to="#808080" begin="arrowDown.mouseover" end="arrowDown.mouseout"/>
                  </use>
                  <path fill="none" stroke="white" stroke-width="1.5" d="M0,-3.0v7 M-2.5,-0.5L0,-3.0L2.5,-0.5"/>
                </g>
                <g id="arrowLeft" xlink:href="#dirArrow" transform="rotate(270) translate(-36 17)" onmousedown="handlePan(-1,0)">
                  <use xlink:href="#rim" fill="#404040">
                        <set attributeName="fill" to="#808080" begin="arrowLeft.mouseover" end="arrowLeft.mouseout"/>
                  </use>
                  <path fill="none" stroke="white" stroke-width="1.5" d="M0,-3.0v7 M-2.5,-0.5L0,-3.0L2.5,-0.5"/>
                </g>
        </g>
        <svg viewBox="0 0 15 15" width="100%" height="30px" preserveAspectRatio="xMaxYMin meet">
         <g id="arrow_out" transform="scale(0.3 0.3)">
          <a xlink:href="julian_8cpp__incl_org.svg" target="_base">
           <rect id="button" ry="5" rx="5" y="6" x="6" height="38" width="38"
                fill="#f2f5e9" fill-opacity="0.5" stroke="#606060" stroke-width="1.0"/>
           <path id="arrow"
             d="M 11.500037,31.436501 C 11.940474,20.09759 22.043105,11.32322 32.158766,21.979434 L 37.068811,17.246167 C 37.068811,17.246167 37.088388,32 37.088388,32 L 22.160133,31.978069 C 22.160133,31.978069 26.997745,27.140456 26.997745,27.140456 C 18.528582,18.264221 13.291696,25.230495 11.500037,31.436501 z"
             style="fill:#404040;"/>
          </a>
         </g>
        </svg>
</svg>
