<?xml version="1.0" encoding="UTF-8" standalone="no"?>
<!DOCTYPE svg PUBLIC "-//W3C//DTD SVG 1.1//EN"
 "http://www.w3.org/Graphics/SVG/1.1/DTD/svg11.dtd">
<!-- Generated by graphviz version 2.38.0 (20140413.2041)
 -->
<!-- Title: kisslib.h Pages: 1 -->
<svg width="335pt" height="84pt"
 viewBox="0.00 0.00 334.50 84.00" xmlns="http://www.w3.org/2000/svg" xmlns:xlink="http://www.w3.org/1999/xlink">
<g id="graph0" class="graph" transform="scale(1 1) rotate(0) translate(4 80)">
<title>kisslib.h</title>
<polygon fill="white" stroke="none" points="-4,4 -4,-80 330.5,-80 330.5,4 -4,4"/>
<!-- Node1 -->
<g id="node1" class="node"><title>Node1</title>
<polygon fill="#bfbfbf" stroke="black" points="110,-56.5 110,-75.5 163,-75.5 163,-56.5 110,-56.5"/>
<text text-anchor="middle" x="136.5" y="-63.5" font-family="Helvetica,sans-Serif" font-size="10.00">kisslib.h</text>
</g>
<!-- Node2 -->
<g id="node2" class="node"><title>Node2</title>
<g id="a_node2"><a xlink:href="kisslib_8cpp.html" target="_top" xlink:title="kisslib.cpp">
<polygon fill="white" stroke="black" points="0,-0.5 0,-19.5 63,-19.5 63,-0.5 0,-0.5"/>
<text text-anchor="middle" x="31.5" y="-7.5" font-family="Helvetica,sans-Serif" font-size="10.00">kisslib.cpp</text>
</a>
</g>
</g>
<!-- Node1&#45;&gt;Node2 -->
<g id="edge1" class="edge"><title>Node1&#45;&gt;Node2</title>
<path fill="none" stroke="midnightblue" d="M110.69,-51.7261C91.2471,-41.7271 65.1516,-28.3065 48.3282,-19.6545"/>
<polygon fill="midnightblue" stroke="midnightblue" points="109.136,-54.8629 119.63,-56.324 112.338,-48.6379 109.136,-54.8629"/>
</g>
<!-- Node3 -->
<g id="node3" class="node"><title>Node3</title>
<g id="a_node3"><a xlink:href="agent__transmitter_8cpp.html" target="_top" xlink:title="agent_transmitter.cpp">
<polygon fill="white" stroke="black" points="81,-0.5 81,-19.5 192,-19.5 192,-0.5 81,-0.5"/>
<text text-anchor="middle" x="136.5" y="-7.5" font-family="Helvetica,sans-Serif" font-size="10.00">agent_transmitter.cpp</text>
</a>
</g>
</g>
<!-- Node1&#45;&gt;Node3 -->
<g id="edge2" class="edge"><title>Node1&#45;&gt;Node3</title>
<path fill="none" stroke="midnightblue" d="M136.5,-45.8045C136.5,-36.9102 136.5,-26.7798 136.5,-19.7511"/>
<polygon fill="midnightblue" stroke="midnightblue" points="133,-46.083 136.5,-56.083 140,-46.083 133,-46.083"/>
</g>
<!-- Node4 -->
<g id="node4" class="node"><title>Node4</title>
<g id="a_node4"><a xlink:href="agent__transmitter2_8cpp.html" target="_top" xlink:title="agent_transmitter2.cpp">
<polygon fill="white" stroke="black" points="210.5,-0.5 210.5,-19.5 326.5,-19.5 326.5,-0.5 210.5,-0.5"/>
<text text-anchor="middle" x="268.5" y="-7.5" font-family="Helvetica,sans-Serif" font-size="10.00">agent_transmitter2.cpp</text>
</a>
</g>
</g>
<!-- Node1&#45;&gt;Node4 -->
<g id="edge3" class="edge"><title>Node1&#45;&gt;Node4</title>
<path fill="none" stroke="midnightblue" d="M166.719,-52.6377C191.49,-42.504 225.9,-28.4274 247.682,-19.5164"/>
<polygon fill="midnightblue" stroke="midnightblue" points="165.346,-49.4177 157.416,-56.4435 167.997,-55.8966 165.346,-49.4177"/>
</g>
</g>
</svg>
