<?xml version="1.0" encoding="UTF-8" standalone="no"?>
<!DOCTYPE svg PUBLIC "-//W3C//DTD SVG 1.1//EN"
 "http://www.w3.org/Graphics/SVG/1.1/DTD/svg11.dtd">
<!-- Generated by graphviz version 2.38.0 (20140413.2041)
 -->
<!-- Title: kisslib.cpp Pages: 1 -->
<svg width="1459pt" height="252pt"
 viewBox="0.00 0.00 1458.50 252.00" xmlns="http://www.w3.org/2000/svg" xmlns:xlink="http://www.w3.org/1999/xlink">
<g id="graph0" class="graph" transform="scale(1 1) rotate(0) translate(4 248)">
<title>kisslib.cpp</title>
<polygon fill="white" stroke="none" points="-4,4 -4,-248 1454.5,-248 1454.5,4 -4,4"/>
<!-- Node1 -->
<g id="node1" class="node"><title>Node1</title>
<polygon fill="#bfbfbf" stroke="black" points="453.5,-224.5 453.5,-243.5 516.5,-243.5 516.5,-224.5 453.5,-224.5"/>
<text text-anchor="middle" x="485" y="-231.5" font-family="Helvetica,sans-Serif" font-size="10.00">kisslib.cpp</text>
</g>
<!-- Node2 -->
<g id="node2" class="node"><title>Node2</title>
<g id="a_node2"><a xlink:href="config_cosmos_8h.html" target="_top" xlink:title="Headers and definitions common to all COSMOS. ">
<polygon fill="white" stroke="black" points="584.5,-112.5 584.5,-131.5 707.5,-131.5 707.5,-112.5 584.5,-112.5"/>
<text text-anchor="middle" x="646" y="-119.5" font-family="Helvetica,sans-Serif" font-size="10.00">support/configCosmos.h</text>
</a>
</g>
</g>
<!-- Node1&#45;&gt;Node2 -->
<g id="edge1" class="edge"><title>Node1&#45;&gt;Node2</title>
<path fill="none" stroke="midnightblue" d="M497.633,-224.368C525.261,-205.492 591.282,-160.385 625.163,-137.237"/>
<polygon fill="midnightblue" stroke="midnightblue" points="627.143,-140.123 633.425,-131.591 623.194,-134.343 627.143,-140.123"/>
</g>
<!-- Node28 -->
<g id="node28" class="node"><title>Node28</title>
<g id="a_node28"><a xlink:href="kisslib_8h.html" target="_top" xlink:title="device/general/kisslib.h">
<polygon fill="white" stroke="black" points="323.5,-168.5 323.5,-187.5 442.5,-187.5 442.5,-168.5 323.5,-168.5"/>
<text text-anchor="middle" x="383" y="-175.5" font-family="Helvetica,sans-Serif" font-size="10.00">device/general/kisslib.h</text>
</a>
</g>
</g>
<!-- Node1&#45;&gt;Node28 -->
<g id="edge33" class="edge"><title>Node1&#45;&gt;Node28</title>
<path fill="none" stroke="midnightblue" d="M468.612,-224.324C452.329,-215.703 427.133,-202.364 408.284,-192.386"/>
<polygon fill="midnightblue" stroke="midnightblue" points="409.823,-189.24 399.347,-187.655 406.548,-195.427 409.823,-189.24"/>
</g>
<!-- Node3 -->
<g id="node3" class="node"><title>Node3</title>
<polygon fill="white" stroke="#bfbfbf" points="1073.5,-56.5 1073.5,-75.5 1118.5,-75.5 1118.5,-56.5 1073.5,-56.5"/>
<text text-anchor="middle" x="1096" y="-63.5" font-family="Helvetica,sans-Serif" font-size="10.00">climits</text>
</g>
<!-- Node2&#45;&gt;Node3 -->
<g id="edge2" class="edge"><title>Node2&#45;&gt;Node3</title>
<path fill="none" stroke="midnightblue" d="M707.745,-117.585C787.729,-112.444 931.527,-100.765 1063.5,-75.7662"/>
<polygon fill="midnightblue" stroke="midnightblue" points="1064.23,-79.1907 1073.39,-73.8642 1062.91,-72.3168 1064.23,-79.1907"/>
</g>
<!-- Node4 -->
<g id="node4" class="node"><title>Node4</title>
<polygon fill="white" stroke="#bfbfbf" points="1136.5,-56.5 1136.5,-75.5 1183.5,-75.5 1183.5,-56.5 1136.5,-56.5"/>
<text text-anchor="middle" x="1160" y="-63.5" font-family="Helvetica,sans-Serif" font-size="10.00">csignal</text>
</g>
<!-- Node2&#45;&gt;Node4 -->
<g id="edge3" class="edge"><title>Node2&#45;&gt;Node4</title>
<path fill="none" stroke="midnightblue" d="M707.741,-118.811C797.931,-114.828 971.004,-104.208 1126.15,-76.048"/>
<polygon fill="midnightblue" stroke="midnightblue" points="1127.15,-79.4239 1136.35,-74.1677 1125.88,-72.54 1127.15,-79.4239"/>
</g>
<!-- Node5 -->
<g id="node5" class="node"><title>Node5</title>
<polygon fill="white" stroke="#bfbfbf" points="1202,-56.5 1202,-75.5 1248,-75.5 1248,-56.5 1202,-56.5"/>
<text text-anchor="middle" x="1225" y="-63.5" font-family="Helvetica,sans-Serif" font-size="10.00">cstdint</text>
</g>
<!-- Node2&#45;&gt;Node5 -->
<g id="edge4" class="edge"><title>Node2&#45;&gt;Node5</title>
<path fill="none" stroke="midnightblue" d="M707.614,-119.779C807.577,-116.955 1011.28,-107.703 1191.76,-75.8899"/>
<polygon fill="midnightblue" stroke="midnightblue" points="1192.48,-79.3184 1201.7,-74.111 1191.24,-72.4279 1192.48,-79.3184"/>
</g>
<!-- Node6 -->
<g id="node6" class="node"><title>Node6</title>
<polygon fill="white" stroke="#bfbfbf" points="1266,-56.5 1266,-75.5 1322,-75.5 1322,-56.5 1266,-56.5"/>
<text text-anchor="middle" x="1294" y="-63.5" font-family="Helvetica,sans-Serif" font-size="10.00">cinttypes</text>
</g>
<!-- Node2&#45;&gt;Node6 -->
<g id="edge5" class="edge"><title>Node2&#45;&gt;Node6</title>
<path fill="none" stroke="midnightblue" d="M707.523,-119.821C816.348,-117.005 1049.94,-107.677 1255.73,-75.941"/>
<polygon fill="midnightblue" stroke="midnightblue" points="1256.48,-79.3666 1265.82,-74.3636 1255.39,-72.4506 1256.48,-79.3666"/>
</g>
<!-- Node7 -->
<g id="node7" class="node"><title>Node7</title>
<polygon fill="white" stroke="#bfbfbf" points="1340.5,-56.5 1340.5,-75.5 1383.5,-75.5 1383.5,-56.5 1340.5,-56.5"/>
<text text-anchor="middle" x="1362" y="-63.5" font-family="Helvetica,sans-Serif" font-size="10.00">cstdio</text>
</g>
<!-- Node2&#45;&gt;Node7 -->
<g id="edge6" class="edge"><title>Node2&#45;&gt;Node7</title>
<path fill="none" stroke="midnightblue" d="M707.938,-121.405C827.031,-121.215 1096.11,-116.09 1330.39,-75.665"/>
<polygon fill="midnightblue" stroke="midnightblue" points="1331.21,-79.0736 1340.46,-73.9011 1330.01,-72.1785 1331.21,-79.0736"/>
</g>
<!-- Node8 -->
<g id="node8" class="node"><title>Node8</title>
<polygon fill="white" stroke="#bfbfbf" points="1401.5,-56.5 1401.5,-75.5 1450.5,-75.5 1450.5,-56.5 1401.5,-56.5"/>
<text text-anchor="middle" x="1426" y="-63.5" font-family="Helvetica,sans-Serif" font-size="10.00">cstddef</text>
</g>
<!-- Node2&#45;&gt;Node8 -->
<g id="edge7" class="edge"><title>Node2&#45;&gt;Node8</title>
<path fill="none" stroke="midnightblue" d="M707.968,-121.561C834.933,-121.782 1133.7,-117.54 1391.34,-75.9592"/>
<polygon fill="midnightblue" stroke="midnightblue" points="1391.95,-79.4054 1401.25,-74.3366 1390.82,-72.4972 1391.95,-79.4054"/>
</g>
<!-- Node9 -->
<g id="node9" class="node"><title>Node9</title>
<polygon fill="white" stroke="#bfbfbf" points="136.5,-56.5 136.5,-75.5 181.5,-75.5 181.5,-56.5 136.5,-56.5"/>
<text text-anchor="middle" x="159" y="-63.5" font-family="Helvetica,sans-Serif" font-size="10.00">cstdlib</text>
</g>
<!-- Node2&#45;&gt;Node9 -->
<g id="edge8" class="edge"><title>Node2&#45;&gt;Node9</title>
<path fill="none" stroke="midnightblue" d="M584.431,-118.343C498.49,-113.877 337.667,-102.769 191.65,-75.775"/>
<polygon fill="midnightblue" stroke="midnightblue" points="192.083,-72.2953 181.609,-73.889 190.791,-79.175 192.083,-72.2953"/>
</g>
<!-- Node10 -->
<g id="node10" class="node"><title>Node10</title>
<polygon fill="white" stroke="#bfbfbf" points="200,-56.5 200,-75.5 244,-75.5 244,-56.5 200,-56.5"/>
<text text-anchor="middle" x="222" y="-63.5" font-family="Helvetica,sans-Serif" font-size="10.00">cerrno</text>
</g>
<!-- Node2&#45;&gt;Node10 -->
<g id="edge9" class="edge"><title>Node2&#45;&gt;Node10</title>
<path fill="none" stroke="midnightblue" d="M584.235,-117.16C508.457,-111.73 376.021,-99.9128 254.119,-75.9195"/>
<polygon fill="midnightblue" stroke="midnightblue" points="254.732,-72.4728 244.24,-73.9433 253.359,-79.3369 254.732,-72.4728"/>
</g>
<!-- Node11 -->
<g id="node11" class="node"><title>Node11</title>
<polygon fill="white" stroke="#bfbfbf" points="72,-56.5 72,-75.5 118,-75.5 118,-56.5 72,-56.5"/>
<text text-anchor="middle" x="95" y="-63.5" font-family="Helvetica,sans-Serif" font-size="10.00">cstring</text>
</g>
<!-- Node2&#45;&gt;Node11 -->
<g id="edge10" class="edge"><title>Node2&#45;&gt;Node11</title>
<path fill="none" stroke="midnightblue" d="M584.384,-119.393C488.533,-116.073 297.929,-106.192 128.163,-75.8869"/>
<polygon fill="midnightblue" stroke="midnightblue" points="128.764,-72.439 118.3,-74.0988 127.515,-79.3267 128.764,-72.439"/>
</g>
<!-- Node12 -->
<g id="node12" class="node"><title>Node12</title>
<polygon fill="white" stroke="#bfbfbf" points="262,-56.5 262,-75.5 306,-75.5 306,-56.5 262,-56.5"/>
<text text-anchor="middle" x="284" y="-63.5" font-family="Helvetica,sans-Serif" font-size="10.00">cmath</text>
</g>
<!-- Node2&#45;&gt;Node12 -->
<g id="edge11" class="edge"><title>Node2&#45;&gt;Node12</title>
<path fill="none" stroke="midnightblue" d="M584.223,-115.351C519.537,-108.819 414.914,-96.5144 316.102,-75.9661"/>
<polygon fill="midnightblue" stroke="midnightblue" points="316.759,-72.5278 306.252,-73.8859 315.312,-79.3767 316.759,-72.5278"/>
</g>
<!-- Node13 -->
<g id="node13" class="node"><title>Node13</title>
<polygon fill="white" stroke="#bfbfbf" points="324.5,-56.5 324.5,-75.5 369.5,-75.5 369.5,-56.5 324.5,-56.5"/>
<text text-anchor="middle" x="347" y="-63.5" font-family="Helvetica,sans-Serif" font-size="10.00">iosfwd</text>
</g>
<!-- Node2&#45;&gt;Node13 -->
<g id="edge12" class="edge"><title>Node2&#45;&gt;Node13</title>
<path fill="none" stroke="midnightblue" d="M584.395,-112.533C532.378,-104.949 455.765,-92.7619 379.866,-75.982"/>
<polygon fill="midnightblue" stroke="midnightblue" points="380.172,-72.464 369.649,-73.694 378.643,-79.2948 380.172,-72.464"/>
</g>
<!-- Node14 -->
<g id="node14" class="node"><title>Node14</title>
<polygon fill="white" stroke="#bfbfbf" points="0,-56.5 0,-75.5 54,-75.5 54,-56.5 0,-56.5"/>
<text text-anchor="middle" x="27" y="-63.5" font-family="Helvetica,sans-Serif" font-size="10.00">iostream</text>
</g>
<!-- Node2&#45;&gt;Node14 -->
<g id="edge13" class="edge"><title>Node2&#45;&gt;Node14</title>
<path fill="none" stroke="midnightblue" d="M584.324,-119.638C479.32,-116.576 259.076,-106.933 64.1684,-75.9112"/>
<polygon fill="midnightblue" stroke="midnightblue" points="64.4556,-72.4123 54.0255,-74.2736 63.3398,-79.3228 64.4556,-72.4123"/>
</g>
<!-- Node15 -->
<g id="node15" class="node"><title>Node15</title>
<polygon fill="white" stroke="#bfbfbf" points="387.5,-56.5 387.5,-75.5 438.5,-75.5 438.5,-56.5 387.5,-56.5"/>
<text text-anchor="middle" x="413" y="-63.5" font-family="Helvetica,sans-Serif" font-size="10.00">unistd.h</text>
</g>
<!-- Node2&#45;&gt;Node15 -->
<g id="edge14" class="edge"><title>Node2&#45;&gt;Node15</title>
<path fill="none" stroke="midnightblue" d="M606.852,-112.445C568.886,-104.071 509.414,-90.755 448.397,-76.0426"/>
<polygon fill="midnightblue" stroke="midnightblue" points="449.136,-72.6206 438.593,-73.6699 447.489,-79.4242 449.136,-72.6206"/>
</g>
<!-- Node16 -->
<g id="node16" class="node"><title>Node16</title>
<polygon fill="white" stroke="#bfbfbf" points="457,-56.5 457,-75.5 501,-75.5 501,-56.5 457,-56.5"/>
<text text-anchor="middle" x="479" y="-63.5" font-family="Helvetica,sans-Serif" font-size="10.00">fcntl.h</text>
</g>
<!-- Node2&#45;&gt;Node16 -->
<g id="edge15" class="edge"><title>Node2&#45;&gt;Node16</title>
<path fill="none" stroke="midnightblue" d="M619.538,-112.444C589.994,-102.89 542.2,-87.436 510.687,-77.2461"/>
<polygon fill="midnightblue" stroke="midnightblue" points="511.663,-73.8833 501.071,-74.1368 509.509,-80.5438 511.663,-73.8833"/>
</g>
<!-- Node17 -->
<g id="node17" class="node"><title>Node17</title>
<polygon fill="white" stroke="#bfbfbf" points="519.5,-56.5 519.5,-75.5 560.5,-75.5 560.5,-56.5 519.5,-56.5"/>
<text text-anchor="middle" x="540" y="-63.5" font-family="Helvetica,sans-Serif" font-size="10.00">string</text>
</g>
<!-- Node2&#45;&gt;Node17 -->
<g id="edge16" class="edge"><title>Node2&#45;&gt;Node17</title>
<path fill="none" stroke="midnightblue" d="M628.969,-112.324C611.97,-103.664 585.624,-90.2424 566.007,-80.249"/>
<polygon fill="midnightblue" stroke="midnightblue" points="567.488,-77.0752 556.988,-75.6545 564.31,-83.3125 567.488,-77.0752"/>
</g>
<!-- Node18 -->
<g id="node18" class="node"><title>Node18</title>
<polygon fill="white" stroke="#bfbfbf" points="543,-0.5 543,-19.5 587,-19.5 587,-0.5 543,-0.5"/>
<text text-anchor="middle" x="565" y="-7.5" font-family="Helvetica,sans-Serif" font-size="10.00">vector</text>
</g>
<!-- Node2&#45;&gt;Node18 -->
<g id="edge17" class="edge"><title>Node2&#45;&gt;Node18</title>
<path fill="none" stroke="midnightblue" d="M639.644,-112.368C626.218,-94.135 594.768,-51.4257 577.279,-27.6752"/>
<polygon fill="midnightblue" stroke="midnightblue" points="580.074,-25.5685 571.326,-19.5914 574.438,-29.7192 580.074,-25.5685"/>
</g>
<!-- Node19 -->
<g id="node19" class="node"><title>Node19</title>
<polygon fill="white" stroke="#bfbfbf" points="941.5,-56.5 941.5,-75.5 984.5,-75.5 984.5,-56.5 941.5,-56.5"/>
<text text-anchor="middle" x="963" y="-63.5" font-family="Helvetica,sans-Serif" font-size="10.00">deque</text>
</g>
<!-- Node2&#45;&gt;Node19 -->
<g id="edge18" class="edge"><title>Node2&#45;&gt;Node19</title>
<path fill="none" stroke="midnightblue" d="M707.67,-112.684C764.789,-104.613 851.976,-91.3556 927,-76 928.46,-75.7013 929.949,-75.3831 931.451,-75.0514"/>
<polygon fill="midnightblue" stroke="midnightblue" points="932.429,-78.4173 941.367,-72.7292 930.832,-71.6017 932.429,-78.4173"/>
</g>
<!-- Node20 -->
<g id="node20" class="node"><title>Node20</title>
<polygon fill="white" stroke="#bfbfbf" points="605,-0.5 605,-19.5 649,-19.5 649,-0.5 605,-0.5"/>
<text text-anchor="middle" x="627" y="-7.5" font-family="Helvetica,sans-Serif" font-size="10.00">mutex</text>
</g>
<!-- Node2&#45;&gt;Node20 -->
<g id="edge19" class="edge"><title>Node2&#45;&gt;Node20</title>
<path fill="none" stroke="midnightblue" d="M644.509,-112.368C641.443,-94.617 634.37,-53.6664 630.212,-29.5974"/>
<polygon fill="midnightblue" stroke="midnightblue" points="633.635,-28.8498 628.484,-19.5914 626.737,-30.0413 633.635,-28.8498"/>
</g>
<!-- Node21 -->
<g id="node21" class="node"><title>Node21</title>
<polygon fill="white" stroke="#bfbfbf" points="667,-0.5 667,-19.5 711,-19.5 711,-0.5 667,-0.5"/>
<text text-anchor="middle" x="689" y="-7.5" font-family="Helvetica,sans-Serif" font-size="10.00">thread</text>
</g>
<!-- Node2&#45;&gt;Node21 -->
<g id="edge20" class="edge"><title>Node2&#45;&gt;Node21</title>
<path fill="none" stroke="midnightblue" d="M649.374,-112.368C656.376,-94.4563 672.612,-52.9233 681.984,-28.9482"/>
<polygon fill="midnightblue" stroke="midnightblue" points="685.26,-30.1794 685.642,-19.5914 678.741,-27.6308 685.26,-30.1794"/>
</g>
<!-- Node22 -->
<g id="node22" class="node"><title>Node22</title>
<polygon fill="white" stroke="#bfbfbf" points="775.5,-0.5 775.5,-19.5 870.5,-19.5 870.5,-0.5 775.5,-0.5"/>
<text text-anchor="middle" x="823" y="-7.5" font-family="Helvetica,sans-Serif" font-size="10.00">condition_variable</text>
</g>
<!-- Node2&#45;&gt;Node22 -->
<g id="edge21" class="edge"><title>Node2&#45;&gt;Node22</title>
<path fill="none" stroke="midnightblue" d="M707.779,-112.491C751.113,-105.163 803.754,-93.057 818,-76 828.534,-63.3879 828.727,-44.1744 826.922,-29.9039"/>
<polygon fill="midnightblue" stroke="midnightblue" points="830.321,-29.0166 825.204,-19.7396 823.419,-30.1831 830.321,-29.0166"/>
</g>
<!-- Node23 -->
<g id="node23" class="node"><title>Node23</title>
<polygon fill="white" stroke="#bfbfbf" points="888.5,-0.5 888.5,-19.5 931.5,-19.5 931.5,-0.5 888.5,-0.5"/>
<text text-anchor="middle" x="910" y="-7.5" font-family="Helvetica,sans-Serif" font-size="10.00">queue</text>
</g>
<!-- Node2&#45;&gt;Node23 -->
<g id="edge22" class="edge"><title>Node2&#45;&gt;Node23</title>
<path fill="none" stroke="midnightblue" d="M707.693,-114.143C746.222,-108.023 795.94,-96.6853 836,-76 859.845,-63.6877 882.264,-42.0432 896.045,-27.1357"/>
<polygon fill="midnightblue" stroke="midnightblue" points="898.69,-29.4283 902.766,-19.6489 893.481,-24.752 898.69,-29.4283"/>
</g>
<!-- Node24 -->
<g id="node24" class="node"><title>Node24</title>
<polygon fill="white" stroke="#bfbfbf" points="1003,-56.5 1003,-75.5 1055,-75.5 1055,-56.5 1003,-56.5"/>
<text text-anchor="middle" x="1029" y="-63.5" font-family="Helvetica,sans-Serif" font-size="10.00">sstream</text>
</g>
<!-- Node2&#45;&gt;Node24 -->
<g id="edge23" class="edge"><title>Node2&#45;&gt;Node24</title>
<path fill="none" stroke="midnightblue" d="M707.656,-115.343C775.386,-108.61 887.503,-95.9386 992.859,-76.0184"/>
<polygon fill="midnightblue" stroke="midnightblue" points="993.543,-79.4512 1002.71,-74.1315 992.225,-72.5763 993.543,-79.4512"/>
</g>
<!-- Node25 -->
<g id="node25" class="node"><title>Node25</title>
<polygon fill="white" stroke="#bfbfbf" points="949.5,-0.5 949.5,-19.5 984.5,-19.5 984.5,-0.5 949.5,-0.5"/>
<text text-anchor="middle" x="967" y="-7.5" font-family="Helvetica,sans-Serif" font-size="10.00">map</text>
</g>
<!-- Node2&#45;&gt;Node25 -->
<g id="edge24" class="edge"><title>Node2&#45;&gt;Node25</title>
<path fill="none" stroke="midnightblue" d="M707.857,-114.251C752.464,-107.958 813.463,-96.376 864,-76 895.632,-63.2462 928.293,-40.76 948.128,-25.8685"/>
<polygon fill="midnightblue" stroke="midnightblue" points="950.475,-28.4798 956.29,-19.6232 946.221,-22.9207 950.475,-28.4798"/>
</g>
<!-- Node26 -->
<g id="node26" class="node"><title>Node26</title>
<g id="a_node26"><a xlink:href="cosmos-defs_8h.html" target="_top" xlink:title="COSMOS definitions Definitions specific to the COSMOS environement. ">
<polygon fill="white" stroke="black" points="693,-56.5 693,-75.5 809,-75.5 809,-56.5 693,-56.5"/>
<text text-anchor="middle" x="751" y="-63.5" font-family="Helvetica,sans-Serif" font-size="10.00">support/cosmos&#45;defs.h</text>
</a>
</g>
</g>
<!-- Node2&#45;&gt;Node26 -->
<g id="edge25" class="edge"><title>Node2&#45;&gt;Node26</title>
<path fill="none" stroke="midnightblue" d="M662.87,-112.324C679.709,-103.664 705.807,-90.2424 725.238,-80.249"/>
<polygon fill="midnightblue" stroke="midnightblue" points="726.88,-83.3405 734.172,-75.6545 723.678,-77.1155 726.88,-83.3405"/>
</g>
<!-- Node26&#45;&gt;Node18 -->
<g id="edge27" class="edge"><title>Node26&#45;&gt;Node18</title>
<path fill="none" stroke="midnightblue" d="M721.528,-56.4435C687.498,-46.5639 631.731,-30.3734 596.76,-20.2208"/>
<polygon fill="midnightblue" stroke="midnightblue" points="597.633,-16.8296 587.053,-17.4026 595.681,-23.552 597.633,-16.8296"/>
</g>
<!-- Node26&#45;&gt;Node20 -->
<g id="edge31" class="edge"><title>Node26&#45;&gt;Node20</title>
<path fill="none" stroke="midnightblue" d="M731.352,-56.4435C711.035,-47.5961 679.097,-33.6875 655.902,-23.5865"/>
<polygon fill="midnightblue" stroke="midnightblue" points="657.122,-20.3002 646.556,-19.5164 654.327,-26.7181 657.122,-20.3002"/>
</g>
<!-- Node26&#45;&gt;Node21 -->
<g id="edge30" class="edge"><title>Node26&#45;&gt;Node21</title>
<path fill="none" stroke="midnightblue" d="M741.039,-56.324C731.873,-48.3414 718.063,-36.3128 706.972,-26.6529"/>
<polygon fill="midnightblue" stroke="midnightblue" points="708.982,-23.7624 699.143,-19.8339 704.385,-29.041 708.982,-23.7624"/>
</g>
<!-- Node26&#45;&gt;Node22 -->
<g id="edge32" class="edge"><title>Node26&#45;&gt;Node22</title>
<path fill="none" stroke="midnightblue" d="M762.568,-56.324C773.42,-48.1849 789.881,-35.8395 802.883,-26.0874"/>
<polygon fill="midnightblue" stroke="midnightblue" points="805.321,-28.6339 811.221,-19.8339 801.121,-23.0339 805.321,-28.6339"/>
</g>
<!-- Node26&#45;&gt;Node23 -->
<g id="edge29" class="edge"><title>Node26&#45;&gt;Node23</title>
<path fill="none" stroke="midnightblue" d="M776.194,-56.4435C804.044,-46.985 848.926,-31.7421 878.933,-21.551"/>
<polygon fill="midnightblue" stroke="midnightblue" points="880.15,-24.8342 888.493,-18.3042 877.899,-18.206 880.15,-24.8342"/>
</g>
<!-- Node26&#45;&gt;Node25 -->
<g id="edge26" class="edge"><title>Node26&#45;&gt;Node25</title>
<path fill="none" stroke="midnightblue" d="M792.453,-56.4426C829.039,-48.6094 883.966,-36.1691 939.765,-20.1564"/>
<polygon fill="midnightblue" stroke="midnightblue" points="940.828,-23.4924 949.455,-17.3417 938.875,-16.7703 940.828,-23.4924"/>
</g>
<!-- Node27 -->
<g id="node27" class="node"><title>Node27</title>
<polygon fill="white" stroke="#bfbfbf" points="728.5,-0.5 728.5,-19.5 757.5,-19.5 757.5,-0.5 728.5,-0.5"/>
<text text-anchor="middle" x="743" y="-7.5" font-family="Helvetica,sans-Serif" font-size="10.00">list</text>
</g>
<!-- Node26&#45;&gt;Node27 -->
<g id="edge28" class="edge"><title>Node26&#45;&gt;Node27</title>
<path fill="none" stroke="midnightblue" d="M749.679,-56.083C748.619,-48.9272 747.094,-38.6353 745.769,-29.6911"/>
<polygon fill="midnightblue" stroke="midnightblue" points="749.224,-29.1302 744.296,-19.7511 742.3,-30.1561 749.224,-29.1302"/>
</g>
<!-- Node28&#45;&gt;Node2 -->
<g id="edge34" class="edge"><title>Node28&#45;&gt;Node2</title>
<path fill="none" stroke="midnightblue" d="M424.673,-168.444C470.745,-158.984 544.996,-143.738 594.631,-133.547"/>
<polygon fill="midnightblue" stroke="midnightblue" points="595.43,-136.956 604.522,-131.516 594.022,-130.099 595.43,-136.956"/>
</g>
<!-- Node28&#45;&gt;Node11 -->
<g id="edge35" class="edge"><title>Node28&#45;&gt;Node11</title>
<path fill="none" stroke="midnightblue" d="M372.977,-168.422C356.145,-154.467 320.632,-126.909 286,-112 222.309,-84.5811 199.222,-92.9873 127.935,-76.0687"/>
<polygon fill="midnightblue" stroke="midnightblue" points="128.581,-72.6232 118.034,-73.6312 126.907,-79.4203 128.581,-72.6232"/>
</g>
<!-- Node28&#45;&gt;Node14 -->
<g id="edge36" class="edge"><title>Node28&#45;&gt;Node14</title>
<path fill="none" stroke="midnightblue" d="M355.362,-168.46C291.988,-148.878 136.15,-100.726 64.3405,-78.5378"/>
<polygon fill="midnightblue" stroke="midnightblue" points="64.964,-75.0672 54.3764,-75.459 62.8974,-81.7552 64.964,-75.0672"/>
</g>
</g>
</svg>
