<?xml version="1.0" encoding="UTF-8" standalone="no"?>
<!DOCTYPE svg PUBLIC "-//W3C//DTD SVG 1.1//EN"
 "http://www.w3.org/Graphics/SVG/1.1/DTD/svg11.dtd">
<!-- Generated by graphviz version 2.38.0 (20140413.2041)
 -->
<!-- Title: kisslib.h Pages: 1 -->
<svg width="1459pt" height="196pt"
 viewBox="0.00 0.00 1458.50 196.00" xmlns="http://www.w3.org/2000/svg" xmlns:xlink="http://www.w3.org/1999/xlink">
<g id="graph0" class="graph" transform="scale(1 1) rotate(0) translate(4 192)">
<title>kisslib.h</title>
<polygon fill="white" stroke="none" points="-4,4 -4,-192 1454.5,-192 1454.5,4 -4,4"/>
<!-- Node1 -->
<g id="node1" class="node"><title>Node1</title>
<polygon fill="#bfbfbf" stroke="black" points="64.5,-168.5 64.5,-187.5 117.5,-187.5 117.5,-168.5 64.5,-168.5"/>
<text text-anchor="middle" x="91" y="-175.5" font-family="Helvetica,sans-Serif" font-size="10.00">kisslib.h</text>
</g>
<!-- Node2 -->
<g id="node2" class="node"><title>Node2</title>
<g id="a_node2"><a xlink:href="config_cosmos_8h.html" target="_top" xlink:title="Headers and definitions common to all COSMOS. ">
<polygon fill="white" stroke="black" points="603.5,-112.5 603.5,-131.5 726.5,-131.5 726.5,-112.5 603.5,-112.5"/>
<text text-anchor="middle" x="665" y="-119.5" font-family="Helvetica,sans-Serif" font-size="10.00">support/configCosmos.h</text>
</a>
</g>
</g>
<!-- Node1&#45;&gt;Node2 -->
<g id="edge1" class="edge"><title>Node1&#45;&gt;Node2</title>
<path fill="none" stroke="midnightblue" d="M117.534,-174.504C201.685,-166.587 464.592,-141.854 592.991,-129.774"/>
<polygon fill="midnightblue" stroke="midnightblue" points="593.492,-133.243 603.12,-128.821 592.837,-126.274 593.492,-133.243"/>
</g>
<!-- Node11 -->
<g id="node11" class="node"><title>Node11</title>
<polygon fill="white" stroke="#bfbfbf" points="0,-56.5 0,-75.5 46,-75.5 46,-56.5 0,-56.5"/>
<text text-anchor="middle" x="23" y="-63.5" font-family="Helvetica,sans-Serif" font-size="10.00">cstring</text>
</g>
<!-- Node1&#45;&gt;Node11 -->
<g id="edge33" class="edge"><title>Node1&#45;&gt;Node11</title>
<path fill="none" stroke="midnightblue" d="M85.6642,-168.368C74.4919,-150.296 48.4545,-108.176 33.6991,-84.3074"/>
<polygon fill="midnightblue" stroke="midnightblue" points="36.5464,-82.257 28.3111,-75.5914 30.5922,-85.9378 36.5464,-82.257"/>
</g>
<!-- Node14 -->
<g id="node14" class="node"><title>Node14</title>
<polygon fill="white" stroke="#bfbfbf" points="64,-56.5 64,-75.5 118,-75.5 118,-56.5 64,-56.5"/>
<text text-anchor="middle" x="91" y="-63.5" font-family="Helvetica,sans-Serif" font-size="10.00">iostream</text>
</g>
<!-- Node1&#45;&gt;Node14 -->
<g id="edge34" class="edge"><title>Node1&#45;&gt;Node14</title>
<path fill="none" stroke="midnightblue" d="M91,-168.368C91,-150.617 91,-109.666 91,-85.5974"/>
<polygon fill="midnightblue" stroke="midnightblue" points="94.5001,-85.5914 91,-75.5914 87.5001,-85.5915 94.5001,-85.5914"/>
</g>
<!-- Node3 -->
<g id="node3" class="node"><title>Node3</title>
<polygon fill="white" stroke="#bfbfbf" points="1073.5,-56.5 1073.5,-75.5 1118.5,-75.5 1118.5,-56.5 1073.5,-56.5"/>
<text text-anchor="middle" x="1096" y="-63.5" font-family="Helvetica,sans-Serif" font-size="10.00">climits</text>
</g>
<!-- Node2&#45;&gt;Node3 -->
<g id="edge2" class="edge"><title>Node2&#45;&gt;Node3</title>
<path fill="none" stroke="midnightblue" d="M726.648,-117.155C803.368,-111.68 938.458,-99.7754 1063.27,-75.8224"/>
<polygon fill="midnightblue" stroke="midnightblue" points="1064.24,-79.1991 1073.38,-73.8497 1062.9,-72.3285 1064.24,-79.1991"/>
</g>
<!-- Node4 -->
<g id="node4" class="node"><title>Node4</title>
<polygon fill="white" stroke="#bfbfbf" points="1136.5,-56.5 1136.5,-75.5 1183.5,-75.5 1183.5,-56.5 1136.5,-56.5"/>
<text text-anchor="middle" x="1160" y="-63.5" font-family="Helvetica,sans-Serif" font-size="10.00">csignal</text>
</g>
<!-- Node2&#45;&gt;Node4 -->
<g id="edge3" class="edge"><title>Node2&#45;&gt;Node4</title>
<path fill="none" stroke="midnightblue" d="M726.529,-118.492C813.689,-114.173 978.123,-103.211 1126.17,-76.0551"/>
<polygon fill="midnightblue" stroke="midnightblue" points="1127.16,-79.4311 1136.35,-74.1574 1125.87,-72.5497 1127.16,-79.4311"/>
</g>
<!-- Node5 -->
<g id="node5" class="node"><title>Node5</title>
<polygon fill="white" stroke="#bfbfbf" points="1202,-56.5 1202,-75.5 1248,-75.5 1248,-56.5 1202,-56.5"/>
<text text-anchor="middle" x="1225" y="-63.5" font-family="Helvetica,sans-Serif" font-size="10.00">cstdint</text>
</g>
<!-- Node2&#45;&gt;Node5 -->
<g id="edge4" class="edge"><title>Node2&#45;&gt;Node5</title>
<path fill="none" stroke="midnightblue" d="M726.875,-119.512C824.116,-116.345 1018.63,-106.658 1191.65,-75.917"/>
<polygon fill="midnightblue" stroke="midnightblue" points="1192.48,-79.3235 1201.7,-74.1029 1191.24,-72.4348 1192.48,-79.3235"/>
</g>
<!-- Node6 -->
<g id="node6" class="node"><title>Node6</title>
<polygon fill="white" stroke="#bfbfbf" points="1266,-56.5 1266,-75.5 1322,-75.5 1322,-56.5 1266,-56.5"/>
<text text-anchor="middle" x="1294" y="-63.5" font-family="Helvetica,sans-Serif" font-size="10.00">cinttypes</text>
</g>
<!-- Node2&#45;&gt;Node6 -->
<g id="edge5" class="edge"><title>Node2&#45;&gt;Node6</title>
<path fill="none" stroke="midnightblue" d="M726.745,-119.61C833.039,-116.495 1057.49,-106.756 1255.79,-75.9357"/>
<polygon fill="midnightblue" stroke="midnightblue" points="1256.48,-79.3707 1265.81,-74.3567 1255.39,-72.456 1256.48,-79.3707"/>
</g>
<!-- Node7 -->
<g id="node7" class="node"><title>Node7</title>
<polygon fill="white" stroke="#bfbfbf" points="1340.5,-56.5 1340.5,-75.5 1383.5,-75.5 1383.5,-56.5 1340.5,-56.5"/>
<text text-anchor="middle" x="1362" y="-63.5" font-family="Helvetica,sans-Serif" font-size="10.00">cstdio</text>
</g>
<!-- Node2&#45;&gt;Node7 -->
<g id="edge6" class="edge"><title>Node2&#45;&gt;Node7</title>
<path fill="none" stroke="midnightblue" d="M726.594,-121.239C843.019,-120.737 1103.27,-115.063 1330.35,-75.675"/>
<polygon fill="midnightblue" stroke="midnightblue" points="1331.22,-79.0769 1340.46,-73.8959 1330,-72.1829 1331.22,-79.0769"/>
</g>
<!-- Node8 -->
<g id="node8" class="node"><title>Node8</title>
<polygon fill="white" stroke="#bfbfbf" points="1401.5,-56.5 1401.5,-75.5 1450.5,-75.5 1450.5,-56.5 1401.5,-56.5"/>
<text text-anchor="middle" x="1426" y="-63.5" font-family="Helvetica,sans-Serif" font-size="10.00">cstddef</text>
</g>
<!-- Node2&#45;&gt;Node8 -->
<g id="edge7" class="edge"><title>Node2&#45;&gt;Node8</title>
<path fill="none" stroke="midnightblue" d="M726.837,-121.42C851.329,-121.348 1140.99,-116.546 1391.25,-75.9775"/>
<polygon fill="midnightblue" stroke="midnightblue" points="1391.95,-79.4081 1401.25,-74.3324 1390.82,-72.5008 1391.95,-79.4081"/>
</g>
<!-- Node9 -->
<g id="node9" class="node"><title>Node9</title>
<polygon fill="white" stroke="#bfbfbf" points="136.5,-56.5 136.5,-75.5 181.5,-75.5 181.5,-56.5 136.5,-56.5"/>
<text text-anchor="middle" x="159" y="-63.5" font-family="Helvetica,sans-Serif" font-size="10.00">cstdlib</text>
</g>
<!-- Node2&#45;&gt;Node9 -->
<g id="edge8" class="edge"><title>Node2&#45;&gt;Node9</title>
<path fill="none" stroke="midnightblue" d="M603.151,-118.67C514.139,-114.538 344.745,-103.76 191.665,-75.7689"/>
<polygon fill="midnightblue" stroke="midnightblue" points="192.078,-72.2858 181.607,-73.9002 190.799,-79.168 192.078,-72.2858"/>
</g>
<!-- Node10 -->
<g id="node10" class="node"><title>Node10</title>
<polygon fill="white" stroke="#bfbfbf" points="200,-56.5 200,-75.5 244,-75.5 244,-56.5 200,-56.5"/>
<text text-anchor="middle" x="222" y="-63.5" font-family="Helvetica,sans-Serif" font-size="10.00">cerrno</text>
</g>
<!-- Node2&#45;&gt;Node10 -->
<g id="edge9" class="edge"><title>Node2&#45;&gt;Node10</title>
<path fill="none" stroke="midnightblue" d="M603.416,-117.622C524.485,-112.55 383.38,-100.984 254.299,-75.9422"/>
<polygon fill="midnightblue" stroke="midnightblue" points="254.725,-72.4588 244.237,-73.9575 253.37,-79.3265 254.725,-72.4588"/>
</g>
<!-- Node2&#45;&gt;Node11 -->
<g id="edge10" class="edge"><title>Node2&#45;&gt;Node11</title>
<path fill="none" stroke="midnightblue" d="M603.459,-120.523C494.63,-118.796 261.139,-111.117 56.3326,-75.8874"/>
<polygon fill="midnightblue" stroke="midnightblue" points="56.747,-72.4069 46.2939,-74.1343 55.5426,-79.3025 56.747,-72.4069"/>
</g>
<!-- Node12 -->
<g id="node12" class="node"><title>Node12</title>
<polygon fill="white" stroke="#bfbfbf" points="262,-56.5 262,-75.5 306,-75.5 306,-56.5 262,-56.5"/>
<text text-anchor="middle" x="284" y="-63.5" font-family="Helvetica,sans-Serif" font-size="10.00">cmath</text>
</g>
<!-- Node2&#45;&gt;Node12 -->
<g id="edge11" class="edge"><title>Node2&#45;&gt;Node12</title>
<path fill="none" stroke="midnightblue" d="M603.401,-115.799C535.44,-109.447 422.746,-97.1043 316.234,-75.7411"/>
<polygon fill="midnightblue" stroke="midnightblue" points="316.775,-72.2796 306.278,-73.7138 315.378,-79.1388 316.775,-72.2796"/>
</g>
<!-- Node13 -->
<g id="node13" class="node"><title>Node13</title>
<polygon fill="white" stroke="#bfbfbf" points="324.5,-56.5 324.5,-75.5 369.5,-75.5 369.5,-56.5 324.5,-56.5"/>
<text text-anchor="middle" x="347" y="-63.5" font-family="Helvetica,sans-Serif" font-size="10.00">iosfwd</text>
</g>
<!-- Node2&#45;&gt;Node13 -->
<g id="edge12" class="edge"><title>Node2&#45;&gt;Node13</title>
<path fill="none" stroke="midnightblue" d="M603.24,-113.427C547.266,-106.078 462.372,-93.7238 379.477,-75.8715"/>
<polygon fill="midnightblue" stroke="midnightblue" points="380.159,-72.4378 369.642,-73.725 378.666,-79.2769 380.159,-72.4378"/>
</g>
<!-- Node2&#45;&gt;Node14 -->
<g id="edge13" class="edge"><title>Node2&#45;&gt;Node14</title>
<path fill="none" stroke="midnightblue" d="M603.281,-119.077C504.712,-115.295 305.629,-104.748 128.075,-75.9099"/>
<polygon fill="midnightblue" stroke="midnightblue" points="128.465,-72.427 118.029,-74.2547 127.327,-79.3339 128.465,-72.427"/>
</g>
<!-- Node15 -->
<g id="node15" class="node"><title>Node15</title>
<polygon fill="white" stroke="#bfbfbf" points="387.5,-56.5 387.5,-75.5 438.5,-75.5 438.5,-56.5 387.5,-56.5"/>
<text text-anchor="middle" x="413" y="-63.5" font-family="Helvetica,sans-Serif" font-size="10.00">unistd.h</text>
</g>
<!-- Node2&#45;&gt;Node15 -->
<g id="edge14" class="edge"><title>Node2&#45;&gt;Node15</title>
<path fill="none" stroke="midnightblue" d="M620.812,-112.472C579.014,-104.263 514.296,-91.1876 448.688,-76.0702"/>
<polygon fill="midnightblue" stroke="midnightblue" points="449.112,-72.5757 438.58,-73.7263 447.531,-79.3948 449.112,-72.5757"/>
</g>
<!-- Node16 -->
<g id="node16" class="node"><title>Node16</title>
<polygon fill="white" stroke="#bfbfbf" points="457,-56.5 457,-75.5 501,-75.5 501,-56.5 457,-56.5"/>
<text text-anchor="middle" x="479" y="-63.5" font-family="Helvetica,sans-Serif" font-size="10.00">fcntl.h</text>
</g>
<!-- Node2&#45;&gt;Node16 -->
<g id="edge15" class="edge"><title>Node2&#45;&gt;Node16</title>
<path fill="none" stroke="midnightblue" d="M635.528,-112.444C601.498,-102.564 545.731,-86.3734 510.76,-76.2208"/>
<polygon fill="midnightblue" stroke="midnightblue" points="511.633,-72.8296 501.053,-73.4026 509.681,-79.552 511.633,-72.8296"/>
</g>
<!-- Node17 -->
<g id="node17" class="node"><title>Node17</title>
<polygon fill="white" stroke="#bfbfbf" points="519.5,-56.5 519.5,-75.5 560.5,-75.5 560.5,-56.5 519.5,-56.5"/>
<text text-anchor="middle" x="540" y="-63.5" font-family="Helvetica,sans-Serif" font-size="10.00">string</text>
</g>
<!-- Node2&#45;&gt;Node17 -->
<g id="edge16" class="edge"><title>Node2&#45;&gt;Node17</title>
<path fill="none" stroke="midnightblue" d="M645.193,-112.444C624.713,-103.596 592.517,-89.6875 569.135,-79.5865"/>
<polygon fill="midnightblue" stroke="midnightblue" points="570.282,-76.2692 559.714,-75.5164 567.506,-82.6953 570.282,-76.2692"/>
</g>
<!-- Node18 -->
<g id="node18" class="node"><title>Node18</title>
<polygon fill="white" stroke="#bfbfbf" points="543,-0.5 543,-19.5 587,-19.5 587,-0.5 543,-0.5"/>
<text text-anchor="middle" x="565" y="-7.5" font-family="Helvetica,sans-Serif" font-size="10.00">vector</text>
</g>
<!-- Node2&#45;&gt;Node18 -->
<g id="edge17" class="edge"><title>Node2&#45;&gt;Node18</title>
<path fill="none" stroke="midnightblue" d="M657.153,-112.368C640.431,-93.9744 601.065,-50.6712 579.593,-27.0519"/>
<polygon fill="midnightblue" stroke="midnightblue" points="582.127,-24.6365 572.81,-19.5914 576.947,-29.3452 582.127,-24.6365"/>
</g>
<!-- Node19 -->
<g id="node19" class="node"><title>Node19</title>
<polygon fill="white" stroke="#bfbfbf" points="941.5,-56.5 941.5,-75.5 984.5,-75.5 984.5,-56.5 941.5,-56.5"/>
<text text-anchor="middle" x="963" y="-63.5" font-family="Helvetica,sans-Serif" font-size="10.00">deque</text>
</g>
<!-- Node2&#45;&gt;Node19 -->
<g id="edge18" class="edge"><title>Node2&#45;&gt;Node19</title>
<path fill="none" stroke="midnightblue" d="M721.963,-112.476C775.193,-104.214 856.773,-90.7876 927,-76 928.458,-75.693 929.946,-75.3681 931.447,-75.0309"/>
<polygon fill="midnightblue" stroke="midnightblue" points="932.431,-78.3948 941.359,-72.6892 930.822,-71.5824 932.431,-78.3948"/>
</g>
<!-- Node20 -->
<g id="node20" class="node"><title>Node20</title>
<polygon fill="white" stroke="#bfbfbf" points="605,-0.5 605,-19.5 649,-19.5 649,-0.5 605,-0.5"/>
<text text-anchor="middle" x="627" y="-7.5" font-family="Helvetica,sans-Serif" font-size="10.00">mutex</text>
</g>
<!-- Node2&#45;&gt;Node20 -->
<g id="edge19" class="edge"><title>Node2&#45;&gt;Node20</title>
<path fill="none" stroke="midnightblue" d="M662.018,-112.368C655.858,-94.5366 641.611,-53.2953 633.312,-29.2717"/>
<polygon fill="midnightblue" stroke="midnightblue" points="636.541,-27.9005 629.968,-19.5914 629.925,-30.1862 636.541,-27.9005"/>
</g>
<!-- Node21 -->
<g id="node21" class="node"><title>Node21</title>
<polygon fill="white" stroke="#bfbfbf" points="667,-0.5 667,-19.5 711,-19.5 711,-0.5 667,-0.5"/>
<text text-anchor="middle" x="689" y="-7.5" font-family="Helvetica,sans-Serif" font-size="10.00">thread</text>
</g>
<!-- Node2&#45;&gt;Node21 -->
<g id="edge20" class="edge"><title>Node2&#45;&gt;Node21</title>
<path fill="none" stroke="midnightblue" d="M666.883,-112.368C670.756,-94.617 679.691,-53.6664 684.942,-29.5974"/>
<polygon fill="midnightblue" stroke="midnightblue" points="688.413,-30.1077 687.126,-19.5914 681.574,-28.6155 688.413,-30.1077"/>
</g>
<!-- Node22 -->
<g id="node22" class="node"><title>Node22</title>
<polygon fill="white" stroke="#bfbfbf" points="775.5,-0.5 775.5,-19.5 870.5,-19.5 870.5,-0.5 775.5,-0.5"/>
<text text-anchor="middle" x="823" y="-7.5" font-family="Helvetica,sans-Serif" font-size="10.00">condition_variable</text>
</g>
<!-- Node2&#45;&gt;Node22 -->
<g id="edge21" class="edge"><title>Node2&#45;&gt;Node22</title>
<path fill="none" stroke="midnightblue" d="M726.692,-118.892C758.933,-114.345 796.13,-103.002 818,-76 828.342,-63.2304 828.562,-44.0381 826.814,-29.8155"/>
<polygon fill="midnightblue" stroke="midnightblue" points="830.225,-28.9904 825.146,-19.6923 823.318,-30.1283 830.225,-28.9904"/>
</g>
<!-- Node23 -->
<g id="node23" class="node"><title>Node23</title>
<polygon fill="white" stroke="#bfbfbf" points="888.5,-0.5 888.5,-19.5 931.5,-19.5 931.5,-0.5 888.5,-0.5"/>
<text text-anchor="middle" x="910" y="-7.5" font-family="Helvetica,sans-Serif" font-size="10.00">queue</text>
</g>
<!-- Node2&#45;&gt;Node23 -->
<g id="edge22" class="edge"><title>Node2&#45;&gt;Node23</title>
<path fill="none" stroke="midnightblue" d="M723.687,-112.499C757.893,-105.884 801.041,-94.6033 836,-76 859.69,-63.3934 882.145,-41.8155 895.975,-27.0035"/>
<polygon fill="midnightblue" stroke="midnightblue" points="898.594,-29.3267 902.725,-19.5706 893.411,-24.6209 898.594,-29.3267"/>
</g>
<!-- Node24 -->
<g id="node24" class="node"><title>Node24</title>
<polygon fill="white" stroke="#bfbfbf" points="1003,-56.5 1003,-75.5 1055,-75.5 1055,-56.5 1003,-56.5"/>
<text text-anchor="middle" x="1029" y="-63.5" font-family="Helvetica,sans-Serif" font-size="10.00">sstream</text>
</g>
<!-- Node2&#45;&gt;Node24 -->
<g id="edge23" class="edge"><title>Node2&#45;&gt;Node24</title>
<path fill="none" stroke="midnightblue" d="M726.593,-114.731C790.756,-107.716 894.346,-95.032 992.599,-76.0848"/>
<polygon fill="midnightblue" stroke="midnightblue" points="993.558,-79.4637 1002.7,-74.1105 992.216,-72.5936 993.558,-79.4637"/>
</g>
<!-- Node25 -->
<g id="node25" class="node"><title>Node25</title>
<polygon fill="white" stroke="#bfbfbf" points="949.5,-0.5 949.5,-19.5 984.5,-19.5 984.5,-0.5 949.5,-0.5"/>
<text text-anchor="middle" x="967" y="-7.5" font-family="Helvetica,sans-Serif" font-size="10.00">map</text>
</g>
<!-- Node2&#45;&gt;Node25 -->
<g id="edge24" class="edge"><title>Node2&#45;&gt;Node25</title>
<path fill="none" stroke="midnightblue" d="M726.737,-112.607C766.897,-105.811 819.821,-94.298 864,-76 895.51,-62.949 928.203,-40.5401 948.079,-25.7465"/>
<polygon fill="midnightblue" stroke="midnightblue" points="950.403,-28.3762 956.259,-19.5463 946.175,-22.7976 950.403,-28.3762"/>
</g>
<!-- Node26 -->
<g id="node26" class="node"><title>Node26</title>
<g id="a_node26"><a xlink:href="cosmos-defs_8h.html" target="_top" xlink:title="COSMOS definitions Definitions specific to the COSMOS environement. ">
<polygon fill="white" stroke="black" points="693,-56.5 693,-75.5 809,-75.5 809,-56.5 693,-56.5"/>
<text text-anchor="middle" x="751" y="-63.5" font-family="Helvetica,sans-Serif" font-size="10.00">support/cosmos&#45;defs.h</text>
</a>
</g>
</g>
<!-- Node2&#45;&gt;Node26 -->
<g id="edge25" class="edge"><title>Node2&#45;&gt;Node26</title>
<path fill="none" stroke="midnightblue" d="M678.817,-112.324C692.233,-103.9 712.824,-90.9709 728.586,-81.0741"/>
<polygon fill="midnightblue" stroke="midnightblue" points="730.609,-83.9364 737.217,-75.6545 726.887,-78.0081 730.609,-83.9364"/>
</g>
<!-- Node26&#45;&gt;Node18 -->
<g id="edge27" class="edge"><title>Node26&#45;&gt;Node18</title>
<path fill="none" stroke="midnightblue" d="M721.528,-56.4435C687.498,-46.5639 631.731,-30.3734 596.76,-20.2208"/>
<polygon fill="midnightblue" stroke="midnightblue" points="597.633,-16.8296 587.053,-17.4026 595.681,-23.552 597.633,-16.8296"/>
</g>
<!-- Node26&#45;&gt;Node20 -->
<g id="edge31" class="edge"><title>Node26&#45;&gt;Node20</title>
<path fill="none" stroke="midnightblue" d="M731.352,-56.4435C711.035,-47.5961 679.097,-33.6875 655.902,-23.5865"/>
<polygon fill="midnightblue" stroke="midnightblue" points="657.122,-20.3002 646.556,-19.5164 654.327,-26.7181 657.122,-20.3002"/>
</g>
<!-- Node26&#45;&gt;Node21 -->
<g id="edge30" class="edge"><title>Node26&#45;&gt;Node21</title>
<path fill="none" stroke="midnightblue" d="M741.039,-56.324C731.873,-48.3414 718.063,-36.3128 706.972,-26.6529"/>
<polygon fill="midnightblue" stroke="midnightblue" points="708.982,-23.7624 699.143,-19.8339 704.385,-29.041 708.982,-23.7624"/>
</g>
<!-- Node26&#45;&gt;Node22 -->
<g id="edge32" class="edge"><title>Node26&#45;&gt;Node22</title>
<path fill="none" stroke="midnightblue" d="M762.568,-56.324C773.42,-48.1849 789.881,-35.8395 802.883,-26.0874"/>
<polygon fill="midnightblue" stroke="midnightblue" points="805.321,-28.6339 811.221,-19.8339 801.121,-23.0339 805.321,-28.6339"/>
</g>
<!-- Node26&#45;&gt;Node23 -->
<g id="edge29" class="edge"><title>Node26&#45;&gt;Node23</title>
<path fill="none" stroke="midnightblue" d="M776.194,-56.4435C804.044,-46.985 848.926,-31.7421 878.933,-21.551"/>
<polygon fill="midnightblue" stroke="midnightblue" points="880.15,-24.8342 888.493,-18.3042 877.899,-18.206 880.15,-24.8342"/>
</g>
<!-- Node26&#45;&gt;Node25 -->
<g id="edge26" class="edge"><title>Node26&#45;&gt;Node25</title>
<path fill="none" stroke="midnightblue" d="M792.453,-56.4426C829.039,-48.6094 883.966,-36.1691 939.765,-20.1564"/>
<polygon fill="midnightblue" stroke="midnightblue" points="940.828,-23.4924 949.455,-17.3417 938.875,-16.7703 940.828,-23.4924"/>
</g>
<!-- Node27 -->
<g id="node27" class="node"><title>Node27</title>
<polygon fill="white" stroke="#bfbfbf" points="728.5,-0.5 728.5,-19.5 757.5,-19.5 757.5,-0.5 728.5,-0.5"/>
<text text-anchor="middle" x="743" y="-7.5" font-family="Helvetica,sans-Serif" font-size="10.00">list</text>
</g>
<!-- Node26&#45;&gt;Node27 -->
<g id="edge28" class="edge"><title>Node26&#45;&gt;Node27</title>
<path fill="none" stroke="midnightblue" d="M749.679,-56.083C748.619,-48.9272 747.094,-38.6353 745.769,-29.6911"/>
<polygon fill="midnightblue" stroke="midnightblue" points="749.224,-29.1302 744.296,-19.7511 742.3,-30.1561 749.224,-29.1302"/>
</g>
</g>
</svg>
