<?xml version="1.0" encoding="UTF-8" standalone="no"?>
<!DOCTYPE svg PUBLIC "-//W3C//DTD SVG 1.1//EN"
 "http://www.w3.org/Graphics/SVG/1.1/DTD/svg11.dtd">
<!-- Generated by graphviz version 2.38.0 (20140413.2041)
 -->
<!-- Title: kpc9612p_lib.h Pages: 1 -->
<svg width="1460pt" height="375pt"
 viewBox="0.00 0.00 1459.50 375.00" xmlns="http://www.w3.org/2000/svg" xmlns:xlink="http://www.w3.org/1999/xlink">
<g id="graph0" class="graph" transform="scale(1 1) rotate(0) translate(4 371)">
<title>kpc9612p_lib.h</title>
<polygon fill="white" stroke="none" points="-4,4 -4,-371 1455.5,-371 1455.5,4 -4,4"/>
<!-- Node1 -->
<g id="node1" class="node"><title>Node1</title>
<polygon fill="#bfbfbf" stroke="black" points="541,-347.5 541,-366.5 623,-366.5 623,-347.5 541,-347.5"/>
<text text-anchor="middle" x="582" y="-354.5" font-family="Helvetica,sans-Serif" font-size="10.00">kpc9612p_lib.h</text>
</g>
<!-- Node2 -->
<g id="node2" class="node"><title>Node2</title>
<g id="a_node2"><a xlink:href="config_cosmos_8h.html" target="_top" xlink:title="Headers and definitions common to all COSMOS. ">
<polygon fill="white" stroke="black" points="684.5,-112.5 684.5,-131.5 807.5,-131.5 807.5,-112.5 684.5,-112.5"/>
<text text-anchor="middle" x="746" y="-119.5" font-family="Helvetica,sans-Serif" font-size="10.00">support/configCosmos.h</text>
</a>
</g>
</g>
<!-- Node1&#45;&gt;Node2 -->
<g id="edge1" class="edge"><title>Node1&#45;&gt;Node2</title>
<path fill="none" stroke="midnightblue" d="M623.094,-353.352C654.312,-349.122 696.008,-338.329 721,-311 764.295,-263.657 756.168,-179.475 749.814,-141.955"/>
<polygon fill="midnightblue" stroke="midnightblue" points="753.215,-141.1 747.958,-131.902 746.332,-142.371 753.215,-141.1"/>
</g>
<!-- Node28 -->
<g id="node28" class="node"><title>Node28</title>
<polygon fill="white" stroke="#bfbfbf" points="508,-286 508,-305 554,-305 554,-286 508,-286"/>
<text text-anchor="middle" x="531" y="-293" font-family="Helvetica,sans-Serif" font-size="10.00">stdio.h</text>
</g>
<!-- Node1&#45;&gt;Node28 -->
<g id="edge33" class="edge"><title>Node1&#45;&gt;Node28</title>
<path fill="none" stroke="midnightblue" d="M574.693,-347.475C566.967,-338.462 554.592,-324.025 544.982,-312.812"/>
<polygon fill="midnightblue" stroke="midnightblue" points="547.459,-310.324 538.294,-305.009 542.144,-314.879 547.459,-310.324"/>
</g>
<!-- Node29 -->
<g id="node29" class="node"><title>Node29</title>
<polygon fill="white" stroke="#bfbfbf" points="500.5,-112.5 500.5,-131.5 547.5,-131.5 547.5,-112.5 500.5,-112.5"/>
<text text-anchor="middle" x="524" y="-119.5" font-family="Helvetica,sans-Serif" font-size="10.00">errno.h</text>
</g>
<!-- Node1&#45;&gt;Node29 -->
<g id="edge34" class="edge"><title>Node1&#45;&gt;Node29</title>
<path fill="none" stroke="midnightblue" d="M549.815,-347.488C531.461,-340.801 509.984,-329.45 499,-311 490.517,-296.751 470.805,-282.601 500,-168 502.482,-158.256 507.485,-148.302 512.284,-140.241"/>
<polygon fill="midnightblue" stroke="midnightblue" points="515.254,-142.093 517.66,-131.775 509.345,-138.34 515.254,-142.093"/>
</g>
<!-- Node30 -->
<g id="node30" class="node"><title>Node30</title>
<g id="a_node30"><a xlink:href="cssl__lib_8h.html" target="_top" xlink:title="Simple Serial library header file. ">
<polygon fill="white" stroke="black" points="610.5,-280.5 610.5,-310.5 711.5,-310.5 711.5,-280.5 610.5,-280.5"/>
<text text-anchor="start" x="618.5" y="-298.5" font-family="Helvetica,sans-Serif" font-size="10.00">device/general/cssl</text>
<text text-anchor="middle" x="661" y="-287.5" font-family="Helvetica,sans-Serif" font-size="10.00">_lib.h</text>
</a>
</g>
</g>
<!-- Node1&#45;&gt;Node30 -->
<g id="edge35" class="edge"><title>Node1&#45;&gt;Node30</title>
<path fill="none" stroke="midnightblue" d="M593.319,-347.475C603.918,-339.492 620.167,-327.254 634.086,-316.77"/>
<polygon fill="midnightblue" stroke="midnightblue" points="636.499,-319.335 642.381,-310.523 632.288,-313.743 636.499,-319.335"/>
</g>
<!-- Node32 -->
<g id="node32" class="node"><title>Node32</title>
<g id="a_node32"><a xlink:href="cosmos-errno_8h.html" target="_top" xlink:title="COSMOS Error Codes. ">
<polygon fill="white" stroke="black" points="508.5,-168.5 508.5,-187.5 627.5,-187.5 627.5,-168.5 508.5,-168.5"/>
<text text-anchor="middle" x="568" y="-175.5" font-family="Helvetica,sans-Serif" font-size="10.00">support/cosmos&#45;errno.h</text>
</a>
</g>
</g>
<!-- Node1&#45;&gt;Node32 -->
<g id="edge43" class="edge"><title>Node1&#45;&gt;Node32</title>
<path fill="none" stroke="midnightblue" d="M581.325,-347.463C579.186,-320.428 572.527,-236.239 569.511,-198.109"/>
<polygon fill="midnightblue" stroke="midnightblue" points="572.979,-197.561 568.701,-187.868 566.001,-198.113 572.979,-197.561"/>
</g>
<!-- Node3 -->
<g id="node3" class="node"><title>Node3</title>
<polygon fill="white" stroke="#bfbfbf" points="1406.5,-56.5 1406.5,-75.5 1451.5,-75.5 1451.5,-56.5 1406.5,-56.5"/>
<text text-anchor="middle" x="1429" y="-63.5" font-family="Helvetica,sans-Serif" font-size="10.00">climits</text>
</g>
<!-- Node2&#45;&gt;Node3 -->
<g id="edge2" class="edge"><title>Node2&#45;&gt;Node3</title>
<path fill="none" stroke="midnightblue" d="M807.846,-120.162C923.313,-117.83 1179.26,-109.041 1392,-76 1393.47,-75.7717 1394.97,-75.514 1396.48,-75.2339"/>
<polygon fill="midnightblue" stroke="midnightblue" points="1397.36,-78.6238 1406.42,-73.1326 1395.92,-71.775 1397.36,-78.6238"/>
</g>
<!-- Node4 -->
<g id="node4" class="node"><title>Node4</title>
<polygon fill="white" stroke="#bfbfbf" points="64.5,-56.5 64.5,-75.5 111.5,-75.5 111.5,-56.5 64.5,-56.5"/>
<text text-anchor="middle" x="88" y="-63.5" font-family="Helvetica,sans-Serif" font-size="10.00">csignal</text>
</g>
<!-- Node2&#45;&gt;Node4 -->
<g id="edge3" class="edge"><title>Node2&#45;&gt;Node4</title>
<path fill="none" stroke="midnightblue" d="M684.227,-113.411C679.416,-112.903 674.631,-112.426 670,-112 429.832,-89.9204 363.961,-115.65 121.837,-75.7624"/>
<polygon fill="midnightblue" stroke="midnightblue" points="122.106,-72.2589 111.666,-74.0656 120.954,-79.1635 122.106,-72.2589"/>
</g>
<!-- Node5 -->
<g id="node5" class="node"><title>Node5</title>
<polygon fill="white" stroke="#bfbfbf" points="130,-56.5 130,-75.5 176,-75.5 176,-56.5 130,-56.5"/>
<text text-anchor="middle" x="153" y="-63.5" font-family="Helvetica,sans-Serif" font-size="10.00">cstdint</text>
</g>
<!-- Node2&#45;&gt;Node5 -->
<g id="edge4" class="edge"><title>Node2&#45;&gt;Node5</title>
<path fill="none" stroke="midnightblue" d="M684.223,-113.455C679.413,-112.938 674.629,-112.446 670,-112 458.103,-91.5991 399.641,-112.787 186.244,-75.8764"/>
<polygon fill="midnightblue" stroke="midnightblue" points="186.748,-72.4114 176.294,-74.133 185.54,-79.3064 186.748,-72.4114"/>
</g>
<!-- Node6 -->
<g id="node6" class="node"><title>Node6</title>
<polygon fill="white" stroke="#bfbfbf" points="194,-56.5 194,-75.5 250,-75.5 250,-56.5 194,-56.5"/>
<text text-anchor="middle" x="222" y="-63.5" font-family="Helvetica,sans-Serif" font-size="10.00">cinttypes</text>
</g>
<!-- Node2&#45;&gt;Node6 -->
<g id="edge5" class="edge"><title>Node2&#45;&gt;Node6</title>
<path fill="none" stroke="midnightblue" d="M684.216,-113.524C679.407,-112.991 674.626,-112.476 670,-112 490.805,-93.5461 441.653,-105.323 260.067,-75.9399"/>
<polygon fill="midnightblue" stroke="midnightblue" points="260.626,-72.4848 250.191,-74.3227 259.494,-79.3928 260.626,-72.4848"/>
</g>
<!-- Node7 -->
<g id="node7" class="node"><title>Node7</title>
<polygon fill="white" stroke="#bfbfbf" points="268.5,-56.5 268.5,-75.5 311.5,-75.5 311.5,-56.5 268.5,-56.5"/>
<text text-anchor="middle" x="290" y="-63.5" font-family="Helvetica,sans-Serif" font-size="10.00">cstdio</text>
</g>
<!-- Node2&#45;&gt;Node7 -->
<g id="edge6" class="edge"><title>Node2&#45;&gt;Node7</title>
<path fill="none" stroke="midnightblue" d="M684.207,-113.602C679.401,-113.051 674.622,-112.511 670,-112 517.911,-95.1741 475.176,-106.11 321.774,-76.0244"/>
<polygon fill="midnightblue" stroke="midnightblue" points="321.998,-72.5005 311.507,-73.9826 320.632,-79.366 321.998,-72.5005"/>
</g>
<!-- Node8 -->
<g id="node8" class="node"><title>Node8</title>
<polygon fill="white" stroke="#bfbfbf" points="329.5,-56.5 329.5,-75.5 378.5,-75.5 378.5,-56.5 329.5,-56.5"/>
<text text-anchor="middle" x="354" y="-63.5" font-family="Helvetica,sans-Serif" font-size="10.00">cstddef</text>
</g>
<!-- Node2&#45;&gt;Node8 -->
<g id="edge7" class="edge"><title>Node2&#45;&gt;Node8</title>
<path fill="none" stroke="midnightblue" d="M684.164,-113.48C594.406,-102.534 434.423,-82.9016 388.886,-75.8817"/>
<polygon fill="midnightblue" stroke="midnightblue" points="389.222,-72.3886 378.777,-74.1616 388.048,-79.2894 389.222,-72.3886"/>
</g>
<!-- Node9 -->
<g id="node9" class="node"><title>Node9</title>
<polygon fill="white" stroke="#bfbfbf" points="396.5,-56.5 396.5,-75.5 441.5,-75.5 441.5,-56.5 396.5,-56.5"/>
<text text-anchor="middle" x="419" y="-63.5" font-family="Helvetica,sans-Serif" font-size="10.00">cstdlib</text>
</g>
<!-- Node2&#45;&gt;Node9 -->
<g id="edge8" class="edge"><title>Node2&#45;&gt;Node9</title>
<path fill="none" stroke="midnightblue" d="M684.35,-112.505C615.651,-102.888 507.865,-87.3155 451.537,-75.8325"/>
<polygon fill="midnightblue" stroke="midnightblue" points="452.147,-72.3842 441.639,-73.7384 450.698,-79.2326 452.147,-72.3842"/>
</g>
<!-- Node10 -->
<g id="node10" class="node"><title>Node10</title>
<polygon fill="white" stroke="#bfbfbf" points="460,-56.5 460,-75.5 504,-75.5 504,-56.5 460,-56.5"/>
<text text-anchor="middle" x="482" y="-63.5" font-family="Helvetica,sans-Serif" font-size="10.00">cerrno</text>
</g>
<!-- Node2&#45;&gt;Node10 -->
<g id="edge9" class="edge"><title>Node2&#45;&gt;Node10</title>
<path fill="none" stroke="midnightblue" d="M694.343,-112.426C649.155,-104.609 581.579,-92.16 514.22,-76.1266"/>
<polygon fill="midnightblue" stroke="midnightblue" points="514.827,-72.673 504.286,-73.7352 513.189,-79.4785 514.827,-72.673"/>
</g>
<!-- Node11 -->
<g id="node11" class="node"><title>Node11</title>
<polygon fill="white" stroke="#bfbfbf" points="0,-56.5 0,-75.5 46,-75.5 46,-56.5 0,-56.5"/>
<text text-anchor="middle" x="23" y="-63.5" font-family="Helvetica,sans-Serif" font-size="10.00">cstring</text>
</g>
<!-- Node2&#45;&gt;Node11 -->
<g id="edge10" class="edge"><title>Node2&#45;&gt;Node11</title>
<path fill="none" stroke="midnightblue" d="M684.23,-113.374C679.418,-112.875 674.632,-112.409 670,-112 400.592,-88.1843 326.817,-120.521 56.4028,-75.8672"/>
<polygon fill="midnightblue" stroke="midnightblue" points="56.7269,-72.3729 46.2867,-74.1762 55.5728,-79.2771 56.7269,-72.3729"/>
</g>
<!-- Node12 -->
<g id="node12" class="node"><title>Node12</title>
<polygon fill="white" stroke="#bfbfbf" points="522,-56.5 522,-75.5 566,-75.5 566,-56.5 522,-56.5"/>
<text text-anchor="middle" x="544" y="-63.5" font-family="Helvetica,sans-Serif" font-size="10.00">cmath</text>
</g>
<!-- Node2&#45;&gt;Node12 -->
<g id="edge11" class="edge"><title>Node2&#45;&gt;Node12</title>
<path fill="none" stroke="midnightblue" d="M713.052,-112.439C678.775,-103.495 623.566,-88.9837 576,-76 575.899,-75.9725 575.798,-75.9449 575.697,-75.9172"/>
<polygon fill="midnightblue" stroke="midnightblue" points="576.593,-72.5337 566.022,-73.2416 574.727,-79.2804 576.593,-72.5337"/>
</g>
<!-- Node13 -->
<g id="node13" class="node"><title>Node13</title>
<polygon fill="white" stroke="#bfbfbf" points="584.5,-56.5 584.5,-75.5 629.5,-75.5 629.5,-56.5 584.5,-56.5"/>
<text text-anchor="middle" x="607" y="-63.5" font-family="Helvetica,sans-Serif" font-size="10.00">iosfwd</text>
</g>
<!-- Node2&#45;&gt;Node13 -->
<g id="edge12" class="edge"><title>Node2&#45;&gt;Node13</title>
<path fill="none" stroke="midnightblue" d="M723.975,-112.444C700.896,-103.478 664.438,-89.314 638.359,-79.1827"/>
<polygon fill="midnightblue" stroke="midnightblue" points="639.511,-75.8753 628.922,-75.5164 636.976,-82.4002 639.511,-75.8753"/>
</g>
<!-- Node14 -->
<g id="node14" class="node"><title>Node14</title>
<polygon fill="white" stroke="#bfbfbf" points="648,-56.5 648,-75.5 702,-75.5 702,-56.5 648,-56.5"/>
<text text-anchor="middle" x="675" y="-63.5" font-family="Helvetica,sans-Serif" font-size="10.00">iostream</text>
</g>
<!-- Node2&#45;&gt;Node14 -->
<g id="edge13" class="edge"><title>Node2&#45;&gt;Node14</title>
<path fill="none" stroke="midnightblue" d="M734.593,-112.324C723.891,-104.185 707.659,-91.8395 694.837,-82.0874"/>
<polygon fill="midnightblue" stroke="midnightblue" points="696.693,-79.1018 686.615,-75.8339 692.456,-84.6734 696.693,-79.1018"/>
</g>
<!-- Node15 -->
<g id="node15" class="node"><title>Node15</title>
<polygon fill="white" stroke="#bfbfbf" points="720.5,-56.5 720.5,-75.5 771.5,-75.5 771.5,-56.5 720.5,-56.5"/>
<text text-anchor="middle" x="746" y="-63.5" font-family="Helvetica,sans-Serif" font-size="10.00">unistd.h</text>
</g>
<!-- Node2&#45;&gt;Node15 -->
<g id="edge14" class="edge"><title>Node2&#45;&gt;Node15</title>
<path fill="none" stroke="midnightblue" d="M746,-112.083C746,-105.006 746,-94.8611 746,-85.9865"/>
<polygon fill="midnightblue" stroke="midnightblue" points="749.5,-85.751 746,-75.7511 742.5,-85.7511 749.5,-85.751"/>
</g>
<!-- Node16 -->
<g id="node16" class="node"><title>Node16</title>
<polygon fill="white" stroke="#bfbfbf" points="790,-56.5 790,-75.5 834,-75.5 834,-56.5 790,-56.5"/>
<text text-anchor="middle" x="812" y="-63.5" font-family="Helvetica,sans-Serif" font-size="10.00">fcntl.h</text>
</g>
<!-- Node2&#45;&gt;Node16 -->
<g id="edge15" class="edge"><title>Node2&#45;&gt;Node16</title>
<path fill="none" stroke="midnightblue" d="M756.604,-112.324C766.456,-104.263 781.351,-92.0765 793.215,-82.3695"/>
<polygon fill="midnightblue" stroke="midnightblue" points="795.68,-84.8752 801.203,-75.8339 791.247,-79.4575 795.68,-84.8752"/>
</g>
<!-- Node17 -->
<g id="node17" class="node"><title>Node17</title>
<polygon fill="white" stroke="#bfbfbf" points="852.5,-56.5 852.5,-75.5 893.5,-75.5 893.5,-56.5 852.5,-56.5"/>
<text text-anchor="middle" x="873" y="-63.5" font-family="Helvetica,sans-Serif" font-size="10.00">string</text>
</g>
<!-- Node2&#45;&gt;Node17 -->
<g id="edge16" class="edge"><title>Node2&#45;&gt;Node17</title>
<path fill="none" stroke="midnightblue" d="M766.124,-112.444C787.024,-103.557 819.935,-89.5632 843.716,-79.4514"/>
<polygon fill="midnightblue" stroke="midnightblue" points="845.138,-82.6504 852.971,-75.5164 842.398,-76.2085 845.138,-82.6504"/>
</g>
<!-- Node18 -->
<g id="node18" class="node"><title>Node18</title>
<polygon fill="white" stroke="#bfbfbf" points="919,-0.5 919,-19.5 963,-19.5 963,-0.5 919,-0.5"/>
<text text-anchor="middle" x="941" y="-7.5" font-family="Helvetica,sans-Serif" font-size="10.00">vector</text>
</g>
<!-- Node2&#45;&gt;Node18 -->
<g id="edge17" class="edge"><title>Node2&#45;&gt;Node18</title>
<path fill="none" stroke="midnightblue" d="M807.561,-114.362C838.745,-108.436 875.682,-97.2216 903,-76 918.45,-63.9976 928.824,-43.8113 934.775,-29.1133"/>
<polygon fill="midnightblue" stroke="midnightblue" points="938.117,-30.1689 938.337,-19.5764 931.56,-27.7199 938.117,-30.1689"/>
</g>
<!-- Node19 -->
<g id="node19" class="node"><title>Node19</title>
<polygon fill="white" stroke="#bfbfbf" points="950.5,-56.5 950.5,-75.5 993.5,-75.5 993.5,-56.5 950.5,-56.5"/>
<text text-anchor="middle" x="972" y="-63.5" font-family="Helvetica,sans-Serif" font-size="10.00">deque</text>
</g>
<!-- Node2&#45;&gt;Node19 -->
<g id="edge18" class="edge"><title>Node2&#45;&gt;Node19</title>
<path fill="none" stroke="midnightblue" d="M782.812,-112.424C821.112,-103.468 882.807,-88.9478 936,-76 937.448,-75.6477 938.927,-75.2855 940.422,-74.9183"/>
<polygon fill="midnightblue" stroke="midnightblue" points="941.444,-78.2709 950.309,-72.4691 939.761,-71.4763 941.444,-78.2709"/>
</g>
<!-- Node20 -->
<g id="node20" class="node"><title>Node20</title>
<polygon fill="white" stroke="#bfbfbf" points="1002,-0.5 1002,-19.5 1046,-19.5 1046,-0.5 1002,-0.5"/>
<text text-anchor="middle" x="1024" y="-7.5" font-family="Helvetica,sans-Serif" font-size="10.00">mutex</text>
</g>
<!-- Node2&#45;&gt;Node20 -->
<g id="edge19" class="edge"><title>Node2&#45;&gt;Node20</title>
<path fill="none" stroke="midnightblue" d="M807.54,-117.442C874.09,-112.373 974.503,-100.784 1003,-76 1016.26,-64.4651 1021.21,-44.498 1023.02,-29.7296"/>
<polygon fill="midnightblue" stroke="midnightblue" points="1026.52,-29.9375 1023.88,-19.6752 1019.54,-29.3398 1026.52,-29.9375"/>
</g>
<!-- Node21 -->
<g id="node21" class="node"><title>Node21</title>
<polygon fill="white" stroke="#bfbfbf" points="1068,-0.5 1068,-19.5 1112,-19.5 1112,-0.5 1068,-0.5"/>
<text text-anchor="middle" x="1090" y="-7.5" font-family="Helvetica,sans-Serif" font-size="10.00">thread</text>
</g>
<!-- Node2&#45;&gt;Node21 -->
<g id="edge20" class="edge"><title>Node2&#45;&gt;Node21</title>
<path fill="none" stroke="midnightblue" d="M807.573,-121.425C865.954,-119.489 954.652,-110.345 1023,-76 1045.52,-64.6859 1065.4,-43.1376 1077.54,-27.9604"/>
<polygon fill="midnightblue" stroke="midnightblue" points="1080.43,-29.9453 1083.75,-19.8861 1074.88,-25.6754 1080.43,-29.9453"/>
</g>
<!-- Node22 -->
<g id="node22" class="node"><title>Node22</title>
<polygon fill="white" stroke="#bfbfbf" points="1179.5,-0.5 1179.5,-19.5 1274.5,-19.5 1274.5,-0.5 1179.5,-0.5"/>
<text text-anchor="middle" x="1227" y="-7.5" font-family="Helvetica,sans-Serif" font-size="10.00">condition_variable</text>
</g>
<!-- Node2&#45;&gt;Node22 -->
<g id="edge21" class="edge"><title>Node2&#45;&gt;Node22</title>
<path fill="none" stroke="midnightblue" d="M807.858,-119.05C927.905,-114.692 1183.34,-102.402 1213,-76 1225.78,-64.6238 1228.45,-44.6317 1228.44,-29.814"/>
<polygon fill="midnightblue" stroke="midnightblue" points="1231.93,-29.569 1228.03,-19.7198 1224.94,-29.8541 1231.93,-29.569"/>
</g>
<!-- Node23 -->
<g id="node23" class="node"><title>Node23</title>
<polygon fill="white" stroke="#bfbfbf" points="1294.5,-0.5 1294.5,-19.5 1337.5,-19.5 1337.5,-0.5 1294.5,-0.5"/>
<text text-anchor="middle" x="1316" y="-7.5" font-family="Helvetica,sans-Serif" font-size="10.00">queue</text>
</g>
<!-- Node2&#45;&gt;Node23 -->
<g id="edge22" class="edge"><title>Node2&#45;&gt;Node23</title>
<path fill="none" stroke="midnightblue" d="M807.639,-120.791C948.928,-119.672 1286.69,-113.102 1321,-76 1332.38,-63.6969 1328.92,-43.882 1323.99,-29.3601"/>
<polygon fill="midnightblue" stroke="midnightblue" points="1327.2,-27.9632 1320.32,-19.9044 1320.67,-30.4934 1327.2,-27.9632"/>
</g>
<!-- Node24 -->
<g id="node24" class="node"><title>Node24</title>
<polygon fill="white" stroke="#bfbfbf" points="1260,-56.5 1260,-75.5 1312,-75.5 1312,-56.5 1260,-56.5"/>
<text text-anchor="middle" x="1286" y="-63.5" font-family="Helvetica,sans-Serif" font-size="10.00">sstream</text>
</g>
<!-- Node2&#45;&gt;Node24 -->
<g id="edge23" class="edge"><title>Node2&#45;&gt;Node24</title>
<path fill="none" stroke="midnightblue" d="M807.51,-118.074C902.173,-112.984 1089.07,-100.606 1246,-76 1247.27,-75.8015 1248.55,-75.5865 1249.85,-75.3581"/>
<polygon fill="midnightblue" stroke="midnightblue" points="1250.7,-78.7573 1259.84,-73.4029 1249.36,-71.8875 1250.7,-78.7573"/>
</g>
<!-- Node25 -->
<g id="node25" class="node"><title>Node25</title>
<polygon fill="white" stroke="#bfbfbf" points="1359.5,-0.5 1359.5,-19.5 1394.5,-19.5 1394.5,-0.5 1359.5,-0.5"/>
<text text-anchor="middle" x="1377" y="-7.5" font-family="Helvetica,sans-Serif" font-size="10.00">map</text>
</g>
<!-- Node2&#45;&gt;Node25 -->
<g id="edge24" class="edge"><title>Node2&#45;&gt;Node25</title>
<path fill="none" stroke="midnightblue" d="M807.733,-119.495C950.299,-115.569 1293.68,-103.363 1338,-76 1355.1,-65.4394 1365.68,-44.3397 1371.43,-29.0376"/>
<polygon fill="midnightblue" stroke="midnightblue" points="1374.75,-30.1654 1374.66,-19.5709 1368.12,-27.9047 1374.75,-30.1654"/>
</g>
<!-- Node26 -->
<g id="node26" class="node"><title>Node26</title>
<g id="a_node26"><a xlink:href="cosmos-defs_8h.html" target="_top" xlink:title="COSMOS definitions Definitions specific to the COSMOS environement. ">
<polygon fill="white" stroke="black" points="1088,-56.5 1088,-75.5 1204,-75.5 1204,-56.5 1088,-56.5"/>
<text text-anchor="middle" x="1146" y="-63.5" font-family="Helvetica,sans-Serif" font-size="10.00">support/cosmos&#45;defs.h</text>
</a>
</g>
</g>
<!-- Node2&#45;&gt;Node26 -->
<g id="edge25" class="edge"><title>Node2&#45;&gt;Node26</title>
<path fill="none" stroke="midnightblue" d="M807.623,-112.681C880.714,-102.814 1002.17,-86.4173 1077.96,-76.1854"/>
<polygon fill="midnightblue" stroke="midnightblue" points="1078.44,-79.6521 1087.88,-74.8456 1077.51,-72.715 1078.44,-79.6521"/>
</g>
<!-- Node26&#45;&gt;Node18 -->
<g id="edge27" class="edge"><title>Node26&#45;&gt;Node18</title>
<path fill="none" stroke="midnightblue" d="M1113.52,-56.4435C1075.13,-46.3312 1011.64,-29.6072 973.32,-19.5136"/>
<polygon fill="midnightblue" stroke="midnightblue" points="973.784,-16.0163 963.222,-16.8536 972,-22.7854 973.784,-16.0163"/>
</g>
<!-- Node26&#45;&gt;Node20 -->
<g id="edge31" class="edge"><title>Node26&#45;&gt;Node20</title>
<path fill="none" stroke="midnightblue" d="M1126.67,-56.4435C1106.68,-47.5961 1075.26,-33.6875 1052.44,-23.5865"/>
<polygon fill="midnightblue" stroke="midnightblue" points="1053.8,-20.3635 1043.24,-19.5164 1050.97,-26.7645 1053.8,-20.3635"/>
</g>
<!-- Node26&#45;&gt;Node21 -->
<g id="edge30" class="edge"><title>Node26&#45;&gt;Node21</title>
<path fill="none" stroke="midnightblue" d="M1137,-56.324C1128.81,-48.4196 1116.49,-36.5482 1106.53,-26.9377"/>
<polygon fill="midnightblue" stroke="midnightblue" points="1108.79,-24.2558 1099.16,-19.8339 1103.93,-29.2947 1108.79,-24.2558"/>
</g>
<!-- Node26&#45;&gt;Node22 -->
<g id="edge32" class="edge"><title>Node26&#45;&gt;Node22</title>
<path fill="none" stroke="midnightblue" d="M1159.01,-56.324C1171.53,-47.979 1190.68,-35.2122 1205.47,-25.3524"/>
<polygon fill="midnightblue" stroke="midnightblue" points="1207.64,-28.1137 1214.02,-19.6545 1203.76,-22.2894 1207.64,-28.1137"/>
</g>
<!-- Node26&#45;&gt;Node23 -->
<g id="edge29" class="edge"><title>Node26&#45;&gt;Node23</title>
<path fill="none" stroke="midnightblue" d="M1172.94,-56.4435C1203.27,-46.8097 1252.49,-31.1752 1284.55,-20.9896"/>
<polygon fill="midnightblue" stroke="midnightblue" points="1285.84,-24.2519 1294.31,-17.8886 1283.72,-17.5803 1285.84,-24.2519"/>
</g>
<!-- Node26&#45;&gt;Node25 -->
<g id="edge26" class="edge"><title>Node26&#45;&gt;Node25</title>
<path fill="none" stroke="midnightblue" d="M1188.17,-56.471C1228.99,-48.0015 1292.51,-34.2533 1347,-20 1347.87,-19.7712 1348.76,-19.5342 1349.66,-19.291"/>
<polygon fill="midnightblue" stroke="midnightblue" points="1350.64,-22.6511 1359.29,-16.5402 1348.72,-15.9201 1350.64,-22.6511"/>
</g>
<!-- Node27 -->
<g id="node27" class="node"><title>Node27</title>
<polygon fill="white" stroke="#bfbfbf" points="1131.5,-0.5 1131.5,-19.5 1160.5,-19.5 1160.5,-0.5 1131.5,-0.5"/>
<text text-anchor="middle" x="1146" y="-7.5" font-family="Helvetica,sans-Serif" font-size="10.00">list</text>
</g>
<!-- Node26&#45;&gt;Node27 -->
<g id="edge28" class="edge"><title>Node26&#45;&gt;Node27</title>
<path fill="none" stroke="midnightblue" d="M1146,-56.083C1146,-49.0059 1146,-38.8611 1146,-29.9865"/>
<polygon fill="midnightblue" stroke="midnightblue" points="1149.5,-29.751 1146,-19.7511 1142.5,-29.7511 1149.5,-29.751"/>
</g>
<!-- Node30&#45;&gt;Node2 -->
<g id="edge36" class="edge"><title>Node30&#45;&gt;Node2</title>
<path fill="none" stroke="midnightblue" d="M678.617,-280.227C689.079,-270.907 701.852,-257.915 710,-244 729.4,-210.87 739.107,-166.425 743.302,-141.662"/>
<polygon fill="midnightblue" stroke="midnightblue" points="746.76,-142.203 744.857,-131.781 739.845,-141.115 746.76,-142.203"/>
</g>
<!-- Node31 -->
<g id="node31" class="node"><title>Node31</title>
<g id="a_node31"><a xlink:href="sliplib_8h.html" target="_top" xlink:title="COSMOS SLIP support include file. ">
<polygon fill="white" stroke="black" points="615.5,-224.5 615.5,-243.5 700.5,-243.5 700.5,-224.5 615.5,-224.5"/>
<text text-anchor="middle" x="658" y="-231.5" font-family="Helvetica,sans-Serif" font-size="10.00">support/sliplib.h</text>
</a>
</g>
</g>
<!-- Node30&#45;&gt;Node31 -->
<g id="edge37" class="edge"><title>Node30&#45;&gt;Node31</title>
<path fill="none" stroke="midnightblue" d="M660.289,-280.399C659.889,-272.466 659.384,-262.458 658.951,-253.858"/>
<polygon fill="midnightblue" stroke="midnightblue" points="662.436,-253.469 658.437,-243.658 655.445,-253.821 662.436,-253.469"/>
</g>
<!-- Node31&#45;&gt;Node2 -->
<g id="edge38" class="edge"><title>Node31&#45;&gt;Node2</title>
<path fill="none" stroke="midnightblue" d="M664.905,-224.368C679.492,-206.135 713.659,-163.426 732.66,-139.675"/>
<polygon fill="midnightblue" stroke="midnightblue" points="735.613,-141.587 739.127,-131.591 730.147,-137.214 735.613,-141.587"/>
</g>
<!-- Node31&#45;&gt;Node11 -->
<g id="edge42" class="edge"><title>Node31&#45;&gt;Node11</title>
<path fill="none" stroke="midnightblue" d="M656.965,-224.198C655.029,-210.889 649.825,-185.36 637,-168 611.211,-133.092 597.9,-126.521 557,-112 349.295,-38.2563 277.456,-112.245 56.258,-75.8377"/>
<polygon fill="midnightblue" stroke="midnightblue" points="56.7387,-72.3692 46.2929,-74.1399 55.563,-79.2698 56.7387,-72.3692"/>
</g>
<!-- Node31&#45;&gt;Node32 -->
<g id="edge39" class="edge"><title>Node31&#45;&gt;Node32</title>
<path fill="none" stroke="midnightblue" d="M643.54,-224.324C629.5,-215.9 607.952,-202.971 591.457,-193.074"/>
<polygon fill="midnightblue" stroke="midnightblue" points="592.8,-189.798 582.424,-187.655 589.198,-195.801 592.8,-189.798"/>
</g>
<!-- Node32&#45;&gt;Node2 -->
<g id="edge40" class="edge"><title>Node32&#45;&gt;Node2</title>
<path fill="none" stroke="midnightblue" d="M596.205,-168.444C626.41,-159.28 674.511,-144.688 708.029,-134.519"/>
<polygon fill="midnightblue" stroke="midnightblue" points="709.374,-137.769 717.927,-131.516 707.342,-131.07 709.374,-137.769"/>
</g>
<!-- Node32&#45;&gt;Node29 -->
<g id="edge41" class="edge"><title>Node32&#45;&gt;Node29</title>
<path fill="none" stroke="midnightblue" d="M560.734,-168.083C554.455,-160.377 545.212,-149.033 537.569,-139.653"/>
<polygon fill="midnightblue" stroke="midnightblue" points="540.161,-137.293 531.131,-131.751 534.734,-141.714 540.161,-137.293"/>
</g>
</g>
</svg>
