<?xml version="1.0" encoding="UTF-8" standalone="no"?>
<!DOCTYPE svg PUBLIC "-//W3C//DTD SVG 1.1//EN"
 "http://www.w3.org/Graphics/SVG/1.1/DTD/svg11.dtd">
<!-- Generated by graphviz version 2.38.0 (20140413.2041)
 -->
<!-- Title: lsfit.h Pages: 1 -->
<svg width="1495pt" height="476pt"
 viewBox="0.00 0.00 1495.00 476.00" xmlns="http://www.w3.org/2000/svg" xmlns:xlink="http://www.w3.org/1999/xlink">
<g id="graph0" class="graph" transform="scale(1 1) rotate(0) translate(4 472)">
<title>lsfit.h</title>
<polygon fill="white" stroke="none" points="-4,4 -4,-472 1491,-472 1491,4 -4,4"/>
<!-- Node1 -->
<g id="node1" class="node"><title>Node1</title>
<polygon fill="#bfbfbf" stroke="black" points="910.5,-448.5 910.5,-467.5 951.5,-467.5 951.5,-448.5 910.5,-448.5"/>
<text text-anchor="middle" x="931" y="-455.5" font-family="Helvetica,sans-Serif" font-size="10.00">lsfit.h</text>
</g>
<!-- Node2 -->
<g id="node2" class="node"><title>Node2</title>
<g id="a_node2"><a xlink:href="config_cosmos_8h.html" target="_top" xlink:title="Headers and definitions common to all COSMOS. ">
<polygon fill="white" stroke="black" points="792.5,-112.5 792.5,-131.5 915.5,-131.5 915.5,-112.5 792.5,-112.5"/>
<text text-anchor="middle" x="854" y="-119.5" font-family="Helvetica,sans-Serif" font-size="10.00">support/configCosmos.h</text>
</a>
</g>
</g>
<!-- Node1&#45;&gt;Node2 -->
<g id="edge1" class="edge"><title>Node1&#45;&gt;Node2</title>
<path fill="none" stroke="midnightblue" d="M910.49,-451.275C871.825,-439.089 792,-406.702 792,-347 792,-347 792,-347 792,-233 792,-202.902 795.953,-194.066 811,-168 817.386,-156.937 827.044,-146.495 835.59,-138.46"/>
<polygon fill="midnightblue" stroke="midnightblue" points="838.188,-140.832 843.3,-131.552 833.517,-135.618 838.188,-140.832"/>
</g>
<!-- Node5 -->
<g id="node5" class="node"><title>Node5</title>
<polygon fill="white" stroke="#bfbfbf" points="0,-56.5 0,-75.5 46,-75.5 46,-56.5 0,-56.5"/>
<text text-anchor="middle" x="23" y="-63.5" font-family="Helvetica,sans-Serif" font-size="10.00">cstdint</text>
</g>
<!-- Node1&#45;&gt;Node5 -->
<g id="edge58" class="edge"><title>Node1&#45;&gt;Node5</title>
<path fill="none" stroke="midnightblue" d="M910.357,-456.121C791.721,-450.806 202,-420.677 202,-347 202,-347 202,-347 202,-177 202,-109.263 107.806,-81.916 56.0767,-72.0049"/>
<polygon fill="midnightblue" stroke="midnightblue" points="56.4966,-68.5243 46.0347,-70.1973 55.2564,-75.4136 56.4966,-68.5243"/>
</g>
<!-- Node28 -->
<g id="node28" class="node"><title>Node28</title>
<g id="a_node28"><a xlink:href="vector_8h.html" target="_top" xlink:title="vector.h">
<polygon fill="white" stroke="black" points="1180,-224.5 1180,-243.5 1232,-243.5 1232,-224.5 1180,-224.5"/>
<text text-anchor="middle" x="1206" y="-231.5" font-family="Helvetica,sans-Serif" font-size="10.00">vector.h</text>
</a>
</g>
</g>
<!-- Node1&#45;&gt;Node28 -->
<g id="edge33" class="edge"><title>Node1&#45;&gt;Node28</title>
<path fill="none" stroke="midnightblue" d="M951.589,-455.329C987.807,-451.716 1064.52,-441.017 1122,-412 1179.01,-383.222 1199.16,-362.554 1212,-300 1215.17,-284.545 1213.12,-266.676 1210.59,-253.59"/>
<polygon fill="midnightblue" stroke="midnightblue" points="1213.93,-252.51 1208.36,-243.501 1207.1,-254.021 1213.93,-252.51"/>
</g>
<!-- Node31 -->
<g id="node31" class="node"><title>Node31</title>
<g id="a_node31"><a xlink:href="mathlib_8h.html" target="_top" xlink:title="mathlib include file ">
<polygon fill="white" stroke="black" points="1032.5,-392.5 1032.5,-411.5 1113.5,-411.5 1113.5,-392.5 1032.5,-392.5"/>
<text text-anchor="middle" x="1073" y="-399.5" font-family="Helvetica,sans-Serif" font-size="10.00">math/mathlib.h</text>
</a>
</g>
</g>
<!-- Node1&#45;&gt;Node31 -->
<g id="edge42" class="edge"><title>Node1&#45;&gt;Node31</title>
<path fill="none" stroke="midnightblue" d="M951.648,-449.148C975.078,-440.238 1013.58,-425.597 1040.93,-415.197"/>
<polygon fill="midnightblue" stroke="midnightblue" points="1042.35,-418.402 1050.45,-411.576 1039.86,-411.859 1042.35,-418.402"/>
</g>
<!-- Node3 -->
<g id="node3" class="node"><title>Node3</title>
<polygon fill="white" stroke="#bfbfbf" points="918.5,-56.5 918.5,-75.5 963.5,-75.5 963.5,-56.5 918.5,-56.5"/>
<text text-anchor="middle" x="941" y="-63.5" font-family="Helvetica,sans-Serif" font-size="10.00">climits</text>
</g>
<!-- Node2&#45;&gt;Node3 -->
<g id="edge2" class="edge"><title>Node2&#45;&gt;Node3</title>
<path fill="none" stroke="midnightblue" d="M867.978,-112.324C881.55,-103.9 902.38,-90.9709 918.325,-81.0741"/>
<polygon fill="midnightblue" stroke="midnightblue" points="920.406,-83.9019 927.057,-75.6545 916.714,-77.9544 920.406,-83.9019"/>
</g>
<!-- Node4 -->
<g id="node4" class="node"><title>Node4</title>
<polygon fill="white" stroke="#bfbfbf" points="981.5,-56.5 981.5,-75.5 1028.5,-75.5 1028.5,-56.5 981.5,-56.5"/>
<text text-anchor="middle" x="1005" y="-63.5" font-family="Helvetica,sans-Serif" font-size="10.00">csignal</text>
</g>
<!-- Node2&#45;&gt;Node4 -->
<g id="edge3" class="edge"><title>Node2&#45;&gt;Node4</title>
<path fill="none" stroke="midnightblue" d="M877.926,-112.444C903.219,-103.399 943.302,-89.064 971.68,-78.9158"/>
<polygon fill="midnightblue" stroke="midnightblue" points="972.948,-82.1794 981.186,-75.5164 970.591,-75.5882 972.948,-82.1794"/>
</g>
<!-- Node2&#45;&gt;Node5 -->
<g id="edge4" class="edge"><title>Node2&#45;&gt;Node5</title>
<path fill="none" stroke="midnightblue" d="M792.238,-118.955C631.161,-113.388 201.005,-96.9666 60,-76 58.7494,-75.814 57.4792,-75.6056 56.1992,-75.3792"/>
<polygon fill="midnightblue" stroke="midnightblue" points="56.8601,-71.942 46.361,-73.3626 55.4545,-78.7994 56.8601,-71.942"/>
</g>
<!-- Node6 -->
<g id="node6" class="node"><title>Node6</title>
<polygon fill="white" stroke="#bfbfbf" points="102,-56.5 102,-75.5 158,-75.5 158,-56.5 102,-56.5"/>
<text text-anchor="middle" x="130" y="-63.5" font-family="Helvetica,sans-Serif" font-size="10.00">cinttypes</text>
</g>
<!-- Node2&#45;&gt;Node6 -->
<g id="edge5" class="edge"><title>Node2&#45;&gt;Node6</title>
<path fill="none" stroke="midnightblue" d="M792.47,-118.339C650.99,-112.003 304.872,-95.2184 168.412,-75.9023"/>
<polygon fill="midnightblue" stroke="midnightblue" points="168.586,-72.3899 158.181,-74.3876 167.561,-79.3145 168.586,-72.3899"/>
</g>
<!-- Node7 -->
<g id="node7" class="node"><title>Node7</title>
<polygon fill="white" stroke="#bfbfbf" points="176.5,-56.5 176.5,-75.5 219.5,-75.5 219.5,-56.5 176.5,-56.5"/>
<text text-anchor="middle" x="198" y="-63.5" font-family="Helvetica,sans-Serif" font-size="10.00">cstdio</text>
</g>
<!-- Node2&#45;&gt;Node7 -->
<g id="edge6" class="edge"><title>Node2&#45;&gt;Node7</title>
<path fill="none" stroke="midnightblue" d="M792.37,-118.296C660.278,-112.226 352.543,-96.556 229.73,-75.9037"/>
<polygon fill="midnightblue" stroke="midnightblue" points="230.276,-72.446 219.819,-74.1502 229.056,-79.3389 230.276,-72.446"/>
</g>
<!-- Node8 -->
<g id="node8" class="node"><title>Node8</title>
<polygon fill="white" stroke="#bfbfbf" points="237.5,-56.5 237.5,-75.5 286.5,-75.5 286.5,-56.5 237.5,-56.5"/>
<text text-anchor="middle" x="262" y="-63.5" font-family="Helvetica,sans-Serif" font-size="10.00">cstddef</text>
</g>
<!-- Node2&#45;&gt;Node8 -->
<g id="edge7" class="edge"><title>Node2&#45;&gt;Node8</title>
<path fill="none" stroke="midnightblue" d="M792.318,-119.774C690.617,-116.934 481.384,-107.643 296.647,-76.0018"/>
<polygon fill="midnightblue" stroke="midnightblue" points="297.206,-72.5467 286.755,-74.2818 296.007,-79.4433 297.206,-72.5467"/>
</g>
<!-- Node9 -->
<g id="node9" class="node"><title>Node9</title>
<polygon fill="white" stroke="#bfbfbf" points="304.5,-56.5 304.5,-75.5 349.5,-75.5 349.5,-56.5 304.5,-56.5"/>
<text text-anchor="middle" x="327" y="-63.5" font-family="Helvetica,sans-Serif" font-size="10.00">cstdlib</text>
</g>
<!-- Node2&#45;&gt;Node9 -->
<g id="edge8" class="edge"><title>Node2&#45;&gt;Node9</title>
<path fill="none" stroke="midnightblue" d="M792.156,-119.019C699.901,-115.264 520.772,-104.888 359.697,-75.7656"/>
<polygon fill="midnightblue" stroke="midnightblue" points="360.073,-72.276 349.605,-73.9116 358.808,-79.1608 360.073,-72.276"/>
</g>
<!-- Node10 -->
<g id="node10" class="node"><title>Node10</title>
<polygon fill="white" stroke="#bfbfbf" points="368,-56.5 368,-75.5 412,-75.5 412,-56.5 368,-56.5"/>
<text text-anchor="middle" x="390" y="-63.5" font-family="Helvetica,sans-Serif" font-size="10.00">cerrno</text>
</g>
<!-- Node2&#45;&gt;Node10 -->
<g id="edge9" class="edge"><title>Node2&#45;&gt;Node10</title>
<path fill="none" stroke="midnightblue" d="M792.179,-118.06C709.675,-113.366 559.004,-102.101 422.068,-75.8852"/>
<polygon fill="midnightblue" stroke="midnightblue" points="422.718,-72.4461 412.234,-73.9717 421.381,-79.3173 422.718,-72.4461"/>
</g>
<!-- Node11 -->
<g id="node11" class="node"><title>Node11</title>
<polygon fill="white" stroke="#bfbfbf" points="430,-56.5 430,-75.5 476,-75.5 476,-56.5 430,-56.5"/>
<text text-anchor="middle" x="453" y="-63.5" font-family="Helvetica,sans-Serif" font-size="10.00">cstring</text>
</g>
<!-- Node2&#45;&gt;Node11 -->
<g id="edge10" class="edge"><title>Node2&#45;&gt;Node11</title>
<path fill="none" stroke="midnightblue" d="M792.495,-116.393C720.959,-110.389 599.238,-98.1777 486.181,-75.9702"/>
<polygon fill="midnightblue" stroke="midnightblue" points="486.81,-72.5269 476.319,-74.0028 485.441,-79.3916 486.81,-72.5269"/>
</g>
<!-- Node12 -->
<g id="node12" class="node"><title>Node12</title>
<polygon fill="white" stroke="#bfbfbf" points="1371,-56.5 1371,-75.5 1415,-75.5 1415,-56.5 1371,-56.5"/>
<text text-anchor="middle" x="1393" y="-63.5" font-family="Helvetica,sans-Serif" font-size="10.00">cmath</text>
</g>
<!-- Node2&#45;&gt;Node12 -->
<g id="edge11" class="edge"><title>Node2&#45;&gt;Node12</title>
<path fill="none" stroke="midnightblue" d="M915.728,-115.512C1004.84,-107.48 1174.68,-91.7573 1319,-76 1332.67,-74.5075 1347.74,-72.7036 1360.69,-71.1039"/>
<polygon fill="midnightblue" stroke="midnightblue" points="1361.51,-74.5294 1371,-69.8194 1360.64,-67.5832 1361.51,-74.5294"/>
</g>
<!-- Node13 -->
<g id="node13" class="node"><title>Node13</title>
<polygon fill="white" stroke="#bfbfbf" points="494.5,-56.5 494.5,-75.5 539.5,-75.5 539.5,-56.5 494.5,-56.5"/>
<text text-anchor="middle" x="517" y="-63.5" font-family="Helvetica,sans-Serif" font-size="10.00">iosfwd</text>
</g>
<!-- Node2&#45;&gt;Node13 -->
<g id="edge12" class="edge"><title>Node2&#45;&gt;Node13</title>
<path fill="none" stroke="midnightblue" d="M792.304,-114.435C732.43,-107.5 638.879,-95.1727 549.614,-76.118"/>
<polygon fill="midnightblue" stroke="midnightblue" points="550.11,-72.6442 539.596,-73.9467 548.627,-79.4854 550.11,-72.6442"/>
</g>
<!-- Node14 -->
<g id="node14" class="node"><title>Node14</title>
<polygon fill="white" stroke="#bfbfbf" points="1433,-56.5 1433,-75.5 1487,-75.5 1487,-56.5 1433,-56.5"/>
<text text-anchor="middle" x="1460" y="-63.5" font-family="Helvetica,sans-Serif" font-size="10.00">iostream</text>
</g>
<!-- Node2&#45;&gt;Node14 -->
<g id="edge13" class="edge"><title>Node2&#45;&gt;Node14</title>
<path fill="none" stroke="midnightblue" d="M915.557,-119.489C1018.72,-116.223 1233.07,-106.306 1423.08,-75.8744"/>
<polygon fill="midnightblue" stroke="midnightblue" points="1423.66,-79.3263 1432.97,-74.2684 1422.54,-72.4168 1423.66,-79.3263"/>
</g>
<!-- Node15 -->
<g id="node15" class="node"><title>Node15</title>
<polygon fill="white" stroke="#bfbfbf" points="557.5,-56.5 557.5,-75.5 608.5,-75.5 608.5,-56.5 557.5,-56.5"/>
<text text-anchor="middle" x="583" y="-63.5" font-family="Helvetica,sans-Serif" font-size="10.00">unistd.h</text>
</g>
<!-- Node2&#45;&gt;Node15 -->
<g id="edge14" class="edge"><title>Node2&#45;&gt;Node15</title>
<path fill="none" stroke="midnightblue" d="M804.087,-112.429C758.342,-104.36 688.527,-91.5133 618.456,-75.983"/>
<polygon fill="midnightblue" stroke="midnightblue" points="619.092,-72.5388 608.569,-73.774 617.565,-79.3704 619.092,-72.5388"/>
</g>
<!-- Node16 -->
<g id="node16" class="node"><title>Node16</title>
<polygon fill="white" stroke="#bfbfbf" points="627,-56.5 627,-75.5 671,-75.5 671,-56.5 627,-56.5"/>
<text text-anchor="middle" x="649" y="-63.5" font-family="Helvetica,sans-Serif" font-size="10.00">fcntl.h</text>
</g>
<!-- Node2&#45;&gt;Node16 -->
<g id="edge15" class="edge"><title>Node2&#45;&gt;Node16</title>
<path fill="none" stroke="midnightblue" d="M819.585,-112.418C786.418,-104.076 734.586,-90.8573 680.997,-76.2191"/>
<polygon fill="midnightblue" stroke="midnightblue" points="681.898,-72.8371 671.329,-73.5678 680.047,-79.5879 681.898,-72.8371"/>
</g>
<!-- Node17 -->
<g id="node17" class="node"><title>Node17</title>
<polygon fill="white" stroke="#bfbfbf" points="689.5,-56.5 689.5,-75.5 730.5,-75.5 730.5,-56.5 689.5,-56.5"/>
<text text-anchor="middle" x="710" y="-63.5" font-family="Helvetica,sans-Serif" font-size="10.00">string</text>
</g>
<!-- Node2&#45;&gt;Node17 -->
<g id="edge16" class="edge"><title>Node2&#45;&gt;Node17</title>
<path fill="none" stroke="midnightblue" d="M831.183,-112.444C806.603,-103.226 767.375,-88.5157 740.241,-78.3402"/>
<polygon fill="midnightblue" stroke="midnightblue" points="741.433,-75.0492 730.84,-74.8151 738.975,-81.6036 741.433,-75.0492"/>
</g>
<!-- Node18 -->
<g id="node18" class="node"><title>Node18</title>
<polygon fill="white" stroke="#bfbfbf" points="1312,-0.5 1312,-19.5 1356,-19.5 1356,-0.5 1312,-0.5"/>
<text text-anchor="middle" x="1334" y="-7.5" font-family="Helvetica,sans-Serif" font-size="10.00">vector</text>
</g>
<!-- Node2&#45;&gt;Node18 -->
<g id="edge17" class="edge"><title>Node2&#45;&gt;Node18</title>
<path fill="none" stroke="midnightblue" d="M915.53,-118.178C1011.66,-113.078 1192.62,-100.506 1252,-76 1278.88,-64.9047 1304.21,-42.2662 1319.42,-26.8612"/>
<polygon fill="midnightblue" stroke="midnightblue" points="1322.01,-29.209 1326.4,-19.5642 1316.96,-24.3693 1322.01,-29.209"/>
</g>
<!-- Node19 -->
<g id="node19" class="node"><title>Node19</title>
<polygon fill="white" stroke="#bfbfbf" points="748.5,-56.5 748.5,-75.5 791.5,-75.5 791.5,-56.5 748.5,-56.5"/>
<text text-anchor="middle" x="770" y="-63.5" font-family="Helvetica,sans-Serif" font-size="10.00">deque</text>
</g>
<!-- Node2&#45;&gt;Node19 -->
<g id="edge18" class="edge"><title>Node2&#45;&gt;Node19</title>
<path fill="none" stroke="midnightblue" d="M840.504,-112.324C827.4,-103.9 807.288,-90.9709 791.893,-81.0741"/>
<polygon fill="midnightblue" stroke="midnightblue" points="793.767,-78.118 783.463,-75.6545 789.982,-84.0063 793.767,-78.118"/>
</g>
<!-- Node20 -->
<g id="node20" class="node"><title>Node20</title>
<polygon fill="white" stroke="#bfbfbf" points="917,-0.5 917,-19.5 961,-19.5 961,-0.5 917,-0.5"/>
<text text-anchor="middle" x="939" y="-7.5" font-family="Helvetica,sans-Serif" font-size="10.00">mutex</text>
</g>
<!-- Node2&#45;&gt;Node20 -->
<g id="edge19" class="edge"><title>Node2&#45;&gt;Node20</title>
<path fill="none" stroke="midnightblue" d="M860.67,-112.368C874.759,-94.135 907.762,-51.4257 926.115,-27.6752"/>
<polygon fill="midnightblue" stroke="midnightblue" points="929.016,-29.6444 932.361,-19.5914 923.477,-25.3642 929.016,-29.6444"/>
</g>
<!-- Node21 -->
<g id="node21" class="node"><title>Node21</title>
<polygon fill="white" stroke="#bfbfbf" points="1029,-0.5 1029,-19.5 1073,-19.5 1073,-0.5 1029,-0.5"/>
<text text-anchor="middle" x="1051" y="-7.5" font-family="Helvetica,sans-Serif" font-size="10.00">thread</text>
</g>
<!-- Node2&#45;&gt;Node21 -->
<g id="edge20" class="edge"><title>Node2&#45;&gt;Node21</title>
<path fill="none" stroke="midnightblue" d="M915.692,-112.928C961.997,-105.609 1020.19,-93.3072 1037,-76 1048.68,-63.9786 1051.61,-44.6858 1051.97,-30.236"/>
<polygon fill="midnightblue" stroke="midnightblue" points="1055.46,-29.8643 1051.81,-19.9173 1048.46,-29.9681 1055.46,-29.8643"/>
</g>
<!-- Node22 -->
<g id="node22" class="node"><title>Node22</title>
<polygon fill="white" stroke="#bfbfbf" points="1137.5,-0.5 1137.5,-19.5 1232.5,-19.5 1232.5,-0.5 1137.5,-0.5"/>
<text text-anchor="middle" x="1185" y="-7.5" font-family="Helvetica,sans-Serif" font-size="10.00">condition_variable</text>
</g>
<!-- Node2&#45;&gt;Node22 -->
<g id="edge21" class="edge"><title>Node2&#45;&gt;Node22</title>
<path fill="none" stroke="midnightblue" d="M915.78,-117.572C1012.56,-111.564 1190.9,-97.6717 1210,-76 1222.18,-62.1802 1211.01,-41.7837 1199.96,-27.5356"/>
<polygon fill="midnightblue" stroke="midnightblue" points="1202.41,-25.0047 1193.31,-19.5725 1197.03,-29.4916 1202.41,-25.0047"/>
</g>
<!-- Node23 -->
<g id="node23" class="node"><title>Node23</title>
<polygon fill="white" stroke="#bfbfbf" points="1250.5,-0.5 1250.5,-19.5 1293.5,-19.5 1293.5,-0.5 1250.5,-0.5"/>
<text text-anchor="middle" x="1272" y="-7.5" font-family="Helvetica,sans-Serif" font-size="10.00">queue</text>
</g>
<!-- Node2&#45;&gt;Node23 -->
<g id="edge22" class="edge"><title>Node2&#45;&gt;Node23</title>
<path fill="none" stroke="midnightblue" d="M915.603,-119.615C1007.71,-116.546 1175.96,-106.779 1227,-76 1244.95,-65.1733 1257.5,-44.125 1264.71,-28.9078"/>
<polygon fill="midnightblue" stroke="midnightblue" points="1268.02,-30.0648 1268.84,-19.5016 1261.61,-27.2489 1268.02,-30.0648"/>
</g>
<!-- Node24 -->
<g id="node24" class="node"><title>Node24</title>
<polygon fill="white" stroke="#bfbfbf" points="810,-56.5 810,-75.5 862,-75.5 862,-56.5 810,-56.5"/>
<text text-anchor="middle" x="836" y="-63.5" font-family="Helvetica,sans-Serif" font-size="10.00">sstream</text>
</g>
<!-- Node2&#45;&gt;Node24 -->
<g id="edge23" class="edge"><title>Node2&#45;&gt;Node24</title>
<path fill="none" stroke="midnightblue" d="M851.028,-112.083C848.616,-104.849 845.136,-94.4087 842.132,-85.3968"/>
<polygon fill="midnightblue" stroke="midnightblue" points="845.4,-84.1311 838.917,-75.7511 838.759,-86.3447 845.4,-84.1311"/>
</g>
<!-- Node25 -->
<g id="node25" class="node"><title>Node25</title>
<polygon fill="white" stroke="#bfbfbf" points="484.5,-0.5 484.5,-19.5 519.5,-19.5 519.5,-0.5 484.5,-0.5"/>
<text text-anchor="middle" x="502" y="-7.5" font-family="Helvetica,sans-Serif" font-size="10.00">map</text>
</g>
<!-- Node2&#45;&gt;Node25 -->
<g id="edge24" class="edge"><title>Node2&#45;&gt;Node25</title>
<path fill="none" stroke="midnightblue" d="M792.198,-118.468C612.978,-110.982 104.958,-88.6855 93,-76 39.2268,-18.9531 373.861,-11.9299 474.19,-11.101"/>
<polygon fill="midnightblue" stroke="midnightblue" points="474.477,-14.5992 484.453,-11.0316 474.429,-7.59937 474.477,-14.5992"/>
</g>
<!-- Node26 -->
<g id="node26" class="node"><title>Node26</title>
<g id="a_node26"><a xlink:href="cosmos-defs_8h.html" target="_top" xlink:title="COSMOS definitions Definitions specific to the COSMOS environement. ">
<polygon fill="white" stroke="black" points="1085,-56.5 1085,-75.5 1201,-75.5 1201,-56.5 1085,-56.5"/>
<text text-anchor="middle" x="1143" y="-63.5" font-family="Helvetica,sans-Serif" font-size="10.00">support/cosmos&#45;defs.h</text>
</a>
</g>
</g>
<!-- Node2&#45;&gt;Node26 -->
<g id="edge25" class="edge"><title>Node2&#45;&gt;Node26</title>
<path fill="none" stroke="midnightblue" d="M899.793,-112.444C950.737,-102.925 1033.03,-87.5472 1087.57,-77.3563"/>
<polygon fill="midnightblue" stroke="midnightblue" points="1088.23,-80.7937 1097.42,-75.5164 1086.95,-73.9128 1088.23,-80.7937"/>
</g>
<!-- Node26&#45;&gt;Node18 -->
<g id="edge27" class="edge"><title>Node26&#45;&gt;Node18</title>
<path fill="none" stroke="midnightblue" d="M1173.26,-56.4435C1208.4,-46.5098 1266.1,-30.1958 1301.97,-20.0544"/>
<polygon fill="midnightblue" stroke="midnightblue" points="1303.25,-23.3324 1311.92,-17.2437 1301.34,-16.5964 1303.25,-23.3324"/>
</g>
<!-- Node26&#45;&gt;Node20 -->
<g id="edge31" class="edge"><title>Node26&#45;&gt;Node20</title>
<path fill="none" stroke="midnightblue" d="M1110.68,-56.4435C1072.47,-46.3312 1009.29,-29.6072 971.163,-19.5136"/>
<polygon fill="midnightblue" stroke="midnightblue" points="971.676,-16.0291 961.113,-16.8536 969.885,-22.796 971.676,-16.0291"/>
</g>
<!-- Node26&#45;&gt;Node21 -->
<g id="edge30" class="edge"><title>Node26&#45;&gt;Node21</title>
<path fill="none" stroke="midnightblue" d="M1128.22,-56.324C1113.73,-47.8215 1091.43,-34.7288 1074.51,-24.7975"/>
<polygon fill="midnightblue" stroke="midnightblue" points="1076.14,-21.6981 1065.74,-19.6545 1072.6,-27.735 1076.14,-21.6981"/>
</g>
<!-- Node26&#45;&gt;Node22 -->
<g id="edge32" class="edge"><title>Node26&#45;&gt;Node22</title>
<path fill="none" stroke="midnightblue" d="M1149.94,-56.083C1155.93,-48.3768 1164.75,-37.0333 1172.05,-27.6531"/>
<polygon fill="midnightblue" stroke="midnightblue" points="1174.82,-29.7934 1178.19,-19.7511 1169.29,-25.4958 1174.82,-29.7934"/>
</g>
<!-- Node26&#45;&gt;Node23 -->
<g id="edge29" class="edge"><title>Node26&#45;&gt;Node23</title>
<path fill="none" stroke="midnightblue" d="M1163.44,-56.4435C1184.67,-47.5566 1218.1,-33.5632 1242.25,-23.4514"/>
<polygon fill="midnightblue" stroke="midnightblue" points="1243.78,-26.6064 1251.66,-19.5164 1241.08,-20.1493 1243.78,-26.6064"/>
</g>
<!-- Node26&#45;&gt;Node25 -->
<g id="edge26" class="edge"><title>Node26&#45;&gt;Node25</title>
<path fill="none" stroke="midnightblue" d="M1084.96,-60.0638C1069.38,-58.7414 1052.55,-57.3142 1037,-56 842.733,-39.5827 608.772,-19.9526 529.664,-13.3192"/>
<polygon fill="midnightblue" stroke="midnightblue" points="529.807,-9.81897 519.55,-12.4711 529.222,-16.7945 529.807,-9.81897"/>
</g>
<!-- Node27 -->
<g id="node27" class="node"><title>Node27</title>
<polygon fill="white" stroke="#bfbfbf" points="1090.5,-0.5 1090.5,-19.5 1119.5,-19.5 1119.5,-0.5 1090.5,-0.5"/>
<text text-anchor="middle" x="1105" y="-7.5" font-family="Helvetica,sans-Serif" font-size="10.00">list</text>
</g>
<!-- Node26&#45;&gt;Node27 -->
<g id="edge28" class="edge"><title>Node26&#45;&gt;Node27</title>
<path fill="none" stroke="midnightblue" d="M1136.73,-56.083C1131.36,-48.4554 1123.48,-37.2645 1116.92,-27.9408"/>
<polygon fill="midnightblue" stroke="midnightblue" points="1119.78,-25.9149 1111.16,-19.7511 1114.05,-29.9434 1119.78,-25.9149"/>
</g>
<!-- Node28&#45;&gt;Node2 -->
<g id="edge34" class="edge"><title>Node28&#45;&gt;Node2</title>
<path fill="none" stroke="midnightblue" d="M1200.39,-224.091C1190.79,-209.659 1169.71,-181.433 1144,-168 1107.07,-148.705 998.955,-135.696 925.689,-128.818"/>
<polygon fill="midnightblue" stroke="midnightblue" points="925.871,-125.32 915.593,-127.888 925.229,-132.29 925.871,-125.32"/>
</g>
<!-- Node28&#45;&gt;Node12 -->
<g id="edge40" class="edge"><title>Node28&#45;&gt;Node12</title>
<path fill="none" stroke="midnightblue" d="M1212.89,-224.114C1223.15,-211.136 1243.34,-186.528 1263,-168 1298.73,-134.336 1345.03,-100.382 1371.64,-81.679"/>
<polygon fill="midnightblue" stroke="midnightblue" points="1373.97,-84.3153 1380.18,-75.7251 1369.97,-78.5729 1373.97,-84.3153"/>
</g>
<!-- Node28&#45;&gt;Node14 -->
<g id="edge38" class="edge"><title>Node28&#45;&gt;Node14</title>
<path fill="none" stroke="midnightblue" d="M1232.27,-226.892C1258.57,-220.033 1299.53,-207.273 1331,-188 1379.23,-158.465 1424.83,-108.797 1446.63,-83.2532"/>
<polygon fill="midnightblue" stroke="midnightblue" points="1449.32,-85.4873 1453.07,-75.5793 1443.96,-80.9846 1449.32,-85.4873"/>
</g>
<!-- Node28&#45;&gt;Node18 -->
<g id="edge41" class="edge"><title>Node28&#45;&gt;Node18</title>
<path fill="none" stroke="midnightblue" d="M1210.64,-224.106C1217.24,-211.528 1229.78,-187.862 1241,-168 1269.86,-116.929 1305.63,-57.5992 1323.21,-28.6773"/>
<polygon fill="midnightblue" stroke="midnightblue" points="1326.42,-30.1401 1328.63,-19.7788 1320.44,-26.4988 1326.42,-30.1401"/>
</g>
<!-- Node29 -->
<g id="node29" class="node"><title>Node29</title>
<g id="a_node29"><a xlink:href="math_2constants_8h.html" target="_top" xlink:title="constants.h">
<polygon fill="white" stroke="black" points="820,-168.5 820,-187.5 888,-187.5 888,-168.5 820,-168.5"/>
<text text-anchor="middle" x="854" y="-175.5" font-family="Helvetica,sans-Serif" font-size="10.00">constants.h</text>
</a>
</g>
</g>
<!-- Node28&#45;&gt;Node29 -->
<g id="edge35" class="edge"><title>Node28&#45;&gt;Node29</title>
<path fill="none" stroke="midnightblue" d="M1179.83,-228.985C1119.95,-219.799 972.421,-197.167 898.179,-185.778"/>
<polygon fill="midnightblue" stroke="midnightblue" points="898.622,-182.305 888.207,-184.248 897.56,-189.224 898.622,-182.305"/>
</g>
<!-- Node30 -->
<g id="node30" class="node"><title>Node30</title>
<polygon fill="white" stroke="#bfbfbf" points="1272,-168.5 1272,-187.5 1322,-187.5 1322,-168.5 1272,-168.5"/>
<text text-anchor="middle" x="1297" y="-175.5" font-family="Helvetica,sans-Serif" font-size="10.00">iomanip</text>
</g>
<!-- Node28&#45;&gt;Node30 -->
<g id="edge39" class="edge"><title>Node28&#45;&gt;Node30</title>
<path fill="none" stroke="midnightblue" d="M1220.62,-224.324C1234.95,-215.822 1257.01,-202.729 1273.75,-192.797"/>
<polygon fill="midnightblue" stroke="midnightblue" points="1275.6,-195.768 1282.42,-187.655 1272.03,-189.748 1275.6,-195.768"/>
</g>
<!-- Node29&#45;&gt;Node2 -->
<g id="edge36" class="edge"><title>Node29&#45;&gt;Node2</title>
<path fill="none" stroke="midnightblue" d="M854,-168.083C854,-161.006 854,-150.861 854,-141.986"/>
<polygon fill="midnightblue" stroke="midnightblue" points="857.5,-141.751 854,-131.751 850.5,-141.751 857.5,-141.751"/>
</g>
<!-- Node29&#45;&gt;Node5 -->
<g id="edge37" class="edge"><title>Node29&#45;&gt;Node5</title>
<path fill="none" stroke="midnightblue" d="M819.819,-172.715C711.796,-159.132 368.097,-115.588 84,-76 75.0078,-74.747 65.2785,-73.3364 56.2875,-72.0101"/>
<polygon fill="midnightblue" stroke="midnightblue" points="56.566,-68.5132 46.1604,-70.5065 55.5379,-75.4373 56.566,-68.5132"/>
</g>
<!-- Node31&#45;&gt;Node2 -->
<g id="edge43" class="edge"><title>Node31&#45;&gt;Node2</title>
<path fill="none" stroke="midnightblue" d="M1068.66,-392.054C1052.35,-359.109 991.777,-242.599 916,-168 904.102,-156.287 888.965,-145.241 876.626,-137.024"/>
<polygon fill="midnightblue" stroke="midnightblue" points="878.516,-134.078 868.222,-131.572 874.706,-139.951 878.516,-134.078"/>
</g>
<!-- Node31&#45;&gt;Node12 -->
<g id="edge56" class="edge"><title>Node31&#45;&gt;Node12</title>
<path fill="none" stroke="midnightblue" d="M1108.52,-392.438C1190.9,-372.085 1388,-320.325 1388,-291 1388,-291 1388,-291 1388,-177 1388,-144.915 1390.15,-107.62 1391.63,-85.7371"/>
<polygon fill="midnightblue" stroke="midnightblue" points="1395.14,-85.7729 1392.35,-75.5518 1388.15,-85.2813 1395.14,-85.7729"/>
</g>
<!-- Node31&#45;&gt;Node14 -->
<g id="edge57" class="edge"><title>Node31&#45;&gt;Node14</title>
<path fill="none" stroke="midnightblue" d="M1113.74,-401.86C1213.88,-401.645 1464,-385.996 1464,-235 1464,-235 1464,-235 1464,-177 1464,-144.927 1462.28,-107.628 1461.1,-85.7413"/>
<polygon fill="midnightblue" stroke="midnightblue" points="1464.58,-85.3413 1460.52,-75.5539 1457.59,-85.7349 1464.58,-85.3413"/>
</g>
<!-- Node31&#45;&gt;Node28 -->
<g id="edge48" class="edge"><title>Node31&#45;&gt;Node28</title>
<path fill="none" stroke="midnightblue" d="M1106.28,-392.368C1126.41,-385.56 1151.17,-374.122 1167,-356 1192.8,-326.463 1201.58,-279.629 1204.53,-253.744"/>
<polygon fill="midnightblue" stroke="midnightblue" points="1208.02,-254.042 1205.49,-243.752 1201.05,-253.369 1208.02,-254.042"/>
</g>
<!-- Node31&#45;&gt;Node29 -->
<g id="edge47" class="edge"><title>Node31&#45;&gt;Node29</title>
<path fill="none" stroke="midnightblue" d="M1032.08,-397.69C978.567,-392.447 889.126,-380.243 868,-356 828.893,-311.125 840.818,-233.241 849.038,-197.677"/>
<polygon fill="midnightblue" stroke="midnightblue" points="852.499,-198.262 851.507,-187.714 845.704,-196.578 852.499,-198.262"/>
</g>
<!-- Node32 -->
<g id="node32" class="node"><title>Node32</title>
<g id="a_node32"><a xlink:href="cosmos-errno_8h.html" target="_top" xlink:title="COSMOS Error Codes. ">
<polygon fill="white" stroke="black" points="877.5,-336.5 877.5,-355.5 996.5,-355.5 996.5,-336.5 877.5,-336.5"/>
<text text-anchor="middle" x="937" y="-343.5" font-family="Helvetica,sans-Serif" font-size="10.00">support/cosmos&#45;errno.h</text>
</a>
</g>
</g>
<!-- Node31&#45;&gt;Node32 -->
<g id="edge44" class="edge"><title>Node31&#45;&gt;Node32</title>
<path fill="none" stroke="midnightblue" d="M1051.45,-392.444C1028.97,-383.517 993.512,-369.439 968.02,-359.317"/>
<polygon fill="midnightblue" stroke="midnightblue" points="969.035,-355.954 958.449,-355.516 966.451,-362.46 969.035,-355.954"/>
</g>
<!-- Node34 -->
<g id="node34" class="node"><title>Node34</title>
<g id="a_node34"><a xlink:href="matrix_8h.html" target="_top" xlink:title="matrix.h">
<polygon fill="white" stroke="black" points="1050,-280.5 1050,-299.5 1102,-299.5 1102,-280.5 1050,-280.5"/>
<text text-anchor="middle" x="1076" y="-287.5" font-family="Helvetica,sans-Serif" font-size="10.00">matrix.h</text>
</a>
</g>
</g>
<!-- Node31&#45;&gt;Node34 -->
<g id="edge49" class="edge"><title>Node31&#45;&gt;Node34</title>
<path fill="none" stroke="midnightblue" d="M1073.24,-392.368C1073.72,-374.617 1074.84,-333.666 1075.49,-309.597"/>
<polygon fill="midnightblue" stroke="midnightblue" points="1078.99,-309.683 1075.77,-299.591 1071.99,-309.492 1078.99,-309.683"/>
</g>
<!-- Node35 -->
<g id="node35" class="node"><title>Node35</title>
<g id="a_node35"><a xlink:href="rotation_8h.html" target="_top" xlink:title="rotation.h">
<polygon fill="white" stroke="black" points="1101.5,-336.5 1101.5,-355.5 1158.5,-355.5 1158.5,-336.5 1101.5,-336.5"/>
<text text-anchor="middle" x="1130" y="-343.5" font-family="Helvetica,sans-Serif" font-size="10.00">rotation.h</text>
</a>
</g>
</g>
<!-- Node31&#45;&gt;Node35 -->
<g id="edge52" class="edge"><title>Node31&#45;&gt;Node35</title>
<path fill="none" stroke="midnightblue" d="M1082.16,-392.324C1090.5,-384.42 1103.03,-372.548 1113.18,-362.938"/>
<polygon fill="midnightblue" stroke="midnightblue" points="1115.82,-365.252 1120.68,-355.834 1111.01,-360.171 1115.82,-365.252"/>
</g>
<!-- Node32&#45;&gt;Node2 -->
<g id="edge45" class="edge"><title>Node32&#45;&gt;Node2</title>
<path fill="none" stroke="midnightblue" d="M936.66,-336.327C935.286,-309.615 928.578,-226.852 897,-168 891.038,-156.888 881.575,-146.555 873.043,-138.601"/>
<polygon fill="midnightblue" stroke="midnightblue" points="875.104,-135.752 865.292,-131.755 870.47,-140.998 875.104,-135.752"/>
</g>
<!-- Node33 -->
<g id="node33" class="node"><title>Node33</title>
<polygon fill="white" stroke="#bfbfbf" points="944.5,-280.5 944.5,-299.5 991.5,-299.5 991.5,-280.5 944.5,-280.5"/>
<text text-anchor="middle" x="968" y="-287.5" font-family="Helvetica,sans-Serif" font-size="10.00">errno.h</text>
</g>
<!-- Node32&#45;&gt;Node33 -->
<g id="edge46" class="edge"><title>Node32&#45;&gt;Node33</title>
<path fill="none" stroke="midnightblue" d="M942.119,-336.083C946.408,-328.613 952.658,-317.724 957.942,-308.52"/>
<polygon fill="midnightblue" stroke="midnightblue" points="961.033,-310.166 962.976,-299.751 954.962,-306.681 961.033,-310.166"/>
</g>
<!-- Node34&#45;&gt;Node2 -->
<g id="edge50" class="edge"><title>Node34&#45;&gt;Node2</title>
<path fill="none" stroke="midnightblue" d="M1075.85,-280.499C1074.96,-258.446 1069.44,-198.966 1036,-168 1006.42,-140.611 962.861,-129.191 925.773,-124.699"/>
<polygon fill="midnightblue" stroke="midnightblue" points="925.815,-121.183 915.501,-123.608 925.076,-128.144 925.815,-121.183"/>
</g>
<!-- Node34&#45;&gt;Node28 -->
<g id="edge51" class="edge"><title>Node34&#45;&gt;Node28</title>
<path fill="none" stroke="midnightblue" d="M1096.6,-280.444C1117.99,-271.557 1151.68,-257.563 1176.02,-247.451"/>
<polygon fill="midnightblue" stroke="midnightblue" points="1177.61,-250.585 1185.5,-243.516 1174.92,-244.12 1177.61,-250.585"/>
</g>
<!-- Node35&#45;&gt;Node2 -->
<g id="edge53" class="edge"><title>Node35&#45;&gt;Node2</title>
<path fill="none" stroke="midnightblue" d="M1129.34,-336.255C1126.65,-307.085 1113.77,-212.457 1058,-168 1037.67,-151.795 976.125,-139.626 925.908,-132.056"/>
<polygon fill="midnightblue" stroke="midnightblue" points="926.11,-128.548 915.707,-130.557 925.092,-135.474 926.11,-128.548"/>
</g>
<!-- Node35&#45;&gt;Node28 -->
<g id="edge54" class="edge"><title>Node35&#45;&gt;Node28</title>
<path fill="none" stroke="midnightblue" d="M1135.96,-336.368C1148.51,-318.215 1177.81,-275.802 1194.26,-251.99"/>
<polygon fill="midnightblue" stroke="midnightblue" points="1197.26,-253.808 1200.06,-243.591 1191.5,-249.829 1197.26,-253.808"/>
</g>
<!-- Node35&#45;&gt;Node34 -->
<g id="edge55" class="edge"><title>Node35&#45;&gt;Node34</title>
<path fill="none" stroke="midnightblue" d="M1121.08,-336.083C1113.22,-328.22 1101.57,-316.569 1092.08,-307.081"/>
<polygon fill="midnightblue" stroke="midnightblue" points="1094.3,-304.347 1084.75,-299.751 1089.35,-309.297 1094.3,-304.347"/>
</g>
</g>
</svg>
