<?xml version="1.0" encoding="UTF-8" standalone="no"?>
<!DOCTYPE svg PUBLIC "-//W3C//DTD SVG 1.1//EN"
 "http://www.w3.org/Graphics/SVG/1.1/DTD/svg11.dtd">
<!-- Generated by graphviz version 2.38.0 (20140413.2041)
 -->
<!-- Title: mainwindow.cpp Pages: 1 -->
<svg width="1496pt" height="644pt"
 viewBox="0.00 0.00 1495.50 644.00" xmlns="http://www.w3.org/2000/svg" xmlns:xlink="http://www.w3.org/1999/xlink">
<g id="graph0" class="graph" transform="scale(1 1) rotate(0) translate(4 640)">
<title>mainwindow.cpp</title>
<polygon fill="white" stroke="none" points="-4,4 -4,-640 1491.5,-640 1491.5,4 -4,4"/>
<!-- Node1 -->
<g id="node1" class="node"><title>Node1</title>
<polygon fill="#bfbfbf" stroke="black" points="734,-616.5 734,-635.5 823,-635.5 823,-616.5 734,-616.5"/>
<text text-anchor="middle" x="778.5" y="-623.5" font-family="Helvetica,sans-Serif" font-size="10.00">mainwindow.cpp</text>
</g>
<!-- Node2 -->
<g id="node2" class="node"><title>Node2</title>
<g id="a_node2"><a xlink:href="mainwindow_8h.html" target="_top" xlink:title="mainwindow.h">
<polygon fill="white" stroke="black" points="728,-504.5 728,-523.5 807,-523.5 807,-504.5 728,-504.5"/>
<text text-anchor="middle" x="767.5" y="-511.5" font-family="Helvetica,sans-Serif" font-size="10.00">mainwindow.h</text>
</a>
</g>
</g>
<!-- Node1&#45;&gt;Node2 -->
<g id="edge1" class="edge"><title>Node1&#45;&gt;Node2</title>
<path fill="none" stroke="midnightblue" d="M784.134,-616.143C791.384,-603.609 802.385,-579.995 796.5,-560 793.488,-549.765 787.345,-539.66 781.486,-531.627"/>
<polygon fill="midnightblue" stroke="midnightblue" points="784.086,-529.269 775.173,-523.541 778.568,-533.577 784.086,-529.269"/>
</g>
<!-- Node4 -->
<g id="node4" class="node"><title>Node4</title>
<polygon fill="white" stroke="#bfbfbf" points="695.5,-560.5 695.5,-579.5 787.5,-579.5 787.5,-560.5 695.5,-560.5"/>
<text text-anchor="middle" x="741.5" y="-567.5" font-family="Helvetica,sans-Serif" font-size="10.00">ui_mainwindow.h</text>
</g>
<!-- Node1&#45;&gt;Node4 -->
<g id="edge3" class="edge"><title>Node1&#45;&gt;Node4</title>
<path fill="none" stroke="midnightblue" d="M772.39,-616.083C767.218,-608.534 759.654,-597.495 753.306,-588.23"/>
<polygon fill="midnightblue" stroke="midnightblue" points="756.036,-586.022 747.496,-579.751 750.261,-589.979 756.036,-586.022"/>
</g>
<!-- Node5 -->
<g id="node5" class="node"><title>Node5</title>
<g id="a_node5"><a xlink:href="filepathdialog_8h.html" target="_top" xlink:title="filepathdialog.h">
<polygon fill="white" stroke="black" points="595.5,-560.5 595.5,-579.5 677.5,-579.5 677.5,-560.5 595.5,-560.5"/>
<text text-anchor="middle" x="636.5" y="-567.5" font-family="Helvetica,sans-Serif" font-size="10.00">filepathdialog.h</text>
</a>
</g>
</g>
<!-- Node1&#45;&gt;Node5 -->
<g id="edge4" class="edge"><title>Node1&#45;&gt;Node5</title>
<path fill="none" stroke="midnightblue" d="M756,-616.444C732.423,-607.478 695.178,-593.314 668.536,-583.183"/>
<polygon fill="midnightblue" stroke="midnightblue" points="669.486,-579.8 658.895,-579.516 666.998,-586.342 669.486,-579.8"/>
</g>
<!-- Node7 -->
<g id="node7" class="node"><title>Node7</title>
<g id="a_node7"><a xlink:href="testcontainer_8h.html" target="_top" xlink:title="testcontainer.h">
<polygon fill="white" stroke="black" points="893,-560.5 893,-579.5 974,-579.5 974,-560.5 893,-560.5"/>
<text text-anchor="middle" x="933.5" y="-567.5" font-family="Helvetica,sans-Serif" font-size="10.00">testcontainer.h</text>
</a>
</g>
</g>
<!-- Node1&#45;&gt;Node7 -->
<g id="edge6" class="edge"><title>Node1&#45;&gt;Node7</title>
<path fill="none" stroke="midnightblue" d="M803.06,-616.444C829.023,-607.399 870.168,-593.064 899.297,-582.916"/>
<polygon fill="midnightblue" stroke="midnightblue" points="900.763,-586.112 909.055,-579.516 898.46,-579.501 900.763,-586.112"/>
</g>
<!-- Node3 -->
<g id="node3" class="node"><title>Node3</title>
<polygon fill="white" stroke="#bfbfbf" points="727.5,-448.5 727.5,-467.5 807.5,-467.5 807.5,-448.5 727.5,-448.5"/>
<text text-anchor="middle" x="767.5" y="-455.5" font-family="Helvetica,sans-Serif" font-size="10.00">QMainWindow</text>
</g>
<!-- Node2&#45;&gt;Node3 -->
<g id="edge2" class="edge"><title>Node2&#45;&gt;Node3</title>
<path fill="none" stroke="midnightblue" d="M767.5,-504.083C767.5,-497.006 767.5,-486.861 767.5,-477.986"/>
<polygon fill="midnightblue" stroke="midnightblue" points="771,-477.751 767.5,-467.751 764,-477.751 771,-477.751"/>
</g>
<!-- Node6 -->
<g id="node6" class="node"><title>Node6</title>
<polygon fill="white" stroke="#bfbfbf" points="610.5,-504.5 610.5,-523.5 662.5,-523.5 662.5,-504.5 610.5,-504.5"/>
<text text-anchor="middle" x="636.5" y="-511.5" font-family="Helvetica,sans-Serif" font-size="10.00">QDialog</text>
</g>
<!-- Node5&#45;&gt;Node6 -->
<g id="edge5" class="edge"><title>Node5&#45;&gt;Node6</title>
<path fill="none" stroke="midnightblue" d="M636.5,-560.083C636.5,-553.006 636.5,-542.861 636.5,-533.986"/>
<polygon fill="midnightblue" stroke="midnightblue" points="640,-533.751 636.5,-523.751 633,-533.751 640,-533.751"/>
</g>
<!-- Node7&#45;&gt;Node2 -->
<g id="edge71" class="edge"><title>Node7&#45;&gt;Node2</title>
<path fill="none" stroke="midnightblue" d="M907.197,-560.444C879.149,-551.32 834.556,-536.813 803.316,-526.651"/>
<polygon fill="midnightblue" stroke="midnightblue" points="804.272,-523.282 793.68,-523.516 802.107,-529.938 804.272,-523.282"/>
</g>
<!-- Node8 -->
<g id="node8" class="node"><title>Node8</title>
<polygon fill="white" stroke="#bfbfbf" points="975,-504.5 975,-523.5 1030,-523.5 1030,-504.5 975,-504.5"/>
<text text-anchor="middle" x="1002.5" y="-511.5" font-family="Helvetica,sans-Serif" font-size="10.00">QWidget</text>
</g>
<!-- Node7&#45;&gt;Node8 -->
<g id="edge7" class="edge"><title>Node7&#45;&gt;Node8</title>
<path fill="none" stroke="midnightblue" d="M944.586,-560.324C954.986,-552.185 970.761,-539.839 983.222,-530.087"/>
<polygon fill="midnightblue" stroke="midnightblue" points="985.494,-532.753 991.212,-523.834 981.18,-527.241 985.494,-532.753"/>
</g>
<!-- Node9 -->
<g id="node9" class="node"><title>Node9</title>
<polygon fill="white" stroke="#bfbfbf" points="1048,-504.5 1048,-523.5 1119,-523.5 1119,-504.5 1048,-504.5"/>
<text text-anchor="middle" x="1083.5" y="-511.5" font-family="Helvetica,sans-Serif" font-size="10.00">QListWidget</text>
</g>
<!-- Node7&#45;&gt;Node9 -->
<g id="edge8" class="edge"><title>Node7&#45;&gt;Node9</title>
<path fill="none" stroke="midnightblue" d="M957.268,-560.444C982.393,-551.399 1022.21,-537.064 1050.4,-526.916"/>
<polygon fill="midnightblue" stroke="midnightblue" points="1051.62,-530.197 1059.84,-523.516 1049.25,-523.611 1051.62,-530.197"/>
</g>
<!-- Node10 -->
<g id="node10" class="node"><title>Node10</title>
<g id="a_node10"><a xlink:href="convertlib_8h.html" target="_top" xlink:title="convertlib include file A library providing functions for conversion between the various position and...">
<polygon fill="white" stroke="black" points="825,-504.5 825,-523.5 892,-523.5 892,-504.5 825,-504.5"/>
<text text-anchor="middle" x="858.5" y="-511.5" font-family="Helvetica,sans-Serif" font-size="10.00">convertlib.h</text>
</a>
</g>
</g>
<!-- Node7&#45;&gt;Node10 -->
<g id="edge9" class="edge"><title>Node7&#45;&gt;Node10</title>
<path fill="none" stroke="midnightblue" d="M921.45,-560.324C910.037,-552.107 892.669,-539.602 879.065,-529.807"/>
<polygon fill="midnightblue" stroke="midnightblue" points="880.93,-526.837 870.769,-523.834 876.84,-532.517 880.93,-526.837"/>
</g>
<!-- Node37 -->
<g id="node37" class="node"><title>Node37</title>
<g id="a_node37"><a xlink:href="mathlib_8h.html" target="_top" xlink:title="mathlib include file ">
<polygon fill="white" stroke="black" points="1106,-392.5 1106,-411.5 1187,-411.5 1187,-392.5 1106,-392.5"/>
<text text-anchor="middle" x="1146.5" y="-399.5" font-family="Helvetica,sans-Serif" font-size="10.00">math/mathlib.h</text>
</a>
</g>
</g>
<!-- Node7&#45;&gt;Node37 -->
<g id="edge69" class="edge"><title>Node7&#45;&gt;Node37</title>
<path fill="none" stroke="midnightblue" d="M974.156,-564.886C1024.75,-558.898 1107.01,-546.023 1127.5,-524 1153.36,-496.198 1152.39,-448.306 1149.44,-421.88"/>
<polygon fill="midnightblue" stroke="midnightblue" points="1152.87,-421.141 1148.07,-411.693 1145.93,-422.069 1152.87,-421.141"/>
</g>
<!-- Node46 -->
<g id="node46" class="node"><title>Node46</title>
<polygon fill="white" stroke="#bfbfbf" points="910.5,-504.5 910.5,-523.5 956.5,-523.5 956.5,-504.5 910.5,-504.5"/>
<text text-anchor="middle" x="933.5" y="-511.5" font-family="Helvetica,sans-Serif" font-size="10.00">stdio.h</text>
</g>
<!-- Node7&#45;&gt;Node46 -->
<g id="edge70" class="edge"><title>Node7&#45;&gt;Node46</title>
<path fill="none" stroke="midnightblue" d="M933.5,-560.083C933.5,-553.006 933.5,-542.861 933.5,-533.986"/>
<polygon fill="midnightblue" stroke="midnightblue" points="937,-533.751 933.5,-523.751 930,-533.751 937,-533.751"/>
</g>
<!-- Node11 -->
<g id="node11" class="node"><title>Node11</title>
<g id="a_node11"><a xlink:href="config_cosmos_8h.html" target="_top" xlink:title="Headers and definitions common to all COSMOS. ">
<polygon fill="white" stroke="black" points="811,-112.5 811,-131.5 934,-131.5 934,-112.5 811,-112.5"/>
<text text-anchor="middle" x="872.5" y="-119.5" font-family="Helvetica,sans-Serif" font-size="10.00">support/configCosmos.h</text>
</a>
</g>
</g>
<!-- Node10&#45;&gt;Node11 -->
<g id="edge10" class="edge"><title>Node10&#45;&gt;Node11</title>
<path fill="none" stroke="midnightblue" d="M855.398,-504.289C849.12,-485.856 835.5,-441.435 835.5,-403 835.5,-403 835.5,-403 835.5,-233 835.5,-198.889 851.682,-161.787 862.642,-140.568"/>
<polygon fill="midnightblue" stroke="midnightblue" points="865.859,-141.976 867.51,-131.51 859.693,-138.662 865.859,-141.976"/>
</g>
<!-- Node10&#45;&gt;Node37 -->
<g id="edge42" class="edge"><title>Node10&#45;&gt;Node37</title>
<path fill="none" stroke="midnightblue" d="M881.532,-504.444C905.709,-495.443 944.816,-480.832 978.5,-468 1026.25,-449.812 1081.47,-428.366 1115.19,-415.227"/>
<polygon fill="midnightblue" stroke="midnightblue" points="1116.47,-418.484 1124.51,-411.591 1113.92,-411.963 1116.47,-418.484"/>
</g>
<!-- Node45 -->
<g id="node45" class="node"><title>Node45</title>
<g id="a_node45"><a xlink:href="convertdef_8h.html" target="_top" xlink:title="support/convertdef.h">
<polygon fill="white" stroke="black" points="863.5,-448.5 863.5,-467.5 969.5,-467.5 969.5,-448.5 863.5,-448.5"/>
<text text-anchor="middle" x="916.5" y="-455.5" font-family="Helvetica,sans-Serif" font-size="10.00">support/convertdef.h</text>
</a>
</g>
</g>
<!-- Node10&#45;&gt;Node45 -->
<g id="edge66" class="edge"><title>Node10&#45;&gt;Node45</title>
<path fill="none" stroke="midnightblue" d="M867.819,-504.324C876.393,-496.341 889.312,-484.313 899.688,-474.653"/>
<polygon fill="midnightblue" stroke="midnightblue" points="902.078,-477.21 907.012,-467.834 897.308,-472.086 902.078,-477.21"/>
</g>
<!-- Node12 -->
<g id="node12" class="node"><title>Node12</title>
<polygon fill="white" stroke="#bfbfbf" points="418,-56.5 418,-75.5 463,-75.5 463,-56.5 418,-56.5"/>
<text text-anchor="middle" x="440.5" y="-63.5" font-family="Helvetica,sans-Serif" font-size="10.00">climits</text>
</g>
<!-- Node11&#45;&gt;Node12 -->
<g id="edge11" class="edge"><title>Node11&#45;&gt;Node12</title>
<path fill="none" stroke="midnightblue" d="M810.855,-117.363C733.781,-112.087 597.758,-100.378 473.172,-76.0429"/>
<polygon fill="midnightblue" stroke="midnightblue" points="473.567,-72.5531 463.076,-74.0379 472.203,-79.419 473.567,-72.5531"/>
</g>
<!-- Node13 -->
<g id="node13" class="node"><title>Node13</title>
<polygon fill="white" stroke="#bfbfbf" points="481,-56.5 481,-75.5 528,-75.5 528,-56.5 481,-56.5"/>
<text text-anchor="middle" x="504.5" y="-63.5" font-family="Helvetica,sans-Serif" font-size="10.00">csignal</text>
</g>
<!-- Node11&#45;&gt;Node13 -->
<g id="edge12" class="edge"><title>Node11&#45;&gt;Node13</title>
<path fill="none" stroke="midnightblue" d="M810.963,-115.209C745.631,-108.506 639.241,-96.0065 538.27,-75.9025"/>
<polygon fill="midnightblue" stroke="midnightblue" points="538.698,-72.4183 528.203,-73.8688 537.312,-79.2797 538.698,-72.4183"/>
</g>
<!-- Node14 -->
<g id="node14" class="node"><title>Node14</title>
<polygon fill="white" stroke="#bfbfbf" points="1269.5,-56.5 1269.5,-75.5 1315.5,-75.5 1315.5,-56.5 1269.5,-56.5"/>
<text text-anchor="middle" x="1292.5" y="-63.5" font-family="Helvetica,sans-Serif" font-size="10.00">cstdint</text>
</g>
<!-- Node11&#45;&gt;Node14 -->
<g id="edge13" class="edge"><title>Node11&#45;&gt;Node14</title>
<path fill="none" stroke="midnightblue" d="M934.198,-116.079C1010.17,-109.484 1142.98,-96.2169 1255.5,-76 1256.78,-75.7698 1258.08,-75.5218 1259.4,-75.2601"/>
<polygon fill="midnightblue" stroke="midnightblue" points="1260.48,-78.6069 1269.5,-73.0532 1258.98,-71.7682 1260.48,-78.6069"/>
</g>
<!-- Node15 -->
<g id="node15" class="node"><title>Node15</title>
<polygon fill="white" stroke="#bfbfbf" points="546.5,-56.5 546.5,-75.5 602.5,-75.5 602.5,-56.5 546.5,-56.5"/>
<text text-anchor="middle" x="574.5" y="-63.5" font-family="Helvetica,sans-Serif" font-size="10.00">cinttypes</text>
</g>
<!-- Node11&#45;&gt;Node15 -->
<g id="edge14" class="edge"><title>Node11&#45;&gt;Node15</title>
<path fill="none" stroke="midnightblue" d="M820.423,-112.428C768.622,-103.764 686.924,-89.7302 616.5,-76 615.265,-75.7592 614.01,-75.511 612.744,-75.2575"/>
<polygon fill="midnightblue" stroke="midnightblue" points="613.437,-71.8269 602.937,-73.2429 612.028,-78.6837 613.437,-71.8269"/>
</g>
<!-- Node16 -->
<g id="node16" class="node"><title>Node16</title>
<polygon fill="white" stroke="#bfbfbf" points="659,-56.5 659,-75.5 702,-75.5 702,-56.5 659,-56.5"/>
<text text-anchor="middle" x="680.5" y="-63.5" font-family="Helvetica,sans-Serif" font-size="10.00">cstdio</text>
</g>
<!-- Node11&#45;&gt;Node16 -->
<g id="edge15" class="edge"><title>Node11&#45;&gt;Node16</title>
<path fill="none" stroke="midnightblue" d="M841.087,-112.479C810.389,-104.107 762.089,-90.816 711.848,-76.3521"/>
<polygon fill="midnightblue" stroke="midnightblue" points="712.693,-72.9531 702.114,-73.542 710.751,-79.6784 712.693,-72.9531"/>
</g>
<!-- Node17 -->
<g id="node17" class="node"><title>Node17</title>
<polygon fill="white" stroke="#bfbfbf" points="720,-56.5 720,-75.5 769,-75.5 769,-56.5 720,-56.5"/>
<text text-anchor="middle" x="744.5" y="-63.5" font-family="Helvetica,sans-Serif" font-size="10.00">cstddef</text>
</g>
<!-- Node11&#45;&gt;Node17 -->
<g id="edge16" class="edge"><title>Node11&#45;&gt;Node17</title>
<path fill="none" stroke="midnightblue" d="M852.218,-112.444C831.153,-103.557 797.983,-89.5632 774.014,-79.4514"/>
<polygon fill="midnightblue" stroke="midnightblue" points="775.261,-76.1787 764.687,-75.5164 772.54,-82.6283 775.261,-76.1787"/>
</g>
<!-- Node18 -->
<g id="node18" class="node"><title>Node18</title>
<polygon fill="white" stroke="#bfbfbf" points="787,-56.5 787,-75.5 832,-75.5 832,-56.5 787,-56.5"/>
<text text-anchor="middle" x="809.5" y="-63.5" font-family="Helvetica,sans-Serif" font-size="10.00">cstdlib</text>
</g>
<!-- Node11&#45;&gt;Node18 -->
<g id="edge17" class="edge"><title>Node11&#45;&gt;Node18</title>
<path fill="none" stroke="midnightblue" d="M862.378,-112.324C852.974,-104.263 838.756,-92.0765 827.431,-82.3695"/>
<polygon fill="midnightblue" stroke="midnightblue" points="829.677,-79.6844 819.806,-75.8339 825.121,-84.9993 829.677,-79.6844"/>
</g>
<!-- Node19 -->
<g id="node19" class="node"><title>Node19</title>
<polygon fill="white" stroke="#bfbfbf" points="850.5,-56.5 850.5,-75.5 894.5,-75.5 894.5,-56.5 850.5,-56.5"/>
<text text-anchor="middle" x="872.5" y="-63.5" font-family="Helvetica,sans-Serif" font-size="10.00">cerrno</text>
</g>
<!-- Node11&#45;&gt;Node19 -->
<g id="edge18" class="edge"><title>Node11&#45;&gt;Node19</title>
<path fill="none" stroke="midnightblue" d="M872.5,-112.083C872.5,-105.006 872.5,-94.8611 872.5,-85.9865"/>
<polygon fill="midnightblue" stroke="midnightblue" points="876,-85.751 872.5,-75.7511 869,-85.7511 876,-85.751"/>
</g>
<!-- Node20 -->
<g id="node20" class="node"><title>Node20</title>
<polygon fill="white" stroke="#bfbfbf" points="912.5,-56.5 912.5,-75.5 958.5,-75.5 958.5,-56.5 912.5,-56.5"/>
<text text-anchor="middle" x="935.5" y="-63.5" font-family="Helvetica,sans-Serif" font-size="10.00">cstring</text>
</g>
<!-- Node11&#45;&gt;Node20 -->
<g id="edge19" class="edge"><title>Node11&#45;&gt;Node20</title>
<path fill="none" stroke="midnightblue" d="M882.622,-112.324C892.026,-104.263 906.244,-92.0765 917.569,-82.3695"/>
<polygon fill="midnightblue" stroke="midnightblue" points="919.879,-84.9993 925.194,-75.8339 915.323,-79.6844 919.879,-84.9993"/>
</g>
<!-- Node21 -->
<g id="node21" class="node"><title>Node21</title>
<polygon fill="white" stroke="#bfbfbf" points="1443.5,-56.5 1443.5,-75.5 1487.5,-75.5 1487.5,-56.5 1443.5,-56.5"/>
<text text-anchor="middle" x="1465.5" y="-63.5" font-family="Helvetica,sans-Serif" font-size="10.00">cmath</text>
</g>
<!-- Node11&#45;&gt;Node21 -->
<g id="edge20" class="edge"><title>Node11&#45;&gt;Node21</title>
<path fill="none" stroke="midnightblue" d="M934.153,-120.135C1036.32,-117.813 1247.12,-109.255 1433.31,-75.8531"/>
<polygon fill="midnightblue" stroke="midnightblue" points="1434.07,-79.2725 1443.28,-74.0362 1432.81,-72.3859 1434.07,-79.2725"/>
</g>
<!-- Node22 -->
<g id="node22" class="node"><title>Node22</title>
<polygon fill="white" stroke="#bfbfbf" points="977,-56.5 977,-75.5 1022,-75.5 1022,-56.5 977,-56.5"/>
<text text-anchor="middle" x="999.5" y="-63.5" font-family="Helvetica,sans-Serif" font-size="10.00">iosfwd</text>
</g>
<!-- Node11&#45;&gt;Node22 -->
<g id="edge21" class="edge"><title>Node11&#45;&gt;Node22</title>
<path fill="none" stroke="midnightblue" d="M892.624,-112.444C913.524,-103.557 946.435,-89.5632 970.216,-79.4514"/>
<polygon fill="midnightblue" stroke="midnightblue" points="971.638,-82.6504 979.471,-75.5164 968.898,-76.2085 971.638,-82.6504"/>
</g>
<!-- Node23 -->
<g id="node23" class="node"><title>Node23</title>
<polygon fill="white" stroke="#bfbfbf" points="1371.5,-56.5 1371.5,-75.5 1425.5,-75.5 1425.5,-56.5 1371.5,-56.5"/>
<text text-anchor="middle" x="1398.5" y="-63.5" font-family="Helvetica,sans-Serif" font-size="10.00">iostream</text>
</g>
<!-- Node11&#45;&gt;Node23 -->
<g id="edge22" class="edge"><title>Node11&#45;&gt;Node23</title>
<path fill="none" stroke="midnightblue" d="M934.323,-115.275C1021.42,-107.113 1185.18,-91.406 1324.5,-76 1336.54,-74.6688 1349.66,-73.1082 1361.47,-71.6637"/>
<polygon fill="midnightblue" stroke="midnightblue" points="1361.96,-75.1308 1371.45,-70.4329 1361.1,-68.1834 1361.96,-75.1308"/>
</g>
<!-- Node24 -->
<g id="node24" class="node"><title>Node24</title>
<polygon fill="white" stroke="#bfbfbf" points="1040,-56.5 1040,-75.5 1091,-75.5 1091,-56.5 1040,-56.5"/>
<text text-anchor="middle" x="1065.5" y="-63.5" font-family="Helvetica,sans-Serif" font-size="10.00">unistd.h</text>
</g>
<!-- Node11&#45;&gt;Node24 -->
<g id="edge23" class="edge"><title>Node11&#45;&gt;Node24</title>
<path fill="none" stroke="midnightblue" d="M903.081,-112.444C937.669,-102.766 993.898,-87.0336 1030.29,-76.8518"/>
<polygon fill="midnightblue" stroke="midnightblue" points="1031.31,-80.2019 1039.99,-74.1368 1029.42,-73.4608 1031.31,-80.2019"/>
</g>
<!-- Node25 -->
<g id="node25" class="node"><title>Node25</title>
<polygon fill="white" stroke="#bfbfbf" points="1109.5,-56.5 1109.5,-75.5 1153.5,-75.5 1153.5,-56.5 1109.5,-56.5"/>
<text text-anchor="middle" x="1131.5" y="-63.5" font-family="Helvetica,sans-Serif" font-size="10.00">fcntl.h</text>
</g>
<!-- Node11&#45;&gt;Node25 -->
<g id="edge24" class="edge"><title>Node11&#45;&gt;Node25</title>
<path fill="none" stroke="midnightblue" d="M921.449,-112.444C965.423,-104.499 1031.95,-91.8455 1099.25,-75.8959"/>
<polygon fill="midnightblue" stroke="midnightblue" points="1100.27,-79.2503 1109.18,-73.5189 1098.64,-72.4426 1100.27,-79.2503"/>
</g>
<!-- Node26 -->
<g id="node26" class="node"><title>Node26</title>
<polygon fill="white" stroke="#bfbfbf" points="1172,-56.5 1172,-75.5 1213,-75.5 1213,-56.5 1172,-56.5"/>
<text text-anchor="middle" x="1192.5" y="-63.5" font-family="Helvetica,sans-Serif" font-size="10.00">string</text>
</g>
<!-- Node11&#45;&gt;Node26 -->
<g id="edge25" class="edge"><title>Node11&#45;&gt;Node26</title>
<path fill="none" stroke="midnightblue" d="M934.064,-113.942C990.839,-106.87 1077.57,-94.6434 1161.93,-75.8381"/>
<polygon fill="midnightblue" stroke="midnightblue" points="1162.96,-79.1943 1171.94,-73.5733 1161.42,-72.3669 1162.96,-79.1943"/>
</g>
<!-- Node27 -->
<g id="node27" class="node"><title>Node27</title>
<polygon fill="white" stroke="#bfbfbf" points="1219.5,-0.5 1219.5,-19.5 1263.5,-19.5 1263.5,-0.5 1219.5,-0.5"/>
<text text-anchor="middle" x="1241.5" y="-7.5" font-family="Helvetica,sans-Serif" font-size="10.00">vector</text>
</g>
<!-- Node11&#45;&gt;Node27 -->
<g id="edge26" class="edge"><title>Node11&#45;&gt;Node27</title>
<path fill="none" stroke="midnightblue" d="M934.293,-120.844C1022.7,-119.35 1179.28,-111.58 1221.5,-76 1234.88,-64.7227 1239.47,-44.7149 1240.97,-29.8666"/>
<polygon fill="midnightblue" stroke="midnightblue" points="1244.47,-29.9466 1241.6,-19.7477 1237.48,-29.5098 1244.47,-29.9466"/>
</g>
<!-- Node28 -->
<g id="node28" class="node"><title>Node28</title>
<polygon fill="white" stroke="#bfbfbf" points="0,-56.5 0,-75.5 43,-75.5 43,-56.5 0,-56.5"/>
<text text-anchor="middle" x="21.5" y="-63.5" font-family="Helvetica,sans-Serif" font-size="10.00">deque</text>
</g>
<!-- Node11&#45;&gt;Node28 -->
<g id="edge27" class="edge"><title>Node11&#45;&gt;Node28</title>
<path fill="none" stroke="midnightblue" d="M810.749,-121.571C674.141,-121.967 336.331,-118.161 57.5,-76 56.027,-75.7773 54.5263,-75.5213 53.015,-75.24"/>
<polygon fill="midnightblue" stroke="midnightblue" points="53.5801,-71.7816 43.0674,-73.098 52.1065,-78.6247 53.5801,-71.7816"/>
</g>
<!-- Node29 -->
<g id="node29" class="node"><title>Node29</title>
<polygon fill="white" stroke="#bfbfbf" points="504.5,-0.5 504.5,-19.5 548.5,-19.5 548.5,-0.5 504.5,-0.5"/>
<text text-anchor="middle" x="526.5" y="-7.5" font-family="Helvetica,sans-Serif" font-size="10.00">mutex</text>
</g>
<!-- Node11&#45;&gt;Node29 -->
<g id="edge28" class="edge"><title>Node11&#45;&gt;Node29</title>
<path fill="none" stroke="midnightblue" d="M810.645,-113.386C765.158,-106.627 702.324,-94.8425 649.5,-76 648.856,-75.7701 587.434,-43.2654 551.643,-24.3151"/>
<polygon fill="midnightblue" stroke="midnightblue" points="553.199,-21.1787 542.723,-19.5923 549.923,-27.365 553.199,-21.1787"/>
</g>
<!-- Node30 -->
<g id="node30" class="node"><title>Node30</title>
<polygon fill="white" stroke="#bfbfbf" points="36.5,-0.5 36.5,-19.5 80.5,-19.5 80.5,-0.5 36.5,-0.5"/>
<text text-anchor="middle" x="58.5" y="-7.5" font-family="Helvetica,sans-Serif" font-size="10.00">thread</text>
</g>
<!-- Node11&#45;&gt;Node30 -->
<g id="edge29" class="edge"><title>Node11&#45;&gt;Node30</title>
<path fill="none" stroke="midnightblue" d="M810.759,-119.274C645.99,-114.376 204.182,-99.222 142.5,-76 114.872,-65.5988 88.9486,-42.7863 73.4022,-27.1535"/>
<polygon fill="midnightblue" stroke="midnightblue" points="75.7206,-24.515 66.2644,-19.7368 70.6769,-29.369 75.7206,-24.515"/>
</g>
<!-- Node31 -->
<g id="node31" class="node"><title>Node31</title>
<polygon fill="white" stroke="#bfbfbf" points="99,-0.5 99,-19.5 194,-19.5 194,-0.5 99,-0.5"/>
<text text-anchor="middle" x="146.5" y="-7.5" font-family="Helvetica,sans-Serif" font-size="10.00">condition_variable</text>
</g>
<!-- Node11&#45;&gt;Node31 -->
<g id="edge30" class="edge"><title>Node11&#45;&gt;Node31</title>
<path fill="none" stroke="midnightblue" d="M810.993,-121.413C646.474,-121.929 205.508,-119.223 157.5,-76 144.893,-64.6494 143.197,-44.6532 144.004,-29.8276"/>
<polygon fill="midnightblue" stroke="midnightblue" points="147.502,-30.0147 144.969,-19.727 140.533,-29.3486 147.502,-30.0147"/>
</g>
<!-- Node32 -->
<g id="node32" class="node"><title>Node32</title>
<polygon fill="white" stroke="#bfbfbf" points="212,-0.5 212,-19.5 255,-19.5 255,-0.5 212,-0.5"/>
<text text-anchor="middle" x="233.5" y="-7.5" font-family="Helvetica,sans-Serif" font-size="10.00">queue</text>
</g>
<!-- Node11&#45;&gt;Node32 -->
<g id="edge31" class="edge"><title>Node11&#45;&gt;Node32</title>
<path fill="none" stroke="midnightblue" d="M810.864,-119.338C642.942,-114.512 188.402,-99.3429 166.5,-76 148.92,-57.264 178.807,-36.8064 204.113,-23.9444"/>
<polygon fill="midnightblue" stroke="midnightblue" points="205.665,-27.0819 213.133,-19.5667 202.609,-20.7844 205.665,-27.0819"/>
</g>
<!-- Node33 -->
<g id="node33" class="node"><title>Node33</title>
<polygon fill="white" stroke="#bfbfbf" points="309.5,-56.5 309.5,-75.5 361.5,-75.5 361.5,-56.5 309.5,-56.5"/>
<text text-anchor="middle" x="335.5" y="-63.5" font-family="Helvetica,sans-Serif" font-size="10.00">sstream</text>
</g>
<!-- Node11&#45;&gt;Node33 -->
<g id="edge32" class="edge"><title>Node11&#45;&gt;Node33</title>
<path fill="none" stroke="midnightblue" d="M810.972,-118.027C716.755,-112.89 531.271,-100.468 375.5,-76 374.234,-75.8012 372.949,-75.5858 371.653,-75.3572"/>
<polygon fill="midnightblue" stroke="midnightblue" points="372.142,-71.8866 361.656,-73.4008 370.797,-78.7563 372.142,-71.8866"/>
</g>
<!-- Node34 -->
<g id="node34" class="node"><title>Node34</title>
<polygon fill="white" stroke="#bfbfbf" points="346,-0.5 346,-19.5 381,-19.5 381,-0.5 346,-0.5"/>
<text text-anchor="middle" x="363.5" y="-7.5" font-family="Helvetica,sans-Serif" font-size="10.00">map</text>
</g>
<!-- Node11&#45;&gt;Node34 -->
<g id="edge33" class="edge"><title>Node11&#45;&gt;Node34</title>
<path fill="none" stroke="midnightblue" d="M810.841,-121.339C700.634,-120.924 475.15,-115.138 408.5,-76 390.421,-65.3839 377.896,-44.2949 370.733,-29.0105"/>
<polygon fill="midnightblue" stroke="midnightblue" points="373.821,-27.3355 366.629,-19.5565 367.4,-30.1232 373.821,-27.3355"/>
</g>
<!-- Node35 -->
<g id="node35" class="node"><title>Node35</title>
<g id="a_node35"><a xlink:href="cosmos-defs_8h.html" target="_top" xlink:title="COSMOS definitions Definitions specific to the COSMOS environement. ">
<polygon fill="white" stroke="black" points="175.5,-56.5 175.5,-75.5 291.5,-75.5 291.5,-56.5 175.5,-56.5"/>
<text text-anchor="middle" x="233.5" y="-63.5" font-family="Helvetica,sans-Serif" font-size="10.00">support/cosmos&#45;defs.h</text>
</a>
</g>
</g>
<!-- Node11&#45;&gt;Node35 -->
<g id="edge34" class="edge"><title>Node11&#45;&gt;Node35</title>
<path fill="none" stroke="midnightblue" d="M810.607,-117.251C707.356,-110.75 493.21,-96.2195 301.557,-76.0576"/>
<polygon fill="midnightblue" stroke="midnightblue" points="301.894,-72.5739 291.581,-75.0008 301.157,-79.5349 301.894,-72.5739"/>
</g>
<!-- Node35&#45;&gt;Node27 -->
<g id="edge36" class="edge"><title>Node35&#45;&gt;Node27</title>
<path fill="none" stroke="midnightblue" d="M291.57,-56.8896C294.588,-56.5652 297.578,-56.2656 300.5,-56 655.855,-23.696 1088.95,-13.7698 1209.2,-11.5414"/>
<polygon fill="midnightblue" stroke="midnightblue" points="1209.29,-15.0405 1219.22,-11.3603 1209.16,-8.04163 1209.29,-15.0405"/>
</g>
<!-- Node35&#45;&gt;Node29 -->
<g id="edge40" class="edge"><title>Node35&#45;&gt;Node29</title>
<path fill="none" stroke="midnightblue" d="M279.927,-56.4435C339.859,-45.398 442.593,-26.4641 494.493,-16.8989"/>
<polygon fill="midnightblue" stroke="midnightblue" points="495.265,-20.3156 504.465,-15.061 493.996,-13.4316 495.265,-20.3156"/>
</g>
<!-- Node35&#45;&gt;Node30 -->
<g id="edge39" class="edge"><title>Node35&#45;&gt;Node30</title>
<path fill="none" stroke="midnightblue" d="M205.771,-56.4435C174.328,-46.7411 123.159,-30.952 90.1708,-20.7727"/>
<polygon fill="midnightblue" stroke="midnightblue" points="91.146,-17.4109 80.5586,-17.8067 89.082,-24.0997 91.146,-17.4109"/>
</g>
<!-- Node35&#45;&gt;Node31 -->
<g id="edge41" class="edge"><title>Node35&#45;&gt;Node31</title>
<path fill="none" stroke="midnightblue" d="M219.522,-56.324C205.95,-47.9002 185.12,-34.9709 169.175,-25.0741"/>
<polygon fill="midnightblue" stroke="midnightblue" points="170.786,-21.9544 160.443,-19.6545 167.094,-27.9019 170.786,-21.9544"/>
</g>
<!-- Node35&#45;&gt;Node32 -->
<g id="edge38" class="edge"><title>Node35&#45;&gt;Node32</title>
<path fill="none" stroke="midnightblue" d="M233.5,-56.083C233.5,-49.0059 233.5,-38.8611 233.5,-29.9865"/>
<polygon fill="midnightblue" stroke="midnightblue" points="237,-29.751 233.5,-19.7511 230,-29.7511 237,-29.751"/>
</g>
<!-- Node35&#45;&gt;Node34 -->
<g id="edge35" class="edge"><title>Node35&#45;&gt;Node34</title>
<path fill="none" stroke="midnightblue" d="M254.099,-56.4435C276.374,-47.1907 311.976,-32.4021 336.482,-22.2227"/>
<polygon fill="midnightblue" stroke="midnightblue" points="338.024,-25.3725 345.916,-18.3042 335.338,-18.9081 338.024,-25.3725"/>
</g>
<!-- Node36 -->
<g id="node36" class="node"><title>Node36</title>
<polygon fill="white" stroke="#bfbfbf" points="273,-0.5 273,-19.5 302,-19.5 302,-0.5 273,-0.5"/>
<text text-anchor="middle" x="287.5" y="-7.5" font-family="Helvetica,sans-Serif" font-size="10.00">list</text>
</g>
<!-- Node35&#45;&gt;Node36 -->
<g id="edge37" class="edge"><title>Node35&#45;&gt;Node36</title>
<path fill="none" stroke="midnightblue" d="M242.417,-56.083C250.28,-48.2195 261.931,-36.5688 271.419,-27.0813"/>
<polygon fill="midnightblue" stroke="midnightblue" points="274.153,-29.2971 278.749,-19.7511 269.203,-24.3473 274.153,-29.2971"/>
</g>
<!-- Node37&#45;&gt;Node11 -->
<g id="edge43" class="edge"><title>Node37&#45;&gt;Node11</title>
<path fill="none" stroke="midnightblue" d="M1105.54,-397.259C1050.74,-391.457 957.545,-378.539 932.5,-356 909.934,-335.692 911.5,-321.359 911.5,-291 911.5,-291 911.5,-291 911.5,-233 911.5,-198.716 894.463,-161.698 882.91,-140.537"/>
<polygon fill="midnightblue" stroke="midnightblue" points="885.903,-138.72 877.923,-131.75 879.815,-142.175 885.903,-138.72"/>
</g>
<!-- Node37&#45;&gt;Node21 -->
<g id="edge64" class="edge"><title>Node37&#45;&gt;Node21</title>
<path fill="none" stroke="midnightblue" d="M1187.26,-398.491C1235.55,-394.346 1317.62,-383.564 1382.5,-356 1428.58,-336.423 1474.5,-341.065 1474.5,-291 1474.5,-291 1474.5,-291 1474.5,-177 1474.5,-144.841 1470.63,-107.569 1467.97,-85.7107"/>
<polygon fill="midnightblue" stroke="midnightblue" points="1471.41,-85.0183 1466.68,-75.5383 1464.46,-85.8993 1471.41,-85.0183"/>
</g>
<!-- Node37&#45;&gt;Node23 -->
<g id="edge65" class="edge"><title>Node37&#45;&gt;Node23</title>
<path fill="none" stroke="midnightblue" d="M1187.13,-394.347C1266.94,-380.123 1436.5,-343.703 1436.5,-291 1436.5,-291 1436.5,-291 1436.5,-233 1436.5,-178.231 1416.6,-115.802 1405.6,-85.479"/>
<polygon fill="midnightblue" stroke="midnightblue" points="1408.78,-83.9808 1402.01,-75.8335 1402.22,-86.4262 1408.78,-83.9808"/>
</g>
<!-- Node38 -->
<g id="node38" class="node"><title>Node38</title>
<g id="a_node38"><a xlink:href="cosmos-errno_8h.html" target="_top" xlink:title="COSMOS Error Codes. ">
<polygon fill="white" stroke="black" points="942,-336.5 942,-355.5 1061,-355.5 1061,-336.5 942,-336.5"/>
<text text-anchor="middle" x="1001.5" y="-343.5" font-family="Helvetica,sans-Serif" font-size="10.00">support/cosmos&#45;errno.h</text>
</a>
</g>
</g>
<!-- Node37&#45;&gt;Node38 -->
<g id="edge44" class="edge"><title>Node37&#45;&gt;Node38</title>
<path fill="none" stroke="midnightblue" d="M1123.52,-392.444C1099.34,-383.438 1061.08,-369.189 1033.85,-359.049"/>
<polygon fill="midnightblue" stroke="midnightblue" points="1034.96,-355.727 1024.37,-355.516 1032.52,-362.286 1034.96,-355.727"/>
</g>
<!-- Node40 -->
<g id="node40" class="node"><title>Node40</title>
<g id="a_node40"><a xlink:href="math_2constants_8h.html" target="_top" xlink:title="constants.h">
<polygon fill="white" stroke="black" points="1225.5,-168.5 1225.5,-187.5 1293.5,-187.5 1293.5,-168.5 1225.5,-168.5"/>
<text text-anchor="middle" x="1259.5" y="-175.5" font-family="Helvetica,sans-Serif" font-size="10.00">constants.h</text>
</a>
</g>
</g>
<!-- Node37&#45;&gt;Node40 -->
<g id="edge47" class="edge"><title>Node37&#45;&gt;Node40</title>
<path fill="none" stroke="midnightblue" d="M1161.1,-392.406C1173.48,-384.422 1190.88,-371.455 1201.5,-356 1236.38,-305.238 1251.47,-232.031 1256.9,-197.878"/>
<polygon fill="midnightblue" stroke="midnightblue" points="1260.38,-198.288 1258.39,-187.882 1253.46,-197.257 1260.38,-198.288"/>
</g>
<!-- Node41 -->
<g id="node41" class="node"><title>Node41</title>
<g id="a_node41"><a xlink:href="vector_8h.html" target="_top" xlink:title="vector.h">
<polygon fill="white" stroke="black" points="1177.5,-224.5 1177.5,-243.5 1229.5,-243.5 1229.5,-224.5 1177.5,-224.5"/>
<text text-anchor="middle" x="1203.5" y="-231.5" font-family="Helvetica,sans-Serif" font-size="10.00">vector.h</text>
</a>
</g>
</g>
<!-- Node37&#45;&gt;Node41 -->
<g id="edge50" class="edge"><title>Node37&#45;&gt;Node41</title>
<path fill="none" stroke="midnightblue" d="M1156.04,-392.342C1164.67,-383.935 1176.98,-370.368 1183.5,-356 1198.84,-322.189 1202.56,-278.295 1203.38,-253.744"/>
<polygon fill="midnightblue" stroke="midnightblue" points="1206.88,-253.72 1203.58,-243.652 1199.88,-253.58 1206.88,-253.72"/>
</g>
<!-- Node43 -->
<g id="node43" class="node"><title>Node43</title>
<g id="a_node43"><a xlink:href="matrix_8h.html" target="_top" xlink:title="matrix.h">
<polygon fill="white" stroke="black" points="1082.5,-280.5 1082.5,-299.5 1134.5,-299.5 1134.5,-280.5 1082.5,-280.5"/>
<text text-anchor="middle" x="1108.5" y="-287.5" font-family="Helvetica,sans-Serif" font-size="10.00">matrix.h</text>
</a>
</g>
</g>
<!-- Node37&#45;&gt;Node43 -->
<g id="edge57" class="edge"><title>Node37&#45;&gt;Node43</title>
<path fill="none" stroke="midnightblue" d="M1135.79,-392.305C1126.56,-384.069 1113.91,-370.789 1108.5,-356 1103.1,-341.245 1103.58,-323.315 1105.13,-310.027"/>
<polygon fill="midnightblue" stroke="midnightblue" points="1108.65,-310.146 1106.66,-299.741 1101.73,-309.12 1108.65,-310.146"/>
</g>
<!-- Node44 -->
<g id="node44" class="node"><title>Node44</title>
<g id="a_node44"><a xlink:href="rotation_8h.html" target="_top" xlink:title="rotation.h">
<polygon fill="white" stroke="black" points="1118,-336.5 1118,-355.5 1175,-355.5 1175,-336.5 1118,-336.5"/>
<text text-anchor="middle" x="1146.5" y="-343.5" font-family="Helvetica,sans-Serif" font-size="10.00">rotation.h</text>
</a>
</g>
</g>
<!-- Node37&#45;&gt;Node44 -->
<g id="edge60" class="edge"><title>Node37&#45;&gt;Node44</title>
<path fill="none" stroke="midnightblue" d="M1146.5,-392.083C1146.5,-385.006 1146.5,-374.861 1146.5,-365.986"/>
<polygon fill="midnightblue" stroke="midnightblue" points="1150,-365.751 1146.5,-355.751 1143,-365.751 1150,-365.751"/>
</g>
<!-- Node38&#45;&gt;Node11 -->
<g id="edge45" class="edge"><title>Node38&#45;&gt;Node11</title>
<path fill="none" stroke="midnightblue" d="M993.765,-336.253C986.418,-327.57 975.485,-313.621 968.5,-300 940.346,-245.097 959.873,-219.24 925.5,-168 917.515,-156.096 905.533,-145.553 894.982,-137.67"/>
<polygon fill="midnightblue" stroke="midnightblue" points="896.754,-134.636 886.574,-131.702 892.702,-140.344 896.754,-134.636"/>
</g>
<!-- Node39 -->
<g id="node39" class="node"><title>Node39</title>
<polygon fill="white" stroke="#bfbfbf" points="978,-280.5 978,-299.5 1025,-299.5 1025,-280.5 978,-280.5"/>
<text text-anchor="middle" x="1001.5" y="-287.5" font-family="Helvetica,sans-Serif" font-size="10.00">errno.h</text>
</g>
<!-- Node38&#45;&gt;Node39 -->
<g id="edge46" class="edge"><title>Node38&#45;&gt;Node39</title>
<path fill="none" stroke="midnightblue" d="M1001.5,-336.083C1001.5,-329.006 1001.5,-318.861 1001.5,-309.986"/>
<polygon fill="midnightblue" stroke="midnightblue" points="1005,-309.751 1001.5,-299.751 998,-309.751 1005,-309.751"/>
</g>
<!-- Node40&#45;&gt;Node11 -->
<g id="edge48" class="edge"><title>Node40&#45;&gt;Node11</title>
<path fill="none" stroke="midnightblue" d="M1225.28,-169.592C1222.31,-169.025 1219.36,-168.485 1216.5,-168 1122.83,-152.095 1013.99,-138.705 944.233,-130.77"/>
<polygon fill="midnightblue" stroke="midnightblue" points="944.561,-127.284 934.231,-129.639 943.775,-134.24 944.561,-127.284"/>
</g>
<!-- Node40&#45;&gt;Node14 -->
<g id="edge49" class="edge"><title>Node40&#45;&gt;Node14</title>
<path fill="none" stroke="midnightblue" d="M1262.09,-168.368C1267.44,-150.537 1279.81,-109.295 1287.02,-85.2717"/>
<polygon fill="midnightblue" stroke="midnightblue" points="1290.4,-86.1754 1289.92,-75.5914 1283.7,-84.1639 1290.4,-86.1754"/>
</g>
<!-- Node41&#45;&gt;Node11 -->
<g id="edge51" class="edge"><title>Node41&#45;&gt;Node11</title>
<path fill="none" stroke="midnightblue" d="M1193.41,-224.302C1176.46,-210.174 1140.65,-182.375 1105.5,-168 1053.81,-146.86 991.532,-135.491 944.372,-129.472"/>
<polygon fill="midnightblue" stroke="midnightblue" points="944.596,-125.973 934.245,-128.231 943.745,-132.921 944.596,-125.973"/>
</g>
<!-- Node41&#45;&gt;Node21 -->
<g id="edge55" class="edge"><title>Node41&#45;&gt;Node21</title>
<path fill="none" stroke="midnightblue" d="M1229.56,-229.864C1261.72,-225.032 1317.11,-213.504 1357.5,-188 1401.18,-160.419 1437.72,-110.223 1454.92,-83.9932"/>
<polygon fill="midnightblue" stroke="midnightblue" points="1457.92,-85.8089 1460.36,-75.5003 1452.02,-82.0337 1457.92,-85.8089"/>
</g>
<!-- Node41&#45;&gt;Node23 -->
<g id="edge53" class="edge"><title>Node41&#45;&gt;Node23</title>
<path fill="none" stroke="midnightblue" d="M1229.63,-230.066C1258.75,-225.572 1305.77,-214.51 1336.5,-188 1353.29,-173.519 1378.82,-115.137 1391.23,-85.0802"/>
<polygon fill="midnightblue" stroke="midnightblue" points="1394.5,-86.3297 1395.03,-75.7483 1388.02,-83.687 1394.5,-86.3297"/>
</g>
<!-- Node41&#45;&gt;Node27 -->
<g id="edge56" class="edge"><title>Node41&#45;&gt;Node27</title>
<path fill="none" stroke="midnightblue" d="M1229.54,-228.123C1252.3,-222.458 1284.47,-210.806 1302.5,-188 1333.96,-148.208 1319.59,-126.491 1324.5,-76 1325.36,-67.1529 1329.05,-63.6378 1324.5,-56 1313.41,-37.3758 1291.63,-25.9852 1273.17,-19.3246"/>
<polygon fill="midnightblue" stroke="midnightblue" points="1274.21,-15.9818 1263.61,-16.1772 1272.01,-22.6304 1274.21,-15.9818"/>
</g>
<!-- Node41&#45;&gt;Node40 -->
<g id="edge52" class="edge"><title>Node41&#45;&gt;Node40</title>
<path fill="none" stroke="midnightblue" d="M1212.5,-224.324C1220.69,-216.42 1233.01,-204.548 1242.97,-194.938"/>
<polygon fill="midnightblue" stroke="midnightblue" points="1245.57,-197.295 1250.34,-187.834 1240.71,-192.256 1245.57,-197.295"/>
</g>
<!-- Node42 -->
<g id="node42" class="node"><title>Node42</title>
<polygon fill="white" stroke="#bfbfbf" points="1157.5,-168.5 1157.5,-187.5 1207.5,-187.5 1207.5,-168.5 1157.5,-168.5"/>
<text text-anchor="middle" x="1182.5" y="-175.5" font-family="Helvetica,sans-Serif" font-size="10.00">iomanip</text>
</g>
<!-- Node41&#45;&gt;Node42 -->
<g id="edge54" class="edge"><title>Node41&#45;&gt;Node42</title>
<path fill="none" stroke="midnightblue" d="M1200.03,-224.083C1197.19,-216.77 1193.07,-206.181 1189.54,-197.103"/>
<polygon fill="midnightblue" stroke="midnightblue" points="1192.79,-195.803 1185.9,-187.751 1186.27,-198.34 1192.79,-195.803"/>
</g>
<!-- Node43&#45;&gt;Node11 -->
<g id="edge58" class="edge"><title>Node43&#45;&gt;Node11</title>
<path fill="none" stroke="midnightblue" d="M1108.3,-280.464C1107.28,-258.325 1101.38,-198.655 1067.5,-168 1049.34,-151.569 992.048,-139.589 944.229,-132.139"/>
<polygon fill="midnightblue" stroke="midnightblue" points="944.598,-128.655 934.187,-130.619 943.55,-135.577 944.598,-128.655"/>
</g>
<!-- Node43&#45;&gt;Node41 -->
<g id="edge59" class="edge"><title>Node43&#45;&gt;Node41</title>
<path fill="none" stroke="midnightblue" d="M1123.76,-280.324C1138.72,-271.822 1161.75,-258.729 1179.23,-248.797"/>
<polygon fill="midnightblue" stroke="midnightblue" points="1181.31,-251.639 1188.27,-243.655 1177.85,-245.553 1181.31,-251.639"/>
</g>
<!-- Node44&#45;&gt;Node11 -->
<g id="edge61" class="edge"><title>Node44&#45;&gt;Node11</title>
<path fill="none" stroke="midnightblue" d="M1130.08,-336.422C1114.76,-328.072 1091.61,-314.543 1073.5,-300 1009.78,-248.831 1009.22,-219.169 945.5,-168 930.645,-156.071 912.4,-144.823 897.867,-136.557"/>
<polygon fill="midnightblue" stroke="midnightblue" points="899.364,-133.385 888.925,-131.578 895.959,-139.501 899.364,-133.385"/>
</g>
<!-- Node44&#45;&gt;Node41 -->
<g id="edge62" class="edge"><title>Node44&#45;&gt;Node41</title>
<path fill="none" stroke="midnightblue" d="M1150.97,-336.368C1160.3,-318.376 1181.97,-276.55 1194.37,-252.627"/>
<polygon fill="midnightblue" stroke="midnightblue" points="1197.55,-254.081 1199.05,-243.591 1191.34,-250.86 1197.55,-254.081"/>
</g>
<!-- Node44&#45;&gt;Node43 -->
<g id="edge63" class="edge"><title>Node44&#45;&gt;Node43</title>
<path fill="none" stroke="midnightblue" d="M1140.23,-336.083C1134.86,-328.455 1126.98,-317.264 1120.42,-307.941"/>
<polygon fill="midnightblue" stroke="midnightblue" points="1123.28,-305.915 1114.66,-299.751 1117.55,-309.943 1123.28,-305.915"/>
</g>
<!-- Node45&#45;&gt;Node11 -->
<g id="edge67" class="edge"><title>Node45&#45;&gt;Node11</title>
<path fill="none" stroke="midnightblue" d="M910.521,-448.328C898.706,-430.318 873.5,-387.189 873.5,-347 873.5,-347 873.5,-347 873.5,-233 873.5,-200.947 873.07,-163.642 872.774,-141.748"/>
<polygon fill="midnightblue" stroke="midnightblue" points="876.271,-141.507 872.631,-131.558 869.272,-141.606 876.271,-141.507"/>
</g>
<!-- Node45&#45;&gt;Node37 -->
<g id="edge68" class="edge"><title>Node45&#45;&gt;Node37</title>
<path fill="none" stroke="midnightblue" d="M952.944,-448.444C992.899,-439.063 1057.09,-423.993 1100.48,-413.804"/>
<polygon fill="midnightblue" stroke="midnightblue" points="1101.29,-417.21 1110.23,-411.516 1099.69,-410.395 1101.29,-417.21"/>
</g>
</g>
</svg>
