<?xml version="1.0" encoding="UTF-8" standalone="no"?>
<!DOCTYPE svg PUBLIC "-//W3C//DTD SVG 1.1//EN"
 "http://www.w3.org/Graphics/SVG/1.1/DTD/svg11.dtd">
<!-- Generated by graphviz version 2.38.0 (20140413.2041)
 -->
<!-- Title: constants.h Pages: 1 -->
<!--zoomable 196 -->
<svg id="main" version="1.1" xmlns="http://www.w3.org/2000/svg" xmlns:xlink="http://www.w3.org/1999/xlink" xml:space="preserve" onload="init(evt)">
<style type="text/css"><![CDATA[
.edge:hover path { stroke: red; }
.edge:hover polygon { stroke: red; fill: red; }
]]></style>
<script type="text/javascript"><![CDATA[
var edges = document.getElementsByTagName('g');
if (edges && edges.length) {
  for (var i=0;i<edges.length;i++) {
    if (edges[i].id.substr(0,4)=='edge') {
      edges[i].setAttribute('class','edge');
    }
  }
}
]]></script>
        <defs>
                <circle id="rim" cx="0" cy="0" r="7"/>
                <circle id="rim2" cx="0" cy="0" r="3.5"/>
                <g id="zoomPlus">
                        <use xlink:href="#rim" fill="#404040">
                                <set attributeName="fill" to="#808080" begin="zoomplus.mouseover" end="zoomplus.mouseout"/>
                        </use>
                        <path d="M-4,0h8M0,-4v8" fill="none" stroke="white" stroke-width="1.5" pointer-events="none"/>
                </g>
                <g id="zoomMin">
                        <use xlink:href="#rim" fill="#404040">
                                <set attributeName="fill" to="#808080" begin="zoomminus.mouseover" end="zoomminus.mouseout"/>
                        </use>
                        <path d="M-4,0h8" fill="none" stroke="white" stroke-width="1.5" pointer-events="none"/>
                </g>
                <g id="dirArrow">
                        <path fill="none" stroke="white" stroke-width="1.5" d="M0,-3.0v7 M-2.5,-0.5L0,-3.0L2.5,-0.5"/>
                </g>
               <g id="resetDef">
                       <use xlink:href="#rim2" fill="#404040">
                               <set attributeName="fill" to="#808080" begin="reset.mouseover" end="reset.mouseout"/>
                       </use>
               </g>
        </defs>

<script type="text/javascript">
var viewWidth = 1459;
var viewHeight = 196;
var sectionId = 'dynsection-0';
</script>
<script xlink:href="svgpan.js"/>
<svg id="graph" class="graph">
<g id="viewport">
<title>constants.h</title>
<polygon fill="white" stroke="none" points="-4,4 -4,-192 1455,-192 1455,4 -4,4"/>
<!-- Node1 -->
<g id="node1" class="node"><title>Node1</title>
<polygon fill="#bfbfbf" stroke="black" points="499,-168.5 499,-187.5 567,-187.5 567,-168.5 499,-168.5"/>
<text text-anchor="middle" x="533" y="-175.5" font-family="Helvetica,sans-Serif" font-size="10.00">constants.h</text>
</g>
<!-- Node2 -->
<g id="node2" class="node"><title>Node2</title>
<g id="a_node2"><a xlink:href="config_cosmos_8h.html" target="_top" xlink:title="Headers and definitions common to all COSMOS. ">
<polygon fill="white" stroke="black" points="671.5,-112.5 671.5,-131.5 794.5,-131.5 794.5,-112.5 671.5,-112.5"/>
<text text-anchor="middle" x="733" y="-119.5" font-family="Helvetica,sans-Serif" font-size="10.00">support/configCosmos.h</text>
</a>
</g>
</g>
<!-- Node1&#45;&gt;Node2 -->
<g id="edge1" class="edge"><title>Node1&#45;&gt;Node2</title>
<path fill="none" stroke="midnightblue" d="M564.691,-168.444C599.068,-159.162 654.077,-144.309 691.789,-134.127"/>
<polygon fill="midnightblue" stroke="midnightblue" points="692.716,-137.502 701.458,-131.516 690.891,-130.744 692.716,-137.502"/>
</g>
<!-- Node5 -->
<g id="node5" class="node"><title>Node5</title>
<polygon fill="white" stroke="#bfbfbf" points="0,-56.5 0,-75.5 46,-75.5 46,-56.5 0,-56.5"/>
<text text-anchor="middle" x="23" y="-63.5" font-family="Helvetica,sans-Serif" font-size="10.00">cstdint</text>
</g>
<!-- Node1&#45;&gt;Node5 -->
<g id="edge33" class="edge"><title>Node1&#45;&gt;Node5</title>
<path fill="none" stroke="midnightblue" d="M498.921,-170.601C421.768,-155.942 227.723,-118.112 55.7529,-76.0606"/>
<polygon fill="midnightblue" stroke="midnightblue" points="56.5702,-72.6574 46.024,-73.6712 54.9006,-79.4554 56.5702,-72.6574"/>
</g>
<!-- Node3 -->
<g id="node3" class="node"><title>Node3</title>
<polygon fill="white" stroke="#bfbfbf" points="1266.5,-56.5 1266.5,-75.5 1311.5,-75.5 1311.5,-56.5 1266.5,-56.5"/>
<text text-anchor="middle" x="1289" y="-63.5" font-family="Helvetica,sans-Serif" font-size="10.00">climits</text>
</g>
<!-- Node2&#45;&gt;Node3 -->
<g id="edge2" class="edge"><title>Node2&#45;&gt;Node3</title>
<path fill="none" stroke="midnightblue" d="M794.808,-119.458C891.447,-116.221 1084.19,-106.446 1256.39,-75.7381"/>
<polygon fill="midnightblue" stroke="midnightblue" points="1257.18,-79.1522 1266.4,-73.9259 1255.93,-72.2643 1257.18,-79.1522"/>
</g>
<!-- Node4 -->
<g id="node4" class="node"><title>Node4</title>
<polygon fill="white" stroke="#bfbfbf" points="1329.5,-56.5 1329.5,-75.5 1376.5,-75.5 1376.5,-56.5 1329.5,-56.5"/>
<text text-anchor="middle" x="1353" y="-63.5" font-family="Helvetica,sans-Serif" font-size="10.00">csignal</text>
</g>
<!-- Node2&#45;&gt;Node4 -->
<g id="edge3" class="edge"><title>Node2&#45;&gt;Node4</title>
<path fill="none" stroke="midnightblue" d="M794.874,-120.275C900.805,-118.158 1123.66,-109.89 1319.46,-75.9535"/>
<polygon fill="midnightblue" stroke="midnightblue" points="1320.11,-79.3929 1329.36,-74.2128 1318.9,-72.4988 1320.11,-79.3929"/>
</g>
<!-- Node2&#45;&gt;Node5 -->
<g id="edge4" class="edge"><title>Node2&#45;&gt;Node5</title>
<path fill="none" stroke="midnightblue" d="M671.26,-121.175C553.197,-120.584 287.345,-114.786 56.2273,-75.8528"/>
<polygon fill="midnightblue" stroke="midnightblue" points="56.7371,-72.3893 46.2904,-74.1546 55.5578,-79.2893 56.7371,-72.3893"/>
</g>
<!-- Node6 -->
<g id="node6" class="node"><title>Node6</title>
<polygon fill="white" stroke="#bfbfbf" points="1395,-56.5 1395,-75.5 1451,-75.5 1451,-56.5 1395,-56.5"/>
<text text-anchor="middle" x="1423" y="-63.5" font-family="Helvetica,sans-Serif" font-size="10.00">cinttypes</text>
</g>
<!-- Node2&#45;&gt;Node6 -->
<g id="edge5" class="edge"><title>Node2&#45;&gt;Node6</title>
<path fill="none" stroke="midnightblue" d="M794.604,-120.232C909.179,-118.047 1162.82,-109.655 1384.93,-75.8999"/>
<polygon fill="midnightblue" stroke="midnightblue" points="1385.47,-79.359 1394.82,-74.3775 1384.4,-72.4406 1385.47,-79.359"/>
</g>
<!-- Node7 -->
<g id="node7" class="node"><title>Node7</title>
<polygon fill="white" stroke="#bfbfbf" points="64.5,-56.5 64.5,-75.5 107.5,-75.5 107.5,-56.5 64.5,-56.5"/>
<text text-anchor="middle" x="86" y="-63.5" font-family="Helvetica,sans-Serif" font-size="10.00">cstdio</text>
</g>
<!-- Node2&#45;&gt;Node7 -->
<g id="edge6" class="edge"><title>Node2&#45;&gt;Node7</title>
<path fill="none" stroke="midnightblue" d="M671.133,-120.939C561.151,-119.864 324.476,-113.182 117.942,-75.999"/>
<polygon fill="midnightblue" stroke="midnightblue" points="118.286,-72.504 107.82,-74.1475 117.027,-79.3897 118.286,-72.504"/>
</g>
<!-- Node8 -->
<g id="node8" class="node"><title>Node8</title>
<polygon fill="white" stroke="#bfbfbf" points="125.5,-56.5 125.5,-75.5 174.5,-75.5 174.5,-56.5 125.5,-56.5"/>
<text text-anchor="middle" x="150" y="-63.5" font-family="Helvetica,sans-Serif" font-size="10.00">cstddef</text>
</g>
<!-- Node2&#45;&gt;Node8 -->
<g id="edge7" class="edge"><title>Node2&#45;&gt;Node8</title>
<path fill="none" stroke="midnightblue" d="M671.489,-119.664C571.168,-116.676 366.09,-107.192 184.74,-76.0209"/>
<polygon fill="midnightblue" stroke="midnightblue" points="185.208,-72.5497 174.755,-74.2783 184.004,-79.4455 185.208,-72.5497"/>
</g>
<!-- Node9 -->
<g id="node9" class="node"><title>Node9</title>
<polygon fill="white" stroke="#bfbfbf" points="192.5,-56.5 192.5,-75.5 237.5,-75.5 237.5,-56.5 192.5,-56.5"/>
<text text-anchor="middle" x="215" y="-63.5" font-family="Helvetica,sans-Serif" font-size="10.00">cstdlib</text>
</g>
<!-- Node2&#45;&gt;Node9 -->
<g id="edge8" class="edge"><title>Node2&#45;&gt;Node9</title>
<path fill="none" stroke="midnightblue" d="M671.131,-118.872C580.213,-114.953 405.171,-104.393 247.486,-75.7311"/>
<polygon fill="midnightblue" stroke="midnightblue" points="248.075,-72.2807 237.606,-73.9069 246.804,-79.1643 248.075,-72.2807"/>
</g>
<!-- Node10 -->
<g id="node10" class="node"><title>Node10</title>
<polygon fill="white" stroke="#bfbfbf" points="256,-56.5 256,-75.5 300,-75.5 300,-56.5 256,-56.5"/>
<text text-anchor="middle" x="278" y="-63.5" font-family="Helvetica,sans-Serif" font-size="10.00">cerrno</text>
</g>
<!-- Node2&#45;&gt;Node10 -->
<g id="edge9" class="edge"><title>Node2&#45;&gt;Node10</title>
<path fill="none" stroke="midnightblue" d="M671.405,-117.885C590.463,-113.033 443.851,-101.638 310.24,-75.9234"/>
<polygon fill="midnightblue" stroke="midnightblue" points="310.721,-72.4511 300.235,-73.9658 309.377,-79.3209 310.721,-72.4511"/>
</g>
<!-- Node11 -->
<g id="node11" class="node"><title>Node11</title>
<polygon fill="white" stroke="#bfbfbf" points="318,-56.5 318,-75.5 364,-75.5 364,-56.5 318,-56.5"/>
<text text-anchor="middle" x="341" y="-63.5" font-family="Helvetica,sans-Serif" font-size="10.00">cstring</text>
</g>
<!-- Node2&#45;&gt;Node11 -->
<g id="edge10" class="edge"><title>Node2&#45;&gt;Node11</title>
<path fill="none" stroke="midnightblue" d="M671.398,-116.129C601.46,-109.966 483.865,-97.6924 374.224,-75.9858"/>
<polygon fill="midnightblue" stroke="midnightblue" points="374.814,-72.5344 364.32,-73.9946 373.434,-79.3971 374.814,-72.5344"/>
</g>
<!-- Node12 -->
<g id="node12" class="node"><title>Node12</title>
<polygon fill="white" stroke="#bfbfbf" points="382,-56.5 382,-75.5 426,-75.5 426,-56.5 382,-56.5"/>
<text text-anchor="middle" x="404" y="-63.5" font-family="Helvetica,sans-Serif" font-size="10.00">cmath</text>
</g>
<!-- Node2&#45;&gt;Node12 -->
<g id="edge11" class="edge"><title>Node2&#45;&gt;Node12</title>
<path fill="none" stroke="midnightblue" d="M671.45,-113.933C613.283,-106.743 523.456,-94.3255 436.103,-75.7632"/>
<polygon fill="midnightblue" stroke="midnightblue" points="436.804,-72.334 426.291,-73.6497 435.33,-79.1771 436.804,-72.334"/>
</g>
<!-- Node13 -->
<g id="node13" class="node"><title>Node13</title>
<polygon fill="white" stroke="#bfbfbf" points="444.5,-56.5 444.5,-75.5 489.5,-75.5 489.5,-56.5 444.5,-56.5"/>
<text text-anchor="middle" x="467" y="-63.5" font-family="Helvetica,sans-Serif" font-size="10.00">iosfwd</text>
</g>
<!-- Node2&#45;&gt;Node13 -->
<g id="edge12" class="edge"><title>Node2&#45;&gt;Node13</title>
<path fill="none" stroke="midnightblue" d="M682.07,-112.48C636.722,-104.607 568.382,-92.043 499.784,-76.0181"/>
<polygon fill="midnightblue" stroke="midnightblue" points="500.201,-72.5202 489.664,-73.6288 498.592,-79.3329 500.201,-72.5202"/>
</g>
<!-- Node14 -->
<g id="node14" class="node"><title>Node14</title>
<polygon fill="white" stroke="#bfbfbf" points="508,-56.5 508,-75.5 562,-75.5 562,-56.5 508,-56.5"/>
<text text-anchor="middle" x="535" y="-63.5" font-family="Helvetica,sans-Serif" font-size="10.00">iostream</text>
</g>
<!-- Node2&#45;&gt;Node14 -->
<g id="edge13" class="edge"><title>Node2&#45;&gt;Node14</title>
<path fill="none" stroke="midnightblue" d="M701.626,-112.444C666.442,-102.848 609.427,-87.2984 572.071,-77.1104"/>
<polygon fill="midnightblue" stroke="midnightblue" points="572.659,-73.643 562.091,-74.3884 570.818,-80.3963 572.659,-73.643"/>
</g>
<!-- Node15 -->
<g id="node15" class="node"><title>Node15</title>
<polygon fill="white" stroke="#bfbfbf" points="580.5,-56.5 580.5,-75.5 631.5,-75.5 631.5,-56.5 580.5,-56.5"/>
<text text-anchor="middle" x="606" y="-63.5" font-family="Helvetica,sans-Serif" font-size="10.00">unistd.h</text>
</g>
<!-- Node2&#45;&gt;Node15 -->
<g id="edge14" class="edge"><title>Node2&#45;&gt;Node15</title>
<path fill="none" stroke="midnightblue" d="M712.876,-112.444C691.976,-103.557 659.065,-89.5632 635.284,-79.4514"/>
<polygon fill="midnightblue" stroke="midnightblue" points="636.602,-76.2085 626.029,-75.5164 633.862,-82.6504 636.602,-76.2085"/>
</g>
<!-- Node16 -->
<g id="node16" class="node"><title>Node16</title>
<polygon fill="white" stroke="#bfbfbf" points="650,-56.5 650,-75.5 694,-75.5 694,-56.5 650,-56.5"/>
<text text-anchor="middle" x="672" y="-63.5" font-family="Helvetica,sans-Serif" font-size="10.00">fcntl.h</text>
</g>
<!-- Node2&#45;&gt;Node16 -->
<g id="edge15" class="edge"><title>Node2&#45;&gt;Node16</title>
<path fill="none" stroke="midnightblue" d="M723.199,-112.324C714.182,-104.341 700.594,-92.3128 689.682,-82.6529"/>
<polygon fill="midnightblue" stroke="midnightblue" points="691.787,-79.8416 681.979,-75.8339 687.147,-85.083 691.787,-79.8416"/>
</g>
<!-- Node17 -->
<g id="node17" class="node"><title>Node17</title>
<polygon fill="white" stroke="#bfbfbf" points="712.5,-56.5 712.5,-75.5 753.5,-75.5 753.5,-56.5 712.5,-56.5"/>
<text text-anchor="middle" x="733" y="-63.5" font-family="Helvetica,sans-Serif" font-size="10.00">string</text>
</g>
<!-- Node2&#45;&gt;Node17 -->
<g id="edge16" class="edge"><title>Node2&#45;&gt;Node17</title>
<path fill="none" stroke="midnightblue" d="M733,-112.083C733,-105.006 733,-94.8611 733,-85.9865"/>
<polygon fill="midnightblue" stroke="midnightblue" points="736.5,-85.751 733,-75.7511 729.5,-85.7511 736.5,-85.751"/>
</g>
<!-- Node18 -->
<g id="node18" class="node"><title>Node18</title>
<polygon fill="white" stroke="#bfbfbf" points="736,-0.5 736,-19.5 780,-19.5 780,-0.5 736,-0.5"/>
<text text-anchor="middle" x="758" y="-7.5" font-family="Helvetica,sans-Serif" font-size="10.00">vector</text>
</g>
<!-- Node2&#45;&gt;Node18 -->
<g id="edge17" class="edge"><title>Node2&#45;&gt;Node18</title>
<path fill="none" stroke="midnightblue" d="M741.214,-112.182C748.544,-103.663 758.755,-90.0191 763,-76 767.612,-60.7669 765.649,-42.6557 762.942,-29.425"/>
<polygon fill="midnightblue" stroke="midnightblue" points="766.332,-28.5533 760.621,-19.6294 759.521,-30.1669 766.332,-28.5533"/>
</g>
<!-- Node19 -->
<g id="node19" class="node"><title>Node19</title>
<polygon fill="white" stroke="#bfbfbf" points="1134.5,-56.5 1134.5,-75.5 1177.5,-75.5 1177.5,-56.5 1134.5,-56.5"/>
<text text-anchor="middle" x="1156" y="-63.5" font-family="Helvetica,sans-Serif" font-size="10.00">deque</text>
</g>
<!-- Node2&#45;&gt;Node19 -->
<g id="edge18" class="edge"><title>Node2&#45;&gt;Node19</title>
<path fill="none" stroke="midnightblue" d="M794.692,-116.302C871.372,-109.895 1006.05,-96.7797 1120,-76 1121.47,-75.7327 1122.96,-75.4403 1124.47,-75.1295"/>
<polygon fill="midnightblue" stroke="midnightblue" points="1125.42,-78.5032 1134.4,-72.8819 1123.87,-71.6759 1125.42,-78.5032"/>
</g>
<!-- Node20 -->
<g id="node20" class="node"><title>Node20</title>
<polygon fill="white" stroke="#bfbfbf" points="798,-0.5 798,-19.5 842,-19.5 842,-0.5 798,-0.5"/>
<text text-anchor="middle" x="820" y="-7.5" font-family="Helvetica,sans-Serif" font-size="10.00">mutex</text>
</g>
<!-- Node2&#45;&gt;Node20 -->
<g id="edge19" class="edge"><title>Node2&#45;&gt;Node20</title>
<path fill="none" stroke="midnightblue" d="M742.912,-112.235C752.459,-103.538 767.03,-89.579 778,-76 790.23,-60.8623 802.066,-42.0462 810.038,-28.5601"/>
<polygon fill="midnightblue" stroke="midnightblue" points="813.123,-30.2175 815.111,-19.8109 807.067,-26.7062 813.123,-30.2175"/>
</g>
<!-- Node21 -->
<g id="node21" class="node"><title>Node21</title>
<polygon fill="white" stroke="#bfbfbf" points="860,-0.5 860,-19.5 904,-19.5 904,-0.5 860,-0.5"/>
<text text-anchor="middle" x="882" y="-7.5" font-family="Helvetica,sans-Serif" font-size="10.00">thread</text>
</g>
<!-- Node2&#45;&gt;Node21 -->
<g id="edge20" class="edge"><title>Node2&#45;&gt;Node21</title>
<path fill="none" stroke="midnightblue" d="M746.092,-112.235C759.321,-103.309 780.282,-88.9742 798,-76 820.804,-59.3013 846.415,-39.2964 863.296,-25.9312"/>
<polygon fill="midnightblue" stroke="midnightblue" points="865.613,-28.5604 871.266,-19.6 861.259,-23.0791 865.613,-28.5604"/>
</g>
<!-- Node22 -->
<g id="node22" class="node"><title>Node22</title>
<polygon fill="white" stroke="#bfbfbf" points="968.5,-0.5 968.5,-19.5 1063.5,-19.5 1063.5,-0.5 968.5,-0.5"/>
<text text-anchor="middle" x="1016" y="-7.5" font-family="Helvetica,sans-Serif" font-size="10.00">condition_variable</text>
</g>
<!-- Node2&#45;&gt;Node22 -->
<g id="edge21" class="edge"><title>Node2&#45;&gt;Node22</title>
<path fill="none" stroke="midnightblue" d="M794.595,-119.615C867.5,-116.568 982.621,-106.86 1011,-76 1022.23,-63.7848 1022.24,-44.2391 1020.19,-29.7673"/>
<polygon fill="midnightblue" stroke="midnightblue" points="1023.63,-29.0988 1018.38,-19.895 1016.74,-30.3626 1023.63,-29.0988"/>
</g>
<!-- Node23 -->
<g id="node23" class="node"><title>Node23</title>
<polygon fill="white" stroke="#bfbfbf" points="1081.5,-0.5 1081.5,-19.5 1124.5,-19.5 1124.5,-0.5 1081.5,-0.5"/>
<text text-anchor="middle" x="1103" y="-7.5" font-family="Helvetica,sans-Serif" font-size="10.00">queue</text>
</g>
<!-- Node2&#45;&gt;Node23 -->
<g id="edge22" class="edge"><title>Node2&#45;&gt;Node23</title>
<path fill="none" stroke="midnightblue" d="M794.559,-121.581C856.528,-119.937 953.489,-111.163 1029,-76 1053.33,-64.6716 1075.64,-42.8047 1089.26,-27.5777"/>
<polygon fill="midnightblue" stroke="midnightblue" points="1092,-29.7631 1095.89,-19.9104 1086.71,-25.1834 1092,-29.7631"/>
</g>
<!-- Node24 -->
<g id="node24" class="node"><title>Node24</title>
<polygon fill="white" stroke="#bfbfbf" points="1196,-56.5 1196,-75.5 1248,-75.5 1248,-56.5 1196,-56.5"/>
<text text-anchor="middle" x="1222" y="-63.5" font-family="Helvetica,sans-Serif" font-size="10.00">sstream</text>
</g>
<!-- Node2&#45;&gt;Node24 -->
<g id="edge23" class="edge"><title>Node2&#45;&gt;Node24</title>
<path fill="none" stroke="midnightblue" d="M794.724,-117.88C880.477,-112.883 1040.58,-101.158 1185.74,-75.9742"/>
<polygon fill="midnightblue" stroke="midnightblue" points="1186.48,-79.3979 1195.72,-74.2169 1185.27,-72.5039 1186.48,-79.3979"/>
</g>
<!-- Node25 -->
<g id="node25" class="node"><title>Node25</title>
<polygon fill="white" stroke="#bfbfbf" points="1142.5,-0.5 1142.5,-19.5 1177.5,-19.5 1177.5,-0.5 1142.5,-0.5"/>
<text text-anchor="middle" x="1160" y="-7.5" font-family="Helvetica,sans-Serif" font-size="10.00">map</text>
</g>
<!-- Node2&#45;&gt;Node25 -->
<g id="edge24" class="edge"><title>Node2&#45;&gt;Node25</title>
<path fill="none" stroke="midnightblue" d="M794.567,-120.132C861.159,-117.452 969.526,-107.978 1057,-76 1089.2,-64.2268 1121.94,-41.287 1141.61,-26.0519"/>
<polygon fill="midnightblue" stroke="midnightblue" points="1144.01,-28.6138 1149.68,-19.6619 1139.67,-23.1259 1144.01,-28.6138"/>
</g>
<!-- Node26 -->
<g id="node26" class="node"><title>Node26</title>
<g id="a_node26"><a xlink:href="cosmos-defs_8h.html" target="_top" xlink:title="COSMOS definitions Definitions specific to the COSMOS environement. ">
<polygon fill="white" stroke="black" points="886,-56.5 886,-75.5 1002,-75.5 1002,-56.5 886,-56.5"/>
<text text-anchor="middle" x="944" y="-63.5" font-family="Helvetica,sans-Serif" font-size="10.00">support/cosmos&#45;defs.h</text>
</a>
</g>
</g>
<!-- Node2&#45;&gt;Node26 -->
<g id="edge25" class="edge"><title>Node2&#45;&gt;Node26</title>
<path fill="none" stroke="midnightblue" d="M766.434,-112.444C802.856,-103.122 861.23,-88.1828 901.029,-77.9972"/>
<polygon fill="midnightblue" stroke="midnightblue" points="901.903,-81.3866 910.723,-75.5164 900.167,-74.6051 901.903,-81.3866"/>
</g>
<!-- Node26&#45;&gt;Node18 -->
<g id="edge27" class="edge"><title>Node26&#45;&gt;Node18</title>
<path fill="none" stroke="midnightblue" d="M914.528,-56.4435C880.498,-46.5639 824.731,-30.3734 789.76,-20.2208"/>
<polygon fill="midnightblue" stroke="midnightblue" points="790.633,-16.8296 780.053,-17.4026 788.681,-23.552 790.633,-16.8296"/>
</g>
<!-- Node26&#45;&gt;Node20 -->
<g id="edge31" class="edge"><title>Node26&#45;&gt;Node20</title>
<path fill="none" stroke="midnightblue" d="M924.352,-56.4435C904.035,-47.5961 872.097,-33.6875 848.902,-23.5865"/>
<polygon fill="midnightblue" stroke="midnightblue" points="850.122,-20.3002 839.556,-19.5164 847.327,-26.7181 850.122,-20.3002"/>
</g>
<!-- Node26&#45;&gt;Node21 -->
<g id="edge30" class="edge"><title>Node26&#45;&gt;Node21</title>
<path fill="none" stroke="midnightblue" d="M934.039,-56.324C924.873,-48.3414 911.063,-36.3128 899.972,-26.6529"/>
<polygon fill="midnightblue" stroke="midnightblue" points="901.982,-23.7624 892.143,-19.8339 897.385,-29.041 901.982,-23.7624"/>
</g>
<!-- Node26&#45;&gt;Node22 -->
<g id="edge32" class="edge"><title>Node26&#45;&gt;Node22</title>
<path fill="none" stroke="midnightblue" d="M955.568,-56.324C966.42,-48.1849 982.881,-35.8395 995.883,-26.0874"/>
<polygon fill="midnightblue" stroke="midnightblue" points="998.321,-28.6339 1004.22,-19.8339 994.121,-23.0339 998.321,-28.6339"/>
</g>
<!-- Node26&#45;&gt;Node23 -->
<g id="edge29" class="edge"><title>Node26&#45;&gt;Node23</title>
<path fill="none" stroke="midnightblue" d="M969.194,-56.4435C997.044,-46.985 1041.93,-31.7421 1071.93,-21.551"/>
<polygon fill="midnightblue" stroke="midnightblue" points="1073.15,-24.8342 1081.49,-18.3042 1070.9,-18.206 1073.15,-24.8342"/>
</g>
<!-- Node26&#45;&gt;Node25 -->
<g id="edge26" class="edge"><title>Node26&#45;&gt;Node25</title>
<path fill="none" stroke="midnightblue" d="M985.453,-56.4426C1022.04,-48.6094 1076.97,-36.1691 1132.77,-20.1564"/>
<polygon fill="midnightblue" stroke="midnightblue" points="1133.83,-23.4924 1142.45,-17.3417 1131.88,-16.7703 1133.83,-23.4924"/>
</g>
<!-- Node27 -->
<g id="node27" class="node"><title>Node27</title>
<polygon fill="white" stroke="#bfbfbf" points="921.5,-0.5 921.5,-19.5 950.5,-19.5 950.5,-0.5 921.5,-0.5"/>
<text text-anchor="middle" x="936" y="-7.5" font-family="Helvetica,sans-Serif" font-size="10.00">list</text>
</g>
<!-- Node26&#45;&gt;Node27 -->
<g id="edge28" class="edge"><title>Node26&#45;&gt;Node27</title>
<path fill="none" stroke="midnightblue" d="M942.679,-56.083C941.619,-48.9272 940.094,-38.6353 938.769,-29.6911"/>
<polygon fill="midnightblue" stroke="midnightblue" points="942.224,-29.1302 937.296,-19.7511 935.3,-30.1561 942.224,-29.1302"/>
</g>
</g>
</svg>
        <g id="navigator" transform="translate(0 0)" fill="#404254">
                <rect fill="#f2f5e9" fill-opacity="0.5" stroke="#606060" stroke-width=".5" x="0" y="0" width="60" height="60"/>
                <use id="zoomplus" xlink:href="#zoomPlus" x="17" y="9" onmousedown="handleZoom(evt,'in')"/>
                <use id="zoomminus" xlink:href="#zoomMin" x="42" y="9" onmousedown="handleZoom(evt,'out')"/>
                <use id="reset" xlink:href="#resetDef" x="30" y="36" onmousedown="handleReset()"/>
                <g id="arrowUp" xlink:href="#dirArrow" transform="translate(30 24)" onmousedown="handlePan(0,-1)">
                  <use xlink:href="#rim" fill="#404040">
                        <set attributeName="fill" to="#808080" begin="arrowUp.mouseover" end="arrowUp.mouseout"/>
                  </use>
                  <path fill="none" stroke="white" stroke-width="1.5" d="M0,-3.0v7 M-2.5,-0.5L0,-3.0L2.5,-0.5"/>
                </g>
                <g id="arrowRight" xlink:href="#dirArrow" transform="rotate(90) translate(36 -43)" onmousedown="handlePan(1,0)">
                  <use xlink:href="#rim" fill="#404040">
                        <set attributeName="fill" to="#808080" begin="arrowRight.mouseover" end="arrowRight.mouseout"/>
                  </use>
                  <path fill="none" stroke="white" stroke-width="1.5" d="M0,-3.0v7 M-2.5,-0.5L0,-3.0L2.5,-0.5"/>
                </g>
                <g id="arrowDown" xlink:href="#dirArrow" transform="rotate(180) translate(-30 -48)" onmousedown="handlePan(0,1)">
                  <use xlink:href="#rim" fill="#404040">
                        <set attributeName="fill" to="#808080" begin="arrowDown.mouseover" end="arrowDown.mouseout"/>
                  </use>
                  <path fill="none" stroke="white" stroke-width="1.5" d="M0,-3.0v7 M-2.5,-0.5L0,-3.0L2.5,-0.5"/>
                </g>
                <g id="arrowLeft" xlink:href="#dirArrow" transform="rotate(270) translate(-36 17)" onmousedown="handlePan(-1,0)">
                  <use xlink:href="#rim" fill="#404040">
                        <set attributeName="fill" to="#808080" begin="arrowLeft.mouseover" end="arrowLeft.mouseout"/>
                  </use>
                  <path fill="none" stroke="white" stroke-width="1.5" d="M0,-3.0v7 M-2.5,-0.5L0,-3.0L2.5,-0.5"/>
                </g>
        </g>
        <svg viewBox="0 0 15 15" width="100%" height="30px" preserveAspectRatio="xMaxYMin meet">
         <g id="arrow_out" transform="scale(0.3 0.3)">
          <a xlink:href="math_2constants_8h__incl_org.svg" target="_base">
           <rect id="button" ry="5" rx="5" y="6" x="6" height="38" width="38"
                fill="#f2f5e9" fill-opacity="0.5" stroke="#606060" stroke-width="1.0"/>
           <path id="arrow"
             d="M 11.500037,31.436501 C 11.940474,20.09759 22.043105,11.32322 32.158766,21.979434 L 37.068811,17.246167 C 37.068811,17.246167 37.088388,32 37.088388,32 L 22.160133,31.978069 C 22.160133,31.978069 26.997745,27.140456 26.997745,27.140456 C 18.528582,18.264221 13.291696,25.230495 11.500037,31.436501 z"
             style="fill:#404040;"/>
          </a>
         </g>
        </svg>
</svg>
