<?xml version="1.0" encoding="UTF-8" standalone="no"?>
<!DOCTYPE svg PUBLIC "-//W3C//DTD SVG 1.1//EN"
 "http://www.w3.org/Graphics/SVG/1.1/DTD/svg11.dtd">
<!-- Generated by graphviz version 2.38.0 (20140413.2041)
 -->
<!-- Title: measure_trods_C.cpp Pages: 1 -->
<!--zoomable 532 -->
<svg id="main" version="1.1" xmlns="http://www.w3.org/2000/svg" xmlns:xlink="http://www.w3.org/1999/xlink" xml:space="preserve" onload="init(evt)">
<style type="text/css"><![CDATA[
.edge:hover path { stroke: red; }
.edge:hover polygon { stroke: red; fill: red; }
]]></style>
<script type="text/javascript"><![CDATA[
var edges = document.getElementsByTagName('g');
if (edges && edges.length) {
  for (var i=0;i<edges.length;i++) {
    if (edges[i].id.substr(0,4)=='edge') {
      edges[i].setAttribute('class','edge');
    }
  }
}
]]></script>
        <defs>
                <circle id="rim" cx="0" cy="0" r="7"/>
                <circle id="rim2" cx="0" cy="0" r="3.5"/>
                <g id="zoomPlus">
                        <use xlink:href="#rim" fill="#404040">
                                <set attributeName="fill" to="#808080" begin="zoomplus.mouseover" end="zoomplus.mouseout"/>
                        </use>
                        <path d="M-4,0h8M0,-4v8" fill="none" stroke="white" stroke-width="1.5" pointer-events="none"/>
                </g>
                <g id="zoomMin">
                        <use xlink:href="#rim" fill="#404040">
                                <set attributeName="fill" to="#808080" begin="zoomminus.mouseover" end="zoomminus.mouseout"/>
                        </use>
                        <path d="M-4,0h8" fill="none" stroke="white" stroke-width="1.5" pointer-events="none"/>
                </g>
                <g id="dirArrow">
                        <path fill="none" stroke="white" stroke-width="1.5" d="M0,-3.0v7 M-2.5,-0.5L0,-3.0L2.5,-0.5"/>
                </g>
               <g id="resetDef">
                       <use xlink:href="#rim2" fill="#404040">
                               <set attributeName="fill" to="#808080" begin="reset.mouseover" end="reset.mouseout"/>
                       </use>
               </g>
        </defs>

<script type="text/javascript">
var viewWidth = 1531;
var viewHeight = 532;
var sectionId = 'dynsection-0';
</script>
<script xlink:href="svgpan.js"/>
<svg id="graph" class="graph">
<g id="viewport">
<title>measure_trods_C.cpp</title>
<polygon fill="white" stroke="none" points="-4,4 -4,-528 1526.5,-528 1526.5,4 -4,4"/>
<!-- Node1 -->
<g id="node1" class="node"><title>Node1</title>
<polygon fill="#bfbfbf" stroke="black" points="975.5,-504.5 975.5,-523.5 1088.5,-523.5 1088.5,-504.5 975.5,-504.5"/>
<text text-anchor="middle" x="1032" y="-511.5" font-family="Helvetica,sans-Serif" font-size="10.00">measure_trods_C.cpp</text>
</g>
<!-- Node2 -->
<g id="node2" class="node"><title>Node2</title>
<polygon fill="white" stroke="#bfbfbf" points="35,-56.5 35,-75.5 89,-75.5 89,-56.5 35,-56.5"/>
<text text-anchor="middle" x="62" y="-63.5" font-family="Helvetica,sans-Serif" font-size="10.00">iostream</text>
</g>
<!-- Node1&#45;&gt;Node2 -->
<g id="edge1" class="edge"><title>Node1&#45;&gt;Node2</title>
<path fill="none" stroke="midnightblue" d="M975.414,-512.961C759.562,-512.075 0,-501.931 0,-403 0,-403 0,-403 0,-177 0,-139.622 27.5043,-103.237 45.8746,-83.1037"/>
<polygon fill="midnightblue" stroke="midnightblue" points="48.5095,-85.4116 52.8517,-75.7474 43.4306,-80.5945 48.5095,-85.4116"/>
</g>
<!-- Node3 -->
<g id="node3" class="node"><title>Node3</title>
<polygon fill="white" stroke="#bfbfbf" points="1079,-448.5 1079,-467.5 1129,-467.5 1129,-448.5 1079,-448.5"/>
<text text-anchor="middle" x="1104" y="-455.5" font-family="Helvetica,sans-Serif" font-size="10.00">fstream</text>
</g>
<!-- Node1&#45;&gt;Node3 -->
<g id="edge2" class="edge"><title>Node1&#45;&gt;Node3</title>
<path fill="none" stroke="midnightblue" d="M1043.57,-504.324C1054.42,-496.185 1070.88,-483.839 1083.88,-474.087"/>
<polygon fill="midnightblue" stroke="midnightblue" points="1086.32,-476.634 1092.22,-467.834 1082.12,-471.034 1086.32,-476.634"/>
</g>
<!-- Node4 -->
<g id="node4" class="node"><title>Node4</title>
<polygon fill="white" stroke="#bfbfbf" points="928,-392.5 928,-411.5 972,-411.5 972,-392.5 928,-392.5"/>
<text text-anchor="middle" x="950" y="-399.5" font-family="Helvetica,sans-Serif" font-size="10.00">time.h</text>
</g>
<!-- Node1&#45;&gt;Node4 -->
<g id="edge3" class="edge"><title>Node1&#45;&gt;Node4</title>
<path fill="none" stroke="midnightblue" d="M1025.57,-504.368C1011.97,-486.135 980.136,-443.426 962.431,-419.675"/>
<polygon fill="midnightblue" stroke="midnightblue" points="965.187,-417.517 956.405,-411.591 959.575,-421.701 965.187,-417.517"/>
</g>
<!-- Node5 -->
<g id="node5" class="node"><title>Node5</title>
<polygon fill="white" stroke="#bfbfbf" points="1147,-448.5 1147,-467.5 1235,-467.5 1235,-448.5 1147,-448.5"/>
<text text-anchor="middle" x="1191" y="-455.5" font-family="Helvetica,sans-Serif" font-size="10.00">microstrain_lib.h</text>
</g>
<!-- Node1&#45;&gt;Node5 -->
<g id="edge4" class="edge"><title>Node1&#45;&gt;Node5</title>
<path fill="none" stroke="midnightblue" d="M1057.19,-504.444C1083.94,-495.359 1126.4,-480.939 1156.31,-470.783"/>
<polygon fill="midnightblue" stroke="midnightblue" points="1157.58,-474.046 1165.92,-467.516 1155.33,-467.418 1157.58,-474.046"/>
</g>
<!-- Node6 -->
<g id="node6" class="node"><title>Node6</title>
<g id="a_node6"><a xlink:href="timelib_8h.html" target="_top" xlink:title="timelib include file A library providing functions for handling various types of time. ">
<polygon fill="white" stroke="black" points="816.5,-448.5 816.5,-467.5 869.5,-467.5 869.5,-448.5 816.5,-448.5"/>
<text text-anchor="middle" x="843" y="-455.5" font-family="Helvetica,sans-Serif" font-size="10.00">timelib.h</text>
</a>
</g>
</g>
<!-- Node1&#45;&gt;Node6 -->
<g id="edge5" class="edge"><title>Node1&#45;&gt;Node6</title>
<path fill="none" stroke="midnightblue" d="M1002.05,-504.444C968.895,-494.97 915.427,-479.693 879.758,-469.502"/>
<polygon fill="midnightblue" stroke="midnightblue" points="880.328,-466.025 869.752,-466.643 878.405,-472.756 880.328,-466.025"/>
</g>
<!-- Node19 -->
<g id="node19" class="node"><title>Node19</title>
<polygon fill="white" stroke="#bfbfbf" points="1471.5,-56.5 1471.5,-75.5 1522.5,-75.5 1522.5,-56.5 1471.5,-56.5"/>
<text text-anchor="middle" x="1497" y="-63.5" font-family="Helvetica,sans-Serif" font-size="10.00">unistd.h</text>
</g>
<!-- Node1&#45;&gt;Node19 -->
<g id="edge77" class="edge"><title>Node1&#45;&gt;Node19</title>
<path fill="none" stroke="midnightblue" d="M1034.84,-504.471C1042.67,-480.166 1064,-408.342 1064,-347 1064,-347 1064,-347 1064,-177 1064,-88.6036 1354.54,-97.8841 1461.62,-75.8321"/>
<polygon fill="midnightblue" stroke="midnightblue" points="1462.42,-79.2383 1471.39,-73.5959 1460.86,-72.4146 1462.42,-79.2383"/>
</g>
<!-- Node35 -->
<g id="node35" class="node"><title>Node35</title>
<g id="a_node35"><a xlink:href="mathlib_8h.html" target="_top" xlink:title="mathlib include file ">
<polygon fill="white" stroke="black" points="498.5,-392.5 498.5,-411.5 579.5,-411.5 579.5,-392.5 498.5,-392.5"/>
<text text-anchor="middle" x="539" y="-399.5" font-family="Helvetica,sans-Serif" font-size="10.00">math/mathlib.h</text>
</a>
</g>
</g>
<!-- Node1&#45;&gt;Node35 -->
<g id="edge75" class="edge"><title>Node1&#45;&gt;Node35</title>
<path fill="none" stroke="midnightblue" d="M986.636,-504.487C941.114,-495.813 869.039,-481.721 807,-468 727.291,-450.371 634.87,-427.389 582.032,-414.007"/>
<polygon fill="midnightblue" stroke="midnightblue" points="582.877,-410.61 572.324,-411.543 581.155,-417.395 582.877,-410.61"/>
</g>
<!-- Node43 -->
<g id="node43" class="node"><title>Node43</title>
<polygon fill="white" stroke="#bfbfbf" points="990,-392.5 990,-411.5 1036,-411.5 1036,-392.5 990,-392.5"/>
<text text-anchor="middle" x="1013" y="-399.5" font-family="Helvetica,sans-Serif" font-size="10.00">stdio.h</text>
</g>
<!-- Node1&#45;&gt;Node43 -->
<g id="edge76" class="edge"><title>Node1&#45;&gt;Node43</title>
<path fill="none" stroke="midnightblue" d="M1030.51,-504.368C1027.44,-486.617 1020.37,-445.666 1016.21,-421.597"/>
<polygon fill="midnightblue" stroke="midnightblue" points="1019.64,-420.85 1014.48,-411.591 1012.74,-422.041 1019.64,-420.85"/>
</g>
<!-- Node45 -->
<g id="node45" class="node"><title>Node45</title>
<polygon fill="white" stroke="#bfbfbf" points="1253,-448.5 1253,-467.5 1315,-467.5 1315,-448.5 1253,-448.5"/>
<text text-anchor="middle" x="1284" y="-455.5" font-family="Helvetica,sans-Serif" font-size="10.00">sys/time.h</text>
</g>
<!-- Node1&#45;&gt;Node45 -->
<g id="edge74" class="edge"><title>Node1&#45;&gt;Node45</title>
<path fill="none" stroke="midnightblue" d="M1073.07,-504.437C1113.71,-495.928 1177.98,-482.382 1242.99,-468.202"/>
<polygon fill="midnightblue" stroke="midnightblue" points="1243.98,-471.568 1253,-466.014 1242.48,-464.73 1243.98,-471.568"/>
</g>
<!-- Node46 -->
<g id="node46" class="node"><title>Node46</title>
<polygon fill="white" stroke="#bfbfbf" points="1333.5,-448.5 1333.5,-467.5 1400.5,-467.5 1400.5,-448.5 1333.5,-448.5"/>
<text text-anchor="middle" x="1367" y="-455.5" font-family="Helvetica,sans-Serif" font-size="10.00">vmt35_lib.h</text>
</g>
<!-- Node1&#45;&gt;Node46 -->
<g id="edge78" class="edge"><title>Node1&#45;&gt;Node46</title>
<path fill="none" stroke="midnightblue" d="M1088.67,-505.181C1145.49,-497.137 1235.68,-483.806 1323.38,-468.03"/>
<polygon fill="midnightblue" stroke="midnightblue" points="1324.02,-471.472 1333.23,-466.245 1322.77,-464.584 1324.02,-471.472"/>
</g>
<!-- Node6&#45;&gt;Node4 -->
<g id="edge69" class="edge"><title>Node6&#45;&gt;Node4</title>
<path fill="none" stroke="midnightblue" d="M860.191,-448.324C877.351,-439.664 903.946,-426.242 923.747,-416.249"/>
<polygon fill="midnightblue" stroke="midnightblue" points="925.501,-419.285 932.851,-411.655 922.347,-413.035 925.501,-419.285"/>
</g>
<!-- Node7 -->
<g id="node7" class="node"><title>Node7</title>
<g id="a_node7"><a xlink:href="config_cosmos_8h.html" target="_top" xlink:title="Headers and definitions common to all COSMOS. ">
<polygon fill="white" stroke="black" points="638.5,-112.5 638.5,-131.5 761.5,-131.5 761.5,-112.5 638.5,-112.5"/>
<text text-anchor="middle" x="700" y="-119.5" font-family="Helvetica,sans-Serif" font-size="10.00">support/configCosmos.h</text>
</a>
</g>
</g>
<!-- Node6&#45;&gt;Node7 -->
<g id="edge6" class="edge"><title>Node6&#45;&gt;Node7</title>
<path fill="none" stroke="midnightblue" d="M841.369,-448.256C836.301,-422.013 819.55,-341.924 793,-280 769.895,-226.111 731.589,-168.082 712.139,-140.065"/>
<polygon fill="midnightblue" stroke="midnightblue" points="714.923,-137.939 706.314,-131.764 709.192,-141.96 714.923,-137.939"/>
</g>
<!-- Node17 -->
<g id="node17" class="node"><title>Node17</title>
<polygon fill="white" stroke="#bfbfbf" points="107,-56.5 107,-75.5 151,-75.5 151,-56.5 107,-56.5"/>
<text text-anchor="middle" x="129" y="-63.5" font-family="Helvetica,sans-Serif" font-size="10.00">cmath</text>
</g>
<!-- Node6&#45;&gt;Node17 -->
<g id="edge68" class="edge"><title>Node6&#45;&gt;Node17</title>
<path fill="none" stroke="midnightblue" d="M816.335,-455.627C689.346,-448.742 152,-415.558 152,-347 152,-347 152,-347 152,-177 152,-144.12 142.032,-106.86 135.221,-85.2353"/>
<polygon fill="midnightblue" stroke="midnightblue" points="138.54,-84.1248 132.102,-75.7105 131.888,-86.3032 138.54,-84.1248"/>
</g>
<!-- Node32 -->
<g id="node32" class="node"><title>Node32</title>
<g id="a_node32"><a xlink:href="elapsedtime_8h.html" target="_top" xlink:title="Elapsed Time header file. ">
<polygon fill="white" stroke="black" points="764.5,-168.5 764.5,-187.5 877.5,-187.5 877.5,-168.5 764.5,-168.5"/>
<text text-anchor="middle" x="821" y="-175.5" font-family="Helvetica,sans-Serif" font-size="10.00">support/elapsedtime.h</text>
</a>
</g>
</g>
<!-- Node6&#45;&gt;Node32 -->
<g id="edge38" class="edge"><title>Node6&#45;&gt;Node32</title>
<path fill="none" stroke="midnightblue" d="M845.562,-448.249C850.749,-429.738 862,-385.179 862,-347 862,-347 862,-347 862,-289 862,-254.515 844.089,-217.562 831.943,-196.468"/>
<polygon fill="midnightblue" stroke="midnightblue" points="834.841,-194.494 826.701,-187.712 828.835,-198.09 834.841,-194.494"/>
</g>
<!-- Node33 -->
<g id="node33" class="node"><title>Node33</title>
<polygon fill="white" stroke="#bfbfbf" points="885.5,-112.5 885.5,-131.5 926.5,-131.5 926.5,-112.5 885.5,-112.5"/>
<text text-anchor="middle" x="906" y="-119.5" font-family="Helvetica,sans-Serif" font-size="10.00">ctime</text>
</g>
<!-- Node6&#45;&gt;Node33 -->
<g id="edge72" class="edge"><title>Node6&#45;&gt;Node33</title>
<path fill="none" stroke="midnightblue" d="M850.045,-448.294C856.637,-439.64 866.171,-425.713 871,-412 905.199,-314.877 907.132,-189.302 906.495,-142.075"/>
<polygon fill="midnightblue" stroke="midnightblue" points="909.99,-141.751 906.296,-131.821 902.991,-141.887 909.99,-141.751"/>
</g>
<!-- Node6&#45;&gt;Node35 -->
<g id="edge44" class="edge"><title>Node6&#45;&gt;Node35</title>
<path fill="none" stroke="midnightblue" d="M816.288,-452.255C765.609,-443.253 654.756,-423.562 589.602,-411.989"/>
<polygon fill="midnightblue" stroke="midnightblue" points="590.012,-408.507 579.554,-410.204 588.788,-415.399 590.012,-408.507"/>
</g>
<!-- Node37 -->
<g id="node37" class="node"><title>Node37</title>
<polygon fill="white" stroke="#bfbfbf" points="737.5,-280.5 737.5,-299.5 784.5,-299.5 784.5,-280.5 737.5,-280.5"/>
<text text-anchor="middle" x="761" y="-287.5" font-family="Helvetica,sans-Serif" font-size="10.00">errno.h</text>
</g>
<!-- Node6&#45;&gt;Node37 -->
<g id="edge70" class="edge"><title>Node6&#45;&gt;Node37</title>
<path fill="none" stroke="midnightblue" d="M835.744,-448.473C828.553,-439.731 817.55,-425.538 810,-412 790.662,-377.327 774.846,-333.451 766.786,-309.2"/>
<polygon fill="midnightblue" stroke="midnightblue" points="770.066,-307.97 763.644,-299.543 763.41,-310.135 770.066,-307.97"/>
</g>
<!-- Node6&#45;&gt;Node43 -->
<g id="edge71" class="edge"><title>Node6&#45;&gt;Node43</title>
<path fill="none" stroke="midnightblue" d="M869.562,-448.562C899.392,-439.087 947.832,-423.7 980.05,-413.467"/>
<polygon fill="midnightblue" stroke="midnightblue" points="981.425,-416.702 989.896,-410.339 979.306,-410.031 981.425,-416.702"/>
</g>
<!-- Node44 -->
<g id="node44" class="node"><title>Node44</title>
<polygon fill="white" stroke="#bfbfbf" points="722.5,-392.5 722.5,-411.5 757.5,-411.5 757.5,-392.5 722.5,-392.5"/>
<text text-anchor="middle" x="740" y="-399.5" font-family="Helvetica,sans-Serif" font-size="10.00">ratio</text>
</g>
<!-- Node6&#45;&gt;Node44 -->
<g id="edge73" class="edge"><title>Node6&#45;&gt;Node44</title>
<path fill="none" stroke="midnightblue" d="M826.451,-448.324C810.008,-439.703 784.565,-426.364 765.532,-416.386"/>
<polygon fill="midnightblue" stroke="midnightblue" points="766.989,-413.198 756.508,-411.655 763.739,-419.398 766.989,-413.198"/>
</g>
<!-- Node7&#45;&gt;Node2 -->
<g id="edge18" class="edge"><title>Node7&#45;&gt;Node2</title>
<path fill="none" stroke="midnightblue" d="M638.498,-119.854C530.873,-117.096 301.367,-107.864 98.9472,-75.871"/>
<polygon fill="midnightblue" stroke="midnightblue" points="99.4523,-72.4074 89.0244,-74.2808 98.3445,-79.3192 99.4523,-72.4074"/>
</g>
<!-- Node8 -->
<g id="node8" class="node"><title>Node8</title>
<polygon fill="white" stroke="#bfbfbf" points="1207.5,-56.5 1207.5,-75.5 1252.5,-75.5 1252.5,-56.5 1207.5,-56.5"/>
<text text-anchor="middle" x="1230" y="-63.5" font-family="Helvetica,sans-Serif" font-size="10.00">climits</text>
</g>
<!-- Node7&#45;&gt;Node8 -->
<g id="edge7" class="edge"><title>Node7&#45;&gt;Node8</title>
<path fill="none" stroke="midnightblue" d="M761.759,-113.319C765.9,-112.856 770.009,-112.412 774,-112 958.908,-92.9121 1010.17,-109.177 1197.5,-75.7194"/>
<polygon fill="midnightblue" stroke="midnightblue" points="1198.18,-79.1534 1207.4,-73.9287 1196.93,-72.2653 1198.18,-79.1534"/>
</g>
<!-- Node9 -->
<g id="node9" class="node"><title>Node9</title>
<polygon fill="white" stroke="#bfbfbf" points="1270.5,-56.5 1270.5,-75.5 1317.5,-75.5 1317.5,-56.5 1270.5,-56.5"/>
<text text-anchor="middle" x="1294" y="-63.5" font-family="Helvetica,sans-Serif" font-size="10.00">csignal</text>
</g>
<!-- Node7&#45;&gt;Node9 -->
<g id="edge8" class="edge"><title>Node7&#45;&gt;Node9</title>
<path fill="none" stroke="midnightblue" d="M761.754,-113.268C765.896,-112.818 770.007,-112.39 774,-112 986.737,-91.2121 1045.33,-112.072 1260.31,-75.7568"/>
<polygon fill="midnightblue" stroke="midnightblue" points="1261.06,-79.1781 1270.33,-74.0415 1259.88,-72.2784 1261.06,-79.1781"/>
</g>
<!-- Node10 -->
<g id="node10" class="node"><title>Node10</title>
<polygon fill="white" stroke="#bfbfbf" points="207,-56.5 207,-75.5 253,-75.5 253,-56.5 207,-56.5"/>
<text text-anchor="middle" x="230" y="-63.5" font-family="Helvetica,sans-Serif" font-size="10.00">cstdint</text>
</g>
<!-- Node7&#45;&gt;Node10 -->
<g id="edge9" class="edge"><title>Node7&#45;&gt;Node10</title>
<path fill="none" stroke="midnightblue" d="M638.333,-117.222C554.025,-111.46 398.262,-98.6783 267,-76 265.754,-75.7847 264.488,-75.5514 263.211,-75.3039"/>
<polygon fill="midnightblue" stroke="midnightblue" points="263.9,-71.8721 253.388,-73.1941 262.43,-78.716 263.9,-71.8721"/>
</g>
<!-- Node11 -->
<g id="node11" class="node"><title>Node11</title>
<polygon fill="white" stroke="#bfbfbf" points="557,-56.5 557,-75.5 613,-75.5 613,-56.5 557,-56.5"/>
<text text-anchor="middle" x="585" y="-63.5" font-family="Helvetica,sans-Serif" font-size="10.00">cinttypes</text>
</g>
<!-- Node7&#45;&gt;Node11 -->
<g id="edge10" class="edge"><title>Node7&#45;&gt;Node11</title>
<path fill="none" stroke="midnightblue" d="M681.778,-112.444C663.104,-103.675 633.844,-89.9355 612.383,-79.8579"/>
<polygon fill="midnightblue" stroke="midnightblue" points="613.676,-76.5988 603.137,-75.5164 610.701,-82.935 613.676,-76.5988"/>
</g>
<!-- Node12 -->
<g id="node12" class="node"><title>Node12</title>
<polygon fill="white" stroke="#bfbfbf" points="631.5,-56.5 631.5,-75.5 674.5,-75.5 674.5,-56.5 631.5,-56.5"/>
<text text-anchor="middle" x="653" y="-63.5" font-family="Helvetica,sans-Serif" font-size="10.00">cstdio</text>
</g>
<!-- Node7&#45;&gt;Node12 -->
<g id="edge11" class="edge"><title>Node7&#45;&gt;Node12</title>
<path fill="none" stroke="midnightblue" d="M692.239,-112.083C685.463,-104.298 675.457,-92.8015 667.245,-83.3665"/>
<polygon fill="midnightblue" stroke="midnightblue" points="669.822,-80.9963 660.617,-75.7511 664.542,-85.592 669.822,-80.9963"/>
</g>
<!-- Node13 -->
<g id="node13" class="node"><title>Node13</title>
<polygon fill="white" stroke="#bfbfbf" points="692.5,-56.5 692.5,-75.5 741.5,-75.5 741.5,-56.5 692.5,-56.5"/>
<text text-anchor="middle" x="717" y="-63.5" font-family="Helvetica,sans-Serif" font-size="10.00">cstddef</text>
</g>
<!-- Node7&#45;&gt;Node13 -->
<g id="edge12" class="edge"><title>Node7&#45;&gt;Node13</title>
<path fill="none" stroke="midnightblue" d="M702.807,-112.083C705.085,-104.849 708.371,-94.4087 711.208,-85.3968"/>
<polygon fill="midnightblue" stroke="midnightblue" points="714.581,-86.3406 714.245,-75.7511 707.904,-84.2385 714.581,-86.3406"/>
</g>
<!-- Node14 -->
<g id="node14" class="node"><title>Node14</title>
<polygon fill="white" stroke="#bfbfbf" points="759.5,-56.5 759.5,-75.5 804.5,-75.5 804.5,-56.5 759.5,-56.5"/>
<text text-anchor="middle" x="782" y="-63.5" font-family="Helvetica,sans-Serif" font-size="10.00">cstdlib</text>
</g>
<!-- Node7&#45;&gt;Node14 -->
<g id="edge13" class="edge"><title>Node7&#45;&gt;Node14</title>
<path fill="none" stroke="midnightblue" d="M713.175,-112.324C725.847,-103.979 745.233,-91.2122 760.206,-81.3524"/>
<polygon fill="midnightblue" stroke="midnightblue" points="762.431,-84.0776 768.858,-75.6545 758.581,-78.2313 762.431,-84.0776"/>
</g>
<!-- Node15 -->
<g id="node15" class="node"><title>Node15</title>
<polygon fill="white" stroke="#bfbfbf" points="823,-56.5 823,-75.5 867,-75.5 867,-56.5 823,-56.5"/>
<text text-anchor="middle" x="845" y="-63.5" font-family="Helvetica,sans-Serif" font-size="10.00">cerrno</text>
</g>
<!-- Node7&#45;&gt;Node15 -->
<g id="edge14" class="edge"><title>Node7&#45;&gt;Node15</title>
<path fill="none" stroke="midnightblue" d="M722.976,-112.444C747.299,-103.385 785.869,-89.0213 813.125,-78.8705"/>
<polygon fill="midnightblue" stroke="midnightblue" points="814.459,-82.109 822.608,-75.339 812.016,-75.5491 814.459,-82.109"/>
</g>
<!-- Node16 -->
<g id="node16" class="node"><title>Node16</title>
<polygon fill="white" stroke="#bfbfbf" points="885,-56.5 885,-75.5 931,-75.5 931,-56.5 885,-56.5"/>
<text text-anchor="middle" x="908" y="-63.5" font-family="Helvetica,sans-Serif" font-size="10.00">cstring</text>
</g>
<!-- Node7&#45;&gt;Node16 -->
<g id="edge15" class="edge"><title>Node7&#45;&gt;Node16</title>
<path fill="none" stroke="midnightblue" d="M734.462,-112.447C767.978,-104.071 820.574,-90.7779 875.106,-76.1947"/>
<polygon fill="midnightblue" stroke="midnightblue" points="876.195,-79.5266 884.946,-73.5547 874.381,-72.7657 876.195,-79.5266"/>
</g>
<!-- Node7&#45;&gt;Node17 -->
<g id="edge16" class="edge"><title>Node7&#45;&gt;Node17</title>
<path fill="none" stroke="midnightblue" d="M638.484,-116.289C543.757,-108.853 356.517,-93.4357 198,-76 185.956,-74.6753 172.758,-73.0071 161.159,-71.4679"/>
<polygon fill="midnightblue" stroke="midnightblue" points="161.414,-67.9706 151.036,-70.1042 160.479,-74.908 161.414,-67.9706"/>
</g>
<!-- Node18 -->
<g id="node18" class="node"><title>Node18</title>
<polygon fill="white" stroke="#bfbfbf" points="949.5,-56.5 949.5,-75.5 994.5,-75.5 994.5,-56.5 949.5,-56.5"/>
<text text-anchor="middle" x="972" y="-63.5" font-family="Helvetica,sans-Serif" font-size="10.00">iosfwd</text>
</g>
<!-- Node7&#45;&gt;Node18 -->
<g id="edge17" class="edge"><title>Node7&#45;&gt;Node18</title>
<path fill="none" stroke="midnightblue" d="M753.19,-112.422C799.819,-104.587 869.608,-92.1012 939.481,-75.9458"/>
<polygon fill="midnightblue" stroke="midnightblue" points="940.398,-79.326 949.339,-73.6419 938.805,-72.5096 940.398,-79.326"/>
</g>
<!-- Node7&#45;&gt;Node19 -->
<g id="edge19" class="edge"><title>Node7&#45;&gt;Node19</title>
<path fill="none" stroke="midnightblue" d="M761.745,-113.169C765.889,-112.742 770.003,-112.347 774,-112 1075.77,-85.7852 1157.58,-121.573 1461.16,-75.787"/>
<polygon fill="midnightblue" stroke="midnightblue" points="1461.77,-79.2345 1471.13,-74.2664 1460.71,-72.3145 1461.77,-79.2345"/>
</g>
<!-- Node20 -->
<g id="node20" class="node"><title>Node20</title>
<polygon fill="white" stroke="#bfbfbf" points="1013,-56.5 1013,-75.5 1057,-75.5 1057,-56.5 1013,-56.5"/>
<text text-anchor="middle" x="1035" y="-63.5" font-family="Helvetica,sans-Serif" font-size="10.00">fcntl.h</text>
</g>
<!-- Node7&#45;&gt;Node20 -->
<g id="edge20" class="edge"><title>Node7&#45;&gt;Node20</title>
<path fill="none" stroke="midnightblue" d="M761.688,-112.78C832.28,-103.218 944.576,-87.4942 1002.82,-75.7318"/>
<polygon fill="midnightblue" stroke="midnightblue" points="1003.64,-79.1365 1012.71,-73.6582 1002.2,-72.2856 1003.64,-79.1365"/>
</g>
<!-- Node21 -->
<g id="node21" class="node"><title>Node21</title>
<polygon fill="white" stroke="#bfbfbf" points="1412.5,-56.5 1412.5,-75.5 1453.5,-75.5 1453.5,-56.5 1412.5,-56.5"/>
<text text-anchor="middle" x="1433" y="-63.5" font-family="Helvetica,sans-Serif" font-size="10.00">string</text>
</g>
<!-- Node7&#45;&gt;Node21 -->
<g id="edge21" class="edge"><title>Node7&#45;&gt;Node21</title>
<path fill="none" stroke="midnightblue" d="M761.747,-113.193C765.891,-112.761 770.004,-112.358 774,-112 1050.69,-87.2182 1123.52,-118.792 1398,-76 1399.47,-75.7705 1400.97,-75.5061 1402.48,-75.2152"/>
<polygon fill="midnightblue" stroke="midnightblue" points="1403.41,-78.5942 1412.41,-73.0019 1401.89,-71.762 1403.41,-78.5942"/>
</g>
<!-- Node22 -->
<g id="node22" class="node"><title>Node22</title>
<polygon fill="white" stroke="#bfbfbf" points="229,-0.5 229,-19.5 273,-19.5 273,-0.5 229,-0.5"/>
<text text-anchor="middle" x="251" y="-7.5" font-family="Helvetica,sans-Serif" font-size="10.00">vector</text>
</g>
<!-- Node7&#45;&gt;Node22 -->
<g id="edge22" class="edge"><title>Node7&#45;&gt;Node22</title>
<path fill="none" stroke="midnightblue" d="M638.32,-117.035C550.137,-110.732 392.841,-96.957 340,-76 311.526,-64.7071 283.859,-42.1182 267.125,-26.7781"/>
<polygon fill="midnightblue" stroke="midnightblue" points="269.101,-23.8304 259.425,-19.5151 264.298,-28.9227 269.101,-23.8304"/>
</g>
<!-- Node23 -->
<g id="node23" class="node"><title>Node23</title>
<polygon fill="white" stroke="#bfbfbf" points="1075.5,-56.5 1075.5,-75.5 1118.5,-75.5 1118.5,-56.5 1075.5,-56.5"/>
<text text-anchor="middle" x="1097" y="-63.5" font-family="Helvetica,sans-Serif" font-size="10.00">deque</text>
</g>
<!-- Node7&#45;&gt;Node23 -->
<g id="edge23" class="edge"><title>Node7&#45;&gt;Node23</title>
<path fill="none" stroke="midnightblue" d="M761.736,-113.473C854.191,-102.192 1021.75,-81.7155 1065.46,-75.3614"/>
<polygon fill="midnightblue" stroke="midnightblue" points="1066.12,-78.7998 1075.43,-73.741 1065,-71.8904 1066.12,-78.7998"/>
</g>
<!-- Node24 -->
<g id="node24" class="node"><title>Node24</title>
<polygon fill="white" stroke="#bfbfbf" points="1183,-0.5 1183,-19.5 1227,-19.5 1227,-0.5 1183,-0.5"/>
<text text-anchor="middle" x="1205" y="-7.5" font-family="Helvetica,sans-Serif" font-size="10.00">mutex</text>
</g>
<!-- Node7&#45;&gt;Node24 -->
<g id="edge24" class="edge"><title>Node7&#45;&gt;Node24</title>
<path fill="none" stroke="midnightblue" d="M761.749,-113.219C765.892,-112.781 770.005,-112.369 774,-112 837.08,-106.173 1299.64,-122.187 1343,-76 1376.84,-39.9475 1287.9,-21.9075 1237.29,-14.7837"/>
<polygon fill="midnightblue" stroke="midnightblue" points="1237.5,-11.2812 1227.13,-13.4266 1236.57,-18.2196 1237.5,-11.2812"/>
</g>
<!-- Node25 -->
<g id="node25" class="node"><title>Node25</title>
<polygon fill="white" stroke="#bfbfbf" points="291,-0.5 291,-19.5 335,-19.5 335,-0.5 291,-0.5"/>
<text text-anchor="middle" x="313" y="-7.5" font-family="Helvetica,sans-Serif" font-size="10.00">thread</text>
</g>
<!-- Node7&#45;&gt;Node25 -->
<g id="edge25" class="edge"><title>Node7&#45;&gt;Node25</title>
<path fill="none" stroke="midnightblue" d="M638.395,-118C555.265,-113.056 412.352,-101.127 367,-76 347.42,-65.1516 331.997,-44.145 322.732,-28.9426"/>
<polygon fill="midnightblue" stroke="midnightblue" points="325.577,-26.8707 317.55,-19.9556 319.513,-30.3671 325.577,-26.8707"/>
</g>
<!-- Node26 -->
<g id="node26" class="node"><title>Node26</title>
<polygon fill="white" stroke="#bfbfbf" points="353.5,-0.5 353.5,-19.5 448.5,-19.5 448.5,-0.5 353.5,-0.5"/>
<text text-anchor="middle" x="401" y="-7.5" font-family="Helvetica,sans-Serif" font-size="10.00">condition_variable</text>
</g>
<!-- Node7&#45;&gt;Node26 -->
<g id="edge26" class="edge"><title>Node7&#45;&gt;Node26</title>
<path fill="none" stroke="midnightblue" d="M638.402,-121.637C554.079,-121.041 409.33,-114.279 376,-76 363.902,-62.1057 375.063,-41.7234 386.081,-27.499"/>
<polygon fill="midnightblue" stroke="midnightblue" points="388.993,-29.4715 392.713,-19.5512 383.619,-24.9865 388.993,-29.4715"/>
</g>
<!-- Node27 -->
<g id="node27" class="node"><title>Node27</title>
<polygon fill="white" stroke="#bfbfbf" points="513.5,-0.5 513.5,-19.5 556.5,-19.5 556.5,-0.5 513.5,-0.5"/>
<text text-anchor="middle" x="535" y="-7.5" font-family="Helvetica,sans-Serif" font-size="10.00">queue</text>
</g>
<!-- Node7&#45;&gt;Node27 -->
<g id="edge27" class="edge"><title>Node7&#45;&gt;Node27</title>
<path fill="none" stroke="midnightblue" d="M638.416,-117.482C607.104,-112.45 570.923,-101.095 548,-76 536.731,-63.6633 534.063,-44.4129 533.865,-30.0588"/>
<polygon fill="midnightblue" stroke="midnightblue" points="537.369,-29.906 534.118,-19.8225 530.371,-29.7329 537.369,-29.906"/>
</g>
<!-- Node28 -->
<g id="node28" class="node"><title>Node28</title>
<polygon fill="white" stroke="#bfbfbf" points="1137,-56.5 1137,-75.5 1189,-75.5 1189,-56.5 1137,-56.5"/>
<text text-anchor="middle" x="1163" y="-63.5" font-family="Helvetica,sans-Serif" font-size="10.00">sstream</text>
</g>
<!-- Node7&#45;&gt;Node28 -->
<g id="edge28" class="edge"><title>Node7&#45;&gt;Node28</title>
<path fill="none" stroke="midnightblue" d="M761.768,-113.397C765.906,-112.915 770.013,-112.446 774,-112 927.512,-94.8386 969.932,-102.848 1126.74,-75.7725"/>
<polygon fill="midnightblue" stroke="midnightblue" points="1127.5,-79.1939 1136.75,-74.0251 1126.29,-72.2983 1127.5,-79.1939"/>
</g>
<!-- Node29 -->
<g id="node29" class="node"><title>Node29</title>
<polygon fill="white" stroke="#bfbfbf" points="759.5,-0.5 759.5,-19.5 794.5,-19.5 794.5,-0.5 759.5,-0.5"/>
<text text-anchor="middle" x="777" y="-7.5" font-family="Helvetica,sans-Serif" font-size="10.00">map</text>
</g>
<!-- Node7&#45;&gt;Node29 -->
<g id="edge29" class="edge"><title>Node7&#45;&gt;Node29</title>
<path fill="none" stroke="midnightblue" d="M761.75,-113.228C765.893,-112.787 770.005,-112.373 774,-112 835.198,-106.287 1283.98,-120.853 1326,-76 1332.08,-69.5133 1332.02,-62.5371 1326,-56 1290.4,-17.367 911.478,-11.9009 804.803,-11.1275"/>
<polygon fill="midnightblue" stroke="midnightblue" points="804.55,-7.62587 794.527,-11.0617 804.505,-14.6257 804.55,-7.62587"/>
</g>
<!-- Node30 -->
<g id="node30" class="node"><title>Node30</title>
<g id="a_node30"><a xlink:href="cosmos-defs_8h.html" target="_top" xlink:title="COSMOS definitions Definitions specific to the COSMOS environement. ">
<polygon fill="white" stroke="black" points="385,-56.5 385,-75.5 501,-75.5 501,-56.5 385,-56.5"/>
<text text-anchor="middle" x="443" y="-63.5" font-family="Helvetica,sans-Serif" font-size="10.00">support/cosmos&#45;defs.h</text>
</a>
</g>
</g>
<!-- Node7&#45;&gt;Node30 -->
<g id="edge30" class="edge"><title>Node7&#45;&gt;Node30</title>
<path fill="none" stroke="midnightblue" d="M659.278,-112.444C614.351,-103.004 542.002,-87.802 493.501,-77.6111"/>
<polygon fill="midnightblue" stroke="midnightblue" points="494.038,-74.1476 483.532,-75.5164 492.598,-80.998 494.038,-74.1476"/>
</g>
<!-- Node30&#45;&gt;Node22 -->
<g id="edge32" class="edge"><title>Node30&#45;&gt;Node22</title>
<path fill="none" stroke="midnightblue" d="M412.109,-56.4648C381.643,-48.025 333.497,-34.6298 282.831,-20.2171"/>
<polygon fill="midnightblue" stroke="midnightblue" points="283.584,-16.7924 273.008,-17.4188 281.666,-23.5245 283.584,-16.7924"/>
</g>
<!-- Node30&#45;&gt;Node24 -->
<g id="edge36" class="edge"><title>Node30&#45;&gt;Node24</title>
<path fill="none" stroke="midnightblue" d="M501.027,-59.8475C516.302,-58.5401 532.768,-57.1744 548,-56 787.828,-37.5097 1077.21,-19.0175 1172.71,-13.0153"/>
<polygon fill="midnightblue" stroke="midnightblue" points="1173.11,-16.4971 1182.87,-12.3777 1172.67,-9.51081 1173.11,-16.4971"/>
</g>
<!-- Node30&#45;&gt;Node25 -->
<g id="edge35" class="edge"><title>Node30&#45;&gt;Node25</title>
<path fill="none" stroke="midnightblue" d="M422.401,-56.4435C401.007,-47.5566 367.319,-33.5632 342.976,-23.4514"/>
<polygon fill="midnightblue" stroke="midnightblue" points="344.08,-20.1203 333.503,-19.5164 341.395,-26.5848 344.08,-20.1203"/>
</g>
<!-- Node30&#45;&gt;Node26 -->
<g id="edge37" class="edge"><title>Node30&#45;&gt;Node26</title>
<path fill="none" stroke="midnightblue" d="M436.065,-56.083C430.071,-48.3768 421.248,-37.0333 413.952,-27.6531"/>
<polygon fill="midnightblue" stroke="midnightblue" points="416.709,-25.4958 407.806,-19.7511 411.183,-29.7934 416.709,-25.4958"/>
</g>
<!-- Node30&#45;&gt;Node27 -->
<g id="edge34" class="edge"><title>Node30&#45;&gt;Node27</title>
<path fill="none" stroke="midnightblue" d="M457.781,-56.324C472.267,-47.8215 494.573,-34.7288 511.493,-24.7975"/>
<polygon fill="midnightblue" stroke="midnightblue" points="513.403,-27.735 520.255,-19.6545 509.859,-21.6981 513.403,-27.735"/>
</g>
<!-- Node30&#45;&gt;Node29 -->
<g id="edge31" class="edge"><title>Node30&#45;&gt;Node29</title>
<path fill="none" stroke="midnightblue" d="M495.923,-56.4435C567.834,-44.8173 693.8,-24.4515 749.349,-15.4706"/>
<polygon fill="midnightblue" stroke="midnightblue" points="750.17,-18.8834 759.483,-13.8321 749.052,-11.9731 750.17,-18.8834"/>
</g>
<!-- Node31 -->
<g id="node31" class="node"><title>Node31</title>
<polygon fill="white" stroke="#bfbfbf" points="466.5,-0.5 466.5,-19.5 495.5,-19.5 495.5,-0.5 466.5,-0.5"/>
<text text-anchor="middle" x="481" y="-7.5" font-family="Helvetica,sans-Serif" font-size="10.00">list</text>
</g>
<!-- Node30&#45;&gt;Node31 -->
<g id="edge33" class="edge"><title>Node30&#45;&gt;Node31</title>
<path fill="none" stroke="midnightblue" d="M449.275,-56.083C454.642,-48.4554 462.518,-37.2645 469.079,-27.9408"/>
<polygon fill="midnightblue" stroke="midnightblue" points="471.949,-29.9434 474.842,-19.7511 466.225,-25.9149 471.949,-29.9434"/>
</g>
<!-- Node32&#45;&gt;Node2 -->
<g id="edge40" class="edge"><title>Node32&#45;&gt;Node2</title>
<path fill="none" stroke="midnightblue" d="M764.414,-171.166C643.737,-158.277 352.16,-124.758 99.1762,-76.0519"/>
<polygon fill="midnightblue" stroke="midnightblue" points="99.5411,-72.5576 89.058,-74.0917 98.2097,-79.4299 99.5411,-72.5576"/>
</g>
<!-- Node32&#45;&gt;Node7 -->
<g id="edge39" class="edge"><title>Node32&#45;&gt;Node7</title>
<path fill="none" stroke="midnightblue" d="M801.827,-168.444C782.091,-159.636 751.115,-145.812 728.507,-135.722"/>
<polygon fill="midnightblue" stroke="midnightblue" points="729.641,-132.396 719.083,-131.516 726.789,-138.788 729.641,-132.396"/>
</g>
<!-- Node32&#45;&gt;Node21 -->
<g id="edge41" class="edge"><title>Node32&#45;&gt;Node21</title>
<path fill="none" stroke="midnightblue" d="M825.339,-168.349C833.184,-153.759 851.239,-124.619 876,-112 972.291,-62.928 1253.46,-86.7059 1361,-76 1374.51,-74.6546 1389.42,-72.8462 1402.14,-71.2033"/>
<polygon fill="midnightblue" stroke="midnightblue" points="1402.78,-74.6496 1412.24,-69.8761 1401.87,-67.7093 1402.78,-74.6496"/>
</g>
<!-- Node32&#45;&gt;Node33 -->
<g id="edge42" class="edge"><title>Node32&#45;&gt;Node33</title>
<path fill="none" stroke="midnightblue" d="M834.657,-168.324C847.916,-159.9 868.268,-146.971 883.846,-137.074"/>
<polygon fill="midnightblue" stroke="midnightblue" points="885.813,-139.971 892.377,-131.655 882.06,-134.063 885.813,-139.971"/>
</g>
<!-- Node34 -->
<g id="node34" class="node"><title>Node34</title>
<polygon fill="white" stroke="#bfbfbf" points="783,-112.5 783,-131.5 829,-131.5 829,-112.5 783,-112.5"/>
<text text-anchor="middle" x="806" y="-119.5" font-family="Helvetica,sans-Serif" font-size="10.00">chrono</text>
</g>
<!-- Node32&#45;&gt;Node34 -->
<g id="edge43" class="edge"><title>Node32&#45;&gt;Node34</title>
<path fill="none" stroke="midnightblue" d="M818.523,-168.083C816.514,-160.849 813.614,-150.409 811.11,-141.397"/>
<polygon fill="midnightblue" stroke="midnightblue" points="814.48,-140.449 808.431,-131.751 807.735,-142.323 814.48,-140.449"/>
</g>
<!-- Node35&#45;&gt;Node2 -->
<g id="edge67" class="edge"><title>Node35&#45;&gt;Node2</title>
<path fill="none" stroke="midnightblue" d="M498.425,-400.714C379.155,-398.789 38,-385.06 38,-291 38,-291 38,-291 38,-177 38,-144.059 48.4009,-106.818 55.5087,-85.2139"/>
<polygon fill="midnightblue" stroke="midnightblue" points="58.8384,-86.2937 58.7633,-75.6992 52.2151,-84.0282 58.8384,-86.2937"/>
</g>
<!-- Node35&#45;&gt;Node7 -->
<g id="edge45" class="edge"><title>Node35&#45;&gt;Node7</title>
<path fill="none" stroke="midnightblue" d="M549.783,-392.264C569.645,-375.113 610,-334.869 610,-291 610,-291 610,-291 610,-233 610,-190.658 650.439,-155.655 677.104,-137.178"/>
<polygon fill="midnightblue" stroke="midnightblue" points="679.158,-140.015 685.54,-131.558 675.277,-134.189 679.158,-140.015"/>
</g>
<!-- Node35&#45;&gt;Node17 -->
<g id="edge66" class="edge"><title>Node35&#45;&gt;Node17</title>
<path fill="none" stroke="midnightblue" d="M511.784,-392.444C488.483,-384.569 454.449,-371.742 427,-356 286.028,-275.153 219.383,-272.663 138,-132 129.888,-117.979 128.011,-99.4812 127.945,-85.8049"/>
<polygon fill="midnightblue" stroke="midnightblue" points="131.448,-85.7457 128.218,-75.655 124.45,-85.557 131.448,-85.7457"/>
</g>
<!-- Node36 -->
<g id="node36" class="node"><title>Node36</title>
<g id="a_node36"><a xlink:href="cosmos-errno_8h.html" target="_top" xlink:title="COSMOS Error Codes. ">
<polygon fill="white" stroke="black" points="638.5,-336.5 638.5,-355.5 757.5,-355.5 757.5,-336.5 638.5,-336.5"/>
<text text-anchor="middle" x="698" y="-343.5" font-family="Helvetica,sans-Serif" font-size="10.00">support/cosmos&#45;errno.h</text>
</a>
</g>
</g>
<!-- Node35&#45;&gt;Node36 -->
<g id="edge46" class="edge"><title>Node35&#45;&gt;Node36</title>
<path fill="none" stroke="midnightblue" d="M564.194,-392.444C590.943,-383.359 633.403,-368.939 663.305,-358.783"/>
<polygon fill="midnightblue" stroke="midnightblue" points="664.581,-362.046 672.924,-355.516 662.329,-355.418 664.581,-362.046"/>
</g>
<!-- Node38 -->
<g id="node38" class="node"><title>Node38</title>
<g id="a_node38"><a xlink:href="math_2constants_8h.html" target="_top" xlink:title="constants.h">
<polygon fill="white" stroke="black" points="362,-168.5 362,-187.5 430,-187.5 430,-168.5 362,-168.5"/>
<text text-anchor="middle" x="396" y="-175.5" font-family="Helvetica,sans-Serif" font-size="10.00">constants.h</text>
</a>
</g>
</g>
<!-- Node35&#45;&gt;Node38 -->
<g id="edge49" class="edge"><title>Node35&#45;&gt;Node38</title>
<path fill="none" stroke="midnightblue" d="M541.876,-392.286C545.606,-379.523 550.868,-355.18 544,-336 520.585,-270.606 453.441,-217.575 418.202,-193.306"/>
<polygon fill="midnightblue" stroke="midnightblue" points="419.823,-190.179 409.573,-187.501 415.916,-195.987 419.823,-190.179"/>
</g>
<!-- Node39 -->
<g id="node39" class="node"><title>Node39</title>
<g id="a_node39"><a xlink:href="vector_8h.html" target="_top" xlink:title="vector.h">
<polygon fill="white" stroke="black" points="362,-224.5 362,-243.5 414,-243.5 414,-224.5 362,-224.5"/>
<text text-anchor="middle" x="388" y="-231.5" font-family="Helvetica,sans-Serif" font-size="10.00">vector.h</text>
</a>
</g>
</g>
<!-- Node35&#45;&gt;Node39 -->
<g id="edge52" class="edge"><title>Node35&#45;&gt;Node39</title>
<path fill="none" stroke="midnightblue" d="M517.065,-392.445C498.768,-384.654 472.613,-371.945 453,-356 428.008,-335.682 422.045,-328.479 407,-300 399.277,-285.381 394.306,-267.21 391.393,-253.799"/>
<polygon fill="midnightblue" stroke="midnightblue" points="394.796,-252.965 389.416,-243.837 387.93,-254.327 394.796,-252.965"/>
</g>
<!-- Node41 -->
<g id="node41" class="node"><title>Node41</title>
<g id="a_node41"><a xlink:href="matrix_8h.html" target="_top" xlink:title="matrix.h">
<polygon fill="white" stroke="black" points="416,-280.5 416,-299.5 468,-299.5 468,-280.5 416,-280.5"/>
<text text-anchor="middle" x="442" y="-287.5" font-family="Helvetica,sans-Serif" font-size="10.00">matrix.h</text>
</a>
</g>
</g>
<!-- Node35&#45;&gt;Node41 -->
<g id="edge59" class="edge"><title>Node35&#45;&gt;Node41</title>
<path fill="none" stroke="midnightblue" d="M519.461,-392.488C503.971,-384.879 482.719,-372.401 469,-356 457.741,-342.54 450.617,-323.726 446.532,-309.801"/>
<polygon fill="midnightblue" stroke="midnightblue" points="449.845,-308.639 443.887,-299.878 443.081,-310.442 449.845,-308.639"/>
</g>
<!-- Node42 -->
<g id="node42" class="node"><title>Node42</title>
<g id="a_node42"><a xlink:href="rotation_8h.html" target="_top" xlink:title="rotation.h">
<polygon fill="white" stroke="black" points="478.5,-336.5 478.5,-355.5 535.5,-355.5 535.5,-336.5 478.5,-336.5"/>
<text text-anchor="middle" x="507" y="-343.5" font-family="Helvetica,sans-Serif" font-size="10.00">rotation.h</text>
</a>
</g>
</g>
<!-- Node35&#45;&gt;Node42 -->
<g id="edge62" class="edge"><title>Node35&#45;&gt;Node42</title>
<path fill="none" stroke="midnightblue" d="M533.716,-392.083C529.289,-384.613 522.837,-373.724 517.382,-364.52"/>
<polygon fill="midnightblue" stroke="midnightblue" points="520.295,-362.57 512.186,-355.751 514.273,-366.138 520.295,-362.57"/>
</g>
<!-- Node36&#45;&gt;Node7 -->
<g id="edge47" class="edge"><title>Node36&#45;&gt;Node7</title>
<path fill="none" stroke="midnightblue" d="M698.078,-336.297C698.373,-303.633 699.416,-187.866 699.829,-141.957"/>
<polygon fill="midnightblue" stroke="midnightblue" points="703.33,-141.915 699.92,-131.884 696.33,-141.852 703.33,-141.915"/>
</g>
<!-- Node36&#45;&gt;Node37 -->
<g id="edge48" class="edge"><title>Node36&#45;&gt;Node37</title>
<path fill="none" stroke="midnightblue" d="M708.122,-336.324C717.526,-328.263 731.744,-316.077 743.069,-306.369"/>
<polygon fill="midnightblue" stroke="midnightblue" points="745.379,-308.999 750.694,-299.834 740.823,-303.684 745.379,-308.999"/>
</g>
<!-- Node38&#45;&gt;Node7 -->
<g id="edge50" class="edge"><title>Node38&#45;&gt;Node7</title>
<path fill="none" stroke="midnightblue" d="M430.08,-170.561C434.755,-169.692 439.495,-168.818 444,-168 511.223,-155.79 588.477,-142.282 640.383,-133.283"/>
<polygon fill="midnightblue" stroke="midnightblue" points="641.16,-136.7 650.415,-131.544 639.965,-129.803 641.16,-136.7"/>
</g>
<!-- Node38&#45;&gt;Node10 -->
<g id="edge51" class="edge"><title>Node38&#45;&gt;Node10</title>
<path fill="none" stroke="midnightblue" d="M382.974,-168.368C354.489,-149.492 286.417,-104.385 251.484,-81.2367"/>
<polygon fill="midnightblue" stroke="midnightblue" points="253.235,-78.1977 242.965,-75.5914 249.368,-84.0328 253.235,-78.1977"/>
</g>
<!-- Node39&#45;&gt;Node2 -->
<g id="edge55" class="edge"><title>Node39&#45;&gt;Node2</title>
<path fill="none" stroke="midnightblue" d="M361.741,-229.7C326.593,-224.521 263.002,-212.443 214,-188 157.926,-160.029 103.188,-108.931 77.3778,-83.0034"/>
<polygon fill="midnightblue" stroke="midnightblue" points="79.8294,-80.5045 70.3271,-75.8186 74.8332,-85.4074 79.8294,-80.5045"/>
</g>
<!-- Node39&#45;&gt;Node7 -->
<g id="edge53" class="edge"><title>Node39&#45;&gt;Node7</title>
<path fill="none" stroke="midnightblue" d="M397.631,-224.334C413.823,-210.252 448.071,-182.517 482,-168 528.642,-148.045 584.772,-136.722 628.396,-130.426"/>
<polygon fill="midnightblue" stroke="midnightblue" points="628.928,-133.886 638.352,-129.045 627.966,-126.952 628.928,-133.886"/>
</g>
<!-- Node39&#45;&gt;Node17 -->
<g id="edge57" class="edge"><title>Node39&#45;&gt;Node17</title>
<path fill="none" stroke="midnightblue" d="M363.864,-224.411C342.449,-216.339 310.672,-203.243 285,-188 230.514,-155.649 173.366,-106.919 145.817,-82.3387"/>
<polygon fill="midnightblue" stroke="midnightblue" points="148.027,-79.6192 138.253,-75.5305 143.344,-84.822 148.027,-79.6192"/>
</g>
<!-- Node39&#45;&gt;Node22 -->
<g id="edge58" class="edge"><title>Node39&#45;&gt;Node22</title>
<path fill="none" stroke="midnightblue" d="M361.969,-225.63C339.914,-218.498 308.258,-206.093 285,-188 235.25,-149.298 218.437,-135.626 198,-76 195.118,-67.5913 194.267,-64.067 198,-56 203.92,-43.2072 215.468,-32.7216 226.278,-25.1003"/>
<polygon fill="midnightblue" stroke="midnightblue" points="228.214,-28.0161 234.666,-19.613 224.382,-22.1581 228.214,-28.0161"/>
</g>
<!-- Node39&#45;&gt;Node38 -->
<g id="edge54" class="edge"><title>Node39&#45;&gt;Node38</title>
<path fill="none" stroke="midnightblue" d="M389.321,-224.083C390.381,-216.927 391.906,-206.635 393.231,-197.691"/>
<polygon fill="midnightblue" stroke="midnightblue" points="396.7,-198.156 394.704,-187.751 389.776,-197.13 396.7,-198.156"/>
</g>
<!-- Node40 -->
<g id="node40" class="node"><title>Node40</title>
<polygon fill="white" stroke="#bfbfbf" points="294,-168.5 294,-187.5 344,-187.5 344,-168.5 294,-168.5"/>
<text text-anchor="middle" x="319" y="-175.5" font-family="Helvetica,sans-Serif" font-size="10.00">iomanip</text>
</g>
<!-- Node39&#45;&gt;Node40 -->
<g id="edge56" class="edge"><title>Node39&#45;&gt;Node40</title>
<path fill="none" stroke="midnightblue" d="M376.914,-224.324C366.514,-216.185 350.739,-203.839 338.278,-194.087"/>
<polygon fill="midnightblue" stroke="midnightblue" points="340.32,-191.241 330.288,-187.834 336.006,-196.753 340.32,-191.241"/>
</g>
<!-- Node41&#45;&gt;Node7 -->
<g id="edge60" class="edge"><title>Node41&#45;&gt;Node7</title>
<path fill="none" stroke="midnightblue" d="M444.974,-280.387C453.143,-258.062 478.144,-197.982 520,-168 551.342,-145.55 592.721,-134.255 627.902,-128.593"/>
<polygon fill="midnightblue" stroke="midnightblue" points="628.746,-132.006 638.124,-127.075 627.718,-125.082 628.746,-132.006"/>
</g>
<!-- Node41&#45;&gt;Node39 -->
<g id="edge61" class="edge"><title>Node41&#45;&gt;Node39</title>
<path fill="none" stroke="midnightblue" d="M433.083,-280.083C425.22,-272.22 413.569,-260.569 404.081,-251.081"/>
<polygon fill="midnightblue" stroke="midnightblue" points="406.297,-248.347 396.751,-243.751 401.347,-253.297 406.297,-248.347"/>
</g>
<!-- Node42&#45;&gt;Node7 -->
<g id="edge63" class="edge"><title>Node42&#45;&gt;Node7</title>
<path fill="none" stroke="midnightblue" d="M509.079,-336.351C516.245,-308.266 542.477,-218.528 596,-168 612.474,-152.448 635.171,-141.782 655.159,-134.753"/>
<polygon fill="midnightblue" stroke="midnightblue" points="656.321,-138.055 664.714,-131.589 654.121,-131.41 656.321,-138.055"/>
</g>
<!-- Node42&#45;&gt;Node39 -->
<g id="edge64" class="edge"><title>Node42&#45;&gt;Node39</title>
<path fill="none" stroke="midnightblue" d="M504.984,-336.373C501.43,-322.836 492.879,-296.457 477,-280 462.393,-264.861 441.603,-253.956 423.79,-246.676"/>
<polygon fill="midnightblue" stroke="midnightblue" points="424.848,-243.333 414.259,-243.001 422.33,-249.864 424.848,-243.333"/>
</g>
<!-- Node42&#45;&gt;Node41 -->
<g id="edge65" class="edge"><title>Node42&#45;&gt;Node41</title>
<path fill="none" stroke="midnightblue" d="M496.557,-336.324C486.854,-328.263 472.185,-316.077 460.5,-306.369"/>
<polygon fill="midnightblue" stroke="midnightblue" points="462.562,-303.532 452.633,-299.834 458.089,-308.916 462.562,-303.532"/>
</g>
</g>
</svg>
        <g id="navigator" transform="translate(0 0)" fill="#404254">
                <rect fill="#f2f5e9" fill-opacity="0.5" stroke="#606060" stroke-width=".5" x="0" y="0" width="60" height="60"/>
                <use id="zoomplus" xlink:href="#zoomPlus" x="17" y="9" onmousedown="handleZoom(evt,'in')"/>
                <use id="zoomminus" xlink:href="#zoomMin" x="42" y="9" onmousedown="handleZoom(evt,'out')"/>
                <use id="reset" xlink:href="#resetDef" x="30" y="36" onmousedown="handleReset()"/>
                <g id="arrowUp" xlink:href="#dirArrow" transform="translate(30 24)" onmousedown="handlePan(0,-1)">
                  <use xlink:href="#rim" fill="#404040">
                        <set attributeName="fill" to="#808080" begin="arrowUp.mouseover" end="arrowUp.mouseout"/>
                  </use>
                  <path fill="none" stroke="white" stroke-width="1.5" d="M0,-3.0v7 M-2.5,-0.5L0,-3.0L2.5,-0.5"/>
                </g>
                <g id="arrowRight" xlink:href="#dirArrow" transform="rotate(90) translate(36 -43)" onmousedown="handlePan(1,0)">
                  <use xlink:href="#rim" fill="#404040">
                        <set attributeName="fill" to="#808080" begin="arrowRight.mouseover" end="arrowRight.mouseout"/>
                  </use>
                  <path fill="none" stroke="white" stroke-width="1.5" d="M0,-3.0v7 M-2.5,-0.5L0,-3.0L2.5,-0.5"/>
                </g>
                <g id="arrowDown" xlink:href="#dirArrow" transform="rotate(180) translate(-30 -48)" onmousedown="handlePan(0,1)">
                  <use xlink:href="#rim" fill="#404040">
                        <set attributeName="fill" to="#808080" begin="arrowDown.mouseover" end="arrowDown.mouseout"/>
                  </use>
                  <path fill="none" stroke="white" stroke-width="1.5" d="M0,-3.0v7 M-2.5,-0.5L0,-3.0L2.5,-0.5"/>
                </g>
                <g id="arrowLeft" xlink:href="#dirArrow" transform="rotate(270) translate(-36 17)" onmousedown="handlePan(-1,0)">
                  <use xlink:href="#rim" fill="#404040">
                        <set attributeName="fill" to="#808080" begin="arrowLeft.mouseover" end="arrowLeft.mouseout"/>
                  </use>
                  <path fill="none" stroke="white" stroke-width="1.5" d="M0,-3.0v7 M-2.5,-0.5L0,-3.0L2.5,-0.5"/>
                </g>
        </g>
        <svg viewBox="0 0 15 15" width="100%" height="30px" preserveAspectRatio="xMaxYMin meet">
         <g id="arrow_out" transform="scale(0.3 0.3)">
          <a xlink:href="measure__trods___c_8cpp__incl_org.svg" target="_base">
           <rect id="button" ry="5" rx="5" y="6" x="6" height="38" width="38"
                fill="#f2f5e9" fill-opacity="0.5" stroke="#606060" stroke-width="1.0"/>
           <path id="arrow"
             d="M 11.500037,31.436501 C 11.940474,20.09759 22.043105,11.32322 32.158766,21.979434 L 37.068811,17.246167 C 37.068811,17.246167 37.088388,32 37.088388,32 L 22.160133,31.978069 C 22.160133,31.978069 26.997745,27.140456 26.997745,27.140456 C 18.528582,18.264221 13.291696,25.230495 11.500037,31.436501 z"
             style="fill:#404040;"/>
          </a>
         </g>
        </svg>
</svg>
