<?xml version="1.0" encoding="UTF-8" standalone="no"?>
<!DOCTYPE svg PUBLIC "-//W3C//DTD SVG 1.1//EN"
 "http://www.w3.org/Graphics/SVG/1.1/DTD/svg11.dtd">
<!-- Generated by graphviz version 2.38.0 (20140413.2041)
 -->
<!-- Title: measure_trods.cpp Pages: 1 -->
<!--zoomable 532 -->
<svg id="main" version="1.1" xmlns="http://www.w3.org/2000/svg" xmlns:xlink="http://www.w3.org/1999/xlink" xml:space="preserve" onload="init(evt)">
<style type="text/css"><![CDATA[
.edge:hover path { stroke: red; }
.edge:hover polygon { stroke: red; fill: red; }
]]></style>
<script type="text/javascript"><![CDATA[
var edges = document.getElementsByTagName('g');
if (edges && edges.length) {
  for (var i=0;i<edges.length;i++) {
    if (edges[i].id.substr(0,4)=='edge') {
      edges[i].setAttribute('class','edge');
    }
  }
}
]]></script>
        <defs>
                <circle id="rim" cx="0" cy="0" r="7"/>
                <circle id="rim2" cx="0" cy="0" r="3.5"/>
                <g id="zoomPlus">
                        <use xlink:href="#rim" fill="#404040">
                                <set attributeName="fill" to="#808080" begin="zoomplus.mouseover" end="zoomplus.mouseout"/>
                        </use>
                        <path d="M-4,0h8M0,-4v8" fill="none" stroke="white" stroke-width="1.5" pointer-events="none"/>
                </g>
                <g id="zoomMin">
                        <use xlink:href="#rim" fill="#404040">
                                <set attributeName="fill" to="#808080" begin="zoomminus.mouseover" end="zoomminus.mouseout"/>
                        </use>
                        <path d="M-4,0h8" fill="none" stroke="white" stroke-width="1.5" pointer-events="none"/>
                </g>
                <g id="dirArrow">
                        <path fill="none" stroke="white" stroke-width="1.5" d="M0,-3.0v7 M-2.5,-0.5L0,-3.0L2.5,-0.5"/>
                </g>
               <g id="resetDef">
                       <use xlink:href="#rim2" fill="#404040">
                               <set attributeName="fill" to="#808080" begin="reset.mouseover" end="reset.mouseout"/>
                       </use>
               </g>
        </defs>

<script type="text/javascript">
var viewWidth = 1496;
var viewHeight = 532;
var sectionId = 'dynsection-0';
</script>
<script xlink:href="svgpan.js"/>
<svg id="graph" class="graph">
<g id="viewport">
<title>measure_trods.cpp</title>
<polygon fill="white" stroke="none" points="-4,4 -4,-528 1492,-528 1492,4 -4,4"/>
<!-- Node1 -->
<g id="node1" class="node"><title>Node1</title>
<polygon fill="#bfbfbf" stroke="black" points="1037,-504.5 1037,-523.5 1137,-523.5 1137,-504.5 1037,-504.5"/>
<text text-anchor="middle" x="1087" y="-511.5" font-family="Helvetica,sans-Serif" font-size="10.00">measure_trods.cpp</text>
</g>
<!-- Node2 -->
<g id="node2" class="node"><title>Node2</title>
<polygon fill="white" stroke="#bfbfbf" points="0,-56.5 0,-75.5 54,-75.5 54,-56.5 0,-56.5"/>
<text text-anchor="middle" x="27" y="-63.5" font-family="Helvetica,sans-Serif" font-size="10.00">iostream</text>
</g>
<!-- Node1&#45;&gt;Node2 -->
<g id="edge1" class="edge"><title>Node1&#45;&gt;Node2</title>
<path fill="none" stroke="midnightblue" d="M1036.94,-513.129C826.83,-513.021 27,-505.857 27,-403 27,-403 27,-403 27,-177 27,-144.948 27,-107.643 27,-85.7489"/>
<polygon fill="midnightblue" stroke="midnightblue" points="30.5001,-85.5577 27,-75.5578 23.5001,-85.5578 30.5001,-85.5577"/>
</g>
<!-- Node3 -->
<g id="node3" class="node"><title>Node3</title>
<polygon fill="white" stroke="#bfbfbf" points="1115,-448.5 1115,-467.5 1165,-467.5 1165,-448.5 1115,-448.5"/>
<text text-anchor="middle" x="1140" y="-455.5" font-family="Helvetica,sans-Serif" font-size="10.00">fstream</text>
</g>
<!-- Node1&#45;&gt;Node3 -->
<g id="edge2" class="edge"><title>Node1&#45;&gt;Node3</title>
<path fill="none" stroke="midnightblue" d="M1095.75,-504.083C1103.47,-496.22 1114.9,-484.569 1124.22,-475.081"/>
<polygon fill="midnightblue" stroke="midnightblue" points="1126.9,-477.34 1131.41,-467.751 1121.91,-472.436 1126.9,-477.34"/>
</g>
<!-- Node4 -->
<g id="node4" class="node"><title>Node4</title>
<polygon fill="white" stroke="#bfbfbf" points="1250,-392.5 1250,-411.5 1294,-411.5 1294,-392.5 1250,-392.5"/>
<text text-anchor="middle" x="1272" y="-399.5" font-family="Helvetica,sans-Serif" font-size="10.00">time.h</text>
</g>
<!-- Node1&#45;&gt;Node4 -->
<g id="edge3" class="edge"><title>Node1&#45;&gt;Node4</title>
<path fill="none" stroke="midnightblue" d="M1087,-504.061C1087.5,-490.098 1090.55,-463.146 1106,-448 1108.44,-445.608 1192.28,-423.625 1239.85,-411.294"/>
<polygon fill="midnightblue" stroke="midnightblue" points="1240.89,-414.641 1249.69,-408.747 1239.13,-407.864 1240.89,-414.641"/>
</g>
<!-- Node5 -->
<g id="node5" class="node"><title>Node5</title>
<polygon fill="white" stroke="#bfbfbf" points="1183,-448.5 1183,-467.5 1271,-467.5 1271,-448.5 1183,-448.5"/>
<text text-anchor="middle" x="1227" y="-455.5" font-family="Helvetica,sans-Serif" font-size="10.00">microstrain_lib.h</text>
</g>
<!-- Node1&#45;&gt;Node5 -->
<g id="edge4" class="edge"><title>Node1&#45;&gt;Node5</title>
<path fill="none" stroke="midnightblue" d="M1109.18,-504.444C1132.43,-495.478 1169.15,-481.314 1195.42,-471.183"/>
<polygon fill="midnightblue" stroke="midnightblue" points="1196.85,-474.381 1204.92,-467.516 1194.33,-467.85 1196.85,-474.381"/>
</g>
<!-- Node6 -->
<g id="node6" class="node"><title>Node6</title>
<g id="a_node6"><a xlink:href="timelib_8h.html" target="_top" xlink:title="timelib include file A library providing functions for handling various types of time. ">
<polygon fill="white" stroke="black" points="1005.5,-448.5 1005.5,-467.5 1058.5,-467.5 1058.5,-448.5 1005.5,-448.5"/>
<text text-anchor="middle" x="1032" y="-455.5" font-family="Helvetica,sans-Serif" font-size="10.00">timelib.h</text>
</a>
</g>
</g>
<!-- Node1&#45;&gt;Node6 -->
<g id="edge5" class="edge"><title>Node1&#45;&gt;Node6</title>
<path fill="none" stroke="midnightblue" d="M1077.92,-504.083C1069.83,-496.141 1057.8,-484.335 1048.09,-474.797"/>
<polygon fill="midnightblue" stroke="midnightblue" points="1050.5,-472.26 1040.91,-467.751 1045.6,-477.254 1050.5,-472.26"/>
</g>
<!-- Node35 -->
<g id="node35" class="node"><title>Node35</title>
<g id="a_node35"><a xlink:href="mathlib_8h.html" target="_top" xlink:title="mathlib include file ">
<polygon fill="white" stroke="black" points="638.5,-392.5 638.5,-411.5 719.5,-411.5 719.5,-392.5 638.5,-392.5"/>
<text text-anchor="middle" x="679" y="-399.5" font-family="Helvetica,sans-Serif" font-size="10.00">math/mathlib.h</text>
</a>
</g>
</g>
<!-- Node1&#45;&gt;Node35 -->
<g id="edge75" class="edge"><title>Node1&#45;&gt;Node35</title>
<path fill="none" stroke="midnightblue" d="M1055.32,-504.46C982.263,-484.762 801.97,-436.154 720.34,-414.146"/>
<polygon fill="midnightblue" stroke="midnightblue" points="721.222,-410.758 710.655,-411.535 719.4,-417.517 721.222,-410.758"/>
</g>
<!-- Node45 -->
<g id="node45" class="node"><title>Node45</title>
<polygon fill="white" stroke="#bfbfbf" points="1289,-448.5 1289,-467.5 1351,-467.5 1351,-448.5 1289,-448.5"/>
<text text-anchor="middle" x="1320" y="-455.5" font-family="Helvetica,sans-Serif" font-size="10.00">sys/time.h</text>
</g>
<!-- Node1&#45;&gt;Node45 -->
<g id="edge74" class="edge"><title>Node1&#45;&gt;Node45</title>
<path fill="none" stroke="midnightblue" d="M1123.92,-504.444C1166.18,-494.649 1235.21,-478.652 1279.08,-468.484"/>
<polygon fill="midnightblue" stroke="midnightblue" points="1279.89,-471.888 1288.85,-466.22 1278.31,-465.069 1279.89,-471.888"/>
</g>
<!-- Node6&#45;&gt;Node4 -->
<g id="edge69" class="edge"><title>Node6&#45;&gt;Node4</title>
<path fill="none" stroke="midnightblue" d="M1058.53,-451.168C1111.78,-439.461 1227.33,-414.04 1236,-412 1237.27,-411.701 1238.56,-411.393 1239.87,-411.08"/>
<polygon fill="midnightblue" stroke="midnightblue" points="1241.06,-414.393 1249.94,-408.619 1239.39,-407.594 1241.06,-414.393"/>
</g>
<!-- Node7 -->
<g id="node7" class="node"><title>Node7</title>
<g id="a_node7"><a xlink:href="config_cosmos_8h.html" target="_top" xlink:title="Headers and definitions common to all COSMOS. ">
<polygon fill="white" stroke="black" points="602.5,-112.5 602.5,-131.5 725.5,-131.5 725.5,-112.5 602.5,-112.5"/>
<text text-anchor="middle" x="664" y="-119.5" font-family="Helvetica,sans-Serif" font-size="10.00">support/configCosmos.h</text>
</a>
</g>
</g>
<!-- Node6&#45;&gt;Node7 -->
<g id="edge6" class="edge"><title>Node6&#45;&gt;Node7</title>
<path fill="none" stroke="midnightblue" d="M1013.22,-448.428C999.105,-440.931 980.617,-428.634 971,-412 941.448,-360.883 986.964,-330.274 956,-280 902.704,-193.469 784.02,-151.616 715.5,-133.973"/>
<polygon fill="midnightblue" stroke="midnightblue" points="716.318,-130.57 705.768,-131.544 714.622,-137.362 716.318,-130.57"/>
</g>
<!-- Node17 -->
<g id="node17" class="node"><title>Node17</title>
<polygon fill="white" stroke="#bfbfbf" points="1444,-56.5 1444,-75.5 1488,-75.5 1488,-56.5 1444,-56.5"/>
<text text-anchor="middle" x="1466" y="-63.5" font-family="Helvetica,sans-Serif" font-size="10.00">cmath</text>
</g>
<!-- Node6&#45;&gt;Node17 -->
<g id="edge68" class="edge"><title>Node6&#45;&gt;Node17</title>
<path fill="none" stroke="midnightblue" d="M1056.84,-448.43C1108.34,-429.901 1222,-384.734 1222,-347 1222,-347 1222,-347 1222,-177 1222,-153.962 1368.43,-100.603 1434.42,-77.7279"/>
<polygon fill="midnightblue" stroke="midnightblue" points="1435.6,-81.0224 1443.92,-74.4542 1433.32,-74.4047 1435.6,-81.0224"/>
</g>
<!-- Node32 -->
<g id="node32" class="node"><title>Node32</title>
<g id="a_node32"><a xlink:href="elapsedtime_8h.html" target="_top" xlink:title="Elapsed Time header file. ">
<polygon fill="white" stroke="black" points="1004.5,-168.5 1004.5,-187.5 1117.5,-187.5 1117.5,-168.5 1004.5,-168.5"/>
<text text-anchor="middle" x="1061" y="-175.5" font-family="Helvetica,sans-Serif" font-size="10.00">support/elapsedtime.h</text>
</a>
</g>
</g>
<!-- Node6&#45;&gt;Node32 -->
<g id="edge38" class="edge"><title>Node6&#45;&gt;Node32</title>
<path fill="none" stroke="midnightblue" d="M1047.2,-448.364C1059.84,-440.44 1077.43,-427.584 1088,-412 1104.97,-386.989 1108,-377.225 1108,-347 1108,-347 1108,-347 1108,-289 1108,-253.702 1087.28,-216.786 1073.36,-195.96"/>
<polygon fill="midnightblue" stroke="midnightblue" points="1076.12,-193.8 1067.54,-187.587 1070.37,-197.796 1076.12,-193.8"/>
</g>
<!-- Node33 -->
<g id="node33" class="node"><title>Node33</title>
<polygon fill="white" stroke="#bfbfbf" points="1114.5,-112.5 1114.5,-131.5 1155.5,-131.5 1155.5,-112.5 1114.5,-112.5"/>
<text text-anchor="middle" x="1135" y="-119.5" font-family="Helvetica,sans-Serif" font-size="10.00">ctime</text>
</g>
<!-- Node6&#45;&gt;Node33 -->
<g id="edge72" class="edge"><title>Node6&#45;&gt;Node33</title>
<path fill="none" stroke="midnightblue" d="M1052.64,-448.421C1085.5,-433.231 1146,-398.293 1146,-347 1146,-347 1146,-347 1146,-233 1146,-200.788 1141.27,-163.532 1138.02,-141.692"/>
<polygon fill="midnightblue" stroke="midnightblue" points="1141.43,-140.874 1136.44,-131.529 1134.51,-141.947 1141.43,-140.874"/>
</g>
<!-- Node6&#45;&gt;Node35 -->
<g id="edge44" class="edge"><title>Node6&#45;&gt;Node35</title>
<path fill="none" stroke="midnightblue" d="M1005.47,-452.941C946.969,-443.992 806.071,-422.439 729.908,-410.788"/>
<polygon fill="midnightblue" stroke="midnightblue" points="730.021,-407.264 719.607,-409.212 728.962,-414.184 730.021,-407.264"/>
</g>
<!-- Node37 -->
<g id="node37" class="node"><title>Node37</title>
<polygon fill="white" stroke="#bfbfbf" points="900.5,-280.5 900.5,-299.5 947.5,-299.5 947.5,-280.5 900.5,-280.5"/>
<text text-anchor="middle" x="924" y="-287.5" font-family="Helvetica,sans-Serif" font-size="10.00">errno.h</text>
</g>
<!-- Node6&#45;&gt;Node37 -->
<g id="edge70" class="edge"><title>Node6&#45;&gt;Node37</title>
<path fill="none" stroke="midnightblue" d="M1005.11,-451.607C983.327,-445.745 953.764,-434.092 938,-412 916.271,-381.547 917.888,-335.401 920.961,-309.793"/>
<polygon fill="midnightblue" stroke="midnightblue" points="924.467,-309.993 922.397,-299.602 917.536,-309.016 924.467,-309.993"/>
</g>
<!-- Node43 -->
<g id="node43" class="node"><title>Node43</title>
<polygon fill="white" stroke="#bfbfbf" points="980,-392.5 980,-411.5 1026,-411.5 1026,-392.5 980,-392.5"/>
<text text-anchor="middle" x="1003" y="-399.5" font-family="Helvetica,sans-Serif" font-size="10.00">stdio.h</text>
</g>
<!-- Node6&#45;&gt;Node43 -->
<g id="edge71" class="edge"><title>Node6&#45;&gt;Node43</title>
<path fill="none" stroke="midnightblue" d="M1027.21,-448.083C1023.24,-440.691 1017.47,-429.953 1012.57,-420.811"/>
<polygon fill="midnightblue" stroke="midnightblue" points="1015.51,-418.905 1007.7,-411.751 1009.35,-422.217 1015.51,-418.905"/>
</g>
<!-- Node44 -->
<g id="node44" class="node"><title>Node44</title>
<polygon fill="white" stroke="#bfbfbf" points="1044.5,-392.5 1044.5,-411.5 1079.5,-411.5 1079.5,-392.5 1044.5,-392.5"/>
<text text-anchor="middle" x="1062" y="-399.5" font-family="Helvetica,sans-Serif" font-size="10.00">ratio</text>
</g>
<!-- Node6&#45;&gt;Node44 -->
<g id="edge73" class="edge"><title>Node6&#45;&gt;Node44</title>
<path fill="none" stroke="midnightblue" d="M1036.95,-448.083C1041.1,-440.613 1047.15,-429.724 1052.27,-420.52"/>
<polygon fill="midnightblue" stroke="midnightblue" points="1055.34,-422.192 1057.14,-411.751 1049.22,-418.793 1055.34,-422.192"/>
</g>
<!-- Node7&#45;&gt;Node2 -->
<g id="edge18" class="edge"><title>Node7&#45;&gt;Node2</title>
<path fill="none" stroke="midnightblue" d="M602.427,-116.701C499.533,-109.367 286.165,-93.5225 106,-76 92.3403,-74.6715 77.375,-73.0174 64.1786,-71.491"/>
<polygon fill="midnightblue" stroke="midnightblue" points="64.3725,-67.9899 54.0333,-70.3029 63.5583,-74.9424 64.3725,-67.9899"/>
</g>
<!-- Node8 -->
<g id="node8" class="node"><title>Node8</title>
<polygon fill="white" stroke="#bfbfbf" points="1191.5,-56.5 1191.5,-75.5 1236.5,-75.5 1236.5,-56.5 1191.5,-56.5"/>
<text text-anchor="middle" x="1214" y="-63.5" font-family="Helvetica,sans-Serif" font-size="10.00">climits</text>
</g>
<!-- Node7&#45;&gt;Node8 -->
<g id="edge7" class="edge"><title>Node7&#45;&gt;Node8</title>
<path fill="none" stroke="midnightblue" d="M725.781,-113.492C730.59,-112.966 735.373,-112.462 740,-112 932.863,-92.7329 986.247,-110.242 1181.39,-75.7312"/>
<polygon fill="midnightblue" stroke="midnightblue" points="1182.17,-79.1473 1191.4,-73.9385 1180.94,-72.257 1182.17,-79.1473"/>
</g>
<!-- Node9 -->
<g id="node9" class="node"><title>Node9</title>
<polygon fill="white" stroke="#bfbfbf" points="1254.5,-56.5 1254.5,-75.5 1301.5,-75.5 1301.5,-56.5 1254.5,-56.5"/>
<text text-anchor="middle" x="1278" y="-63.5" font-family="Helvetica,sans-Serif" font-size="10.00">csignal</text>
</g>
<!-- Node7&#45;&gt;Node9 -->
<g id="edge8" class="edge"><title>Node7&#45;&gt;Node9</title>
<path fill="none" stroke="midnightblue" d="M725.776,-113.44C730.586,-112.926 735.37,-112.439 740,-112 960.728,-91.0745 1021.41,-113.117 1244.28,-75.7551"/>
<polygon fill="midnightblue" stroke="midnightblue" points="1245.06,-79.1736 1254.33,-74.0491 1243.89,-72.2724 1245.06,-79.1736"/>
</g>
<!-- Node10 -->
<g id="node10" class="node"><title>Node10</title>
<polygon fill="white" stroke="#bfbfbf" points="1320,-56.5 1320,-75.5 1366,-75.5 1366,-56.5 1320,-56.5"/>
<text text-anchor="middle" x="1343" y="-63.5" font-family="Helvetica,sans-Serif" font-size="10.00">cstdint</text>
</g>
<!-- Node7&#45;&gt;Node10 -->
<g id="edge9" class="edge"><title>Node7&#45;&gt;Node10</title>
<path fill="none" stroke="midnightblue" d="M725.772,-113.397C730.583,-112.893 735.369,-112.42 740,-112 989.904,-89.3424 1058.52,-117.889 1309.55,-75.8853"/>
<polygon fill="midnightblue" stroke="midnightblue" points="1310.44,-79.2853 1319.71,-74.1637 1309.27,-72.3837 1310.44,-79.2853"/>
</g>
<!-- Node11 -->
<g id="node11" class="node"><title>Node11</title>
<polygon fill="white" stroke="#bfbfbf" points="472,-56.5 472,-75.5 528,-75.5 528,-56.5 472,-56.5"/>
<text text-anchor="middle" x="500" y="-63.5" font-family="Helvetica,sans-Serif" font-size="10.00">cinttypes</text>
</g>
<!-- Node7&#45;&gt;Node11 -->
<g id="edge10" class="edge"><title>Node7&#45;&gt;Node11</title>
<path fill="none" stroke="midnightblue" d="M638.014,-112.444C610.304,-103.32 566.248,-88.8133 535.384,-78.6509"/>
<polygon fill="midnightblue" stroke="midnightblue" points="536.458,-75.3196 525.865,-75.5164 534.268,-81.9684 536.458,-75.3196"/>
</g>
<!-- Node12 -->
<g id="node12" class="node"><title>Node12</title>
<polygon fill="white" stroke="#bfbfbf" points="546.5,-56.5 546.5,-75.5 589.5,-75.5 589.5,-56.5 546.5,-56.5"/>
<text text-anchor="middle" x="568" y="-63.5" font-family="Helvetica,sans-Serif" font-size="10.00">cstdio</text>
</g>
<!-- Node7&#45;&gt;Node12 -->
<g id="edge11" class="edge"><title>Node7&#45;&gt;Node12</title>
<path fill="none" stroke="midnightblue" d="M648.576,-112.324C633.46,-103.822 610.185,-90.7288 592.529,-80.7975"/>
<polygon fill="midnightblue" stroke="midnightblue" points="593.817,-77.5066 583.386,-75.6545 590.386,-83.6077 593.817,-77.5066"/>
</g>
<!-- Node13 -->
<g id="node13" class="node"><title>Node13</title>
<polygon fill="white" stroke="#bfbfbf" points="607.5,-56.5 607.5,-75.5 656.5,-75.5 656.5,-56.5 607.5,-56.5"/>
<text text-anchor="middle" x="632" y="-63.5" font-family="Helvetica,sans-Serif" font-size="10.00">cstddef</text>
</g>
<!-- Node7&#45;&gt;Node13 -->
<g id="edge12" class="edge"><title>Node7&#45;&gt;Node13</title>
<path fill="none" stroke="midnightblue" d="M658.716,-112.083C654.289,-104.613 647.837,-93.7244 642.382,-84.5199"/>
<polygon fill="midnightblue" stroke="midnightblue" points="645.295,-82.5697 637.186,-75.7511 639.273,-86.1383 645.295,-82.5697"/>
</g>
<!-- Node14 -->
<g id="node14" class="node"><title>Node14</title>
<polygon fill="white" stroke="#bfbfbf" points="674.5,-56.5 674.5,-75.5 719.5,-75.5 719.5,-56.5 674.5,-56.5"/>
<text text-anchor="middle" x="697" y="-63.5" font-family="Helvetica,sans-Serif" font-size="10.00">cstdlib</text>
</g>
<!-- Node7&#45;&gt;Node14 -->
<g id="edge13" class="edge"><title>Node7&#45;&gt;Node14</title>
<path fill="none" stroke="midnightblue" d="M669.449,-112.083C674.014,-104.613 680.668,-93.7244 686.293,-84.5199"/>
<polygon fill="midnightblue" stroke="midnightblue" points="689.424,-86.109 691.652,-75.7511 683.451,-82.4588 689.424,-86.109"/>
</g>
<!-- Node15 -->
<g id="node15" class="node"><title>Node15</title>
<polygon fill="white" stroke="#bfbfbf" points="738,-56.5 738,-75.5 782,-75.5 782,-56.5 738,-56.5"/>
<text text-anchor="middle" x="760" y="-63.5" font-family="Helvetica,sans-Serif" font-size="10.00">cerrno</text>
</g>
<!-- Node7&#45;&gt;Node15 -->
<g id="edge14" class="edge"><title>Node7&#45;&gt;Node15</title>
<path fill="none" stroke="midnightblue" d="M679.424,-112.324C694.54,-103.822 717.815,-90.7288 735.471,-80.7975"/>
<polygon fill="midnightblue" stroke="midnightblue" points="737.614,-83.6077 744.614,-75.6545 734.183,-77.5066 737.614,-83.6077"/>
</g>
<!-- Node16 -->
<g id="node16" class="node"><title>Node16</title>
<polygon fill="white" stroke="#bfbfbf" points="800,-56.5 800,-75.5 846,-75.5 846,-56.5 800,-56.5"/>
<text text-anchor="middle" x="823" y="-63.5" font-family="Helvetica,sans-Serif" font-size="10.00">cstring</text>
</g>
<!-- Node7&#45;&gt;Node16 -->
<g id="edge15" class="edge"><title>Node7&#45;&gt;Node16</title>
<path fill="none" stroke="midnightblue" d="M689.194,-112.444C716.572,-103.145 760.409,-88.2572 790.395,-78.0735"/>
<polygon fill="midnightblue" stroke="midnightblue" points="791.646,-81.3451 799.989,-74.8151 789.394,-74.7169 791.646,-81.3451"/>
</g>
<!-- Node7&#45;&gt;Node17 -->
<g id="edge16" class="edge"><title>Node7&#45;&gt;Node17</title>
<path fill="none" stroke="midnightblue" d="M725.511,-115.872C742.509,-114.528 760.964,-113.139 778,-112 1066.51,-92.7099 1144.96,-124.36 1433.86,-75.7912"/>
<polygon fill="midnightblue" stroke="midnightblue" points="1434.52,-79.2304 1443.79,-74.105 1433.35,-72.3292 1434.52,-79.2304"/>
</g>
<!-- Node18 -->
<g id="node18" class="node"><title>Node18</title>
<polygon fill="white" stroke="#bfbfbf" points="864.5,-56.5 864.5,-75.5 909.5,-75.5 909.5,-56.5 864.5,-56.5"/>
<text text-anchor="middle" x="887" y="-63.5" font-family="Helvetica,sans-Serif" font-size="10.00">iosfwd</text>
</g>
<!-- Node7&#45;&gt;Node18 -->
<g id="edge17" class="edge"><title>Node7&#45;&gt;Node18</title>
<path fill="none" stroke="midnightblue" d="M702.532,-112.431C739.154,-104.173 795.997,-91.0641 854.52,-76.0385"/>
<polygon fill="midnightblue" stroke="midnightblue" points="855.499,-79.4007 864.307,-73.5118 853.749,-72.6229 855.499,-79.4007"/>
</g>
<!-- Node19 -->
<g id="node19" class="node"><title>Node19</title>
<polygon fill="white" stroke="#bfbfbf" points="927.5,-56.5 927.5,-75.5 978.5,-75.5 978.5,-56.5 927.5,-56.5"/>
<text text-anchor="middle" x="953" y="-63.5" font-family="Helvetica,sans-Serif" font-size="10.00">unistd.h</text>
</g>
<!-- Node7&#45;&gt;Node19 -->
<g id="edge19" class="edge"><title>Node7&#45;&gt;Node19</title>
<path fill="none" stroke="midnightblue" d="M719.235,-112.462C768.63,-104.545 843.196,-91.9013 917.443,-75.9774"/>
<polygon fill="midnightblue" stroke="midnightblue" points="918.407,-79.3499 927.439,-73.8129 916.925,-72.5085 918.407,-79.3499"/>
</g>
<!-- Node20 -->
<g id="node20" class="node"><title>Node20</title>
<polygon fill="white" stroke="#bfbfbf" points="997,-56.5 997,-75.5 1041,-75.5 1041,-56.5 997,-56.5"/>
<text text-anchor="middle" x="1019" y="-63.5" font-family="Helvetica,sans-Serif" font-size="10.00">fcntl.h</text>
</g>
<!-- Node7&#45;&gt;Node20 -->
<g id="edge20" class="edge"><title>Node7&#45;&gt;Node20</title>
<path fill="none" stroke="midnightblue" d="M725.643,-113.426C800.812,-104.023 924.517,-87.9702 986.888,-75.6971"/>
<polygon fill="midnightblue" stroke="midnightblue" points="987.622,-79.1196 996.716,-73.6843 986.217,-72.262 987.622,-79.1196"/>
</g>
<!-- Node21 -->
<g id="node21" class="node"><title>Node21</title>
<polygon fill="white" stroke="#bfbfbf" points="1384.5,-56.5 1384.5,-75.5 1425.5,-75.5 1425.5,-56.5 1384.5,-56.5"/>
<text text-anchor="middle" x="1405" y="-63.5" font-family="Helvetica,sans-Serif" font-size="10.00">string</text>
</g>
<!-- Node7&#45;&gt;Node21 -->
<g id="edge21" class="edge"><title>Node7&#45;&gt;Node21</title>
<path fill="none" stroke="midnightblue" d="M725.515,-115.933C742.513,-114.591 760.967,-113.186 778,-112 1039.81,-93.7734 1111.47,-121.773 1374.26,-75.6496"/>
<polygon fill="midnightblue" stroke="midnightblue" points="1375.26,-79.0271 1384.49,-73.8333 1374.04,-72.1348 1375.26,-79.0271"/>
</g>
<!-- Node22 -->
<g id="node22" class="node"><title>Node22</title>
<polygon fill="white" stroke="#bfbfbf" points="67,-0.5 67,-19.5 111,-19.5 111,-0.5 67,-0.5"/>
<text text-anchor="middle" x="89" y="-7.5" font-family="Helvetica,sans-Serif" font-size="10.00">vector</text>
</g>
<!-- Node7&#45;&gt;Node22 -->
<g id="edge22" class="edge"><title>Node7&#45;&gt;Node22</title>
<path fill="none" stroke="midnightblue" d="M602.188,-119.412C489.021,-115.829 253.167,-105.032 177,-76 148.587,-65.1698 121.295,-42.4649 104.835,-26.9729"/>
<polygon fill="midnightblue" stroke="midnightblue" points="106.88,-24.0809 97.2658,-19.6301 102.006,-29.1052 106.88,-24.0809"/>
</g>
<!-- Node23 -->
<g id="node23" class="node"><title>Node23</title>
<polygon fill="white" stroke="#bfbfbf" points="1059.5,-56.5 1059.5,-75.5 1102.5,-75.5 1102.5,-56.5 1059.5,-56.5"/>
<text text-anchor="middle" x="1081" y="-63.5" font-family="Helvetica,sans-Serif" font-size="10.00">deque</text>
</g>
<!-- Node7&#45;&gt;Node23 -->
<g id="edge23" class="edge"><title>Node7&#45;&gt;Node23</title>
<path fill="none" stroke="midnightblue" d="M725.8,-113.67C730.605,-113.103 735.381,-112.542 740,-112 874.531,-96.2229 912.28,-103.089 1049.39,-75.7856"/>
<polygon fill="midnightblue" stroke="midnightblue" points="1050.32,-79.1675 1059.43,-73.7599 1048.94,-72.3056 1050.32,-79.1675"/>
</g>
<!-- Node24 -->
<g id="node24" class="node"><title>Node24</title>
<polygon fill="white" stroke="#bfbfbf" points="129,-0.5 129,-19.5 173,-19.5 173,-0.5 129,-0.5"/>
<text text-anchor="middle" x="151" y="-7.5" font-family="Helvetica,sans-Serif" font-size="10.00">mutex</text>
</g>
<!-- Node7&#45;&gt;Node24 -->
<g id="edge24" class="edge"><title>Node7&#45;&gt;Node24</title>
<path fill="none" stroke="midnightblue" d="M602.131,-120.838C492.736,-119.595 270.34,-112.498 203,-76 183.406,-65.3801 168.548,-43.9665 159.831,-28.6178"/>
<polygon fill="midnightblue" stroke="midnightblue" points="162.802,-26.7513 155.002,-19.5818 156.629,-30.051 162.802,-26.7513"/>
</g>
<!-- Node25 -->
<g id="node25" class="node"><title>Node25</title>
<polygon fill="white" stroke="#bfbfbf" points="191,-0.5 191,-19.5 235,-19.5 235,-0.5 191,-0.5"/>
<text text-anchor="middle" x="213" y="-7.5" font-family="Helvetica,sans-Serif" font-size="10.00">thread</text>
</g>
<!-- Node7&#45;&gt;Node25 -->
<g id="edge25" class="edge"><title>Node7&#45;&gt;Node25</title>
<path fill="none" stroke="midnightblue" d="M602.31,-119.248C485.408,-115.298 240.923,-103.78 215,-76 203.706,-63.897 204.693,-44.335 207.598,-29.8287"/>
<polygon fill="midnightblue" stroke="midnightblue" points="211.044,-30.4739 210.022,-19.9284 204.245,-28.8093 211.044,-30.4739"/>
</g>
<!-- Node26 -->
<g id="node26" class="node"><title>Node26</title>
<polygon fill="white" stroke="#bfbfbf" points="299.5,-0.5 299.5,-19.5 394.5,-19.5 394.5,-0.5 299.5,-0.5"/>
<text text-anchor="middle" x="347" y="-7.5" font-family="Helvetica,sans-Serif" font-size="10.00">condition_variable</text>
</g>
<!-- Node7&#45;&gt;Node26 -->
<g id="edge26" class="edge"><title>Node7&#45;&gt;Node26</title>
<path fill="none" stroke="midnightblue" d="M602.437,-115.834C555.77,-110.257 490.871,-98.8788 438,-76 409.519,-63.6754 381.127,-41.4004 363.816,-26.4058"/>
<polygon fill="midnightblue" stroke="midnightblue" points="366.062,-23.7192 356.257,-19.7052 361.419,-28.9576 366.062,-23.7192"/>
</g>
<!-- Node27 -->
<g id="node27" class="node"><title>Node27</title>
<polygon fill="white" stroke="#bfbfbf" points="412.5,-0.5 412.5,-19.5 455.5,-19.5 455.5,-0.5 412.5,-0.5"/>
<text text-anchor="middle" x="434" y="-7.5" font-family="Helvetica,sans-Serif" font-size="10.00">queue</text>
</g>
<!-- Node7&#45;&gt;Node27 -->
<g id="edge27" class="edge"><title>Node7&#45;&gt;Node27</title>
<path fill="none" stroke="midnightblue" d="M602.296,-114.556C548.685,-107.761 476.37,-95.3247 455,-76 441.963,-64.2104 436.983,-44.2836 435.1,-29.5941"/>
<polygon fill="midnightblue" stroke="midnightblue" points="438.582,-29.2412 434.182,-19.6035 431.612,-29.8818 438.582,-29.2412"/>
</g>
<!-- Node28 -->
<g id="node28" class="node"><title>Node28</title>
<polygon fill="white" stroke="#bfbfbf" points="1121,-56.5 1121,-75.5 1173,-75.5 1173,-56.5 1121,-56.5"/>
<text text-anchor="middle" x="1147" y="-63.5" font-family="Helvetica,sans-Serif" font-size="10.00">sstream</text>
</g>
<!-- Node7&#45;&gt;Node28 -->
<g id="edge28" class="edge"><title>Node7&#45;&gt;Node28</title>
<path fill="none" stroke="midnightblue" d="M725.789,-113.572C730.597,-113.028 735.376,-112.498 740,-112 901.494,-94.6046 946.021,-103.79 1110.76,-75.7602"/>
<polygon fill="midnightblue" stroke="midnightblue" points="1111.49,-79.1863 1120.75,-74.0402 1110.3,-72.2878 1111.49,-79.1863"/>
</g>
<!-- Node29 -->
<g id="node29" class="node"><title>Node29</title>
<polygon fill="white" stroke="#bfbfbf" points="473.5,-0.5 473.5,-19.5 508.5,-19.5 508.5,-0.5 473.5,-0.5"/>
<text text-anchor="middle" x="491" y="-7.5" font-family="Helvetica,sans-Serif" font-size="10.00">map</text>
</g>
<!-- Node7&#45;&gt;Node29 -->
<g id="edge29" class="edge"><title>Node7&#45;&gt;Node29</title>
<path fill="none" stroke="midnightblue" d="M602.408,-115.556C549.904,-109.488 480.268,-97.5618 463,-76 451.423,-61.5452 463.184,-41.5804 474.814,-27.6039"/>
<polygon fill="midnightblue" stroke="midnightblue" points="477.761,-29.5607 481.83,-19.7783 472.548,-24.8881 477.761,-29.5607"/>
</g>
<!-- Node30 -->
<g id="node30" class="node"><title>Node30</title>
<g id="a_node30"><a xlink:href="cosmos-defs_8h.html" target="_top" xlink:title="COSMOS definitions Definitions specific to the COSMOS environement. ">
<polygon fill="white" stroke="black" points="224,-56.5 224,-75.5 340,-75.5 340,-56.5 224,-56.5"/>
<text text-anchor="middle" x="282" y="-63.5" font-family="Helvetica,sans-Serif" font-size="10.00">support/cosmos&#45;defs.h</text>
</a>
</g>
</g>
<!-- Node7&#45;&gt;Node30 -->
<g id="edge30" class="edge"><title>Node7&#45;&gt;Node30</title>
<path fill="none" stroke="midnightblue" d="M603.471,-112.444C534.593,-102.707 422.355,-86.8408 350.374,-76.6654"/>
<polygon fill="midnightblue" stroke="midnightblue" points="350.447,-73.1411 340.056,-75.2068 349.467,-80.0722 350.447,-73.1411"/>
</g>
<!-- Node30&#45;&gt;Node22 -->
<g id="edge32" class="edge"><title>Node30&#45;&gt;Node22</title>
<path fill="none" stroke="midnightblue" d="M250.913,-56.4801C220.255,-48.052 171.807,-34.6664 120.88,-20.227"/>
<polygon fill="midnightblue" stroke="midnightblue" points="121.582,-16.7881 111.006,-17.4231 119.67,-23.5219 121.582,-16.7881"/>
</g>
<!-- Node30&#45;&gt;Node24 -->
<g id="edge36" class="edge"><title>Node30&#45;&gt;Node24</title>
<path fill="none" stroke="midnightblue" d="M261.243,-56.4435C239.684,-47.5566 205.737,-33.5632 181.206,-23.4514"/>
<polygon fill="midnightblue" stroke="midnightblue" points="182.239,-20.0917 171.66,-19.5164 179.572,-26.5634 182.239,-20.0917"/>
</g>
<!-- Node30&#45;&gt;Node25 -->
<g id="edge35" class="edge"><title>Node30&#45;&gt;Node25</title>
<path fill="none" stroke="midnightblue" d="M270.914,-56.324C260.514,-48.1849 244.739,-35.8395 232.278,-26.0874"/>
<polygon fill="midnightblue" stroke="midnightblue" points="234.32,-23.2407 224.288,-19.8339 230.006,-28.7533 234.32,-23.2407"/>
</g>
<!-- Node30&#45;&gt;Node26 -->
<g id="edge37" class="edge"><title>Node30&#45;&gt;Node26</title>
<path fill="none" stroke="midnightblue" d="M292.443,-56.324C302.146,-48.2631 316.815,-36.0765 328.5,-26.3695"/>
<polygon fill="midnightblue" stroke="midnightblue" points="330.911,-28.9163 336.367,-19.8339 326.438,-23.532 330.911,-28.9163"/>
</g>
<!-- Node30&#45;&gt;Node27 -->
<g id="edge34" class="edge"><title>Node30&#45;&gt;Node27</title>
<path fill="none" stroke="midnightblue" d="M306.085,-56.4435C332.293,-47.1326 374.28,-32.2163 402.948,-22.0315"/>
<polygon fill="midnightblue" stroke="midnightblue" points="404.234,-25.2891 412.485,-18.6433 401.891,-18.693 404.234,-25.2891"/>
</g>
<!-- Node30&#45;&gt;Node29 -->
<g id="edge31" class="edge"><title>Node30&#45;&gt;Node29</title>
<path fill="none" stroke="midnightblue" d="M320.23,-56.478C355.125,-48.4931 408.309,-35.8092 463.403,-19.9912"/>
<polygon fill="midnightblue" stroke="midnightblue" points="464.715,-23.2552 473.344,-17.1084 462.765,-16.5321 464.715,-23.2552"/>
</g>
<!-- Node31 -->
<g id="node31" class="node"><title>Node31</title>
<polygon fill="white" stroke="#bfbfbf" points="252.5,-0.5 252.5,-19.5 281.5,-19.5 281.5,-0.5 252.5,-0.5"/>
<text text-anchor="middle" x="267" y="-7.5" font-family="Helvetica,sans-Serif" font-size="10.00">list</text>
</g>
<!-- Node30&#45;&gt;Node31 -->
<g id="edge33" class="edge"><title>Node30&#45;&gt;Node31</title>
<path fill="none" stroke="midnightblue" d="M279.523,-56.083C277.514,-48.8486 274.614,-38.4087 272.11,-29.3968"/>
<polygon fill="midnightblue" stroke="midnightblue" points="275.48,-28.4495 269.431,-19.7511 268.735,-30.323 275.48,-28.4495"/>
</g>
<!-- Node32&#45;&gt;Node2 -->
<g id="edge40" class="edge"><title>Node32&#45;&gt;Node2</title>
<path fill="none" stroke="midnightblue" d="M1004.41,-171.899C916.389,-163.888 741.346,-147.649 593,-132 393.357,-110.94 154.505,-82.4165 64.1069,-71.5018"/>
<polygon fill="midnightblue" stroke="midnightblue" points="64.4268,-68.0151 54.0791,-70.2897 63.5868,-74.9645 64.4268,-68.0151"/>
</g>
<!-- Node32&#45;&gt;Node7 -->
<g id="edge39" class="edge"><title>Node32&#45;&gt;Node7</title>
<path fill="none" stroke="midnightblue" d="M1004.12,-169.263C933.432,-159.648 812.748,-143.233 735.768,-132.762"/>
<polygon fill="midnightblue" stroke="midnightblue" points="736.053,-129.268 725.672,-131.389 735.109,-136.205 736.053,-129.268"/>
</g>
<!-- Node32&#45;&gt;Node21 -->
<g id="edge41" class="edge"><title>Node32&#45;&gt;Node21</title>
<path fill="none" stroke="midnightblue" d="M1053.7,-168.303C1043.17,-154.671 1026.48,-128.164 1041,-112 1088.98,-58.572 1285.99,-88.3034 1374.48,-75.4385"/>
<polygon fill="midnightblue" stroke="midnightblue" points="1375.22,-78.8637 1384.47,-73.7022 1374.02,-71.9672 1375.22,-78.8637"/>
</g>
<!-- Node32&#45;&gt;Node33 -->
<g id="edge42" class="edge"><title>Node32&#45;&gt;Node33</title>
<path fill="none" stroke="midnightblue" d="M1072.89,-168.324C1084.15,-160.107 1101.29,-147.602 1114.71,-137.807"/>
<polygon fill="midnightblue" stroke="midnightblue" points="1116.88,-140.556 1122.89,-131.834 1112.75,-134.901 1116.88,-140.556"/>
</g>
<!-- Node34 -->
<g id="node34" class="node"><title>Node34</title>
<polygon fill="white" stroke="#bfbfbf" points="1050,-112.5 1050,-131.5 1096,-131.5 1096,-112.5 1050,-112.5"/>
<text text-anchor="middle" x="1073" y="-119.5" font-family="Helvetica,sans-Serif" font-size="10.00">chrono</text>
</g>
<!-- Node32&#45;&gt;Node34 -->
<g id="edge43" class="edge"><title>Node32&#45;&gt;Node34</title>
<path fill="none" stroke="midnightblue" d="M1062.98,-168.083C1064.57,-160.927 1066.86,-150.635 1068.85,-141.691"/>
<polygon fill="midnightblue" stroke="midnightblue" points="1072.3,-142.272 1071.06,-131.751 1065.47,-140.754 1072.3,-142.272"/>
</g>
<!-- Node35&#45;&gt;Node2 -->
<g id="edge67" class="edge"><title>Node35&#45;&gt;Node2</title>
<path fill="none" stroke="midnightblue" d="M638.238,-398.029C501.104,-387.497 65,-349.411 65,-291 65,-291 65,-291 65,-177 65,-142.813 48.3995,-105.764 37.1427,-84.5707"/>
<polygon fill="midnightblue" stroke="midnightblue" points="40.1809,-82.832 32.2837,-75.769 34.0527,-86.2151 40.1809,-82.832"/>
</g>
<!-- Node35&#45;&gt;Node7 -->
<g id="edge45" class="edge"><title>Node35&#45;&gt;Node7</title>
<path fill="none" stroke="midnightblue" d="M676.438,-392.249C671.251,-373.738 660,-329.179 660,-291 660,-291 660,-291 660,-233 660,-200.927 661.719,-163.628 662.904,-141.741"/>
<polygon fill="midnightblue" stroke="midnightblue" points="666.409,-141.735 663.477,-131.554 659.42,-141.341 666.409,-141.735"/>
</g>
<!-- Node35&#45;&gt;Node17 -->
<g id="edge66" class="edge"><title>Node35&#45;&gt;Node17</title>
<path fill="none" stroke="midnightblue" d="M719.789,-400.019C758.309,-397.08 815.728,-387.248 854,-356 883.1,-332.24 863.395,-305.482 891,-280 973.416,-203.92 1030.99,-247.607 1126,-188 1168.09,-161.593 1163.31,-133.719 1208,-112 1297,-68.7466 1333.04,-96.4244 1433.78,-75.9604"/>
<polygon fill="midnightblue" stroke="midnightblue" points="1434.69,-79.3447 1443.74,-73.8258 1433.22,-72.5003 1434.69,-79.3447"/>
</g>
<!-- Node36 -->
<g id="node36" class="node"><title>Node36</title>
<g id="a_node36"><a xlink:href="cosmos-errno_8h.html" target="_top" xlink:title="COSMOS Error Codes. ">
<polygon fill="white" stroke="black" points="726.5,-336.5 726.5,-355.5 845.5,-355.5 845.5,-336.5 726.5,-336.5"/>
<text text-anchor="middle" x="786" y="-343.5" font-family="Helvetica,sans-Serif" font-size="10.00">support/cosmos&#45;errno.h</text>
</a>
</g>
</g>
<!-- Node35&#45;&gt;Node36 -->
<g id="edge46" class="edge"><title>Node35&#45;&gt;Node36</title>
<path fill="none" stroke="midnightblue" d="M696.191,-392.324C713.351,-383.664 739.946,-370.242 759.747,-360.249"/>
<polygon fill="midnightblue" stroke="midnightblue" points="761.501,-363.285 768.851,-355.655 758.347,-357.035 761.501,-363.285"/>
</g>
<!-- Node38 -->
<g id="node38" class="node"><title>Node38</title>
<g id="a_node38"><a xlink:href="math_2constants_8h.html" target="_top" xlink:title="constants.h">
<polygon fill="white" stroke="black" points="688,-168.5 688,-187.5 756,-187.5 756,-168.5 688,-168.5"/>
<text text-anchor="middle" x="722" y="-175.5" font-family="Helvetica,sans-Serif" font-size="10.00">constants.h</text>
</a>
</g>
</g>
<!-- Node35&#45;&gt;Node38 -->
<g id="edge49" class="edge"><title>Node35&#45;&gt;Node38</title>
<path fill="none" stroke="midnightblue" d="M680.686,-392.297C687.013,-359.633 709.436,-243.866 718.328,-197.957"/>
<polygon fill="midnightblue" stroke="midnightblue" points="721.814,-198.367 720.279,-187.884 714.941,-197.036 721.814,-198.367"/>
</g>
<!-- Node39 -->
<g id="node39" class="node"><title>Node39</title>
<g id="a_node39"><a xlink:href="vector_8h.html" target="_top" xlink:title="vector.h">
<polygon fill="white" stroke="black" points="526,-224.5 526,-243.5 578,-243.5 578,-224.5 526,-224.5"/>
<text text-anchor="middle" x="552" y="-231.5" font-family="Helvetica,sans-Serif" font-size="10.00">vector.h</text>
</a>
</g>
</g>
<!-- Node35&#45;&gt;Node39 -->
<g id="edge52" class="edge"><title>Node35&#45;&gt;Node39</title>
<path fill="none" stroke="midnightblue" d="M665.873,-392.377C643.096,-376.73 596.275,-341.416 571,-300 562.292,-285.73 557.396,-267.26 554.763,-253.657"/>
<polygon fill="midnightblue" stroke="midnightblue" points="558.176,-252.848 553.051,-243.575 551.275,-254.02 558.176,-252.848"/>
</g>
<!-- Node41 -->
<g id="node41" class="node"><title>Node41</title>
<g id="a_node41"><a xlink:href="matrix_8h.html" target="_top" xlink:title="matrix.h">
<polygon fill="white" stroke="black" points="580,-280.5 580,-299.5 632,-299.5 632,-280.5 580,-280.5"/>
<text text-anchor="middle" x="606" y="-287.5" font-family="Helvetica,sans-Serif" font-size="10.00">matrix.h</text>
</a>
</g>
</g>
<!-- Node35&#45;&gt;Node41 -->
<g id="edge59" class="edge"><title>Node35&#45;&gt;Node41</title>
<path fill="none" stroke="midnightblue" d="M672.209,-392.188C665.38,-383.224 654.652,-368.861 646,-356 635.391,-340.231 624.113,-321.726 616.246,-308.503"/>
<polygon fill="midnightblue" stroke="midnightblue" points="619.06,-306.385 610.963,-299.553 613.032,-309.943 619.06,-306.385"/>
</g>
<!-- Node42 -->
<g id="node42" class="node"><title>Node42</title>
<g id="a_node42"><a xlink:href="rotation_8h.html" target="_top" xlink:title="rotation.h">
<polygon fill="white" stroke="black" points="466.5,-336.5 466.5,-355.5 523.5,-355.5 523.5,-336.5 466.5,-336.5"/>
<text text-anchor="middle" x="495" y="-343.5" font-family="Helvetica,sans-Serif" font-size="10.00">rotation.h</text>
</a>
</g>
</g>
<!-- Node35&#45;&gt;Node42 -->
<g id="edge62" class="edge"><title>Node35&#45;&gt;Node42</title>
<path fill="none" stroke="midnightblue" d="M649.845,-392.444C618.394,-383.214 568.175,-368.475 533.498,-358.298"/>
<polygon fill="midnightblue" stroke="midnightblue" points="534.297,-354.885 523.716,-355.428 532.326,-361.602 534.297,-354.885"/>
</g>
<!-- Node36&#45;&gt;Node7 -->
<g id="edge47" class="edge"><title>Node36&#45;&gt;Node7</title>
<path fill="none" stroke="midnightblue" d="M787.73,-336.188C792.67,-308.361 804.091,-221.069 765,-168 753.178,-151.951 734.33,-141.518 716.1,-134.785"/>
<polygon fill="midnightblue" stroke="midnightblue" points="716.969,-131.385 706.375,-131.503 714.73,-138.017 716.969,-131.385"/>
</g>
<!-- Node36&#45;&gt;Node37 -->
<g id="edge48" class="edge"><title>Node36&#45;&gt;Node37</title>
<path fill="none" stroke="midnightblue" d="M807.867,-336.444C830.779,-327.478 866.975,-313.314 892.866,-303.183"/>
<polygon fill="midnightblue" stroke="midnightblue" points="894.199,-306.42 902.236,-299.516 891.648,-299.901 894.199,-306.42"/>
</g>
<!-- Node38&#45;&gt;Node7 -->
<g id="edge50" class="edge"><title>Node38&#45;&gt;Node7</title>
<path fill="none" stroke="midnightblue" d="M712.681,-168.324C704.107,-160.341 691.188,-148.313 680.812,-138.653"/>
<polygon fill="midnightblue" stroke="midnightblue" points="683.192,-136.086 673.488,-131.834 678.422,-141.21 683.192,-136.086"/>
</g>
<!-- Node38&#45;&gt;Node10 -->
<g id="edge51" class="edge"><title>Node38&#45;&gt;Node10</title>
<path fill="none" stroke="midnightblue" d="M726.453,-168.328C734.492,-153.707 752.952,-124.521 778,-112 881.491,-60.2684 1178.41,-94.3446 1309.78,-75.717"/>
<polygon fill="midnightblue" stroke="midnightblue" points="1310.38,-79.167 1319.71,-74.1514 1309.29,-72.2525 1310.38,-79.167"/>
</g>
<!-- Node39&#45;&gt;Node2 -->
<g id="edge55" class="edge"><title>Node39&#45;&gt;Node2</title>
<path fill="none" stroke="midnightblue" d="M525.831,-231.99C449.768,-228.739 230.011,-217.013 165,-188 118.419,-167.212 117.397,-145.579 79,-112 67.6257,-102.053 54.7884,-90.9426 44.7146,-82.2503"/>
<polygon fill="midnightblue" stroke="midnightblue" points="46.8549,-79.4744 36.9954,-75.5961 42.2844,-84.7764 46.8549,-79.4744"/>
</g>
<!-- Node39&#45;&gt;Node7 -->
<g id="edge53" class="edge"><title>Node39&#45;&gt;Node7</title>
<path fill="none" stroke="midnightblue" d="M558.778,-224.141C568.867,-211.197 588.72,-186.631 608,-168 619.182,-157.195 632.754,-146.241 643.736,-137.847"/>
<polygon fill="midnightblue" stroke="midnightblue" points="646.003,-140.521 651.894,-131.714 641.797,-134.926 646.003,-140.521"/>
</g>
<!-- Node39&#45;&gt;Node17 -->
<g id="edge57" class="edge"><title>Node39&#45;&gt;Node17</title>
<path fill="none" stroke="midnightblue" d="M578.017,-228.031C618.264,-220.225 697.975,-204.292 765,-188 888.632,-157.948 915.821,-134.767 1041,-112 1210.79,-81.1187 1260.39,-107.639 1433.8,-75.8707"/>
<polygon fill="midnightblue" stroke="midnightblue" points="1434.59,-79.2848 1443.77,-74.0056 1433.3,-72.4042 1434.59,-79.2848"/>
</g>
<!-- Node39&#45;&gt;Node22 -->
<g id="edge58" class="edge"><title>Node39&#45;&gt;Node22</title>
<path fill="none" stroke="midnightblue" d="M525.928,-228.48C456.532,-215.4 263.961,-172.156 137,-76 120.282,-63.3381 106.72,-43.2974 98.3297,-28.8144"/>
<polygon fill="midnightblue" stroke="midnightblue" points="101.269,-26.8973 93.372,-19.8345 95.1412,-30.2806 101.269,-26.8973"/>
</g>
<!-- Node39&#45;&gt;Node38 -->
<g id="edge54" class="edge"><title>Node39&#45;&gt;Node38</title>
<path fill="none" stroke="midnightblue" d="M578.19,-224.681C606.972,-215.538 653.401,-200.79 685.688,-190.534"/>
<polygon fill="midnightblue" stroke="midnightblue" points="686.748,-193.87 695.219,-187.507 684.629,-187.199 686.748,-193.87"/>
</g>
<!-- Node40 -->
<g id="node40" class="node"><title>Node40</title>
<polygon fill="white" stroke="#bfbfbf" points="506,-168.5 506,-187.5 556,-187.5 556,-168.5 506,-168.5"/>
<text text-anchor="middle" x="531" y="-175.5" font-family="Helvetica,sans-Serif" font-size="10.00">iomanip</text>
</g>
<!-- Node39&#45;&gt;Node40 -->
<g id="edge56" class="edge"><title>Node39&#45;&gt;Node40</title>
<path fill="none" stroke="midnightblue" d="M548.532,-224.083C545.688,-216.77 541.571,-206.181 538.04,-197.103"/>
<polygon fill="midnightblue" stroke="midnightblue" points="541.29,-195.803 534.403,-187.751 534.766,-198.34 541.29,-195.803"/>
</g>
<!-- Node41&#45;&gt;Node7 -->
<g id="edge60" class="edge"><title>Node41&#45;&gt;Node7</title>
<path fill="none" stroke="midnightblue" d="M608.635,-280.43C614.791,-260.544 630.756,-209.777 646,-168 649.285,-158.996 653.211,-149.096 656.556,-140.879"/>
<polygon fill="midnightblue" stroke="midnightblue" points="659.82,-142.146 660.392,-131.567 653.347,-139.48 659.82,-142.146"/>
</g>
<!-- Node41&#45;&gt;Node39 -->
<g id="edge61" class="edge"><title>Node41&#45;&gt;Node39</title>
<path fill="none" stroke="midnightblue" d="M597.083,-280.083C589.22,-272.22 577.569,-260.569 568.081,-251.081"/>
<polygon fill="midnightblue" stroke="midnightblue" points="570.297,-248.347 560.751,-243.751 565.347,-253.297 570.297,-248.347"/>
</g>
<!-- Node42&#45;&gt;Node7 -->
<g id="edge63" class="edge"><title>Node42&#45;&gt;Node7</title>
<path fill="none" stroke="midnightblue" d="M491.89,-336.468C482.381,-308.741 456.708,-219.976 497,-168 509.169,-152.303 553.356,-140.812 593.22,-133.372"/>
<polygon fill="midnightblue" stroke="midnightblue" points="594.019,-136.785 603.24,-131.568 592.778,-129.896 594.019,-136.785"/>
</g>
<!-- Node42&#45;&gt;Node39 -->
<g id="edge64" class="edge"><title>Node42&#45;&gt;Node39</title>
<path fill="none" stroke="midnightblue" d="M499.473,-336.368C508.796,-318.376 530.469,-276.55 542.866,-252.627"/>
<polygon fill="midnightblue" stroke="midnightblue" points="546.055,-254.081 547.548,-243.591 539.84,-250.86 546.055,-254.081"/>
</g>
<!-- Node42&#45;&gt;Node41 -->
<g id="edge65" class="edge"><title>Node42&#45;&gt;Node41</title>
<path fill="none" stroke="midnightblue" d="M512.834,-336.324C530.716,-327.625 558.475,-314.12 579.046,-304.113"/>
<polygon fill="midnightblue" stroke="midnightblue" points="580.749,-307.177 588.21,-299.655 577.687,-300.882 580.749,-307.177"/>
</g>
</g>
</svg>
        <g id="navigator" transform="translate(0 0)" fill="#404254">
                <rect fill="#f2f5e9" fill-opacity="0.5" stroke="#606060" stroke-width=".5" x="0" y="0" width="60" height="60"/>
                <use id="zoomplus" xlink:href="#zoomPlus" x="17" y="9" onmousedown="handleZoom(evt,'in')"/>
                <use id="zoomminus" xlink:href="#zoomMin" x="42" y="9" onmousedown="handleZoom(evt,'out')"/>
                <use id="reset" xlink:href="#resetDef" x="30" y="36" onmousedown="handleReset()"/>
                <g id="arrowUp" xlink:href="#dirArrow" transform="translate(30 24)" onmousedown="handlePan(0,-1)">
                  <use xlink:href="#rim" fill="#404040">
                        <set attributeName="fill" to="#808080" begin="arrowUp.mouseover" end="arrowUp.mouseout"/>
                  </use>
                  <path fill="none" stroke="white" stroke-width="1.5" d="M0,-3.0v7 M-2.5,-0.5L0,-3.0L2.5,-0.5"/>
                </g>
                <g id="arrowRight" xlink:href="#dirArrow" transform="rotate(90) translate(36 -43)" onmousedown="handlePan(1,0)">
                  <use xlink:href="#rim" fill="#404040">
                        <set attributeName="fill" to="#808080" begin="arrowRight.mouseover" end="arrowRight.mouseout"/>
                  </use>
                  <path fill="none" stroke="white" stroke-width="1.5" d="M0,-3.0v7 M-2.5,-0.5L0,-3.0L2.5,-0.5"/>
                </g>
                <g id="arrowDown" xlink:href="#dirArrow" transform="rotate(180) translate(-30 -48)" onmousedown="handlePan(0,1)">
                  <use xlink:href="#rim" fill="#404040">
                        <set attributeName="fill" to="#808080" begin="arrowDown.mouseover" end="arrowDown.mouseout"/>
                  </use>
                  <path fill="none" stroke="white" stroke-width="1.5" d="M0,-3.0v7 M-2.5,-0.5L0,-3.0L2.5,-0.5"/>
                </g>
                <g id="arrowLeft" xlink:href="#dirArrow" transform="rotate(270) translate(-36 17)" onmousedown="handlePan(-1,0)">
                  <use xlink:href="#rim" fill="#404040">
                        <set attributeName="fill" to="#808080" begin="arrowLeft.mouseover" end="arrowLeft.mouseout"/>
                  </use>
                  <path fill="none" stroke="white" stroke-width="1.5" d="M0,-3.0v7 M-2.5,-0.5L0,-3.0L2.5,-0.5"/>
                </g>
        </g>
        <svg viewBox="0 0 15 15" width="100%" height="30px" preserveAspectRatio="xMaxYMin meet">
         <g id="arrow_out" transform="scale(0.3 0.3)">
          <a xlink:href="measure__trods_8cpp__incl_org.svg" target="_base">
           <rect id="button" ry="5" rx="5" y="6" x="6" height="38" width="38"
                fill="#f2f5e9" fill-opacity="0.5" stroke="#606060" stroke-width="1.0"/>
           <path id="arrow"
             d="M 11.500037,31.436501 C 11.940474,20.09759 22.043105,11.32322 32.158766,21.979434 L 37.068811,17.246167 C 37.068811,17.246167 37.088388,32 37.088388,32 L 22.160133,31.978069 C 22.160133,31.978069 26.997745,27.140456 26.997745,27.140456 C 18.528582,18.264221 13.291696,25.230495 11.500037,31.436501 z"
             style="fill:#404040;"/>
          </a>
         </g>
        </svg>
</svg>
