<?xml version="1.0" encoding="UTF-8" standalone="no"?>
<!DOCTYPE svg PUBLIC "-//W3C//DTD SVG 1.1//EN"
 "http://www.w3.org/Graphics/SVG/1.1/DTD/svg11.dtd">
<!-- Generated by graphviz version 2.38.0 (20140413.2041)
 -->
<!-- Title: microstrain_imu_simple.cpp Pages: 1 -->
<svg width="1513pt" height="532pt"
 viewBox="0.00 0.00 1513.00 532.00" xmlns="http://www.w3.org/2000/svg" xmlns:xlink="http://www.w3.org/1999/xlink">
<g id="graph0" class="graph" transform="scale(1 1) rotate(0) translate(4 528)">
<title>microstrain_imu_simple.cpp</title>
<polygon fill="white" stroke="none" points="-4,4 -4,-528 1509,-528 1509,4 -4,4"/>
<!-- Node1 -->
<g id="node1" class="node"><title>Node1</title>
<polygon fill="#bfbfbf" stroke="black" points="284,-504.5 284,-523.5 422,-523.5 422,-504.5 284,-504.5"/>
<text text-anchor="middle" x="353" y="-511.5" font-family="Helvetica,sans-Serif" font-size="10.00">microstrain_imu_simple.cpp</text>
</g>
<!-- Node2 -->
<g id="node2" class="node"><title>Node2</title>
<polygon fill="white" stroke="#bfbfbf" points="16,-56.5 16,-75.5 70,-75.5 70,-56.5 16,-56.5"/>
<text text-anchor="middle" x="43" y="-63.5" font-family="Helvetica,sans-Serif" font-size="10.00">iostream</text>
</g>
<!-- Node1&#45;&gt;Node2 -->
<g id="edge1" class="edge"><title>Node1&#45;&gt;Node2</title>
<path fill="none" stroke="midnightblue" d="M283.68,-505.648C180.877,-492.792 0,-461.815 0,-403 0,-403 0,-403 0,-177 0,-142.306 18.7847,-105.42 31.5227,-84.3957"/>
<polygon fill="midnightblue" stroke="midnightblue" points="34.6498,-85.9982 37.021,-75.6721 28.7279,-82.2657 34.6498,-85.9982"/>
</g>
<!-- Node3 -->
<g id="node3" class="node"><title>Node3</title>
<polygon fill="white" stroke="#bfbfbf" points="28,-392.5 28,-411.5 72,-411.5 72,-392.5 28,-392.5"/>
<text text-anchor="middle" x="50" y="-399.5" font-family="Helvetica,sans-Serif" font-size="10.00">time.h</text>
</g>
<!-- Node1&#45;&gt;Node3 -->
<g id="edge2" class="edge"><title>Node1&#45;&gt;Node3</title>
<path fill="none" stroke="midnightblue" d="M329.224,-504.368C275.041,-484.698 142.393,-436.542 81.4971,-414.435"/>
<polygon fill="midnightblue" stroke="midnightblue" points="82.6139,-411.117 72.0198,-410.994 80.2252,-417.696 82.6139,-411.117"/>
</g>
<!-- Node4 -->
<g id="node4" class="node"><title>Node4</title>
<polygon fill="white" stroke="#bfbfbf" points="309,-448.5 309,-467.5 397,-467.5 397,-448.5 309,-448.5"/>
<text text-anchor="middle" x="353" y="-455.5" font-family="Helvetica,sans-Serif" font-size="10.00">microstrain_lib.h</text>
</g>
<!-- Node1&#45;&gt;Node4 -->
<g id="edge3" class="edge"><title>Node1&#45;&gt;Node4</title>
<path fill="none" stroke="midnightblue" d="M353,-504.083C353,-497.006 353,-486.861 353,-477.986"/>
<polygon fill="midnightblue" stroke="midnightblue" points="356.5,-477.751 353,-467.751 349.5,-477.751 356.5,-477.751"/>
</g>
<!-- Node5 -->
<g id="node5" class="node"><title>Node5</title>
<g id="a_node5"><a xlink:href="timelib_8h.html" target="_top" xlink:title="timelib include file A library providing functions for handling various types of time. ">
<polygon fill="white" stroke="black" points="492.5,-448.5 492.5,-467.5 545.5,-467.5 545.5,-448.5 492.5,-448.5"/>
<text text-anchor="middle" x="519" y="-455.5" font-family="Helvetica,sans-Serif" font-size="10.00">timelib.h</text>
</a>
</g>
</g>
<!-- Node1&#45;&gt;Node5 -->
<g id="edge4" class="edge"><title>Node1&#45;&gt;Node5</title>
<path fill="none" stroke="midnightblue" d="M379.303,-504.444C407.351,-495.32 451.944,-480.813 483.184,-470.651"/>
<polygon fill="midnightblue" stroke="midnightblue" points="484.393,-473.938 492.82,-467.516 482.228,-467.282 484.393,-473.938"/>
</g>
<!-- Node44 -->
<g id="node44" class="node"><title>Node44</title>
<polygon fill="white" stroke="#bfbfbf" points="564,-448.5 564,-467.5 626,-467.5 626,-448.5 564,-448.5"/>
<text text-anchor="middle" x="595" y="-455.5" font-family="Helvetica,sans-Serif" font-size="10.00">sys/time.h</text>
</g>
<!-- Node1&#45;&gt;Node44 -->
<g id="edge73" class="edge"><title>Node1&#45;&gt;Node44</title>
<path fill="none" stroke="midnightblue" d="M391.346,-504.444C435.704,-494.545 508.45,-478.313 553.932,-468.164"/>
<polygon fill="midnightblue" stroke="midnightblue" points="554.762,-471.565 563.76,-465.971 553.237,-464.733 554.762,-471.565"/>
</g>
<!-- Node5&#45;&gt;Node3 -->
<g id="edge68" class="edge"><title>Node5&#45;&gt;Node3</title>
<path fill="none" stroke="midnightblue" d="M492.305,-454.725C410.648,-447.687 164.993,-425.907 86,-412 84.7509,-411.78 83.481,-411.541 82.2008,-411.286"/>
<polygon fill="midnightblue" stroke="midnightblue" points="82.8832,-407.853 72.3634,-409.111 81.3718,-414.688 82.8832,-407.853"/>
</g>
<!-- Node6 -->
<g id="node6" class="node"><title>Node6</title>
<g id="a_node6"><a xlink:href="config_cosmos_8h.html" target="_top" xlink:title="Headers and definitions common to all COSMOS. ">
<polygon fill="white" stroke="black" points="572.5,-112.5 572.5,-131.5 695.5,-131.5 695.5,-112.5 572.5,-112.5"/>
<text text-anchor="middle" x="634" y="-119.5" font-family="Helvetica,sans-Serif" font-size="10.00">support/configCosmos.h</text>
</a>
</g>
</g>
<!-- Node5&#45;&gt;Node6 -->
<g id="edge5" class="edge"><title>Node5&#45;&gt;Node6</title>
<path fill="none" stroke="midnightblue" d="M544.666,-448.385C597.191,-430.292 714.333,-387.418 742,-356 761.976,-333.316 762,-321.225 762,-291 762,-291 762,-291 762,-233 762,-183.644 706.581,-151.614 668.674,-135.479"/>
<polygon fill="midnightblue" stroke="midnightblue" points="669.565,-132.063 658.984,-131.533 666.925,-138.546 669.565,-132.063"/>
</g>
<!-- Node16 -->
<g id="node16" class="node"><title>Node16</title>
<polygon fill="white" stroke="#bfbfbf" points="1461,-56.5 1461,-75.5 1505,-75.5 1505,-56.5 1461,-56.5"/>
<text text-anchor="middle" x="1483" y="-63.5" font-family="Helvetica,sans-Serif" font-size="10.00">cmath</text>
</g>
<!-- Node5&#45;&gt;Node16 -->
<g id="edge67" class="edge"><title>Node5&#45;&gt;Node16</title>
<path fill="none" stroke="midnightblue" d="M545.659,-449.963C548.796,-449.246 551.961,-448.572 555,-448 693.049,-422.026 1179,-487.471 1179,-347 1179,-347 1179,-347 1179,-177 1179,-162.665 1372.66,-101.138 1450.84,-76.8839"/>
<polygon fill="midnightblue" stroke="midnightblue" points="1452.13,-80.1499 1460.65,-73.8501 1450.06,-73.4627 1452.13,-80.1499"/>
</g>
<!-- Node31 -->
<g id="node31" class="node"><title>Node31</title>
<g id="a_node31"><a xlink:href="elapsedtime_8h.html" target="_top" xlink:title="Elapsed Time header file. ">
<polygon fill="white" stroke="black" points="94.5,-168.5 94.5,-187.5 207.5,-187.5 207.5,-168.5 94.5,-168.5"/>
<text text-anchor="middle" x="151" y="-175.5" font-family="Helvetica,sans-Serif" font-size="10.00">support/elapsedtime.h</text>
</a>
</g>
</g>
<!-- Node5&#45;&gt;Node31 -->
<g id="edge37" class="edge"><title>Node5&#45;&gt;Node31</title>
<path fill="none" stroke="midnightblue" d="M492.216,-454.306C411.156,-445.419 174,-413.717 174,-347 174,-347 174,-347 174,-289 174,-256.12 164.032,-218.86 157.221,-197.235"/>
<polygon fill="midnightblue" stroke="midnightblue" points="160.54,-196.125 154.102,-187.711 153.888,-198.303 160.54,-196.125"/>
</g>
<!-- Node32 -->
<g id="node32" class="node"><title>Node32</title>
<polygon fill="white" stroke="#bfbfbf" points="28.5,-112.5 28.5,-131.5 69.5,-131.5 69.5,-112.5 28.5,-112.5"/>
<text text-anchor="middle" x="49" y="-119.5" font-family="Helvetica,sans-Serif" font-size="10.00">ctime</text>
</g>
<!-- Node5&#45;&gt;Node32 -->
<g id="edge71" class="edge"><title>Node5&#45;&gt;Node32</title>
<path fill="none" stroke="midnightblue" d="M492.293,-454.232C422.243,-446.809 236.962,-426.071 213,-412 108.491,-350.628 65.0646,-195.356 52.8488,-141.632"/>
<polygon fill="midnightblue" stroke="midnightblue" points="56.1959,-140.553 50.6521,-131.524 49.3556,-142.039 56.1959,-140.553"/>
</g>
<!-- Node34 -->
<g id="node34" class="node"><title>Node34</title>
<g id="a_node34"><a xlink:href="mathlib_8h.html" target="_top" xlink:title="mathlib include file ">
<polygon fill="white" stroke="black" points="478.5,-392.5 478.5,-411.5 559.5,-411.5 559.5,-392.5 478.5,-392.5"/>
<text text-anchor="middle" x="519" y="-399.5" font-family="Helvetica,sans-Serif" font-size="10.00">math/mathlib.h</text>
</a>
</g>
</g>
<!-- Node5&#45;&gt;Node34 -->
<g id="edge43" class="edge"><title>Node5&#45;&gt;Node34</title>
<path fill="none" stroke="midnightblue" d="M519,-448.083C519,-441.006 519,-430.861 519,-421.986"/>
<polygon fill="midnightblue" stroke="midnightblue" points="522.5,-421.751 519,-411.751 515.5,-421.751 522.5,-421.751"/>
</g>
<!-- Node36 -->
<g id="node36" class="node"><title>Node36</title>
<polygon fill="white" stroke="#bfbfbf" points="686.5,-280.5 686.5,-299.5 733.5,-299.5 733.5,-280.5 686.5,-280.5"/>
<text text-anchor="middle" x="710" y="-287.5" font-family="Helvetica,sans-Serif" font-size="10.00">errno.h</text>
</g>
<!-- Node5&#45;&gt;Node36 -->
<g id="edge69" class="edge"><title>Node5&#45;&gt;Node36</title>
<path fill="none" stroke="midnightblue" d="M545.664,-449.99C548.8,-449.268 551.964,-448.586 555,-448 612.922,-436.83 779.22,-456.45 818,-412 852.505,-372.45 779.502,-326.344 737.258,-304.197"/>
<polygon fill="midnightblue" stroke="midnightblue" points="738.758,-301.033 728.261,-299.597 735.571,-307.266 738.758,-301.033"/>
</g>
<!-- Node42 -->
<g id="node42" class="node"><title>Node42</title>
<polygon fill="white" stroke="#bfbfbf" points="710,-392.5 710,-411.5 756,-411.5 756,-392.5 710,-392.5"/>
<text text-anchor="middle" x="733" y="-399.5" font-family="Helvetica,sans-Serif" font-size="10.00">stdio.h</text>
</g>
<!-- Node5&#45;&gt;Node42 -->
<g id="edge70" class="edge"><title>Node5&#45;&gt;Node42</title>
<path fill="none" stroke="midnightblue" d="M545.671,-450.27C584.797,-440.397 657.694,-422.002 700.095,-411.303"/>
<polygon fill="midnightblue" stroke="midnightblue" points="701.085,-414.663 709.925,-408.823 699.373,-407.876 701.085,-414.663"/>
</g>
<!-- Node43 -->
<g id="node43" class="node"><title>Node43</title>
<polygon fill="white" stroke="#bfbfbf" points="774.5,-392.5 774.5,-411.5 809.5,-411.5 809.5,-392.5 774.5,-392.5"/>
<text text-anchor="middle" x="792" y="-399.5" font-family="Helvetica,sans-Serif" font-size="10.00">ratio</text>
</g>
<!-- Node5&#45;&gt;Node43 -->
<g id="edge72" class="edge"><title>Node5&#45;&gt;Node43</title>
<path fill="none" stroke="midnightblue" d="M545.685,-450.092C548.817,-449.351 551.974,-448.637 555,-448 644.589,-429.15 671.384,-434.634 764.555,-411.755"/>
<polygon fill="midnightblue" stroke="midnightblue" points="765.542,-415.116 774.395,-409.295 763.844,-408.325 765.542,-415.116"/>
</g>
<!-- Node6&#45;&gt;Node2 -->
<g id="edge17" class="edge"><title>Node6&#45;&gt;Node2</title>
<path fill="none" stroke="midnightblue" d="M572.258,-116.313C475.241,-108.792 281.211,-93.1272 117,-76 104.954,-74.7436 91.8253,-73.203 80.0161,-71.7539"/>
<polygon fill="midnightblue" stroke="midnightblue" points="80.3936,-68.274 70.0381,-70.5135 79.5299,-75.2205 80.3936,-68.274"/>
</g>
<!-- Node7 -->
<g id="node7" class="node"><title>Node7</title>
<polygon fill="white" stroke="#bfbfbf" points="1196.5,-56.5 1196.5,-75.5 1241.5,-75.5 1241.5,-56.5 1196.5,-56.5"/>
<text text-anchor="middle" x="1219" y="-63.5" font-family="Helvetica,sans-Serif" font-size="10.00">climits</text>
</g>
<!-- Node6&#45;&gt;Node7 -->
<g id="edge6" class="edge"><title>Node6&#45;&gt;Node7</title>
<path fill="none" stroke="midnightblue" d="M695.779,-113.466C700.588,-112.946 705.372,-112.45 710,-112 919.398,-91.6249 974.213,-108.971 1182,-76 1183.47,-75.7669 1184.97,-75.5052 1186.47,-75.2218"/>
<polygon fill="midnightblue" stroke="midnightblue" points="1187.37,-78.6106 1196.42,-73.1086 1185.91,-71.7634 1187.37,-78.6106"/>
</g>
<!-- Node8 -->
<g id="node8" class="node"><title>Node8</title>
<polygon fill="white" stroke="#bfbfbf" points="1259.5,-56.5 1259.5,-75.5 1306.5,-75.5 1306.5,-56.5 1259.5,-56.5"/>
<text text-anchor="middle" x="1283" y="-63.5" font-family="Helvetica,sans-Serif" font-size="10.00">csignal</text>
</g>
<!-- Node6&#45;&gt;Node8 -->
<g id="edge7" class="edge"><title>Node6&#45;&gt;Node8</title>
<path fill="none" stroke="midnightblue" d="M695.774,-113.416C700.584,-112.907 705.369,-112.428 710,-112 946.673,-90.1265 1011.74,-116.112 1249.38,-75.9482"/>
<polygon fill="midnightblue" stroke="midnightblue" points="1250.09,-79.3766 1259.36,-74.2396 1248.91,-72.477 1250.09,-79.3766"/>
</g>
<!-- Node9 -->
<g id="node9" class="node"><title>Node9</title>
<polygon fill="white" stroke="#bfbfbf" points="186,-56.5 186,-75.5 232,-75.5 232,-56.5 186,-56.5"/>
<text text-anchor="middle" x="209" y="-63.5" font-family="Helvetica,sans-Serif" font-size="10.00">cstdint</text>
</g>
<!-- Node6&#45;&gt;Node9 -->
<g id="edge8" class="edge"><title>Node6&#45;&gt;Node9</title>
<path fill="none" stroke="midnightblue" d="M572.17,-116.194C495.314,-109.678 360.314,-96.4519 246,-76 244.755,-75.7773 243.49,-75.5377 242.215,-75.2849"/>
<polygon fill="midnightblue" stroke="midnightblue" points="242.911,-71.8545 232.396,-73.1514 241.424,-78.6949 242.911,-71.8545"/>
</g>
<!-- Node10 -->
<g id="node10" class="node"><title>Node10</title>
<polygon fill="white" stroke="#bfbfbf" points="1325,-56.5 1325,-75.5 1381,-75.5 1381,-56.5 1325,-56.5"/>
<text text-anchor="middle" x="1353" y="-63.5" font-family="Helvetica,sans-Serif" font-size="10.00">cinttypes</text>
</g>
<!-- Node6&#45;&gt;Node10 -->
<g id="edge9" class="edge"><title>Node6&#45;&gt;Node10</title>
<path fill="none" stroke="midnightblue" d="M695.77,-113.379C700.582,-112.879 705.368,-112.411 710,-112 975.469,-88.4166 1047.43,-115.372 1314.82,-75.8996"/>
<polygon fill="midnightblue" stroke="midnightblue" points="1315.45,-79.3444 1324.82,-74.4056 1314.41,-72.4212 1315.45,-79.3444"/>
</g>
<!-- Node11 -->
<g id="node11" class="node"><title>Node11</title>
<polygon fill="white" stroke="#bfbfbf" points="1399.5,-56.5 1399.5,-75.5 1442.5,-75.5 1442.5,-56.5 1399.5,-56.5"/>
<text text-anchor="middle" x="1421" y="-63.5" font-family="Helvetica,sans-Serif" font-size="10.00">cstdio</text>
</g>
<!-- Node6&#45;&gt;Node11 -->
<g id="edge10" class="edge"><title>Node6&#45;&gt;Node11</title>
<path fill="none" stroke="midnightblue" d="M695.768,-113.345C700.58,-112.853 705.367,-112.397 710,-112 1008.16,-86.4808 1089.78,-125.626 1389.18,-75.6739"/>
<polygon fill="midnightblue" stroke="midnightblue" points="1390.19,-79.0531 1399.47,-73.9371 1389.02,-72.1508 1390.19,-79.0531"/>
</g>
<!-- Node12 -->
<g id="node12" class="node"><title>Node12</title>
<polygon fill="white" stroke="#bfbfbf" points="288.5,-56.5 288.5,-75.5 337.5,-75.5 337.5,-56.5 288.5,-56.5"/>
<text text-anchor="middle" x="313" y="-63.5" font-family="Helvetica,sans-Serif" font-size="10.00">cstddef</text>
</g>
<!-- Node6&#45;&gt;Node12 -->
<g id="edge11" class="edge"><title>Node6&#45;&gt;Node12</title>
<path fill="none" stroke="midnightblue" d="M572.399,-113.395C516.067,-105.982 430.288,-93.5506 347.599,-76.1678"/>
<polygon fill="midnightblue" stroke="midnightblue" points="348.303,-72.7394 337.794,-74.0797 346.845,-79.5858 348.303,-72.7394"/>
</g>
<!-- Node13 -->
<g id="node13" class="node"><title>Node13</title>
<polygon fill="white" stroke="#bfbfbf" points="355.5,-56.5 355.5,-75.5 400.5,-75.5 400.5,-56.5 355.5,-56.5"/>
<text text-anchor="middle" x="378" y="-63.5" font-family="Helvetica,sans-Serif" font-size="10.00">cstdlib</text>
</g>
<!-- Node6&#45;&gt;Node13 -->
<g id="edge12" class="edge"><title>Node6&#45;&gt;Node13</title>
<path fill="none" stroke="midnightblue" d="M586.14,-112.474C542.762,-104.502 476.887,-91.7892 410.47,-75.9628"/>
<polygon fill="midnightblue" stroke="midnightblue" points="411.211,-72.5412 400.67,-73.6054 409.574,-79.3471 411.211,-72.5412"/>
</g>
<!-- Node14 -->
<g id="node14" class="node"><title>Node14</title>
<polygon fill="white" stroke="#bfbfbf" points="419,-56.5 419,-75.5 463,-75.5 463,-56.5 419,-56.5"/>
<text text-anchor="middle" x="441" y="-63.5" font-family="Helvetica,sans-Serif" font-size="10.00">cerrno</text>
</g>
<!-- Node6&#45;&gt;Node14 -->
<g id="edge13" class="edge"><title>Node6&#45;&gt;Node14</title>
<path fill="none" stroke="midnightblue" d="M602.913,-112.48C572.255,-104.052 523.807,-90.6664 472.88,-76.227"/>
<polygon fill="midnightblue" stroke="midnightblue" points="473.582,-72.7881 463.006,-73.4231 471.67,-79.5219 473.582,-72.7881"/>
</g>
<!-- Node15 -->
<g id="node15" class="node"><title>Node15</title>
<polygon fill="white" stroke="#bfbfbf" points="481,-56.5 481,-75.5 527,-75.5 527,-56.5 481,-56.5"/>
<text text-anchor="middle" x="504" y="-63.5" font-family="Helvetica,sans-Serif" font-size="10.00">cstring</text>
</g>
<!-- Node6&#45;&gt;Node15 -->
<g id="edge14" class="edge"><title>Node6&#45;&gt;Node15</title>
<path fill="none" stroke="midnightblue" d="M613.401,-112.444C592.007,-103.557 558.319,-89.5632 533.976,-79.4514"/>
<polygon fill="midnightblue" stroke="midnightblue" points="535.08,-76.1203 524.503,-75.5164 532.395,-82.5848 535.08,-76.1203"/>
</g>
<!-- Node6&#45;&gt;Node16 -->
<g id="edge15" class="edge"><title>Node6&#45;&gt;Node16</title>
<path fill="none" stroke="midnightblue" d="M695.766,-113.322C700.578,-112.835 705.366,-112.386 710,-112 1035.65,-84.8511 1124.53,-129.467 1450.58,-75.8213"/>
<polygon fill="midnightblue" stroke="midnightblue" points="1451.5,-79.2163 1460.79,-74.1222 1450.35,-72.3112 1451.5,-79.2163"/>
</g>
<!-- Node17 -->
<g id="node17" class="node"><title>Node17</title>
<polygon fill="white" stroke="#bfbfbf" points="545.5,-56.5 545.5,-75.5 590.5,-75.5 590.5,-56.5 545.5,-56.5"/>
<text text-anchor="middle" x="568" y="-63.5" font-family="Helvetica,sans-Serif" font-size="10.00">iosfwd</text>
</g>
<!-- Node6&#45;&gt;Node17 -->
<g id="edge16" class="edge"><title>Node6&#45;&gt;Node17</title>
<path fill="none" stroke="midnightblue" d="M623.396,-112.324C613.544,-104.263 598.649,-92.0765 586.785,-82.3695"/>
<polygon fill="midnightblue" stroke="midnightblue" points="588.753,-79.4575 578.797,-75.8339 584.32,-84.8752 588.753,-79.4575"/>
</g>
<!-- Node18 -->
<g id="node18" class="node"><title>Node18</title>
<polygon fill="white" stroke="#bfbfbf" points="608.5,-56.5 608.5,-75.5 659.5,-75.5 659.5,-56.5 608.5,-56.5"/>
<text text-anchor="middle" x="634" y="-63.5" font-family="Helvetica,sans-Serif" font-size="10.00">unistd.h</text>
</g>
<!-- Node6&#45;&gt;Node18 -->
<g id="edge18" class="edge"><title>Node6&#45;&gt;Node18</title>
<path fill="none" stroke="midnightblue" d="M634,-112.083C634,-105.006 634,-94.8611 634,-85.9865"/>
<polygon fill="midnightblue" stroke="midnightblue" points="637.5,-85.751 634,-75.7511 630.5,-85.7511 637.5,-85.751"/>
</g>
<!-- Node19 -->
<g id="node19" class="node"><title>Node19</title>
<polygon fill="white" stroke="#bfbfbf" points="678,-56.5 678,-75.5 722,-75.5 722,-56.5 678,-56.5"/>
<text text-anchor="middle" x="700" y="-63.5" font-family="Helvetica,sans-Serif" font-size="10.00">fcntl.h</text>
</g>
<!-- Node6&#45;&gt;Node19 -->
<g id="edge19" class="edge"><title>Node6&#45;&gt;Node19</title>
<path fill="none" stroke="midnightblue" d="M644.604,-112.324C654.456,-104.263 669.351,-92.0765 681.215,-82.3695"/>
<polygon fill="midnightblue" stroke="midnightblue" points="683.68,-84.8752 689.203,-75.8339 679.247,-79.4575 683.68,-84.8752"/>
</g>
<!-- Node20 -->
<g id="node20" class="node"><title>Node20</title>
<polygon fill="white" stroke="#bfbfbf" points="126.5,-56.5 126.5,-75.5 167.5,-75.5 167.5,-56.5 126.5,-56.5"/>
<text text-anchor="middle" x="147" y="-63.5" font-family="Helvetica,sans-Serif" font-size="10.00">string</text>
</g>
<!-- Node6&#45;&gt;Node20 -->
<g id="edge20" class="edge"><title>Node6&#45;&gt;Node20</title>
<path fill="none" stroke="midnightblue" d="M572.467,-118.716C486.168,-114.68 324.29,-104.076 177.611,-75.7113"/>
<polygon fill="midnightblue" stroke="midnightblue" points="178.013,-72.2234 167.525,-73.7278 176.662,-79.0918 178.013,-72.2234"/>
</g>
<!-- Node21 -->
<g id="node21" class="node"><title>Node21</title>
<polygon fill="white" stroke="#bfbfbf" points="238,-0.5 238,-19.5 282,-19.5 282,-0.5 238,-0.5"/>
<text text-anchor="middle" x="260" y="-7.5" font-family="Helvetica,sans-Serif" font-size="10.00">vector</text>
</g>
<!-- Node6&#45;&gt;Node21 -->
<g id="edge21" class="edge"><title>Node6&#45;&gt;Node21</title>
<path fill="none" stroke="midnightblue" d="M572.202,-121.081C482.409,-119.916 321.893,-112.589 279,-76 265.742,-64.6908 261.467,-44.6881 260.218,-29.8496"/>
<polygon fill="midnightblue" stroke="midnightblue" points="263.709,-29.5675 259.753,-19.7387 256.716,-29.8888 263.709,-29.5675"/>
</g>
<!-- Node22 -->
<g id="node22" class="node"><title>Node22</title>
<polygon fill="white" stroke="#bfbfbf" points="740.5,-56.5 740.5,-75.5 783.5,-75.5 783.5,-56.5 740.5,-56.5"/>
<text text-anchor="middle" x="762" y="-63.5" font-family="Helvetica,sans-Serif" font-size="10.00">deque</text>
</g>
<!-- Node6&#45;&gt;Node22 -->
<g id="edge22" class="edge"><title>Node6&#45;&gt;Node22</title>
<path fill="none" stroke="midnightblue" d="M654.282,-112.444C675.347,-103.557 708.517,-89.5632 732.486,-79.4514"/>
<polygon fill="midnightblue" stroke="midnightblue" points="733.96,-82.6283 741.813,-75.5164 731.239,-76.1787 733.96,-82.6283"/>
</g>
<!-- Node23 -->
<g id="node23" class="node"><title>Node23</title>
<polygon fill="white" stroke="#bfbfbf" points="792,-0.5 792,-19.5 836,-19.5 836,-0.5 792,-0.5"/>
<text text-anchor="middle" x="814" y="-7.5" font-family="Helvetica,sans-Serif" font-size="10.00">mutex</text>
</g>
<!-- Node6&#45;&gt;Node23 -->
<g id="edge23" class="edge"><title>Node6&#45;&gt;Node23</title>
<path fill="none" stroke="midnightblue" d="M681.686,-112.474C722.15,-104.353 776.096,-91.1449 792,-76 804.526,-64.0718 809.92,-44.7665 812.243,-30.2884"/>
<polygon fill="midnightblue" stroke="midnightblue" points="815.769,-30.3 813.525,-19.9453 808.822,-29.4388 815.769,-30.3"/>
</g>
<!-- Node24 -->
<g id="node24" class="node"><title>Node24</title>
<polygon fill="white" stroke="#bfbfbf" points="856,-0.5 856,-19.5 900,-19.5 900,-0.5 856,-0.5"/>
<text text-anchor="middle" x="878" y="-7.5" font-family="Helvetica,sans-Serif" font-size="10.00">thread</text>
</g>
<!-- Node6&#45;&gt;Node24 -->
<g id="edge24" class="edge"><title>Node6&#45;&gt;Node24</title>
<path fill="none" stroke="midnightblue" d="M695.903,-113.818C731.872,-107.657 777.043,-96.3898 813,-76 834.383,-63.8745 853.566,-42.8089 865.455,-27.9511"/>
<polygon fill="midnightblue" stroke="midnightblue" points="868.532,-29.693 871.87,-19.6377 862.99,-25.4168 868.532,-29.693"/>
</g>
<!-- Node25 -->
<g id="node25" class="node"><title>Node25</title>
<polygon fill="white" stroke="#bfbfbf" points="971.5,-0.5 971.5,-19.5 1066.5,-19.5 1066.5,-0.5 971.5,-0.5"/>
<text text-anchor="middle" x="1019" y="-7.5" font-family="Helvetica,sans-Serif" font-size="10.00">condition_variable</text>
</g>
<!-- Node6&#45;&gt;Node25 -->
<g id="edge25" class="edge"><title>Node6&#45;&gt;Node25</title>
<path fill="none" stroke="midnightblue" d="M695.887,-113.675C800.596,-101.253 1001.57,-77.2661 1003,-76 1015.89,-64.5721 1019.22,-44.5882 1019.73,-29.7865"/>
<polygon fill="midnightblue" stroke="midnightblue" points="1023.23,-29.6912 1019.69,-19.7053 1016.23,-29.7193 1023.23,-29.6912"/>
</g>
<!-- Node26 -->
<g id="node26" class="node"><title>Node26</title>
<polygon fill="white" stroke="#bfbfbf" points="1086.5,-0.5 1086.5,-19.5 1129.5,-19.5 1129.5,-0.5 1086.5,-0.5"/>
<text text-anchor="middle" x="1108" y="-7.5" font-family="Helvetica,sans-Serif" font-size="10.00">queue</text>
</g>
<!-- Node6&#45;&gt;Node26 -->
<g id="edge26" class="edge"><title>Node6&#45;&gt;Node26</title>
<path fill="none" stroke="midnightblue" d="M695.785,-113.535C700.593,-112.999 705.375,-112.481 710,-112 754.494,-107.369 1080.82,-109.016 1111,-76 1122.18,-63.7752 1119.57,-44.2309 1115.3,-29.762"/>
<polygon fill="midnightblue" stroke="midnightblue" points="1118.46,-28.2137 1111.91,-19.8922 1111.84,-30.4868 1118.46,-28.2137"/>
</g>
<!-- Node27 -->
<g id="node27" class="node"><title>Node27</title>
<polygon fill="white" stroke="#bfbfbf" points="1050,-56.5 1050,-75.5 1102,-75.5 1102,-56.5 1050,-56.5"/>
<text text-anchor="middle" x="1076" y="-63.5" font-family="Helvetica,sans-Serif" font-size="10.00">sstream</text>
</g>
<!-- Node6&#45;&gt;Node27 -->
<g id="edge27" class="edge"><title>Node6&#45;&gt;Node27</title>
<path fill="none" stroke="midnightblue" d="M695.797,-113.641C700.602,-113.081 705.38,-112.529 710,-112 854.825,-95.4287 892.226,-100.036 1036,-76 1037.26,-75.7887 1038.55,-75.5627 1039.84,-75.325"/>
<polygon fill="midnightblue" stroke="midnightblue" points="1040.71,-78.7201 1049.83,-73.3261 1039.34,-71.8562 1040.71,-78.7201"/>
</g>
<!-- Node28 -->
<g id="node28" class="node"><title>Node28</title>
<polygon fill="white" stroke="#bfbfbf" points="1148.5,-0.5 1148.5,-19.5 1183.5,-19.5 1183.5,-0.5 1148.5,-0.5"/>
<text text-anchor="middle" x="1166" y="-7.5" font-family="Helvetica,sans-Serif" font-size="10.00">map</text>
</g>
<!-- Node6&#45;&gt;Node28 -->
<g id="edge28" class="edge"><title>Node6&#45;&gt;Node28</title>
<path fill="none" stroke="midnightblue" d="M695.784,-113.516C700.592,-112.985 705.374,-112.473 710,-112 802.749,-102.517 1049.2,-125.827 1128,-76 1144.71,-65.4316 1154.94,-44.655 1160.52,-29.4257"/>
<polygon fill="midnightblue" stroke="midnightblue" points="1163.97,-30.1353 1163.78,-19.5421 1157.32,-27.9421 1163.97,-30.1353"/>
</g>
<!-- Node29 -->
<g id="node29" class="node"><title>Node29</title>
<g id="a_node29"><a xlink:href="cosmos-defs_8h.html" target="_top" xlink:title="COSMOS definitions Definitions specific to the COSMOS environement. ">
<polygon fill="white" stroke="black" points="878,-56.5 878,-75.5 994,-75.5 994,-56.5 878,-56.5"/>
<text text-anchor="middle" x="936" y="-63.5" font-family="Helvetica,sans-Serif" font-size="10.00">support/cosmos&#45;defs.h</text>
</a>
</g>
</g>
<!-- Node6&#45;&gt;Node29 -->
<g id="edge29" class="edge"><title>Node6&#45;&gt;Node29</title>
<path fill="none" stroke="midnightblue" d="M681.853,-112.444C735.199,-102.905 821.445,-87.4834 878.436,-77.293"/>
<polygon fill="midnightblue" stroke="midnightblue" points="879.143,-80.722 888.371,-75.5164 877.911,-73.8313 879.143,-80.722"/>
</g>
<!-- Node29&#45;&gt;Node21 -->
<g id="edge31" class="edge"><title>Node29&#45;&gt;Node21</title>
<path fill="none" stroke="midnightblue" d="M877.78,-60.3493C740.305,-49.3676 399.106,-22.112 292.417,-13.5895"/>
<polygon fill="midnightblue" stroke="midnightblue" points="292.519,-10.0866 282.272,-12.7791 291.962,-17.0644 292.519,-10.0866"/>
</g>
<!-- Node29&#45;&gt;Node23 -->
<g id="edge35" class="edge"><title>Node29&#45;&gt;Node23</title>
<path fill="none" stroke="midnightblue" d="M916.669,-56.4435C896.68,-47.5961 865.257,-33.6875 842.436,-23.5865"/>
<polygon fill="midnightblue" stroke="midnightblue" points="843.802,-20.3635 833.241,-19.5164 840.968,-26.7645 843.802,-20.3635"/>
</g>
<!-- Node29&#45;&gt;Node24 -->
<g id="edge34" class="edge"><title>Node29&#45;&gt;Node24</title>
<path fill="none" stroke="midnightblue" d="M926.681,-56.324C918.107,-48.3414 905.188,-36.3128 894.812,-26.6529"/>
<polygon fill="midnightblue" stroke="midnightblue" points="897.192,-24.0865 887.488,-19.8339 892.422,-29.2098 897.192,-24.0865"/>
</g>
<!-- Node29&#45;&gt;Node25 -->
<g id="edge36" class="edge"><title>Node29&#45;&gt;Node25</title>
<path fill="none" stroke="midnightblue" d="M949.335,-56.324C962.162,-47.979 981.785,-35.2122 996.94,-25.3524"/>
<polygon fill="midnightblue" stroke="midnightblue" points="999.224,-28.0417 1005.7,-19.6545 995.407,-22.1742 999.224,-28.0417"/>
</g>
<!-- Node29&#45;&gt;Node26 -->
<g id="edge33" class="edge"><title>Node29&#45;&gt;Node26</title>
<path fill="none" stroke="midnightblue" d="M963.254,-56.4435C994.025,-46.7829 1044.02,-31.088 1076.45,-20.9046"/>
<polygon fill="midnightblue" stroke="midnightblue" points="1077.83,-24.1414 1086.32,-17.8067 1075.73,-17.4628 1077.83,-24.1414"/>
</g>
<!-- Node29&#45;&gt;Node28 -->
<g id="edge30" class="edge"><title>Node29&#45;&gt;Node28</title>
<path fill="none" stroke="midnightblue" d="M980.679,-56.4814C1019.85,-48.7037 1078.48,-36.3152 1138.35,-19.9421"/>
<polygon fill="midnightblue" stroke="midnightblue" points="1139.66,-23.2127 1148.36,-17.1706 1137.79,-16.4666 1139.66,-23.2127"/>
</g>
<!-- Node30 -->
<g id="node30" class="node"><title>Node30</title>
<polygon fill="white" stroke="#bfbfbf" points="921.5,-0.5 921.5,-19.5 950.5,-19.5 950.5,-0.5 921.5,-0.5"/>
<text text-anchor="middle" x="936" y="-7.5" font-family="Helvetica,sans-Serif" font-size="10.00">list</text>
</g>
<!-- Node29&#45;&gt;Node30 -->
<g id="edge32" class="edge"><title>Node29&#45;&gt;Node30</title>
<path fill="none" stroke="midnightblue" d="M936,-56.083C936,-49.0059 936,-38.8611 936,-29.9865"/>
<polygon fill="midnightblue" stroke="midnightblue" points="939.5,-29.751 936,-19.7511 932.5,-29.7511 939.5,-29.751"/>
</g>
<!-- Node31&#45;&gt;Node2 -->
<g id="edge39" class="edge"><title>Node31&#45;&gt;Node2</title>
<path fill="none" stroke="midnightblue" d="M142.525,-168.368C124.387,-149.894 81.5781,-106.293 58.4573,-82.7436"/>
<polygon fill="midnightblue" stroke="midnightblue" points="60.9386,-80.275 51.4352,-75.5914 55.9437,-85.1792 60.9386,-80.275"/>
</g>
<!-- Node31&#45;&gt;Node6 -->
<g id="edge38" class="edge"><title>Node31&#45;&gt;Node6</title>
<path fill="none" stroke="midnightblue" d="M207.827,-170.647C296.097,-160.778 466.013,-141.781 562.493,-130.995"/>
<polygon fill="midnightblue" stroke="midnightblue" points="562.904,-134.471 572.453,-129.881 562.126,-127.514 562.904,-134.471"/>
</g>
<!-- Node31&#45;&gt;Node20 -->
<g id="edge40" class="edge"><title>Node31&#45;&gt;Node20</title>
<path fill="none" stroke="midnightblue" d="M159.617,-168.416C170.782,-156.207 188.033,-132.975 181,-112 177.396,-101.251 170.097,-91.0204 163.183,-83.0378"/>
<polygon fill="midnightblue" stroke="midnightblue" points="165.655,-80.5561 156.288,-75.6053 160.523,-85.3168 165.655,-80.5561"/>
</g>
<!-- Node31&#45;&gt;Node32 -->
<g id="edge41" class="edge"><title>Node31&#45;&gt;Node32</title>
<path fill="none" stroke="midnightblue" d="M134.612,-168.324C118.329,-159.703 93.1325,-146.364 74.2837,-136.386"/>
<polygon fill="midnightblue" stroke="midnightblue" points="75.8229,-133.24 65.3474,-131.655 72.5477,-139.427 75.8229,-133.24"/>
</g>
<!-- Node33 -->
<g id="node33" class="node"><title>Node33</title>
<polygon fill="white" stroke="#bfbfbf" points="126,-112.5 126,-131.5 172,-131.5 172,-112.5 126,-112.5"/>
<text text-anchor="middle" x="149" y="-119.5" font-family="Helvetica,sans-Serif" font-size="10.00">chrono</text>
</g>
<!-- Node31&#45;&gt;Node33 -->
<g id="edge42" class="edge"><title>Node31&#45;&gt;Node33</title>
<path fill="none" stroke="midnightblue" d="M150.67,-168.083C150.408,-161.006 150.032,-150.861 149.703,-141.986"/>
<polygon fill="midnightblue" stroke="midnightblue" points="153.192,-141.615 149.324,-131.751 146.197,-141.874 153.192,-141.615"/>
</g>
<!-- Node34&#45;&gt;Node2 -->
<g id="edge66" class="edge"><title>Node34&#45;&gt;Node2</title>
<path fill="none" stroke="midnightblue" d="M478.453,-393.994C400.201,-379.317 236,-342.395 236,-291 236,-291 236,-291 236,-233 236,-173.927 227.532,-148.391 181,-112 151.613,-89.0172 110.063,-77.567 80.2463,-71.9968"/>
<polygon fill="midnightblue" stroke="midnightblue" points="80.6788,-68.5197 70.2283,-70.2626 79.4847,-75.4171 80.6788,-68.5197"/>
</g>
<!-- Node34&#45;&gt;Node6 -->
<g id="edge44" class="edge"><title>Node34&#45;&gt;Node6</title>
<path fill="none" stroke="midnightblue" d="M525.447,-392.484C538.018,-375.582 566.134,-336.294 584,-300 610.744,-245.67 625.303,-174.703 631.054,-141.562"/>
<polygon fill="midnightblue" stroke="midnightblue" points="634.538,-141.945 632.726,-131.506 627.633,-140.797 634.538,-141.945"/>
</g>
<!-- Node34&#45;&gt;Node16 -->
<g id="edge65" class="edge"><title>Node34&#45;&gt;Node16</title>
<path fill="none" stroke="midnightblue" d="M559.531,-400.405C606.39,-398.073 684.44,-389.009 742,-356 775.587,-336.739 800,-329.718 800,-291 800,-291 800,-291 800,-177 800,-33.533 1286.8,-102.523 1450.45,-75.8149"/>
<polygon fill="midnightblue" stroke="midnightblue" points="1451.56,-79.1703 1460.75,-73.914 1450.29,-72.2864 1451.56,-79.1703"/>
</g>
<!-- Node35 -->
<g id="node35" class="node"><title>Node35</title>
<g id="a_node35"><a xlink:href="cosmos-errno_8h.html" target="_top" xlink:title="COSMOS Error Codes. ">
<polygon fill="white" stroke="black" points="614.5,-336.5 614.5,-355.5 733.5,-355.5 733.5,-336.5 614.5,-336.5"/>
<text text-anchor="middle" x="674" y="-343.5" font-family="Helvetica,sans-Serif" font-size="10.00">support/cosmos&#45;errno.h</text>
</a>
</g>
</g>
<!-- Node34&#45;&gt;Node35 -->
<g id="edge45" class="edge"><title>Node34&#45;&gt;Node35</title>
<path fill="none" stroke="midnightblue" d="M543.56,-392.444C569.523,-383.399 610.668,-369.064 639.797,-358.916"/>
<polygon fill="midnightblue" stroke="midnightblue" points="641.263,-362.112 649.555,-355.516 638.96,-355.501 641.263,-362.112"/>
</g>
<!-- Node37 -->
<g id="node37" class="node"><title>Node37</title>
<g id="a_node37"><a xlink:href="math_2constants_8h.html" target="_top" xlink:title="constants.h">
<polygon fill="white" stroke="black" points="342,-168.5 342,-187.5 410,-187.5 410,-168.5 342,-168.5"/>
<text text-anchor="middle" x="376" y="-175.5" font-family="Helvetica,sans-Serif" font-size="10.00">constants.h</text>
</a>
</g>
</g>
<!-- Node34&#45;&gt;Node37 -->
<g id="edge48" class="edge"><title>Node34&#45;&gt;Node37</title>
<path fill="none" stroke="midnightblue" d="M495.923,-392.494C478.923,-385.167 456.354,-373.062 442,-356 401.597,-307.974 384.718,-232.842 378.77,-197.966"/>
<polygon fill="midnightblue" stroke="midnightblue" points="382.178,-197.107 377.154,-187.779 375.265,-198.204 382.178,-197.107"/>
</g>
<!-- Node38 -->
<g id="node38" class="node"><title>Node38</title>
<g id="a_node38"><a xlink:href="vector_8h.html" target="_top" xlink:title="vector.h">
<polygon fill="white" stroke="black" points="427,-224.5 427,-243.5 479,-243.5 479,-224.5 427,-224.5"/>
<text text-anchor="middle" x="453" y="-231.5" font-family="Helvetica,sans-Serif" font-size="10.00">vector.h</text>
</a>
</g>
</g>
<!-- Node34&#45;&gt;Node38 -->
<g id="edge51" class="edge"><title>Node34&#45;&gt;Node38</title>
<path fill="none" stroke="midnightblue" d="M496.541,-392.382C481.231,-385.184 462.137,-373.288 453,-356 435.721,-323.305 442.206,-278.359 447.943,-253.471"/>
<polygon fill="midnightblue" stroke="midnightblue" points="451.389,-254.115 450.438,-243.563 444.601,-252.406 451.389,-254.115"/>
</g>
<!-- Node40 -->
<g id="node40" class="node"><title>Node40</title>
<g id="a_node40"><a xlink:href="matrix_8h.html" target="_top" xlink:title="matrix.h">
<polygon fill="white" stroke="black" points="502,-280.5 502,-299.5 554,-299.5 554,-280.5 502,-280.5"/>
<text text-anchor="middle" x="528" y="-287.5" font-family="Helvetica,sans-Serif" font-size="10.00">matrix.h</text>
</a>
</g>
</g>
<!-- Node34&#45;&gt;Node40 -->
<g id="edge58" class="edge"><title>Node34&#45;&gt;Node40</title>
<path fill="none" stroke="midnightblue" d="M521.235,-392.449C523.462,-383.453 526.728,-368.844 528,-356 529.531,-340.54 529.415,-322.909 528.981,-309.914"/>
<polygon fill="midnightblue" stroke="midnightblue" points="532.475,-309.7 528.551,-299.859 525.482,-309.999 532.475,-309.7"/>
</g>
<!-- Node41 -->
<g id="node41" class="node"><title>Node41</title>
<g id="a_node41"><a xlink:href="rotation_8h.html" target="_top" xlink:title="rotation.h">
<polygon fill="white" stroke="black" points="462.5,-336.5 462.5,-355.5 519.5,-355.5 519.5,-336.5 462.5,-336.5"/>
<text text-anchor="middle" x="491" y="-343.5" font-family="Helvetica,sans-Serif" font-size="10.00">rotation.h</text>
</a>
</g>
</g>
<!-- Node34&#45;&gt;Node41 -->
<g id="edge61" class="edge"><title>Node34&#45;&gt;Node41</title>
<path fill="none" stroke="midnightblue" d="M514.376,-392.083C510.544,-384.691 504.976,-373.953 500.235,-364.811"/>
<polygon fill="midnightblue" stroke="midnightblue" points="503.248,-363.018 495.538,-355.751 497.034,-366.24 503.248,-363.018"/>
</g>
<!-- Node35&#45;&gt;Node6 -->
<g id="edge46" class="edge"><title>Node35&#45;&gt;Node6</title>
<path fill="none" stroke="midnightblue" d="M672.432,-336.297C666.546,-303.633 645.688,-187.866 637.416,-141.957"/>
<polygon fill="midnightblue" stroke="midnightblue" points="640.819,-141.105 635.601,-131.884 633.929,-142.346 640.819,-141.105"/>
</g>
<!-- Node35&#45;&gt;Node36 -->
<g id="edge47" class="edge"><title>Node35&#45;&gt;Node36</title>
<path fill="none" stroke="midnightblue" d="M679.945,-336.083C684.977,-328.534 692.337,-317.495 698.513,-308.23"/>
<polygon fill="midnightblue" stroke="midnightblue" points="701.531,-310.013 704.166,-299.751 695.707,-306.13 701.531,-310.013"/>
</g>
<!-- Node37&#45;&gt;Node6 -->
<g id="edge49" class="edge"><title>Node37&#45;&gt;Node6</title>
<path fill="none" stroke="midnightblue" d="M410.26,-169.829C454.595,-160.55 532.202,-144.307 583.352,-133.601"/>
<polygon fill="midnightblue" stroke="midnightblue" points="584.141,-137.012 593.211,-131.537 582.707,-130.16 584.141,-137.012"/>
</g>
<!-- Node37&#45;&gt;Node9 -->
<g id="edge50" class="edge"><title>Node37&#45;&gt;Node9</title>
<path fill="none" stroke="midnightblue" d="M371.628,-168.165C364.372,-154.344 348.578,-127.582 328,-112 314.078,-101.458 271.953,-86.7703 241.778,-77.0806"/>
<polygon fill="midnightblue" stroke="midnightblue" points="242.651,-73.6857 232.06,-73.9993 240.535,-80.3583 242.651,-73.6857"/>
</g>
<!-- Node38&#45;&gt;Node2 -->
<g id="edge54" class="edge"><title>Node38&#45;&gt;Node2</title>
<path fill="none" stroke="midnightblue" d="M426.748,-228.885C395.148,-223.141 341.196,-210.768 300,-188 255.356,-163.326 258.994,-136.03 214,-112 202.143,-105.668 126.467,-86.9359 79.848,-75.7356"/>
<polygon fill="midnightblue" stroke="midnightblue" points="80.6322,-72.3245 70.092,-73.3997 79.0021,-79.1321 80.6322,-72.3245"/>
</g>
<!-- Node38&#45;&gt;Node6 -->
<g id="edge52" class="edge"><title>Node38&#45;&gt;Node6</title>
<path fill="none" stroke="midnightblue" d="M461.353,-224.491C474.83,-211.116 502.638,-184.955 530,-168 551.8,-154.492 578.364,-143.073 599.189,-135.118"/>
<polygon fill="midnightblue" stroke="midnightblue" points="600.463,-138.378 608.609,-131.604 598.016,-131.819 600.463,-138.378"/>
</g>
<!-- Node38&#45;&gt;Node16 -->
<g id="edge56" class="edge"><title>Node38&#45;&gt;Node16</title>
<path fill="none" stroke="midnightblue" d="M470.862,-224.364C519.838,-201.163 660.942,-137.515 786,-112 1073.19,-53.4059 1157.86,-124.027 1450.73,-75.7968"/>
<polygon fill="midnightblue" stroke="midnightblue" points="1451.51,-79.2152 1460.79,-74.107 1450.35,-72.3119 1451.51,-79.2152"/>
</g>
<!-- Node38&#45;&gt;Node21 -->
<g id="edge57" class="edge"><title>Node38&#45;&gt;Node21</title>
<path fill="none" stroke="midnightblue" d="M426.586,-225.902C401.482,-218.521 363.188,-205.578 333,-188 287.463,-161.484 288.541,-136.712 242,-112 190.938,-84.8876 151.766,-122.192 117,-76 86.3794,-35.316 176.5,-19.4007 227.521,-13.766"/>
<polygon fill="midnightblue" stroke="midnightblue" points="228.167,-17.2181 237.757,-12.7145 227.452,-10.2548 228.167,-17.2181"/>
</g>
<!-- Node38&#45;&gt;Node37 -->
<g id="edge53" class="edge"><title>Node38&#45;&gt;Node37</title>
<path fill="none" stroke="midnightblue" d="M440.629,-224.324C428.842,-216.058 410.868,-203.453 396.864,-193.632"/>
<polygon fill="midnightblue" stroke="midnightblue" points="398.538,-190.531 388.341,-187.655 394.518,-196.262 398.538,-190.531"/>
</g>
<!-- Node39 -->
<g id="node39" class="node"><title>Node39</title>
<polygon fill="white" stroke="#bfbfbf" points="428,-168.5 428,-187.5 478,-187.5 478,-168.5 428,-168.5"/>
<text text-anchor="middle" x="453" y="-175.5" font-family="Helvetica,sans-Serif" font-size="10.00">iomanip</text>
</g>
<!-- Node38&#45;&gt;Node39 -->
<g id="edge55" class="edge"><title>Node38&#45;&gt;Node39</title>
<path fill="none" stroke="midnightblue" d="M453,-224.083C453,-217.006 453,-206.861 453,-197.986"/>
<polygon fill="midnightblue" stroke="midnightblue" points="456.5,-197.751 453,-187.751 449.5,-197.751 456.5,-197.751"/>
</g>
<!-- Node40&#45;&gt;Node6 -->
<g id="edge59" class="edge"><title>Node40&#45;&gt;Node6</title>
<path fill="none" stroke="midnightblue" d="M528.958,-280.201C531.655,-258.936 540.968,-203.868 568,-168 578.037,-154.682 593.207,-143.947 606.473,-136.306"/>
<polygon fill="midnightblue" stroke="midnightblue" points="608.159,-139.374 615.267,-131.518 604.811,-133.226 608.159,-139.374"/>
</g>
<!-- Node40&#45;&gt;Node38 -->
<g id="edge60" class="edge"><title>Node40&#45;&gt;Node38</title>
<path fill="none" stroke="midnightblue" d="M515.95,-280.324C504.537,-272.107 487.169,-259.602 473.565,-249.807"/>
<polygon fill="midnightblue" stroke="midnightblue" points="475.43,-246.837 465.269,-243.834 471.34,-252.517 475.43,-246.837"/>
</g>
<!-- Node41&#45;&gt;Node6 -->
<g id="edge62" class="edge"><title>Node41&#45;&gt;Node6</title>
<path fill="none" stroke="midnightblue" d="M512.445,-336.453C528.485,-329.039 549.835,-316.838 563,-300 601.003,-251.392 579.956,-223.935 606,-168 610.515,-158.303 616.703,-148.133 622.114,-139.92"/>
<polygon fill="midnightblue" stroke="midnightblue" points="625.037,-141.846 627.762,-131.608 619.247,-137.912 625.037,-141.846"/>
</g>
<!-- Node41&#45;&gt;Node38 -->
<g id="edge63" class="edge"><title>Node41&#45;&gt;Node38</title>
<path fill="none" stroke="midnightblue" d="M488.018,-336.368C481.858,-318.537 467.611,-277.295 459.312,-253.272"/>
<polygon fill="midnightblue" stroke="midnightblue" points="462.541,-251.9 455.968,-243.591 455.925,-254.186 462.541,-251.9"/>
</g>
<!-- Node41&#45;&gt;Node40 -->
<g id="edge64" class="edge"><title>Node41&#45;&gt;Node40</title>
<path fill="none" stroke="midnightblue" d="M497.11,-336.083C502.282,-328.534 509.846,-317.495 516.194,-308.23"/>
<polygon fill="midnightblue" stroke="midnightblue" points="519.239,-309.979 522.004,-299.751 513.464,-306.022 519.239,-309.979"/>
</g>
</g>
</svg>
