<?xml version="1.0" encoding="UTF-8" standalone="no"?>
<!DOCTYPE svg PUBLIC "-//W3C//DTD SVG 1.1//EN"
 "http://www.w3.org/Graphics/SVG/1.1/DTD/svg11.dtd">
<!-- Generated by graphviz version 2.38.0 (20140413.2041)
 -->
<!-- Title: nrlmsise&#45;00.cpp Pages: 1 -->
<svg width="310pt" height="84pt"
 viewBox="0.00 0.00 310.00 84.00" xmlns="http://www.w3.org/2000/svg" xmlns:xlink="http://www.w3.org/1999/xlink">
<g id="graph0" class="graph" transform="scale(1 1) rotate(0) translate(4 80)">
<title>nrlmsise&#45;00.cpp</title>
<polygon fill="white" stroke="none" points="-4,4 -4,-80 306,-80 306,4 -4,4"/>
<!-- Node1 -->
<g id="node1" class="node"><title>Node1</title>
<polygon fill="#bfbfbf" stroke="black" points="138,-56.5 138,-75.5 224,-75.5 224,-56.5 138,-56.5"/>
<text text-anchor="middle" x="181" y="-63.5" font-family="Helvetica,sans-Serif" font-size="10.00">nrlmsise&#45;00.cpp</text>
</g>
<!-- Node2 -->
<g id="node2" class="node"><title>Node2</title>
<g id="a_node2"><a xlink:href="nrlmsise-00_8h.html" target="_top" xlink:title="NRLMSISE&#45;00 Extended Support header file. ">
<polygon fill="white" stroke="black" points="0,-0.5 0,-19.5 110,-19.5 110,-0.5 0,-0.5"/>
<text text-anchor="middle" x="55" y="-7.5" font-family="Helvetica,sans-Serif" font-size="10.00">support/nrlmsise&#45;00.h</text>
</a>
</g>
</g>
<!-- Node1&#45;&gt;Node2 -->
<g id="edge1" class="edge"><title>Node1&#45;&gt;Node2</title>
<path fill="none" stroke="midnightblue" d="M161.035,-56.4435C140.391,-47.5961 107.937,-33.6875 84.3684,-23.5865"/>
<polygon fill="midnightblue" stroke="midnightblue" points="85.4419,-20.2387 74.8717,-19.5164 82.6844,-26.6727 85.4419,-20.2387"/>
</g>
<!-- Node3 -->
<g id="node3" class="node"><title>Node3</title>
<polygon fill="white" stroke="#bfbfbf" points="128,-0.5 128,-19.5 172,-19.5 172,-0.5 128,-0.5"/>
<text text-anchor="middle" x="150" y="-7.5" font-family="Helvetica,sans-Serif" font-size="10.00">cmath</text>
</g>
<!-- Node1&#45;&gt;Node3 -->
<g id="edge2" class="edge"><title>Node1&#45;&gt;Node3</title>
<path fill="none" stroke="midnightblue" d="M175.881,-56.083C171.592,-48.6127 165.342,-37.7244 160.058,-28.5199"/>
<polygon fill="midnightblue" stroke="midnightblue" points="163.038,-26.6811 155.024,-19.7511 156.967,-30.1662 163.038,-26.6811"/>
</g>
<!-- Node4 -->
<g id="node4" class="node"><title>Node4</title>
<polygon fill="white" stroke="#bfbfbf" points="190,-0.5 190,-19.5 236,-19.5 236,-0.5 190,-0.5"/>
<text text-anchor="middle" x="213" y="-7.5" font-family="Helvetica,sans-Serif" font-size="10.00">stdio.h</text>
</g>
<!-- Node1&#45;&gt;Node4 -->
<g id="edge3" class="edge"><title>Node1&#45;&gt;Node4</title>
<path fill="none" stroke="midnightblue" d="M186.284,-56.083C190.711,-48.6127 197.163,-37.7244 202.618,-28.5199"/>
<polygon fill="midnightblue" stroke="midnightblue" points="205.727,-30.1383 207.814,-19.7511 199.705,-26.5697 205.727,-30.1383"/>
</g>
<!-- Node5 -->
<g id="node5" class="node"><title>Node5</title>
<polygon fill="white" stroke="#bfbfbf" points="254,-0.5 254,-19.5 302,-19.5 302,-0.5 254,-0.5"/>
<text text-anchor="middle" x="278" y="-7.5" font-family="Helvetica,sans-Serif" font-size="10.00">stdlib.h</text>
</g>
<!-- Node1&#45;&gt;Node5 -->
<g id="edge4" class="edge"><title>Node1&#45;&gt;Node5</title>
<path fill="none" stroke="midnightblue" d="M196.585,-56.324C211.999,-47.7428 235.812,-34.486 253.71,-24.5224"/>
<polygon fill="midnightblue" stroke="midnightblue" points="255.419,-27.5767 262.454,-19.6545 252.014,-21.4606 255.419,-27.5767"/>
</g>
</g>
</svg>
