<?xml version="1.0" encoding="UTF-8" standalone="no"?>
<!DOCTYPE svg PUBLIC "-//W3C//DTD SVG 1.1//EN"
 "http://www.w3.org/Graphics/SVG/1.1/DTD/svg11.dtd">
<!-- Generated by graphviz version 2.38.0 (20140413.2041)
 -->
<!-- Title: objlib.h Pages: 1 -->
<!--zoomable 476 -->
<svg id="main" version="1.1" xmlns="http://www.w3.org/2000/svg" xmlns:xlink="http://www.w3.org/1999/xlink" xml:space="preserve" onload="init(evt)">
<style type="text/css"><![CDATA[
.edge:hover path { stroke: red; }
.edge:hover polygon { stroke: red; fill: red; }
]]></style>
<script type="text/javascript"><![CDATA[
var edges = document.getElementsByTagName('g');
if (edges && edges.length) {
  for (var i=0;i<edges.length;i++) {
    if (edges[i].id.substr(0,4)=='edge') {
      edges[i].setAttribute('class','edge');
    }
  }
}
]]></script>
        <defs>
                <circle id="rim" cx="0" cy="0" r="7"/>
                <circle id="rim2" cx="0" cy="0" r="3.5"/>
                <g id="zoomPlus">
                        <use xlink:href="#rim" fill="#404040">
                                <set attributeName="fill" to="#808080" begin="zoomplus.mouseover" end="zoomplus.mouseout"/>
                        </use>
                        <path d="M-4,0h8M0,-4v8" fill="none" stroke="white" stroke-width="1.5" pointer-events="none"/>
                </g>
                <g id="zoomMin">
                        <use xlink:href="#rim" fill="#404040">
                                <set attributeName="fill" to="#808080" begin="zoomminus.mouseover" end="zoomminus.mouseout"/>
                        </use>
                        <path d="M-4,0h8" fill="none" stroke="white" stroke-width="1.5" pointer-events="none"/>
                </g>
                <g id="dirArrow">
                        <path fill="none" stroke="white" stroke-width="1.5" d="M0,-3.0v7 M-2.5,-0.5L0,-3.0L2.5,-0.5"/>
                </g>
               <g id="resetDef">
                       <use xlink:href="#rim2" fill="#404040">
                               <set attributeName="fill" to="#808080" begin="reset.mouseover" end="reset.mouseout"/>
                       </use>
               </g>
        </defs>

<script type="text/javascript">
var viewWidth = 1498;
var viewHeight = 476;
var sectionId = 'dynsection-0';
</script>
<script xlink:href="svgpan.js"/>
<svg id="graph" class="graph">
<g id="viewport">
<title>objlib.h</title>
<polygon fill="white" stroke="none" points="-4,4 -4,-472 1493.5,-472 1493.5,4 -4,4"/>
<!-- Node1 -->
<g id="node1" class="node"><title>Node1</title>
<polygon fill="#bfbfbf" stroke="black" points="1175,-448.5 1175,-467.5 1222,-467.5 1222,-448.5 1175,-448.5"/>
<text text-anchor="middle" x="1198.5" y="-455.5" font-family="Helvetica,sans-Serif" font-size="10.00">objlib.h</text>
</g>
<!-- Node2 -->
<g id="node2" class="node"><title>Node2</title>
<g id="a_node2"><a xlink:href="config_cosmos_8h.html" target="_top" xlink:title="Headers and definitions common to all COSMOS. ">
<polygon fill="white" stroke="black" points="824,-112.5 824,-131.5 947,-131.5 947,-112.5 824,-112.5"/>
<text text-anchor="middle" x="885.5" y="-119.5" font-family="Helvetica,sans-Serif" font-size="10.00">support/configCosmos.h</text>
</a>
</g>
</g>
<!-- Node1&#45;&gt;Node2 -->
<g id="edge1" class="edge"><title>Node1&#45;&gt;Node2</title>
<path fill="none" stroke="midnightblue" d="M1174.92,-454.612C1097.43,-446.12 855.5,-414.226 855.5,-347 855.5,-347 855.5,-347 855.5,-233 855.5,-199.64 868.501,-162.532 877.386,-141.067"/>
<polygon fill="midnightblue" stroke="midnightblue" points="880.713,-142.19 881.454,-131.621 874.284,-139.421 880.713,-142.19"/>
</g>
<!-- Node28 -->
<g id="node28" class="node"><title>Node28</title>
<g id="a_node28"><a xlink:href="mathlib_8h.html" target="_top" xlink:title="mathlib include file ">
<polygon fill="white" stroke="black" points="1158,-392.5 1158,-411.5 1239,-411.5 1239,-392.5 1158,-392.5"/>
<text text-anchor="middle" x="1198.5" y="-399.5" font-family="Helvetica,sans-Serif" font-size="10.00">math/mathlib.h</text>
</a>
</g>
</g>
<!-- Node1&#45;&gt;Node28 -->
<g id="edge33" class="edge"><title>Node1&#45;&gt;Node28</title>
<path fill="none" stroke="midnightblue" d="M1198.5,-448.083C1198.5,-441.006 1198.5,-430.861 1198.5,-421.986"/>
<polygon fill="midnightblue" stroke="midnightblue" points="1202,-421.751 1198.5,-411.751 1195,-421.751 1202,-421.751"/>
</g>
<!-- Node32 -->
<g id="node32" class="node"><title>Node32</title>
<g id="a_node32"><a xlink:href="vector_8h.html" target="_top" xlink:title="vector.h">
<polygon fill="white" stroke="black" points="1251.5,-224.5 1251.5,-243.5 1303.5,-243.5 1303.5,-224.5 1251.5,-224.5"/>
<text text-anchor="middle" x="1277.5" y="-231.5" font-family="Helvetica,sans-Serif" font-size="10.00">vector.h</text>
</a>
</g>
</g>
<!-- Node1&#45;&gt;Node32 -->
<g id="edge57" class="edge"><title>Node1&#45;&gt;Node32</title>
<path fill="none" stroke="midnightblue" d="M1211.72,-448.207C1222.88,-440.094 1238.46,-427.052 1247.5,-412 1277.92,-361.324 1279.73,-288.597 1278.63,-254.298"/>
<polygon fill="midnightblue" stroke="midnightblue" points="1282.11,-253.701 1278.16,-243.868 1275.11,-254.016 1282.11,-253.701"/>
</g>
<!-- Node3 -->
<g id="node3" class="node"><title>Node3</title>
<polygon fill="white" stroke="#bfbfbf" points="968,-56.5 968,-75.5 1013,-75.5 1013,-56.5 968,-56.5"/>
<text text-anchor="middle" x="990.5" y="-63.5" font-family="Helvetica,sans-Serif" font-size="10.00">climits</text>
</g>
<!-- Node2&#45;&gt;Node3 -->
<g id="edge2" class="edge"><title>Node2&#45;&gt;Node3</title>
<path fill="none" stroke="midnightblue" d="M902.37,-112.324C919.209,-103.664 945.307,-90.2424 964.738,-80.249"/>
<polygon fill="midnightblue" stroke="midnightblue" points="966.38,-83.3405 973.672,-75.6545 963.178,-77.1155 966.38,-83.3405"/>
</g>
<!-- Node4 -->
<g id="node4" class="node"><title>Node4</title>
<polygon fill="white" stroke="#bfbfbf" points="1031,-56.5 1031,-75.5 1078,-75.5 1078,-56.5 1031,-56.5"/>
<text text-anchor="middle" x="1054.5" y="-63.5" font-family="Helvetica,sans-Serif" font-size="10.00">csignal</text>
</g>
<!-- Node2&#45;&gt;Node4 -->
<g id="edge3" class="edge"><title>Node2&#45;&gt;Node4</title>
<path fill="none" stroke="midnightblue" d="M912.279,-112.444C941.757,-103.024 989.188,-87.869 1021.08,-77.6785"/>
<polygon fill="midnightblue" stroke="midnightblue" points="1022.39,-80.9357 1030.85,-74.558 1020.26,-74.2678 1022.39,-80.9357"/>
</g>
<!-- Node5 -->
<g id="node5" class="node"><title>Node5</title>
<polygon fill="white" stroke="#bfbfbf" points="1270.5,-56.5 1270.5,-75.5 1316.5,-75.5 1316.5,-56.5 1270.5,-56.5"/>
<text text-anchor="middle" x="1293.5" y="-63.5" font-family="Helvetica,sans-Serif" font-size="10.00">cstdint</text>
</g>
<!-- Node2&#45;&gt;Node5 -->
<g id="edge4" class="edge"><title>Node2&#45;&gt;Node5</title>
<path fill="none" stroke="midnightblue" d="M947.213,-115.76C1021.11,-108.968 1148.45,-95.6226 1256.5,-76 1257.78,-75.7674 1259.08,-75.5174 1260.4,-75.254"/>
<polygon fill="midnightblue" stroke="midnightblue" points="1261.48,-78.5999 1270.5,-73.0397 1259.98,-71.7623 1261.48,-78.5999"/>
</g>
<!-- Node6 -->
<g id="node6" class="node"><title>Node6</title>
<polygon fill="white" stroke="#bfbfbf" points="1096.5,-56.5 1096.5,-75.5 1152.5,-75.5 1152.5,-56.5 1096.5,-56.5"/>
<text text-anchor="middle" x="1124.5" y="-63.5" font-family="Helvetica,sans-Serif" font-size="10.00">cinttypes</text>
</g>
<!-- Node2&#45;&gt;Node6 -->
<g id="edge5" class="edge"><title>Node2&#45;&gt;Node6</title>
<path fill="none" stroke="midnightblue" d="M924.441,-112.431C964.956,-103.48 1030.22,-88.9638 1086.5,-76 1086.6,-75.9772 1086.7,-75.9543 1086.8,-75.9314"/>
<polygon fill="midnightblue" stroke="midnightblue" points="1087.34,-79.3986 1096.29,-73.7227 1085.75,-72.5808 1087.34,-79.3986"/>
</g>
<!-- Node7 -->
<g id="node7" class="node"><title>Node7</title>
<polygon fill="white" stroke="#bfbfbf" points="1171,-56.5 1171,-75.5 1214,-75.5 1214,-56.5 1171,-56.5"/>
<text text-anchor="middle" x="1192.5" y="-63.5" font-family="Helvetica,sans-Serif" font-size="10.00">cstdio</text>
</g>
<!-- Node2&#45;&gt;Node7 -->
<g id="edge6" class="edge"><title>Node2&#45;&gt;Node7</title>
<path fill="none" stroke="midnightblue" d="M947.025,-113.142C1000.92,-105.765 1081.51,-93.5491 1160.75,-75.9221"/>
<polygon fill="midnightblue" stroke="midnightblue" points="1161.92,-79.2455 1170.91,-73.6307 1160.38,-72.4171 1161.92,-79.2455"/>
</g>
<!-- Node8 -->
<g id="node8" class="node"><title>Node8</title>
<polygon fill="white" stroke="#bfbfbf" points="0,-56.5 0,-75.5 49,-75.5 49,-56.5 0,-56.5"/>
<text text-anchor="middle" x="24.5" y="-63.5" font-family="Helvetica,sans-Serif" font-size="10.00">cstddef</text>
</g>
<!-- Node2&#45;&gt;Node8 -->
<g id="edge7" class="edge"><title>Node2&#45;&gt;Node8</title>
<path fill="none" stroke="midnightblue" d="M823.78,-119.342C661.3,-114.711 223.489,-100.452 59.1973,-75.9078"/>
<polygon fill="midnightblue" stroke="midnightblue" points="59.663,-72.4382 49.2426,-74.3526 58.5825,-79.3543 59.663,-72.4382"/>
</g>
<!-- Node9 -->
<g id="node9" class="node"><title>Node9</title>
<polygon fill="white" stroke="#bfbfbf" points="67,-56.5 67,-75.5 112,-75.5 112,-56.5 67,-56.5"/>
<text text-anchor="middle" x="89.5" y="-63.5" font-family="Helvetica,sans-Serif" font-size="10.00">cstdlib</text>
</g>
<!-- Node2&#45;&gt;Node9 -->
<g id="edge8" class="edge"><title>Node2&#45;&gt;Node9</title>
<path fill="none" stroke="midnightblue" d="M823.596,-121.844C694.566,-122.634 387.557,-119.463 122.3,-75.7108"/>
<polygon fill="midnightblue" stroke="midnightblue" points="122.529,-72.2006 112.089,-74.0029 121.374,-79.1047 122.529,-72.2006"/>
</g>
<!-- Node10 -->
<g id="node10" class="node"><title>Node10</title>
<polygon fill="white" stroke="#bfbfbf" points="130.5,-56.5 130.5,-75.5 174.5,-75.5 174.5,-56.5 130.5,-56.5"/>
<text text-anchor="middle" x="152.5" y="-63.5" font-family="Helvetica,sans-Serif" font-size="10.00">cerrno</text>
</g>
<!-- Node2&#45;&gt;Node10 -->
<g id="edge9" class="edge"><title>Node2&#45;&gt;Node10</title>
<path fill="none" stroke="midnightblue" d="M823.933,-121.548C702.822,-121.652 425.202,-117.083 184.693,-75.8169"/>
<polygon fill="midnightblue" stroke="midnightblue" points="185.166,-72.3466 174.714,-74.0796 183.966,-79.2429 185.166,-72.3466"/>
</g>
<!-- Node11 -->
<g id="node11" class="node"><title>Node11</title>
<polygon fill="white" stroke="#bfbfbf" points="192.5,-56.5 192.5,-75.5 238.5,-75.5 238.5,-56.5 192.5,-56.5"/>
<text text-anchor="middle" x="215.5" y="-63.5" font-family="Helvetica,sans-Serif" font-size="10.00">cstring</text>
</g>
<!-- Node2&#45;&gt;Node11 -->
<g id="edge10" class="edge"><title>Node2&#45;&gt;Node11</title>
<path fill="none" stroke="midnightblue" d="M823.855,-120.807C711.144,-119.552 464.336,-112.622 248.712,-75.8594"/>
<polygon fill="midnightblue" stroke="midnightblue" points="249.243,-72.3994 238.792,-74.1432 248.049,-79.2969 249.243,-72.3994"/>
</g>
<!-- Node12 -->
<g id="node12" class="node"><title>Node12</title>
<polygon fill="white" stroke="#bfbfbf" points="1444.5,-56.5 1444.5,-75.5 1488.5,-75.5 1488.5,-56.5 1444.5,-56.5"/>
<text text-anchor="middle" x="1466.5" y="-63.5" font-family="Helvetica,sans-Serif" font-size="10.00">cmath</text>
</g>
<!-- Node2&#45;&gt;Node12 -->
<g id="edge11" class="edge"><title>Node2&#45;&gt;Node12</title>
<path fill="none" stroke="midnightblue" d="M947.069,-119.985C1047.47,-117.449 1252.66,-108.598 1434.28,-75.8627"/>
<polygon fill="midnightblue" stroke="midnightblue" points="1435.07,-79.2756 1444.28,-74.0315 1433.81,-72.3901 1435.07,-79.2756"/>
</g>
<!-- Node13 -->
<g id="node13" class="node"><title>Node13</title>
<polygon fill="white" stroke="#bfbfbf" points="257,-56.5 257,-75.5 302,-75.5 302,-56.5 257,-56.5"/>
<text text-anchor="middle" x="279.5" y="-63.5" font-family="Helvetica,sans-Serif" font-size="10.00">iosfwd</text>
</g>
<!-- Node2&#45;&gt;Node13 -->
<g id="edge12" class="edge"><title>Node2&#45;&gt;Node13</title>
<path fill="none" stroke="midnightblue" d="M823.698,-120.291C719.609,-118.197 502.777,-109.961 311.987,-75.9267"/>
<polygon fill="midnightblue" stroke="midnightblue" points="312.523,-72.4669 302.059,-74.1279 311.275,-79.3548 312.523,-72.4669"/>
</g>
<!-- Node14 -->
<g id="node14" class="node"><title>Node14</title>
<polygon fill="white" stroke="#bfbfbf" points="1372.5,-56.5 1372.5,-75.5 1426.5,-75.5 1426.5,-56.5 1372.5,-56.5"/>
<text text-anchor="middle" x="1399.5" y="-63.5" font-family="Helvetica,sans-Serif" font-size="10.00">iostream</text>
</g>
<!-- Node2&#45;&gt;Node14 -->
<g id="edge13" class="edge"><title>Node2&#45;&gt;Node14</title>
<path fill="none" stroke="midnightblue" d="M947.115,-115.073C1032.25,-106.799 1190.62,-91.098 1325.5,-76 1337.54,-74.6527 1350.66,-73.0876 1362.47,-71.6442"/>
<polygon fill="midnightblue" stroke="midnightblue" points="1362.95,-75.1113 1372.45,-70.4155 1362.1,-68.1638 1362.95,-75.1113"/>
</g>
<!-- Node15 -->
<g id="node15" class="node"><title>Node15</title>
<polygon fill="white" stroke="#bfbfbf" points="320,-56.5 320,-75.5 371,-75.5 371,-56.5 320,-56.5"/>
<text text-anchor="middle" x="345.5" y="-63.5" font-family="Helvetica,sans-Serif" font-size="10.00">unistd.h</text>
</g>
<!-- Node2&#45;&gt;Node15 -->
<g id="edge14" class="edge"><title>Node2&#45;&gt;Node15</title>
<path fill="none" stroke="midnightblue" d="M823.67,-118.734C730.016,-114.588 546.537,-103.681 381.36,-75.8424"/>
<polygon fill="midnightblue" stroke="midnightblue" points="381.457,-72.3083 371.01,-74.0715 380.277,-79.208 381.457,-72.3083"/>
</g>
<!-- Node16 -->
<g id="node16" class="node"><title>Node16</title>
<polygon fill="white" stroke="#bfbfbf" points="389.5,-56.5 389.5,-75.5 433.5,-75.5 433.5,-56.5 389.5,-56.5"/>
<text text-anchor="middle" x="411.5" y="-63.5" font-family="Helvetica,sans-Serif" font-size="10.00">fcntl.h</text>
</g>
<!-- Node2&#45;&gt;Node16 -->
<g id="edge15" class="edge"><title>Node2&#45;&gt;Node16</title>
<path fill="none" stroke="midnightblue" d="M823.715,-118.264C739.644,-113.759 584.497,-102.669 443.834,-75.9304"/>
<polygon fill="midnightblue" stroke="midnightblue" points="444.215,-72.4393 433.733,-73.9781 442.887,-79.3122 444.215,-72.4393"/>
</g>
<!-- Node17 -->
<g id="node17" class="node"><title>Node17</title>
<polygon fill="white" stroke="#bfbfbf" points="452,-56.5 452,-75.5 493,-75.5 493,-56.5 452,-56.5"/>
<text text-anchor="middle" x="472.5" y="-63.5" font-family="Helvetica,sans-Serif" font-size="10.00">string</text>
</g>
<!-- Node2&#45;&gt;Node17 -->
<g id="edge16" class="edge"><title>Node2&#45;&gt;Node17</title>
<path fill="none" stroke="midnightblue" d="M823.904,-116.205C748.77,-109.774 618.094,-96.7068 507.5,-76 506.035,-75.7258 504.541,-75.425 503.036,-75.1049"/>
<polygon fill="midnightblue" stroke="midnightblue" points="503.66,-71.6566 493.126,-72.7898 502.068,-78.473 503.66,-71.6566"/>
</g>
<!-- Node18 -->
<g id="node18" class="node"><title>Node18</title>
<polygon fill="white" stroke="#bfbfbf" points="1220.5,-0.5 1220.5,-19.5 1264.5,-19.5 1264.5,-0.5 1220.5,-0.5"/>
<text text-anchor="middle" x="1242.5" y="-7.5" font-family="Helvetica,sans-Serif" font-size="10.00">vector</text>
</g>
<!-- Node2&#45;&gt;Node18 -->
<g id="edge17" class="edge"><title>Node2&#45;&gt;Node18</title>
<path fill="none" stroke="midnightblue" d="M947.322,-120.508C1033.07,-118.558 1182.12,-110.183 1222.5,-76 1235.86,-64.6925 1240.45,-44.6895 1241.95,-29.8505"/>
<polygon fill="midnightblue" stroke="midnightblue" points="1245.45,-29.94 1242.59,-19.7392 1238.47,-29.4985 1245.45,-29.94"/>
</g>
<!-- Node19 -->
<g id="node19" class="node"><title>Node19</title>
<polygon fill="white" stroke="#bfbfbf" points="550,-56.5 550,-75.5 593,-75.5 593,-56.5 550,-56.5"/>
<text text-anchor="middle" x="571.5" y="-63.5" font-family="Helvetica,sans-Serif" font-size="10.00">deque</text>
</g>
<!-- Node2&#45;&gt;Node19 -->
<g id="edge18" class="edge"><title>Node2&#45;&gt;Node19</title>
<path fill="none" stroke="midnightblue" d="M823.944,-112.56C767.429,-104.451 681.491,-91.2091 607.5,-76 606.041,-75.7 604.551,-75.3808 603.049,-75.0483"/>
<polygon fill="midnightblue" stroke="midnightblue" points="603.669,-71.5988 593.134,-72.7233 602.071,-78.414 603.669,-71.5988"/>
</g>
<!-- Node20 -->
<g id="node20" class="node"><title>Node20</title>
<polygon fill="white" stroke="#bfbfbf" points="512.5,-0.5 512.5,-19.5 556.5,-19.5 556.5,-0.5 512.5,-0.5"/>
<text text-anchor="middle" x="534.5" y="-7.5" font-family="Helvetica,sans-Serif" font-size="10.00">mutex</text>
</g>
<!-- Node2&#45;&gt;Node20 -->
<g id="edge19" class="edge"><title>Node2&#45;&gt;Node20</title>
<path fill="none" stroke="midnightblue" d="M823.78,-121.815C735.182,-121.566 578.419,-115.375 540.5,-76 528.848,-63.9011 528.678,-44.0231 530.599,-29.4296"/>
<polygon fill="midnightblue" stroke="midnightblue" points="534.058,-29.9679 532.321,-19.5164 527.161,-28.77 534.058,-29.9679"/>
</g>
<!-- Node21 -->
<g id="node21" class="node"><title>Node21</title>
<polygon fill="white" stroke="#bfbfbf" points="587.5,-0.5 587.5,-19.5 631.5,-19.5 631.5,-0.5 587.5,-0.5"/>
<text text-anchor="middle" x="609.5" y="-7.5" font-family="Helvetica,sans-Serif" font-size="10.00">thread</text>
</g>
<!-- Node2&#45;&gt;Node21 -->
<g id="edge20" class="edge"><title>Node2&#45;&gt;Node21</title>
<path fill="none" stroke="midnightblue" d="M823.781,-118.172C778.542,-113.799 716.994,-102.903 669.5,-76 648.917,-64.341 631.382,-43.1805 620.678,-28.1731"/>
<polygon fill="midnightblue" stroke="midnightblue" points="623.463,-26.0446 614.93,-19.7641 617.684,-29.9948 623.463,-26.0446"/>
</g>
<!-- Node22 -->
<g id="node22" class="node"><title>Node22</title>
<polygon fill="white" stroke="#bfbfbf" points="650,-0.5 650,-19.5 745,-19.5 745,-0.5 650,-0.5"/>
<text text-anchor="middle" x="697.5" y="-7.5" font-family="Helvetica,sans-Serif" font-size="10.00">condition_variable</text>
</g>
<!-- Node2&#45;&gt;Node22 -->
<g id="edge21" class="edge"><title>Node2&#45;&gt;Node22</title>
<path fill="none" stroke="midnightblue" d="M823.92,-116.017C769.664,-110.197 696.53,-98.3706 678.5,-76 667.364,-62.1833 675.965,-42.0634 684.899,-27.8762"/>
<polygon fill="midnightblue" stroke="midnightblue" points="687.849,-29.7631 690.615,-19.5357 682.075,-25.8061 687.849,-29.7631"/>
</g>
<!-- Node23 -->
<g id="node23" class="node"><title>Node23</title>
<polygon fill="white" stroke="#bfbfbf" points="810,-0.5 810,-19.5 853,-19.5 853,-0.5 810,-0.5"/>
<text text-anchor="middle" x="831.5" y="-7.5" font-family="Helvetica,sans-Serif" font-size="10.00">queue</text>
</g>
<!-- Node2&#45;&gt;Node23 -->
<g id="edge22" class="edge"><title>Node2&#45;&gt;Node23</title>
<path fill="none" stroke="midnightblue" d="M877.17,-112.386C869.283,-103.801 857.62,-89.9229 850.5,-76 842.972,-61.2799 837.982,-43.1181 835.012,-29.7376"/>
<polygon fill="midnightblue" stroke="midnightblue" points="838.413,-28.8997 832.982,-19.803 831.555,-30.3013 838.413,-28.8997"/>
</g>
<!-- Node24 -->
<g id="node24" class="node"><title>Node24</title>
<polygon fill="white" stroke="#bfbfbf" points="859.5,-56.5 859.5,-75.5 911.5,-75.5 911.5,-56.5 859.5,-56.5"/>
<text text-anchor="middle" x="885.5" y="-63.5" font-family="Helvetica,sans-Serif" font-size="10.00">sstream</text>
</g>
<!-- Node2&#45;&gt;Node24 -->
<g id="edge23" class="edge"><title>Node2&#45;&gt;Node24</title>
<path fill="none" stroke="midnightblue" d="M885.5,-112.083C885.5,-105.006 885.5,-94.8611 885.5,-85.9865"/>
<polygon fill="midnightblue" stroke="midnightblue" points="889,-85.751 885.5,-75.7511 882,-85.7511 889,-85.751"/>
</g>
<!-- Node25 -->
<g id="node25" class="node"><title>Node25</title>
<polygon fill="white" stroke="#bfbfbf" points="897,-0.5 897,-19.5 932,-19.5 932,-0.5 897,-0.5"/>
<text text-anchor="middle" x="914.5" y="-7.5" font-family="Helvetica,sans-Serif" font-size="10.00">map</text>
</g>
<!-- Node2&#45;&gt;Node25 -->
<g id="edge24" class="edge"><title>Node2&#45;&gt;Node25</title>
<path fill="none" stroke="midnightblue" d="M895.056,-112.45C903.588,-104.12 915.489,-90.6042 920.5,-76 925.672,-60.926 923.351,-42.7991 920.209,-29.5219"/>
<polygon fill="midnightblue" stroke="midnightblue" points="923.533,-28.4082 917.523,-19.6832 916.78,-30.252 923.533,-28.4082"/>
</g>
<!-- Node26 -->
<g id="node26" class="node"><title>Node26</title>
<g id="a_node26"><a xlink:href="cosmos-defs_8h.html" target="_top" xlink:title="COSMOS definitions Definitions specific to the COSMOS environement. ">
<polygon fill="white" stroke="black" points="687.5,-56.5 687.5,-75.5 803.5,-75.5 803.5,-56.5 687.5,-56.5"/>
<text text-anchor="middle" x="745.5" y="-63.5" font-family="Helvetica,sans-Serif" font-size="10.00">support/cosmos&#45;defs.h</text>
</a>
</g>
</g>
<!-- Node2&#45;&gt;Node26 -->
<g id="edge25" class="edge"><title>Node2&#45;&gt;Node26</title>
<path fill="none" stroke="midnightblue" d="M863.317,-112.444C840.072,-103.478 803.351,-89.314 777.085,-79.1827"/>
<polygon fill="midnightblue" stroke="midnightblue" points="778.169,-75.8497 767.58,-75.5164 775.65,-82.3807 778.169,-75.8497"/>
</g>
<!-- Node26&#45;&gt;Node18 -->
<g id="edge27" class="edge"><title>Node26&#45;&gt;Node18</title>
<path fill="none" stroke="midnightblue" d="M803.974,-58.6467C909.432,-47.1885 1128.14,-23.4249 1210.34,-14.4941"/>
<polygon fill="midnightblue" stroke="midnightblue" points="1210.78,-17.9673 1220.34,-13.4075 1210.02,-11.0082 1210.78,-17.9673"/>
</g>
<!-- Node26&#45;&gt;Node20 -->
<g id="edge31" class="edge"><title>Node26&#45;&gt;Node20</title>
<path fill="none" stroke="midnightblue" d="M712.066,-56.4435C672.171,-46.2334 605.939,-29.2831 566.629,-19.2226"/>
<polygon fill="midnightblue" stroke="midnightblue" points="567.329,-15.789 556.774,-16.7003 565.594,-22.5705 567.329,-15.789"/>
</g>
<!-- Node26&#45;&gt;Node21 -->
<g id="edge30" class="edge"><title>Node26&#45;&gt;Node21</title>
<path fill="none" stroke="midnightblue" d="M723.95,-56.4435C701.469,-47.5171 666.012,-33.4387 640.52,-23.3168"/>
<polygon fill="midnightblue" stroke="midnightblue" points="641.535,-19.9539 630.949,-19.5164 638.951,-26.4598 641.535,-19.9539"/>
</g>
<!-- Node26&#45;&gt;Node22 -->
<g id="edge32" class="edge"><title>Node26&#45;&gt;Node22</title>
<path fill="none" stroke="midnightblue" d="M737.574,-56.083C730.654,-48.2982 720.435,-36.8015 712.048,-27.3665"/>
<polygon fill="midnightblue" stroke="midnightblue" points="714.538,-24.8999 705.279,-19.7511 709.306,-29.5505 714.538,-24.8999"/>
</g>
<!-- Node26&#45;&gt;Node23 -->
<g id="edge29" class="edge"><title>Node26&#45;&gt;Node23</title>
<path fill="none" stroke="midnightblue" d="M759.317,-56.324C772.733,-47.9002 793.324,-34.9709 809.086,-25.0741"/>
<polygon fill="midnightblue" stroke="midnightblue" points="811.109,-27.9364 817.717,-19.6545 807.387,-22.0081 811.109,-27.9364"/>
</g>
<!-- Node26&#45;&gt;Node25 -->
<g id="edge26" class="edge"><title>Node26&#45;&gt;Node25</title>
<path fill="none" stroke="midnightblue" d="M772.279,-56.4435C803.553,-46.4507 855.033,-30.0013 886.728,-19.874"/>
<polygon fill="midnightblue" stroke="midnightblue" points="888.2,-23.078 896.66,-16.7003 886.069,-16.4101 888.2,-23.078"/>
</g>
<!-- Node27 -->
<g id="node27" class="node"><title>Node27</title>
<polygon fill="white" stroke="#bfbfbf" points="763,-0.5 763,-19.5 792,-19.5 792,-0.5 763,-0.5"/>
<text text-anchor="middle" x="777.5" y="-7.5" font-family="Helvetica,sans-Serif" font-size="10.00">list</text>
</g>
<!-- Node26&#45;&gt;Node27 -->
<g id="edge28" class="edge"><title>Node26&#45;&gt;Node27</title>
<path fill="none" stroke="midnightblue" d="M750.784,-56.083C755.211,-48.6127 761.663,-37.7244 767.118,-28.5199"/>
<polygon fill="midnightblue" stroke="midnightblue" points="770.227,-30.1383 772.314,-19.7511 764.205,-26.5697 770.227,-30.1383"/>
</g>
<!-- Node28&#45;&gt;Node2 -->
<g id="edge34" class="edge"><title>Node28&#45;&gt;Node2</title>
<path fill="none" stroke="midnightblue" d="M1157.65,-392.858C1108.21,-380.349 1031.5,-351.235 1031.5,-291 1031.5,-291 1031.5,-291 1031.5,-233 1031.5,-180.445 970.406,-149.854 927.259,-134.802"/>
<polygon fill="midnightblue" stroke="midnightblue" points="928.134,-131.404 917.54,-131.565 925.922,-138.046 928.134,-131.404"/>
</g>
<!-- Node28&#45;&gt;Node12 -->
<g id="edge55" class="edge"><title>Node28&#45;&gt;Node12</title>
<path fill="none" stroke="midnightblue" d="M1239.27,-396.663C1319.36,-385.649 1489.5,-348.854 1489.5,-235 1489.5,-235 1489.5,-235 1489.5,-177 1489.5,-144.12 1479.53,-106.86 1472.72,-85.2353"/>
<polygon fill="midnightblue" stroke="midnightblue" points="1476.04,-84.1248 1469.6,-75.7105 1469.39,-86.3032 1476.04,-84.1248"/>
</g>
<!-- Node28&#45;&gt;Node14 -->
<g id="edge56" class="edge"><title>Node28&#45;&gt;Node14</title>
<path fill="none" stroke="midnightblue" d="M1210.41,-392.478C1221.89,-383.961 1239.38,-370.132 1252.5,-356 1314.92,-288.746 1325.74,-266.948 1372.5,-188 1386.58,-164.227 1393.35,-158.937 1399.5,-132 1403,-116.684 1402.69,-98.8033 1401.68,-85.6767"/>
<polygon fill="midnightblue" stroke="midnightblue" points="1405.15,-85.1618 1400.7,-75.549 1398.18,-85.8417 1405.15,-85.1618"/>
</g>
<!-- Node29 -->
<g id="node29" class="node"><title>Node29</title>
<g id="a_node29"><a xlink:href="cosmos-errno_8h.html" target="_top" xlink:title="COSMOS Error Codes. ">
<polygon fill="white" stroke="black" points="884,-336.5 884,-355.5 1003,-355.5 1003,-336.5 884,-336.5"/>
<text text-anchor="middle" x="943.5" y="-343.5" font-family="Helvetica,sans-Serif" font-size="10.00">support/cosmos&#45;errno.h</text>
</a>
</g>
</g>
<!-- Node28&#45;&gt;Node29 -->
<g id="edge35" class="edge"><title>Node28&#45;&gt;Node29</title>
<path fill="none" stroke="midnightblue" d="M1158.09,-392.444C1113.52,-383.004 1041.73,-367.802 993.608,-357.611"/>
<polygon fill="midnightblue" stroke="midnightblue" points="994.225,-354.164 983.716,-355.516 992.774,-361.012 994.225,-354.164"/>
</g>
<!-- Node31 -->
<g id="node31" class="node"><title>Node31</title>
<g id="a_node31"><a xlink:href="math_2constants_8h.html" target="_top" xlink:title="constants.h">
<polygon fill="white" stroke="black" points="1135.5,-168.5 1135.5,-187.5 1203.5,-187.5 1203.5,-168.5 1135.5,-168.5"/>
<text text-anchor="middle" x="1169.5" y="-175.5" font-family="Helvetica,sans-Serif" font-size="10.00">constants.h</text>
</a>
</g>
</g>
<!-- Node28&#45;&gt;Node31 -->
<g id="edge38" class="edge"><title>Node28&#45;&gt;Node31</title>
<path fill="none" stroke="midnightblue" d="M1199.6,-392.428C1201.96,-372.538 1206.76,-321.762 1200.5,-280 1196.03,-250.171 1184.51,-216.988 1176.84,-197.069"/>
<polygon fill="midnightblue" stroke="midnightblue" points="1180.07,-195.725 1173.15,-187.711 1173.56,-198.297 1180.07,-195.725"/>
</g>
<!-- Node28&#45;&gt;Node32 -->
<g id="edge41" class="edge"><title>Node28&#45;&gt;Node32</title>
<path fill="none" stroke="midnightblue" d="M1206.63,-392.282C1214.38,-383.62 1225.94,-369.687 1233.5,-356 1252.44,-321.73 1266.06,-277.705 1272.78,-253.321"/>
<polygon fill="midnightblue" stroke="midnightblue" points="1276.17,-254.17 1275.37,-243.605 1269.41,-252.365 1276.17,-254.17"/>
</g>
<!-- Node34 -->
<g id="node34" class="node"><title>Node34</title>
<g id="a_node34"><a xlink:href="matrix_8h.html" target="_top" xlink:title="matrix.h">
<polygon fill="white" stroke="black" points="1139.5,-280.5 1139.5,-299.5 1191.5,-299.5 1191.5,-280.5 1139.5,-280.5"/>
<text text-anchor="middle" x="1165.5" y="-287.5" font-family="Helvetica,sans-Serif" font-size="10.00">matrix.h</text>
</a>
</g>
</g>
<!-- Node28&#45;&gt;Node34 -->
<g id="edge48" class="edge"><title>Node28&#45;&gt;Node34</title>
<path fill="none" stroke="midnightblue" d="M1195.91,-392.368C1190.56,-374.537 1178.19,-333.295 1170.98,-309.272"/>
<polygon fill="midnightblue" stroke="midnightblue" points="1174.3,-308.164 1168.08,-299.591 1167.6,-310.175 1174.3,-308.164"/>
</g>
<!-- Node35 -->
<g id="node35" class="node"><title>Node35</title>
<g id="a_node35"><a xlink:href="rotation_8h.html" target="_top" xlink:title="rotation.h">
<polygon fill="white" stroke="black" points="1089,-336.5 1089,-355.5 1146,-355.5 1146,-336.5 1089,-336.5"/>
<text text-anchor="middle" x="1117.5" y="-343.5" font-family="Helvetica,sans-Serif" font-size="10.00">rotation.h</text>
</a>
</g>
</g>
<!-- Node28&#45;&gt;Node35 -->
<g id="edge51" class="edge"><title>Node28&#45;&gt;Node35</title>
<path fill="none" stroke="midnightblue" d="M1185.49,-392.324C1172.97,-383.979 1153.82,-371.212 1139.03,-361.352"/>
<polygon fill="midnightblue" stroke="midnightblue" points="1140.74,-358.289 1130.48,-355.655 1136.86,-364.114 1140.74,-358.289"/>
</g>
<!-- Node29&#45;&gt;Node2 -->
<g id="edge36" class="edge"><title>Node29&#45;&gt;Node2</title>
<path fill="none" stroke="midnightblue" d="M935.777,-336.392C928.537,-327.81 918.022,-313.935 912.5,-300 890.885,-245.456 886.466,-175.125 885.636,-141.936"/>
<polygon fill="midnightblue" stroke="midnightblue" points="889.134,-141.773 885.47,-131.832 882.135,-141.889 889.134,-141.773"/>
</g>
<!-- Node30 -->
<g id="node30" class="node"><title>Node30</title>
<polygon fill="white" stroke="#bfbfbf" points="922,-280.5 922,-299.5 969,-299.5 969,-280.5 922,-280.5"/>
<text text-anchor="middle" x="945.5" y="-287.5" font-family="Helvetica,sans-Serif" font-size="10.00">errno.h</text>
</g>
<!-- Node29&#45;&gt;Node30 -->
<g id="edge37" class="edge"><title>Node29&#45;&gt;Node30</title>
<path fill="none" stroke="midnightblue" d="M943.83,-336.083C944.092,-329.006 944.468,-318.861 944.797,-309.986"/>
<polygon fill="midnightblue" stroke="midnightblue" points="948.303,-309.874 945.176,-299.751 941.308,-309.615 948.303,-309.874"/>
</g>
<!-- Node31&#45;&gt;Node2 -->
<g id="edge39" class="edge"><title>Node31&#45;&gt;Node2</title>
<path fill="none" stroke="midnightblue" d="M1135.24,-170.486C1086.95,-161.304 998.323,-144.452 940.677,-133.491"/>
<polygon fill="midnightblue" stroke="midnightblue" points="941.122,-130.013 930.644,-131.584 939.814,-136.89 941.122,-130.013"/>
</g>
<!-- Node31&#45;&gt;Node5 -->
<g id="edge40" class="edge"><title>Node31&#45;&gt;Node5</title>
<path fill="none" stroke="midnightblue" d="M1179.23,-168.368C1200.15,-149.814 1249.63,-105.913 1276.1,-82.4376"/>
<polygon fill="midnightblue" stroke="midnightblue" points="1278.66,-84.8459 1283.82,-75.5914 1274.01,-79.6093 1278.66,-84.8459"/>
</g>
<!-- Node32&#45;&gt;Node2 -->
<g id="edge42" class="edge"><title>Node32&#45;&gt;Node2</title>
<path fill="none" stroke="midnightblue" d="M1271.54,-224.04C1261.35,-209.535 1239.08,-181.207 1212.5,-168 1168.96,-146.37 1039.49,-133.644 957.122,-127.521"/>
<polygon fill="midnightblue" stroke="midnightblue" points="957.299,-124.025 947.071,-126.789 956.79,-131.007 957.299,-124.025"/>
</g>
<!-- Node32&#45;&gt;Node12 -->
<g id="edge46" class="edge"><title>Node32&#45;&gt;Node12</title>
<path fill="none" stroke="midnightblue" d="M1303.54,-224.453C1323.74,-216.969 1351.72,-204.678 1372.5,-188 1409.86,-158.013 1441.18,-110.334 1456.46,-84.6963"/>
<polygon fill="midnightblue" stroke="midnightblue" points="1459.67,-86.1468 1461.68,-75.7446 1453.62,-82.6223 1459.67,-86.1468"/>
</g>
<!-- Node32&#45;&gt;Node14 -->
<g id="edge44" class="edge"><title>Node32&#45;&gt;Node14</title>
<path fill="none" stroke="midnightblue" d="M1299.24,-224.353C1315.56,-216.885 1337.44,-204.661 1351.5,-188 1377.4,-157.311 1390.47,-110.924 1396.05,-85.4202"/>
<polygon fill="midnightblue" stroke="midnightblue" points="1399.48,-86.0851 1398.04,-75.5883 1392.62,-84.6908 1399.48,-86.0851"/>
</g>
<!-- Node32&#45;&gt;Node18 -->
<g id="edge47" class="edge"><title>Node32&#45;&gt;Node18</title>
<path fill="none" stroke="midnightblue" d="M1288.82,-224.399C1298.6,-216.227 1312.15,-202.987 1318.5,-188 1341.41,-133.904 1355.55,-106.48 1325.5,-56 1314.41,-37.3758 1292.63,-25.9852 1274.17,-19.3246"/>
<polygon fill="midnightblue" stroke="midnightblue" points="1275.21,-15.9818 1264.61,-16.1772 1273.01,-22.6304 1275.21,-15.9818"/>
</g>
<!-- Node32&#45;&gt;Node31 -->
<g id="edge43" class="edge"><title>Node32&#45;&gt;Node31</title>
<path fill="none" stroke="midnightblue" d="M1260.15,-224.324C1242.83,-215.664 1215.98,-202.242 1196,-192.249"/>
<polygon fill="midnightblue" stroke="midnightblue" points="1197.32,-188.996 1186.81,-187.655 1194.19,-195.257 1197.32,-188.996"/>
</g>
<!-- Node33 -->
<g id="node33" class="node"><title>Node33</title>
<polygon fill="white" stroke="#bfbfbf" points="1259.5,-168.5 1259.5,-187.5 1309.5,-187.5 1309.5,-168.5 1259.5,-168.5"/>
<text text-anchor="middle" x="1284.5" y="-175.5" font-family="Helvetica,sans-Serif" font-size="10.00">iomanip</text>
</g>
<!-- Node32&#45;&gt;Node33 -->
<g id="edge45" class="edge"><title>Node32&#45;&gt;Node33</title>
<path fill="none" stroke="midnightblue" d="M1278.66,-224.083C1279.58,-216.927 1280.92,-206.635 1282.08,-197.691"/>
<polygon fill="midnightblue" stroke="midnightblue" points="1285.55,-198.118 1283.37,-187.751 1278.61,-197.218 1285.55,-198.118"/>
</g>
<!-- Node34&#45;&gt;Node2 -->
<g id="edge49" class="edge"><title>Node34&#45;&gt;Node2</title>
<path fill="none" stroke="midnightblue" d="M1162.28,-280.33C1153.46,-257.869 1126.66,-197.488 1083.5,-168 1046.47,-142.702 997.346,-131.435 957.294,-126.5"/>
<polygon fill="midnightblue" stroke="midnightblue" points="957.648,-123.018 947.319,-125.378 956.865,-129.974 957.648,-123.018"/>
</g>
<!-- Node34&#45;&gt;Node32 -->
<g id="edge50" class="edge"><title>Node34&#45;&gt;Node32</title>
<path fill="none" stroke="midnightblue" d="M1183.49,-280.324C1201.54,-271.625 1229.55,-258.12 1250.3,-248.113"/>
<polygon fill="midnightblue" stroke="midnightblue" points="1252.06,-251.15 1259.55,-243.655 1249.02,-244.845 1252.06,-251.15"/>
</g>
<!-- Node35&#45;&gt;Node2 -->
<g id="edge52" class="edge"><title>Node35&#45;&gt;Node2</title>
<path fill="none" stroke="midnightblue" d="M1116.64,-336.491C1113.32,-308.068 1098.68,-215.528 1045.5,-168 1021.34,-146.406 987.582,-135.098 957.302,-129.207"/>
<polygon fill="midnightblue" stroke="midnightblue" points="957.643,-125.713 947.185,-127.41 956.418,-132.605 957.643,-125.713"/>
</g>
<!-- Node35&#45;&gt;Node32 -->
<g id="edge53" class="edge"><title>Node35&#45;&gt;Node32</title>
<path fill="none" stroke="midnightblue" d="M1116.63,-336.193C1115.79,-322.411 1116.29,-295.7 1130.5,-280 1158.54,-249.019 1207.26,-239.101 1240.88,-236.071"/>
<polygon fill="midnightblue" stroke="midnightblue" points="1241.5,-239.534 1251.22,-235.311 1240.99,-232.553 1241.5,-239.534"/>
</g>
<!-- Node35&#45;&gt;Node34 -->
<g id="edge54" class="edge"><title>Node35&#45;&gt;Node34</title>
<path fill="none" stroke="midnightblue" d="M1125.43,-336.083C1132.35,-328.298 1142.57,-316.801 1150.95,-307.367"/>
<polygon fill="midnightblue" stroke="midnightblue" points="1153.69,-309.55 1157.72,-299.751 1148.46,-304.9 1153.69,-309.55"/>
</g>
</g>
</svg>
        <g id="navigator" transform="translate(0 0)" fill="#404254">
                <rect fill="#f2f5e9" fill-opacity="0.5" stroke="#606060" stroke-width=".5" x="0" y="0" width="60" height="60"/>
                <use id="zoomplus" xlink:href="#zoomPlus" x="17" y="9" onmousedown="handleZoom(evt,'in')"/>
                <use id="zoomminus" xlink:href="#zoomMin" x="42" y="9" onmousedown="handleZoom(evt,'out')"/>
                <use id="reset" xlink:href="#resetDef" x="30" y="36" onmousedown="handleReset()"/>
                <g id="arrowUp" xlink:href="#dirArrow" transform="translate(30 24)" onmousedown="handlePan(0,-1)">
                  <use xlink:href="#rim" fill="#404040">
                        <set attributeName="fill" to="#808080" begin="arrowUp.mouseover" end="arrowUp.mouseout"/>
                  </use>
                  <path fill="none" stroke="white" stroke-width="1.5" d="M0,-3.0v7 M-2.5,-0.5L0,-3.0L2.5,-0.5"/>
                </g>
                <g id="arrowRight" xlink:href="#dirArrow" transform="rotate(90) translate(36 -43)" onmousedown="handlePan(1,0)">
                  <use xlink:href="#rim" fill="#404040">
                        <set attributeName="fill" to="#808080" begin="arrowRight.mouseover" end="arrowRight.mouseout"/>
                  </use>
                  <path fill="none" stroke="white" stroke-width="1.5" d="M0,-3.0v7 M-2.5,-0.5L0,-3.0L2.5,-0.5"/>
                </g>
                <g id="arrowDown" xlink:href="#dirArrow" transform="rotate(180) translate(-30 -48)" onmousedown="handlePan(0,1)">
                  <use xlink:href="#rim" fill="#404040">
                        <set attributeName="fill" to="#808080" begin="arrowDown.mouseover" end="arrowDown.mouseout"/>
                  </use>
                  <path fill="none" stroke="white" stroke-width="1.5" d="M0,-3.0v7 M-2.5,-0.5L0,-3.0L2.5,-0.5"/>
                </g>
                <g id="arrowLeft" xlink:href="#dirArrow" transform="rotate(270) translate(-36 17)" onmousedown="handlePan(-1,0)">
                  <use xlink:href="#rim" fill="#404040">
                        <set attributeName="fill" to="#808080" begin="arrowLeft.mouseover" end="arrowLeft.mouseout"/>
                  </use>
                  <path fill="none" stroke="white" stroke-width="1.5" d="M0,-3.0v7 M-2.5,-0.5L0,-3.0L2.5,-0.5"/>
                </g>
        </g>
        <svg viewBox="0 0 15 15" width="100%" height="30px" preserveAspectRatio="xMaxYMin meet">
         <g id="arrow_out" transform="scale(0.3 0.3)">
          <a xlink:href="objlib_8h__incl_org.svg" target="_base">
           <rect id="button" ry="5" rx="5" y="6" x="6" height="38" width="38"
                fill="#f2f5e9" fill-opacity="0.5" stroke="#606060" stroke-width="1.0"/>
           <path id="arrow"
             d="M 11.500037,31.436501 C 11.940474,20.09759 22.043105,11.32322 32.158766,21.979434 L 37.068811,17.246167 C 37.068811,17.246167 37.088388,32 37.088388,32 L 22.160133,31.978069 C 22.160133,31.978069 26.997745,27.140456 26.997745,27.140456 C 18.528582,18.264221 13.291696,25.230495 11.500037,31.436501 z"
             style="fill:#404040;"/>
          </a>
         </g>
        </svg>
</svg>
