<?xml version="1.0" encoding="UTF-8" standalone="no"?>
<!DOCTYPE svg PUBLIC "-//W3C//DTD SVG 1.1//EN"
 "http://www.w3.org/Graphics/SVG/1.1/DTD/svg11.dtd">
<!-- Generated by graphviz version 2.38.0 (20140413.2041)
 -->
<!-- Title: physicslib.h Pages: 1 -->
<svg width="1532pt" height="588pt"
 viewBox="0.00 0.00 1532.00 588.00" xmlns="http://www.w3.org/2000/svg" xmlns:xlink="http://www.w3.org/1999/xlink">
<g id="graph0" class="graph" transform="scale(1 1) rotate(0) translate(4 584)">
<title>physicslib.h</title>
<polygon fill="white" stroke="none" points="-4,4 -4,-584 1528,-584 1528,4 -4,4"/>
<!-- Node1 -->
<g id="node1" class="node"><title>Node1</title>
<polygon fill="#bfbfbf" stroke="black" points="1004,-560.5 1004,-579.5 1072,-579.5 1072,-560.5 1004,-560.5"/>
<text text-anchor="middle" x="1038" y="-567.5" font-family="Helvetica,sans-Serif" font-size="10.00">physicslib.h</text>
</g>
<!-- Node2 -->
<g id="node2" class="node"><title>Node2</title>
<g id="a_node2"><a xlink:href="config_cosmos_8h.html" target="_top" xlink:title="Headers and definitions common to all COSMOS. ">
<polygon fill="white" stroke="black" points="670.5,-112.5 670.5,-131.5 793.5,-131.5 793.5,-112.5 670.5,-112.5"/>
<text text-anchor="middle" x="732" y="-119.5" font-family="Helvetica,sans-Serif" font-size="10.00">support/configCosmos.h</text>
</a>
</g>
</g>
<!-- Node1&#45;&gt;Node2 -->
<g id="edge1" class="edge"><title>Node1&#45;&gt;Node2</title>
<path fill="none" stroke="midnightblue" d="M1053.36,-560.31C1079.77,-544.093 1131,-506.515 1131,-459 1131,-459 1131,-459 1131,-233 1131,-165.953 918.969,-138.203 804.038,-128.085"/>
<polygon fill="midnightblue" stroke="midnightblue" points="804.168,-124.584 793.906,-127.217 803.571,-131.558 804.168,-124.584"/>
</g>
<!-- Node12 -->
<g id="node12" class="node"><title>Node12</title>
<polygon fill="white" stroke="#bfbfbf" points="23,-56.5 23,-75.5 67,-75.5 67,-56.5 23,-56.5"/>
<text text-anchor="middle" x="45" y="-63.5" font-family="Helvetica,sans-Serif" font-size="10.00">cmath</text>
</g>
<!-- Node1&#45;&gt;Node12 -->
<g id="edge85" class="edge"><title>Node1&#45;&gt;Node12</title>
<path fill="none" stroke="midnightblue" d="M1003.76,-569.048C824.258,-568.856 0,-562.351 0,-459 0,-459 0,-459 0,-177 0,-141.93 19.8368,-104.939 33.1694,-84.037"/>
<polygon fill="midnightblue" stroke="midnightblue" points="36.1342,-85.8991 38.7429,-75.6305 30.3,-82.031 36.1342,-85.8991"/>
</g>
<!-- Node16 -->
<g id="node16" class="node"><title>Node16</title>
<polygon fill="white" stroke="#bfbfbf" points="1480,-56.5 1480,-75.5 1524,-75.5 1524,-56.5 1480,-56.5"/>
<text text-anchor="middle" x="1502" y="-63.5" font-family="Helvetica,sans-Serif" font-size="10.00">fcntl.h</text>
</g>
<!-- Node1&#45;&gt;Node16 -->
<g id="edge84" class="edge"><title>Node1&#45;&gt;Node16</title>
<path fill="none" stroke="midnightblue" d="M1072.2,-562.711C1121.58,-551.432 1207,-522.714 1207,-459 1207,-459 1207,-459 1207,-177 1207,-121.402 1393.29,-84.7041 1469.79,-71.977"/>
<polygon fill="midnightblue" stroke="midnightblue" points="1470.52,-75.4043 1479.83,-70.3407 1469.39,-68.4956 1470.52,-75.4043"/>
</g>
<!-- Node26 -->
<g id="node26" class="node"><title>Node26</title>
<g id="a_node26"><a xlink:href="cosmos-defs_8h.html" target="_top" xlink:title="COSMOS definitions Definitions specific to the COSMOS environement. ">
<polygon fill="white" stroke="black" points="1270,-56.5 1270,-75.5 1386,-75.5 1386,-56.5 1270,-56.5"/>
<text text-anchor="middle" x="1328" y="-63.5" font-family="Helvetica,sans-Serif" font-size="10.00">support/cosmos&#45;defs.h</text>
</a>
</g>
</g>
<!-- Node1&#45;&gt;Node26 -->
<g id="edge33" class="edge"><title>Node1&#45;&gt;Node26</title>
<path fill="none" stroke="midnightblue" d="M1064.19,-560.407C1102.42,-546.025 1169,-513.198 1169,-459 1169,-459 1169,-459 1169,-177 1169,-146.205 1170.88,-133.425 1193,-112 1211.17,-94.4008 1236.4,-83.681 1260.14,-77.1529"/>
<polygon fill="midnightblue" stroke="midnightblue" points="1261.02,-80.542 1269.84,-74.6863 1259.29,-73.7577 1261.02,-80.542"/>
</g>
<!-- Node28 -->
<g id="node28" class="node"><title>Node28</title>
<g id="a_node28"><a xlink:href="mathlib_8h.html" target="_top" xlink:title="mathlib include file ">
<polygon fill="white" stroke="black" points="381.5,-392.5 381.5,-411.5 462.5,-411.5 462.5,-392.5 381.5,-392.5"/>
<text text-anchor="middle" x="422" y="-399.5" font-family="Helvetica,sans-Serif" font-size="10.00">math/mathlib.h</text>
</a>
</g>
</g>
<!-- Node1&#45;&gt;Node28 -->
<g id="edge34" class="edge"><title>Node1&#45;&gt;Node28</title>
<path fill="none" stroke="midnightblue" d="M1003.75,-569.75C922.932,-570.686 714.583,-568.209 548,-524 489.944,-508.593 458.659,-517.749 425,-468 415.909,-454.563 416.074,-435.747 417.97,-421.815"/>
<polygon fill="midnightblue" stroke="midnightblue" points="421.431,-422.341 419.719,-411.885 414.538,-421.126 421.431,-422.341"/>
</g>
<!-- Node30 -->
<g id="node30" class="node"><title>Node30</title>
<polygon fill="white" stroke="#bfbfbf" points="1055.5,-280.5 1055.5,-299.5 1102.5,-299.5 1102.5,-280.5 1055.5,-280.5"/>
<text text-anchor="middle" x="1079" y="-287.5" font-family="Helvetica,sans-Serif" font-size="10.00">errno.h</text>
</g>
<!-- Node1&#45;&gt;Node30 -->
<g id="edge87" class="edge"><title>Node1&#45;&gt;Node30</title>
<path fill="none" stroke="midnightblue" d="M1042.59,-560.44C1051.87,-542.29 1072,-498.378 1072,-459 1072,-459 1072,-459 1072,-401 1072,-368.883 1075.01,-331.598 1077.08,-309.726"/>
<polygon fill="midnightblue" stroke="midnightblue" points="1080.59,-309.841 1078.08,-299.546 1073.62,-309.154 1080.59,-309.841"/>
</g>
<!-- Node36 -->
<g id="node36" class="node"><title>Node36</title>
<g id="a_node36"><a xlink:href="nrlmsise-00_8h.html" target="_top" xlink:title="NRLMSISE&#45;00 Extended Support header file. ">
<polygon fill="white" stroke="black" points="1235,-504.5 1235,-523.5 1345,-523.5 1345,-504.5 1235,-504.5"/>
<text text-anchor="middle" x="1290" y="-511.5" font-family="Helvetica,sans-Serif" font-size="10.00">support/nrlmsise&#45;00.h</text>
</a>
</g>
</g>
<!-- Node1&#45;&gt;Node36 -->
<g id="edge58" class="edge"><title>Node1&#45;&gt;Node36</title>
<path fill="none" stroke="midnightblue" d="M1072.25,-561.661C1115.56,-552.381 1190.45,-536.331 1240.12,-525.689"/>
<polygon fill="midnightblue" stroke="midnightblue" points="1240.96,-529.088 1250,-523.57 1239.49,-522.244 1240.96,-529.088"/>
</g>
<!-- Node37 -->
<g id="node37" class="node"><title>Node37</title>
<g id="a_node37"><a xlink:href="convertlib_8h.html" target="_top" xlink:title="convertlib include file A library providing functions for conversion between the various position and...">
<polygon fill="white" stroke="black" points="853,-504.5 853,-523.5 955,-523.5 955,-504.5 853,-504.5"/>
<text text-anchor="middle" x="904" y="-511.5" font-family="Helvetica,sans-Serif" font-size="10.00">support/convertlib.h</text>
</a>
</g>
</g>
<!-- Node1&#45;&gt;Node37 -->
<g id="edge59" class="edge"><title>Node1&#45;&gt;Node37</title>
<path fill="none" stroke="midnightblue" d="M1016.77,-560.444C994.616,-551.517 959.681,-537.439 934.564,-527.317"/>
<polygon fill="midnightblue" stroke="midnightblue" points="935.717,-524.008 925.133,-523.516 933.1,-530.501 935.717,-524.008"/>
</g>
<!-- Node39 -->
<g id="node39" class="node"><title>Node39</title>
<g id="a_node39"><a xlink:href="demlib_8h.html" target="_top" xlink:title="DEM Support header file. ">
<polygon fill="white" stroke="black" points="574.5,-224.5 574.5,-243.5 663.5,-243.5 663.5,-224.5 574.5,-224.5"/>
<text text-anchor="middle" x="619" y="-231.5" font-family="Helvetica,sans-Serif" font-size="10.00">support/demlib.h</text>
</a>
</g>
</g>
<!-- Node1&#45;&gt;Node39 -->
<g id="edge65" class="edge"><title>Node1&#45;&gt;Node39</title>
<path fill="none" stroke="midnightblue" d="M1003.89,-568.155C925.348,-565.667 734.27,-556.369 680,-524 607.431,-480.717 606.723,-439.021 591,-356 584.01,-319.091 599.502,-276.379 610.113,-252.856"/>
<polygon fill="midnightblue" stroke="midnightblue" points="613.306,-254.291 614.415,-243.754 606.977,-251.3 613.306,-254.291"/>
</g>
<!-- Node40 -->
<g id="node40" class="node"><title>Node40</title>
<g id="a_node40"><a xlink:href="physicsdef_8h.html" target="_top" xlink:title="Orbit library support definitions. ">
<polygon fill="white" stroke="black" points="600.5,-336.5 600.5,-355.5 709.5,-355.5 709.5,-336.5 600.5,-336.5"/>
<text text-anchor="middle" x="655" y="-343.5" font-family="Helvetica,sans-Serif" font-size="10.00">physics/physicsdef.h</text>
</a>
</g>
</g>
<!-- Node1&#45;&gt;Node40 -->
<g id="edge67" class="edge"><title>Node1&#45;&gt;Node40</title>
<path fill="none" stroke="midnightblue" d="M1034.72,-560.279C1026.22,-538.715 1001.58,-482.162 965,-448 925.197,-410.825 907.21,-410.544 856,-392 811.675,-375.95 759.7,-364.497 719.708,-357.162"/>
<polygon fill="midnightblue" stroke="midnightblue" points="720.272,-353.708 709.811,-355.386 719.035,-360.598 720.272,-353.708"/>
</g>
<!-- Node41 -->
<g id="node41" class="node"><title>Node41</title>
<g id="a_node41"><a xlink:href="jsondef_8h.html" target="_top" xlink:title="support/jsondef.h">
<polygon fill="white" stroke="black" points="689,-504.5 689,-523.5 781,-523.5 781,-504.5 689,-504.5"/>
<text text-anchor="middle" x="735" y="-511.5" font-family="Helvetica,sans-Serif" font-size="10.00">support/jsondef.h</text>
</a>
</g>
</g>
<!-- Node1&#45;&gt;Node41 -->
<g id="edge70" class="edge"><title>Node1&#45;&gt;Node41</title>
<path fill="none" stroke="midnightblue" d="M1003.83,-562.91C952.152,-553.7 853.539,-536.126 791.191,-525.014"/>
<polygon fill="midnightblue" stroke="midnightblue" points="791.588,-521.53 781.129,-523.221 790.36,-528.421 791.588,-521.53"/>
</g>
<!-- Node47 -->
<g id="node47" class="node"><title>Node47</title>
<polygon fill="white" stroke="#bfbfbf" points="1363,-504.5 1363,-523.5 1407,-523.5 1407,-504.5 1363,-504.5"/>
<text text-anchor="middle" x="1385" y="-511.5" font-family="Helvetica,sans-Serif" font-size="10.00">time.h</text>
</g>
<!-- Node1&#45;&gt;Node47 -->
<g id="edge86" class="edge"><title>Node1&#45;&gt;Node47</title>
<path fill="none" stroke="midnightblue" d="M1072.42,-565.707C1129.01,-559.945 1245.37,-546.643 1352.72,-524.015"/>
<polygon fill="midnightblue" stroke="midnightblue" points="1353.7,-527.385 1362.74,-521.869 1352.23,-520.54 1353.7,-527.385"/>
</g>
<!-- Node3 -->
<g id="node3" class="node"><title>Node3</title>
<polygon fill="white" stroke="#bfbfbf" points="311.5,-56.5 311.5,-75.5 356.5,-75.5 356.5,-56.5 311.5,-56.5"/>
<text text-anchor="middle" x="334" y="-63.5" font-family="Helvetica,sans-Serif" font-size="10.00">climits</text>
</g>
<!-- Node2&#45;&gt;Node3 -->
<g id="edge2" class="edge"><title>Node2&#45;&gt;Node3</title>
<path fill="none" stroke="midnightblue" d="M670.353,-115.486C598.222,-108.534 475.367,-95.1331 371,-76 369.537,-75.7318 368.045,-75.4412 366.541,-75.1342"/>
<polygon fill="midnightblue" stroke="midnightblue" points="367.13,-71.68 356.61,-72.9345 365.617,-78.5143 367.13,-71.68"/>
</g>
<!-- Node4 -->
<g id="node4" class="node"><title>Node4</title>
<polygon fill="white" stroke="#bfbfbf" points="1128.5,-56.5 1128.5,-75.5 1175.5,-75.5 1175.5,-56.5 1128.5,-56.5"/>
<text text-anchor="middle" x="1152" y="-63.5" font-family="Helvetica,sans-Serif" font-size="10.00">csignal</text>
</g>
<!-- Node2&#45;&gt;Node4 -->
<g id="edge3" class="edge"><title>Node2&#45;&gt;Node4</title>
<path fill="none" stroke="midnightblue" d="M793.767,-116.7C868.424,-110.861 997.947,-98.6805 1118.19,-75.8692"/>
<polygon fill="midnightblue" stroke="midnightblue" points="1119.15,-79.2486 1128.31,-73.92 1117.83,-72.375 1119.15,-79.2486"/>
</g>
<!-- Node5 -->
<g id="node5" class="node"><title>Node5</title>
<polygon fill="white" stroke="#bfbfbf" points="209,-56.5 209,-75.5 255,-75.5 255,-56.5 209,-56.5"/>
<text text-anchor="middle" x="232" y="-63.5" font-family="Helvetica,sans-Serif" font-size="10.00">cstdint</text>
</g>
<!-- Node2&#45;&gt;Node5 -->
<g id="edge4" class="edge"><title>Node2&#45;&gt;Node5</title>
<path fill="none" stroke="midnightblue" d="M670.22,-117.786C581.106,-112.52 411.532,-100.136 269,-76 267.753,-75.7889 266.487,-75.5591 265.209,-75.3146"/>
<polygon fill="midnightblue" stroke="midnightblue" points="265.894,-71.882 255.384,-73.218 264.433,-78.7279 265.894,-71.882"/>
</g>
<!-- Node6 -->
<g id="node6" class="node"><title>Node6</title>
<polygon fill="white" stroke="#bfbfbf" points="413,-56.5 413,-75.5 469,-75.5 469,-56.5 413,-56.5"/>
<text text-anchor="middle" x="441" y="-63.5" font-family="Helvetica,sans-Serif" font-size="10.00">cinttypes</text>
</g>
<!-- Node2&#45;&gt;Node6 -->
<g id="edge5" class="edge"><title>Node2&#45;&gt;Node6</title>
<path fill="none" stroke="midnightblue" d="M678.294,-112.498C628.968,-104.461 553.628,-91.6125 479.25,-76.1608"/>
<polygon fill="midnightblue" stroke="midnightblue" points="479.745,-72.6886 469.24,-74.064 478.31,-79.5399 479.745,-72.6886"/>
</g>
<!-- Node7 -->
<g id="node7" class="node"><title>Node7</title>
<polygon fill="white" stroke="#bfbfbf" points="487.5,-56.5 487.5,-75.5 530.5,-75.5 530.5,-56.5 487.5,-56.5"/>
<text text-anchor="middle" x="509" y="-63.5" font-family="Helvetica,sans-Serif" font-size="10.00">cstdio</text>
</g>
<!-- Node2&#45;&gt;Node7 -->
<g id="edge6" class="edge"><title>Node2&#45;&gt;Node7</title>
<path fill="none" stroke="midnightblue" d="M692.27,-112.497C655.188,-104.391 598.113,-91.485 540.252,-76.2214"/>
<polygon fill="midnightblue" stroke="midnightblue" points="541.148,-72.8381 530.584,-73.6507 539.349,-79.603 541.148,-72.8381"/>
</g>
<!-- Node8 -->
<g id="node8" class="node"><title>Node8</title>
<polygon fill="white" stroke="#bfbfbf" points="548.5,-56.5 548.5,-75.5 597.5,-75.5 597.5,-56.5 548.5,-56.5"/>
<text text-anchor="middle" x="573" y="-63.5" font-family="Helvetica,sans-Serif" font-size="10.00">cstddef</text>
</g>
<!-- Node2&#45;&gt;Node8 -->
<g id="edge7" class="edge"><title>Node2&#45;&gt;Node8</title>
<path fill="none" stroke="midnightblue" d="M706.806,-112.444C679.9,-103.306 637.097,-88.7689 607.168,-78.6044"/>
<polygon fill="midnightblue" stroke="midnightblue" points="608.148,-75.2408 597.554,-75.339 605.897,-81.869 608.148,-75.2408"/>
</g>
<!-- Node9 -->
<g id="node9" class="node"><title>Node9</title>
<polygon fill="white" stroke="#bfbfbf" points="615.5,-56.5 615.5,-75.5 660.5,-75.5 660.5,-56.5 615.5,-56.5"/>
<text text-anchor="middle" x="638" y="-63.5" font-family="Helvetica,sans-Serif" font-size="10.00">cstdlib</text>
</g>
<!-- Node2&#45;&gt;Node9 -->
<g id="edge8" class="edge"><title>Node2&#45;&gt;Node9</title>
<path fill="none" stroke="midnightblue" d="M716.897,-112.324C702.097,-103.822 679.306,-90.7288 662.018,-80.7975"/>
<polygon fill="midnightblue" stroke="midnightblue" points="663.48,-77.6009 653.065,-75.6545 659.993,-83.6707 663.48,-77.6009"/>
</g>
<!-- Node10 -->
<g id="node10" class="node"><title>Node10</title>
<polygon fill="white" stroke="#bfbfbf" points="679,-56.5 679,-75.5 723,-75.5 723,-56.5 679,-56.5"/>
<text text-anchor="middle" x="701" y="-63.5" font-family="Helvetica,sans-Serif" font-size="10.00">cerrno</text>
</g>
<!-- Node2&#45;&gt;Node10 -->
<g id="edge9" class="edge"><title>Node2&#45;&gt;Node10</title>
<path fill="none" stroke="midnightblue" d="M726.881,-112.083C722.592,-104.613 716.342,-93.7244 711.058,-84.5199"/>
<polygon fill="midnightblue" stroke="midnightblue" points="714.038,-82.6811 706.024,-75.7511 707.967,-86.1662 714.038,-82.6811"/>
</g>
<!-- Node11 -->
<g id="node11" class="node"><title>Node11</title>
<polygon fill="white" stroke="#bfbfbf" points="741,-56.5 741,-75.5 787,-75.5 787,-56.5 741,-56.5"/>
<text text-anchor="middle" x="764" y="-63.5" font-family="Helvetica,sans-Serif" font-size="10.00">cstring</text>
</g>
<!-- Node2&#45;&gt;Node11 -->
<g id="edge10" class="edge"><title>Node2&#45;&gt;Node11</title>
<path fill="none" stroke="midnightblue" d="M737.284,-112.083C741.711,-104.613 748.163,-93.7244 753.618,-84.5199"/>
<polygon fill="midnightblue" stroke="midnightblue" points="756.727,-86.1383 758.814,-75.7511 750.705,-82.5697 756.727,-86.1383"/>
</g>
<!-- Node2&#45;&gt;Node12 -->
<g id="edge11" class="edge"><title>Node2&#45;&gt;Node12</title>
<path fill="none" stroke="midnightblue" d="M670.208,-119.286C555.44,-115.523 301.78,-104.482 90,-76 85.9409,-75.4541 81.6974,-74.7645 77.5074,-74.011"/>
<polygon fill="midnightblue" stroke="midnightblue" points="77.8187,-70.5067 67.3371,-72.0516 76.4944,-77.3803 77.8187,-70.5067"/>
</g>
<!-- Node13 -->
<g id="node13" class="node"><title>Node13</title>
<polygon fill="white" stroke="#bfbfbf" points="805.5,-56.5 805.5,-75.5 850.5,-75.5 850.5,-56.5 805.5,-56.5"/>
<text text-anchor="middle" x="828" y="-63.5" font-family="Helvetica,sans-Serif" font-size="10.00">iosfwd</text>
</g>
<!-- Node2&#45;&gt;Node13 -->
<g id="edge12" class="edge"><title>Node2&#45;&gt;Node13</title>
<path fill="none" stroke="midnightblue" d="M747.424,-112.324C762.54,-103.822 785.815,-90.7288 803.471,-80.7975"/>
<polygon fill="midnightblue" stroke="midnightblue" points="805.614,-83.6077 812.614,-75.6545 802.183,-77.5066 805.614,-83.6077"/>
</g>
<!-- Node14 -->
<g id="node14" class="node"><title>Node14</title>
<polygon fill="white" stroke="#bfbfbf" points="99,-56.5 99,-75.5 153,-75.5 153,-56.5 99,-56.5"/>
<text text-anchor="middle" x="126" y="-63.5" font-family="Helvetica,sans-Serif" font-size="10.00">iostream</text>
</g>
<!-- Node2&#45;&gt;Node14 -->
<g id="edge13" class="edge"><title>Node2&#45;&gt;Node14</title>
<path fill="none" stroke="midnightblue" d="M670.493,-116.533C571.352,-109.168 370.114,-93.5334 200,-76 187.952,-74.7582 174.823,-73.2216 163.014,-71.7716"/>
<polygon fill="midnightblue" stroke="midnightblue" points="163.392,-68.2918 153.037,-70.5293 162.527,-75.2381 163.392,-68.2918"/>
</g>
<!-- Node15 -->
<g id="node15" class="node"><title>Node15</title>
<polygon fill="white" stroke="#bfbfbf" points="868.5,-56.5 868.5,-75.5 919.5,-75.5 919.5,-56.5 868.5,-56.5"/>
<text text-anchor="middle" x="894" y="-63.5" font-family="Helvetica,sans-Serif" font-size="10.00">unistd.h</text>
</g>
<!-- Node2&#45;&gt;Node15 -->
<g id="edge14" class="edge"><title>Node2&#45;&gt;Node15</title>
<path fill="none" stroke="midnightblue" d="M757.669,-112.444C784.923,-103.359 828.184,-88.9388 858.651,-78.7831"/>
<polygon fill="midnightblue" stroke="midnightblue" points="860.071,-81.9992 868.451,-75.5164 857.857,-75.3584 860.071,-81.9992"/>
</g>
<!-- Node2&#45;&gt;Node16 -->
<g id="edge15" class="edge"><title>Node2&#45;&gt;Node16</title>
<path fill="none" stroke="midnightblue" d="M793.79,-121.029C920.58,-120.251 1219.01,-114.114 1466,-76 1467.25,-75.8066 1468.53,-75.5897 1469.81,-75.354"/>
<polygon fill="midnightblue" stroke="midnightblue" points="1470.61,-78.7629 1479.66,-73.2601 1469.15,-71.9158 1470.61,-78.7629"/>
</g>
<!-- Node17 -->
<g id="node17" class="node"><title>Node17</title>
<polygon fill="white" stroke="#bfbfbf" points="937.5,-56.5 937.5,-75.5 978.5,-75.5 978.5,-56.5 937.5,-56.5"/>
<text text-anchor="middle" x="958" y="-63.5" font-family="Helvetica,sans-Serif" font-size="10.00">string</text>
</g>
<!-- Node2&#45;&gt;Node17 -->
<g id="edge16" class="edge"><title>Node2&#45;&gt;Node17</title>
<path fill="none" stroke="midnightblue" d="M772.732,-112.466C810.412,-104.39 868.177,-91.5494 927.479,-75.9982"/>
<polygon fill="midnightblue" stroke="midnightblue" points="928.621,-79.3166 937.394,-73.3762 926.831,-72.5492 928.621,-79.3166"/>
</g>
<!-- Node18 -->
<g id="node18" class="node"><title>Node18</title>
<polygon fill="white" stroke="#bfbfbf" points="261,-0.5 261,-19.5 305,-19.5 305,-0.5 261,-0.5"/>
<text text-anchor="middle" x="283" y="-7.5" font-family="Helvetica,sans-Serif" font-size="10.00">vector</text>
</g>
<!-- Node2&#45;&gt;Node18 -->
<g id="edge17" class="edge"><title>Node2&#45;&gt;Node18</title>
<path fill="none" stroke="midnightblue" d="M670.438,-118.318C558.301,-112.889 329.7,-99.112 302,-76 288.62,-64.8361 284.364,-44.8104 283.153,-29.9268"/>
<polygon fill="midnightblue" stroke="midnightblue" points="286.643,-29.6209 282.719,-19.7796 279.649,-29.92 286.643,-29.6209"/>
</g>
<!-- Node19 -->
<g id="node19" class="node"><title>Node19</title>
<polygon fill="white" stroke="#bfbfbf" points="996.5,-56.5 996.5,-75.5 1039.5,-75.5 1039.5,-56.5 996.5,-56.5"/>
<text text-anchor="middle" x="1018" y="-63.5" font-family="Helvetica,sans-Serif" font-size="10.00">deque</text>
</g>
<!-- Node2&#45;&gt;Node19 -->
<g id="edge18" class="edge"><title>Node2&#45;&gt;Node19</title>
<path fill="none" stroke="midnightblue" d="M790.598,-112.5C840.287,-104.874 913.597,-92.6442 986.573,-75.8796"/>
<polygon fill="midnightblue" stroke="midnightblue" points="987.451,-79.2688 996.398,-73.5941 985.865,-72.4509 987.451,-79.2688"/>
</g>
<!-- Node20 -->
<g id="node20" class="node"><title>Node20</title>
<polygon fill="white" stroke="#bfbfbf" points="1240,-0.5 1240,-19.5 1284,-19.5 1284,-0.5 1240,-0.5"/>
<text text-anchor="middle" x="1262" y="-7.5" font-family="Helvetica,sans-Serif" font-size="10.00">mutex</text>
</g>
<!-- Node2&#45;&gt;Node20 -->
<g id="edge19" class="edge"><title>Node2&#45;&gt;Node20</title>
<path fill="none" stroke="midnightblue" d="M793.557,-120.72C904.889,-119.307 1134.68,-111.972 1205,-76 1225.8,-65.3576 1242.38,-43.6193 1252.19,-28.2172"/>
<polygon fill="midnightblue" stroke="midnightblue" points="1255.21,-29.9714 1257.39,-19.6019 1249.22,-26.3525 1255.21,-29.9714"/>
</g>
<!-- Node21 -->
<g id="node21" class="node"><title>Node21</title>
<polygon fill="white" stroke="#bfbfbf" points="1348,-0.5 1348,-19.5 1392,-19.5 1392,-0.5 1348,-0.5"/>
<text text-anchor="middle" x="1370" y="-7.5" font-family="Helvetica,sans-Serif" font-size="10.00">thread</text>
</g>
<!-- Node2&#45;&gt;Node21 -->
<g id="edge20" class="edge"><title>Node2&#45;&gt;Node21</title>
<path fill="none" stroke="midnightblue" d="M793.622,-119.073C954.221,-113.752 1374.63,-97.7982 1395,-76 1407.58,-62.5391 1396.33,-42.0742 1385.16,-27.712"/>
<polygon fill="midnightblue" stroke="midnightblue" points="1387.53,-25.0945 1378.42,-19.6753 1382.16,-29.589 1387.53,-25.0945"/>
</g>
<!-- Node22 -->
<g id="node22" class="node"><title>Node22</title>
<polygon fill="white" stroke="#bfbfbf" points="1410.5,-0.5 1410.5,-19.5 1505.5,-19.5 1505.5,-0.5 1410.5,-0.5"/>
<text text-anchor="middle" x="1458" y="-7.5" font-family="Helvetica,sans-Serif" font-size="10.00">condition_variable</text>
</g>
<!-- Node2&#45;&gt;Node22 -->
<g id="edge21" class="edge"><title>Node2&#45;&gt;Node22</title>
<path fill="none" stroke="midnightblue" d="M793.781,-119.886C951.032,-116.633 1357.8,-105.443 1411,-76 1429.61,-65.7 1442.75,-44.5499 1450.31,-29.1648"/>
<polygon fill="midnightblue" stroke="midnightblue" points="1453.69,-30.1893 1454.66,-19.6388 1447.33,-27.2824 1453.69,-30.1893"/>
</g>
<!-- Node23 -->
<g id="node23" class="node"><title>Node23</title>
<polygon fill="white" stroke="#bfbfbf" points="744.5,-0.5 744.5,-19.5 787.5,-19.5 787.5,-0.5 744.5,-0.5"/>
<text text-anchor="middle" x="766" y="-7.5" font-family="Helvetica,sans-Serif" font-size="10.00">queue</text>
</g>
<!-- Node2&#45;&gt;Node23 -->
<g id="edge22" class="edge"><title>Node2&#45;&gt;Node23</title>
<path fill="none" stroke="midnightblue" d="M670.363,-121.76C585.113,-121.341 437.86,-114.823 404,-76 398.157,-69.3011 398.115,-62.6618 404,-56 425.763,-31.364 650.33,-17.0898 734.432,-12.5744"/>
<polygon fill="midnightblue" stroke="midnightblue" points="734.623,-16.0693 744.425,-12.0486 734.255,-9.07899 734.623,-16.0693"/>
</g>
<!-- Node24 -->
<g id="node24" class="node"><title>Node24</title>
<polygon fill="white" stroke="#bfbfbf" points="1058,-56.5 1058,-75.5 1110,-75.5 1110,-56.5 1058,-56.5"/>
<text text-anchor="middle" x="1084" y="-63.5" font-family="Helvetica,sans-Serif" font-size="10.00">sstream</text>
</g>
<!-- Node2&#45;&gt;Node24 -->
<g id="edge23" class="edge"><title>Node2&#45;&gt;Node24</title>
<path fill="none" stroke="midnightblue" d="M793.782,-114.121C855.528,-106.813 953.339,-94.0668 1047.72,-75.8565"/>
<polygon fill="midnightblue" stroke="midnightblue" points="1048.58,-79.2544 1057.72,-73.9026 1047.24,-72.3842 1048.58,-79.2544"/>
</g>
<!-- Node25 -->
<g id="node25" class="node"><title>Node25</title>
<polygon fill="white" stroke="#bfbfbf" points="1186.5,-0.5 1186.5,-19.5 1221.5,-19.5 1221.5,-0.5 1186.5,-0.5"/>
<text text-anchor="middle" x="1204" y="-7.5" font-family="Helvetica,sans-Serif" font-size="10.00">map</text>
</g>
<!-- Node2&#45;&gt;Node25 -->
<g id="edge24" class="edge"><title>Node2&#45;&gt;Node25</title>
<path fill="none" stroke="midnightblue" d="M793.937,-118.602C910.717,-113.54 1154.44,-100.189 1184,-76 1197.54,-64.9179 1202.11,-44.8793 1203.55,-29.9704"/>
<polygon fill="midnightblue" stroke="midnightblue" points="1207.06,-29.9892 1204.14,-19.8026 1200.07,-29.5822 1207.06,-29.9892"/>
</g>
<!-- Node2&#45;&gt;Node26 -->
<g id="edge25" class="edge"><title>Node2&#45;&gt;Node26</title>
<path fill="none" stroke="midnightblue" d="M793.783,-116.472C891.855,-109.11 1089.15,-93.5861 1256,-76 1257.27,-75.8663 1258.55,-75.7291 1259.84,-75.5889"/>
<polygon fill="midnightblue" stroke="midnightblue" points="1260.32,-79.0574 1269.86,-74.4629 1259.54,-72.1011 1260.32,-79.0574"/>
</g>
<!-- Node26&#45;&gt;Node18 -->
<g id="edge27" class="edge"><title>Node26&#45;&gt;Node18</title>
<path fill="none" stroke="midnightblue" d="M1269.86,-61.1999C1243.63,-59.5285 1212.26,-57.5888 1184,-56 844.331,-36.9038 432.394,-17.8156 315.381,-12.4705"/>
<polygon fill="midnightblue" stroke="midnightblue" points="315.445,-8.96987 305.296,-12.0105 315.126,-15.9626 315.445,-8.96987"/>
</g>
<!-- Node26&#45;&gt;Node20 -->
<g id="edge31" class="edge"><title>Node26&#45;&gt;Node20</title>
<path fill="none" stroke="midnightblue" d="M1317.4,-56.324C1307.54,-48.2631 1292.65,-36.0765 1280.78,-26.3695"/>
<polygon fill="midnightblue" stroke="midnightblue" points="1282.75,-23.4575 1272.8,-19.8339 1278.32,-28.8752 1282.75,-23.4575"/>
</g>
<!-- Node26&#45;&gt;Node21 -->
<g id="edge30" class="edge"><title>Node26&#45;&gt;Node21</title>
<path fill="none" stroke="midnightblue" d="M1334.94,-56.083C1340.93,-48.3768 1349.75,-37.0333 1357.05,-27.6531"/>
<polygon fill="midnightblue" stroke="midnightblue" points="1359.82,-29.7934 1363.19,-19.7511 1354.29,-25.4958 1359.82,-29.7934"/>
</g>
<!-- Node26&#45;&gt;Node22 -->
<g id="edge32" class="edge"><title>Node26&#45;&gt;Node22</title>
<path fill="none" stroke="midnightblue" d="M1348.6,-56.4435C1369.99,-47.5566 1403.68,-33.5632 1428.02,-23.4514"/>
<polygon fill="midnightblue" stroke="midnightblue" points="1429.61,-26.5848 1437.5,-19.5164 1426.92,-20.1203 1429.61,-26.5848"/>
</g>
<!-- Node26&#45;&gt;Node23 -->
<g id="edge29" class="edge"><title>Node26&#45;&gt;Node23</title>
<path fill="none" stroke="midnightblue" d="M1269.97,-59.4244C1152.22,-48.11 888.669,-22.7867 797.64,-14.0401"/>
<polygon fill="midnightblue" stroke="midnightblue" points="797.948,-10.5537 787.659,-13.0811 797.278,-17.5216 797.948,-10.5537"/>
</g>
<!-- Node26&#45;&gt;Node25 -->
<g id="edge26" class="edge"><title>Node26&#45;&gt;Node25</title>
<path fill="none" stroke="midnightblue" d="M1308.35,-56.4435C1287.44,-47.3359 1254.21,-32.865 1230.88,-22.7053"/>
<polygon fill="midnightblue" stroke="midnightblue" points="1232.12,-19.4271 1221.55,-18.6433 1229.32,-25.845 1232.12,-19.4271"/>
</g>
<!-- Node27 -->
<g id="node27" class="node"><title>Node27</title>
<polygon fill="white" stroke="#bfbfbf" points="1301.5,-0.5 1301.5,-19.5 1330.5,-19.5 1330.5,-0.5 1301.5,-0.5"/>
<text text-anchor="middle" x="1316" y="-7.5" font-family="Helvetica,sans-Serif" font-size="10.00">list</text>
</g>
<!-- Node26&#45;&gt;Node27 -->
<g id="edge28" class="edge"><title>Node26&#45;&gt;Node27</title>
<path fill="none" stroke="midnightblue" d="M1326.02,-56.083C1324.43,-48.9272 1322.14,-38.6353 1320.15,-29.6911"/>
<polygon fill="midnightblue" stroke="midnightblue" points="1323.53,-28.7537 1317.94,-19.7511 1316.7,-30.2722 1323.53,-28.7537"/>
</g>
<!-- Node28&#45;&gt;Node2 -->
<g id="edge35" class="edge"><title>Node28&#45;&gt;Node2</title>
<path fill="none" stroke="midnightblue" d="M433.239,-392.364C453.94,-375.385 496,-335.422 496,-291 496,-291 496,-291 496,-233 496,-202.205 496.709,-188.146 520,-168 540.853,-149.963 607.309,-137.83 660.321,-130.752"/>
<polygon fill="midnightblue" stroke="midnightblue" points="660.921,-134.203 670.387,-129.446 660.02,-127.262 660.921,-134.203"/>
</g>
<!-- Node28&#45;&gt;Node12 -->
<g id="edge56" class="edge"><title>Node28&#45;&gt;Node12</title>
<path fill="none" stroke="midnightblue" d="M381.269,-398.014C282.442,-389.655 38,-361.822 38,-291 38,-291 38,-291 38,-177 38,-144.883 41.0088,-107.598 43.0811,-85.7258"/>
<polygon fill="midnightblue" stroke="midnightblue" points="46.5867,-85.8412 44.0849,-75.546 39.6204,-85.1543 46.5867,-85.8412"/>
</g>
<!-- Node28&#45;&gt;Node14 -->
<g id="edge57" class="edge"><title>Node28&#45;&gt;Node14</title>
<path fill="none" stroke="midnightblue" d="M399.743,-392.435C380.415,-384.469 352.131,-371.513 330,-356 241.976,-294.297 217.044,-276.483 156,-188 140.623,-165.711 138.659,-158.247 132,-132 128.12,-116.707 126.686,-98.8243 126.184,-85.6911"/>
<polygon fill="midnightblue" stroke="midnightblue" points="129.68,-85.4718 125.946,-75.5569 122.682,-85.6365 129.68,-85.4718"/>
</g>
<!-- Node29 -->
<g id="node29" class="node"><title>Node29</title>
<g id="a_node29"><a xlink:href="cosmos-errno_8h.html" target="_top" xlink:title="COSMOS Error Codes. ">
<polygon fill="white" stroke="black" points="727.5,-336.5 727.5,-355.5 846.5,-355.5 846.5,-336.5 727.5,-336.5"/>
<text text-anchor="middle" x="787" y="-343.5" font-family="Helvetica,sans-Serif" font-size="10.00">support/cosmos&#45;errno.h</text>
</a>
</g>
</g>
<!-- Node28&#45;&gt;Node29 -->
<g id="edge36" class="edge"><title>Node28&#45;&gt;Node29</title>
<path fill="none" stroke="midnightblue" d="M462.808,-394.963C524.903,-385.776 643.828,-368.182 719.088,-357.047"/>
<polygon fill="midnightblue" stroke="midnightblue" points="720.027,-360.446 729.407,-355.521 719.003,-353.522 720.027,-360.446"/>
</g>
<!-- Node31 -->
<g id="node31" class="node"><title>Node31</title>
<g id="a_node31"><a xlink:href="math_2constants_8h.html" target="_top" xlink:title="constants.h">
<polygon fill="white" stroke="black" points="218,-168.5 218,-187.5 286,-187.5 286,-168.5 218,-168.5"/>
<text text-anchor="middle" x="252" y="-175.5" font-family="Helvetica,sans-Serif" font-size="10.00">constants.h</text>
</a>
</g>
</g>
<!-- Node28&#45;&gt;Node31 -->
<g id="edge39" class="edge"><title>Node28&#45;&gt;Node31</title>
<path fill="none" stroke="midnightblue" d="M404.488,-392.37C389.412,-384.362 367.673,-371.382 352,-356 309.244,-314.037 304.591,-297.176 277,-244 269.169,-228.908 262.398,-210.783 257.885,-197.511"/>
<polygon fill="midnightblue" stroke="midnightblue" points="261.1,-196.084 254.652,-187.677 254.45,-198.27 261.1,-196.084"/>
</g>
<!-- Node32 -->
<g id="node32" class="node"><title>Node32</title>
<g id="a_node32"><a xlink:href="vector_8h.html" target="_top" xlink:title="vector.h">
<polygon fill="white" stroke="black" points="286,-224.5 286,-243.5 338,-243.5 338,-224.5 286,-224.5"/>
<text text-anchor="middle" x="312" y="-231.5" font-family="Helvetica,sans-Serif" font-size="10.00">vector.h</text>
</a>
</g>
</g>
<!-- Node28&#45;&gt;Node32 -->
<g id="edge42" class="edge"><title>Node28&#45;&gt;Node32</title>
<path fill="none" stroke="midnightblue" d="M410.975,-392.319C391.474,-376.314 351.067,-340.104 331,-300 323.602,-285.214 318.598,-267.059 315.591,-253.698"/>
<polygon fill="midnightblue" stroke="midnightblue" points="318.991,-252.857 313.526,-243.781 312.138,-254.284 318.991,-252.857"/>
</g>
<!-- Node34 -->
<g id="node34" class="node"><title>Node34</title>
<g id="a_node34"><a xlink:href="matrix_8h.html" target="_top" xlink:title="matrix.h">
<polygon fill="white" stroke="black" points="340,-280.5 340,-299.5 392,-299.5 392,-280.5 340,-280.5"/>
<text text-anchor="middle" x="366" y="-287.5" font-family="Helvetica,sans-Serif" font-size="10.00">matrix.h</text>
</a>
</g>
</g>
<!-- Node28&#45;&gt;Node34 -->
<g id="edge49" class="edge"><title>Node28&#45;&gt;Node34</title>
<path fill="none" stroke="midnightblue" d="M412.544,-392.223C403.929,-383.731 391.447,-370.107 384,-356 376.313,-341.438 371.64,-323.261 368.989,-309.834"/>
<polygon fill="midnightblue" stroke="midnightblue" points="372.411,-309.09 367.216,-299.857 365.519,-310.315 372.411,-309.09"/>
</g>
<!-- Node35 -->
<g id="node35" class="node"><title>Node35</title>
<g id="a_node35"><a xlink:href="rotation_8h.html" target="_top" xlink:title="rotation.h">
<polygon fill="white" stroke="black" points="393.5,-336.5 393.5,-355.5 450.5,-355.5 450.5,-336.5 393.5,-336.5"/>
<text text-anchor="middle" x="422" y="-343.5" font-family="Helvetica,sans-Serif" font-size="10.00">rotation.h</text>
</a>
</g>
</g>
<!-- Node28&#45;&gt;Node35 -->
<g id="edge52" class="edge"><title>Node28&#45;&gt;Node35</title>
<path fill="none" stroke="midnightblue" d="M422,-392.083C422,-385.006 422,-374.861 422,-365.986"/>
<polygon fill="midnightblue" stroke="midnightblue" points="425.5,-365.751 422,-355.751 418.5,-365.751 425.5,-365.751"/>
</g>
<!-- Node29&#45;&gt;Node2 -->
<g id="edge37" class="edge"><title>Node29&#45;&gt;Node2</title>
<path fill="none" stroke="midnightblue" d="M784.844,-336.297C776.734,-303.563 747.949,-187.375 736.625,-141.666"/>
<polygon fill="midnightblue" stroke="midnightblue" points="740.003,-140.749 734.201,-131.884 733.208,-142.432 740.003,-140.749"/>
</g>
<!-- Node29&#45;&gt;Node30 -->
<g id="edge38" class="edge"><title>Node29&#45;&gt;Node30</title>
<path fill="none" stroke="midnightblue" d="M833.268,-336.444C892.244,-325.537 992.807,-306.94 1045.12,-297.265"/>
<polygon fill="midnightblue" stroke="midnightblue" points="1046.02,-300.658 1055.22,-295.398 1044.75,-293.774 1046.02,-300.658"/>
</g>
<!-- Node31&#45;&gt;Node2 -->
<g id="edge40" class="edge"><title>Node31&#45;&gt;Node2</title>
<path fill="none" stroke="midnightblue" d="M286.209,-169.506C289.175,-168.958 292.136,-168.446 295,-168 422.947,-148.078 573.391,-134.788 660.217,-128.096"/>
<polygon fill="midnightblue" stroke="midnightblue" points="660.522,-131.583 670.226,-127.332 659.989,-124.603 660.522,-131.583"/>
</g>
<!-- Node31&#45;&gt;Node5 -->
<g id="edge41" class="edge"><title>Node31&#45;&gt;Node5</title>
<path fill="none" stroke="midnightblue" d="M250.431,-168.368C247.203,-150.617 239.758,-109.666 235.381,-85.5974"/>
<polygon fill="midnightblue" stroke="midnightblue" points="238.795,-84.804 233.562,-75.5914 231.907,-86.0562 238.795,-84.804"/>
</g>
<!-- Node32&#45;&gt;Node2 -->
<g id="edge43" class="edge"><title>Node32&#45;&gt;Node2</title>
<path fill="none" stroke="midnightblue" d="M321.269,-224.312C337.204,-209.936 371.423,-181.454 406,-168 489.311,-135.583 592.566,-125.982 660.262,-123.417"/>
<polygon fill="midnightblue" stroke="midnightblue" points="660.523,-126.91 670.399,-123.075 660.287,-119.914 660.523,-126.91"/>
</g>
<!-- Node32&#45;&gt;Node12 -->
<g id="edge47" class="edge"><title>Node32&#45;&gt;Node12</title>
<path fill="none" stroke="midnightblue" d="M285.947,-229.892C253.468,-225.07 197.214,-213.533 156,-188 111.539,-160.455 73.7942,-110.243 55.9749,-84.0019"/>
<polygon fill="midnightblue" stroke="midnightblue" points="58.7818,-81.9017 50.3359,-75.5049 52.9493,-85.7724 58.7818,-81.9017"/>
</g>
<!-- Node32&#45;&gt;Node14 -->
<g id="edge45" class="edge"><title>Node32&#45;&gt;Node14</title>
<path fill="none" stroke="midnightblue" d="M285.95,-230.825C255.895,-227.006 206.684,-216.542 176,-188 146.28,-160.355 133.694,-112.401 128.799,-85.9233"/>
<polygon fill="midnightblue" stroke="midnightblue" points="132.194,-85.0048 127.1,-75.7148 125.289,-86.1536 132.194,-85.0048"/>
</g>
<!-- Node32&#45;&gt;Node18 -->
<g id="edge48" class="edge"><title>Node32&#45;&gt;Node18</title>
<path fill="none" stroke="midnightblue" d="M285.684,-229.206C261.499,-224.217 226.79,-212.943 209,-188 174.855,-140.126 169.919,-106.526 200,-56 211.088,-37.3758 232.867,-25.9852 251.333,-19.3246"/>
<polygon fill="midnightblue" stroke="midnightblue" points="252.485,-22.6304 260.888,-16.1772 250.295,-15.9818 252.485,-22.6304"/>
</g>
<!-- Node32&#45;&gt;Node31 -->
<g id="edge44" class="edge"><title>Node32&#45;&gt;Node31</title>
<path fill="none" stroke="midnightblue" d="M302.36,-224.324C293.49,-216.341 280.125,-204.313 269.392,-194.653"/>
<polygon fill="midnightblue" stroke="midnightblue" points="271.59,-191.922 261.815,-187.834 266.907,-197.125 271.59,-191.922"/>
</g>
<!-- Node33 -->
<g id="node33" class="node"><title>Node33</title>
<polygon fill="white" stroke="#bfbfbf" points="304,-168.5 304,-187.5 354,-187.5 354,-168.5 304,-168.5"/>
<text text-anchor="middle" x="329" y="-175.5" font-family="Helvetica,sans-Serif" font-size="10.00">iomanip</text>
</g>
<!-- Node32&#45;&gt;Node33 -->
<g id="edge46" class="edge"><title>Node32&#45;&gt;Node33</title>
<path fill="none" stroke="midnightblue" d="M314.807,-224.083C317.085,-216.849 320.371,-206.409 323.208,-197.397"/>
<polygon fill="midnightblue" stroke="midnightblue" points="326.581,-198.341 326.245,-187.751 319.904,-196.239 326.581,-198.341"/>
</g>
<!-- Node34&#45;&gt;Node2 -->
<g id="edge50" class="edge"><title>Node34&#45;&gt;Node2</title>
<path fill="none" stroke="midnightblue" d="M368.712,-280.498C376.399,-257.91 400.628,-196.205 444,-168 478.745,-145.405 586.93,-133.301 660.353,-127.514"/>
<polygon fill="midnightblue" stroke="midnightblue" points="660.768,-130.993 670.471,-126.739 660.233,-124.013 660.768,-130.993"/>
</g>
<!-- Node34&#45;&gt;Node32 -->
<g id="edge51" class="edge"><title>Node34&#45;&gt;Node32</title>
<path fill="none" stroke="midnightblue" d="M357.083,-280.083C349.22,-272.22 337.569,-260.569 328.081,-251.081"/>
<polygon fill="midnightblue" stroke="midnightblue" points="330.297,-248.347 320.751,-243.751 325.347,-253.297 330.297,-248.347"/>
</g>
<!-- Node35&#45;&gt;Node2 -->
<g id="edge53" class="edge"><title>Node35&#45;&gt;Node2</title>
<path fill="none" stroke="midnightblue" d="M422.057,-336.337C422.749,-307.428 429.143,-213.527 482,-168 508.207,-145.428 596.157,-133.622 660.348,-127.864"/>
<polygon fill="midnightblue" stroke="midnightblue" points="660.772,-131.34 670.433,-126.991 660.169,-124.366 660.772,-131.34"/>
</g>
<!-- Node35&#45;&gt;Node32 -->
<g id="edge54" class="edge"><title>Node35&#45;&gt;Node32</title>
<path fill="none" stroke="midnightblue" d="M421.317,-336.402C419.827,-322.907 415.183,-296.582 401,-280 387.072,-263.716 365.811,-252.66 347.562,-245.582"/>
<polygon fill="midnightblue" stroke="midnightblue" points="348.668,-242.261 338.074,-242.145 346.284,-248.842 348.668,-242.261"/>
</g>
<!-- Node35&#45;&gt;Node34 -->
<g id="edge55" class="edge"><title>Node35&#45;&gt;Node34</title>
<path fill="none" stroke="midnightblue" d="M413.003,-336.324C404.806,-328.42 392.494,-316.548 382.528,-306.938"/>
<polygon fill="midnightblue" stroke="midnightblue" points="384.789,-304.256 375.161,-299.834 379.93,-309.295 384.789,-304.256"/>
</g>
<!-- Node37&#45;&gt;Node2 -->
<g id="edge60" class="edge"><title>Node37&#45;&gt;Node2</title>
<path fill="none" stroke="midnightblue" d="M927.425,-504.42C963.112,-489.66 1027,-455.855 1027,-403 1027,-403 1027,-403 1027,-233 1027,-199.31 1015.76,-187.084 988,-168 958.745,-147.892 868.755,-135.503 803.734,-128.94"/>
<polygon fill="midnightblue" stroke="midnightblue" points="803.82,-125.432 793.526,-127.936 803.135,-132.398 803.82,-125.432"/>
</g>
<!-- Node37&#45;&gt;Node28 -->
<g id="edge61" class="edge"><title>Node37&#45;&gt;Node28</title>
<path fill="none" stroke="midnightblue" d="M856.678,-504.455C810.452,-495.921 738.174,-482.079 676,-468 600.41,-450.883 513.008,-427.781 462.946,-414.227"/>
<polygon fill="midnightblue" stroke="midnightblue" points="463.715,-410.809 453.147,-411.567 461.881,-417.565 463.715,-410.809"/>
</g>
<!-- Node38 -->
<g id="node38" class="node"><title>Node38</title>
<g id="a_node38"><a xlink:href="convertdef_8h.html" target="_top" xlink:title="support/convertdef.h">
<polygon fill="white" stroke="black" points="850,-448.5 850,-467.5 956,-467.5 956,-448.5 850,-448.5"/>
<text text-anchor="middle" x="903" y="-455.5" font-family="Helvetica,sans-Serif" font-size="10.00">support/convertdef.h</text>
</a>
</g>
</g>
<!-- Node37&#45;&gt;Node38 -->
<g id="edge62" class="edge"><title>Node37&#45;&gt;Node38</title>
<path fill="none" stroke="midnightblue" d="M903.835,-504.083C903.704,-497.006 903.516,-486.861 903.352,-477.986"/>
<polygon fill="midnightblue" stroke="midnightblue" points="906.847,-477.685 903.162,-467.751 899.848,-477.814 906.847,-477.685"/>
</g>
<!-- Node38&#45;&gt;Node2 -->
<g id="edge63" class="edge"><title>Node38&#45;&gt;Node2</title>
<path fill="none" stroke="midnightblue" d="M919.89,-448.423C933.737,-440.619 952.953,-427.902 965,-412 983.596,-387.453 989,-377.795 989,-347 989,-347 989,-347 989,-233 989,-202.205 988.475,-187.931 965,-168 941.064,-147.677 863.024,-135.602 803.797,-129.157"/>
<polygon fill="midnightblue" stroke="midnightblue" points="804.033,-125.663 793.721,-128.095 803.299,-132.624 804.033,-125.663"/>
</g>
<!-- Node38&#45;&gt;Node28 -->
<g id="edge64" class="edge"><title>Node38&#45;&gt;Node28</title>
<path fill="none" stroke="midnightblue" d="M849.687,-451.015C756.303,-440.531 564.379,-418.984 472.798,-408.703"/>
<polygon fill="midnightblue" stroke="midnightblue" points="472.996,-405.203 462.668,-407.566 472.215,-412.16 472.996,-405.203"/>
</g>
<!-- Node39&#45;&gt;Node2 -->
<g id="edge66" class="edge"><title>Node39&#45;&gt;Node2</title>
<path fill="none" stroke="midnightblue" d="M627.867,-224.368C646.845,-205.894 691.636,-162.293 715.827,-138.744"/>
<polygon fill="midnightblue" stroke="midnightblue" points="718.45,-141.075 723.174,-131.591 713.567,-136.059 718.45,-141.075"/>
</g>
<!-- Node40&#45;&gt;Node2 -->
<g id="edge68" class="edge"><title>Node40&#45;&gt;Node2</title>
<path fill="none" stroke="midnightblue" d="M658.018,-336.297C669.396,-303.494 709.842,-186.884 725.626,-141.377"/>
<polygon fill="midnightblue" stroke="midnightblue" points="728.948,-142.479 728.919,-131.884 722.335,-140.185 728.948,-142.479"/>
</g>
<!-- Node40&#45;&gt;Node32 -->
<g id="edge69" class="edge"><title>Node40&#45;&gt;Node32</title>
<path fill="none" stroke="midnightblue" d="M628.371,-336.46C567.311,-316.878 417.164,-268.726 347.977,-246.538"/>
<polygon fill="midnightblue" stroke="midnightblue" points="348.968,-243.18 338.377,-243.459 346.83,-249.846 348.968,-243.18"/>
</g>
<!-- Node41&#45;&gt;Node2 -->
<g id="edge71" class="edge"><title>Node41&#45;&gt;Node2</title>
<path fill="none" stroke="midnightblue" d="M748.512,-504.402C795.799,-474.092 951,-372.657 951,-347 951,-347 951,-347 951,-233 951,-165.756 867.531,-139.615 803.654,-129.455"/>
<polygon fill="midnightblue" stroke="midnightblue" points="803.993,-125.967 793.587,-127.958 802.963,-132.891 803.993,-125.967"/>
</g>
<!-- Node41&#45;&gt;Node28 -->
<g id="edge72" class="edge"><title>Node41&#45;&gt;Node28</title>
<path fill="none" stroke="midnightblue" d="M688.884,-511.831C615.586,-509.03 477.081,-499.591 441,-468 427.889,-456.521 423.591,-436.545 422.296,-421.759"/>
<polygon fill="midnightblue" stroke="midnightblue" points="425.788,-421.504 421.794,-411.691 418.796,-421.853 425.788,-421.504"/>
</g>
<!-- Node41&#45;&gt;Node38 -->
<g id="edge73" class="edge"><title>Node41&#45;&gt;Node38</title>
<path fill="none" stroke="midnightblue" d="M761.62,-504.444C790.006,-495.32 835.137,-480.813 866.753,-470.651"/>
<polygon fill="midnightblue" stroke="midnightblue" points="868.055,-473.909 876.504,-467.516 865.913,-467.244 868.055,-473.909"/>
</g>
<!-- Node41&#45;&gt;Node40 -->
<g id="edge74" class="edge"><title>Node41&#45;&gt;Node40</title>
<path fill="none" stroke="midnightblue" d="M717.144,-504.278C689.615,-489.663 638.003,-457.31 619,-412 611.646,-394.465 624.696,-375.572 637.092,-362.7"/>
<polygon fill="midnightblue" stroke="midnightblue" points="639.763,-364.987 644.537,-355.528 634.907,-359.945 639.763,-364.987"/>
</g>
<!-- Node42 -->
<g id="node42" class="node"><title>Node42</title>
<g id="a_node42"><a xlink:href="socketlib_8h.html" target="_top" xlink:title="Socket Support header file. ">
<polygon fill="white" stroke="black" points="685.5,-448.5 685.5,-467.5 784.5,-467.5 784.5,-448.5 685.5,-448.5"/>
<text text-anchor="middle" x="735" y="-455.5" font-family="Helvetica,sans-Serif" font-size="10.00">support/socketlib.h</text>
</a>
</g>
</g>
<!-- Node41&#45;&gt;Node42 -->
<g id="edge75" class="edge"><title>Node41&#45;&gt;Node42</title>
<path fill="none" stroke="midnightblue" d="M735,-504.083C735,-497.006 735,-486.861 735,-477.986"/>
<polygon fill="midnightblue" stroke="midnightblue" points="738.5,-477.751 735,-467.751 731.5,-477.751 738.5,-477.751"/>
</g>
<!-- Node46 -->
<g id="node46" class="node"><title>Node46</title>
<g id="a_node46"><a xlink:href="objlib_8h.html" target="_top" xlink:title="support/objlib.h">
<polygon fill="white" stroke="black" points="450.5,-448.5 450.5,-467.5 533.5,-467.5 533.5,-448.5 450.5,-448.5"/>
<text text-anchor="middle" x="492" y="-455.5" font-family="Helvetica,sans-Serif" font-size="10.00">support/objlib.h</text>
</a>
</g>
</g>
<!-- Node41&#45;&gt;Node46 -->
<g id="edge80" class="edge"><title>Node41&#45;&gt;Node46</title>
<path fill="none" stroke="midnightblue" d="M696.496,-504.444C654.194,-495.043 586.181,-479.929 540.327,-469.739"/>
<polygon fill="midnightblue" stroke="midnightblue" points="540.845,-466.269 530.324,-467.516 539.327,-473.102 540.845,-466.269"/>
</g>
<!-- Node42&#45;&gt;Node2 -->
<g id="edge76" class="edge"><title>Node42&#45;&gt;Node2</title>
<path fill="none" stroke="midnightblue" d="M784.74,-449.294C809.249,-443.082 837.447,-431.933 856,-412 876.506,-389.969 875,-377.098 875,-347 875,-347 875,-347 875,-233 875,-180.84 814.489,-149.994 772.192,-134.803"/>
<polygon fill="midnightblue" stroke="midnightblue" points="773.272,-131.474 762.677,-131.536 770.998,-138.094 773.272,-131.474"/>
</g>
<!-- Node43 -->
<g id="node43" class="node"><title>Node43</title>
<polygon fill="white" stroke="#bfbfbf" points="693.5,-392.5 693.5,-411.5 766.5,-411.5 766.5,-392.5 693.5,-392.5"/>
<text text-anchor="middle" x="730" y="-399.5" font-family="Helvetica,sans-Serif" font-size="10.00">sys/socket.h</text>
</g>
<!-- Node42&#45;&gt;Node43 -->
<g id="edge77" class="edge"><title>Node42&#45;&gt;Node43</title>
<path fill="none" stroke="midnightblue" d="M734.174,-448.083C733.519,-441.006 732.58,-430.861 731.758,-421.986"/>
<polygon fill="midnightblue" stroke="midnightblue" points="735.217,-421.386 730.81,-411.751 728.247,-422.031 735.217,-421.386"/>
</g>
<!-- Node44 -->
<g id="node44" class="node"><title>Node44</title>
<polygon fill="white" stroke="#bfbfbf" points="785,-392.5 785,-411.5 847,-411.5 847,-392.5 785,-392.5"/>
<text text-anchor="middle" x="816" y="-399.5" font-family="Helvetica,sans-Serif" font-size="10.00">sys/ioctl.h</text>
</g>
<!-- Node42&#45;&gt;Node44 -->
<g id="edge78" class="edge"><title>Node42&#45;&gt;Node44</title>
<path fill="none" stroke="midnightblue" d="M748.014,-448.324C760.532,-439.979 779.682,-427.212 794.471,-417.352"/>
<polygon fill="midnightblue" stroke="midnightblue" points="796.639,-420.114 803.018,-411.655 792.756,-414.289 796.639,-420.114"/>
</g>
<!-- Node45 -->
<g id="node45" class="node"><title>Node45</title>
<polygon fill="white" stroke="#bfbfbf" points="628.5,-392.5 628.5,-411.5 675.5,-411.5 675.5,-392.5 628.5,-392.5"/>
<text text-anchor="middle" x="652" y="-399.5" font-family="Helvetica,sans-Serif" font-size="10.00">net/if.h</text>
</g>
<!-- Node42&#45;&gt;Node45 -->
<g id="edge79" class="edge"><title>Node42&#45;&gt;Node45</title>
<path fill="none" stroke="midnightblue" d="M721.665,-448.324C708.838,-439.979 689.215,-427.212 674.06,-417.352"/>
<polygon fill="midnightblue" stroke="midnightblue" points="675.593,-414.174 665.302,-411.655 671.776,-420.042 675.593,-414.174"/>
</g>
<!-- Node46&#45;&gt;Node2 -->
<g id="edge81" class="edge"><title>Node46&#45;&gt;Node2</title>
<path fill="none" stroke="midnightblue" d="M495.876,-448.202C506.273,-423.773 534,-352.833 534,-291 534,-291 534,-291 534,-233 534,-173.275 603.693,-145.699 660.384,-133.148"/>
<polygon fill="midnightblue" stroke="midnightblue" points="661.365,-136.519 670.437,-131.046 659.932,-129.667 661.365,-136.519"/>
</g>
<!-- Node46&#45;&gt;Node28 -->
<g id="edge82" class="edge"><title>Node46&#45;&gt;Node28</title>
<path fill="none" stroke="midnightblue" d="M480.753,-448.324C470.203,-440.185 454.199,-427.839 441.558,-418.087"/>
<polygon fill="midnightblue" stroke="midnightblue" points="443.507,-415.171 433.451,-411.834 439.231,-420.713 443.507,-415.171"/>
</g>
<!-- Node46&#45;&gt;Node32 -->
<g id="edge83" class="edge"><title>Node46&#45;&gt;Node32</title>
<path fill="none" stroke="midnightblue" d="M450.31,-449.623C425.079,-443.314 393.696,-431.961 372,-412 325.676,-369.379 315.105,-289.705 312.702,-253.615"/>
<polygon fill="midnightblue" stroke="midnightblue" points="316.192,-253.334 312.174,-243.531 309.202,-253.701 316.192,-253.334"/>
</g>
</g>
</svg>
