<?xml version="1.0" encoding="UTF-8" standalone="no"?>
<!DOCTYPE svg PUBLIC "-//W3C//DTD SVG 1.1//EN"
 "http://www.w3.org/Graphics/SVG/1.1/DTD/svg11.dtd">
<!-- Generated by graphviz version 2.38.0 (20140413.2041)
 -->
<!-- Title: pic_lib.cpp Pages: 1 -->
<svg width="1459pt" height="610pt"
 viewBox="0.00 0.00 1459.00 610.00" xmlns="http://www.w3.org/2000/svg" xmlns:xlink="http://www.w3.org/1999/xlink">
<g id="graph0" class="graph" transform="scale(1 1) rotate(0) translate(4 606)">
<title>pic_lib.cpp</title>
<polygon fill="white" stroke="none" points="-4,4 -4,-606 1455,-606 1455,4 -4,4"/>
<!-- Node1 -->
<g id="node1" class="node"><title>Node1</title>
<polygon fill="#bfbfbf" stroke="black" points="372.5,-582.5 372.5,-601.5 435.5,-601.5 435.5,-582.5 372.5,-582.5"/>
<text text-anchor="middle" x="404" y="-589.5" font-family="Helvetica,sans-Serif" font-size="10.00">pic_lib.cpp</text>
</g>
<!-- Node2 -->
<g id="node2" class="node"><title>Node2</title>
<g id="a_node2"><a xlink:href="pic__lib_8h.html" target="_top" xlink:title="pic include file. ">
<polygon fill="white" stroke="black" points="356.5,-515.5 356.5,-545.5 451.5,-545.5 451.5,-515.5 356.5,-515.5"/>
<text text-anchor="start" x="364.5" y="-533.5" font-family="Helvetica,sans-Serif" font-size="10.00">device/general/pic</text>
<text text-anchor="middle" x="404" y="-522.5" font-family="Helvetica,sans-Serif" font-size="10.00">_lib.h</text>
</a>
</g>
</g>
<!-- Node1&#45;&gt;Node2 -->
<g id="edge1" class="edge"><title>Node1&#45;&gt;Node2</title>
<path fill="none" stroke="midnightblue" d="M404,-582.475C404,-575.471 404,-565.192 404,-555.696"/>
<polygon fill="midnightblue" stroke="midnightblue" points="407.5,-555.523 404,-545.523 400.5,-555.523 407.5,-555.523"/>
</g>
<!-- Node3 -->
<g id="node3" class="node"><title>Node3</title>
<g id="a_node3"><a xlink:href="config_cosmos_8h.html" target="_top" xlink:title="Headers and definitions common to all COSMOS. ">
<polygon fill="white" stroke="black" points="690.5,-112.5 690.5,-131.5 813.5,-131.5 813.5,-112.5 690.5,-112.5"/>
<text text-anchor="middle" x="752" y="-119.5" font-family="Helvetica,sans-Serif" font-size="10.00">support/configCosmos.h</text>
</a>
</g>
</g>
<!-- Node2&#45;&gt;Node3 -->
<g id="edge2" class="edge"><title>Node2&#45;&gt;Node3</title>
<path fill="none" stroke="midnightblue" d="M402.252,-515.309C398.977,-483.339 394.597,-404.029 423,-347 475.011,-242.569 514.569,-227.367 615,-168 641.563,-152.298 674.305,-141.285 701.119,-134.085"/>
<polygon fill="midnightblue" stroke="midnightblue" points="702.274,-137.401 711.08,-131.51 700.522,-130.624 702.274,-137.401"/>
</g>
<!-- Node29 -->
<g id="node29" class="node"><title>Node29</title>
<g id="a_node29"><a xlink:href="cssl__lib_8h.html" target="_top" xlink:title="Simple Serial library header file. ">
<polygon fill="white" stroke="black" points="236.5,-280.5 236.5,-310.5 337.5,-310.5 337.5,-280.5 236.5,-280.5"/>
<text text-anchor="start" x="244.5" y="-298.5" font-family="Helvetica,sans-Serif" font-size="10.00">device/general/cssl</text>
<text text-anchor="middle" x="287" y="-287.5" font-family="Helvetica,sans-Serif" font-size="10.00">_lib.h</text>
</a>
</g>
</g>
<!-- Node2&#45;&gt;Node29 -->
<g id="edge34" class="edge"><title>Node2&#45;&gt;Node29</title>
<path fill="none" stroke="midnightblue" d="M396.857,-515.276C377.27,-476.268 322.57,-367.336 298.554,-319.51"/>
<polygon fill="midnightblue" stroke="midnightblue" points="301.665,-317.904 294.049,-310.538 295.409,-321.046 301.665,-317.904"/>
</g>
<!-- Node33 -->
<g id="node33" class="node"><title>Node33</title>
<g id="a_node33"><a xlink:href="jsonlib_8h.html" target="_top" xlink:title="JSON Support definitions. ">
<polygon fill="white" stroke="black" points="679,-459.5 679,-478.5 767,-478.5 767,-459.5 679,-459.5"/>
<text text-anchor="middle" x="723" y="-466.5" font-family="Helvetica,sans-Serif" font-size="10.00">support/jsonlib.h</text>
</a>
</g>
</g>
<!-- Node2&#45;&gt;Node33 -->
<g id="edge42" class="edge"><title>Node2&#45;&gt;Node33</title>
<path fill="none" stroke="midnightblue" d="M451.758,-520.592C509.839,-509.759 607.648,-491.515 668.585,-480.149"/>
<polygon fill="midnightblue" stroke="midnightblue" points="669.587,-483.523 678.776,-478.249 668.304,-476.642 669.587,-483.523"/>
</g>
<!-- Node4 -->
<g id="node4" class="node"><title>Node4</title>
<polygon fill="white" stroke="#bfbfbf" points="939.5,-56.5 939.5,-75.5 984.5,-75.5 984.5,-56.5 939.5,-56.5"/>
<text text-anchor="middle" x="962" y="-63.5" font-family="Helvetica,sans-Serif" font-size="10.00">climits</text>
</g>
<!-- Node3&#45;&gt;Node4 -->
<g id="edge3" class="edge"><title>Node3&#45;&gt;Node4</title>
<path fill="none" stroke="midnightblue" d="M785.275,-112.444C824.769,-102.288 890.195,-85.4642 929.393,-75.3846"/>
<polygon fill="midnightblue" stroke="midnightblue" points="930.423,-78.7338 939.236,-72.8536 928.68,-71.9543 930.423,-78.7338"/>
</g>
<!-- Node5 -->
<g id="node5" class="node"><title>Node5</title>
<polygon fill="white" stroke="#bfbfbf" points="1002.5,-56.5 1002.5,-75.5 1049.5,-75.5 1049.5,-56.5 1002.5,-56.5"/>
<text text-anchor="middle" x="1026" y="-63.5" font-family="Helvetica,sans-Serif" font-size="10.00">csignal</text>
</g>
<!-- Node3&#45;&gt;Node5 -->
<g id="edge4" class="edge"><title>Node3&#45;&gt;Node5</title>
<path fill="none" stroke="midnightblue" d="M804.437,-112.479C851.228,-104.59 921.797,-91.9896 992.318,-76.0004"/>
<polygon fill="midnightblue" stroke="midnightblue" points="993.299,-79.3663 1002.27,-73.7219 991.736,-72.543 993.299,-79.3663"/>
</g>
<!-- Node6 -->
<g id="node6" class="node"><title>Node6</title>
<polygon fill="white" stroke="#bfbfbf" points="1271,-56.5 1271,-75.5 1317,-75.5 1317,-56.5 1271,-56.5"/>
<text text-anchor="middle" x="1294" y="-63.5" font-family="Helvetica,sans-Serif" font-size="10.00">cstdint</text>
</g>
<!-- Node3&#45;&gt;Node6 -->
<g id="edge5" class="edge"><title>Node3&#45;&gt;Node6</title>
<path fill="none" stroke="midnightblue" d="M813.729,-119.256C908.256,-115.772 1094.54,-105.699 1260.79,-75.8991"/>
<polygon fill="midnightblue" stroke="midnightblue" points="1261.49,-79.3294 1270.7,-74.0946 1260.23,-72.4426 1261.49,-79.3294"/>
</g>
<!-- Node7 -->
<g id="node7" class="node"><title>Node7</title>
<polygon fill="white" stroke="#bfbfbf" points="1068,-56.5 1068,-75.5 1124,-75.5 1124,-56.5 1068,-56.5"/>
<text text-anchor="middle" x="1096" y="-63.5" font-family="Helvetica,sans-Serif" font-size="10.00">cinttypes</text>
</g>
<!-- Node3&#45;&gt;Node7 -->
<g id="edge6" class="edge"><title>Node3&#45;&gt;Node7</title>
<path fill="none" stroke="midnightblue" d="M813.513,-113.544C875.492,-105.66 973.752,-92.14 1058,-76 1058.1,-75.9809 1058.2,-75.9616 1058.3,-75.9423"/>
<polygon fill="midnightblue" stroke="midnightblue" points="1058.76,-79.4217 1067.84,-73.9568 1057.33,-72.5687 1058.76,-79.4217"/>
</g>
<!-- Node8 -->
<g id="node8" class="node"><title>Node8</title>
<polygon fill="white" stroke="#bfbfbf" points="1142.5,-56.5 1142.5,-75.5 1185.5,-75.5 1185.5,-56.5 1142.5,-56.5"/>
<text text-anchor="middle" x="1164" y="-63.5" font-family="Helvetica,sans-Serif" font-size="10.00">cstdio</text>
</g>
<!-- Node3&#45;&gt;Node8 -->
<g id="edge7" class="edge"><title>Node3&#45;&gt;Node8</title>
<path fill="none" stroke="midnightblue" d="M813.531,-116.872C887.196,-111.231 1014.35,-99.2782 1132.49,-75.765"/>
<polygon fill="midnightblue" stroke="midnightblue" points="1133.33,-79.1674 1142.43,-73.7544 1131.94,-72.3063 1133.33,-79.1674"/>
</g>
<!-- Node9 -->
<g id="node9" class="node"><title>Node9</title>
<polygon fill="white" stroke="#bfbfbf" points="1203.5,-56.5 1203.5,-75.5 1252.5,-75.5 1252.5,-56.5 1203.5,-56.5"/>
<text text-anchor="middle" x="1228" y="-63.5" font-family="Helvetica,sans-Serif" font-size="10.00">cstddef</text>
</g>
<!-- Node3&#45;&gt;Node9 -->
<g id="edge8" class="edge"><title>Node3&#45;&gt;Node9</title>
<path fill="none" stroke="midnightblue" d="M813.726,-117.952C897.73,-113.092 1052.8,-101.592 1193.16,-76.0858"/>
<polygon fill="midnightblue" stroke="midnightblue" points="1194.04,-79.4825 1203.24,-74.2251 1192.77,-72.5988 1194.04,-79.4825"/>
</g>
<!-- Node10 -->
<g id="node10" class="node"><title>Node10</title>
<polygon fill="white" stroke="#bfbfbf" points="194.5,-56.5 194.5,-75.5 239.5,-75.5 239.5,-56.5 194.5,-56.5"/>
<text text-anchor="middle" x="217" y="-63.5" font-family="Helvetica,sans-Serif" font-size="10.00">cstdlib</text>
</g>
<!-- Node3&#45;&gt;Node10 -->
<g id="edge9" class="edge"><title>Node3&#45;&gt;Node10</title>
<path fill="none" stroke="midnightblue" d="M690.337,-119.152C596.953,-115.547 414.071,-105.343 249.891,-75.7971"/>
<polygon fill="midnightblue" stroke="midnightblue" points="250.071,-72.272 239.604,-73.9157 248.811,-79.1578 250.071,-72.272"/>
</g>
<!-- Node11 -->
<g id="node11" class="node"><title>Node11</title>
<polygon fill="white" stroke="#bfbfbf" points="258,-56.5 258,-75.5 302,-75.5 302,-56.5 258,-56.5"/>
<text text-anchor="middle" x="280" y="-63.5" font-family="Helvetica,sans-Serif" font-size="10.00">cerrno</text>
</g>
<!-- Node3&#45;&gt;Node11 -->
<g id="edge10" class="edge"><title>Node3&#45;&gt;Node11</title>
<path fill="none" stroke="midnightblue" d="M690.494,-118.239C606.802,-113.706 452.356,-102.584 312.292,-75.9234"/>
<polygon fill="midnightblue" stroke="midnightblue" points="312.716,-72.4406 302.233,-73.9768 311.386,-79.3131 312.716,-72.4406"/>
</g>
<!-- Node12 -->
<g id="node12" class="node"><title>Node12</title>
<polygon fill="white" stroke="#bfbfbf" points="0,-56.5 0,-75.5 46,-75.5 46,-56.5 0,-56.5"/>
<text text-anchor="middle" x="23" y="-63.5" font-family="Helvetica,sans-Serif" font-size="10.00">cstring</text>
</g>
<!-- Node3&#45;&gt;Node12 -->
<g id="edge11" class="edge"><title>Node3&#45;&gt;Node12</title>
<path fill="none" stroke="midnightblue" d="M690.43,-121.337C569.982,-121.061 294.835,-115.838 56.1917,-75.8429"/>
<polygon fill="midnightblue" stroke="midnightblue" points="56.7347,-72.385 46.2895,-74.1596 55.5615,-79.286 56.7347,-72.385"/>
</g>
<!-- Node13 -->
<g id="node13" class="node"><title>Node13</title>
<polygon fill="white" stroke="#bfbfbf" points="1407,-56.5 1407,-75.5 1451,-75.5 1451,-56.5 1407,-56.5"/>
<text text-anchor="middle" x="1429" y="-63.5" font-family="Helvetica,sans-Serif" font-size="10.00">cmath</text>
</g>
<!-- Node3&#45;&gt;Node13 -->
<g id="edge12" class="edge"><title>Node3&#45;&gt;Node13</title>
<path fill="none" stroke="midnightblue" d="M813.541,-121.054C927.287,-120.211 1178.02,-113.95 1396.72,-75.8442"/>
<polygon fill="midnightblue" stroke="midnightblue" points="1397.55,-79.253 1406.78,-74.0645 1396.33,-72.36 1397.55,-79.253"/>
</g>
<!-- Node14 -->
<g id="node14" class="node"><title>Node14</title>
<polygon fill="white" stroke="#bfbfbf" points="320.5,-56.5 320.5,-75.5 365.5,-75.5 365.5,-56.5 320.5,-56.5"/>
<text text-anchor="middle" x="343" y="-63.5" font-family="Helvetica,sans-Serif" font-size="10.00">iosfwd</text>
</g>
<!-- Node3&#45;&gt;Node14 -->
<g id="edge13" class="edge"><title>Node3&#45;&gt;Node14</title>
<path fill="none" stroke="midnightblue" d="M690.292,-116.779C617.178,-111.082 491.624,-99.114 375.691,-76.0638"/>
<polygon fill="midnightblue" stroke="midnightblue" points="376.075,-72.5707 365.58,-74.02 374.688,-79.432 376.075,-72.5707"/>
</g>
<!-- Node15 -->
<g id="node15" class="node"><title>Node15</title>
<polygon fill="white" stroke="#bfbfbf" points="1335,-56.5 1335,-75.5 1389,-75.5 1389,-56.5 1335,-56.5"/>
<text text-anchor="middle" x="1362" y="-63.5" font-family="Helvetica,sans-Serif" font-size="10.00">iostream</text>
</g>
<!-- Node3&#45;&gt;Node15 -->
<g id="edge14" class="edge"><title>Node3&#45;&gt;Node15</title>
<path fill="none" stroke="midnightblue" d="M813.566,-119.536C917.286,-116.334 1133.47,-106.501 1325.01,-75.8859"/>
<polygon fill="midnightblue" stroke="midnightblue" points="1325.66,-79.3252 1334.97,-74.27 1324.54,-72.4154 1325.66,-79.3252"/>
</g>
<!-- Node16 -->
<g id="node16" class="node"><title>Node16</title>
<polygon fill="white" stroke="#bfbfbf" points="383.5,-56.5 383.5,-75.5 434.5,-75.5 434.5,-56.5 383.5,-56.5"/>
<text text-anchor="middle" x="409" y="-63.5" font-family="Helvetica,sans-Serif" font-size="10.00">unistd.h</text>
</g>
<!-- Node3&#45;&gt;Node16 -->
<g id="edge15" class="edge"><title>Node3&#45;&gt;Node16</title>
<path fill="none" stroke="midnightblue" d="M690.308,-113.951C630.083,-106.626 535.692,-93.9701 444.496,-75.9"/>
<polygon fill="midnightblue" stroke="midnightblue" points="445.035,-72.4384 434.542,-73.9031 443.658,-79.3017 445.035,-72.4384"/>
</g>
<!-- Node17 -->
<g id="node17" class="node"><title>Node17</title>
<polygon fill="white" stroke="#bfbfbf" points="453,-56.5 453,-75.5 497,-75.5 497,-56.5 453,-56.5"/>
<text text-anchor="middle" x="475" y="-63.5" font-family="Helvetica,sans-Serif" font-size="10.00">fcntl.h</text>
</g>
<!-- Node3&#45;&gt;Node17 -->
<g id="edge16" class="edge"><title>Node3&#45;&gt;Node17</title>
<path fill="none" stroke="midnightblue" d="M701.509,-112.487C652.624,-104.028 576.497,-90.2883 511,-76 509.725,-75.7219 508.427,-75.4316 507.117,-75.1325"/>
<polygon fill="midnightblue" stroke="midnightblue" points="507.574,-71.6436 497.035,-72.7325 505.953,-78.4533 507.574,-71.6436"/>
</g>
<!-- Node18 -->
<g id="node18" class="node"><title>Node18</title>
<polygon fill="white" stroke="#bfbfbf" points="64.5,-56.5 64.5,-75.5 105.5,-75.5 105.5,-56.5 64.5,-56.5"/>
<text text-anchor="middle" x="85" y="-63.5" font-family="Helvetica,sans-Serif" font-size="10.00">string</text>
</g>
<!-- Node3&#45;&gt;Node18 -->
<g id="edge17" class="edge"><title>Node3&#45;&gt;Node18</title>
<path fill="none" stroke="midnightblue" d="M690.389,-121.145C577.756,-120.433 331.179,-114.355 115.436,-75.6141"/>
<polygon fill="midnightblue" stroke="midnightblue" points="115.976,-72.155 105.511,-73.8046 114.721,-79.0415 115.976,-72.155"/>
</g>
<!-- Node19 -->
<g id="node19" class="node"><title>Node19</title>
<polygon fill="white" stroke="#bfbfbf" points="510,-0.5 510,-19.5 554,-19.5 554,-0.5 510,-0.5"/>
<text text-anchor="middle" x="532" y="-7.5" font-family="Helvetica,sans-Serif" font-size="10.00">vector</text>
</g>
<!-- Node3&#45;&gt;Node19 -->
<g id="edge18" class="edge"><title>Node3&#45;&gt;Node19</title>
<path fill="none" stroke="midnightblue" d="M690.247,-115.173C636.447,-108.793 564,-96.6197 544,-76 532.4,-64.0407 530.098,-44.7395 530.278,-30.2709"/>
<polygon fill="midnightblue" stroke="midnightblue" points="533.792,-30.107 530.825,-19.936 526.802,-29.7371 533.792,-30.107"/>
</g>
<!-- Node20 -->
<g id="node20" class="node"><title>Node20</title>
<polygon fill="white" stroke="#bfbfbf" points="553.5,-56.5 553.5,-75.5 596.5,-75.5 596.5,-56.5 553.5,-56.5"/>
<text text-anchor="middle" x="575" y="-63.5" font-family="Helvetica,sans-Serif" font-size="10.00">deque</text>
</g>
<!-- Node3&#45;&gt;Node20 -->
<g id="edge19" class="edge"><title>Node3&#45;&gt;Node20</title>
<path fill="none" stroke="midnightblue" d="M723.954,-112.444C691.886,-102.66 639.534,-86.6884 606.202,-76.5194"/>
<polygon fill="midnightblue" stroke="midnightblue" points="607.098,-73.1335 596.512,-73.5631 605.056,-79.8289 607.098,-73.1335"/>
</g>
<!-- Node21 -->
<g id="node21" class="node"><title>Node21</title>
<polygon fill="white" stroke="#bfbfbf" points="579,-0.5 579,-19.5 623,-19.5 623,-0.5 579,-0.5"/>
<text text-anchor="middle" x="601" y="-7.5" font-family="Helvetica,sans-Serif" font-size="10.00">mutex</text>
</g>
<!-- Node3&#45;&gt;Node21 -->
<g id="edge20" class="edge"><title>Node3&#45;&gt;Node21</title>
<path fill="none" stroke="midnightblue" d="M732.418,-112.42C714.791,-104.263 688.571,-91.0314 668,-76 648.092,-61.4533 628.183,-41.2393 615.305,-27.232"/>
<polygon fill="midnightblue" stroke="midnightblue" points="617.887,-24.8693 608.589,-19.7916 612.691,-29.5599 617.887,-24.8693"/>
</g>
<!-- Node22 -->
<g id="node22" class="node"><title>Node22</title>
<polygon fill="white" stroke="#bfbfbf" points="641,-0.5 641,-19.5 685,-19.5 685,-0.5 641,-0.5"/>
<text text-anchor="middle" x="663" y="-7.5" font-family="Helvetica,sans-Serif" font-size="10.00">thread</text>
</g>
<!-- Node3&#45;&gt;Node22 -->
<g id="edge21" class="edge"><title>Node3&#45;&gt;Node22</title>
<path fill="none" stroke="midnightblue" d="M731.006,-112.419C715.334,-104.987 694.543,-92.7787 682,-76 671.991,-62.6106 667.239,-44.0428 664.992,-30.1794"/>
<polygon fill="midnightblue" stroke="midnightblue" points="668.409,-29.3153 663.633,-19.8576 661.469,-30.2289 668.409,-29.3153"/>
</g>
<!-- Node23 -->
<g id="node23" class="node"><title>Node23</title>
<polygon fill="white" stroke="#bfbfbf" points="749.5,-0.5 749.5,-19.5 844.5,-19.5 844.5,-0.5 749.5,-0.5"/>
<text text-anchor="middle" x="797" y="-7.5" font-family="Helvetica,sans-Serif" font-size="10.00">condition_variable</text>
</g>
<!-- Node3&#45;&gt;Node23 -->
<g id="edge22" class="edge"><title>Node3&#45;&gt;Node23</title>
<path fill="none" stroke="midnightblue" d="M773.483,-112.36C788.392,-105.09 807.111,-93.117 816,-76 823.848,-60.8872 816.733,-42.0678 809.075,-28.5742"/>
<polygon fill="midnightblue" stroke="midnightblue" points="811.873,-26.4478 803.608,-19.8191 805.936,-30.1551 811.873,-26.4478"/>
</g>
<!-- Node24 -->
<g id="node24" class="node"><title>Node24</title>
<polygon fill="white" stroke="#bfbfbf" points="862.5,-0.5 862.5,-19.5 905.5,-19.5 905.5,-0.5 862.5,-0.5"/>
<text text-anchor="middle" x="884" y="-7.5" font-family="Helvetica,sans-Serif" font-size="10.00">queue</text>
</g>
<!-- Node3&#45;&gt;Node24 -->
<g id="edge23" class="edge"><title>Node3&#45;&gt;Node24</title>
<path fill="none" stroke="midnightblue" d="M772.08,-112.362C789.124,-104.436 813.662,-91.579 832,-76 848.287,-62.1641 863.108,-42.6243 872.723,-28.5867"/>
<polygon fill="midnightblue" stroke="midnightblue" points="875.885,-30.1518 878.502,-19.8851 870.054,-26.2792 875.885,-30.1518"/>
</g>
<!-- Node25 -->
<g id="node25" class="node"><title>Node25</title>
<polygon fill="white" stroke="#bfbfbf" points="124,-56.5 124,-75.5 176,-75.5 176,-56.5 124,-56.5"/>
<text text-anchor="middle" x="150" y="-63.5" font-family="Helvetica,sans-Serif" font-size="10.00">sstream</text>
</g>
<!-- Node3&#45;&gt;Node25 -->
<g id="edge24" class="edge"><title>Node3&#45;&gt;Node25</title>
<path fill="none" stroke="midnightblue" d="M690.327,-119.583C587.564,-116.461 374.785,-106.761 186.359,-75.9475"/>
<polygon fill="midnightblue" stroke="midnightblue" points="186.707,-72.4574 176.269,-74.2731 185.561,-79.363 186.707,-72.4574"/>
</g>
<!-- Node26 -->
<g id="node26" class="node"><title>Node26</title>
<polygon fill="white" stroke="#bfbfbf" points="923.5,-0.5 923.5,-19.5 958.5,-19.5 958.5,-0.5 923.5,-0.5"/>
<text text-anchor="middle" x="941" y="-7.5" font-family="Helvetica,sans-Serif" font-size="10.00">map</text>
</g>
<!-- Node3&#45;&gt;Node26 -->
<g id="edge25" class="edge"><title>Node3&#45;&gt;Node26</title>
<path fill="none" stroke="midnightblue" d="M776.351,-112.405C797.961,-104.331 830.039,-91.2324 856,-76 880.969,-61.3497 907.037,-40.4494 923.613,-26.3371"/>
<polygon fill="midnightblue" stroke="midnightblue" points="926.08,-28.8308 931.36,-19.6451 921.504,-23.5336 926.08,-28.8308"/>
</g>
<!-- Node27 -->
<g id="node27" class="node"><title>Node27</title>
<g id="a_node27"><a xlink:href="cosmos-defs_8h.html" target="_top" xlink:title="COSMOS definitions Definitions specific to the COSMOS environement. ">
<polygon fill="white" stroke="black" points="691,-56.5 691,-75.5 807,-75.5 807,-56.5 691,-56.5"/>
<text text-anchor="middle" x="749" y="-63.5" font-family="Helvetica,sans-Serif" font-size="10.00">support/cosmos&#45;defs.h</text>
</a>
</g>
</g>
<!-- Node3&#45;&gt;Node27 -->
<g id="edge26" class="edge"><title>Node3&#45;&gt;Node27</title>
<path fill="none" stroke="midnightblue" d="M751.505,-112.083C751.111,-105.006 750.548,-94.8611 750.055,-85.9865"/>
<polygon fill="midnightblue" stroke="midnightblue" points="753.536,-85.5415 749.486,-75.7511 746.546,-85.9299 753.536,-85.5415"/>
</g>
<!-- Node27&#45;&gt;Node19 -->
<g id="edge28" class="edge"><title>Node27&#45;&gt;Node19</title>
<path fill="none" stroke="midnightblue" d="M714.616,-56.4435C673.279,-46.157 604.449,-29.0289 564.139,-18.9978"/>
<polygon fill="midnightblue" stroke="midnightblue" points="564.847,-15.5673 554.298,-16.5488 563.157,-22.3601 564.847,-15.5673"/>
</g>
<!-- Node27&#45;&gt;Node21 -->
<g id="edge32" class="edge"><title>Node27&#45;&gt;Node21</title>
<path fill="none" stroke="midnightblue" d="M725.549,-56.4435C700.577,-47.3322 660.894,-32.8531 633.047,-22.6929"/>
<polygon fill="midnightblue" stroke="midnightblue" points="633.966,-19.3027 623.373,-19.1629 631.567,-25.8786 633.966,-19.3027"/>
</g>
<!-- Node27&#45;&gt;Node22 -->
<g id="edge31" class="edge"><title>Node27&#45;&gt;Node22</title>
<path fill="none" stroke="midnightblue" d="M735.183,-56.324C721.767,-47.9002 701.176,-34.9709 685.414,-25.0741"/>
<polygon fill="midnightblue" stroke="midnightblue" points="687.113,-22.0081 676.783,-19.6545 683.391,-27.9364 687.113,-22.0081"/>
</g>
<!-- Node27&#45;&gt;Node23 -->
<g id="edge33" class="edge"><title>Node27&#45;&gt;Node23</title>
<path fill="none" stroke="midnightblue" d="M756.926,-56.083C763.846,-48.2982 774.065,-36.8015 782.452,-27.3665"/>
<polygon fill="midnightblue" stroke="midnightblue" points="785.194,-29.5505 789.221,-19.7511 779.962,-24.8999 785.194,-29.5505"/>
</g>
<!-- Node27&#45;&gt;Node24 -->
<g id="edge30" class="edge"><title>Node27&#45;&gt;Node24</title>
<path fill="none" stroke="midnightblue" d="M770.391,-56.4435C792.707,-47.5171 827.903,-33.4387 853.208,-23.3168"/>
<polygon fill="midnightblue" stroke="midnightblue" points="854.724,-26.4801 862.709,-19.5164 852.124,-19.9807 854.724,-26.4801"/>
</g>
<!-- Node27&#45;&gt;Node26 -->
<g id="edge27" class="edge"><title>Node27&#45;&gt;Node26</title>
<path fill="none" stroke="midnightblue" d="M782.339,-56.4882C813.818,-48.3231 862.541,-35.3565 913.741,-19.9516"/>
<polygon fill="midnightblue" stroke="midnightblue" points="914.771,-23.2967 923.326,-17.0474 912.741,-16.5975 914.771,-23.2967"/>
</g>
<!-- Node28 -->
<g id="node28" class="node"><title>Node28</title>
<polygon fill="white" stroke="#bfbfbf" points="702.5,-0.5 702.5,-19.5 731.5,-19.5 731.5,-0.5 702.5,-0.5"/>
<text text-anchor="middle" x="717" y="-7.5" font-family="Helvetica,sans-Serif" font-size="10.00">list</text>
</g>
<!-- Node27&#45;&gt;Node28 -->
<g id="edge29" class="edge"><title>Node27&#45;&gt;Node28</title>
<path fill="none" stroke="midnightblue" d="M743.716,-56.083C739.289,-48.6127 732.837,-37.7244 727.382,-28.5199"/>
<polygon fill="midnightblue" stroke="midnightblue" points="730.295,-26.5697 722.186,-19.7511 724.273,-30.1383 730.295,-26.5697"/>
</g>
<!-- Node29&#45;&gt;Node3 -->
<g id="edge35" class="edge"><title>Node29&#45;&gt;Node3</title>
<path fill="none" stroke="midnightblue" d="M299.392,-280.191C323.699,-253.182 380.635,-194.987 442,-168 518.67,-134.282 615.287,-124.847 680.103,-122.681"/>
<polygon fill="midnightblue" stroke="midnightblue" points="680.328,-126.176 690.224,-122.393 680.129,-119.179 680.328,-126.176"/>
</g>
<!-- Node30 -->
<g id="node30" class="node"><title>Node30</title>
<g id="a_node30"><a xlink:href="sliplib_8h.html" target="_top" xlink:title="COSMOS SLIP support include file. ">
<polygon fill="white" stroke="black" points="204.5,-224.5 204.5,-243.5 289.5,-243.5 289.5,-224.5 204.5,-224.5"/>
<text text-anchor="middle" x="247" y="-231.5" font-family="Helvetica,sans-Serif" font-size="10.00">support/sliplib.h</text>
</a>
</g>
</g>
<!-- Node29&#45;&gt;Node30 -->
<g id="edge36" class="edge"><title>Node29&#45;&gt;Node30</title>
<path fill="none" stroke="midnightblue" d="M277.521,-280.399C271.828,-271.932 264.546,-261.099 258.522,-252.139"/>
<polygon fill="midnightblue" stroke="midnightblue" points="261.304,-250.004 252.82,-243.658 255.495,-253.909 261.304,-250.004"/>
</g>
<!-- Node30&#45;&gt;Node3 -->
<g id="edge37" class="edge"><title>Node30&#45;&gt;Node3</title>
<path fill="none" stroke="midnightblue" d="M245.963,-224.272C244.821,-210.1 244.929,-182.239 261,-168 291.684,-140.814 551.376,-129.117 680.167,-124.951"/>
<polygon fill="midnightblue" stroke="midnightblue" points="680.451,-128.444 690.335,-124.629 680.229,-121.447 680.451,-128.444"/>
</g>
<!-- Node30&#45;&gt;Node12 -->
<g id="edge41" class="edge"><title>Node30&#45;&gt;Node12</title>
<path fill="none" stroke="midnightblue" d="M204.308,-225.964C175.801,-219.653 138.616,-208.168 111,-188 73.037,-160.276 44.7699,-111.279 31.4624,-84.9418"/>
<polygon fill="midnightblue" stroke="midnightblue" points="34.5056,-83.1978 26.9661,-75.7542 28.2181,-86.2748 34.5056,-83.1978"/>
</g>
<!-- Node31 -->
<g id="node31" class="node"><title>Node31</title>
<g id="a_node31"><a xlink:href="cosmos-errno_8h.html" target="_top" xlink:title="COSMOS Error Codes. ">
<polygon fill="white" stroke="black" points="270.5,-168.5 270.5,-187.5 389.5,-187.5 389.5,-168.5 270.5,-168.5"/>
<text text-anchor="middle" x="330" y="-175.5" font-family="Helvetica,sans-Serif" font-size="10.00">support/cosmos&#45;errno.h</text>
</a>
</g>
</g>
<!-- Node30&#45;&gt;Node31 -->
<g id="edge38" class="edge"><title>Node30&#45;&gt;Node31</title>
<path fill="none" stroke="midnightblue" d="M260.335,-224.324C273.162,-215.979 292.785,-203.212 307.94,-193.352"/>
<polygon fill="midnightblue" stroke="midnightblue" points="310.224,-196.042 316.698,-187.655 306.407,-190.174 310.224,-196.042"/>
</g>
<!-- Node31&#45;&gt;Node3 -->
<g id="edge39" class="edge"><title>Node31&#45;&gt;Node3</title>
<path fill="none" stroke="midnightblue" d="M389.567,-169.378C466.011,-159.596 598.504,-142.642 680.366,-132.166"/>
<polygon fill="midnightblue" stroke="midnightblue" points="680.862,-135.632 690.337,-130.891 679.973,-128.688 680.862,-135.632"/>
</g>
<!-- Node32 -->
<g id="node32" class="node"><title>Node32</title>
<polygon fill="white" stroke="#bfbfbf" points="306.5,-112.5 306.5,-131.5 353.5,-131.5 353.5,-112.5 306.5,-112.5"/>
<text text-anchor="middle" x="330" y="-119.5" font-family="Helvetica,sans-Serif" font-size="10.00">errno.h</text>
</g>
<!-- Node31&#45;&gt;Node32 -->
<g id="edge40" class="edge"><title>Node31&#45;&gt;Node32</title>
<path fill="none" stroke="midnightblue" d="M330,-168.083C330,-161.006 330,-150.861 330,-141.986"/>
<polygon fill="midnightblue" stroke="midnightblue" points="333.5,-141.751 330,-131.751 326.5,-141.751 333.5,-141.751"/>
</g>
<!-- Node33&#45;&gt;Node3 -->
<g id="edge43" class="edge"><title>Node33&#45;&gt;Node3</title>
<path fill="none" stroke="midnightblue" d="M767.318,-464.244C902.43,-452.205 1300,-412.176 1300,-358 1300,-358 1300,-358 1300,-233 1300,-194.577 1277.24,-185.44 1243,-168 1171.57,-131.615 941.852,-124.383 823.686,-123.122"/>
<polygon fill="midnightblue" stroke="midnightblue" points="823.678,-119.622 813.645,-123.026 823.611,-126.621 823.678,-119.622"/>
</g>
<!-- Node34 -->
<g id="node34" class="node"><title>Node34</title>
<g id="a_node34"><a xlink:href="jsondef_8h.html" target="_top" xlink:title="support/jsondef.h">
<polygon fill="white" stroke="black" points="842,-347.5 842,-366.5 934,-366.5 934,-347.5 842,-347.5"/>
<text text-anchor="middle" x="888" y="-354.5" font-family="Helvetica,sans-Serif" font-size="10.00">support/jsondef.h</text>
</a>
</g>
</g>
<!-- Node33&#45;&gt;Node34 -->
<g id="edge44" class="edge"><title>Node33&#45;&gt;Node34</title>
<path fill="none" stroke="midnightblue" d="M756.593,-459.365C780.09,-452.216 811.371,-440.388 835,-423 852.701,-409.974 867.953,-389.713 877.491,-375.276"/>
<polygon fill="midnightblue" stroke="midnightblue" points="880.491,-377.081 882.902,-366.764 874.583,-373.326 880.491,-377.081"/>
</g>
<!-- Node41 -->
<g id="node41" class="node"><title>Node41</title>
<g id="a_node41"><a xlink:href="datalib_8h.html" target="_top" xlink:title="Data Management header file. ">
<polygon fill="white" stroke="black" points="678.5,-403.5 678.5,-422.5 767.5,-422.5 767.5,-403.5 678.5,-403.5"/>
<text text-anchor="middle" x="723" y="-410.5" font-family="Helvetica,sans-Serif" font-size="10.00">support/datalib.h</text>
</a>
</g>
</g>
<!-- Node33&#45;&gt;Node41 -->
<g id="edge64" class="edge"><title>Node33&#45;&gt;Node41</title>
<path fill="none" stroke="midnightblue" d="M717.834,-459.083C716.324,-451.927 715.894,-441.635 716.542,-432.691"/>
<polygon fill="midnightblue" stroke="midnightblue" points="720.015,-433.126 717.869,-422.751 713.077,-432.2 720.015,-433.126"/>
</g>
<!-- Node48 -->
<g id="node48" class="node"><title>Node48</title>
<g id="a_node48"><a xlink:href="stringlib_8h.html" target="_top" xlink:title="stringlib include file A library providing functions for handling various types of string...">
<polygon fill="white" stroke="black" points="120,-168.5 120,-187.5 214,-187.5 214,-168.5 120,-168.5"/>
<text text-anchor="middle" x="167" y="-175.5" font-family="Helvetica,sans-Serif" font-size="10.00">support/stringlib.h</text>
</a>
</g>
</g>
<!-- Node33&#45;&gt;Node48 -->
<g id="edge80" class="edge"><title>Node33&#45;&gt;Node48</title>
<path fill="none" stroke="midnightblue" d="M678.538,-468.504C547.84,-468.8 174,-460.675 174,-358 174,-358 174,-358 174,-294.5 174,-260.301 170.904,-220.51 168.83,-197.688"/>
<polygon fill="midnightblue" stroke="midnightblue" points="172.31,-197.31 167.887,-187.682 165.341,-197.967 172.31,-197.31"/>
</g>
<!-- Node50 -->
<g id="node50" class="node"><title>Node50</title>
<polygon fill="white" stroke="#bfbfbf" points="786,-403.5 786,-422.5 826,-422.5 826,-403.5 786,-403.5"/>
<text text-anchor="middle" x="806" y="-410.5" font-family="Helvetica,sans-Serif" font-size="10.00">limits</text>
</g>
<!-- Node33&#45;&gt;Node50 -->
<g id="edge86" class="edge"><title>Node33&#45;&gt;Node50</title>
<path fill="none" stroke="midnightblue" d="M736.335,-459.324C749.162,-450.979 768.785,-438.212 783.94,-428.352"/>
<polygon fill="midnightblue" stroke="midnightblue" points="786.224,-431.042 792.698,-422.655 782.407,-425.174 786.224,-431.042"/>
</g>
<!-- Node34&#45;&gt;Node3 -->
<g id="edge45" class="edge"><title>Node34&#45;&gt;Node3</title>
<path fill="none" stroke="midnightblue" d="M890.138,-347.388C896.894,-319.819 916.993,-234.907 911,-224 885.484,-177.563 828.577,-149.449 790.235,-135.066"/>
<polygon fill="midnightblue" stroke="midnightblue" points="791.03,-131.633 780.436,-131.536 788.658,-138.218 791.03,-131.633"/>
</g>
<!-- Node35 -->
<g id="node35" class="node"><title>Node35</title>
<g id="a_node35"><a xlink:href="mathlib_8h.html" target="_top" xlink:title="mathlib include file ">
<polygon fill="white" stroke="red" points="1073.5,-224.5 1073.5,-243.5 1154.5,-243.5 1154.5,-224.5 1073.5,-224.5"/>
<text text-anchor="middle" x="1114" y="-231.5" font-family="Helvetica,sans-Serif" font-size="10.00">math/mathlib.h</text>
</a>
</g>
</g>
<!-- Node34&#45;&gt;Node35 -->
<g id="edge46" class="edge"><title>Node34&#45;&gt;Node35</title>
<path fill="none" stroke="midnightblue" d="M934.25,-354.277C997.869,-350.825 1107.33,-340.63 1132,-311 1145.78,-294.448 1135.53,-269.18 1125.77,-252.383"/>
<polygon fill="midnightblue" stroke="midnightblue" points="1128.54,-250.213 1120.26,-243.602 1122.61,-253.933 1128.54,-250.213"/>
</g>
<!-- Node37 -->
<g id="node37" class="node"><title>Node37</title>
<g id="a_node37"><a xlink:href="convertdef_8h.html" target="_top" xlink:title="support/convertdef.h">
<polygon fill="white" stroke="black" points="916,-286 916,-305 1022,-305 1022,-286 916,-286"/>
<text text-anchor="middle" x="969" y="-293" font-family="Helvetica,sans-Serif" font-size="10.00">support/convertdef.h</text>
</a>
</g>
</g>
<!-- Node34&#45;&gt;Node37 -->
<g id="edge54" class="edge"><title>Node34&#45;&gt;Node37</title>
<path fill="none" stroke="midnightblue" d="M899.605,-347.475C912.477,-338.02 933.474,-322.596 949.006,-311.187"/>
<polygon fill="midnightblue" stroke="midnightblue" points="951.429,-313.75 957.416,-305.009 947.285,-308.108 951.429,-313.75"/>
</g>
<!-- Node38 -->
<g id="node38" class="node"><title>Node38</title>
<g id="a_node38"><a xlink:href="physicsdef_8h.html" target="_top" xlink:title="Orbit library support definitions. ">
<polygon fill="white" stroke="red" points="676.5,-224.5 676.5,-243.5 785.5,-243.5 785.5,-224.5 676.5,-224.5"/>
<text text-anchor="middle" x="731" y="-231.5" font-family="Helvetica,sans-Serif" font-size="10.00">physics/physicsdef.h</text>
</a>
</g>
</g>
<!-- Node34&#45;&gt;Node38 -->
<g id="edge57" class="edge"><title>Node34&#45;&gt;Node38</title>
<path fill="none" stroke="midnightblue" d="M876.709,-347.298C850.118,-326.804 783.306,-275.312 750.203,-249.8"/>
<polygon fill="midnightblue" stroke="midnightblue" points="752.246,-246.955 742.189,-243.623 747.973,-252.5 752.246,-246.955"/>
</g>
<!-- Node39 -->
<g id="node39" class="node"><title>Node39</title>
<g id="a_node39"><a xlink:href="socketlib_8h.html" target="_top" xlink:title="Socket Support header file. ">
<polygon fill="white" stroke="red" points="803.5,-224.5 803.5,-243.5 902.5,-243.5 902.5,-224.5 803.5,-224.5"/>
<text text-anchor="middle" x="853" y="-231.5" font-family="Helvetica,sans-Serif" font-size="10.00">support/socketlib.h</text>
</a>
</g>
</g>
<!-- Node34&#45;&gt;Node39 -->
<g id="edge59" class="edge"><title>Node34&#45;&gt;Node39</title>
<path fill="none" stroke="midnightblue" d="M885.234,-347.398C882.349,-338.36 877.734,-323.718 874,-311 868.29,-291.553 862.16,-269.178 858.006,-253.768"/>
<polygon fill="midnightblue" stroke="midnightblue" points="861.336,-252.671 855.365,-243.919 854.575,-254.484 861.336,-252.671"/>
</g>
<!-- Node40 -->
<g id="node40" class="node"><title>Node40</title>
<g id="a_node40"><a xlink:href="objlib_8h.html" target="_top" xlink:title="support/objlib.h">
<polygon fill="white" stroke="red" points="1040.5,-286 1040.5,-305 1123.5,-305 1123.5,-286 1040.5,-286"/>
<text text-anchor="middle" x="1082" y="-293" font-family="Helvetica,sans-Serif" font-size="10.00">support/objlib.h</text>
</a>
</g>
</g>
<!-- Node34&#45;&gt;Node40 -->
<g id="edge61" class="edge"><title>Node34&#45;&gt;Node40</title>
<path fill="none" stroke="midnightblue" d="M915.795,-347.475C949.65,-337.092 1006.97,-319.512 1044.65,-307.954"/>
<polygon fill="midnightblue" stroke="midnightblue" points="1045.72,-311.288 1054.26,-305.009 1043.67,-304.595 1045.72,-311.288"/>
</g>
<!-- Node35&#45;&gt;Node3 -->
<g id="edge47" class="edge"><title>Node35&#45;&gt;Node3</title>
<path fill="none" stroke="midnightblue" d="M1109.3,-224.073C1101.18,-209.615 1083.04,-181.352 1059,-168 1019.79,-146.22 901.692,-133.735 823.926,-127.667"/>
<polygon fill="midnightblue" stroke="midnightblue" points="823.943,-124.158 813.706,-126.888 823.411,-131.138 823.943,-124.158"/>
</g>
<!-- Node35&#45;&gt;Node13 -->
<g id="edge52" class="edge"><title>Node35&#45;&gt;Node13</title>
<path fill="none" stroke="midnightblue" d="M1145.07,-224.462C1171.74,-216.599 1210.85,-203.778 1243,-188 1307.49,-156.355 1376.71,-106.612 1409.56,-81.9263"/>
<polygon fill="midnightblue" stroke="midnightblue" points="1411.97,-84.4925 1417.83,-75.6638 1407.74,-78.913 1411.97,-84.4925"/>
</g>
<!-- Node35&#45;&gt;Node15 -->
<g id="edge53" class="edge"><title>Node35&#45;&gt;Node15</title>
<path fill="none" stroke="midnightblue" d="M1152.75,-224.449C1179.51,-217.394 1215.15,-205.644 1243,-188 1288.64,-159.086 1329.96,-109.508 1349.72,-83.7066"/>
<polygon fill="midnightblue" stroke="midnightblue" points="1352.57,-85.7401 1355.79,-75.6448 1346.98,-81.5319 1352.57,-85.7401"/>
</g>
<!-- Node35&#45;&gt;Node31 -->
<g id="edge48" class="edge"><title>Node35&#45;&gt;Node31</title>
<path fill="none" stroke="midnightblue" d="M1073.5,-230.21C947.166,-221.509 559.253,-194.79 399.677,-183.799"/>
<polygon fill="midnightblue" stroke="midnightblue" points="399.718,-180.294 389.501,-183.098 399.237,-187.277 399.718,-180.294"/>
</g>
<!-- Node36 -->
<g id="node36" class="node"><title>Node36</title>
<g id="a_node36"><a xlink:href="math_2constants_8h.html" target="_top" xlink:title="constants.h">
<polygon fill="white" stroke="black" points="1166,-168.5 1166,-187.5 1234,-187.5 1234,-168.5 1166,-168.5"/>
<text text-anchor="middle" x="1200" y="-175.5" font-family="Helvetica,sans-Serif" font-size="10.00">constants.h</text>
</a>
</g>
</g>
<!-- Node35&#45;&gt;Node36 -->
<g id="edge49" class="edge"><title>Node35&#45;&gt;Node36</title>
<path fill="none" stroke="midnightblue" d="M1127.82,-224.324C1141.23,-215.9 1161.82,-202.971 1177.59,-193.074"/>
<polygon fill="midnightblue" stroke="midnightblue" points="1179.61,-195.936 1186.22,-187.655 1175.89,-190.008 1179.61,-195.936"/>
</g>
<!-- Node36&#45;&gt;Node3 -->
<g id="edge50" class="edge"><title>Node36&#45;&gt;Node3</title>
<path fill="none" stroke="midnightblue" d="M1165.96,-170.299C1161.28,-169.471 1156.53,-168.678 1152,-168 1037.51,-150.85 903.688,-137.051 823.502,-129.449"/>
<polygon fill="midnightblue" stroke="midnightblue" points="823.797,-125.961 813.513,-128.508 823.141,-132.93 823.797,-125.961"/>
</g>
<!-- Node36&#45;&gt;Node6 -->
<g id="edge51" class="edge"><title>Node36&#45;&gt;Node6</title>
<path fill="none" stroke="midnightblue" d="M1207.38,-168.368C1223.03,-150.055 1259.78,-107.049 1280.02,-83.3624"/>
<polygon fill="midnightblue" stroke="midnightblue" points="1282.82,-85.4676 1286.66,-75.5914 1277.5,-80.92 1282.82,-85.4676"/>
</g>
<!-- Node37&#45;&gt;Node3 -->
<g id="edge55" class="edge"><title>Node37&#45;&gt;Node3</title>
<path fill="none" stroke="midnightblue" d="M970.259,-285.711C972.993,-262.892 976.877,-201.231 945,-168 928.212,-150.499 871.388,-138.627 823.712,-131.491"/>
<polygon fill="midnightblue" stroke="midnightblue" points="824.093,-128.01 813.695,-130.04 823.09,-134.938 824.093,-128.01"/>
</g>
<!-- Node37&#45;&gt;Node35 -->
<g id="edge56" class="edge"><title>Node37&#45;&gt;Node35</title>
<path fill="none" stroke="midnightblue" d="M989.775,-285.975C1014.43,-275.857 1055.75,-258.905 1083.9,-247.351"/>
<polygon fill="midnightblue" stroke="midnightblue" points="1085.34,-250.543 1093.26,-243.509 1082.68,-244.067 1085.34,-250.543"/>
</g>
<!-- Node38&#45;&gt;Node3 -->
<g id="edge58" class="edge"><title>Node38&#45;&gt;Node3</title>
<path fill="none" stroke="midnightblue" d="M732.648,-224.368C736.037,-206.617 743.855,-165.666 748.45,-141.597"/>
<polygon fill="midnightblue" stroke="midnightblue" points="751.922,-142.07 750.36,-131.591 745.047,-140.758 751.922,-142.07"/>
</g>
<!-- Node39&#45;&gt;Node3 -->
<g id="edge60" class="edge"><title>Node39&#45;&gt;Node3</title>
<path fill="none" stroke="midnightblue" d="M845.075,-224.368C828.186,-205.974 788.425,-162.671 766.739,-139.052"/>
<polygon fill="midnightblue" stroke="midnightblue" points="769.23,-136.59 759.888,-131.591 764.074,-141.325 769.23,-136.59"/>
</g>
<!-- Node40&#45;&gt;Node3 -->
<g id="edge62" class="edge"><title>Node40&#45;&gt;Node3</title>
<path fill="none" stroke="midnightblue" d="M1076.77,-285.727C1062.36,-262.399 1019.59,-198.539 966,-168 922.546,-143.237 867.144,-132.043 823.599,-127.011"/>
<polygon fill="midnightblue" stroke="midnightblue" points="823.967,-123.531 813.65,-125.944 823.22,-130.491 823.967,-123.531"/>
</g>
<!-- Node40&#45;&gt;Node35 -->
<g id="edge63" class="edge"><title>Node40&#45;&gt;Node35</title>
<path fill="none" stroke="midnightblue" d="M1086.58,-285.975C1091.24,-277.315 1098.59,-263.649 1104.51,-252.645"/>
<polygon fill="midnightblue" stroke="midnightblue" points="1107.77,-253.974 1109.42,-243.509 1101.6,-250.658 1107.77,-253.974"/>
</g>
<!-- Node41&#45;&gt;Node3 -->
<g id="edge65" class="edge"><title>Node41&#45;&gt;Node3</title>
<path fill="none" stroke="midnightblue" d="M732.985,-403.446C746.392,-390.881 767.296,-366.783 756,-347 740.39,-319.662 716.803,-333.708 695,-311 646.52,-260.508 588.898,-225.373 629,-168 641.09,-150.702 660.581,-140.032 680.518,-133.458"/>
<polygon fill="midnightblue" stroke="midnightblue" points="681.721,-136.752 690.31,-130.548 679.727,-130.042 681.721,-136.752"/>
</g>
<!-- Node41&#45;&gt;Node31 -->
<g id="edge66" class="edge"><title>Node41&#45;&gt;Node31</title>
<path fill="none" stroke="midnightblue" d="M678.331,-410.293C604.901,-406.682 462.838,-396.056 423,-367 365.143,-324.802 341.296,-236.495 333.348,-197.821"/>
<polygon fill="midnightblue" stroke="midnightblue" points="336.693,-196.68 331.373,-187.518 329.819,-197.999 336.693,-196.68"/>
</g>
<!-- Node41&#45;&gt;Node33 -->
<g id="edge70" class="edge"><title>Node41&#45;&gt;Node33</title>
<path fill="none" stroke="midnightblue" d="M728.131,-422.751C729.657,-429.858 730.104,-440.136 729.472,-449.101"/>
<polygon fill="midnightblue" stroke="midnightblue" points="725.993,-448.713 728.166,-459.083 732.934,-449.622 725.993,-448.713"/>
</g>
<!-- Node41&#45;&gt;Node34 -->
<g id="edge69" class="edge"><title>Node41&#45;&gt;Node34</title>
<path fill="none" stroke="midnightblue" d="M749.145,-403.444C777.023,-394.32 821.348,-379.813 852.4,-369.651"/>
<polygon fill="midnightblue" stroke="midnightblue" points="853.562,-372.953 861.978,-366.516 851.385,-366.3 853.562,-372.953"/>
</g>
<!-- Node42 -->
<g id="node42" class="node"><title>Node42</title>
<g id="a_node42"><a xlink:href="datadef_8h.html" target="_top" xlink:title="Data Management definitions file. ">
<polygon fill="white" stroke="black" points="638,-168.5 638,-187.5 730,-187.5 730,-168.5 638,-168.5"/>
<text text-anchor="middle" x="684" y="-175.5" font-family="Helvetica,sans-Serif" font-size="10.00">support/datadef.h</text>
</a>
</g>
</g>
<!-- Node41&#45;&gt;Node42 -->
<g id="edge67" class="edge"><title>Node41&#45;&gt;Node42</title>
<path fill="none" stroke="midnightblue" d="M744.55,-403.374C768.286,-392.436 801.656,-371.964 790,-347 759.834,-282.393 697.166,-308.607 667,-244 659.852,-228.692 666.235,-209.898 673.125,-196.463"/>
<polygon fill="midnightblue" stroke="midnightblue" points="676.174,-198.183 678.046,-187.755 670.079,-194.739 676.174,-198.183"/>
</g>
<!-- Node43 -->
<g id="node43" class="node"><title>Node43</title>
<g id="a_node43"><a xlink:href="zlib_8h.html" target="_top" xlink:title="thirdparty/zlib/zlib.h">
<polygon fill="white" stroke="red" points="432.5,-347.5 432.5,-366.5 533.5,-366.5 533.5,-347.5 432.5,-347.5"/>
<text text-anchor="middle" x="483" y="-354.5" font-family="Helvetica,sans-Serif" font-size="10.00">thirdparty/zlib/zlib.h</text>
</a>
</g>
</g>
<!-- Node41&#45;&gt;Node43 -->
<g id="edge71" class="edge"><title>Node41&#45;&gt;Node43</title>
<path fill="none" stroke="midnightblue" d="M684.971,-403.444C643.192,-394.043 576.018,-378.929 530.73,-368.739"/>
<polygon fill="midnightblue" stroke="midnightblue" points="531.375,-365.297 520.851,-366.516 529.839,-372.126 531.375,-365.297"/>
</g>
<!-- Node44 -->
<g id="node44" class="node"><title>Node44</title>
<g id="a_node44"><a xlink:href="timelib_8h.html" target="_top" xlink:title="timelib include file A library providing functions for handling various types of time. ">
<polygon fill="white" stroke="red" points="1180.5,-286 1180.5,-305 1269.5,-305 1269.5,-286 1180.5,-286"/>
<text text-anchor="middle" x="1225" y="-293" font-family="Helvetica,sans-Serif" font-size="10.00">support/timelib.h</text>
</a>
</g>
</g>
<!-- Node41&#45;&gt;Node44 -->
<g id="edge72" class="edge"><title>Node41&#45;&gt;Node44</title>
<path fill="none" stroke="midnightblue" d="M767.785,-403.428C812.326,-394.765 882.553,-380.731 943,-367 1028.47,-347.583 1127.78,-322.061 1182.8,-307.656"/>
<polygon fill="midnightblue" stroke="midnightblue" points="1183.76,-311.023 1192.54,-305.1 1181.98,-304.252 1183.76,-311.023"/>
</g>
<!-- Node45 -->
<g id="node45" class="node"><title>Node45</title>
<polygon fill="white" stroke="#bfbfbf" points="552,-347.5 552,-366.5 612,-366.5 612,-347.5 552,-347.5"/>
<text text-anchor="middle" x="582" y="-354.5" font-family="Helvetica,sans-Serif" font-size="10.00">sys/stat.h</text>
</g>
<!-- Node41&#45;&gt;Node45 -->
<g id="edge77" class="edge"><title>Node41&#45;&gt;Node45</title>
<path fill="none" stroke="midnightblue" d="M700.658,-403.444C677.247,-394.478 640.264,-380.314 613.81,-370.183"/>
<polygon fill="midnightblue" stroke="midnightblue" points="614.828,-366.824 604.237,-366.516 612.324,-373.361 614.828,-366.824"/>
</g>
<!-- Node46 -->
<g id="node46" class="node"><title>Node46</title>
<polygon fill="white" stroke="#bfbfbf" points="630,-347.5 630,-366.5 680,-366.5 680,-347.5 630,-347.5"/>
<text text-anchor="middle" x="655" y="-354.5" font-family="Helvetica,sans-Serif" font-size="10.00">fstream</text>
</g>
<!-- Node41&#45;&gt;Node46 -->
<g id="edge78" class="edge"><title>Node41&#45;&gt;Node46</title>
<path fill="none" stroke="midnightblue" d="M712.075,-403.324C701.825,-395.185 686.279,-382.839 673.999,-373.087"/>
<polygon fill="midnightblue" stroke="midnightblue" points="676.132,-370.312 666.124,-366.834 671.779,-375.794 676.132,-370.312"/>
</g>
<!-- Node47 -->
<g id="node47" class="node"><title>Node47</title>
<g id="a_node47"><a xlink:href="dirent_8h.html" target="_top" xlink:title="dirent.h">
<polygon fill="white" stroke="black" points="698.5,-347.5 698.5,-366.5 747.5,-366.5 747.5,-347.5 698.5,-347.5"/>
<text text-anchor="middle" x="723" y="-354.5" font-family="Helvetica,sans-Serif" font-size="10.00">dirent.h</text>
</a>
</g>
</g>
<!-- Node41&#45;&gt;Node47 -->
<g id="edge79" class="edge"><title>Node41&#45;&gt;Node47</title>
<path fill="none" stroke="midnightblue" d="M723,-403.083C723,-396.006 723,-385.861 723,-376.986"/>
<polygon fill="midnightblue" stroke="midnightblue" points="726.5,-376.751 723,-366.751 719.5,-376.751 726.5,-376.751"/>
</g>
<!-- Node42&#45;&gt;Node3 -->
<g id="edge68" class="edge"><title>Node42&#45;&gt;Node3</title>
<path fill="none" stroke="midnightblue" d="M694.925,-168.324C705.175,-160.185 720.721,-147.839 733.001,-138.087"/>
<polygon fill="midnightblue" stroke="midnightblue" points="735.221,-140.794 740.876,-131.834 730.868,-135.312 735.221,-140.794"/>
</g>
<!-- Node44&#45;&gt;Node3 -->
<g id="edge73" class="edge"><title>Node44&#45;&gt;Node3</title>
<path fill="none" stroke="midnightblue" d="M1219.01,-285.832C1201.67,-261.604 1148.62,-193.299 1085,-168 999.665,-134.065 893.363,-124.849 824.147,-122.783"/>
<polygon fill="midnightblue" stroke="midnightblue" points="823.874,-119.275 813.788,-122.519 823.696,-126.273 823.874,-119.275"/>
</g>
<!-- Node44&#45;&gt;Node13 -->
<g id="edge75" class="edge"><title>Node44&#45;&gt;Node13</title>
<path fill="none" stroke="midnightblue" d="M1232.75,-285.86C1263.11,-252.005 1374.25,-128.053 1414.41,-83.2749"/>
<polygon fill="midnightblue" stroke="midnightblue" points="1417.17,-85.4309 1421.24,-75.6491 1411.96,-80.7576 1417.17,-85.4309"/>
</g>
<!-- Node44&#45;&gt;Node32 -->
<g id="edge76" class="edge"><title>Node44&#45;&gt;Node32</title>
<path fill="none" stroke="midnightblue" d="M1191.75,-285.952C1134.66,-271.52 1014.18,-242.127 911,-224 786.556,-202.136 753.518,-209.441 629,-188 531.866,-171.275 418.468,-144.649 363.406,-131.26"/>
<polygon fill="midnightblue" stroke="midnightblue" points="364.052,-127.815 353.507,-128.842 362.391,-134.615 364.052,-127.815"/>
</g>
<!-- Node44&#45;&gt;Node35 -->
<g id="edge74" class="edge"><title>Node44&#45;&gt;Node35</title>
<path fill="none" stroke="midnightblue" d="M1209.1,-285.975C1190.72,-276.122 1160.24,-259.788 1138.76,-248.27"/>
<polygon fill="midnightblue" stroke="midnightblue" points="1140.34,-245.149 1129.87,-243.509 1137.03,-251.318 1140.34,-245.149"/>
</g>
<!-- Node48&#45;&gt;Node3 -->
<g id="edge81" class="edge"><title>Node48&#45;&gt;Node3</title>
<path fill="none" stroke="midnightblue" d="M214.251,-169.739C218.892,-169.113 223.534,-168.521 228,-168 389.114,-149.214 578.955,-134.831 680.069,-127.786"/>
<polygon fill="midnightblue" stroke="midnightblue" points="680.433,-131.27 690.168,-127.087 679.95,-124.286 680.433,-131.27"/>
</g>
<!-- Node48&#45;&gt;Node18 -->
<g id="edge84" class="edge"><title>Node48&#45;&gt;Node18</title>
<path fill="none" stroke="midnightblue" d="M160.566,-168.368C146.973,-150.135 115.136,-107.426 97.4306,-83.6752"/>
<polygon fill="midnightblue" stroke="midnightblue" points="100.187,-81.5171 91.4045,-75.5914 94.5751,-85.7007 100.187,-81.5171"/>
</g>
<!-- Node48&#45;&gt;Node25 -->
<g id="edge85" class="edge"><title>Node48&#45;&gt;Node25</title>
<path fill="none" stroke="midnightblue" d="M165.666,-168.368C162.923,-150.617 156.594,-109.666 152.874,-85.5974"/>
<polygon fill="midnightblue" stroke="midnightblue" points="156.314,-84.9395 151.328,-75.5914 149.396,-86.0087 156.314,-84.9395"/>
</g>
<!-- Node48&#45;&gt;Node32 -->
<g id="edge83" class="edge"><title>Node48&#45;&gt;Node32</title>
<path fill="none" stroke="midnightblue" d="M192.828,-168.444C220.895,-159.145 265.835,-144.257 296.574,-134.073"/>
<polygon fill="midnightblue" stroke="midnightblue" points="298.018,-137.282 306.41,-130.815 295.817,-130.638 298.018,-137.282"/>
</g>
<!-- Node49 -->
<g id="node49" class="node"><title>Node49</title>
<g id="a_node49"><a xlink:href="jsonobject_8h.html" target="_top" xlink:title="support/jsonobject.h">
<polygon fill="white" stroke="red" points="178,-112.5 178,-131.5 282,-131.5 282,-112.5 178,-112.5"/>
<text text-anchor="middle" x="230" y="-119.5" font-family="Helvetica,sans-Serif" font-size="10.00">support/jsonobject.h</text>
</a>
</g>
</g>
<!-- Node48&#45;&gt;Node49 -->
<g id="edge82" class="edge"><title>Node48&#45;&gt;Node49</title>
<path fill="none" stroke="midnightblue" d="M177.122,-168.324C186.526,-160.263 200.744,-148.077 212.069,-138.369"/>
<polygon fill="midnightblue" stroke="midnightblue" points="214.379,-140.999 219.694,-131.834 209.823,-135.684 214.379,-140.999"/>
</g>
</g>
</svg>
