<?xml version="1.0" encoding="UTF-8" standalone="no"?>
<!DOCTYPE svg PUBLIC "-//W3C//DTD SVG 1.1//EN"
 "http://www.w3.org/Graphics/SVG/1.1/DTD/svg11.dtd">
<!-- Generated by graphviz version 2.38.0 (20140413.2041)
 -->
<!-- Title: playground.cpp Pages: 1 -->
<svg width="1515pt" height="532pt"
 viewBox="0.00 0.00 1514.50 532.00" xmlns="http://www.w3.org/2000/svg" xmlns:xlink="http://www.w3.org/1999/xlink">
<g id="graph0" class="graph" transform="scale(1 1) rotate(0) translate(4 528)">
<title>playground.cpp</title>
<polygon fill="white" stroke="none" points="-4,4 -4,-528 1510.5,-528 1510.5,4 -4,4"/>
<!-- Node1 -->
<g id="node1" class="node"><title>Node1</title>
<polygon fill="#bfbfbf" stroke="black" points="493.5,-504.5 493.5,-523.5 576.5,-523.5 576.5,-504.5 493.5,-504.5"/>
<text text-anchor="middle" x="535" y="-511.5" font-family="Helvetica,sans-Serif" font-size="10.00">playground.cpp</text>
</g>
<!-- Node2 -->
<g id="node2" class="node"><title>Node2</title>
<polygon fill="white" stroke="#bfbfbf" points="120,-56.5 120,-75.5 174,-75.5 174,-56.5 120,-56.5"/>
<text text-anchor="middle" x="147" y="-63.5" font-family="Helvetica,sans-Serif" font-size="10.00">iostream</text>
</g>
<!-- Node1&#45;&gt;Node2 -->
<g id="edge1" class="edge"><title>Node1&#45;&gt;Node2</title>
<path fill="none" stroke="midnightblue" d="M493.457,-511.867C380.47,-507.668 76,-488.427 76,-403 76,-403 76,-403 76,-233 76,-174.452 113.798,-112.969 134.236,-84.0027"/>
<polygon fill="midnightblue" stroke="midnightblue" points="137.157,-85.9363 140.192,-75.7855 131.49,-81.8282 137.157,-85.9363"/>
</g>
<!-- Node3 -->
<g id="node3" class="node"><title>Node3</title>
<polygon fill="white" stroke="#bfbfbf" points="380,-168.5 380,-187.5 430,-187.5 430,-168.5 380,-168.5"/>
<text text-anchor="middle" x="405" y="-175.5" font-family="Helvetica,sans-Serif" font-size="10.00">iomanip</text>
</g>
<!-- Node1&#45;&gt;Node3 -->
<g id="edge2" class="edge"><title>Node1&#45;&gt;Node3</title>
<path fill="none" stroke="midnightblue" d="M524.966,-504.433C506.051,-487.268 467,-446.556 467,-403 467,-403 467,-403 467,-345 467,-287.51 433.962,-225.496 416.12,-196.198"/>
<polygon fill="midnightblue" stroke="midnightblue" points="418.993,-194.191 410.722,-187.57 413.059,-197.904 418.993,-194.191"/>
</g>
<!-- Node4 -->
<g id="node4" class="node"><title>Node4</title>
<g id="a_node4"><a xlink:href="mathlib_8h.html" target="_top" xlink:title="mathlib include file ">
<polygon fill="white" stroke="black" points="274.5,-392.5 274.5,-411.5 355.5,-411.5 355.5,-392.5 274.5,-392.5"/>
<text text-anchor="middle" x="315" y="-399.5" font-family="Helvetica,sans-Serif" font-size="10.00">math/mathlib.h</text>
</a>
</g>
</g>
<!-- Node1&#45;&gt;Node4 -->
<g id="edge3" class="edge"><title>Node1&#45;&gt;Node4</title>
<path fill="none" stroke="midnightblue" d="M517.737,-504.368C479.342,-485.171 386.684,-438.842 341.148,-416.074"/>
<polygon fill="midnightblue" stroke="midnightblue" points="342.692,-412.933 332.183,-411.591 339.562,-419.194 342.692,-412.933"/>
</g>
<!-- Node36 -->
<g id="node36" class="node"><title>Node36</title>
<g id="a_node36"><a xlink:href="stringlib_8h.html" target="_top" xlink:title="stringlib include file A library providing functions for handling various types of string...">
<polygon fill="white" stroke="black" points="672,-392.5 672,-411.5 766,-411.5 766,-392.5 672,-392.5"/>
<text text-anchor="middle" x="719" y="-399.5" font-family="Helvetica,sans-Serif" font-size="10.00">support/stringlib.h</text>
</a>
</g>
</g>
<!-- Node1&#45;&gt;Node36 -->
<g id="edge58" class="edge"><title>Node1&#45;&gt;Node36</title>
<path fill="none" stroke="midnightblue" d="M549.438,-504.368C581.147,-485.412 657.108,-440.001 695.678,-416.942"/>
<polygon fill="midnightblue" stroke="midnightblue" points="697.842,-419.727 704.629,-411.591 694.25,-413.719 697.842,-419.727"/>
</g>
<!-- Node39 -->
<g id="node39" class="node"><title>Node39</title>
<g id="a_node39"><a xlink:href="devicecpu_8h.html" target="_top" xlink:title="devicecpu include file. ">
<polygon fill="white" stroke="black" points="752.5,-448.5 752.5,-467.5 871.5,-467.5 871.5,-448.5 752.5,-448.5"/>
<text text-anchor="middle" x="812" y="-455.5" font-family="Helvetica,sans-Serif" font-size="10.00">device/cpu/devicecpu.h</text>
</a>
</g>
</g>
<!-- Node1&#45;&gt;Node39 -->
<g id="edge67" class="edge"><title>Node1&#45;&gt;Node39</title>
<path fill="none" stroke="midnightblue" d="M576.77,-504.857C625.187,-495.418 705.106,-479.839 758.151,-469.498"/>
<polygon fill="midnightblue" stroke="midnightblue" points="758.911,-472.915 768.057,-467.567 757.572,-466.045 758.911,-472.915"/>
</g>
<!-- Node42 -->
<g id="node42" class="node"><title>Node42</title>
<g id="a_node42"><a xlink:href="elapsedtime_8h.html" target="_top" xlink:title="Elapsed Time header file. ">
<polygon fill="white" stroke="black" points="945.5,-168.5 945.5,-187.5 1058.5,-187.5 1058.5,-168.5 945.5,-168.5"/>
<text text-anchor="middle" x="1002" y="-175.5" font-family="Helvetica,sans-Serif" font-size="10.00">support/elapsedtime.h</text>
</a>
</g>
</g>
<!-- Node1&#45;&gt;Node42 -->
<g id="edge72" class="edge"><title>Node1&#45;&gt;Node42</title>
<path fill="none" stroke="midnightblue" d="M576.696,-511.41C686.278,-506.104 974,-484.42 974,-403 974,-403 974,-403 974,-289 974,-255.79 986.134,-218.634 994.427,-197.12"/>
<polygon fill="midnightblue" stroke="midnightblue" points="997.751,-198.233 998.224,-187.649 991.254,-195.628 997.751,-198.233"/>
</g>
<!-- Node4&#45;&gt;Node2 -->
<g id="edge57" class="edge"><title>Node4&#45;&gt;Node2</title>
<path fill="none" stroke="midnightblue" d="M274.708,-392.434C226.439,-379.533 152,-350.062 152,-291 152,-291 152,-291 152,-177 152,-144.915 149.851,-107.62 148.371,-85.7371"/>
<polygon fill="midnightblue" stroke="midnightblue" points="151.847,-85.2813 147.654,-75.5518 144.865,-85.7729 151.847,-85.2813"/>
</g>
<!-- Node5 -->
<g id="node5" class="node"><title>Node5</title>
<g id="a_node5"><a xlink:href="config_cosmos_8h.html" target="_top" xlink:title="Headers and definitions common to all COSMOS. ">
<polygon fill="white" stroke="black" points="600.5,-112.5 600.5,-131.5 723.5,-131.5 723.5,-112.5 600.5,-112.5"/>
<text text-anchor="middle" x="662" y="-119.5" font-family="Helvetica,sans-Serif" font-size="10.00">support/configCosmos.h</text>
</a>
</g>
</g>
<!-- Node4&#45;&gt;Node5 -->
<g id="edge4" class="edge"><title>Node4&#45;&gt;Node5</title>
<path fill="none" stroke="midnightblue" d="M337.663,-392.39C357.361,-384.396 386.23,-371.423 409,-356 510.08,-287.531 611.081,-179.808 647.654,-139.206"/>
<polygon fill="midnightblue" stroke="midnightblue" points="650.4,-141.386 654.458,-131.599 645.183,-136.719 650.4,-141.386"/>
</g>
<!-- Node15 -->
<g id="node15" class="node"><title>Node15</title>
<polygon fill="white" stroke="#bfbfbf" points="58,-56.5 58,-75.5 102,-75.5 102,-56.5 58,-56.5"/>
<text text-anchor="middle" x="80" y="-63.5" font-family="Helvetica,sans-Serif" font-size="10.00">cmath</text>
</g>
<!-- Node4&#45;&gt;Node15 -->
<g id="edge56" class="edge"><title>Node4&#45;&gt;Node15</title>
<path fill="none" stroke="midnightblue" d="M274.464,-395.546C189.388,-382.962 0,-348.492 0,-291 0,-291 0,-291 0,-177 0,-136.621 35.6946,-101.106 59.398,-81.9729"/>
<polygon fill="midnightblue" stroke="midnightblue" points="61.7448,-84.582 67.5,-75.6866 57.4537,-79.0515 61.7448,-84.582"/>
</g>
<!-- Node30 -->
<g id="node30" class="node"><title>Node30</title>
<g id="a_node30"><a xlink:href="cosmos-errno_8h.html" target="_top" xlink:title="COSMOS Error Codes. ">
<polygon fill="white" stroke="black" points="617.5,-336.5 617.5,-355.5 736.5,-355.5 736.5,-336.5 617.5,-336.5"/>
<text text-anchor="middle" x="677" y="-343.5" font-family="Helvetica,sans-Serif" font-size="10.00">support/cosmos&#45;errno.h</text>
</a>
</g>
</g>
<!-- Node4&#45;&gt;Node30 -->
<g id="edge36" class="edge"><title>Node4&#45;&gt;Node30</title>
<path fill="none" stroke="midnightblue" d="M355.822,-394.91C417.544,-385.703 535.301,-368.137 609.794,-357.025"/>
<polygon fill="midnightblue" stroke="midnightblue" points="610.633,-360.439 620.007,-355.502 609.6,-353.515 610.633,-360.439"/>
</g>
<!-- Node32 -->
<g id="node32" class="node"><title>Node32</title>
<g id="a_node32"><a xlink:href="math_2constants_8h.html" target="_top" xlink:title="constants.h">
<polygon fill="white" stroke="black" points="256,-168.5 256,-187.5 324,-187.5 324,-168.5 256,-168.5"/>
<text text-anchor="middle" x="290" y="-175.5" font-family="Helvetica,sans-Serif" font-size="10.00">constants.h</text>
</a>
</g>
</g>
<!-- Node4&#45;&gt;Node32 -->
<g id="edge39" class="edge"><title>Node4&#45;&gt;Node32</title>
<path fill="none" stroke="midnightblue" d="M310.434,-392.257C305.946,-383.347 299.178,-369.025 295,-356 279.479,-307.612 277.137,-294.556 272,-244 271.101,-235.157 270.319,-232.729 272,-224 273.79,-214.705 277.483,-204.889 281.061,-196.805"/>
<polygon fill="midnightblue" stroke="midnightblue" points="284.273,-198.198 285.379,-187.661 277.944,-195.209 284.273,-198.198"/>
</g>
<!-- Node33 -->
<g id="node33" class="node"><title>Node33</title>
<g id="a_node33"><a xlink:href="vector_8h.html" target="_top" xlink:title="vector.h">
<polygon fill="white" stroke="black" points="281,-224.5 281,-243.5 333,-243.5 333,-224.5 281,-224.5"/>
<text text-anchor="middle" x="307" y="-231.5" font-family="Helvetica,sans-Serif" font-size="10.00">vector.h</text>
</a>
</g>
</g>
<!-- Node4&#45;&gt;Node33 -->
<g id="edge42" class="edge"><title>Node4&#45;&gt;Node33</title>
<path fill="none" stroke="midnightblue" d="M311.94,-392.224C305.372,-372.325 290.914,-322.224 296,-280 297.071,-271.107 299.292,-261.434 301.46,-253.344"/>
<polygon fill="midnightblue" stroke="midnightblue" points="304.887,-254.091 304.27,-243.514 298.156,-252.167 304.887,-254.091"/>
</g>
<!-- Node34 -->
<g id="node34" class="node"><title>Node34</title>
<g id="a_node34"><a xlink:href="matrix_8h.html" target="_top" xlink:title="matrix.h">
<polygon fill="white" stroke="black" points="305,-280.5 305,-299.5 357,-299.5 357,-280.5 305,-280.5"/>
<text text-anchor="middle" x="331" y="-287.5" font-family="Helvetica,sans-Serif" font-size="10.00">matrix.h</text>
</a>
</g>
</g>
<!-- Node4&#45;&gt;Node34 -->
<g id="edge49" class="edge"><title>Node4&#45;&gt;Node34</title>
<path fill="none" stroke="midnightblue" d="M316.255,-392.368C318.838,-374.617 324.794,-333.666 328.295,-309.597"/>
<polygon fill="midnightblue" stroke="midnightblue" points="331.774,-309.991 329.75,-299.591 324.847,-308.983 331.774,-309.991"/>
</g>
<!-- Node35 -->
<g id="node35" class="node"><title>Node35</title>
<g id="a_node35"><a xlink:href="rotation_8h.html" target="_top" xlink:title="rotation.h">
<polygon fill="white" stroke="black" points="343.5,-336.5 343.5,-355.5 400.5,-355.5 400.5,-336.5 343.5,-336.5"/>
<text text-anchor="middle" x="372" y="-343.5" font-family="Helvetica,sans-Serif" font-size="10.00">rotation.h</text>
</a>
</g>
</g>
<!-- Node4&#45;&gt;Node35 -->
<g id="edge52" class="edge"><title>Node4&#45;&gt;Node35</title>
<path fill="none" stroke="midnightblue" d="M324.158,-392.324C332.501,-384.42 345.032,-372.548 355.177,-362.938"/>
<polygon fill="midnightblue" stroke="midnightblue" points="357.823,-365.252 362.675,-355.834 353.009,-360.171 357.823,-365.252"/>
</g>
<!-- Node5&#45;&gt;Node2 -->
<g id="edge16" class="edge"><title>Node5&#45;&gt;Node2</title>
<path fill="none" stroke="midnightblue" d="M600.363,-118.196C510.751,-113.461 339.182,-101.917 184.216,-75.9555"/>
<polygon fill="midnightblue" stroke="midnightblue" points="184.479,-72.45 174.034,-74.2245 183.306,-79.351 184.479,-72.45"/>
</g>
<!-- Node6 -->
<g id="node6" class="node"><title>Node6</title>
<polygon fill="white" stroke="#bfbfbf" points="1018.5,-56.5 1018.5,-75.5 1063.5,-75.5 1063.5,-56.5 1018.5,-56.5"/>
<text text-anchor="middle" x="1041" y="-63.5" font-family="Helvetica,sans-Serif" font-size="10.00">climits</text>
</g>
<!-- Node5&#45;&gt;Node6 -->
<g id="edge5" class="edge"><title>Node5&#45;&gt;Node6</title>
<path fill="none" stroke="midnightblue" d="M723.56,-115.741C791.166,-109.355 903.025,-96.9965 1008.51,-75.8121"/>
<polygon fill="midnightblue" stroke="midnightblue" points="1009.27,-79.2292 1018.37,-73.8022 1007.88,-72.3703 1009.27,-79.2292"/>
</g>
<!-- Node7 -->
<g id="node7" class="node"><title>Node7</title>
<polygon fill="white" stroke="#bfbfbf" points="1081.5,-56.5 1081.5,-75.5 1128.5,-75.5 1128.5,-56.5 1081.5,-56.5"/>
<text text-anchor="middle" x="1105" y="-63.5" font-family="Helvetica,sans-Serif" font-size="10.00">csignal</text>
</g>
<!-- Node5&#45;&gt;Node7 -->
<g id="edge6" class="edge"><title>Node5&#45;&gt;Node7</title>
<path fill="none" stroke="midnightblue" d="M723.751,-117.428C802.527,-112.164 943.025,-100.403 1071.34,-76.0535"/>
<polygon fill="midnightblue" stroke="midnightblue" points="1072.18,-79.4549 1081.34,-74.1246 1070.86,-72.5815 1072.18,-79.4549"/>
</g>
<!-- Node8 -->
<g id="node8" class="node"><title>Node8</title>
<polygon fill="white" stroke="#bfbfbf" points="192,-56.5 192,-75.5 238,-75.5 238,-56.5 192,-56.5"/>
<text text-anchor="middle" x="215" y="-63.5" font-family="Helvetica,sans-Serif" font-size="10.00">cstdint</text>
</g>
<!-- Node5&#45;&gt;Node8 -->
<g id="edge7" class="edge"><title>Node5&#45;&gt;Node8</title>
<path fill="none" stroke="midnightblue" d="M600.175,-116.718C519.608,-110.567 374.541,-97.5354 252,-76 250.755,-75.7812 249.489,-75.5448 248.213,-75.2947"/>
<polygon fill="midnightblue" stroke="midnightblue" points="248.905,-71.8636 238.392,-73.1734 247.427,-78.7058 248.905,-71.8636"/>
</g>
<!-- Node9 -->
<g id="node9" class="node"><title>Node9</title>
<polygon fill="white" stroke="#bfbfbf" points="370,-56.5 370,-75.5 426,-75.5 426,-56.5 370,-56.5"/>
<text text-anchor="middle" x="398" y="-63.5" font-family="Helvetica,sans-Serif" font-size="10.00">cinttypes</text>
</g>
<!-- Node5&#45;&gt;Node9 -->
<g id="edge8" class="edge"><title>Node5&#45;&gt;Node9</title>
<path fill="none" stroke="midnightblue" d="M615.794,-112.442C571.994,-104.195 504.115,-91.0664 436.261,-76.2087"/>
<polygon fill="midnightblue" stroke="midnightblue" points="436.772,-72.7373 426.253,-74.0044 435.266,-79.5735 436.772,-72.7373"/>
</g>
<!-- Node10 -->
<g id="node10" class="node"><title>Node10</title>
<polygon fill="white" stroke="#bfbfbf" points="444.5,-56.5 444.5,-75.5 487.5,-75.5 487.5,-56.5 444.5,-56.5"/>
<text text-anchor="middle" x="466" y="-63.5" font-family="Helvetica,sans-Serif" font-size="10.00">cstdio</text>
</g>
<!-- Node5&#45;&gt;Node10 -->
<g id="edge9" class="edge"><title>Node5&#45;&gt;Node10</title>
<path fill="none" stroke="midnightblue" d="M629.484,-112.461C597.995,-104.13 548.66,-90.9202 497.517,-76.3842"/>
<polygon fill="midnightblue" stroke="midnightblue" points="498.186,-72.9357 487.61,-73.5581 496.266,-79.6672 498.186,-72.9357"/>
</g>
<!-- Node11 -->
<g id="node11" class="node"><title>Node11</title>
<polygon fill="white" stroke="#bfbfbf" points="505.5,-56.5 505.5,-75.5 554.5,-75.5 554.5,-56.5 505.5,-56.5"/>
<text text-anchor="middle" x="530" y="-63.5" font-family="Helvetica,sans-Serif" font-size="10.00">cstddef</text>
</g>
<!-- Node5&#45;&gt;Node11 -->
<g id="edge10" class="edge"><title>Node5&#45;&gt;Node11</title>
<path fill="none" stroke="midnightblue" d="M641.084,-112.444C619.264,-103.517 584.85,-89.4387 560.108,-79.3168"/>
<polygon fill="midnightblue" stroke="midnightblue" points="561.399,-76.0634 550.818,-75.5164 558.748,-82.5422 561.399,-76.0634"/>
</g>
<!-- Node12 -->
<g id="node12" class="node"><title>Node12</title>
<polygon fill="white" stroke="#bfbfbf" points="572.5,-56.5 572.5,-75.5 617.5,-75.5 617.5,-56.5 572.5,-56.5"/>
<text text-anchor="middle" x="595" y="-63.5" font-family="Helvetica,sans-Serif" font-size="10.00">cstdlib</text>
</g>
<!-- Node5&#45;&gt;Node12 -->
<g id="edge11" class="edge"><title>Node5&#45;&gt;Node12</title>
<path fill="none" stroke="midnightblue" d="M651.235,-112.324C641.234,-104.263 626.113,-92.0765 614.07,-82.3695"/>
<polygon fill="midnightblue" stroke="midnightblue" points="615.943,-79.3841 605.961,-75.8339 611.55,-84.8343 615.943,-79.3841"/>
</g>
<!-- Node13 -->
<g id="node13" class="node"><title>Node13</title>
<polygon fill="white" stroke="#bfbfbf" points="636,-56.5 636,-75.5 680,-75.5 680,-56.5 636,-56.5"/>
<text text-anchor="middle" x="658" y="-63.5" font-family="Helvetica,sans-Serif" font-size="10.00">cerrno</text>
</g>
<!-- Node5&#45;&gt;Node13 -->
<g id="edge12" class="edge"><title>Node5&#45;&gt;Node13</title>
<path fill="none" stroke="midnightblue" d="M661.339,-112.083C660.815,-105.006 660.064,-94.8611 659.406,-85.9865"/>
<polygon fill="midnightblue" stroke="midnightblue" points="662.877,-85.4652 658.648,-75.7511 655.897,-85.9823 662.877,-85.4652"/>
</g>
<!-- Node14 -->
<g id="node14" class="node"><title>Node14</title>
<polygon fill="white" stroke="#bfbfbf" points="698,-56.5 698,-75.5 744,-75.5 744,-56.5 698,-56.5"/>
<text text-anchor="middle" x="721" y="-63.5" font-family="Helvetica,sans-Serif" font-size="10.00">cstring</text>
</g>
<!-- Node5&#45;&gt;Node14 -->
<g id="edge13" class="edge"><title>Node5&#45;&gt;Node14</title>
<path fill="none" stroke="midnightblue" d="M671.479,-112.324C680.201,-104.341 693.343,-92.3128 703.898,-82.6529"/>
<polygon fill="midnightblue" stroke="midnightblue" points="706.334,-85.1674 711.348,-75.8339 701.608,-80.0036 706.334,-85.1674"/>
</g>
<!-- Node5&#45;&gt;Node15 -->
<g id="edge14" class="edge"><title>Node5&#45;&gt;Node15</title>
<path fill="none" stroke="midnightblue" d="M600.319,-119.995C499.735,-117.474 294.17,-108.642 112.24,-75.8655"/>
<polygon fill="midnightblue" stroke="midnightblue" points="112.689,-72.3897 102.223,-74.0319 111.429,-79.2753 112.689,-72.3897"/>
</g>
<!-- Node16 -->
<g id="node16" class="node"><title>Node16</title>
<polygon fill="white" stroke="#bfbfbf" points="762.5,-56.5 762.5,-75.5 807.5,-75.5 807.5,-56.5 762.5,-56.5"/>
<text text-anchor="middle" x="785" y="-63.5" font-family="Helvetica,sans-Serif" font-size="10.00">iosfwd</text>
</g>
<!-- Node5&#45;&gt;Node16 -->
<g id="edge15" class="edge"><title>Node5&#45;&gt;Node16</title>
<path fill="none" stroke="midnightblue" d="M681.49,-112.444C701.642,-103.596 733.323,-89.6875 756.331,-79.5865"/>
<polygon fill="midnightblue" stroke="midnightblue" points="757.852,-82.7411 765.601,-75.5164 755.038,-76.3316 757.852,-82.7411"/>
</g>
<!-- Node17 -->
<g id="node17" class="node"><title>Node17</title>
<polygon fill="white" stroke="#bfbfbf" points="825.5,-56.5 825.5,-75.5 876.5,-75.5 876.5,-56.5 825.5,-56.5"/>
<text text-anchor="middle" x="851" y="-63.5" font-family="Helvetica,sans-Serif" font-size="10.00">unistd.h</text>
</g>
<!-- Node5&#45;&gt;Node17 -->
<g id="edge17" class="edge"><title>Node5&#45;&gt;Node17</title>
<path fill="none" stroke="midnightblue" d="M691.948,-112.444C725.484,-102.862 779.798,-87.3435 815.458,-77.1548"/>
<polygon fill="midnightblue" stroke="midnightblue" points="816.782,-80.4168 825.435,-74.3042 814.859,-73.6861 816.782,-80.4168"/>
</g>
<!-- Node18 -->
<g id="node18" class="node"><title>Node18</title>
<polygon fill="white" stroke="#bfbfbf" points="895,-56.5 895,-75.5 939,-75.5 939,-56.5 895,-56.5"/>
<text text-anchor="middle" x="917" y="-63.5" font-family="Helvetica,sans-Serif" font-size="10.00">fcntl.h</text>
</g>
<!-- Node5&#45;&gt;Node18 -->
<g id="edge18" class="edge"><title>Node5&#45;&gt;Node18</title>
<path fill="none" stroke="midnightblue" d="M709.644,-112.458C752.827,-104.475 818.407,-91.7537 884.867,-75.8746"/>
<polygon fill="midnightblue" stroke="midnightblue" points="885.776,-79.2559 894.677,-73.5091 884.135,-72.451 885.776,-79.2559"/>
</g>
<!-- Node19 -->
<g id="node19" class="node"><title>Node19</title>
<polygon fill="white" stroke="#bfbfbf" points="1465.5,-56.5 1465.5,-75.5 1506.5,-75.5 1506.5,-56.5 1465.5,-56.5"/>
<text text-anchor="middle" x="1486" y="-63.5" font-family="Helvetica,sans-Serif" font-size="10.00">string</text>
</g>
<!-- Node5&#45;&gt;Node19 -->
<g id="edge19" class="edge"><title>Node5&#45;&gt;Node19</title>
<path fill="none" stroke="midnightblue" d="M723.712,-118.338C891.675,-110.98 1350.89,-90.0709 1455.5,-75.4191"/>
<polygon fill="midnightblue" stroke="midnightblue" points="1456.16,-78.8584 1465.5,-73.8433 1455.07,-71.9438 1456.16,-78.8584"/>
</g>
<!-- Node20 -->
<g id="node20" class="node"><title>Node20</title>
<polygon fill="white" stroke="#bfbfbf" points="244,-0.5 244,-19.5 288,-19.5 288,-0.5 244,-0.5"/>
<text text-anchor="middle" x="266" y="-7.5" font-family="Helvetica,sans-Serif" font-size="10.00">vector</text>
</g>
<!-- Node5&#45;&gt;Node20 -->
<g id="edge20" class="edge"><title>Node5&#45;&gt;Node20</title>
<path fill="none" stroke="midnightblue" d="M600.185,-118.691C513.765,-114.509 362.126,-103.416 315,-76 296.362,-65.1572 282.535,-44.1495 274.405,-28.9453"/>
<polygon fill="midnightblue" stroke="midnightblue" points="277.506,-27.3231 269.891,-19.9572 271.251,-30.4644 277.506,-27.3231"/>
</g>
<!-- Node21 -->
<g id="node21" class="node"><title>Node21</title>
<polygon fill="white" stroke="#bfbfbf" points="957.5,-56.5 957.5,-75.5 1000.5,-75.5 1000.5,-56.5 957.5,-56.5"/>
<text text-anchor="middle" x="979" y="-63.5" font-family="Helvetica,sans-Serif" font-size="10.00">deque</text>
</g>
<!-- Node5&#45;&gt;Node21 -->
<g id="edge21" class="edge"><title>Node5&#45;&gt;Node21</title>
<path fill="none" stroke="midnightblue" d="M723.513,-113.61C779.502,-106.366 864.563,-94.0679 947.563,-75.8394"/>
<polygon fill="midnightblue" stroke="midnightblue" points="948.41,-79.2365 957.41,-73.6462 946.888,-72.4039 948.41,-79.2365"/>
</g>
<!-- Node22 -->
<g id="node22" class="node"><title>Node22</title>
<polygon fill="white" stroke="#bfbfbf" points="1283,-0.5 1283,-19.5 1327,-19.5 1327,-0.5 1283,-0.5"/>
<text text-anchor="middle" x="1305" y="-7.5" font-family="Helvetica,sans-Serif" font-size="10.00">mutex</text>
</g>
<!-- Node5&#45;&gt;Node22 -->
<g id="edge22" class="edge"><title>Node5&#45;&gt;Node22</title>
<path fill="none" stroke="midnightblue" d="M723.644,-117.514C879.404,-108.583 1277.22,-84.9554 1288,-76 1301.3,-64.9502 1304.89,-44.9065 1305.57,-29.9875"/>
<polygon fill="midnightblue" stroke="midnightblue" points="1309.07,-29.8311 1305.62,-19.8117 1302.07,-29.792 1309.07,-29.8311"/>
</g>
<!-- Node23 -->
<g id="node23" class="node"><title>Node23</title>
<polygon fill="white" stroke="#bfbfbf" points="1345,-0.5 1345,-19.5 1389,-19.5 1389,-0.5 1345,-0.5"/>
<text text-anchor="middle" x="1367" y="-7.5" font-family="Helvetica,sans-Serif" font-size="10.00">thread</text>
</g>
<!-- Node5&#45;&gt;Node23 -->
<g id="edge23" class="edge"><title>Node5&#45;&gt;Node23</title>
<path fill="none" stroke="midnightblue" d="M723.607,-117.952C880.015,-110.048 1281.97,-88.6272 1308,-76 1329.35,-65.6443 1346.55,-43.844 1356.76,-28.3493"/>
<polygon fill="midnightblue" stroke="midnightblue" points="1359.85,-30.0098 1362.18,-19.6752 1353.91,-26.2986 1359.85,-30.0098"/>
</g>
<!-- Node24 -->
<g id="node24" class="node"><title>Node24</title>
<polygon fill="white" stroke="#bfbfbf" points="482.5,-0.5 482.5,-19.5 577.5,-19.5 577.5,-0.5 482.5,-0.5"/>
<text text-anchor="middle" x="530" y="-7.5" font-family="Helvetica,sans-Serif" font-size="10.00">condition_variable</text>
</g>
<!-- Node5&#45;&gt;Node24 -->
<g id="edge24" class="edge"><title>Node5&#45;&gt;Node24</title>
<path fill="none" stroke="midnightblue" d="M600.332,-121.939C513.704,-121.786 362.661,-115.644 328,-76 285.039,-26.8632 398.288,-14.6061 472.11,-11.7166"/>
<polygon fill="midnightblue" stroke="midnightblue" points="472.371,-15.2098 482.245,-11.3682 472.13,-8.21397 472.371,-15.2098"/>
</g>
<!-- Node25 -->
<g id="node25" class="node"><title>Node25</title>
<polygon fill="white" stroke="#bfbfbf" points="946.5,-0.5 946.5,-19.5 989.5,-19.5 989.5,-0.5 946.5,-0.5"/>
<text text-anchor="middle" x="968" y="-7.5" font-family="Helvetica,sans-Serif" font-size="10.00">queue</text>
</g>
<!-- Node5&#45;&gt;Node25 -->
<g id="edge25" class="edge"><title>Node5&#45;&gt;Node25</title>
<path fill="none" stroke="midnightblue" d="M600.407,-120.869C521.496,-119.239 391.264,-111.125 361,-76 355.198,-69.2659 354.951,-62.5136 361,-56 380.762,-34.7189 814.311,-16.7995 936.313,-12.1647"/>
<polygon fill="midnightblue" stroke="midnightblue" points="936.626,-15.6554 946.488,-11.7816 936.363,-8.66037 936.626,-15.6554"/>
</g>
<!-- Node26 -->
<g id="node26" class="node"><title>Node26</title>
<polygon fill="white" stroke="#bfbfbf" points="1395,-56.5 1395,-75.5 1447,-75.5 1447,-56.5 1395,-56.5"/>
<text text-anchor="middle" x="1421" y="-63.5" font-family="Helvetica,sans-Serif" font-size="10.00">sstream</text>
</g>
<!-- Node5&#45;&gt;Node26 -->
<g id="edge26" class="edge"><title>Node5&#45;&gt;Node26</title>
<path fill="none" stroke="midnightblue" d="M723.589,-118.406C873.59,-111.884 1254.79,-94.032 1381,-76 1382.27,-75.8188 1383.56,-75.6186 1384.85,-75.4029"/>
<polygon fill="midnightblue" stroke="midnightblue" points="1385.69,-78.8075 1394.86,-73.5065 1384.38,-71.9299 1385.69,-78.8075"/>
</g>
<!-- Node27 -->
<g id="node27" class="node"><title>Node27</title>
<polygon fill="white" stroke="#bfbfbf" points="1229.5,-0.5 1229.5,-19.5 1264.5,-19.5 1264.5,-0.5 1229.5,-0.5"/>
<text text-anchor="middle" x="1247" y="-7.5" font-family="Helvetica,sans-Serif" font-size="10.00">map</text>
</g>
<!-- Node5&#45;&gt;Node27 -->
<g id="edge27" class="edge"><title>Node5&#45;&gt;Node27</title>
<path fill="none" stroke="midnightblue" d="M723.601,-117.556C876.677,-108.856 1262.73,-85.9744 1272,-76 1284.54,-62.5022 1273.29,-42.0444 1262.14,-27.6939"/>
<polygon fill="midnightblue" stroke="midnightblue" points="1264.52,-25.0851 1255.41,-19.6648 1259.15,-29.579 1264.52,-25.0851"/>
</g>
<!-- Node28 -->
<g id="node28" class="node"><title>Node28</title>
<g id="a_node28"><a xlink:href="cosmos-defs_8h.html" target="_top" xlink:title="COSMOS definitions Definitions specific to the COSMOS environement. ">
<polygon fill="white" stroke="black" points="1147,-56.5 1147,-75.5 1263,-75.5 1263,-56.5 1147,-56.5"/>
<text text-anchor="middle" x="1205" y="-63.5" font-family="Helvetica,sans-Serif" font-size="10.00">support/cosmos&#45;defs.h</text>
</a>
</g>
</g>
<!-- Node5&#45;&gt;Node28 -->
<g id="edge28" class="edge"><title>Node5&#45;&gt;Node28</title>
<path fill="none" stroke="midnightblue" d="M723.698,-115.946C812.582,-108.493 982.073,-93.6364 1136.75,-76.1034"/>
<polygon fill="midnightblue" stroke="midnightblue" points="1137.37,-79.5548 1146.91,-74.9448 1136.58,-72.5998 1137.37,-79.5548"/>
</g>
<!-- Node28&#45;&gt;Node20 -->
<g id="edge30" class="edge"><title>Node28&#45;&gt;Node20</title>
<path fill="none" stroke="midnightblue" d="M1146.93,-56.9031C1143.91,-56.5752 1140.92,-56.2711 1138,-56 1053.24,-48.133 445.848,-19.4251 298.257,-12.5073"/>
<polygon fill="midnightblue" stroke="midnightblue" points="298.208,-9.00126 288.055,-12.0295 297.881,-15.9936 298.208,-9.00126"/>
</g>
<!-- Node28&#45;&gt;Node22 -->
<g id="edge34" class="edge"><title>Node28&#45;&gt;Node22</title>
<path fill="none" stroke="midnightblue" d="M1221.07,-56.324C1236.96,-47.7428 1261.51,-34.486 1279.96,-24.5224"/>
<polygon fill="midnightblue" stroke="midnightblue" points="1281.84,-27.4857 1288.97,-19.6545 1278.51,-21.3264 1281.84,-27.4857"/>
</g>
<!-- Node28&#45;&gt;Node23 -->
<g id="edge33" class="edge"><title>Node28&#45;&gt;Node23</title>
<path fill="none" stroke="midnightblue" d="M1230.67,-56.4435C1258.96,-47.0118 1304.52,-31.8282 1335.09,-21.6375"/>
<polygon fill="midnightblue" stroke="midnightblue" points="1336.45,-24.8711 1344.83,-18.3884 1334.24,-18.2304 1336.45,-24.8711"/>
</g>
<!-- Node28&#45;&gt;Node24 -->
<g id="edge35" class="edge"><title>Node28&#45;&gt;Node24</title>
<path fill="none" stroke="midnightblue" d="M1146.92,-56.9826C1143.91,-56.634 1140.92,-56.3037 1138,-56 936.323,-35.0101 696.014,-20.2352 587.827,-14.1278"/>
<polygon fill="midnightblue" stroke="midnightblue" points="587.956,-10.6296 577.775,-13.5639 587.563,-17.6186 587.956,-10.6296"/>
</g>
<!-- Node28&#45;&gt;Node25 -->
<g id="edge32" class="edge"><title>Node28&#45;&gt;Node25</title>
<path fill="none" stroke="midnightblue" d="M1167.45,-56.4435C1121.14,-45.8935 1043.26,-28.147 999.781,-18.2412"/>
<polygon fill="midnightblue" stroke="midnightblue" points="1000.29,-14.7684 989.766,-15.9593 998.738,-21.5935 1000.29,-14.7684"/>
</g>
<!-- Node28&#45;&gt;Node27 -->
<g id="edge29" class="edge"><title>Node28&#45;&gt;Node27</title>
<path fill="none" stroke="midnightblue" d="M1211.94,-56.083C1217.93,-48.3768 1226.75,-37.0333 1234.05,-27.6531"/>
<polygon fill="midnightblue" stroke="midnightblue" points="1236.82,-29.7934 1240.19,-19.7511 1231.29,-25.4958 1236.82,-29.7934"/>
</g>
<!-- Node29 -->
<g id="node29" class="node"><title>Node29</title>
<polygon fill="white" stroke="#bfbfbf" points="1182.5,-0.5 1182.5,-19.5 1211.5,-19.5 1211.5,-0.5 1182.5,-0.5"/>
<text text-anchor="middle" x="1197" y="-7.5" font-family="Helvetica,sans-Serif" font-size="10.00">list</text>
</g>
<!-- Node28&#45;&gt;Node29 -->
<g id="edge31" class="edge"><title>Node28&#45;&gt;Node29</title>
<path fill="none" stroke="midnightblue" d="M1203.68,-56.083C1202.62,-48.9272 1201.09,-38.6353 1199.77,-29.6911"/>
<polygon fill="midnightblue" stroke="midnightblue" points="1203.22,-29.1302 1198.3,-19.7511 1196.3,-30.1561 1203.22,-29.1302"/>
</g>
<!-- Node30&#45;&gt;Node5 -->
<g id="edge37" class="edge"><title>Node30&#45;&gt;Node5</title>
<path fill="none" stroke="midnightblue" d="M676.412,-336.297C674.205,-303.633 666.383,-187.866 663.281,-141.957"/>
<polygon fill="midnightblue" stroke="midnightblue" points="666.767,-141.625 662.6,-131.884 659.782,-142.097 666.767,-141.625"/>
</g>
<!-- Node31 -->
<g id="node31" class="node"><title>Node31</title>
<polygon fill="white" stroke="#bfbfbf" points="716.5,-280.5 716.5,-299.5 763.5,-299.5 763.5,-280.5 716.5,-280.5"/>
<text text-anchor="middle" x="740" y="-287.5" font-family="Helvetica,sans-Serif" font-size="10.00">errno.h</text>
</g>
<!-- Node30&#45;&gt;Node31 -->
<g id="edge38" class="edge"><title>Node30&#45;&gt;Node31</title>
<path fill="none" stroke="midnightblue" d="M687.122,-336.324C696.526,-328.263 710.744,-316.077 722.069,-306.369"/>
<polygon fill="midnightblue" stroke="midnightblue" points="724.379,-308.999 729.694,-299.834 719.823,-303.684 724.379,-308.999"/>
</g>
<!-- Node32&#45;&gt;Node5 -->
<g id="edge40" class="edge"><title>Node32&#45;&gt;Node5</title>
<path fill="none" stroke="midnightblue" d="M324.053,-170.409C328.733,-169.564 333.481,-168.737 338,-168 424.455,-153.899 524.353,-140.454 590.107,-131.993"/>
<polygon fill="midnightblue" stroke="midnightblue" points="590.886,-135.422 600.359,-130.679 589.995,-128.479 590.886,-135.422"/>
</g>
<!-- Node32&#45;&gt;Node8 -->
<g id="edge41" class="edge"><title>Node32&#45;&gt;Node8</title>
<path fill="none" stroke="midnightblue" d="M284.115,-168.368C271.738,-150.215 242.819,-107.802 226.584,-83.9902"/>
<polygon fill="midnightblue" stroke="midnightblue" points="229.383,-81.882 220.858,-75.5914 223.599,-85.8254 229.383,-81.882"/>
</g>
<!-- Node33&#45;&gt;Node2 -->
<g id="edge45" class="edge"><title>Node33&#45;&gt;Node2</title>
<path fill="none" stroke="midnightblue" d="M293.415,-224.183C280.763,-215.664 261.698,-202.02 247,-188 211.504,-154.14 176.485,-108.073 158.821,-83.7068"/>
<polygon fill="midnightblue" stroke="midnightblue" points="161.609,-81.5878 152.936,-75.5013 155.92,-85.6673 161.609,-81.5878"/>
</g>
<!-- Node33&#45;&gt;Node3 -->
<g id="edge46" class="edge"><title>Node33&#45;&gt;Node3</title>
<path fill="none" stroke="midnightblue" d="M322.745,-224.324C338.319,-215.743 362.377,-202.486 380.459,-192.522"/>
<polygon fill="midnightblue" stroke="midnightblue" points="382.224,-195.546 389.294,-187.655 378.846,-189.415 382.224,-195.546"/>
</g>
<!-- Node33&#45;&gt;Node5 -->
<g id="edge43" class="edge"><title>Node33&#45;&gt;Node5</title>
<path fill="none" stroke="midnightblue" d="M312.858,-224.09C322.877,-209.656 344.782,-181.427 371,-168 408.211,-148.944 516.656,-135.869 590.125,-128.911"/>
<polygon fill="midnightblue" stroke="midnightblue" points="590.615,-132.381 600.248,-127.97 589.967,-125.411 590.615,-132.381"/>
</g>
<!-- Node33&#45;&gt;Node15 -->
<g id="edge47" class="edge"><title>Node33&#45;&gt;Node15</title>
<path fill="none" stroke="midnightblue" d="M288.575,-224.353C271.333,-215.954 245.136,-202.392 224,-188 174.559,-154.334 122.146,-106.896 96.3263,-82.6311"/>
<polygon fill="midnightblue" stroke="midnightblue" points="98.5832,-79.948 88.9153,-75.614 93.7703,-85.031 98.5832,-79.948"/>
</g>
<!-- Node33&#45;&gt;Node20 -->
<g id="edge48" class="edge"><title>Node33&#45;&gt;Node20</title>
<path fill="none" stroke="midnightblue" d="M280.744,-226.935C224.73,-212.359 94.8842,-169.42 49,-76 45.0813,-68.0215 43.3889,-62.8941 49,-56 71.8832,-27.8846 178.653,-16.7779 233.416,-12.8737"/>
<polygon fill="midnightblue" stroke="midnightblue" points="233.893,-16.3497 243.635,-12.186 233.423,-9.36546 233.893,-16.3497"/>
</g>
<!-- Node33&#45;&gt;Node32 -->
<g id="edge44" class="edge"><title>Node33&#45;&gt;Node32</title>
<path fill="none" stroke="midnightblue" d="M304.193,-224.083C301.915,-216.849 298.629,-206.409 295.792,-197.397"/>
<polygon fill="midnightblue" stroke="midnightblue" points="299.096,-196.239 292.755,-187.751 292.419,-198.341 299.096,-196.239"/>
</g>
<!-- Node34&#45;&gt;Node5 -->
<g id="edge50" class="edge"><title>Node34&#45;&gt;Node5</title>
<path fill="none" stroke="midnightblue" d="M338.935,-280.473C360.005,-258.358 419.999,-198.739 482,-168 516.016,-151.136 556.865,-140.262 591.045,-133.436"/>
<polygon fill="midnightblue" stroke="midnightblue" points="591.799,-136.856 600.959,-131.532 590.478,-129.981 591.799,-136.856"/>
</g>
<!-- Node34&#45;&gt;Node33 -->
<g id="edge51" class="edge"><title>Node34&#45;&gt;Node33</title>
<path fill="none" stroke="midnightblue" d="M327.037,-280.083C323.787,-272.77 319.081,-262.181 315.046,-253.103"/>
<polygon fill="midnightblue" stroke="midnightblue" points="318.149,-251.468 310.889,-243.751 311.752,-254.311 318.149,-251.468"/>
</g>
<!-- Node35&#45;&gt;Node5 -->
<g id="edge53" class="edge"><title>Node35&#45;&gt;Node5</title>
<path fill="none" stroke="midnightblue" d="M376.895,-336.125C393.217,-307.35 448.802,-215.737 520,-168 544.57,-151.526 575.534,-140.79 602.272,-133.953"/>
<polygon fill="midnightblue" stroke="midnightblue" points="603.399,-137.281 612.29,-131.519 601.747,-130.479 603.399,-137.281"/>
</g>
<!-- Node35&#45;&gt;Node33 -->
<g id="edge54" class="edge"><title>Node35&#45;&gt;Node33</title>
<path fill="none" stroke="midnightblue" d="M373.29,-336.37C374.808,-323.285 375.99,-298.045 366,-280 358.691,-266.798 345.717,-256.256 333.794,-248.703"/>
<polygon fill="midnightblue" stroke="midnightblue" points="335.384,-245.578 324.991,-243.516 331.83,-251.609 335.384,-245.578"/>
</g>
<!-- Node35&#45;&gt;Node34 -->
<g id="edge55" class="edge"><title>Node35&#45;&gt;Node34</title>
<path fill="none" stroke="midnightblue" d="M365.23,-336.083C359.438,-328.455 350.942,-317.264 343.862,-307.941"/>
<polygon fill="midnightblue" stroke="midnightblue" points="346.479,-305.599 337.644,-299.751 340.904,-309.832 346.479,-305.599"/>
</g>
<!-- Node36&#45;&gt;Node5 -->
<g id="edge59" class="edge"><title>Node36&#45;&gt;Node5</title>
<path fill="none" stroke="midnightblue" d="M732.125,-392.463C755.75,-375.943 803,-337.135 803,-291 803,-291 803,-291 803,-233 803,-181.263 743.255,-150.272 701.546,-134.94"/>
<polygon fill="midnightblue" stroke="midnightblue" points="702.497,-131.565 691.902,-131.552 700.177,-138.169 702.497,-131.565"/>
</g>
<!-- Node36&#45;&gt;Node19 -->
<g id="edge65" class="edge"><title>Node36&#45;&gt;Node19</title>
<path fill="none" stroke="midnightblue" d="M746.531,-392.407C800.936,-373.519 917,-322.921 917,-235 917,-235 917,-235 917,-177 917,-143.759 925.879,-129.726 954,-112 1046.03,-53.9899 1329.88,-93.871 1455.3,-75.4932"/>
<polygon fill="midnightblue" stroke="midnightblue" points="1456.2,-78.8915 1465.49,-73.8016 1455.05,-71.986 1456.2,-78.8915"/>
</g>
<!-- Node36&#45;&gt;Node26 -->
<g id="edge66" class="edge"><title>Node36&#45;&gt;Node26</title>
<path fill="none" stroke="midnightblue" d="M741.454,-392.412C758.349,-384.976 781.068,-372.766 796,-356 874.754,-267.572 806.649,-180.834 903,-112 981.384,-56.0011 1239.09,-85.0138 1335,-76 1351.27,-74.4707 1369.26,-72.6143 1384.56,-70.9857"/>
<polygon fill="midnightblue" stroke="midnightblue" points="1385.1,-74.4481 1394.67,-69.9014 1384.35,-67.488 1385.1,-74.4481"/>
</g>
<!-- Node36&#45;&gt;Node31 -->
<g id="edge64" class="edge"><title>Node36&#45;&gt;Node31</title>
<path fill="none" stroke="midnightblue" d="M725.89,-392.319C732.269,-383.684 741.308,-369.77 745,-356 749.081,-340.781 747.244,-322.891 744.72,-309.737"/>
<polygon fill="midnightblue" stroke="midnightblue" points="748.048,-308.581 742.455,-299.582 741.216,-310.104 748.048,-308.581"/>
</g>
<!-- Node37 -->
<g id="node37" class="node"><title>Node37</title>
<g id="a_node37"><a xlink:href="jsonobject_8h.html" target="_top" xlink:title="support/jsonobject.h">
<polygon fill="white" stroke="black" points="495,-336.5 495,-355.5 599,-355.5 599,-336.5 495,-336.5"/>
<text text-anchor="middle" x="547" y="-343.5" font-family="Helvetica,sans-Serif" font-size="10.00">support/jsonobject.h</text>
</a>
</g>
</g>
<!-- Node36&#45;&gt;Node37 -->
<g id="edge60" class="edge"><title>Node36&#45;&gt;Node37</title>
<path fill="none" stroke="midnightblue" d="M691.746,-392.444C662.559,-383.28 616.079,-368.688 583.691,-358.519"/>
<polygon fill="midnightblue" stroke="midnightblue" points="584.716,-355.173 574.126,-355.516 582.619,-361.851 584.716,-355.173"/>
</g>
<!-- Node38 -->
<g id="node38" class="node"><title>Node38</title>
<g id="a_node38"><a xlink:href="jsonvalue_8h.html" target="_top" xlink:title="support/jsonvalue.h">
<polygon fill="white" stroke="black" points="533.5,-280.5 533.5,-299.5 634.5,-299.5 634.5,-280.5 533.5,-280.5"/>
<text text-anchor="middle" x="584" y="-287.5" font-family="Helvetica,sans-Serif" font-size="10.00">support/jsonvalue.h</text>
</a>
</g>
</g>
<!-- Node37&#45;&gt;Node38 -->
<g id="edge61" class="edge"><title>Node37&#45;&gt;Node38</title>
<path fill="none" stroke="midnightblue" d="M553.11,-336.083C558.282,-328.534 565.846,-317.495 572.194,-308.23"/>
<polygon fill="midnightblue" stroke="midnightblue" points="575.239,-309.979 578.004,-299.751 569.464,-306.022 575.239,-309.979"/>
</g>
<!-- Node38&#45;&gt;Node5 -->
<g id="edge62" class="edge"><title>Node38&#45;&gt;Node5</title>
<path fill="none" stroke="midnightblue" d="M588.194,-280.075C600.578,-253.719 637.154,-175.878 653.702,-140.661"/>
<polygon fill="midnightblue" stroke="midnightblue" points="656.889,-142.107 657.974,-131.568 650.554,-139.13 656.889,-142.107"/>
</g>
<!-- Node38&#45;&gt;Node33 -->
<g id="edge63" class="edge"><title>Node38&#45;&gt;Node33</title>
<path fill="none" stroke="midnightblue" d="M540.109,-280.444C485.59,-269.815 393.607,-251.884 343.022,-242.022"/>
<polygon fill="midnightblue" stroke="midnightblue" points="343.667,-238.582 333.182,-240.104 342.328,-245.453 343.667,-238.582"/>
</g>
<!-- Node39&#45;&gt;Node5 -->
<g id="edge68" class="edge"><title>Node39&#45;&gt;Node5</title>
<path fill="none" stroke="midnightblue" d="M860.771,-448.495C881.785,-442.151 904.39,-431.124 917,-412 921.893,-404.579 919.267,-400.595 917,-392 887.813,-281.341 877.785,-241.424 790,-168 770.317,-151.537 744.207,-140.936 720.704,-134.19"/>
<polygon fill="midnightblue" stroke="midnightblue" points="721.384,-130.749 710.818,-131.529 719.564,-137.508 721.384,-130.749"/>
</g>
<!-- Node39&#45;&gt;Node36 -->
<g id="edge69" class="edge"><title>Node39&#45;&gt;Node36</title>
<path fill="none" stroke="midnightblue" d="M797.058,-448.324C782.415,-439.822 759.866,-426.729 742.762,-416.797"/>
<polygon fill="midnightblue" stroke="midnightblue" points="744.31,-413.649 733.905,-411.655 740.795,-419.703 744.31,-413.649"/>
</g>
<!-- Node40 -->
<g id="node40" class="node"><title>Node40</title>
<polygon fill="white" stroke="#bfbfbf" points="858,-392.5 858,-411.5 908,-411.5 908,-392.5 858,-392.5"/>
<text text-anchor="middle" x="883" y="-399.5" font-family="Helvetica,sans-Serif" font-size="10.00">fstream</text>
</g>
<!-- Node39&#45;&gt;Node40 -->
<g id="edge70" class="edge"><title>Node39&#45;&gt;Node40</title>
<path fill="none" stroke="midnightblue" d="M823.407,-448.324C834.109,-440.185 850.341,-427.839 863.163,-418.087"/>
<polygon fill="midnightblue" stroke="midnightblue" points="865.544,-420.673 871.385,-411.834 861.307,-415.102 865.544,-420.673"/>
</g>
<!-- Node41 -->
<g id="node41" class="node"><title>Node41</title>
<polygon fill="white" stroke="#bfbfbf" points="784,-392.5 784,-411.5 840,-411.5 840,-392.5 784,-392.5"/>
<text text-anchor="middle" x="812" y="-399.5" font-family="Helvetica,sans-Serif" font-size="10.00">algorithm</text>
</g>
<!-- Node39&#45;&gt;Node41 -->
<g id="edge71" class="edge"><title>Node39&#45;&gt;Node41</title>
<path fill="none" stroke="midnightblue" d="M812,-448.083C812,-441.006 812,-430.861 812,-421.986"/>
<polygon fill="midnightblue" stroke="midnightblue" points="815.5,-421.751 812,-411.751 808.5,-421.751 815.5,-421.751"/>
</g>
<!-- Node42&#45;&gt;Node2 -->
<g id="edge74" class="edge"><title>Node42&#45;&gt;Node2</title>
<path fill="none" stroke="midnightblue" d="M945.484,-172.696C813.445,-162.068 474.523,-131.481 183.939,-75.9989"/>
<polygon fill="midnightblue" stroke="midnightblue" points="184.538,-72.55 174.057,-74.0988 183.216,-79.4241 184.538,-72.55"/>
</g>
<!-- Node42&#45;&gt;Node5 -->
<g id="edge73" class="edge"><title>Node42&#45;&gt;Node5</title>
<path fill="none" stroke="midnightblue" d="M948.126,-168.444C887.695,-158.846 789.762,-143.292 725.616,-133.104"/>
<polygon fill="midnightblue" stroke="midnightblue" points="726.047,-129.628 715.622,-131.516 724.949,-136.542 726.047,-129.628"/>
</g>
<!-- Node42&#45;&gt;Node19 -->
<g id="edge75" class="edge"><title>Node42&#45;&gt;Node19</title>
<path fill="none" stroke="midnightblue" d="M1045.13,-168.493C1124.43,-152.615 1298.84,-116.599 1455.58,-75.9537"/>
<polygon fill="midnightblue" stroke="midnightblue" points="1456.6,-79.3032 1465.4,-73.3947 1454.84,-72.5293 1456.6,-79.3032"/>
</g>
<!-- Node43 -->
<g id="node43" class="node"><title>Node43</title>
<polygon fill="white" stroke="#bfbfbf" points="963.5,-112.5 963.5,-131.5 1004.5,-131.5 1004.5,-112.5 963.5,-112.5"/>
<text text-anchor="middle" x="984" y="-119.5" font-family="Helvetica,sans-Serif" font-size="10.00">ctime</text>
</g>
<!-- Node42&#45;&gt;Node43 -->
<g id="edge76" class="edge"><title>Node42&#45;&gt;Node43</title>
<path fill="none" stroke="midnightblue" d="M999.028,-168.083C996.616,-160.849 993.136,-150.409 990.132,-141.397"/>
<polygon fill="midnightblue" stroke="midnightblue" points="993.4,-140.131 986.917,-131.751 986.759,-142.345 993.4,-140.131"/>
</g>
<!-- Node44 -->
<g id="node44" class="node"><title>Node44</title>
<polygon fill="white" stroke="#bfbfbf" points="1023,-112.5 1023,-131.5 1069,-131.5 1069,-112.5 1023,-112.5"/>
<text text-anchor="middle" x="1046" y="-119.5" font-family="Helvetica,sans-Serif" font-size="10.00">chrono</text>
</g>
<!-- Node42&#45;&gt;Node44 -->
<g id="edge77" class="edge"><title>Node42&#45;&gt;Node44</title>
<path fill="none" stroke="midnightblue" d="M1009.27,-168.083C1015.54,-160.377 1024.79,-149.033 1032.43,-139.653"/>
<polygon fill="midnightblue" stroke="midnightblue" points="1035.27,-141.714 1038.87,-131.751 1029.84,-137.293 1035.27,-141.714"/>
</g>
</g>
</svg>
