<?xml version="1.0" encoding="UTF-8" standalone="no"?>
<!DOCTYPE svg PUBLIC "-//W3C//DTD SVG 1.1//EN"
 "http://www.w3.org/Graphics/SVG/1.1/DTD/svg11.dtd">
<!-- Generated by graphviz version 2.38.0 (20140413.2041)
 -->
<!-- Title: print_utils.h Pages: 1 -->
<svg width="317pt" height="84pt"
 viewBox="0.00 0.00 316.50 84.00" xmlns="http://www.w3.org/2000/svg" xmlns:xlink="http://www.w3.org/1999/xlink">
<g id="graph0" class="graph" transform="scale(1 1) rotate(0) translate(4 80)">
<title>print_utils.h</title>
<polygon fill="white" stroke="none" points="-4,4 -4,-80 312.5,-80 312.5,4 -4,4"/>
<!-- Node1 -->
<g id="node1" class="node"><title>Node1</title>
<polygon fill="#bfbfbf" stroke="black" points="138,-56.5 138,-75.5 205,-75.5 205,-56.5 138,-56.5"/>
<text text-anchor="middle" x="171.5" y="-63.5" font-family="Helvetica,sans-Serif" font-size="10.00">print_utils.h</text>
</g>
<!-- Node2 -->
<g id="node2" class="node"><title>Node2</title>
<g id="a_node2"><a xlink:href="propagator__simple_8cpp.html" target="_top" xlink:title="propagator_simple.cpp">
<polygon fill="white" stroke="black" points="0,-0.5 0,-19.5 115,-19.5 115,-0.5 0,-0.5"/>
<text text-anchor="middle" x="57.5" y="-7.5" font-family="Helvetica,sans-Serif" font-size="10.00">propagator_simple.cpp</text>
</a>
</g>
</g>
<!-- Node1&#45;&gt;Node2 -->
<g id="edge1" class="edge"><title>Node1&#45;&gt;Node2</title>
<path fill="none" stroke="midnightblue" d="M144.258,-52.096C122.96,-42.0073 93.9583,-28.2697 75.4791,-19.5164"/>
<polygon fill="midnightblue" stroke="midnightblue" points="142.901,-55.3257 153.436,-56.4435 145.897,-48.9995 142.901,-55.3257"/>
</g>
<!-- Node3 -->
<g id="node3" class="node"><title>Node3</title>
<g id="a_node3"><a xlink:href="print__utils_8cpp.html" target="_top" xlink:title="print_utils.cpp">
<polygon fill="white" stroke="black" points="133,-0.5 133,-19.5 210,-19.5 210,-0.5 133,-0.5"/>
<text text-anchor="middle" x="171.5" y="-7.5" font-family="Helvetica,sans-Serif" font-size="10.00">print_utils.cpp</text>
</a>
</g>
</g>
<!-- Node1&#45;&gt;Node3 -->
<g id="edge2" class="edge"><title>Node1&#45;&gt;Node3</title>
<path fill="none" stroke="midnightblue" d="M171.5,-45.8045C171.5,-36.9102 171.5,-26.7798 171.5,-19.7511"/>
<polygon fill="midnightblue" stroke="midnightblue" points="168,-46.083 171.5,-56.083 175,-46.083 168,-46.083"/>
</g>
<!-- Node4 -->
<g id="node4" class="node"><title>Node4</title>
<g id="a_node4"><a xlink:href="agent__cpu_8cpp.html" target="_top" xlink:title="agent_cpu.cpp">
<polygon fill="white" stroke="black" points="228.5,-0.5 228.5,-19.5 308.5,-19.5 308.5,-0.5 228.5,-0.5"/>
<text text-anchor="middle" x="268.5" y="-7.5" font-family="Helvetica,sans-Serif" font-size="10.00">agent_cpu.cpp</text>
</a>
</g>
</g>
<!-- Node1&#45;&gt;Node4 -->
<g id="edge3" class="edge"><title>Node1&#45;&gt;Node4</title>
<path fill="none" stroke="midnightblue" d="M195.835,-51.4526C213.743,-41.4835 237.554,-28.2279 252.954,-19.6545"/>
<polygon fill="midnightblue" stroke="midnightblue" points="194.12,-48.4018 187.085,-56.324 197.525,-54.5179 194.12,-48.4018"/>
</g>
</g>
</svg>
