<?xml version="1.0" encoding="UTF-8" standalone="no"?>
<!DOCTYPE svg PUBLIC "-//W3C//DTD SVG 1.1//EN"
 "http://www.w3.org/Graphics/SVG/1.1/DTD/svg11.dtd">
<!-- Generated by graphviz version 2.38.0 (20140413.2041)
 -->
<!-- Title: print_utils.h Pages: 1 -->
<svg width="1497pt" height="476pt"
 viewBox="0.00 0.00 1496.50 476.00" xmlns="http://www.w3.org/2000/svg" xmlns:xlink="http://www.w3.org/1999/xlink">
<g id="graph0" class="graph" transform="scale(1 1) rotate(0) translate(4 472)">
<title>print_utils.h</title>
<polygon fill="white" stroke="none" points="-4,4 -4,-472 1492.5,-472 1492.5,4 -4,4"/>
<!-- Node1 -->
<g id="node1" class="node"><title>Node1</title>
<polygon fill="#bfbfbf" stroke="black" points="140,-448.5 140,-467.5 207,-467.5 207,-448.5 140,-448.5"/>
<text text-anchor="middle" x="173.5" y="-455.5" font-family="Helvetica,sans-Serif" font-size="10.00">print_utils.h</text>
</g>
<!-- Node2 -->
<g id="node2" class="node"><title>Node2</title>
<g id="a_node2"><a xlink:href="config_cosmos_8h.html" target="_top" xlink:title="Headers and definitions common to all COSMOS. ">
<polygon fill="white" stroke="black" points="592,-112.5 592,-131.5 715,-131.5 715,-112.5 592,-112.5"/>
<text text-anchor="middle" x="653.5" y="-119.5" font-family="Helvetica,sans-Serif" font-size="10.00">support/configCosmos.h</text>
</a>
</g>
</g>
<!-- Node1&#45;&gt;Node2 -->
<g id="edge1" class="edge"><title>Node1&#45;&gt;Node2</title>
<path fill="none" stroke="midnightblue" d="M207.026,-454.905C339.923,-446.161 822.5,-410.069 822.5,-347 822.5,-347 822.5,-347 822.5,-233 822.5,-176.995 756.502,-148.03 706.993,-134.18"/>
<polygon fill="midnightblue" stroke="midnightblue" points="707.585,-130.716 697.022,-131.529 705.787,-137.481 707.585,-130.716"/>
</g>
<!-- Node14 -->
<g id="node14" class="node"><title>Node14</title>
<polygon fill="white" stroke="#bfbfbf" points="59.5,-56.5 59.5,-75.5 113.5,-75.5 113.5,-56.5 59.5,-56.5"/>
<text text-anchor="middle" x="86.5" y="-63.5" font-family="Helvetica,sans-Serif" font-size="10.00">iostream</text>
</g>
<!-- Node1&#45;&gt;Node14 -->
<g id="edge57" class="edge"><title>Node1&#45;&gt;Node14</title>
<path fill="none" stroke="midnightblue" d="M152.855,-448.421C120.004,-433.231 59.5,-398.293 59.5,-347 59.5,-347 59.5,-347 59.5,-177 59.5,-143.861 71.201,-106.682 79.1973,-85.1445"/>
<polygon fill="midnightblue" stroke="midnightblue" points="82.5216,-86.2517 82.8587,-75.6622 75.9915,-83.7302 82.5216,-86.2517"/>
</g>
<!-- Node17 -->
<g id="node17" class="node"><title>Node17</title>
<polygon fill="white" stroke="#bfbfbf" points="0,-56.5 0,-75.5 41,-75.5 41,-56.5 0,-56.5"/>
<text text-anchor="middle" x="20.5" y="-63.5" font-family="Helvetica,sans-Serif" font-size="10.00">string</text>
</g>
<!-- Node1&#45;&gt;Node17 -->
<g id="edge58" class="edge"><title>Node1&#45;&gt;Node17</title>
<path fill="none" stroke="midnightblue" d="M139.766,-448.736C94.9858,-435.513 21.5,-404.982 21.5,-347 21.5,-347 21.5,-347 21.5,-177 21.5,-144.947 21.0702,-107.642 20.7741,-85.7484"/>
<polygon fill="midnightblue" stroke="midnightblue" points="24.2712,-85.5073 20.6307,-75.5575 17.2719,-85.6058 24.2712,-85.5073"/>
</g>
<!-- Node24 -->
<g id="node24" class="node"><title>Node24</title>
<polygon fill="white" stroke="#bfbfbf" points="131.5,-56.5 131.5,-75.5 183.5,-75.5 183.5,-56.5 131.5,-56.5"/>
<text text-anchor="middle" x="157.5" y="-63.5" font-family="Helvetica,sans-Serif" font-size="10.00">sstream</text>
</g>
<!-- Node1&#45;&gt;Node24 -->
<g id="edge59" class="edge"><title>Node1&#45;&gt;Node24</title>
<path fill="none" stroke="midnightblue" d="M173.5,-448.442C173.5,-429.936 173.5,-384.812 173.5,-347 173.5,-347 173.5,-347 173.5,-177 173.5,-144.626 166.629,-107.445 161.893,-85.6593"/>
<polygon fill="midnightblue" stroke="midnightblue" points="165.277,-84.7588 159.658,-75.7771 158.45,-86.3028 165.277,-84.7588"/>
</g>
<!-- Node28 -->
<g id="node28" class="node"><title>Node28</title>
<g id="a_node28"><a xlink:href="mathlib_8h.html" target="_top" xlink:title="mathlib include file ">
<polygon fill="white" stroke="black" points="462,-392.5 462,-411.5 543,-411.5 543,-392.5 462,-392.5"/>
<text text-anchor="middle" x="502.5" y="-399.5" font-family="Helvetica,sans-Serif" font-size="10.00">math/mathlib.h</text>
</a>
</g>
</g>
<!-- Node1&#45;&gt;Node28 -->
<g id="edge33" class="edge"><title>Node1&#45;&gt;Node28</title>
<path fill="none" stroke="midnightblue" d="M207.163,-451.475C265.111,-441.964 384.018,-422.447 451.952,-411.297"/>
<polygon fill="midnightblue" stroke="midnightblue" points="452.695,-414.722 461.996,-409.648 451.561,-407.814 452.695,-414.722"/>
</g>
<!-- Node3 -->
<g id="node3" class="node"><title>Node3</title>
<polygon fill="white" stroke="#bfbfbf" points="1113,-56.5 1113,-75.5 1158,-75.5 1158,-56.5 1113,-56.5"/>
<text text-anchor="middle" x="1135.5" y="-63.5" font-family="Helvetica,sans-Serif" font-size="10.00">climits</text>
</g>
<!-- Node2&#45;&gt;Node3 -->
<g id="edge2" class="edge"><title>Node2&#45;&gt;Node3</title>
<path fill="none" stroke="midnightblue" d="M715.226,-113.779C720.728,-113.165 726.214,-112.564 731.5,-112 894.468,-94.6063 936.919,-103.436 1098.5,-76 1099.97,-75.751 1101.46,-75.4762 1102.97,-75.1822"/>
<polygon fill="midnightblue" stroke="midnightblue" points="1103.87,-78.567 1112.91,-73.0298 1102.39,-71.7256 1103.87,-78.567"/>
</g>
<!-- Node4 -->
<g id="node4" class="node"><title>Node4</title>
<polygon fill="white" stroke="#bfbfbf" points="1176,-56.5 1176,-75.5 1223,-75.5 1223,-56.5 1176,-56.5"/>
<text text-anchor="middle" x="1199.5" y="-63.5" font-family="Helvetica,sans-Serif" font-size="10.00">csignal</text>
</g>
<!-- Node2&#45;&gt;Node4 -->
<g id="edge3" class="edge"><title>Node2&#45;&gt;Node4</title>
<path fill="none" stroke="midnightblue" d="M715.217,-113.691C720.721,-113.096 726.21,-112.523 731.5,-112 921.686,-93.1811 974.354,-109.888 1165.74,-76.01"/>
<polygon fill="midnightblue" stroke="midnightblue" points="1166.63,-79.4072 1175.85,-74.1966 1165.39,-72.5171 1166.63,-79.4072"/>
</g>
<!-- Node5 -->
<g id="node5" class="node"><title>Node5</title>
<polygon fill="white" stroke="#bfbfbf" points="239.5,-56.5 239.5,-75.5 285.5,-75.5 285.5,-56.5 239.5,-56.5"/>
<text text-anchor="middle" x="262.5" y="-63.5" font-family="Helvetica,sans-Serif" font-size="10.00">cstdint</text>
</g>
<!-- Node2&#45;&gt;Node5 -->
<g id="edge4" class="edge"><title>Node2&#45;&gt;Node5</title>
<path fill="none" stroke="midnightblue" d="M591.783,-115.274C520.889,-108.208 401.243,-94.7796 299.5,-76 298.22,-75.7638 296.918,-75.5106 295.605,-75.2446"/>
<polygon fill="midnightblue" stroke="midnightblue" points="296.026,-71.7533 285.507,-73.019 294.519,-78.5893 296.026,-71.7533"/>
</g>
<!-- Node6 -->
<g id="node6" class="node"><title>Node6</title>
<polygon fill="white" stroke="#bfbfbf" points="1241.5,-56.5 1241.5,-75.5 1297.5,-75.5 1297.5,-56.5 1241.5,-56.5"/>
<text text-anchor="middle" x="1269.5" y="-63.5" font-family="Helvetica,sans-Serif" font-size="10.00">cinttypes</text>
</g>
<!-- Node2&#45;&gt;Node6 -->
<g id="edge5" class="edge"><title>Node2&#45;&gt;Node6</title>
<path fill="none" stroke="midnightblue" d="M715.211,-113.631C720.716,-113.049 726.207,-112.495 731.5,-112 950.514,-91.5054 1010.2,-109.945 1231.35,-75.9214"/>
<polygon fill="midnightblue" stroke="midnightblue" points="1231.97,-79.3658 1241.32,-74.3689 1230.9,-72.4491 1231.97,-79.3658"/>
</g>
<!-- Node7 -->
<g id="node7" class="node"><title>Node7</title>
<polygon fill="white" stroke="#bfbfbf" points="1316,-56.5 1316,-75.5 1359,-75.5 1359,-56.5 1316,-56.5"/>
<text text-anchor="middle" x="1337.5" y="-63.5" font-family="Helvetica,sans-Serif" font-size="10.00">cstdio</text>
</g>
<!-- Node2&#45;&gt;Node7 -->
<g id="edge6" class="edge"><title>Node2&#45;&gt;Node7</title>
<path fill="none" stroke="midnightblue" d="M715.206,-113.578C720.712,-113.007 726.205,-112.471 731.5,-112 983.311,-89.6051 1052.5,-119.192 1306.09,-75.6269"/>
<polygon fill="midnightblue" stroke="midnightblue" points="1306.71,-79.0714 1315.96,-73.9098 1305.51,-72.1748 1306.71,-79.0714"/>
</g>
<!-- Node8 -->
<g id="node8" class="node"><title>Node8</title>
<polygon fill="white" stroke="#bfbfbf" points="1377,-56.5 1377,-75.5 1426,-75.5 1426,-56.5 1377,-56.5"/>
<text text-anchor="middle" x="1401.5" y="-63.5" font-family="Helvetica,sans-Serif" font-size="10.00">cstddef</text>
</g>
<!-- Node2&#45;&gt;Node8 -->
<g id="edge7" class="edge"><title>Node2&#45;&gt;Node8</title>
<path fill="none" stroke="midnightblue" d="M715.203,-113.543C720.71,-112.98 726.203,-112.455 731.5,-112 1010.71,-88.0224 1086.84,-120.771 1366.71,-75.9733"/>
<polygon fill="midnightblue" stroke="midnightblue" points="1367.44,-79.4006 1376.76,-74.3467 1366.33,-72.4907 1367.44,-79.4006"/>
</g>
<!-- Node9 -->
<g id="node9" class="node"><title>Node9</title>
<polygon fill="white" stroke="#bfbfbf" points="342,-56.5 342,-75.5 387,-75.5 387,-56.5 342,-56.5"/>
<text text-anchor="middle" x="364.5" y="-63.5" font-family="Helvetica,sans-Serif" font-size="10.00">cstdlib</text>
</g>
<!-- Node2&#45;&gt;Node9 -->
<g id="edge8" class="edge"><title>Node2&#45;&gt;Node9</title>
<path fill="none" stroke="midnightblue" d="M594.986,-112.476C544.924,-104.793 470.783,-92.4919 397.076,-75.9322"/>
<polygon fill="midnightblue" stroke="midnightblue" points="397.68,-72.4803 387.153,-73.676 396.128,-79.3061 397.68,-72.4803"/>
</g>
<!-- Node10 -->
<g id="node10" class="node"><title>Node10</title>
<polygon fill="white" stroke="#bfbfbf" points="405.5,-56.5 405.5,-75.5 449.5,-75.5 449.5,-56.5 405.5,-56.5"/>
<text text-anchor="middle" x="427.5" y="-63.5" font-family="Helvetica,sans-Serif" font-size="10.00">cerrno</text>
</g>
<!-- Node2&#45;&gt;Node10 -->
<g id="edge9" class="edge"><title>Node2&#45;&gt;Node10</title>
<path fill="none" stroke="midnightblue" d="M613.38,-112.427C575.929,-104.272 518.275,-91.3296 459.613,-76.1872"/>
<polygon fill="midnightblue" stroke="midnightblue" points="460.369,-72.7674 449.81,-73.6382 458.607,-79.5421 460.369,-72.7674"/>
</g>
<!-- Node11 -->
<g id="node11" class="node"><title>Node11</title>
<polygon fill="white" stroke="#bfbfbf" points="467.5,-56.5 467.5,-75.5 513.5,-75.5 513.5,-56.5 467.5,-56.5"/>
<text text-anchor="middle" x="490.5" y="-63.5" font-family="Helvetica,sans-Serif" font-size="10.00">cstring</text>
</g>
<!-- Node2&#45;&gt;Node11 -->
<g id="edge10" class="edge"><title>Node2&#45;&gt;Node11</title>
<path fill="none" stroke="midnightblue" d="M627.672,-112.444C599.444,-103.092 554.148,-88.0859 523.397,-77.8984"/>
<polygon fill="midnightblue" stroke="midnightblue" points="524.165,-74.4658 513.572,-74.6433 521.963,-81.1106 524.165,-74.4658"/>
</g>
<!-- Node12 -->
<g id="node12" class="node"><title>Node12</title>
<polygon fill="white" stroke="#bfbfbf" points="1444.5,-56.5 1444.5,-75.5 1488.5,-75.5 1488.5,-56.5 1444.5,-56.5"/>
<text text-anchor="middle" x="1466.5" y="-63.5" font-family="Helvetica,sans-Serif" font-size="10.00">cmath</text>
</g>
<!-- Node2&#45;&gt;Node12 -->
<g id="edge11" class="edge"><title>Node2&#45;&gt;Node12</title>
<path fill="none" stroke="midnightblue" d="M715.201,-113.513C720.708,-112.956 726.202,-112.441 731.5,-112 1040.37,-86.31 1124.75,-127.129 1434.13,-75.8193"/>
<polygon fill="midnightblue" stroke="midnightblue" points="1435.01,-79.2213 1444.29,-74.115 1433.85,-72.3178 1435.01,-79.2213"/>
</g>
<!-- Node13 -->
<g id="node13" class="node"><title>Node13</title>
<polygon fill="white" stroke="#bfbfbf" points="532,-56.5 532,-75.5 577,-75.5 577,-56.5 532,-56.5"/>
<text text-anchor="middle" x="554.5" y="-63.5" font-family="Helvetica,sans-Serif" font-size="10.00">iosfwd</text>
</g>
<!-- Node2&#45;&gt;Node13 -->
<g id="edge12" class="edge"><title>Node2&#45;&gt;Node13</title>
<path fill="none" stroke="midnightblue" d="M637.594,-112.324C621.862,-103.743 597.558,-90.486 579.291,-80.5224"/>
<polygon fill="midnightblue" stroke="midnightblue" points="580.822,-77.3704 570.367,-75.6545 577.47,-83.5157 580.822,-77.3704"/>
</g>
<!-- Node2&#45;&gt;Node14 -->
<g id="edge13" class="edge"><title>Node2&#45;&gt;Node14</title>
<path fill="none" stroke="midnightblue" d="M591.778,-118.982C494.211,-115.086 298.326,-104.403 123.426,-75.8879"/>
<polygon fill="midnightblue" stroke="midnightblue" points="123.966,-72.4299 113.529,-74.2514 122.824,-79.3361 123.966,-72.4299"/>
</g>
<!-- Node15 -->
<g id="node15" class="node"><title>Node15</title>
<polygon fill="white" stroke="#bfbfbf" points="595,-56.5 595,-75.5 646,-75.5 646,-56.5 595,-56.5"/>
<text text-anchor="middle" x="620.5" y="-63.5" font-family="Helvetica,sans-Serif" font-size="10.00">unistd.h</text>
</g>
<!-- Node2&#45;&gt;Node15 -->
<g id="edge14" class="edge"><title>Node2&#45;&gt;Node15</title>
<path fill="none" stroke="midnightblue" d="M648.051,-112.083C643.486,-104.613 636.832,-93.7244 631.207,-84.5199"/>
<polygon fill="midnightblue" stroke="midnightblue" points="634.049,-82.4588 625.848,-75.7511 628.076,-86.109 634.049,-82.4588"/>
</g>
<!-- Node16 -->
<g id="node16" class="node"><title>Node16</title>
<polygon fill="white" stroke="#bfbfbf" points="664.5,-56.5 664.5,-75.5 708.5,-75.5 708.5,-56.5 664.5,-56.5"/>
<text text-anchor="middle" x="686.5" y="-63.5" font-family="Helvetica,sans-Serif" font-size="10.00">fcntl.h</text>
</g>
<!-- Node2&#45;&gt;Node16 -->
<g id="edge15" class="edge"><title>Node2&#45;&gt;Node16</title>
<path fill="none" stroke="midnightblue" d="M658.949,-112.083C663.514,-104.613 670.168,-93.7244 675.793,-84.5199"/>
<polygon fill="midnightblue" stroke="midnightblue" points="678.924,-86.109 681.152,-75.7511 672.951,-82.4588 678.924,-86.109"/>
</g>
<!-- Node2&#45;&gt;Node17 -->
<g id="edge16" class="edge"><title>Node2&#45;&gt;Node17</title>
<path fill="none" stroke="midnightblue" d="M591.736,-120.79C483.685,-119.465 253.43,-112.383 50.9383,-75.6236"/>
<polygon fill="midnightblue" stroke="midnightblue" points="51.4814,-72.1648 41.0126,-73.7936 50.2122,-79.0488 51.4814,-72.1648"/>
</g>
<!-- Node18 -->
<g id="node18" class="node"><title>Node18</title>
<polygon fill="white" stroke="#bfbfbf" points="291.5,-0.5 291.5,-19.5 335.5,-19.5 335.5,-0.5 291.5,-0.5"/>
<text text-anchor="middle" x="313.5" y="-7.5" font-family="Helvetica,sans-Serif" font-size="10.00">vector</text>
</g>
<!-- Node2&#45;&gt;Node18 -->
<g id="edge17" class="edge"><title>Node2&#45;&gt;Node18</title>
<path fill="none" stroke="midnightblue" d="M591.772,-120.104C509.598,-117.639 370.229,-108.616 332.5,-76 319.317,-64.6036 315.03,-44.6146 313.758,-29.8032"/>
<polygon fill="midnightblue" stroke="midnightblue" points="317.249,-29.5352 313.274,-19.7141 310.257,-29.8702 317.249,-29.5352"/>
</g>
<!-- Node19 -->
<g id="node19" class="node"><title>Node19</title>
<polygon fill="white" stroke="#bfbfbf" points="727,-56.5 727,-75.5 770,-75.5 770,-56.5 727,-56.5"/>
<text text-anchor="middle" x="748.5" y="-63.5" font-family="Helvetica,sans-Serif" font-size="10.00">deque</text>
</g>
<!-- Node2&#45;&gt;Node19 -->
<g id="edge18" class="edge"><title>Node2&#45;&gt;Node19</title>
<path fill="none" stroke="midnightblue" d="M668.763,-112.324C683.721,-103.822 706.755,-90.7288 724.227,-80.7975"/>
<polygon fill="midnightblue" stroke="midnightblue" points="726.31,-83.639 733.274,-75.6545 722.851,-77.5534 726.31,-83.639"/>
</g>
<!-- Node20 -->
<g id="node20" class="node"><title>Node20</title>
<polygon fill="white" stroke="#bfbfbf" points="752.5,-0.5 752.5,-19.5 796.5,-19.5 796.5,-0.5 752.5,-0.5"/>
<text text-anchor="middle" x="774.5" y="-7.5" font-family="Helvetica,sans-Serif" font-size="10.00">mutex</text>
</g>
<!-- Node2&#45;&gt;Node20 -->
<g id="edge19" class="edge"><title>Node2&#45;&gt;Node20</title>
<path fill="none" stroke="midnightblue" d="M715.011,-114.247C739.217,-108.233 764.714,-96.9808 779.5,-76 788.956,-62.5823 786.093,-43.5056 781.834,-29.4883"/>
<polygon fill="midnightblue" stroke="midnightblue" points="785.096,-28.2132 778.486,-19.933 778.49,-30.5278 785.096,-28.2132"/>
</g>
<!-- Node21 -->
<g id="node21" class="node"><title>Node21</title>
<polygon fill="white" stroke="#bfbfbf" points="814.5,-0.5 814.5,-19.5 858.5,-19.5 858.5,-0.5 814.5,-0.5"/>
<text text-anchor="middle" x="836.5" y="-7.5" font-family="Helvetica,sans-Serif" font-size="10.00">thread</text>
</g>
<!-- Node2&#45;&gt;Node21 -->
<g id="edge20" class="edge"><title>Node2&#45;&gt;Node21</title>
<path fill="none" stroke="midnightblue" d="M711.54,-112.488C739.454,-106.101 772.071,-95.0383 796.5,-76 812.143,-63.8093 823.167,-43.6548 829.626,-29.0158"/>
<polygon fill="midnightblue" stroke="midnightblue" points="832.963,-30.1039 833.524,-19.5239 826.488,-27.4451 832.963,-30.1039"/>
</g>
<!-- Node22 -->
<g id="node22" class="node"><title>Node22</title>
<polygon fill="white" stroke="#bfbfbf" points="923,-0.5 923,-19.5 1018,-19.5 1018,-0.5 923,-0.5"/>
<text text-anchor="middle" x="970.5" y="-7.5" font-family="Helvetica,sans-Serif" font-size="10.00">condition_variable</text>
</g>
<!-- Node2&#45;&gt;Node22 -->
<g id="edge21" class="edge"><title>Node2&#45;&gt;Node22</title>
<path fill="none" stroke="midnightblue" d="M715.277,-113.764C811.075,-102.399 985.013,-81.1282 989.5,-76 1001.19,-62.645 992.487,-42.4424 983.378,-28.1095"/>
<polygon fill="midnightblue" stroke="midnightblue" points="986.109,-25.905 977.544,-19.6693 980.351,-29.8854 986.109,-25.905"/>
</g>
<!-- Node23 -->
<g id="node23" class="node"><title>Node23</title>
<polygon fill="white" stroke="#bfbfbf" points="1036,-0.5 1036,-19.5 1079,-19.5 1079,-0.5 1036,-0.5"/>
<text text-anchor="middle" x="1057.5" y="-7.5" font-family="Helvetica,sans-Serif" font-size="10.00">queue</text>
</g>
<!-- Node2&#45;&gt;Node23 -->
<g id="edge22" class="edge"><title>Node2&#45;&gt;Node23</title>
<path fill="none" stroke="midnightblue" d="M715.062,-113.723C814.294,-101.912 999.221,-79.5252 1005.5,-76 1024.93,-65.0889 1039.82,-43.7349 1048.59,-28.4798"/>
<polygon fill="midnightblue" stroke="midnightblue" points="1051.77,-29.966 1053.46,-19.5067 1045.61,-26.6299 1051.77,-29.966"/>
</g>
<!-- Node2&#45;&gt;Node24 -->
<g id="edge23" class="edge"><title>Node2&#45;&gt;Node24</title>
<path fill="none" stroke="midnightblue" d="M591.818,-114.764C509.419,-106.358 358.897,-90.7435 230.5,-76 218.431,-74.6142 205.251,-73.0155 193.453,-71.5535"/>
<polygon fill="midnightblue" stroke="midnightblue" points="193.859,-68.0771 183.502,-70.3127 192.992,-75.0233 193.859,-68.0771"/>
</g>
<!-- Node25 -->
<g id="node25" class="node"><title>Node25</title>
<polygon fill="white" stroke="#bfbfbf" points="1097,-0.5 1097,-19.5 1132,-19.5 1132,-0.5 1097,-0.5"/>
<text text-anchor="middle" x="1114.5" y="-7.5" font-family="Helvetica,sans-Serif" font-size="10.00">map</text>
</g>
<!-- Node2&#45;&gt;Node25 -->
<g id="edge24" class="edge"><title>Node2&#45;&gt;Node25</title>
<path fill="none" stroke="midnightblue" d="M715.032,-113.865C820.965,-101.553 1026.88,-77.4832 1030.5,-76 1057.82,-64.8125 1083.82,-42.1972 1099.47,-26.8224"/>
<polygon fill="midnightblue" stroke="midnightblue" points="1102.12,-29.1157 1106.66,-19.5413 1097.14,-24.1968 1102.12,-29.1157"/>
</g>
<!-- Node26 -->
<g id="node26" class="node"><title>Node26</title>
<g id="a_node26"><a xlink:href="cosmos-defs_8h.html" target="_top" xlink:title="COSMOS definitions Definitions specific to the COSMOS environement. ">
<polygon fill="white" stroke="black" points="864.5,-56.5 864.5,-75.5 980.5,-75.5 980.5,-56.5 864.5,-56.5"/>
<text text-anchor="middle" x="922.5" y="-63.5" font-family="Helvetica,sans-Serif" font-size="10.00">support/cosmos&#45;defs.h</text>
</a>
</g>
</g>
<!-- Node2&#45;&gt;Node26 -->
<g id="edge25" class="edge"><title>Node2&#45;&gt;Node26</title>
<path fill="none" stroke="midnightblue" d="M696.124,-112.444C743.247,-102.984 819.192,-87.7384 869.959,-77.5472"/>
<polygon fill="midnightblue" stroke="midnightblue" points="870.96,-80.9162 880.076,-75.5164 869.582,-74.0531 870.96,-80.9162"/>
</g>
<!-- Node26&#45;&gt;Node18 -->
<g id="edge27" class="edge"><title>Node26&#45;&gt;Node18</title>
<path fill="none" stroke="midnightblue" d="M864.382,-59.8467C738.436,-48.6791 443.789,-22.5527 345.818,-13.8657"/>
<polygon fill="midnightblue" stroke="midnightblue" points="345.919,-10.361 335.649,-12.9639 345.301,-17.3336 345.919,-10.361"/>
</g>
<!-- Node26&#45;&gt;Node20 -->
<g id="edge31" class="edge"><title>Node26&#45;&gt;Node20</title>
<path fill="none" stroke="midnightblue" d="M899.049,-56.4435C874.077,-47.3322 834.394,-32.8531 806.547,-22.6929"/>
<polygon fill="midnightblue" stroke="midnightblue" points="807.466,-19.3027 796.873,-19.1629 805.067,-25.8786 807.466,-19.3027"/>
</g>
<!-- Node26&#45;&gt;Node21 -->
<g id="edge30" class="edge"><title>Node26&#45;&gt;Node21</title>
<path fill="none" stroke="midnightblue" d="M908.683,-56.324C895.267,-47.9002 874.676,-34.9709 858.914,-25.0741"/>
<polygon fill="midnightblue" stroke="midnightblue" points="860.613,-22.0081 850.283,-19.6545 856.891,-27.9364 860.613,-22.0081"/>
</g>
<!-- Node26&#45;&gt;Node22 -->
<g id="edge32" class="edge"><title>Node26&#45;&gt;Node22</title>
<path fill="none" stroke="midnightblue" d="M930.426,-56.083C937.346,-48.2982 947.565,-36.8015 955.952,-27.3665"/>
<polygon fill="midnightblue" stroke="midnightblue" points="958.694,-29.5505 962.721,-19.7511 953.462,-24.8999 958.694,-29.5505"/>
</g>
<!-- Node26&#45;&gt;Node23 -->
<g id="edge29" class="edge"><title>Node26&#45;&gt;Node23</title>
<path fill="none" stroke="midnightblue" d="M943.891,-56.4435C966.207,-47.5171 1001.4,-33.4387 1026.71,-23.3168"/>
<polygon fill="midnightblue" stroke="midnightblue" points="1028.22,-26.4801 1036.21,-19.5164 1025.62,-19.9807 1028.22,-26.4801"/>
</g>
<!-- Node26&#45;&gt;Node25 -->
<g id="edge26" class="edge"><title>Node26&#45;&gt;Node25</title>
<path fill="none" stroke="midnightblue" d="M956.714,-56.456C988.375,-48.3886 1036.94,-35.6073 1087.2,-20.2623"/>
<polygon fill="midnightblue" stroke="midnightblue" points="1088.41,-23.5528 1096.93,-17.2641 1086.34,-16.863 1088.41,-23.5528"/>
</g>
<!-- Node27 -->
<g id="node27" class="node"><title>Node27</title>
<polygon fill="white" stroke="#bfbfbf" points="876,-0.5 876,-19.5 905,-19.5 905,-0.5 876,-0.5"/>
<text text-anchor="middle" x="890.5" y="-7.5" font-family="Helvetica,sans-Serif" font-size="10.00">list</text>
</g>
<!-- Node26&#45;&gt;Node27 -->
<g id="edge28" class="edge"><title>Node26&#45;&gt;Node27</title>
<path fill="none" stroke="midnightblue" d="M917.216,-56.083C912.789,-48.6127 906.337,-37.7244 900.882,-28.5199"/>
<polygon fill="midnightblue" stroke="midnightblue" points="903.795,-26.5697 895.686,-19.7511 897.773,-30.1383 903.795,-26.5697"/>
</g>
<!-- Node28&#45;&gt;Node2 -->
<g id="edge34" class="edge"><title>Node28&#45;&gt;Node2</title>
<path fill="none" stroke="midnightblue" d="M515.502,-392.386C527.539,-384.011 545.487,-370.465 558.5,-356 617.236,-290.711 642.307,-184.276 650.365,-141.582"/>
<polygon fill="midnightblue" stroke="midnightblue" points="653.811,-142.198 652.13,-131.738 646.92,-140.963 653.811,-142.198"/>
</g>
<!-- Node28&#45;&gt;Node12 -->
<g id="edge55" class="edge"><title>Node28&#45;&gt;Node12</title>
<path fill="none" stroke="midnightblue" d="M543.204,-396.424C612.878,-388.243 749.117,-370.601 765.5,-356 787.969,-335.975 784.5,-321.098 784.5,-291 784.5,-291 784.5,-291 784.5,-177 784.5,-33.7479 1270.98,-104.487 1433.98,-75.867"/>
<polygon fill="midnightblue" stroke="midnightblue" points="1435.11,-79.2112 1444.24,-73.8349 1433.75,-72.3445 1435.11,-79.2112"/>
</g>
<!-- Node28&#45;&gt;Node14 -->
<g id="edge56" class="edge"><title>Node28&#45;&gt;Node14</title>
<path fill="none" stroke="midnightblue" d="M485.659,-392.456C434.517,-366.088 277.663,-282.066 165.5,-188 139.707,-166.368 132.743,-160.292 114.5,-132 105.043,-117.333 97.4605,-98.933 92.584,-85.4568"/>
<polygon fill="midnightblue" stroke="midnightblue" points="95.8449,-84.1773 89.269,-75.8702 89.2293,-86.4649 95.8449,-84.1773"/>
</g>
<!-- Node29 -->
<g id="node29" class="node"><title>Node29</title>
<g id="a_node29"><a xlink:href="cosmos-errno_8h.html" target="_top" xlink:title="COSMOS Error Codes. ">
<polygon fill="white" stroke="black" points="637,-336.5 637,-355.5 756,-355.5 756,-336.5 637,-336.5"/>
<text text-anchor="middle" x="696.5" y="-343.5" font-family="Helvetica,sans-Serif" font-size="10.00">support/cosmos&#45;errno.h</text>
</a>
</g>
</g>
<!-- Node28&#45;&gt;Node29 -->
<g id="edge35" class="edge"><title>Node28&#45;&gt;Node29</title>
<path fill="none" stroke="midnightblue" d="M533.24,-392.444C566.444,-383.201 619.491,-368.436 656.057,-358.257"/>
<polygon fill="midnightblue" stroke="midnightblue" points="657.209,-361.57 665.904,-355.516 655.332,-354.826 657.209,-361.57"/>
</g>
<!-- Node31 -->
<g id="node31" class="node"><title>Node31</title>
<g id="a_node31"><a xlink:href="math_2constants_8h.html" target="_top" xlink:title="constants.h">
<polygon fill="white" stroke="black" points="314.5,-168.5 314.5,-187.5 382.5,-187.5 382.5,-168.5 314.5,-168.5"/>
<text text-anchor="middle" x="348.5" y="-175.5" font-family="Helvetica,sans-Serif" font-size="10.00">constants.h</text>
</a>
</g>
</g>
<!-- Node28&#45;&gt;Node31 -->
<g id="edge38" class="edge"><title>Node28&#45;&gt;Node31</title>
<path fill="none" stroke="midnightblue" d="M490.584,-392.282C479.57,-383.833 463.189,-370.237 451.5,-356 408.343,-303.434 372.171,-230.594 356.642,-197.131"/>
<polygon fill="midnightblue" stroke="midnightblue" points="359.684,-195.366 352.344,-187.726 353.318,-198.276 359.684,-195.366"/>
</g>
<!-- Node32 -->
<g id="node32" class="node"><title>Node32</title>
<g id="a_node32"><a xlink:href="vector_8h.html" target="_top" xlink:title="vector.h">
<polygon fill="white" stroke="black" points="403.5,-224.5 403.5,-243.5 455.5,-243.5 455.5,-224.5 403.5,-224.5"/>
<text text-anchor="middle" x="429.5" y="-231.5" font-family="Helvetica,sans-Serif" font-size="10.00">vector.h</text>
</a>
</g>
</g>
<!-- Node28&#45;&gt;Node32 -->
<g id="edge41" class="edge"><title>Node28&#45;&gt;Node32</title>
<path fill="none" stroke="midnightblue" d="M493.081,-392.203C484.491,-383.698 472.027,-370.064 464.5,-356 446.505,-322.378 436.786,-278.416 432.417,-253.802"/>
<polygon fill="midnightblue" stroke="midnightblue" points="435.827,-252.971 430.733,-243.682 428.922,-254.121 435.827,-252.971"/>
</g>
<!-- Node34 -->
<g id="node34" class="node"><title>Node34</title>
<g id="a_node34"><a xlink:href="matrix_8h.html" target="_top" xlink:title="matrix.h">
<polygon fill="white" stroke="black" points="533.5,-280.5 533.5,-299.5 585.5,-299.5 585.5,-280.5 533.5,-280.5"/>
<text text-anchor="middle" x="559.5" y="-287.5" font-family="Helvetica,sans-Serif" font-size="10.00">matrix.h</text>
</a>
</g>
</g>
<!-- Node28&#45;&gt;Node34 -->
<g id="edge48" class="edge"><title>Node28&#45;&gt;Node34</title>
<path fill="none" stroke="midnightblue" d="M511.288,-392.453C519.612,-383.918 531.932,-370.075 539.5,-356 547.363,-341.376 552.622,-323.205 555.766,-309.796"/>
<polygon fill="midnightblue" stroke="midnightblue" points="559.227,-310.349 557.92,-299.836 552.385,-308.87 559.227,-310.349"/>
</g>
<!-- Node35 -->
<g id="node35" class="node"><title>Node35</title>
<g id="a_node35"><a xlink:href="rotation_8h.html" target="_top" xlink:title="rotation.h">
<polygon fill="white" stroke="black" points="474,-336.5 474,-355.5 531,-355.5 531,-336.5 474,-336.5"/>
<text text-anchor="middle" x="502.5" y="-343.5" font-family="Helvetica,sans-Serif" font-size="10.00">rotation.h</text>
</a>
</g>
</g>
<!-- Node28&#45;&gt;Node35 -->
<g id="edge51" class="edge"><title>Node28&#45;&gt;Node35</title>
<path fill="none" stroke="midnightblue" d="M502.5,-392.083C502.5,-385.006 502.5,-374.861 502.5,-365.986"/>
<polygon fill="midnightblue" stroke="midnightblue" points="506,-365.751 502.5,-355.751 499,-365.751 506,-365.751"/>
</g>
<!-- Node29&#45;&gt;Node2 -->
<g id="edge36" class="edge"><title>Node29&#45;&gt;Node2</title>
<path fill="none" stroke="midnightblue" d="M690.664,-336.474C684.999,-327.733 676.666,-313.54 672.5,-300 655.423,-244.489 653.179,-175.098 653.193,-142.117"/>
<polygon fill="midnightblue" stroke="midnightblue" points="656.696,-141.735 653.277,-131.707 649.697,-141.678 656.696,-141.735"/>
</g>
<!-- Node30 -->
<g id="node30" class="node"><title>Node30</title>
<polygon fill="white" stroke="#bfbfbf" points="682,-280.5 682,-299.5 729,-299.5 729,-280.5 682,-280.5"/>
<text text-anchor="middle" x="705.5" y="-287.5" font-family="Helvetica,sans-Serif" font-size="10.00">errno.h</text>
</g>
<!-- Node29&#45;&gt;Node30 -->
<g id="edge37" class="edge"><title>Node29&#45;&gt;Node30</title>
<path fill="none" stroke="midnightblue" d="M697.986,-336.083C699.179,-328.927 700.894,-318.635 702.385,-309.691"/>
<polygon fill="midnightblue" stroke="midnightblue" points="705.85,-310.19 704.041,-299.751 698.945,-309.04 705.85,-310.19"/>
</g>
<!-- Node31&#45;&gt;Node2 -->
<g id="edge39" class="edge"><title>Node31&#45;&gt;Node2</title>
<path fill="none" stroke="midnightblue" d="M382.745,-169.716C385.704,-169.122 388.653,-168.542 391.5,-168 459.221,-155.101 537.114,-141.935 590.251,-133.204"/>
<polygon fill="midnightblue" stroke="midnightblue" points="590.905,-136.644 600.208,-131.572 589.773,-129.736 590.905,-136.644"/>
</g>
<!-- Node31&#45;&gt;Node5 -->
<g id="edge40" class="edge"><title>Node31&#45;&gt;Node5</title>
<path fill="none" stroke="midnightblue" d="M341.752,-168.368C327.496,-150.135 294.106,-107.426 275.537,-83.6752"/>
<polygon fill="midnightblue" stroke="midnightblue" points="278.134,-81.3138 269.217,-75.5914 272.619,-85.6253 278.134,-81.3138"/>
</g>
<!-- Node32&#45;&gt;Node2 -->
<g id="edge42" class="edge"><title>Node32&#45;&gt;Node2</title>
<path fill="none" stroke="midnightblue" d="M437.103,-224.075C449.447,-210.131 475.228,-183.204 502.5,-168 531.46,-151.855 566.847,-140.911 596.083,-133.862"/>
<polygon fill="midnightblue" stroke="midnightblue" points="597.196,-137.197 606.147,-131.528 595.615,-130.377 597.196,-137.197"/>
</g>
<!-- Node32&#45;&gt;Node12 -->
<g id="edge46" class="edge"><title>Node32&#45;&gt;Node12</title>
<path fill="none" stroke="midnightblue" d="M455.799,-224.78C507.661,-208.397 626.587,-169.976 724.5,-132 745.285,-123.939 748.805,-117.128 770.5,-112 1055.32,-44.6795 1141.76,-123.77 1434.24,-75.7912"/>
<polygon fill="midnightblue" stroke="midnightblue" points="1435.01,-79.2122 1444.29,-74.1068 1433.85,-72.3086 1435.01,-79.2122"/>
</g>
<!-- Node32&#45;&gt;Node14 -->
<g id="edge44" class="edge"><title>Node32&#45;&gt;Node14</title>
<path fill="none" stroke="midnightblue" d="M403.338,-233.132C358.381,-232.274 264.817,-225.657 197.5,-188 151.855,-162.466 114.623,-111.383 97.1897,-84.4862"/>
<polygon fill="midnightblue" stroke="midnightblue" points="99.9812,-82.3514 91.6837,-75.7633 94.0617,-86.0879 99.9812,-82.3514"/>
</g>
<!-- Node32&#45;&gt;Node18 -->
<g id="edge47" class="edge"><title>Node32&#45;&gt;Node18</title>
<path fill="none" stroke="midnightblue" d="M403.436,-228.507C376.606,-222.82 334.708,-210.877 305.5,-188 258.337,-151.06 247.919,-133.319 230.5,-76 227.915,-67.4952 225.953,-63.6378 230.5,-56 241.588,-37.3758 263.367,-25.9852 281.833,-19.3246"/>
<polygon fill="midnightblue" stroke="midnightblue" points="282.985,-22.6304 291.388,-16.1772 280.795,-15.9818 282.985,-22.6304"/>
</g>
<!-- Node32&#45;&gt;Node31 -->
<g id="edge43" class="edge"><title>Node32&#45;&gt;Node31</title>
<path fill="none" stroke="midnightblue" d="M416.486,-224.324C403.968,-215.979 384.818,-203.212 370.029,-193.352"/>
<polygon fill="midnightblue" stroke="midnightblue" points="371.744,-190.289 361.482,-187.655 367.861,-196.114 371.744,-190.289"/>
</g>
<!-- Node33 -->
<g id="node33" class="node"><title>Node33</title>
<polygon fill="white" stroke="#bfbfbf" points="400.5,-168.5 400.5,-187.5 450.5,-187.5 450.5,-168.5 400.5,-168.5"/>
<text text-anchor="middle" x="425.5" y="-175.5" font-family="Helvetica,sans-Serif" font-size="10.00">iomanip</text>
</g>
<!-- Node32&#45;&gt;Node33 -->
<g id="edge45" class="edge"><title>Node32&#45;&gt;Node33</title>
<path fill="none" stroke="midnightblue" d="M428.839,-224.083C428.315,-217.006 427.564,-206.861 426.906,-197.986"/>
<polygon fill="midnightblue" stroke="midnightblue" points="430.377,-197.465 426.148,-187.751 423.397,-197.982 430.377,-197.465"/>
</g>
<!-- Node34&#45;&gt;Node2 -->
<g id="edge49" class="edge"><title>Node34&#45;&gt;Node2</title>
<path fill="none" stroke="midnightblue" d="M560.684,-280.363C563.883,-259.458 574.226,-205.128 599.5,-168 607.736,-155.901 620.108,-145.261 630.932,-137.369"/>
<polygon fill="midnightblue" stroke="midnightblue" points="632.95,-140.229 639.173,-131.654 628.961,-134.477 632.95,-140.229"/>
</g>
<!-- Node34&#45;&gt;Node32 -->
<g id="edge50" class="edge"><title>Node34&#45;&gt;Node32</title>
<path fill="none" stroke="midnightblue" d="M538.901,-280.444C517.507,-271.557 483.819,-257.563 459.476,-247.451"/>
<polygon fill="midnightblue" stroke="midnightblue" points="460.58,-244.12 450.003,-243.516 457.895,-250.585 460.58,-244.12"/>
</g>
<!-- Node35&#45;&gt;Node2 -->
<g id="edge52" class="edge"><title>Node35&#45;&gt;Node2</title>
<path fill="none" stroke="midnightblue" d="M504.536,-336.195C511.351,-308.39 535.734,-221.156 584.5,-168 596.283,-155.156 612.486,-144.342 626.229,-136.537"/>
<polygon fill="midnightblue" stroke="midnightblue" points="628.151,-139.476 635.266,-131.626 624.808,-133.325 628.151,-139.476"/>
</g>
<!-- Node35&#45;&gt;Node32 -->
<g id="edge53" class="edge"><title>Node35&#45;&gt;Node32</title>
<path fill="none" stroke="midnightblue" d="M496.772,-336.368C484.725,-318.215 456.577,-275.802 440.775,-251.99"/>
<polygon fill="midnightblue" stroke="midnightblue" points="443.647,-249.988 435.202,-243.591 437.815,-253.859 443.647,-249.988"/>
</g>
<!-- Node35&#45;&gt;Node34 -->
<g id="edge54" class="edge"><title>Node35&#45;&gt;Node34</title>
<path fill="none" stroke="midnightblue" d="M511.658,-336.324C520.001,-328.42 532.532,-316.548 542.677,-306.938"/>
<polygon fill="midnightblue" stroke="midnightblue" points="545.323,-309.252 550.175,-299.834 540.509,-304.171 545.323,-309.252"/>
</g>
</g>
</svg>
