<?xml version="1.0" encoding="UTF-8" standalone="no"?>
<!DOCTYPE svg PUBLIC "-//W3C//DTD SVG 1.1//EN"
 "http://www.w3.org/Graphics/SVG/1.1/DTD/svg11.dtd">
<!-- Generated by graphviz version 2.38.0 (20140413.2041)
 -->
<!-- Title: print_utils.cpp Pages: 1 -->
<!--zoomable 532 -->
<svg id="main" version="1.1" xmlns="http://www.w3.org/2000/svg" xmlns:xlink="http://www.w3.org/1999/xlink" xml:space="preserve" onload="init(evt)">
<style type="text/css"><![CDATA[
.edge:hover path { stroke: red; }
.edge:hover polygon { stroke: red; fill: red; }
]]></style>
<script type="text/javascript"><![CDATA[
var edges = document.getElementsByTagName('g');
if (edges && edges.length) {
  for (var i=0;i<edges.length;i++) {
    if (edges[i].id.substr(0,4)=='edge') {
      edges[i].setAttribute('class','edge');
    }
  }
}
]]></script>
        <defs>
                <circle id="rim" cx="0" cy="0" r="7"/>
                <circle id="rim2" cx="0" cy="0" r="3.5"/>
                <g id="zoomPlus">
                        <use xlink:href="#rim" fill="#404040">
                                <set attributeName="fill" to="#808080" begin="zoomplus.mouseover" end="zoomplus.mouseout"/>
                        </use>
                        <path d="M-4,0h8M0,-4v8" fill="none" stroke="white" stroke-width="1.5" pointer-events="none"/>
                </g>
                <g id="zoomMin">
                        <use xlink:href="#rim" fill="#404040">
                                <set attributeName="fill" to="#808080" begin="zoomminus.mouseover" end="zoomminus.mouseout"/>
                        </use>
                        <path d="M-4,0h8" fill="none" stroke="white" stroke-width="1.5" pointer-events="none"/>
                </g>
                <g id="dirArrow">
                        <path fill="none" stroke="white" stroke-width="1.5" d="M0,-3.0v7 M-2.5,-0.5L0,-3.0L2.5,-0.5"/>
                </g>
               <g id="resetDef">
                       <use xlink:href="#rim2" fill="#404040">
                               <set attributeName="fill" to="#808080" begin="reset.mouseover" end="reset.mouseout"/>
                       </use>
               </g>
        </defs>

<script type="text/javascript">
var viewWidth = 1496;
var viewHeight = 532;
var sectionId = 'dynsection-0';
</script>
<script xlink:href="svgpan.js"/>
<svg id="graph" class="graph">
<g id="viewport">
<title>print_utils.cpp</title>
<polygon fill="white" stroke="none" points="-4,4 -4,-528 1491.5,-528 1491.5,4 -4,4"/>
<!-- Node1 -->
<g id="node1" class="node"><title>Node1</title>
<polygon fill="#bfbfbf" stroke="black" points="468.5,-504.5 468.5,-523.5 545.5,-523.5 545.5,-504.5 468.5,-504.5"/>
<text text-anchor="middle" x="507" y="-511.5" font-family="Helvetica,sans-Serif" font-size="10.00">print_utils.cpp</text>
</g>
<!-- Node2 -->
<g id="node2" class="node"><title>Node2</title>
<g id="a_node2"><a xlink:href="config_cosmos_8h.html" target="_top" xlink:title="Headers and definitions common to all COSMOS. ">
<polygon fill="white" stroke="black" points="721.5,-112.5 721.5,-131.5 844.5,-131.5 844.5,-112.5 721.5,-112.5"/>
<text text-anchor="middle" x="783" y="-119.5" font-family="Helvetica,sans-Serif" font-size="10.00">support/configCosmos.h</text>
</a>
</g>
</g>
<!-- Node1&#45;&gt;Node2 -->
<g id="edge1" class="edge"><title>Node1&#45;&gt;Node2</title>
<path fill="none" stroke="midnightblue" d="M501.87,-504.407C496.942,-495.614 489.84,-481.381 487,-468 485.155,-459.305 485.84,-456.813 487,-448 500.51,-345.346 496.727,-312.175 551,-224 569.286,-194.291 575.755,-185.385 606,-168 638.012,-149.599 677.526,-138.628 711.093,-132.134"/>
<polygon fill="midnightblue" stroke="midnightblue" points="712.101,-135.507 721.305,-130.259 710.837,-128.622 712.101,-135.507"/>
</g>
<!-- Node28 -->
<g id="node28" class="node"><title>Node28</title>
<g id="a_node28"><a xlink:href="print__utils_8h.html" target="_top" xlink:title="support/print_utils.h">
<polygon fill="white" stroke="black" points="496,-448.5 496,-467.5 598,-467.5 598,-448.5 496,-448.5"/>
<text text-anchor="middle" x="547" y="-455.5" font-family="Helvetica,sans-Serif" font-size="10.00">support/print_utils.h</text>
</a>
</g>
</g>
<!-- Node1&#45;&gt;Node28 -->
<g id="edge33" class="edge"><title>Node1&#45;&gt;Node28</title>
<path fill="none" stroke="midnightblue" d="M513.605,-504.083C519.255,-496.455 527.545,-485.264 534.451,-475.941"/>
<polygon fill="midnightblue" stroke="midnightblue" points="537.378,-477.87 540.518,-467.751 531.753,-473.703 537.378,-477.87"/>
</g>
<!-- Node3 -->
<g id="node3" class="node"><title>Node3</title>
<polygon fill="white" stroke="#bfbfbf" points="849.5,-56.5 849.5,-75.5 894.5,-75.5 894.5,-56.5 849.5,-56.5"/>
<text text-anchor="middle" x="872" y="-63.5" font-family="Helvetica,sans-Serif" font-size="10.00">climits</text>
</g>
<!-- Node2&#45;&gt;Node3 -->
<g id="edge2" class="edge"><title>Node2&#45;&gt;Node3</title>
<path fill="none" stroke="midnightblue" d="M797.299,-112.324C811.183,-103.9 832.492,-90.9709 848.804,-81.0741"/>
<polygon fill="midnightblue" stroke="midnightblue" points="851.002,-83.8341 857.736,-75.6545 847.371,-77.8495 851.002,-83.8341"/>
</g>
<!-- Node4 -->
<g id="node4" class="node"><title>Node4</title>
<polygon fill="white" stroke="#bfbfbf" points="912.5,-56.5 912.5,-75.5 959.5,-75.5 959.5,-56.5 912.5,-56.5"/>
<text text-anchor="middle" x="936" y="-63.5" font-family="Helvetica,sans-Serif" font-size="10.00">csignal</text>
</g>
<!-- Node2&#45;&gt;Node4 -->
<g id="edge3" class="edge"><title>Node2&#45;&gt;Node4</title>
<path fill="none" stroke="midnightblue" d="M807.243,-112.444C833.021,-103.345 873.964,-88.8952 902.745,-78.7372"/>
<polygon fill="midnightblue" stroke="midnightblue" points="904.108,-81.9677 912.373,-75.339 901.778,-75.3668 904.108,-81.9677"/>
</g>
<!-- Node5 -->
<g id="node5" class="node"><title>Node5</title>
<polygon fill="white" stroke="#bfbfbf" points="1282,-56.5 1282,-75.5 1328,-75.5 1328,-56.5 1282,-56.5"/>
<text text-anchor="middle" x="1305" y="-63.5" font-family="Helvetica,sans-Serif" font-size="10.00">cstdint</text>
</g>
<!-- Node2&#45;&gt;Node5 -->
<g id="edge4" class="edge"><title>Node2&#45;&gt;Node5</title>
<path fill="none" stroke="midnightblue" d="M844.62,-118.171C937.095,-113.276 1117.03,-101.225 1268,-76 1269.25,-75.7916 1270.51,-75.5642 1271.79,-75.3216"/>
<polygon fill="midnightblue" stroke="midnightblue" points="1272.56,-78.7356 1281.62,-73.2336 1271.11,-71.8885 1272.56,-78.7356"/>
</g>
<!-- Node6 -->
<g id="node6" class="node"><title>Node6</title>
<polygon fill="white" stroke="#bfbfbf" points="978,-56.5 978,-75.5 1034,-75.5 1034,-56.5 978,-56.5"/>
<text text-anchor="middle" x="1006" y="-63.5" font-family="Helvetica,sans-Serif" font-size="10.00">cinttypes</text>
</g>
<!-- Node2&#45;&gt;Node6 -->
<g id="edge5" class="edge"><title>Node2&#45;&gt;Node6</title>
<path fill="none" stroke="midnightblue" d="M818.335,-112.444C859.18,-102.553 926.144,-86.3372 968.062,-76.1868"/>
<polygon fill="midnightblue" stroke="midnightblue" points="968.996,-79.5619 977.891,-73.8067 967.348,-72.7585 968.996,-79.5619"/>
</g>
<!-- Node7 -->
<g id="node7" class="node"><title>Node7</title>
<polygon fill="white" stroke="#bfbfbf" points="1052.5,-56.5 1052.5,-75.5 1095.5,-75.5 1095.5,-56.5 1052.5,-56.5"/>
<text text-anchor="middle" x="1074" y="-63.5" font-family="Helvetica,sans-Serif" font-size="10.00">cstdio</text>
</g>
<!-- Node2&#45;&gt;Node7 -->
<g id="edge6" class="edge"><title>Node2&#45;&gt;Node7</title>
<path fill="none" stroke="midnightblue" d="M843.536,-112.473C894.2,-104.893 968.543,-92.7431 1042.45,-75.9003"/>
<polygon fill="midnightblue" stroke="midnightblue" points="1043.44,-79.2631 1052.4,-73.6033 1041.87,-72.4425 1043.44,-79.2631"/>
</g>
<!-- Node8 -->
<g id="node8" class="node"><title>Node8</title>
<polygon fill="white" stroke="#bfbfbf" points="1113.5,-56.5 1113.5,-75.5 1162.5,-75.5 1162.5,-56.5 1113.5,-56.5"/>
<text text-anchor="middle" x="1138" y="-63.5" font-family="Helvetica,sans-Serif" font-size="10.00">cstddef</text>
</g>
<!-- Node2&#45;&gt;Node8 -->
<g id="edge7" class="edge"><title>Node2&#45;&gt;Node8</title>
<path fill="none" stroke="midnightblue" d="M844.608,-114.578C907.35,-107.54 1007.57,-94.9252 1103.35,-75.9131"/>
<polygon fill="midnightblue" stroke="midnightblue" points="1104.08,-79.335 1113.2,-73.9316 1102.7,-72.4724 1104.08,-79.335"/>
</g>
<!-- Node9 -->
<g id="node9" class="node"><title>Node9</title>
<polygon fill="white" stroke="#bfbfbf" points="1180.5,-56.5 1180.5,-75.5 1225.5,-75.5 1225.5,-56.5 1180.5,-56.5"/>
<text text-anchor="middle" x="1203" y="-63.5" font-family="Helvetica,sans-Serif" font-size="10.00">cstdlib</text>
</g>
<!-- Node2&#45;&gt;Node9 -->
<g id="edge8" class="edge"><title>Node2&#45;&gt;Node9</title>
<path fill="none" stroke="midnightblue" d="M844.809,-117.057C919.855,-111.556 1050.32,-99.7051 1170.33,-76.0518"/>
<polygon fill="midnightblue" stroke="midnightblue" points="1171.3,-79.4256 1180.42,-74.0288 1169.93,-72.5621 1171.3,-79.4256"/>
</g>
<!-- Node10 -->
<g id="node10" class="node"><title>Node10</title>
<polygon fill="white" stroke="#bfbfbf" points="142,-56.5 142,-75.5 186,-75.5 186,-56.5 142,-56.5"/>
<text text-anchor="middle" x="164" y="-63.5" font-family="Helvetica,sans-Serif" font-size="10.00">cerrno</text>
</g>
<!-- Node2&#45;&gt;Node10 -->
<g id="edge9" class="edge"><title>Node2&#45;&gt;Node10</title>
<path fill="none" stroke="midnightblue" d="M721.224,-113.435C716.414,-112.922 711.63,-112.437 707,-112 483.217,-90.8944 421.381,-115.291 196.362,-75.8638"/>
<polygon fill="midnightblue" stroke="midnightblue" points="196.675,-72.3647 186.217,-74.0627 195.451,-79.257 196.675,-72.3647"/>
</g>
<!-- Node11 -->
<g id="node11" class="node"><title>Node11</title>
<polygon fill="white" stroke="#bfbfbf" points="204,-56.5 204,-75.5 250,-75.5 250,-56.5 204,-56.5"/>
<text text-anchor="middle" x="227" y="-63.5" font-family="Helvetica,sans-Serif" font-size="10.00">cstring</text>
</g>
<!-- Node2&#45;&gt;Node11 -->
<g id="edge10" class="edge"><title>Node2&#45;&gt;Node11</title>
<path fill="none" stroke="midnightblue" d="M721.219,-113.487C716.41,-112.962 711.628,-112.46 707,-112 511.526,-92.5789 457.413,-110.588 260.399,-75.9176"/>
<polygon fill="midnightblue" stroke="midnightblue" points="260.756,-72.4262 250.297,-74.1162 259.527,-79.3175 260.756,-72.4262"/>
</g>
<!-- Node12 -->
<g id="node12" class="node"><title>Node12</title>
<polygon fill="white" stroke="#bfbfbf" points="1384,-56.5 1384,-75.5 1428,-75.5 1428,-56.5 1384,-56.5"/>
<text text-anchor="middle" x="1406" y="-63.5" font-family="Helvetica,sans-Serif" font-size="10.00">cmath</text>
</g>
<!-- Node2&#45;&gt;Node12 -->
<g id="edge11" class="edge"><title>Node2&#45;&gt;Node12</title>
<path fill="none" stroke="midnightblue" d="M844.576,-116.981C946.936,-110.079 1158.51,-94.8784 1337,-76 1349.05,-74.7256 1362.25,-73.0683 1373.85,-71.5238"/>
<polygon fill="midnightblue" stroke="midnightblue" points="1374.53,-74.9632 1383.97,-70.1512 1373.59,-68.0267 1374.53,-74.9632"/>
</g>
<!-- Node13 -->
<g id="node13" class="node"><title>Node13</title>
<polygon fill="white" stroke="#bfbfbf" points="268.5,-56.5 268.5,-75.5 313.5,-75.5 313.5,-56.5 268.5,-56.5"/>
<text text-anchor="middle" x="291" y="-63.5" font-family="Helvetica,sans-Serif" font-size="10.00">iosfwd</text>
</g>
<!-- Node2&#45;&gt;Node13 -->
<g id="edge12" class="edge"><title>Node2&#45;&gt;Node13</title>
<path fill="none" stroke="midnightblue" d="M721.212,-113.554C716.405,-113.014 711.624,-112.49 707,-112 539.353,-94.2383 492.602,-107.572 323.552,-75.9787"/>
<polygon fill="midnightblue" stroke="midnightblue" points="324.044,-72.5096 313.567,-74.0874 322.741,-79.3873 324.044,-72.5096"/>
</g>
<!-- Node14 -->
<g id="node14" class="node"><title>Node14</title>
<polygon fill="white" stroke="#bfbfbf" points="70,-56.5 70,-75.5 124,-75.5 124,-56.5 70,-56.5"/>
<text text-anchor="middle" x="97" y="-63.5" font-family="Helvetica,sans-Serif" font-size="10.00">iostream</text>
</g>
<!-- Node2&#45;&gt;Node14 -->
<g id="edge13" class="edge"><title>Node2&#45;&gt;Node14</title>
<path fill="none" stroke="midnightblue" d="M721.228,-113.396C716.417,-112.892 711.631,-112.419 707,-112 455.784,-89.265 387.39,-114.478 134.264,-75.8969"/>
<polygon fill="midnightblue" stroke="midnightblue" points="134.436,-72.382 124.019,-74.3161 133.368,-79.3002 134.436,-72.382"/>
</g>
<!-- Node15 -->
<g id="node15" class="node"><title>Node15</title>
<polygon fill="white" stroke="#bfbfbf" points="331.5,-56.5 331.5,-75.5 382.5,-75.5 382.5,-56.5 331.5,-56.5"/>
<text text-anchor="middle" x="357" y="-63.5" font-family="Helvetica,sans-Serif" font-size="10.00">unistd.h</text>
</g>
<!-- Node2&#45;&gt;Node15 -->
<g id="edge14" class="edge"><title>Node2&#45;&gt;Node15</title>
<path fill="none" stroke="midnightblue" d="M721.201,-113.66C716.396,-113.096 711.619,-112.537 707,-112 570.313,-96.0961 532.331,-101.343 392.752,-75.8836"/>
<polygon fill="midnightblue" stroke="midnightblue" points="392.993,-72.3691 382.524,-73.9967 391.723,-79.2529 392.993,-72.3691"/>
</g>
<!-- Node16 -->
<g id="node16" class="node"><title>Node16</title>
<polygon fill="white" stroke="#bfbfbf" points="401,-56.5 401,-75.5 445,-75.5 445,-56.5 401,-56.5"/>
<text text-anchor="middle" x="423" y="-63.5" font-family="Helvetica,sans-Serif" font-size="10.00">fcntl.h</text>
</g>
<!-- Node2&#45;&gt;Node16 -->
<g id="edge15" class="edge"><title>Node2&#45;&gt;Node16</title>
<path fill="none" stroke="midnightblue" d="M721.233,-113.65C644.776,-104.372 517.907,-88.3436 455.122,-75.9227"/>
<polygon fill="midnightblue" stroke="midnightblue" points="455.753,-72.4793 445.252,-73.8837 454.337,-79.3345 455.753,-72.4793"/>
</g>
<!-- Node17 -->
<g id="node17" class="node"><title>Node17</title>
<polygon fill="white" stroke="#bfbfbf" points="1446.5,-56.5 1446.5,-75.5 1487.5,-75.5 1487.5,-56.5 1446.5,-56.5"/>
<text text-anchor="middle" x="1467" y="-63.5" font-family="Helvetica,sans-Serif" font-size="10.00">string</text>
</g>
<!-- Node2&#45;&gt;Node17 -->
<g id="edge16" class="edge"><title>Node2&#45;&gt;Node17</title>
<path fill="none" stroke="midnightblue" d="M844.878,-121.307C959.924,-120.887 1214.42,-115.305 1436.6,-75.603"/>
<polygon fill="midnightblue" stroke="midnightblue" points="1437.28,-79.0383 1446.49,-73.8097 1436.03,-72.1507 1437.28,-79.0383"/>
</g>
<!-- Node18 -->
<g id="node18" class="node"><title>Node18</title>
<polygon fill="white" stroke="#bfbfbf" points="1232,-0.5 1232,-19.5 1276,-19.5 1276,-0.5 1232,-0.5"/>
<text text-anchor="middle" x="1254" y="-7.5" font-family="Helvetica,sans-Serif" font-size="10.00">vector</text>
</g>
<!-- Node2&#45;&gt;Node18 -->
<g id="edge17" class="edge"><title>Node2&#45;&gt;Node18</title>
<path fill="none" stroke="midnightblue" d="M844.516,-118.659C961.171,-113.675 1205.57,-100.429 1235,-76 1248.41,-64.8698 1252.66,-44.8388 1253.86,-29.9448"/>
<polygon fill="midnightblue" stroke="midnightblue" points="1257.37,-29.9273 1254.29,-19.7891 1250.37,-29.6333 1257.37,-29.9273"/>
</g>
<!-- Node19 -->
<g id="node19" class="node"><title>Node19</title>
<polygon fill="white" stroke="#bfbfbf" points="463.5,-56.5 463.5,-75.5 506.5,-75.5 506.5,-56.5 463.5,-56.5"/>
<text text-anchor="middle" x="485" y="-63.5" font-family="Helvetica,sans-Serif" font-size="10.00">deque</text>
</g>
<!-- Node2&#45;&gt;Node19 -->
<g id="edge18" class="edge"><title>Node2&#45;&gt;Node19</title>
<path fill="none" stroke="midnightblue" d="M726.037,-112.476C672.807,-104.214 591.227,-90.7876 521,-76 519.542,-75.693 518.054,-75.3681 516.553,-75.0309"/>
<polygon fill="midnightblue" stroke="midnightblue" points="517.178,-71.5824 506.641,-72.6892 515.569,-78.3948 517.178,-71.5824"/>
</g>
<!-- Node20 -->
<g id="node20" class="node"><title>Node20</title>
<polygon fill="white" stroke="#bfbfbf" points="477,-0.5 477,-19.5 521,-19.5 521,-0.5 477,-0.5"/>
<text text-anchor="middle" x="499" y="-7.5" font-family="Helvetica,sans-Serif" font-size="10.00">mutex</text>
</g>
<!-- Node2&#45;&gt;Node20 -->
<g id="edge19" class="edge"><title>Node2&#45;&gt;Node20</title>
<path fill="none" stroke="midnightblue" d="M722.87,-112.474C684.801,-105.688 635.172,-94.2334 594,-76 564.793,-63.0653 535.022,-40.9421 516.778,-26.1476"/>
<polygon fill="midnightblue" stroke="midnightblue" points="518.737,-23.2252 508.801,-19.5459 514.274,-28.618 518.737,-23.2252"/>
</g>
<!-- Node21 -->
<g id="node21" class="node"><title>Node21</title>
<polygon fill="white" stroke="#bfbfbf" points="539,-0.5 539,-19.5 583,-19.5 583,-0.5 539,-0.5"/>
<text text-anchor="middle" x="561" y="-7.5" font-family="Helvetica,sans-Serif" font-size="10.00">thread</text>
</g>
<!-- Node2&#45;&gt;Node21 -->
<g id="edge20" class="edge"><title>Node2&#45;&gt;Node21</title>
<path fill="none" stroke="midnightblue" d="M724.043,-112.48C692.138,-105.972 653.026,-94.8024 622,-76 601.614,-63.6455 583.676,-42.6264 572.621,-27.8421"/>
<polygon fill="midnightblue" stroke="midnightblue" points="575.351,-25.6441 566.667,-19.5757 569.671,-29.7355 575.351,-25.6441"/>
</g>
<!-- Node22 -->
<g id="node22" class="node"><title>Node22</title>
<polygon fill="white" stroke="#bfbfbf" points="601.5,-0.5 601.5,-19.5 696.5,-19.5 696.5,-0.5 601.5,-0.5"/>
<text text-anchor="middle" x="649" y="-7.5" font-family="Helvetica,sans-Serif" font-size="10.00">condition_variable</text>
</g>
<!-- Node2&#45;&gt;Node22 -->
<g id="edge21" class="edge"><title>Node2&#45;&gt;Node22</title>
<path fill="none" stroke="midnightblue" d="M730.838,-112.49C691.494,-104.882 642.275,-92.4049 630,-76 619.584,-62.0798 627.541,-42.553 636.121,-28.5415"/>
<polygon fill="midnightblue" stroke="midnightblue" points="639.28,-30.1142 641.942,-19.8591 633.466,-26.2161 639.28,-30.1142"/>
</g>
<!-- Node23 -->
<g id="node23" class="node"><title>Node23</title>
<polygon fill="white" stroke="#bfbfbf" points="761.5,-0.5 761.5,-19.5 804.5,-19.5 804.5,-0.5 761.5,-0.5"/>
<text text-anchor="middle" x="783" y="-7.5" font-family="Helvetica,sans-Serif" font-size="10.00">queue</text>
</g>
<!-- Node2&#45;&gt;Node23 -->
<g id="edge22" class="edge"><title>Node2&#45;&gt;Node23</title>
<path fill="none" stroke="midnightblue" d="M783,-112.368C783,-94.617 783,-53.6664 783,-29.5974"/>
<polygon fill="midnightblue" stroke="midnightblue" points="786.5,-29.5914 783,-19.5914 779.5,-29.5915 786.5,-29.5914"/>
</g>
<!-- Node24 -->
<g id="node24" class="node"><title>Node24</title>
<polygon fill="white" stroke="#bfbfbf" points="0,-56.5 0,-75.5 52,-75.5 52,-56.5 0,-56.5"/>
<text text-anchor="middle" x="26" y="-63.5" font-family="Helvetica,sans-Serif" font-size="10.00">sstream</text>
</g>
<!-- Node2&#45;&gt;Node24 -->
<g id="edge23" class="edge"><title>Node2&#45;&gt;Node24</title>
<path fill="none" stroke="midnightblue" d="M721.239,-121.076C597.593,-120.379 310.89,-114.491 62.2075,-75.8867"/>
<polygon fill="midnightblue" stroke="midnightblue" points="62.6838,-72.4187 52.2613,-74.3219 61.5958,-79.3336 62.6838,-72.4187"/>
</g>
<!-- Node25 -->
<g id="node25" class="node"><title>Node25</title>
<polygon fill="white" stroke="#bfbfbf" points="822.5,-0.5 822.5,-19.5 857.5,-19.5 857.5,-0.5 822.5,-0.5"/>
<text text-anchor="middle" x="840" y="-7.5" font-family="Helvetica,sans-Serif" font-size="10.00">map</text>
</g>
<!-- Node2&#45;&gt;Node25 -->
<g id="edge24" class="edge"><title>Node2&#45;&gt;Node25</title>
<path fill="none" stroke="midnightblue" d="M787.473,-112.368C796.796,-94.376 818.469,-52.5503 830.866,-28.6267"/>
<polygon fill="midnightblue" stroke="midnightblue" points="834.055,-30.0805 835.548,-19.5914 827.84,-26.8599 834.055,-30.0805"/>
</g>
<!-- Node26 -->
<g id="node26" class="node"><title>Node26</title>
<g id="a_node26"><a xlink:href="cosmos-defs_8h.html" target="_top" xlink:title="COSMOS definitions Definitions specific to the COSMOS environement. ">
<polygon fill="white" stroke="black" points="639,-56.5 639,-75.5 755,-75.5 755,-56.5 639,-56.5"/>
<text text-anchor="middle" x="697" y="-63.5" font-family="Helvetica,sans-Serif" font-size="10.00">support/cosmos&#45;defs.h</text>
</a>
</g>
</g>
<!-- Node2&#45;&gt;Node26 -->
<g id="edge25" class="edge"><title>Node2&#45;&gt;Node26</title>
<path fill="none" stroke="midnightblue" d="M769.183,-112.324C755.767,-103.9 735.176,-90.9709 719.414,-81.0741"/>
<polygon fill="midnightblue" stroke="midnightblue" points="721.113,-78.0081 710.783,-75.6545 717.391,-83.9364 721.113,-78.0081"/>
</g>
<!-- Node26&#45;&gt;Node18 -->
<g id="edge27" class="edge"><title>Node26&#45;&gt;Node18</title>
<path fill="none" stroke="midnightblue" d="M755.032,-59.3739C871.623,-48.0707 1130.91,-22.9337 1221.78,-14.1237"/>
<polygon fill="midnightblue" stroke="midnightblue" points="1222.15,-17.6046 1231.76,-13.1559 1221.47,-10.6373 1222.15,-17.6046"/>
</g>
<!-- Node26&#45;&gt;Node20 -->
<g id="edge31" class="edge"><title>Node26&#45;&gt;Node20</title>
<path fill="none" stroke="midnightblue" d="M664.622,-56.4741C632.914,-48.0806 582.985,-34.7483 530.772,-20.1782"/>
<polygon fill="midnightblue" stroke="midnightblue" points="531.574,-16.768 521,-17.4442 529.688,-23.5092 531.574,-16.768"/>
</g>
<!-- Node26&#45;&gt;Node21 -->
<g id="edge30" class="edge"><title>Node26&#45;&gt;Node21</title>
<path fill="none" stroke="midnightblue" d="M675.45,-56.4435C652.969,-47.5171 617.512,-33.4387 592.02,-23.3168"/>
<polygon fill="midnightblue" stroke="midnightblue" points="593.035,-19.9539 582.449,-19.5164 590.451,-26.4598 593.035,-19.9539"/>
</g>
<!-- Node26&#45;&gt;Node22 -->
<g id="edge32" class="edge"><title>Node26&#45;&gt;Node22</title>
<path fill="none" stroke="midnightblue" d="M689.074,-56.083C682.154,-48.2982 671.935,-36.8015 663.548,-27.3665"/>
<polygon fill="midnightblue" stroke="midnightblue" points="666.038,-24.8999 656.779,-19.7511 660.806,-29.5505 666.038,-24.8999"/>
</g>
<!-- Node26&#45;&gt;Node23 -->
<g id="edge29" class="edge"><title>Node26&#45;&gt;Node23</title>
<path fill="none" stroke="midnightblue" d="M710.817,-56.324C724.233,-47.9002 744.824,-34.9709 760.586,-25.0741"/>
<polygon fill="midnightblue" stroke="midnightblue" points="762.609,-27.9364 769.217,-19.6545 758.887,-22.0081 762.609,-27.9364"/>
</g>
<!-- Node26&#45;&gt;Node25 -->
<g id="edge26" class="edge"><title>Node26&#45;&gt;Node25</title>
<path fill="none" stroke="midnightblue" d="M719.659,-56.4435C744.938,-46.8974 785.821,-31.4593 812.806,-21.2692"/>
<polygon fill="midnightblue" stroke="midnightblue" points="814.287,-24.451 822.406,-17.6439 811.814,-17.9023 814.287,-24.451"/>
</g>
<!-- Node27 -->
<g id="node27" class="node"><title>Node27</title>
<polygon fill="white" stroke="#bfbfbf" points="714.5,-0.5 714.5,-19.5 743.5,-19.5 743.5,-0.5 714.5,-0.5"/>
<text text-anchor="middle" x="729" y="-7.5" font-family="Helvetica,sans-Serif" font-size="10.00">list</text>
</g>
<!-- Node26&#45;&gt;Node27 -->
<g id="edge28" class="edge"><title>Node26&#45;&gt;Node27</title>
<path fill="none" stroke="midnightblue" d="M702.284,-56.083C706.711,-48.6127 713.163,-37.7244 718.618,-28.5199"/>
<polygon fill="midnightblue" stroke="midnightblue" points="721.727,-30.1383 723.814,-19.7511 715.705,-26.5697 721.727,-30.1383"/>
</g>
<!-- Node28&#45;&gt;Node2 -->
<g id="edge34" class="edge"><title>Node28&#45;&gt;Node2</title>
<path fill="none" stroke="midnightblue" d="M546.869,-448.442C546.598,-429.937 546,-384.814 546,-347 546,-347 546,-347 546,-289 546,-221.443 582.659,-206.747 638,-168 661.837,-151.311 692.08,-140.647 718.771,-133.916"/>
<polygon fill="midnightblue" stroke="midnightblue" points="719.89,-137.247 728.806,-131.524 718.267,-130.438 719.89,-137.247"/>
</g>
<!-- Node28&#45;&gt;Node14 -->
<g id="edge59" class="edge"><title>Node28&#45;&gt;Node14</title>
<path fill="none" stroke="midnightblue" d="M541.106,-448.431C511.442,-405.896 373.703,-215.383 217,-112 202.942,-102.725 163.547,-88.6834 133.697,-78.7558"/>
<polygon fill="midnightblue" stroke="midnightblue" points="134.583,-75.3629 123.99,-75.5597 132.393,-82.0117 134.583,-75.3629"/>
</g>
<!-- Node28&#45;&gt;Node17 -->
<g id="edge60" class="edge"><title>Node28&#45;&gt;Node17</title>
<path fill="none" stroke="midnightblue" d="M598.104,-456.307C791.412,-453.02 1467,-435.222 1467,-347 1467,-347 1467,-347 1467,-177 1467,-144.948 1467,-107.643 1467,-85.7489"/>
<polygon fill="midnightblue" stroke="midnightblue" points="1470.5,-85.5577 1467,-75.5578 1463.5,-85.5578 1470.5,-85.5577"/>
</g>
<!-- Node28&#45;&gt;Node24 -->
<g id="edge61" class="edge"><title>Node28&#45;&gt;Node24</title>
<path fill="none" stroke="midnightblue" d="M495.871,-451.425C400.043,-439.549 203,-407.742 203,-347 203,-347 203,-347 203,-177 203,-143.251 108.997,-100.272 58.0021,-79.4394"/>
<polygon fill="midnightblue" stroke="midnightblue" points="59.0006,-76.0684 48.4172,-75.5775 56.3846,-82.5612 59.0006,-76.0684"/>
</g>
<!-- Node29 -->
<g id="node29" class="node"><title>Node29</title>
<g id="a_node29"><a xlink:href="mathlib_8h.html" target="_top" xlink:title="mathlib include file ">
<polygon fill="white" stroke="black" points="757.5,-392.5 757.5,-411.5 838.5,-411.5 838.5,-392.5 757.5,-392.5"/>
<text text-anchor="middle" x="798" y="-399.5" font-family="Helvetica,sans-Serif" font-size="10.00">math/mathlib.h</text>
</a>
</g>
</g>
<!-- Node28&#45;&gt;Node29 -->
<g id="edge35" class="edge"><title>Node28&#45;&gt;Node29</title>
<path fill="none" stroke="midnightblue" d="M586.772,-448.444C630.558,-439.023 701.014,-423.866 748.38,-413.675"/>
<polygon fill="midnightblue" stroke="midnightblue" points="749.374,-417.041 758.414,-411.516 747.902,-410.198 749.374,-417.041"/>
</g>
<!-- Node29&#45;&gt;Node2 -->
<g id="edge36" class="edge"><title>Node29&#45;&gt;Node2</title>
<path fill="none" stroke="midnightblue" d="M757.488,-399.897C722.156,-396.759 671.857,-386.695 641,-356 619.662,-334.774 622,-321.098 622,-291 622,-291 622,-291 622,-233 622,-178.166 686.456,-148.684 733.801,-134.425"/>
<polygon fill="midnightblue" stroke="midnightblue" points="734.968,-137.731 743.615,-131.61 733.038,-131.003 734.968,-137.731"/>
</g>
<!-- Node29&#45;&gt;Node12 -->
<g id="edge57" class="edge"><title>Node29&#45;&gt;Node12</title>
<path fill="none" stroke="midnightblue" d="M838.915,-398.216C978.742,-388.161 1429,-351.118 1429,-291 1429,-291 1429,-291 1429,-177 1429,-144.12 1419.03,-106.86 1412.22,-85.2353"/>
<polygon fill="midnightblue" stroke="midnightblue" points="1415.54,-84.1248 1409.1,-75.7105 1408.89,-86.3032 1415.54,-84.1248"/>
</g>
<!-- Node29&#45;&gt;Node14 -->
<g id="edge58" class="edge"><title>Node29&#45;&gt;Node14</title>
<path fill="none" stroke="midnightblue" d="M757.24,-398.417C719.536,-394.303 663.386,-383.638 623,-356 512.868,-280.63 563.063,-179.603 448,-112 389.685,-77.7383 216.935,-87.666 133.945,-75.7722"/>
<polygon fill="midnightblue" stroke="midnightblue" points="134.476,-72.3126 124.044,-74.1652 133.354,-79.2221 134.476,-72.3126"/>
</g>
<!-- Node30 -->
<g id="node30" class="node"><title>Node30</title>
<g id="a_node30"><a xlink:href="cosmos-errno_8h.html" target="_top" xlink:title="COSMOS Error Codes. ">
<polygon fill="white" stroke="black" points="650.5,-336.5 650.5,-355.5 769.5,-355.5 769.5,-336.5 650.5,-336.5"/>
<text text-anchor="middle" x="710" y="-343.5" font-family="Helvetica,sans-Serif" font-size="10.00">support/cosmos&#45;errno.h</text>
</a>
</g>
</g>
<!-- Node29&#45;&gt;Node30 -->
<g id="edge37" class="edge"><title>Node29&#45;&gt;Node30</title>
<path fill="none" stroke="midnightblue" d="M783.861,-392.324C770.134,-383.9 749.064,-370.971 732.936,-361.074"/>
<polygon fill="midnightblue" stroke="midnightblue" points="734.457,-357.902 724.104,-355.655 730.796,-363.868 734.457,-357.902"/>
</g>
<!-- Node32 -->
<g id="node32" class="node"><title>Node32</title>
<g id="a_node32"><a xlink:href="math_2constants_8h.html" target="_top" xlink:title="constants.h">
<polygon fill="white" stroke="black" points="974,-168.5 974,-187.5 1042,-187.5 1042,-168.5 974,-168.5"/>
<text text-anchor="middle" x="1008" y="-175.5" font-family="Helvetica,sans-Serif" font-size="10.00">constants.h</text>
</a>
</g>
</g>
<!-- Node29&#45;&gt;Node32 -->
<g id="edge40" class="edge"><title>Node29&#45;&gt;Node32</title>
<path fill="none" stroke="midnightblue" d="M838.344,-392.434C861.996,-385.746 891.214,-374.411 912,-356 962.532,-311.241 991.452,-233.297 1002.61,-197.698"/>
<polygon fill="midnightblue" stroke="midnightblue" points="1006.08,-198.309 1005.62,-187.724 999.382,-196.289 1006.08,-198.309"/>
</g>
<!-- Node33 -->
<g id="node33" class="node"><title>Node33</title>
<g id="a_node33"><a xlink:href="vector_8h.html" target="_top" xlink:title="vector.h">
<polygon fill="white" stroke="black" points="886,-224.5 886,-243.5 938,-243.5 938,-224.5 886,-224.5"/>
<text text-anchor="middle" x="912" y="-231.5" font-family="Helvetica,sans-Serif" font-size="10.00">vector.h</text>
</a>
</g>
</g>
<!-- Node29&#45;&gt;Node33 -->
<g id="edge43" class="edge"><title>Node29&#45;&gt;Node33</title>
<path fill="none" stroke="midnightblue" d="M834.571,-392.39C854.594,-385.77 878.094,-374.52 892,-356 914.617,-325.879 915.526,-279.606 913.929,-253.888"/>
<polygon fill="midnightblue" stroke="midnightblue" points="917.395,-253.33 913.088,-243.65 910.419,-253.903 917.395,-253.33"/>
</g>
<!-- Node35 -->
<g id="node35" class="node"><title>Node35</title>
<g id="a_node35"><a xlink:href="matrix_8h.html" target="_top" xlink:title="matrix.h">
<polygon fill="white" stroke="black" points="754,-280.5 754,-299.5 806,-299.5 806,-280.5 754,-280.5"/>
<text text-anchor="middle" x="780" y="-287.5" font-family="Helvetica,sans-Serif" font-size="10.00">matrix.h</text>
</a>
</g>
</g>
<!-- Node29&#45;&gt;Node35 -->
<g id="edge50" class="edge"><title>Node29&#45;&gt;Node35</title>
<path fill="none" stroke="midnightblue" d="M796.588,-392.368C793.683,-374.617 786.982,-333.666 783.043,-309.597"/>
<polygon fill="midnightblue" stroke="midnightblue" points="786.475,-308.895 781.406,-299.591 779.567,-310.025 786.475,-308.895"/>
</g>
<!-- Node36 -->
<g id="node36" class="node"><title>Node36</title>
<g id="a_node36"><a xlink:href="rotation_8h.html" target="_top" xlink:title="rotation.h">
<polygon fill="white" stroke="black" points="826.5,-336.5 826.5,-355.5 883.5,-355.5 883.5,-336.5 826.5,-336.5"/>
<text text-anchor="middle" x="855" y="-343.5" font-family="Helvetica,sans-Serif" font-size="10.00">rotation.h</text>
</a>
</g>
</g>
<!-- Node29&#45;&gt;Node36 -->
<g id="edge53" class="edge"><title>Node29&#45;&gt;Node36</title>
<path fill="none" stroke="midnightblue" d="M807.158,-392.324C815.501,-384.42 828.032,-372.548 838.177,-362.938"/>
<polygon fill="midnightblue" stroke="midnightblue" points="840.823,-365.252 845.675,-355.834 836.009,-360.171 840.823,-365.252"/>
</g>
<!-- Node30&#45;&gt;Node2 -->
<g id="edge38" class="edge"><title>Node30&#45;&gt;Node2</title>
<path fill="none" stroke="midnightblue" d="M712.862,-336.297C723.626,-303.563 761.832,-187.375 776.862,-141.666"/>
<polygon fill="midnightblue" stroke="midnightblue" points="780.28,-142.477 780.079,-131.884 773.63,-140.29 780.28,-142.477"/>
</g>
<!-- Node31 -->
<g id="node31" class="node"><title>Node31</title>
<polygon fill="white" stroke="#bfbfbf" points="650.5,-280.5 650.5,-299.5 697.5,-299.5 697.5,-280.5 650.5,-280.5"/>
<text text-anchor="middle" x="674" y="-287.5" font-family="Helvetica,sans-Serif" font-size="10.00">errno.h</text>
</g>
<!-- Node30&#45;&gt;Node31 -->
<g id="edge39" class="edge"><title>Node30&#45;&gt;Node31</title>
<path fill="none" stroke="midnightblue" d="M704.055,-336.083C699.023,-328.534 691.663,-317.495 685.487,-308.23"/>
<polygon fill="midnightblue" stroke="midnightblue" points="688.293,-306.13 679.834,-299.751 682.469,-310.013 688.293,-306.13"/>
</g>
<!-- Node32&#45;&gt;Node2 -->
<g id="edge41" class="edge"><title>Node32&#45;&gt;Node2</title>
<path fill="none" stroke="midnightblue" d="M973.827,-168.799C935.018,-159.484 871.519,-144.244 828.531,-133.927"/>
<polygon fill="midnightblue" stroke="midnightblue" points="829.152,-130.477 818.611,-131.547 827.518,-137.284 829.152,-130.477"/>
</g>
<!-- Node32&#45;&gt;Node5 -->
<g id="edge42" class="edge"><title>Node32&#45;&gt;Node5</title>
<path fill="none" stroke="midnightblue" d="M1031.31,-168.368C1083.9,-148.89 1211.91,-101.479 1272.36,-79.089"/>
<polygon fill="midnightblue" stroke="midnightblue" points="1273.64,-82.3468 1281.8,-75.5914 1271.21,-75.7825 1273.64,-82.3468"/>
</g>
<!-- Node33&#45;&gt;Node2 -->
<g id="edge44" class="edge"><title>Node33&#45;&gt;Node2</title>
<path fill="none" stroke="midnightblue" d="M905.524,-224.31C895.45,-211.148 874.989,-185.808 854,-168 839.851,-155.995 822.242,-144.815 808.101,-136.601"/>
<polygon fill="midnightblue" stroke="midnightblue" points="809.804,-133.544 799.38,-131.653 806.35,-139.632 809.804,-133.544"/>
</g>
<!-- Node33&#45;&gt;Node12 -->
<g id="edge48" class="edge"><title>Node33&#45;&gt;Node12</title>
<path fill="none" stroke="midnightblue" d="M938.129,-232.068C1029.86,-228.571 1333.48,-215.037 1367,-188 1397.96,-163.022 1404.66,-113.231 1405.91,-85.9522"/>
<polygon fill="midnightblue" stroke="midnightblue" points="1409.41,-85.8629 1406.17,-75.7775 1402.42,-85.6856 1409.41,-85.8629"/>
</g>
<!-- Node33&#45;&gt;Node14 -->
<g id="edge46" class="edge"><title>Node33&#45;&gt;Node14</title>
<path fill="none" stroke="midnightblue" d="M887.398,-224.364C822.608,-201.985 641.555,-141.786 486,-112 334.288,-82.9501 290.142,-102.36 133.995,-75.9228"/>
<polygon fill="midnightblue" stroke="midnightblue" points="134.488,-72.4562 124.038,-74.2011 133.295,-79.3538 134.488,-72.4562"/>
</g>
<!-- Node33&#45;&gt;Node18 -->
<g id="edge49" class="edge"><title>Node33&#45;&gt;Node18</title>
<path fill="none" stroke="midnightblue" d="M938.108,-232.86C1015.4,-230.853 1243.46,-213.095 1337,-76 1353.78,-51.4148 1315.75,-31.8357 1285.77,-20.8231"/>
<polygon fill="midnightblue" stroke="midnightblue" points="1286.6,-17.4056 1276.01,-17.4219 1284.3,-24.0161 1286.6,-17.4056"/>
</g>
<!-- Node33&#45;&gt;Node32 -->
<g id="edge45" class="edge"><title>Node33&#45;&gt;Node32</title>
<path fill="none" stroke="midnightblue" d="M927.424,-224.324C942.54,-215.822 965.815,-202.729 983.471,-192.797"/>
<polygon fill="midnightblue" stroke="midnightblue" points="985.614,-195.608 992.614,-187.655 982.183,-189.507 985.614,-195.608"/>
</g>
<!-- Node34 -->
<g id="node34" class="node"><title>Node34</title>
<polygon fill="white" stroke="#bfbfbf" points="906,-168.5 906,-187.5 956,-187.5 956,-168.5 906,-168.5"/>
<text text-anchor="middle" x="931" y="-175.5" font-family="Helvetica,sans-Serif" font-size="10.00">iomanip</text>
</g>
<!-- Node33&#45;&gt;Node34 -->
<g id="edge47" class="edge"><title>Node33&#45;&gt;Node34</title>
<path fill="none" stroke="midnightblue" d="M915.137,-224.083C917.683,-216.849 921.356,-206.409 924.527,-197.397"/>
<polygon fill="midnightblue" stroke="midnightblue" points="927.903,-198.346 927.921,-187.751 921.3,-196.023 927.903,-198.346"/>
</g>
<!-- Node35&#45;&gt;Node2 -->
<g id="edge51" class="edge"><title>Node35&#45;&gt;Node2</title>
<path fill="none" stroke="midnightblue" d="M780.161,-280.075C780.634,-253.945 782.02,-177.211 782.664,-141.577"/>
<polygon fill="midnightblue" stroke="midnightblue" points="786.164,-141.63 782.845,-131.568 779.165,-141.503 786.164,-141.63"/>
</g>
<!-- Node35&#45;&gt;Node33 -->
<g id="edge52" class="edge"><title>Node35&#45;&gt;Node33</title>
<path fill="none" stroke="midnightblue" d="M800.916,-280.444C822.736,-271.517 857.15,-257.439 881.892,-247.317"/>
<polygon fill="midnightblue" stroke="midnightblue" points="883.252,-250.542 891.182,-243.516 880.601,-244.063 883.252,-250.542"/>
</g>
<!-- Node36&#45;&gt;Node2 -->
<g id="edge54" class="edge"><title>Node36&#45;&gt;Node2</title>
<path fill="none" stroke="midnightblue" d="M852.178,-336.297C841.561,-303.563 803.878,-187.375 789.054,-141.666"/>
<polygon fill="midnightblue" stroke="midnightblue" points="792.296,-140.316 785.881,-131.884 785.637,-142.476 792.296,-140.316"/>
</g>
<!-- Node36&#45;&gt;Node33 -->
<g id="edge55" class="edge"><title>Node36&#45;&gt;Node33</title>
<path fill="none" stroke="midnightblue" d="M859.473,-336.368C868.796,-318.376 890.469,-276.55 902.866,-252.627"/>
<polygon fill="midnightblue" stroke="midnightblue" points="906.055,-254.081 907.548,-243.591 899.84,-250.86 906.055,-254.081"/>
</g>
<!-- Node36&#45;&gt;Node35 -->
<g id="edge56" class="edge"><title>Node36&#45;&gt;Node35</title>
<path fill="none" stroke="midnightblue" d="M842.95,-336.324C831.537,-328.107 814.169,-315.602 800.565,-305.807"/>
<polygon fill="midnightblue" stroke="midnightblue" points="802.43,-302.837 792.269,-299.834 798.34,-308.517 802.43,-302.837"/>
</g>
</g>
</svg>
        <g id="navigator" transform="translate(0 0)" fill="#404254">
                <rect fill="#f2f5e9" fill-opacity="0.5" stroke="#606060" stroke-width=".5" x="0" y="0" width="60" height="60"/>
                <use id="zoomplus" xlink:href="#zoomPlus" x="17" y="9" onmousedown="handleZoom(evt,'in')"/>
                <use id="zoomminus" xlink:href="#zoomMin" x="42" y="9" onmousedown="handleZoom(evt,'out')"/>
                <use id="reset" xlink:href="#resetDef" x="30" y="36" onmousedown="handleReset()"/>
                <g id="arrowUp" xlink:href="#dirArrow" transform="translate(30 24)" onmousedown="handlePan(0,-1)">
                  <use xlink:href="#rim" fill="#404040">
                        <set attributeName="fill" to="#808080" begin="arrowUp.mouseover" end="arrowUp.mouseout"/>
                  </use>
                  <path fill="none" stroke="white" stroke-width="1.5" d="M0,-3.0v7 M-2.5,-0.5L0,-3.0L2.5,-0.5"/>
                </g>
                <g id="arrowRight" xlink:href="#dirArrow" transform="rotate(90) translate(36 -43)" onmousedown="handlePan(1,0)">
                  <use xlink:href="#rim" fill="#404040">
                        <set attributeName="fill" to="#808080" begin="arrowRight.mouseover" end="arrowRight.mouseout"/>
                  </use>
                  <path fill="none" stroke="white" stroke-width="1.5" d="M0,-3.0v7 M-2.5,-0.5L0,-3.0L2.5,-0.5"/>
                </g>
                <g id="arrowDown" xlink:href="#dirArrow" transform="rotate(180) translate(-30 -48)" onmousedown="handlePan(0,1)">
                  <use xlink:href="#rim" fill="#404040">
                        <set attributeName="fill" to="#808080" begin="arrowDown.mouseover" end="arrowDown.mouseout"/>
                  </use>
                  <path fill="none" stroke="white" stroke-width="1.5" d="M0,-3.0v7 M-2.5,-0.5L0,-3.0L2.5,-0.5"/>
                </g>
                <g id="arrowLeft" xlink:href="#dirArrow" transform="rotate(270) translate(-36 17)" onmousedown="handlePan(-1,0)">
                  <use xlink:href="#rim" fill="#404040">
                        <set attributeName="fill" to="#808080" begin="arrowLeft.mouseover" end="arrowLeft.mouseout"/>
                  </use>
                  <path fill="none" stroke="white" stroke-width="1.5" d="M0,-3.0v7 M-2.5,-0.5L0,-3.0L2.5,-0.5"/>
                </g>
        </g>
        <svg viewBox="0 0 15 15" width="100%" height="30px" preserveAspectRatio="xMaxYMin meet">
         <g id="arrow_out" transform="scale(0.3 0.3)">
          <a xlink:href="print__utils_8cpp__incl_org.svg" target="_base">
           <rect id="button" ry="5" rx="5" y="6" x="6" height="38" width="38"
                fill="#f2f5e9" fill-opacity="0.5" stroke="#606060" stroke-width="1.0"/>
           <path id="arrow"
             d="M 11.500037,31.436501 C 11.940474,20.09759 22.043105,11.32322 32.158766,21.979434 L 37.068811,17.246167 C 37.068811,17.246167 37.088388,32 37.088388,32 L 22.160133,31.978069 C 22.160133,31.978069 26.997745,27.140456 26.997745,27.140456 C 18.528582,18.264221 13.291696,25.230495 11.500037,31.436501 z"
             style="fill:#404040;"/>
          </a>
         </g>
        </svg>
</svg>
