<?xml version="1.0" encoding="UTF-8" standalone="no"?>
<!DOCTYPE svg PUBLIC "-//W3C//DTD SVG 1.1//EN"
 "http://www.w3.org/Graphics/SVG/1.1/DTD/svg11.dtd">
<!-- Generated by graphviz version 2.38.0 (20140413.2041)
 -->
<!-- Title: prkx2su_lib.h Pages: 1 -->
<svg width="1495pt" height="476pt"
 viewBox="0.00 0.00 1495.00 476.00" xmlns="http://www.w3.org/2000/svg" xmlns:xlink="http://www.w3.org/1999/xlink">
<g id="graph0" class="graph" transform="scale(1 1) rotate(0) translate(4 472)">
<title>prkx2su_lib.h</title>
<polygon fill="white" stroke="none" points="-4,4 -4,-472 1491,-472 1491,4 -4,4"/>
<!-- Node1 -->
<g id="node1" class="node"><title>Node1</title>
<polygon fill="#bfbfbf" stroke="black" points="639,-448.5 639,-467.5 713,-467.5 713,-448.5 639,-448.5"/>
<text text-anchor="middle" x="676" y="-455.5" font-family="Helvetica,sans-Serif" font-size="10.00">prkx2su_lib.h</text>
</g>
<!-- Node2 -->
<g id="node2" class="node"><title>Node2</title>
<g id="a_node2"><a xlink:href="config_cosmos_8h.html" target="_top" xlink:title="Headers and definitions common to all COSMOS. ">
<polygon fill="white" stroke="black" points="565.5,-112.5 565.5,-131.5 688.5,-131.5 688.5,-112.5 565.5,-112.5"/>
<text text-anchor="middle" x="627" y="-119.5" font-family="Helvetica,sans-Serif" font-size="10.00">support/configCosmos.h</text>
</a>
</g>
</g>
<!-- Node1&#45;&gt;Node2 -->
<g id="edge1" class="edge"><title>Node1&#45;&gt;Node2</title>
<path fill="none" stroke="midnightblue" d="M670.186,-448.304C655.214,-425.323 615.56,-360.575 602,-300 589.148,-242.589 609.039,-173.146 620.227,-140.972"/>
<polygon fill="midnightblue" stroke="midnightblue" points="623.521,-142.156 623.628,-131.561 616.938,-139.777 623.521,-142.156"/>
</g>
<!-- Node28 -->
<g id="node28" class="node"><title>Node28</title>
<g id="a_node28"><a xlink:href="mathlib_8h.html" target="_top" xlink:title="mathlib include file ">
<polygon fill="white" stroke="black" points="333.5,-392.5 333.5,-411.5 414.5,-411.5 414.5,-392.5 333.5,-392.5"/>
<text text-anchor="middle" x="374" y="-399.5" font-family="Helvetica,sans-Serif" font-size="10.00">math/mathlib.h</text>
</a>
</g>
</g>
<!-- Node1&#45;&gt;Node28 -->
<g id="edge33" class="edge"><title>Node1&#45;&gt;Node28</title>
<path fill="none" stroke="midnightblue" d="M638.969,-450.379C585.219,-440.768 485.408,-422.921 424.815,-412.086"/>
<polygon fill="midnightblue" stroke="midnightblue" points="425.169,-408.594 414.709,-410.279 423.937,-415.485 425.169,-408.594"/>
</g>
<!-- Node29 -->
<g id="node29" class="node"><title>Node29</title>
<g id="a_node29"><a xlink:href="cosmos-errno_8h.html" target="_top" xlink:title="COSMOS Error Codes. ">
<polygon fill="white" stroke="black" points="693.5,-168.5 693.5,-187.5 812.5,-187.5 812.5,-168.5 693.5,-168.5"/>
<text text-anchor="middle" x="753" y="-175.5" font-family="Helvetica,sans-Serif" font-size="10.00">support/cosmos&#45;errno.h</text>
</a>
</g>
</g>
<!-- Node1&#45;&gt;Node29 -->
<g id="edge57" class="edge"><title>Node1&#45;&gt;Node29</title>
<path fill="none" stroke="midnightblue" d="M691.357,-448.31C717.772,-432.093 769,-394.515 769,-347 769,-347 769,-347 769,-289 769,-256.626 762.129,-219.445 757.393,-197.659"/>
<polygon fill="midnightblue" stroke="midnightblue" points="760.777,-196.759 755.158,-187.777 753.95,-198.303 760.777,-196.759"/>
</g>
<!-- Node36 -->
<g id="node36" class="node"><title>Node36</title>
<g id="a_node36"><a xlink:href="serialclass_8h.html" target="_top" xlink:title="device/serial/serialclass.h">
<polygon fill="white" stroke="black" points="611.5,-280.5 611.5,-299.5 740.5,-299.5 740.5,-280.5 611.5,-280.5"/>
<text text-anchor="middle" x="676" y="-287.5" font-family="Helvetica,sans-Serif" font-size="10.00">device/serial/serialclass.h</text>
</a>
</g>
</g>
<!-- Node1&#45;&gt;Node36 -->
<g id="edge58" class="edge"><title>Node1&#45;&gt;Node36</title>
<path fill="none" stroke="midnightblue" d="M676,-448.075C676,-421.945 676,-345.211 676,-309.577"/>
<polygon fill="midnightblue" stroke="midnightblue" points="679.5,-309.568 676,-299.568 672.5,-309.568 679.5,-309.568"/>
</g>
<!-- Node38 -->
<g id="node38" class="node"><title>Node38</title>
<polygon fill="white" stroke="#bfbfbf" points="797,-392.5 797,-411.5 843,-411.5 843,-392.5 797,-392.5"/>
<text text-anchor="middle" x="820" y="-399.5" font-family="Helvetica,sans-Serif" font-size="10.00">stdio.h</text>
</g>
<!-- Node1&#45;&gt;Node38 -->
<g id="edge64" class="edge"><title>Node1&#45;&gt;Node38</title>
<path fill="none" stroke="midnightblue" d="M698.817,-448.444C722.832,-439.438 760.829,-425.189 787.869,-415.049"/>
<polygon fill="midnightblue" stroke="midnightblue" points="789.155,-418.305 797.29,-411.516 786.697,-411.751 789.155,-418.305"/>
</g>
<!-- Node3 -->
<g id="node3" class="node"><title>Node3</title>
<polygon fill="white" stroke="#bfbfbf" points="1238.5,-56.5 1238.5,-75.5 1283.5,-75.5 1283.5,-56.5 1238.5,-56.5"/>
<text text-anchor="middle" x="1261" y="-63.5" font-family="Helvetica,sans-Serif" font-size="10.00">climits</text>
</g>
<!-- Node2&#45;&gt;Node3 -->
<g id="edge2" class="edge"><title>Node2&#45;&gt;Node3</title>
<path fill="none" stroke="midnightblue" d="M688.511,-114.827C699.013,-113.836 709.817,-112.856 720,-112 943.781,-93.1827 1002.12,-110.66 1224,-76 1225.47,-75.7704 1226.97,-75.5117 1228.48,-75.2307"/>
<polygon fill="midnightblue" stroke="midnightblue" points="1229.36,-78.6203 1238.42,-73.1262 1227.91,-71.7719 1229.36,-78.6203"/>
</g>
<!-- Node4 -->
<g id="node4" class="node"><title>Node4</title>
<polygon fill="white" stroke="#bfbfbf" points="1301.5,-56.5 1301.5,-75.5 1348.5,-75.5 1348.5,-56.5 1301.5,-56.5"/>
<text text-anchor="middle" x="1325" y="-63.5" font-family="Helvetica,sans-Serif" font-size="10.00">csignal</text>
</g>
<!-- Node2&#45;&gt;Node4 -->
<g id="edge3" class="edge"><title>Node2&#45;&gt;Node4</title>
<path fill="none" stroke="midnightblue" d="M688.505,-114.753C699.008,-113.77 709.813,-112.813 720,-112 971.007,-91.9752 1039.64,-118.076 1291.18,-75.9738"/>
<polygon fill="midnightblue" stroke="midnightblue" points="1292.09,-79.3705 1301.36,-74.2496 1290.92,-72.4687 1292.09,-79.3705"/>
</g>
<!-- Node5 -->
<g id="node5" class="node"><title>Node5</title>
<polygon fill="white" stroke="#bfbfbf" points="172,-56.5 172,-75.5 218,-75.5 218,-56.5 172,-56.5"/>
<text text-anchor="middle" x="195" y="-63.5" font-family="Helvetica,sans-Serif" font-size="10.00">cstdint</text>
</g>
<!-- Node2&#45;&gt;Node5 -->
<g id="edge4" class="edge"><title>Node2&#45;&gt;Node5</title>
<path fill="none" stroke="midnightblue" d="M565.417,-116.387C487.413,-109.995 349.05,-96.8188 232,-76 230.755,-75.7786 229.49,-75.54 228.214,-75.2881"/>
<polygon fill="midnightblue" stroke="midnightblue" points="228.909,-71.8575 218.394,-73.1587 227.425,-78.6985 228.909,-71.8575"/>
</g>
<!-- Node6 -->
<g id="node6" class="node"><title>Node6</title>
<polygon fill="white" stroke="#bfbfbf" points="1367,-56.5 1367,-75.5 1423,-75.5 1423,-56.5 1367,-56.5"/>
<text text-anchor="middle" x="1395" y="-63.5" font-family="Helvetica,sans-Serif" font-size="10.00">cinttypes</text>
</g>
<!-- Node2&#45;&gt;Node6 -->
<g id="edge5" class="edge"><title>Node2&#45;&gt;Node6</title>
<path fill="none" stroke="midnightblue" d="M688.501,-114.697C699.004,-113.721 709.81,-112.78 720,-112 999.859,-90.5714 1075.32,-117.1 1356.72,-75.9084"/>
<polygon fill="midnightblue" stroke="midnightblue" points="1357.44,-79.3404 1366.82,-74.4143 1356.42,-72.4157 1357.44,-79.3404"/>
</g>
<!-- Node7 -->
<g id="node7" class="node"><title>Node7</title>
<polygon fill="white" stroke="#bfbfbf" points="274.5,-56.5 274.5,-75.5 317.5,-75.5 317.5,-56.5 274.5,-56.5"/>
<text text-anchor="middle" x="296" y="-63.5" font-family="Helvetica,sans-Serif" font-size="10.00">cstdio</text>
</g>
<!-- Node2&#45;&gt;Node7 -->
<g id="edge6" class="edge"><title>Node2&#45;&gt;Node7</title>
<path fill="none" stroke="midnightblue" d="M565.418,-114.408C506.455,-107.507 414.899,-95.2543 327.359,-76.0507"/>
<polygon fill="midnightblue" stroke="midnightblue" points="328.054,-72.62 317.533,-73.8617 326.532,-79.4525 328.054,-72.62"/>
</g>
<!-- Node8 -->
<g id="node8" class="node"><title>Node8</title>
<polygon fill="white" stroke="#bfbfbf" points="335.5,-56.5 335.5,-75.5 384.5,-75.5 384.5,-56.5 335.5,-56.5"/>
<text text-anchor="middle" x="360" y="-63.5" font-family="Helvetica,sans-Serif" font-size="10.00">cstddef</text>
</g>
<!-- Node2&#45;&gt;Node8 -->
<g id="edge7" class="edge"><title>Node2&#45;&gt;Node8</title>
<path fill="none" stroke="midnightblue" d="M576.555,-112.446C531.235,-104.503 462.665,-91.8505 394.817,-76.3006"/>
<polygon fill="midnightblue" stroke="midnightblue" points="395.346,-72.8307 384.815,-73.9856 393.768,-79.6504 395.346,-72.8307"/>
</g>
<!-- Node9 -->
<g id="node9" class="node"><title>Node9</title>
<polygon fill="white" stroke="#bfbfbf" points="402.5,-56.5 402.5,-75.5 447.5,-75.5 447.5,-56.5 402.5,-56.5"/>
<text text-anchor="middle" x="425" y="-63.5" font-family="Helvetica,sans-Serif" font-size="10.00">cstdlib</text>
</g>
<!-- Node2&#45;&gt;Node9 -->
<g id="edge8" class="edge"><title>Node2&#45;&gt;Node9</title>
<path fill="none" stroke="midnightblue" d="M594.052,-112.439C561.783,-104.019 510.964,-90.6652 457.686,-76.1564"/>
<polygon fill="midnightblue" stroke="midnightblue" points="458.282,-72.6911 447.714,-73.4348 456.439,-79.4441 458.282,-72.6911"/>
</g>
<!-- Node10 -->
<g id="node10" class="node"><title>Node10</title>
<polygon fill="white" stroke="#bfbfbf" points="466,-56.5 466,-75.5 510,-75.5 510,-56.5 466,-56.5"/>
<text text-anchor="middle" x="488" y="-63.5" font-family="Helvetica,sans-Serif" font-size="10.00">cerrno</text>
</g>
<!-- Node2&#45;&gt;Node10 -->
<g id="edge9" class="edge"><title>Node2&#45;&gt;Node10</title>
<path fill="none" stroke="midnightblue" d="M604.975,-112.444C581.896,-103.478 545.438,-89.314 519.359,-79.1827"/>
<polygon fill="midnightblue" stroke="midnightblue" points="520.511,-75.8753 509.922,-75.5164 517.976,-82.4002 520.511,-75.8753"/>
</g>
<!-- Node11 -->
<g id="node11" class="node"><title>Node11</title>
<polygon fill="white" stroke="#bfbfbf" points="1441,-56.5 1441,-75.5 1487,-75.5 1487,-56.5 1441,-56.5"/>
<text text-anchor="middle" x="1464" y="-63.5" font-family="Helvetica,sans-Serif" font-size="10.00">cstring</text>
</g>
<!-- Node2&#45;&gt;Node11 -->
<g id="edge10" class="edge"><title>Node2&#45;&gt;Node11</title>
<path fill="none" stroke="midnightblue" d="M688.747,-114.623C699.172,-113.662 709.889,-112.744 720,-112 1032.6,-88.9837 1117.5,-126.393 1430.44,-75.8751"/>
<polygon fill="midnightblue" stroke="midnightblue" points="1431.41,-79.2632 1440.72,-74.1981 1430.28,-72.3546 1431.41,-79.2632"/>
</g>
<!-- Node12 -->
<g id="node12" class="node"><title>Node12</title>
<polygon fill="white" stroke="#bfbfbf" points="0,-56.5 0,-75.5 44,-75.5 44,-56.5 0,-56.5"/>
<text text-anchor="middle" x="22" y="-63.5" font-family="Helvetica,sans-Serif" font-size="10.00">cmath</text>
</g>
<!-- Node2&#45;&gt;Node12 -->
<g id="edge11" class="edge"><title>Node2&#45;&gt;Node12</title>
<path fill="none" stroke="midnightblue" d="M565.306,-120.281C461.397,-118.172 244.942,-109.916 54.1489,-75.8417"/>
<polygon fill="midnightblue" stroke="midnightblue" points="54.6851,-72.3819 44.221,-74.0408 53.4357,-79.2695 54.6851,-72.3819"/>
</g>
<!-- Node13 -->
<g id="node13" class="node"><title>Node13</title>
<polygon fill="white" stroke="#bfbfbf" points="528.5,-56.5 528.5,-75.5 573.5,-75.5 573.5,-56.5 528.5,-56.5"/>
<text text-anchor="middle" x="551" y="-63.5" font-family="Helvetica,sans-Serif" font-size="10.00">iosfwd</text>
</g>
<!-- Node2&#45;&gt;Node13 -->
<g id="edge12" class="edge"><title>Node2&#45;&gt;Node13</title>
<path fill="none" stroke="midnightblue" d="M614.789,-112.324C603.224,-104.107 585.625,-91.6017 571.839,-81.8069"/>
<polygon fill="midnightblue" stroke="midnightblue" points="573.612,-78.7729 563.433,-75.8339 569.557,-84.4791 573.612,-78.7729"/>
</g>
<!-- Node14 -->
<g id="node14" class="node"><title>Node14</title>
<polygon fill="white" stroke="#bfbfbf" points="62,-56.5 62,-75.5 116,-75.5 116,-56.5 62,-56.5"/>
<text text-anchor="middle" x="89" y="-63.5" font-family="Helvetica,sans-Serif" font-size="10.00">iostream</text>
</g>
<!-- Node2&#45;&gt;Node14 -->
<g id="edge13" class="edge"><title>Node2&#45;&gt;Node14</title>
<path fill="none" stroke="midnightblue" d="M565.405,-115.507C476.486,-107.469 307.014,-91.7386 163,-76 150.96,-74.6842 137.833,-73.1276 126.024,-71.6822"/>
<polygon fill="midnightblue" stroke="midnightblue" points="126.399,-68.202 116.045,-70.4495 125.54,-75.1492 126.399,-68.202"/>
</g>
<!-- Node15 -->
<g id="node15" class="node"><title>Node15</title>
<polygon fill="white" stroke="#bfbfbf" points="591.5,-56.5 591.5,-75.5 642.5,-75.5 642.5,-56.5 591.5,-56.5"/>
<text text-anchor="middle" x="617" y="-63.5" font-family="Helvetica,sans-Serif" font-size="10.00">unistd.h</text>
</g>
<!-- Node2&#45;&gt;Node15 -->
<g id="edge14" class="edge"><title>Node2&#45;&gt;Node15</title>
<path fill="none" stroke="midnightblue" d="M625.349,-112.083C624.024,-104.927 622.118,-94.6353 620.461,-85.6911"/>
<polygon fill="midnightblue" stroke="midnightblue" points="623.883,-84.9466 618.621,-75.7511 617,-86.2212 623.883,-84.9466"/>
</g>
<!-- Node16 -->
<g id="node16" class="node"><title>Node16</title>
<polygon fill="white" stroke="#bfbfbf" points="661,-56.5 661,-75.5 705,-75.5 705,-56.5 661,-56.5"/>
<text text-anchor="middle" x="683" y="-63.5" font-family="Helvetica,sans-Serif" font-size="10.00">fcntl.h</text>
</g>
<!-- Node2&#45;&gt;Node16 -->
<g id="edge15" class="edge"><title>Node2&#45;&gt;Node16</title>
<path fill="none" stroke="midnightblue" d="M635.997,-112.324C644.194,-104.42 656.506,-92.5482 666.472,-82.9377"/>
<polygon fill="midnightblue" stroke="midnightblue" points="669.07,-85.2947 673.839,-75.8339 664.211,-80.2558 669.07,-85.2947"/>
</g>
<!-- Node17 -->
<g id="node17" class="node"><title>Node17</title>
<polygon fill="white" stroke="#bfbfbf" points="723.5,-56.5 723.5,-75.5 764.5,-75.5 764.5,-56.5 723.5,-56.5"/>
<text text-anchor="middle" x="744" y="-63.5" font-family="Helvetica,sans-Serif" font-size="10.00">string</text>
</g>
<!-- Node2&#45;&gt;Node17 -->
<g id="edge16" class="edge"><title>Node2&#45;&gt;Node17</title>
<path fill="none" stroke="midnightblue" d="M645.539,-112.444C664.623,-103.636 694.575,-89.8116 716.436,-79.722"/>
<polygon fill="midnightblue" stroke="midnightblue" points="717.935,-82.8849 725.548,-75.5164 715.001,-76.5292 717.935,-82.8849"/>
</g>
<!-- Node18 -->
<g id="node18" class="node"><title>Node18</title>
<polygon fill="white" stroke="#bfbfbf" points="224,-0.5 224,-19.5 268,-19.5 268,-0.5 224,-0.5"/>
<text text-anchor="middle" x="246" y="-7.5" font-family="Helvetica,sans-Serif" font-size="10.00">vector</text>
</g>
<!-- Node2&#45;&gt;Node18 -->
<g id="edge17" class="edge"><title>Node2&#45;&gt;Node18</title>
<path fill="none" stroke="midnightblue" d="M565.498,-121.263C474.245,-120.375 309.012,-113.451 265,-76 251.729,-64.7068 247.456,-44.7015 246.21,-29.8581"/>
<polygon fill="midnightblue" stroke="midnightblue" points="249.701,-29.5734 245.749,-19.7432 242.708,-29.8923 249.701,-29.5734"/>
</g>
<!-- Node19 -->
<g id="node19" class="node"><title>Node19</title>
<polygon fill="white" stroke="#bfbfbf" points="782.5,-56.5 782.5,-75.5 825.5,-75.5 825.5,-56.5 782.5,-56.5"/>
<text text-anchor="middle" x="804" y="-63.5" font-family="Helvetica,sans-Serif" font-size="10.00">deque</text>
</g>
<!-- Node2&#45;&gt;Node19 -->
<g id="edge18" class="edge"><title>Node2&#45;&gt;Node19</title>
<path fill="none" stroke="midnightblue" d="M655.046,-112.444C687.114,-102.66 739.466,-86.6884 772.798,-76.5194"/>
<polygon fill="midnightblue" stroke="midnightblue" points="773.944,-79.8289 782.488,-73.5631 771.902,-73.1335 773.944,-79.8289"/>
</g>
<!-- Node20 -->
<g id="node20" class="node"><title>Node20</title>
<polygon fill="white" stroke="#bfbfbf" points="834,-0.5 834,-19.5 878,-19.5 878,-0.5 834,-0.5"/>
<text text-anchor="middle" x="856" y="-7.5" font-family="Helvetica,sans-Serif" font-size="10.00">mutex</text>
</g>
<!-- Node2&#45;&gt;Node20 -->
<g id="edge19" class="edge"><title>Node2&#45;&gt;Node20</title>
<path fill="none" stroke="midnightblue" d="M688.57,-114.348C741.575,-107.442 812.781,-94.9606 834,-76 847.167,-64.2342 852.462,-44.3036 854.587,-29.6068"/>
<polygon fill="midnightblue" stroke="midnightblue" points="858.072,-29.9294 855.671,-19.6102 851.113,-29.1743 858.072,-29.9294"/>
</g>
<!-- Node21 -->
<g id="node21" class="node"><title>Node21</title>
<polygon fill="white" stroke="#bfbfbf" points="898,-0.5 898,-19.5 942,-19.5 942,-0.5 898,-0.5"/>
<text text-anchor="middle" x="920" y="-7.5" font-family="Helvetica,sans-Serif" font-size="10.00">thread</text>
</g>
<!-- Node2&#45;&gt;Node21 -->
<g id="edge20" class="edge"><title>Node2&#45;&gt;Node21</title>
<path fill="none" stroke="midnightblue" d="M688.749,-112.94C746.111,-104.715 826.789,-91.0519 855,-76 876.892,-64.3191 896.169,-42.8496 907.932,-27.7908"/>
<polygon fill="midnightblue" stroke="midnightblue" points="910.738,-29.8831 913.952,-19.7877 905.144,-25.6751 910.738,-29.8831"/>
</g>
<!-- Node22 -->
<g id="node22" class="node"><title>Node22</title>
<polygon fill="white" stroke="#bfbfbf" points="1013.5,-0.5 1013.5,-19.5 1108.5,-19.5 1108.5,-0.5 1013.5,-0.5"/>
<text text-anchor="middle" x="1061" y="-7.5" font-family="Helvetica,sans-Serif" font-size="10.00">condition_variable</text>
</g>
<!-- Node2&#45;&gt;Node22 -->
<g id="edge21" class="edge"><title>Node2&#45;&gt;Node22</title>
<path fill="none" stroke="midnightblue" d="M688.537,-114.828C803.951,-103.19 1041.67,-78.9085 1045,-76 1057.97,-64.6634 1061.28,-44.665 1061.78,-29.835"/>
<polygon fill="midnightblue" stroke="midnightblue" points="1065.28,-29.7098 1061.72,-19.731 1058.28,-29.7518 1065.28,-29.7098"/>
</g>
<!-- Node23 -->
<g id="node23" class="node"><title>Node23</title>
<polygon fill="white" stroke="#bfbfbf" points="1128.5,-0.5 1128.5,-19.5 1171.5,-19.5 1171.5,-0.5 1128.5,-0.5"/>
<text text-anchor="middle" x="1150" y="-7.5" font-family="Helvetica,sans-Serif" font-size="10.00">queue</text>
</g>
<!-- Node2&#45;&gt;Node23 -->
<g id="edge22" class="edge"><title>Node2&#45;&gt;Node23</title>
<path fill="none" stroke="midnightblue" d="M688.52,-114.928C699.021,-113.926 709.822,-112.916 720,-112 768.083,-107.675 1120.31,-111.523 1153,-76 1164.33,-63.6925 1161.55,-43.8784 1157.19,-29.3578"/>
<polygon fill="midnightblue" stroke="midnightblue" points="1160.5,-28.2084 1153.92,-19.9032 1153.88,-30.4979 1160.5,-28.2084"/>
</g>
<!-- Node24 -->
<g id="node24" class="node"><title>Node24</title>
<polygon fill="white" stroke="#bfbfbf" points="1092,-56.5 1092,-75.5 1144,-75.5 1144,-56.5 1092,-56.5"/>
<text text-anchor="middle" x="1118" y="-63.5" font-family="Helvetica,sans-Serif" font-size="10.00">sstream</text>
</g>
<!-- Node2&#45;&gt;Node24 -->
<g id="edge23" class="edge"><title>Node2&#45;&gt;Node24</title>
<path fill="none" stroke="midnightblue" d="M688.605,-114.951C809.833,-103.035 1068.5,-77.5374 1078,-76 1079.26,-75.7954 1080.55,-75.5751 1081.85,-75.3422"/>
<polygon fill="midnightblue" stroke="midnightblue" points="1082.71,-78.7395 1091.84,-73.3661 1081.35,-71.8725 1082.71,-78.7395"/>
</g>
<!-- Node25 -->
<g id="node25" class="node"><title>Node25</title>
<polygon fill="white" stroke="#bfbfbf" points="1190.5,-0.5 1190.5,-19.5 1225.5,-19.5 1225.5,-0.5 1190.5,-0.5"/>
<text text-anchor="middle" x="1208" y="-7.5" font-family="Helvetica,sans-Serif" font-size="10.00">map</text>
</g>
<!-- Node2&#45;&gt;Node25 -->
<g id="edge24" class="edge"><title>Node2&#45;&gt;Node25</title>
<path fill="none" stroke="midnightblue" d="M688.518,-114.901C699.019,-113.902 709.82,-112.9 720,-112 819.93,-103.168 1085.05,-129.356 1170,-76 1186.75,-65.4824 1196.97,-44.6966 1202.53,-29.4512"/>
<polygon fill="midnightblue" stroke="midnightblue" points="1205.99,-30.1484 1205.79,-19.5555 1199.34,-27.9623 1205.99,-30.1484"/>
</g>
<!-- Node26 -->
<g id="node26" class="node"><title>Node26</title>
<g id="a_node26"><a xlink:href="cosmos-defs_8h.html" target="_top" xlink:title="COSMOS definitions Definitions specific to the COSMOS environement. ">
<polygon fill="white" stroke="black" points="920,-56.5 920,-75.5 1036,-75.5 1036,-56.5 920,-56.5"/>
<text text-anchor="middle" x="978" y="-63.5" font-family="Helvetica,sans-Serif" font-size="10.00">support/cosmos&#45;defs.h</text>
</a>
</g>
</g>
<!-- Node2&#45;&gt;Node26 -->
<g id="edge25" class="edge"><title>Node2&#45;&gt;Node26</title>
<path fill="none" stroke="midnightblue" d="M682.617,-112.444C745.132,-102.826 846.521,-87.2275 912.734,-77.0409"/>
<polygon fill="midnightblue" stroke="midnightblue" points="913.292,-80.4964 922.643,-75.5164 912.227,-73.5778 913.292,-80.4964"/>
</g>
<!-- Node26&#45;&gt;Node18 -->
<g id="edge27" class="edge"><title>Node26&#45;&gt;Node18</title>
<path fill="none" stroke="midnightblue" d="M919.949,-60.7176C773.355,-49.9033 391.84,-21.7587 278.32,-13.3843"/>
<polygon fill="midnightblue" stroke="midnightblue" points="278.418,-9.88207 268.188,-12.6368 277.903,-16.8631 278.418,-9.88207"/>
</g>
<!-- Node26&#45;&gt;Node20 -->
<g id="edge31" class="edge"><title>Node26&#45;&gt;Node20</title>
<path fill="none" stroke="midnightblue" d="M958.669,-56.4435C938.68,-47.5961 907.257,-33.6875 884.436,-23.5865"/>
<polygon fill="midnightblue" stroke="midnightblue" points="885.802,-20.3635 875.241,-19.5164 882.968,-26.7645 885.802,-20.3635"/>
</g>
<!-- Node26&#45;&gt;Node21 -->
<g id="edge30" class="edge"><title>Node26&#45;&gt;Node21</title>
<path fill="none" stroke="midnightblue" d="M968.681,-56.324C960.107,-48.3414 947.188,-36.3128 936.812,-26.6529"/>
<polygon fill="midnightblue" stroke="midnightblue" points="939.192,-24.0865 929.488,-19.8339 934.422,-29.2098 939.192,-24.0865"/>
</g>
<!-- Node26&#45;&gt;Node22 -->
<g id="edge32" class="edge"><title>Node26&#45;&gt;Node22</title>
<path fill="none" stroke="midnightblue" d="M991.335,-56.324C1004.16,-47.979 1023.78,-35.2122 1038.94,-25.3524"/>
<polygon fill="midnightblue" stroke="midnightblue" points="1041.22,-28.0417 1047.7,-19.6545 1037.41,-22.1742 1041.22,-28.0417"/>
</g>
<!-- Node26&#45;&gt;Node23 -->
<g id="edge29" class="edge"><title>Node26&#45;&gt;Node23</title>
<path fill="none" stroke="midnightblue" d="M1005.25,-56.4435C1036.02,-46.7829 1086.02,-31.088 1118.45,-20.9046"/>
<polygon fill="midnightblue" stroke="midnightblue" points="1119.83,-24.1414 1128.32,-17.8067 1117.73,-17.4628 1119.83,-24.1414"/>
</g>
<!-- Node26&#45;&gt;Node25 -->
<g id="edge26" class="edge"><title>Node26&#45;&gt;Node25</title>
<path fill="none" stroke="midnightblue" d="M1022.68,-56.4814C1061.85,-48.7037 1120.48,-36.3152 1180.35,-19.9421"/>
<polygon fill="midnightblue" stroke="midnightblue" points="1181.66,-23.2127 1190.36,-17.1706 1179.79,-16.4666 1181.66,-23.2127"/>
</g>
<!-- Node27 -->
<g id="node27" class="node"><title>Node27</title>
<polygon fill="white" stroke="#bfbfbf" points="963.5,-0.5 963.5,-19.5 992.5,-19.5 992.5,-0.5 963.5,-0.5"/>
<text text-anchor="middle" x="978" y="-7.5" font-family="Helvetica,sans-Serif" font-size="10.00">list</text>
</g>
<!-- Node26&#45;&gt;Node27 -->
<g id="edge28" class="edge"><title>Node26&#45;&gt;Node27</title>
<path fill="none" stroke="midnightblue" d="M978,-56.083C978,-49.0059 978,-38.8611 978,-29.9865"/>
<polygon fill="midnightblue" stroke="midnightblue" points="981.5,-29.751 978,-19.7511 974.5,-29.7511 981.5,-29.751"/>
</g>
<!-- Node28&#45;&gt;Node2 -->
<g id="edge34" class="edge"><title>Node28&#45;&gt;Node2</title>
<path fill="none" stroke="midnightblue" d="M400.915,-392.41C439.778,-378.126 507,-345.535 507,-291 507,-291 507,-291 507,-233 507,-201.183 514.856,-190.847 537,-168 551.362,-153.182 571.632,-142.458 589.3,-135.204"/>
<polygon fill="midnightblue" stroke="midnightblue" points="590.733,-138.403 598.794,-131.528 588.205,-131.875 590.733,-138.403"/>
</g>
<!-- Node28&#45;&gt;Node12 -->
<g id="edge55" class="edge"><title>Node28&#45;&gt;Node12</title>
<path fill="none" stroke="midnightblue" d="M333.328,-400.761C277.814,-399.04 176.28,-390.857 98,-356 55.8335,-337.224 17,-337.158 17,-291 17,-291 17,-291 17,-177 17,-144.915 19.1491,-107.62 20.6294,-85.7371"/>
<polygon fill="midnightblue" stroke="midnightblue" points="24.1354,-85.7729 21.3463,-75.5518 17.1527,-85.2813 24.1354,-85.7729"/>
</g>
<!-- Node28&#45;&gt;Node14 -->
<g id="edge56" class="edge"><title>Node28&#45;&gt;Node14</title>
<path fill="none" stroke="midnightblue" d="M333.274,-395.691C247.276,-383.34 55,-349.216 55,-291 55,-291 55,-291 55,-177 55,-143.16 69.8695,-105.97 79.9417,-84.6613"/>
<polygon fill="midnightblue" stroke="midnightblue" points="83.1448,-86.0788 84.4146,-75.5604 76.8625,-82.9912 83.1448,-86.0788"/>
</g>
<!-- Node28&#45;&gt;Node29 -->
<g id="edge35" class="edge"><title>Node28&#45;&gt;Node29</title>
<path fill="none" stroke="midnightblue" d="M414.711,-394.389C445.609,-388.036 488.219,-376.318 521,-356 589.676,-313.435 579.561,-269.979 646,-224 666.886,-209.546 693.143,-198.416 714.419,-190.842"/>
<polygon fill="midnightblue" stroke="midnightblue" points="715.792,-194.071 724.112,-187.511 713.517,-187.451 715.792,-194.071"/>
</g>
<!-- Node31 -->
<g id="node31" class="node"><title>Node31</title>
<g id="a_node31"><a xlink:href="math_2constants_8h.html" target="_top" xlink:title="constants.h">
<polygon fill="white" stroke="black" points="303,-168.5 303,-187.5 371,-187.5 371,-168.5 303,-168.5"/>
<text text-anchor="middle" x="337" y="-175.5" font-family="Helvetica,sans-Serif" font-size="10.00">constants.h</text>
</a>
</g>
</g>
<!-- Node28&#45;&gt;Node31 -->
<g id="edge38" class="edge"><title>Node28&#45;&gt;Node31</title>
<path fill="none" stroke="midnightblue" d="M370.366,-392.281C363.37,-375.025 348.18,-335.145 342,-300 335.71,-264.232 335.632,-221.643 336.247,-197.723"/>
<polygon fill="midnightblue" stroke="midnightblue" points="339.749,-197.702 336.58,-187.592 332.753,-197.472 339.749,-197.702"/>
</g>
<!-- Node32 -->
<g id="node32" class="node"><title>Node32</title>
<g id="a_node32"><a xlink:href="vector_8h.html" target="_top" xlink:title="vector.h">
<polygon fill="white" stroke="black" points="243,-224.5 243,-243.5 295,-243.5 295,-224.5 243,-224.5"/>
<text text-anchor="middle" x="269" y="-231.5" font-family="Helvetica,sans-Serif" font-size="10.00">vector.h</text>
</a>
</g>
</g>
<!-- Node28&#45;&gt;Node32 -->
<g id="edge41" class="edge"><title>Node28&#45;&gt;Node32</title>
<path fill="none" stroke="midnightblue" d="M355.552,-392.415C340.991,-384.764 321.168,-372.266 309,-356 285.669,-324.812 275.511,-279.3 271.441,-253.912"/>
<polygon fill="midnightblue" stroke="midnightblue" points="274.872,-253.182 269.974,-243.787 267.944,-254.185 274.872,-253.182"/>
</g>
<!-- Node34 -->
<g id="node34" class="node"><title>Node34</title>
<g id="a_node34"><a xlink:href="matrix_8h.html" target="_top" xlink:title="matrix.h">
<polygon fill="white" stroke="black" points="351,-280.5 351,-299.5 403,-299.5 403,-280.5 351,-280.5"/>
<text text-anchor="middle" x="377" y="-287.5" font-family="Helvetica,sans-Serif" font-size="10.00">matrix.h</text>
</a>
</g>
</g>
<!-- Node28&#45;&gt;Node34 -->
<g id="edge48" class="edge"><title>Node28&#45;&gt;Node34</title>
<path fill="none" stroke="midnightblue" d="M374.235,-392.368C374.72,-374.617 375.836,-333.666 376.493,-309.597"/>
<polygon fill="midnightblue" stroke="midnightblue" points="379.992,-309.683 376.766,-299.591 372.994,-309.492 379.992,-309.683"/>
</g>
<!-- Node35 -->
<g id="node35" class="node"><title>Node35</title>
<g id="a_node35"><a xlink:href="rotation_8h.html" target="_top" xlink:title="rotation.h">
<polygon fill="white" stroke="black" points="402.5,-336.5 402.5,-355.5 459.5,-355.5 459.5,-336.5 402.5,-336.5"/>
<text text-anchor="middle" x="431" y="-343.5" font-family="Helvetica,sans-Serif" font-size="10.00">rotation.h</text>
</a>
</g>
</g>
<!-- Node28&#45;&gt;Node35 -->
<g id="edge51" class="edge"><title>Node28&#45;&gt;Node35</title>
<path fill="none" stroke="midnightblue" d="M383.158,-392.324C391.501,-384.42 404.032,-372.548 414.177,-362.938"/>
<polygon fill="midnightblue" stroke="midnightblue" points="416.823,-365.252 421.675,-355.834 412.009,-360.171 416.823,-365.252"/>
</g>
<!-- Node29&#45;&gt;Node2 -->
<g id="edge36" class="edge"><title>Node29&#45;&gt;Node2</title>
<path fill="none" stroke="midnightblue" d="M733.035,-168.444C712.391,-159.596 679.937,-145.687 656.368,-135.586"/>
<polygon fill="midnightblue" stroke="midnightblue" points="657.442,-132.239 646.872,-131.516 654.684,-138.673 657.442,-132.239"/>
</g>
<!-- Node30 -->
<g id="node30" class="node"><title>Node30</title>
<polygon fill="white" stroke="#bfbfbf" points="729.5,-112.5 729.5,-131.5 776.5,-131.5 776.5,-112.5 729.5,-112.5"/>
<text text-anchor="middle" x="753" y="-119.5" font-family="Helvetica,sans-Serif" font-size="10.00">errno.h</text>
</g>
<!-- Node29&#45;&gt;Node30 -->
<g id="edge37" class="edge"><title>Node29&#45;&gt;Node30</title>
<path fill="none" stroke="midnightblue" d="M753,-168.083C753,-161.006 753,-150.861 753,-141.986"/>
<polygon fill="midnightblue" stroke="midnightblue" points="756.5,-141.751 753,-131.751 749.5,-141.751 756.5,-141.751"/>
</g>
<!-- Node31&#45;&gt;Node2 -->
<g id="edge39" class="edge"><title>Node31&#45;&gt;Node2</title>
<path fill="none" stroke="midnightblue" d="M371.119,-170.647C420.445,-161.462 512.233,-144.37 571.418,-133.35"/>
<polygon fill="midnightblue" stroke="midnightblue" points="572.157,-136.772 581.348,-131.501 570.876,-129.891 572.157,-136.772"/>
</g>
<!-- Node31&#45;&gt;Node5 -->
<g id="edge40" class="edge"><title>Node31&#45;&gt;Node5</title>
<path fill="none" stroke="midnightblue" d="M325.857,-168.368C301.698,-149.653 244.249,-105.151 214.147,-81.8324"/>
<polygon fill="midnightblue" stroke="midnightblue" points="216.14,-78.9485 206.091,-75.5914 211.853,-84.4824 216.14,-78.9485"/>
</g>
<!-- Node32&#45;&gt;Node2 -->
<g id="edge42" class="edge"><title>Node32&#45;&gt;Node2</title>
<path fill="none" stroke="midnightblue" d="M269.628,-224.206C271.155,-209.94 276.359,-181.947 294,-168 333.249,-136.971 469.398,-127.32 554.976,-124.33"/>
<polygon fill="midnightblue" stroke="midnightblue" points="555.271,-127.822 565.152,-123.997 555.043,-120.826 555.271,-127.822"/>
</g>
<!-- Node32&#45;&gt;Node12 -->
<g id="edge46" class="edge"><title>Node32&#45;&gt;Node12</title>
<path fill="none" stroke="midnightblue" d="M242.809,-227.983C214.932,-221.785 170.334,-209.351 137,-188 92.4434,-159.46 52.9474,-110.083 33.9573,-84.1073"/>
<polygon fill="midnightblue" stroke="midnightblue" points="36.5869,-81.7681 27.9173,-75.678 30.8968,-85.8453 36.5869,-81.7681"/>
</g>
<!-- Node32&#45;&gt;Node14 -->
<g id="edge44" class="edge"><title>Node32&#45;&gt;Node14</title>
<path fill="none" stroke="midnightblue" d="M242.748,-228.052C217.713,-222.185 180.193,-210.261 155,-188 138.158,-173.118 110.495,-114.923 96.9606,-84.9949"/>
<polygon fill="midnightblue" stroke="midnightblue" points="100.083,-83.403 92.8034,-75.7049 93.6934,-86.2623 100.083,-83.403"/>
</g>
<!-- Node32&#45;&gt;Node18 -->
<g id="edge47" class="edge"><title>Node32&#45;&gt;Node18</title>
<path fill="none" stroke="midnightblue" d="M242.868,-224.917C224.769,-217.977 201.576,-206.171 188,-188 157.474,-147.141 168.589,-126.696 163,-76 162.026,-67.1646 158.453,-63.6378 163,-56 174.088,-37.3758 195.867,-25.9852 214.333,-19.3246"/>
<polygon fill="midnightblue" stroke="midnightblue" points="215.485,-22.6304 223.888,-16.1772 213.295,-15.9818 215.485,-22.6304"/>
</g>
<!-- Node32&#45;&gt;Node31 -->
<g id="edge43" class="edge"><title>Node32&#45;&gt;Node31</title>
<path fill="none" stroke="midnightblue" d="M279.925,-224.324C290.175,-216.185 305.721,-203.839 318.001,-194.087"/>
<polygon fill="midnightblue" stroke="midnightblue" points="320.221,-196.794 325.876,-187.834 315.868,-191.312 320.221,-196.794"/>
</g>
<!-- Node33 -->
<g id="node33" class="node"><title>Node33</title>
<polygon fill="white" stroke="#bfbfbf" points="197,-168.5 197,-187.5 247,-187.5 247,-168.5 197,-168.5"/>
<text text-anchor="middle" x="222" y="-175.5" font-family="Helvetica,sans-Serif" font-size="10.00">iomanip</text>
</g>
<!-- Node32&#45;&gt;Node33 -->
<g id="edge45" class="edge"><title>Node32&#45;&gt;Node33</title>
<path fill="none" stroke="midnightblue" d="M261.239,-224.083C254.463,-216.298 244.457,-204.801 236.245,-195.367"/>
<polygon fill="midnightblue" stroke="midnightblue" points="238.822,-192.996 229.617,-187.751 233.542,-197.592 238.822,-192.996"/>
</g>
<!-- Node34&#45;&gt;Node2 -->
<g id="edge49" class="edge"><title>Node34&#45;&gt;Node2</title>
<path fill="none" stroke="midnightblue" d="M379.993,-280.413C388.207,-258.151 413.308,-198.21 455,-168 484.107,-146.909 522.324,-135.695 555.341,-129.736"/>
<polygon fill="midnightblue" stroke="midnightblue" points="556.12,-133.154 565.404,-128.05 554.963,-126.25 556.12,-133.154"/>
</g>
<!-- Node34&#45;&gt;Node32 -->
<g id="edge50" class="edge"><title>Node34&#45;&gt;Node32</title>
<path fill="none" stroke="midnightblue" d="M359.648,-280.324C342.328,-271.664 315.485,-258.242 295.498,-248.249"/>
<polygon fill="midnightblue" stroke="midnightblue" points="296.819,-244.996 286.309,-243.655 293.688,-251.257 296.819,-244.996"/>
</g>
<!-- Node35&#45;&gt;Node2 -->
<g id="edge52" class="edge"><title>Node35&#45;&gt;Node2</title>
<path fill="none" stroke="midnightblue" d="M431.455,-336.223C433.404,-307.748 443.412,-216.95 493,-168 509.887,-151.33 533.134,-140.833 555.527,-134.224"/>
<polygon fill="midnightblue" stroke="midnightblue" points="556.66,-137.543 565.389,-131.538 554.82,-130.789 556.66,-137.543"/>
</g>
<!-- Node35&#45;&gt;Node32 -->
<g id="edge53" class="edge"><title>Node35&#45;&gt;Node32</title>
<path fill="none" stroke="midnightblue" d="M430.929,-336.134C430.331,-322.271 427.139,-295.453 412,-280 383.935,-251.354 337.85,-240.89 305.604,-237.097"/>
<polygon fill="midnightblue" stroke="midnightblue" points="305.546,-233.574 295.245,-236.05 304.842,-240.538 305.546,-233.574"/>
</g>
<!-- Node35&#45;&gt;Node34 -->
<g id="edge54" class="edge"><title>Node35&#45;&gt;Node34</title>
<path fill="none" stroke="midnightblue" d="M422.083,-336.083C414.22,-328.22 402.569,-316.569 393.081,-307.081"/>
<polygon fill="midnightblue" stroke="midnightblue" points="395.297,-304.347 385.751,-299.751 390.347,-309.297 395.297,-304.347"/>
</g>
<!-- Node36&#45;&gt;Node2 -->
<g id="edge59" class="edge"><title>Node36&#45;&gt;Node2</title>
<path fill="none" stroke="midnightblue" d="M668.547,-280.342C661.555,-271.723 651.391,-257.821 646,-244 632.587,-209.61 628.628,-166.221 627.469,-141.851"/>
<polygon fill="midnightblue" stroke="midnightblue" points="630.955,-141.405 627.096,-131.538 623.96,-141.659 630.955,-141.405"/>
</g>
<!-- Node37 -->
<g id="node37" class="node"><title>Node37</title>
<g id="a_node37"><a xlink:href="sliplib_8h.html" target="_top" xlink:title="COSMOS SLIP support include file. ">
<polygon fill="white" stroke="black" points="655.5,-224.5 655.5,-243.5 740.5,-243.5 740.5,-224.5 655.5,-224.5"/>
<text text-anchor="middle" x="698" y="-231.5" font-family="Helvetica,sans-Serif" font-size="10.00">support/sliplib.h</text>
</a>
</g>
</g>
<!-- Node36&#45;&gt;Node37 -->
<g id="edge60" class="edge"><title>Node36&#45;&gt;Node37</title>
<path fill="none" stroke="midnightblue" d="M679.633,-280.083C682.612,-272.77 686.926,-262.181 690.625,-253.103"/>
<polygon fill="midnightblue" stroke="midnightblue" points="693.903,-254.333 694.435,-243.751 687.42,-251.691 693.903,-254.333"/>
</g>
<!-- Node37&#45;&gt;Node2 -->
<g id="edge61" class="edge"><title>Node37&#45;&gt;Node2</title>
<path fill="none" stroke="midnightblue" d="M692.429,-224.368C680.764,-206.296 653.577,-164.176 638.171,-140.307"/>
<polygon fill="midnightblue" stroke="midnightblue" points="640.909,-138.095 632.545,-131.591 635.028,-141.891 640.909,-138.095"/>
</g>
<!-- Node37&#45;&gt;Node11 -->
<g id="edge63" class="edge"><title>Node37&#45;&gt;Node11</title>
<path fill="none" stroke="midnightblue" d="M740.827,-224.827C852.773,-203.254 1163.38,-142.044 1431.07,-76.1108"/>
<polygon fill="midnightblue" stroke="midnightblue" points="1432.11,-79.4604 1440.97,-73.6643 1430.43,-72.6647 1432.11,-79.4604"/>
</g>
<!-- Node37&#45;&gt;Node29 -->
<g id="edge62" class="edge"><title>Node37&#45;&gt;Node29</title>
<path fill="none" stroke="midnightblue" d="M707.082,-224.083C715.171,-216.141 727.195,-204.335 736.91,-194.797"/>
<polygon fill="midnightblue" stroke="midnightblue" points="739.403,-197.254 744.087,-187.751 734.499,-192.26 739.403,-197.254"/>
</g>
</g>
</svg>
