<?xml version="1.0" encoding="UTF-8" standalone="no"?>
<!DOCTYPE svg PUBLIC "-//W3C//DTD SVG 1.1//EN"
 "http://www.w3.org/Graphics/SVG/1.1/DTD/svg11.dtd">
<!-- Generated by graphviz version 2.38.0 (20140413.2041)
 -->
<!-- Title: prkx2su_lib.cpp Pages: 1 -->
<svg width="1495pt" height="543pt"
 viewBox="0.00 0.00 1495.00 543.00" xmlns="http://www.w3.org/2000/svg" xmlns:xlink="http://www.w3.org/1999/xlink">
<g id="graph0" class="graph" transform="scale(1 1) rotate(0) translate(4 539)">
<title>prkx2su_lib.cpp</title>
<polygon fill="white" stroke="none" points="-4,4 -4,-539 1491,-539 1491,4 -4,4"/>
<!-- Node1 -->
<g id="node1" class="node"><title>Node1</title>
<polygon fill="#bfbfbf" stroke="black" points="399.5,-515.5 399.5,-534.5 484.5,-534.5 484.5,-515.5 399.5,-515.5"/>
<text text-anchor="middle" x="442" y="-522.5" font-family="Helvetica,sans-Serif" font-size="10.00">prkx2su_lib.cpp</text>
</g>
<!-- Node2 -->
<g id="node2" class="node"><title>Node2</title>
<g id="a_node2"><a xlink:href="config_cosmos_8h.html" target="_top" xlink:title="Headers and definitions common to all COSMOS. ">
<polygon fill="white" stroke="black" points="554.5,-112.5 554.5,-131.5 677.5,-131.5 677.5,-112.5 554.5,-112.5"/>
<text text-anchor="middle" x="616" y="-119.5" font-family="Helvetica,sans-Serif" font-size="10.00">support/configCosmos.h</text>
</a>
</g>
</g>
<!-- Node1&#45;&gt;Node2 -->
<g id="edge1" class="edge"><title>Node1&#45;&gt;Node2</title>
<path fill="none" stroke="midnightblue" d="M399.491,-520.24C334.024,-511.861 216,-485.336 216,-403 216,-403 216,-403 216,-233 216,-194.577 239.11,-186.105 273,-168 318.605,-143.636 458.028,-131.689 544.437,-126.478"/>
<polygon fill="midnightblue" stroke="midnightblue" points="544.664,-129.97 554.442,-125.89 544.254,-122.982 544.664,-129.97"/>
</g>
<!-- Node11 -->
<g id="node11" class="node"><title>Node11</title>
<polygon fill="white" stroke="#bfbfbf" points="1441,-56.5 1441,-75.5 1487,-75.5 1487,-56.5 1441,-56.5"/>
<text text-anchor="middle" x="1464" y="-63.5" font-family="Helvetica,sans-Serif" font-size="10.00">cstring</text>
</g>
<!-- Node1&#45;&gt;Node11 -->
<g id="edge67" class="edge"><title>Node1&#45;&gt;Node11</title>
<path fill="none" stroke="midnightblue" d="M484.741,-523.05C668.242,-518.415 1380,-494.54 1380,-403 1380,-403 1380,-403 1380,-177 1380,-135.731 1417.81,-100.325 1442.69,-81.4905"/>
<polygon fill="midnightblue" stroke="midnightblue" points="1444.85,-84.2514 1450.88,-75.5372 1440.73,-78.5916 1444.85,-84.2514"/>
</g>
<!-- Node12 -->
<g id="node12" class="node"><title>Node12</title>
<polygon fill="white" stroke="#bfbfbf" points="0,-56.5 0,-75.5 44,-75.5 44,-56.5 0,-56.5"/>
<text text-anchor="middle" x="22" y="-63.5" font-family="Helvetica,sans-Serif" font-size="10.00">cmath</text>
</g>
<!-- Node1&#45;&gt;Node12 -->
<g id="edge68" class="edge"><title>Node1&#45;&gt;Node12</title>
<path fill="none" stroke="midnightblue" d="M399.299,-519.051C302.752,-506.673 76,-470.426 76,-403 76,-403 76,-403 76,-177 76,-140.863 52.2254,-104.252 36.2265,-83.7063"/>
<polygon fill="midnightblue" stroke="midnightblue" points="38.7507,-81.2619 29.7369,-75.694 33.3112,-85.6678 38.7507,-81.2619"/>
</g>
<!-- Node28 -->
<g id="node28" class="node"><title>Node28</title>
<g id="a_node28"><a xlink:href="prkx2su__lib_8h.html" target="_top" xlink:title="prkx2su controller includes ">
<polygon fill="white" stroke="black" points="584.5,-448.5 584.5,-478.5 701.5,-478.5 701.5,-448.5 584.5,-448.5"/>
<text text-anchor="start" x="592.5" y="-466.5" font-family="Helvetica,sans-Serif" font-size="10.00">device/general/prkx2su</text>
<text text-anchor="middle" x="643" y="-455.5" font-family="Helvetica,sans-Serif" font-size="10.00">_lib.h</text>
</a>
</g>
</g>
<!-- Node1&#45;&gt;Node28 -->
<g id="edge33" class="edge"><title>Node1&#45;&gt;Node28</title>
<path fill="none" stroke="midnightblue" d="M470.798,-515.475C500.692,-506.626 548.247,-492.549 585.816,-481.428"/>
<polygon fill="midnightblue" stroke="midnightblue" points="587.033,-484.718 595.628,-478.523 585.046,-478.005 587.033,-484.718"/>
</g>
<!-- Node3 -->
<g id="node3" class="node"><title>Node3</title>
<polygon fill="white" stroke="#bfbfbf" points="1202.5,-56.5 1202.5,-75.5 1247.5,-75.5 1247.5,-56.5 1202.5,-56.5"/>
<text text-anchor="middle" x="1225" y="-63.5" font-family="Helvetica,sans-Serif" font-size="10.00">climits</text>
</g>
<!-- Node2&#45;&gt;Node3 -->
<g id="edge2" class="edge"><title>Node2&#45;&gt;Node3</title>
<path fill="none" stroke="midnightblue" d="M677.776,-113.443C682.586,-112.928 687.371,-112.44 692,-112 910.983,-91.1774 971.33,-113.737 1192.44,-75.7027"/>
<polygon fill="midnightblue" stroke="midnightblue" points="1193.15,-79.1304 1202.4,-73.9659 1191.95,-72.2343 1193.15,-79.1304"/>
</g>
<!-- Node4 -->
<g id="node4" class="node"><title>Node4</title>
<polygon fill="white" stroke="#bfbfbf" points="1265.5,-56.5 1265.5,-75.5 1312.5,-75.5 1312.5,-56.5 1265.5,-56.5"/>
<text text-anchor="middle" x="1289" y="-63.5" font-family="Helvetica,sans-Serif" font-size="10.00">csignal</text>
</g>
<!-- Node2&#45;&gt;Node4 -->
<g id="edge3" class="edge"><title>Node2&#45;&gt;Node4</title>
<path fill="none" stroke="midnightblue" d="M677.772,-113.402C682.583,-112.896 687.369,-112.422 692,-112 938.844,-89.5228 1006.46,-116.525 1255.26,-75.7418"/>
<polygon fill="midnightblue" stroke="midnightblue" points="1256.04,-79.1607 1265.33,-74.0706 1254.9,-72.2551 1256.04,-79.1607"/>
</g>
<!-- Node5 -->
<g id="node5" class="node"><title>Node5</title>
<polygon fill="white" stroke="#bfbfbf" points="100,-56.5 100,-75.5 146,-75.5 146,-56.5 100,-56.5"/>
<text text-anchor="middle" x="123" y="-63.5" font-family="Helvetica,sans-Serif" font-size="10.00">cstdint</text>
</g>
<!-- Node2&#45;&gt;Node5 -->
<g id="edge4" class="edge"><title>Node2&#45;&gt;Node5</title>
<path fill="none" stroke="midnightblue" d="M554.418,-117.672C466.456,-112.295 299.988,-99.812 160,-76 158.754,-75.788 157.487,-75.5574 156.21,-75.3122"/>
<polygon fill="midnightblue" stroke="midnightblue" points="156.896,-71.8798 146.385,-73.2127 155.433,-78.7253 156.896,-71.8798"/>
</g>
<!-- Node6 -->
<g id="node6" class="node"><title>Node6</title>
<polygon fill="white" stroke="#bfbfbf" points="488,-56.5 488,-75.5 544,-75.5 544,-56.5 488,-56.5"/>
<text text-anchor="middle" x="516" y="-63.5" font-family="Helvetica,sans-Serif" font-size="10.00">cinttypes</text>
</g>
<!-- Node2&#45;&gt;Node6 -->
<g id="edge5" class="edge"><title>Node2&#45;&gt;Node6</title>
<path fill="none" stroke="midnightblue" d="M599.933,-112.324C584.042,-103.743 559.493,-90.486 541.042,-80.5224"/>
<polygon fill="midnightblue" stroke="midnightblue" points="542.489,-77.3264 532.027,-75.6545 539.163,-83.4857 542.489,-77.3264"/>
</g>
<!-- Node7 -->
<g id="node7" class="node"><title>Node7</title>
<polygon fill="white" stroke="#bfbfbf" points="562.5,-56.5 562.5,-75.5 605.5,-75.5 605.5,-56.5 562.5,-56.5"/>
<text text-anchor="middle" x="584" y="-63.5" font-family="Helvetica,sans-Serif" font-size="10.00">cstdio</text>
</g>
<!-- Node2&#45;&gt;Node7 -->
<g id="edge6" class="edge"><title>Node2&#45;&gt;Node7</title>
<path fill="none" stroke="midnightblue" d="M610.716,-112.083C606.289,-104.613 599.837,-93.7244 594.382,-84.5199"/>
<polygon fill="midnightblue" stroke="midnightblue" points="597.295,-82.5697 589.186,-75.7511 591.273,-86.1383 597.295,-82.5697"/>
</g>
<!-- Node8 -->
<g id="node8" class="node"><title>Node8</title>
<polygon fill="white" stroke="#bfbfbf" points="623.5,-56.5 623.5,-75.5 672.5,-75.5 672.5,-56.5 623.5,-56.5"/>
<text text-anchor="middle" x="648" y="-63.5" font-family="Helvetica,sans-Serif" font-size="10.00">cstddef</text>
</g>
<!-- Node2&#45;&gt;Node8 -->
<g id="edge7" class="edge"><title>Node2&#45;&gt;Node8</title>
<path fill="none" stroke="midnightblue" d="M621.284,-112.083C625.711,-104.613 632.163,-93.7244 637.618,-84.5199"/>
<polygon fill="midnightblue" stroke="midnightblue" points="640.727,-86.1383 642.814,-75.7511 634.705,-82.5697 640.727,-86.1383"/>
</g>
<!-- Node9 -->
<g id="node9" class="node"><title>Node9</title>
<polygon fill="white" stroke="#bfbfbf" points="690.5,-56.5 690.5,-75.5 735.5,-75.5 735.5,-56.5 690.5,-56.5"/>
<text text-anchor="middle" x="713" y="-63.5" font-family="Helvetica,sans-Serif" font-size="10.00">cstdlib</text>
</g>
<!-- Node2&#45;&gt;Node9 -->
<g id="edge8" class="edge"><title>Node2&#45;&gt;Node9</title>
<path fill="none" stroke="midnightblue" d="M631.585,-112.324C646.999,-103.743 670.812,-90.486 688.71,-80.5224"/>
<polygon fill="midnightblue" stroke="midnightblue" points="690.419,-83.5767 697.454,-75.6545 687.014,-77.4606 690.419,-83.5767"/>
</g>
<!-- Node10 -->
<g id="node10" class="node"><title>Node10</title>
<polygon fill="white" stroke="#bfbfbf" points="754,-56.5 754,-75.5 798,-75.5 798,-56.5 754,-56.5"/>
<text text-anchor="middle" x="776" y="-63.5" font-family="Helvetica,sans-Serif" font-size="10.00">cerrno</text>
</g>
<!-- Node2&#45;&gt;Node10 -->
<g id="edge9" class="edge"><title>Node2&#45;&gt;Node10</title>
<path fill="none" stroke="midnightblue" d="M641.352,-112.444C669.219,-103.038 714.032,-87.9142 744.225,-77.7242"/>
<polygon fill="midnightblue" stroke="midnightblue" points="745.502,-80.9871 753.858,-74.473 743.264,-74.3546 745.502,-80.9871"/>
</g>
<!-- Node2&#45;&gt;Node11 -->
<g id="edge10" class="edge"><title>Node2&#45;&gt;Node11</title>
<path fill="none" stroke="midnightblue" d="M677.503,-118.387C848.472,-111.017 1323.38,-89.7944 1430.5,-75.6971"/>
<polygon fill="midnightblue" stroke="midnightblue" points="1431.34,-79.112 1440.71,-74.1855 1430.31,-72.1875 1431.34,-79.112"/>
</g>
<!-- Node2&#45;&gt;Node12 -->
<g id="edge11" class="edge"><title>Node2&#45;&gt;Node12</title>
<path fill="none" stroke="midnightblue" d="M554.488,-116.613C456.35,-109.416 258.35,-94.0773 91,-76 78.9536,-74.6987 65.7552,-73.0356 54.1566,-71.494"/>
<polygon fill="midnightblue" stroke="midnightblue" points="54.4121,-67.9968 44.0334,-70.1262 53.4747,-74.9337 54.4121,-67.9968"/>
</g>
<!-- Node13 -->
<g id="node13" class="node"><title>Node13</title>
<polygon fill="white" stroke="#bfbfbf" points="816.5,-56.5 816.5,-75.5 861.5,-75.5 861.5,-56.5 816.5,-56.5"/>
<text text-anchor="middle" x="839" y="-63.5" font-family="Helvetica,sans-Serif" font-size="10.00">iosfwd</text>
</g>
<!-- Node2&#45;&gt;Node13 -->
<g id="edge12" class="edge"><title>Node2&#45;&gt;Node13</title>
<path fill="none" stroke="midnightblue" d="M654.532,-112.431C691.154,-104.173 747.997,-91.0641 806.52,-76.0385"/>
<polygon fill="midnightblue" stroke="midnightblue" points="807.499,-79.4007 816.307,-73.5118 805.749,-72.6229 807.499,-79.4007"/>
</g>
<!-- Node14 -->
<g id="node14" class="node"><title>Node14</title>
<polygon fill="white" stroke="#bfbfbf" points="1369,-56.5 1369,-75.5 1423,-75.5 1423,-56.5 1369,-56.5"/>
<text text-anchor="middle" x="1396" y="-63.5" font-family="Helvetica,sans-Serif" font-size="10.00">iostream</text>
</g>
<!-- Node2&#45;&gt;Node14 -->
<g id="edge13" class="edge"><title>Node2&#45;&gt;Node14</title>
<path fill="none" stroke="midnightblue" d="M677.768,-113.352C682.58,-112.858 687.367,-112.4 692,-112 986.009,-86.6353 1062.59,-115.766 1355,-76 1356.26,-75.8288 1357.54,-75.6391 1358.83,-75.4343"/>
<polygon fill="midnightblue" stroke="midnightblue" points="1359.55,-78.8595 1368.76,-73.6231 1358.3,-71.9729 1359.55,-78.8595"/>
</g>
<!-- Node15 -->
<g id="node15" class="node"><title>Node15</title>
<polygon fill="white" stroke="#bfbfbf" points="879.5,-56.5 879.5,-75.5 930.5,-75.5 930.5,-56.5 879.5,-56.5"/>
<text text-anchor="middle" x="905" y="-63.5" font-family="Helvetica,sans-Serif" font-size="10.00">unistd.h</text>
</g>
<!-- Node2&#45;&gt;Node15 -->
<g id="edge14" class="edge"><title>Node2&#45;&gt;Node15</title>
<path fill="none" stroke="midnightblue" d="M671.235,-112.462C720.63,-104.545 795.196,-91.9013 869.443,-75.9774"/>
<polygon fill="midnightblue" stroke="midnightblue" points="870.407,-79.3499 879.439,-73.8129 868.925,-72.5085 870.407,-79.3499"/>
</g>
<!-- Node16 -->
<g id="node16" class="node"><title>Node16</title>
<polygon fill="white" stroke="#bfbfbf" points="949,-56.5 949,-75.5 993,-75.5 993,-56.5 949,-56.5"/>
<text text-anchor="middle" x="971" y="-63.5" font-family="Helvetica,sans-Serif" font-size="10.00">fcntl.h</text>
</g>
<!-- Node2&#45;&gt;Node16 -->
<g id="edge15" class="edge"><title>Node2&#45;&gt;Node16</title>
<path fill="none" stroke="midnightblue" d="M677.643,-113.426C752.812,-104.023 876.517,-87.9702 938.888,-75.6971"/>
<polygon fill="midnightblue" stroke="midnightblue" points="939.622,-79.1196 948.716,-73.6843 938.217,-72.262 939.622,-79.1196"/>
</g>
<!-- Node17 -->
<g id="node17" class="node"><title>Node17</title>
<polygon fill="white" stroke="#bfbfbf" points="1011.5,-56.5 1011.5,-75.5 1052.5,-75.5 1052.5,-56.5 1011.5,-56.5"/>
<text text-anchor="middle" x="1032" y="-63.5" font-family="Helvetica,sans-Serif" font-size="10.00">string</text>
</g>
<!-- Node2&#45;&gt;Node17 -->
<g id="edge16" class="edge"><title>Node2&#45;&gt;Node17</title>
<path fill="none" stroke="midnightblue" d="M677.8,-113.67C682.605,-113.103 687.381,-112.542 692,-112 826.531,-96.2229 864.397,-103.666 1001.43,-75.7511"/>
<polygon fill="midnightblue" stroke="midnightblue" points="1002.38,-79.1281 1011.47,-73.6794 1000.96,-72.2726 1002.38,-79.1281"/>
</g>
<!-- Node18 -->
<g id="node18" class="node"><title>Node18</title>
<polygon fill="white" stroke="#bfbfbf" points="132,-0.5 132,-19.5 176,-19.5 176,-0.5 132,-0.5"/>
<text text-anchor="middle" x="154" y="-7.5" font-family="Helvetica,sans-Serif" font-size="10.00">vector</text>
</g>
<!-- Node2&#45;&gt;Node18 -->
<g id="edge17" class="edge"><title>Node2&#45;&gt;Node18</title>
<path fill="none" stroke="midnightblue" d="M554.237,-117.78C461.726,-112.27 292.051,-99.3069 236,-76 209.146,-64.8337 183.81,-42.213 168.596,-26.8313"/>
<polygon fill="midnightblue" stroke="midnightblue" points="171.057,-24.3403 161.608,-19.5466 166.005,-29.1861 171.057,-24.3403"/>
</g>
<!-- Node19 -->
<g id="node19" class="node"><title>Node19</title>
<polygon fill="white" stroke="#bfbfbf" points="1070.5,-56.5 1070.5,-75.5 1113.5,-75.5 1113.5,-56.5 1070.5,-56.5"/>
<text text-anchor="middle" x="1092" y="-63.5" font-family="Helvetica,sans-Serif" font-size="10.00">deque</text>
</g>
<!-- Node2&#45;&gt;Node19 -->
<g id="edge18" class="edge"><title>Node2&#45;&gt;Node19</title>
<path fill="none" stroke="midnightblue" d="M677.79,-113.575C682.597,-113.03 687.377,-112.499 692,-112 852.627,-94.6556 897.444,-106.616 1060.55,-75.7103"/>
<polygon fill="midnightblue" stroke="midnightblue" points="1061.28,-79.1342 1070.44,-73.8117 1059.96,-72.2597 1061.28,-79.1342"/>
</g>
<!-- Node20 -->
<g id="node20" class="node"><title>Node20</title>
<polygon fill="white" stroke="#bfbfbf" points="194,-0.5 194,-19.5 238,-19.5 238,-0.5 194,-0.5"/>
<text text-anchor="middle" x="216" y="-7.5" font-family="Helvetica,sans-Serif" font-size="10.00">mutex</text>
</g>
<!-- Node2&#45;&gt;Node20 -->
<g id="edge19" class="edge"><title>Node2&#45;&gt;Node20</title>
<path fill="none" stroke="midnightblue" d="M554.395,-119.358C465.6,-115.975 307.023,-105.833 259,-76 241.631,-65.2099 229.783,-44.5073 222.992,-29.3558"/>
<polygon fill="midnightblue" stroke="midnightblue" points="226.153,-27.8418 219.092,-19.9432 219.686,-30.5214 226.153,-27.8418"/>
</g>
<!-- Node21 -->
<g id="node21" class="node"><title>Node21</title>
<polygon fill="white" stroke="#bfbfbf" points="256,-0.5 256,-19.5 300,-19.5 300,-0.5 256,-0.5"/>
<text text-anchor="middle" x="278" y="-7.5" font-family="Helvetica,sans-Serif" font-size="10.00">thread</text>
</g>
<!-- Node2&#45;&gt;Node21 -->
<g id="edge20" class="edge"><title>Node2&#45;&gt;Node21</title>
<path fill="none" stroke="midnightblue" d="M554.243,-117.356C459.568,-111.131 287.495,-97.0485 269,-76 257.866,-63.3289 262.622,-43.5717 268.611,-29.1638"/>
<polygon fill="midnightblue" stroke="midnightblue" points="271.926,-30.338 272.981,-19.7959 265.582,-27.3788 271.926,-30.338"/>
</g>
<!-- Node22 -->
<g id="node22" class="node"><title>Node22</title>
<polygon fill="white" stroke="#bfbfbf" points="364.5,-0.5 364.5,-19.5 459.5,-19.5 459.5,-0.5 364.5,-0.5"/>
<text text-anchor="middle" x="412" y="-7.5" font-family="Helvetica,sans-Serif" font-size="10.00">condition_variable</text>
</g>
<!-- Node2&#45;&gt;Node22 -->
<g id="edge21" class="edge"><title>Node2&#45;&gt;Node22</title>
<path fill="none" stroke="midnightblue" d="M566.539,-112.486C537.122,-105.817 500.008,-94.4846 471,-76 451.203,-63.385 433.87,-42.4189 423.202,-27.7181"/>
<polygon fill="midnightblue" stroke="midnightblue" points="426.058,-25.6947 417.459,-19.5051 420.322,-29.706 426.058,-25.6947"/>
</g>
<!-- Node23 -->
<g id="node23" class="node"><title>Node23</title>
<polygon fill="white" stroke="#bfbfbf" points="477.5,-0.5 477.5,-19.5 520.5,-19.5 520.5,-0.5 477.5,-0.5"/>
<text text-anchor="middle" x="499" y="-7.5" font-family="Helvetica,sans-Serif" font-size="10.00">queue</text>
</g>
<!-- Node2&#45;&gt;Node23 -->
<g id="edge22" class="edge"><title>Node2&#45;&gt;Node23</title>
<path fill="none" stroke="midnightblue" d="M554.239,-116.659C526.529,-111.26 496.252,-99.8258 479,-76 468.662,-61.7227 477.184,-41.9909 486.085,-28.0225"/>
<polygon fill="midnightblue" stroke="midnightblue" points="488.971,-30.0027 491.794,-19.7909 483.219,-26.0134 488.971,-30.0027"/>
</g>
<!-- Node24 -->
<g id="node24" class="node"><title>Node24</title>
<polygon fill="white" stroke="#bfbfbf" points="1132,-56.5 1132,-75.5 1184,-75.5 1184,-56.5 1132,-56.5"/>
<text text-anchor="middle" x="1158" y="-63.5" font-family="Helvetica,sans-Serif" font-size="10.00">sstream</text>
</g>
<!-- Node2&#45;&gt;Node24 -->
<g id="edge23" class="edge"><title>Node2&#45;&gt;Node24</title>
<path fill="none" stroke="midnightblue" d="M677.782,-113.504C682.591,-112.975 687.373,-112.467 692,-112 879.547,-93.0501 931.052,-106.868 1121.69,-75.7455"/>
<polygon fill="midnightblue" stroke="midnightblue" points="1122.46,-79.1649 1131.76,-74.081 1121.32,-72.2586 1122.46,-79.1649"/>
</g>
<!-- Node25 -->
<g id="node25" class="node"><title>Node25</title>
<polygon fill="white" stroke="#bfbfbf" points="932.5,-0.5 932.5,-19.5 967.5,-19.5 967.5,-0.5 932.5,-0.5"/>
<text text-anchor="middle" x="950" y="-7.5" font-family="Helvetica,sans-Serif" font-size="10.00">map</text>
</g>
<!-- Node2&#45;&gt;Node25 -->
<g id="edge24" class="edge"><title>Node2&#45;&gt;Node25</title>
<path fill="none" stroke="midnightblue" d="M677.769,-113.367C682.581,-112.87 687.367,-112.406 692,-112 761.735,-105.881 1272.94,-126.894 1321,-76 1369.48,-24.6677 1072.17,-13.6856 977.96,-11.5058"/>
<polygon fill="midnightblue" stroke="midnightblue" points="977.831,-8.00231 967.758,-11.2863 977.681,-15.0007 977.831,-8.00231"/>
</g>
<!-- Node26 -->
<g id="node26" class="node"><title>Node26</title>
<g id="a_node26"><a xlink:href="cosmos-defs_8h.html" target="_top" xlink:title="COSMOS definitions Definitions specific to the COSMOS environement. ">
<polygon fill="white" stroke="black" points="278,-56.5 278,-75.5 394,-75.5 394,-56.5 278,-56.5"/>
<text text-anchor="middle" x="336" y="-63.5" font-family="Helvetica,sans-Serif" font-size="10.00">support/cosmos&#45;defs.h</text>
</a>
</g>
</g>
<!-- Node2&#45;&gt;Node26 -->
<g id="edge25" class="edge"><title>Node2&#45;&gt;Node26</title>
<path fill="none" stroke="midnightblue" d="M571.633,-112.444C522.378,-102.944 442.872,-87.611 390.029,-77.4198"/>
<polygon fill="midnightblue" stroke="midnightblue" points="390.641,-73.9735 380.159,-75.5164 389.316,-80.8469 390.641,-73.9735"/>
</g>
<!-- Node26&#45;&gt;Node18 -->
<g id="edge27" class="edge"><title>Node26&#45;&gt;Node18</title>
<path fill="none" stroke="midnightblue" d="M307.162,-56.4435C274.188,-46.6602 220.357,-30.6884 186.084,-20.5194"/>
<polygon fill="midnightblue" stroke="midnightblue" points="186.702,-17.0522 176.12,-17.5631 184.711,-23.763 186.702,-17.0522"/>
</g>
<!-- Node26&#45;&gt;Node20 -->
<g id="edge31" class="edge"><title>Node26&#45;&gt;Node20</title>
<path fill="none" stroke="midnightblue" d="M316.986,-56.4435C297.412,-47.6356 266.692,-33.8116 244.271,-23.722"/>
<polygon fill="midnightblue" stroke="midnightblue" points="245.481,-20.4284 234.925,-19.5164 242.608,-26.8119 245.481,-20.4284"/>
</g>
<!-- Node26&#45;&gt;Node21 -->
<g id="edge30" class="edge"><title>Node26&#45;&gt;Node21</title>
<path fill="none" stroke="midnightblue" d="M326.681,-56.324C318.107,-48.3414 305.188,-36.3128 294.812,-26.6529"/>
<polygon fill="midnightblue" stroke="midnightblue" points="297.192,-24.0865 287.488,-19.8339 292.422,-29.2098 297.192,-24.0865"/>
</g>
<!-- Node26&#45;&gt;Node22 -->
<g id="edge32" class="edge"><title>Node26&#45;&gt;Node22</title>
<path fill="none" stroke="midnightblue" d="M348.211,-56.324C359.776,-48.1066 377.375,-35.6017 391.161,-25.8069"/>
<polygon fill="midnightblue" stroke="midnightblue" points="393.443,-28.4791 399.567,-19.8339 389.388,-22.7729 393.443,-28.4791"/>
</g>
<!-- Node26&#45;&gt;Node23 -->
<g id="edge29" class="edge"><title>Node26&#45;&gt;Node23</title>
<path fill="none" stroke="midnightblue" d="M361.828,-56.4435C390.54,-46.9316 436.91,-31.5697 467.672,-21.3787"/>
<polygon fill="midnightblue" stroke="midnightblue" points="469.065,-24.6041 477.457,-18.1368 466.864,-17.9593 469.065,-24.6041"/>
</g>
<!-- Node26&#45;&gt;Node25 -->
<g id="edge26" class="edge"><title>Node26&#45;&gt;Node25</title>
<path fill="none" stroke="midnightblue" d="M394.04,-59.8955C522.864,-48.5657 828.683,-21.6695 922.292,-13.4369"/>
<polygon fill="midnightblue" stroke="midnightblue" points="922.734,-16.9116 932.389,-12.5489 922.121,-9.93851 922.734,-16.9116"/>
</g>
<!-- Node27 -->
<g id="node27" class="node"><title>Node27</title>
<polygon fill="white" stroke="#bfbfbf" points="317.5,-0.5 317.5,-19.5 346.5,-19.5 346.5,-0.5 317.5,-0.5"/>
<text text-anchor="middle" x="332" y="-7.5" font-family="Helvetica,sans-Serif" font-size="10.00">list</text>
</g>
<!-- Node26&#45;&gt;Node27 -->
<g id="edge28" class="edge"><title>Node26&#45;&gt;Node27</title>
<path fill="none" stroke="midnightblue" d="M335.339,-56.083C334.815,-49.0059 334.064,-38.8611 333.406,-29.9865"/>
<polygon fill="midnightblue" stroke="midnightblue" points="336.877,-29.4652 332.648,-19.7511 329.897,-29.9823 336.877,-29.4652"/>
</g>
<!-- Node28&#45;&gt;Node2 -->
<g id="edge34" class="edge"><title>Node28&#45;&gt;Node2</title>
<path fill="none" stroke="midnightblue" d="M648.059,-448.487C655.364,-426.965 668,-384.34 668,-347 668,-347 668,-347 668,-233 668,-197.119 645.106,-160.424 629.7,-139.793"/>
<polygon fill="midnightblue" stroke="midnightblue" points="632.348,-137.497 623.45,-131.744 626.818,-141.789 632.348,-137.497"/>
</g>
<!-- Node29 -->
<g id="node29" class="node"><title>Node29</title>
<g id="a_node29"><a xlink:href="mathlib_8h.html" target="_top" xlink:title="mathlib include file ">
<polygon fill="white" stroke="black" points="494.5,-392.5 494.5,-411.5 575.5,-411.5 575.5,-392.5 494.5,-392.5"/>
<text text-anchor="middle" x="535" y="-399.5" font-family="Helvetica,sans-Serif" font-size="10.00">math/mathlib.h</text>
</a>
</g>
</g>
<!-- Node28&#45;&gt;Node29 -->
<g id="edge35" class="edge"><title>Node28&#45;&gt;Node29</title>
<path fill="none" stroke="midnightblue" d="M617.406,-448.399C599.932,-438.773 576.912,-426.09 559.644,-416.577"/>
<polygon fill="midnightblue" stroke="midnightblue" points="561.163,-413.418 550.715,-411.658 557.785,-419.549 561.163,-413.418"/>
</g>
<!-- Node30 -->
<g id="node30" class="node"><title>Node30</title>
<g id="a_node30"><a xlink:href="cosmos-errno_8h.html" target="_top" xlink:title="COSMOS Error Codes. ">
<polygon fill="white" stroke="black" points="848.5,-168.5 848.5,-187.5 967.5,-187.5 967.5,-168.5 848.5,-168.5"/>
<text text-anchor="middle" x="908" y="-175.5" font-family="Helvetica,sans-Serif" font-size="10.00">support/cosmos&#45;errno.h</text>
</a>
</g>
</g>
<!-- Node28&#45;&gt;Node30 -->
<g id="edge59" class="edge"><title>Node28&#45;&gt;Node30</title>
<path fill="none" stroke="midnightblue" d="M701.617,-454.28C796.446,-439.318 973,-403.83 973,-347 973,-347 973,-347 973,-289 973,-251.178 944.165,-214.94 924.906,-194.955"/>
<polygon fill="midnightblue" stroke="midnightblue" points="927.143,-192.243 917.591,-187.659 922.199,-197.199 927.143,-192.243"/>
</g>
<!-- Node37 -->
<g id="node37" class="node"><title>Node37</title>
<g id="a_node37"><a xlink:href="serialclass_8h.html" target="_top" xlink:title="device/serial/serialclass.h">
<polygon fill="white" stroke="black" points="815.5,-280.5 815.5,-299.5 944.5,-299.5 944.5,-280.5 815.5,-280.5"/>
<text text-anchor="middle" x="880" y="-287.5" font-family="Helvetica,sans-Serif" font-size="10.00">device/serial/serialclass.h</text>
</a>
</g>
</g>
<!-- Node28&#45;&gt;Node37 -->
<g id="edge60" class="edge"><title>Node28&#45;&gt;Node37</title>
<path fill="none" stroke="midnightblue" d="M665.443,-448.334C696.501,-428.516 754.063,-391.004 801,-356 822.623,-339.874 846.395,-320.004 862.155,-306.509"/>
<polygon fill="midnightblue" stroke="midnightblue" points="864.73,-308.91 870.022,-299.731 860.162,-303.607 864.73,-308.91"/>
</g>
<!-- Node39 -->
<g id="node39" class="node"><title>Node39</title>
<polygon fill="white" stroke="#bfbfbf" points="594,-392.5 594,-411.5 640,-411.5 640,-392.5 594,-392.5"/>
<text text-anchor="middle" x="617" y="-399.5" font-family="Helvetica,sans-Serif" font-size="10.00">stdio.h</text>
</g>
<!-- Node28&#45;&gt;Node39 -->
<g id="edge66" class="edge"><title>Node28&#45;&gt;Node39</title>
<path fill="none" stroke="midnightblue" d="M636.838,-448.399C633.255,-440.199 628.703,-429.781 624.863,-420.994"/>
<polygon fill="midnightblue" stroke="midnightblue" points="627.995,-419.42 620.783,-411.658 621.58,-422.223 627.995,-419.42"/>
</g>
<!-- Node29&#45;&gt;Node2 -->
<g id="edge36" class="edge"><title>Node29&#45;&gt;Node2</title>
<path fill="none" stroke="midnightblue" d="M550.687,-392.396C577.67,-376.314 630,-338.943 630,-291 630,-291 630,-291 630,-233 630,-200.541 623.927,-163.121 619.781,-141.356"/>
<polygon fill="midnightblue" stroke="midnightblue" points="623.207,-140.64 617.83,-131.511 616.34,-142 623.207,-140.64"/>
</g>
<!-- Node29&#45;&gt;Node12 -->
<g id="edge57" class="edge"><title>Node29&#45;&gt;Node12</title>
<path fill="none" stroke="midnightblue" d="M494.188,-397.825C396.446,-389.103 157,-360.629 157,-291 157,-291 157,-291 157,-177 157,-124.045 93.8017,-92.0594 53.8862,-77.1384"/>
<polygon fill="midnightblue" stroke="midnightblue" points="54.8871,-73.7793 44.2925,-73.7102 52.5316,-80.3711 54.8871,-73.7793"/>
</g>
<!-- Node29&#45;&gt;Node14 -->
<g id="edge58" class="edge"><title>Node29&#45;&gt;Node14</title>
<path fill="none" stroke="midnightblue" d="M563.622,-392.464C620.862,-374.536 744,-331.286 744,-291 744,-291 744,-291 744,-177 744,-112.005 812.344,-129.28 875,-112 1073.97,-57.1273 1132.98,-99.8417 1338,-76 1344.8,-75.2092 1352.03,-74.2135 1358.99,-73.175"/>
<polygon fill="midnightblue" stroke="midnightblue" points="1359.56,-76.6275 1368.91,-71.6417 1358.49,-69.7095 1359.56,-76.6275"/>
</g>
<!-- Node29&#45;&gt;Node30 -->
<g id="edge37" class="edge"><title>Node29&#45;&gt;Node30</title>
<path fill="none" stroke="midnightblue" d="M575.714,-393.639C637.981,-382.26 750.499,-361.168 758,-356 790.898,-333.334 783.912,-313.289 806,-280 822.769,-254.727 823.682,-245.574 845,-224 856.784,-212.075 872.04,-201.088 884.587,-192.956"/>
<polygon fill="midnightblue" stroke="midnightblue" points="886.555,-195.853 893.157,-187.566 882.829,-189.927 886.555,-195.853"/>
</g>
<!-- Node32 -->
<g id="node32" class="node"><title>Node32</title>
<g id="a_node32"><a xlink:href="math_2constants_8h.html" target="_top" xlink:title="constants.h">
<polygon fill="white" stroke="black" points="282,-168.5 282,-187.5 350,-187.5 350,-168.5 282,-168.5"/>
<text text-anchor="middle" x="316" y="-175.5" font-family="Helvetica,sans-Serif" font-size="10.00">constants.h</text>
</a>
</g>
</g>
<!-- Node29&#45;&gt;Node32 -->
<g id="edge40" class="edge"><title>Node29&#45;&gt;Node32</title>
<path fill="none" stroke="midnightblue" d="M520.047,-392.356C506.123,-383.959 485.147,-370.398 469,-356 410.253,-303.615 352.777,-229.118 328.309,-196.001"/>
<polygon fill="midnightblue" stroke="midnightblue" points="331.043,-193.809 322.31,-187.81 325.395,-197.946 331.043,-193.809"/>
</g>
<!-- Node33 -->
<g id="node33" class="node"><title>Node33</title>
<g id="a_node33"><a xlink:href="vector_8h.html" target="_top" xlink:title="vector.h">
<polygon fill="white" stroke="black" points="420,-224.5 420,-243.5 472,-243.5 472,-224.5 420,-224.5"/>
<text text-anchor="middle" x="446" y="-231.5" font-family="Helvetica,sans-Serif" font-size="10.00">vector.h</text>
</a>
</g>
</g>
<!-- Node29&#45;&gt;Node33 -->
<g id="edge43" class="edge"><title>Node29&#45;&gt;Node33</title>
<path fill="none" stroke="midnightblue" d="M521.129,-392.284C509.377,-384.221 492.901,-371.208 483,-356 461.902,-323.592 452.324,-278.538 448.399,-253.555"/>
<polygon fill="midnightblue" stroke="midnightblue" points="451.857,-253.008 446.973,-243.606 444.927,-254.002 451.857,-253.008"/>
</g>
<!-- Node35 -->
<g id="node35" class="node"><title>Node35</title>
<g id="a_node35"><a xlink:href="matrix_8h.html" target="_top" xlink:title="matrix.h">
<polygon fill="white" stroke="black" points="550,-280.5 550,-299.5 602,-299.5 602,-280.5 550,-280.5"/>
<text text-anchor="middle" x="576" y="-287.5" font-family="Helvetica,sans-Serif" font-size="10.00">matrix.h</text>
</a>
</g>
</g>
<!-- Node29&#45;&gt;Node35 -->
<g id="edge50" class="edge"><title>Node29&#45;&gt;Node35</title>
<path fill="none" stroke="midnightblue" d="M540.128,-392.28C545.195,-383.389 552.906,-369.081 558,-356 563.975,-340.656 568.817,-322.556 571.968,-309.357"/>
<polygon fill="midnightblue" stroke="midnightblue" points="575.384,-310.121 574.205,-299.592 568.56,-308.558 575.384,-310.121"/>
</g>
<!-- Node36 -->
<g id="node36" class="node"><title>Node36</title>
<g id="a_node36"><a xlink:href="rotation_8h.html" target="_top" xlink:title="rotation.h">
<polygon fill="white" stroke="black" points="492.5,-336.5 492.5,-355.5 549.5,-355.5 549.5,-336.5 492.5,-336.5"/>
<text text-anchor="middle" x="521" y="-343.5" font-family="Helvetica,sans-Serif" font-size="10.00">rotation.h</text>
</a>
</g>
</g>
<!-- Node29&#45;&gt;Node36 -->
<g id="edge53" class="edge"><title>Node29&#45;&gt;Node36</title>
<path fill="none" stroke="midnightblue" d="M532.688,-392.083C530.833,-384.927 528.165,-374.635 525.846,-365.691"/>
<polygon fill="midnightblue" stroke="midnightblue" points="529.166,-364.553 523.269,-355.751 522.391,-366.309 529.166,-364.553"/>
</g>
<!-- Node30&#45;&gt;Node2 -->
<g id="edge38" class="edge"><title>Node30&#45;&gt;Node2</title>
<path fill="none" stroke="midnightblue" d="M861.732,-168.444C810.259,-158.925 727.107,-143.547 672.001,-133.356"/>
<polygon fill="midnightblue" stroke="midnightblue" points="672.522,-129.893 662.052,-131.516 671.249,-136.777 672.522,-129.893"/>
</g>
<!-- Node31 -->
<g id="node31" class="node"><title>Node31</title>
<polygon fill="white" stroke="#bfbfbf" points="884.5,-112.5 884.5,-131.5 931.5,-131.5 931.5,-112.5 884.5,-112.5"/>
<text text-anchor="middle" x="908" y="-119.5" font-family="Helvetica,sans-Serif" font-size="10.00">errno.h</text>
</g>
<!-- Node30&#45;&gt;Node31 -->
<g id="edge39" class="edge"><title>Node30&#45;&gt;Node31</title>
<path fill="none" stroke="midnightblue" d="M908,-168.083C908,-161.006 908,-150.861 908,-141.986"/>
<polygon fill="midnightblue" stroke="midnightblue" points="911.5,-141.751 908,-131.751 904.5,-141.751 911.5,-141.751"/>
</g>
<!-- Node32&#45;&gt;Node2 -->
<g id="edge41" class="edge"><title>Node32&#45;&gt;Node2</title>
<path fill="none" stroke="midnightblue" d="M350.247,-169.726C353.205,-169.13 356.154,-168.547 359,-168 425.516,-155.219 502.011,-142.016 554.133,-133.244"/>
<polygon fill="midnightblue" stroke="midnightblue" points="554.939,-136.658 564.222,-131.551 553.78,-129.755 554.939,-136.658"/>
</g>
<!-- Node32&#45;&gt;Node5 -->
<g id="edge42" class="edge"><title>Node32&#45;&gt;Node5</title>
<path fill="none" stroke="midnightblue" d="M311.967,-168.468C304.97,-154.579 289.269,-127.114 268,-112 258.71,-105.399 195.796,-87.179 155.95,-76.0517"/>
<polygon fill="midnightblue" stroke="midnightblue" points="156.692,-72.6252 146.12,-73.3195 154.817,-79.3696 156.692,-72.6252"/>
</g>
<!-- Node33&#45;&gt;Node2 -->
<g id="edge44" class="edge"><title>Node33&#45;&gt;Node2</title>
<path fill="none" stroke="midnightblue" d="M452.341,-224.323C462.666,-210.718 484.348,-184.247 508,-168 528.958,-153.603 555.242,-142.527 576.633,-134.965"/>
<polygon fill="midnightblue" stroke="midnightblue" points="578.052,-138.179 586.387,-131.638 575.793,-131.554 578.052,-138.179"/>
</g>
<!-- Node33&#45;&gt;Node12 -->
<g id="edge48" class="edge"><title>Node33&#45;&gt;Node12</title>
<path fill="none" stroke="midnightblue" d="M419.707,-229.393C384.828,-223.897 321.964,-211.496 273,-188 222.031,-163.541 221.484,-137.443 171,-112 150.432,-101.634 91.185,-85.1191 53.893,-75.2411"/>
<polygon fill="midnightblue" stroke="midnightblue" points="54.5687,-71.7999 44.0074,-72.6416 52.7885,-78.5697 54.5687,-71.7999"/>
</g>
<!-- Node33&#45;&gt;Node14 -->
<g id="edge46" class="edge"><title>Node33&#45;&gt;Node14</title>
<path fill="none" stroke="midnightblue" d="M466.952,-224.416C508.759,-207.237 605.449,-167.248 686,-132 705.679,-123.389 709.15,-117.166 730,-112 992.75,-46.8968 1068.84,-104.786 1338,-76 1344.81,-75.2719 1352.04,-74.3061 1359,-73.2775"/>
<polygon fill="midnightblue" stroke="midnightblue" points="1359.57,-76.73 1368.92,-71.7458 1358.51,-69.8119 1359.57,-76.73"/>
</g>
<!-- Node33&#45;&gt;Node18 -->
<g id="edge49" class="edge"><title>Node33&#45;&gt;Node18</title>
<path fill="none" stroke="midnightblue" d="M445.998,-224.066C445.493,-210.109 442.427,-183.165 427,-168 399.396,-140.865 114.48,-106.773 91,-76 76.1883,-56.5875 102.563,-36.7953 125.586,-24.2352"/>
<polygon fill="midnightblue" stroke="midnightblue" points="127.202,-27.3398 134.473,-19.6335 123.983,-21.1237 127.202,-27.3398"/>
</g>
<!-- Node33&#45;&gt;Node32 -->
<g id="edge45" class="edge"><title>Node33&#45;&gt;Node32</title>
<path fill="none" stroke="midnightblue" d="M425.401,-224.444C404.007,-215.557 370.319,-201.563 345.976,-191.451"/>
<polygon fill="midnightblue" stroke="midnightblue" points="347.08,-188.12 336.503,-187.516 344.395,-194.585 347.08,-188.12"/>
</g>
<!-- Node34 -->
<g id="node34" class="node"><title>Node34</title>
<polygon fill="white" stroke="#bfbfbf" points="368,-168.5 368,-187.5 418,-187.5 418,-168.5 368,-168.5"/>
<text text-anchor="middle" x="393" y="-175.5" font-family="Helvetica,sans-Serif" font-size="10.00">iomanip</text>
</g>
<!-- Node33&#45;&gt;Node34 -->
<g id="edge47" class="edge"><title>Node33&#45;&gt;Node34</title>
<path fill="none" stroke="midnightblue" d="M437.248,-224.083C429.53,-216.22 418.095,-204.569 408.783,-195.081"/>
<polygon fill="midnightblue" stroke="midnightblue" points="411.092,-192.436 401.589,-187.751 406.096,-197.34 411.092,-192.436"/>
</g>
<!-- Node35&#45;&gt;Node2 -->
<g id="edge51" class="edge"><title>Node35&#45;&gt;Node2</title>
<path fill="none" stroke="midnightblue" d="M578.151,-280.075C584.447,-253.945 602.937,-177.211 611.524,-141.577"/>
<polygon fill="midnightblue" stroke="midnightblue" points="614.995,-142.11 613.935,-131.568 608.19,-140.47 614.995,-142.11"/>
</g>
<!-- Node35&#45;&gt;Node33 -->
<g id="edge52" class="edge"><title>Node35&#45;&gt;Node33</title>
<path fill="none" stroke="midnightblue" d="M555.401,-280.444C534.007,-271.557 500.319,-257.563 475.976,-247.451"/>
<polygon fill="midnightblue" stroke="midnightblue" points="477.08,-244.12 466.503,-243.516 474.395,-250.585 477.08,-244.12"/>
</g>
<!-- Node36&#45;&gt;Node2 -->
<g id="edge54" class="edge"><title>Node36&#45;&gt;Node2</title>
<path fill="none" stroke="midnightblue" d="M523.199,-336.45C526.525,-323.89 533.274,-299.798 541,-280 561.246,-228.121 591.228,-169.54 606.423,-140.816"/>
<polygon fill="midnightblue" stroke="midnightblue" points="609.693,-142.123 611.307,-131.652 603.515,-138.83 609.693,-142.123"/>
</g>
<!-- Node36&#45;&gt;Node33 -->
<g id="edge55" class="edge"><title>Node36&#45;&gt;Node33</title>
<path fill="none" stroke="midnightblue" d="M515.115,-336.368C502.738,-318.215 473.819,-275.802 457.584,-251.99"/>
<polygon fill="midnightblue" stroke="midnightblue" points="460.383,-249.882 451.858,-243.591 454.599,-253.825 460.383,-249.882"/>
</g>
<!-- Node36&#45;&gt;Node35 -->
<g id="edge56" class="edge"><title>Node36&#45;&gt;Node35</title>
<path fill="none" stroke="midnightblue" d="M530.082,-336.083C538.171,-328.141 550.195,-316.335 559.91,-306.797"/>
<polygon fill="midnightblue" stroke="midnightblue" points="562.403,-309.254 567.087,-299.751 557.499,-304.26 562.403,-309.254"/>
</g>
<!-- Node37&#45;&gt;Node2 -->
<g id="edge61" class="edge"><title>Node37&#45;&gt;Node2</title>
<path fill="none" stroke="midnightblue" d="M866.178,-280.309C823.142,-253.248 691.262,-170.324 638.33,-137.041"/>
<polygon fill="midnightblue" stroke="midnightblue" points="640.014,-133.965 629.685,-131.605 636.288,-139.891 640.014,-133.965"/>
</g>
<!-- Node38 -->
<g id="node38" class="node"><title>Node38</title>
<g id="a_node38"><a xlink:href="sliplib_8h.html" target="_top" xlink:title="COSMOS SLIP support include file. ">
<polygon fill="white" stroke="black" points="854.5,-224.5 854.5,-243.5 939.5,-243.5 939.5,-224.5 854.5,-224.5"/>
<text text-anchor="middle" x="897" y="-231.5" font-family="Helvetica,sans-Serif" font-size="10.00">support/sliplib.h</text>
</a>
</g>
</g>
<!-- Node37&#45;&gt;Node38 -->
<g id="edge62" class="edge"><title>Node37&#45;&gt;Node38</title>
<path fill="none" stroke="midnightblue" d="M882.807,-280.083C885.085,-272.849 888.371,-262.409 891.208,-253.397"/>
<polygon fill="midnightblue" stroke="midnightblue" points="894.581,-254.341 894.245,-243.751 887.904,-252.239 894.581,-254.341"/>
</g>
<!-- Node38&#45;&gt;Node2 -->
<g id="edge63" class="edge"><title>Node38&#45;&gt;Node2</title>
<path fill="none" stroke="midnightblue" d="M886.172,-224.309C868.383,-210.443 831.404,-183.321 796,-168 758.735,-151.874 714.525,-140.718 679.245,-133.548"/>
<polygon fill="midnightblue" stroke="midnightblue" points="679.563,-130.043 669.074,-131.54 678.207,-136.91 679.563,-130.043"/>
</g>
<!-- Node38&#45;&gt;Node11 -->
<g id="edge65" class="edge"><title>Node38&#45;&gt;Node11</title>
<path fill="none" stroke="midnightblue" d="M926.29,-224.425C1022.65,-196.215 1329.41,-106.405 1430.98,-76.6668"/>
<polygon fill="midnightblue" stroke="midnightblue" points="1432.09,-79.9893 1440.7,-73.8204 1430.12,-73.2713 1432.09,-79.9893"/>
</g>
<!-- Node38&#45;&gt;Node30 -->
<g id="edge64" class="edge"><title>Node38&#45;&gt;Node30</title>
<path fill="none" stroke="midnightblue" d="M898.816,-224.083C900.274,-216.927 902.371,-206.635 904.193,-197.691"/>
<polygon fill="midnightblue" stroke="midnightblue" points="907.651,-198.248 906.217,-187.751 900.792,-196.851 907.651,-198.248"/>
</g>
</g>
</svg>
