<?xml version="1.0" encoding="UTF-8" standalone="no"?>
<!DOCTYPE svg PUBLIC "-//W3C//DTD SVG 1.1//EN"
 "http://www.w3.org/Graphics/SVG/1.1/DTD/svg11.dtd">
<!-- Generated by graphviz version 2.38.0 (20140413.2041)
 -->
<!-- Title: prkx2su_class.h Pages: 1 -->
<svg width="1496pt" height="476pt"
 viewBox="0.00 0.00 1495.50 476.00" xmlns="http://www.w3.org/2000/svg" xmlns:xlink="http://www.w3.org/1999/xlink">
<g id="graph0" class="graph" transform="scale(1 1) rotate(0) translate(4 472)">
<title>prkx2su_class.h</title>
<polygon fill="white" stroke="none" points="-4,4 -4,-472 1491.5,-472 1491.5,4 -4,4"/>
<!-- Node1 -->
<g id="node1" class="node"><title>Node1</title>
<polygon fill="#bfbfbf" stroke="black" points="812,-448.5 812,-467.5 900,-467.5 900,-448.5 812,-448.5"/>
<text text-anchor="middle" x="856" y="-455.5" font-family="Helvetica,sans-Serif" font-size="10.00">prkx2su_class.h</text>
</g>
<!-- Node2 -->
<g id="node2" class="node"><title>Node2</title>
<g id="a_node2"><a xlink:href="config_cosmos_8h.html" target="_top" xlink:title="Headers and definitions common to all COSMOS. ">
<polygon fill="white" stroke="black" points="756.5,-112.5 756.5,-131.5 879.5,-131.5 879.5,-112.5 756.5,-112.5"/>
<text text-anchor="middle" x="818" y="-119.5" font-family="Helvetica,sans-Serif" font-size="10.00">support/configCosmos.h</text>
</a>
</g>
</g>
<!-- Node1&#45;&gt;Node2 -->
<g id="edge1" class="edge"><title>Node1&#45;&gt;Node2</title>
<path fill="none" stroke="midnightblue" d="M856,-448.442C856,-429.936 856,-384.812 856,-347 856,-347 856,-347 856,-233 856,-198.813 839.4,-161.764 828.143,-140.571"/>
<polygon fill="midnightblue" stroke="midnightblue" points="831.181,-138.832 823.284,-131.769 825.053,-142.215 831.181,-138.832"/>
</g>
<!-- Node7 -->
<g id="node7" class="node"><title>Node7</title>
<polygon fill="white" stroke="#bfbfbf" points="1444.5,-56.5 1444.5,-75.5 1487.5,-75.5 1487.5,-56.5 1444.5,-56.5"/>
<text text-anchor="middle" x="1466" y="-63.5" font-family="Helvetica,sans-Serif" font-size="10.00">cstdio</text>
</g>
<!-- Node1&#45;&gt;Node7 -->
<g id="edge64" class="edge"><title>Node1&#45;&gt;Node7</title>
<path fill="none" stroke="midnightblue" d="M900.414,-453.615C1039.9,-442.398 1460,-403.89 1460,-347 1460,-347 1460,-347 1460,-177 1460,-144.9 1462.58,-107.61 1464.36,-85.7319"/>
<polygon fill="midnightblue" stroke="midnightblue" points="1467.86,-85.8083 1465.22,-75.5491 1460.89,-85.2189 1467.86,-85.8083"/>
</g>
<!-- Node28 -->
<g id="node28" class="node"><title>Node28</title>
<g id="a_node28"><a xlink:href="mathlib_8h.html" target="_top" xlink:title="mathlib include file ">
<polygon fill="white" stroke="black" points="1001.5,-392.5 1001.5,-411.5 1082.5,-411.5 1082.5,-392.5 1001.5,-392.5"/>
<text text-anchor="middle" x="1042" y="-399.5" font-family="Helvetica,sans-Serif" font-size="10.00">math/mathlib.h</text>
</a>
</g>
</g>
<!-- Node1&#45;&gt;Node28 -->
<g id="edge33" class="edge"><title>Node1&#45;&gt;Node28</title>
<path fill="none" stroke="midnightblue" d="M885.472,-448.444C917.171,-439.241 967.732,-424.562 1002.77,-414.388"/>
<polygon fill="midnightblue" stroke="midnightblue" points="1004.04,-417.666 1012.67,-411.516 1002.09,-410.943 1004.04,-417.666"/>
</g>
<!-- Node29 -->
<g id="node29" class="node"><title>Node29</title>
<g id="a_node29"><a xlink:href="cosmos-errno_8h.html" target="_top" xlink:title="COSMOS Error Codes. ">
<polygon fill="white" stroke="black" points="632.5,-168.5 632.5,-187.5 751.5,-187.5 751.5,-168.5 632.5,-168.5"/>
<text text-anchor="middle" x="692" y="-175.5" font-family="Helvetica,sans-Serif" font-size="10.00">support/cosmos&#45;errno.h</text>
</a>
</g>
</g>
<!-- Node1&#45;&gt;Node29 -->
<g id="edge57" class="edge"><title>Node1&#45;&gt;Node29</title>
<path fill="none" stroke="midnightblue" d="M811.921,-450.65C756.918,-439.949 670,-412.653 670,-347 670,-347 670,-347 670,-289 670,-256.328 679.447,-219.24 685.96,-197.553"/>
<polygon fill="midnightblue" stroke="midnightblue" points="689.391,-198.31 689.033,-187.721 682.709,-196.222 689.391,-198.31"/>
</g>
<!-- Node36 -->
<g id="node36" class="node"><title>Node36</title>
<g id="a_node36"><a xlink:href="serialclass_8h.html" target="_top" xlink:title="device/serial/serialclass.h">
<polygon fill="white" stroke="black" points="698.5,-280.5 698.5,-299.5 827.5,-299.5 827.5,-280.5 698.5,-280.5"/>
<text text-anchor="middle" x="763" y="-287.5" font-family="Helvetica,sans-Serif" font-size="10.00">device/serial/serialclass.h</text>
</a>
</g>
</g>
<!-- Node1&#45;&gt;Node36 -->
<g id="edge58" class="edge"><title>Node1&#45;&gt;Node36</title>
<path fill="none" stroke="midnightblue" d="M851,-448.075C836.234,-421.719 792.624,-343.878 772.894,-308.661"/>
<polygon fill="midnightblue" stroke="midnightblue" points="775.741,-306.582 767.8,-299.568 769.634,-310.003 775.741,-306.582"/>
</g>
<!-- Node3 -->
<g id="node3" class="node"><title>Node3</title>
<polygon fill="white" stroke="#bfbfbf" points="793.5,-56.5 793.5,-75.5 838.5,-75.5 838.5,-56.5 793.5,-56.5"/>
<text text-anchor="middle" x="816" y="-63.5" font-family="Helvetica,sans-Serif" font-size="10.00">climits</text>
</g>
<!-- Node2&#45;&gt;Node3 -->
<g id="edge2" class="edge"><title>Node2&#45;&gt;Node3</title>
<path fill="none" stroke="midnightblue" d="M817.67,-112.083C817.408,-105.006 817.032,-94.8611 816.703,-85.9865"/>
<polygon fill="midnightblue" stroke="midnightblue" points="820.192,-85.6147 816.324,-75.7511 813.197,-85.8738 820.192,-85.6147"/>
</g>
<!-- Node4 -->
<g id="node4" class="node"><title>Node4</title>
<polygon fill="white" stroke="#bfbfbf" points="856.5,-56.5 856.5,-75.5 903.5,-75.5 903.5,-56.5 856.5,-56.5"/>
<text text-anchor="middle" x="880" y="-63.5" font-family="Helvetica,sans-Serif" font-size="10.00">csignal</text>
</g>
<!-- Node2&#45;&gt;Node4 -->
<g id="edge3" class="edge"><title>Node2&#45;&gt;Node4</title>
<path fill="none" stroke="midnightblue" d="M827.961,-112.324C837.127,-104.341 850.937,-92.3128 862.028,-82.6529"/>
<polygon fill="midnightblue" stroke="midnightblue" points="864.615,-85.041 869.857,-75.8339 860.018,-79.7624 864.615,-85.041"/>
</g>
<!-- Node5 -->
<g id="node5" class="node"><title>Node5</title>
<polygon fill="white" stroke="#bfbfbf" points="1208,-56.5 1208,-75.5 1254,-75.5 1254,-56.5 1208,-56.5"/>
<text text-anchor="middle" x="1231" y="-63.5" font-family="Helvetica,sans-Serif" font-size="10.00">cstdint</text>
</g>
<!-- Node2&#45;&gt;Node5 -->
<g id="edge4" class="edge"><title>Node2&#45;&gt;Node5</title>
<path fill="none" stroke="midnightblue" d="M879.554,-115.909C954.298,-109.204 1084.02,-95.8839 1194,-76 1195.28,-75.7684 1196.58,-75.5193 1197.9,-75.2566"/>
<polygon fill="midnightblue" stroke="midnightblue" points="1198.98,-78.6029 1208,-73.0454 1197.48,-71.7648 1198.98,-78.6029"/>
</g>
<!-- Node6 -->
<g id="node6" class="node"><title>Node6</title>
<polygon fill="white" stroke="#bfbfbf" points="140,-56.5 140,-75.5 196,-75.5 196,-56.5 140,-56.5"/>
<text text-anchor="middle" x="168" y="-63.5" font-family="Helvetica,sans-Serif" font-size="10.00">cinttypes</text>
</g>
<!-- Node2&#45;&gt;Node6 -->
<g id="edge5" class="edge"><title>Node2&#45;&gt;Node6</title>
<path fill="none" stroke="midnightblue" d="M756.333,-114.863C745.56,-113.857 734.457,-112.863 724,-112 496.826,-93.249 435.222,-110.936 206.158,-75.9181"/>
<polygon fill="midnightblue" stroke="midnightblue" points="206.6,-72.4449 196.183,-74.3762 205.531,-79.3628 206.6,-72.4449"/>
</g>
<!-- Node2&#45;&gt;Node7 -->
<g id="edge6" class="edge"><title>Node2&#45;&gt;Node7</title>
<path fill="none" stroke="midnightblue" d="M879.793,-117.259C985.774,-110.606 1208.97,-95.5563 1397,-76 1409.14,-74.737 1422.45,-73.0686 1434.11,-71.5117"/>
<polygon fill="midnightblue" stroke="midnightblue" points="1434.84,-74.9447 1444.28,-70.128 1433.9,-68.0087 1434.84,-74.9447"/>
</g>
<!-- Node8 -->
<g id="node8" class="node"><title>Node8</title>
<polygon fill="white" stroke="#bfbfbf" points="214.5,-56.5 214.5,-75.5 263.5,-75.5 263.5,-56.5 214.5,-56.5"/>
<text text-anchor="middle" x="239" y="-63.5" font-family="Helvetica,sans-Serif" font-size="10.00">cstddef</text>
</g>
<!-- Node2&#45;&gt;Node8 -->
<g id="edge7" class="edge"><title>Node2&#45;&gt;Node8</title>
<path fill="none" stroke="midnightblue" d="M756.325,-114.953C745.553,-113.937 734.452,-112.917 724,-112 526.48,-94.6795 472.259,-110.148 273.63,-76.0021"/>
<polygon fill="midnightblue" stroke="midnightblue" points="274.206,-72.5497 263.754,-74.2841 273.006,-79.4461 274.206,-72.5497"/>
</g>
<!-- Node9 -->
<g id="node9" class="node"><title>Node9</title>
<polygon fill="white" stroke="#bfbfbf" points="281.5,-56.5 281.5,-75.5 326.5,-75.5 326.5,-56.5 281.5,-56.5"/>
<text text-anchor="middle" x="304" y="-63.5" font-family="Helvetica,sans-Serif" font-size="10.00">cstdlib</text>
</g>
<!-- Node2&#45;&gt;Node9 -->
<g id="edge8" class="edge"><title>Node2&#45;&gt;Node9</title>
<path fill="none" stroke="midnightblue" d="M756.315,-115.068C745.544,-114.04 734.446,-112.985 724,-112 554.778,-96.0485 508.007,-107.145 336.47,-75.7339"/>
<polygon fill="midnightblue" stroke="midnightblue" points="337.076,-72.2867 326.606,-73.9063 335.801,-79.1696 337.076,-72.2867"/>
</g>
<!-- Node10 -->
<g id="node10" class="node"><title>Node10</title>
<polygon fill="white" stroke="#bfbfbf" points="345,-56.5 345,-75.5 389,-75.5 389,-56.5 345,-56.5"/>
<text text-anchor="middle" x="367" y="-63.5" font-family="Helvetica,sans-Serif" font-size="10.00">cerrno</text>
</g>
<!-- Node2&#45;&gt;Node10 -->
<g id="edge9" class="edge"><title>Node2&#45;&gt;Node10</title>
<path fill="none" stroke="midnightblue" d="M756.315,-114.996C654.87,-105.039 458.826,-85.4148 399.261,-75.7561"/>
<polygon fill="midnightblue" stroke="midnightblue" points="399.696,-72.2785 389.236,-73.9631 398.463,-79.1691 399.696,-72.2785"/>
</g>
<!-- Node11 -->
<g id="node11" class="node"><title>Node11</title>
<polygon fill="white" stroke="#bfbfbf" points="0,-56.5 0,-75.5 46,-75.5 46,-56.5 0,-56.5"/>
<text text-anchor="middle" x="23" y="-63.5" font-family="Helvetica,sans-Serif" font-size="10.00">cstring</text>
</g>
<!-- Node2&#45;&gt;Node11 -->
<g id="edge10" class="edge"><title>Node2&#45;&gt;Node11</title>
<path fill="none" stroke="midnightblue" d="M756.344,-114.73C745.569,-113.739 734.463,-112.784 724,-112 429.282,-89.9113 352.384,-119.109 60,-76 58.7492,-75.8156 57.4788,-75.6085 56.1986,-75.3831"/>
<polygon fill="midnightblue" stroke="midnightblue" points="56.8581,-71.9456 46.3596,-73.3714 55.4558,-78.8037 56.8581,-71.9456"/>
</g>
<!-- Node12 -->
<g id="node12" class="node"><title>Node12</title>
<polygon fill="white" stroke="#bfbfbf" points="1272,-56.5 1272,-75.5 1316,-75.5 1316,-56.5 1272,-56.5"/>
<text text-anchor="middle" x="1294" y="-63.5" font-family="Helvetica,sans-Serif" font-size="10.00">cmath</text>
</g>
<!-- Node2&#45;&gt;Node12 -->
<g id="edge11" class="edge"><title>Node2&#45;&gt;Node12</title>
<path fill="none" stroke="midnightblue" d="M879.699,-118.308C964.062,-113.843 1120.16,-102.791 1261.61,-75.94"/>
<polygon fill="midnightblue" stroke="midnightblue" points="1262.61,-79.3111 1271.77,-73.9793 1261.29,-72.438 1262.61,-79.3111"/>
</g>
<!-- Node13 -->
<g id="node13" class="node"><title>Node13</title>
<polygon fill="white" stroke="#bfbfbf" points="407.5,-56.5 407.5,-75.5 452.5,-75.5 452.5,-56.5 407.5,-56.5"/>
<text text-anchor="middle" x="430" y="-63.5" font-family="Helvetica,sans-Serif" font-size="10.00">iosfwd</text>
</g>
<!-- Node2&#45;&gt;Node13 -->
<g id="edge12" class="edge"><title>Node2&#45;&gt;Node13</title>
<path fill="none" stroke="midnightblue" d="M756.485,-114.428C673.992,-105.423 530.838,-89.0709 462.499,-75.9889"/>
<polygon fill="midnightblue" stroke="midnightblue" points="463.077,-72.5353 452.584,-74.0016 461.701,-79.3987 463.077,-72.5353"/>
</g>
<!-- Node14 -->
<g id="node14" class="node"><title>Node14</title>
<polygon fill="white" stroke="#bfbfbf" points="1334,-56.5 1334,-75.5 1388,-75.5 1388,-56.5 1334,-56.5"/>
<text text-anchor="middle" x="1361" y="-63.5" font-family="Helvetica,sans-Serif" font-size="10.00">iostream</text>
</g>
<!-- Node2&#45;&gt;Node14 -->
<g id="edge13" class="edge"><title>Node2&#45;&gt;Node14</title>
<path fill="none" stroke="midnightblue" d="M879.659,-118.639C973.624,-114.357 1158.35,-103.249 1324.09,-75.8939"/>
<polygon fill="midnightblue" stroke="midnightblue" points="1324.68,-79.3429 1333.97,-74.2397 1323.53,-72.439 1324.68,-79.3429"/>
</g>
<!-- Node15 -->
<g id="node15" class="node"><title>Node15</title>
<polygon fill="white" stroke="#bfbfbf" points="470.5,-56.5 470.5,-75.5 521.5,-75.5 521.5,-56.5 470.5,-56.5"/>
<text text-anchor="middle" x="496" y="-63.5" font-family="Helvetica,sans-Serif" font-size="10.00">unistd.h</text>
</g>
<!-- Node2&#45;&gt;Node15 -->
<g id="edge14" class="edge"><title>Node2&#45;&gt;Node15</title>
<path fill="none" stroke="midnightblue" d="M756.387,-113.086C700.281,-105.483 614.978,-92.9361 531.458,-75.9148"/>
<polygon fill="midnightblue" stroke="midnightblue" points="532.049,-72.463 521.548,-73.8719 530.636,-79.3188 532.049,-72.463"/>
</g>
<!-- Node16 -->
<g id="node16" class="node"><title>Node16</title>
<polygon fill="white" stroke="#bfbfbf" points="540,-56.5 540,-75.5 584,-75.5 584,-56.5 540,-56.5"/>
<text text-anchor="middle" x="562" y="-63.5" font-family="Helvetica,sans-Serif" font-size="10.00">fcntl.h</text>
</g>
<!-- Node2&#45;&gt;Node16 -->
<g id="edge15" class="edge"><title>Node2&#45;&gt;Node16</title>
<path fill="none" stroke="midnightblue" d="M769.017,-112.447C725.493,-104.568 659.957,-92.0232 594.385,-76.1827"/>
<polygon fill="midnightblue" stroke="midnightblue" points="594.835,-72.6897 584.29,-73.7174 593.174,-79.4898 594.835,-72.6897"/>
</g>
<!-- Node17 -->
<g id="node17" class="node"><title>Node17</title>
<polygon fill="white" stroke="#bfbfbf" points="602.5,-56.5 602.5,-75.5 643.5,-75.5 643.5,-56.5 602.5,-56.5"/>
<text text-anchor="middle" x="623" y="-63.5" font-family="Helvetica,sans-Serif" font-size="10.00">string</text>
</g>
<!-- Node2&#45;&gt;Node17 -->
<g id="edge16" class="edge"><title>Node2&#45;&gt;Node17</title>
<path fill="none" stroke="midnightblue" d="M785.145,-112.469C753.617,-104.199 704.434,-91.0847 653.444,-76.3516"/>
<polygon fill="midnightblue" stroke="midnightblue" points="654.147,-72.9111 643.567,-73.4837 652.195,-79.6335 654.147,-72.9111"/>
</g>
<!-- Node18 -->
<g id="node18" class="node"><title>Node18</title>
<polygon fill="white" stroke="#bfbfbf" points="1204,-0.5 1204,-19.5 1248,-19.5 1248,-0.5 1204,-0.5"/>
<text text-anchor="middle" x="1226" y="-7.5" font-family="Helvetica,sans-Serif" font-size="10.00">vector</text>
</g>
<!-- Node2&#45;&gt;Node18 -->
<g id="edge17" class="edge"><title>Node2&#45;&gt;Node18</title>
<path fill="none" stroke="midnightblue" d="M879.609,-119.601C942.991,-116.426 1043.67,-106.493 1125,-76 1156.66,-64.1294 1188.74,-41.2156 1208,-26.0126"/>
<polygon fill="midnightblue" stroke="midnightblue" points="1210.32,-28.6411 1215.9,-19.6374 1205.92,-23.1935 1210.32,-28.6411"/>
</g>
<!-- Node19 -->
<g id="node19" class="node"><title>Node19</title>
<polygon fill="white" stroke="#bfbfbf" points="661.5,-56.5 661.5,-75.5 704.5,-75.5 704.5,-56.5 661.5,-56.5"/>
<text text-anchor="middle" x="683" y="-63.5" font-family="Helvetica,sans-Serif" font-size="10.00">deque</text>
</g>
<!-- Node2&#45;&gt;Node19 -->
<g id="edge18" class="edge"><title>Node2&#45;&gt;Node19</title>
<path fill="none" stroke="midnightblue" d="M796.609,-112.444C774.293,-103.517 739.097,-89.4387 713.792,-79.3168"/>
<polygon fill="midnightblue" stroke="midnightblue" points="714.876,-75.9807 704.291,-75.5164 712.276,-82.4801 714.876,-75.9807"/>
</g>
<!-- Node20 -->
<g id="node20" class="node"><title>Node20</title>
<polygon fill="white" stroke="#bfbfbf" points="913,-0.5 913,-19.5 957,-19.5 957,-0.5 913,-0.5"/>
<text text-anchor="middle" x="935" y="-7.5" font-family="Helvetica,sans-Serif" font-size="10.00">mutex</text>
</g>
<!-- Node2&#45;&gt;Node20 -->
<g id="edge19" class="edge"><title>Node2&#45;&gt;Node20</title>
<path fill="none" stroke="midnightblue" d="M850.655,-112.366C870.797,-105.515 895.792,-94.0308 912,-76 923.618,-63.0749 929.456,-43.9034 932.333,-29.728"/>
<polygon fill="midnightblue" stroke="midnightblue" points="935.822,-30.0928 934.06,-19.6455 928.922,-28.9114 935.822,-30.0928"/>
</g>
<!-- Node21 -->
<g id="node21" class="node"><title>Node21</title>
<polygon fill="white" stroke="#bfbfbf" points="1028,-0.5 1028,-19.5 1072,-19.5 1072,-0.5 1028,-0.5"/>
<text text-anchor="middle" x="1050" y="-7.5" font-family="Helvetica,sans-Serif" font-size="10.00">thread</text>
</g>
<!-- Node2&#45;&gt;Node21 -->
<g id="edge20" class="edge"><title>Node2&#45;&gt;Node21</title>
<path fill="none" stroke="midnightblue" d="M879.728,-119.493C950.246,-116.315 1059.24,-106.466 1085,-76 1097.71,-60.9709 1082.58,-40.5838 1068.43,-26.6745"/>
<polygon fill="midnightblue" stroke="midnightblue" points="1070.58,-23.8962 1060.86,-19.6887 1065.84,-29.0415 1070.58,-23.8962"/>
</g>
<!-- Node22 -->
<g id="node22" class="node"><title>Node22</title>
<polygon fill="white" stroke="#bfbfbf" points="1090.5,-0.5 1090.5,-19.5 1185.5,-19.5 1185.5,-0.5 1090.5,-0.5"/>
<text text-anchor="middle" x="1138" y="-7.5" font-family="Helvetica,sans-Serif" font-size="10.00">condition_variable</text>
</g>
<!-- Node2&#45;&gt;Node22 -->
<g id="edge21" class="edge"><title>Node2&#45;&gt;Node22</title>
<path fill="none" stroke="midnightblue" d="M879.575,-117.511C952.07,-112.34 1067.04,-100.489 1102,-76 1117.81,-64.9223 1127.44,-44.5795 1132.71,-29.5919"/>
<polygon fill="midnightblue" stroke="midnightblue" points="1136.12,-30.4243 1135.81,-19.8341 1129.45,-28.3089 1136.12,-30.4243"/>
</g>
<!-- Node23 -->
<g id="node23" class="node"><title>Node23</title>
<polygon fill="white" stroke="#bfbfbf" points="241.5,-0.5 241.5,-19.5 284.5,-19.5 284.5,-0.5 241.5,-0.5"/>
<text text-anchor="middle" x="263" y="-7.5" font-family="Helvetica,sans-Serif" font-size="10.00">queue</text>
</g>
<!-- Node2&#45;&gt;Node23 -->
<g id="edge22" class="edge"><title>Node2&#45;&gt;Node23</title>
<path fill="none" stroke="midnightblue" d="M756.34,-114.78C745.566,-113.783 734.461,-112.814 724,-112 657.304,-106.811 168.868,-124.697 123,-76 88.4497,-39.3182 180.196,-21.454 231.339,-14.5546"/>
<polygon fill="midnightblue" stroke="midnightblue" points="231.802,-18.024 241.276,-13.2822 230.913,-11.0807 231.802,-18.024"/>
</g>
<!-- Node24 -->
<g id="node24" class="node"><title>Node24</title>
<polygon fill="white" stroke="#bfbfbf" points="723,-56.5 723,-75.5 775,-75.5 775,-56.5 723,-56.5"/>
<text text-anchor="middle" x="749" y="-63.5" font-family="Helvetica,sans-Serif" font-size="10.00">sstream</text>
</g>
<!-- Node2&#45;&gt;Node24 -->
<g id="edge23" class="edge"><title>Node2&#45;&gt;Node24</title>
<path fill="none" stroke="midnightblue" d="M806.914,-112.324C796.514,-104.185 780.739,-91.8395 768.278,-82.0874"/>
<polygon fill="midnightblue" stroke="midnightblue" points="770.32,-79.2407 760.288,-75.8339 766.006,-84.7533 770.32,-79.2407"/>
</g>
<!-- Node25 -->
<g id="node25" class="node"><title>Node25</title>
<polygon fill="white" stroke="#bfbfbf" points="673.5,-0.5 673.5,-19.5 708.5,-19.5 708.5,-0.5 673.5,-0.5"/>
<text text-anchor="middle" x="691" y="-7.5" font-family="Helvetica,sans-Serif" font-size="10.00">map</text>
</g>
<!-- Node2&#45;&gt;Node25 -->
<g id="edge24" class="edge"><title>Node2&#45;&gt;Node25</title>
<path fill="none" stroke="midnightblue" d="M756.339,-114.787C745.565,-113.79 734.46,-112.818 724,-112 658.191,-106.854 176.24,-124.07 131,-76 124.908,-69.527 124.972,-62.5323 131,-56 167.413,-16.5439 555.469,-11.6705 663.327,-11.0791"/>
<polygon fill="midnightblue" stroke="midnightblue" points="663.439,-14.5787 673.423,-11.0321 663.407,-7.57878 663.439,-14.5787"/>
</g>
<!-- Node26 -->
<g id="node26" class="node"><title>Node26</title>
<g id="a_node26"><a xlink:href="cosmos-defs_8h.html" target="_top" xlink:title="COSMOS definitions Definitions specific to the COSMOS environement. ">
<polygon fill="white" stroke="black" points="960,-56.5 960,-75.5 1076,-75.5 1076,-56.5 960,-56.5"/>
<text text-anchor="middle" x="1018" y="-63.5" font-family="Helvetica,sans-Serif" font-size="10.00">support/cosmos&#45;defs.h</text>
</a>
</g>
</g>
<!-- Node2&#45;&gt;Node26 -->
<g id="edge25" class="edge"><title>Node2&#45;&gt;Node26</title>
<path fill="none" stroke="midnightblue" d="M849.691,-112.444C884.068,-103.162 939.077,-88.3093 976.789,-78.127"/>
<polygon fill="midnightblue" stroke="midnightblue" points="977.716,-81.5022 986.458,-75.5164 975.891,-74.7442 977.716,-81.5022"/>
</g>
<!-- Node26&#45;&gt;Node18 -->
<g id="edge27" class="edge"><title>Node26&#45;&gt;Node18</title>
<path fill="none" stroke="midnightblue" d="M1052.46,-56.4468C1087.99,-47.5686 1144.96,-33.1638 1194,-20 1194.1,-19.9729 1194.2,-19.9457 1194.3,-19.9184"/>
<polygon fill="midnightblue" stroke="midnightblue" points="1195.27,-23.284 1203.99,-17.2661 1193.42,-16.5328 1195.27,-23.284"/>
</g>
<!-- Node26&#45;&gt;Node20 -->
<g id="edge31" class="edge"><title>Node26&#45;&gt;Node20</title>
<path fill="none" stroke="midnightblue" d="M1004.66,-56.324C991.838,-47.979 972.215,-35.2122 957.06,-25.3524"/>
<polygon fill="midnightblue" stroke="midnightblue" points="958.593,-22.1742 948.302,-19.6545 954.776,-28.0417 958.593,-22.1742"/>
</g>
<!-- Node26&#45;&gt;Node21 -->
<g id="edge30" class="edge"><title>Node26&#45;&gt;Node21</title>
<path fill="none" stroke="midnightblue" d="M1023.28,-56.083C1027.71,-48.6127 1034.16,-37.7244 1039.62,-28.5199"/>
<polygon fill="midnightblue" stroke="midnightblue" points="1042.73,-30.1383 1044.81,-19.7511 1036.71,-26.5697 1042.73,-30.1383"/>
</g>
<!-- Node26&#45;&gt;Node22 -->
<g id="edge32" class="edge"><title>Node26&#45;&gt;Node22</title>
<path fill="none" stroke="midnightblue" d="M1037.01,-56.4435C1056.59,-47.6356 1087.31,-33.8116 1109.73,-23.722"/>
<polygon fill="midnightblue" stroke="midnightblue" points="1111.39,-26.8119 1119.07,-19.5164 1108.52,-20.4284 1111.39,-26.8119"/>
</g>
<!-- Node26&#45;&gt;Node23 -->
<g id="edge29" class="edge"><title>Node26&#45;&gt;Node23</title>
<path fill="none" stroke="midnightblue" d="M959.972,-59.91C944.397,-58.5883 927.56,-57.1999 912,-56 674.807,-37.7084 388.576,-19.0531 294.575,-13.0155"/>
<polygon fill="midnightblue" stroke="midnightblue" points="294.781,-9.52159 284.578,-12.3744 294.333,-16.5072 294.781,-9.52159"/>
</g>
<!-- Node26&#45;&gt;Node25 -->
<g id="edge26" class="edge"><title>Node26&#45;&gt;Node25</title>
<path fill="none" stroke="midnightblue" d="M966.186,-56.4435C896.12,-44.8731 773.638,-24.6467 718.859,-15.6006"/>
<polygon fill="midnightblue" stroke="midnightblue" points="719.278,-12.1224 708.841,-13.9463 718.137,-19.0289 719.278,-12.1224"/>
</g>
<!-- Node27 -->
<g id="node27" class="node"><title>Node27</title>
<polygon fill="white" stroke="#bfbfbf" points="981.5,-0.5 981.5,-19.5 1010.5,-19.5 1010.5,-0.5 981.5,-0.5"/>
<text text-anchor="middle" x="996" y="-7.5" font-family="Helvetica,sans-Serif" font-size="10.00">list</text>
</g>
<!-- Node26&#45;&gt;Node27 -->
<g id="edge28" class="edge"><title>Node26&#45;&gt;Node27</title>
<path fill="none" stroke="midnightblue" d="M1014.37,-56.083C1011.39,-48.77 1007.07,-38.1814 1003.38,-29.1034"/>
<polygon fill="midnightblue" stroke="midnightblue" points="1006.58,-27.6914 999.565,-19.7511 1000.1,-30.3326 1006.58,-27.6914"/>
</g>
<!-- Node28&#45;&gt;Node2 -->
<g id="edge34" class="edge"><title>Node28&#45;&gt;Node2</title>
<path fill="none" stroke="midnightblue" d="M1022.59,-392.464C991.009,-377.108 932,-341.639 932,-291 932,-291 932,-291 932,-233 932,-186.115 881.448,-152.894 847.671,-135.93"/>
<polygon fill="midnightblue" stroke="midnightblue" points="849.172,-132.769 838.645,-131.579 846.132,-139.074 849.172,-132.769"/>
</g>
<!-- Node28&#45;&gt;Node12 -->
<g id="edge55" class="edge"><title>Node28&#45;&gt;Node12</title>
<path fill="none" stroke="midnightblue" d="M1082.57,-393.659C1159.51,-378.578 1319,-341.256 1319,-291 1319,-291 1319,-291 1319,-177 1319,-143.995 1308.17,-106.774 1300.76,-85.1916"/>
<polygon fill="midnightblue" stroke="midnightblue" points="1304.03,-83.9302 1297.37,-75.6873 1297.43,-86.282 1304.03,-83.9302"/>
</g>
<!-- Node28&#45;&gt;Node14 -->
<g id="edge56" class="edge"><title>Node28&#45;&gt;Node14</title>
<path fill="none" stroke="midnightblue" d="M1082.6,-395.667C1168.33,-383.267 1360,-349.053 1360,-291 1360,-291 1360,-291 1360,-177 1360,-144.947 1360.43,-107.642 1360.73,-85.7484"/>
<polygon fill="midnightblue" stroke="midnightblue" points="1364.23,-85.6058 1360.87,-75.5575 1357.23,-85.5073 1364.23,-85.6058"/>
</g>
<!-- Node28&#45;&gt;Node29 -->
<g id="edge35" class="edge"><title>Node28&#45;&gt;Node29</title>
<path fill="none" stroke="midnightblue" d="M1004.89,-392.475C979.072,-385.404 944.646,-373.625 918,-356 851.119,-311.76 860.436,-270.35 795,-224 774.883,-209.751 749.539,-198.607 729.025,-190.973"/>
<polygon fill="midnightblue" stroke="midnightblue" points="729.981,-187.598 719.386,-187.509 727.613,-194.185 729.981,-187.598"/>
</g>
<!-- Node31 -->
<g id="node31" class="node"><title>Node31</title>
<g id="a_node31"><a xlink:href="math_2constants_8h.html" target="_top" xlink:title="constants.h">
<polygon fill="white" stroke="black" points="1041,-168.5 1041,-187.5 1109,-187.5 1109,-168.5 1041,-168.5"/>
<text text-anchor="middle" x="1075" y="-175.5" font-family="Helvetica,sans-Serif" font-size="10.00">constants.h</text>
</a>
</g>
</g>
<!-- Node28&#45;&gt;Node31 -->
<g id="edge38" class="edge"><title>Node28&#45;&gt;Node31</title>
<path fill="none" stroke="midnightblue" d="M1042.99,-392.156C1044.41,-379.637 1047.17,-356.04 1050,-336 1057.05,-286.057 1066.77,-227.415 1071.76,-197.942"/>
<polygon fill="midnightblue" stroke="midnightblue" points="1075.25,-198.281 1073.48,-187.836 1068.35,-197.108 1075.25,-198.281"/>
</g>
<!-- Node32 -->
<g id="node32" class="node"><title>Node32</title>
<g id="a_node32"><a xlink:href="vector_8h.html" target="_top" xlink:title="vector.h">
<polygon fill="white" stroke="black" points="1162,-224.5 1162,-243.5 1214,-243.5 1214,-224.5 1162,-224.5"/>
<text text-anchor="middle" x="1188" y="-231.5" font-family="Helvetica,sans-Serif" font-size="10.00">vector.h</text>
</a>
</g>
</g>
<!-- Node28&#45;&gt;Node32 -->
<g id="edge41" class="edge"><title>Node28&#45;&gt;Node32</title>
<path fill="none" stroke="midnightblue" d="M1072.92,-392.459C1093.12,-385.51 1118.83,-373.88 1136,-356 1164.14,-326.692 1178.27,-279.769 1184.28,-253.808"/>
<polygon fill="midnightblue" stroke="midnightblue" points="1187.75,-254.297 1186.43,-243.785 1180.91,-252.826 1187.75,-254.297"/>
</g>
<!-- Node34 -->
<g id="node34" class="node"><title>Node34</title>
<g id="a_node34"><a xlink:href="matrix_8h.html" target="_top" xlink:title="matrix.h">
<polygon fill="white" stroke="black" points="1070,-280.5 1070,-299.5 1122,-299.5 1122,-280.5 1070,-280.5"/>
<text text-anchor="middle" x="1096" y="-287.5" font-family="Helvetica,sans-Serif" font-size="10.00">matrix.h</text>
</a>
</g>
</g>
<!-- Node28&#45;&gt;Node34 -->
<g id="edge48" class="edge"><title>Node28&#45;&gt;Node34</title>
<path fill="none" stroke="midnightblue" d="M1043.48,-392.197C1045.89,-379.322 1051.36,-354.842 1061,-336 1066.28,-325.667 1074.07,-315.358 1080.96,-307.219"/>
<polygon fill="midnightblue" stroke="midnightblue" points="1083.68,-309.428 1087.67,-299.614 1078.43,-304.797 1083.68,-309.428"/>
</g>
<!-- Node35 -->
<g id="node35" class="node"><title>Node35</title>
<g id="a_node35"><a xlink:href="rotation_8h.html" target="_top" xlink:title="rotation.h">
<polygon fill="white" stroke="black" points="1070.5,-336.5 1070.5,-355.5 1127.5,-355.5 1127.5,-336.5 1070.5,-336.5"/>
<text text-anchor="middle" x="1099" y="-343.5" font-family="Helvetica,sans-Serif" font-size="10.00">rotation.h</text>
</a>
</g>
</g>
<!-- Node28&#45;&gt;Node35 -->
<g id="edge51" class="edge"><title>Node28&#45;&gt;Node35</title>
<path fill="none" stroke="midnightblue" d="M1051.16,-392.324C1059.5,-384.42 1072.03,-372.548 1082.18,-362.938"/>
<polygon fill="midnightblue" stroke="midnightblue" points="1084.82,-365.252 1089.68,-355.834 1080.01,-360.171 1084.82,-365.252"/>
</g>
<!-- Node29&#45;&gt;Node2 -->
<g id="edge36" class="edge"><title>Node29&#45;&gt;Node2</title>
<path fill="none" stroke="midnightblue" d="M711.965,-168.444C732.609,-159.596 765.063,-145.687 788.632,-135.586"/>
<polygon fill="midnightblue" stroke="midnightblue" points="790.316,-138.673 798.128,-131.516 787.558,-132.239 790.316,-138.673"/>
</g>
<!-- Node30 -->
<g id="node30" class="node"><title>Node30</title>
<polygon fill="white" stroke="#bfbfbf" points="668.5,-112.5 668.5,-131.5 715.5,-131.5 715.5,-112.5 668.5,-112.5"/>
<text text-anchor="middle" x="692" y="-119.5" font-family="Helvetica,sans-Serif" font-size="10.00">errno.h</text>
</g>
<!-- Node29&#45;&gt;Node30 -->
<g id="edge37" class="edge"><title>Node29&#45;&gt;Node30</title>
<path fill="none" stroke="midnightblue" d="M692,-168.083C692,-161.006 692,-150.861 692,-141.986"/>
<polygon fill="midnightblue" stroke="midnightblue" points="695.5,-141.751 692,-131.751 688.5,-141.751 695.5,-141.751"/>
</g>
<!-- Node31&#45;&gt;Node2 -->
<g id="edge39" class="edge"><title>Node31&#45;&gt;Node2</title>
<path fill="none" stroke="midnightblue" d="M1040.87,-169.829C996.71,-160.55 919.404,-144.307 868.452,-133.601"/>
<polygon fill="midnightblue" stroke="midnightblue" points="869.136,-130.168 858.63,-131.537 867.697,-137.019 869.136,-130.168"/>
</g>
<!-- Node31&#45;&gt;Node5 -->
<g id="edge40" class="edge"><title>Node31&#45;&gt;Node5</title>
<path fill="none" stroke="midnightblue" d="M1087.24,-168.368C1113.9,-149.573 1177.44,-104.768 1210.39,-81.5334"/>
<polygon fill="midnightblue" stroke="midnightblue" points="1212.66,-84.2146 1218.82,-75.5914 1208.63,-78.4938 1212.66,-84.2146"/>
</g>
<!-- Node32&#45;&gt;Node2 -->
<g id="edge42" class="edge"><title>Node32&#45;&gt;Node2</title>
<path fill="none" stroke="midnightblue" d="M1181.4,-224.079C1170.15,-209.63 1145.79,-181.379 1118,-168 1078.85,-149.156 965.555,-135.91 889.946,-128.873"/>
<polygon fill="midnightblue" stroke="midnightblue" points="889.816,-125.347 879.539,-127.922 889.179,-132.318 889.816,-125.347"/>
</g>
<!-- Node32&#45;&gt;Node12 -->
<g id="edge46" class="edge"><title>Node32&#45;&gt;Node12</title>
<path fill="none" stroke="midnightblue" d="M1195.61,-224.355C1203.21,-215.522 1215.03,-201.259 1224,-188 1245.75,-155.856 1247.46,-145.531 1267,-112 1272.34,-102.834 1278.41,-92.6971 1283.44,-84.3682"/>
<polygon fill="midnightblue" stroke="midnightblue" points="1286.57,-85.9543 1288.76,-75.588 1280.58,-82.3268 1286.57,-85.9543"/>
</g>
<!-- Node32&#45;&gt;Node14 -->
<g id="edge44" class="edge"><title>Node32&#45;&gt;Node14</title>
<path fill="none" stroke="midnightblue" d="M1199.74,-224.484C1211.54,-215.751 1230.07,-201.563 1245,-188 1283.75,-152.799 1325.33,-107.315 1346.62,-83.3862"/>
<polygon fill="midnightblue" stroke="midnightblue" points="1349.5,-85.4136 1353.5,-75.6044 1344.25,-80.7757 1349.5,-85.4136"/>
</g>
<!-- Node32&#45;&gt;Node18 -->
<g id="edge47" class="edge"><title>Node32&#45;&gt;Node18</title>
<path fill="none" stroke="midnightblue" d="M1211.36,-224.376C1257.78,-205.749 1360.34,-156.793 1397,-76 1422.03,-20.8439 1314.87,-11.7932 1258.58,-10.7643"/>
<polygon fill="midnightblue" stroke="midnightblue" points="1258.42,-7.26241 1248.38,-10.6551 1258.34,-14.262 1258.42,-7.26241"/>
</g>
<!-- Node32&#45;&gt;Node31 -->
<g id="edge43" class="edge"><title>Node32&#45;&gt;Node31</title>
<path fill="none" stroke="midnightblue" d="M1170.09,-224.444C1151.75,-215.675 1122.99,-201.935 1101.91,-191.858"/>
<polygon fill="midnightblue" stroke="midnightblue" points="1103.35,-188.67 1092.82,-187.516 1100.33,-194.986 1103.35,-188.67"/>
</g>
<!-- Node33 -->
<g id="node33" class="node"><title>Node33</title>
<polygon fill="white" stroke="#bfbfbf" points="1165,-168.5 1165,-187.5 1215,-187.5 1215,-168.5 1165,-168.5"/>
<text text-anchor="middle" x="1190" y="-175.5" font-family="Helvetica,sans-Serif" font-size="10.00">iomanip</text>
</g>
<!-- Node32&#45;&gt;Node33 -->
<g id="edge45" class="edge"><title>Node32&#45;&gt;Node33</title>
<path fill="none" stroke="midnightblue" d="M1188.33,-224.083C1188.59,-217.006 1188.97,-206.861 1189.3,-197.986"/>
<polygon fill="midnightblue" stroke="midnightblue" points="1192.8,-197.874 1189.68,-187.751 1185.81,-197.615 1192.8,-197.874"/>
</g>
<!-- Node34&#45;&gt;Node2 -->
<g id="edge49" class="edge"><title>Node34&#45;&gt;Node2</title>
<path fill="none" stroke="midnightblue" d="M1090.62,-280.45C1076.23,-258.279 1034.44,-198.538 984,-168 955.543,-150.773 920.416,-140.017 889.814,-133.363"/>
<polygon fill="midnightblue" stroke="midnightblue" points="890.127,-129.854 879.626,-131.26 888.712,-136.71 890.127,-129.854"/>
</g>
<!-- Node34&#45;&gt;Node32 -->
<g id="edge50" class="edge"><title>Node34&#45;&gt;Node32</title>
<path fill="none" stroke="midnightblue" d="M1110.78,-280.324C1125.27,-271.822 1147.57,-258.729 1164.49,-248.797"/>
<polygon fill="midnightblue" stroke="midnightblue" points="1166.4,-251.735 1173.26,-243.655 1162.86,-245.698 1166.4,-251.735"/>
</g>
<!-- Node35&#45;&gt;Node2 -->
<g id="edge52" class="edge"><title>Node35&#45;&gt;Node2</title>
<path fill="none" stroke="midnightblue" d="M1091.46,-336.156C1061.29,-300.774 950.637,-171.159 946,-168 922.73,-152.148 893.285,-141.288 868.504,-134.215"/>
<polygon fill="midnightblue" stroke="midnightblue" points="869.124,-130.756 858.556,-131.504 867.284,-137.51 869.124,-130.756"/>
</g>
<!-- Node35&#45;&gt;Node32 -->
<g id="edge53" class="edge"><title>Node35&#45;&gt;Node32</title>
<path fill="none" stroke="midnightblue" d="M1105.98,-336.368C1120.74,-318.135 1155.29,-275.426 1174.51,-251.675"/>
<polygon fill="midnightblue" stroke="midnightblue" points="1177.48,-253.567 1181.05,-243.591 1172.04,-249.164 1177.48,-253.567"/>
</g>
<!-- Node35&#45;&gt;Node34 -->
<g id="edge54" class="edge"><title>Node35&#45;&gt;Node34</title>
<path fill="none" stroke="midnightblue" d="M1098.5,-336.083C1098.11,-329.006 1097.55,-318.861 1097.05,-309.986"/>
<polygon fill="midnightblue" stroke="midnightblue" points="1100.54,-309.542 1096.49,-299.751 1093.55,-309.93 1100.54,-309.542"/>
</g>
<!-- Node36&#45;&gt;Node2 -->
<g id="edge59" class="edge"><title>Node36&#45;&gt;Node2</title>
<path fill="none" stroke="midnightblue" d="M770.867,-280.391C778.263,-271.809 789.06,-257.933 795,-244 809.624,-209.699 814.997,-165.983 816.936,-141.595"/>
<polygon fill="midnightblue" stroke="midnightblue" points="820.431,-141.792 817.623,-131.576 813.447,-141.314 820.431,-141.792"/>
</g>
<!-- Node37 -->
<g id="node37" class="node"><title>Node37</title>
<g id="a_node37"><a xlink:href="sliplib_8h.html" target="_top" xlink:title="COSMOS SLIP support include file. ">
<polygon fill="white" stroke="black" points="701.5,-224.5 701.5,-243.5 786.5,-243.5 786.5,-224.5 701.5,-224.5"/>
<text text-anchor="middle" x="744" y="-231.5" font-family="Helvetica,sans-Serif" font-size="10.00">support/sliplib.h</text>
</a>
</g>
</g>
<!-- Node36&#45;&gt;Node37 -->
<g id="edge60" class="edge"><title>Node36&#45;&gt;Node37</title>
<path fill="none" stroke="midnightblue" d="M759.863,-280.083C757.317,-272.849 753.644,-262.409 750.473,-253.397"/>
<polygon fill="midnightblue" stroke="midnightblue" points="753.7,-252.023 747.079,-243.751 747.097,-254.346 753.7,-252.023"/>
</g>
<!-- Node37&#45;&gt;Node2 -->
<g id="edge61" class="edge"><title>Node37&#45;&gt;Node2</title>
<path fill="none" stroke="midnightblue" d="M749.807,-224.368C762.019,-206.215 790.552,-163.802 806.57,-139.99"/>
<polygon fill="midnightblue" stroke="midnightblue" points="809.543,-141.842 812.22,-131.591 803.734,-137.935 809.543,-141.842"/>
</g>
<!-- Node37&#45;&gt;Node11 -->
<g id="edge63" class="edge"><title>Node37&#45;&gt;Node11</title>
<path fill="none" stroke="midnightblue" d="M707.005,-224.482C581.767,-195.648 174.954,-101.985 55.9713,-74.5912"/>
<polygon fill="midnightblue" stroke="midnightblue" points="56.5307,-71.1285 46.0004,-72.2955 54.9601,-77.95 56.5307,-71.1285"/>
</g>
<!-- Node37&#45;&gt;Node29 -->
<g id="edge62" class="edge"><title>Node37&#45;&gt;Node29</title>
<path fill="none" stroke="midnightblue" d="M735.413,-224.083C727.841,-216.22 716.622,-204.569 707.486,-195.081"/>
<polygon fill="midnightblue" stroke="midnightblue" points="709.885,-192.527 700.427,-187.751 704.842,-197.382 709.885,-192.527"/>
</g>
</g>
</svg>
