<?xml version="1.0" encoding="UTF-8" standalone="no"?>
<!DOCTYPE svg PUBLIC "-//W3C//DTD SVG 1.1//EN"
 "http://www.w3.org/Graphics/SVG/1.1/DTD/svg11.dtd">
<!-- Generated by graphviz version 2.38.0 (20140413.2041)
 -->
<!-- Title: razor_imu.cpp Pages: 1 -->
<!--zoomable 431 -->
<svg id="main" version="1.1" xmlns="http://www.w3.org/2000/svg" xmlns:xlink="http://www.w3.org/1999/xlink" xml:space="preserve" onload="init(evt)">
<style type="text/css"><![CDATA[
.edge:hover path { stroke: red; }
.edge:hover polygon { stroke: red; fill: red; }
]]></style>
<script type="text/javascript"><![CDATA[
var edges = document.getElementsByTagName('g');
if (edges && edges.length) {
  for (var i=0;i<edges.length;i++) {
    if (edges[i].id.substr(0,4)=='edge') {
      edges[i].setAttribute('class','edge');
    }
  }
}
]]></script>
        <defs>
                <circle id="rim" cx="0" cy="0" r="7"/>
                <circle id="rim2" cx="0" cy="0" r="3.5"/>
                <g id="zoomPlus">
                        <use xlink:href="#rim" fill="#404040">
                                <set attributeName="fill" to="#808080" begin="zoomplus.mouseover" end="zoomplus.mouseout"/>
                        </use>
                        <path d="M-4,0h8M0,-4v8" fill="none" stroke="white" stroke-width="1.5" pointer-events="none"/>
                </g>
                <g id="zoomMin">
                        <use xlink:href="#rim" fill="#404040">
                                <set attributeName="fill" to="#808080" begin="zoomminus.mouseover" end="zoomminus.mouseout"/>
                        </use>
                        <path d="M-4,0h8" fill="none" stroke="white" stroke-width="1.5" pointer-events="none"/>
                </g>
                <g id="dirArrow">
                        <path fill="none" stroke="white" stroke-width="1.5" d="M0,-3.0v7 M-2.5,-0.5L0,-3.0L2.5,-0.5"/>
                </g>
               <g id="resetDef">
                       <use xlink:href="#rim2" fill="#404040">
                               <set attributeName="fill" to="#808080" begin="reset.mouseover" end="reset.mouseout"/>
                       </use>
               </g>
        </defs>

<script type="text/javascript">
var viewWidth = 1460;
var viewHeight = 431;
var sectionId = 'dynsection-0';
</script>
<script xlink:href="svgpan.js"/>
<svg id="graph" class="graph">
<g id="viewport">
<title>razor_imu.cpp</title>
<polygon fill="white" stroke="none" points="-4,4 -4,-427 1455.5,-427 1455.5,4 -4,4"/>
<!-- Node1 -->
<g id="node1" class="node"><title>Node1</title>
<polygon fill="#bfbfbf" stroke="black" points="818.5,-403.5 818.5,-422.5 896.5,-422.5 896.5,-403.5 818.5,-403.5"/>
<text text-anchor="middle" x="857.5" y="-410.5" font-family="Helvetica,sans-Serif" font-size="10.00">razor_imu.cpp</text>
</g>
<!-- Node2 -->
<g id="node2" class="node"><title>Node2</title>
<polygon fill="white" stroke="#bfbfbf" points="547.5,-347.5 547.5,-366.5 597.5,-366.5 597.5,-347.5 547.5,-347.5"/>
<text text-anchor="middle" x="572.5" y="-354.5" font-family="Helvetica,sans-Serif" font-size="10.00">rw_lib.h</text>
</g>
<!-- Node1&#45;&gt;Node2 -->
<g id="edge1" class="edge"><title>Node1&#45;&gt;Node2</title>
<path fill="none" stroke="midnightblue" d="M818.195,-405.383C769.542,-397.06 684.206,-382.031 611.5,-367 610.237,-366.739 608.952,-366.468 607.655,-366.191"/>
<polygon fill="midnightblue" stroke="midnightblue" points="608.158,-362.718 597.638,-363.979 606.648,-369.553 608.158,-362.718"/>
</g>
<!-- Node3 -->
<g id="node3" class="node"><title>Node3</title>
<g id="a_node3"><a xlink:href="cssl__lib_8cpp.html" target="_top" xlink:title="Simple Serial library source file. ">
<polygon fill="white" stroke="black" points="761.5,-347.5 761.5,-366.5 829.5,-366.5 829.5,-347.5 761.5,-347.5"/>
<text text-anchor="middle" x="795.5" y="-354.5" font-family="Helvetica,sans-Serif" font-size="10.00">cssl_lib.cpp</text>
</a>
</g>
</g>
<!-- Node1&#45;&gt;Node3 -->
<g id="edge2" class="edge"><title>Node1&#45;&gt;Node3</title>
<path fill="none" stroke="midnightblue" d="M847.539,-403.324C838.373,-395.341 824.563,-383.313 813.472,-373.653"/>
<polygon fill="midnightblue" stroke="midnightblue" points="815.482,-370.762 805.643,-366.834 810.885,-376.041 815.482,-370.762"/>
</g>
<!-- Node17 -->
<g id="node17" class="node"><title>Node17</title>
<polygon fill="white" stroke="#bfbfbf" points="0,-56.5 0,-75.5 51,-75.5 51,-56.5 0,-56.5"/>
<text text-anchor="middle" x="25.5" y="-63.5" font-family="Helvetica,sans-Serif" font-size="10.00">unistd.h</text>
</g>
<!-- Node1&#45;&gt;Node17 -->
<g id="edge51" class="edge"><title>Node1&#45;&gt;Node17</title>
<path fill="none" stroke="midnightblue" d="M818.407,-409.905C752.288,-404.025 625.5,-381.65 625.5,-296.5 625.5,-296.5 625.5,-296.5 625.5,-177 625.5,-52.4435 205.529,-100.707 60.9833,-75.7361"/>
<polygon fill="midnightblue" stroke="midnightblue" points="61.5456,-72.28 51.0616,-73.8082 60.2104,-79.1515 61.5456,-72.28"/>
</g>
<!-- Node30 -->
<g id="node30" class="node"><title>Node30</title>
<polygon fill="white" stroke="#bfbfbf" points="1043.5,-286 1043.5,-305 1089.5,-305 1089.5,-286 1043.5,-286"/>
<text text-anchor="middle" x="1066.5" y="-293" font-family="Helvetica,sans-Serif" font-size="10.00">stdio.h</text>
</g>
<!-- Node1&#45;&gt;Node30 -->
<g id="edge50" class="edge"><title>Node1&#45;&gt;Node30</title>
<path fill="none" stroke="midnightblue" d="M857.572,-403.444C858.175,-389.521 861.468,-362.008 877.5,-347 928.182,-299.554 963.239,-331.717 1029.5,-311 1031.78,-310.288 1034.12,-309.503 1036.46,-308.679"/>
<polygon fill="midnightblue" stroke="midnightblue" points="1037.79,-311.918 1045.94,-305.15 1035.35,-305.357 1037.79,-311.918"/>
</g>
<!-- Node37 -->
<g id="node37" class="node"><title>Node37</title>
<polygon fill="white" stroke="#bfbfbf" points="886,-347.5 886,-366.5 945,-366.5 945,-347.5 886,-347.5"/>
<text text-anchor="middle" x="915.5" y="-354.5" font-family="Helvetica,sans-Serif" font-size="10.00">agentlib.h</text>
</g>
<!-- Node1&#45;&gt;Node37 -->
<g id="edge48" class="edge"><title>Node1&#45;&gt;Node37</title>
<path fill="none" stroke="midnightblue" d="M866.819,-403.324C875.393,-395.341 888.312,-383.313 898.688,-373.653"/>
<polygon fill="midnightblue" stroke="midnightblue" points="901.078,-376.21 906.012,-366.834 896.308,-371.086 901.078,-376.21"/>
</g>
<!-- Node38 -->
<g id="node38" class="node"><title>Node38</title>
<polygon fill="white" stroke="#bfbfbf" points="963.5,-347.5 963.5,-366.5 1011.5,-366.5 1011.5,-347.5 963.5,-347.5"/>
<text text-anchor="middle" x="987.5" y="-354.5" font-family="Helvetica,sans-Serif" font-size="10.00">satlib.h</text>
</g>
<!-- Node1&#45;&gt;Node38 -->
<g id="edge49" class="edge"><title>Node1&#45;&gt;Node38</title>
<path fill="none" stroke="midnightblue" d="M878.099,-403.444C899.493,-394.557 933.181,-380.563 957.524,-370.451"/>
<polygon fill="midnightblue" stroke="midnightblue" points="959.105,-373.585 966.997,-366.516 956.42,-367.12 959.105,-373.585"/>
</g>
<!-- Node39 -->
<g id="node39" class="node"><title>Node39</title>
<polygon fill="white" stroke="#bfbfbf" points="1030,-347.5 1030,-366.5 1079,-366.5 1079,-347.5 1030,-347.5"/>
<text text-anchor="middle" x="1054.5" y="-354.5" font-family="Helvetica,sans-Serif" font-size="10.00">string.h</text>
</g>
<!-- Node1&#45;&gt;Node39 -->
<g id="edge52" class="edge"><title>Node1&#45;&gt;Node39</title>
<path fill="none" stroke="midnightblue" d="M888.715,-403.444C924.516,-393.63 983.031,-377.591 1020.11,-367.426"/>
<polygon fill="midnightblue" stroke="midnightblue" points="1021.25,-370.744 1029.97,-364.725 1019.4,-363.993 1021.25,-370.744"/>
</g>
<!-- Node4 -->
<g id="node4" class="node"><title>Node4</title>
<g id="a_node4"><a xlink:href="config_cosmos_8h.html" target="_top" xlink:title="Headers and definitions common to all COSMOS. ">
<polygon fill="white" stroke="black" points="714,-112.5 714,-131.5 837,-131.5 837,-112.5 714,-112.5"/>
<text text-anchor="middle" x="775.5" y="-119.5" font-family="Helvetica,sans-Serif" font-size="10.00">support/configCosmos.h</text>
</a>
</g>
</g>
<!-- Node3&#45;&gt;Node4 -->
<g id="edge3" class="edge"><title>Node3&#45;&gt;Node4</title>
<path fill="none" stroke="midnightblue" d="M768.218,-347.453C751.206,-340.548 730.675,-328.971 720.5,-311 687.739,-253.138 737.107,-173.992 762.259,-139.829"/>
<polygon fill="midnightblue" stroke="midnightblue" points="765.096,-141.88 768.345,-131.795 759.517,-137.652 765.096,-141.88"/>
</g>
<!-- Node13 -->
<g id="node13" class="node"><title>Node13</title>
<polygon fill="white" stroke="#bfbfbf" points="1405.5,-56.5 1405.5,-75.5 1451.5,-75.5 1451.5,-56.5 1405.5,-56.5"/>
<text text-anchor="middle" x="1428.5" y="-63.5" font-family="Helvetica,sans-Serif" font-size="10.00">cstring</text>
</g>
<!-- Node3&#45;&gt;Node13 -->
<g id="edge36" class="edge"><title>Node3&#45;&gt;Node13</title>
<path fill="none" stroke="midnightblue" d="M829.888,-351.624C877.843,-344.898 961.515,-330.701 984.5,-311 1012.2,-287.259 1015.5,-271.48 1015.5,-235 1015.5,-235 1015.5,-235 1015.5,-177 1015.5,-5.06829 1219.71,-117.797 1395.5,-76.0658"/>
<polygon fill="midnightblue" stroke="midnightblue" points="1396.62,-79.3939 1405.44,-73.5304 1394.88,-72.6112 1396.62,-79.3939"/>
</g>
<!-- Node18 -->
<g id="node18" class="node"><title>Node18</title>
<polygon fill="white" stroke="#bfbfbf" points="69.5,-56.5 69.5,-75.5 113.5,-75.5 113.5,-56.5 69.5,-56.5"/>
<text text-anchor="middle" x="91.5" y="-63.5" font-family="Helvetica,sans-Serif" font-size="10.00">fcntl.h</text>
</g>
<!-- Node3&#45;&gt;Node18 -->
<g id="edge38" class="edge"><title>Node3&#45;&gt;Node18</title>
<path fill="none" stroke="midnightblue" d="M769.998,-347.465C751.025,-340.123 725.421,-328.011 707.5,-311 679.192,-284.13 663.5,-274.03 663.5,-235 663.5,-235 663.5,-235 663.5,-177 663.5,-146.205 664.14,-130.472 639.5,-112 595.361,-78.9093 213.334,-85.4363 123.757,-75.4743"/>
<polygon fill="midnightblue" stroke="midnightblue" points="124.106,-71.9891 113.717,-74.0646 123.133,-78.9211 124.106,-71.9891"/>
</g>
<!-- Node3&#45;&gt;Node30 -->
<g id="edge35" class="edge"><title>Node3&#45;&gt;Node30</title>
<path fill="none" stroke="midnightblue" d="M829.785,-349.578C892.445,-337.818 1019.94,-313.768 1029.5,-311 1032.08,-310.252 1034.74,-309.397 1037.38,-308.483"/>
<polygon fill="midnightblue" stroke="midnightblue" points="1038.6,-311.763 1046.76,-305.008 1036.17,-305.199 1038.6,-311.763"/>
</g>
<!-- Node31 -->
<g id="node31" class="node"><title>Node31</title>
<polygon fill="white" stroke="#bfbfbf" points="729.5,-286 729.5,-305 789.5,-305 789.5,-286 729.5,-286"/>
<text text-anchor="middle" x="759.5" y="-293" font-family="Helvetica,sans-Serif" font-size="10.00">sys/stat.h</text>
</g>
<!-- Node3&#45;&gt;Node31 -->
<g id="edge37" class="edge"><title>Node3&#45;&gt;Node31</title>
<path fill="none" stroke="midnightblue" d="M790.342,-347.475C785.049,-338.727 776.665,-324.869 769.973,-313.809"/>
<polygon fill="midnightblue" stroke="midnightblue" points="772.82,-311.753 764.648,-305.009 766.83,-315.377 772.82,-311.753"/>
</g>
<!-- Node32 -->
<g id="node32" class="node"><title>Node32</title>
<polygon fill="white" stroke="#bfbfbf" points="807.5,-286 807.5,-305 855.5,-305 855.5,-286 807.5,-286"/>
<text text-anchor="middle" x="831.5" y="-293" font-family="Helvetica,sans-Serif" font-size="10.00">stdlib.h</text>
</g>
<!-- Node3&#45;&gt;Node32 -->
<g id="edge39" class="edge"><title>Node3&#45;&gt;Node32</title>
<path fill="none" stroke="midnightblue" d="M800.658,-347.475C805.951,-338.727 814.335,-324.869 821.027,-313.809"/>
<polygon fill="midnightblue" stroke="midnightblue" points="824.17,-315.377 826.352,-305.009 818.18,-311.753 824.17,-315.377"/>
</g>
<!-- Node33 -->
<g id="node33" class="node"><title>Node33</title>
<g id="a_node33"><a xlink:href="cssl__lib_8h.html" target="_top" xlink:title="Simple Serial library header file. ">
<polygon fill="white" stroke="black" points="874,-280.5 874,-310.5 975,-310.5 975,-280.5 874,-280.5"/>
<text text-anchor="start" x="882" y="-298.5" font-family="Helvetica,sans-Serif" font-size="10.00">device/general/cssl</text>
<text text-anchor="middle" x="924.5" y="-287.5" font-family="Helvetica,sans-Serif" font-size="10.00">_lib.h</text>
</a>
</g>
</g>
<!-- Node3&#45;&gt;Node33 -->
<g id="edge40" class="edge"><title>Node3&#45;&gt;Node33</title>
<path fill="none" stroke="midnightblue" d="M813.983,-347.475C832.434,-338.965 861.367,-325.619 885.002,-314.718"/>
<polygon fill="midnightblue" stroke="midnightblue" points="886.483,-317.89 894.097,-310.523 883.551,-311.533 886.483,-317.89"/>
</g>
<!-- Node5 -->
<g id="node5" class="node"><title>Node5</title>
<polygon fill="white" stroke="#bfbfbf" points="1342,-56.5 1342,-75.5 1387,-75.5 1387,-56.5 1342,-56.5"/>
<text text-anchor="middle" x="1364.5" y="-63.5" font-family="Helvetica,sans-Serif" font-size="10.00">climits</text>
</g>
<!-- Node4&#45;&gt;Node5 -->
<g id="edge4" class="edge"><title>Node4&#45;&gt;Node5</title>
<path fill="none" stroke="midnightblue" d="M837.266,-113.996C844.09,-113.289 850.94,-112.608 857.5,-112 1065.02,-92.7535 1122.24,-112.214 1331.81,-75.7344"/>
<polygon fill="midnightblue" stroke="midnightblue" points="1332.66,-79.1377 1341.9,-73.9546 1331.45,-72.244 1332.66,-79.1377"/>
</g>
<!-- Node6 -->
<g id="node6" class="node"><title>Node6</title>
<polygon fill="white" stroke="#bfbfbf" points="132,-56.5 132,-75.5 179,-75.5 179,-56.5 132,-56.5"/>
<text text-anchor="middle" x="155.5" y="-63.5" font-family="Helvetica,sans-Serif" font-size="10.00">csignal</text>
</g>
<!-- Node4&#45;&gt;Node6 -->
<g id="edge5" class="edge"><title>Node4&#45;&gt;Node6</title>
<path fill="none" stroke="midnightblue" d="M713.827,-115.165C701.784,-114.074 689.249,-112.972 677.5,-112 463.608,-94.3065 405.048,-112.28 189.234,-75.7649"/>
<polygon fill="midnightblue" stroke="midnightblue" points="189.618,-72.2798 179.17,-74.0424 188.437,-79.1794 189.618,-72.2798"/>
</g>
<!-- Node7 -->
<g id="node7" class="node"><title>Node7</title>
<polygon fill="white" stroke="#bfbfbf" points="197.5,-56.5 197.5,-75.5 243.5,-75.5 243.5,-56.5 197.5,-56.5"/>
<text text-anchor="middle" x="220.5" y="-63.5" font-family="Helvetica,sans-Serif" font-size="10.00">cstdint</text>
</g>
<!-- Node4&#45;&gt;Node7 -->
<g id="edge6" class="edge"><title>Node4&#45;&gt;Node7</title>
<path fill="none" stroke="midnightblue" d="M713.819,-115.268C701.776,-114.168 689.243,-113.037 677.5,-112 491.896,-95.6167 440.763,-109.328 253.682,-75.8915"/>
<polygon fill="midnightblue" stroke="midnightblue" points="254.263,-72.4398 243.799,-74.1043 253.017,-79.328 254.263,-72.4398"/>
</g>
<!-- Node8 -->
<g id="node8" class="node"><title>Node8</title>
<polygon fill="white" stroke="#bfbfbf" points="261.5,-56.5 261.5,-75.5 317.5,-75.5 317.5,-56.5 261.5,-56.5"/>
<text text-anchor="middle" x="289.5" y="-63.5" font-family="Helvetica,sans-Serif" font-size="10.00">cinttypes</text>
</g>
<!-- Node4&#45;&gt;Node8 -->
<g id="edge7" class="edge"><title>Node4&#45;&gt;Node8</title>
<path fill="none" stroke="midnightblue" d="M713.632,-115.281C606.119,-105.276 390.917,-84.9314 327.677,-75.8461"/>
<polygon fill="midnightblue" stroke="midnightblue" points="328.118,-72.3726 317.698,-74.2857 327.037,-79.2886 328.118,-72.3726"/>
</g>
<!-- Node9 -->
<g id="node9" class="node"><title>Node9</title>
<polygon fill="white" stroke="#bfbfbf" points="336,-56.5 336,-75.5 379,-75.5 379,-56.5 336,-56.5"/>
<text text-anchor="middle" x="357.5" y="-63.5" font-family="Helvetica,sans-Serif" font-size="10.00">cstdio</text>
</g>
<!-- Node4&#45;&gt;Node9 -->
<g id="edge8" class="edge"><title>Node4&#45;&gt;Node9</title>
<path fill="none" stroke="midnightblue" d="M713.668,-115.168C624.614,-106.551 463.577,-90.1021 388.954,-75.9318"/>
<polygon fill="midnightblue" stroke="midnightblue" points="389.506,-72.473 379.014,-73.9484 388.136,-79.3376 389.506,-72.473"/>
</g>
<!-- Node10 -->
<g id="node10" class="node"><title>Node10</title>
<polygon fill="white" stroke="#bfbfbf" points="397,-56.5 397,-75.5 446,-75.5 446,-56.5 397,-56.5"/>
<text text-anchor="middle" x="421.5" y="-63.5" font-family="Helvetica,sans-Serif" font-size="10.00">cstddef</text>
</g>
<!-- Node4&#45;&gt;Node10 -->
<g id="edge9" class="edge"><title>Node4&#45;&gt;Node10</title>
<path fill="none" stroke="midnightblue" d="M713.864,-114.713C651.165,-107.788 551.066,-95.2792 456.322,-76.1752"/>
<polygon fill="midnightblue" stroke="midnightblue" points="456.783,-72.6973 446.285,-74.1222 455.381,-79.5553 456.783,-72.6973"/>
</g>
<!-- Node11 -->
<g id="node11" class="node"><title>Node11</title>
<polygon fill="white" stroke="#bfbfbf" points="464,-56.5 464,-75.5 509,-75.5 509,-56.5 464,-56.5"/>
<text text-anchor="middle" x="486.5" y="-63.5" font-family="Helvetica,sans-Serif" font-size="10.00">cstdlib</text>
</g>
<!-- Node4&#45;&gt;Node11 -->
<g id="edge10" class="edge"><title>Node4&#45;&gt;Node11</title>
<path fill="none" stroke="midnightblue" d="M716.986,-112.476C666.924,-104.793 592.783,-92.4919 519.076,-75.9322"/>
<polygon fill="midnightblue" stroke="midnightblue" points="519.68,-72.4803 509.153,-73.676 518.128,-79.3061 519.68,-72.4803"/>
</g>
<!-- Node12 -->
<g id="node12" class="node"><title>Node12</title>
<polygon fill="white" stroke="#bfbfbf" points="527.5,-56.5 527.5,-75.5 571.5,-75.5 571.5,-56.5 527.5,-56.5"/>
<text text-anchor="middle" x="549.5" y="-63.5" font-family="Helvetica,sans-Serif" font-size="10.00">cerrno</text>
</g>
<!-- Node4&#45;&gt;Node12 -->
<g id="edge11" class="edge"><title>Node4&#45;&gt;Node12</title>
<path fill="none" stroke="midnightblue" d="M735.38,-112.427C697.929,-104.272 640.275,-91.3296 581.613,-76.1872"/>
<polygon fill="midnightblue" stroke="midnightblue" points="582.369,-72.7674 571.81,-73.6382 580.607,-79.5421 582.369,-72.7674"/>
</g>
<!-- Node4&#45;&gt;Node13 -->
<g id="edge12" class="edge"><title>Node4&#45;&gt;Node13</title>
<path fill="none" stroke="midnightblue" d="M837.261,-113.936C844.086,-113.241 850.938,-112.579 857.5,-112 1093.39,-91.1867 1158.13,-116.023 1395.25,-75.8613"/>
<polygon fill="midnightblue" stroke="midnightblue" points="1395.94,-79.2931 1405.21,-74.1534 1394.76,-72.3938 1395.94,-79.2931"/>
</g>
<!-- Node14 -->
<g id="node14" class="node"><title>Node14</title>
<polygon fill="white" stroke="#bfbfbf" points="589.5,-56.5 589.5,-75.5 633.5,-75.5 633.5,-56.5 589.5,-56.5"/>
<text text-anchor="middle" x="611.5" y="-63.5" font-family="Helvetica,sans-Serif" font-size="10.00">cmath</text>
</g>
<!-- Node4&#45;&gt;Node14 -->
<g id="edge13" class="edge"><title>Node4&#45;&gt;Node14</title>
<path fill="none" stroke="midnightblue" d="M749.514,-112.444C720.788,-102.985 674.495,-87.7421 643.544,-77.551"/>
<polygon fill="midnightblue" stroke="midnightblue" points="644.276,-74.1073 633.683,-74.3042 642.087,-80.7562 644.276,-74.1073"/>
</g>
<!-- Node15 -->
<g id="node15" class="node"><title>Node15</title>
<polygon fill="white" stroke="#bfbfbf" points="652,-56.5 652,-75.5 697,-75.5 697,-56.5 652,-56.5"/>
<text text-anchor="middle" x="674.5" y="-63.5" font-family="Helvetica,sans-Serif" font-size="10.00">iosfwd</text>
</g>
<!-- Node4&#45;&gt;Node15 -->
<g id="edge14" class="edge"><title>Node4&#45;&gt;Node15</title>
<path fill="none" stroke="midnightblue" d="M759.273,-112.324C743.149,-103.703 718.2,-90.3643 699.536,-80.3855"/>
<polygon fill="midnightblue" stroke="midnightblue" points="701.156,-77.283 690.687,-75.6545 697.856,-83.456 701.156,-77.283"/>
</g>
<!-- Node16 -->
<g id="node16" class="node"><title>Node16</title>
<polygon fill="white" stroke="#bfbfbf" points="715.5,-56.5 715.5,-75.5 769.5,-75.5 769.5,-56.5 715.5,-56.5"/>
<text text-anchor="middle" x="742.5" y="-63.5" font-family="Helvetica,sans-Serif" font-size="10.00">iostream</text>
</g>
<!-- Node4&#45;&gt;Node16 -->
<g id="edge15" class="edge"><title>Node4&#45;&gt;Node16</title>
<path fill="none" stroke="midnightblue" d="M770.051,-112.083C765.486,-104.613 758.832,-93.7244 753.207,-84.5199"/>
<polygon fill="midnightblue" stroke="midnightblue" points="756.049,-82.4588 747.848,-75.7511 750.076,-86.109 756.049,-82.4588"/>
</g>
<!-- Node4&#45;&gt;Node17 -->
<g id="edge16" class="edge"><title>Node4&#45;&gt;Node17</title>
<path fill="none" stroke="midnightblue" d="M713.895,-116.871C690.589,-115.323 663.823,-113.561 639.5,-112 385.466,-95.6971 316.896,-115.764 61.3311,-75.8088"/>
<polygon fill="midnightblue" stroke="midnightblue" points="61.8025,-72.3399 51.379,-74.2375 60.7108,-79.2543 61.8025,-72.3399"/>
</g>
<!-- Node4&#45;&gt;Node18 -->
<g id="edge17" class="edge"><title>Node4&#45;&gt;Node18</title>
<path fill="none" stroke="midnightblue" d="M713.834,-115.083C701.79,-113.999 689.253,-112.921 677.5,-112 434.319,-92.95 367.715,-118.034 123.594,-75.8063"/>
<polygon fill="midnightblue" stroke="midnightblue" points="124.168,-72.3536 113.714,-74.0776 122.961,-79.2488 124.168,-72.3536"/>
</g>
<!-- Node19 -->
<g id="node19" class="node"><title>Node19</title>
<polygon fill="white" stroke="#bfbfbf" points="788,-56.5 788,-75.5 829,-75.5 829,-56.5 788,-56.5"/>
<text text-anchor="middle" x="808.5" y="-63.5" font-family="Helvetica,sans-Serif" font-size="10.00">string</text>
</g>
<!-- Node4&#45;&gt;Node19 -->
<g id="edge18" class="edge"><title>Node4&#45;&gt;Node19</title>
<path fill="none" stroke="midnightblue" d="M780.949,-112.083C785.514,-104.613 792.168,-93.7244 797.793,-84.5199"/>
<polygon fill="midnightblue" stroke="midnightblue" points="800.924,-86.109 803.152,-75.7511 794.951,-82.4588 800.924,-86.109"/>
</g>
<!-- Node20 -->
<g id="node20" class="node"><title>Node20</title>
<polygon fill="white" stroke="#bfbfbf" points="811.5,-0.5 811.5,-19.5 855.5,-19.5 855.5,-0.5 811.5,-0.5"/>
<text text-anchor="middle" x="833.5" y="-7.5" font-family="Helvetica,sans-Serif" font-size="10.00">vector</text>
</g>
<!-- Node4&#45;&gt;Node20 -->
<g id="edge19" class="edge"><title>Node4&#45;&gt;Node20</title>
<path fill="none" stroke="midnightblue" d="M796.347,-112.427C811.078,-105.129 829.705,-93.0905 838.5,-76 845.937,-61.5477 843.457,-42.8551 839.846,-29.2277"/>
<polygon fill="midnightblue" stroke="midnightblue" points="843.158,-28.0927 836.875,-19.5625 836.467,-30.1495 843.158,-28.0927"/>
</g>
<!-- Node21 -->
<g id="node21" class="node"><title>Node21</title>
<polygon fill="white" stroke="#bfbfbf" points="1210,-56.5 1210,-75.5 1253,-75.5 1253,-56.5 1210,-56.5"/>
<text text-anchor="middle" x="1231.5" y="-63.5" font-family="Helvetica,sans-Serif" font-size="10.00">deque</text>
</g>
<!-- Node4&#45;&gt;Node21 -->
<g id="edge20" class="edge"><title>Node4&#45;&gt;Node21</title>
<path fill="none" stroke="midnightblue" d="M837.286,-114.197C844.107,-113.453 850.95,-112.708 857.5,-112 1007.7,-95.7589 1046.75,-102.384 1195.5,-76 1196.97,-75.7398 1198.46,-75.4532 1199.97,-75.1471"/>
<polygon fill="midnightblue" stroke="midnightblue" points="1200.91,-78.5225 1209.9,-72.9163 1199.38,-71.6927 1200.91,-78.5225"/>
</g>
<!-- Node22 -->
<g id="node22" class="node"><title>Node22</title>
<polygon fill="white" stroke="#bfbfbf" points="873.5,-0.5 873.5,-19.5 917.5,-19.5 917.5,-0.5 873.5,-0.5"/>
<text text-anchor="middle" x="895.5" y="-7.5" font-family="Helvetica,sans-Serif" font-size="10.00">mutex</text>
</g>
<!-- Node4&#45;&gt;Node22 -->
<g id="edge21" class="edge"><title>Node4&#45;&gt;Node22</title>
<path fill="none" stroke="midnightblue" d="M796.802,-112.35C813.849,-104.661 837.614,-92.1431 854.5,-76 868.779,-62.3488 880.256,-42.7453 887.396,-28.6412"/>
<polygon fill="midnightblue" stroke="midnightblue" points="890.61,-30.034 891.806,-19.5069 884.306,-26.9904 890.61,-30.034"/>
</g>
<!-- Node23 -->
<g id="node23" class="node"><title>Node23</title>
<polygon fill="white" stroke="#bfbfbf" points="935.5,-0.5 935.5,-19.5 979.5,-19.5 979.5,-0.5 935.5,-0.5"/>
<text text-anchor="middle" x="957.5" y="-7.5" font-family="Helvetica,sans-Serif" font-size="10.00">thread</text>
</g>
<!-- Node4&#45;&gt;Node23 -->
<g id="edge22" class="edge"><title>Node4&#45;&gt;Node23</title>
<path fill="none" stroke="midnightblue" d="M799.216,-112.435C820.246,-104.38 851.426,-91.2938 876.5,-76 900.138,-61.5823 924.563,-41.073 940.326,-26.9681"/>
<polygon fill="midnightblue" stroke="midnightblue" points="943.087,-29.1875 948.131,-19.8703 938.378,-24.0085 943.087,-29.1875"/>
</g>
<!-- Node24 -->
<g id="node24" class="node"><title>Node24</title>
<polygon fill="white" stroke="#bfbfbf" points="1044,-0.5 1044,-19.5 1139,-19.5 1139,-0.5 1044,-0.5"/>
<text text-anchor="middle" x="1091.5" y="-7.5" font-family="Helvetica,sans-Serif" font-size="10.00">condition_variable</text>
</g>
<!-- Node4&#45;&gt;Node24 -->
<g id="edge23" class="edge"><title>Node4&#45;&gt;Node24</title>
<path fill="none" stroke="midnightblue" d="M837.038,-114.082C925.252,-103.881 1078.05,-85.0399 1086.5,-76 1097.84,-63.8795 1097.83,-44.32 1095.75,-29.8191"/>
<polygon fill="midnightblue" stroke="midnightblue" points="1099.18,-29.1161 1093.91,-19.9232 1092.3,-30.3942 1099.18,-29.1161"/>
</g>
<!-- Node25 -->
<g id="node25" class="node"><title>Node25</title>
<polygon fill="white" stroke="#bfbfbf" points="1157,-0.5 1157,-19.5 1200,-19.5 1200,-0.5 1157,-0.5"/>
<text text-anchor="middle" x="1178.5" y="-7.5" font-family="Helvetica,sans-Serif" font-size="10.00">queue</text>
</g>
<!-- Node4&#45;&gt;Node25 -->
<g id="edge24" class="edge"><title>Node4&#45;&gt;Node25</title>
<path fill="none" stroke="midnightblue" d="M837.197,-113.492C929.093,-102.175 1092.49,-81.485 1104.5,-76 1128.91,-64.8536 1151.2,-42.9455 1164.8,-27.6594"/>
<polygon fill="midnightblue" stroke="midnightblue" points="1167.55,-29.8243 1171.42,-19.9588 1162.24,-25.2621 1167.55,-29.8243"/>
</g>
<!-- Node26 -->
<g id="node26" class="node"><title>Node26</title>
<polygon fill="white" stroke="#bfbfbf" points="1271.5,-56.5 1271.5,-75.5 1323.5,-75.5 1323.5,-56.5 1271.5,-56.5"/>
<text text-anchor="middle" x="1297.5" y="-63.5" font-family="Helvetica,sans-Serif" font-size="10.00">sstream</text>
</g>
<!-- Node4&#45;&gt;Node26 -->
<g id="edge25" class="edge"><title>Node4&#45;&gt;Node26</title>
<path fill="none" stroke="midnightblue" d="M837.275,-114.082C844.097,-113.359 850.944,-112.651 857.5,-112 1034.08,-94.4639 1082.66,-106.163 1261.24,-75.9563"/>
<polygon fill="midnightblue" stroke="midnightblue" points="1261.96,-79.3833 1271.23,-74.246 1260.78,-72.4836 1261.96,-79.3833"/>
</g>
<!-- Node27 -->
<g id="node27" class="node"><title>Node27</title>
<polygon fill="white" stroke="#bfbfbf" points="1218,-0.5 1218,-19.5 1253,-19.5 1253,-0.5 1218,-0.5"/>
<text text-anchor="middle" x="1235.5" y="-7.5" font-family="Helvetica,sans-Serif" font-size="10.00">map</text>
</g>
<!-- Node4&#45;&gt;Node27 -->
<g id="edge26" class="edge"><title>Node4&#45;&gt;Node27</title>
<path fill="none" stroke="midnightblue" d="M837.119,-113.937C935.584,-102.551 1118.79,-80.9139 1132.5,-76 1164.78,-64.4302 1197.49,-41.4361 1217.14,-26.1338"/>
<polygon fill="midnightblue" stroke="midnightblue" points="1219.56,-28.682 1225.2,-19.713 1215.2,-23.2073 1219.56,-28.682"/>
</g>
<!-- Node28 -->
<g id="node28" class="node"><title>Node28</title>
<g id="a_node28"><a xlink:href="cosmos-defs_8h.html" target="_top" xlink:title="COSMOS definitions Definitions specific to the COSMOS environement. ">
<polygon fill="white" stroke="black" points="961.5,-56.5 961.5,-75.5 1077.5,-75.5 1077.5,-56.5 961.5,-56.5"/>
<text text-anchor="middle" x="1019.5" y="-63.5" font-family="Helvetica,sans-Serif" font-size="10.00">support/cosmos&#45;defs.h</text>
</a>
</g>
</g>
<!-- Node4&#45;&gt;Node28 -->
<g id="edge27" class="edge"><title>Node4&#45;&gt;Node28</title>
<path fill="none" stroke="midnightblue" d="M814.163,-112.444C856.638,-103.043 924.931,-87.9291 970.974,-77.7393"/>
<polygon fill="midnightblue" stroke="midnightblue" points="972.011,-81.0946 981.018,-75.5164 970.498,-74.26 972.011,-81.0946"/>
</g>
<!-- Node28&#45;&gt;Node20 -->
<g id="edge29" class="edge"><title>Node28&#45;&gt;Node20</title>
<path fill="none" stroke="midnightblue" d="M990.028,-56.4435C955.998,-46.5639 900.231,-30.3734 865.26,-20.2208"/>
<polygon fill="midnightblue" stroke="midnightblue" points="866.133,-16.8296 855.553,-17.4026 864.181,-23.552 866.133,-16.8296"/>
</g>
<!-- Node28&#45;&gt;Node22 -->
<g id="edge33" class="edge"><title>Node28&#45;&gt;Node22</title>
<path fill="none" stroke="midnightblue" d="M999.852,-56.4435C979.535,-47.5961 947.597,-33.6875 924.402,-23.5865"/>
<polygon fill="midnightblue" stroke="midnightblue" points="925.622,-20.3002 915.056,-19.5164 922.827,-26.7181 925.622,-20.3002"/>
</g>
<!-- Node28&#45;&gt;Node23 -->
<g id="edge32" class="edge"><title>Node28&#45;&gt;Node23</title>
<path fill="none" stroke="midnightblue" d="M1009.54,-56.324C1000.37,-48.3414 986.563,-36.3128 975.472,-26.6529"/>
<polygon fill="midnightblue" stroke="midnightblue" points="977.482,-23.7624 967.643,-19.8339 972.885,-29.041 977.482,-23.7624"/>
</g>
<!-- Node28&#45;&gt;Node24 -->
<g id="edge34" class="edge"><title>Node28&#45;&gt;Node24</title>
<path fill="none" stroke="midnightblue" d="M1031.07,-56.324C1041.92,-48.1849 1058.38,-35.8395 1071.38,-26.0874"/>
<polygon fill="midnightblue" stroke="midnightblue" points="1073.82,-28.6339 1079.72,-19.8339 1069.62,-23.0339 1073.82,-28.6339"/>
</g>
<!-- Node28&#45;&gt;Node25 -->
<g id="edge31" class="edge"><title>Node28&#45;&gt;Node25</title>
<path fill="none" stroke="midnightblue" d="M1044.69,-56.4435C1072.54,-46.985 1117.43,-31.7421 1147.43,-21.551"/>
<polygon fill="midnightblue" stroke="midnightblue" points="1148.65,-24.8342 1156.99,-18.3042 1146.4,-18.206 1148.65,-24.8342"/>
</g>
<!-- Node28&#45;&gt;Node27 -->
<g id="edge28" class="edge"><title>Node28&#45;&gt;Node27</title>
<path fill="none" stroke="midnightblue" d="M1060.95,-56.4426C1097.54,-48.6094 1152.47,-36.1691 1208.27,-20.1564"/>
<polygon fill="midnightblue" stroke="midnightblue" points="1209.33,-23.4924 1217.95,-17.3417 1207.38,-16.7703 1209.33,-23.4924"/>
</g>
<!-- Node29 -->
<g id="node29" class="node"><title>Node29</title>
<polygon fill="white" stroke="#bfbfbf" points="997,-0.5 997,-19.5 1026,-19.5 1026,-0.5 997,-0.5"/>
<text text-anchor="middle" x="1011.5" y="-7.5" font-family="Helvetica,sans-Serif" font-size="10.00">list</text>
</g>
<!-- Node28&#45;&gt;Node29 -->
<g id="edge30" class="edge"><title>Node28&#45;&gt;Node29</title>
<path fill="none" stroke="midnightblue" d="M1018.18,-56.083C1017.12,-48.9272 1015.59,-38.6353 1014.27,-29.6911"/>
<polygon fill="midnightblue" stroke="midnightblue" points="1017.72,-29.1302 1012.8,-19.7511 1010.8,-30.1561 1017.72,-29.1302"/>
</g>
<!-- Node33&#45;&gt;Node4 -->
<g id="edge41" class="edge"><title>Node33&#45;&gt;Node4</title>
<path fill="none" stroke="midnightblue" d="M901.346,-280.427C873.418,-262.33 826.824,-228.375 799.5,-188 789.818,-173.693 783.446,-154.983 779.717,-141.312"/>
<polygon fill="midnightblue" stroke="midnightblue" points="783.111,-140.455 777.281,-131.609 776.322,-142.16 783.111,-140.455"/>
</g>
<!-- Node34 -->
<g id="node34" class="node"><title>Node34</title>
<g id="a_node34"><a xlink:href="sliplib_8h.html" target="_top" xlink:title="COSMOS SLIP support include file. ">
<polygon fill="white" stroke="black" points="870,-224.5 870,-243.5 955,-243.5 955,-224.5 870,-224.5"/>
<text text-anchor="middle" x="912.5" y="-231.5" font-family="Helvetica,sans-Serif" font-size="10.00">support/sliplib.h</text>
</a>
</g>
</g>
<!-- Node33&#45;&gt;Node34 -->
<g id="edge42" class="edge"><title>Node33&#45;&gt;Node34</title>
<path fill="none" stroke="midnightblue" d="M921.656,-280.399C920.038,-272.377 917.992,-262.233 916.245,-253.569"/>
<polygon fill="midnightblue" stroke="midnightblue" points="919.654,-252.768 914.246,-243.658 912.792,-254.152 919.654,-252.768"/>
</g>
<!-- Node34&#45;&gt;Node4 -->
<g id="edge43" class="edge"><title>Node34&#45;&gt;Node4</title>
<path fill="none" stroke="midnightblue" d="M887.37,-224.474C867.91,-217.002 841.063,-204.716 821.5,-188 805.787,-174.574 792.739,-154.661 784.601,-140.417"/>
<polygon fill="midnightblue" stroke="midnightblue" points="787.652,-138.702 779.78,-131.611 781.512,-142.064 787.652,-138.702"/>
</g>
<!-- Node34&#45;&gt;Node13 -->
<g id="edge47" class="edge"><title>Node34&#45;&gt;Node13</title>
<path fill="none" stroke="midnightblue" d="M922.831,-224.417C932.738,-215.854 947.738,-201.992 958.5,-188 982.161,-157.237 968.898,-133.054 1001.5,-112 1073.09,-65.7716 1294.44,-90.2354 1395.25,-75.7241"/>
<polygon fill="midnightblue" stroke="midnightblue" points="1395.9,-79.1643 1405.2,-74.0867 1394.76,-72.2573 1395.9,-79.1643"/>
</g>
<!-- Node35 -->
<g id="node35" class="node"><title>Node35</title>
<g id="a_node35"><a xlink:href="cosmos-errno_8h.html" target="_top" xlink:title="COSMOS Error Codes. ">
<polygon fill="white" stroke="black" points="830,-168.5 830,-187.5 949,-187.5 949,-168.5 830,-168.5"/>
<text text-anchor="middle" x="889.5" y="-175.5" font-family="Helvetica,sans-Serif" font-size="10.00">support/cosmos&#45;errno.h</text>
</a>
</g>
</g>
<!-- Node34&#45;&gt;Node35 -->
<g id="edge44" class="edge"><title>Node34&#45;&gt;Node35</title>
<path fill="none" stroke="midnightblue" d="M908.702,-224.083C905.587,-216.77 901.077,-206.181 897.211,-197.103"/>
<polygon fill="midnightblue" stroke="midnightblue" points="900.366,-195.58 893.227,-187.751 893.926,-198.323 900.366,-195.58"/>
</g>
<!-- Node35&#45;&gt;Node4 -->
<g id="edge45" class="edge"><title>Node35&#45;&gt;Node4</title>
<path fill="none" stroke="midnightblue" d="M871.436,-168.444C852.925,-159.675 823.919,-145.935 802.645,-135.858"/>
<polygon fill="midnightblue" stroke="midnightblue" points="804.015,-132.634 793.479,-131.516 801.018,-138.96 804.015,-132.634"/>
</g>
<!-- Node36 -->
<g id="node36" class="node"><title>Node36</title>
<polygon fill="white" stroke="#bfbfbf" points="866,-112.5 866,-131.5 913,-131.5 913,-112.5 866,-112.5"/>
<text text-anchor="middle" x="889.5" y="-119.5" font-family="Helvetica,sans-Serif" font-size="10.00">errno.h</text>
</g>
<!-- Node35&#45;&gt;Node36 -->
<g id="edge46" class="edge"><title>Node35&#45;&gt;Node36</title>
<path fill="none" stroke="midnightblue" d="M889.5,-168.083C889.5,-161.006 889.5,-150.861 889.5,-141.986"/>
<polygon fill="midnightblue" stroke="midnightblue" points="893,-141.751 889.5,-131.751 886,-141.751 893,-141.751"/>
</g>
</g>
</svg>
        <g id="navigator" transform="translate(0 0)" fill="#404254">
                <rect fill="#f2f5e9" fill-opacity="0.5" stroke="#606060" stroke-width=".5" x="0" y="0" width="60" height="60"/>
                <use id="zoomplus" xlink:href="#zoomPlus" x="17" y="9" onmousedown="handleZoom(evt,'in')"/>
                <use id="zoomminus" xlink:href="#zoomMin" x="42" y="9" onmousedown="handleZoom(evt,'out')"/>
                <use id="reset" xlink:href="#resetDef" x="30" y="36" onmousedown="handleReset()"/>
                <g id="arrowUp" xlink:href="#dirArrow" transform="translate(30 24)" onmousedown="handlePan(0,-1)">
                  <use xlink:href="#rim" fill="#404040">
                        <set attributeName="fill" to="#808080" begin="arrowUp.mouseover" end="arrowUp.mouseout"/>
                  </use>
                  <path fill="none" stroke="white" stroke-width="1.5" d="M0,-3.0v7 M-2.5,-0.5L0,-3.0L2.5,-0.5"/>
                </g>
                <g id="arrowRight" xlink:href="#dirArrow" transform="rotate(90) translate(36 -43)" onmousedown="handlePan(1,0)">
                  <use xlink:href="#rim" fill="#404040">
                        <set attributeName="fill" to="#808080" begin="arrowRight.mouseover" end="arrowRight.mouseout"/>
                  </use>
                  <path fill="none" stroke="white" stroke-width="1.5" d="M0,-3.0v7 M-2.5,-0.5L0,-3.0L2.5,-0.5"/>
                </g>
                <g id="arrowDown" xlink:href="#dirArrow" transform="rotate(180) translate(-30 -48)" onmousedown="handlePan(0,1)">
                  <use xlink:href="#rim" fill="#404040">
                        <set attributeName="fill" to="#808080" begin="arrowDown.mouseover" end="arrowDown.mouseout"/>
                  </use>
                  <path fill="none" stroke="white" stroke-width="1.5" d="M0,-3.0v7 M-2.5,-0.5L0,-3.0L2.5,-0.5"/>
                </g>
                <g id="arrowLeft" xlink:href="#dirArrow" transform="rotate(270) translate(-36 17)" onmousedown="handlePan(-1,0)">
                  <use xlink:href="#rim" fill="#404040">
                        <set attributeName="fill" to="#808080" begin="arrowLeft.mouseover" end="arrowLeft.mouseout"/>
                  </use>
                  <path fill="none" stroke="white" stroke-width="1.5" d="M0,-3.0v7 M-2.5,-0.5L0,-3.0L2.5,-0.5"/>
                </g>
        </g>
        <svg viewBox="0 0 15 15" width="100%" height="30px" preserveAspectRatio="xMaxYMin meet">
         <g id="arrow_out" transform="scale(0.3 0.3)">
          <a xlink:href="razor__imu_8cpp__incl_org.svg" target="_base">
           <rect id="button" ry="5" rx="5" y="6" x="6" height="38" width="38"
                fill="#f2f5e9" fill-opacity="0.5" stroke="#606060" stroke-width="1.0"/>
           <path id="arrow"
             d="M 11.500037,31.436501 C 11.940474,20.09759 22.043105,11.32322 32.158766,21.979434 L 37.068811,17.246167 C 37.068811,17.246167 37.088388,32 37.088388,32 L 22.160133,31.978069 C 22.160133,31.978069 26.997745,27.140456 26.997745,27.140456 C 18.528582,18.264221 13.291696,25.230495 11.500037,31.436501 z"
             style="fill:#404040;"/>
          </a>
         </g>
        </svg>
</svg>
