<?xml version="1.0" encoding="UTF-8" standalone="no"?>
<!DOCTYPE svg PUBLIC "-//W3C//DTD SVG 1.1//EN"
 "http://www.w3.org/Graphics/SVG/1.1/DTD/svg11.dtd">
<!-- Generated by graphviz version 2.38.0 (20140413.2041)
 -->
<!-- Title: rotation.cpp Pages: 1 -->
<!--zoomable 420 -->
<svg id="main" version="1.1" xmlns="http://www.w3.org/2000/svg" xmlns:xlink="http://www.w3.org/1999/xlink" xml:space="preserve" onload="init(evt)">
<style type="text/css"><![CDATA[
.edge:hover path { stroke: red; }
.edge:hover polygon { stroke: red; fill: red; }
]]></style>
<script type="text/javascript"><![CDATA[
var edges = document.getElementsByTagName('g');
if (edges && edges.length) {
  for (var i=0;i<edges.length;i++) {
    if (edges[i].id.substr(0,4)=='edge') {
      edges[i].setAttribute('class','edge');
    }
  }
}
]]></script>
        <defs>
                <circle id="rim" cx="0" cy="0" r="7"/>
                <circle id="rim2" cx="0" cy="0" r="3.5"/>
                <g id="zoomPlus">
                        <use xlink:href="#rim" fill="#404040">
                                <set attributeName="fill" to="#808080" begin="zoomplus.mouseover" end="zoomplus.mouseout"/>
                        </use>
                        <path d="M-4,0h8M0,-4v8" fill="none" stroke="white" stroke-width="1.5" pointer-events="none"/>
                </g>
                <g id="zoomMin">
                        <use xlink:href="#rim" fill="#404040">
                                <set attributeName="fill" to="#808080" begin="zoomminus.mouseover" end="zoomminus.mouseout"/>
                        </use>
                        <path d="M-4,0h8" fill="none" stroke="white" stroke-width="1.5" pointer-events="none"/>
                </g>
                <g id="dirArrow">
                        <path fill="none" stroke="white" stroke-width="1.5" d="M0,-3.0v7 M-2.5,-0.5L0,-3.0L2.5,-0.5"/>
                </g>
               <g id="resetDef">
                       <use xlink:href="#rim2" fill="#404040">
                               <set attributeName="fill" to="#808080" begin="reset.mouseover" end="reset.mouseout"/>
                       </use>
               </g>
        </defs>

<script type="text/javascript">
var viewWidth = 1481;
var viewHeight = 420;
var sectionId = 'dynsection-0';
</script>
<script xlink:href="svgpan.js"/>
<svg id="graph" class="graph">
<g id="viewport">
<title>rotation.cpp</title>
<polygon fill="white" stroke="none" points="-4,4 -4,-416 1477.43,-416 1477.43,4 -4,4"/>
<!-- Node1 -->
<g id="node1" class="node"><title>Node1</title>
<polygon fill="#bfbfbf" stroke="black" points="1052.5,-392.5 1052.5,-411.5 1120.5,-411.5 1120.5,-392.5 1052.5,-392.5"/>
<text text-anchor="middle" x="1086.5" y="-399.5" font-family="Helvetica,sans-Serif" font-size="10.00">rotation.cpp</text>
</g>
<!-- Node2 -->
<g id="node2" class="node"><title>Node2</title>
<g id="a_node2"><a xlink:href="rotation_8h.html" target="_top" xlink:title="rotation.h">
<polygon fill="white" stroke="black" points="1058,-336.5 1058,-355.5 1115,-355.5 1115,-336.5 1058,-336.5"/>
<text text-anchor="middle" x="1086.5" y="-343.5" font-family="Helvetica,sans-Serif" font-size="10.00">rotation.h</text>
</a>
</g>
</g>
<!-- Node1&#45;&gt;Node2 -->
<g id="edge1" class="edge"><title>Node1&#45;&gt;Node2</title>
<path fill="none" stroke="midnightblue" d="M1086.5,-392.083C1086.5,-385.006 1086.5,-374.861 1086.5,-365.986"/>
<polygon fill="midnightblue" stroke="midnightblue" points="1090,-365.751 1086.5,-355.751 1083,-365.751 1090,-365.751"/>
</g>
<!-- Node3 -->
<g id="node3" class="node"><title>Node3</title>
<g id="a_node3"><a xlink:href="config_cosmos_8h.html" target="_top" xlink:title="Headers and definitions common to all COSMOS. ">
<polygon fill="white" stroke="black" points="752,-112.5 752,-131.5 875,-131.5 875,-112.5 752,-112.5"/>
<text text-anchor="middle" x="813.5" y="-119.5" font-family="Helvetica,sans-Serif" font-size="10.00">support/configCosmos.h</text>
</a>
</g>
</g>
<!-- Node2&#45;&gt;Node3 -->
<g id="edge2" class="edge"><title>Node2&#45;&gt;Node3</title>
<path fill="none" stroke="midnightblue" d="M1075.8,-336.297C1034.43,-302.657 884.673,-180.877 831.989,-138.035"/>
<polygon fill="midnightblue" stroke="midnightblue" points="834.095,-135.236 824.128,-131.643 829.678,-140.667 834.095,-135.236"/>
</g>
<!-- Node29 -->
<g id="node29" class="node"><title>Node29</title>
<g id="a_node29"><a xlink:href="vector_8h.html" target="_top" xlink:title="vector.h">
<polygon fill="white" stroke="black" points="1199.5,-224.5 1199.5,-243.5 1251.5,-243.5 1251.5,-224.5 1199.5,-224.5"/>
<text text-anchor="middle" x="1225.5" y="-231.5" font-family="Helvetica,sans-Serif" font-size="10.00">vector.h</text>
</a>
</g>
</g>
<!-- Node2&#45;&gt;Node29 -->
<g id="edge34" class="edge"><title>Node2&#45;&gt;Node29</title>
<path fill="none" stroke="midnightblue" d="M1097.41,-336.368C1121.06,-317.653 1177.29,-273.151 1206.76,-249.832"/>
<polygon fill="midnightblue" stroke="midnightblue" points="1208.97,-252.542 1214.64,-243.591 1204.63,-247.052 1208.97,-252.542"/>
</g>
<!-- Node32 -->
<g id="node32" class="node"><title>Node32</title>
<g id="a_node32"><a xlink:href="matrix_8h.html" target="_top" xlink:title="matrix.h">
<polygon fill="white" stroke="black" points="1060.5,-280.5 1060.5,-299.5 1112.5,-299.5 1112.5,-280.5 1060.5,-280.5"/>
<text text-anchor="middle" x="1086.5" y="-287.5" font-family="Helvetica,sans-Serif" font-size="10.00">matrix.h</text>
</a>
</g>
</g>
<!-- Node2&#45;&gt;Node32 -->
<g id="edge43" class="edge"><title>Node2&#45;&gt;Node32</title>
<path fill="none" stroke="midnightblue" d="M1086.5,-336.083C1086.5,-329.006 1086.5,-318.861 1086.5,-309.986"/>
<polygon fill="midnightblue" stroke="midnightblue" points="1090,-309.751 1086.5,-299.751 1083,-309.751 1090,-309.751"/>
</g>
<!-- Node4 -->
<g id="node4" class="node"><title>Node4</title>
<polygon fill="white" stroke="#bfbfbf" points="648,-56.5 648,-75.5 693,-75.5 693,-56.5 648,-56.5"/>
<text text-anchor="middle" x="670.5" y="-63.5" font-family="Helvetica,sans-Serif" font-size="10.00">climits</text>
</g>
<!-- Node3&#45;&gt;Node4 -->
<g id="edge3" class="edge"><title>Node3&#45;&gt;Node4</title>
<path fill="none" stroke="midnightblue" d="M790.841,-112.444C767.098,-103.478 729.591,-89.314 702.762,-79.1827"/>
<polygon fill="midnightblue" stroke="midnightblue" points="703.644,-75.7749 693.053,-75.5164 701.171,-82.3235 703.644,-75.7749"/>
</g>
<!-- Node5 -->
<g id="node5" class="node"><title>Node5</title>
<polygon fill="white" stroke="#bfbfbf" points="711,-56.5 711,-75.5 758,-75.5 758,-56.5 711,-56.5"/>
<text text-anchor="middle" x="734.5" y="-63.5" font-family="Helvetica,sans-Serif" font-size="10.00">csignal</text>
</g>
<!-- Node3&#45;&gt;Node5 -->
<g id="edge4" class="edge"><title>Node3&#45;&gt;Node5</title>
<path fill="none" stroke="midnightblue" d="M800.807,-112.324C788.599,-103.979 769.922,-91.2122 755.497,-81.3524"/>
<polygon fill="midnightblue" stroke="midnightblue" points="757.392,-78.4082 747.161,-75.6545 753.442,-84.1871 757.392,-78.4082"/>
</g>
<!-- Node6 -->
<g id="node6" class="node"><title>Node6</title>
<polygon fill="white" stroke="#bfbfbf" points="1270.5,-56.5 1270.5,-75.5 1316.5,-75.5 1316.5,-56.5 1270.5,-56.5"/>
<text text-anchor="middle" x="1293.5" y="-63.5" font-family="Helvetica,sans-Serif" font-size="10.00">cstdint</text>
</g>
<!-- Node3&#45;&gt;Node6 -->
<g id="edge5" class="edge"><title>Node3&#45;&gt;Node6</title>
<path fill="none" stroke="midnightblue" d="M875.131,-117.423C961.041,-111.829 1121.45,-99.1714 1256.5,-76 1257.75,-75.7862 1259.01,-75.5541 1260.29,-75.3077"/>
<polygon fill="midnightblue" stroke="midnightblue" points="1261.07,-78.7202 1270.11,-73.2024 1259.6,-71.8756 1261.07,-78.7202"/>
</g>
<!-- Node7 -->
<g id="node7" class="node"><title>Node7</title>
<polygon fill="white" stroke="#bfbfbf" points="776.5,-56.5 776.5,-75.5 832.5,-75.5 832.5,-56.5 776.5,-56.5"/>
<text text-anchor="middle" x="804.5" y="-63.5" font-family="Helvetica,sans-Serif" font-size="10.00">cinttypes</text>
</g>
<!-- Node3&#45;&gt;Node7 -->
<g id="edge6" class="edge"><title>Node3&#45;&gt;Node7</title>
<path fill="none" stroke="midnightblue" d="M812.014,-112.083C810.821,-104.927 809.106,-94.6353 807.615,-85.6911"/>
<polygon fill="midnightblue" stroke="midnightblue" points="811.055,-85.0396 805.959,-75.7511 804.15,-86.1904 811.055,-85.0396"/>
</g>
<!-- Node8 -->
<g id="node8" class="node"><title>Node8</title>
<polygon fill="white" stroke="#bfbfbf" points="851,-56.5 851,-75.5 894,-75.5 894,-56.5 851,-56.5"/>
<text text-anchor="middle" x="872.5" y="-63.5" font-family="Helvetica,sans-Serif" font-size="10.00">cstdio</text>
</g>
<!-- Node3&#45;&gt;Node8 -->
<g id="edge7" class="edge"><title>Node3&#45;&gt;Node8</title>
<path fill="none" stroke="midnightblue" d="M822.979,-112.324C831.701,-104.341 844.843,-92.3128 855.398,-82.6529"/>
<polygon fill="midnightblue" stroke="midnightblue" points="857.834,-85.1674 862.848,-75.8339 853.108,-80.0036 857.834,-85.1674"/>
</g>
<!-- Node9 -->
<g id="node9" class="node"><title>Node9</title>
<polygon fill="white" stroke="#bfbfbf" points="912,-56.5 912,-75.5 961,-75.5 961,-56.5 912,-56.5"/>
<text text-anchor="middle" x="936.5" y="-63.5" font-family="Helvetica,sans-Serif" font-size="10.00">cstddef</text>
</g>
<!-- Node3&#45;&gt;Node9 -->
<g id="edge8" class="edge"><title>Node3&#45;&gt;Node9</title>
<path fill="none" stroke="midnightblue" d="M832.99,-112.444C853.142,-103.596 884.823,-89.6875 907.831,-79.5865"/>
<polygon fill="midnightblue" stroke="midnightblue" points="909.352,-82.7411 917.101,-75.5164 906.538,-76.3316 909.352,-82.7411"/>
</g>
<!-- Node10 -->
<g id="node10" class="node"><title>Node10</title>
<polygon fill="white" stroke="#bfbfbf" points="979,-56.5 979,-75.5 1024,-75.5 1024,-56.5 979,-56.5"/>
<text text-anchor="middle" x="1001.5" y="-63.5" font-family="Helvetica,sans-Serif" font-size="10.00">cstdlib</text>
</g>
<!-- Node3&#45;&gt;Node10 -->
<g id="edge9" class="edge"><title>Node3&#45;&gt;Node10</title>
<path fill="none" stroke="midnightblue" d="M843.289,-112.444C877.591,-102.591 933.743,-86.4621 969.107,-76.3044"/>
<polygon fill="midnightblue" stroke="midnightblue" points="970.286,-79.6074 978.931,-73.4826 968.353,-72.8794 970.286,-79.6074"/>
</g>
<!-- Node11 -->
<g id="node11" class="node"><title>Node11</title>
<polygon fill="white" stroke="#bfbfbf" points="1042.5,-56.5 1042.5,-75.5 1086.5,-75.5 1086.5,-56.5 1042.5,-56.5"/>
<text text-anchor="middle" x="1064.5" y="-63.5" font-family="Helvetica,sans-Serif" font-size="10.00">cerrno</text>
</g>
<!-- Node3&#45;&gt;Node11 -->
<g id="edge10" class="edge"><title>Node3&#45;&gt;Node11</title>
<path fill="none" stroke="midnightblue" d="M859.856,-112.473C902.159,-104.467 966.609,-91.7135 1032.09,-75.9501"/>
<polygon fill="midnightblue" stroke="midnightblue" points="1033.28,-79.2609 1042.17,-73.4989 1031.63,-72.4588 1033.28,-79.2609"/>
</g>
<!-- Node12 -->
<g id="node12" class="node"><title>Node12</title>
<polygon fill="white" stroke="#bfbfbf" points="1104.5,-56.5 1104.5,-75.5 1150.5,-75.5 1150.5,-56.5 1104.5,-56.5"/>
<text text-anchor="middle" x="1127.5" y="-63.5" font-family="Helvetica,sans-Serif" font-size="10.00">cstring</text>
</g>
<!-- Node3&#45;&gt;Node12 -->
<g id="edge11" class="edge"><title>Node3&#45;&gt;Node12</title>
<path fill="none" stroke="midnightblue" d="M875.222,-113.249C930.372,-105.847 1013.52,-93.522 1094.32,-76.057"/>
<polygon fill="midnightblue" stroke="midnightblue" points="1095.14,-79.4603 1104.16,-73.9017 1093.64,-72.6224 1095.14,-79.4603"/>
</g>
<!-- Node13 -->
<g id="node13" class="node"><title>Node13</title>
<polygon fill="white" stroke="#bfbfbf" points="1406.5,-56.5 1406.5,-75.5 1450.5,-75.5 1450.5,-56.5 1406.5,-56.5"/>
<text text-anchor="middle" x="1428.5" y="-63.5" font-family="Helvetica,sans-Serif" font-size="10.00">cmath</text>
</g>
<!-- Node3&#45;&gt;Node13 -->
<g id="edge12" class="edge"><title>Node3&#45;&gt;Node13</title>
<path fill="none" stroke="midnightblue" d="M875.411,-120.395C980.786,-118.458 1201.69,-110.455 1396.16,-75.8725"/>
<polygon fill="midnightblue" stroke="midnightblue" points="1397.06,-79.2665 1406.28,-74.0444 1395.82,-72.378 1397.06,-79.2665"/>
</g>
<!-- Node14 -->
<g id="node14" class="node"><title>Node14</title>
<polygon fill="white" stroke="#bfbfbf" points="1169,-56.5 1169,-75.5 1214,-75.5 1214,-56.5 1169,-56.5"/>
<text text-anchor="middle" x="1191.5" y="-63.5" font-family="Helvetica,sans-Serif" font-size="10.00">iosfwd</text>
</g>
<!-- Node3&#45;&gt;Node14 -->
<g id="edge13" class="edge"><title>Node3&#45;&gt;Node14</title>
<path fill="none" stroke="midnightblue" d="M875.196,-115.696C942.643,-109.289 1053.99,-96.9272 1159.05,-75.8051"/>
<polygon fill="midnightblue" stroke="midnightblue" points="1159.78,-79.23 1168.87,-73.8012 1158.38,-72.3714 1159.78,-79.23"/>
</g>
<!-- Node15 -->
<g id="node15" class="node"><title>Node15</title>
<polygon fill="white" stroke="#bfbfbf" points="1334.5,-56.5 1334.5,-75.5 1388.5,-75.5 1388.5,-56.5 1334.5,-56.5"/>
<text text-anchor="middle" x="1361.5" y="-63.5" font-family="Helvetica,sans-Serif" font-size="10.00">iostream</text>
</g>
<!-- Node3&#45;&gt;Node15 -->
<g id="edge14" class="edge"><title>Node3&#45;&gt;Node15</title>
<path fill="none" stroke="midnightblue" d="M875.37,-118.704C970.136,-114.497 1156.98,-103.476 1324.48,-75.9094"/>
<polygon fill="midnightblue" stroke="midnightblue" points="1325.18,-79.3412 1334.47,-74.2422 1324.03,-72.4368 1325.18,-79.3412"/>
</g>
<!-- Node16 -->
<g id="node16" class="node"><title>Node16</title>
<polygon fill="white" stroke="#bfbfbf" points="0,-56.5 0,-75.5 51,-75.5 51,-56.5 0,-56.5"/>
<text text-anchor="middle" x="25.5" y="-63.5" font-family="Helvetica,sans-Serif" font-size="10.00">unistd.h</text>
</g>
<!-- Node3&#45;&gt;Node16 -->
<g id="edge15" class="edge"><title>Node3&#45;&gt;Node16</title>
<path fill="none" stroke="midnightblue" d="M751.578,-121.304C623.967,-121.065 322.51,-116.034 61.4288,-75.8136"/>
<polygon fill="midnightblue" stroke="midnightblue" points="61.7981,-72.329 51.3779,-74.2446 60.7183,-79.2452 61.7981,-72.329"/>
</g>
<!-- Node17 -->
<g id="node17" class="node"><title>Node17</title>
<polygon fill="white" stroke="#bfbfbf" points="69.5,-56.5 69.5,-75.5 113.5,-75.5 113.5,-56.5 69.5,-56.5"/>
<text text-anchor="middle" x="91.5" y="-63.5" font-family="Helvetica,sans-Serif" font-size="10.00">fcntl.h</text>
</g>
<!-- Node3&#45;&gt;Node17 -->
<g id="edge16" class="edge"><title>Node3&#45;&gt;Node17</title>
<path fill="none" stroke="midnightblue" d="M751.962,-121.457C632.313,-121.378 360.065,-116.471 123.869,-75.8495"/>
<polygon fill="midnightblue" stroke="midnightblue" points="124.167,-72.3486 113.715,-74.0769 122.964,-79.2444 124.167,-72.3486"/>
</g>
<!-- Node18 -->
<g id="node18" class="node"><title>Node18</title>
<polygon fill="white" stroke="#bfbfbf" points="132,-56.5 132,-75.5 173,-75.5 173,-56.5 132,-56.5"/>
<text text-anchor="middle" x="152.5" y="-63.5" font-family="Helvetica,sans-Serif" font-size="10.00">string</text>
</g>
<!-- Node3&#45;&gt;Node18 -->
<g id="edge17" class="edge"><title>Node3&#45;&gt;Node18</title>
<path fill="none" stroke="midnightblue" d="M751.762,-120.234C638.976,-118.022 392.362,-109.423 187.5,-76 186.029,-75.7601 184.53,-75.4872 183.021,-75.1895"/>
<polygon fill="midnightblue" stroke="midnightblue" points="183.622,-71.7374 173.098,-72.9526 182.083,-78.566 183.622,-71.7374"/>
</g>
<!-- Node19 -->
<g id="node19" class="node"><title>Node19</title>
<polygon fill="white" stroke="#bfbfbf" points="1220.5,-0.5 1220.5,-19.5 1264.5,-19.5 1264.5,-0.5 1220.5,-0.5"/>
<text text-anchor="middle" x="1242.5" y="-7.5" font-family="Helvetica,sans-Serif" font-size="10.00">vector</text>
</g>
<!-- Node3&#45;&gt;Node19 -->
<g id="edge18" class="edge"><title>Node3&#45;&gt;Node19</title>
<path fill="none" stroke="midnightblue" d="M875.398,-117.904C983.162,-111.975 1196.32,-97.6519 1222.5,-76 1235.99,-64.8479 1240.56,-44.8204 1242.02,-29.9332"/>
<polygon fill="midnightblue" stroke="midnightblue" points="1245.53,-29.9739 1242.63,-19.7829 1238.54,-29.5563 1245.53,-29.9739"/>
</g>
<!-- Node20 -->
<g id="node20" class="node"><title>Node20</title>
<polygon fill="white" stroke="#bfbfbf" points="230,-56.5 230,-75.5 273,-75.5 273,-56.5 230,-56.5"/>
<text text-anchor="middle" x="251.5" y="-63.5" font-family="Helvetica,sans-Serif" font-size="10.00">deque</text>
</g>
<!-- Node3&#45;&gt;Node20 -->
<g id="edge19" class="edge"><title>Node3&#45;&gt;Node20</title>
<path fill="none" stroke="midnightblue" d="M751.959,-118.92C653.343,-114.873 454.073,-103.764 287.5,-76 286.03,-75.7551 284.533,-75.4809 283.024,-75.1849"/>
<polygon fill="midnightblue" stroke="midnightblue" points="283.604,-71.7288 273.085,-72.9902 282.095,-78.5641 283.604,-71.7288"/>
</g>
<!-- Node21 -->
<g id="node21" class="node"><title>Node21</title>
<polygon fill="white" stroke="#bfbfbf" points="192.5,-0.5 192.5,-19.5 236.5,-19.5 236.5,-0.5 192.5,-0.5"/>
<text text-anchor="middle" x="214.5" y="-7.5" font-family="Helvetica,sans-Serif" font-size="10.00">mutex</text>
</g>
<!-- Node3&#45;&gt;Node21 -->
<g id="edge20" class="edge"><title>Node3&#45;&gt;Node21</title>
<path fill="none" stroke="midnightblue" d="M751.777,-120.731C607.548,-119.487 257.783,-112.68 220.5,-76 208.526,-64.2198 208.406,-44.2915 210.428,-29.5991"/>
<polygon fill="midnightblue" stroke="midnightblue" points="213.899,-30.0686 212.23,-19.6061 207.011,-28.8261 213.899,-30.0686"/>
</g>
<!-- Node22 -->
<g id="node22" class="node"><title>Node22</title>
<polygon fill="white" stroke="#bfbfbf" points="267.5,-0.5 267.5,-19.5 311.5,-19.5 311.5,-0.5 267.5,-0.5"/>
<text text-anchor="middle" x="289.5" y="-7.5" font-family="Helvetica,sans-Serif" font-size="10.00">thread</text>
</g>
<!-- Node3&#45;&gt;Node22 -->
<g id="edge21" class="edge"><title>Node3&#45;&gt;Node22</title>
<path fill="none" stroke="midnightblue" d="M751.908,-120.413C642.353,-118.489 418.631,-110.34 349.5,-76 328.087,-65.3633 310.527,-43.6238 300.054,-28.2199"/>
<polygon fill="midnightblue" stroke="midnightblue" points="302.85,-26.097 294.478,-19.6034 296.973,-29.9003 302.85,-26.097"/>
</g>
<!-- Node23 -->
<g id="node23" class="node"><title>Node23</title>
<polygon fill="white" stroke="#bfbfbf" points="330,-0.5 330,-19.5 425,-19.5 425,-0.5 330,-0.5"/>
<text text-anchor="middle" x="377.5" y="-7.5" font-family="Helvetica,sans-Serif" font-size="10.00">condition_variable</text>
</g>
<!-- Node3&#45;&gt;Node23 -->
<g id="edge22" class="edge"><title>Node3&#45;&gt;Node23</title>
<path fill="none" stroke="midnightblue" d="M751.826,-119.409C633.597,-115.719 384.415,-104.604 358.5,-76 346.585,-62.8489 355.325,-42.6098 364.506,-28.2125"/>
<polygon fill="midnightblue" stroke="midnightblue" points="367.567,-29.9401 370.39,-19.7282 361.815,-25.951 367.567,-29.9401"/>
</g>
<!-- Node24 -->
<g id="node24" class="node"><title>Node24</title>
<polygon fill="white" stroke="#bfbfbf" points="490,-0.5 490,-19.5 533,-19.5 533,-0.5 490,-0.5"/>
<text text-anchor="middle" x="511.5" y="-7.5" font-family="Helvetica,sans-Serif" font-size="10.00">queue</text>
</g>
<!-- Node3&#45;&gt;Node24 -->
<g id="edge23" class="edge"><title>Node3&#45;&gt;Node24</title>
<path fill="none" stroke="midnightblue" d="M751.819,-118.744C678.643,-114.809 562.514,-104.195 530.5,-76 517.423,-64.4827 513.119,-44.5129 511.814,-29.7389"/>
<polygon fill="midnightblue" stroke="midnightblue" points="515.306,-29.4901 511.304,-19.6801 508.315,-29.8445 515.306,-29.4901"/>
</g>
<!-- Node25 -->
<g id="node25" class="node"><title>Node25</title>
<polygon fill="white" stroke="#bfbfbf" points="539.5,-56.5 539.5,-75.5 591.5,-75.5 591.5,-56.5 539.5,-56.5"/>
<text text-anchor="middle" x="565.5" y="-63.5" font-family="Helvetica,sans-Serif" font-size="10.00">sstream</text>
</g>
<!-- Node3&#45;&gt;Node25 -->
<g id="edge24" class="edge"><title>Node3&#45;&gt;Node25</title>
<path fill="none" stroke="midnightblue" d="M773.604,-112.471C731.716,-103.492 663.947,-88.8975 605.5,-76 604.249,-75.7239 602.976,-75.4422 601.69,-75.1569"/>
<polygon fill="midnightblue" stroke="midnightblue" points="602.265,-71.6992 591.743,-72.9372 600.741,-78.5312 602.265,-71.6992"/>
</g>
<!-- Node26 -->
<g id="node26" class="node"><title>Node26</title>
<polygon fill="white" stroke="#bfbfbf" points="577,-0.5 577,-19.5 612,-19.5 612,-0.5 577,-0.5"/>
<text text-anchor="middle" x="594.5" y="-7.5" font-family="Helvetica,sans-Serif" font-size="10.00">map</text>
</g>
<!-- Node3&#45;&gt;Node26 -->
<g id="edge25" class="edge"><title>Node3&#45;&gt;Node26</title>
<path fill="none" stroke="midnightblue" d="M751.866,-116.034C716.104,-110.637 671.711,-99.3958 638.5,-76 621.664,-64.1399 609.372,-43.6306 602.126,-28.8171"/>
<polygon fill="midnightblue" stroke="midnightblue" points="605.272,-27.2793 597.922,-19.6478 598.909,-30.1967 605.272,-27.2793"/>
</g>
<!-- Node27 -->
<g id="node27" class="node"><title>Node27</title>
<g id="a_node27"><a xlink:href="cosmos-defs_8h.html" target="_top" xlink:title="COSMOS definitions Definitions specific to the COSMOS environement. ">
<polygon fill="white" stroke="black" points="367.5,-56.5 367.5,-75.5 483.5,-75.5 483.5,-56.5 367.5,-56.5"/>
<text text-anchor="middle" x="425.5" y="-63.5" font-family="Helvetica,sans-Serif" font-size="10.00">support/cosmos&#45;defs.h</text>
</a>
</g>
</g>
<!-- Node3&#45;&gt;Node27 -->
<g id="edge26" class="edge"><title>Node3&#45;&gt;Node27</title>
<path fill="none" stroke="midnightblue" d="M752.02,-112.444C681.611,-102.644 566.593,-86.6366 493.544,-76.47"/>
<polygon fill="midnightblue" stroke="midnightblue" points="493.911,-72.9874 483.524,-75.0755 492.946,-79.9206 493.911,-72.9874"/>
</g>
<!-- Node27&#45;&gt;Node19 -->
<g id="edge28" class="edge"><title>Node27&#45;&gt;Node19</title>
<path fill="none" stroke="midnightblue" d="M483.523,-59.7928C498.798,-58.486 515.265,-57.1342 530.5,-56 792.682,-36.4809 1109.59,-18.3928 1210.22,-12.7823"/>
<polygon fill="midnightblue" stroke="midnightblue" points="1210.55,-16.2691 1220.34,-12.2192 1210.16,-9.27995 1210.55,-16.2691"/>
</g>
<!-- Node27&#45;&gt;Node21 -->
<g id="edge32" class="edge"><title>Node27&#45;&gt;Node21</title>
<path fill="none" stroke="midnightblue" d="M392.066,-56.4435C352.171,-46.2334 285.939,-29.2831 246.629,-19.2226"/>
<polygon fill="midnightblue" stroke="midnightblue" points="247.329,-15.789 236.774,-16.7003 245.594,-22.5705 247.329,-15.789"/>
</g>
<!-- Node27&#45;&gt;Node22 -->
<g id="edge31" class="edge"><title>Node27&#45;&gt;Node22</title>
<path fill="none" stroke="midnightblue" d="M403.95,-56.4435C381.469,-47.5171 346.012,-33.4387 320.52,-23.3168"/>
<polygon fill="midnightblue" stroke="midnightblue" points="321.535,-19.9539 310.949,-19.5164 318.951,-26.4598 321.535,-19.9539"/>
</g>
<!-- Node27&#45;&gt;Node23 -->
<g id="edge33" class="edge"><title>Node27&#45;&gt;Node23</title>
<path fill="none" stroke="midnightblue" d="M417.574,-56.083C410.654,-48.2982 400.435,-36.8015 392.048,-27.3665"/>
<polygon fill="midnightblue" stroke="midnightblue" points="394.538,-24.8999 385.279,-19.7511 389.306,-29.5505 394.538,-24.8999"/>
</g>
<!-- Node27&#45;&gt;Node24 -->
<g id="edge30" class="edge"><title>Node27&#45;&gt;Node24</title>
<path fill="none" stroke="midnightblue" d="M439.317,-56.324C452.733,-47.9002 473.324,-34.9709 489.086,-25.0741"/>
<polygon fill="midnightblue" stroke="midnightblue" points="491.109,-27.9364 497.717,-19.6545 487.387,-22.0081 491.109,-27.9364"/>
</g>
<!-- Node27&#45;&gt;Node26 -->
<g id="edge27" class="edge"><title>Node27&#45;&gt;Node26</title>
<path fill="none" stroke="midnightblue" d="M452.279,-56.4435C483.553,-46.4507 535.033,-30.0013 566.728,-19.874"/>
<polygon fill="midnightblue" stroke="midnightblue" points="568.2,-23.078 576.66,-16.7003 566.069,-16.4101 568.2,-23.078"/>
</g>
<!-- Node28 -->
<g id="node28" class="node"><title>Node28</title>
<polygon fill="white" stroke="#bfbfbf" points="443,-0.5 443,-19.5 472,-19.5 472,-0.5 443,-0.5"/>
<text text-anchor="middle" x="457.5" y="-7.5" font-family="Helvetica,sans-Serif" font-size="10.00">list</text>
</g>
<!-- Node27&#45;&gt;Node28 -->
<g id="edge29" class="edge"><title>Node27&#45;&gt;Node28</title>
<path fill="none" stroke="midnightblue" d="M430.784,-56.083C435.211,-48.6127 441.663,-37.7244 447.118,-28.5199"/>
<polygon fill="midnightblue" stroke="midnightblue" points="450.227,-30.1383 452.314,-19.7511 444.205,-26.5697 450.227,-30.1383"/>
</g>
<!-- Node29&#45;&gt;Node3 -->
<g id="edge35" class="edge"><title>Node29&#45;&gt;Node3</title>
<path fill="none" stroke="midnightblue" d="M1199.27,-224.547C1158.62,-211.586 1077.88,-186.376 1008.5,-168 959.684,-155.07 903.44,-142.317 863.94,-133.707"/>
<polygon fill="midnightblue" stroke="midnightblue" points="864.535,-130.255 854.021,-131.556 863.051,-137.096 864.535,-130.255"/>
</g>
<!-- Node29&#45;&gt;Node13 -->
<g id="edge41" class="edge"><title>Node29&#45;&gt;Node13</title>
<path fill="none" stroke="midnightblue" d="M1251.67,-225.533C1273.87,-218.34 1305.79,-205.9 1329.5,-188 1368.88,-158.27 1402.25,-109.753 1418.29,-84.1187"/>
<polygon fill="midnightblue" stroke="midnightblue" points="1421.33,-85.8575 1423.57,-75.5014 1415.36,-82.2024 1421.33,-85.8575"/>
</g>
<!-- Node29&#45;&gt;Node15 -->
<g id="edge39" class="edge"><title>Node29&#45;&gt;Node15</title>
<path fill="none" stroke="midnightblue" d="M1250.13,-224.421C1268.03,-217.12 1291.77,-205.081 1307.5,-188 1335.19,-157.932 1350.46,-111.304 1357.21,-85.5944"/>
<polygon fill="midnightblue" stroke="midnightblue" points="1360.66,-86.224 1359.66,-75.6765 1353.86,-84.5461 1360.66,-86.224"/>
</g>
<!-- Node29&#45;&gt;Node19 -->
<g id="edge42" class="edge"><title>Node29&#45;&gt;Node19</title>
<path fill="none" stroke="midnightblue" d="M1251.73,-226.02C1325.83,-205.078 1527.1,-139.062 1459.5,-56 1436.62,-27.8846 1329.85,-16.7779 1275.08,-12.8737"/>
<polygon fill="midnightblue" stroke="midnightblue" points="1275.08,-9.36546 1264.86,-12.186 1274.61,-16.3497 1275.08,-9.36546"/>
</g>
<!-- Node30 -->
<g id="node30" class="node"><title>Node30</title>
<g id="a_node30"><a xlink:href="math_2constants_8h.html" target="_top" xlink:title="constants.h">
<polygon fill="white" stroke="black" points="1230.5,-168.5 1230.5,-187.5 1298.5,-187.5 1298.5,-168.5 1230.5,-168.5"/>
<text text-anchor="middle" x="1264.5" y="-175.5" font-family="Helvetica,sans-Serif" font-size="10.00">constants.h</text>
</a>
</g>
</g>
<!-- Node29&#45;&gt;Node30 -->
<g id="edge36" class="edge"><title>Node29&#45;&gt;Node30</title>
<path fill="none" stroke="midnightblue" d="M1231.94,-224.083C1237.45,-216.455 1245.53,-205.264 1252.26,-195.941"/>
<polygon fill="midnightblue" stroke="midnightblue" points="1255.16,-197.907 1258.18,-187.751 1249.49,-193.809 1255.16,-197.907"/>
</g>
<!-- Node31 -->
<g id="node31" class="node"><title>Node31</title>
<polygon fill="white" stroke="#bfbfbf" points="1162.5,-168.5 1162.5,-187.5 1212.5,-187.5 1212.5,-168.5 1162.5,-168.5"/>
<text text-anchor="middle" x="1187.5" y="-175.5" font-family="Helvetica,sans-Serif" font-size="10.00">iomanip</text>
</g>
<!-- Node29&#45;&gt;Node31 -->
<g id="edge40" class="edge"><title>Node29&#45;&gt;Node31</title>
<path fill="none" stroke="midnightblue" d="M1219.23,-224.083C1213.86,-216.455 1205.98,-205.264 1199.42,-195.941"/>
<polygon fill="midnightblue" stroke="midnightblue" points="1202.28,-193.915 1193.66,-187.751 1196.55,-197.943 1202.28,-193.915"/>
</g>
<!-- Node30&#45;&gt;Node3 -->
<g id="edge37" class="edge"><title>Node30&#45;&gt;Node3</title>
<path fill="none" stroke="midnightblue" d="M1230.29,-169.529C1227.32,-168.975 1224.36,-168.456 1221.5,-168 1104.41,-149.334 967.175,-135.922 885.443,-128.82"/>
<polygon fill="midnightblue" stroke="midnightblue" points="885.53,-125.315 875.266,-127.944 884.929,-132.289 885.53,-125.315"/>
</g>
<!-- Node30&#45;&gt;Node6 -->
<g id="edge38" class="edge"><title>Node30&#45;&gt;Node6</title>
<path fill="none" stroke="midnightblue" d="M1266.78,-168.368C1271.48,-150.537 1282.35,-109.295 1288.68,-85.2717"/>
<polygon fill="midnightblue" stroke="midnightblue" points="1292.07,-86.1533 1291.23,-75.5914 1285.3,-84.3688 1292.07,-86.1533"/>
</g>
<!-- Node32&#45;&gt;Node3 -->
<g id="edge44" class="edge"><title>Node32&#45;&gt;Node3</title>
<path fill="none" stroke="midnightblue" d="M1080.02,-280.239C1063.17,-258.08 1015.6,-199.344 962.5,-168 934.814,-151.658 900.681,-140.787 872.072,-133.83"/>
<polygon fill="midnightblue" stroke="midnightblue" points="872.736,-130.391 862.203,-131.53 871.147,-137.209 872.736,-130.391"/>
</g>
<!-- Node32&#45;&gt;Node29 -->
<g id="edge45" class="edge"><title>Node32&#45;&gt;Node29</title>
<path fill="none" stroke="midnightblue" d="M1108.52,-280.444C1131.6,-271.478 1168.06,-257.314 1194.14,-247.183"/>
<polygon fill="midnightblue" stroke="midnightblue" points="1195.52,-250.4 1203.58,-243.516 1192.99,-243.875 1195.52,-250.4"/>
</g>
</g>
</svg>
        <g id="navigator" transform="translate(0 0)" fill="#404254">
                <rect fill="#f2f5e9" fill-opacity="0.5" stroke="#606060" stroke-width=".5" x="0" y="0" width="60" height="60"/>
                <use id="zoomplus" xlink:href="#zoomPlus" x="17" y="9" onmousedown="handleZoom(evt,'in')"/>
                <use id="zoomminus" xlink:href="#zoomMin" x="42" y="9" onmousedown="handleZoom(evt,'out')"/>
                <use id="reset" xlink:href="#resetDef" x="30" y="36" onmousedown="handleReset()"/>
                <g id="arrowUp" xlink:href="#dirArrow" transform="translate(30 24)" onmousedown="handlePan(0,-1)">
                  <use xlink:href="#rim" fill="#404040">
                        <set attributeName="fill" to="#808080" begin="arrowUp.mouseover" end="arrowUp.mouseout"/>
                  </use>
                  <path fill="none" stroke="white" stroke-width="1.5" d="M0,-3.0v7 M-2.5,-0.5L0,-3.0L2.5,-0.5"/>
                </g>
                <g id="arrowRight" xlink:href="#dirArrow" transform="rotate(90) translate(36 -43)" onmousedown="handlePan(1,0)">
                  <use xlink:href="#rim" fill="#404040">
                        <set attributeName="fill" to="#808080" begin="arrowRight.mouseover" end="arrowRight.mouseout"/>
                  </use>
                  <path fill="none" stroke="white" stroke-width="1.5" d="M0,-3.0v7 M-2.5,-0.5L0,-3.0L2.5,-0.5"/>
                </g>
                <g id="arrowDown" xlink:href="#dirArrow" transform="rotate(180) translate(-30 -48)" onmousedown="handlePan(0,1)">
                  <use xlink:href="#rim" fill="#404040">
                        <set attributeName="fill" to="#808080" begin="arrowDown.mouseover" end="arrowDown.mouseout"/>
                  </use>
                  <path fill="none" stroke="white" stroke-width="1.5" d="M0,-3.0v7 M-2.5,-0.5L0,-3.0L2.5,-0.5"/>
                </g>
                <g id="arrowLeft" xlink:href="#dirArrow" transform="rotate(270) translate(-36 17)" onmousedown="handlePan(-1,0)">
                  <use xlink:href="#rim" fill="#404040">
                        <set attributeName="fill" to="#808080" begin="arrowLeft.mouseover" end="arrowLeft.mouseout"/>
                  </use>
                  <path fill="none" stroke="white" stroke-width="1.5" d="M0,-3.0v7 M-2.5,-0.5L0,-3.0L2.5,-0.5"/>
                </g>
        </g>
        <svg viewBox="0 0 15 15" width="100%" height="30px" preserveAspectRatio="xMaxYMin meet">
         <g id="arrow_out" transform="scale(0.3 0.3)">
          <a xlink:href="rotation_8cpp__incl_org.svg" target="_base">
           <rect id="button" ry="5" rx="5" y="6" x="6" height="38" width="38"
                fill="#f2f5e9" fill-opacity="0.5" stroke="#606060" stroke-width="1.0"/>
           <path id="arrow"
             d="M 11.500037,31.436501 C 11.940474,20.09759 22.043105,11.32322 32.158766,21.979434 L 37.068811,17.246167 C 37.068811,17.246167 37.088388,32 37.088388,32 L 22.160133,31.978069 C 22.160133,31.978069 26.997745,27.140456 26.997745,27.140456 C 18.528582,18.264221 13.291696,25.230495 11.500037,31.436501 z"
             style="fill:#404040;"/>
          </a>
         </g>
        </svg>
</svg>
