<?xml version="1.0" encoding="UTF-8" standalone="no"?>
<!DOCTYPE svg PUBLIC "-//W3C//DTD SVG 1.1//EN"
 "http://www.w3.org/Graphics/SVG/1.1/DTD/svg11.dtd">
<!-- Generated by graphviz version 2.38.0 (20140413.2041)
 -->
<!-- Title: serial_listen.cpp Pages: 1 -->
<!--zoomable 364 -->
<svg id="main" version="1.1" xmlns="http://www.w3.org/2000/svg" xmlns:xlink="http://www.w3.org/1999/xlink" xml:space="preserve" onload="init(evt)">
<style type="text/css"><![CDATA[
.edge:hover path { stroke: red; }
.edge:hover polygon { stroke: red; fill: red; }
]]></style>
<script type="text/javascript"><![CDATA[
var edges = document.getElementsByTagName('g');
if (edges && edges.length) {
  for (var i=0;i<edges.length;i++) {
    if (edges[i].id.substr(0,4)=='edge') {
      edges[i].setAttribute('class','edge');
    }
  }
}
]]></script>
        <defs>
                <circle id="rim" cx="0" cy="0" r="7"/>
                <circle id="rim2" cx="0" cy="0" r="3.5"/>
                <g id="zoomPlus">
                        <use xlink:href="#rim" fill="#404040">
                                <set attributeName="fill" to="#808080" begin="zoomplus.mouseover" end="zoomplus.mouseout"/>
                        </use>
                        <path d="M-4,0h8M0,-4v8" fill="none" stroke="white" stroke-width="1.5" pointer-events="none"/>
                </g>
                <g id="zoomMin">
                        <use xlink:href="#rim" fill="#404040">
                                <set attributeName="fill" to="#808080" begin="zoomminus.mouseover" end="zoomminus.mouseout"/>
                        </use>
                        <path d="M-4,0h8" fill="none" stroke="white" stroke-width="1.5" pointer-events="none"/>
                </g>
                <g id="dirArrow">
                        <path fill="none" stroke="white" stroke-width="1.5" d="M0,-3.0v7 M-2.5,-0.5L0,-3.0L2.5,-0.5"/>
                </g>
               <g id="resetDef">
                       <use xlink:href="#rim2" fill="#404040">
                               <set attributeName="fill" to="#808080" begin="reset.mouseover" end="reset.mouseout"/>
                       </use>
               </g>
        </defs>

<script type="text/javascript">
var viewWidth = 1458;
var viewHeight = 364;
var sectionId = 'dynsection-0';
</script>
<script xlink:href="svgpan.js"/>
<svg id="graph" class="graph">
<g id="viewport">
<title>serial_listen.cpp</title>
<polygon fill="white" stroke="none" points="-4,4 -4,-360 1454,-360 1454,4 -4,4"/>
<!-- Node1 -->
<g id="node1" class="node"><title>Node1</title>
<polygon fill="#bfbfbf" stroke="black" points="627.5,-336.5 627.5,-355.5 714.5,-355.5 714.5,-336.5 627.5,-336.5"/>
<text text-anchor="middle" x="671" y="-343.5" font-family="Helvetica,sans-Serif" font-size="10.00">serial_listen.cpp</text>
</g>
<!-- Node2 -->
<g id="node2" class="node"><title>Node2</title>
<g id="a_node2"><a xlink:href="config_cosmos_8h.html" target="_top" xlink:title="Headers and definitions common to all COSMOS. ">
<polygon fill="white" stroke="black" points="647.5,-112.5 647.5,-131.5 770.5,-131.5 770.5,-112.5 647.5,-112.5"/>
<text text-anchor="middle" x="709" y="-119.5" font-family="Helvetica,sans-Serif" font-size="10.00">support/configCosmos.h</text>
</a>
</g>
</g>
<!-- Node1&#45;&gt;Node2 -->
<g id="edge1" class="edge"><title>Node1&#45;&gt;Node2</title>
<path fill="none" stroke="midnightblue" d="M644.789,-336.414C628.15,-329.445 607.943,-317.809 598,-300 593.667,-292.239 596.246,-288.714 598,-280 608.654,-227.079 611.155,-210.055 645,-168 655.279,-155.228 670.093,-144.496 682.88,-136.719"/>
<polygon fill="midnightblue" stroke="midnightblue" points="684.837,-139.631 691.739,-131.592 681.331,-133.572 684.837,-139.631"/>
</g>
<!-- Node28 -->
<g id="node28" class="node"><title>Node28</title>
<g id="a_node28"><a xlink:href="serialclass_8h.html" target="_top" xlink:title="device/serial/serialclass.h">
<polygon fill="white" stroke="black" points="606.5,-280.5 606.5,-299.5 735.5,-299.5 735.5,-280.5 606.5,-280.5"/>
<text text-anchor="middle" x="671" y="-287.5" font-family="Helvetica,sans-Serif" font-size="10.00">device/serial/serialclass.h</text>
</a>
</g>
</g>
<!-- Node1&#45;&gt;Node28 -->
<g id="edge33" class="edge"><title>Node1&#45;&gt;Node28</title>
<path fill="none" stroke="midnightblue" d="M671,-336.083C671,-329.006 671,-318.861 671,-309.986"/>
<polygon fill="midnightblue" stroke="midnightblue" points="674.5,-309.751 671,-299.751 667.5,-309.751 674.5,-309.751"/>
</g>
<!-- Node32 -->
<g id="node32" class="node"><title>Node32</title>
<g id="a_node32"><a xlink:href="elapsedtime_8h.html" target="_top" xlink:title="Elapsed Time header file. ">
<polygon fill="white" stroke="black" points="931.5,-168.5 931.5,-187.5 1044.5,-187.5 1044.5,-168.5 931.5,-168.5"/>
<text text-anchor="middle" x="988" y="-175.5" font-family="Helvetica,sans-Serif" font-size="10.00">support/elapsedtime.h</text>
</a>
</g>
</g>
<!-- Node1&#45;&gt;Node32 -->
<g id="edge41" class="edge"><title>Node1&#45;&gt;Node32</title>
<path fill="none" stroke="midnightblue" d="M687.597,-336.309C739.594,-309.08 899.6,-225.292 962.361,-192.426"/>
<polygon fill="midnightblue" stroke="midnightblue" points="964.332,-195.345 971.567,-187.605 961.085,-189.144 964.332,-195.345"/>
</g>
<!-- Node3 -->
<g id="node3" class="node"><title>Node3</title>
<polygon fill="white" stroke="#bfbfbf" points="753.5,-56.5 753.5,-75.5 798.5,-75.5 798.5,-56.5 753.5,-56.5"/>
<text text-anchor="middle" x="776" y="-63.5" font-family="Helvetica,sans-Serif" font-size="10.00">climits</text>
</g>
<!-- Node2&#45;&gt;Node3 -->
<g id="edge2" class="edge"><title>Node2&#45;&gt;Node3</title>
<path fill="none" stroke="midnightblue" d="M719.765,-112.324C729.766,-104.263 744.887,-92.0765 756.93,-82.3695"/>
<polygon fill="midnightblue" stroke="midnightblue" points="759.45,-84.8343 765.039,-75.8339 755.057,-79.3841 759.45,-84.8343"/>
</g>
<!-- Node4 -->
<g id="node4" class="node"><title>Node4</title>
<polygon fill="white" stroke="#bfbfbf" points="816.5,-56.5 816.5,-75.5 863.5,-75.5 863.5,-56.5 816.5,-56.5"/>
<text text-anchor="middle" x="840" y="-63.5" font-family="Helvetica,sans-Serif" font-size="10.00">csignal</text>
</g>
<!-- Node2&#45;&gt;Node4 -->
<g id="edge3" class="edge"><title>Node2&#45;&gt;Node4</title>
<path fill="none" stroke="midnightblue" d="M729.757,-112.444C751.316,-103.557 785.263,-89.5632 809.794,-79.4514"/>
<polygon fill="midnightblue" stroke="midnightblue" points="811.428,-82.5634 819.34,-75.5164 808.761,-76.0917 811.428,-82.5634"/>
</g>
<!-- Node5 -->
<g id="node5" class="node"><title>Node5</title>
<polygon fill="white" stroke="#bfbfbf" points="882,-56.5 882,-75.5 928,-75.5 928,-56.5 882,-56.5"/>
<text text-anchor="middle" x="905" y="-63.5" font-family="Helvetica,sans-Serif" font-size="10.00">cstdint</text>
</g>
<!-- Node2&#45;&gt;Node5 -->
<g id="edge4" class="edge"><title>Node2&#45;&gt;Node5</title>
<path fill="none" stroke="midnightblue" d="M740.456,-112.433C771.548,-103.95 820.724,-90.497 872.282,-76.1874"/>
<polygon fill="midnightblue" stroke="midnightblue" points="873.235,-79.5554 881.933,-73.5065 871.361,-72.8108 873.235,-79.5554"/>
</g>
<!-- Node6 -->
<g id="node6" class="node"><title>Node6</title>
<polygon fill="white" stroke="#bfbfbf" points="946,-56.5 946,-75.5 1002,-75.5 1002,-56.5 946,-56.5"/>
<text text-anchor="middle" x="974" y="-63.5" font-family="Helvetica,sans-Serif" font-size="10.00">cinttypes</text>
</g>
<!-- Node2&#45;&gt;Node6 -->
<g id="edge5" class="edge"><title>Node2&#45;&gt;Node6</title>
<path fill="none" stroke="midnightblue" d="M755.411,-112.456C799.406,-104.219 867.585,-91.0978 935.701,-76.2151"/>
<polygon fill="midnightblue" stroke="midnightblue" points="936.732,-79.5721 945.748,-74.0069 935.23,-72.7353 936.732,-79.5721"/>
</g>
<!-- Node7 -->
<g id="node7" class="node"><title>Node7</title>
<polygon fill="white" stroke="#bfbfbf" points="1020.5,-56.5 1020.5,-75.5 1063.5,-75.5 1063.5,-56.5 1020.5,-56.5"/>
<text text-anchor="middle" x="1042" y="-63.5" font-family="Helvetica,sans-Serif" font-size="10.00">cstdio</text>
</g>
<!-- Node2&#45;&gt;Node7 -->
<g id="edge6" class="edge"><title>Node2&#45;&gt;Node7</title>
<path fill="none" stroke="midnightblue" d="M770.822,-112.79C841.219,-103.275 952.904,-87.6366 1010.62,-75.7647"/>
<polygon fill="midnightblue" stroke="midnightblue" points="1011.37,-79.1843 1020.42,-73.6691 1009.9,-72.3393 1011.37,-79.1843"/>
</g>
<!-- Node8 -->
<g id="node8" class="node"><title>Node8</title>
<polygon fill="white" stroke="#bfbfbf" points="1081.5,-56.5 1081.5,-75.5 1130.5,-75.5 1130.5,-56.5 1081.5,-56.5"/>
<text text-anchor="middle" x="1106" y="-63.5" font-family="Helvetica,sans-Serif" font-size="10.00">cstddef</text>
</g>
<!-- Node2&#45;&gt;Node8 -->
<g id="edge7" class="edge"><title>Node2&#45;&gt;Node8</title>
<path fill="none" stroke="midnightblue" d="M770.572,-113.18C773.76,-112.78 776.918,-112.385 780,-112 907.013,-96.1471 942.545,-101.067 1071.37,-76.0996"/>
<polygon fill="midnightblue" stroke="midnightblue" points="1072.08,-79.527 1081.22,-74.1682 1070.74,-72.6578 1072.08,-79.527"/>
</g>
<!-- Node9 -->
<g id="node9" class="node"><title>Node9</title>
<polygon fill="white" stroke="#bfbfbf" points="1148.5,-56.5 1148.5,-75.5 1193.5,-75.5 1193.5,-56.5 1148.5,-56.5"/>
<text text-anchor="middle" x="1171" y="-63.5" font-family="Helvetica,sans-Serif" font-size="10.00">cstdlib</text>
</g>
<!-- Node2&#45;&gt;Node9 -->
<g id="edge8" class="edge"><title>Node2&#45;&gt;Node9</title>
<path fill="none" stroke="midnightblue" d="M770.562,-113.095C773.753,-112.717 776.914,-112.35 780,-112 936.498,-94.2593 980.343,-106.038 1138.35,-76.0118"/>
<polygon fill="midnightblue" stroke="midnightblue" points="1139.27,-79.399 1148.43,-74.0702 1137.95,-72.5254 1139.27,-79.399"/>
</g>
<!-- Node10 -->
<g id="node10" class="node"><title>Node10</title>
<polygon fill="white" stroke="#bfbfbf" points="1212,-56.5 1212,-75.5 1256,-75.5 1256,-56.5 1212,-56.5"/>
<text text-anchor="middle" x="1234" y="-63.5" font-family="Helvetica,sans-Serif" font-size="10.00">cerrno</text>
</g>
<!-- Node2&#45;&gt;Node10 -->
<g id="edge9" class="edge"><title>Node2&#45;&gt;Node10</title>
<path fill="none" stroke="midnightblue" d="M770.556,-113.04C773.748,-112.676 776.911,-112.327 780,-112 964.424,-92.4717 1015.75,-109.855 1201.94,-75.8437"/>
<polygon fill="midnightblue" stroke="midnightblue" points="1202.58,-79.2848 1211.78,-74.0226 1201.31,-72.4018 1202.58,-79.2848"/>
</g>
<!-- Node11 -->
<g id="node11" class="node"><title>Node11</title>
<polygon fill="white" stroke="#bfbfbf" points="0,-56.5 0,-75.5 46,-75.5 46,-56.5 0,-56.5"/>
<text text-anchor="middle" x="23" y="-63.5" font-family="Helvetica,sans-Serif" font-size="10.00">cstring</text>
</g>
<!-- Node2&#45;&gt;Node11 -->
<g id="edge10" class="edge"><title>Node2&#45;&gt;Node11</title>
<path fill="none" stroke="midnightblue" d="M647.228,-113.394C642.417,-112.89 637.631,-112.418 633,-112 379.91,-89.1506 310.509,-118.326 56.1914,-75.8406"/>
<polygon fill="midnightblue" stroke="midnightblue" points="56.7321,-72.3824 46.2884,-74.1658 55.5648,-79.2844 56.7321,-72.3824"/>
</g>
<!-- Node12 -->
<g id="node12" class="node"><title>Node12</title>
<polygon fill="white" stroke="#bfbfbf" points="1274,-56.5 1274,-75.5 1318,-75.5 1318,-56.5 1274,-56.5"/>
<text text-anchor="middle" x="1296" y="-63.5" font-family="Helvetica,sans-Serif" font-size="10.00">cmath</text>
</g>
<!-- Node2&#45;&gt;Node12 -->
<g id="edge11" class="edge"><title>Node2&#45;&gt;Node12</title>
<path fill="none" stroke="midnightblue" d="M770.551,-112.999C773.745,-112.646 776.909,-112.31 780,-112 991.811,-90.7288 1050.51,-113.626 1263.83,-75.8378"/>
<polygon fill="midnightblue" stroke="midnightblue" points="1264.56,-79.2642 1273.78,-74.0521 1263.32,-72.3743 1264.56,-79.2642"/>
</g>
<!-- Node13 -->
<g id="node13" class="node"><title>Node13</title>
<polygon fill="white" stroke="#bfbfbf" points="64.5,-56.5 64.5,-75.5 109.5,-75.5 109.5,-56.5 64.5,-56.5"/>
<text text-anchor="middle" x="87" y="-63.5" font-family="Helvetica,sans-Serif" font-size="10.00">iosfwd</text>
</g>
<!-- Node2&#45;&gt;Node13 -->
<g id="edge12" class="edge"><title>Node2&#45;&gt;Node13</title>
<path fill="none" stroke="midnightblue" d="M647.225,-113.433C642.414,-112.92 637.63,-112.436 633,-112 407.797,-90.8068 345.648,-115.495 119.407,-75.8966"/>
<polygon fill="midnightblue" stroke="midnightblue" points="120.013,-72.4495 109.555,-74.1501 118.791,-79.3421 120.013,-72.4495"/>
</g>
<!-- Node14 -->
<g id="node14" class="node"><title>Node14</title>
<polygon fill="white" stroke="#bfbfbf" points="1396,-56.5 1396,-75.5 1450,-75.5 1450,-56.5 1396,-56.5"/>
<text text-anchor="middle" x="1423" y="-63.5" font-family="Helvetica,sans-Serif" font-size="10.00">iostream</text>
</g>
<!-- Node2&#45;&gt;Node14 -->
<g id="edge13" class="edge"><title>Node2&#45;&gt;Node14</title>
<path fill="none" stroke="midnightblue" d="M770.546,-112.943C773.741,-112.605 776.907,-112.287 780,-112 1045.81,-87.2986 1118.11,-116.226 1385.96,-75.8549"/>
<polygon fill="midnightblue" stroke="midnightblue" points="1386.62,-79.2943 1395.98,-74.3262 1385.57,-72.3744 1386.62,-79.2943"/>
</g>
<!-- Node15 -->
<g id="node15" class="node"><title>Node15</title>
<polygon fill="white" stroke="#bfbfbf" points="127.5,-56.5 127.5,-75.5 178.5,-75.5 178.5,-56.5 127.5,-56.5"/>
<text text-anchor="middle" x="153" y="-63.5" font-family="Helvetica,sans-Serif" font-size="10.00">unistd.h</text>
</g>
<!-- Node2&#45;&gt;Node15 -->
<g id="edge14" class="edge"><title>Node2&#45;&gt;Node15</title>
<path fill="none" stroke="midnightblue" d="M647.219,-113.489C642.41,-112.964 637.627,-112.461 633,-112 438.831,-92.6559 385.452,-108.29 188.6,-75.7838"/>
<polygon fill="midnightblue" stroke="midnightblue" points="188.947,-72.2932 178.506,-74.096 187.792,-79.1974 188.947,-72.2932"/>
</g>
<!-- Node16 -->
<g id="node16" class="node"><title>Node16</title>
<polygon fill="white" stroke="#bfbfbf" points="197,-56.5 197,-75.5 241,-75.5 241,-56.5 197,-56.5"/>
<text text-anchor="middle" x="219" y="-63.5" font-family="Helvetica,sans-Serif" font-size="10.00">fcntl.h</text>
</g>
<!-- Node2&#45;&gt;Node16 -->
<g id="edge15" class="edge"><title>Node2&#45;&gt;Node16</title>
<path fill="none" stroke="midnightblue" d="M647.212,-113.563C642.404,-113.021 637.624,-112.494 633,-112 465.194,-94.0758 421.328,-104.545 255,-76 253.75,-75.7855 252.479,-75.5507 251.198,-75.3001"/>
<polygon fill="midnightblue" stroke="midnightblue" points="251.876,-71.8655 241.358,-73.1412 250.376,-78.7029 251.876,-71.8655"/>
</g>
<!-- Node17 -->
<g id="node17" class="node"><title>Node17</title>
<polygon fill="white" stroke="#bfbfbf" points="1336.5,-56.5 1336.5,-75.5 1377.5,-75.5 1377.5,-56.5 1336.5,-56.5"/>
<text text-anchor="middle" x="1357" y="-63.5" font-family="Helvetica,sans-Serif" font-size="10.00">string</text>
</g>
<!-- Node2&#45;&gt;Node17 -->
<g id="edge16" class="edge"><title>Node2&#45;&gt;Node17</title>
<path fill="none" stroke="midnightblue" d="M770.548,-112.967C773.743,-112.623 776.908,-112.297 780,-112 1019.2,-88.9891 1085.43,-118.453 1326.37,-75.6403"/>
<polygon fill="midnightblue" stroke="midnightblue" points="1327.27,-79.0347 1336.49,-73.818 1326.03,-72.1455 1327.27,-79.0347"/>
</g>
<!-- Node18 -->
<g id="node18" class="node"><title>Node18</title>
<polygon fill="white" stroke="#bfbfbf" points="223,-0.5 223,-19.5 267,-19.5 267,-0.5 223,-0.5"/>
<text text-anchor="middle" x="245" y="-7.5" font-family="Helvetica,sans-Serif" font-size="10.00">vector</text>
</g>
<!-- Node2&#45;&gt;Node18 -->
<g id="edge17" class="edge"><title>Node2&#45;&gt;Node18</title>
<path fill="none" stroke="midnightblue" d="M647.101,-113.67C539.423,-100.919 329,-76 329,-76 301.676,-64.8252 275.676,-42.2067 260.03,-26.8278"/>
<polygon fill="midnightblue" stroke="midnightblue" points="262.356,-24.202 252.84,-19.5445 257.375,-29.1198 262.356,-24.202"/>
</g>
<!-- Node19 -->
<g id="node19" class="node"><title>Node19</title>
<polygon fill="white" stroke="#bfbfbf" points="621.5,-56.5 621.5,-75.5 664.5,-75.5 664.5,-56.5 621.5,-56.5"/>
<text text-anchor="middle" x="643" y="-63.5" font-family="Helvetica,sans-Serif" font-size="10.00">deque</text>
</g>
<!-- Node2&#45;&gt;Node19 -->
<g id="edge18" class="edge"><title>Node2&#45;&gt;Node19</title>
<path fill="none" stroke="midnightblue" d="M698.396,-112.324C688.544,-104.263 673.649,-92.0765 661.785,-82.3695"/>
<polygon fill="midnightblue" stroke="midnightblue" points="663.753,-79.4575 653.797,-75.8339 659.32,-84.8752 663.753,-79.4575"/>
</g>
<!-- Node20 -->
<g id="node20" class="node"><title>Node20</title>
<polygon fill="white" stroke="#bfbfbf" points="285,-0.5 285,-19.5 329,-19.5 329,-0.5 285,-0.5"/>
<text text-anchor="middle" x="307" y="-7.5" font-family="Helvetica,sans-Serif" font-size="10.00">mutex</text>
</g>
<!-- Node2&#45;&gt;Node20 -->
<g id="edge19" class="edge"><title>Node2&#45;&gt;Node20</title>
<path fill="none" stroke="midnightblue" d="M647.25,-113.511C546.154,-101.207 356.134,-77.8803 353,-76 335.084,-65.2524 322.29,-44.5421 314.814,-29.3772"/>
<polygon fill="midnightblue" stroke="midnightblue" points="317.843,-27.5842 310.491,-19.9549 311.48,-30.5035 317.843,-27.5842"/>
</g>
<!-- Node21 -->
<g id="node21" class="node"><title>Node21</title>
<polygon fill="white" stroke="#bfbfbf" points="347,-0.5 347,-19.5 391,-19.5 391,-0.5 347,-0.5"/>
<text text-anchor="middle" x="369" y="-7.5" font-family="Helvetica,sans-Serif" font-size="10.00">thread</text>
</g>
<!-- Node2&#45;&gt;Node21 -->
<g id="edge20" class="edge"><title>Node2&#45;&gt;Node21</title>
<path fill="none" stroke="midnightblue" d="M647.433,-113.484C548.853,-101.38 366.326,-78.6489 364,-76 352.943,-63.4074 356.349,-43.638 361.186,-29.2057"/>
<polygon fill="midnightblue" stroke="midnightblue" points="364.473,-30.4096 364.775,-19.8191 357.935,-27.9096 364.473,-30.4096"/>
</g>
<!-- Node22 -->
<g id="node22" class="node"><title>Node22</title>
<polygon fill="white" stroke="#bfbfbf" points="455.5,-0.5 455.5,-19.5 550.5,-19.5 550.5,-0.5 455.5,-0.5"/>
<text text-anchor="middle" x="503" y="-7.5" font-family="Helvetica,sans-Serif" font-size="10.00">condition_variable</text>
</g>
<!-- Node2&#45;&gt;Node22 -->
<g id="edge21" class="edge"><title>Node2&#45;&gt;Node22</title>
<path fill="none" stroke="midnightblue" d="M679.631,-112.437C654.913,-104.642 619.05,-91.9303 590,-76 564.097,-61.7954 537.311,-40.6288 520.426,-26.3438"/>
<polygon fill="midnightblue" stroke="midnightblue" points="522.42,-23.4421 512.556,-19.5743 517.855,-28.7489 522.42,-23.4421"/>
</g>
<!-- Node23 -->
<g id="node23" class="node"><title>Node23</title>
<polygon fill="white" stroke="#bfbfbf" points="568.5,-0.5 568.5,-19.5 611.5,-19.5 611.5,-0.5 568.5,-0.5"/>
<text text-anchor="middle" x="590" y="-7.5" font-family="Helvetica,sans-Serif" font-size="10.00">queue</text>
</g>
<!-- Node2&#45;&gt;Node23 -->
<g id="edge22" class="edge"><title>Node2&#45;&gt;Node23</title>
<path fill="none" stroke="midnightblue" d="M667.278,-112.473C645.704,-105.976 620.678,-94.8182 605,-76 594.237,-63.0813 590.858,-43.909 589.949,-29.7316"/>
<polygon fill="midnightblue" stroke="midnightblue" points="593.445,-29.5414 589.655,-19.6475 586.448,-29.745 593.445,-29.5414"/>
</g>
<!-- Node24 -->
<g id="node24" class="node"><title>Node24</title>
<polygon fill="white" stroke="#bfbfbf" points="683,-56.5 683,-75.5 735,-75.5 735,-56.5 683,-56.5"/>
<text text-anchor="middle" x="709" y="-63.5" font-family="Helvetica,sans-Serif" font-size="10.00">sstream</text>
</g>
<!-- Node2&#45;&gt;Node24 -->
<g id="edge23" class="edge"><title>Node2&#45;&gt;Node24</title>
<path fill="none" stroke="midnightblue" d="M709,-112.083C709,-105.006 709,-94.8611 709,-85.9865"/>
<polygon fill="midnightblue" stroke="midnightblue" points="712.5,-85.751 709,-75.7511 705.5,-85.7511 712.5,-85.751"/>
</g>
<!-- Node25 -->
<g id="node25" class="node"><title>Node25</title>
<polygon fill="white" stroke="#bfbfbf" points="629.5,-0.5 629.5,-19.5 664.5,-19.5 664.5,-0.5 629.5,-0.5"/>
<text text-anchor="middle" x="647" y="-7.5" font-family="Helvetica,sans-Serif" font-size="10.00">map</text>
</g>
<!-- Node2&#45;&gt;Node25 -->
<g id="edge24" class="edge"><title>Node2&#45;&gt;Node25</title>
<path fill="none" stroke="midnightblue" d="M667.529,-112.497C647.414,-106.06 625.047,-94.9516 613,-76 602.72,-59.8281 616.271,-40.2112 629.189,-26.7859"/>
<polygon fill="midnightblue" stroke="midnightblue" points="631.789,-29.1407 636.538,-19.6697 626.919,-24.1121 631.789,-29.1407"/>
</g>
<!-- Node26 -->
<g id="node26" class="node"><title>Node26</title>
<g id="a_node26"><a xlink:href="cosmos-defs_8h.html" target="_top" xlink:title="COSMOS definitions Definitions specific to the COSMOS environement. ">
<polygon fill="white" stroke="black" points="373,-56.5 373,-75.5 489,-75.5 489,-56.5 373,-56.5"/>
<text text-anchor="middle" x="431" y="-63.5" font-family="Helvetica,sans-Serif" font-size="10.00">support/cosmos&#45;defs.h</text>
</a>
</g>
</g>
<!-- Node2&#45;&gt;Node26 -->
<g id="edge25" class="edge"><title>Node2&#45;&gt;Node26</title>
<path fill="none" stroke="midnightblue" d="M664.95,-112.444C616.149,-102.964 537.437,-87.6747 484.97,-77.4835"/>
<polygon fill="midnightblue" stroke="midnightblue" points="485.328,-73.9875 474.844,-75.5164 483.993,-80.8591 485.328,-73.9875"/>
</g>
<!-- Node26&#45;&gt;Node18 -->
<g id="edge27" class="edge"><title>Node26&#45;&gt;Node18</title>
<path fill="none" stroke="midnightblue" d="M401.528,-56.4435C367.498,-46.5639 311.731,-30.3734 276.76,-20.2208"/>
<polygon fill="midnightblue" stroke="midnightblue" points="277.633,-16.8296 267.053,-17.4026 275.681,-23.552 277.633,-16.8296"/>
</g>
<!-- Node26&#45;&gt;Node20 -->
<g id="edge31" class="edge"><title>Node26&#45;&gt;Node20</title>
<path fill="none" stroke="midnightblue" d="M411.352,-56.4435C391.035,-47.5961 359.097,-33.6875 335.902,-23.5865"/>
<polygon fill="midnightblue" stroke="midnightblue" points="337.122,-20.3002 326.556,-19.5164 334.327,-26.7181 337.122,-20.3002"/>
</g>
<!-- Node26&#45;&gt;Node21 -->
<g id="edge30" class="edge"><title>Node26&#45;&gt;Node21</title>
<path fill="none" stroke="midnightblue" d="M421.039,-56.324C411.873,-48.3414 398.063,-36.3128 386.972,-26.6529"/>
<polygon fill="midnightblue" stroke="midnightblue" points="388.982,-23.7624 379.143,-19.8339 384.385,-29.041 388.982,-23.7624"/>
</g>
<!-- Node26&#45;&gt;Node22 -->
<g id="edge32" class="edge"><title>Node26&#45;&gt;Node22</title>
<path fill="none" stroke="midnightblue" d="M442.568,-56.324C453.42,-48.1849 469.881,-35.8395 482.883,-26.0874"/>
<polygon fill="midnightblue" stroke="midnightblue" points="485.321,-28.6339 491.221,-19.8339 481.121,-23.0339 485.321,-28.6339"/>
</g>
<!-- Node26&#45;&gt;Node23 -->
<g id="edge29" class="edge"><title>Node26&#45;&gt;Node23</title>
<path fill="none" stroke="midnightblue" d="M456.194,-56.4435C484.044,-46.985 528.926,-31.7421 558.933,-21.551"/>
<polygon fill="midnightblue" stroke="midnightblue" points="560.15,-24.8342 568.493,-18.3042 557.899,-18.206 560.15,-24.8342"/>
</g>
<!-- Node26&#45;&gt;Node25 -->
<g id="edge26" class="edge"><title>Node26&#45;&gt;Node25</title>
<path fill="none" stroke="midnightblue" d="M472.453,-56.4426C509.039,-48.6094 563.966,-36.1691 619.765,-20.1564"/>
<polygon fill="midnightblue" stroke="midnightblue" points="620.828,-23.4924 629.455,-17.3417 618.875,-16.7703 620.828,-23.4924"/>
</g>
<!-- Node27 -->
<g id="node27" class="node"><title>Node27</title>
<polygon fill="white" stroke="#bfbfbf" points="408.5,-0.5 408.5,-19.5 437.5,-19.5 437.5,-0.5 408.5,-0.5"/>
<text text-anchor="middle" x="423" y="-7.5" font-family="Helvetica,sans-Serif" font-size="10.00">list</text>
</g>
<!-- Node26&#45;&gt;Node27 -->
<g id="edge28" class="edge"><title>Node26&#45;&gt;Node27</title>
<path fill="none" stroke="midnightblue" d="M429.679,-56.083C428.619,-48.9272 427.094,-38.6353 425.769,-29.6911"/>
<polygon fill="midnightblue" stroke="midnightblue" points="429.224,-29.1302 424.296,-19.7511 422.3,-30.1561 429.224,-29.1302"/>
</g>
<!-- Node28&#45;&gt;Node2 -->
<g id="edge34" class="edge"><title>Node28&#45;&gt;Node2</title>
<path fill="none" stroke="midnightblue" d="M659.459,-280.49C649.521,-272.379 635.878,-259.178 630,-244 626.79,-235.711 627.104,-232.404 630,-224 642.059,-189.01 671.773,-156.87 691.125,-138.636"/>
<polygon fill="midnightblue" stroke="midnightblue" points="693.686,-141.036 698.703,-131.704 688.962,-135.871 693.686,-141.036"/>
</g>
<!-- Node29 -->
<g id="node29" class="node"><title>Node29</title>
<g id="a_node29"><a xlink:href="sliplib_8h.html" target="_top" xlink:title="COSMOS SLIP support include file. ">
<polygon fill="white" stroke="black" points="638.5,-224.5 638.5,-243.5 723.5,-243.5 723.5,-224.5 638.5,-224.5"/>
<text text-anchor="middle" x="681" y="-231.5" font-family="Helvetica,sans-Serif" font-size="10.00">support/sliplib.h</text>
</a>
</g>
</g>
<!-- Node28&#45;&gt;Node29 -->
<g id="edge35" class="edge"><title>Node28&#45;&gt;Node29</title>
<path fill="none" stroke="midnightblue" d="M672.651,-280.083C673.976,-272.927 675.882,-262.635 677.539,-253.691"/>
<polygon fill="midnightblue" stroke="midnightblue" points="681,-254.221 679.379,-243.751 674.117,-252.947 681,-254.221"/>
</g>
<!-- Node29&#45;&gt;Node2 -->
<g id="edge36" class="edge"><title>Node29&#45;&gt;Node2</title>
<path fill="none" stroke="midnightblue" d="M683.197,-224.368C687.716,-206.617 698.139,-165.666 704.266,-141.597"/>
<polygon fill="midnightblue" stroke="midnightblue" points="707.738,-142.146 706.813,-131.591 700.954,-140.419 707.738,-142.146"/>
</g>
<!-- Node29&#45;&gt;Node11 -->
<g id="edge40" class="edge"><title>Node29&#45;&gt;Node11</title>
<path fill="none" stroke="midnightblue" d="M645.612,-224.498C551.451,-201.798 286.782,-137.471 55.9746,-76.2054"/>
<polygon fill="midnightblue" stroke="midnightblue" points="56.6141,-72.7539 46.0506,-73.5674 54.8158,-79.519 56.6141,-72.7539"/>
</g>
<!-- Node30 -->
<g id="node30" class="node"><title>Node30</title>
<g id="a_node30"><a xlink:href="cosmos-errno_8h.html" target="_top" xlink:title="COSMOS Error Codes. ">
<polygon fill="white" stroke="black" points="711.5,-168.5 711.5,-187.5 830.5,-187.5 830.5,-168.5 711.5,-168.5"/>
<text text-anchor="middle" x="771" y="-175.5" font-family="Helvetica,sans-Serif" font-size="10.00">support/cosmos&#45;errno.h</text>
</a>
</g>
</g>
<!-- Node29&#45;&gt;Node30 -->
<g id="edge37" class="edge"><title>Node29&#45;&gt;Node30</title>
<path fill="none" stroke="midnightblue" d="M695.46,-224.324C709.5,-215.9 731.048,-202.971 747.543,-193.074"/>
<polygon fill="midnightblue" stroke="midnightblue" points="749.802,-195.801 756.576,-187.655 746.2,-189.798 749.802,-195.801"/>
</g>
<!-- Node30&#45;&gt;Node2 -->
<g id="edge38" class="edge"><title>Node30&#45;&gt;Node2</title>
<path fill="none" stroke="midnightblue" d="M761.039,-168.324C751.873,-160.341 738.063,-148.313 726.972,-138.653"/>
<polygon fill="midnightblue" stroke="midnightblue" points="728.982,-135.762 719.143,-131.834 724.385,-141.041 728.982,-135.762"/>
</g>
<!-- Node31 -->
<g id="node31" class="node"><title>Node31</title>
<polygon fill="white" stroke="#bfbfbf" points="788.5,-112.5 788.5,-131.5 835.5,-131.5 835.5,-112.5 788.5,-112.5"/>
<text text-anchor="middle" x="812" y="-119.5" font-family="Helvetica,sans-Serif" font-size="10.00">errno.h</text>
</g>
<!-- Node30&#45;&gt;Node31 -->
<g id="edge39" class="edge"><title>Node30&#45;&gt;Node31</title>
<path fill="none" stroke="midnightblue" d="M777.77,-168.083C783.562,-160.455 792.058,-149.264 799.138,-139.941"/>
<polygon fill="midnightblue" stroke="midnightblue" points="802.096,-141.832 805.356,-131.751 796.521,-137.599 802.096,-141.832"/>
</g>
<!-- Node32&#45;&gt;Node2 -->
<g id="edge42" class="edge"><title>Node32&#45;&gt;Node2</title>
<path fill="none" stroke="midnightblue" d="M943.792,-168.444C894.713,-158.944 815.49,-143.611 762.836,-133.42"/>
<polygon fill="midnightblue" stroke="midnightblue" points="763.484,-129.98 753.002,-131.516 762.154,-136.853 763.484,-129.98"/>
</g>
<!-- Node32&#45;&gt;Node14 -->
<g id="edge43" class="edge"><title>Node32&#45;&gt;Node14</title>
<path fill="none" stroke="midnightblue" d="M1021.77,-168.46C1101.87,-148.205 1302.86,-97.3802 1386.05,-76.3428"/>
<polygon fill="midnightblue" stroke="midnightblue" points="1386.99,-79.7151 1395.83,-73.8703 1385.28,-72.9287 1386.99,-79.7151"/>
</g>
<!-- Node32&#45;&gt;Node17 -->
<g id="edge44" class="edge"><title>Node32&#45;&gt;Node17</title>
<path fill="none" stroke="midnightblue" d="M983.728,-168.139C977.743,-154.283 969.062,-127.473 983,-112 1032.53,-57.0112 1235.75,-88.5497 1326.5,-75.4337"/>
<polygon fill="midnightblue" stroke="midnightblue" points="1327.21,-78.8617 1336.47,-73.7108 1326.02,-71.9638 1327.21,-78.8617"/>
</g>
<!-- Node33 -->
<g id="node33" class="node"><title>Node33</title>
<polygon fill="white" stroke="#bfbfbf" points="991.5,-112.5 991.5,-131.5 1032.5,-131.5 1032.5,-112.5 991.5,-112.5"/>
<text text-anchor="middle" x="1012" y="-119.5" font-family="Helvetica,sans-Serif" font-size="10.00">ctime</text>
</g>
<!-- Node32&#45;&gt;Node33 -->
<g id="edge45" class="edge"><title>Node32&#45;&gt;Node33</title>
<path fill="none" stroke="midnightblue" d="M991.963,-168.083C995.213,-160.77 999.919,-150.181 1003.95,-141.103"/>
<polygon fill="midnightblue" stroke="midnightblue" points="1007.25,-142.311 1008.11,-131.751 1000.85,-139.468 1007.25,-142.311"/>
</g>
<!-- Node34 -->
<g id="node34" class="node"><title>Node34</title>
<polygon fill="white" stroke="#bfbfbf" points="1051,-112.5 1051,-131.5 1097,-131.5 1097,-112.5 1051,-112.5"/>
<text text-anchor="middle" x="1074" y="-119.5" font-family="Helvetica,sans-Serif" font-size="10.00">chrono</text>
</g>
<!-- Node32&#45;&gt;Node34 -->
<g id="edge46" class="edge"><title>Node32&#45;&gt;Node34</title>
<path fill="none" stroke="midnightblue" d="M1001.82,-168.324C1015.23,-159.9 1035.82,-146.971 1051.59,-137.074"/>
<polygon fill="midnightblue" stroke="midnightblue" points="1053.61,-139.936 1060.22,-131.655 1049.89,-134.008 1053.61,-139.936"/>
</g>
</g>
</svg>
        <g id="navigator" transform="translate(0 0)" fill="#404254">
                <rect fill="#f2f5e9" fill-opacity="0.5" stroke="#606060" stroke-width=".5" x="0" y="0" width="60" height="60"/>
                <use id="zoomplus" xlink:href="#zoomPlus" x="17" y="9" onmousedown="handleZoom(evt,'in')"/>
                <use id="zoomminus" xlink:href="#zoomMin" x="42" y="9" onmousedown="handleZoom(evt,'out')"/>
                <use id="reset" xlink:href="#resetDef" x="30" y="36" onmousedown="handleReset()"/>
                <g id="arrowUp" xlink:href="#dirArrow" transform="translate(30 24)" onmousedown="handlePan(0,-1)">
                  <use xlink:href="#rim" fill="#404040">
                        <set attributeName="fill" to="#808080" begin="arrowUp.mouseover" end="arrowUp.mouseout"/>
                  </use>
                  <path fill="none" stroke="white" stroke-width="1.5" d="M0,-3.0v7 M-2.5,-0.5L0,-3.0L2.5,-0.5"/>
                </g>
                <g id="arrowRight" xlink:href="#dirArrow" transform="rotate(90) translate(36 -43)" onmousedown="handlePan(1,0)">
                  <use xlink:href="#rim" fill="#404040">
                        <set attributeName="fill" to="#808080" begin="arrowRight.mouseover" end="arrowRight.mouseout"/>
                  </use>
                  <path fill="none" stroke="white" stroke-width="1.5" d="M0,-3.0v7 M-2.5,-0.5L0,-3.0L2.5,-0.5"/>
                </g>
                <g id="arrowDown" xlink:href="#dirArrow" transform="rotate(180) translate(-30 -48)" onmousedown="handlePan(0,1)">
                  <use xlink:href="#rim" fill="#404040">
                        <set attributeName="fill" to="#808080" begin="arrowDown.mouseover" end="arrowDown.mouseout"/>
                  </use>
                  <path fill="none" stroke="white" stroke-width="1.5" d="M0,-3.0v7 M-2.5,-0.5L0,-3.0L2.5,-0.5"/>
                </g>
                <g id="arrowLeft" xlink:href="#dirArrow" transform="rotate(270) translate(-36 17)" onmousedown="handlePan(-1,0)">
                  <use xlink:href="#rim" fill="#404040">
                        <set attributeName="fill" to="#808080" begin="arrowLeft.mouseover" end="arrowLeft.mouseout"/>
                  </use>
                  <path fill="none" stroke="white" stroke-width="1.5" d="M0,-3.0v7 M-2.5,-0.5L0,-3.0L2.5,-0.5"/>
                </g>
        </g>
        <svg viewBox="0 0 15 15" width="100%" height="30px" preserveAspectRatio="xMaxYMin meet">
         <g id="arrow_out" transform="scale(0.3 0.3)">
          <a xlink:href="serial__listen_8cpp__incl_org.svg" target="_base">
           <rect id="button" ry="5" rx="5" y="6" x="6" height="38" width="38"
                fill="#f2f5e9" fill-opacity="0.5" stroke="#606060" stroke-width="1.0"/>
           <path id="arrow"
             d="M 11.500037,31.436501 C 11.940474,20.09759 22.043105,11.32322 32.158766,21.979434 L 37.068811,17.246167 C 37.068811,17.246167 37.088388,32 37.088388,32 L 22.160133,31.978069 C 22.160133,31.978069 26.997745,27.140456 26.997745,27.140456 C 18.528582,18.264221 13.291696,25.230495 11.500037,31.436501 z"
             style="fill:#404040;"/>
          </a>
         </g>
        </svg>
</svg>
