<?xml version="1.0" encoding="UTF-8" standalone="no"?>
<!DOCTYPE svg PUBLIC "-//W3C//DTD SVG 1.1//EN"
 "http://www.w3.org/Graphics/SVG/1.1/DTD/svg11.dtd">
<!-- Generated by graphviz version 2.38.0 (20140413.2041)
 -->
<!-- Title: serialclass.h Pages: 1 -->
<svg width="732pt" height="140pt"
 viewBox="0.00 0.00 732.00 140.00" xmlns="http://www.w3.org/2000/svg" xmlns:xlink="http://www.w3.org/1999/xlink">
<g id="graph0" class="graph" transform="scale(1 1) rotate(0) translate(4 136)">
<title>serialclass.h</title>
<polygon fill="white" stroke="none" points="-4,4 -4,-136 728,-136 728,4 -4,4"/>
<!-- Node1 -->
<g id="node1" class="node"><title>Node1</title>
<polygon fill="#bfbfbf" stroke="black" points="324.5,-112.5 324.5,-131.5 395.5,-131.5 395.5,-112.5 324.5,-112.5"/>
<text text-anchor="middle" x="360" y="-119.5" font-family="Helvetica,sans-Serif" font-size="10.00">serialclass.h</text>
</g>
<!-- Node2 -->
<g id="node2" class="node"><title>Node2</title>
<g id="a_node2"><a xlink:href="prkx2su__class_8h.html" target="_top" xlink:title="prkx2su_class.h">
<polygon fill="white" stroke="black" points="10,-56.5 10,-75.5 98,-75.5 98,-56.5 10,-56.5"/>
<text text-anchor="middle" x="54" y="-63.5" font-family="Helvetica,sans-Serif" font-size="10.00">prkx2su_class.h</text>
</a>
</g>
</g>
<!-- Node1&#45;&gt;Node2 -->
<g id="edge1" class="edge"><title>Node1&#45;&gt;Node2</title>
<path fill="none" stroke="midnightblue" d="M314.259,-112.928C255.903,-102.63 155.658,-84.9396 98.1,-74.7824"/>
<polygon fill="midnightblue" stroke="midnightblue" points="313.843,-116.409 324.299,-114.7 315.059,-109.515 313.843,-116.409"/>
</g>
<!-- Node4 -->
<g id="node4" class="node"><title>Node4</title>
<g id="a_node4"><a xlink:href="prkx2su__lib_8h.html" target="_top" xlink:title="prkx2su controller includes ">
<polygon fill="white" stroke="black" points="122,-56.5 122,-75.5 196,-75.5 196,-56.5 122,-56.5"/>
<text text-anchor="middle" x="159" y="-63.5" font-family="Helvetica,sans-Serif" font-size="10.00">prkx2su_lib.h</text>
</a>
</g>
</g>
<!-- Node1&#45;&gt;Node4 -->
<g id="edge3" class="edge"><title>Node1&#45;&gt;Node4</title>
<path fill="none" stroke="midnightblue" d="M318.419,-109.829C280.469,-99.6333 225.19,-84.7823 190.7,-75.5164"/>
<polygon fill="midnightblue" stroke="midnightblue" points="317.585,-113.229 328.151,-112.444 319.402,-106.469 317.585,-113.229"/>
</g>
<!-- Node7 -->
<g id="node7" class="node"><title>Node7</title>
<g id="a_node7"><a xlink:href="serialclass_8cpp.html" target="_top" xlink:title="serialclass.cpp">
<polygon fill="white" stroke="black" points="214,-56.5 214,-75.5 296,-75.5 296,-56.5 214,-56.5"/>
<text text-anchor="middle" x="255" y="-63.5" font-family="Helvetica,sans-Serif" font-size="10.00">serialclass.cpp</text>
</a>
</g>
</g>
<!-- Node1&#45;&gt;Node7 -->
<g id="edge6" class="edge"><title>Node1&#45;&gt;Node7</title>
<path fill="none" stroke="midnightblue" d="M334.19,-107.726C314.747,-97.7271 288.652,-84.3065 271.828,-75.6545"/>
<polygon fill="midnightblue" stroke="midnightblue" points="332.636,-110.863 343.13,-112.324 335.838,-104.638 332.636,-110.863"/>
</g>
<!-- Node8 -->
<g id="node8" class="node"><title>Node8</title>
<g id="a_node8"><a xlink:href="agent__tunnel_8cpp.html" target="_top" xlink:title="agent_tunnel.cpp">
<polygon fill="white" stroke="black" points="314.5,-56.5 314.5,-75.5 405.5,-75.5 405.5,-56.5 314.5,-56.5"/>
<text text-anchor="middle" x="360" y="-63.5" font-family="Helvetica,sans-Serif" font-size="10.00">agent_tunnel.cpp</text>
</a>
</g>
</g>
<!-- Node1&#45;&gt;Node8 -->
<g id="edge7" class="edge"><title>Node1&#45;&gt;Node8</title>
<path fill="none" stroke="midnightblue" d="M360,-101.805C360,-92.9102 360,-82.7798 360,-75.7511"/>
<polygon fill="midnightblue" stroke="midnightblue" points="356.5,-102.083 360,-112.083 363.5,-102.083 356.5,-102.083"/>
</g>
<!-- Node9 -->
<g id="node9" class="node"><title>Node9</title>
<g id="a_node9"><a xlink:href="agent__tunnel2_8cpp.html" target="_top" xlink:title="agent_tunnel2.cpp">
<polygon fill="white" stroke="black" points="424,-56.5 424,-75.5 520,-75.5 520,-56.5 424,-56.5"/>
<text text-anchor="middle" x="472" y="-63.5" font-family="Helvetica,sans-Serif" font-size="10.00">agent_tunnel2.cpp</text>
</a>
</g>
</g>
<!-- Node1&#45;&gt;Node9 -->
<g id="edge8" class="edge"><title>Node1&#45;&gt;Node9</title>
<path fill="none" stroke="midnightblue" d="M387.249,-107.862C408.016,-97.8492 436.023,-84.3458 454.05,-75.6545"/>
<polygon fill="midnightblue" stroke="midnightblue" points="385.482,-104.828 377.995,-112.324 388.523,-111.134 385.482,-104.828"/>
</g>
<!-- Node10 -->
<g id="node10" class="node"><title>Node10</title>
<g id="a_node10"><a xlink:href="serial__listen_8cpp.html" target="_top" xlink:title="serial_listen.cpp">
<polygon fill="white" stroke="black" points="538.5,-56.5 538.5,-75.5 625.5,-75.5 625.5,-56.5 538.5,-56.5"/>
<text text-anchor="middle" x="582" y="-63.5" font-family="Helvetica,sans-Serif" font-size="10.00">serial_listen.cpp</text>
</a>
</g>
</g>
<!-- Node1&#45;&gt;Node10 -->
<g id="edge9" class="edge"><title>Node1&#45;&gt;Node10</title>
<path fill="none" stroke="midnightblue" d="M405.125,-110.024C447.06,-99.8232 508.652,-84.8414 546.988,-75.5164"/>
<polygon fill="midnightblue" stroke="midnightblue" points="404.066,-106.679 395.177,-112.444 405.72,-113.481 404.066,-106.679"/>
</g>
<!-- Node11 -->
<g id="node11" class="node"><title>Node11</title>
<g id="a_node11"><a xlink:href="serial__talk_8cpp.html" target="_top" xlink:title="serial_talk.cpp">
<polygon fill="white" stroke="black" points="644,-56.5 644,-75.5 724,-75.5 724,-56.5 644,-56.5"/>
<text text-anchor="middle" x="684" y="-63.5" font-family="Helvetica,sans-Serif" font-size="10.00">serial_talk.cpp</text>
</a>
</g>
</g>
<!-- Node1&#45;&gt;Node11 -->
<g id="edge10" class="edge"><title>Node1&#45;&gt;Node11</title>
<path fill="none" stroke="midnightblue" d="M405.686,-113.803C460.289,-105.136 554.398,-89.9956 635,-76 637.897,-75.4969 640.889,-74.9687 643.9,-74.4309"/>
<polygon fill="midnightblue" stroke="midnightblue" points="404.964,-110.373 395.635,-115.396 406.06,-117.287 404.964,-110.373"/>
</g>
<!-- Node3 -->
<g id="node3" class="node"><title>Node3</title>
<g id="a_node3"><a xlink:href="prkx2su__class_8cpp.html" target="_top" xlink:title="prkx2su_class.cpp">
<polygon fill="white" stroke="black" points="0,-0.5 0,-19.5 98,-19.5 98,-0.5 0,-0.5"/>
<text text-anchor="middle" x="49" y="-7.5" font-family="Helvetica,sans-Serif" font-size="10.00">prkx2su_class.cpp</text>
</a>
</g>
</g>
<!-- Node2&#45;&gt;Node3 -->
<g id="edge2" class="edge"><title>Node2&#45;&gt;Node3</title>
<path fill="none" stroke="midnightblue" d="M52.25,-46.1005C51.42,-37.1357 50.4683,-26.8579 49.8103,-19.7511"/>
<polygon fill="midnightblue" stroke="midnightblue" points="48.7672,-46.4483 53.1744,-56.083 55.7374,-45.8029 48.7672,-46.4483"/>
</g>
<!-- Node5 -->
<g id="node5" class="node"><title>Node5</title>
<g id="a_node5"><a xlink:href="prkx2su__lib_8cpp.html" target="_top" xlink:title="prkx2su_lib.cpp">
<polygon fill="white" stroke="black" points="116.5,-0.5 116.5,-19.5 201.5,-19.5 201.5,-0.5 116.5,-0.5"/>
<text text-anchor="middle" x="159" y="-7.5" font-family="Helvetica,sans-Serif" font-size="10.00">prkx2su_lib.cpp</text>
</a>
</g>
</g>
<!-- Node4&#45;&gt;Node5 -->
<g id="edge4" class="edge"><title>Node4&#45;&gt;Node5</title>
<path fill="none" stroke="midnightblue" d="M159,-45.8045C159,-36.9102 159,-26.7798 159,-19.7511"/>
<polygon fill="midnightblue" stroke="midnightblue" points="155.5,-46.083 159,-56.083 162.5,-46.083 155.5,-46.083"/>
</g>
<!-- Node6 -->
<g id="node6" class="node"><title>Node6</title>
<g id="a_node6"><a xlink:href="agent__antenna_8cpp.html" target="_top" xlink:title="Agent Antenna for Satellite Ground Station. ">
<polygon fill="white" stroke="black" points="219.5,-0.5 219.5,-19.5 318.5,-19.5 318.5,-0.5 219.5,-0.5"/>
<text text-anchor="middle" x="269" y="-7.5" font-family="Helvetica,sans-Serif" font-size="10.00">agent_antenna.cpp</text>
</a>
</g>
</g>
<!-- Node4&#45;&gt;Node6 -->
<g id="edge5" class="edge"><title>Node4&#45;&gt;Node6</title>
<path fill="none" stroke="midnightblue" d="M185.762,-51.8622C206.159,-41.8492 233.666,-28.3458 251.37,-19.6545"/>
<polygon fill="midnightblue" stroke="midnightblue" points="184.108,-48.7753 176.673,-56.324 187.192,-55.059 184.108,-48.7753"/>
</g>
</g>
</svg>
