<?xml version="1.0" encoding="UTF-8" standalone="no"?>
<!DOCTYPE svg PUBLIC "-//W3C//DTD SVG 1.1//EN"
 "http://www.w3.org/Graphics/SVG/1.1/DTD/svg11.dtd">
<!-- Generated by graphviz version 2.38.0 (20140413.2041)
 -->
<!-- Title: sliplib.h Pages: 1 -->
<svg width="1459pt" height="252pt"
 viewBox="0.00 0.00 1459.00 252.00" xmlns="http://www.w3.org/2000/svg" xmlns:xlink="http://www.w3.org/1999/xlink">
<g id="graph0" class="graph" transform="scale(1 1) rotate(0) translate(4 248)">
<title>sliplib.h</title>
<polygon fill="white" stroke="none" points="-4,4 -4,-248 1455,-248 1455,4 -4,4"/>
<!-- Node1 -->
<g id="node1" class="node"><title>Node1</title>
<polygon fill="#bfbfbf" stroke="black" points="674,-224.5 674,-243.5 724,-243.5 724,-224.5 674,-224.5"/>
<text text-anchor="middle" x="699" y="-231.5" font-family="Helvetica,sans-Serif" font-size="10.00">sliplib.h</text>
</g>
<!-- Node2 -->
<g id="node2" class="node"><title>Node2</title>
<g id="a_node2"><a xlink:href="config_cosmos_8h.html" target="_top" xlink:title="Headers and definitions common to all COSMOS. ">
<polygon fill="white" stroke="black" points="681.5,-112.5 681.5,-131.5 804.5,-131.5 804.5,-112.5 681.5,-112.5"/>
<text text-anchor="middle" x="743" y="-119.5" font-family="Helvetica,sans-Serif" font-size="10.00">support/configCosmos.h</text>
</a>
</g>
</g>
<!-- Node1&#45;&gt;Node2 -->
<g id="edge1" class="edge"><title>Node1&#45;&gt;Node2</title>
<path fill="none" stroke="midnightblue" d="M700.872,-224.378C703.763,-211.729 709.842,-187.527 718,-168 721.962,-158.517 727.409,-148.473 732.208,-140.285"/>
<polygon fill="midnightblue" stroke="midnightblue" points="735.237,-142.04 737.415,-131.672 729.246,-138.419 735.237,-142.04"/>
</g>
<!-- Node11 -->
<g id="node11" class="node"><title>Node11</title>
<polygon fill="white" stroke="#bfbfbf" points="0,-56.5 0,-75.5 46,-75.5 46,-56.5 0,-56.5"/>
<text text-anchor="middle" x="23" y="-63.5" font-family="Helvetica,sans-Serif" font-size="10.00">cstring</text>
</g>
<!-- Node1&#45;&gt;Node11 -->
<g id="edge36" class="edge"><title>Node1&#45;&gt;Node11</title>
<path fill="none" stroke="midnightblue" d="M673.756,-227.182C588.391,-207.436 302.548,-140.742 55.9093,-76.1723"/>
<polygon fill="midnightblue" stroke="midnightblue" points="56.6065,-72.7369 46.0457,-73.5857 54.8308,-79.5079 56.6065,-72.7369"/>
</g>
<!-- Node28 -->
<g id="node28" class="node"><title>Node28</title>
<g id="a_node28"><a xlink:href="cosmos-errno_8h.html" target="_top" xlink:title="COSMOS Error Codes. ">
<polygon fill="white" stroke="black" points="727.5,-168.5 727.5,-187.5 846.5,-187.5 846.5,-168.5 727.5,-168.5"/>
<text text-anchor="middle" x="787" y="-175.5" font-family="Helvetica,sans-Serif" font-size="10.00">support/cosmos&#45;errno.h</text>
</a>
</g>
</g>
<!-- Node1&#45;&gt;Node28 -->
<g id="edge33" class="edge"><title>Node1&#45;&gt;Node28</title>
<path fill="none" stroke="midnightblue" d="M713.139,-224.324C726.866,-215.9 747.936,-202.971 764.064,-193.074"/>
<polygon fill="midnightblue" stroke="midnightblue" points="766.204,-195.868 772.896,-187.655 762.543,-189.902 766.204,-195.868"/>
</g>
<!-- Node3 -->
<g id="node3" class="node"><title>Node3</title>
<polygon fill="white" stroke="#bfbfbf" points="1276.5,-56.5 1276.5,-75.5 1321.5,-75.5 1321.5,-56.5 1276.5,-56.5"/>
<text text-anchor="middle" x="1299" y="-63.5" font-family="Helvetica,sans-Serif" font-size="10.00">climits</text>
</g>
<!-- Node2&#45;&gt;Node3 -->
<g id="edge2" class="edge"><title>Node2&#45;&gt;Node3</title>
<path fill="none" stroke="midnightblue" d="M804.553,-113.019C807.747,-112.661 810.91,-112.318 814,-112 1011.67,-91.6288 1066.42,-110.869 1266.46,-75.7155"/>
<polygon fill="midnightblue" stroke="midnightblue" points="1267.17,-79.1433 1276.4,-73.9442 1265.94,-72.2518 1267.17,-79.1433"/>
</g>
<!-- Node4 -->
<g id="node4" class="node"><title>Node4</title>
<polygon fill="white" stroke="#bfbfbf" points="1339.5,-56.5 1339.5,-75.5 1386.5,-75.5 1386.5,-56.5 1339.5,-56.5"/>
<text text-anchor="middle" x="1363" y="-63.5" font-family="Helvetica,sans-Serif" font-size="10.00">csignal</text>
</g>
<!-- Node2&#45;&gt;Node4 -->
<g id="edge3" class="edge"><title>Node2&#45;&gt;Node4</title>
<path fill="none" stroke="midnightblue" d="M804.55,-112.982C807.744,-112.633 810.909,-112.303 814,-112 1039.99,-89.8267 1102.3,-114.664 1329.47,-75.9396"/>
<polygon fill="midnightblue" stroke="midnightblue" points="1330.1,-79.3822 1339.36,-74.2313 1328.91,-72.4843 1330.1,-79.3822"/>
</g>
<!-- Node5 -->
<g id="node5" class="node"><title>Node5</title>
<polygon fill="white" stroke="#bfbfbf" points="1405,-56.5 1405,-75.5 1451,-75.5 1451,-56.5 1405,-56.5"/>
<text text-anchor="middle" x="1428" y="-63.5" font-family="Helvetica,sans-Serif" font-size="10.00">cstdint</text>
</g>
<!-- Node2&#45;&gt;Node5 -->
<g id="edge4" class="edge"><title>Node2&#45;&gt;Node5</title>
<path fill="none" stroke="midnightblue" d="M804.547,-112.952C807.742,-112.612 810.907,-112.291 814,-112 1068.74,-88.0007 1138.72,-118.533 1394.74,-75.8501"/>
<polygon fill="midnightblue" stroke="midnightblue" points="1395.43,-79.283 1404.71,-74.167 1394.27,-72.3807 1395.43,-79.283"/>
</g>
<!-- Node6 -->
<g id="node6" class="node"><title>Node6</title>
<polygon fill="white" stroke="#bfbfbf" points="64,-56.5 64,-75.5 120,-75.5 120,-56.5 64,-56.5"/>
<text text-anchor="middle" x="92" y="-63.5" font-family="Helvetica,sans-Serif" font-size="10.00">cinttypes</text>
</g>
<!-- Node2&#45;&gt;Node6 -->
<g id="edge5" class="edge"><title>Node2&#45;&gt;Node6</title>
<path fill="none" stroke="midnightblue" d="M681.175,-119.845C571.816,-117.065 337.074,-107.793 130.32,-75.9475"/>
<polygon fill="midnightblue" stroke="midnightblue" points="130.605,-72.4497 120.185,-74.3647 129.525,-79.3659 130.605,-72.4497"/>
</g>
<!-- Node7 -->
<g id="node7" class="node"><title>Node7</title>
<polygon fill="white" stroke="#bfbfbf" points="138.5,-56.5 138.5,-75.5 181.5,-75.5 181.5,-56.5 138.5,-56.5"/>
<text text-anchor="middle" x="160" y="-63.5" font-family="Helvetica,sans-Serif" font-size="10.00">cstdio</text>
</g>
<!-- Node2&#45;&gt;Node7 -->
<g id="edge6" class="edge"><title>Node2&#45;&gt;Node7</title>
<path fill="none" stroke="midnightblue" d="M681.477,-120.2C580.635,-117.97 373.94,-109.547 191.849,-76.0029"/>
<polygon fill="midnightblue" stroke="midnightblue" points="192.297,-72.5261 181.824,-74.1257 191.009,-79.4065 192.297,-72.5261"/>
</g>
<!-- Node8 -->
<g id="node8" class="node"><title>Node8</title>
<polygon fill="white" stroke="#bfbfbf" points="199.5,-56.5 199.5,-75.5 248.5,-75.5 248.5,-56.5 199.5,-56.5"/>
<text text-anchor="middle" x="224" y="-63.5" font-family="Helvetica,sans-Serif" font-size="10.00">cstddef</text>
</g>
<!-- Node2&#45;&gt;Node8 -->
<g id="edge7" class="edge"><title>Node2&#45;&gt;Node8</title>
<path fill="none" stroke="midnightblue" d="M681.16,-118.719C590.367,-114.611 415.627,-103.828 259.047,-76.1002"/>
<polygon fill="midnightblue" stroke="midnightblue" points="259.222,-72.5757 248.76,-74.2493 257.982,-79.465 259.222,-72.5757"/>
</g>
<!-- Node9 -->
<g id="node9" class="node"><title>Node9</title>
<polygon fill="white" stroke="#bfbfbf" points="266.5,-56.5 266.5,-75.5 311.5,-75.5 311.5,-56.5 266.5,-56.5"/>
<text text-anchor="middle" x="289" y="-63.5" font-family="Helvetica,sans-Serif" font-size="10.00">cstdlib</text>
</g>
<!-- Node2&#45;&gt;Node9 -->
<g id="edge8" class="edge"><title>Node2&#45;&gt;Node9</title>
<path fill="none" stroke="midnightblue" d="M681.373,-117.679C600.771,-112.616 455.125,-100.997 321.613,-75.7855"/>
<polygon fill="midnightblue" stroke="midnightblue" points="322.094,-72.314 311.613,-73.8671 320.775,-79.1886 322.094,-72.314"/>
</g>
<!-- Node10 -->
<g id="node10" class="node"><title>Node10</title>
<polygon fill="white" stroke="#bfbfbf" points="330,-56.5 330,-75.5 374,-75.5 374,-56.5 330,-56.5"/>
<text text-anchor="middle" x="352" y="-63.5" font-family="Helvetica,sans-Serif" font-size="10.00">cerrno</text>
</g>
<!-- Node2&#45;&gt;Node10 -->
<g id="edge9" class="edge"><title>Node2&#45;&gt;Node10</title>
<path fill="none" stroke="midnightblue" d="M681.366,-116.283C611.4,-110.261 493.778,-98.1193 384.148,-75.9499"/>
<polygon fill="midnightblue" stroke="midnightblue" points="384.745,-72.4995 374.245,-73.9151 383.336,-79.3563 384.745,-72.4995"/>
</g>
<!-- Node2&#45;&gt;Node11 -->
<g id="edge10" class="edge"><title>Node2&#45;&gt;Node11</title>
<path fill="none" stroke="midnightblue" d="M681.29,-121.261C561.968,-120.835 291.389,-115.336 56.3935,-75.8786"/>
<polygon fill="midnightblue" stroke="midnightblue" points="56.7357,-72.3866 46.2899,-74.1572 55.56,-79.2871 56.7357,-72.3866"/>
</g>
<!-- Node12 -->
<g id="node12" class="node"><title>Node12</title>
<polygon fill="white" stroke="#bfbfbf" points="392,-56.5 392,-75.5 436,-75.5 436,-56.5 392,-56.5"/>
<text text-anchor="middle" x="414" y="-63.5" font-family="Helvetica,sans-Serif" font-size="10.00">cmath</text>
</g>
<!-- Node2&#45;&gt;Node12 -->
<g id="edge11" class="edge"><title>Node2&#45;&gt;Node12</title>
<path fill="none" stroke="midnightblue" d="M681.496,-114.132C623.181,-107.074 532.999,-94.7494 446.27,-76.0378"/>
<polygon fill="midnightblue" stroke="midnightblue" points="446.777,-72.566 436.26,-73.8458 445.28,-79.404 446.777,-72.566"/>
</g>
<!-- Node13 -->
<g id="node13" class="node"><title>Node13</title>
<polygon fill="white" stroke="#bfbfbf" points="454.5,-56.5 454.5,-75.5 499.5,-75.5 499.5,-56.5 454.5,-56.5"/>
<text text-anchor="middle" x="477" y="-63.5" font-family="Helvetica,sans-Serif" font-size="10.00">iosfwd</text>
</g>
<!-- Node2&#45;&gt;Node13 -->
<g id="edge12" class="edge"><title>Node2&#45;&gt;Node13</title>
<path fill="none" stroke="midnightblue" d="M692.07,-112.48C646.722,-104.607 578.382,-92.043 509.784,-76.0181"/>
<polygon fill="midnightblue" stroke="midnightblue" points="510.201,-72.5202 499.664,-73.6288 508.592,-79.3329 510.201,-72.5202"/>
</g>
<!-- Node14 -->
<g id="node14" class="node"><title>Node14</title>
<polygon fill="white" stroke="#bfbfbf" points="518,-56.5 518,-75.5 572,-75.5 572,-56.5 518,-56.5"/>
<text text-anchor="middle" x="545" y="-63.5" font-family="Helvetica,sans-Serif" font-size="10.00">iostream</text>
</g>
<!-- Node2&#45;&gt;Node14 -->
<g id="edge13" class="edge"><title>Node2&#45;&gt;Node14</title>
<path fill="none" stroke="midnightblue" d="M711.626,-112.444C676.442,-102.848 619.427,-87.2984 582.071,-77.1104"/>
<polygon fill="midnightblue" stroke="midnightblue" points="582.659,-73.643 572.091,-74.3884 580.818,-80.3963 582.659,-73.643"/>
</g>
<!-- Node15 -->
<g id="node15" class="node"><title>Node15</title>
<polygon fill="white" stroke="#bfbfbf" points="590.5,-56.5 590.5,-75.5 641.5,-75.5 641.5,-56.5 590.5,-56.5"/>
<text text-anchor="middle" x="616" y="-63.5" font-family="Helvetica,sans-Serif" font-size="10.00">unistd.h</text>
</g>
<!-- Node2&#45;&gt;Node15 -->
<g id="edge14" class="edge"><title>Node2&#45;&gt;Node15</title>
<path fill="none" stroke="midnightblue" d="M722.876,-112.444C701.976,-103.557 669.065,-89.5632 645.284,-79.4514"/>
<polygon fill="midnightblue" stroke="midnightblue" points="646.602,-76.2085 636.029,-75.5164 643.862,-82.6504 646.602,-76.2085"/>
</g>
<!-- Node16 -->
<g id="node16" class="node"><title>Node16</title>
<polygon fill="white" stroke="#bfbfbf" points="660,-56.5 660,-75.5 704,-75.5 704,-56.5 660,-56.5"/>
<text text-anchor="middle" x="682" y="-63.5" font-family="Helvetica,sans-Serif" font-size="10.00">fcntl.h</text>
</g>
<!-- Node2&#45;&gt;Node16 -->
<g id="edge15" class="edge"><title>Node2&#45;&gt;Node16</title>
<path fill="none" stroke="midnightblue" d="M733.199,-112.324C724.182,-104.341 710.594,-92.3128 699.682,-82.6529"/>
<polygon fill="midnightblue" stroke="midnightblue" points="701.787,-79.8416 691.979,-75.8339 697.147,-85.083 701.787,-79.8416"/>
</g>
<!-- Node17 -->
<g id="node17" class="node"><title>Node17</title>
<polygon fill="white" stroke="#bfbfbf" points="722.5,-56.5 722.5,-75.5 763.5,-75.5 763.5,-56.5 722.5,-56.5"/>
<text text-anchor="middle" x="743" y="-63.5" font-family="Helvetica,sans-Serif" font-size="10.00">string</text>
</g>
<!-- Node2&#45;&gt;Node17 -->
<g id="edge16" class="edge"><title>Node2&#45;&gt;Node17</title>
<path fill="none" stroke="midnightblue" d="M743,-112.083C743,-105.006 743,-94.8611 743,-85.9865"/>
<polygon fill="midnightblue" stroke="midnightblue" points="746.5,-85.751 743,-75.7511 739.5,-85.7511 746.5,-85.751"/>
</g>
<!-- Node18 -->
<g id="node18" class="node"><title>Node18</title>
<polygon fill="white" stroke="#bfbfbf" points="746,-0.5 746,-19.5 790,-19.5 790,-0.5 746,-0.5"/>
<text text-anchor="middle" x="768" y="-7.5" font-family="Helvetica,sans-Serif" font-size="10.00">vector</text>
</g>
<!-- Node2&#45;&gt;Node18 -->
<g id="edge17" class="edge"><title>Node2&#45;&gt;Node18</title>
<path fill="none" stroke="midnightblue" d="M750.673,-112.459C757.779,-103.927 767.854,-90.0875 772,-76 776.489,-60.7477 774.839,-42.6384 772.44,-29.4133"/>
<polygon fill="midnightblue" stroke="midnightblue" points="775.863,-28.681 770.368,-19.6229 769.015,-30.131 775.863,-28.681"/>
</g>
<!-- Node19 -->
<g id="node19" class="node"><title>Node19</title>
<polygon fill="white" stroke="#bfbfbf" points="1144.5,-56.5 1144.5,-75.5 1187.5,-75.5 1187.5,-56.5 1144.5,-56.5"/>
<text text-anchor="middle" x="1166" y="-63.5" font-family="Helvetica,sans-Serif" font-size="10.00">deque</text>
</g>
<!-- Node2&#45;&gt;Node19 -->
<g id="edge18" class="edge"><title>Node2&#45;&gt;Node19</title>
<path fill="none" stroke="midnightblue" d="M804.568,-113.147C807.757,-112.756 810.916,-112.371 814,-112 954.34,-95.1118 990.911,-101.196 1130,-76 1131.47,-75.7344 1132.96,-75.4434 1134.47,-75.1337"/>
<polygon fill="midnightblue" stroke="midnightblue" points="1135.42,-78.5079 1144.4,-72.8902 1133.87,-71.6799 1135.42,-78.5079"/>
</g>
<!-- Node20 -->
<g id="node20" class="node"><title>Node20</title>
<polygon fill="white" stroke="#bfbfbf" points="808,-0.5 808,-19.5 852,-19.5 852,-0.5 808,-0.5"/>
<text text-anchor="middle" x="830" y="-7.5" font-family="Helvetica,sans-Serif" font-size="10.00">mutex</text>
</g>
<!-- Node2&#45;&gt;Node20 -->
<g id="edge19" class="edge"><title>Node2&#45;&gt;Node20</title>
<path fill="none" stroke="midnightblue" d="M752.912,-112.235C762.459,-103.538 777.03,-89.579 788,-76 800.23,-60.8623 812.066,-42.0462 820.038,-28.5601"/>
<polygon fill="midnightblue" stroke="midnightblue" points="823.123,-30.2175 825.111,-19.8109 817.067,-26.7062 823.123,-30.2175"/>
</g>
<!-- Node21 -->
<g id="node21" class="node"><title>Node21</title>
<polygon fill="white" stroke="#bfbfbf" points="870,-0.5 870,-19.5 914,-19.5 914,-0.5 870,-0.5"/>
<text text-anchor="middle" x="892" y="-7.5" font-family="Helvetica,sans-Serif" font-size="10.00">thread</text>
</g>
<!-- Node2&#45;&gt;Node21 -->
<g id="edge20" class="edge"><title>Node2&#45;&gt;Node21</title>
<path fill="none" stroke="midnightblue" d="M756.092,-112.235C769.321,-103.309 790.282,-88.9742 808,-76 830.804,-59.3013 856.415,-39.2964 873.296,-25.9312"/>
<polygon fill="midnightblue" stroke="midnightblue" points="875.613,-28.5604 881.266,-19.6 871.259,-23.0791 875.613,-28.5604"/>
</g>
<!-- Node22 -->
<g id="node22" class="node"><title>Node22</title>
<polygon fill="white" stroke="#bfbfbf" points="978.5,-0.5 978.5,-19.5 1073.5,-19.5 1073.5,-0.5 978.5,-0.5"/>
<text text-anchor="middle" x="1026" y="-7.5" font-family="Helvetica,sans-Serif" font-size="10.00">condition_variable</text>
</g>
<!-- Node2&#45;&gt;Node22 -->
<g id="edge21" class="edge"><title>Node2&#45;&gt;Node22</title>
<path fill="none" stroke="midnightblue" d="M804.666,-112.973C884.319,-102.322 1013.7,-83.9399 1021,-76 1032.23,-63.7848 1032.24,-44.2391 1030.19,-29.7673"/>
<polygon fill="midnightblue" stroke="midnightblue" points="1033.63,-29.0988 1028.38,-19.895 1026.74,-30.3626 1033.63,-29.0988"/>
</g>
<!-- Node23 -->
<g id="node23" class="node"><title>Node23</title>
<polygon fill="white" stroke="#bfbfbf" points="1091.5,-0.5 1091.5,-19.5 1134.5,-19.5 1134.5,-0.5 1091.5,-0.5"/>
<text text-anchor="middle" x="1113" y="-7.5" font-family="Helvetica,sans-Serif" font-size="10.00">queue</text>
</g>
<!-- Node2&#45;&gt;Node23 -->
<g id="edge22" class="edge"><title>Node2&#45;&gt;Node23</title>
<path fill="none" stroke="midnightblue" d="M804.717,-112.519C888.333,-100.898 1028.47,-80.9028 1039,-76 1063.33,-64.6716 1085.64,-42.8047 1099.26,-27.5777"/>
<polygon fill="midnightblue" stroke="midnightblue" points="1102,-29.7631 1105.89,-19.9104 1096.71,-25.1834 1102,-29.7631"/>
</g>
<!-- Node24 -->
<g id="node24" class="node"><title>Node24</title>
<polygon fill="white" stroke="#bfbfbf" points="1206,-56.5 1206,-75.5 1258,-75.5 1258,-56.5 1206,-56.5"/>
<text text-anchor="middle" x="1232" y="-63.5" font-family="Helvetica,sans-Serif" font-size="10.00">sstream</text>
</g>
<!-- Node2&#45;&gt;Node24 -->
<g id="edge23" class="edge"><title>Node2&#45;&gt;Node24</title>
<path fill="none" stroke="midnightblue" d="M804.559,-113.073C807.751,-112.701 810.912,-112.341 814,-112 980.705,-93.6044 1026.83,-104.93 1195.75,-75.9644"/>
<polygon fill="midnightblue" stroke="midnightblue" points="1196.47,-79.3911 1205.72,-74.2314 1195.27,-72.4943 1196.47,-79.3911"/>
</g>
<!-- Node25 -->
<g id="node25" class="node"><title>Node25</title>
<polygon fill="white" stroke="#bfbfbf" points="1152.5,-0.5 1152.5,-19.5 1187.5,-19.5 1187.5,-0.5 1152.5,-0.5"/>
<text text-anchor="middle" x="1170" y="-7.5" font-family="Helvetica,sans-Serif" font-size="10.00">map</text>
</g>
<!-- Node2&#45;&gt;Node25 -->
<g id="edge24" class="edge"><title>Node2&#45;&gt;Node25</title>
<path fill="none" stroke="midnightblue" d="M804.779,-113.102C895.352,-101.424 1054.83,-80.4481 1067,-76 1099.2,-64.2268 1131.94,-41.287 1151.61,-26.0519"/>
<polygon fill="midnightblue" stroke="midnightblue" points="1154.01,-28.6138 1159.68,-19.6619 1149.67,-23.1259 1154.01,-28.6138"/>
</g>
<!-- Node26 -->
<g id="node26" class="node"><title>Node26</title>
<g id="a_node26"><a xlink:href="cosmos-defs_8h.html" target="_top" xlink:title="COSMOS definitions Definitions specific to the COSMOS environement. ">
<polygon fill="white" stroke="black" points="896,-56.5 896,-75.5 1012,-75.5 1012,-56.5 896,-56.5"/>
<text text-anchor="middle" x="954" y="-63.5" font-family="Helvetica,sans-Serif" font-size="10.00">support/cosmos&#45;defs.h</text>
</a>
</g>
</g>
<!-- Node2&#45;&gt;Node26 -->
<g id="edge25" class="edge"><title>Node2&#45;&gt;Node26</title>
<path fill="none" stroke="midnightblue" d="M776.434,-112.444C812.856,-103.122 871.23,-88.1828 911.029,-77.9972"/>
<polygon fill="midnightblue" stroke="midnightblue" points="911.903,-81.3866 920.723,-75.5164 910.167,-74.6051 911.903,-81.3866"/>
</g>
<!-- Node26&#45;&gt;Node18 -->
<g id="edge27" class="edge"><title>Node26&#45;&gt;Node18</title>
<path fill="none" stroke="midnightblue" d="M924.528,-56.4435C890.498,-46.5639 834.731,-30.3734 799.76,-20.2208"/>
<polygon fill="midnightblue" stroke="midnightblue" points="800.633,-16.8296 790.053,-17.4026 798.681,-23.552 800.633,-16.8296"/>
</g>
<!-- Node26&#45;&gt;Node20 -->
<g id="edge31" class="edge"><title>Node26&#45;&gt;Node20</title>
<path fill="none" stroke="midnightblue" d="M934.352,-56.4435C914.035,-47.5961 882.097,-33.6875 858.902,-23.5865"/>
<polygon fill="midnightblue" stroke="midnightblue" points="860.122,-20.3002 849.556,-19.5164 857.327,-26.7181 860.122,-20.3002"/>
</g>
<!-- Node26&#45;&gt;Node21 -->
<g id="edge30" class="edge"><title>Node26&#45;&gt;Node21</title>
<path fill="none" stroke="midnightblue" d="M944.039,-56.324C934.873,-48.3414 921.063,-36.3128 909.972,-26.6529"/>
<polygon fill="midnightblue" stroke="midnightblue" points="911.982,-23.7624 902.143,-19.8339 907.385,-29.041 911.982,-23.7624"/>
</g>
<!-- Node26&#45;&gt;Node22 -->
<g id="edge32" class="edge"><title>Node26&#45;&gt;Node22</title>
<path fill="none" stroke="midnightblue" d="M965.568,-56.324C976.42,-48.1849 992.881,-35.8395 1005.88,-26.0874"/>
<polygon fill="midnightblue" stroke="midnightblue" points="1008.32,-28.6339 1014.22,-19.8339 1004.12,-23.0339 1008.32,-28.6339"/>
</g>
<!-- Node26&#45;&gt;Node23 -->
<g id="edge29" class="edge"><title>Node26&#45;&gt;Node23</title>
<path fill="none" stroke="midnightblue" d="M979.194,-56.4435C1007.04,-46.985 1051.93,-31.7421 1081.93,-21.551"/>
<polygon fill="midnightblue" stroke="midnightblue" points="1083.15,-24.8342 1091.49,-18.3042 1080.9,-18.206 1083.15,-24.8342"/>
</g>
<!-- Node26&#45;&gt;Node25 -->
<g id="edge26" class="edge"><title>Node26&#45;&gt;Node25</title>
<path fill="none" stroke="midnightblue" d="M995.453,-56.4426C1032.04,-48.6094 1086.97,-36.1691 1142.77,-20.1564"/>
<polygon fill="midnightblue" stroke="midnightblue" points="1143.83,-23.4924 1152.45,-17.3417 1141.88,-16.7703 1143.83,-23.4924"/>
</g>
<!-- Node27 -->
<g id="node27" class="node"><title>Node27</title>
<polygon fill="white" stroke="#bfbfbf" points="931.5,-0.5 931.5,-19.5 960.5,-19.5 960.5,-0.5 931.5,-0.5"/>
<text text-anchor="middle" x="946" y="-7.5" font-family="Helvetica,sans-Serif" font-size="10.00">list</text>
</g>
<!-- Node26&#45;&gt;Node27 -->
<g id="edge28" class="edge"><title>Node26&#45;&gt;Node27</title>
<path fill="none" stroke="midnightblue" d="M952.679,-56.083C951.619,-48.9272 950.094,-38.6353 948.769,-29.6911"/>
<polygon fill="midnightblue" stroke="midnightblue" points="952.224,-29.1302 947.296,-19.7511 945.3,-30.1561 952.224,-29.1302"/>
</g>
<!-- Node28&#45;&gt;Node2 -->
<g id="edge34" class="edge"><title>Node28&#45;&gt;Node2</title>
<path fill="none" stroke="midnightblue" d="M779.734,-168.083C773.455,-160.377 764.212,-149.033 756.569,-139.653"/>
<polygon fill="midnightblue" stroke="midnightblue" points="759.161,-137.293 750.131,-131.751 753.734,-141.714 759.161,-137.293"/>
</g>
<!-- Node29 -->
<g id="node29" class="node"><title>Node29</title>
<polygon fill="white" stroke="#bfbfbf" points="822.5,-112.5 822.5,-131.5 869.5,-131.5 869.5,-112.5 822.5,-112.5"/>
<text text-anchor="middle" x="846" y="-119.5" font-family="Helvetica,sans-Serif" font-size="10.00">errno.h</text>
</g>
<!-- Node28&#45;&gt;Node29 -->
<g id="edge35" class="edge"><title>Node28&#45;&gt;Node29</title>
<path fill="none" stroke="midnightblue" d="M796.479,-168.324C805.201,-160.341 818.343,-148.313 828.898,-138.653"/>
<polygon fill="midnightblue" stroke="midnightblue" points="831.334,-141.167 836.348,-131.834 826.608,-136.004 831.334,-141.167"/>
</g>
</g>
</svg>
