<?xml version="1.0" encoding="UTF-8" standalone="no"?>
<!DOCTYPE svg PUBLIC "-//W3C//DTD SVG 1.1//EN"
 "http://www.w3.org/Graphics/SVG/1.1/DTD/svg11.dtd">
<!-- Generated by graphviz version 2.38.0 (20140413.2041)
 -->
<!-- Title: socketlib.h Pages: 1 -->
<!--zoomable 252 -->
<svg id="main" version="1.1" xmlns="http://www.w3.org/2000/svg" xmlns:xlink="http://www.w3.org/1999/xlink" xml:space="preserve" onload="init(evt)">
<style type="text/css"><![CDATA[
.edge:hover path { stroke: red; }
.edge:hover polygon { stroke: red; fill: red; }
]]></style>
<script type="text/javascript"><![CDATA[
var edges = document.getElementsByTagName('g');
if (edges && edges.length) {
  for (var i=0;i<edges.length;i++) {
    if (edges[i].id.substr(0,4)=='edge') {
      edges[i].setAttribute('class','edge');
    }
  }
}
]]></script>
        <defs>
                <circle id="rim" cx="0" cy="0" r="7"/>
                <circle id="rim2" cx="0" cy="0" r="3.5"/>
                <g id="zoomPlus">
                        <use xlink:href="#rim" fill="#404040">
                                <set attributeName="fill" to="#808080" begin="zoomplus.mouseover" end="zoomplus.mouseout"/>
                        </use>
                        <path d="M-4,0h8M0,-4v8" fill="none" stroke="white" stroke-width="1.5" pointer-events="none"/>
                </g>
                <g id="zoomMin">
                        <use xlink:href="#rim" fill="#404040">
                                <set attributeName="fill" to="#808080" begin="zoomminus.mouseover" end="zoomminus.mouseout"/>
                        </use>
                        <path d="M-4,0h8" fill="none" stroke="white" stroke-width="1.5" pointer-events="none"/>
                </g>
                <g id="dirArrow">
                        <path fill="none" stroke="white" stroke-width="1.5" d="M0,-3.0v7 M-2.5,-0.5L0,-3.0L2.5,-0.5"/>
                </g>
               <g id="resetDef">
                       <use xlink:href="#rim2" fill="#404040">
                               <set attributeName="fill" to="#808080" begin="reset.mouseover" end="reset.mouseout"/>
                       </use>
               </g>
        </defs>

<script type="text/javascript">
var viewWidth = 4558;
var viewHeight = 252;
var sectionId = 'dynsection-1';
</script>
<script xlink:href="svgpan.js"/>
<svg id="graph" class="graph">
<g id="viewport">
<title>socketlib.h</title>
<polygon fill="white" stroke="none" points="-4,4 -4,-248 4553.5,-248 4553.5,4 -4,4"/>
<!-- Node1 -->
<g id="node1" class="node"><title>Node1</title>
<polygon fill="#bfbfbf" stroke="black" points="2239.5,-224.5 2239.5,-243.5 2303.5,-243.5 2303.5,-224.5 2239.5,-224.5"/>
<text text-anchor="middle" x="2271.5" y="-231.5" font-family="Helvetica,sans-Serif" font-size="10.00">socketlib.h</text>
</g>
<!-- Node2 -->
<g id="node2" class="node"><title>Node2</title>
<g id="a_node2"><a xlink:href="agentclass_8cpp.html" target="_top" xlink:title="Agent support functions. ">
<polygon fill="white" stroke="black" points="0,-56.5 0,-75.5 83,-75.5 83,-56.5 0,-56.5"/>
<text text-anchor="middle" x="41.5" y="-63.5" font-family="Helvetica,sans-Serif" font-size="10.00">agentclass.cpp</text>
</a>
</g>
</g>
<!-- Node1&#45;&gt;Node2 -->
<g id="edge1" class="edge"><title>Node1&#45;&gt;Node2</title>
<path fill="none" stroke="midnightblue" d="M2229.12,-232.474C1946.24,-228.769 336.892,-204.6 132.5,-132 98.1052,-119.783 65.1508,-90.4548 50.0706,-75.7362"/>
<polygon fill="midnightblue" stroke="midnightblue" points="2229.32,-235.977 2239.37,-232.607 2229.41,-228.977 2229.32,-235.977"/>
</g>
<!-- Node3 -->
<g id="node3" class="node"><title>Node3</title>
<g id="a_node3"><a xlink:href="agentclass_8h.html" target="_top" xlink:title="Agent Server and Client header file. ">
<polygon fill="white" stroke="red" points="2194.5,-112.5 2194.5,-131.5 2266.5,-131.5 2266.5,-112.5 2194.5,-112.5"/>
<text text-anchor="middle" x="2230.5" y="-119.5" font-family="Helvetica,sans-Serif" font-size="10.00">agentclass.h</text>
</a>
</g>
</g>
<!-- Node1&#45;&gt;Node3 -->
<g id="edge2" class="edge"><title>Node1&#45;&gt;Node3</title>
<path fill="none" stroke="midnightblue" d="M2267.04,-214.687C2263.62,-201.51 2258.47,-183.417 2252.5,-168 2247.47,-155.025 2240.14,-140.691 2235.34,-131.765"/>
<polygon fill="midnightblue" stroke="midnightblue" points="2263.66,-215.589 2269.49,-224.433 2270.45,-213.881 2263.66,-215.589"/>
</g>
<!-- Node37 -->
<g id="node37" class="node"><title>Node37</title>
<g id="a_node37"><a xlink:href="agent__kpc9612p_8cpp.html" target="_top" xlink:title="agent_kpc9612p.cpp">
<polygon fill="white" stroke="black" points="4327,-56.5 4327,-75.5 4434,-75.5 4434,-56.5 4327,-56.5"/>
<text text-anchor="middle" x="4380.5" y="-63.5" font-family="Helvetica,sans-Serif" font-size="10.00">agent_kpc9612p.cpp</text>
</a>
</g>
</g>
<!-- Node1&#45;&gt;Node37 -->
<g id="edge58" class="edge"><title>Node1&#45;&gt;Node37</title>
<path fill="none" stroke="midnightblue" d="M2274.92,-214.184C2281.1,-186.266 2297.07,-134.732 2333.5,-112 2379.75,-83.1465 4241.1,-79.3729 4295.5,-76 4305.57,-75.3756 4316.29,-74.4479 4326.6,-73.4221"/>
<polygon fill="midnightblue" stroke="midnightblue" points="2271.43,-213.746 2272.89,-224.241 2278.3,-215.13 2271.43,-213.746"/>
</g>
<!-- Node43 -->
<g id="node43" class="node"><title>Node43</title>
<g id="a_node43"><a xlink:href="agent__physics_8cpp.html" target="_top" xlink:title="agent_physics.cpp">
<polygon fill="white" stroke="black" points="4451.5,-56.5 4451.5,-75.5 4549.5,-75.5 4549.5,-56.5 4451.5,-56.5"/>
<text text-anchor="middle" x="4500.5" y="-63.5" font-family="Helvetica,sans-Serif" font-size="10.00">agent_physics.cpp</text>
</a>
</g>
</g>
<!-- Node1&#45;&gt;Node43 -->
<g id="edge59" class="edge"><title>Node1&#45;&gt;Node43</title>
<path fill="none" stroke="midnightblue" d="M2288.24,-217.163C2306.07,-201.431 2335.87,-178.222 2366.5,-168 2804.74,-21.7216 3983.82,-122.323 4443.5,-76 4446.09,-75.7388 4448.74,-75.4379 4451.42,-75.1079"/>
<polygon fill="midnightblue" stroke="midnightblue" points="2285.55,-214.88 2280.5,-224.196 2290.26,-220.06 2285.55,-214.88"/>
</g>
<!-- Node48 -->
<g id="node48" class="node"><title>Node48</title>
<g id="a_node48"><a xlink:href="gige__lib_8h.html" target="_top" xlink:title="gige_lib.h">
<polygon fill="white" stroke="red" points="141.5,-112.5 141.5,-131.5 199.5,-131.5 199.5,-112.5 141.5,-112.5"/>
<text text-anchor="middle" x="170.5" y="-119.5" font-family="Helvetica,sans-Serif" font-size="10.00">gige_lib.h</text>
</a>
</g>
</g>
<!-- Node1&#45;&gt;Node48 -->
<g id="edge52" class="edge"><title>Node1&#45;&gt;Node48</title>
<path fill="none" stroke="midnightblue" d="M2228.99,-230.774C1953.94,-216.374 430.094,-136.591 199.688,-124.528"/>
<polygon fill="midnightblue" stroke="midnightblue" points="2229.17,-234.288 2239.34,-231.316 2229.54,-227.298 2229.17,-234.288"/>
</g>
<!-- Node49 -->
<g id="node49" class="node"><title>Node49</title>
<g id="a_node49"><a xlink:href="jsondef_8h.html" target="_top" xlink:title="jsondef.h">
<polygon fill="white" stroke="red" points="2187.5,-168.5 2187.5,-187.5 2243.5,-187.5 2243.5,-168.5 2187.5,-168.5"/>
<text text-anchor="middle" x="2215.5" y="-175.5" font-family="Helvetica,sans-Serif" font-size="10.00">jsondef.h</text>
</a>
</g>
</g>
<!-- Node1&#45;&gt;Node49 -->
<g id="edge55" class="edge"><title>Node1&#45;&gt;Node49</title>
<path fill="none" stroke="midnightblue" d="M2255.17,-217.253C2245.24,-207.673 2232.91,-195.791 2224.66,-187.834"/>
<polygon fill="midnightblue" stroke="midnightblue" points="2252.87,-219.902 2262.5,-224.324 2257.73,-214.863 2252.87,-219.902"/>
</g>
<!-- Node50 -->
<g id="node50" class="node"><title>Node50</title>
<g id="a_node50"><a xlink:href="socketlib_8cpp.html" target="_top" xlink:title="socketlib.cpp">
<polygon fill="white" stroke="black" points="2375.5,-168.5 2375.5,-187.5 2449.5,-187.5 2449.5,-168.5 2375.5,-168.5"/>
<text text-anchor="middle" x="2412.5" y="-175.5" font-family="Helvetica,sans-Serif" font-size="10.00">socketlib.cpp</text>
</a>
</g>
</g>
<!-- Node1&#45;&gt;Node50 -->
<g id="edge57" class="edge"><title>Node1&#45;&gt;Node50</title>
<path fill="none" stroke="midnightblue" d="M2303.43,-220.772C2329.91,-210.629 2366.89,-196.467 2390.26,-187.516"/>
<polygon fill="midnightblue" stroke="midnightblue" points="2301.93,-217.599 2293.84,-224.444 2304.43,-224.136 2301.93,-217.599"/>
</g>
<!-- Node3&#45;&gt;Node2 -->
<g id="edge15" class="edge"><title>Node3&#45;&gt;Node2</title>
<path fill="none" stroke="midnightblue" d="M2183.92,-120.506C1914.16,-117.567 549.627,-101.642 130.5,-76 114.999,-75.0516 98.0276,-73.4709 83.1001,-71.8965"/>
<polygon fill="midnightblue" stroke="midnightblue" points="2184.11,-124.008 2194.14,-120.617 2184.18,-117.008 2184.11,-124.008"/>
</g>
<!-- Node4 -->
<g id="node4" class="node"><title>Node4</title>
<g id="a_node4"><a xlink:href="agent__001_8cpp.html" target="_top" xlink:title="agent_001.cpp">
<polygon fill="white" stroke="black" points="2850.5,-56.5 2850.5,-75.5 2930.5,-75.5 2930.5,-56.5 2850.5,-56.5"/>
<text text-anchor="middle" x="2890.5" y="-63.5" font-family="Helvetica,sans-Serif" font-size="10.00">agent_001.cpp</text>
</a>
</g>
</g>
<!-- Node3&#45;&gt;Node4 -->
<g id="edge3" class="edge"><title>Node3&#45;&gt;Node4</title>
<path fill="none" stroke="midnightblue" d="M2276.9,-114.162C2283.15,-113.363 2289.47,-112.615 2295.5,-112 2537.44,-87.3067 2600.17,-106.017 2841.5,-76 2844.42,-75.637 2847.43,-75.2117 2850.45,-74.747"/>
<polygon fill="midnightblue" stroke="midnightblue" points="2276,-110.752 2266.54,-115.54 2276.92,-117.691 2276,-110.752"/>
</g>
<!-- Node5 -->
<g id="node5" class="node"><title>Node5</title>
<g id="a_node5"><a xlink:href="agent__002_8cpp.html" target="_top" xlink:title="agent_002.cpp">
<polygon fill="white" stroke="black" points="2948.5,-56.5 2948.5,-75.5 3028.5,-75.5 3028.5,-56.5 2948.5,-56.5"/>
<text text-anchor="middle" x="2988.5" y="-63.5" font-family="Helvetica,sans-Serif" font-size="10.00">agent_002.cpp</text>
</a>
</g>
</g>
<!-- Node3&#45;&gt;Node5 -->
<g id="edge4" class="edge"><title>Node3&#45;&gt;Node5</title>
<path fill="none" stroke="midnightblue" d="M2276.9,-114.105C2283.14,-113.315 2289.47,-112.585 2295.5,-112 2580.83,-84.3181 2654.85,-109.961 2939.5,-76 2942.42,-75.6516 2945.43,-75.237 2948.45,-74.7799"/>
<polygon fill="midnightblue" stroke="midnightblue" points="2275.99,-110.694 2266.54,-115.476 2276.91,-117.634 2275.99,-110.694"/>
</g>
<!-- Node6 -->
<g id="node6" class="node"><title>Node6</title>
<g id="a_node6"><a xlink:href="agent__004_8cpp.html" target="_top" xlink:title="agent_004.cpp">
<polygon fill="white" stroke="black" points="3046.5,-56.5 3046.5,-75.5 3126.5,-75.5 3126.5,-56.5 3046.5,-56.5"/>
<text text-anchor="middle" x="3086.5" y="-63.5" font-family="Helvetica,sans-Serif" font-size="10.00">agent_004.cpp</text>
</a>
</g>
</g>
<!-- Node3&#45;&gt;Node6 -->
<g id="edge5" class="edge"><title>Node3&#45;&gt;Node6</title>
<path fill="none" stroke="midnightblue" d="M2276.89,-114.063C2283.14,-113.28 2289.47,-112.563 2295.5,-112 2624.24,-81.3279 2709.52,-113.906 3037.5,-76 3040.42,-75.6624 3043.43,-75.2557 3046.45,-74.8042"/>
<polygon fill="midnightblue" stroke="midnightblue" points="2275.99,-110.652 2266.53,-115.428 2276.91,-117.592 2275.99,-110.652"/>
</g>
<!-- Node7 -->
<g id="node7" class="node"><title>Node7</title>
<g id="a_node7"><a xlink:href="agent__005_8cpp.html" target="_top" xlink:title="agent_005.cpp">
<polygon fill="white" stroke="black" points="3144.5,-56.5 3144.5,-75.5 3224.5,-75.5 3224.5,-56.5 3144.5,-56.5"/>
<text text-anchor="middle" x="3184.5" y="-63.5" font-family="Helvetica,sans-Serif" font-size="10.00">agent_005.cpp</text>
</a>
</g>
</g>
<!-- Node3&#45;&gt;Node7 -->
<g id="edge6" class="edge"><title>Node3&#45;&gt;Node7</title>
<path fill="none" stroke="midnightblue" d="M2276.89,-114.031C2283.14,-113.253 2289.47,-112.546 2295.5,-112 2667.66,-78.3368 2764.18,-117.853 3135.5,-76 3138.42,-75.6706 3141.43,-75.27 3144.46,-74.8228"/>
<polygon fill="midnightblue" stroke="midnightblue" points="2275.99,-110.619 2266.53,-115.392 2276.9,-117.56 2275.99,-110.619"/>
</g>
<!-- Node8 -->
<g id="node8" class="node"><title>Node8</title>
<g id="a_node8"><a xlink:href="agent__006_8cpp.html" target="_top" xlink:title="agent_006.cpp">
<polygon fill="white" stroke="black" points="3242.5,-56.5 3242.5,-75.5 3322.5,-75.5 3322.5,-56.5 3242.5,-56.5"/>
<text text-anchor="middle" x="3282.5" y="-63.5" font-family="Helvetica,sans-Serif" font-size="10.00">agent_006.cpp</text>
</a>
</g>
</g>
<!-- Node3&#45;&gt;Node8 -->
<g id="edge7" class="edge"><title>Node3&#45;&gt;Node8</title>
<path fill="none" stroke="midnightblue" d="M2276.89,-114.006C2283.13,-113.232 2289.47,-112.532 2295.5,-112 2711.08,-75.3451 2818.83,-121.801 3233.5,-76 3236.42,-75.6772 3239.43,-75.2813 3242.46,-74.8376"/>
<polygon fill="midnightblue" stroke="midnightblue" points="2275.99,-110.594 2266.53,-115.363 2276.9,-117.534 2275.99,-110.594"/>
</g>
<!-- Node9 -->
<g id="node9" class="node"><title>Node9</title>
<g id="a_node9"><a xlink:href="agent__008_8cpp.html" target="_top" xlink:title="agent_008.cpp">
<polygon fill="white" stroke="black" points="3378.5,-56.5 3378.5,-75.5 3458.5,-75.5 3458.5,-56.5 3378.5,-56.5"/>
<text text-anchor="middle" x="3418.5" y="-63.5" font-family="Helvetica,sans-Serif" font-size="10.00">agent_008.cpp</text>
</a>
</g>
</g>
<!-- Node3&#45;&gt;Node9 -->
<g id="edge8" class="edge"><title>Node3&#45;&gt;Node9</title>
<path fill="none" stroke="midnightblue" d="M2276.89,-113.979C2283.13,-113.209 2289.46,-112.518 2295.5,-112 2769.14,-71.3452 2891.47,-123.178 3364.5,-76 3369.04,-75.5472 3373.78,-74.9479 3378.47,-74.2728"/>
<polygon fill="midnightblue" stroke="midnightblue" points="2275.99,-110.567 2266.53,-115.333 2276.89,-117.508 2275.99,-110.567"/>
</g>
<!-- Node10 -->
<g id="node10" class="node"><title>Node10</title>
<g id="a_node10"><a xlink:href="agent__add__soh_8cpp.html" target="_top" xlink:title="agent_add_soh.cpp">
<polygon fill="white" stroke="black" points="3477,-56.5 3477,-75.5 3578,-75.5 3578,-56.5 3477,-56.5"/>
<text text-anchor="middle" x="3527.5" y="-63.5" font-family="Helvetica,sans-Serif" font-size="10.00">agent_add_soh.cpp</text>
</a>
</g>
</g>
<!-- Node3&#45;&gt;Node10 -->
<g id="edge9" class="edge"><title>Node3&#45;&gt;Node10</title>
<path fill="none" stroke="midnightblue" d="M2276.89,-113.962C2283.13,-113.195 2289.46,-112.509 2295.5,-112 2814.79,-68.1999 2948.47,-122.734 3467.5,-76 3470.54,-75.7261 3473.67,-75.3987 3476.81,-75.0335"/>
<polygon fill="midnightblue" stroke="midnightblue" points="2275.99,-110.55 2266.52,-115.314 2276.89,-117.491 2275.99,-110.55"/>
</g>
<!-- Node11 -->
<g id="node11" class="node"><title>Node11</title>
<g id="a_node11"><a xlink:href="agent__calc_8cpp.html" target="_top" xlink:title="Demonstration calculator Agent. ">
<polygon fill="white" stroke="black" points="3596,-56.5 3596,-75.5 3679,-75.5 3679,-56.5 3596,-56.5"/>
<text text-anchor="middle" x="3637.5" y="-63.5" font-family="Helvetica,sans-Serif" font-size="10.00">agent_calc.cpp</text>
</a>
</g>
</g>
<!-- Node3&#45;&gt;Node11 -->
<g id="edge10" class="edge"><title>Node3&#45;&gt;Node11</title>
<path fill="none" stroke="midnightblue" d="M2276.88,-113.946C2283.13,-113.181 2289.46,-112.501 2295.5,-112 2867.98,-64.5351 3016.1,-135.049 3587.5,-76 3590.22,-75.7189 3593.01,-75.374 3595.82,-74.9847"/>
<polygon fill="midnightblue" stroke="midnightblue" points="2275.99,-110.533 2266.52,-115.295 2276.89,-117.475 2275.99,-110.533"/>
</g>
<!-- Node12 -->
<g id="node12" class="node"><title>Node12</title>
<g id="a_node12"><a xlink:href="agent__cpu__device__test_8cpp.html" target="_top" xlink:title="agent_cpu_device_test.cpp">
<polygon fill="white" stroke="black" points="3697.5,-56.5 3697.5,-75.5 3833.5,-75.5 3833.5,-56.5 3697.5,-56.5"/>
<text text-anchor="middle" x="3765.5" y="-63.5" font-family="Helvetica,sans-Serif" font-size="10.00">agent_cpu_device_test.cpp</text>
</a>
</g>
</g>
<!-- Node3&#45;&gt;Node12 -->
<g id="edge11" class="edge"><title>Node3&#45;&gt;Node12</title>
<path fill="none" stroke="midnightblue" d="M2276.88,-113.935C2283.13,-113.172 2289.46,-112.494 2295.5,-112 2912.75,-61.4504 3070.75,-119.994 3688.5,-76 3691.32,-75.7992 3694.19,-75.5708 3697.1,-75.3207"/>
<polygon fill="midnightblue" stroke="midnightblue" points="2275.99,-110.522 2266.52,-115.282 2276.89,-117.463 2275.99,-110.522"/>
</g>
<!-- Node13 -->
<g id="node13" class="node"><title>Node13</title>
<g id="a_node13"><a xlink:href="agent__receive_8cpp.html" target="_top" xlink:title="agent_receive.cpp">
<polygon fill="white" stroke="black" points="3851.5,-56.5 3851.5,-75.5 3947.5,-75.5 3947.5,-56.5 3851.5,-56.5"/>
<text text-anchor="middle" x="3899.5" y="-63.5" font-family="Helvetica,sans-Serif" font-size="10.00">agent_receive.cpp</text>
</a>
</g>
</g>
<!-- Node3&#45;&gt;Node13 -->
<g id="edge12" class="edge"><title>Node3&#45;&gt;Node13</title>
<path fill="none" stroke="midnightblue" d="M2276.88,-113.92C2283.13,-113.159 2289.46,-112.487 2295.5,-112 2981.02,-56.7468 3157.54,-137.768 3842.5,-76 3845.39,-75.7391 3848.36,-75.4217 3851.35,-75.0642"/>
<polygon fill="midnightblue" stroke="midnightblue" points="2275.99,-110.507 2266.52,-115.265 2276.89,-117.449 2275.99,-110.507"/>
</g>
<!-- Node14 -->
<g id="node14" class="node"><title>Node14</title>
<g id="a_node14"><a xlink:href="agent__send_8cpp.html" target="_top" xlink:title="agent_send.cpp">
<polygon fill="white" stroke="black" points="3965.5,-56.5 3965.5,-75.5 4051.5,-75.5 4051.5,-56.5 3965.5,-56.5"/>
<text text-anchor="middle" x="4008.5" y="-63.5" font-family="Helvetica,sans-Serif" font-size="10.00">agent_send.cpp</text>
</a>
</g>
</g>
<!-- Node3&#45;&gt;Node14 -->
<g id="edge13" class="edge"><title>Node3&#45;&gt;Node14</title>
<path fill="none" stroke="midnightblue" d="M2276.88,-113.911C2283.13,-113.152 2289.46,-112.482 2295.5,-112 3031.56,-53.2648 3221.54,-147.163 3956.5,-76 3959.42,-75.7174 3962.42,-75.3649 3965.44,-74.9643"/>
<polygon fill="midnightblue" stroke="midnightblue" points="2275.99,-110.498 2266.52,-115.255 2276.89,-117.439 2275.99,-110.498"/>
</g>
<!-- Node15 -->
<g id="node15" class="node"><title>Node15</title>
<g id="a_node15"><a xlink:href="propagator__simple_8cpp.html" target="_top" xlink:title="propagator_simple.cpp">
<polygon fill="white" stroke="black" points="4070,-56.5 4070,-75.5 4185,-75.5 4185,-56.5 4070,-56.5"/>
<text text-anchor="middle" x="4127.5" y="-63.5" font-family="Helvetica,sans-Serif" font-size="10.00">propagator_simple.cpp</text>
</a>
</g>
</g>
<!-- Node3&#45;&gt;Node15 -->
<g id="edge14" class="edge"><title>Node3&#45;&gt;Node15</title>
<path fill="none" stroke="midnightblue" d="M2276.88,-113.904C2283.13,-113.146 2289.46,-112.478 2295.5,-112 3077.66,-50.0881 3278.21,-136.325 4060.5,-76 4063.54,-75.7654 4066.66,-75.4856 4069.8,-75.1722"/>
<polygon fill="midnightblue" stroke="midnightblue" points="2275.99,-110.49 2266.52,-115.247 2276.89,-117.432 2275.99,-110.49"/>
</g>
<!-- Node16 -->
<g id="node16" class="node"><title>Node16</title>
<g id="a_node16"><a xlink:href="scheduler_8h.html" target="_top" xlink:title="Scheduler Class. ">
<polygon fill="white" stroke="red" points="4203,-56.5 4203,-75.5 4270,-75.5 4270,-56.5 4203,-56.5"/>
<text text-anchor="middle" x="4236.5" y="-63.5" font-family="Helvetica,sans-Serif" font-size="10.00">scheduler.h</text>
</a>
</g>
</g>
<!-- Node3&#45;&gt;Node16 -->
<g id="edge16" class="edge"><title>Node3&#45;&gt;Node16</title>
<path fill="none" stroke="midnightblue" d="M2276.88,-113.895C2283.13,-113.139 2289.46,-112.474 2295.5,-112 2716.28,-78.9975 3775.21,-124.442 4194.5,-76 4197.17,-75.6919 4199.91,-75.2925 4202.67,-74.8335"/>
<polygon fill="midnightblue" stroke="midnightblue" points="2275.99,-110.482 2266.52,-115.238 2276.88,-117.424 2275.99,-110.482"/>
</g>
<!-- Node17 -->
<g id="node17" class="node"><title>Node17</title>
<g id="a_node17"><a xlink:href="acq__a35_8cpp.html" target="_top" xlink:title="acq_a35.cpp">
<polygon fill="white" stroke="black" points="134.5,-0.5 134.5,-19.5 206.5,-19.5 206.5,-0.5 134.5,-0.5"/>
<text text-anchor="middle" x="170.5" y="-7.5" font-family="Helvetica,sans-Serif" font-size="10.00">acq_a35.cpp</text>
</a>
</g>
</g>
<!-- Node3&#45;&gt;Node17 -->
<g id="edge17" class="edge"><title>Node3&#45;&gt;Node17</title>
<path fill="none" stroke="midnightblue" d="M2184.26,-120.617C1897.47,-118.159 370.845,-103.8 276.5,-76 237.364,-64.4682 198.238,-34.535 180.439,-19.6567"/>
<polygon fill="midnightblue" stroke="midnightblue" points="2184.29,-124.118 2194.32,-120.703 2184.35,-117.118 2184.29,-124.118"/>
</g>
<!-- Node18 -->
<g id="node18" class="node"><title>Node18</title>
<g id="a_node18"><a xlink:href="acq__a35_8h.html" target="_top" xlink:title="acq_a35.h">
<polygon fill="white" stroke="black" points="139.5,-56.5 139.5,-75.5 201.5,-75.5 201.5,-56.5 139.5,-56.5"/>
<text text-anchor="middle" x="170.5" y="-63.5" font-family="Helvetica,sans-Serif" font-size="10.00">acq_a35.h</text>
</a>
</g>
</g>
<!-- Node3&#45;&gt;Node18 -->
<g id="edge18" class="edge"><title>Node3&#45;&gt;Node18</title>
<path fill="none" stroke="midnightblue" d="M2184.11,-121.068C1921.12,-121.283 615.152,-120.084 215.5,-76 211.065,-75.5108 206.417,-74.805 201.862,-74.0007"/>
<polygon fill="midnightblue" stroke="midnightblue" points="2184.44,-124.567 2194.44,-121.058 2184.44,-117.567 2184.44,-124.567"/>
</g>
<!-- Node19 -->
<g id="node19" class="node"><title>Node19</title>
<g id="a_node19"><a xlink:href="command__queue_8h.html" target="_top" xlink:title="Command Queue Class. ">
<polygon fill="white" stroke="red" points="296,-56.5 296,-75.5 395,-75.5 395,-56.5 296,-56.5"/>
<text text-anchor="middle" x="345.5" y="-63.5" font-family="Helvetica,sans-Serif" font-size="10.00">command_queue.h</text>
</a>
</g>
</g>
<!-- Node3&#45;&gt;Node19 -->
<g id="edge20" class="edge"><title>Node3&#45;&gt;Node19</title>
<path fill="none" stroke="midnightblue" d="M2184.18,-120.672C1936.31,-118.793 764.503,-108.318 403.5,-76 400.76,-75.7547 397.952,-75.461 395.122,-75.1319"/>
<polygon fill="midnightblue" stroke="midnightblue" points="2184.26,-124.172 2194.28,-120.748 2184.31,-117.173 2184.26,-124.172"/>
</g>
<!-- Node20 -->
<g id="node20" class="node"><title>Node20</title>
<g id="a_node20"><a xlink:href="agent__exec_8cpp.html" target="_top" xlink:title="Executive Agent source file. ">
<polygon fill="white" stroke="black" points="263.5,-0.5 263.5,-19.5 349.5,-19.5 349.5,-0.5 263.5,-0.5"/>
<text text-anchor="middle" x="306.5" y="-7.5" font-family="Helvetica,sans-Serif" font-size="10.00">agent_exec.cpp</text>
</a>
</g>
</g>
<!-- Node3&#45;&gt;Node20 -->
<g id="edge27" class="edge"><title>Node3&#45;&gt;Node20</title>
<path fill="none" stroke="midnightblue" d="M2183.85,-120.813C1891.28,-119.532 320.73,-111.031 286.5,-76 271.317,-60.4617 288.292,-33.6806 299.041,-19.8453"/>
<polygon fill="midnightblue" stroke="midnightblue" points="2184.09,-124.314 2194.1,-120.857 2184.12,-117.314 2184.09,-124.314"/>
</g>
<!-- Node21 -->
<g id="node21" class="node"><title>Node21</title>
<g id="a_node21"><a xlink:href="agent__monitor_8cpp.html" target="_top" xlink:title="agent_monitor.cpp">
<polygon fill="white" stroke="black" points="1854,-0.5 1854,-19.5 1951,-19.5 1951,-0.5 1854,-0.5"/>
<text text-anchor="middle" x="1902.5" y="-7.5" font-family="Helvetica,sans-Serif" font-size="10.00">agent_monitor.cpp</text>
</a>
</g>
</g>
<!-- Node3&#45;&gt;Node21 -->
<g id="edge33" class="edge"><title>Node3&#45;&gt;Node21</title>
<path fill="none" stroke="midnightblue" d="M2276.89,-113.985C2283.13,-113.214 2289.46,-112.521 2295.5,-112 2352.88,-107.044 3291.49,-117.424 3331.5,-76 3337.68,-69.6064 3337.69,-62.3835 3331.5,-56 3306.95,-30.6684 2198.72,-14.8359 1951.18,-11.6119"/>
<polygon fill="midnightblue" stroke="midnightblue" points="2275.99,-110.573 2266.53,-115.34 2276.9,-117.514 2275.99,-110.573"/>
</g>
<!-- Node22 -->
<g id="node22" class="node"><title>Node22</title>
<g id="a_node22"><a xlink:href="agent__time_8cpp.html" target="_top" xlink:title="agent_time.cpp">
<polygon fill="white" stroke="black" points="3132,-0.5 3132,-19.5 3215,-19.5 3215,-0.5 3132,-0.5"/>
<text text-anchor="middle" x="3173.5" y="-7.5" font-family="Helvetica,sans-Serif" font-size="10.00">agent_time.cpp</text>
</a>
</g>
</g>
<!-- Node3&#45;&gt;Node22 -->
<g id="edge35" class="edge"><title>Node3&#45;&gt;Node22</title>
<path fill="none" stroke="midnightblue" d="M2276.88,-113.891C2283.13,-113.135 2289.46,-112.471 2295.5,-112 2350.45,-107.712 4240.88,-115.328 4279.5,-76 4285.73,-69.6578 4285.66,-62.4119 4279.5,-56 4241.98,-16.9261 3412.4,-11.7733 3215.26,-11.1002"/>
<polygon fill="midnightblue" stroke="midnightblue" points="2275.98,-110.477 2266.52,-115.232 2276.88,-117.419 2275.98,-110.477"/>
</g>
<!-- Node23 -->
<g id="node23" class="node"><title>Node23</title>
<g id="a_node23"><a xlink:href="agent_8cpp.html" target="_top" xlink:title="Agent control program source. ">
<polygon fill="white" stroke="black" points="413,-56.5 413,-75.5 472,-75.5 472,-56.5 413,-56.5"/>
<text text-anchor="middle" x="442.5" y="-63.5" font-family="Helvetica,sans-Serif" font-size="10.00">agent.cpp</text>
</a>
</g>
</g>
<!-- Node3&#45;&gt;Node23 -->
<g id="edge24" class="edge"><title>Node3&#45;&gt;Node23</title>
<path fill="none" stroke="midnightblue" d="M2184.2,-121.068C1942.62,-121.231 824.807,-119.578 481.5,-76 478.467,-75.615 475.324,-75.0965 472.199,-74.5017"/>
<polygon fill="midnightblue" stroke="midnightblue" points="2184.39,-124.568 2194.39,-121.06 2184.38,-117.568 2184.39,-124.568"/>
</g>
<!-- Node24 -->
<g id="node24" class="node"><title>Node24</title>
<g id="a_node24"><a xlink:href="agent__cpu_8cpp.html" target="_top" xlink:title="agent_cpu.cpp">
<polygon fill="white" stroke="black" points="490.5,-56.5 490.5,-75.5 570.5,-75.5 570.5,-56.5 490.5,-56.5"/>
<text text-anchor="middle" x="530.5" y="-63.5" font-family="Helvetica,sans-Serif" font-size="10.00">agent_cpu.cpp</text>
</a>
</g>
</g>
<!-- Node3&#45;&gt;Node24 -->
<g id="edge25" class="edge"><title>Node3&#45;&gt;Node24</title>
<path fill="none" stroke="midnightblue" d="M2184.23,-120.705C1951.07,-119.071 903.19,-109.933 579.5,-76 576.575,-75.6934 573.563,-75.3095 570.538,-74.8742"/>
<polygon fill="midnightblue" stroke="midnightblue" points="2184.38,-124.206 2194.4,-120.775 2184.43,-117.206 2184.38,-124.206"/>
</g>
<!-- Node25 -->
<g id="node25" class="node"><title>Node25</title>
<g id="a_node25"><a xlink:href="agent__data_8cpp.html" target="_top" xlink:title="agent_data.cpp">
<polygon fill="white" stroke="black" points="589,-56.5 589,-75.5 672,-75.5 672,-56.5 589,-56.5"/>
<text text-anchor="middle" x="630.5" y="-63.5" font-family="Helvetica,sans-Serif" font-size="10.00">agent_data.cpp</text>
</a>
</g>
</g>
<!-- Node3&#45;&gt;Node25 -->
<g id="edge26" class="edge"><title>Node3&#45;&gt;Node25</title>
<path fill="none" stroke="midnightblue" d="M2184.21,-120.588C1959.74,-118.445 983.128,-107.452 680.5,-76 677.78,-75.7174 674.986,-75.3712 672.176,-74.981"/>
<polygon fill="midnightblue" stroke="midnightblue" points="2184.29,-124.088 2194.32,-120.683 2184.36,-117.089 2184.29,-124.088"/>
</g>
<!-- Node26 -->
<g id="node26" class="node"><title>Node26</title>
<g id="a_node26"><a xlink:href="agent__file_8cpp.html" target="_top" xlink:title="File Transfer Agent source file. ">
<polygon fill="white" stroke="black" points="690,-56.5 690,-75.5 767,-75.5 767,-56.5 690,-56.5"/>
<text text-anchor="middle" x="728.5" y="-63.5" font-family="Helvetica,sans-Serif" font-size="10.00">agent_file.cpp</text>
</a>
</g>
</g>
<!-- Node3&#45;&gt;Node26 -->
<g id="edge28" class="edge"><title>Node3&#45;&gt;Node26</title>
<path fill="none" stroke="midnightblue" d="M2184.28,-120.556C1968.41,-118.331 1058.18,-107.237 775.5,-76 772.775,-75.6989 769.971,-75.3258 767.155,-74.9044"/>
<polygon fill="midnightblue" stroke="midnightblue" points="2184.28,-124.056 2194.32,-120.658 2184.35,-117.056 2184.28,-124.056"/>
</g>
<!-- Node27 -->
<g id="node27" class="node"><title>Node27</title>
<g id="a_node27"><a xlink:href="agent__file2_8cpp.html" target="_top" xlink:title="agent_file2.cpp">
<polygon fill="white" stroke="black" points="785,-56.5 785,-75.5 868,-75.5 868,-56.5 785,-56.5"/>
<text text-anchor="middle" x="826.5" y="-63.5" font-family="Helvetica,sans-Serif" font-size="10.00">agent_file2.cpp</text>
</a>
</g>
</g>
<!-- Node3&#45;&gt;Node27 -->
<g id="edge29" class="edge"><title>Node3&#45;&gt;Node27</title>
<path fill="none" stroke="midnightblue" d="M2184.21,-120.363C1977.58,-117.381 1138.29,-103.763 876.5,-76 873.781,-75.7116 870.987,-75.3612 868.177,-74.9678"/>
<polygon fill="midnightblue" stroke="midnightblue" points="2184.36,-123.865 2194.4,-120.509 2184.46,-116.866 2184.36,-123.865"/>
</g>
<!-- Node28 -->
<g id="node28" class="node"><title>Node28</title>
<g id="a_node28"><a xlink:href="agent__file3_8cpp.html" target="_top" xlink:title="agent_file3.cpp">
<polygon fill="white" stroke="black" points="886,-56.5 886,-75.5 969,-75.5 969,-56.5 886,-56.5"/>
<text text-anchor="middle" x="927.5" y="-63.5" font-family="Helvetica,sans-Serif" font-size="10.00">agent_file3.cpp</text>
</a>
</g>
</g>
<!-- Node3&#45;&gt;Node28 -->
<g id="edge30" class="edge"><title>Node3&#45;&gt;Node28</title>
<path fill="none" stroke="midnightblue" d="M2184.2,-120.22C1987.25,-116.766 1218.31,-101.865 977.5,-76 974.781,-75.708 971.988,-75.3548 969.178,-74.9594"/>
<polygon fill="midnightblue" stroke="midnightblue" points="2184.42,-123.724 2194.48,-120.399 2184.54,-116.725 2184.42,-123.724"/>
</g>
<!-- Node29 -->
<g id="node29" class="node"><title>Node29</title>
<g id="a_node29"><a xlink:href="agent__file4_8cpp.html" target="_top" xlink:title="agent_file4.cpp">
<polygon fill="white" stroke="black" points="987,-56.5 987,-75.5 1070,-75.5 1070,-56.5 987,-56.5"/>
<text text-anchor="middle" x="1028.5" y="-63.5" font-family="Helvetica,sans-Serif" font-size="10.00">agent_file4.cpp</text>
</a>
</g>
</g>
<!-- Node3&#45;&gt;Node29 -->
<g id="edge31" class="edge"><title>Node3&#45;&gt;Node29</title>
<path fill="none" stroke="midnightblue" d="M2183.83,-121.498C2027.17,-122.676 1505.92,-122.588 1078.5,-76 1075.78,-75.7037 1072.99,-75.3472 1070.18,-74.9495"/>
<polygon fill="midnightblue" stroke="midnightblue" points="2184.08,-124.996 2194.05,-121.415 2184.02,-117.997 2184.08,-124.996"/>
</g>
<!-- Node30 -->
<g id="node30" class="node"><title>Node30</title>
<g id="a_node30"><a xlink:href="agent__forward_8cpp.html" target="_top" xlink:title="agent_forward.cpp">
<polygon fill="white" stroke="black" points="1088,-56.5 1088,-75.5 1185,-75.5 1185,-56.5 1088,-56.5"/>
<text text-anchor="middle" x="1136.5" y="-63.5" font-family="Helvetica,sans-Serif" font-size="10.00">agent_forward.cpp</text>
</a>
</g>
</g>
<!-- Node3&#45;&gt;Node30 -->
<g id="edge32" class="edge"><title>Node3&#45;&gt;Node30</title>
<path fill="none" stroke="midnightblue" d="M2183.77,-120.807C2037.43,-119.811 1575.09,-113.677 1194.5,-76 1191.46,-75.6988 1188.33,-75.3447 1185.18,-74.954"/>
<polygon fill="midnightblue" stroke="midnightblue" points="2184.13,-124.31 2194.15,-120.873 2184.18,-117.31 2184.13,-124.31"/>
</g>
<!-- Node31 -->
<g id="node31" class="node"><title>Node31</title>
<g id="a_node31"><a xlink:href="agent__route_8cpp.html" target="_top" xlink:title="agent_route.cpp">
<polygon fill="white" stroke="black" points="1203.5,-56.5 1203.5,-75.5 1289.5,-75.5 1289.5,-56.5 1203.5,-56.5"/>
<text text-anchor="middle" x="1246.5" y="-63.5" font-family="Helvetica,sans-Serif" font-size="10.00">agent_route.cpp</text>
</a>
</g>
</g>
<!-- Node3&#45;&gt;Node31 -->
<g id="edge34" class="edge"><title>Node3&#45;&gt;Node31</title>
<path fill="none" stroke="midnightblue" d="M2184.32,-120.779C2048.24,-119.696 1637.08,-113.33 1298.5,-76 1295.59,-75.6787 1292.59,-75.2971 1289.57,-74.8753"/>
<polygon fill="midnightblue" stroke="midnightblue" points="2184.36,-124.279 2194.39,-120.853 2184.42,-117.279 2184.36,-124.279"/>
</g>
<!-- Node32 -->
<g id="node32" class="node"><title>Node32</title>
<g id="a_node32"><a xlink:href="agent__tunnel_8cpp.html" target="_top" xlink:title="agent_tunnel.cpp">
<polygon fill="white" stroke="black" points="1308,-56.5 1308,-75.5 1399,-75.5 1399,-56.5 1308,-56.5"/>
<text text-anchor="middle" x="1353.5" y="-63.5" font-family="Helvetica,sans-Serif" font-size="10.00">agent_tunnel.cpp</text>
</a>
</g>
</g>
<!-- Node3&#45;&gt;Node32 -->
<g id="edge36" class="edge"><title>Node3&#45;&gt;Node32</title>
<path fill="none" stroke="midnightblue" d="M2184.33,-120.211C2059.14,-117.696 1702.86,-108.047 1408.5,-76 1405.42,-75.6649 1402.25,-75.2729 1399.07,-74.8436"/>
<polygon fill="midnightblue" stroke="midnightblue" points="2184.27,-123.71 2194.33,-120.406 2184.4,-116.712 2184.27,-123.71"/>
</g>
<!-- Node33 -->
<g id="node33" class="node"><title>Node33</title>
<g id="a_node33"><a xlink:href="agent__tunnel2_8cpp.html" target="_top" xlink:title="agent_tunnel2.cpp">
<polygon fill="white" stroke="black" points="1417.5,-56.5 1417.5,-75.5 1513.5,-75.5 1513.5,-56.5 1417.5,-56.5"/>
<text text-anchor="middle" x="1465.5" y="-63.5" font-family="Helvetica,sans-Serif" font-size="10.00">agent_tunnel2.cpp</text>
</a>
</g>
</g>
<!-- Node3&#45;&gt;Node33 -->
<g id="edge37" class="edge"><title>Node3&#45;&gt;Node33</title>
<path fill="none" stroke="midnightblue" d="M2184.25,-119.552C2071.06,-115.684 1771.21,-103.478 1522.5,-76 1519.61,-75.6809 1516.65,-75.3187 1513.66,-74.9271"/>
<polygon fill="midnightblue" stroke="midnightblue" points="2184.18,-123.052 2194.29,-119.89 2184.42,-116.056 2184.18,-123.052"/>
</g>
<!-- Node34 -->
<g id="node34" class="node"><title>Node34</title>
<g id="a_node34"><a xlink:href="cosmos_8cpp.html" target="_top" xlink:title="cosmos.cpp">
<polygon fill="white" stroke="black" points="1531.5,-56.5 1531.5,-75.5 1601.5,-75.5 1601.5,-56.5 1531.5,-56.5"/>
<text text-anchor="middle" x="1566.5" y="-63.5" font-family="Helvetica,sans-Serif" font-size="10.00">cosmos.cpp</text>
</a>
</g>
</g>
<!-- Node3&#45;&gt;Node34 -->
<g id="edge38" class="edge"><title>Node3&#45;&gt;Node34</title>
<path fill="none" stroke="midnightblue" d="M2184.24,-119.687C2080.92,-116.307 1823.68,-105.413 1610.5,-76 1607.72,-75.6164 1604.85,-75.1626 1601.97,-74.6661"/>
<polygon fill="midnightblue" stroke="midnightblue" points="2184.23,-123.188 2194.34,-120.009 2184.45,-116.192 2184.23,-123.188"/>
</g>
<!-- Node35 -->
<g id="node35" class="node"><title>Node35</title>
<g id="a_node35"><a xlink:href="agent__antenna_8cpp.html" target="_top" xlink:title="Agent Antenna for Satellite Ground Station. ">
<polygon fill="white" stroke="black" points="1620,-56.5 1620,-75.5 1719,-75.5 1719,-56.5 1620,-56.5"/>
<text text-anchor="middle" x="1669.5" y="-63.5" font-family="Helvetica,sans-Serif" font-size="10.00">agent_antenna.cpp</text>
</a>
</g>
</g>
<!-- Node3&#45;&gt;Node35 -->
<g id="edge39" class="edge"><title>Node3&#45;&gt;Node35</title>
<path fill="none" stroke="midnightblue" d="M2184.2,-117.814C2095.56,-111.5 1895.83,-96.2425 1728.5,-76 1725.41,-75.6267 1722.24,-75.2173 1719.04,-74.7853"/>
<polygon fill="midnightblue" stroke="midnightblue" points="2183.97,-121.306 2194.2,-118.521 2184.47,-114.324 2183.97,-121.306"/>
</g>
<!-- Node36 -->
<g id="node36" class="node"><title>Node36</title>
<g id="a_node36"><a xlink:href="agent__control_8cpp.html" target="_top" xlink:title="Agent Control for Satellite Ground Station. ">
<polygon fill="white" stroke="black" points="1737.5,-56.5 1737.5,-75.5 1831.5,-75.5 1831.5,-56.5 1737.5,-56.5"/>
<text text-anchor="middle" x="1784.5" y="-63.5" font-family="Helvetica,sans-Serif" font-size="10.00">agent_control.cpp</text>
</a>
</g>
</g>
<!-- Node3&#45;&gt;Node36 -->
<g id="edge40" class="edge"><title>Node3&#45;&gt;Node36</title>
<path fill="none" stroke="midnightblue" d="M2184.16,-116.327C2111.02,-108.8 1964.38,-93.0929 1840.5,-76 1837.57,-75.5962 1834.56,-75.1635 1831.53,-74.7141"/>
<polygon fill="midnightblue" stroke="midnightblue" points="2184.1,-119.839 2194.41,-117.378 2184.82,-112.876 2184.1,-119.839"/>
</g>
<!-- Node3&#45;&gt;Node37 -->
<g id="edge41" class="edge"><title>Node3&#45;&gt;Node37</title>
<path fill="none" stroke="midnightblue" d="M2276.88,-113.889C2283.13,-113.133 2289.46,-112.47 2295.5,-112 3189.38,-42.3904 3418.41,-142.928 4312.5,-76 4317.13,-75.6533 4321.93,-75.2034 4326.74,-74.6897"/>
<polygon fill="midnightblue" stroke="midnightblue" points="2275.98,-110.476 2266.52,-115.23 2276.88,-117.418 2275.98,-110.476"/>
</g>
<!-- Node38 -->
<g id="node38" class="node"><title>Node38</title>
<g id="a_node38"><a xlink:href="agent__radio_8cpp.html" target="_top" xlink:title="Agent Radio for Satellite Ground Station. ">
<polygon fill="white" stroke="black" points="1849.5,-56.5 1849.5,-75.5 1935.5,-75.5 1935.5,-56.5 1849.5,-56.5"/>
<text text-anchor="middle" x="1892.5" y="-63.5" font-family="Helvetica,sans-Serif" font-size="10.00">agent_radio.cpp</text>
</a>
</g>
</g>
<!-- Node3&#45;&gt;Node38 -->
<g id="edge42" class="edge"><title>Node3&#45;&gt;Node38</title>
<path fill="none" stroke="midnightblue" d="M2184.29,-113.952C2127.72,-105.272 2029,-89.9596 1944.5,-76 1941.61,-75.5221 1938.63,-75.0231 1935.62,-74.5157"/>
<polygon fill="midnightblue" stroke="midnightblue" points="2183.94,-117.439 2194.35,-115.494 2185,-110.52 2183.94,-117.439"/>
</g>
<!-- Node39 -->
<g id="node39" class="node"><title>Node39</title>
<g id="a_node39"><a xlink:href="agent__arduino_8cpp.html" target="_top" xlink:title="agent_arduino.cpp">
<polygon fill="white" stroke="black" points="1953.5,-56.5 1953.5,-75.5 2049.5,-75.5 2049.5,-56.5 1953.5,-56.5"/>
<text text-anchor="middle" x="2001.5" y="-63.5" font-family="Helvetica,sans-Serif" font-size="10.00">agent_arduino.cpp</text>
</a>
</g>
</g>
<!-- Node3&#45;&gt;Node39 -->
<g id="edge43" class="edge"><title>Node3&#45;&gt;Node39</title>
<path fill="none" stroke="midnightblue" d="M2184.49,-110.15C2141.25,-99.9545 2077.42,-84.9015 2037.7,-75.5364"/>
<polygon fill="midnightblue" stroke="midnightblue" points="2183.93,-113.614 2194.47,-112.503 2185.54,-106.801 2183.93,-113.614"/>
</g>
<!-- Node40 -->
<g id="node40" class="node"><title>Node40</title>
<g id="a_node40"><a xlink:href="agent__example_8cpp.html" target="_top" xlink:title="agent_example.cpp">
<polygon fill="white" stroke="black" points="2068,-56.5 2068,-75.5 2169,-75.5 2169,-56.5 2068,-56.5"/>
<text text-anchor="middle" x="2118.5" y="-63.5" font-family="Helvetica,sans-Serif" font-size="10.00">agent_example.cpp</text>
</a>
</g>
</g>
<!-- Node3&#45;&gt;Node40 -->
<g id="edge44" class="edge"><title>Node3&#45;&gt;Node40</title>
<path fill="none" stroke="midnightblue" d="M2203.25,-107.862C2182.48,-97.8492 2154.48,-84.3458 2136.45,-75.6545"/>
<polygon fill="midnightblue" stroke="midnightblue" points="2201.98,-111.134 2212.51,-112.324 2205.02,-104.828 2201.98,-111.134"/>
</g>
<!-- Node41 -->
<g id="node41" class="node"><title>Node41</title>
<g id="a_node41"><a xlink:href="agent__node_8cpp.html" target="_top" xlink:title="agent_node.cpp">
<polygon fill="white" stroke="black" points="2187.5,-56.5 2187.5,-75.5 2273.5,-75.5 2273.5,-56.5 2187.5,-56.5"/>
<text text-anchor="middle" x="2230.5" y="-63.5" font-family="Helvetica,sans-Serif" font-size="10.00">agent_node.cpp</text>
</a>
</g>
</g>
<!-- Node3&#45;&gt;Node41 -->
<g id="edge45" class="edge"><title>Node3&#45;&gt;Node41</title>
<path fill="none" stroke="midnightblue" d="M2230.5,-101.805C2230.5,-92.9102 2230.5,-82.7798 2230.5,-75.7511"/>
<polygon fill="midnightblue" stroke="midnightblue" points="2227,-102.083 2230.5,-112.083 2234,-102.083 2227,-102.083"/>
</g>
<!-- Node42 -->
<g id="node42" class="node"><title>Node42</title>
<g id="a_node42"><a xlink:href="agent__orig_8cpp.html" target="_top" xlink:title="agent_orig.cpp">
<polygon fill="white" stroke="black" points="2291.5,-56.5 2291.5,-75.5 2371.5,-75.5 2371.5,-56.5 2291.5,-56.5"/>
<text text-anchor="middle" x="2331.5" y="-63.5" font-family="Helvetica,sans-Serif" font-size="10.00">agent_orig.cpp</text>
</a>
</g>
</g>
<!-- Node3&#45;&gt;Node42 -->
<g id="edge46" class="edge"><title>Node3&#45;&gt;Node42</title>
<path fill="none" stroke="midnightblue" d="M2255.58,-107.59C2274.26,-97.6052 2299.2,-84.2672 2315.31,-75.6545"/>
<polygon fill="midnightblue" stroke="midnightblue" points="2253.9,-104.522 2246.73,-112.324 2257.2,-110.696 2253.9,-104.522"/>
</g>
<!-- Node3&#45;&gt;Node43 -->
<g id="edge47" class="edge"><title>Node3&#45;&gt;Node43</title>
<path fill="none" stroke="midnightblue" d="M2276.77,-116.261C2294.5,-114.629 2314.92,-112.969 2333.5,-112 3270.14,-63.1487 3509.12,-157.338 4443.5,-76 4446.09,-75.7741 4448.75,-75.5013 4451.43,-75.1933"/>
<polygon fill="midnightblue" stroke="midnightblue" points="2276.31,-112.789 2266.68,-117.214 2276.97,-119.758 2276.31,-112.789"/>
</g>
<!-- Node44 -->
<g id="node44" class="node"><title>Node44</title>
<g id="a_node44"><a xlink:href="agent__transmitter_8cpp.html" target="_top" xlink:title="agent_transmitter.cpp">
<polygon fill="white" stroke="black" points="2390,-56.5 2390,-75.5 2501,-75.5 2501,-56.5 2390,-56.5"/>
<text text-anchor="middle" x="2445.5" y="-63.5" font-family="Helvetica,sans-Serif" font-size="10.00">agent_transmitter.cpp</text>
</a>
</g>
</g>
<!-- Node3&#45;&gt;Node44 -->
<g id="edge48" class="edge"><title>Node3&#45;&gt;Node44</title>
<path fill="none" stroke="midnightblue" d="M2274.46,-109.959C2315.07,-99.7598 2374.54,-84.8217 2411.59,-75.5164"/>
<polygon fill="midnightblue" stroke="midnightblue" points="2273.41,-106.613 2264.57,-112.444 2275.12,-113.402 2273.41,-106.613"/>
</g>
<!-- Node45 -->
<g id="node45" class="node"><title>Node45</title>
<g id="a_node45"><a xlink:href="agent__transmitter2_8cpp.html" target="_top" xlink:title="agent_transmitter2.cpp">
<polygon fill="white" stroke="black" points="2519.5,-56.5 2519.5,-75.5 2635.5,-75.5 2635.5,-56.5 2519.5,-56.5"/>
<text text-anchor="middle" x="2577.5" y="-63.5" font-family="Helvetica,sans-Serif" font-size="10.00">agent_transmitter2.cpp</text>
</a>
</g>
</g>
<!-- Node3&#45;&gt;Node45 -->
<g id="edge49" class="edge"><title>Node3&#45;&gt;Node45</title>
<path fill="none" stroke="midnightblue" d="M2276.8,-113.795C2340.46,-103.888 2454.84,-86.0885 2522.69,-75.5289"/>
<polygon fill="midnightblue" stroke="midnightblue" points="2276,-110.378 2266.65,-115.374 2277.07,-117.294 2276,-110.378"/>
</g>
<!-- Node46 -->
<g id="node46" class="node"><title>Node46</title>
<g id="a_node46"><a xlink:href="archive_8cpp.html" target="_top" xlink:title="archive.cpp">
<polygon fill="white" stroke="black" points="2654,-56.5 2654,-75.5 2721,-75.5 2721,-56.5 2654,-56.5"/>
<text text-anchor="middle" x="2687.5" y="-63.5" font-family="Helvetica,sans-Serif" font-size="10.00">archive.cpp</text>
</a>
</g>
</g>
<!-- Node3&#45;&gt;Node46 -->
<g id="edge50" class="edge"><title>Node3&#45;&gt;Node46</title>
<path fill="none" stroke="midnightblue" d="M2276.93,-114.371C2283.17,-113.539 2289.49,-112.726 2295.5,-112 2450.31,-93.3037 2490.42,-100.005 2644.5,-76 2647.51,-75.5304 2650.64,-74.9877 2653.76,-74.4064"/>
<polygon fill="midnightblue" stroke="midnightblue" points="2276.01,-110.964 2266.57,-115.778 2276.95,-117.9 2276.01,-110.964"/>
</g>
<!-- Node47 -->
<g id="node47" class="node"><title>Node47</title>
<g id="a_node47"><a xlink:href="cosmos__size_8cpp.html" target="_top" xlink:title="cosmos_size.cpp">
<polygon fill="white" stroke="black" points="2739,-56.5 2739,-75.5 2832,-75.5 2832,-56.5 2739,-56.5"/>
<text text-anchor="middle" x="2785.5" y="-63.5" font-family="Helvetica,sans-Serif" font-size="10.00">cosmos_size.cpp</text>
</a>
</g>
</g>
<!-- Node3&#45;&gt;Node47 -->
<g id="edge51" class="edge"><title>Node3&#45;&gt;Node47</title>
<path fill="none" stroke="midnightblue" d="M2276.91,-114.257C2283.16,-113.443 2289.48,-112.665 2295.5,-112 2488.32,-90.6885 2537.96,-99.6827 2730.5,-76 2733.19,-75.6693 2735.95,-75.3032 2738.73,-74.9135"/>
<polygon fill="midnightblue" stroke="midnightblue" points="2276,-110.848 2266.56,-115.648 2276.93,-117.785 2276,-110.848"/>
</g>
<!-- Node18&#45;&gt;Node17 -->
<g id="edge19" class="edge"><title>Node18&#45;&gt;Node17</title>
<path fill="none" stroke="midnightblue" d="M170.5,-45.8045C170.5,-36.9102 170.5,-26.7798 170.5,-19.7511"/>
<polygon fill="midnightblue" stroke="midnightblue" points="167,-46.083 170.5,-56.083 174,-46.083 167,-46.083"/>
</g>
<!-- Node19&#45;&gt;Node20 -->
<g id="edge21" class="edge"><title>Node19&#45;&gt;Node20</title>
<path fill="none" stroke="midnightblue" d="M333.118,-47.8554C326.365,-38.5048 318.291,-27.3265 312.82,-19.7511"/>
<polygon fill="midnightblue" stroke="midnightblue" points="330.368,-50.0254 339.06,-56.083 336.042,-45.927 330.368,-50.0254"/>
</g>
<!-- Node19&#45;&gt;Node21 -->
<g id="edge22" class="edge"><title>Node19&#45;&gt;Node21</title>
<path fill="none" stroke="midnightblue" d="M405.46,-55.9557C715.758,-28.8057 1632.51,-14.7201 1853.97,-11.6466"/>
<polygon fill="midnightblue" stroke="midnightblue" points="404.77,-52.5036 395.124,-56.8858 405.397,-59.4754 404.77,-52.5036"/>
</g>
<!-- Node19&#45;&gt;Node22 -->
<g id="edge23" class="edge"><title>Node19&#45;&gt;Node22</title>
<path fill="none" stroke="midnightblue" d="M405.143,-56.0377C731.974,-31.467 2810.86,-13.9127 3131.9,-11.329"/>
<polygon fill="midnightblue" stroke="midnightblue" points="404.808,-52.5531 395.12,-56.8406 405.367,-59.5308 404.808,-52.5531"/>
</g>
<!-- Node48&#45;&gt;Node17 -->
<g id="edge53" class="edge"><title>Node48&#45;&gt;Node17</title>
<path fill="none" stroke="midnightblue" d="M151.19,-105.617C137.819,-92.968 123.572,-74.2219 130.5,-56 136.221,-40.9535 149.534,-27.7254 159.234,-19.5728"/>
<polygon fill="midnightblue" stroke="midnightblue" points="148.976,-108.331 158.795,-112.311 153.6,-103.076 148.976,-108.331"/>
</g>
<!-- Node48&#45;&gt;Node18 -->
<g id="edge54" class="edge"><title>Node48&#45;&gt;Node18</title>
<path fill="none" stroke="midnightblue" d="M170.5,-101.805C170.5,-92.9102 170.5,-82.7798 170.5,-75.7511"/>
<polygon fill="midnightblue" stroke="midnightblue" points="167,-102.083 170.5,-112.083 174,-102.083 167,-102.083"/>
</g>
<!-- Node49&#45;&gt;Node3 -->
<g id="edge56" class="edge"><title>Node49&#45;&gt;Node3</title>
<path fill="none" stroke="midnightblue" d="M2220.67,-158.396C2223.18,-149.362 2226.07,-138.936 2228.07,-131.751"/>
<polygon fill="midnightblue" stroke="midnightblue" points="2217.28,-157.511 2217.98,-168.083 2224.03,-159.385 2217.28,-157.511"/>
</g>
</g>
</svg>
        <g id="navigator" transform="translate(0 0)" fill="#404254">
                <rect fill="#f2f5e9" fill-opacity="0.5" stroke="#606060" stroke-width=".5" x="0" y="0" width="60" height="60"/>
                <use id="zoomplus" xlink:href="#zoomPlus" x="17" y="9" onmousedown="handleZoom(evt,'in')"/>
                <use id="zoomminus" xlink:href="#zoomMin" x="42" y="9" onmousedown="handleZoom(evt,'out')"/>
                <use id="reset" xlink:href="#resetDef" x="30" y="36" onmousedown="handleReset()"/>
                <g id="arrowUp" xlink:href="#dirArrow" transform="translate(30 24)" onmousedown="handlePan(0,-1)">
                  <use xlink:href="#rim" fill="#404040">
                        <set attributeName="fill" to="#808080" begin="arrowUp.mouseover" end="arrowUp.mouseout"/>
                  </use>
                  <path fill="none" stroke="white" stroke-width="1.5" d="M0,-3.0v7 M-2.5,-0.5L0,-3.0L2.5,-0.5"/>
                </g>
                <g id="arrowRight" xlink:href="#dirArrow" transform="rotate(90) translate(36 -43)" onmousedown="handlePan(1,0)">
                  <use xlink:href="#rim" fill="#404040">
                        <set attributeName="fill" to="#808080" begin="arrowRight.mouseover" end="arrowRight.mouseout"/>
                  </use>
                  <path fill="none" stroke="white" stroke-width="1.5" d="M0,-3.0v7 M-2.5,-0.5L0,-3.0L2.5,-0.5"/>
                </g>
                <g id="arrowDown" xlink:href="#dirArrow" transform="rotate(180) translate(-30 -48)" onmousedown="handlePan(0,1)">
                  <use xlink:href="#rim" fill="#404040">
                        <set attributeName="fill" to="#808080" begin="arrowDown.mouseover" end="arrowDown.mouseout"/>
                  </use>
                  <path fill="none" stroke="white" stroke-width="1.5" d="M0,-3.0v7 M-2.5,-0.5L0,-3.0L2.5,-0.5"/>
                </g>
                <g id="arrowLeft" xlink:href="#dirArrow" transform="rotate(270) translate(-36 17)" onmousedown="handlePan(-1,0)">
                  <use xlink:href="#rim" fill="#404040">
                        <set attributeName="fill" to="#808080" begin="arrowLeft.mouseover" end="arrowLeft.mouseout"/>
                  </use>
                  <path fill="none" stroke="white" stroke-width="1.5" d="M0,-3.0v7 M-2.5,-0.5L0,-3.0L2.5,-0.5"/>
                </g>
        </g>
        <svg viewBox="0 0 15 15" width="100%" height="30px" preserveAspectRatio="xMaxYMin meet">
         <g id="arrow_out" transform="scale(0.3 0.3)">
          <a xlink:href="socketlib_8h__dep__incl_org.svg" target="_base">
           <rect id="button" ry="5" rx="5" y="6" x="6" height="38" width="38"
                fill="#f2f5e9" fill-opacity="0.5" stroke="#606060" stroke-width="1.0"/>
           <path id="arrow"
             d="M 11.500037,31.436501 C 11.940474,20.09759 22.043105,11.32322 32.158766,21.979434 L 37.068811,17.246167 C 37.068811,17.246167 37.088388,32 37.088388,32 L 22.160133,31.978069 C 22.160133,31.978069 26.997745,27.140456 26.997745,27.140456 C 18.528582,18.264221 13.291696,25.230495 11.500037,31.436501 z"
             style="fill:#404040;"/>
          </a>
         </g>
        </svg>
</svg>
