<?xml version="1.0" encoding="UTF-8" standalone="no"?>
<!DOCTYPE svg PUBLIC "-//W3C//DTD SVG 1.1//EN"
 "http://www.w3.org/Graphics/SVG/1.1/DTD/svg11.dtd">
<!-- Generated by graphviz version 2.38.0 (20140413.2041)
 -->
<!-- Title: socketlib.cpp Pages: 1 -->
<svg width="1497pt" height="476pt"
 viewBox="0.00 0.00 1496.50 476.00" xmlns="http://www.w3.org/2000/svg" xmlns:xlink="http://www.w3.org/1999/xlink">
<g id="graph0" class="graph" transform="scale(1 1) rotate(0) translate(4 472)">
<title>socketlib.cpp</title>
<polygon fill="white" stroke="none" points="-4,4 -4,-472 1492.5,-472 1492.5,4 -4,4"/>
<!-- Node1 -->
<g id="node1" class="node"><title>Node1</title>
<polygon fill="#bfbfbf" stroke="black" points="935,-448.5 935,-467.5 1009,-467.5 1009,-448.5 935,-448.5"/>
<text text-anchor="middle" x="972" y="-455.5" font-family="Helvetica,sans-Serif" font-size="10.00">socketlib.cpp</text>
</g>
<!-- Node2 -->
<g id="node2" class="node"><title>Node2</title>
<g id="a_node2"><a xlink:href="socketlib_8h.html" target="_top" xlink:title="Socket Support header file. ">
<polygon fill="white" stroke="black" points="589.5,-392.5 589.5,-411.5 688.5,-411.5 688.5,-392.5 589.5,-392.5"/>
<text text-anchor="middle" x="639" y="-399.5" font-family="Helvetica,sans-Serif" font-size="10.00">support/socketlib.h</text>
</a>
</g>
</g>
<!-- Node1&#45;&gt;Node2 -->
<g id="edge1" class="edge"><title>Node1&#45;&gt;Node2</title>
<path fill="none" stroke="midnightblue" d="M934.77,-450.963C877.543,-441.683 767.411,-423.823 698.878,-412.71"/>
<polygon fill="midnightblue" stroke="midnightblue" points="699.097,-409.2 688.665,-411.054 697.976,-416.11 699.097,-409.2"/>
</g>
<!-- Node32 -->
<g id="node32" class="node"><title>Node32</title>
<g id="a_node32"><a xlink:href="mathlib_8h.html" target="_top" xlink:title="mathlib include file ">
<polygon fill="white" stroke="black" points="931.5,-392.5 931.5,-411.5 1012.5,-411.5 1012.5,-392.5 931.5,-392.5"/>
<text text-anchor="middle" x="972" y="-399.5" font-family="Helvetica,sans-Serif" font-size="10.00">math/mathlib.h</text>
</a>
</g>
</g>
<!-- Node1&#45;&gt;Node32 -->
<g id="edge37" class="edge"><title>Node1&#45;&gt;Node32</title>
<path fill="none" stroke="midnightblue" d="M972,-448.083C972,-441.006 972,-430.861 972,-421.986"/>
<polygon fill="midnightblue" stroke="midnightblue" points="975.5,-421.751 972,-411.751 968.5,-421.751 975.5,-421.751"/>
</g>
<!-- Node40 -->
<g id="node40" class="node"><title>Node40</title>
<g id="a_node40"><a xlink:href="elapsedtime_8h.html" target="_top" xlink:title="Elapsed Time header file. ">
<polygon fill="white" stroke="black" points="1297.5,-168.5 1297.5,-187.5 1410.5,-187.5 1410.5,-168.5 1297.5,-168.5"/>
<text text-anchor="middle" x="1354" y="-175.5" font-family="Helvetica,sans-Serif" font-size="10.00">support/elapsedtime.h</text>
</a>
</g>
</g>
<!-- Node1&#45;&gt;Node40 -->
<g id="edge61" class="edge"><title>Node1&#45;&gt;Node40</title>
<path fill="none" stroke="midnightblue" d="M1009.3,-453.543C1100.99,-444.018 1330,-413.565 1330,-347 1330,-347 1330,-347 1330,-289 1330,-256.059 1340.4,-218.818 1347.51,-197.214"/>
<polygon fill="midnightblue" stroke="midnightblue" points="1350.84,-198.294 1350.76,-187.699 1344.22,-196.028 1350.84,-198.294"/>
</g>
<!-- Node3 -->
<g id="node3" class="node"><title>Node3</title>
<g id="a_node3"><a xlink:href="config_cosmos_8h.html" target="_top" xlink:title="Headers and definitions common to all COSMOS. ">
<polygon fill="white" stroke="black" points="808.5,-112.5 808.5,-131.5 931.5,-131.5 931.5,-112.5 808.5,-112.5"/>
<text text-anchor="middle" x="870" y="-119.5" font-family="Helvetica,sans-Serif" font-size="10.00">support/configCosmos.h</text>
</a>
</g>
</g>
<!-- Node2&#45;&gt;Node3 -->
<g id="edge2" class="edge"><title>Node2&#45;&gt;Node3</title>
<path fill="none" stroke="midnightblue" d="M650.559,-392.203C660.722,-383.9 675.224,-370.577 684,-356 699.59,-330.106 704,-321.225 704,-291 704,-291 704,-291 704,-233 704,-177.368 769.587,-148.212 818.308,-134.228"/>
<polygon fill="midnightblue" stroke="midnightblue" points="819.387,-137.562 828.111,-131.551 817.542,-130.81 819.387,-137.562"/>
</g>
<!-- Node29 -->
<g id="node29" class="node"><title>Node29</title>
<polygon fill="white" stroke="#bfbfbf" points="602.5,-336.5 602.5,-355.5 675.5,-355.5 675.5,-336.5 602.5,-336.5"/>
<text text-anchor="middle" x="639" y="-343.5" font-family="Helvetica,sans-Serif" font-size="10.00">sys/socket.h</text>
</g>
<!-- Node2&#45;&gt;Node29 -->
<g id="edge34" class="edge"><title>Node2&#45;&gt;Node29</title>
<path fill="none" stroke="midnightblue" d="M639,-392.083C639,-385.006 639,-374.861 639,-365.986"/>
<polygon fill="midnightblue" stroke="midnightblue" points="642.5,-365.751 639,-355.751 635.5,-365.751 642.5,-365.751"/>
</g>
<!-- Node30 -->
<g id="node30" class="node"><title>Node30</title>
<polygon fill="white" stroke="#bfbfbf" points="457,-336.5 457,-355.5 519,-355.5 519,-336.5 457,-336.5"/>
<text text-anchor="middle" x="488" y="-343.5" font-family="Helvetica,sans-Serif" font-size="10.00">sys/ioctl.h</text>
</g>
<!-- Node2&#45;&gt;Node30 -->
<g id="edge35" class="edge"><title>Node2&#45;&gt;Node30</title>
<path fill="none" stroke="midnightblue" d="M615.074,-392.444C589.781,-383.399 549.698,-369.064 521.32,-358.916"/>
<polygon fill="midnightblue" stroke="midnightblue" points="522.409,-355.588 511.814,-355.516 520.052,-362.179 522.409,-355.588"/>
</g>
<!-- Node31 -->
<g id="node31" class="node"><title>Node31</title>
<polygon fill="white" stroke="#bfbfbf" points="537.5,-336.5 537.5,-355.5 584.5,-355.5 584.5,-336.5 537.5,-336.5"/>
<text text-anchor="middle" x="561" y="-343.5" font-family="Helvetica,sans-Serif" font-size="10.00">net/if.h</text>
</g>
<!-- Node2&#45;&gt;Node31 -->
<g id="edge36" class="edge"><title>Node2&#45;&gt;Node31</title>
<path fill="none" stroke="midnightblue" d="M626.468,-392.324C614.414,-383.979 595.973,-371.212 581.731,-361.352"/>
<polygon fill="midnightblue" stroke="midnightblue" points="583.715,-358.469 573.501,-355.655 579.731,-364.224 583.715,-358.469"/>
</g>
<!-- Node4 -->
<g id="node4" class="node"><title>Node4</title>
<polygon fill="white" stroke="#bfbfbf" points="967.5,-56.5 967.5,-75.5 1012.5,-75.5 1012.5,-56.5 967.5,-56.5"/>
<text text-anchor="middle" x="990" y="-63.5" font-family="Helvetica,sans-Serif" font-size="10.00">climits</text>
</g>
<!-- Node3&#45;&gt;Node4 -->
<g id="edge3" class="edge"><title>Node3&#45;&gt;Node4</title>
<path fill="none" stroke="midnightblue" d="M889.014,-112.444C908.588,-103.636 939.308,-89.8116 961.729,-79.722"/>
<polygon fill="midnightblue" stroke="midnightblue" points="963.392,-82.8119 971.075,-75.5164 960.519,-76.4284 963.392,-82.8119"/>
</g>
<!-- Node5 -->
<g id="node5" class="node"><title>Node5</title>
<polygon fill="white" stroke="#bfbfbf" points="1030.5,-56.5 1030.5,-75.5 1077.5,-75.5 1077.5,-56.5 1030.5,-56.5"/>
<text text-anchor="middle" x="1054" y="-63.5" font-family="Helvetica,sans-Serif" font-size="10.00">csignal</text>
</g>
<!-- Node3&#45;&gt;Node5 -->
<g id="edge4" class="edge"><title>Node3&#45;&gt;Node5</title>
<path fill="none" stroke="midnightblue" d="M899.155,-112.444C932.174,-102.753 985.879,-86.9921 1020.57,-76.8115"/>
<polygon fill="midnightblue" stroke="midnightblue" points="1021.64,-80.1454 1030.25,-73.971 1019.67,-73.4287 1021.64,-80.1454"/>
</g>
<!-- Node6 -->
<g id="node6" class="node"><title>Node6</title>
<polygon fill="white" stroke="#bfbfbf" points="62,-56.5 62,-75.5 108,-75.5 108,-56.5 62,-56.5"/>
<text text-anchor="middle" x="85" y="-63.5" font-family="Helvetica,sans-Serif" font-size="10.00">cstdint</text>
</g>
<!-- Node3&#45;&gt;Node6 -->
<g id="edge5" class="edge"><title>Node3&#45;&gt;Node6</title>
<path fill="none" stroke="midnightblue" d="M808.232,-113.347C803.42,-112.854 798.633,-112.397 794,-112 497.158,-86.5583 416.102,-124.225 118.509,-75.872"/>
<polygon fill="midnightblue" stroke="midnightblue" points="118.72,-72.3598 108.284,-74.1909 117.584,-79.267 118.72,-72.3598"/>
</g>
<!-- Node7 -->
<g id="node7" class="node"><title>Node7</title>
<polygon fill="white" stroke="#bfbfbf" points="1096,-56.5 1096,-75.5 1152,-75.5 1152,-56.5 1096,-56.5"/>
<text text-anchor="middle" x="1124" y="-63.5" font-family="Helvetica,sans-Serif" font-size="10.00">cinttypes</text>
</g>
<!-- Node3&#45;&gt;Node7 -->
<g id="edge6" class="edge"><title>Node3&#45;&gt;Node7</title>
<path fill="none" stroke="midnightblue" d="M913.324,-112.468C955.051,-104.15 1020.19,-90.9003 1085.66,-76.2462"/>
<polygon fill="midnightblue" stroke="midnightblue" points="1086.75,-79.5878 1095.74,-73.9788 1085.22,-72.7584 1086.75,-79.5878"/>
</g>
<!-- Node8 -->
<g id="node8" class="node"><title>Node8</title>
<polygon fill="white" stroke="#bfbfbf" points="1170.5,-56.5 1170.5,-75.5 1213.5,-75.5 1213.5,-56.5 1170.5,-56.5"/>
<text text-anchor="middle" x="1192" y="-63.5" font-family="Helvetica,sans-Serif" font-size="10.00">cstdio</text>
</g>
<!-- Node3&#45;&gt;Node8 -->
<g id="edge7" class="edge"><title>Node3&#45;&gt;Node8</title>
<path fill="none" stroke="midnightblue" d="M931.742,-113.803C988.747,-106.627 1075.88,-94.3144 1160.63,-75.8196"/>
<polygon fill="midnightblue" stroke="midnightblue" points="1161.4,-79.2321 1170.41,-73.6537 1159.89,-72.3975 1161.4,-79.2321"/>
</g>
<!-- Node9 -->
<g id="node9" class="node"><title>Node9</title>
<polygon fill="white" stroke="#bfbfbf" points="1231.5,-56.5 1231.5,-75.5 1280.5,-75.5 1280.5,-56.5 1231.5,-56.5"/>
<text text-anchor="middle" x="1256" y="-63.5" font-family="Helvetica,sans-Serif" font-size="10.00">cstddef</text>
</g>
<!-- Node3&#45;&gt;Node9 -->
<g id="edge8" class="edge"><title>Node3&#45;&gt;Node9</title>
<path fill="none" stroke="midnightblue" d="M931.64,-115.77C1000.28,-109.358 1114.63,-96.9277 1221.26,-76.1284"/>
<polygon fill="midnightblue" stroke="midnightblue" points="1222.09,-79.5316 1231.22,-74.1559 1220.73,-72.6649 1222.09,-79.5316"/>
</g>
<!-- Node10 -->
<g id="node10" class="node"><title>Node10</title>
<polygon fill="white" stroke="#bfbfbf" points="126.5,-56.5 126.5,-75.5 171.5,-75.5 171.5,-56.5 126.5,-56.5"/>
<text text-anchor="middle" x="149" y="-63.5" font-family="Helvetica,sans-Serif" font-size="10.00">cstdlib</text>
</g>
<!-- Node3&#45;&gt;Node10 -->
<g id="edge9" class="edge"><title>Node3&#45;&gt;Node10</title>
<path fill="none" stroke="midnightblue" d="M808.23,-113.375C803.418,-112.876 798.632,-112.41 794,-112 525.467,-88.2359 451.931,-120.404 181.698,-75.6963"/>
<polygon fill="midnightblue" stroke="midnightblue" points="182.029,-72.2031 171.589,-74.0034 180.873,-79.107 182.029,-72.2031"/>
</g>
<!-- Node11 -->
<g id="node11" class="node"><title>Node11</title>
<polygon fill="white" stroke="#bfbfbf" points="190,-56.5 190,-75.5 234,-75.5 234,-56.5 190,-56.5"/>
<text text-anchor="middle" x="212" y="-63.5" font-family="Helvetica,sans-Serif" font-size="10.00">cerrno</text>
</g>
<!-- Node3&#45;&gt;Node11 -->
<g id="edge10" class="edge"><title>Node3&#45;&gt;Node11</title>
<path fill="none" stroke="midnightblue" d="M808.227,-113.409C803.416,-112.902 798.631,-112.425 794,-112 552.958,-89.8689 486.518,-117.681 244.386,-75.856"/>
<polygon fill="midnightblue" stroke="midnightblue" points="244.668,-72.3524 234.215,-74.0763 243.462,-79.2476 244.668,-72.3524"/>
</g>
<!-- Node12 -->
<g id="node12" class="node"><title>Node12</title>
<polygon fill="white" stroke="#bfbfbf" points="252,-56.5 252,-75.5 298,-75.5 298,-56.5 252,-56.5"/>
<text text-anchor="middle" x="275" y="-63.5" font-family="Helvetica,sans-Serif" font-size="10.00">cstring</text>
</g>
<!-- Node3&#45;&gt;Node12 -->
<g id="edge11" class="edge"><title>Node3&#45;&gt;Node12</title>
<path fill="none" stroke="midnightblue" d="M808.223,-113.454C803.413,-112.936 798.629,-112.445 794,-112 581.231,-91.5477 522.527,-112.903 308.284,-75.8825"/>
<polygon fill="midnightblue" stroke="midnightblue" points="308.748,-72.4106 298.294,-74.1338 307.541,-79.3058 308.748,-72.4106"/>
</g>
<!-- Node13 -->
<g id="node13" class="node"><title>Node13</title>
<polygon fill="white" stroke="#bfbfbf" points="0,-56.5 0,-75.5 44,-75.5 44,-56.5 0,-56.5"/>
<text text-anchor="middle" x="22" y="-63.5" font-family="Helvetica,sans-Serif" font-size="10.00">cmath</text>
</g>
<!-- Node3&#45;&gt;Node13 -->
<g id="edge12" class="edge"><title>Node3&#45;&gt;Node13</title>
<path fill="none" stroke="midnightblue" d="M808.492,-115.831C791.494,-114.488 773.038,-113.109 756,-112 447.16,-91.9051 363.303,-127.188 54.3527,-75.8191"/>
<polygon fill="midnightblue" stroke="midnightblue" points="54.6497,-72.32 44.208,-74.1148 53.4899,-79.2232 54.6497,-72.32"/>
</g>
<!-- Node14 -->
<g id="node14" class="node"><title>Node14</title>
<polygon fill="white" stroke="#bfbfbf" points="316.5,-56.5 316.5,-75.5 361.5,-75.5 361.5,-56.5 316.5,-56.5"/>
<text text-anchor="middle" x="339" y="-63.5" font-family="Helvetica,sans-Serif" font-size="10.00">iosfwd</text>
</g>
<!-- Node3&#45;&gt;Node14 -->
<g id="edge13" class="edge"><title>Node3&#45;&gt;Node14</title>
<path fill="none" stroke="midnightblue" d="M808.217,-113.51C803.409,-112.98 798.626,-112.47 794,-112 609.062,-93.2038 557.689,-109.941 371.403,-75.9307"/>
<polygon fill="midnightblue" stroke="midnightblue" points="372.032,-72.4878 361.563,-74.1102 370.759,-79.371 372.032,-72.4878"/>
</g>
<!-- Node15 -->
<g id="node15" class="node"><title>Node15</title>
<polygon fill="white" stroke="#bfbfbf" points="1375,-56.5 1375,-75.5 1429,-75.5 1429,-56.5 1375,-56.5"/>
<text text-anchor="middle" x="1402" y="-63.5" font-family="Helvetica,sans-Serif" font-size="10.00">iostream</text>
</g>
<!-- Node3&#45;&gt;Node15 -->
<g id="edge14" class="edge"><title>Node3&#45;&gt;Node15</title>
<path fill="none" stroke="midnightblue" d="M931.577,-115.167C1018.75,-106.845 1183.11,-90.9153 1323,-76 1336.65,-74.5449 1351.61,-72.8626 1364.81,-71.349"/>
<polygon fill="midnightblue" stroke="midnightblue" points="1365.42,-74.8015 1374.95,-70.1788 1364.62,-67.8475 1365.42,-74.8015"/>
</g>
<!-- Node16 -->
<g id="node16" class="node"><title>Node16</title>
<polygon fill="white" stroke="#bfbfbf" points="379.5,-56.5 379.5,-75.5 430.5,-75.5 430.5,-56.5 379.5,-56.5"/>
<text text-anchor="middle" x="405" y="-63.5" font-family="Helvetica,sans-Serif" font-size="10.00">unistd.h</text>
</g>
<!-- Node3&#45;&gt;Node16 -->
<g id="edge15" class="edge"><title>Node3&#45;&gt;Node16</title>
<path fill="none" stroke="midnightblue" d="M808.208,-113.596C803.401,-113.047 798.622,-112.509 794,-112 640.028,-95.0553 597.423,-103.41 440.524,-75.8151"/>
<polygon fill="midnightblue" stroke="midnightblue" points="440.976,-72.3405 430.517,-74.034 439.749,-79.2322 440.976,-72.3405"/>
</g>
<!-- Node17 -->
<g id="node17" class="node"><title>Node17</title>
<polygon fill="white" stroke="#bfbfbf" points="449,-56.5 449,-75.5 493,-75.5 493,-56.5 449,-56.5"/>
<text text-anchor="middle" x="471" y="-63.5" font-family="Helvetica,sans-Serif" font-size="10.00">fcntl.h</text>
</g>
<!-- Node3&#45;&gt;Node17 -->
<g id="edge16" class="edge"><title>Node3&#45;&gt;Node17</title>
<path fill="none" stroke="midnightblue" d="M808.288,-113.582C715.684,-102.434 547.553,-82.1274 503.163,-75.5648"/>
<polygon fill="midnightblue" stroke="midnightblue" points="503.681,-72.103 493.244,-73.9224 502.538,-79.009 503.681,-72.103"/>
</g>
<!-- Node18 -->
<g id="node18" class="node"><title>Node18</title>
<polygon fill="white" stroke="#bfbfbf" points="1447.5,-56.5 1447.5,-75.5 1488.5,-75.5 1488.5,-56.5 1447.5,-56.5"/>
<text text-anchor="middle" x="1468" y="-63.5" font-family="Helvetica,sans-Serif" font-size="10.00">string</text>
</g>
<!-- Node3&#45;&gt;Node18 -->
<g id="edge17" class="edge"><title>Node3&#45;&gt;Node18</title>
<path fill="none" stroke="midnightblue" d="M931.501,-120.389C1034.54,-118.435 1248.47,-110.4 1437.64,-75.6194"/>
<polygon fill="midnightblue" stroke="midnightblue" points="1438.3,-79.0574 1447.49,-73.7808 1437.01,-72.1763 1438.3,-79.0574"/>
</g>
<!-- Node19 -->
<g id="node19" class="node"><title>Node19</title>
<polygon fill="white" stroke="#bfbfbf" points="1287,-0.5 1287,-19.5 1331,-19.5 1331,-0.5 1287,-0.5"/>
<text text-anchor="middle" x="1309" y="-7.5" font-family="Helvetica,sans-Serif" font-size="10.00">vector</text>
</g>
<!-- Node3&#45;&gt;Node19 -->
<g id="edge18" class="edge"><title>Node3&#45;&gt;Node19</title>
<path fill="none" stroke="midnightblue" d="M931.853,-118.137C1041.99,-112.495 1263.11,-98.4961 1290,-76 1303.37,-64.8196 1307.62,-44.7965 1308.84,-29.9181"/>
<polygon fill="midnightblue" stroke="midnightblue" points="1312.34,-29.9165 1309.28,-19.7749 1305.35,-29.6149 1312.34,-29.9165"/>
</g>
<!-- Node20 -->
<g id="node20" class="node"><title>Node20</title>
<polygon fill="white" stroke="#bfbfbf" points="511.5,-56.5 511.5,-75.5 554.5,-75.5 554.5,-56.5 511.5,-56.5"/>
<text text-anchor="middle" x="533" y="-63.5" font-family="Helvetica,sans-Serif" font-size="10.00">deque</text>
</g>
<!-- Node3&#45;&gt;Node20 -->
<g id="edge19" class="edge"><title>Node3&#45;&gt;Node20</title>
<path fill="none" stroke="midnightblue" d="M808.304,-113.549C747.248,-105.759 651.263,-92.3922 569,-76 567.539,-75.7089 566.048,-75.3969 564.545,-75.0702"/>
<polygon fill="midnightblue" stroke="midnightblue" points="565.158,-71.6196 554.626,-72.766 563.574,-78.438 565.158,-71.6196"/>
</g>
<!-- Node21 -->
<g id="node21" class="node"><title>Node21</title>
<polygon fill="white" stroke="#bfbfbf" points="561,-0.5 561,-19.5 605,-19.5 605,-0.5 561,-0.5"/>
<text text-anchor="middle" x="583" y="-7.5" font-family="Helvetica,sans-Serif" font-size="10.00">mutex</text>
</g>
<!-- Node3&#45;&gt;Node21 -->
<g id="edge20" class="edge"><title>Node3&#45;&gt;Node21</title>
<path fill="none" stroke="midnightblue" d="M810.786,-112.499C756.021,-103.97 679.129,-90.1083 652,-76 629.298,-64.1937 608.719,-42.7511 596.059,-27.7328"/>
<polygon fill="midnightblue" stroke="midnightblue" points="598.592,-25.2997 589.564,-19.7541 593.163,-29.7189 598.592,-25.2997"/>
</g>
<!-- Node22 -->
<g id="node22" class="node"><title>Node22</title>
<polygon fill="white" stroke="#bfbfbf" points="623,-0.5 623,-19.5 667,-19.5 667,-0.5 623,-0.5"/>
<text text-anchor="middle" x="645" y="-7.5" font-family="Helvetica,sans-Serif" font-size="10.00">thread</text>
</g>
<!-- Node3&#45;&gt;Node22 -->
<g id="edge21" class="edge"><title>Node3&#45;&gt;Node22</title>
<path fill="none" stroke="midnightblue" d="M808.431,-113.58C757.578,-106.313 690.536,-93.7399 670,-76 656.439,-64.2853 650.2,-44.3466 647.351,-29.6339"/>
<polygon fill="midnightblue" stroke="midnightblue" points="650.787,-28.9549 645.768,-19.6245 643.873,-30.0486 650.787,-28.9549"/>
</g>
<!-- Node23 -->
<g id="node23" class="node"><title>Node23</title>
<polygon fill="white" stroke="#bfbfbf" points="685.5,-0.5 685.5,-19.5 780.5,-19.5 780.5,-0.5 685.5,-0.5"/>
<text text-anchor="middle" x="733" y="-7.5" font-family="Helvetica,sans-Serif" font-size="10.00">condition_variable</text>
</g>
<!-- Node3&#45;&gt;Node23 -->
<g id="edge22" class="edge"><title>Node3&#45;&gt;Node23</title>
<path fill="none" stroke="midnightblue" d="M819.253,-112.44C765.408,-102.844 686.853,-87.1677 678,-76 663.761,-58.0382 686.948,-37.9894 707.447,-24.971"/>
<polygon fill="midnightblue" stroke="midnightblue" points="709.475,-27.8357 716.241,-19.6829 705.868,-21.8367 709.475,-27.8357"/>
</g>
<!-- Node24 -->
<g id="node24" class="node"><title>Node24</title>
<polygon fill="white" stroke="#bfbfbf" points="849.5,-0.5 849.5,-19.5 892.5,-19.5 892.5,-0.5 849.5,-0.5"/>
<text text-anchor="middle" x="871" y="-7.5" font-family="Helvetica,sans-Serif" font-size="10.00">queue</text>
</g>
<!-- Node3&#45;&gt;Node24 -->
<g id="edge23" class="edge"><title>Node3&#45;&gt;Node24</title>
<path fill="none" stroke="midnightblue" d="M873.088,-112.173C876.052,-103.198 880.319,-88.8271 882,-76 884.068,-60.219 880.643,-42.4026 877.083,-29.4189"/>
<polygon fill="midnightblue" stroke="midnightblue" points="880.42,-28.3611 874.178,-19.7999 873.719,-30.3848 880.42,-28.3611"/>
</g>
<!-- Node25 -->
<g id="node25" class="node"><title>Node25</title>
<polygon fill="white" stroke="#bfbfbf" points="821,-56.5 821,-75.5 873,-75.5 873,-56.5 821,-56.5"/>
<text text-anchor="middle" x="847" y="-63.5" font-family="Helvetica,sans-Serif" font-size="10.00">sstream</text>
</g>
<!-- Node3&#45;&gt;Node25 -->
<g id="edge24" class="edge"><title>Node3&#45;&gt;Node25</title>
<path fill="none" stroke="midnightblue" d="M866.202,-112.083C863.087,-104.77 858.577,-94.1814 854.711,-85.1034"/>
<polygon fill="midnightblue" stroke="midnightblue" points="857.866,-83.5798 850.727,-75.7511 851.426,-86.3229 857.866,-83.5798"/>
</g>
<!-- Node26 -->
<g id="node26" class="node"><title>Node26</title>
<polygon fill="white" stroke="#bfbfbf" points="917.5,-0.5 917.5,-19.5 952.5,-19.5 952.5,-0.5 917.5,-0.5"/>
<text text-anchor="middle" x="935" y="-7.5" font-family="Helvetica,sans-Serif" font-size="10.00">map</text>
</g>
<!-- Node3&#45;&gt;Node26 -->
<g id="edge25" class="edge"><title>Node3&#45;&gt;Node26</title>
<path fill="none" stroke="midnightblue" d="M875.1,-112.368C885.78,-94.2957 910.668,-52.1764 924.773,-28.3074"/>
<polygon fill="midnightblue" stroke="midnightblue" points="927.849,-29.9813 929.923,-19.5914 921.823,-26.4201 927.849,-29.9813"/>
</g>
<!-- Node27 -->
<g id="node27" class="node"><title>Node27</title>
<g id="a_node27"><a xlink:href="cosmos-defs_8h.html" target="_top" xlink:title="COSMOS definitions Definitions specific to the COSMOS environement. ">
<polygon fill="white" stroke="black" points="687,-56.5 687,-75.5 803,-75.5 803,-56.5 687,-56.5"/>
<text text-anchor="middle" x="745" y="-63.5" font-family="Helvetica,sans-Serif" font-size="10.00">support/cosmos&#45;defs.h</text>
</a>
</g>
</g>
<!-- Node3&#45;&gt;Node27 -->
<g id="edge26" class="edge"><title>Node3&#45;&gt;Node27</title>
<path fill="none" stroke="midnightblue" d="M850.193,-112.444C829.713,-103.596 797.517,-89.6875 774.135,-79.5865"/>
<polygon fill="midnightblue" stroke="midnightblue" points="775.282,-76.2692 764.714,-75.5164 772.506,-82.6953 775.282,-76.2692"/>
</g>
<!-- Node27&#45;&gt;Node19 -->
<g id="edge28" class="edge"><title>Node27&#45;&gt;Node19</title>
<path fill="none" stroke="midnightblue" d="M803.086,-57.0411C806.099,-56.6772 809.084,-56.3277 812,-56 986.735,-36.3629 1196.79,-19.5788 1276.33,-13.4662"/>
<polygon fill="midnightblue" stroke="midnightblue" points="1276.97,-16.9278 1286.67,-12.6754 1276.44,-9.94821 1276.97,-16.9278"/>
</g>
<!-- Node27&#45;&gt;Node21 -->
<g id="edge32" class="edge"><title>Node27&#45;&gt;Node21</title>
<path fill="none" stroke="midnightblue" d="M719.331,-56.4435C691.035,-47.0118 645.485,-31.8282 614.912,-21.6375"/>
<polygon fill="midnightblue" stroke="midnightblue" points="615.759,-18.2304 605.165,-18.3884 613.545,-24.8711 615.759,-18.2304"/>
</g>
<!-- Node27&#45;&gt;Node22 -->
<g id="edge31" class="edge"><title>Node27&#45;&gt;Node22</title>
<path fill="none" stroke="midnightblue" d="M728.933,-56.324C713.042,-47.7428 688.493,-34.486 670.042,-24.5224"/>
<polygon fill="midnightblue" stroke="midnightblue" points="671.489,-21.3264 661.027,-19.6545 668.163,-27.4857 671.489,-21.3264"/>
</g>
<!-- Node27&#45;&gt;Node23 -->
<g id="edge33" class="edge"><title>Node27&#45;&gt;Node23</title>
<path fill="none" stroke="midnightblue" d="M743.018,-56.083C741.428,-48.9272 739.141,-38.6353 737.154,-29.6911"/>
<polygon fill="midnightblue" stroke="midnightblue" points="740.531,-28.7537 734.945,-19.7511 733.697,-30.2722 740.531,-28.7537"/>
</g>
<!-- Node27&#45;&gt;Node24 -->
<g id="edge30" class="edge"><title>Node27&#45;&gt;Node24</title>
<path fill="none" stroke="midnightblue" d="M764.965,-56.4435C785.609,-47.5961 818.063,-33.6875 841.632,-23.5865"/>
<polygon fill="midnightblue" stroke="midnightblue" points="843.316,-26.6727 851.128,-19.5164 840.558,-20.2387 843.316,-26.6727"/>
</g>
<!-- Node27&#45;&gt;Node26 -->
<g id="edge27" class="edge"><title>Node27&#45;&gt;Node26</title>
<path fill="none" stroke="midnightblue" d="M775.106,-56.4435C811.425,-46.1212 871.984,-28.9097 907.227,-18.8934"/>
<polygon fill="midnightblue" stroke="midnightblue" points="908.634,-22.1321 917.297,-16.0315 906.721,-15.3987 908.634,-22.1321"/>
</g>
<!-- Node28 -->
<g id="node28" class="node"><title>Node28</title>
<polygon fill="white" stroke="#bfbfbf" points="798.5,-0.5 798.5,-19.5 827.5,-19.5 827.5,-0.5 798.5,-0.5"/>
<text text-anchor="middle" x="813" y="-7.5" font-family="Helvetica,sans-Serif" font-size="10.00">list</text>
</g>
<!-- Node27&#45;&gt;Node28 -->
<g id="edge29" class="edge"><title>Node27&#45;&gt;Node28</title>
<path fill="none" stroke="midnightblue" d="M755.925,-56.324C766.175,-48.1849 781.721,-35.8395 794.001,-26.0874"/>
<polygon fill="midnightblue" stroke="midnightblue" points="796.221,-28.7937 801.876,-19.8339 791.868,-23.3119 796.221,-28.7937"/>
</g>
<!-- Node32&#45;&gt;Node3 -->
<g id="edge38" class="edge"><title>Node32&#45;&gt;Node3</title>
<path fill="none" stroke="midnightblue" d="M953.885,-392.298C924.088,-376.572 868,-340.409 868,-291 868,-291 868,-291 868,-233 868,-200.943 868.86,-163.639 869.452,-141.747"/>
<polygon fill="midnightblue" stroke="midnightblue" points="872.956,-141.651 869.739,-131.557 865.959,-141.454 872.956,-141.651"/>
</g>
<!-- Node32&#45;&gt;Node13 -->
<g id="edge59" class="edge"><title>Node32&#45;&gt;Node13</title>
<path fill="none" stroke="midnightblue" d="M945.417,-392.479C917.768,-383.566 873.257,-369.081 835,-356 529.515,-251.55 162.169,-118.136 53.6379,-78.5571"/>
<polygon fill="midnightblue" stroke="midnightblue" points="54.8338,-75.2678 44.2398,-75.1284 52.4346,-81.8438 54.8338,-75.2678"/>
</g>
<!-- Node32&#45;&gt;Node15 -->
<g id="edge60" class="edge"><title>Node32&#45;&gt;Node15</title>
<path fill="none" stroke="midnightblue" d="M1012.6,-398.309C1076.89,-393.348 1198.38,-380.911 1233,-356 1259.63,-336.835 1268,-323.811 1268,-291 1268,-291 1268,-291 1268,-177 1268,-126.394 1325.8,-94.812 1365.48,-79.0946"/>
<polygon fill="midnightblue" stroke="midnightblue" points="1366.77,-82.3474 1374.88,-75.5286 1364.29,-75.8023 1366.77,-82.3474"/>
</g>
<!-- Node33 -->
<g id="node33" class="node"><title>Node33</title>
<g id="a_node33"><a xlink:href="cosmos-errno_8h.html" target="_top" xlink:title="COSMOS Error Codes. ">
<polygon fill="white" stroke="black" points="1104.5,-336.5 1104.5,-355.5 1223.5,-355.5 1223.5,-336.5 1104.5,-336.5"/>
<text text-anchor="middle" x="1164" y="-343.5" font-family="Helvetica,sans-Serif" font-size="10.00">support/cosmos&#45;errno.h</text>
</a>
</g>
</g>
<!-- Node32&#45;&gt;Node33 -->
<g id="edge39" class="edge"><title>Node32&#45;&gt;Node33</title>
<path fill="none" stroke="midnightblue" d="M1002.42,-392.444C1035.28,-383.201 1087.78,-368.436 1123.97,-358.257"/>
<polygon fill="midnightblue" stroke="midnightblue" points="1125.04,-361.593 1133.72,-355.516 1123.15,-354.855 1125.04,-361.593"/>
</g>
<!-- Node35 -->
<g id="node35" class="node"><title>Node35</title>
<g id="a_node35"><a xlink:href="math_2constants_8h.html" target="_top" xlink:title="constants.h">
<polygon fill="white" stroke="black" points="772,-168.5 772,-187.5 840,-187.5 840,-168.5 772,-168.5"/>
<text text-anchor="middle" x="806" y="-175.5" font-family="Helvetica,sans-Serif" font-size="10.00">constants.h</text>
</a>
</g>
</g>
<!-- Node32&#45;&gt;Node35 -->
<g id="edge42" class="edge"><title>Node32&#45;&gt;Node35</title>
<path fill="none" stroke="midnightblue" d="M931.431,-395.116C905.827,-389.342 873.936,-378.026 854,-356 812.921,-310.615 806.471,-233.563 805.805,-198.011"/>
<polygon fill="midnightblue" stroke="midnightblue" points="809.304,-197.635 805.76,-187.65 802.304,-197.666 809.304,-197.635"/>
</g>
<!-- Node36 -->
<g id="node36" class="node"><title>Node36</title>
<g id="a_node36"><a xlink:href="vector_8h.html" target="_top" xlink:title="vector.h">
<polygon fill="white" stroke="black" points="971,-224.5 971,-243.5 1023,-243.5 1023,-224.5 971,-224.5"/>
<text text-anchor="middle" x="997" y="-231.5" font-family="Helvetica,sans-Serif" font-size="10.00">vector.h</text>
</a>
</g>
</g>
<!-- Node32&#45;&gt;Node36 -->
<g id="edge45" class="edge"><title>Node32&#45;&gt;Node36</title>
<path fill="none" stroke="midnightblue" d="M970.013,-392.433C968.033,-383.424 965.129,-368.805 964,-356 960.682,-318.381 977.007,-276.197 987.881,-252.9"/>
<polygon fill="midnightblue" stroke="midnightblue" points="991.174,-254.133 992.404,-243.61 984.88,-251.069 991.174,-254.133"/>
</g>
<!-- Node38 -->
<g id="node38" class="node"><title>Node38</title>
<g id="a_node38"><a xlink:href="matrix_8h.html" target="_top" xlink:title="matrix.h">
<polygon fill="white" stroke="black" points="1029,-280.5 1029,-299.5 1081,-299.5 1081,-280.5 1029,-280.5"/>
<text text-anchor="middle" x="1055" y="-287.5" font-family="Helvetica,sans-Serif" font-size="10.00">matrix.h</text>
</a>
</g>
</g>
<!-- Node32&#45;&gt;Node38 -->
<g id="edge52" class="edge"><title>Node32&#45;&gt;Node38</title>
<path fill="none" stroke="midnightblue" d="M992.297,-392.346C1007.41,-384.875 1027.35,-372.649 1039,-356 1048.47,-342.459 1052.36,-323.908 1053.94,-310.09"/>
<polygon fill="midnightblue" stroke="midnightblue" points="1057.45,-310.066 1054.8,-299.809 1050.48,-309.482 1057.45,-310.066"/>
</g>
<!-- Node39 -->
<g id="node39" class="node"><title>Node39</title>
<g id="a_node39"><a xlink:href="rotation_8h.html" target="_top" xlink:title="rotation.h">
<polygon fill="white" stroke="black" points="972.5,-336.5 972.5,-355.5 1029.5,-355.5 1029.5,-336.5 972.5,-336.5"/>
<text text-anchor="middle" x="1001" y="-343.5" font-family="Helvetica,sans-Serif" font-size="10.00">rotation.h</text>
</a>
</g>
</g>
<!-- Node32&#45;&gt;Node39 -->
<g id="edge55" class="edge"><title>Node32&#45;&gt;Node39</title>
<path fill="none" stroke="midnightblue" d="M976.789,-392.083C980.758,-384.691 986.525,-373.953 991.435,-364.811"/>
<polygon fill="midnightblue" stroke="midnightblue" points="994.653,-366.217 996.3,-355.751 988.486,-362.905 994.653,-366.217"/>
</g>
<!-- Node33&#45;&gt;Node3 -->
<g id="edge40" class="edge"><title>Node33&#45;&gt;Node3</title>
<path fill="none" stroke="midnightblue" d="M1161.13,-336.354C1151.09,-307.497 1114.65,-213.744 1051,-168 1019.41,-145.297 977.606,-133.992 942.133,-128.388"/>
<polygon fill="midnightblue" stroke="midnightblue" points="942.229,-124.865 931.829,-126.889 941.221,-131.792 942.229,-124.865"/>
</g>
<!-- Node34 -->
<g id="node34" class="node"><title>Node34</title>
<polygon fill="white" stroke="#bfbfbf" points="1192.5,-280.5 1192.5,-299.5 1239.5,-299.5 1239.5,-280.5 1192.5,-280.5"/>
<text text-anchor="middle" x="1216" y="-287.5" font-family="Helvetica,sans-Serif" font-size="10.00">errno.h</text>
</g>
<!-- Node33&#45;&gt;Node34 -->
<g id="edge41" class="edge"><title>Node33&#45;&gt;Node34</title>
<path fill="none" stroke="midnightblue" d="M1172.59,-336.083C1180.16,-328.22 1191.38,-316.569 1200.51,-307.081"/>
<polygon fill="midnightblue" stroke="midnightblue" points="1203.16,-309.382 1207.57,-299.751 1198.12,-304.527 1203.16,-309.382"/>
</g>
<!-- Node35&#45;&gt;Node3 -->
<g id="edge43" class="edge"><title>Node35&#45;&gt;Node3</title>
<path fill="none" stroke="midnightblue" d="M816.283,-168.324C825.836,-160.263 840.28,-148.077 851.784,-138.369"/>
<polygon fill="midnightblue" stroke="midnightblue" points="854.144,-140.958 859.53,-131.834 849.63,-135.608 854.144,-140.958"/>
</g>
<!-- Node35&#45;&gt;Node6 -->
<g id="edge44" class="edge"><title>Node35&#45;&gt;Node6</title>
<path fill="none" stroke="midnightblue" d="M802.301,-168.323C795.54,-153.693 779.67,-124.495 756,-112 632.925,-47.0331 273.199,-97.1365 118.195,-75.6997"/>
<polygon fill="midnightblue" stroke="midnightblue" points="118.7,-72.2363 108.286,-74.1822 117.641,-79.1557 118.7,-72.2363"/>
</g>
<!-- Node36&#45;&gt;Node3 -->
<g id="edge46" class="edge"><title>Node36&#45;&gt;Node3</title>
<path fill="none" stroke="midnightblue" d="M987.035,-224.368C965.612,-205.814 914.927,-161.913 887.823,-138.438"/>
<polygon fill="midnightblue" stroke="midnightblue" points="889.77,-135.493 879.919,-131.591 885.187,-140.784 889.77,-135.493"/>
</g>
<!-- Node36&#45;&gt;Node13 -->
<g id="edge50" class="edge"><title>Node36&#45;&gt;Node13</title>
<path fill="none" stroke="midnightblue" d="M970.95,-232.554C926.115,-230.822 832.492,-222.924 763,-188 718.309,-165.54 726.081,-131.449 680,-112 554.308,-58.9506 206.646,-97.7727 54.3914,-75.7165"/>
<polygon fill="midnightblue" stroke="midnightblue" points="54.6364,-72.2116 44.2109,-74.0979 53.5372,-79.1247 54.6364,-72.2116"/>
</g>
<!-- Node36&#45;&gt;Node15 -->
<g id="edge48" class="edge"><title>Node36&#45;&gt;Node15</title>
<path fill="none" stroke="midnightblue" d="M1013.18,-224.371C1053.19,-203.253 1160.35,-148.066 1254,-112 1291.15,-97.6925 1334.9,-84.8656 1365.16,-76.6022"/>
<polygon fill="midnightblue" stroke="midnightblue" points="1366.13,-79.9655 1374.87,-73.9792 1364.3,-73.2076 1366.13,-79.9655"/>
</g>
<!-- Node36&#45;&gt;Node19 -->
<g id="edge51" class="edge"><title>Node36&#45;&gt;Node19</title>
<path fill="none" stroke="midnightblue" d="M1006.55,-224.422C1021.61,-211.183 1052.13,-185.478 1081,-168 1132.04,-137.099 1147.54,-133.988 1203,-112 1249.64,-93.5085 1280.72,-116.745 1310,-76 1319.56,-62.6936 1317.96,-43.5734 1314.77,-29.5137"/>
<polygon fill="midnightblue" stroke="midnightblue" points="1318.06,-28.2667 1312.07,-19.5309 1311.31,-30.0983 1318.06,-28.2667"/>
</g>
<!-- Node36&#45;&gt;Node35 -->
<g id="edge47" class="edge"><title>Node36&#45;&gt;Node35</title>
<path fill="none" stroke="midnightblue" d="M970.843,-225.605C938.717,-216.522 883.878,-201.018 846.34,-190.405"/>
<polygon fill="midnightblue" stroke="midnightblue" points="846.82,-186.904 836.245,-187.551 844.915,-193.64 846.82,-186.904"/>
</g>
<!-- Node37 -->
<g id="node37" class="node"><title>Node37</title>
<polygon fill="white" stroke="#bfbfbf" points="972,-168.5 972,-187.5 1022,-187.5 1022,-168.5 972,-168.5"/>
<text text-anchor="middle" x="997" y="-175.5" font-family="Helvetica,sans-Serif" font-size="10.00">iomanip</text>
</g>
<!-- Node36&#45;&gt;Node37 -->
<g id="edge49" class="edge"><title>Node36&#45;&gt;Node37</title>
<path fill="none" stroke="midnightblue" d="M997,-224.083C997,-217.006 997,-206.861 997,-197.986"/>
<polygon fill="midnightblue" stroke="midnightblue" points="1000.5,-197.751 997,-187.751 993.5,-197.751 1000.5,-197.751"/>
</g>
<!-- Node38&#45;&gt;Node3 -->
<g id="edge53" class="edge"><title>Node38&#45;&gt;Node3</title>
<path fill="none" stroke="midnightblue" d="M1056.07,-280.342C1058.28,-258.426 1060.83,-200.212 1031,-168 1008.22,-143.405 973.227,-131.843 941.673,-126.561"/>
<polygon fill="midnightblue" stroke="midnightblue" points="941.975,-123.067 931.569,-125.057 940.945,-129.991 941.975,-123.067"/>
</g>
<!-- Node38&#45;&gt;Node36 -->
<g id="edge54" class="edge"><title>Node38&#45;&gt;Node36</title>
<path fill="none" stroke="midnightblue" d="M1045.68,-280.324C1037.11,-272.341 1024.19,-260.313 1013.81,-250.653"/>
<polygon fill="midnightblue" stroke="midnightblue" points="1016.19,-248.086 1006.49,-243.834 1011.42,-253.21 1016.19,-248.086"/>
</g>
<!-- Node39&#45;&gt;Node3 -->
<g id="edge56" class="edge"><title>Node39&#45;&gt;Node3</title>
<path fill="none" stroke="midnightblue" d="M995.865,-336.297C976.385,-303.286 906.824,-185.404 880.34,-140.522"/>
<polygon fill="midnightblue" stroke="midnightblue" points="883.339,-138.717 875.242,-131.884 877.31,-142.275 883.339,-138.717"/>
</g>
<!-- Node39&#45;&gt;Node36 -->
<g id="edge57" class="edge"><title>Node39&#45;&gt;Node36</title>
<path fill="none" stroke="midnightblue" d="M1000.69,-336.368C1000.04,-318.617 998.552,-277.666 997.676,-253.597"/>
<polygon fill="midnightblue" stroke="midnightblue" points="1001.17,-253.458 997.312,-243.591 994.178,-253.712 1001.17,-253.458"/>
</g>
<!-- Node39&#45;&gt;Node38 -->
<g id="edge58" class="edge"><title>Node39&#45;&gt;Node38</title>
<path fill="none" stroke="midnightblue" d="M1009.92,-336.083C1017.78,-328.22 1029.43,-316.569 1038.92,-307.081"/>
<polygon fill="midnightblue" stroke="midnightblue" points="1041.65,-309.297 1046.25,-299.751 1036.7,-304.347 1041.65,-309.297"/>
</g>
<!-- Node40&#45;&gt;Node3 -->
<g id="edge62" class="edge"><title>Node40&#45;&gt;Node3</title>
<path fill="none" stroke="midnightblue" d="M1297.06,-170.647C1208.6,-160.778 1038.33,-141.781 941.656,-130.995"/>
<polygon fill="midnightblue" stroke="midnightblue" points="942.001,-127.512 931.675,-129.881 941.225,-134.468 942.001,-127.512"/>
</g>
<!-- Node40&#45;&gt;Node15 -->
<g id="edge63" class="edge"><title>Node40&#45;&gt;Node15</title>
<path fill="none" stroke="midnightblue" d="M1345.17,-168.296C1333.34,-155.544 1315.05,-131.214 1326,-112 1334.53,-97.0289 1350.22,-86.5301 1365.14,-79.462"/>
<polygon fill="midnightblue" stroke="midnightblue" points="1366.96,-82.4868 1374.75,-75.3002 1364.18,-76.0636 1366.96,-82.4868"/>
</g>
<!-- Node40&#45;&gt;Node18 -->
<g id="edge64" class="edge"><title>Node40&#45;&gt;Node18</title>
<path fill="none" stroke="midnightblue" d="M1388.27,-168.453C1408.59,-161.717 1433.36,-150.325 1449,-132 1460.08,-119.015 1464.7,-99.8517 1466.63,-85.6944"/>
<polygon fill="midnightblue" stroke="midnightblue" points="1470.12,-85.934 1467.67,-75.6275 1463.16,-85.2155 1470.12,-85.934"/>
</g>
<!-- Node41 -->
<g id="node41" class="node"><title>Node41</title>
<polygon fill="white" stroke="#bfbfbf" points="1334.5,-112.5 1334.5,-131.5 1375.5,-131.5 1375.5,-112.5 1334.5,-112.5"/>
<text text-anchor="middle" x="1355" y="-119.5" font-family="Helvetica,sans-Serif" font-size="10.00">ctime</text>
</g>
<!-- Node40&#45;&gt;Node41 -->
<g id="edge65" class="edge"><title>Node40&#45;&gt;Node41</title>
<path fill="none" stroke="midnightblue" d="M1354.17,-168.083C1354.3,-161.006 1354.48,-150.861 1354.65,-141.986"/>
<polygon fill="midnightblue" stroke="midnightblue" points="1358.15,-141.814 1354.84,-131.751 1351.15,-141.685 1358.15,-141.814"/>
</g>
<!-- Node42 -->
<g id="node42" class="node"><title>Node42</title>
<polygon fill="white" stroke="#bfbfbf" points="1394,-112.5 1394,-131.5 1440,-131.5 1440,-112.5 1394,-112.5"/>
<text text-anchor="middle" x="1417" y="-119.5" font-family="Helvetica,sans-Serif" font-size="10.00">chrono</text>
</g>
<!-- Node40&#45;&gt;Node42 -->
<g id="edge66" class="edge"><title>Node40&#45;&gt;Node42</title>
<path fill="none" stroke="midnightblue" d="M1364.12,-168.324C1373.53,-160.263 1387.74,-148.077 1399.07,-138.369"/>
<polygon fill="midnightblue" stroke="midnightblue" points="1401.38,-140.999 1406.69,-131.834 1396.82,-135.684 1401.38,-140.999"/>
</g>
</g>
</svg>
