<?xml version="1.0" encoding="UTF-8" standalone="no"?>
<!DOCTYPE svg PUBLIC "-//W3C//DTD SVG 1.1//EN"
 "http://www.w3.org/Graphics/SVG/1.1/DTD/svg11.dtd">
<!-- Generated by graphviz version 2.38.0 (20140413.2041)
 -->
<!-- Title: stringlib.h Pages: 1 -->
<!--zoomable 420 -->
<svg id="main" version="1.1" xmlns="http://www.w3.org/2000/svg" xmlns:xlink="http://www.w3.org/1999/xlink" xml:space="preserve" onload="init(evt)">
<style type="text/css"><![CDATA[
.edge:hover path { stroke: red; }
.edge:hover polygon { stroke: red; fill: red; }
]]></style>
<script type="text/javascript"><![CDATA[
var edges = document.getElementsByTagName('g');
if (edges && edges.length) {
  for (var i=0;i<edges.length;i++) {
    if (edges[i].id.substr(0,4)=='edge') {
      edges[i].setAttribute('class','edge');
    }
  }
}
]]></script>
        <defs>
                <circle id="rim" cx="0" cy="0" r="7"/>
                <circle id="rim2" cx="0" cy="0" r="3.5"/>
                <g id="zoomPlus">
                        <use xlink:href="#rim" fill="#404040">
                                <set attributeName="fill" to="#808080" begin="zoomplus.mouseover" end="zoomplus.mouseout"/>
                        </use>
                        <path d="M-4,0h8M0,-4v8" fill="none" stroke="white" stroke-width="1.5" pointer-events="none"/>
                </g>
                <g id="zoomMin">
                        <use xlink:href="#rim" fill="#404040">
                                <set attributeName="fill" to="#808080" begin="zoomminus.mouseover" end="zoomminus.mouseout"/>
                        </use>
                        <path d="M-4,0h8" fill="none" stroke="white" stroke-width="1.5" pointer-events="none"/>
                </g>
                <g id="dirArrow">
                        <path fill="none" stroke="white" stroke-width="1.5" d="M0,-3.0v7 M-2.5,-0.5L0,-3.0L2.5,-0.5"/>
                </g>
               <g id="resetDef">
                       <use xlink:href="#rim2" fill="#404040">
                               <set attributeName="fill" to="#808080" begin="reset.mouseover" end="reset.mouseout"/>
                       </use>
               </g>
        </defs>

<script type="text/javascript">
var viewWidth = 1480;
var viewHeight = 420;
var sectionId = 'dynsection-0';
</script>
<script xlink:href="svgpan.js"/>
<svg id="graph" class="graph">
<g id="viewport">
<title>stringlib.h</title>
<polygon fill="white" stroke="none" points="-4,4 -4,-416 1476.09,-416 1476.09,4 -4,4"/>
<!-- Node1 -->
<g id="node1" class="node"><title>Node1</title>
<polygon fill="#bfbfbf" stroke="black" points="564,-392.5 564,-411.5 623,-411.5 623,-392.5 564,-392.5"/>
<text text-anchor="middle" x="593.5" y="-399.5" font-family="Helvetica,sans-Serif" font-size="10.00">stringlib.h</text>
</g>
<!-- Node2 -->
<g id="node2" class="node"><title>Node2</title>
<g id="a_node2"><a xlink:href="config_cosmos_8h.html" target="_top" xlink:title="Headers and definitions common to all COSMOS. ">
<polygon fill="white" stroke="black" points="687,-112.5 687,-131.5 810,-131.5 810,-112.5 687,-112.5"/>
<text text-anchor="middle" x="748.5" y="-119.5" font-family="Helvetica,sans-Serif" font-size="10.00">support/configCosmos.h</text>
</a>
</g>
</g>
<!-- Node1&#45;&gt;Node2 -->
<g id="edge1" class="edge"><title>Node1&#45;&gt;Node2</title>
<path fill="none" stroke="midnightblue" d="M593.5,-392.442C593.5,-373.936 593.5,-328.812 593.5,-291 593.5,-291 593.5,-291 593.5,-233 593.5,-179.048 656.727,-149.142 702.417,-134.574"/>
<polygon fill="midnightblue" stroke="midnightblue" points="703.61,-137.869 712.159,-131.611 701.574,-131.172 703.61,-137.869"/>
</g>
<!-- Node17 -->
<g id="node17" class="node"><title>Node17</title>
<polygon fill="white" stroke="#bfbfbf" points="0,-56.5 0,-75.5 41,-75.5 41,-56.5 0,-56.5"/>
<text text-anchor="middle" x="20.5" y="-63.5" font-family="Helvetica,sans-Serif" font-size="10.00">string</text>
</g>
<!-- Node1&#45;&gt;Node17 -->
<g id="edge46" class="edge"><title>Node1&#45;&gt;Node17</title>
<path fill="none" stroke="midnightblue" d="M563.839,-400.828C456.629,-399.419 95.5,-387.511 95.5,-291 95.5,-291 95.5,-291 95.5,-177 95.5,-137.444 61.9828,-101.616 39.7611,-82.2091"/>
<polygon fill="midnightblue" stroke="midnightblue" points="41.8001,-79.351 31.8909,-75.6017 37.2992,-84.7122 41.8001,-79.351"/>
</g>
<!-- Node24 -->
<g id="node24" class="node"><title>Node24</title>
<polygon fill="white" stroke="#bfbfbf" points="59.5,-56.5 59.5,-75.5 111.5,-75.5 111.5,-56.5 59.5,-56.5"/>
<text text-anchor="middle" x="85.5" y="-63.5" font-family="Helvetica,sans-Serif" font-size="10.00">sstream</text>
</g>
<!-- Node1&#45;&gt;Node24 -->
<g id="edge47" class="edge"><title>Node1&#45;&gt;Node24</title>
<path fill="none" stroke="midnightblue" d="M563.776,-396.949C486.185,-385.547 283.5,-350.106 283.5,-291 283.5,-291 283.5,-291 283.5,-177 283.5,-140.367 178.625,-98.7921 121.528,-78.8719"/>
<polygon fill="midnightblue" stroke="midnightblue" points="122.388,-75.4665 111.793,-75.5238 120.111,-82.086 122.388,-75.4665"/>
</g>
<!-- Node28 -->
<g id="node28" class="node"><title>Node28</title>
<g id="a_node28"><a xlink:href="jsonobject_8h.html" target="_top" xlink:title="support/jsonobject.h">
<polygon fill="white" stroke="black" points="621.5,-336.5 621.5,-355.5 725.5,-355.5 725.5,-336.5 621.5,-336.5"/>
<text text-anchor="middle" x="673.5" y="-343.5" font-family="Helvetica,sans-Serif" font-size="10.00">support/jsonobject.h</text>
</a>
</g>
</g>
<!-- Node1&#45;&gt;Node28 -->
<g id="edge33" class="edge"><title>Node1&#45;&gt;Node28</title>
<path fill="none" stroke="midnightblue" d="M606.353,-392.324C618.716,-383.979 637.63,-371.212 652.237,-361.352"/>
<polygon fill="midnightblue" stroke="midnightblue" points="654.348,-364.15 660.679,-355.655 650.432,-358.348 654.348,-364.15"/>
</g>
<!-- Node33 -->
<g id="node33" class="node"><title>Node33</title>
<polygon fill="white" stroke="#bfbfbf" points="744,-336.5 744,-355.5 791,-355.5 791,-336.5 744,-336.5"/>
<text text-anchor="middle" x="767.5" y="-343.5" font-family="Helvetica,sans-Serif" font-size="10.00">errno.h</text>
</g>
<!-- Node1&#45;&gt;Node33 -->
<g id="edge45" class="edge"><title>Node1&#45;&gt;Node33</title>
<path fill="none" stroke="midnightblue" d="M621.071,-392.444C651.813,-382.903 701.52,-367.477 734.355,-357.286"/>
<polygon fill="midnightblue" stroke="midnightblue" points="735.451,-360.611 743.964,-354.304 733.376,-353.926 735.451,-360.611"/>
</g>
<!-- Node3 -->
<g id="node3" class="node"><title>Node3</title>
<polygon fill="white" stroke="#bfbfbf" points="901,-56.5 901,-75.5 946,-75.5 946,-56.5 901,-56.5"/>
<text text-anchor="middle" x="923.5" y="-63.5" font-family="Helvetica,sans-Serif" font-size="10.00">climits</text>
</g>
<!-- Node2&#45;&gt;Node3 -->
<g id="edge2" class="edge"><title>Node2&#45;&gt;Node3</title>
<path fill="none" stroke="midnightblue" d="M776.229,-112.444C807.498,-102.795 858.273,-87.1273 891.278,-76.9429"/>
<polygon fill="midnightblue" stroke="midnightblue" points="892.385,-80.264 900.909,-73.971 890.321,-73.5752 892.385,-80.264"/>
</g>
<!-- Node4 -->
<g id="node4" class="node"><title>Node4</title>
<polygon fill="white" stroke="#bfbfbf" points="964,-56.5 964,-75.5 1011,-75.5 1011,-56.5 964,-56.5"/>
<text text-anchor="middle" x="987.5" y="-63.5" font-family="Helvetica,sans-Serif" font-size="10.00">csignal</text>
</g>
<!-- Node2&#45;&gt;Node4 -->
<g id="edge3" class="edge"><title>Node2&#45;&gt;Node4</title>
<path fill="none" stroke="midnightblue" d="M791.491,-112.44C831.348,-104.328 892.51,-91.4373 953.922,-76.293"/>
<polygon fill="midnightblue" stroke="midnightblue" points="954.916,-79.6523 963.777,-73.8434 953.228,-72.859 954.916,-79.6523"/>
</g>
<!-- Node5 -->
<g id="node5" class="node"><title>Node5</title>
<polygon fill="white" stroke="#bfbfbf" points="1270.5,-56.5 1270.5,-75.5 1316.5,-75.5 1316.5,-56.5 1270.5,-56.5"/>
<text text-anchor="middle" x="1293.5" y="-63.5" font-family="Helvetica,sans-Serif" font-size="10.00">cstdint</text>
</g>
<!-- Node2&#45;&gt;Node5 -->
<g id="edge4" class="edge"><title>Node2&#45;&gt;Node5</title>
<path fill="none" stroke="midnightblue" d="M810.259,-118.524C906.258,-114.003 1096.85,-102.335 1256.5,-76 1257.75,-75.7942 1259.02,-75.569 1260.29,-75.3283"/>
<polygon fill="midnightblue" stroke="midnightblue" points="1261.06,-78.743 1270.12,-73.2486 1259.61,-71.8947 1261.06,-78.743"/>
</g>
<!-- Node6 -->
<g id="node6" class="node"><title>Node6</title>
<polygon fill="white" stroke="#bfbfbf" points="1029.5,-56.5 1029.5,-75.5 1085.5,-75.5 1085.5,-56.5 1029.5,-56.5"/>
<text text-anchor="middle" x="1057.5" y="-63.5" font-family="Helvetica,sans-Serif" font-size="10.00">cinttypes</text>
</g>
<!-- Node2&#45;&gt;Node6 -->
<g id="edge5" class="edge"><title>Node2&#45;&gt;Node6</title>
<path fill="none" stroke="midnightblue" d="M807.895,-112.48C860.89,-104.581 940.806,-91.9458 1019.22,-76.1423"/>
<polygon fill="midnightblue" stroke="midnightblue" points="1020.17,-79.521 1029.27,-74.0973 1018.77,-72.6616 1020.17,-79.521"/>
</g>
<!-- Node7 -->
<g id="node7" class="node"><title>Node7</title>
<polygon fill="white" stroke="#bfbfbf" points="1104,-56.5 1104,-75.5 1147,-75.5 1147,-56.5 1104,-56.5"/>
<text text-anchor="middle" x="1125.5" y="-63.5" font-family="Helvetica,sans-Serif" font-size="10.00">cstdio</text>
</g>
<!-- Node2&#45;&gt;Node7 -->
<g id="edge6" class="edge"><title>Node2&#45;&gt;Node7</title>
<path fill="none" stroke="midnightblue" d="M810.227,-115.85C877.702,-109.575 989.073,-97.3328 1094.11,-75.7683"/>
<polygon fill="midnightblue" stroke="midnightblue" points="1094.85,-79.1889 1103.93,-73.7213 1093.42,-72.3363 1094.85,-79.1889"/>
</g>
<!-- Node8 -->
<g id="node8" class="node"><title>Node8</title>
<polygon fill="white" stroke="#bfbfbf" points="1165,-56.5 1165,-75.5 1214,-75.5 1214,-56.5 1165,-56.5"/>
<text text-anchor="middle" x="1189.5" y="-63.5" font-family="Helvetica,sans-Serif" font-size="10.00">cstddef</text>
</g>
<!-- Node2&#45;&gt;Node8 -->
<g id="edge7" class="edge"><title>Node2&#45;&gt;Node8</title>
<path fill="none" stroke="midnightblue" d="M810.118,-117.218C888.356,-111.746 1027.57,-99.7755 1154.81,-76.0778"/>
<polygon fill="midnightblue" stroke="midnightblue" points="1155.56,-79.4993 1164.73,-74.2018 1154.25,-72.6212 1155.56,-79.4993"/>
</g>
<!-- Node9 -->
<g id="node9" class="node"><title>Node9</title>
<polygon fill="white" stroke="#bfbfbf" points="130,-56.5 130,-75.5 175,-75.5 175,-56.5 130,-56.5"/>
<text text-anchor="middle" x="152.5" y="-63.5" font-family="Helvetica,sans-Serif" font-size="10.00">cstdlib</text>
</g>
<!-- Node2&#45;&gt;Node9 -->
<g id="edge8" class="edge"><title>Node2&#45;&gt;Node9</title>
<path fill="none" stroke="midnightblue" d="M686.91,-119.226C583.523,-115.539 368.777,-104.834 189.5,-76 188.031,-75.7638 186.535,-75.4996 185.027,-75.2141"/>
<polygon fill="midnightblue" stroke="midnightblue" points="185.593,-71.7561 175.083,-73.0933 184.133,-78.6021 185.593,-71.7561"/>
</g>
<!-- Node10 -->
<g id="node10" class="node"><title>Node10</title>
<polygon fill="white" stroke="#bfbfbf" points="231.5,-56.5 231.5,-75.5 275.5,-75.5 275.5,-56.5 231.5,-56.5"/>
<text text-anchor="middle" x="253.5" y="-63.5" font-family="Helvetica,sans-Serif" font-size="10.00">cerrno</text>
</g>
<!-- Node2&#45;&gt;Node10 -->
<g id="edge9" class="edge"><title>Node2&#45;&gt;Node10</title>
<path fill="none" stroke="midnightblue" d="M686.808,-118.664C599.423,-114.552 434.589,-103.84 285.949,-75.9409"/>
<polygon fill="midnightblue" stroke="midnightblue" points="286.209,-72.4274 275.73,-73.9905 284.897,-79.3033 286.209,-72.4274"/>
</g>
<!-- Node11 -->
<g id="node11" class="node"><title>Node11</title>
<polygon fill="white" stroke="#bfbfbf" points="293.5,-56.5 293.5,-75.5 339.5,-75.5 339.5,-56.5 293.5,-56.5"/>
<text text-anchor="middle" x="316.5" y="-63.5" font-family="Helvetica,sans-Serif" font-size="10.00">cstring</text>
</g>
<!-- Node2&#45;&gt;Node11 -->
<g id="edge10" class="edge"><title>Node2&#45;&gt;Node11</title>
<path fill="none" stroke="midnightblue" d="M686.698,-117.168C609.785,-111.707 474.356,-99.8154 349.899,-75.9905"/>
<polygon fill="midnightblue" stroke="midnightblue" points="350.298,-72.5024 339.814,-74.0285 348.961,-79.3736 350.298,-72.5024"/>
</g>
<!-- Node12 -->
<g id="node12" class="node"><title>Node12</title>
<polygon fill="white" stroke="#bfbfbf" points="1334.5,-56.5 1334.5,-75.5 1378.5,-75.5 1378.5,-56.5 1334.5,-56.5"/>
<text text-anchor="middle" x="1356.5" y="-63.5" font-family="Helvetica,sans-Serif" font-size="10.00">cmath</text>
</g>
<!-- Node2&#45;&gt;Node12 -->
<g id="edge11" class="edge"><title>Node2&#45;&gt;Node12</title>
<path fill="none" stroke="midnightblue" d="M810.092,-120.319C914.375,-118.267 1132.3,-110.095 1324.29,-75.8518"/>
<polygon fill="midnightblue" stroke="midnightblue" points="1325.06,-79.2686 1334.28,-74.0419 1323.82,-72.3807 1325.06,-79.2686"/>
</g>
<!-- Node13 -->
<g id="node13" class="node"><title>Node13</title>
<polygon fill="white" stroke="#bfbfbf" points="358,-56.5 358,-75.5 403,-75.5 403,-56.5 358,-56.5"/>
<text text-anchor="middle" x="380.5" y="-63.5" font-family="Helvetica,sans-Serif" font-size="10.00">iosfwd</text>
</g>
<!-- Node2&#45;&gt;Node13 -->
<g id="edge12" class="edge"><title>Node2&#45;&gt;Node13</title>
<path fill="none" stroke="midnightblue" d="M686.843,-115.565C621.098,-109.143 513.846,-96.8721 413.126,-76.0868"/>
<polygon fill="midnightblue" stroke="midnightblue" points="413.593,-72.6087 403.088,-73.982 412.157,-79.4597 413.593,-72.6087"/>
</g>
<!-- Node14 -->
<g id="node14" class="node"><title>Node14</title>
<polygon fill="white" stroke="#bfbfbf" points="1396.5,-56.5 1396.5,-75.5 1450.5,-75.5 1450.5,-56.5 1396.5,-56.5"/>
<text text-anchor="middle" x="1423.5" y="-63.5" font-family="Helvetica,sans-Serif" font-size="10.00">iostream</text>
</g>
<!-- Node2&#45;&gt;Node14 -->
<g id="edge13" class="edge"><title>Node2&#45;&gt;Node14</title>
<path fill="none" stroke="midnightblue" d="M810.144,-120.228C922.874,-118.04 1169.82,-109.65 1386.51,-75.8691"/>
<polygon fill="midnightblue" stroke="midnightblue" points="1387.15,-79.3118 1396.48,-74.2935 1386.05,-72.3976 1387.15,-79.3118"/>
</g>
<!-- Node15 -->
<g id="node15" class="node"><title>Node15</title>
<polygon fill="white" stroke="#bfbfbf" points="421,-56.5 421,-75.5 472,-75.5 472,-56.5 421,-56.5"/>
<text text-anchor="middle" x="446.5" y="-63.5" font-family="Helvetica,sans-Serif" font-size="10.00">unistd.h</text>
</g>
<!-- Node2&#45;&gt;Node15 -->
<g id="edge14" class="edge"><title>Node2&#45;&gt;Node15</title>
<path fill="none" stroke="midnightblue" d="M689.105,-112.465C637.043,-104.649 559.138,-92.146 481.953,-75.9377"/>
<polygon fill="midnightblue" stroke="midnightblue" points="482.564,-72.4895 472.055,-73.8378 481.111,-79.3371 482.564,-72.4895"/>
</g>
<!-- Node16 -->
<g id="node16" class="node"><title>Node16</title>
<polygon fill="white" stroke="#bfbfbf" points="490.5,-56.5 490.5,-75.5 534.5,-75.5 534.5,-56.5 490.5,-56.5"/>
<text text-anchor="middle" x="512.5" y="-63.5" font-family="Helvetica,sans-Serif" font-size="10.00">fcntl.h</text>
</g>
<!-- Node2&#45;&gt;Node16 -->
<g id="edge15" class="edge"><title>Node2&#45;&gt;Node16</title>
<path fill="none" stroke="midnightblue" d="M709.347,-112.478C668.982,-103.624 604.25,-89.2387 548.5,-76 547.231,-75.6986 545.937,-75.3886 544.631,-75.0731"/>
<polygon fill="midnightblue" stroke="midnightblue" points="545.111,-71.5872 534.565,-72.6038 543.443,-78.3856 545.111,-71.5872"/>
</g>
<!-- Node2&#45;&gt;Node17 -->
<g id="edge16" class="edge"><title>Node2&#45;&gt;Node17</title>
<path fill="none" stroke="midnightblue" d="M686.78,-121.695C566.053,-122.044 290.332,-117.864 50.9409,-75.6012"/>
<polygon fill="midnightblue" stroke="midnightblue" points="51.4679,-72.14 41.0074,-73.8217 50.2335,-79.0303 51.4679,-72.14"/>
</g>
<!-- Node18 -->
<g id="node18" class="node"><title>Node18</title>
<polygon fill="white" stroke="#bfbfbf" points="1220.5,-0.5 1220.5,-19.5 1264.5,-19.5 1264.5,-0.5 1220.5,-0.5"/>
<text text-anchor="middle" x="1242.5" y="-7.5" font-family="Helvetica,sans-Serif" font-size="10.00">vector</text>
</g>
<!-- Node2&#45;&gt;Node18 -->
<g id="edge17" class="edge"><title>Node2&#45;&gt;Node18</title>
<path fill="none" stroke="midnightblue" d="M810.319,-118.968C931.729,-114.431 1192.29,-101.784 1223.5,-76 1236.93,-64.9019 1241.18,-44.8658 1242.38,-29.9618"/>
<polygon fill="midnightblue" stroke="midnightblue" points="1245.88,-29.9342 1242.8,-19.7981 1238.89,-29.645 1245.88,-29.9342"/>
</g>
<!-- Node19 -->
<g id="node19" class="node"><title>Node19</title>
<polygon fill="white" stroke="#bfbfbf" points="591,-56.5 591,-75.5 634,-75.5 634,-56.5 591,-56.5"/>
<text text-anchor="middle" x="612.5" y="-63.5" font-family="Helvetica,sans-Serif" font-size="10.00">deque</text>
</g>
<!-- Node2&#45;&gt;Node19 -->
<g id="edge18" class="edge"><title>Node2&#45;&gt;Node19</title>
<path fill="none" stroke="midnightblue" d="M726.95,-112.444C704.469,-103.517 669.012,-89.4387 643.52,-79.3168"/>
<polygon fill="midnightblue" stroke="midnightblue" points="644.535,-75.9539 633.949,-75.5164 641.951,-82.4598 644.535,-75.9539"/>
</g>
<!-- Node20 -->
<g id="node20" class="node"><title>Node20</title>
<polygon fill="white" stroke="#bfbfbf" points="337.5,-0.5 337.5,-19.5 381.5,-19.5 381.5,-0.5 337.5,-0.5"/>
<text text-anchor="middle" x="359.5" y="-7.5" font-family="Helvetica,sans-Serif" font-size="10.00">mutex</text>
</g>
<!-- Node2&#45;&gt;Node20 -->
<g id="edge19" class="edge"><title>Node2&#45;&gt;Node20</title>
<path fill="none" stroke="midnightblue" d="M686.966,-120.304C554.831,-118.171 253.376,-109.63 222.5,-76 189.339,-39.8812 276.948,-21.9125 327.148,-14.8024"/>
<polygon fill="midnightblue" stroke="midnightblue" points="327.79,-18.2477 337.235,-13.4474 326.858,-11.31 327.79,-18.2477"/>
</g>
<!-- Node21 -->
<g id="node21" class="node"><title>Node21</title>
<polygon fill="white" stroke="#bfbfbf" points="547.5,-0.5 547.5,-19.5 591.5,-19.5 591.5,-0.5 547.5,-0.5"/>
<text text-anchor="middle" x="569.5" y="-7.5" font-family="Helvetica,sans-Serif" font-size="10.00">thread</text>
</g>
<!-- Node2&#45;&gt;Node21 -->
<g id="edge20" class="edge"><title>Node2&#45;&gt;Node21</title>
<path fill="none" stroke="midnightblue" d="M686.602,-119.926C650.947,-115.934 608.069,-104.803 581.5,-76 570.203,-63.7536 567.861,-44.491 567.949,-30.1095"/>
<polygon fill="midnightblue" stroke="midnightblue" points="571.458,-29.9986 568.416,-19.8496 564.465,-29.68 571.458,-29.9986"/>
</g>
<!-- Node22 -->
<g id="node22" class="node"><title>Node22</title>
<polygon fill="white" stroke="#bfbfbf" points="618,-0.5 618,-19.5 713,-19.5 713,-0.5 618,-0.5"/>
<text text-anchor="middle" x="665.5" y="-7.5" font-family="Helvetica,sans-Serif" font-size="10.00">condition_variable</text>
</g>
<!-- Node2&#45;&gt;Node22 -->
<g id="edge21" class="edge"><title>Node2&#45;&gt;Node22</title>
<path fill="none" stroke="midnightblue" d="M728.203,-112.346C713.093,-104.875 693.145,-92.649 681.5,-76 672.029,-62.4592 668.143,-43.9081 666.559,-30.0896"/>
<polygon fill="midnightblue" stroke="midnightblue" points="670.021,-29.4822 665.699,-19.809 663.045,-30.0661 670.021,-29.4822"/>
</g>
<!-- Node23 -->
<g id="node23" class="node"><title>Node23</title>
<polygon fill="white" stroke="#bfbfbf" points="785,-0.5 785,-19.5 828,-19.5 828,-0.5 785,-0.5"/>
<text text-anchor="middle" x="806.5" y="-7.5" font-family="Helvetica,sans-Serif" font-size="10.00">queue</text>
</g>
<!-- Node2&#45;&gt;Node23 -->
<g id="edge22" class="edge"><title>Node2&#45;&gt;Node23</title>
<path fill="none" stroke="midnightblue" d="M771.288,-112.471C786.826,-105.316 806.207,-93.4352 815.5,-76 823.195,-61.5621 819.424,-42.8678 814.63,-29.236"/>
<polygon fill="midnightblue" stroke="midnightblue" points="817.727,-27.5538 810.766,-19.567 811.227,-30.1518 817.727,-27.5538"/>
</g>
<!-- Node2&#45;&gt;Node24 -->
<g id="edge23" class="edge"><title>Node2&#45;&gt;Node24</title>
<path fill="none" stroke="midnightblue" d="M686.565,-120.25C575.187,-118.098 333.716,-109.772 121.832,-75.9262"/>
<polygon fill="midnightblue" stroke="midnightblue" points="122.197,-72.4397 111.766,-74.2952 121.077,-79.3496 122.197,-72.4397"/>
</g>
<!-- Node25 -->
<g id="node25" class="node"><title>Node25</title>
<polygon fill="white" stroke="#bfbfbf" points="849,-0.5 849,-19.5 884,-19.5 884,-0.5 849,-0.5"/>
<text text-anchor="middle" x="866.5" y="-7.5" font-family="Helvetica,sans-Serif" font-size="10.00">map</text>
</g>
<!-- Node2&#45;&gt;Node25 -->
<g id="edge24" class="edge"><title>Node2&#45;&gt;Node25</title>
<path fill="none" stroke="midnightblue" d="M773.041,-112.418C791.255,-105.051 815.738,-92.9287 832.5,-76 845.639,-62.7311 854.88,-43.3388 860.379,-29.1903"/>
<polygon fill="midnightblue" stroke="midnightblue" points="863.745,-30.1755 863.857,-19.5813 857.163,-27.7931 863.745,-30.1755"/>
</g>
<!-- Node26 -->
<g id="node26" class="node"><title>Node26</title>
<g id="a_node26"><a xlink:href="cosmos-defs_8h.html" target="_top" xlink:title="COSMOS definitions Definitions specific to the COSMOS environement. ">
<polygon fill="white" stroke="black" points="690.5,-56.5 690.5,-75.5 806.5,-75.5 806.5,-56.5 690.5,-56.5"/>
<text text-anchor="middle" x="748.5" y="-63.5" font-family="Helvetica,sans-Serif" font-size="10.00">support/cosmos&#45;defs.h</text>
</a>
</g>
</g>
<!-- Node2&#45;&gt;Node26 -->
<g id="edge25" class="edge"><title>Node2&#45;&gt;Node26</title>
<path fill="none" stroke="midnightblue" d="M748.5,-112.083C748.5,-105.006 748.5,-94.8611 748.5,-85.9865"/>
<polygon fill="midnightblue" stroke="midnightblue" points="752,-85.751 748.5,-75.7511 745,-85.7511 752,-85.751"/>
</g>
<!-- Node26&#45;&gt;Node18 -->
<g id="edge27" class="edge"><title>Node26&#45;&gt;Node18</title>
<path fill="none" stroke="midnightblue" d="M806.621,-58.6467C911.335,-47.2002 1128.39,-23.4734 1210.29,-14.5215"/>
<polygon fill="midnightblue" stroke="midnightblue" points="1210.92,-17.9735 1220.48,-13.4075 1210.15,-11.0149 1210.92,-17.9735"/>
</g>
<!-- Node26&#45;&gt;Node20 -->
<g id="edge31" class="edge"><title>Node26&#45;&gt;Node20</title>
<path fill="none" stroke="midnightblue" d="M690.263,-56.9157C607.143,-45.3772 457.302,-24.5766 391.715,-15.472"/>
<polygon fill="midnightblue" stroke="midnightblue" points="391.957,-11.9721 381.571,-14.0638 390.994,-18.9056 391.957,-11.9721"/>
</g>
<!-- Node26&#45;&gt;Node21 -->
<g id="edge30" class="edge"><title>Node26&#45;&gt;Node21</title>
<path fill="none" stroke="midnightblue" d="M720.137,-56.4435C687.796,-46.6872 635.055,-30.7764 601.334,-20.6036"/>
<polygon fill="midnightblue" stroke="midnightblue" points="602.108,-17.1813 591.523,-17.6439 600.086,-23.883 602.108,-17.1813"/>
</g>
<!-- Node26&#45;&gt;Node22 -->
<g id="edge32" class="edge"><title>Node26&#45;&gt;Node22</title>
<path fill="none" stroke="midnightblue" d="M735.165,-56.324C722.338,-47.979 702.715,-35.2122 687.56,-25.3524"/>
<polygon fill="midnightblue" stroke="midnightblue" points="689.093,-22.1742 678.802,-19.6545 685.276,-28.0417 689.093,-22.1742"/>
</g>
<!-- Node26&#45;&gt;Node23 -->
<g id="edge29" class="edge"><title>Node26&#45;&gt;Node23</title>
<path fill="none" stroke="midnightblue" d="M757.819,-56.324C766.393,-48.3414 779.312,-36.3128 789.688,-26.6529"/>
<polygon fill="midnightblue" stroke="midnightblue" points="792.078,-29.2098 797.012,-19.8339 787.308,-24.0865 792.078,-29.2098"/>
</g>
<!-- Node26&#45;&gt;Node25 -->
<g id="edge26" class="edge"><title>Node26&#45;&gt;Node25</title>
<path fill="none" stroke="midnightblue" d="M767.197,-56.4435C786.671,-47.532 817.365,-33.4856 839.475,-23.3674"/>
<polygon fill="midnightblue" stroke="midnightblue" points="841.026,-26.5068 848.662,-19.1629 838.113,-20.1417 841.026,-26.5068"/>
</g>
<!-- Node27 -->
<g id="node27" class="node"><title>Node27</title>
<polygon fill="white" stroke="#bfbfbf" points="734,-0.5 734,-19.5 763,-19.5 763,-0.5 734,-0.5"/>
<text text-anchor="middle" x="748.5" y="-7.5" font-family="Helvetica,sans-Serif" font-size="10.00">list</text>
</g>
<!-- Node26&#45;&gt;Node27 -->
<g id="edge28" class="edge"><title>Node26&#45;&gt;Node27</title>
<path fill="none" stroke="midnightblue" d="M748.5,-56.083C748.5,-49.0059 748.5,-38.8611 748.5,-29.9865"/>
<polygon fill="midnightblue" stroke="midnightblue" points="752,-29.751 748.5,-19.7511 745,-29.7511 752,-29.751"/>
</g>
<!-- Node29 -->
<g id="node29" class="node"><title>Node29</title>
<g id="a_node29"><a xlink:href="jsonvalue_8h.html" target="_top" xlink:title="support/jsonvalue.h">
<polygon fill="white" stroke="black" points="698,-280.5 698,-299.5 799,-299.5 799,-280.5 698,-280.5"/>
<text text-anchor="middle" x="748.5" y="-287.5" font-family="Helvetica,sans-Serif" font-size="10.00">support/jsonvalue.h</text>
</a>
</g>
</g>
<!-- Node28&#45;&gt;Node29 -->
<g id="edge34" class="edge"><title>Node28&#45;&gt;Node29</title>
<path fill="none" stroke="midnightblue" d="M685.55,-336.324C696.963,-328.107 714.331,-315.602 727.935,-305.807"/>
<polygon fill="midnightblue" stroke="midnightblue" points="730.16,-308.517 736.231,-299.834 726.07,-302.837 730.16,-308.517"/>
</g>
<!-- Node29&#45;&gt;Node2 -->
<g id="edge35" class="edge"><title>Node29&#45;&gt;Node2</title>
<path fill="none" stroke="midnightblue" d="M748.5,-280.075C748.5,-253.945 748.5,-177.211 748.5,-141.577"/>
<polygon fill="midnightblue" stroke="midnightblue" points="752,-141.568 748.5,-131.568 745,-141.568 752,-141.568"/>
</g>
<!-- Node30 -->
<g id="node30" class="node"><title>Node30</title>
<g id="a_node30"><a xlink:href="vector_8h.html" target="_top" xlink:title="math/vector.h">
<polygon fill="white" stroke="black" points="1255,-224.5 1255,-243.5 1332,-243.5 1332,-224.5 1255,-224.5"/>
<text text-anchor="middle" x="1293.5" y="-231.5" font-family="Helvetica,sans-Serif" font-size="10.00">math/vector.h</text>
</a>
</g>
</g>
<!-- Node29&#45;&gt;Node30 -->
<g id="edge36" class="edge"><title>Node29&#45;&gt;Node30</title>
<path fill="none" stroke="midnightblue" d="M799.283,-283.968C903.773,-273.615 1141.64,-250.046 1244.55,-239.85"/>
<polygon fill="midnightblue" stroke="midnightblue" points="1245.06,-243.317 1254.67,-238.848 1244.37,-236.351 1245.06,-243.317"/>
</g>
<!-- Node30&#45;&gt;Node2 -->
<g id="edge37" class="edge"><title>Node30&#45;&gt;Node2</title>
<path fill="none" stroke="midnightblue" d="M1254.74,-225.177C1158.74,-205.801 909.827,-155.561 800.871,-133.57"/>
<polygon fill="midnightblue" stroke="midnightblue" points="801.268,-130.08 790.773,-131.532 799.883,-136.942 801.268,-130.08"/>
</g>
<!-- Node30&#45;&gt;Node12 -->
<g id="edge43" class="edge"><title>Node30&#45;&gt;Node12</title>
<path fill="none" stroke="midnightblue" d="M1305,-224.351C1315.01,-216.148 1329.06,-202.887 1336.5,-188 1353.09,-154.784 1356.36,-110.675 1356.76,-85.9259"/>
<polygon fill="midnightblue" stroke="midnightblue" points="1360.26,-85.7491 1356.77,-75.7442 1353.26,-85.7392 1360.26,-85.7491"/>
</g>
<!-- Node30&#45;&gt;Node14 -->
<g id="edge41" class="edge"><title>Node30&#45;&gt;Node14</title>
<path fill="none" stroke="midnightblue" d="M1308.42,-224.475C1321.69,-216.354 1341.03,-203.146 1354.5,-188 1383.04,-155.898 1405.19,-110.092 1416.08,-85.0528"/>
<polygon fill="midnightblue" stroke="midnightblue" points="1419.37,-86.2671 1420.05,-75.6939 1412.92,-83.5375 1419.37,-86.2671"/>
</g>
<!-- Node30&#45;&gt;Node18 -->
<g id="edge44" class="edge"><title>Node30&#45;&gt;Node18</title>
<path fill="none" stroke="midnightblue" d="M1313.46,-224.378C1368.57,-199.407 1515.21,-124.453 1459.5,-56 1436.62,-27.8846 1329.85,-16.7779 1275.08,-12.8737"/>
<polygon fill="midnightblue" stroke="midnightblue" points="1275.08,-9.36546 1264.86,-12.186 1274.61,-16.3497 1275.08,-9.36546"/>
</g>
<!-- Node31 -->
<g id="node31" class="node"><title>Node31</title>
<g id="a_node31"><a xlink:href="math_2constants_8h.html" target="_top" xlink:title="constants.h">
<polygon fill="white" stroke="black" points="1259.5,-168.5 1259.5,-187.5 1327.5,-187.5 1327.5,-168.5 1259.5,-168.5"/>
<text text-anchor="middle" x="1293.5" y="-175.5" font-family="Helvetica,sans-Serif" font-size="10.00">constants.h</text>
</a>
</g>
</g>
<!-- Node30&#45;&gt;Node31 -->
<g id="edge38" class="edge"><title>Node30&#45;&gt;Node31</title>
<path fill="none" stroke="midnightblue" d="M1293.5,-224.083C1293.5,-217.006 1293.5,-206.861 1293.5,-197.986"/>
<polygon fill="midnightblue" stroke="midnightblue" points="1297,-197.751 1293.5,-187.751 1290,-197.751 1297,-197.751"/>
</g>
<!-- Node32 -->
<g id="node32" class="node"><title>Node32</title>
<polygon fill="white" stroke="#bfbfbf" points="1191.5,-168.5 1191.5,-187.5 1241.5,-187.5 1241.5,-168.5 1191.5,-168.5"/>
<text text-anchor="middle" x="1216.5" y="-175.5" font-family="Helvetica,sans-Serif" font-size="10.00">iomanip</text>
</g>
<!-- Node30&#45;&gt;Node32 -->
<g id="edge42" class="edge"><title>Node30&#45;&gt;Node32</title>
<path fill="none" stroke="midnightblue" d="M1281.13,-224.324C1269.34,-216.058 1251.37,-203.453 1237.36,-193.632"/>
<polygon fill="midnightblue" stroke="midnightblue" points="1239.04,-190.531 1228.84,-187.655 1235.02,-196.262 1239.04,-190.531"/>
</g>
<!-- Node31&#45;&gt;Node2 -->
<g id="edge39" class="edge"><title>Node31&#45;&gt;Node2</title>
<path fill="none" stroke="midnightblue" d="M1259.3,-169.465C1256.33,-168.926 1253.37,-168.427 1250.5,-168 1098.16,-145.309 917.982,-132.547 820.27,-126.788"/>
<polygon fill="midnightblue" stroke="midnightblue" points="820.397,-123.289 810.211,-126.203 819.991,-130.278 820.397,-123.289"/>
</g>
<!-- Node31&#45;&gt;Node5 -->
<g id="edge40" class="edge"><title>Node31&#45;&gt;Node5</title>
<path fill="none" stroke="midnightblue" d="M1293.5,-168.368C1293.5,-150.617 1293.5,-109.666 1293.5,-85.5974"/>
<polygon fill="midnightblue" stroke="midnightblue" points="1297,-85.5914 1293.5,-75.5914 1290,-85.5915 1297,-85.5914"/>
</g>
</g>
</svg>
        <g id="navigator" transform="translate(0 0)" fill="#404254">
                <rect fill="#f2f5e9" fill-opacity="0.5" stroke="#606060" stroke-width=".5" x="0" y="0" width="60" height="60"/>
                <use id="zoomplus" xlink:href="#zoomPlus" x="17" y="9" onmousedown="handleZoom(evt,'in')"/>
                <use id="zoomminus" xlink:href="#zoomMin" x="42" y="9" onmousedown="handleZoom(evt,'out')"/>
                <use id="reset" xlink:href="#resetDef" x="30" y="36" onmousedown="handleReset()"/>
                <g id="arrowUp" xlink:href="#dirArrow" transform="translate(30 24)" onmousedown="handlePan(0,-1)">
                  <use xlink:href="#rim" fill="#404040">
                        <set attributeName="fill" to="#808080" begin="arrowUp.mouseover" end="arrowUp.mouseout"/>
                  </use>
                  <path fill="none" stroke="white" stroke-width="1.5" d="M0,-3.0v7 M-2.5,-0.5L0,-3.0L2.5,-0.5"/>
                </g>
                <g id="arrowRight" xlink:href="#dirArrow" transform="rotate(90) translate(36 -43)" onmousedown="handlePan(1,0)">
                  <use xlink:href="#rim" fill="#404040">
                        <set attributeName="fill" to="#808080" begin="arrowRight.mouseover" end="arrowRight.mouseout"/>
                  </use>
                  <path fill="none" stroke="white" stroke-width="1.5" d="M0,-3.0v7 M-2.5,-0.5L0,-3.0L2.5,-0.5"/>
                </g>
                <g id="arrowDown" xlink:href="#dirArrow" transform="rotate(180) translate(-30 -48)" onmousedown="handlePan(0,1)">
                  <use xlink:href="#rim" fill="#404040">
                        <set attributeName="fill" to="#808080" begin="arrowDown.mouseover" end="arrowDown.mouseout"/>
                  </use>
                  <path fill="none" stroke="white" stroke-width="1.5" d="M0,-3.0v7 M-2.5,-0.5L0,-3.0L2.5,-0.5"/>
                </g>
                <g id="arrowLeft" xlink:href="#dirArrow" transform="rotate(270) translate(-36 17)" onmousedown="handlePan(-1,0)">
                  <use xlink:href="#rim" fill="#404040">
                        <set attributeName="fill" to="#808080" begin="arrowLeft.mouseover" end="arrowLeft.mouseout"/>
                  </use>
                  <path fill="none" stroke="white" stroke-width="1.5" d="M0,-3.0v7 M-2.5,-0.5L0,-3.0L2.5,-0.5"/>
                </g>
        </g>
        <svg viewBox="0 0 15 15" width="100%" height="30px" preserveAspectRatio="xMaxYMin meet">
         <g id="arrow_out" transform="scale(0.3 0.3)">
          <a xlink:href="stringlib_8h__incl_org.svg" target="_base">
           <rect id="button" ry="5" rx="5" y="6" x="6" height="38" width="38"
                fill="#f2f5e9" fill-opacity="0.5" stroke="#606060" stroke-width="1.0"/>
           <path id="arrow"
             d="M 11.500037,31.436501 C 11.940474,20.09759 22.043105,11.32322 32.158766,21.979434 L 37.068811,17.246167 C 37.068811,17.246167 37.088388,32 37.088388,32 L 22.160133,31.978069 C 22.160133,31.978069 26.997745,27.140456 26.997745,27.140456 C 18.528582,18.264221 13.291696,25.230495 11.500037,31.436501 z"
             style="fill:#404040;"/>
          </a>
         </g>
        </svg>
</svg>
