<?xml version="1.0" encoding="UTF-8" standalone="no"?>
<!DOCTYPE svg PUBLIC "-//W3C//DTD SVG 1.1//EN"
 "http://www.w3.org/Graphics/SVG/1.1/DTD/svg11.dtd">
<!-- Generated by graphviz version 2.38.0 (20140413.2041)
 -->
<!-- Title: stringlib.cpp Pages: 1 -->
<!--zoomable 476 -->
<svg id="main" version="1.1" xmlns="http://www.w3.org/2000/svg" xmlns:xlink="http://www.w3.org/1999/xlink" xml:space="preserve" onload="init(evt)">
<style type="text/css"><![CDATA[
.edge:hover path { stroke: red; }
.edge:hover polygon { stroke: red; fill: red; }
]]></style>
<script type="text/javascript"><![CDATA[
var edges = document.getElementsByTagName('g');
if (edges && edges.length) {
  for (var i=0;i<edges.length;i++) {
    if (edges[i].id.substr(0,4)=='edge') {
      edges[i].setAttribute('class','edge');
    }
  }
}
]]></script>
        <defs>
                <circle id="rim" cx="0" cy="0" r="7"/>
                <circle id="rim2" cx="0" cy="0" r="3.5"/>
                <g id="zoomPlus">
                        <use xlink:href="#rim" fill="#404040">
                                <set attributeName="fill" to="#808080" begin="zoomplus.mouseover" end="zoomplus.mouseout"/>
                        </use>
                        <path d="M-4,0h8M0,-4v8" fill="none" stroke="white" stroke-width="1.5" pointer-events="none"/>
                </g>
                <g id="zoomMin">
                        <use xlink:href="#rim" fill="#404040">
                                <set attributeName="fill" to="#808080" begin="zoomminus.mouseover" end="zoomminus.mouseout"/>
                        </use>
                        <path d="M-4,0h8" fill="none" stroke="white" stroke-width="1.5" pointer-events="none"/>
                </g>
                <g id="dirArrow">
                        <path fill="none" stroke="white" stroke-width="1.5" d="M0,-3.0v7 M-2.5,-0.5L0,-3.0L2.5,-0.5"/>
                </g>
               <g id="resetDef">
                       <use xlink:href="#rim2" fill="#404040">
                               <set attributeName="fill" to="#808080" begin="reset.mouseover" end="reset.mouseout"/>
                       </use>
               </g>
        </defs>

<script type="text/javascript">
var viewWidth = 1496;
var viewHeight = 476;
var sectionId = 'dynsection-0';
</script>
<script xlink:href="svgpan.js"/>
<svg id="graph" class="graph">
<g id="viewport">
<title>stringlib.cpp</title>
<polygon fill="white" stroke="none" points="-4,4 -4,-472 1492,-472 1492,4 -4,4"/>
<!-- Node1 -->
<g id="node1" class="node"><title>Node1</title>
<polygon fill="#bfbfbf" stroke="black" points="824.5,-448.5 824.5,-467.5 893.5,-467.5 893.5,-448.5 824.5,-448.5"/>
<text text-anchor="middle" x="859" y="-455.5" font-family="Helvetica,sans-Serif" font-size="10.00">stringlib.cpp</text>
</g>
<!-- Node2 -->
<g id="node2" class="node"><title>Node2</title>
<g id="a_node2"><a xlink:href="stringlib_8h.html" target="_top" xlink:title="stringlib include file A library providing functions for handling various types of string...">
<polygon fill="white" stroke="black" points="589,-392.5 589,-411.5 683,-411.5 683,-392.5 589,-392.5"/>
<text text-anchor="middle" x="636" y="-399.5" font-family="Helvetica,sans-Serif" font-size="10.00">support/stringlib.h</text>
</a>
</g>
</g>
<!-- Node1&#45;&gt;Node2 -->
<g id="edge1" class="edge"><title>Node1&#45;&gt;Node2</title>
<path fill="none" stroke="midnightblue" d="M824.156,-448.562C785.598,-439.226 723.336,-424.149 681.088,-413.918"/>
<polygon fill="midnightblue" stroke="midnightblue" points="681.878,-410.508 671.335,-411.556 680.23,-417.312 681.878,-410.508"/>
</g>
<!-- Node35 -->
<g id="node35" class="node"><title>Node35</title>
<g id="a_node35"><a xlink:href="mathlib_8h.html" target="_top" xlink:title="mathlib include file ">
<polygon fill="white" stroke="black" points="1023.5,-392.5 1023.5,-411.5 1104.5,-411.5 1104.5,-392.5 1023.5,-392.5"/>
<text text-anchor="middle" x="1064" y="-399.5" font-family="Helvetica,sans-Serif" font-size="10.00">math/mathlib.h</text>
</a>
</g>
</g>
<!-- Node1&#45;&gt;Node35 -->
<g id="edge49" class="edge"><title>Node1&#45;&gt;Node35</title>
<path fill="none" stroke="midnightblue" d="M891.483,-448.444C926.72,-439.162 983.104,-424.309 1021.76,-414.127"/>
<polygon fill="midnightblue" stroke="midnightblue" points="1022.89,-417.448 1031.67,-411.516 1021.11,-410.679 1022.89,-417.448"/>
</g>
<!-- Node3 -->
<g id="node3" class="node"><title>Node3</title>
<g id="a_node3"><a xlink:href="config_cosmos_8h.html" target="_top" xlink:title="Headers and definitions common to all COSMOS. ">
<polygon fill="white" stroke="black" points="782.5,-112.5 782.5,-131.5 905.5,-131.5 905.5,-112.5 782.5,-112.5"/>
<text text-anchor="middle" x="844" y="-119.5" font-family="Helvetica,sans-Serif" font-size="10.00">support/configCosmos.h</text>
</a>
</g>
</g>
<!-- Node2&#45;&gt;Node3 -->
<g id="edge2" class="edge"><title>Node2&#45;&gt;Node3</title>
<path fill="none" stroke="midnightblue" d="M633.438,-392.249C628.251,-373.738 617,-329.179 617,-291 617,-291 617,-291 617,-233 617,-162.916 705.71,-137.469 772.219,-128.238"/>
<polygon fill="midnightblue" stroke="midnightblue" points="772.801,-131.692 782.271,-126.941 771.905,-124.75 772.801,-131.692"/>
</g>
<!-- Node18 -->
<g id="node18" class="node"><title>Node18</title>
<polygon fill="white" stroke="#bfbfbf" points="70.5,-56.5 70.5,-75.5 111.5,-75.5 111.5,-56.5 70.5,-56.5"/>
<text text-anchor="middle" x="91" y="-63.5" font-family="Helvetica,sans-Serif" font-size="10.00">string</text>
</g>
<!-- Node2&#45;&gt;Node18 -->
<g id="edge47" class="edge"><title>Node2&#45;&gt;Node18</title>
<path fill="none" stroke="midnightblue" d="M588.835,-392.621C536.702,-380.328 460,-351.895 460,-291 460,-291 460,-291 460,-177 460,-141.79 210.071,-90.0305 121.592,-72.8099"/>
<polygon fill="midnightblue" stroke="midnightblue" points="122.112,-69.3458 111.63,-70.8845 120.784,-76.2186 122.112,-69.3458"/>
</g>
<!-- Node25 -->
<g id="node25" class="node"><title>Node25</title>
<polygon fill="white" stroke="#bfbfbf" points="0,-56.5 0,-75.5 52,-75.5 52,-56.5 0,-56.5"/>
<text text-anchor="middle" x="26" y="-63.5" font-family="Helvetica,sans-Serif" font-size="10.00">sstream</text>
</g>
<!-- Node2&#45;&gt;Node25 -->
<g id="edge48" class="edge"><title>Node2&#45;&gt;Node25</title>
<path fill="none" stroke="midnightblue" d="M588.588,-399.441C472.795,-394.35 185,-373.407 185,-291 185,-291 185,-291 185,-177 185,-145.584 99.9916,-101.3 54.29,-79.7617"/>
<polygon fill="midnightblue" stroke="midnightblue" points="55.7224,-76.5679 45.1791,-75.5238 52.7701,-82.9149 55.7224,-76.5679"/>
</g>
<!-- Node29 -->
<g id="node29" class="node"><title>Node29</title>
<g id="a_node29"><a xlink:href="jsonobject_8h.html" target="_top" xlink:title="support/jsonobject.h">
<polygon fill="white" stroke="black" points="821,-336.5 821,-355.5 925,-355.5 925,-336.5 821,-336.5"/>
<text text-anchor="middle" x="873" y="-343.5" font-family="Helvetica,sans-Serif" font-size="10.00">support/jsonobject.h</text>
</a>
</g>
</g>
<!-- Node2&#45;&gt;Node29 -->
<g id="edge34" class="edge"><title>Node2&#45;&gt;Node29</title>
<path fill="none" stroke="midnightblue" d="M673.553,-392.444C714.811,-383.043 781.144,-367.929 825.866,-357.739"/>
<polygon fill="midnightblue" stroke="midnightblue" points="826.65,-361.151 835.622,-355.516 825.095,-354.326 826.65,-361.151"/>
</g>
<!-- Node34 -->
<g id="node34" class="node"><title>Node34</title>
<polygon fill="white" stroke="#bfbfbf" points="664.5,-280.5 664.5,-299.5 711.5,-299.5 711.5,-280.5 664.5,-280.5"/>
<text text-anchor="middle" x="688" y="-287.5" font-family="Helvetica,sans-Serif" font-size="10.00">errno.h</text>
</g>
<!-- Node2&#45;&gt;Node34 -->
<g id="edge46" class="edge"><title>Node2&#45;&gt;Node34</title>
<path fill="none" stroke="midnightblue" d="M640.08,-392.368C648.548,-374.456 668.182,-332.923 679.515,-308.948"/>
<polygon fill="midnightblue" stroke="midnightblue" points="682.829,-310.128 683.939,-299.591 676.5,-307.136 682.829,-310.128"/>
</g>
<!-- Node4 -->
<g id="node4" class="node"><title>Node4</title>
<polygon fill="white" stroke="#bfbfbf" points="378.5,-56.5 378.5,-75.5 423.5,-75.5 423.5,-56.5 378.5,-56.5"/>
<text text-anchor="middle" x="401" y="-63.5" font-family="Helvetica,sans-Serif" font-size="10.00">climits</text>
</g>
<!-- Node3&#45;&gt;Node4 -->
<g id="edge3" class="edge"><title>Node3&#45;&gt;Node4</title>
<path fill="none" stroke="midnightblue" d="M782.416,-117.622C703.485,-112.55 562.38,-100.984 433.612,-76.024"/>
<polygon fill="midnightblue" stroke="midnightblue" points="434.063,-72.5455 423.575,-74.0458 432.709,-79.4134 434.063,-72.5455"/>
</g>
<!-- Node5 -->
<g id="node5" class="node"><title>Node5</title>
<polygon fill="white" stroke="#bfbfbf" points="441.5,-56.5 441.5,-75.5 488.5,-75.5 488.5,-56.5 441.5,-56.5"/>
<text text-anchor="middle" x="465" y="-63.5" font-family="Helvetica,sans-Serif" font-size="10.00">csignal</text>
</g>
<!-- Node3&#45;&gt;Node5 -->
<g id="edge4" class="edge"><title>Node3&#45;&gt;Node5</title>
<path fill="none" stroke="midnightblue" d="M782.334,-115.552C714.912,-109.019 603.588,-96.5442 498.521,-75.8437"/>
<polygon fill="midnightblue" stroke="midnightblue" points="499.193,-72.4088 488.7,-73.8809 497.82,-79.273 499.193,-72.4088"/>
</g>
<!-- Node6 -->
<g id="node6" class="node"><title>Node6</title>
<polygon fill="white" stroke="#bfbfbf" points="1270,-56.5 1270,-75.5 1316,-75.5 1316,-56.5 1270,-56.5"/>
<text text-anchor="middle" x="1293" y="-63.5" font-family="Helvetica,sans-Serif" font-size="10.00">cstdint</text>
</g>
<!-- Node3&#45;&gt;Node6 -->
<g id="edge5" class="edge"><title>Node3&#45;&gt;Node6</title>
<path fill="none" stroke="midnightblue" d="M905.777,-116.767C986.668,-110.651 1132.69,-97.6379 1256,-76 1257.25,-75.7815 1258.51,-75.5454 1259.79,-75.2956"/>
<polygon fill="midnightblue" stroke="midnightblue" points="1260.57,-78.7068 1269.61,-73.1753 1259.1,-71.8644 1260.57,-78.7068"/>
</g>
<!-- Node7 -->
<g id="node7" class="node"><title>Node7</title>
<polygon fill="white" stroke="#bfbfbf" points="507,-56.5 507,-75.5 563,-75.5 563,-56.5 507,-56.5"/>
<text text-anchor="middle" x="535" y="-63.5" font-family="Helvetica,sans-Serif" font-size="10.00">cinttypes</text>
</g>
<!-- Node3&#45;&gt;Node7 -->
<g id="edge6" class="edge"><title>Node3&#45;&gt;Node7</title>
<path fill="none" stroke="midnightblue" d="M784.605,-112.48C731.61,-104.581 651.694,-91.9458 573.283,-76.1423"/>
<polygon fill="midnightblue" stroke="midnightblue" points="573.73,-72.6616 563.233,-74.0973 572.334,-79.521 573.73,-72.6616"/>
</g>
<!-- Node8 -->
<g id="node8" class="node"><title>Node8</title>
<polygon fill="white" stroke="#bfbfbf" points="581.5,-56.5 581.5,-75.5 624.5,-75.5 624.5,-56.5 581.5,-56.5"/>
<text text-anchor="middle" x="603" y="-63.5" font-family="Helvetica,sans-Serif" font-size="10.00">cstdio</text>
</g>
<!-- Node3&#45;&gt;Node8 -->
<g id="edge7" class="edge"><title>Node3&#45;&gt;Node8</title>
<path fill="none" stroke="midnightblue" d="M798.888,-112.483C758.175,-104.55 696.449,-91.9128 634.511,-76.2411"/>
<polygon fill="midnightblue" stroke="midnightblue" points="635.127,-72.786 624.571,-73.7 633.393,-79.5679 635.127,-72.786"/>
</g>
<!-- Node9 -->
<g id="node9" class="node"><title>Node9</title>
<polygon fill="white" stroke="#bfbfbf" points="642.5,-56.5 642.5,-75.5 691.5,-75.5 691.5,-56.5 642.5,-56.5"/>
<text text-anchor="middle" x="667" y="-63.5" font-family="Helvetica,sans-Serif" font-size="10.00">cstddef</text>
</g>
<!-- Node3&#45;&gt;Node9 -->
<g id="edge8" class="edge"><title>Node3&#45;&gt;Node9</title>
<path fill="none" stroke="midnightblue" d="M815.954,-112.444C784.946,-102.984 734.973,-87.7377 701.569,-77.5465"/>
<polygon fill="midnightblue" stroke="midnightblue" points="702.36,-74.1285 691.773,-74.558 700.317,-80.8238 702.36,-74.1285"/>
</g>
<!-- Node10 -->
<g id="node10" class="node"><title>Node10</title>
<polygon fill="white" stroke="#bfbfbf" points="709.5,-56.5 709.5,-75.5 754.5,-75.5 754.5,-56.5 709.5,-56.5"/>
<text text-anchor="middle" x="732" y="-63.5" font-family="Helvetica,sans-Serif" font-size="10.00">cstdlib</text>
</g>
<!-- Node3&#45;&gt;Node10 -->
<g id="edge9" class="edge"><title>Node3&#45;&gt;Node10</title>
<path fill="none" stroke="midnightblue" d="M826.005,-112.324C807.962,-103.625 779.953,-90.1202 759.197,-80.113"/>
<polygon fill="midnightblue" stroke="midnightblue" points="760.478,-76.8449 749.95,-75.6545 757.438,-83.1502 760.478,-76.8449"/>
</g>
<!-- Node11 -->
<g id="node11" class="node"><title>Node11</title>
<polygon fill="white" stroke="#bfbfbf" points="811,-56.5 811,-75.5 855,-75.5 855,-56.5 811,-56.5"/>
<text text-anchor="middle" x="833" y="-63.5" font-family="Helvetica,sans-Serif" font-size="10.00">cerrno</text>
</g>
<!-- Node3&#45;&gt;Node11 -->
<g id="edge10" class="edge"><title>Node3&#45;&gt;Node11</title>
<path fill="none" stroke="midnightblue" d="M842.184,-112.083C840.726,-104.927 838.629,-94.6353 836.807,-85.6911"/>
<polygon fill="midnightblue" stroke="midnightblue" points="840.208,-84.8512 834.783,-75.7511 833.349,-86.2485 840.208,-84.8512"/>
</g>
<!-- Node12 -->
<g id="node12" class="node"><title>Node12</title>
<polygon fill="white" stroke="#bfbfbf" points="873,-56.5 873,-75.5 919,-75.5 919,-56.5 873,-56.5"/>
<text text-anchor="middle" x="896" y="-63.5" font-family="Helvetica,sans-Serif" font-size="10.00">cstring</text>
</g>
<!-- Node3&#45;&gt;Node12 -->
<g id="edge11" class="edge"><title>Node3&#45;&gt;Node12</title>
<path fill="none" stroke="midnightblue" d="M852.587,-112.083C860.159,-104.22 871.378,-92.5688 880.514,-83.0813"/>
<polygon fill="midnightblue" stroke="midnightblue" points="883.158,-85.3821 887.573,-75.7511 878.115,-80.5266 883.158,-85.3821"/>
</g>
<!-- Node13 -->
<g id="node13" class="node"><title>Node13</title>
<polygon fill="white" stroke="#bfbfbf" points="1372,-56.5 1372,-75.5 1416,-75.5 1416,-56.5 1372,-56.5"/>
<text text-anchor="middle" x="1394" y="-63.5" font-family="Helvetica,sans-Serif" font-size="10.00">cmath</text>
</g>
<!-- Node3&#45;&gt;Node13 -->
<g id="edge12" class="edge"><title>Node3&#45;&gt;Node13</title>
<path fill="none" stroke="midnightblue" d="M905.576,-115.962C997.137,-108.306 1174.55,-92.8438 1325,-76 1337.04,-74.6519 1350.24,-72.9787 1361.84,-71.442"/>
<polygon fill="midnightblue" stroke="midnightblue" points="1362.52,-74.8823 1371.96,-70.0824 1361.58,-67.9446 1362.52,-74.8823"/>
</g>
<!-- Node14 -->
<g id="node14" class="node"><title>Node14</title>
<polygon fill="white" stroke="#bfbfbf" points="937.5,-56.5 937.5,-75.5 982.5,-75.5 982.5,-56.5 937.5,-56.5"/>
<text text-anchor="middle" x="960" y="-63.5" font-family="Helvetica,sans-Serif" font-size="10.00">iosfwd</text>
</g>
<!-- Node3&#45;&gt;Node14 -->
<g id="edge13" class="edge"><title>Node3&#45;&gt;Node14</title>
<path fill="none" stroke="midnightblue" d="M862.381,-112.444C881.216,-103.675 910.731,-89.9355 932.379,-79.8579"/>
<polygon fill="midnightblue" stroke="midnightblue" points="934.117,-82.9098 941.705,-75.5164 931.162,-76.5637 934.117,-82.9098"/>
</g>
<!-- Node15 -->
<g id="node15" class="node"><title>Node15</title>
<polygon fill="white" stroke="#bfbfbf" points="1434,-56.5 1434,-75.5 1488,-75.5 1488,-56.5 1434,-56.5"/>
<text text-anchor="middle" x="1461" y="-63.5" font-family="Helvetica,sans-Serif" font-size="10.00">iostream</text>
</g>
<!-- Node3&#45;&gt;Node15 -->
<g id="edge14" class="edge"><title>Node3&#45;&gt;Node15</title>
<path fill="none" stroke="midnightblue" d="M905.89,-119.608C1010.7,-116.508 1229.86,-106.815 1423.88,-75.9044"/>
<polygon fill="midnightblue" stroke="midnightblue" points="1424.66,-79.3234 1433.97,-74.2728 1423.54,-72.413 1424.66,-79.3234"/>
</g>
<!-- Node16 -->
<g id="node16" class="node"><title>Node16</title>
<polygon fill="white" stroke="#bfbfbf" points="1000.5,-56.5 1000.5,-75.5 1051.5,-75.5 1051.5,-56.5 1000.5,-56.5"/>
<text text-anchor="middle" x="1026" y="-63.5" font-family="Helvetica,sans-Serif" font-size="10.00">unistd.h</text>
</g>
<!-- Node3&#45;&gt;Node16 -->
<g id="edge15" class="edge"><title>Node3&#45;&gt;Node16</title>
<path fill="none" stroke="midnightblue" d="M872.838,-112.444C904.768,-102.97 956.255,-87.6935 990.604,-77.5022"/>
<polygon fill="midnightblue" stroke="midnightblue" points="991.648,-80.8433 1000.24,-74.6433 989.657,-74.1324 991.648,-80.8433"/>
</g>
<!-- Node17 -->
<g id="node17" class="node"><title>Node17</title>
<polygon fill="white" stroke="#bfbfbf" points="1070,-56.5 1070,-75.5 1114,-75.5 1114,-56.5 1070,-56.5"/>
<text text-anchor="middle" x="1092" y="-63.5" font-family="Helvetica,sans-Serif" font-size="10.00">fcntl.h</text>
</g>
<!-- Node3&#45;&gt;Node17 -->
<g id="edge16" class="edge"><title>Node3&#45;&gt;Node17</title>
<path fill="none" stroke="midnightblue" d="M890.378,-112.47C932.323,-104.512 995.971,-91.8326 1059.87,-76.1388"/>
<polygon fill="midnightblue" stroke="midnightblue" points="1060.84,-79.5029 1069.71,-73.6983 1059.16,-72.7087 1060.84,-79.5029"/>
</g>
<!-- Node3&#45;&gt;Node18 -->
<g id="edge17" class="edge"><title>Node3&#45;&gt;Node18</title>
<path fill="none" stroke="midnightblue" d="M782.102,-121.045C657.231,-120.274 366.549,-114.114 126,-76 124.528,-75.7668 123.028,-75.4994 121.518,-75.2062"/>
<polygon fill="midnightblue" stroke="midnightblue" points="122.115,-71.7533 111.592,-72.9846 120.586,-78.5843 122.115,-71.7533"/>
</g>
<!-- Node19 -->
<g id="node19" class="node"><title>Node19</title>
<polygon fill="white" stroke="#bfbfbf" points="1220,-0.5 1220,-19.5 1264,-19.5 1264,-0.5 1220,-0.5"/>
<text text-anchor="middle" x="1242" y="-7.5" font-family="Helvetica,sans-Serif" font-size="10.00">vector</text>
</g>
<!-- Node3&#45;&gt;Node19 -->
<g id="edge18" class="edge"><title>Node3&#45;&gt;Node19</title>
<path fill="none" stroke="midnightblue" d="M905.645,-121.669C1000.56,-121.414 1176.4,-115.432 1223,-76 1236.3,-64.7433 1240.57,-44.7323 1241.81,-29.8775"/>
<polygon fill="midnightblue" stroke="midnightblue" points="1245.31,-29.9001 1242.26,-19.7535 1238.32,-29.5868 1245.31,-29.9001"/>
</g>
<!-- Node20 -->
<g id="node20" class="node"><title>Node20</title>
<polygon fill="white" stroke="#bfbfbf" points="1170.5,-56.5 1170.5,-75.5 1213.5,-75.5 1213.5,-56.5 1170.5,-56.5"/>
<text text-anchor="middle" x="1192" y="-63.5" font-family="Helvetica,sans-Serif" font-size="10.00">deque</text>
</g>
<!-- Node3&#45;&gt;Node20 -->
<g id="edge19" class="edge"><title>Node3&#45;&gt;Node20</title>
<path fill="none" stroke="midnightblue" d="M905.585,-113.994C968.744,-106.371 1069.68,-92.9697 1156,-76 1157.46,-75.7126 1158.95,-75.4037 1160.46,-75.0796"/>
<polygon fill="midnightblue" stroke="midnightblue" points="1161.42,-78.4483 1170.38,-72.7843 1159.85,-71.6284 1161.42,-78.4483"/>
</g>
<!-- Node21 -->
<g id="node21" class="node"><title>Node21</title>
<polygon fill="white" stroke="#bfbfbf" points="564,-0.5 564,-19.5 608,-19.5 608,-0.5 564,-0.5"/>
<text text-anchor="middle" x="586" y="-7.5" font-family="Helvetica,sans-Serif" font-size="10.00">mutex</text>
</g>
<!-- Node3&#45;&gt;Node21 -->
<g id="edge20" class="edge"><title>Node3&#45;&gt;Node21</title>
<path fill="none" stroke="midnightblue" d="M835.875,-112.435C822.172,-98.498 793.012,-70.9668 763,-56 715.611,-32.3674 654.72,-20.4175 618.114,-14.9653"/>
<polygon fill="midnightblue" stroke="midnightblue" points="618.412,-11.4727 608.02,-13.5357 617.43,-18.4035 618.412,-11.4727"/>
</g>
<!-- Node22 -->
<g id="node22" class="node"><title>Node22</title>
<polygon fill="white" stroke="#bfbfbf" points="873,-0.5 873,-19.5 917,-19.5 917,-0.5 873,-0.5"/>
<text text-anchor="middle" x="895" y="-7.5" font-family="Helvetica,sans-Serif" font-size="10.00">thread</text>
</g>
<!-- Node3&#45;&gt;Node22 -->
<g id="edge21" class="edge"><title>Node3&#45;&gt;Node22</title>
<path fill="none" stroke="midnightblue" d="M905.567,-120.021C979.101,-117.395 1095.64,-108.124 1123,-76 1128.76,-69.2327 1128.64,-62.867 1123,-56 1098.63,-26.3516 984.572,-15.9176 927.581,-12.5134"/>
<polygon fill="midnightblue" stroke="midnightblue" points="927.492,-9.00311 917.313,-11.9396 927.102,-15.9922 927.492,-9.00311"/>
</g>
<!-- Node23 -->
<g id="node23" class="node"><title>Node23</title>
<polygon fill="white" stroke="#bfbfbf" points="92.5,-0.5 92.5,-19.5 187.5,-19.5 187.5,-0.5 92.5,-0.5"/>
<text text-anchor="middle" x="140" y="-7.5" font-family="Helvetica,sans-Serif" font-size="10.00">condition_variable</text>
</g>
<!-- Node3&#45;&gt;Node23 -->
<g id="edge22" class="edge"><title>Node3&#45;&gt;Node23</title>
<path fill="none" stroke="midnightblue" d="M782.42,-118.834C634.112,-113.301 265.532,-97.5462 214,-76 188.975,-65.5367 166.551,-43.0841 153.113,-27.5172"/>
<polygon fill="midnightblue" stroke="midnightblue" points="155.696,-25.1497 146.612,-19.6972 150.313,-29.6246 155.696,-25.1497"/>
</g>
<!-- Node24 -->
<g id="node24" class="node"><title>Node24</title>
<polygon fill="white" stroke="#bfbfbf" points="205.5,-0.5 205.5,-19.5 248.5,-19.5 248.5,-0.5 205.5,-0.5"/>
<text text-anchor="middle" x="227" y="-7.5" font-family="Helvetica,sans-Serif" font-size="10.00">queue</text>
</g>
<!-- Node3&#45;&gt;Node24 -->
<g id="edge23" class="edge"><title>Node3&#45;&gt;Node24</title>
<path fill="none" stroke="midnightblue" d="M782.426,-118.757C629.772,-112.9 244.771,-96.1877 226,-76 214.732,-63.8812 216.699,-44.3215 220.438,-29.8201"/>
<polygon fill="midnightblue" stroke="midnightblue" points="223.886,-30.5097 223.452,-19.9238 217.19,-28.4702 223.886,-30.5097"/>
</g>
<!-- Node3&#45;&gt;Node25 -->
<g id="edge24" class="edge"><title>Node3&#45;&gt;Node25</title>
<path fill="none" stroke="midnightblue" d="M782.407,-121.508C651.314,-121.716 335.064,-117.578 62.3493,-75.8983"/>
<polygon fill="midnightblue" stroke="midnightblue" points="62.677,-72.4074 52.2591,-74.3358 61.6057,-79.3249 62.677,-72.4074"/>
</g>
<!-- Node26 -->
<g id="node26" class="node"><title>Node26</title>
<polygon fill="white" stroke="#bfbfbf" points="266.5,-0.5 266.5,-19.5 301.5,-19.5 301.5,-0.5 266.5,-0.5"/>
<text text-anchor="middle" x="284" y="-7.5" font-family="Helvetica,sans-Serif" font-size="10.00">map</text>
</g>
<!-- Node3&#45;&gt;Node26 -->
<g id="edge25" class="edge"><title>Node3&#45;&gt;Node26</title>
<path fill="none" stroke="midnightblue" d="M782.494,-118.691C631.501,-112.725 253.455,-95.8687 235,-76 219.904,-59.7475 241.74,-38.9895 260.895,-25.3607"/>
<polygon fill="midnightblue" stroke="midnightblue" points="263.035,-28.1386 269.365,-19.6422 259.118,-22.3371 263.035,-28.1386"/>
</g>
<!-- Node27 -->
<g id="node27" class="node"><title>Node27</title>
<g id="a_node27"><a xlink:href="cosmos-defs_8h.html" target="_top" xlink:title="COSMOS definitions Definitions specific to the COSMOS environement. ">
<polygon fill="white" stroke="black" points="244,-56.5 244,-75.5 360,-75.5 360,-56.5 244,-56.5"/>
<text text-anchor="middle" x="302" y="-63.5" font-family="Helvetica,sans-Serif" font-size="10.00">support/cosmos&#45;defs.h</text>
</a>
</g>
</g>
<!-- Node3&#45;&gt;Node27 -->
<g id="edge26" class="edge"><title>Node3&#45;&gt;Node27</title>
<path fill="none" stroke="midnightblue" d="M782.432,-115.941C693.735,-108.481 524.6,-93.616 370.233,-76.1015"/>
<polygon fill="midnightblue" stroke="midnightblue" points="370.42,-72.6002 360.087,-74.9441 369.626,-79.5551 370.42,-72.6002"/>
</g>
<!-- Node27&#45;&gt;Node19 -->
<g id="edge28" class="edge"><title>Node27&#45;&gt;Node19</title>
<path fill="none" stroke="midnightblue" d="M360.072,-56.9028C363.089,-56.575 366.078,-56.2711 369,-56 696.187,-25.6437 1094.4,-14.4467 1209.45,-11.7148"/>
<polygon fill="midnightblue" stroke="midnightblue" points="1209.78,-15.2084 1219.69,-11.4765 1209.61,-8.21028 1209.78,-15.2084"/>
</g>
<!-- Node27&#45;&gt;Node21 -->
<g id="edge32" class="edge"><title>Node27&#45;&gt;Node21</title>
<path fill="none" stroke="midnightblue" d="M347.001,-56.4435C404.679,-45.4766 503.256,-26.7331 553.895,-17.1045"/>
<polygon fill="midnightblue" stroke="midnightblue" points="554.771,-20.5007 563.941,-15.1943 553.463,-13.6239 554.771,-20.5007"/>
</g>
<!-- Node27&#45;&gt;Node22 -->
<g id="edge31" class="edge"><title>Node27&#45;&gt;Node22</title>
<path fill="none" stroke="midnightblue" d="M360.084,-57.0235C363.098,-56.6642 366.083,-56.3205 369,-56 555.587,-35.4987 780.283,-18.9989 862.692,-13.2195"/>
<polygon fill="midnightblue" stroke="midnightblue" points="863.182,-16.6939 872.915,-12.5065 862.695,-9.71083 863.182,-16.6939"/>
</g>
<!-- Node27&#45;&gt;Node23 -->
<g id="edge33" class="edge"><title>Node27&#45;&gt;Node23</title>
<path fill="none" stroke="midnightblue" d="M276.331,-56.4435C249.077,-47.3591 205.816,-32.9388 175.349,-22.7831"/>
<polygon fill="midnightblue" stroke="midnightblue" points="176.143,-19.3584 165.549,-19.5164 173.929,-25.9992 176.143,-19.3584"/>
</g>
<!-- Node27&#45;&gt;Node24 -->
<g id="edge30" class="edge"><title>Node27&#45;&gt;Node24</title>
<path fill="none" stroke="midnightblue" d="M289.95,-56.324C278.537,-48.1066 261.169,-35.6017 247.565,-25.8069"/>
<polygon fill="midnightblue" stroke="midnightblue" points="249.43,-22.8366 239.269,-19.8339 245.34,-28.5174 249.43,-22.8366"/>
</g>
<!-- Node27&#45;&gt;Node26 -->
<g id="edge27" class="edge"><title>Node27&#45;&gt;Node26</title>
<path fill="none" stroke="midnightblue" d="M299.028,-56.083C296.616,-48.8486 293.136,-38.4087 290.132,-29.3968"/>
<polygon fill="midnightblue" stroke="midnightblue" points="293.4,-28.1311 286.917,-19.7511 286.759,-30.3447 293.4,-28.1311"/>
</g>
<!-- Node28 -->
<g id="node28" class="node"><title>Node28</title>
<polygon fill="white" stroke="#bfbfbf" points="319.5,-0.5 319.5,-19.5 348.5,-19.5 348.5,-0.5 319.5,-0.5"/>
<text text-anchor="middle" x="334" y="-7.5" font-family="Helvetica,sans-Serif" font-size="10.00">list</text>
</g>
<!-- Node27&#45;&gt;Node28 -->
<g id="edge29" class="edge"><title>Node27&#45;&gt;Node28</title>
<path fill="none" stroke="midnightblue" d="M307.284,-56.083C311.711,-48.6127 318.163,-37.7244 323.618,-28.5199"/>
<polygon fill="midnightblue" stroke="midnightblue" points="326.727,-30.1383 328.814,-19.7511 320.705,-26.5697 326.727,-30.1383"/>
</g>
<!-- Node30 -->
<g id="node30" class="node"><title>Node30</title>
<g id="a_node30"><a xlink:href="jsonvalue_8h.html" target="_top" xlink:title="support/jsonvalue.h">
<polygon fill="white" stroke="black" points="822.5,-280.5 822.5,-299.5 923.5,-299.5 923.5,-280.5 822.5,-280.5"/>
<text text-anchor="middle" x="873" y="-287.5" font-family="Helvetica,sans-Serif" font-size="10.00">support/jsonvalue.h</text>
</a>
</g>
</g>
<!-- Node29&#45;&gt;Node30 -->
<g id="edge35" class="edge"><title>Node29&#45;&gt;Node30</title>
<path fill="none" stroke="midnightblue" d="M873,-336.083C873,-329.006 873,-318.861 873,-309.986"/>
<polygon fill="midnightblue" stroke="midnightblue" points="876.5,-309.751 873,-299.751 869.5,-309.751 876.5,-309.751"/>
</g>
<!-- Node30&#45;&gt;Node3 -->
<g id="edge36" class="edge"><title>Node30&#45;&gt;Node3</title>
<path fill="none" stroke="midnightblue" d="M871.441,-280.075C866.876,-253.945 853.471,-177.211 847.245,-141.577"/>
<polygon fill="midnightblue" stroke="midnightblue" points="850.666,-140.817 845.497,-131.568 843.77,-142.021 850.666,-140.817"/>
</g>
<!-- Node31 -->
<g id="node31" class="node"><title>Node31</title>
<g id="a_node31"><a xlink:href="vector_8h.html" target="_top" xlink:title="math/vector.h">
<polygon fill="white" stroke="black" points="1105.5,-224.5 1105.5,-243.5 1182.5,-243.5 1182.5,-224.5 1105.5,-224.5"/>
<text text-anchor="middle" x="1144" y="-231.5" font-family="Helvetica,sans-Serif" font-size="10.00">math/vector.h</text>
</a>
</g>
</g>
<!-- Node30&#45;&gt;Node31 -->
<g id="edge37" class="edge"><title>Node30&#45;&gt;Node31</title>
<path fill="none" stroke="midnightblue" d="M915.941,-280.444C964.773,-270.713 1044.33,-254.861 1095.4,-244.685"/>
<polygon fill="midnightblue" stroke="midnightblue" points="1096.09,-248.116 1105.21,-242.729 1094.72,-241.251 1096.09,-248.116"/>
</g>
<!-- Node31&#45;&gt;Node3 -->
<g id="edge38" class="edge"><title>Node31&#45;&gt;Node3</title>
<path fill="none" stroke="midnightblue" d="M1137.33,-224.216C1125.99,-209.965 1101.49,-181.992 1074,-168 1024.68,-142.897 962.837,-131.766 915.705,-126.846"/>
<polygon fill="midnightblue" stroke="midnightblue" points="915.87,-123.346 905.578,-125.86 915.192,-130.313 915.87,-123.346"/>
</g>
<!-- Node31&#45;&gt;Node13 -->
<g id="edge44" class="edge"><title>Node31&#45;&gt;Node13</title>
<path fill="none" stroke="midnightblue" d="M1182.62,-232.919C1223.74,-230.913 1288.73,-222.011 1332,-188 1349.43,-174.3 1374.66,-115.553 1386.86,-85.2463"/>
<polygon fill="midnightblue" stroke="midnightblue" points="1390.16,-86.4188 1390.6,-75.8329 1383.66,-83.8357 1390.16,-86.4188"/>
</g>
<!-- Node31&#45;&gt;Node15 -->
<g id="edge42" class="edge"><title>Node31&#45;&gt;Node15</title>
<path fill="none" stroke="midnightblue" d="M1182.79,-231.77C1226.81,-228.829 1299.43,-219.179 1353,-188 1397.65,-162.014 1433.77,-111.127 1450.66,-84.3773"/>
<polygon fill="midnightblue" stroke="midnightblue" points="1453.73,-86.0573 1455.99,-75.7052 1447.77,-82.3917 1453.73,-86.0573"/>
</g>
<!-- Node31&#45;&gt;Node19 -->
<g id="edge45" class="edge"><title>Node31&#45;&gt;Node19</title>
<path fill="none" stroke="midnightblue" d="M1182.7,-227.309C1210.16,-221.516 1246.36,-210.098 1271,-188 1312.14,-151.105 1312.69,-129.873 1325,-76 1326.98,-67.3344 1329.55,-63.6378 1325,-56 1313.91,-37.3758 1292.13,-25.9852 1273.67,-19.3246"/>
<polygon fill="midnightblue" stroke="midnightblue" points="1274.71,-15.9818 1264.11,-16.1772 1272.51,-22.6304 1274.71,-15.9818"/>
</g>
<!-- Node32 -->
<g id="node32" class="node"><title>Node32</title>
<g id="a_node32"><a xlink:href="math_2constants_8h.html" target="_top" xlink:title="constants.h">
<polygon fill="white" stroke="black" points="1194,-168.5 1194,-187.5 1262,-187.5 1262,-168.5 1194,-168.5"/>
<text text-anchor="middle" x="1228" y="-175.5" font-family="Helvetica,sans-Serif" font-size="10.00">constants.h</text>
</a>
</g>
</g>
<!-- Node31&#45;&gt;Node32 -->
<g id="edge39" class="edge"><title>Node31&#45;&gt;Node32</title>
<path fill="none" stroke="midnightblue" d="M1157.5,-224.324C1170.6,-215.9 1190.71,-202.971 1206.11,-193.074"/>
<polygon fill="midnightblue" stroke="midnightblue" points="1208.02,-196.006 1214.54,-187.655 1204.23,-190.118 1208.02,-196.006"/>
</g>
<!-- Node33 -->
<g id="node33" class="node"><title>Node33</title>
<polygon fill="white" stroke="#bfbfbf" points="1126,-168.5 1126,-187.5 1176,-187.5 1176,-168.5 1126,-168.5"/>
<text text-anchor="middle" x="1151" y="-175.5" font-family="Helvetica,sans-Serif" font-size="10.00">iomanip</text>
</g>
<!-- Node31&#45;&gt;Node33 -->
<g id="edge43" class="edge"><title>Node31&#45;&gt;Node33</title>
<path fill="none" stroke="midnightblue" d="M1145.16,-224.083C1146.08,-216.927 1147.42,-206.635 1148.58,-197.691"/>
<polygon fill="midnightblue" stroke="midnightblue" points="1152.05,-198.118 1149.87,-187.751 1145.11,-197.218 1152.05,-198.118"/>
</g>
<!-- Node32&#45;&gt;Node3 -->
<g id="edge40" class="edge"><title>Node32&#45;&gt;Node3</title>
<path fill="none" stroke="midnightblue" d="M1193.78,-169.595C1190.81,-169.027 1187.86,-168.487 1185,-168 1092.47,-152.235 985.016,-138.865 915.844,-130.892"/>
<polygon fill="midnightblue" stroke="midnightblue" points="915.835,-127.368 905.501,-129.707 915.038,-134.322 915.835,-127.368"/>
</g>
<!-- Node32&#45;&gt;Node6 -->
<g id="edge41" class="edge"><title>Node32&#45;&gt;Node6</title>
<path fill="none" stroke="midnightblue" d="M1233.1,-168.368C1243.78,-150.296 1268.67,-108.176 1282.77,-84.3074"/>
<polygon fill="midnightblue" stroke="midnightblue" points="1285.85,-85.9813 1287.92,-75.5914 1279.82,-82.4201 1285.85,-85.9813"/>
</g>
<!-- Node35&#45;&gt;Node3 -->
<g id="edge50" class="edge"><title>Node35&#45;&gt;Node3</title>
<path fill="none" stroke="midnightblue" d="M1044.16,-392.391C1012.23,-377.043 953,-341.734 953,-291 953,-291 953,-291 953,-233 953,-187.119 904.563,-153.527 872.266,-136.228"/>
<polygon fill="midnightblue" stroke="midnightblue" points="873.73,-133.045 863.236,-131.585 870.529,-139.27 873.73,-133.045"/>
</g>
<!-- Node35&#45;&gt;Node13 -->
<g id="edge63" class="edge"><title>Node35&#45;&gt;Node13</title>
<path fill="none" stroke="midnightblue" d="M1104.79,-397.511C1200.6,-388.193 1432,-358.682 1432,-291 1432,-291 1432,-291 1432,-233 1432,-178.231 1412.1,-115.802 1401.1,-85.479"/>
<polygon fill="midnightblue" stroke="midnightblue" points="1404.28,-83.9808 1397.51,-75.8335 1397.72,-86.4262 1404.28,-83.9808"/>
</g>
<!-- Node35&#45;&gt;Node15 -->
<g id="edge64" class="edge"><title>Node35&#45;&gt;Node15</title>
<path fill="none" stroke="midnightblue" d="M1104.79,-398.633C1207.74,-391.548 1470,-366.127 1470,-291 1470,-291 1470,-291 1470,-177 1470,-144.841 1466.13,-107.569 1463.47,-85.7107"/>
<polygon fill="midnightblue" stroke="midnightblue" points="1466.91,-85.0183 1462.18,-75.5383 1459.96,-85.8993 1466.91,-85.0183"/>
</g>
<!-- Node35&#45;&gt;Node31 -->
<g id="edge55" class="edge"><title>Node35&#45;&gt;Node31</title>
<path fill="none" stroke="midnightblue" d="M1072.93,-392.437C1081.4,-383.89 1094,-370.039 1102,-356 1121.28,-322.152 1133.84,-277.971 1139.85,-253.447"/>
<polygon fill="midnightblue" stroke="midnightblue" points="1143.26,-254.206 1142.15,-243.67 1136.45,-252.602 1143.26,-254.206"/>
</g>
<!-- Node35&#45;&gt;Node32 -->
<g id="edge54" class="edge"><title>Node35&#45;&gt;Node32</title>
<path fill="none" stroke="midnightblue" d="M1077.27,-392.452C1089.54,-384.122 1107.83,-370.607 1121,-356 1167.2,-304.765 1204.32,-230.74 1219.97,-196.99"/>
<polygon fill="midnightblue" stroke="midnightblue" points="1223.16,-198.43 1224.12,-187.879 1216.79,-195.526 1223.16,-198.43"/>
</g>
<!-- Node36 -->
<g id="node36" class="node"><title>Node36</title>
<g id="a_node36"><a xlink:href="cosmos-errno_8h.html" target="_top" xlink:title="COSMOS Error Codes. ">
<polygon fill="white" stroke="black" points="683.5,-336.5 683.5,-355.5 802.5,-355.5 802.5,-336.5 683.5,-336.5"/>
<text text-anchor="middle" x="743" y="-343.5" font-family="Helvetica,sans-Serif" font-size="10.00">support/cosmos&#45;errno.h</text>
</a>
</g>
</g>
<!-- Node35&#45;&gt;Node36 -->
<g id="edge51" class="edge"><title>Node35&#45;&gt;Node36</title>
<path fill="none" stroke="midnightblue" d="M1023.35,-394.161C967.858,-384.827 867.97,-368.023 803.625,-357.199"/>
<polygon fill="midnightblue" stroke="midnightblue" points="804.058,-353.722 793.616,-355.515 802.897,-360.625 804.058,-353.722"/>
</g>
<!-- Node37 -->
<g id="node37" class="node"><title>Node37</title>
<g id="a_node37"><a xlink:href="matrix_8h.html" target="_top" xlink:title="matrix.h">
<polygon fill="white" stroke="black" points="981,-280.5 981,-299.5 1033,-299.5 1033,-280.5 981,-280.5"/>
<text text-anchor="middle" x="1007" y="-287.5" font-family="Helvetica,sans-Serif" font-size="10.00">matrix.h</text>
</a>
</g>
</g>
<!-- Node35&#45;&gt;Node37 -->
<g id="edge56" class="edge"><title>Node35&#45;&gt;Node37</title>
<path fill="none" stroke="midnightblue" d="M1055.21,-392.453C1046.89,-383.918 1034.57,-370.075 1027,-356 1019.14,-341.376 1013.88,-323.205 1010.73,-309.796"/>
<polygon fill="midnightblue" stroke="midnightblue" points="1014.11,-308.87 1008.58,-299.836 1007.27,-310.349 1014.11,-308.87"/>
</g>
<!-- Node38 -->
<g id="node38" class="node"><title>Node38</title>
<g id="a_node38"><a xlink:href="rotation_8h.html" target="_top" xlink:title="rotation.h">
<polygon fill="white" stroke="black" points="1035.5,-336.5 1035.5,-355.5 1092.5,-355.5 1092.5,-336.5 1035.5,-336.5"/>
<text text-anchor="middle" x="1064" y="-343.5" font-family="Helvetica,sans-Serif" font-size="10.00">rotation.h</text>
</a>
</g>
</g>
<!-- Node35&#45;&gt;Node38 -->
<g id="edge59" class="edge"><title>Node35&#45;&gt;Node38</title>
<path fill="none" stroke="midnightblue" d="M1064,-392.083C1064,-385.006 1064,-374.861 1064,-365.986"/>
<polygon fill="midnightblue" stroke="midnightblue" points="1067.5,-365.751 1064,-355.751 1060.5,-365.751 1067.5,-365.751"/>
</g>
<!-- Node36&#45;&gt;Node3 -->
<g id="edge52" class="edge"><title>Node36&#45;&gt;Node3</title>
<path fill="none" stroke="midnightblue" d="M746.959,-336.297C761.915,-303.425 815.16,-186.391 835.77,-141.09"/>
<polygon fill="midnightblue" stroke="midnightblue" points="839.003,-142.435 839.958,-131.884 832.631,-139.537 839.003,-142.435"/>
</g>
<!-- Node36&#45;&gt;Node34 -->
<g id="edge53" class="edge"><title>Node36&#45;&gt;Node34</title>
<path fill="none" stroke="midnightblue" d="M733.918,-336.083C725.829,-328.141 713.805,-316.335 704.09,-306.797"/>
<polygon fill="midnightblue" stroke="midnightblue" points="706.501,-304.26 696.913,-299.751 701.597,-309.254 706.501,-304.26"/>
</g>
<!-- Node37&#45;&gt;Node3 -->
<g id="edge57" class="edge"><title>Node37&#45;&gt;Node3</title>
<path fill="none" stroke="midnightblue" d="M1006.63,-280.385C1005.23,-258.569 998.563,-200.572 967,-168 951.014,-151.503 928.489,-141.018 907.077,-134.37"/>
<polygon fill="midnightblue" stroke="midnightblue" points="907.921,-130.971 897.344,-131.577 905.991,-137.7 907.921,-130.971"/>
</g>
<!-- Node37&#45;&gt;Node31 -->
<g id="edge58" class="edge"><title>Node37&#45;&gt;Node31</title>
<path fill="none" stroke="midnightblue" d="M1028.71,-280.444C1051.35,-271.517 1087.07,-257.439 1112.75,-247.317"/>
<polygon fill="midnightblue" stroke="midnightblue" points="1114.37,-250.44 1122.39,-243.516 1111.81,-243.927 1114.37,-250.44"/>
</g>
<!-- Node38&#45;&gt;Node3 -->
<g id="edge60" class="edge"><title>Node38&#45;&gt;Node3</title>
<path fill="none" stroke="midnightblue" d="M1062.96,-336.45C1059.04,-307.895 1042.42,-214.988 988,-168 967.785,-150.547 940.829,-139.858 915.708,-133.314"/>
<polygon fill="midnightblue" stroke="midnightblue" points="916.364,-129.871 905.822,-130.921 914.717,-136.675 916.364,-129.871"/>
</g>
<!-- Node38&#45;&gt;Node31 -->
<g id="edge61" class="edge"><title>Node38&#45;&gt;Node31</title>
<path fill="none" stroke="midnightblue" d="M1070.28,-336.368C1083.48,-318.215 1114.33,-275.802 1131.64,-251.99"/>
<polygon fill="midnightblue" stroke="midnightblue" points="1134.7,-253.737 1137.75,-243.591 1129.04,-249.62 1134.7,-253.737"/>
</g>
<!-- Node38&#45;&gt;Node37 -->
<g id="edge62" class="edge"><title>Node38&#45;&gt;Node37</title>
<path fill="none" stroke="midnightblue" d="M1054.84,-336.324C1046.5,-328.42 1033.97,-316.548 1023.82,-306.938"/>
<polygon fill="midnightblue" stroke="midnightblue" points="1025.99,-304.171 1016.32,-299.834 1021.18,-309.252 1025.99,-304.171"/>
</g>
</g>
</svg>
        <g id="navigator" transform="translate(0 0)" fill="#404254">
                <rect fill="#f2f5e9" fill-opacity="0.5" stroke="#606060" stroke-width=".5" x="0" y="0" width="60" height="60"/>
                <use id="zoomplus" xlink:href="#zoomPlus" x="17" y="9" onmousedown="handleZoom(evt,'in')"/>
                <use id="zoomminus" xlink:href="#zoomMin" x="42" y="9" onmousedown="handleZoom(evt,'out')"/>
                <use id="reset" xlink:href="#resetDef" x="30" y="36" onmousedown="handleReset()"/>
                <g id="arrowUp" xlink:href="#dirArrow" transform="translate(30 24)" onmousedown="handlePan(0,-1)">
                  <use xlink:href="#rim" fill="#404040">
                        <set attributeName="fill" to="#808080" begin="arrowUp.mouseover" end="arrowUp.mouseout"/>
                  </use>
                  <path fill="none" stroke="white" stroke-width="1.5" d="M0,-3.0v7 M-2.5,-0.5L0,-3.0L2.5,-0.5"/>
                </g>
                <g id="arrowRight" xlink:href="#dirArrow" transform="rotate(90) translate(36 -43)" onmousedown="handlePan(1,0)">
                  <use xlink:href="#rim" fill="#404040">
                        <set attributeName="fill" to="#808080" begin="arrowRight.mouseover" end="arrowRight.mouseout"/>
                  </use>
                  <path fill="none" stroke="white" stroke-width="1.5" d="M0,-3.0v7 M-2.5,-0.5L0,-3.0L2.5,-0.5"/>
                </g>
                <g id="arrowDown" xlink:href="#dirArrow" transform="rotate(180) translate(-30 -48)" onmousedown="handlePan(0,1)">
                  <use xlink:href="#rim" fill="#404040">
                        <set attributeName="fill" to="#808080" begin="arrowDown.mouseover" end="arrowDown.mouseout"/>
                  </use>
                  <path fill="none" stroke="white" stroke-width="1.5" d="M0,-3.0v7 M-2.5,-0.5L0,-3.0L2.5,-0.5"/>
                </g>
                <g id="arrowLeft" xlink:href="#dirArrow" transform="rotate(270) translate(-36 17)" onmousedown="handlePan(-1,0)">
                  <use xlink:href="#rim" fill="#404040">
                        <set attributeName="fill" to="#808080" begin="arrowLeft.mouseover" end="arrowLeft.mouseout"/>
                  </use>
                  <path fill="none" stroke="white" stroke-width="1.5" d="M0,-3.0v7 M-2.5,-0.5L0,-3.0L2.5,-0.5"/>
                </g>
        </g>
        <svg viewBox="0 0 15 15" width="100%" height="30px" preserveAspectRatio="xMaxYMin meet">
         <g id="arrow_out" transform="scale(0.3 0.3)">
          <a xlink:href="stringlib_8cpp__incl_org.svg" target="_base">
           <rect id="button" ry="5" rx="5" y="6" x="6" height="38" width="38"
                fill="#f2f5e9" fill-opacity="0.5" stroke="#606060" stroke-width="1.0"/>
           <path id="arrow"
             d="M 11.500037,31.436501 C 11.940474,20.09759 22.043105,11.32322 32.158766,21.979434 L 37.068811,17.246167 C 37.068811,17.246167 37.088388,32 37.088388,32 L 22.160133,31.978069 C 22.160133,31.978069 26.997745,27.140456 26.997745,27.140456 C 18.528582,18.264221 13.291696,25.230495 11.500037,31.436501 z"
             style="fill:#404040;"/>
          </a>
         </g>
        </svg>
</svg>
