<?xml version="1.0" encoding="UTF-8" standalone="no"?>
<!DOCTYPE svg PUBLIC "-//W3C//DTD SVG 1.1//EN"
 "http://www.w3.org/Graphics/SVG/1.1/DTD/svg11.dtd">
<!-- Generated by graphviz version 2.38.0 (20140413.2041)
 -->
<!-- Title: sttstruc Pages: 1 -->
<svg width="228pt" height="485pt"
 viewBox="0.00 0.00 227.50 485.00" xmlns="http://www.w3.org/2000/svg" xmlns:xlink="http://www.w3.org/1999/xlink">
<g id="graph0" class="graph" transform="scale(1 1) rotate(0) translate(4 481)">
<title>sttstruc</title>
<polygon fill="white" stroke="none" points="-4,4 -4,-481 223.5,-481 223.5,4 -4,4"/>
<!-- Node1 -->
<g id="node1" class="node"><title>Node1</title>
<polygon fill="#bfbfbf" stroke="black" points="94,-0.5 94,-68.5 152,-68.5 152,-0.5 94,-0.5"/>
<text text-anchor="middle" x="123" y="-56.5" font-family="Helvetica,sans-Serif" font-size="10.00">sttstruc</text>
<polyline fill="none" stroke="black" points="94,-49.5 152,-49.5 "/>
<text text-anchor="start" x="102" y="-37.5" font-family="Helvetica,sans-Serif" font-size="10.00">+ retcode</text>
<text text-anchor="start" x="102" y="-26.5" font-family="Helvetica,sans-Serif" font-size="10.00">+ status</text>
<polyline fill="none" stroke="black" points="94,-19.5 152,-19.5 "/>
<text text-anchor="middle" x="123" y="-7.5" font-family="Helvetica,sans-Serif" font-size="10.00"> </text>
</g>
<!-- Node2 -->
<g id="node2" class="node"><title>Node2</title>
<g id="a_node2"><a xlink:href="structallstruc.html" target="_top" xlink:title="All Component structure. ">
<polygon fill="white" stroke="black" points="0,-127.5 0,-294.5 74,-294.5 74,-127.5 0,-127.5"/>
<text text-anchor="middle" x="37" y="-282.5" font-family="Helvetica,sans-Serif" font-size="10.00">allstruc</text>
<polyline fill="none" stroke="black" points="0,-275.5 74,-275.5 "/>
<text text-anchor="start" x="8" y="-263.5" font-family="Helvetica,sans-Serif" font-size="10.00">+ enabled</text>
<text text-anchor="start" x="8" y="-252.5" font-family="Helvetica,sans-Serif" font-size="10.00">+ type</text>
<text text-anchor="start" x="8" y="-241.5" font-family="Helvetica,sans-Serif" font-size="10.00">+ model</text>
<text text-anchor="start" x="8" y="-230.5" font-family="Helvetica,sans-Serif" font-size="10.00">+ flag</text>
<text text-anchor="start" x="8" y="-219.5" font-family="Helvetica,sans-Serif" font-size="10.00">+ addr</text>
<text text-anchor="start" x="8" y="-208.5" font-family="Helvetica,sans-Serif" font-size="10.00">+ cidx</text>
<text text-anchor="start" x="8" y="-197.5" font-family="Helvetica,sans-Serif" font-size="10.00">+ didx</text>
<text text-anchor="start" x="8" y="-186.5" font-family="Helvetica,sans-Serif" font-size="10.00">+ pidx</text>
<text text-anchor="start" x="8" y="-175.5" font-family="Helvetica,sans-Serif" font-size="10.00">+ bidx</text>
<text text-anchor="start" x="8" y="-164.5" font-family="Helvetica,sans-Serif" font-size="10.00">+ portidx</text>
<text text-anchor="start" x="8" y="-153.5" font-family="Helvetica,sans-Serif" font-size="10.00">and 9 more...</text>
<polyline fill="none" stroke="black" points="0,-146.5 74,-146.5 "/>
<text text-anchor="middle" x="37" y="-134.5" font-family="Helvetica,sans-Serif" font-size="10.00"> </text>
</a>
</g>
</g>
<!-- Node2&#45;&gt;Node1 -->
<g id="edge1" class="edge"><title>Node2&#45;&gt;Node1</title>
<path fill="none" stroke="midnightblue" d="M78.6461,-125.497C88.5812,-105.338 98.6127,-84.9835 106.616,-68.7433"/>
<polygon fill="none" stroke="midnightblue" points="75.377,-124.213 74.0957,-134.73 81.6559,-127.308 75.377,-124.213"/>
</g>
<!-- Node3 -->
<g id="node3" class="node"><title>Node3</title>
<g id="a_node3"><a xlink:href="structquaternion.html" target="_top" xlink:title="Quaternion, scalar last, using x, y, z. ">
<polygon fill="white" stroke="black" points="92,-182.5 92,-239.5 154,-239.5 154,-182.5 92,-182.5"/>
<text text-anchor="middle" x="123" y="-227.5" font-family="Helvetica,sans-Serif" font-size="10.00">quaternion</text>
<polyline fill="none" stroke="black" points="92,-220.5 154,-220.5 "/>
<text text-anchor="start" x="100" y="-208.5" font-family="Helvetica,sans-Serif" font-size="10.00">+ w</text>
<polyline fill="none" stroke="black" points="92,-201.5 154,-201.5 "/>
<text text-anchor="middle" x="123" y="-189.5" font-family="Helvetica,sans-Serif" font-size="10.00"> </text>
</a>
</g>
</g>
<!-- Node3&#45;&gt;Node1 -->
<g id="edge2" class="edge"><title>Node3&#45;&gt;Node1</title>
<path fill="none" stroke="#404040" d="M123,-182.35C123,-155.116 123,-113.043 123,-80.8997"/>
<polygon fill="none" stroke="#404040" points="123,-80.6822 119,-74.6823 123,-68.6822 127,-74.6822 123,-80.6822"/>
<text text-anchor="middle" x="136.5" y="-101" font-family="Helvetica,sans-Serif" font-size="10.00"> +att</text>
<text text-anchor="middle" x="136.5" y="-90" font-family="Helvetica,sans-Serif" font-size="10.00">+align</text>
</g>
<!-- Node4 -->
<g id="node4" class="node"><title>Node4</title>
<g id="a_node4"><a xlink:href="classcvector.html" target="_top" xlink:title="3 element cartesian vector ">
<polygon fill="white" stroke="black" points="83.5,-342.5 83.5,-476.5 162.5,-476.5 162.5,-342.5 83.5,-342.5"/>
<text text-anchor="middle" x="123" y="-464.5" font-family="Helvetica,sans-Serif" font-size="10.00">cvector</text>
<polyline fill="none" stroke="black" points="83.5,-457.5 162.5,-457.5 "/>
<text text-anchor="start" x="91.5" y="-445.5" font-family="Helvetica,sans-Serif" font-size="10.00">+ x</text>
<text text-anchor="start" x="91.5" y="-434.5" font-family="Helvetica,sans-Serif" font-size="10.00">+ y</text>
<text text-anchor="start" x="91.5" y="-423.5" font-family="Helvetica,sans-Serif" font-size="10.00">+ z</text>
<polyline fill="none" stroke="black" points="83.5,-416.5 162.5,-416.5 "/>
<text text-anchor="start" x="91.5" y="-404.5" font-family="Helvetica,sans-Serif" font-size="10.00">+ normalize()</text>
<text text-anchor="start" x="91.5" y="-393.5" font-family="Helvetica,sans-Serif" font-size="10.00">+ length()</text>
<text text-anchor="start" x="91.5" y="-382.5" font-family="Helvetica,sans-Serif" font-size="10.00">+ norm()</text>
<text text-anchor="start" x="91.5" y="-371.5" font-family="Helvetica,sans-Serif" font-size="10.00">+ norm2()</text>
<text text-anchor="start" x="91.5" y="-360.5" font-family="Helvetica,sans-Serif" font-size="10.00">+ normalized()</text>
<text text-anchor="start" x="91.5" y="-349.5" font-family="Helvetica,sans-Serif" font-size="10.00">+ operator[]()</text>
</a>
</g>
</g>
<!-- Node4&#45;&gt;Node3 -->
<g id="edge3" class="edge"><title>Node4&#45;&gt;Node3</title>
<path fill="none" stroke="#404040" d="M123,-342.248C123,-312.319 123,-277.943 123,-252.025"/>
<polygon fill="none" stroke="#404040" points="123,-251.674 119,-245.674 123,-239.674 127,-245.674 123,-251.674"/>
<text text-anchor="middle" x="130.5" y="-316" font-family="Helvetica,sans-Serif" font-size="10.00"> +d</text>
</g>
<!-- Node5 -->
<g id="node5" class="node"><title>Node5</title>
<g id="a_node5"><a xlink:href="structrvector.html" target="_top" xlink:title="3 element generic row vector ">
<polygon fill="white" stroke="black" points="172.5,-182.5 172.5,-239.5 219.5,-239.5 219.5,-182.5 172.5,-182.5"/>
<text text-anchor="middle" x="196" y="-227.5" font-family="Helvetica,sans-Serif" font-size="10.00">rvector</text>
<polyline fill="none" stroke="black" points="172.5,-220.5 219.5,-220.5 "/>
<text text-anchor="start" x="180.5" y="-208.5" font-family="Helvetica,sans-Serif" font-size="10.00">+ col</text>
<polyline fill="none" stroke="black" points="172.5,-201.5 219.5,-201.5 "/>
<text text-anchor="middle" x="196" y="-189.5" font-family="Helvetica,sans-Serif" font-size="10.00"> </text>
</a>
</g>
</g>
<!-- Node5&#45;&gt;Node1 -->
<g id="edge4" class="edge"><title>Node5&#45;&gt;Node1</title>
<path fill="none" stroke="#404040" d="M188.435,-182.479C181.038,-157.113 168.753,-118.712 154,-87 152.811,-84.4453 151.529,-81.8566 150.185,-79.2695"/>
<polygon fill="none" stroke="#404040" points="150.176,-79.2536 143.783,-75.9187 144.402,-68.7342 150.796,-72.0691 150.176,-79.2536"/>
<text text-anchor="middle" x="181" y="-101" font-family="Helvetica,sans-Serif" font-size="10.00"> +alpha</text>
<text text-anchor="middle" x="181" y="-90" font-family="Helvetica,sans-Serif" font-size="10.00">+omega</text>
</g>
</g>
</svg>
