<?xml version="1.0" encoding="UTF-8" standalone="no"?>
<!DOCTYPE svg PUBLIC "-//W3C//DTD SVG 1.1//EN"
 "http://www.w3.org/Graphics/SVG/1.1/DTD/svg11.dtd">
<!-- Generated by graphviz version 2.38.0 (20140413.2041)
 -->
<!-- Title: mtrstruc Pages: 1 -->
<svg width="171pt" height="518pt"
 viewBox="0.00 0.00 170.50 518.00" xmlns="http://www.w3.org/2000/svg" xmlns:xlink="http://www.w3.org/1999/xlink">
<g id="graph0" class="graph" transform="scale(1 1) rotate(0) translate(4 514)">
<title>mtrstruc</title>
<polygon fill="white" stroke="none" points="-4,4 -4,-514 166.5,-514 166.5,4 -4,4"/>
<!-- Node1 -->
<g id="node1" class="node"><title>Node1</title>
<polygon fill="#bfbfbf" stroke="black" points="35.5,-0.5 35.5,-112.5 96.5,-112.5 96.5,-0.5 35.5,-0.5"/>
<text text-anchor="middle" x="66" y="-100.5" font-family="Helvetica,sans-Serif" font-size="10.00">mtrstruc</text>
<polyline fill="none" stroke="black" points="35.5,-93.5 96.5,-93.5 "/>
<text text-anchor="start" x="43.5" y="-81.5" font-family="Helvetica,sans-Serif" font-size="10.00">+ npoly</text>
<text text-anchor="start" x="43.5" y="-70.5" font-family="Helvetica,sans-Serif" font-size="10.00">+ ppoly</text>
<text text-anchor="start" x="43.5" y="-59.5" font-family="Helvetica,sans-Serif" font-size="10.00">+ mxmom</text>
<text text-anchor="start" x="43.5" y="-48.5" font-family="Helvetica,sans-Serif" font-size="10.00">+ tc</text>
<text text-anchor="start" x="43.5" y="-37.5" font-family="Helvetica,sans-Serif" font-size="10.00">+ rmom</text>
<text text-anchor="start" x="43.5" y="-26.5" font-family="Helvetica,sans-Serif" font-size="10.00">+ mom</text>
<polyline fill="none" stroke="black" points="35.5,-19.5 96.5,-19.5 "/>
<text text-anchor="middle" x="66" y="-7.5" font-family="Helvetica,sans-Serif" font-size="10.00"> </text>
</g>
<!-- Node2 -->
<g id="node2" class="node"><title>Node2</title>
<g id="a_node2"><a xlink:href="structallstruc.html" target="_top" xlink:title="All Component structure. ">
<polygon fill="white" stroke="black" points="0,-160.5 0,-327.5 74,-327.5 74,-160.5 0,-160.5"/>
<text text-anchor="middle" x="37" y="-315.5" font-family="Helvetica,sans-Serif" font-size="10.00">allstruc</text>
<polyline fill="none" stroke="black" points="0,-308.5 74,-308.5 "/>
<text text-anchor="start" x="8" y="-296.5" font-family="Helvetica,sans-Serif" font-size="10.00">+ enabled</text>
<text text-anchor="start" x="8" y="-285.5" font-family="Helvetica,sans-Serif" font-size="10.00">+ type</text>
<text text-anchor="start" x="8" y="-274.5" font-family="Helvetica,sans-Serif" font-size="10.00">+ model</text>
<text text-anchor="start" x="8" y="-263.5" font-family="Helvetica,sans-Serif" font-size="10.00">+ flag</text>
<text text-anchor="start" x="8" y="-252.5" font-family="Helvetica,sans-Serif" font-size="10.00">+ addr</text>
<text text-anchor="start" x="8" y="-241.5" font-family="Helvetica,sans-Serif" font-size="10.00">+ cidx</text>
<text text-anchor="start" x="8" y="-230.5" font-family="Helvetica,sans-Serif" font-size="10.00">+ didx</text>
<text text-anchor="start" x="8" y="-219.5" font-family="Helvetica,sans-Serif" font-size="10.00">+ pidx</text>
<text text-anchor="start" x="8" y="-208.5" font-family="Helvetica,sans-Serif" font-size="10.00">+ bidx</text>
<text text-anchor="start" x="8" y="-197.5" font-family="Helvetica,sans-Serif" font-size="10.00">+ portidx</text>
<text text-anchor="start" x="8" y="-186.5" font-family="Helvetica,sans-Serif" font-size="10.00">and 9 more...</text>
<polyline fill="none" stroke="black" points="0,-179.5 74,-179.5 "/>
<text text-anchor="middle" x="37" y="-167.5" font-family="Helvetica,sans-Serif" font-size="10.00"> </text>
</a>
</g>
</g>
<!-- Node2&#45;&gt;Node1 -->
<g id="edge1" class="edge"><title>Node2&#45;&gt;Node1</title>
<path fill="none" stroke="midnightblue" d="M51.5328,-150.04C53.5336,-137.242 55.5335,-124.449 57.3802,-112.637"/>
<polygon fill="none" stroke="midnightblue" points="48.0176,-149.866 49.931,-160.286 54.9336,-150.947 48.0176,-149.866"/>
</g>
<!-- Node3 -->
<g id="node3" class="node"><title>Node3</title>
<g id="a_node3"><a xlink:href="structquaternion.html" target="_top" xlink:title="Quaternion, scalar last, using x, y, z. ">
<polygon fill="white" stroke="black" points="92,-215.5 92,-272.5 154,-272.5 154,-215.5 92,-215.5"/>
<text text-anchor="middle" x="123" y="-260.5" font-family="Helvetica,sans-Serif" font-size="10.00">quaternion</text>
<polyline fill="none" stroke="black" points="92,-253.5 154,-253.5 "/>
<text text-anchor="start" x="100" y="-241.5" font-family="Helvetica,sans-Serif" font-size="10.00">+ w</text>
<polyline fill="none" stroke="black" points="92,-234.5 154,-234.5 "/>
<text text-anchor="middle" x="123" y="-222.5" font-family="Helvetica,sans-Serif" font-size="10.00"> </text>
</a>
</g>
</g>
<!-- Node3&#45;&gt;Node1 -->
<g id="edge2" class="edge"><title>Node3&#45;&gt;Node1</title>
<path fill="none" stroke="#404040" d="M114.467,-215.229C107.114,-191.3 96.1977,-155.775 86.5859,-124.495"/>
<polygon fill="none" stroke="#404040" points="86.5009,-124.218 80.915,-119.657 82.9762,-112.747 88.5621,-117.307 86.5009,-124.218"/>
<text text-anchor="middle" x="106" y="-134" font-family="Helvetica,sans-Serif" font-size="10.00"> +align</text>
</g>
<!-- Node4 -->
<g id="node4" class="node"><title>Node4</title>
<g id="a_node4"><a xlink:href="classcvector.html" target="_top" xlink:title="3 element cartesian vector ">
<polygon fill="white" stroke="black" points="83.5,-375.5 83.5,-509.5 162.5,-509.5 162.5,-375.5 83.5,-375.5"/>
<text text-anchor="middle" x="123" y="-497.5" font-family="Helvetica,sans-Serif" font-size="10.00">cvector</text>
<polyline fill="none" stroke="black" points="83.5,-490.5 162.5,-490.5 "/>
<text text-anchor="start" x="91.5" y="-478.5" font-family="Helvetica,sans-Serif" font-size="10.00">+ x</text>
<text text-anchor="start" x="91.5" y="-467.5" font-family="Helvetica,sans-Serif" font-size="10.00">+ y</text>
<text text-anchor="start" x="91.5" y="-456.5" font-family="Helvetica,sans-Serif" font-size="10.00">+ z</text>
<polyline fill="none" stroke="black" points="83.5,-449.5 162.5,-449.5 "/>
<text text-anchor="start" x="91.5" y="-437.5" font-family="Helvetica,sans-Serif" font-size="10.00">+ normalize()</text>
<text text-anchor="start" x="91.5" y="-426.5" font-family="Helvetica,sans-Serif" font-size="10.00">+ length()</text>
<text text-anchor="start" x="91.5" y="-415.5" font-family="Helvetica,sans-Serif" font-size="10.00">+ norm()</text>
<text text-anchor="start" x="91.5" y="-404.5" font-family="Helvetica,sans-Serif" font-size="10.00">+ norm2()</text>
<text text-anchor="start" x="91.5" y="-393.5" font-family="Helvetica,sans-Serif" font-size="10.00">+ normalized()</text>
<text text-anchor="start" x="91.5" y="-382.5" font-family="Helvetica,sans-Serif" font-size="10.00">+ operator[]()</text>
</a>
</g>
</g>
<!-- Node4&#45;&gt;Node3 -->
<g id="edge3" class="edge"><title>Node4&#45;&gt;Node3</title>
<path fill="none" stroke="#404040" d="M123,-375.248C123,-345.319 123,-310.943 123,-285.025"/>
<polygon fill="none" stroke="#404040" points="123,-284.674 119,-278.674 123,-272.674 127,-278.674 123,-284.674"/>
<text text-anchor="middle" x="130.5" y="-349" font-family="Helvetica,sans-Serif" font-size="10.00"> +d</text>
</g>
</g>
</svg>
