<?xml version="1.0" encoding="UTF-8" standalone="no"?>
<!DOCTYPE svg PUBLIC "-//W3C//DTD SVG 1.1//EN"
 "http://www.w3.org/Graphics/SVG/1.1/DTD/svg11.dtd">
<!-- Generated by graphviz version 2.38.0 (20140413.2041)
 -->
<!-- Title: tcustruc Pages: 1 -->
<svg width="82pt" height="281pt"
 viewBox="0.00 0.00 82.00 281.00" xmlns="http://www.w3.org/2000/svg" xmlns:xlink="http://www.w3.org/1999/xlink">
<g id="graph0" class="graph" transform="scale(1 1) rotate(0) translate(4 277)">
<title>tcustruc</title>
<polygon fill="white" stroke="none" points="-4,4 -4,-277 78,-277 78,4 -4,4"/>
<!-- Node1 -->
<g id="node1" class="node"><title>Node1</title>
<polygon fill="#bfbfbf" stroke="black" points="11,-0.5 11,-68.5 63,-68.5 63,-0.5 11,-0.5"/>
<text text-anchor="middle" x="37" y="-56.5" font-family="Helvetica,sans-Serif" font-size="10.00">tcustruc</text>
<polyline fill="none" stroke="black" points="11,-49.5 63,-49.5 "/>
<text text-anchor="start" x="19" y="-37.5" font-family="Helvetica,sans-Serif" font-size="10.00">+ mcnt</text>
<text text-anchor="start" x="19" y="-26.5" font-family="Helvetica,sans-Serif" font-size="10.00">+ mcidx</text>
<polyline fill="none" stroke="black" points="11,-19.5 63,-19.5 "/>
<text text-anchor="middle" x="37" y="-7.5" font-family="Helvetica,sans-Serif" font-size="10.00"> </text>
</g>
<!-- Node2 -->
<g id="node2" class="node"><title>Node2</title>
<g id="a_node2"><a xlink:href="structallstruc.html" target="_top" xlink:title="All Component structure. ">
<polygon fill="white" stroke="black" points="0,-105.5 0,-272.5 74,-272.5 74,-105.5 0,-105.5"/>
<text text-anchor="middle" x="37" y="-260.5" font-family="Helvetica,sans-Serif" font-size="10.00">allstruc</text>
<polyline fill="none" stroke="black" points="0,-253.5 74,-253.5 "/>
<text text-anchor="start" x="8" y="-241.5" font-family="Helvetica,sans-Serif" font-size="10.00">+ enabled</text>
<text text-anchor="start" x="8" y="-230.5" font-family="Helvetica,sans-Serif" font-size="10.00">+ type</text>
<text text-anchor="start" x="8" y="-219.5" font-family="Helvetica,sans-Serif" font-size="10.00">+ model</text>
<text text-anchor="start" x="8" y="-208.5" font-family="Helvetica,sans-Serif" font-size="10.00">+ flag</text>
<text text-anchor="start" x="8" y="-197.5" font-family="Helvetica,sans-Serif" font-size="10.00">+ addr</text>
<text text-anchor="start" x="8" y="-186.5" font-family="Helvetica,sans-Serif" font-size="10.00">+ cidx</text>
<text text-anchor="start" x="8" y="-175.5" font-family="Helvetica,sans-Serif" font-size="10.00">+ didx</text>
<text text-anchor="start" x="8" y="-164.5" font-family="Helvetica,sans-Serif" font-size="10.00">+ pidx</text>
<text text-anchor="start" x="8" y="-153.5" font-family="Helvetica,sans-Serif" font-size="10.00">+ bidx</text>
<text text-anchor="start" x="8" y="-142.5" font-family="Helvetica,sans-Serif" font-size="10.00">+ portidx</text>
<text text-anchor="start" x="8" y="-131.5" font-family="Helvetica,sans-Serif" font-size="10.00">and 9 more...</text>
<polyline fill="none" stroke="black" points="0,-124.5 74,-124.5 "/>
<text text-anchor="middle" x="37" y="-112.5" font-family="Helvetica,sans-Serif" font-size="10.00"> </text>
</a>
</g>
</g>
<!-- Node2&#45;&gt;Node1 -->
<g id="edge1" class="edge"><title>Node2&#45;&gt;Node1</title>
<path fill="none" stroke="midnightblue" d="M37,-94.8947C37,-85.6312 37,-76.7171 37,-68.7372"/>
<polygon fill="none" stroke="midnightblue" points="33.5001,-95.056 37,-105.056 40.5001,-95.056 33.5001,-95.056"/>
</g>
</g>
</svg>
