<?xml version="1.0" encoding="UTF-8" standalone="no"?>
<!DOCTYPE svg PUBLIC "-//W3C//DTD SVG 1.1//EN"
 "http://www.w3.org/Graphics/SVG/1.1/DTD/svg11.dtd">
<!-- Generated by graphviz version 2.38.0 (20140413.2041)
 -->
<!-- Title: gpsstruc Pages: 1 -->
<svg width="216pt" height="380pt"
 viewBox="0.00 0.00 216.00 380.00" xmlns="http://www.w3.org/2000/svg" xmlns:xlink="http://www.w3.org/1999/xlink">
<g id="graph0" class="graph" transform="scale(1 1) rotate(0) translate(4 376)">
<title>gpsstruc</title>
<polygon fill="white" stroke="none" points="-4,4 -4,-376 212,-376 212,4 -4,4"/>
<!-- Node1 -->
<g id="node1" class="node"><title>Node1</title>
<polygon fill="#bfbfbf" stroke="black" points="70,-0.5 70,-123.5 162,-123.5 162,-0.5 70,-0.5"/>
<text text-anchor="middle" x="116" y="-111.5" font-family="Helvetica,sans-Serif" font-size="10.00">gpsstruc</text>
<polyline fill="none" stroke="black" points="70,-104.5 162,-104.5 "/>
<text text-anchor="start" x="78" y="-92.5" font-family="Helvetica,sans-Serif" font-size="10.00">+ dutc</text>
<text text-anchor="start" x="78" y="-81.5" font-family="Helvetica,sans-Serif" font-size="10.00">+ heading</text>
<text text-anchor="start" x="78" y="-70.5" font-family="Helvetica,sans-Serif" font-size="10.00">+ sats_used</text>
<text text-anchor="start" x="78" y="-59.5" font-family="Helvetica,sans-Serif" font-size="10.00">+ sats_visible</text>
<text text-anchor="start" x="78" y="-48.5" font-family="Helvetica,sans-Serif" font-size="10.00">+ time_status</text>
<text text-anchor="start" x="78" y="-37.5" font-family="Helvetica,sans-Serif" font-size="10.00">+ position_type</text>
<text text-anchor="start" x="78" y="-26.5" font-family="Helvetica,sans-Serif" font-size="10.00">+ solution_status</text>
<polyline fill="none" stroke="black" points="70,-19.5 162,-19.5 "/>
<text text-anchor="middle" x="116" y="-7.5" font-family="Helvetica,sans-Serif" font-size="10.00"> </text>
</g>
<!-- Node2 -->
<g id="node2" class="node"><title>Node2</title>
<g id="a_node2"><a xlink:href="structallstruc.html" target="_top" xlink:title="All Component structure. ">
<polygon fill="white" stroke="black" points="0,-204.5 0,-371.5 74,-371.5 74,-204.5 0,-204.5"/>
<text text-anchor="middle" x="37" y="-359.5" font-family="Helvetica,sans-Serif" font-size="10.00">allstruc</text>
<polyline fill="none" stroke="black" points="0,-352.5 74,-352.5 "/>
<text text-anchor="start" x="8" y="-340.5" font-family="Helvetica,sans-Serif" font-size="10.00">+ enabled</text>
<text text-anchor="start" x="8" y="-329.5" font-family="Helvetica,sans-Serif" font-size="10.00">+ type</text>
<text text-anchor="start" x="8" y="-318.5" font-family="Helvetica,sans-Serif" font-size="10.00">+ model</text>
<text text-anchor="start" x="8" y="-307.5" font-family="Helvetica,sans-Serif" font-size="10.00">+ flag</text>
<text text-anchor="start" x="8" y="-296.5" font-family="Helvetica,sans-Serif" font-size="10.00">+ addr</text>
<text text-anchor="start" x="8" y="-285.5" font-family="Helvetica,sans-Serif" font-size="10.00">+ cidx</text>
<text text-anchor="start" x="8" y="-274.5" font-family="Helvetica,sans-Serif" font-size="10.00">+ didx</text>
<text text-anchor="start" x="8" y="-263.5" font-family="Helvetica,sans-Serif" font-size="10.00">+ pidx</text>
<text text-anchor="start" x="8" y="-252.5" font-family="Helvetica,sans-Serif" font-size="10.00">+ bidx</text>
<text text-anchor="start" x="8" y="-241.5" font-family="Helvetica,sans-Serif" font-size="10.00">+ portidx</text>
<text text-anchor="start" x="8" y="-230.5" font-family="Helvetica,sans-Serif" font-size="10.00">and 9 more...</text>
<polyline fill="none" stroke="black" points="0,-223.5 74,-223.5 "/>
<text text-anchor="middle" x="37" y="-211.5" font-family="Helvetica,sans-Serif" font-size="10.00"> </text>
</a>
</g>
</g>
<!-- Node2&#45;&gt;Node1 -->
<g id="edge1" class="edge"><title>Node2&#45;&gt;Node1</title>
<path fill="none" stroke="midnightblue" d="M69.5298,-194.764C77.9786,-170.807 86.8668,-145.605 94.5816,-123.731"/>
<polygon fill="none" stroke="midnightblue" points="66.2176,-193.632 66.1922,-204.227 72.819,-195.961 66.2176,-193.632"/>
</g>
<!-- Node3 -->
<g id="node3" class="node"><title>Node3</title>
<g id="a_node3"><a xlink:href="structrvector.html" target="_top" xlink:title="3 element generic row vector ">
<polygon fill="white" stroke="black" points="92.5,-259.5 92.5,-316.5 139.5,-316.5 139.5,-259.5 92.5,-259.5"/>
<text text-anchor="middle" x="116" y="-304.5" font-family="Helvetica,sans-Serif" font-size="10.00">rvector</text>
<polyline fill="none" stroke="black" points="92.5,-297.5 139.5,-297.5 "/>
<text text-anchor="start" x="100.5" y="-285.5" font-family="Helvetica,sans-Serif" font-size="10.00">+ col</text>
<polyline fill="none" stroke="black" points="92.5,-278.5 139.5,-278.5 "/>
<text text-anchor="middle" x="116" y="-266.5" font-family="Helvetica,sans-Serif" font-size="10.00"> </text>
</a>
</g>
</g>
<!-- Node3&#45;&gt;Node1 -->
<g id="edge2" class="edge"><title>Node3&#45;&gt;Node1</title>
<path fill="none" stroke="#404040" d="M116,-259.083C116,-228.448 116,-178.034 116,-135.996"/>
<polygon fill="none" stroke="#404040" points="116,-135.82 112,-129.82 116,-123.82 120,-129.82 116,-135.82"/>
<text text-anchor="middle" x="135" y="-178" font-family="Helvetica,sans-Serif" font-size="10.00"> +geocs</text>
<text text-anchor="middle" x="135" y="-167" font-family="Helvetica,sans-Serif" font-size="10.00">+geocv</text>
<text text-anchor="middle" x="135" y="-156" font-family="Helvetica,sans-Serif" font-size="10.00">+dgeocs</text>
<text text-anchor="middle" x="135" y="-145" font-family="Helvetica,sans-Serif" font-size="10.00">+dgeocv</text>
</g>
<!-- Node4 -->
<g id="node4" class="node"><title>Node4</title>
<g id="a_node4"><a xlink:href="structgvector.html" target="_top" xlink:title="3 element geodetic vector ">
<polygon fill="white" stroke="black" points="157.5,-248.5 157.5,-327.5 206.5,-327.5 206.5,-248.5 157.5,-248.5"/>
<text text-anchor="middle" x="182" y="-315.5" font-family="Helvetica,sans-Serif" font-size="10.00">gvector</text>
<polyline fill="none" stroke="black" points="157.5,-308.5 206.5,-308.5 "/>
<text text-anchor="start" x="165.5" y="-296.5" font-family="Helvetica,sans-Serif" font-size="10.00">+ lat</text>
<text text-anchor="start" x="165.5" y="-285.5" font-family="Helvetica,sans-Serif" font-size="10.00">+ lon</text>
<text text-anchor="start" x="165.5" y="-274.5" font-family="Helvetica,sans-Serif" font-size="10.00">+ h</text>
<polyline fill="none" stroke="black" points="157.5,-267.5 206.5,-267.5 "/>
<text text-anchor="middle" x="182" y="-255.5" font-family="Helvetica,sans-Serif" font-size="10.00"> </text>
</a>
</g>
</g>
<!-- Node4&#45;&gt;Node1 -->
<g id="edge3" class="edge"><title>Node4&#45;&gt;Node1</title>
<path fill="none" stroke="#404040" d="M179.034,-248.317C175.943,-218.621 169.82,-176.925 158,-142 157.202,-139.644 156.34,-137.273 155.425,-134.899"/>
<polygon fill="none" stroke="#404040" points="155.417,-134.879 149.414,-130.883 150.793,-123.805 156.796,-127.801 155.417,-134.879"/>
<text text-anchor="middle" x="189" y="-178" font-family="Helvetica,sans-Serif" font-size="10.00"> +geods</text>
<text text-anchor="middle" x="189" y="-167" font-family="Helvetica,sans-Serif" font-size="10.00">+geodv</text>
<text text-anchor="middle" x="189" y="-156" font-family="Helvetica,sans-Serif" font-size="10.00">+dgeods</text>
<text text-anchor="middle" x="189" y="-145" font-family="Helvetica,sans-Serif" font-size="10.00">+dgeodv</text>
</g>
</g>
</svg>
