<?xml version="1.0" encoding="UTF-8" standalone="no"?>
<!DOCTYPE svg PUBLIC "-//W3C//DTD SVG 1.1//EN"
 "http://www.w3.org/Graphics/SVG/1.1/DTD/svg11.dtd">
<!-- Generated by graphviz version 2.38.0 (20140413.2041)
 -->
<!-- Title: trianglestruc Pages: 1 -->
<svg width="254pt" height="468pt"
 viewBox="0.00 0.00 254.00 468.00" xmlns="http://www.w3.org/2000/svg" xmlns:xlink="http://www.w3.org/1999/xlink">
<g id="graph0" class="graph" transform="scale(1 1) rotate(0) translate(4 464)">
<title>trianglestruc</title>
<polygon fill="white" stroke="none" points="-4,4 -4,-464 250,-464 250,4 -4,4"/>
<!-- Node1 -->
<g id="node1" class="node"><title>Node1</title>
<polygon fill="#bfbfbf" stroke="black" points="84.5,-0.5 84.5,-112.5 154.5,-112.5 154.5,-0.5 84.5,-0.5"/>
<text text-anchor="middle" x="119.5" y="-100.5" font-family="Helvetica,sans-Serif" font-size="10.00">trianglestruc</text>
<polyline fill="none" stroke="black" points="84.5,-93.5 154.5,-93.5 "/>
<text text-anchor="start" x="92.5" y="-81.5" font-family="Helvetica,sans-Serif" font-size="10.00">+ area</text>
<text text-anchor="start" x="92.5" y="-70.5" font-family="Helvetica,sans-Serif" font-size="10.00">+ pidx</text>
<text text-anchor="start" x="92.5" y="-59.5" font-family="Helvetica,sans-Serif" font-size="10.00">+ tidx</text>
<text text-anchor="start" x="92.5" y="-48.5" font-family="Helvetica,sans-Serif" font-size="10.00">+ heat</text>
<text text-anchor="start" x="92.5" y="-37.5" font-family="Helvetica,sans-Serif" font-size="10.00">+ temp</text>
<text text-anchor="start" x="92.5" y="-26.5" font-family="Helvetica,sans-Serif" font-size="10.00">+ irradiance</text>
<polyline fill="none" stroke="black" points="84.5,-19.5 154.5,-19.5 "/>
<text text-anchor="middle" x="119.5" y="-7.5" font-family="Helvetica,sans-Serif" font-size="10.00"> </text>
</g>
<!-- Node2 -->
<g id="node2" class="node"><title>Node2</title>
<polygon fill="white" stroke="#bfbfbf" points="0,-281.5 0,-349.5 107,-349.5 107,-281.5 0,-281.5"/>
<text text-anchor="start" x="8" y="-337.5" font-family="Helvetica,sans-Serif" font-size="10.00">vector&lt; vector&lt; size</text>
<text text-anchor="middle" x="53.5" y="-326.5" font-family="Helvetica,sans-Serif" font-size="10.00">_t &gt; &gt;</text>
<polyline fill="none" stroke="#bfbfbf" points="0,-319.5 107,-319.5 "/>
<text text-anchor="middle" x="53.5" y="-307.5" font-family="Helvetica,sans-Serif" font-size="10.00"> </text>
<polyline fill="none" stroke="#bfbfbf" points="0,-300.5 107,-300.5 "/>
<text text-anchor="middle" x="53.5" y="-288.5" font-family="Helvetica,sans-Serif" font-size="10.00"> </text>
</g>
<!-- Node2&#45;&gt;Node1 -->
<g id="edge1" class="edge"><title>Node2&#45;&gt;Node1</title>
<path fill="none" stroke="#404040" d="M61.6104,-281.299C70.6483,-244.504 85.7964,-183.43 99.5,-131 100.053,-128.885 100.618,-126.736 101.191,-124.568"/>
<polygon fill="none" stroke="#404040" points="101.222,-124.448 98.9012,-117.621 104.311,-112.852 106.632,-119.679 101.222,-124.448"/>
<text text-anchor="middle" x="131.5" y="-139.5" font-family="Helvetica,sans-Serif" font-size="10.00"> +triangleindex</text>
</g>
<!-- Node3 -->
<g id="node3" class="node"><title>Node3</title>
<g id="a_node3"><a xlink:href="class_cosmos_1_1_math_1_1_vectors_1_1_vector.html" target="_top" xlink:title="Vector Class. ">
<polygon fill="white" stroke="black" points="125,-171.5 125,-459.5 246,-459.5 246,-171.5 125,-171.5"/>
<text text-anchor="start" x="133" y="-447.5" font-family="Helvetica,sans-Serif" font-size="10.00">Cosmos::Math::Vectors</text>
<text text-anchor="middle" x="185.5" y="-436.5" font-family="Helvetica,sans-Serif" font-size="10.00">::Vector</text>
<polyline fill="none" stroke="black" points="125,-429.5 246,-429.5 "/>
<text text-anchor="start" x="133" y="-417.5" font-family="Helvetica,sans-Serif" font-size="10.00">+ x</text>
<text text-anchor="start" x="133" y="-406.5" font-family="Helvetica,sans-Serif" font-size="10.00">+ phi</text>
<text text-anchor="start" x="133" y="-395.5" font-family="Helvetica,sans-Serif" font-size="10.00">+ lat</text>
<text text-anchor="start" x="133" y="-384.5" font-family="Helvetica,sans-Serif" font-size="10.00">+ head</text>
<text text-anchor="start" x="133" y="-373.5" font-family="Helvetica,sans-Serif" font-size="10.00">+ @31</text>
<text text-anchor="start" x="133" y="-362.5" font-family="Helvetica,sans-Serif" font-size="10.00">+ y</text>
<text text-anchor="start" x="133" y="-351.5" font-family="Helvetica,sans-Serif" font-size="10.00">+ lambda</text>
<text text-anchor="start" x="133" y="-340.5" font-family="Helvetica,sans-Serif" font-size="10.00">+ lon</text>
<text text-anchor="start" x="133" y="-329.5" font-family="Helvetica,sans-Serif" font-size="10.00">+ elev</text>
<text text-anchor="start" x="133" y="-318.5" font-family="Helvetica,sans-Serif" font-size="10.00">+ @33</text>
<text text-anchor="start" x="133" y="-307.5" font-family="Helvetica,sans-Serif" font-size="10.00">and 6 more...</text>
<polyline fill="none" stroke="black" points="125,-300.5 246,-300.5 "/>
<text text-anchor="start" x="133" y="-288.5" font-family="Helvetica,sans-Serif" font-size="10.00">+ Vector()</text>
<text text-anchor="start" x="133" y="-277.5" font-family="Helvetica,sans-Serif" font-size="10.00">+ Vector()</text>
<text text-anchor="start" x="133" y="-266.5" font-family="Helvetica,sans-Serif" font-size="10.00">+ Vector()</text>
<text text-anchor="start" x="133" y="-255.5" font-family="Helvetica,sans-Serif" font-size="10.00">+ Vector()</text>
<text text-anchor="start" x="133" y="-244.5" font-family="Helvetica,sans-Serif" font-size="10.00">+ at()</text>
<text text-anchor="start" x="133" y="-233.5" font-family="Helvetica,sans-Serif" font-size="10.00">+ to_rv()</text>
<text text-anchor="start" x="133" y="-222.5" font-family="Helvetica,sans-Serif" font-size="10.00">+ to_cv()</text>
<text text-anchor="start" x="133" y="-211.5" font-family="Helvetica,sans-Serif" font-size="10.00">+ to_q()</text>
<text text-anchor="start" x="133" y="-200.5" font-family="Helvetica,sans-Serif" font-size="10.00">+ cross()</text>
<text text-anchor="start" x="133" y="-189.5" font-family="Helvetica,sans-Serif" font-size="10.00">+ dot()</text>
<text text-anchor="start" x="133" y="-178.5" font-family="Helvetica,sans-Serif" font-size="10.00">and 23 more...</text>
</a>
</g>
</g>
<!-- Node3&#45;&gt;Node1 -->
<g id="edge2" class="edge"><title>Node3&#45;&gt;Node1</title>
<path fill="none" stroke="#404040" d="M174.321,-171.417C171.463,-157.58 167.911,-143.903 163.5,-131 162.395,-127.768 161.134,-124.524 159.754,-121.296"/>
<polygon fill="none" stroke="#404040" points="159.752,-121.292 153.583,-117.558 154.658,-110.427 160.827,-114.161 159.752,-121.292"/>
<text text-anchor="middle" x="186.5" y="-145" font-family="Helvetica,sans-Serif" font-size="10.00"> +com</text>
<text text-anchor="middle" x="186.5" y="-134" font-family="Helvetica,sans-Serif" font-size="10.00">+normal</text>
</g>
</g>
</svg>
