<?xml version="1.0" encoding="UTF-8" standalone="no"?>
<!DOCTYPE svg PUBLIC "-//W3C//DTD SVG 1.1//EN"
 "http://www.w3.org/Graphics/SVG/1.1/DTD/svg11.dtd">
<!-- Generated by graphviz version 2.38.0 (20140413.2041)
 -->
<!-- Title: tcvstruc Pages: 1 -->
<svg width="82pt" height="413pt"
 viewBox="0.00 0.00 82.00 413.00" xmlns="http://www.w3.org/2000/svg" xmlns:xlink="http://www.w3.org/1999/xlink">
<g id="graph0" class="graph" transform="scale(1 1) rotate(0) translate(4 409)">
<title>tcvstruc</title>
<polygon fill="white" stroke="none" points="-4,4 -4,-409 78,-409 78,4 -4,4"/>
<!-- Node1 -->
<g id="node1" class="node"><title>Node1</title>
<polygon fill="#bfbfbf" stroke="black" points="1.5,-0.5 1.5,-200.5 72.5,-200.5 72.5,-0.5 1.5,-0.5"/>
<text text-anchor="middle" x="37" y="-188.5" font-family="Helvetica,sans-Serif" font-size="10.00">tcvstruc</text>
<polyline fill="none" stroke="black" points="1.5,-181.5 72.5,-181.5 "/>
<text text-anchor="start" x="9.5" y="-169.5" font-family="Helvetica,sans-Serif" font-size="10.00">+ opmode</text>
<text text-anchor="start" x="9.5" y="-158.5" font-family="Helvetica,sans-Serif" font-size="10.00">+ rssi</text>
<text text-anchor="start" x="9.5" y="-147.5" font-family="Helvetica,sans-Serif" font-size="10.00">+ pktsize</text>
<text text-anchor="start" x="9.5" y="-136.5" font-family="Helvetica,sans-Serif" font-size="10.00">+ freq</text>
<text text-anchor="start" x="9.5" y="-125.5" font-family="Helvetica,sans-Serif" font-size="10.00">+ maxfreq</text>
<text text-anchor="start" x="9.5" y="-114.5" font-family="Helvetica,sans-Serif" font-size="10.00">+ minfreq</text>
<text text-anchor="start" x="9.5" y="-103.5" font-family="Helvetica,sans-Serif" font-size="10.00">+ powerin</text>
<text text-anchor="start" x="9.5" y="-92.5" font-family="Helvetica,sans-Serif" font-size="10.00">+ powerout</text>
<text text-anchor="start" x="9.5" y="-81.5" font-family="Helvetica,sans-Serif" font-size="10.00">+ maxpower</text>
<text text-anchor="start" x="9.5" y="-70.5" font-family="Helvetica,sans-Serif" font-size="10.00">+ band</text>
<text text-anchor="start" x="9.5" y="-59.5" font-family="Helvetica,sans-Serif" font-size="10.00">+ goodratio</text>
<text text-anchor="start" x="9.5" y="-48.5" font-family="Helvetica,sans-Serif" font-size="10.00">+ txutc</text>
<text text-anchor="start" x="9.5" y="-37.5" font-family="Helvetica,sans-Serif" font-size="10.00">+ rxutc</text>
<text text-anchor="start" x="9.5" y="-26.5" font-family="Helvetica,sans-Serif" font-size="10.00">+ uptime</text>
<polyline fill="none" stroke="black" points="1.5,-19.5 72.5,-19.5 "/>
<text text-anchor="middle" x="37" y="-7.5" font-family="Helvetica,sans-Serif" font-size="10.00"> </text>
</g>
<!-- Node2 -->
<g id="node2" class="node"><title>Node2</title>
<g id="a_node2"><a xlink:href="structallstruc.html" target="_top" xlink:title="All Component structure. ">
<polygon fill="white" stroke="black" points="0,-237.5 0,-404.5 74,-404.5 74,-237.5 0,-237.5"/>
<text text-anchor="middle" x="37" y="-392.5" font-family="Helvetica,sans-Serif" font-size="10.00">allstruc</text>
<polyline fill="none" stroke="black" points="0,-385.5 74,-385.5 "/>
<text text-anchor="start" x="8" y="-373.5" font-family="Helvetica,sans-Serif" font-size="10.00">+ enabled</text>
<text text-anchor="start" x="8" y="-362.5" font-family="Helvetica,sans-Serif" font-size="10.00">+ type</text>
<text text-anchor="start" x="8" y="-351.5" font-family="Helvetica,sans-Serif" font-size="10.00">+ model</text>
<text text-anchor="start" x="8" y="-340.5" font-family="Helvetica,sans-Serif" font-size="10.00">+ flag</text>
<text text-anchor="start" x="8" y="-329.5" font-family="Helvetica,sans-Serif" font-size="10.00">+ addr</text>
<text text-anchor="start" x="8" y="-318.5" font-family="Helvetica,sans-Serif" font-size="10.00">+ cidx</text>
<text text-anchor="start" x="8" y="-307.5" font-family="Helvetica,sans-Serif" font-size="10.00">+ didx</text>
<text text-anchor="start" x="8" y="-296.5" font-family="Helvetica,sans-Serif" font-size="10.00">+ pidx</text>
<text text-anchor="start" x="8" y="-285.5" font-family="Helvetica,sans-Serif" font-size="10.00">+ bidx</text>
<text text-anchor="start" x="8" y="-274.5" font-family="Helvetica,sans-Serif" font-size="10.00">+ portidx</text>
<text text-anchor="start" x="8" y="-263.5" font-family="Helvetica,sans-Serif" font-size="10.00">and 9 more...</text>
<polyline fill="none" stroke="black" points="0,-256.5 74,-256.5 "/>
<text text-anchor="middle" x="37" y="-244.5" font-family="Helvetica,sans-Serif" font-size="10.00"> </text>
</a>
</g>
</g>
<!-- Node2&#45;&gt;Node1 -->
<g id="edge1" class="edge"><title>Node2&#45;&gt;Node1</title>
<path fill="none" stroke="midnightblue" d="M37,-227.206C37,-218.458 37,-209.567 37,-200.763"/>
<polygon fill="none" stroke="midnightblue" points="33.5001,-227.394 37,-237.395 40.5001,-227.395 33.5001,-227.394"/>
</g>
</g>
</svg>
