<?xml version="1.0" encoding="UTF-8" standalone="no"?>
<!DOCTYPE svg PUBLIC "-//W3C//DTD SVG 1.1//EN"
 "http://www.w3.org/Graphics/SVG/1.1/DTD/svg11.dtd">
<!-- Generated by graphviz version 2.38.0 (20140413.2041)
 -->
<!-- Title: ic9100_handle Pages: 1 -->
<svg width="280pt" height="336pt"
 viewBox="0.00 0.00 279.50 336.00" xmlns="http://www.w3.org/2000/svg" xmlns:xlink="http://www.w3.org/1999/xlink">
<g id="graph0" class="graph" transform="scale(1 1) rotate(0) translate(4 332)">
<title>ic9100_handle</title>
<polygon fill="white" stroke="none" points="-4,4 -4,-332 275.5,-332 275.5,4 -4,4"/>
<!-- Node1 -->
<g id="node1" class="node"><title>Node1</title>
<polygon fill="#bfbfbf" stroke="black" points="93.5,-0.5 93.5,-167.5 179.5,-167.5 179.5,-0.5 93.5,-0.5"/>
<text text-anchor="middle" x="136.5" y="-155.5" font-family="Helvetica,sans-Serif" font-size="10.00">ic9100_handle</text>
<polyline fill="none" stroke="black" points="93.5,-148.5 179.5,-148.5 "/>
<text text-anchor="start" x="101.5" y="-136.5" font-family="Helvetica,sans-Serif" font-size="10.00">+ address</text>
<text text-anchor="start" x="101.5" y="-125.5" font-family="Helvetica,sans-Serif" font-size="10.00">+ channelnum</text>
<text text-anchor="start" x="101.5" y="-114.5" font-family="Helvetica,sans-Serif" font-size="10.00">+ freqband</text>
<text text-anchor="start" x="101.5" y="-103.5" font-family="Helvetica,sans-Serif" font-size="10.00">+ filtband</text>
<text text-anchor="start" x="101.5" y="-92.5" font-family="Helvetica,sans-Serif" font-size="10.00">+ mode</text>
<text text-anchor="start" x="101.5" y="-81.5" font-family="Helvetica,sans-Serif" font-size="10.00">+ datamode</text>
<text text-anchor="start" x="101.5" y="-70.5" font-family="Helvetica,sans-Serif" font-size="10.00">+ bps9600mode</text>
<text text-anchor="start" x="101.5" y="-59.5" font-family="Helvetica,sans-Serif" font-size="10.00">+ rfgain</text>
<text text-anchor="start" x="101.5" y="-48.5" font-family="Helvetica,sans-Serif" font-size="10.00">+ squelch</text>
<text text-anchor="start" x="101.5" y="-37.5" font-family="Helvetica,sans-Serif" font-size="10.00">+ rfpower</text>
<text text-anchor="start" x="101.5" y="-26.5" font-family="Helvetica,sans-Serif" font-size="10.00">and 11 more...</text>
<polyline fill="none" stroke="black" points="93.5,-19.5 179.5,-19.5 "/>
<text text-anchor="middle" x="136.5" y="-7.5" font-family="Helvetica,sans-Serif" font-size="10.00"> </text>
</g>
<!-- Node2 -->
<g id="node2" class="node"><title>Node2</title>
<polygon fill="white" stroke="#bfbfbf" points="0,-243 0,-300 91,-300 91,-243 0,-243"/>
<text text-anchor="middle" x="45.5" y="-288" font-family="Helvetica,sans-Serif" font-size="10.00">vector&lt; uint8_t &gt;</text>
<polyline fill="none" stroke="#bfbfbf" points="0,-281 91,-281 "/>
<text text-anchor="middle" x="45.5" y="-269" font-family="Helvetica,sans-Serif" font-size="10.00"> </text>
<polyline fill="none" stroke="#bfbfbf" points="0,-262 91,-262 "/>
<text text-anchor="middle" x="45.5" y="-250" font-family="Helvetica,sans-Serif" font-size="10.00"> </text>
</g>
<!-- Node2&#45;&gt;Node1 -->
<g id="edge1" class="edge"><title>Node2&#45;&gt;Node1</title>
<path fill="none" stroke="#404040" d="M57.4045,-242.905C64.6931,-226.299 74.3494,-204.802 83.5,-186 84.9332,-183.055 86.4024,-180.069 87.8971,-177.06"/>
<polygon fill="none" stroke="#404040" points="88.0186,-176.817 87.1347,-169.661 93.4009,-166.092 94.2848,-173.249 88.0186,-176.817"/>
<text text-anchor="middle" x="108" y="-189" font-family="Helvetica,sans-Serif" font-size="10.00"> +response</text>
</g>
<!-- Node3 -->
<g id="node3" class="node"><title>Node3</title>
<g id="a_node3"><a xlink:href="struct____cssl__t.html" target="_top" xlink:title="{__cssl_t\n|+ buffer\l+ fd\l+ dcb\l+ olddcb\l+ handle\l+ baud\l|}">
<polygon fill="white" stroke="black" points="109.5,-215.5 109.5,-327.5 163.5,-327.5 163.5,-215.5 109.5,-215.5"/>
<text text-anchor="middle" x="136.5" y="-315.5" font-family="Helvetica,sans-Serif" font-size="10.00">__cssl_t</text>
<polyline fill="none" stroke="black" points="109.5,-308.5 163.5,-308.5 "/>
<text text-anchor="start" x="117.5" y="-296.5" font-family="Helvetica,sans-Serif" font-size="10.00">+ buffer</text>
<text text-anchor="start" x="117.5" y="-285.5" font-family="Helvetica,sans-Serif" font-size="10.00">+ fd</text>
<text text-anchor="start" x="117.5" y="-274.5" font-family="Helvetica,sans-Serif" font-size="10.00">+ dcb</text>
<text text-anchor="start" x="117.5" y="-263.5" font-family="Helvetica,sans-Serif" font-size="10.00">+ olddcb</text>
<text text-anchor="start" x="117.5" y="-252.5" font-family="Helvetica,sans-Serif" font-size="10.00">+ handle</text>
<text text-anchor="start" x="117.5" y="-241.5" font-family="Helvetica,sans-Serif" font-size="10.00">+ baud</text>
<polyline fill="none" stroke="black" points="109.5,-234.5 163.5,-234.5 "/>
<text text-anchor="middle" x="136.5" y="-222.5" font-family="Helvetica,sans-Serif" font-size="10.00"> </text>
</a>
</g>
</g>
<!-- Node3&#45;&gt;Node1 -->
<g id="edge2" class="edge"><title>Node3&#45;&gt;Node1</title>
<path fill="none" stroke="#404040" d="M136.5,-215.346C136.5,-204.132 136.5,-192.036 136.5,-179.891"/>
<polygon fill="none" stroke="#404040" points="136.5,-179.76 132.5,-173.76 136.5,-167.76 140.5,-173.76 136.5,-179.76"/>
<text text-anchor="middle" x="153" y="-189" font-family="Helvetica,sans-Serif" font-size="10.00"> +serial</text>
</g>
<!-- Node3&#45;&gt;Node3 -->
<g id="edge3" class="edge"><title>Node3&#45;&gt;Node3</title>
<path fill="none" stroke="#404040" d="M163.741,-286.485C173.524,-286.808 181.5,-281.812 181.5,-271.5 181.5,-266.021 179.249,-262.044 175.672,-259.567"/>
<polygon fill="none" stroke="#404040" points="175.366,-259.489 168.562,-261.877 163.741,-256.515 170.545,-254.126 175.366,-259.489"/>
<text text-anchor="middle" x="195.5" y="-269" font-family="Helvetica,sans-Serif" font-size="10.00"> +next</text>
</g>
<!-- Node4 -->
<g id="node4" class="node"><title>Node4</title>
<polygon fill="white" stroke="#bfbfbf" points="227.5,-243 227.5,-300 271.5,-300 271.5,-243 227.5,-243"/>
<text text-anchor="middle" x="249.5" y="-288" font-family="Helvetica,sans-Serif" font-size="10.00">mutex</text>
<polyline fill="none" stroke="#bfbfbf" points="227.5,-281 271.5,-281 "/>
<text text-anchor="middle" x="249.5" y="-269" font-family="Helvetica,sans-Serif" font-size="10.00"> </text>
<polyline fill="none" stroke="#bfbfbf" points="227.5,-262 271.5,-262 "/>
<text text-anchor="middle" x="249.5" y="-250" font-family="Helvetica,sans-Serif" font-size="10.00"> </text>
</g>
<!-- Node4&#45;&gt;Node1 -->
<g id="edge4" class="edge"><title>Node4&#45;&gt;Node1</title>
<path fill="none" stroke="#404040" d="M234.493,-242.952C229.505,-233.981 223.855,-224.014 218.5,-215 208.286,-197.807 197.024,-179.539 186.204,-162.298"/>
<polygon fill="none" stroke="#404040" points="185.933,-161.869 179.351,-158.924 179.537,-151.716 186.12,-154.66 185.933,-161.869"/>
<text text-anchor="middle" x="219.5" y="-189" font-family="Helvetica,sans-Serif" font-size="10.00"> +mut</text>
</g>
</g>
</svg>
