<?xml version="1.0" encoding="UTF-8" standalone="no"?>
<!DOCTYPE svg PUBLIC "-//W3C//DTD SVG 1.1//EN"
 "http://www.w3.org/Graphics/SVG/1.1/DTD/svg11.dtd">
<!-- Generated by graphviz version 2.38.0 (20140413.2041)
 -->
<!-- Title: cartpos Pages: 1 -->
<svg width="57pt" height="204pt"
 viewBox="0.00 0.00 57.00 204.00" xmlns="http://www.w3.org/2000/svg" xmlns:xlink="http://www.w3.org/1999/xlink">
<g id="graph0" class="graph" transform="scale(1 1) rotate(0) translate(4 200)">
<title>cartpos</title>
<polygon fill="white" stroke="none" points="-4,4 -4,-200 53,-200 53,4 -4,4"/>
<!-- Node1 -->
<g id="node1" class="node"><title>Node1</title>
<polygon fill="#bfbfbf" stroke="black" points="-3.55271e-15,-0.5 -3.55271e-15,-68.5 49,-68.5 49,-0.5 -3.55271e-15,-0.5"/>
<text text-anchor="middle" x="24.5" y="-56.5" font-family="Helvetica,sans-Serif" font-size="10.00">cartpos</text>
<polyline fill="none" stroke="black" points="-3.55271e-15,-49.5 49,-49.5 "/>
<text text-anchor="start" x="8" y="-37.5" font-family="Helvetica,sans-Serif" font-size="10.00">+ utc</text>
<text text-anchor="start" x="8" y="-26.5" font-family="Helvetica,sans-Serif" font-size="10.00">+ pass</text>
<polyline fill="none" stroke="black" points="-3.55271e-15,-19.5 49,-19.5 "/>
<text text-anchor="middle" x="24.5" y="-7.5" font-family="Helvetica,sans-Serif" font-size="10.00"> </text>
</g>
<!-- Node2 -->
<g id="node2" class="node"><title>Node2</title>
<g id="a_node2"><a xlink:href="structrvector.html" target="_top" xlink:title="3 element generic row vector ">
<polygon fill="white" stroke="black" points="1,-138.5 1,-195.5 48,-195.5 48,-138.5 1,-138.5"/>
<text text-anchor="middle" x="24.5" y="-183.5" font-family="Helvetica,sans-Serif" font-size="10.00">rvector</text>
<polyline fill="none" stroke="black" points="1,-176.5 48,-176.5 "/>
<text text-anchor="start" x="9" y="-164.5" font-family="Helvetica,sans-Serif" font-size="10.00">+ col</text>
<polyline fill="none" stroke="black" points="1,-157.5 48,-157.5 "/>
<text text-anchor="middle" x="24.5" y="-145.5" font-family="Helvetica,sans-Serif" font-size="10.00"> </text>
</a>
</g>
</g>
<!-- Node2&#45;&gt;Node1 -->
<g id="edge1" class="edge"><title>Node2&#45;&gt;Node1</title>
<path fill="none" stroke="#404040" d="M24.5,-138.324C24.5,-121.63 24.5,-99.9589 24.5,-80.8185"/>
<polygon fill="none" stroke="#404040" points="24.5001,-80.6838 20.5,-74.6838 24.5,-68.6838 28.5,-74.6838 24.5001,-80.6838"/>
<text text-anchor="middle" x="32" y="-112" font-family="Helvetica,sans-Serif" font-size="10.00"> +a</text>
<text text-anchor="middle" x="32" y="-101" font-family="Helvetica,sans-Serif" font-size="10.00">+s</text>
<text text-anchor="middle" x="32" y="-90" font-family="Helvetica,sans-Serif" font-size="10.00">+v</text>
</g>
</g>
</svg>
