<?xml version="1.0" encoding="UTF-8" standalone="no"?>
<!DOCTYPE svg PUBLIC "-//W3C//DTD SVG 1.1//EN"
 "http://www.w3.org/Graphics/SVG/1.1/DTD/svg11.dtd">
<!-- Generated by graphviz version 2.38.0 (20140413.2041)
 -->
<!-- Title: geoidpos Pages: 1 -->
<svg width="64pt" height="226pt"
 viewBox="0.00 0.00 64.00 226.00" xmlns="http://www.w3.org/2000/svg" xmlns:xlink="http://www.w3.org/1999/xlink">
<g id="graph0" class="graph" transform="scale(1 1) rotate(0) translate(4 222)">
<title>geoidpos</title>
<polygon fill="white" stroke="none" points="-4,4 -4,-222 60,-222 60,4 -4,4"/>
<!-- Node1 -->
<g id="node1" class="node"><title>Node1</title>
<polygon fill="#bfbfbf" stroke="black" points="-3.55271e-15,-0.5 -3.55271e-15,-68.5 56,-68.5 56,-0.5 -3.55271e-15,-0.5"/>
<text text-anchor="middle" x="28" y="-56.5" font-family="Helvetica,sans-Serif" font-size="10.00">geoidpos</text>
<polyline fill="none" stroke="black" points="-3.55271e-15,-49.5 56,-49.5 "/>
<text text-anchor="start" x="8" y="-37.5" font-family="Helvetica,sans-Serif" font-size="10.00">+ utc</text>
<text text-anchor="start" x="8" y="-26.5" font-family="Helvetica,sans-Serif" font-size="10.00">+ pass</text>
<polyline fill="none" stroke="black" points="-3.55271e-15,-19.5 56,-19.5 "/>
<text text-anchor="middle" x="28" y="-7.5" font-family="Helvetica,sans-Serif" font-size="10.00"> </text>
</g>
<!-- Node2 -->
<g id="node2" class="node"><title>Node2</title>
<g id="a_node2"><a xlink:href="structgvector.html" target="_top" xlink:title="3 element geodetic vector ">
<polygon fill="white" stroke="black" points="3.5,-138.5 3.5,-217.5 52.5,-217.5 52.5,-138.5 3.5,-138.5"/>
<text text-anchor="middle" x="28" y="-205.5" font-family="Helvetica,sans-Serif" font-size="10.00">gvector</text>
<polyline fill="none" stroke="black" points="3.5,-198.5 52.5,-198.5 "/>
<text text-anchor="start" x="11.5" y="-186.5" font-family="Helvetica,sans-Serif" font-size="10.00">+ lat</text>
<text text-anchor="start" x="11.5" y="-175.5" font-family="Helvetica,sans-Serif" font-size="10.00">+ lon</text>
<text text-anchor="start" x="11.5" y="-164.5" font-family="Helvetica,sans-Serif" font-size="10.00">+ h</text>
<polyline fill="none" stroke="black" points="3.5,-157.5 52.5,-157.5 "/>
<text text-anchor="middle" x="28" y="-145.5" font-family="Helvetica,sans-Serif" font-size="10.00"> </text>
</a>
</g>
</g>
<!-- Node2&#45;&gt;Node1 -->
<g id="edge1" class="edge"><title>Node2&#45;&gt;Node1</title>
<path fill="none" stroke="#404040" d="M28,-138.335C28,-120.565 28,-99.3687 28,-80.8499"/>
<polygon fill="none" stroke="#404040" points="28.0001,-80.832 24,-74.832 28,-68.832 32,-74.8319 28.0001,-80.832"/>
<text text-anchor="middle" x="35.5" y="-112" font-family="Helvetica,sans-Serif" font-size="10.00"> +a</text>
<text text-anchor="middle" x="35.5" y="-101" font-family="Helvetica,sans-Serif" font-size="10.00">+s</text>
<text text-anchor="middle" x="35.5" y="-90" font-family="Helvetica,sans-Serif" font-size="10.00">+v</text>
</g>
</g>
</svg>
