<?xml version="1.0" encoding="UTF-8" standalone="no"?>
<!DOCTYPE svg PUBLIC "-//W3C//DTD SVG 1.1//EN"
 "http://www.w3.org/Graphics/SVG/1.1/DTD/svg11.dtd">
<!-- Generated by graphviz version 2.38.0 (20140413.2041)
 -->
<!-- Title: jsonmap Pages: 1 -->
<svg width="154pt" height="171pt"
 viewBox="0.00 0.00 154.00 171.00" xmlns="http://www.w3.org/2000/svg" xmlns:xlink="http://www.w3.org/1999/xlink">
<g id="graph0" class="graph" transform="scale(1 1) rotate(0) translate(4 167)">
<title>jsonmap</title>
<polygon fill="white" stroke="none" points="-4,4 -4,-167 150,-167 150,4 -4,4"/>
<!-- Node1 -->
<g id="node1" class="node"><title>Node1</title>
<polygon fill="#bfbfbf" stroke="black" points="46.5,-0.5 46.5,-57.5 99.5,-57.5 99.5,-0.5 46.5,-0.5"/>
<text text-anchor="middle" x="73" y="-45.5" font-family="Helvetica,sans-Serif" font-size="10.00">jsonmap</text>
<polyline fill="none" stroke="black" points="46.5,-38.5 99.5,-38.5 "/>
<text text-anchor="middle" x="73" y="-26.5" font-family="Helvetica,sans-Serif" font-size="10.00"> </text>
<polyline fill="none" stroke="black" points="46.5,-19.5 99.5,-19.5 "/>
<text text-anchor="middle" x="73" y="-7.5" font-family="Helvetica,sans-Serif" font-size="10.00"> </text>
</g>
<!-- Node2 -->
<g id="node2" class="node"><title>Node2</title>
<polygon fill="white" stroke="#bfbfbf" points="0,-105.5 0,-162.5 146,-162.5 146,-105.5 0,-105.5"/>
<text text-anchor="middle" x="73" y="-150.5" font-family="Helvetica,sans-Serif" font-size="10.00">vector&lt; vector&lt; jsonentry &gt; &gt;</text>
<polyline fill="none" stroke="#bfbfbf" points="0,-143.5 146,-143.5 "/>
<text text-anchor="middle" x="73" y="-131.5" font-family="Helvetica,sans-Serif" font-size="10.00"> </text>
<polyline fill="none" stroke="#bfbfbf" points="0,-124.5 146,-124.5 "/>
<text text-anchor="middle" x="73" y="-112.5" font-family="Helvetica,sans-Serif" font-size="10.00"> </text>
</g>
<!-- Node2&#45;&gt;Node1 -->
<g id="edge1" class="edge"><title>Node2&#45;&gt;Node1</title>
<path fill="none" stroke="#404040" d="M73,-105.398C73,-94.5451 73,-81.8731 73,-70.0493"/>
<polygon fill="none" stroke="#404040" points="73.0001,-69.6783 69,-63.6783 73,-57.6783 77,-63.6783 73.0001,-69.6783"/>
<text text-anchor="middle" x="88.5" y="-79" font-family="Helvetica,sans-Serif" font-size="10.00"> +entry</text>
</g>
</g>
</svg>
