<?xml version="1.0" encoding="UTF-8" standalone="no"?>
<!DOCTYPE svg PUBLIC "-//W3C//DTD SVG 1.1//EN"
 "http://www.w3.org/Graphics/SVG/1.1/DTD/svg11.dtd">
<!-- Generated by graphviz version 2.38.0 (20140413.2041)
 -->
<!-- Title: Cosmos::Support::Json::Object Pages: 1 -->
<svg width="137pt" height="193pt"
 viewBox="0.00 0.00 137.00 193.00" xmlns="http://www.w3.org/2000/svg" xmlns:xlink="http://www.w3.org/1999/xlink">
<g id="graph0" class="graph" transform="scale(1 1) rotate(0) translate(4 189)">
<title>Cosmos::Support::Json::Object</title>
<polygon fill="white" stroke="none" points="-4,4 -4,-189 133,-189 133,4 -4,4"/>
<!-- Node1 -->
<g id="node1" class="node"><title>Node1</title>
<polygon fill="#bfbfbf" stroke="black" points="4.5,-0.5 4.5,-68.5 124.5,-68.5 124.5,-0.5 4.5,-0.5"/>
<text text-anchor="start" x="12.5" y="-56.5" font-family="Helvetica,sans-Serif" font-size="10.00">Cosmos::Support::Json</text>
<text text-anchor="middle" x="64.5" y="-45.5" font-family="Helvetica,sans-Serif" font-size="10.00">::Object</text>
<polyline fill="none" stroke="black" points="4.5,-38.5 124.5,-38.5 "/>
<text text-anchor="middle" x="64.5" y="-26.5" font-family="Helvetica,sans-Serif" font-size="10.00"> </text>
<polyline fill="none" stroke="black" points="4.5,-19.5 124.5,-19.5 "/>
<text text-anchor="middle" x="64.5" y="-7.5" font-family="Helvetica,sans-Serif" font-size="10.00"> </text>
</g>
<!-- Node2 -->
<g id="node2" class="node"><title>Node2</title>
<polygon fill="white" stroke="#bfbfbf" points="0,-116.5 0,-184.5 129,-184.5 129,-116.5 0,-116.5"/>
<text text-anchor="start" x="8" y="-172.5" font-family="Helvetica,sans-Serif" font-size="10.00">vector&lt; Cosmos::Support</text>
<text text-anchor="middle" x="64.5" y="-161.5" font-family="Helvetica,sans-Serif" font-size="10.00">::Json::Member &gt;</text>
<polyline fill="none" stroke="#bfbfbf" points="0,-154.5 129,-154.5 "/>
<text text-anchor="middle" x="64.5" y="-142.5" font-family="Helvetica,sans-Serif" font-size="10.00"> </text>
<polyline fill="none" stroke="#bfbfbf" points="0,-135.5 129,-135.5 "/>
<text text-anchor="middle" x="64.5" y="-123.5" font-family="Helvetica,sans-Serif" font-size="10.00"> </text>
</g>
<!-- Node2&#45;&gt;Node1 -->
<g id="edge1" class="edge"><title>Node2&#45;&gt;Node1</title>
<path fill="none" stroke="#404040" d="M64.5,-116.22C64.5,-105.099 64.5,-92.5117 64.5,-80.6422"/>
<polygon fill="none" stroke="#404040" points="64.5001,-80.6243 60.5,-74.6243 64.5,-68.6243 68.5,-74.6242 64.5001,-80.6243"/>
<text text-anchor="middle" x="89.5" y="-90" font-family="Helvetica,sans-Serif" font-size="10.00"> +members</text>
</g>
</g>
</svg>
