<?xml version="1.0" encoding="UTF-8" standalone="no"?>
<!DOCTYPE svg PUBLIC "-//W3C//DTD SVG 1.1//EN"
 "http://www.w3.org/Graphics/SVG/1.1/DTD/svg11.dtd">
<!-- Generated by graphviz version 2.38.0 (20140413.2041)
 -->
<!-- Title: devspecstruc Pages: 1 -->
<svg width="104pt" height="391pt"
 viewBox="0.00 0.00 104.00 391.00" xmlns="http://www.w3.org/2000/svg" xmlns:xlink="http://www.w3.org/1999/xlink">
<g id="graph0" class="graph" transform="scale(1 1) rotate(0) translate(4 387)">
<title>devspecstruc</title>
<polygon fill="white" stroke="none" points="-4,4 -4,-387 100,-387 100,4 -4,4"/>
<!-- Node1 -->
<g id="node1" class="node"><title>Node1</title>
<polygon fill="#bfbfbf" stroke="black" points="8,-0.5 8,-167.5 88,-167.5 88,-0.5 8,-0.5"/>
<text text-anchor="middle" x="48" y="-155.5" font-family="Helvetica,sans-Serif" font-size="10.00">devspecstruc</text>
<polyline fill="none" stroke="black" points="8,-148.5 88,-148.5 "/>
<text text-anchor="start" x="16" y="-136.5" font-family="Helvetica,sans-Serif" font-size="10.00">+ ant_cnt</text>
<text text-anchor="start" x="16" y="-125.5" font-family="Helvetica,sans-Serif" font-size="10.00">+ batt_cnt</text>
<text text-anchor="start" x="16" y="-114.5" font-family="Helvetica,sans-Serif" font-size="10.00">+ bus_cnt</text>
<text text-anchor="start" x="16" y="-103.5" font-family="Helvetica,sans-Serif" font-size="10.00">+ cam_cnt</text>
<text text-anchor="start" x="16" y="-92.5" font-family="Helvetica,sans-Serif" font-size="10.00">+ cpu_cnt</text>
<text text-anchor="start" x="16" y="-81.5" font-family="Helvetica,sans-Serif" font-size="10.00">+ disk_cnt</text>
<text text-anchor="start" x="16" y="-70.5" font-family="Helvetica,sans-Serif" font-size="10.00">+ gps_cnt</text>
<text text-anchor="start" x="16" y="-59.5" font-family="Helvetica,sans-Serif" font-size="10.00">+ htr_cnt</text>
<text text-anchor="start" x="16" y="-48.5" font-family="Helvetica,sans-Serif" font-size="10.00">+ imu_cnt</text>
<text text-anchor="start" x="16" y="-37.5" font-family="Helvetica,sans-Serif" font-size="10.00">+ mcc_cnt</text>
<text text-anchor="start" x="16" y="-26.5" font-family="Helvetica,sans-Serif" font-size="10.00">and 43 more...</text>
<polyline fill="none" stroke="black" points="8,-19.5 88,-19.5 "/>
<text text-anchor="middle" x="48" y="-7.5" font-family="Helvetica,sans-Serif" font-size="10.00"> </text>
</g>
<!-- Node2 -->
<g id="node2" class="node"><title>Node2</title>
<polygon fill="white" stroke="#bfbfbf" points="0,-325.5 0,-382.5 96,-382.5 96,-325.5 0,-325.5"/>
<text text-anchor="middle" x="48" y="-370.5" font-family="Helvetica,sans-Serif" font-size="10.00">vector&lt; uint16_t &gt;</text>
<polyline fill="none" stroke="#bfbfbf" points="0,-363.5 96,-363.5 "/>
<text text-anchor="middle" x="48" y="-351.5" font-family="Helvetica,sans-Serif" font-size="10.00"> </text>
<polyline fill="none" stroke="#bfbfbf" points="0,-344.5 96,-344.5 "/>
<text text-anchor="middle" x="48" y="-332.5" font-family="Helvetica,sans-Serif" font-size="10.00"> </text>
</g>
<!-- Node2&#45;&gt;Node1 -->
<g id="edge1" class="edge"><title>Node2&#45;&gt;Node1</title>
<path fill="none" stroke="#404040" d="M48,-325.329C48,-291.157 48,-231.237 48,-179.779"/>
<polygon fill="none" stroke="#404040" points="48.0001,-179.584 44,-173.584 48,-167.584 52,-173.584 48.0001,-179.584"/>
<text text-anchor="middle" x="63.5" y="-299" font-family="Helvetica,sans-Serif" font-size="10.00"> +tsen</text>
<text text-anchor="middle" x="63.5" y="-288" font-family="Helvetica,sans-Serif" font-size="10.00">+cam</text>
<text text-anchor="middle" x="63.5" y="-277" font-family="Helvetica,sans-Serif" font-size="10.00">+swch</text>
<text text-anchor="middle" x="63.5" y="-266" font-family="Helvetica,sans-Serif" font-size="10.00">+ssen</text>
<text text-anchor="middle" x="63.5" y="-255" font-family="Helvetica,sans-Serif" font-size="10.00">+imu</text>
<text text-anchor="middle" x="63.5" y="-244" font-family="Helvetica,sans-Serif" font-size="10.00">+bus</text>
<text text-anchor="middle" x="63.5" y="-233" font-family="Helvetica,sans-Serif" font-size="10.00">+telem</text>
<text text-anchor="middle" x="63.5" y="-222" font-family="Helvetica,sans-Serif" font-size="10.00">+all</text>
<text text-anchor="middle" x="63.5" y="-211" font-family="Helvetica,sans-Serif" font-size="10.00">+suchi</text>
<text text-anchor="middle" x="63.5" y="-200" font-family="Helvetica,sans-Serif" font-size="10.00">+stt</text>
<text text-anchor="middle" x="63.5" y="-189" font-family="Helvetica,sans-Serif" font-size="10.00">...</text>
</g>
</g>
</svg>
