<?xml version="1.0" encoding="UTF-8" standalone="no"?>
<!DOCTYPE svg PUBLIC "-//W3C//DTD SVG 1.1//EN"
 "http://www.w3.org/Graphics/SVG/1.1/DTD/svg11.dtd">
<!-- Generated by graphviz version 2.38.0 (20140413.2041)
 -->
<!-- Title: rmatrix Pages: 1 -->
<svg width="57pt" height="171pt"
 viewBox="0.00 0.00 56.50 171.00" xmlns="http://www.w3.org/2000/svg" xmlns:xlink="http://www.w3.org/1999/xlink">
<g id="graph0" class="graph" transform="scale(1 1) rotate(0) translate(4 167)">
<title>rmatrix</title>
<polygon fill="white" stroke="none" points="-4,4 -4,-167 52.5,-167 52.5,4 -4,4"/>
<!-- Node1 -->
<g id="node1" class="node"><title>Node1</title>
<polygon fill="#bfbfbf" stroke="black" points="0,-0.5 0,-57.5 47,-57.5 47,-0.5 0,-0.5"/>
<text text-anchor="middle" x="23.5" y="-45.5" font-family="Helvetica,sans-Serif" font-size="10.00">rmatrix</text>
<polyline fill="none" stroke="black" points="0,-38.5 47,-38.5 "/>
<text text-anchor="middle" x="23.5" y="-26.5" font-family="Helvetica,sans-Serif" font-size="10.00"> </text>
<polyline fill="none" stroke="black" points="0,-19.5 47,-19.5 "/>
<text text-anchor="middle" x="23.5" y="-7.5" font-family="Helvetica,sans-Serif" font-size="10.00"> </text>
</g>
<!-- Node2 -->
<g id="node2" class="node"><title>Node2</title>
<g id="a_node2"><a xlink:href="structrvector.html" target="_top" xlink:title="3 element generic row vector ">
<polygon fill="white" stroke="black" points="0,-105.5 0,-162.5 47,-162.5 47,-105.5 0,-105.5"/>
<text text-anchor="middle" x="23.5" y="-150.5" font-family="Helvetica,sans-Serif" font-size="10.00">rvector</text>
<polyline fill="none" stroke="black" points="0,-143.5 47,-143.5 "/>
<text text-anchor="start" x="8" y="-131.5" font-family="Helvetica,sans-Serif" font-size="10.00">+ col</text>
<polyline fill="none" stroke="black" points="0,-124.5 47,-124.5 "/>
<text text-anchor="middle" x="23.5" y="-112.5" font-family="Helvetica,sans-Serif" font-size="10.00"> </text>
</a>
</g>
</g>
<!-- Node2&#45;&gt;Node1 -->
<g id="edge1" class="edge"><title>Node2&#45;&gt;Node1</title>
<path fill="none" stroke="#404040" d="M23.5,-105.398C23.5,-94.5451 23.5,-81.8731 23.5,-70.0493"/>
<polygon fill="none" stroke="#404040" points="23.5001,-69.6783 19.5,-63.6783 23.5,-57.6783 27.5,-63.6783 23.5001,-69.6783"/>
<text text-anchor="middle" x="36" y="-79" font-family="Helvetica,sans-Serif" font-size="10.00"> +row</text>
</g>
</g>
</svg>
