<?xml version="1.0" encoding="UTF-8" standalone="no"?>
<!DOCTYPE svg PUBLIC "-//W3C//DTD SVG 1.1//EN"
 "http://www.w3.org/Graphics/SVG/1.1/DTD/svg11.dtd">
<!-- Generated by graphviz version 2.38.0 (20140413.2041)
 -->
<!-- Title: dcmatt Pages: 1 -->
<svg width="96pt" height="276pt"
 viewBox="0.00 0.00 96.00 276.00" xmlns="http://www.w3.org/2000/svg" xmlns:xlink="http://www.w3.org/1999/xlink">
<g id="graph0" class="graph" transform="scale(1 1) rotate(0) translate(4 272)">
<title>dcmatt</title>
<polygon fill="white" stroke="none" points="-4,4 -4,-272 92,-272 92,4 -4,4"/>
<!-- Node1 -->
<g id="node1" class="node"><title>Node1</title>
<polygon fill="#bfbfbf" stroke="black" points="0,-0.5 0,-57.5 47,-57.5 47,-0.5 0,-0.5"/>
<text text-anchor="middle" x="23.5" y="-45.5" font-family="Helvetica,sans-Serif" font-size="10.00">dcmatt</text>
<polyline fill="none" stroke="black" points="0,-38.5 47,-38.5 "/>
<text text-anchor="start" x="8" y="-26.5" font-family="Helvetica,sans-Serif" font-size="10.00">+ utc</text>
<polyline fill="none" stroke="black" points="0,-19.5 47,-19.5 "/>
<text text-anchor="middle" x="23.5" y="-7.5" font-family="Helvetica,sans-Serif" font-size="10.00"> </text>
</g>
<!-- Node2 -->
<g id="node2" class="node"><title>Node2</title>
<g id="a_node2"><a xlink:href="structrvector.html" target="_top" xlink:title="3 element generic row vector ">
<polygon fill="white" stroke="black" points="6,-210.5 6,-267.5 53,-267.5 53,-210.5 6,-210.5"/>
<text text-anchor="middle" x="29.5" y="-255.5" font-family="Helvetica,sans-Serif" font-size="10.00">rvector</text>
<polyline fill="none" stroke="black" points="6,-248.5 53,-248.5 "/>
<text text-anchor="start" x="14" y="-236.5" font-family="Helvetica,sans-Serif" font-size="10.00">+ col</text>
<polyline fill="none" stroke="black" points="6,-229.5 53,-229.5 "/>
<text text-anchor="middle" x="29.5" y="-217.5" font-family="Helvetica,sans-Serif" font-size="10.00"> </text>
</a>
</g>
</g>
<!-- Node2&#45;&gt;Node1 -->
<g id="edge1" class="edge"><title>Node2&#45;&gt;Node1</title>
<path fill="none" stroke="#404040" d="M23.5422,-210.366C20.8006,-196.267 17.8592,-178.8 16.5,-163 13.8091,-131.72 15.9419,-96.2059 18.5385,-69.7491"/>
<polygon fill="none" stroke="#404040" points="18.5669,-69.4802 15.2214,-63.0921 19.8313,-57.547 23.1769,-63.9351 18.5669,-69.4802"/>
<text text-anchor="middle" x="24" y="-137" font-family="Helvetica,sans-Serif" font-size="10.00"> +a</text>
<text text-anchor="middle" x="24" y="-126" font-family="Helvetica,sans-Serif" font-size="10.00">+v</text>
</g>
<!-- Node3 -->
<g id="node3" class="node"><title>Node3</title>
<g id="a_node3"><a xlink:href="structrmatrix.html" target="_top" xlink:title="3x3 element generic matrix ">
<polygon fill="white" stroke="black" points="41,-105.5 41,-162.5 88,-162.5 88,-105.5 41,-105.5"/>
<text text-anchor="middle" x="64.5" y="-150.5" font-family="Helvetica,sans-Serif" font-size="10.00">rmatrix</text>
<polyline fill="none" stroke="black" points="41,-143.5 88,-143.5 "/>
<text text-anchor="middle" x="64.5" y="-131.5" font-family="Helvetica,sans-Serif" font-size="10.00"> </text>
<polyline fill="none" stroke="black" points="41,-124.5 88,-124.5 "/>
<text text-anchor="middle" x="64.5" y="-112.5" font-family="Helvetica,sans-Serif" font-size="10.00"> </text>
</a>
</g>
</g>
<!-- Node2&#45;&gt;Node3 -->
<g id="edge3" class="edge"><title>Node2&#45;&gt;Node3</title>
<path fill="none" stroke="#404040" d="M38.8794,-210.398C42.6456,-199.314 47.0567,-186.333 51.1471,-174.296"/>
<polygon fill="none" stroke="#404040" points="51.2338,-174.04 49.377,-167.072 55.0948,-162.678 56.9516,-169.646 51.2338,-174.04"/>
<text text-anchor="middle" x="61" y="-184" font-family="Helvetica,sans-Serif" font-size="10.00"> +row</text>
</g>
<!-- Node3&#45;&gt;Node1 -->
<g id="edge2" class="edge"><title>Node3&#45;&gt;Node1</title>
<path fill="none" stroke="#404040" d="M53.5128,-105.398C49.0549,-94.1988 43.8258,-81.0624 38.9924,-68.9199"/>
<polygon fill="none" stroke="#404040" points="38.9557,-68.8275 33.0202,-64.7323 34.5176,-57.6783 40.453,-61.7735 38.9557,-68.8275"/>
<text text-anchor="middle" x="53" y="-79" font-family="Helvetica,sans-Serif" font-size="10.00"> +s</text>
</g>
</g>
</svg>
