<?xml version="1.0" encoding="UTF-8" standalone="no"?>
<!DOCTYPE svg PUBLIC "-//W3C//DTD SVG 1.1//EN"
 "http://www.w3.org/Graphics/SVG/1.1/DTD/svg11.dtd">
<!-- Generated by graphviz version 2.38.0 (20140413.2041)
 -->
<!-- Title: antennastruc Pages: 1 -->
<!--zoomable 700 -->
<svg id="main" version="1.1" xmlns="http://www.w3.org/2000/svg" xmlns:xlink="http://www.w3.org/1999/xlink" xml:space="preserve" onload="init(evt)">
<style type="text/css"><![CDATA[
.edge:hover path { stroke: red; }
.edge:hover polygon { stroke: red; fill: red; }
]]></style>
<script type="text/javascript"><![CDATA[
var edges = document.getElementsByTagName('g');
if (edges && edges.length) {
  for (var i=0;i<edges.length;i++) {
    if (edges[i].id.substr(0,4)=='edge') {
      edges[i].setAttribute('class','edge');
    }
  }
}
]]></script>
        <defs>
                <circle id="rim" cx="0" cy="0" r="7"/>
                <circle id="rim2" cx="0" cy="0" r="3.5"/>
                <g id="zoomPlus">
                        <use xlink:href="#rim" fill="#404040">
                                <set attributeName="fill" to="#808080" begin="zoomplus.mouseover" end="zoomplus.mouseout"/>
                        </use>
                        <path d="M-4,0h8M0,-4v8" fill="none" stroke="white" stroke-width="1.5" pointer-events="none"/>
                </g>
                <g id="zoomMin">
                        <use xlink:href="#rim" fill="#404040">
                                <set attributeName="fill" to="#808080" begin="zoomminus.mouseover" end="zoomminus.mouseout"/>
                        </use>
                        <path d="M-4,0h8" fill="none" stroke="white" stroke-width="1.5" pointer-events="none"/>
                </g>
                <g id="dirArrow">
                        <path fill="none" stroke="white" stroke-width="1.5" d="M0,-3.0v7 M-2.5,-0.5L0,-3.0L2.5,-0.5"/>
                </g>
               <g id="resetDef">
                       <use xlink:href="#rim2" fill="#404040">
                               <set attributeName="fill" to="#808080" begin="reset.mouseover" end="reset.mouseout"/>
                       </use>
               </g>
        </defs>

<script type="text/javascript">
var viewWidth = 235;
var viewHeight = 700;
var sectionId = 'dynsection-0';
</script>
<script xlink:href="svgpan.js"/>
<svg id="graph" class="graph">
<g id="viewport">
<title>antennastruc</title>
<polygon fill="white" stroke="none" points="-4,4 -4,-696 230.5,-696 230.5,4 -4,4"/>
<!-- Node1 -->
<g id="node1" class="node"><title>Node1</title>
<polygon fill="#bfbfbf" stroke="black" points="90.5,-0.5 90.5,-57.5 163.5,-57.5 163.5,-0.5 90.5,-0.5"/>
<text text-anchor="middle" x="127" y="-45.5" font-family="Helvetica,sans-Serif" font-size="10.00">antennastruc</text>
<polyline fill="none" stroke="black" points="90.5,-38.5 163.5,-38.5 "/>
<text text-anchor="middle" x="127" y="-26.5" font-family="Helvetica,sans-Serif" font-size="10.00"> </text>
<polyline fill="none" stroke="black" points="90.5,-19.5 163.5,-19.5 "/>
<text text-anchor="middle" x="127" y="-7.5" font-family="Helvetica,sans-Serif" font-size="10.00"> </text>
</g>
<!-- Node2 -->
<g id="node2" class="node"><title>Node2</title>
<g id="a_node2"><a xlink:href="structantstruc.html" target="_top" xlink:title="Antenna information. ">
<polygon fill="white" stroke="black" points="17.5,-138.5 17.5,-261.5 88.5,-261.5 88.5,-138.5 17.5,-138.5"/>
<text text-anchor="middle" x="53" y="-249.5" font-family="Helvetica,sans-Serif" font-size="10.00">antstruc</text>
<polyline fill="none" stroke="black" points="17.5,-242.5 88.5,-242.5 "/>
<text text-anchor="start" x="25.5" y="-230.5" font-family="Helvetica,sans-Serif" font-size="10.00">+ azim</text>
<text text-anchor="start" x="25.5" y="-219.5" font-family="Helvetica,sans-Serif" font-size="10.00">+ elev</text>
<text text-anchor="start" x="25.5" y="-208.5" font-family="Helvetica,sans-Serif" font-size="10.00">+ minelev</text>
<text text-anchor="start" x="25.5" y="-197.5" font-family="Helvetica,sans-Serif" font-size="10.00">+ maxelev</text>
<text text-anchor="start" x="25.5" y="-186.5" font-family="Helvetica,sans-Serif" font-size="10.00">+ minazim</text>
<text text-anchor="start" x="25.5" y="-175.5" font-family="Helvetica,sans-Serif" font-size="10.00">+ maxazim</text>
<text text-anchor="start" x="25.5" y="-164.5" font-family="Helvetica,sans-Serif" font-size="10.00">+ threshelev</text>
<polyline fill="none" stroke="black" points="17.5,-157.5 88.5,-157.5 "/>
<text text-anchor="middle" x="53" y="-145.5" font-family="Helvetica,sans-Serif" font-size="10.00"> </text>
</a>
</g>
</g>
<!-- Node2&#45;&gt;Node1 -->
<g id="edge1" class="edge"><title>Node2&#45;&gt;Node1</title>
<path fill="none" stroke="#404040" d="M72.3712,-138.192C79.5502,-118.019 88.3253,-95.6946 98,-76 99.2644,-73.4262 100.637,-70.8155 102.074,-68.213"/>
<polygon fill="none" stroke="#404040" points="102.179,-68.0344 101.755,-60.8358 108.236,-57.6755 108.66,-64.8742 102.179,-68.0344"/>
<text text-anchor="middle" x="110.5" y="-79" font-family="Helvetica,sans-Serif" font-size="10.00"> +info</text>
</g>
<!-- Node3 -->
<g id="node3" class="node"><title>Node3</title>
<g id="a_node3"><a xlink:href="structallstruc.html" target="_top" xlink:title="All Component structure. ">
<polygon fill="white" stroke="black" points="0,-342.5 0,-509.5 74,-509.5 74,-342.5 0,-342.5"/>
<text text-anchor="middle" x="37" y="-497.5" font-family="Helvetica,sans-Serif" font-size="10.00">allstruc</text>
<polyline fill="none" stroke="black" points="0,-490.5 74,-490.5 "/>
<text text-anchor="start" x="8" y="-478.5" font-family="Helvetica,sans-Serif" font-size="10.00">+ enabled</text>
<text text-anchor="start" x="8" y="-467.5" font-family="Helvetica,sans-Serif" font-size="10.00">+ type</text>
<text text-anchor="start" x="8" y="-456.5" font-family="Helvetica,sans-Serif" font-size="10.00">+ model</text>
<text text-anchor="start" x="8" y="-445.5" font-family="Helvetica,sans-Serif" font-size="10.00">+ flag</text>
<text text-anchor="start" x="8" y="-434.5" font-family="Helvetica,sans-Serif" font-size="10.00">+ addr</text>
<text text-anchor="start" x="8" y="-423.5" font-family="Helvetica,sans-Serif" font-size="10.00">+ cidx</text>
<text text-anchor="start" x="8" y="-412.5" font-family="Helvetica,sans-Serif" font-size="10.00">+ didx</text>
<text text-anchor="start" x="8" y="-401.5" font-family="Helvetica,sans-Serif" font-size="10.00">+ pidx</text>
<text text-anchor="start" x="8" y="-390.5" font-family="Helvetica,sans-Serif" font-size="10.00">+ bidx</text>
<text text-anchor="start" x="8" y="-379.5" font-family="Helvetica,sans-Serif" font-size="10.00">+ portidx</text>
<text text-anchor="start" x="8" y="-368.5" font-family="Helvetica,sans-Serif" font-size="10.00">and 9 more...</text>
<polyline fill="none" stroke="black" points="0,-361.5 74,-361.5 "/>
<text text-anchor="middle" x="37" y="-349.5" font-family="Helvetica,sans-Serif" font-size="10.00"> </text>
</a>
</g>
</g>
<!-- Node3&#45;&gt;Node2 -->
<g id="edge2" class="edge"><title>Node3&#45;&gt;Node2</title>
<path fill="none" stroke="midnightblue" d="M43.6338,-332.127C45.3313,-308.362 47.1134,-283.412 48.6621,-261.731"/>
<polygon fill="none" stroke="midnightblue" points="40.1338,-332.003 42.9124,-342.227 47.116,-332.502 40.1338,-332.003"/>
</g>
<!-- Node4 -->
<g id="node4" class="node"><title>Node4</title>
<g id="a_node4"><a xlink:href="structquaternion.html" target="_top" xlink:title="Quaternion, scalar last, using x, y, z. ">
<polygon fill="white" stroke="black" points="92,-397.5 92,-454.5 154,-454.5 154,-397.5 92,-397.5"/>
<text text-anchor="middle" x="123" y="-442.5" font-family="Helvetica,sans-Serif" font-size="10.00">quaternion</text>
<polyline fill="none" stroke="black" points="92,-435.5 154,-435.5 "/>
<text text-anchor="start" x="100" y="-423.5" font-family="Helvetica,sans-Serif" font-size="10.00">+ w</text>
<polyline fill="none" stroke="black" points="92,-416.5 154,-416.5 "/>
<text text-anchor="middle" x="123" y="-404.5" font-family="Helvetica,sans-Serif" font-size="10.00"> </text>
</a>
</g>
</g>
<!-- Node4&#45;&gt;Node2 -->
<g id="edge3" class="edge"><title>Node4&#45;&gt;Node2</title>
<path fill="none" stroke="#404040" d="M114.276,-397.083C104.661,-366.317 88.8127,-315.601 75.6424,-273.456"/>
<polygon fill="none" stroke="#404040" points="75.5855,-273.273 69.9779,-268.74 72.0061,-261.82 77.6137,-266.353 75.5855,-273.273"/>
<text text-anchor="middle" x="106" y="-316" font-family="Helvetica,sans-Serif" font-size="10.00"> +align</text>
</g>
<!-- Node5 -->
<g id="node5" class="node"><title>Node5</title>
<g id="a_node5"><a xlink:href="classcvector.html" target="_top" xlink:title="3 element cartesian vector ">
<polygon fill="white" stroke="black" points="83.5,-557.5 83.5,-691.5 162.5,-691.5 162.5,-557.5 83.5,-557.5"/>
<text text-anchor="middle" x="123" y="-679.5" font-family="Helvetica,sans-Serif" font-size="10.00">cvector</text>
<polyline fill="none" stroke="black" points="83.5,-672.5 162.5,-672.5 "/>
<text text-anchor="start" x="91.5" y="-660.5" font-family="Helvetica,sans-Serif" font-size="10.00">+ x</text>
<text text-anchor="start" x="91.5" y="-649.5" font-family="Helvetica,sans-Serif" font-size="10.00">+ y</text>
<text text-anchor="start" x="91.5" y="-638.5" font-family="Helvetica,sans-Serif" font-size="10.00">+ z</text>
<polyline fill="none" stroke="black" points="83.5,-631.5 162.5,-631.5 "/>
<text text-anchor="start" x="91.5" y="-619.5" font-family="Helvetica,sans-Serif" font-size="10.00">+ normalize()</text>
<text text-anchor="start" x="91.5" y="-608.5" font-family="Helvetica,sans-Serif" font-size="10.00">+ length()</text>
<text text-anchor="start" x="91.5" y="-597.5" font-family="Helvetica,sans-Serif" font-size="10.00">+ norm()</text>
<text text-anchor="start" x="91.5" y="-586.5" font-family="Helvetica,sans-Serif" font-size="10.00">+ norm2()</text>
<text text-anchor="start" x="91.5" y="-575.5" font-family="Helvetica,sans-Serif" font-size="10.00">+ normalized()</text>
<text text-anchor="start" x="91.5" y="-564.5" font-family="Helvetica,sans-Serif" font-size="10.00">+ operator[]()</text>
</a>
</g>
</g>
<!-- Node5&#45;&gt;Node4 -->
<g id="edge4" class="edge"><title>Node5&#45;&gt;Node4</title>
<path fill="none" stroke="#404040" d="M123,-557.248C123,-527.319 123,-492.943 123,-467.025"/>
<polygon fill="none" stroke="#404040" points="123,-466.674 119,-460.674 123,-454.674 127,-460.674 123,-466.674"/>
<text text-anchor="middle" x="130.5" y="-531" font-family="Helvetica,sans-Serif" font-size="10.00"> +d</text>
</g>
<!-- Node6 -->
<g id="node6" class="node"><title>Node6</title>
<polygon fill="white" stroke="#bfbfbf" points="106.5,-171.5 106.5,-228.5 147.5,-228.5 147.5,-171.5 106.5,-171.5"/>
<text text-anchor="middle" x="127" y="-216.5" font-family="Helvetica,sans-Serif" font-size="10.00">string</text>
<polyline fill="none" stroke="#bfbfbf" points="106.5,-209.5 147.5,-209.5 "/>
<text text-anchor="middle" x="127" y="-197.5" font-family="Helvetica,sans-Serif" font-size="10.00"> </text>
<polyline fill="none" stroke="#bfbfbf" points="106.5,-190.5 147.5,-190.5 "/>
<text text-anchor="middle" x="127" y="-178.5" font-family="Helvetica,sans-Serif" font-size="10.00"> </text>
</g>
<!-- Node6&#45;&gt;Node1 -->
<g id="edge5" class="edge"><title>Node6&#45;&gt;Node1</title>
<path fill="none" stroke="#404040" d="M127,-171.471C127,-143.85 127,-101.027 127,-69.728"/>
<polygon fill="none" stroke="#404040" points="127,-69.5171 123,-63.5171 127,-57.5171 131,-63.5171 127,-69.5171"/>
<text text-anchor="middle" x="144" y="-79" font-family="Helvetica,sans-Serif" font-size="10.00"> +name</text>
</g>
<!-- Node7 -->
<g id="node7" class="node"><title>Node7</title>
<g id="a_node7"><a xlink:href="structbeatstruc.html" target="_top" xlink:title="{beatstruc\n|+ utc\l+ node\l+ proc\l+ ntype\l+ addr\l+ port\l+ bsz\l+ bprd\l+ user\l+ cpu\l+ memory\l+ jitter\l+ exists\l|}">
<polygon fill="white" stroke="black" points="165.5,-105.5 165.5,-294.5 226.5,-294.5 226.5,-105.5 165.5,-105.5"/>
<text text-anchor="middle" x="196" y="-282.5" font-family="Helvetica,sans-Serif" font-size="10.00">beatstruc</text>
<polyline fill="none" stroke="black" points="165.5,-275.5 226.5,-275.5 "/>
<text text-anchor="start" x="173.5" y="-263.5" font-family="Helvetica,sans-Serif" font-size="10.00">+ utc</text>
<text text-anchor="start" x="173.5" y="-252.5" font-family="Helvetica,sans-Serif" font-size="10.00">+ node</text>
<text text-anchor="start" x="173.5" y="-241.5" font-family="Helvetica,sans-Serif" font-size="10.00">+ proc</text>
<text text-anchor="start" x="173.5" y="-230.5" font-family="Helvetica,sans-Serif" font-size="10.00">+ ntype</text>
<text text-anchor="start" x="173.5" y="-219.5" font-family="Helvetica,sans-Serif" font-size="10.00">+ addr</text>
<text text-anchor="start" x="173.5" y="-208.5" font-family="Helvetica,sans-Serif" font-size="10.00">+ port</text>
<text text-anchor="start" x="173.5" y="-197.5" font-family="Helvetica,sans-Serif" font-size="10.00">+ bsz</text>
<text text-anchor="start" x="173.5" y="-186.5" font-family="Helvetica,sans-Serif" font-size="10.00">+ bprd</text>
<text text-anchor="start" x="173.5" y="-175.5" font-family="Helvetica,sans-Serif" font-size="10.00">+ user</text>
<text text-anchor="start" x="173.5" y="-164.5" font-family="Helvetica,sans-Serif" font-size="10.00">+ cpu</text>
<text text-anchor="start" x="173.5" y="-153.5" font-family="Helvetica,sans-Serif" font-size="10.00">+ memory</text>
<text text-anchor="start" x="173.5" y="-142.5" font-family="Helvetica,sans-Serif" font-size="10.00">+ jitter</text>
<text text-anchor="start" x="173.5" y="-131.5" font-family="Helvetica,sans-Serif" font-size="10.00">+ exists</text>
<polyline fill="none" stroke="black" points="165.5,-124.5 226.5,-124.5 "/>
<text text-anchor="middle" x="196" y="-112.5" font-family="Helvetica,sans-Serif" font-size="10.00"> </text>
</a>
</g>
</g>
<!-- Node7&#45;&gt;Node1 -->
<g id="edge6" class="edge"><title>Node7&#45;&gt;Node1</title>
<path fill="none" stroke="#404040" d="M177.099,-105.38C173.679,-95.2237 169.675,-85.2342 165,-76 163.537,-73.1105 161.865,-70.2407 160.056,-67.4289"/>
<polygon fill="none" stroke="#404040" points="159.996,-67.3453 153.258,-64.7763 153.038,-57.5685 159.776,-60.1376 159.996,-67.3453"/>
<text text-anchor="middle" x="184" y="-79" font-family="Helvetica,sans-Serif" font-size="10.00"> +beat</text>
</g>
</g>
</svg>
        <g id="navigator" transform="translate(0 0)" fill="#404254">
                <rect fill="#f2f5e9" fill-opacity="0.5" stroke="#606060" stroke-width=".5" x="0" y="0" width="60" height="60"/>
                <use id="zoomplus" xlink:href="#zoomPlus" x="17" y="9" onmousedown="handleZoom(evt,'in')"/>
                <use id="zoomminus" xlink:href="#zoomMin" x="42" y="9" onmousedown="handleZoom(evt,'out')"/>
                <use id="reset" xlink:href="#resetDef" x="30" y="36" onmousedown="handleReset()"/>
                <g id="arrowUp" xlink:href="#dirArrow" transform="translate(30 24)" onmousedown="handlePan(0,-1)">
                  <use xlink:href="#rim" fill="#404040">
                        <set attributeName="fill" to="#808080" begin="arrowUp.mouseover" end="arrowUp.mouseout"/>
                  </use>
                  <path fill="none" stroke="white" stroke-width="1.5" d="M0,-3.0v7 M-2.5,-0.5L0,-3.0L2.5,-0.5"/>
                </g>
                <g id="arrowRight" xlink:href="#dirArrow" transform="rotate(90) translate(36 -43)" onmousedown="handlePan(1,0)">
                  <use xlink:href="#rim" fill="#404040">
                        <set attributeName="fill" to="#808080" begin="arrowRight.mouseover" end="arrowRight.mouseout"/>
                  </use>
                  <path fill="none" stroke="white" stroke-width="1.5" d="M0,-3.0v7 M-2.5,-0.5L0,-3.0L2.5,-0.5"/>
                </g>
                <g id="arrowDown" xlink:href="#dirArrow" transform="rotate(180) translate(-30 -48)" onmousedown="handlePan(0,1)">
                  <use xlink:href="#rim" fill="#404040">
                        <set attributeName="fill" to="#808080" begin="arrowDown.mouseover" end="arrowDown.mouseout"/>
                  </use>
                  <path fill="none" stroke="white" stroke-width="1.5" d="M0,-3.0v7 M-2.5,-0.5L0,-3.0L2.5,-0.5"/>
                </g>
                <g id="arrowLeft" xlink:href="#dirArrow" transform="rotate(270) translate(-36 17)" onmousedown="handlePan(-1,0)">
                  <use xlink:href="#rim" fill="#404040">
                        <set attributeName="fill" to="#808080" begin="arrowLeft.mouseover" end="arrowLeft.mouseout"/>
                  </use>
                  <path fill="none" stroke="white" stroke-width="1.5" d="M0,-3.0v7 M-2.5,-0.5L0,-3.0L2.5,-0.5"/>
                </g>
        </g>
        <svg viewBox="0 0 15 15" width="100%" height="30px" preserveAspectRatio="xMaxYMin meet">
         <g id="arrow_out" transform="scale(0.3 0.3)">
          <a xlink:href="structantennastruc__coll__graph_org.svg" target="_base">
           <rect id="button" ry="5" rx="5" y="6" x="6" height="38" width="38"
                fill="#f2f5e9" fill-opacity="0.5" stroke="#606060" stroke-width="1.0"/>
           <path id="arrow"
             d="M 11.500037,31.436501 C 11.940474,20.09759 22.043105,11.32322 32.158766,21.979434 L 37.068811,17.246167 C 37.068811,17.246167 37.088388,32 37.088388,32 L 22.160133,31.978069 C 22.160133,31.978069 26.997745,27.140456 26.997745,27.140456 C 18.528582,18.264221 13.291696,25.230495 11.500037,31.436501 z"
             style="fill:#404040;"/>
          </a>
         </g>
        </svg>
</svg>
