<?xml version="1.0" encoding="UTF-8" standalone="no"?>
<!DOCTYPE svg PUBLIC "-//W3C//DTD SVG 1.1//EN"
 "http://www.w3.org/Graphics/SVG/1.1/DTD/svg11.dtd">
<!-- Generated by graphviz version 2.38.0 (20140413.2041)
 -->
<!-- Title: jsonnode Pages: 1 -->
<svg width="79pt" height="292pt"
 viewBox="0.00 0.00 79.00 292.00" xmlns="http://www.w3.org/2000/svg" xmlns:xlink="http://www.w3.org/1999/xlink">
<g id="graph0" class="graph" transform="scale(1 1) rotate(0) translate(4 288)">
<title>jsonnode</title>
<polygon fill="white" stroke="none" points="-4,4 -4,-288 75,-288 75,4 -4,4"/>
<!-- Node1 -->
<g id="node1" class="node"><title>Node1</title>
<polygon fill="#bfbfbf" stroke="black" points="-3.55271e-15,-0.5 -3.55271e-15,-68.5 62,-68.5 62,-0.5 -3.55271e-15,-0.5"/>
<text text-anchor="middle" x="31" y="-56.5" font-family="Helvetica,sans-Serif" font-size="10.00">jsonnode</text>
<polyline fill="none" stroke="black" points="-3.55271e-15,-49.5 62,-49.5 "/>
<text text-anchor="start" x="8" y="-37.5" font-family="Helvetica,sans-Serif" font-size="10.00">+ pieces</text>
<text text-anchor="start" x="8" y="-26.5" font-family="Helvetica,sans-Serif" font-size="10.00">+ devspec</text>
<polyline fill="none" stroke="black" points="-3.55271e-15,-19.5 62,-19.5 "/>
<text text-anchor="middle" x="31" y="-7.5" font-family="Helvetica,sans-Serif" font-size="10.00"> </text>
</g>
<!-- Node2 -->
<g id="node2" class="node"><title>Node2</title>
<polygon fill="white" stroke="#bfbfbf" points="10.5,-226.5 10.5,-283.5 51.5,-283.5 51.5,-226.5 10.5,-226.5"/>
<text text-anchor="middle" x="31" y="-271.5" font-family="Helvetica,sans-Serif" font-size="10.00">string</text>
<polyline fill="none" stroke="#bfbfbf" points="10.5,-264.5 51.5,-264.5 "/>
<text text-anchor="middle" x="31" y="-252.5" font-family="Helvetica,sans-Serif" font-size="10.00"> </text>
<polyline fill="none" stroke="#bfbfbf" points="10.5,-245.5 51.5,-245.5 "/>
<text text-anchor="middle" x="31" y="-233.5" font-family="Helvetica,sans-Serif" font-size="10.00"> </text>
</g>
<!-- Node2&#45;&gt;Node1 -->
<g id="edge1" class="edge"><title>Node2&#45;&gt;Node1</title>
<path fill="none" stroke="#404040" d="M31,-226.327C31,-189.667 31,-124.536 31,-80.6896"/>
<polygon fill="none" stroke="#404040" points="31.0001,-80.6521 27,-74.6521 31,-68.6521 35,-74.652 31.0001,-80.6521"/>
<text text-anchor="middle" x="51" y="-200" font-family="Helvetica,sans-Serif" font-size="10.00"> +ports</text>
<text text-anchor="middle" x="51" y="-189" font-family="Helvetica,sans-Serif" font-size="10.00">+vertexs</text>
<text text-anchor="middle" x="51" y="-178" font-family="Helvetica,sans-Serif" font-size="10.00">+state</text>
<text text-anchor="middle" x="51" y="-167" font-family="Helvetica,sans-Serif" font-size="10.00">+name</text>
<text text-anchor="middle" x="51" y="-156" font-family="Helvetica,sans-Serif" font-size="10.00">+targets</text>
<text text-anchor="middle" x="51" y="-145" font-family="Helvetica,sans-Serif" font-size="10.00">+faces</text>
<text text-anchor="middle" x="51" y="-134" font-family="Helvetica,sans-Serif" font-size="10.00">+devgen</text>
<text text-anchor="middle" x="51" y="-123" font-family="Helvetica,sans-Serif" font-size="10.00">+utcstart</text>
<text text-anchor="middle" x="51" y="-112" font-family="Helvetica,sans-Serif" font-size="10.00">+node</text>
<text text-anchor="middle" x="51" y="-101" font-family="Helvetica,sans-Serif" font-size="10.00">+aliases</text>
<text text-anchor="middle" x="51" y="-90" font-family="Helvetica,sans-Serif" font-size="10.00">...</text>
</g>
</g>
</svg>
