<?xml version="1.0" encoding="UTF-8" standalone="no"?>
<!DOCTYPE svg PUBLIC "-//W3C//DTD SVG 1.1//EN"
 "http://www.w3.org/Graphics/SVG/1.1/DTD/svg11.dtd">
<!-- Generated by graphviz version 2.38.0 (20140413.2041)
 -->
<!-- Title: LsFit::fitelement Pages: 1 -->
<svg width="658pt" height="491pt"
 viewBox="0.00 0.00 658.00 491.00" xmlns="http://www.w3.org/2000/svg" xmlns:xlink="http://www.w3.org/1999/xlink">
<g id="graph0" class="graph" transform="scale(1 1) rotate(0) translate(4 487)">
<title>LsFit::fitelement</title>
<polygon fill="white" stroke="none" points="-4,4 -4,-487 654,-487 654,4 -4,4"/>
<!-- Node1 -->
<g id="node1" class="node"><title>Node1</title>
<polygon fill="#bfbfbf" stroke="black" points="299.5,-0.5 299.5,-57.5 386.5,-57.5 386.5,-0.5 299.5,-0.5"/>
<text text-anchor="middle" x="343" y="-45.5" font-family="Helvetica,sans-Serif" font-size="10.00">LsFit::fitelement</text>
<polyline fill="none" stroke="black" points="299.5,-38.5 386.5,-38.5 "/>
<text text-anchor="start" x="307.5" y="-26.5" font-family="Helvetica,sans-Serif" font-size="10.00">+ x</text>
<polyline fill="none" stroke="black" points="299.5,-19.5 386.5,-19.5 "/>
<text text-anchor="middle" x="343" y="-7.5" font-family="Helvetica,sans-Serif" font-size="10.00"> </text>
</g>
<!-- Node2 -->
<g id="node2" class="node"><title>Node2</title>
<g id="a_node2"><a xlink:href="unionuvector.html" target="_top" xlink:title="Quaternion/Rvector Union. ">
<polygon fill="white" stroke="black" points="318.5,-105.5 318.5,-162.5 367.5,-162.5 367.5,-105.5 318.5,-105.5"/>
<text text-anchor="middle" x="343" y="-150.5" font-family="Helvetica,sans-Serif" font-size="10.00">uvector</text>
<polyline fill="none" stroke="black" points="318.5,-143.5 367.5,-143.5 "/>
<text text-anchor="start" x="326.5" y="-131.5" font-family="Helvetica,sans-Serif" font-size="10.00">+ a4</text>
<polyline fill="none" stroke="black" points="318.5,-124.5 367.5,-124.5 "/>
<text text-anchor="middle" x="343" y="-112.5" font-family="Helvetica,sans-Serif" font-size="10.00"> </text>
</a>
</g>
</g>
<!-- Node2&#45;&gt;Node1 -->
<g id="edge1" class="edge"><title>Node2&#45;&gt;Node1</title>
<path fill="none" stroke="#404040" d="M343,-105.398C343,-94.5451 343,-81.8731 343,-70.0493"/>
<polygon fill="none" stroke="#404040" points="343,-69.6783 339,-63.6783 343,-57.6783 347,-63.6783 343,-69.6783"/>
<text text-anchor="middle" x="350.5" y="-79" font-family="Helvetica,sans-Serif" font-size="10.00"> +y</text>
</g>
<!-- Node3 -->
<g id="node3" class="node"><title>Node3</title>
<g id="a_node3"><a xlink:href="structmatrix1d.html" target="_top" xlink:title="n element row matrix ">
<polygon fill="white" stroke="black" points="0,-221.5 0,-289.5 54,-289.5 54,-221.5 0,-221.5"/>
<text text-anchor="middle" x="27" y="-277.5" font-family="Helvetica,sans-Serif" font-size="10.00">matrix1d</text>
<polyline fill="none" stroke="black" points="0,-270.5 54,-270.5 "/>
<text text-anchor="start" x="8" y="-258.5" font-family="Helvetica,sans-Serif" font-size="10.00">+ vector</text>
<text text-anchor="start" x="8" y="-247.5" font-family="Helvetica,sans-Serif" font-size="10.00">+ cols</text>
<polyline fill="none" stroke="black" points="0,-240.5 54,-240.5 "/>
<text text-anchor="middle" x="27" y="-228.5" font-family="Helvetica,sans-Serif" font-size="10.00"> </text>
</a>
</g>
</g>
<!-- Node3&#45;&gt;Node2 -->
<g id="edge2" class="edge"><title>Node3&#45;&gt;Node2</title>
<path fill="none" stroke="#404040" d="M51.6698,-221.165C55.2589,-217.192 59.0748,-213.361 63,-210 82.5139,-193.292 88.9708,-190.086 113,-181 178.629,-156.186 260.104,-143.936 306.365,-138.579"/>
<polygon fill="none" stroke="#404040" points="306.509,-138.563 312.034,-133.928 318.437,-137.246 312.912,-141.88 306.509,-138.563"/>
<text text-anchor="middle" x="124.5" y="-184" font-family="Helvetica,sans-Serif" font-size="10.00"> +m1</text>
</g>
<!-- Node4 -->
<g id="node4" class="node"><title>Node4</title>
<g id="a_node4"><a xlink:href="structqlast.html" target="_top" xlink:title="Quaternion, scalar last, using vector elements. ">
<polygon fill="white" stroke="black" points="72,-210.5 72,-300.5 110,-300.5 110,-210.5 72,-210.5"/>
<text text-anchor="middle" x="91" y="-288.5" font-family="Helvetica,sans-Serif" font-size="10.00">qlast</text>
<polyline fill="none" stroke="black" points="72,-281.5 110,-281.5 "/>
<text text-anchor="start" x="80" y="-269.5" font-family="Helvetica,sans-Serif" font-size="10.00">+ q1</text>
<text text-anchor="start" x="80" y="-258.5" font-family="Helvetica,sans-Serif" font-size="10.00">+ q2</text>
<text text-anchor="start" x="80" y="-247.5" font-family="Helvetica,sans-Serif" font-size="10.00">+ q3</text>
<text text-anchor="start" x="80" y="-236.5" font-family="Helvetica,sans-Serif" font-size="10.00">+ q4</text>
<polyline fill="none" stroke="black" points="72,-229.5 110,-229.5 "/>
<text text-anchor="middle" x="91" y="-217.5" font-family="Helvetica,sans-Serif" font-size="10.00"> </text>
</a>
</g>
</g>
<!-- Node4&#45;&gt;Node2 -->
<g id="edge3" class="edge"><title>Node4&#45;&gt;Node2</title>
<path fill="none" stroke="#404040" d="M110.079,-220.831C112.85,-217.001 115.842,-213.295 119,-210 134.694,-193.621 140.343,-190.372 161,-181 208.863,-159.284 268.649,-146.673 306.342,-140.314"/>
<polygon fill="none" stroke="#404040" points="306.382,-140.308 311.667,-135.402 318.228,-138.393 312.943,-143.299 306.382,-140.308"/>
<text text-anchor="middle" x="169.5" y="-184" font-family="Helvetica,sans-Serif" font-size="10.00"> +ql</text>
</g>
<!-- Node5 -->
<g id="node5" class="node"><title>Node5</title>
<g id="a_node5"><a xlink:href="structqcomplex.html" target="_top" xlink:title="Quaternion, scalar last, using imaginary elements. ">
<polygon fill="white" stroke="black" points="128.5,-210.5 128.5,-300.5 187.5,-300.5 187.5,-210.5 128.5,-210.5"/>
<text text-anchor="middle" x="158" y="-288.5" font-family="Helvetica,sans-Serif" font-size="10.00">qcomplex</text>
<polyline fill="none" stroke="black" points="128.5,-281.5 187.5,-281.5 "/>
<text text-anchor="start" x="136.5" y="-269.5" font-family="Helvetica,sans-Serif" font-size="10.00">+ i</text>
<text text-anchor="start" x="136.5" y="-258.5" font-family="Helvetica,sans-Serif" font-size="10.00">+ j</text>
<text text-anchor="start" x="136.5" y="-247.5" font-family="Helvetica,sans-Serif" font-size="10.00">+ k</text>
<text text-anchor="start" x="136.5" y="-236.5" font-family="Helvetica,sans-Serif" font-size="10.00">+ r</text>
<polyline fill="none" stroke="black" points="128.5,-229.5 187.5,-229.5 "/>
<text text-anchor="middle" x="158" y="-217.5" font-family="Helvetica,sans-Serif" font-size="10.00"> </text>
</a>
</g>
</g>
<!-- Node5&#45;&gt;Node2 -->
<g id="edge4" class="edge"><title>Node5&#45;&gt;Node2</title>
<path fill="none" stroke="#404040" d="M169.919,-210.442C174.655,-199.596 181.154,-188.855 190,-181 222.46,-152.177 272.415,-141.403 306.342,-137.383"/>
<polygon fill="none" stroke="#404040" points="306.551,-137.362 312.116,-132.776 318.49,-136.149 312.925,-140.735 306.551,-137.362"/>
<text text-anchor="middle" x="200" y="-184" font-family="Helvetica,sans-Serif" font-size="10.00"> +qc</text>
</g>
<!-- Node6 -->
<g id="node6" class="node"><title>Node6</title>
<g id="a_node6"><a xlink:href="structquaternion.html" target="_top" xlink:title="Quaternion, scalar last, using x, y, z. ">
<polygon fill="white" stroke="black" points="257,-227 257,-284 319,-284 319,-227 257,-227"/>
<text text-anchor="middle" x="288" y="-272" font-family="Helvetica,sans-Serif" font-size="10.00">quaternion</text>
<polyline fill="none" stroke="black" points="257,-265 319,-265 "/>
<text text-anchor="start" x="265" y="-253" font-family="Helvetica,sans-Serif" font-size="10.00">+ w</text>
<polyline fill="none" stroke="black" points="257,-246 319,-246 "/>
<text text-anchor="middle" x="288" y="-234" font-family="Helvetica,sans-Serif" font-size="10.00"> </text>
</a>
</g>
</g>
<!-- Node6&#45;&gt;Node2 -->
<g id="edge5" class="edge"><title>Node6&#45;&gt;Node2</title>
<path fill="none" stroke="#404040" d="M300.756,-226.784C308.045,-210.947 317.296,-190.848 325.281,-173.498"/>
<polygon fill="none" stroke="#404040" points="325.296,-173.467 324.171,-166.344 330.313,-162.566 331.438,-169.689 325.296,-173.467"/>
<text text-anchor="middle" x="328.5" y="-184" font-family="Helvetica,sans-Serif" font-size="10.00"> +q</text>
</g>
<!-- Node7 -->
<g id="node7" class="node"><title>Node7</title>
<g id="a_node7"><a xlink:href="classcvector.html" target="_top" xlink:title="3 element cartesian vector ">
<polygon fill="white" stroke="black" points="208.5,-348.5 208.5,-482.5 287.5,-482.5 287.5,-348.5 208.5,-348.5"/>
<text text-anchor="middle" x="248" y="-470.5" font-family="Helvetica,sans-Serif" font-size="10.00">cvector</text>
<polyline fill="none" stroke="black" points="208.5,-463.5 287.5,-463.5 "/>
<text text-anchor="start" x="216.5" y="-451.5" font-family="Helvetica,sans-Serif" font-size="10.00">+ x</text>
<text text-anchor="start" x="216.5" y="-440.5" font-family="Helvetica,sans-Serif" font-size="10.00">+ y</text>
<text text-anchor="start" x="216.5" y="-429.5" font-family="Helvetica,sans-Serif" font-size="10.00">+ z</text>
<polyline fill="none" stroke="black" points="208.5,-422.5 287.5,-422.5 "/>
<text text-anchor="start" x="216.5" y="-410.5" font-family="Helvetica,sans-Serif" font-size="10.00">+ normalize()</text>
<text text-anchor="start" x="216.5" y="-399.5" font-family="Helvetica,sans-Serif" font-size="10.00">+ length()</text>
<text text-anchor="start" x="216.5" y="-388.5" font-family="Helvetica,sans-Serif" font-size="10.00">+ norm()</text>
<text text-anchor="start" x="216.5" y="-377.5" font-family="Helvetica,sans-Serif" font-size="10.00">+ norm2()</text>
<text text-anchor="start" x="216.5" y="-366.5" font-family="Helvetica,sans-Serif" font-size="10.00">+ normalized()</text>
<text text-anchor="start" x="216.5" y="-355.5" font-family="Helvetica,sans-Serif" font-size="10.00">+ operator[]()</text>
</a>
</g>
</g>
<!-- Node7&#45;&gt;Node2 -->
<g id="edge10" class="edge"><title>Node7&#45;&gt;Node2</title>
<path fill="none" stroke="#404040" d="M225.84,-348.169C215.865,-306.228 210.711,-252.175 233,-210 248.547,-180.583 281.391,-160.534 307.164,-148.62"/>
<polygon fill="none" stroke="#404040" points="307.42,-148.508 311.322,-142.444 318.42,-143.713 314.518,-149.777 307.42,-148.508"/>
<text text-anchor="middle" x="240.5" y="-253" font-family="Helvetica,sans-Serif" font-size="10.00"> +c</text>
</g>
<!-- Node7&#45;&gt;Node6 -->
<g id="edge6" class="edge"><title>Node7&#45;&gt;Node6</title>
<path fill="none" stroke="#404040" d="M264.732,-348.409C269.225,-330.66 273.945,-312.018 277.95,-296.197"/>
<polygon fill="none" stroke="#404040" points="278.046,-295.818 275.641,-289.02 280.991,-284.185 283.396,-290.984 278.046,-295.818"/>
<text text-anchor="middle" x="279.5" y="-322" font-family="Helvetica,sans-Serif" font-size="10.00"> +d</text>
</g>
<!-- Node8 -->
<g id="node8" class="node"><title>Node8</title>
<g id="a_node8"><a xlink:href="structavector.html" target="_top" xlink:title="3 element attitude vector. ">
<polygon fill="white" stroke="black" points="337.5,-216 337.5,-295 386.5,-295 386.5,-216 337.5,-216"/>
<text text-anchor="middle" x="362" y="-283" font-family="Helvetica,sans-Serif" font-size="10.00">avector</text>
<polyline fill="none" stroke="black" points="337.5,-276 386.5,-276 "/>
<text text-anchor="start" x="345.5" y="-264" font-family="Helvetica,sans-Serif" font-size="10.00">+ h</text>
<text text-anchor="start" x="345.5" y="-253" font-family="Helvetica,sans-Serif" font-size="10.00">+ e</text>
<text text-anchor="start" x="345.5" y="-242" font-family="Helvetica,sans-Serif" font-size="10.00">+ b</text>
<polyline fill="none" stroke="black" points="337.5,-235 386.5,-235 "/>
<text text-anchor="middle" x="362" y="-223" font-family="Helvetica,sans-Serif" font-size="10.00"> </text>
</a>
</g>
</g>
<!-- Node8&#45;&gt;Node2 -->
<g id="edge7" class="edge"><title>Node8&#45;&gt;Node2</title>
<path fill="none" stroke="#404040" d="M355.831,-215.702C353.746,-202.584 351.415,-187.923 349.317,-174.734"/>
<polygon fill="none" stroke="#404040" points="349.279,-174.488 344.386,-169.191 347.394,-162.637 352.287,-167.935 349.279,-174.488"/>
<text text-anchor="middle" x="359.5" y="-184" font-family="Helvetica,sans-Serif" font-size="10.00"> +a</text>
</g>
<!-- Node9 -->
<g id="node9" class="node"><title>Node9</title>
<g id="a_node9"><a xlink:href="structrvector.html" target="_top" xlink:title="3 element generic row vector ">
<polygon fill="white" stroke="black" points="404.5,-227 404.5,-284 451.5,-284 451.5,-227 404.5,-227"/>
<text text-anchor="middle" x="428" y="-272" font-family="Helvetica,sans-Serif" font-size="10.00">rvector</text>
<polyline fill="none" stroke="black" points="404.5,-265 451.5,-265 "/>
<text text-anchor="start" x="412.5" y="-253" font-family="Helvetica,sans-Serif" font-size="10.00">+ col</text>
<polyline fill="none" stroke="black" points="404.5,-246 451.5,-246 "/>
<text text-anchor="middle" x="428" y="-234" font-family="Helvetica,sans-Serif" font-size="10.00"> </text>
</a>
</g>
</g>
<!-- Node9&#45;&gt;Node2 -->
<g id="edge8" class="edge"><title>Node9&#45;&gt;Node2</title>
<path fill="none" stroke="#404040" d="M408.286,-226.784C396.807,-210.646 382.179,-190.081 369.68,-172.51"/>
<polygon fill="none" stroke="#404040" points="369.563,-172.344 362.826,-169.774 362.607,-162.566 369.345,-165.137 369.563,-172.344"/>
<text text-anchor="middle" x="389.5" y="-184" font-family="Helvetica,sans-Serif" font-size="10.00"> +r</text>
</g>
<!-- Node10 -->
<g id="node10" class="node"><title>Node10</title>
<g id="a_node10"><a xlink:href="structsvector.html" target="_top" xlink:title="3 element spherical vector ">
<polygon fill="white" stroke="black" points="469.5,-216 469.5,-295 526.5,-295 526.5,-216 469.5,-216"/>
<text text-anchor="middle" x="498" y="-283" font-family="Helvetica,sans-Serif" font-size="10.00">svector</text>
<polyline fill="none" stroke="black" points="469.5,-276 526.5,-276 "/>
<text text-anchor="start" x="477.5" y="-264" font-family="Helvetica,sans-Serif" font-size="10.00">+ phi</text>
<text text-anchor="start" x="477.5" y="-253" font-family="Helvetica,sans-Serif" font-size="10.00">+ lambda</text>
<text text-anchor="start" x="477.5" y="-242" font-family="Helvetica,sans-Serif" font-size="10.00">+ r</text>
<polyline fill="none" stroke="black" points="469.5,-235 526.5,-235 "/>
<text text-anchor="middle" x="498" y="-223" font-family="Helvetica,sans-Serif" font-size="10.00"> </text>
</a>
</g>
</g>
<!-- Node10&#45;&gt;Node2 -->
<g id="edge9" class="edge"><title>Node10&#45;&gt;Node2</title>
<path fill="none" stroke="#404040" d="M469.475,-219.079C466.4,-215.886 463.216,-212.804 460,-210 434.766,-188.001 402.516,-167.817 378.268,-153.942"/>
<polygon fill="none" stroke="#404040" points="378.205,-153.907 371.015,-154.455 367.744,-148.028 374.934,-147.481 378.205,-153.907"/>
<text text-anchor="middle" x="444.5" y="-184" font-family="Helvetica,sans-Serif" font-size="10.00"> +s</text>
</g>
<!-- Node11 -->
<g id="node11" class="node"><title>Node11</title>
<g id="a_node11"><a xlink:href="structgvector.html" target="_top" xlink:title="3 element geodetic vector ">
<polygon fill="white" stroke="black" points="544.5,-216 544.5,-295 593.5,-295 593.5,-216 544.5,-216"/>
<text text-anchor="middle" x="569" y="-283" font-family="Helvetica,sans-Serif" font-size="10.00">gvector</text>
<polyline fill="none" stroke="black" points="544.5,-276 593.5,-276 "/>
<text text-anchor="start" x="552.5" y="-264" font-family="Helvetica,sans-Serif" font-size="10.00">+ lat</text>
<text text-anchor="start" x="552.5" y="-253" font-family="Helvetica,sans-Serif" font-size="10.00">+ lon</text>
<text text-anchor="start" x="552.5" y="-242" font-family="Helvetica,sans-Serif" font-size="10.00">+ h</text>
<polyline fill="none" stroke="black" points="544.5,-235 593.5,-235 "/>
<text text-anchor="middle" x="569" y="-223" font-family="Helvetica,sans-Serif" font-size="10.00"> </text>
</a>
</g>
</g>
<!-- Node11&#45;&gt;Node2 -->
<g id="edge11" class="edge"><title>Node11&#45;&gt;Node2</title>
<path fill="none" stroke="#404040" d="M544.284,-218.35C541.369,-215.304 538.262,-212.456 535,-210 487.329,-174.106 420.299,-153.151 379.355,-142.903"/>
<polygon fill="none" stroke="#404040" points="379.204,-142.867 372.435,-145.354 367.537,-140.062 374.305,-137.575 379.204,-142.867"/>
<text text-anchor="middle" x="514.5" y="-184" font-family="Helvetica,sans-Serif" font-size="10.00"> +g</text>
</g>
<!-- Node12 -->
<g id="node12" class="node"><title>Node12</title>
<g id="a_node12"><a xlink:href="structqfirst.html" target="_top" xlink:title="Quaternion, scalar first using vector elements. ">
<polygon fill="white" stroke="black" points="612,-210.5 612,-300.5 650,-300.5 650,-210.5 612,-210.5"/>
<text text-anchor="middle" x="631" y="-288.5" font-family="Helvetica,sans-Serif" font-size="10.00">qfirst</text>
<polyline fill="none" stroke="black" points="612,-281.5 650,-281.5 "/>
<text text-anchor="start" x="620" y="-269.5" font-family="Helvetica,sans-Serif" font-size="10.00">+ q0</text>
<text text-anchor="start" x="620" y="-258.5" font-family="Helvetica,sans-Serif" font-size="10.00">+ q1</text>
<text text-anchor="start" x="620" y="-247.5" font-family="Helvetica,sans-Serif" font-size="10.00">+ q2</text>
<text text-anchor="start" x="620" y="-236.5" font-family="Helvetica,sans-Serif" font-size="10.00">+ q3</text>
<polyline fill="none" stroke="black" points="612,-229.5 650,-229.5 "/>
<text text-anchor="middle" x="631" y="-217.5" font-family="Helvetica,sans-Serif" font-size="10.00"> </text>
</a>
</g>
</g>
<!-- Node12&#45;&gt;Node2 -->
<g id="edge12" class="edge"><title>Node12&#45;&gt;Node2</title>
<path fill="none" stroke="#404040" d="M611.857,-220.054C608.881,-216.357 605.588,-212.895 602,-210 536.06,-156.798 433.9,-141.335 379.694,-136.841"/>
<polygon fill="none" stroke="#404040" points="379.593,-136.834 373.317,-140.385 367.625,-135.958 373.901,-132.406 379.593,-136.834"/>
<text text-anchor="middle" x="582" y="-184" font-family="Helvetica,sans-Serif" font-size="10.00"> +qf</text>
</g>
</g>
</svg>
