<?xml version="1.0" encoding="UTF-8" standalone="no"?>
<!DOCTYPE svg PUBLIC "-//W3C//DTD SVG 1.1//EN"
 "http://www.w3.org/Graphics/SVG/1.1/DTD/svg11.dtd">
<!-- Generated by graphviz version 2.38.0 (20140413.2041)
 -->
<!-- Title: cosmosmetastruc Pages: 1 -->
<!--zoomable 182 -->
<svg id="main" version="1.1" xmlns="http://www.w3.org/2000/svg" xmlns:xlink="http://www.w3.org/1999/xlink" xml:space="preserve" onload="init(evt)">
<style type="text/css"><![CDATA[
.edge:hover path { stroke: red; }
.edge:hover polygon { stroke: red; fill: red; }
]]></style>
<script type="text/javascript"><![CDATA[
var edges = document.getElementsByTagName('g');
if (edges && edges.length) {
  for (var i=0;i<edges.length;i++) {
    if (edges[i].id.substr(0,4)=='edge') {
      edges[i].setAttribute('class','edge');
    }
  }
}
]]></script>
        <defs>
                <circle id="rim" cx="0" cy="0" r="7"/>
                <circle id="rim2" cx="0" cy="0" r="3.5"/>
                <g id="zoomPlus">
                        <use xlink:href="#rim" fill="#404040">
                                <set attributeName="fill" to="#808080" begin="zoomplus.mouseover" end="zoomplus.mouseout"/>
                        </use>
                        <path d="M-4,0h8M0,-4v8" fill="none" stroke="white" stroke-width="1.5" pointer-events="none"/>
                </g>
                <g id="zoomMin">
                        <use xlink:href="#rim" fill="#404040">
                                <set attributeName="fill" to="#808080" begin="zoomminus.mouseover" end="zoomminus.mouseout"/>
                        </use>
                        <path d="M-4,0h8" fill="none" stroke="white" stroke-width="1.5" pointer-events="none"/>
                </g>
                <g id="dirArrow">
                        <path fill="none" stroke="white" stroke-width="1.5" d="M0,-3.0v7 M-2.5,-0.5L0,-3.0L2.5,-0.5"/>
                </g>
               <g id="resetDef">
                       <use xlink:href="#rim2" fill="#404040">
                               <set attributeName="fill" to="#808080" begin="reset.mouseover" end="reset.mouseout"/>
                       </use>
               </g>
        </defs>

<script type="text/javascript">
var viewWidth = 816;
var viewHeight = 182;
var sectionId = 'dynsection-0';
</script>
<script xlink:href="svgpan.js"/>
<svg id="graph" class="graph">
<g id="viewport">
<title>cosmosmetastruc</title>
<polygon fill="white" stroke="none" points="-4,4 -4,-178 812,-178 812,4 -4,4"/>
<!-- Node1 -->
<g id="node1" class="node"><title>Node1</title>
<polygon fill="#bfbfbf" stroke="black" points="389.5,-0.5 389.5,-68.5 484.5,-68.5 484.5,-0.5 389.5,-0.5"/>
<text text-anchor="middle" x="437" y="-56.5" font-family="Helvetica,sans-Serif" font-size="10.00">cosmosmetastruc</text>
<polyline fill="none" stroke="black" points="389.5,-49.5 484.5,-49.5 "/>
<text text-anchor="start" x="397.5" y="-37.5" font-family="Helvetica,sans-Serif" font-size="10.00">+ timestamp</text>
<text text-anchor="start" x="397.5" y="-26.5" font-family="Helvetica,sans-Serif" font-size="10.00">+ jmapped</text>
<polyline fill="none" stroke="black" points="389.5,-19.5 484.5,-19.5 "/>
<text text-anchor="middle" x="437" y="-7.5" font-family="Helvetica,sans-Serif" font-size="10.00"> </text>
</g>
<!-- Node2 -->
<g id="node2" class="node"><title>Node2</title>
<polygon fill="white" stroke="#bfbfbf" points="0,-116.5 0,-173.5 104,-173.5 104,-116.5 0,-116.5"/>
<text text-anchor="middle" x="52" y="-161.5" font-family="Helvetica,sans-Serif" font-size="10.00">vector&lt; aliasstruc &gt;</text>
<polyline fill="none" stroke="#bfbfbf" points="0,-154.5 104,-154.5 "/>
<text text-anchor="middle" x="52" y="-142.5" font-family="Helvetica,sans-Serif" font-size="10.00"> </text>
<polyline fill="none" stroke="#bfbfbf" points="0,-135.5 104,-135.5 "/>
<text text-anchor="middle" x="52" y="-123.5" font-family="Helvetica,sans-Serif" font-size="10.00"> </text>
</g>
<!-- Node2&#45;&gt;Node1 -->
<g id="edge1" class="edge"><title>Node2&#45;&gt;Node1</title>
<path fill="none" stroke="#404040" d="M104.316,-119.233C107.233,-118.089 110.141,-117.002 113,-116 203.06,-84.4536 311.289,-60.1883 377.068,-46.8866"/>
<polygon fill="none" stroke="#404040" points="377.474,-46.8055 382.573,-41.7066 389.241,-44.4524 384.142,-49.5513 377.474,-46.8055"/>
<text text-anchor="middle" x="216" y="-90" font-family="Helvetica,sans-Serif" font-size="10.00"> +alias</text>
</g>
<!-- Node3 -->
<g id="node3" class="node"><title>Node3</title>
<polygon fill="white" stroke="#bfbfbf" points="122.5,-116.5 122.5,-173.5 283.5,-173.5 283.5,-116.5 122.5,-116.5"/>
<text text-anchor="middle" x="203" y="-161.5" font-family="Helvetica,sans-Serif" font-size="10.00">vector&lt; vector&lt; jsonequation &gt; &gt;</text>
<polyline fill="none" stroke="#bfbfbf" points="122.5,-154.5 283.5,-154.5 "/>
<text text-anchor="middle" x="203" y="-142.5" font-family="Helvetica,sans-Serif" font-size="10.00"> </text>
<polyline fill="none" stroke="#bfbfbf" points="122.5,-135.5 283.5,-135.5 "/>
<text text-anchor="middle" x="203" y="-123.5" font-family="Helvetica,sans-Serif" font-size="10.00"> </text>
</g>
<!-- Node3&#45;&gt;Node1 -->
<g id="edge2" class="edge"><title>Node3&#45;&gt;Node1</title>
<path fill="none" stroke="#404040" d="M262.351,-116.481C297.904,-99.9953 342.927,-79.1195 378.354,-62.6927"/>
<polygon fill="none" stroke="#404040" points="378.609,-62.5747 382.369,-56.4219 389.495,-57.5268 385.735,-63.6797 378.609,-62.5747"/>
<text text-anchor="middle" x="337" y="-90" font-family="Helvetica,sans-Serif" font-size="10.00"> +emap</text>
</g>
<!-- Node4 -->
<g id="node4" class="node"><title>Node4</title>
<polygon fill="white" stroke="#bfbfbf" points="302,-116.5 302,-173.5 422,-173.5 422,-116.5 302,-116.5"/>
<text text-anchor="middle" x="362" y="-161.5" font-family="Helvetica,sans-Serif" font-size="10.00">vector&lt; equationstruc &gt;</text>
<polyline fill="none" stroke="#bfbfbf" points="302,-154.5 422,-154.5 "/>
<text text-anchor="middle" x="362" y="-142.5" font-family="Helvetica,sans-Serif" font-size="10.00"> </text>
<polyline fill="none" stroke="#bfbfbf" points="302,-135.5 422,-135.5 "/>
<text text-anchor="middle" x="362" y="-123.5" font-family="Helvetica,sans-Serif" font-size="10.00"> </text>
</g>
<!-- Node4&#45;&gt;Node1 -->
<g id="edge3" class="edge"><title>Node4&#45;&gt;Node1</title>
<path fill="none" stroke="#404040" d="M381.12,-116.34C389.065,-104.847 398.472,-91.2375 407.28,-78.495"/>
<polygon fill="none" stroke="#404040" points="407.353,-78.3898 407.474,-71.1797 414.176,-68.5186 414.055,-75.7287 407.353,-78.3898"/>
<text text-anchor="middle" x="423" y="-90" font-family="Helvetica,sans-Serif" font-size="10.00"> +equation</text>
</g>
<!-- Node5 -->
<g id="node5" class="node"><title>Node5</title>
<polygon fill="white" stroke="#bfbfbf" points="440,-116.5 440,-173.5 586,-173.5 586,-116.5 440,-116.5"/>
<text text-anchor="middle" x="513" y="-161.5" font-family="Helvetica,sans-Serif" font-size="10.00">vector&lt; vector&lt; jsonentry &gt; &gt;</text>
<polyline fill="none" stroke="#bfbfbf" points="440,-154.5 586,-154.5 "/>
<text text-anchor="middle" x="513" y="-142.5" font-family="Helvetica,sans-Serif" font-size="10.00"> </text>
<polyline fill="none" stroke="#bfbfbf" points="440,-135.5 586,-135.5 "/>
<text text-anchor="middle" x="513" y="-123.5" font-family="Helvetica,sans-Serif" font-size="10.00"> </text>
</g>
<!-- Node5&#45;&gt;Node1 -->
<g id="edge4" class="edge"><title>Node5&#45;&gt;Node1</title>
<path fill="none" stroke="#404040" d="M493.625,-116.34C485.575,-104.847 476.042,-91.2375 467.116,-78.495"/>
<polygon fill="none" stroke="#404040" points="467.013,-78.3472 460.294,-75.7278 460.128,-68.5186 466.847,-71.138 467.013,-78.3472"/>
<text text-anchor="middle" x="495.5" y="-90" font-family="Helvetica,sans-Serif" font-size="10.00"> +jmap</text>
</g>
<!-- Node6 -->
<g id="node6" class="node"><title>Node6</title>
<polygon fill="white" stroke="#bfbfbf" points="604.5,-116.5 604.5,-173.5 645.5,-173.5 645.5,-116.5 604.5,-116.5"/>
<text text-anchor="middle" x="625" y="-161.5" font-family="Helvetica,sans-Serif" font-size="10.00">string</text>
<polyline fill="none" stroke="#bfbfbf" points="604.5,-154.5 645.5,-154.5 "/>
<text text-anchor="middle" x="625" y="-142.5" font-family="Helvetica,sans-Serif" font-size="10.00"> </text>
<polyline fill="none" stroke="#bfbfbf" points="604.5,-135.5 645.5,-135.5 "/>
<text text-anchor="middle" x="625" y="-123.5" font-family="Helvetica,sans-Serif" font-size="10.00"> </text>
</g>
<!-- Node6&#45;&gt;Node1 -->
<g id="edge5" class="edge"><title>Node6&#45;&gt;Node1</title>
<path fill="none" stroke="#404040" d="M604.327,-123.335C601.307,-120.729 598.151,-118.207 595,-116 564.01,-94.2909 526.358,-74.8719 495.584,-60.5479"/>
<polygon fill="none" stroke="#404040" points="495.491,-60.5056 488.371,-61.6423 484.582,-55.5064 491.703,-54.3696 495.491,-60.5056"/>
<text text-anchor="middle" x="582.5" y="-90" font-family="Helvetica,sans-Serif" font-size="10.00"> +node</text>
</g>
<!-- Node7 -->
<g id="node7" class="node"><title>Node7</title>
<polygon fill="white" stroke="#bfbfbf" points="664,-116.5 664,-173.5 808,-173.5 808,-116.5 664,-116.5"/>
<text text-anchor="middle" x="736" y="-161.5" font-family="Helvetica,sans-Serif" font-size="10.00">vector&lt; vector&lt; unitstruc &gt; &gt;</text>
<polyline fill="none" stroke="#bfbfbf" points="664,-154.5 808,-154.5 "/>
<text text-anchor="middle" x="736" y="-142.5" font-family="Helvetica,sans-Serif" font-size="10.00"> </text>
<polyline fill="none" stroke="#bfbfbf" points="664,-135.5 808,-135.5 "/>
<text text-anchor="middle" x="736" y="-123.5" font-family="Helvetica,sans-Serif" font-size="10.00"> </text>
</g>
<!-- Node7&#45;&gt;Node1 -->
<g id="edge6" class="edge"><title>Node7&#45;&gt;Node1</title>
<path fill="none" stroke="#404040" d="M674.807,-116.453C652.135,-106.65 626.084,-95.8558 602,-87 567.41,-74.2811 528.035,-61.9133 496.426,-52.4868"/>
<polygon fill="none" stroke="#404040" points="496.225,-52.4274 489.337,-54.5611 484.718,-49.0234 491.606,-46.8897 496.225,-52.4274"/>
<text text-anchor="middle" x="641.5" y="-90" font-family="Helvetica,sans-Serif" font-size="10.00"> +unit</text>
</g>
</g>
</svg>
        <g id="navigator" transform="translate(0 0)" fill="#404254">
                <rect fill="#f2f5e9" fill-opacity="0.5" stroke="#606060" stroke-width=".5" x="0" y="0" width="60" height="60"/>
                <use id="zoomplus" xlink:href="#zoomPlus" x="17" y="9" onmousedown="handleZoom(evt,'in')"/>
                <use id="zoomminus" xlink:href="#zoomMin" x="42" y="9" onmousedown="handleZoom(evt,'out')"/>
                <use id="reset" xlink:href="#resetDef" x="30" y="36" onmousedown="handleReset()"/>
                <g id="arrowUp" xlink:href="#dirArrow" transform="translate(30 24)" onmousedown="handlePan(0,-1)">
                  <use xlink:href="#rim" fill="#404040">
                        <set attributeName="fill" to="#808080" begin="arrowUp.mouseover" end="arrowUp.mouseout"/>
                  </use>
                  <path fill="none" stroke="white" stroke-width="1.5" d="M0,-3.0v7 M-2.5,-0.5L0,-3.0L2.5,-0.5"/>
                </g>
                <g id="arrowRight" xlink:href="#dirArrow" transform="rotate(90) translate(36 -43)" onmousedown="handlePan(1,0)">
                  <use xlink:href="#rim" fill="#404040">
                        <set attributeName="fill" to="#808080" begin="arrowRight.mouseover" end="arrowRight.mouseout"/>
                  </use>
                  <path fill="none" stroke="white" stroke-width="1.5" d="M0,-3.0v7 M-2.5,-0.5L0,-3.0L2.5,-0.5"/>
                </g>
                <g id="arrowDown" xlink:href="#dirArrow" transform="rotate(180) translate(-30 -48)" onmousedown="handlePan(0,1)">
                  <use xlink:href="#rim" fill="#404040">
                        <set attributeName="fill" to="#808080" begin="arrowDown.mouseover" end="arrowDown.mouseout"/>
                  </use>
                  <path fill="none" stroke="white" stroke-width="1.5" d="M0,-3.0v7 M-2.5,-0.5L0,-3.0L2.5,-0.5"/>
                </g>
                <g id="arrowLeft" xlink:href="#dirArrow" transform="rotate(270) translate(-36 17)" onmousedown="handlePan(-1,0)">
                  <use xlink:href="#rim" fill="#404040">
                        <set attributeName="fill" to="#808080" begin="arrowLeft.mouseover" end="arrowLeft.mouseout"/>
                  </use>
                  <path fill="none" stroke="white" stroke-width="1.5" d="M0,-3.0v7 M-2.5,-0.5L0,-3.0L2.5,-0.5"/>
                </g>
        </g>
        <svg viewBox="0 0 15 15" width="100%" height="30px" preserveAspectRatio="xMaxYMin meet">
         <g id="arrow_out" transform="scale(0.3 0.3)">
          <a xlink:href="structcosmosmetastruc__coll__graph_org.svg" target="_base">
           <rect id="button" ry="5" rx="5" y="6" x="6" height="38" width="38"
                fill="#f2f5e9" fill-opacity="0.5" stroke="#606060" stroke-width="1.0"/>
           <path id="arrow"
             d="M 11.500037,31.436501 C 11.940474,20.09759 22.043105,11.32322 32.158766,21.979434 L 37.068811,17.246167 C 37.068811,17.246167 37.088388,32 37.088388,32 L 22.160133,31.978069 C 22.160133,31.978069 26.997745,27.140456 26.997745,27.140456 C 18.528582,18.264221 13.291696,25.230495 11.500037,31.436501 z"
             style="fill:#404040;"/>
          </a>
         </g>
        </svg>
</svg>
