<?xml version="1.0" encoding="UTF-8" standalone="no"?>
<!DOCTYPE svg PUBLIC "-//W3C//DTD SVG 1.1//EN"
 "http://www.w3.org/Graphics/SVG/1.1/DTD/svg11.dtd">
<!-- Generated by graphviz version 2.38.0 (20140413.2041)
 -->
<!-- Title: cposstruc Pages: 1 -->
<svg width="67pt" height="309pt"
 viewBox="0.00 0.00 67.00 309.00" xmlns="http://www.w3.org/2000/svg" xmlns:xlink="http://www.w3.org/1999/xlink">
<g id="graph0" class="graph" transform="scale(1 1) rotate(0) translate(4 305)">
<title>cposstruc</title>
<polygon fill="white" stroke="none" points="-4,4 -4,-305 63,-305 63,4 -4,4"/>
<!-- Node1 -->
<g id="node1" class="node"><title>Node1</title>
<polygon fill="#bfbfbf" stroke="black" points="0,-0.5 0,-57.5 59,-57.5 59,-0.5 0,-0.5"/>
<text text-anchor="middle" x="29.5" y="-45.5" font-family="Helvetica,sans-Serif" font-size="10.00">cposstruc</text>
<polyline fill="none" stroke="black" points="0,-38.5 59,-38.5 "/>
<text text-anchor="start" x="8" y="-26.5" font-family="Helvetica,sans-Serif" font-size="10.00">+ utc</text>
<polyline fill="none" stroke="black" points="0,-19.5 59,-19.5 "/>
<text text-anchor="middle" x="29.5" y="-7.5" font-family="Helvetica,sans-Serif" font-size="10.00"> </text>
</g>
<!-- Node2 -->
<g id="node2" class="node"><title>Node2</title>
<g id="a_node2"><a xlink:href="structcartpos.html" target="_top" xlink:title="Cartesian full position structure. ">
<polygon fill="white" stroke="black" points="5,-105.5 5,-173.5 54,-173.5 54,-105.5 5,-105.5"/>
<text text-anchor="middle" x="29.5" y="-161.5" font-family="Helvetica,sans-Serif" font-size="10.00">cartpos</text>
<polyline fill="none" stroke="black" points="5,-154.5 54,-154.5 "/>
<text text-anchor="start" x="13" y="-142.5" font-family="Helvetica,sans-Serif" font-size="10.00">+ utc</text>
<text text-anchor="start" x="13" y="-131.5" font-family="Helvetica,sans-Serif" font-size="10.00">+ pass</text>
<polyline fill="none" stroke="black" points="5,-124.5 54,-124.5 "/>
<text text-anchor="middle" x="29.5" y="-112.5" font-family="Helvetica,sans-Serif" font-size="10.00"> </text>
</a>
</g>
</g>
<!-- Node2&#45;&gt;Node1 -->
<g id="edge1" class="edge"><title>Node2&#45;&gt;Node1</title>
<path fill="none" stroke="#404040" d="M29.5,-105.357C29.5,-94.1899 29.5,-81.6093 29.5,-69.9724"/>
<polygon fill="none" stroke="#404040" points="29.5001,-69.827 25.5,-63.827 29.5,-57.827 33.5,-63.8269 29.5001,-69.827"/>
<text text-anchor="middle" x="42" y="-79" font-family="Helvetica,sans-Serif" font-size="10.00"> +pos</text>
</g>
<!-- Node3 -->
<g id="node3" class="node"><title>Node3</title>
<g id="a_node3"><a xlink:href="structrvector.html" target="_top" xlink:title="3 element generic row vector ">
<polygon fill="white" stroke="black" points="6,-243.5 6,-300.5 53,-300.5 53,-243.5 6,-243.5"/>
<text text-anchor="middle" x="29.5" y="-288.5" font-family="Helvetica,sans-Serif" font-size="10.00">rvector</text>
<polyline fill="none" stroke="black" points="6,-281.5 53,-281.5 "/>
<text text-anchor="start" x="14" y="-269.5" font-family="Helvetica,sans-Serif" font-size="10.00">+ col</text>
<polyline fill="none" stroke="black" points="6,-262.5 53,-262.5 "/>
<text text-anchor="middle" x="29.5" y="-250.5" font-family="Helvetica,sans-Serif" font-size="10.00"> </text>
</a>
</g>
</g>
<!-- Node3&#45;&gt;Node2 -->
<g id="edge2" class="edge"><title>Node3&#45;&gt;Node2</title>
<path fill="none" stroke="#404040" d="M29.5,-243.324C29.5,-226.63 29.5,-204.959 29.5,-185.818"/>
<polygon fill="none" stroke="#404040" points="29.5001,-185.684 25.5,-179.684 29.5,-173.684 33.5,-179.684 29.5001,-185.684"/>
<text text-anchor="middle" x="37" y="-217" font-family="Helvetica,sans-Serif" font-size="10.00"> +a</text>
<text text-anchor="middle" x="37" y="-206" font-family="Helvetica,sans-Serif" font-size="10.00">+s</text>
<text text-anchor="middle" x="37" y="-195" font-family="Helvetica,sans-Serif" font-size="10.00">+v</text>
</g>
</g>
</svg>
