<?xml version="1.0" encoding="UTF-8" standalone="no"?>
<!DOCTYPE svg PUBLIC "-//W3C//DTD SVG 1.1//EN"
 "http://www.w3.org/Graphics/SVG/1.1/DTD/svg11.dtd">
<!-- Generated by graphviz version 2.38.0 (20140413.2041)
 -->
<!-- Title: quatatt Pages: 1 -->
<svg width="144pt" height="364pt"
 viewBox="0.00 0.00 144.00 364.00" xmlns="http://www.w3.org/2000/svg" xmlns:xlink="http://www.w3.org/1999/xlink">
<g id="graph0" class="graph" transform="scale(1 1) rotate(0) translate(4 360)">
<title>quatatt</title>
<polygon fill="white" stroke="none" points="-4,4 -4,-360 140,-360 140,4 -4,4"/>
<!-- Node1 -->
<g id="node1" class="node"><title>Node1</title>
<polygon fill="#bfbfbf" stroke="black" points="69,-0.5 69,-57.5 116,-57.5 116,-0.5 69,-0.5"/>
<text text-anchor="middle" x="92.5" y="-45.5" font-family="Helvetica,sans-Serif" font-size="10.00">quatatt</text>
<polyline fill="none" stroke="black" points="69,-38.5 116,-38.5 "/>
<text text-anchor="start" x="77" y="-26.5" font-family="Helvetica,sans-Serif" font-size="10.00">+ utc</text>
<polyline fill="none" stroke="black" points="69,-19.5 116,-19.5 "/>
<text text-anchor="middle" x="92.5" y="-7.5" font-family="Helvetica,sans-Serif" font-size="10.00"> </text>
</g>
<!-- Node2 -->
<g id="node2" class="node"><title>Node2</title>
<g id="a_node2"><a xlink:href="structquaternion.html" target="_top" xlink:title="Quaternion, scalar last, using x, y, z. ">
<polygon fill="white" stroke="black" points="8.5,-116.5 8.5,-173.5 70.5,-173.5 70.5,-116.5 8.5,-116.5"/>
<text text-anchor="middle" x="39.5" y="-161.5" font-family="Helvetica,sans-Serif" font-size="10.00">quaternion</text>
<polyline fill="none" stroke="black" points="8.5,-154.5 70.5,-154.5 "/>
<text text-anchor="start" x="16.5" y="-142.5" font-family="Helvetica,sans-Serif" font-size="10.00">+ w</text>
<polyline fill="none" stroke="black" points="8.5,-135.5 70.5,-135.5 "/>
<text text-anchor="middle" x="39.5" y="-123.5" font-family="Helvetica,sans-Serif" font-size="10.00"> </text>
</a>
</g>
</g>
<!-- Node2&#45;&gt;Node1 -->
<g id="edge1" class="edge"><title>Node2&#45;&gt;Node1</title>
<path fill="none" stroke="#404040" d="M52.3298,-116.404C58.9859,-102.087 67.2265,-84.3619 74.5082,-68.6993"/>
<polygon fill="none" stroke="#404040" points="74.5456,-68.6187 73.448,-61.4916 79.6046,-57.7372 80.7023,-64.8643 74.5456,-68.6187"/>
<text text-anchor="middle" x="79" y="-84.5" font-family="Helvetica,sans-Serif" font-size="10.00"> +s</text>
</g>
<!-- Node3 -->
<g id="node3" class="node"><title>Node3</title>
<g id="a_node3"><a xlink:href="classcvector.html" target="_top" xlink:title="3 element cartesian vector ">
<polygon fill="white" stroke="black" points="0,-221.5 0,-355.5 79,-355.5 79,-221.5 0,-221.5"/>
<text text-anchor="middle" x="39.5" y="-343.5" font-family="Helvetica,sans-Serif" font-size="10.00">cvector</text>
<polyline fill="none" stroke="black" points="0,-336.5 79,-336.5 "/>
<text text-anchor="start" x="8" y="-324.5" font-family="Helvetica,sans-Serif" font-size="10.00">+ x</text>
<text text-anchor="start" x="8" y="-313.5" font-family="Helvetica,sans-Serif" font-size="10.00">+ y</text>
<text text-anchor="start" x="8" y="-302.5" font-family="Helvetica,sans-Serif" font-size="10.00">+ z</text>
<polyline fill="none" stroke="black" points="0,-295.5 79,-295.5 "/>
<text text-anchor="start" x="8" y="-283.5" font-family="Helvetica,sans-Serif" font-size="10.00">+ normalize()</text>
<text text-anchor="start" x="8" y="-272.5" font-family="Helvetica,sans-Serif" font-size="10.00">+ length()</text>
<text text-anchor="start" x="8" y="-261.5" font-family="Helvetica,sans-Serif" font-size="10.00">+ norm()</text>
<text text-anchor="start" x="8" y="-250.5" font-family="Helvetica,sans-Serif" font-size="10.00">+ norm2()</text>
<text text-anchor="start" x="8" y="-239.5" font-family="Helvetica,sans-Serif" font-size="10.00">+ normalized()</text>
<text text-anchor="start" x="8" y="-228.5" font-family="Helvetica,sans-Serif" font-size="10.00">+ operator[]()</text>
</a>
</g>
</g>
<!-- Node3&#45;&gt;Node2 -->
<g id="edge2" class="edge"><title>Node3&#45;&gt;Node2</title>
<path fill="none" stroke="#404040" d="M39.5,-221.307C39.5,-209.21 39.5,-196.934 39.5,-185.903"/>
<polygon fill="none" stroke="#404040" points="39.5001,-185.609 35.5,-179.609 39.5,-173.609 43.5,-179.609 39.5001,-185.609"/>
<text text-anchor="middle" x="47" y="-195" font-family="Helvetica,sans-Serif" font-size="10.00"> +d</text>
</g>
<!-- Node4 -->
<g id="node4" class="node"><title>Node4</title>
<g id="a_node4"><a xlink:href="structrvector.html" target="_top" xlink:title="3 element generic row vector ">
<polygon fill="white" stroke="black" points="89,-116.5 89,-173.5 136,-173.5 136,-116.5 89,-116.5"/>
<text text-anchor="middle" x="112.5" y="-161.5" font-family="Helvetica,sans-Serif" font-size="10.00">rvector</text>
<polyline fill="none" stroke="black" points="89,-154.5 136,-154.5 "/>
<text text-anchor="start" x="97" y="-142.5" font-family="Helvetica,sans-Serif" font-size="10.00">+ col</text>
<polyline fill="none" stroke="black" points="89,-135.5 136,-135.5 "/>
<text text-anchor="middle" x="112.5" y="-123.5" font-family="Helvetica,sans-Serif" font-size="10.00"> </text>
</a>
</g>
</g>
<!-- Node4&#45;&gt;Node1 -->
<g id="edge3" class="edge"><title>Node4&#45;&gt;Node1</title>
<path fill="none" stroke="#404040" d="M107.659,-116.404C105.196,-102.365 102.158,-85.049 99.4498,-69.614"/>
<polygon fill="none" stroke="#404040" points="99.4399,-69.5567 94.4632,-64.3382 97.3662,-57.7372 102.343,-62.9557 99.4399,-69.5567"/>
<text text-anchor="middle" x="112" y="-90" font-family="Helvetica,sans-Serif" font-size="10.00"> +a</text>
<text text-anchor="middle" x="112" y="-79" font-family="Helvetica,sans-Serif" font-size="10.00">+v</text>
</g>
</g>
</svg>
