<?xml version="1.0" encoding="UTF-8" standalone="no"?>
<!DOCTYPE svg PUBLIC "-//W3C//DTD SVG 1.1//EN"
 "http://www.w3.org/Graphics/SVG/1.1/DTD/svg11.dtd">
<!-- Generated by graphviz version 2.38.0 (20140413.2041)
 -->
<!-- Title: radiostruc Pages: 1 -->
<svg width="217pt" height="530pt"
 viewBox="0.00 0.00 217.00 530.00" xmlns="http://www.w3.org/2000/svg" xmlns:xlink="http://www.w3.org/1999/xlink">
<g id="graph0" class="graph" transform="scale(1 1) rotate(0) translate(4 526)">
<title>radiostruc</title>
<polygon fill="white" stroke="none" points="-4,4 -4,-526 213,-526 213,4 -4,4"/>
<!-- Node1 -->
<g id="node1" class="node"><title>Node1</title>
<polygon fill="#bfbfbf" stroke="black" points="48.5,-0.5 48.5,-68.5 140.5,-68.5 140.5,-0.5 48.5,-0.5"/>
<text text-anchor="middle" x="94.5" y="-56.5" font-family="Helvetica,sans-Serif" font-size="10.00">radiostruc</text>
<polyline fill="none" stroke="black" points="48.5,-49.5 140.5,-49.5 "/>
<text text-anchor="start" x="56.5" y="-37.5" font-family="Helvetica,sans-Serif" font-size="10.00">+ otherradioindex</text>
<text text-anchor="start" x="56.5" y="-26.5" font-family="Helvetica,sans-Serif" font-size="10.00">+ dfreq</text>
<polyline fill="none" stroke="black" points="48.5,-19.5 140.5,-19.5 "/>
<text text-anchor="middle" x="94.5" y="-7.5" font-family="Helvetica,sans-Serif" font-size="10.00"> </text>
</g>
<!-- Node2 -->
<g id="node2" class="node"><title>Node2</title>
<polygon fill="white" stroke="#bfbfbf" points="0,-188 0,-245 41,-245 41,-188 0,-188"/>
<text text-anchor="middle" x="20.5" y="-233" font-family="Helvetica,sans-Serif" font-size="10.00">string</text>
<polyline fill="none" stroke="#bfbfbf" points="0,-226 41,-226 "/>
<text text-anchor="middle" x="20.5" y="-214" font-family="Helvetica,sans-Serif" font-size="10.00"> </text>
<polyline fill="none" stroke="#bfbfbf" points="0,-207 41,-207 "/>
<text text-anchor="middle" x="20.5" y="-195" font-family="Helvetica,sans-Serif" font-size="10.00"> </text>
</g>
<!-- Node2&#45;&gt;Node1 -->
<g id="edge1" class="edge"><title>Node2&#45;&gt;Node1</title>
<path fill="none" stroke="#404040" d="M25.2238,-187.884C30.4851,-161.13 40.4323,-119.891 56.5,-87 57.823,-84.2919 59.2922,-81.5795 60.8618,-78.8941"/>
<polygon fill="none" stroke="#404040" points="60.8805,-78.8647 60.7226,-71.6553 67.3168,-68.7367 67.4746,-75.9461 60.8805,-78.8647"/>
<text text-anchor="middle" x="73.5" y="-90" font-family="Helvetica,sans-Serif" font-size="10.00"> +name</text>
</g>
<!-- Node3 -->
<g id="node3" class="node"><title>Node3</title>
<g id="a_node3"><a xlink:href="structtcvstruc.html" target="_top" xlink:title="Transceiver information. ">
<polygon fill="white" stroke="black" points="59,-116.5 59,-316.5 130,-316.5 130,-116.5 59,-116.5"/>
<text text-anchor="middle" x="94.5" y="-304.5" font-family="Helvetica,sans-Serif" font-size="10.00">tcvstruc</text>
<polyline fill="none" stroke="black" points="59,-297.5 130,-297.5 "/>
<text text-anchor="start" x="67" y="-285.5" font-family="Helvetica,sans-Serif" font-size="10.00">+ opmode</text>
<text text-anchor="start" x="67" y="-274.5" font-family="Helvetica,sans-Serif" font-size="10.00">+ rssi</text>
<text text-anchor="start" x="67" y="-263.5" font-family="Helvetica,sans-Serif" font-size="10.00">+ pktsize</text>
<text text-anchor="start" x="67" y="-252.5" font-family="Helvetica,sans-Serif" font-size="10.00">+ freq</text>
<text text-anchor="start" x="67" y="-241.5" font-family="Helvetica,sans-Serif" font-size="10.00">+ maxfreq</text>
<text text-anchor="start" x="67" y="-230.5" font-family="Helvetica,sans-Serif" font-size="10.00">+ minfreq</text>
<text text-anchor="start" x="67" y="-219.5" font-family="Helvetica,sans-Serif" font-size="10.00">+ powerin</text>
<text text-anchor="start" x="67" y="-208.5" font-family="Helvetica,sans-Serif" font-size="10.00">+ powerout</text>
<text text-anchor="start" x="67" y="-197.5" font-family="Helvetica,sans-Serif" font-size="10.00">+ maxpower</text>
<text text-anchor="start" x="67" y="-186.5" font-family="Helvetica,sans-Serif" font-size="10.00">+ band</text>
<text text-anchor="start" x="67" y="-175.5" font-family="Helvetica,sans-Serif" font-size="10.00">+ goodratio</text>
<text text-anchor="start" x="67" y="-164.5" font-family="Helvetica,sans-Serif" font-size="10.00">+ txutc</text>
<text text-anchor="start" x="67" y="-153.5" font-family="Helvetica,sans-Serif" font-size="10.00">+ rxutc</text>
<text text-anchor="start" x="67" y="-142.5" font-family="Helvetica,sans-Serif" font-size="10.00">+ uptime</text>
<polyline fill="none" stroke="black" points="59,-135.5 130,-135.5 "/>
<text text-anchor="middle" x="94.5" y="-123.5" font-family="Helvetica,sans-Serif" font-size="10.00"> </text>
</a>
</g>
</g>
<!-- Node3&#45;&gt;Node1 -->
<g id="edge2" class="edge"><title>Node3&#45;&gt;Node1</title>
<path fill="none" stroke="#404040" d="M94.5,-116.286C94.5,-103.984 94.5,-91.9151 94.5,-81.0101"/>
<polygon fill="none" stroke="#404040" points="94.5001,-80.7992 90.5,-74.7993 94.5,-68.7992 98.5,-74.7992 94.5001,-80.7992"/>
<text text-anchor="middle" x="107" y="-90" font-family="Helvetica,sans-Serif" font-size="10.00"> +info</text>
</g>
<!-- Node4 -->
<g id="node4" class="node"><title>Node4</title>
<g id="a_node4"><a xlink:href="structallstruc.html" target="_top" xlink:title="All Component structure. ">
<polygon fill="white" stroke="black" points="57.5,-354.5 57.5,-521.5 131.5,-521.5 131.5,-354.5 57.5,-354.5"/>
<text text-anchor="middle" x="94.5" y="-509.5" font-family="Helvetica,sans-Serif" font-size="10.00">allstruc</text>
<polyline fill="none" stroke="black" points="57.5,-502.5 131.5,-502.5 "/>
<text text-anchor="start" x="65.5" y="-490.5" font-family="Helvetica,sans-Serif" font-size="10.00">+ enabled</text>
<text text-anchor="start" x="65.5" y="-479.5" font-family="Helvetica,sans-Serif" font-size="10.00">+ type</text>
<text text-anchor="start" x="65.5" y="-468.5" font-family="Helvetica,sans-Serif" font-size="10.00">+ model</text>
<text text-anchor="start" x="65.5" y="-457.5" font-family="Helvetica,sans-Serif" font-size="10.00">+ flag</text>
<text text-anchor="start" x="65.5" y="-446.5" font-family="Helvetica,sans-Serif" font-size="10.00">+ addr</text>
<text text-anchor="start" x="65.5" y="-435.5" font-family="Helvetica,sans-Serif" font-size="10.00">+ cidx</text>
<text text-anchor="start" x="65.5" y="-424.5" font-family="Helvetica,sans-Serif" font-size="10.00">+ didx</text>
<text text-anchor="start" x="65.5" y="-413.5" font-family="Helvetica,sans-Serif" font-size="10.00">+ pidx</text>
<text text-anchor="start" x="65.5" y="-402.5" font-family="Helvetica,sans-Serif" font-size="10.00">+ bidx</text>
<text text-anchor="start" x="65.5" y="-391.5" font-family="Helvetica,sans-Serif" font-size="10.00">+ portidx</text>
<text text-anchor="start" x="65.5" y="-380.5" font-family="Helvetica,sans-Serif" font-size="10.00">and 9 more...</text>
<polyline fill="none" stroke="black" points="57.5,-373.5 131.5,-373.5 "/>
<text text-anchor="middle" x="94.5" y="-361.5" font-family="Helvetica,sans-Serif" font-size="10.00"> </text>
</a>
</g>
</g>
<!-- Node4&#45;&gt;Node3 -->
<g id="edge3" class="edge"><title>Node4&#45;&gt;Node3</title>
<path fill="none" stroke="midnightblue" d="M94.5,-344.166C94.5,-335.093 94.5,-325.862 94.5,-316.729"/>
<polygon fill="none" stroke="midnightblue" points="91.0001,-344.329 94.5,-354.329 98.0001,-344.329 91.0001,-344.329"/>
</g>
<!-- Node5 -->
<g id="node5" class="node"><title>Node5</title>
<g id="a_node5"><a xlink:href="structbeatstruc.html" target="_top" xlink:title="{beatstruc\n|+ utc\l+ node\l+ proc\l+ ntype\l+ addr\l+ port\l+ bsz\l+ bprd\l+ user\l+ cpu\l+ memory\l+ jitter\l+ exists\l|}">
<polygon fill="white" stroke="black" points="148,-122 148,-311 209,-311 209,-122 148,-122"/>
<text text-anchor="middle" x="178.5" y="-299" font-family="Helvetica,sans-Serif" font-size="10.00">beatstruc</text>
<polyline fill="none" stroke="black" points="148,-292 209,-292 "/>
<text text-anchor="start" x="156" y="-280" font-family="Helvetica,sans-Serif" font-size="10.00">+ utc</text>
<text text-anchor="start" x="156" y="-269" font-family="Helvetica,sans-Serif" font-size="10.00">+ node</text>
<text text-anchor="start" x="156" y="-258" font-family="Helvetica,sans-Serif" font-size="10.00">+ proc</text>
<text text-anchor="start" x="156" y="-247" font-family="Helvetica,sans-Serif" font-size="10.00">+ ntype</text>
<text text-anchor="start" x="156" y="-236" font-family="Helvetica,sans-Serif" font-size="10.00">+ addr</text>
<text text-anchor="start" x="156" y="-225" font-family="Helvetica,sans-Serif" font-size="10.00">+ port</text>
<text text-anchor="start" x="156" y="-214" font-family="Helvetica,sans-Serif" font-size="10.00">+ bsz</text>
<text text-anchor="start" x="156" y="-203" font-family="Helvetica,sans-Serif" font-size="10.00">+ bprd</text>
<text text-anchor="start" x="156" y="-192" font-family="Helvetica,sans-Serif" font-size="10.00">+ user</text>
<text text-anchor="start" x="156" y="-181" font-family="Helvetica,sans-Serif" font-size="10.00">+ cpu</text>
<text text-anchor="start" x="156" y="-170" font-family="Helvetica,sans-Serif" font-size="10.00">+ memory</text>
<text text-anchor="start" x="156" y="-159" font-family="Helvetica,sans-Serif" font-size="10.00">+ jitter</text>
<text text-anchor="start" x="156" y="-148" font-family="Helvetica,sans-Serif" font-size="10.00">+ exists</text>
<polyline fill="none" stroke="black" points="148,-141 209,-141 "/>
<text text-anchor="middle" x="178.5" y="-129" font-family="Helvetica,sans-Serif" font-size="10.00"> </text>
</a>
</g>
</g>
<!-- Node5&#45;&gt;Node1 -->
<g id="edge4" class="edge"><title>Node5&#45;&gt;Node1</title>
<path fill="none" stroke="#404040" d="M147.98,-137.522C144.869,-130.208 141.681,-122.939 138.5,-116 132.454,-102.809 130.394,-99.7685 123.5,-87 122.143,-84.486 120.737,-81.9096 119.311,-79.3142"/>
<polygon fill="none" stroke="#404040" points="119.215,-79.1418 112.807,-75.8354 113.394,-68.6483 119.802,-71.9546 119.215,-79.1418"/>
<text text-anchor="middle" x="143.5" y="-90" font-family="Helvetica,sans-Serif" font-size="10.00"> +beat</text>
</g>
</g>
</svg>
