<?xml version="1.0" encoding="UTF-8" standalone="no"?>
<!DOCTYPE svg PUBLIC "-//W3C//DTD SVG 1.1//EN"
 "http://www.w3.org/Graphics/SVG/1.1/DTD/svg11.dtd">
<!-- Generated by graphviz version 2.38.0 (20140413.2041)
 -->
<!-- Title: unitstruc Pages: 1 -->
<svg width="69pt" height="204pt"
 viewBox="0.00 0.00 69.00 204.00" xmlns="http://www.w3.org/2000/svg" xmlns:xlink="http://www.w3.org/1999/xlink">
<g id="graph0" class="graph" transform="scale(1 1) rotate(0) translate(4 200)">
<title>unitstruc</title>
<polygon fill="white" stroke="none" points="-4,4 -4,-200 65,-200 65,4 -4,4"/>
<!-- Node1 -->
<g id="node1" class="node"><title>Node1</title>
<polygon fill="#bfbfbf" stroke="black" points="0,-0.5 0,-90.5 54,-90.5 54,-0.5 0,-0.5"/>
<text text-anchor="middle" x="27" y="-78.5" font-family="Helvetica,sans-Serif" font-size="10.00">unitstruc</text>
<polyline fill="none" stroke="black" points="0,-71.5 54,-71.5 "/>
<text text-anchor="start" x="8" y="-59.5" font-family="Helvetica,sans-Serif" font-size="10.00">+ type</text>
<text text-anchor="start" x="8" y="-48.5" font-family="Helvetica,sans-Serif" font-size="10.00">+ p0</text>
<text text-anchor="start" x="8" y="-37.5" font-family="Helvetica,sans-Serif" font-size="10.00">+ p1</text>
<text text-anchor="start" x="8" y="-26.5" font-family="Helvetica,sans-Serif" font-size="10.00">+ p2</text>
<polyline fill="none" stroke="black" points="0,-19.5 54,-19.5 "/>
<text text-anchor="middle" x="27" y="-7.5" font-family="Helvetica,sans-Serif" font-size="10.00"> </text>
</g>
<!-- Node2 -->
<g id="node2" class="node"><title>Node2</title>
<polygon fill="white" stroke="#bfbfbf" points="6.5,-138.5 6.5,-195.5 47.5,-195.5 47.5,-138.5 6.5,-138.5"/>
<text text-anchor="middle" x="27" y="-183.5" font-family="Helvetica,sans-Serif" font-size="10.00">string</text>
<polyline fill="none" stroke="#bfbfbf" points="6.5,-176.5 47.5,-176.5 "/>
<text text-anchor="middle" x="27" y="-164.5" font-family="Helvetica,sans-Serif" font-size="10.00"> </text>
<polyline fill="none" stroke="#bfbfbf" points="6.5,-157.5 47.5,-157.5 "/>
<text text-anchor="middle" x="27" y="-145.5" font-family="Helvetica,sans-Serif" font-size="10.00"> </text>
</g>
<!-- Node2&#45;&gt;Node1 -->
<g id="edge1" class="edge"><title>Node2&#45;&gt;Node1</title>
<path fill="none" stroke="#404040" d="M27,-138.284C27,-127.735 27,-115.294 27,-103.035"/>
<polygon fill="none" stroke="#404040" points="27.0001,-102.912 23,-96.9125 27,-90.9125 31,-96.9124 27.0001,-102.912"/>
<text text-anchor="middle" x="44" y="-112" font-family="Helvetica,sans-Serif" font-size="10.00"> +name</text>
</g>
</g>
</svg>
