<?xml version="1.0" encoding="UTF-8" standalone="no"?>
<!DOCTYPE svg PUBLIC "-//W3C//DTD SVG 1.1//EN"
 "http://www.w3.org/Graphics/SVG/1.1/DTD/svg11.dtd">
<!-- Generated by graphviz version 2.38.0 (20140413.2041)
 -->
<!-- Title: Cosmos::wavefront::face Pages: 1 -->
<svg width="391pt" height="413pt"
 viewBox="0.00 0.00 390.50 413.00" xmlns="http://www.w3.org/2000/svg" xmlns:xlink="http://www.w3.org/1999/xlink">
<g id="graph0" class="graph" transform="scale(1 1) rotate(0) translate(4 409)">
<title>Cosmos::wavefront::face</title>
<polygon fill="white" stroke="none" points="-4,4 -4,-409 386.5,-409 386.5,4 -4,4"/>
<!-- Node1 -->
<g id="node1" class="node"><title>Node1</title>
<polygon fill="#bfbfbf" stroke="black" points="119,-0.5 119,-57.5 246,-57.5 246,-0.5 119,-0.5"/>
<text text-anchor="middle" x="182.5" y="-45.5" font-family="Helvetica,sans-Serif" font-size="10.00">Cosmos::wavefront::face</text>
<polyline fill="none" stroke="black" points="119,-38.5 246,-38.5 "/>
<text text-anchor="start" x="127" y="-26.5" font-family="Helvetica,sans-Serif" font-size="10.00">+ area</text>
<polyline fill="none" stroke="black" points="119,-19.5 246,-19.5 "/>
<text text-anchor="middle" x="182.5" y="-7.5" font-family="Helvetica,sans-Serif" font-size="10.00"> </text>
</g>
<!-- Node2 -->
<g id="node2" class="node"><title>Node2</title>
<g id="a_node2"><a xlink:href="class_cosmos_1_1_math_1_1_vectors_1_1_vector.html" target="_top" xlink:title="Vector Class. ">
<polygon fill="white" stroke="black" points="0,-116.5 0,-404.5 121,-404.5 121,-116.5 0,-116.5"/>
<text text-anchor="start" x="8" y="-392.5" font-family="Helvetica,sans-Serif" font-size="10.00">Cosmos::Math::Vectors</text>
<text text-anchor="middle" x="60.5" y="-381.5" font-family="Helvetica,sans-Serif" font-size="10.00">::Vector</text>
<polyline fill="none" stroke="black" points="0,-374.5 121,-374.5 "/>
<text text-anchor="start" x="8" y="-362.5" font-family="Helvetica,sans-Serif" font-size="10.00">+ x</text>
<text text-anchor="start" x="8" y="-351.5" font-family="Helvetica,sans-Serif" font-size="10.00">+ phi</text>
<text text-anchor="start" x="8" y="-340.5" font-family="Helvetica,sans-Serif" font-size="10.00">+ lat</text>
<text text-anchor="start" x="8" y="-329.5" font-family="Helvetica,sans-Serif" font-size="10.00">+ head</text>
<text text-anchor="start" x="8" y="-318.5" font-family="Helvetica,sans-Serif" font-size="10.00">+ @31</text>
<text text-anchor="start" x="8" y="-307.5" font-family="Helvetica,sans-Serif" font-size="10.00">+ y</text>
<text text-anchor="start" x="8" y="-296.5" font-family="Helvetica,sans-Serif" font-size="10.00">+ lambda</text>
<text text-anchor="start" x="8" y="-285.5" font-family="Helvetica,sans-Serif" font-size="10.00">+ lon</text>
<text text-anchor="start" x="8" y="-274.5" font-family="Helvetica,sans-Serif" font-size="10.00">+ elev</text>
<text text-anchor="start" x="8" y="-263.5" font-family="Helvetica,sans-Serif" font-size="10.00">+ @33</text>
<text text-anchor="start" x="8" y="-252.5" font-family="Helvetica,sans-Serif" font-size="10.00">and 6 more...</text>
<polyline fill="none" stroke="black" points="0,-245.5 121,-245.5 "/>
<text text-anchor="start" x="8" y="-233.5" font-family="Helvetica,sans-Serif" font-size="10.00">+ Vector()</text>
<text text-anchor="start" x="8" y="-222.5" font-family="Helvetica,sans-Serif" font-size="10.00">+ Vector()</text>
<text text-anchor="start" x="8" y="-211.5" font-family="Helvetica,sans-Serif" font-size="10.00">+ Vector()</text>
<text text-anchor="start" x="8" y="-200.5" font-family="Helvetica,sans-Serif" font-size="10.00">+ Vector()</text>
<text text-anchor="start" x="8" y="-189.5" font-family="Helvetica,sans-Serif" font-size="10.00">+ at()</text>
<text text-anchor="start" x="8" y="-178.5" font-family="Helvetica,sans-Serif" font-size="10.00">+ to_rv()</text>
<text text-anchor="start" x="8" y="-167.5" font-family="Helvetica,sans-Serif" font-size="10.00">+ to_cv()</text>
<text text-anchor="start" x="8" y="-156.5" font-family="Helvetica,sans-Serif" font-size="10.00">+ to_q()</text>
<text text-anchor="start" x="8" y="-145.5" font-family="Helvetica,sans-Serif" font-size="10.00">+ cross()</text>
<text text-anchor="start" x="8" y="-134.5" font-family="Helvetica,sans-Serif" font-size="10.00">+ dot()</text>
<text text-anchor="start" x="8" y="-123.5" font-family="Helvetica,sans-Serif" font-size="10.00">and 23 more...</text>
</a>
</g>
</g>
<!-- Node2&#45;&gt;Node1 -->
<g id="edge1" class="edge"><title>Node2&#45;&gt;Node1</title>
<path fill="none" stroke="#404040" d="M119.574,-116.061C126.755,-102.225 134.429,-88.6484 142.5,-76 144.368,-73.0727 146.414,-70.14 148.563,-67.2515"/>
<polygon fill="none" stroke="#404040" points="148.698,-67.0804 149.287,-59.8934 156.148,-57.6728 155.559,-64.8599 148.698,-67.0804"/>
<text text-anchor="middle" x="160.5" y="-90" font-family="Helvetica,sans-Serif" font-size="10.00"> +com</text>
<text text-anchor="middle" x="160.5" y="-79" font-family="Helvetica,sans-Serif" font-size="10.00">+normal</text>
</g>
<!-- Node3 -->
<g id="node3" class="node"><title>Node3</title>
<polygon fill="white" stroke="#bfbfbf" points="138.5,-232 138.5,-289 226.5,-289 226.5,-232 138.5,-232"/>
<text text-anchor="middle" x="182.5" y="-277" font-family="Helvetica,sans-Serif" font-size="10.00">vector&lt; size_t &gt;</text>
<polyline fill="none" stroke="#bfbfbf" points="138.5,-270 226.5,-270 "/>
<text text-anchor="middle" x="182.5" y="-258" font-family="Helvetica,sans-Serif" font-size="10.00"> </text>
<polyline fill="none" stroke="#bfbfbf" points="138.5,-251 226.5,-251 "/>
<text text-anchor="middle" x="182.5" y="-239" font-family="Helvetica,sans-Serif" font-size="10.00"> </text>
</g>
<!-- Node3&#45;&gt;Node1 -->
<g id="edge2" class="edge"><title>Node3&#45;&gt;Node1</title>
<path fill="none" stroke="#404040" d="M182.5,-231.817C182.5,-191.497 182.5,-116.385 182.5,-70.0379"/>
<polygon fill="none" stroke="#404040" points="182.5,-69.7812 178.5,-63.7813 182.5,-57.7812 186.5,-63.7812 182.5,-69.7812"/>
<text text-anchor="middle" x="202" y="-84.5" font-family="Helvetica,sans-Serif" font-size="10.00"> +groups</text>
</g>
<!-- Node4 -->
<g id="node4" class="node"><title>Node4</title>
<polygon fill="white" stroke="#bfbfbf" points="244.5,-226.5 244.5,-294.5 382.5,-294.5 382.5,-226.5 244.5,-226.5"/>
<text text-anchor="start" x="252.5" y="-282.5" font-family="Helvetica,sans-Serif" font-size="10.00">vector&lt; Cosmos::wavefront</text>
<text text-anchor="middle" x="313.5" y="-271.5" font-family="Helvetica,sans-Serif" font-size="10.00">::vertex &gt;</text>
<polyline fill="none" stroke="#bfbfbf" points="244.5,-264.5 382.5,-264.5 "/>
<text text-anchor="middle" x="313.5" y="-252.5" font-family="Helvetica,sans-Serif" font-size="10.00"> </text>
<polyline fill="none" stroke="#bfbfbf" points="244.5,-245.5 382.5,-245.5 "/>
<text text-anchor="middle" x="313.5" y="-233.5" font-family="Helvetica,sans-Serif" font-size="10.00"> </text>
</g>
<!-- Node4&#45;&gt;Node1 -->
<g id="edge3" class="edge"><title>Node4&#45;&gt;Node1</title>
<path fill="none" stroke="#404040" d="M301.191,-226.391C286.258,-188.341 258.888,-124.863 225.5,-76 223.409,-72.9396 221.117,-69.883 218.715,-66.8827"/>
<polygon fill="none" stroke="#404040" points="218.555,-66.6943 211.619,-64.7185 210.776,-57.5568 217.711,-59.5326 218.555,-66.6943"/>
<text text-anchor="middle" x="258.5" y="-84.5" font-family="Helvetica,sans-Serif" font-size="10.00"> +vertices</text>
</g>
</g>
</svg>
