<?xml version="1.0" encoding="UTF-8" standalone="no"?>
<!DOCTYPE svg PUBLIC "-//W3C//DTD SVG 1.1//EN"
 "http://www.w3.org/Graphics/SVG/1.1/DTD/svg11.dtd">
<!-- Generated by graphviz version 2.38.0 (20140413.2041)
 -->
<!-- Title: extraatt Pages: 1 -->
<svg width="58pt" height="287pt"
 viewBox="0.00 0.00 58.00 287.00" xmlns="http://www.w3.org/2000/svg" xmlns:xlink="http://www.w3.org/1999/xlink">
<g id="graph0" class="graph" transform="scale(1 1) rotate(0) translate(4 283)">
<title>extraatt</title>
<polygon fill="white" stroke="none" points="-4,4 -4,-283 54,-283 54,4 -4,4"/>
<!-- Node1 -->
<g id="node1" class="node"><title>Node1</title>
<polygon fill="#bfbfbf" stroke="black" points="0,-0.5 0,-57.5 50,-57.5 50,-0.5 0,-0.5"/>
<text text-anchor="middle" x="25" y="-45.5" font-family="Helvetica,sans-Serif" font-size="10.00">extraatt</text>
<polyline fill="none" stroke="black" points="0,-38.5 50,-38.5 "/>
<text text-anchor="start" x="8" y="-26.5" font-family="Helvetica,sans-Serif" font-size="10.00">+ utc</text>
<polyline fill="none" stroke="black" points="0,-19.5 50,-19.5 "/>
<text text-anchor="middle" x="25" y="-7.5" font-family="Helvetica,sans-Serif" font-size="10.00"> </text>
</g>
<!-- Node2 -->
<g id="node2" class="node"><title>Node2</title>
<g id="a_node2"><a xlink:href="structrmatrix.html" target="_top" xlink:title="3x3 element generic matrix ">
<polygon fill="white" stroke="black" points="1.5,-116.5 1.5,-173.5 48.5,-173.5 48.5,-116.5 1.5,-116.5"/>
<text text-anchor="middle" x="25" y="-161.5" font-family="Helvetica,sans-Serif" font-size="10.00">rmatrix</text>
<polyline fill="none" stroke="black" points="1.5,-154.5 48.5,-154.5 "/>
<text text-anchor="middle" x="25" y="-142.5" font-family="Helvetica,sans-Serif" font-size="10.00"> </text>
<polyline fill="none" stroke="black" points="1.5,-135.5 48.5,-135.5 "/>
<text text-anchor="middle" x="25" y="-123.5" font-family="Helvetica,sans-Serif" font-size="10.00"> </text>
</a>
</g>
</g>
<!-- Node2&#45;&gt;Node1 -->
<g id="edge1" class="edge"><title>Node2&#45;&gt;Node1</title>
<path fill="none" stroke="#404040" d="M25,-116.404C25,-102.504 25,-85.3915 25,-70.073"/>
<polygon fill="none" stroke="#404040" points="25.0001,-69.7372 21,-63.7372 25,-57.7372 29,-63.7372 25.0001,-69.7372"/>
<text text-anchor="middle" x="36" y="-90" font-family="Helvetica,sans-Serif" font-size="10.00"> +b2j</text>
<text text-anchor="middle" x="36" y="-79" font-family="Helvetica,sans-Serif" font-size="10.00">+j2b</text>
</g>
<!-- Node3 -->
<g id="node3" class="node"><title>Node3</title>
<g id="a_node3"><a xlink:href="structrvector.html" target="_top" xlink:title="3 element generic row vector ">
<polygon fill="white" stroke="black" points="1.5,-221.5 1.5,-278.5 48.5,-278.5 48.5,-221.5 1.5,-221.5"/>
<text text-anchor="middle" x="25" y="-266.5" font-family="Helvetica,sans-Serif" font-size="10.00">rvector</text>
<polyline fill="none" stroke="black" points="1.5,-259.5 48.5,-259.5 "/>
<text text-anchor="start" x="9.5" y="-247.5" font-family="Helvetica,sans-Serif" font-size="10.00">+ col</text>
<polyline fill="none" stroke="black" points="1.5,-240.5 48.5,-240.5 "/>
<text text-anchor="middle" x="25" y="-228.5" font-family="Helvetica,sans-Serif" font-size="10.00"> </text>
</a>
</g>
</g>
<!-- Node3&#45;&gt;Node2 -->
<g id="edge2" class="edge"><title>Node3&#45;&gt;Node2</title>
<path fill="none" stroke="#404040" d="M25,-221.398C25,-210.545 25,-197.873 25,-186.049"/>
<polygon fill="none" stroke="#404040" points="25.0001,-185.678 21,-179.678 25,-173.678 29,-179.678 25.0001,-185.678"/>
<text text-anchor="middle" x="37.5" y="-195" font-family="Helvetica,sans-Serif" font-size="10.00"> +row</text>
</g>
</g>
</svg>
