<?xml version="1.0" encoding="UTF-8" standalone="no"?>
<!DOCTYPE svg PUBLIC "-//W3C//DTD SVG 1.1//EN"
 "http://www.w3.org/Graphics/SVG/1.1/DTD/svg11.dtd">
<!-- Generated by graphviz version 2.38.0 (20140413.2041)
 -->
<!-- Title: nodestruc Pages: 1 -->
<svg width="604pt" height="1119pt"
 viewBox="0.00 0.00 603.50 1119.00" xmlns="http://www.w3.org/2000/svg" xmlns:xlink="http://www.w3.org/1999/xlink">
<g id="graph0" class="graph" transform="scale(1 1) rotate(0) translate(4 1115)">
<title>nodestruc</title>
<polygon fill="white" stroke="none" points="-4,4 -4,-1115 599.5,-1115 599.5,4 -4,4"/>
<!-- Node1 -->
<g id="node1" class="node"><title>Node1</title>
<polygon fill="#bfbfbf" stroke="black" points="415.5,-0.5 415.5,-167.5 495.5,-167.5 495.5,-0.5 415.5,-0.5"/>
<text text-anchor="middle" x="455.5" y="-155.5" font-family="Helvetica,sans-Serif" font-size="10.00">nodestruc</text>
<polyline fill="none" stroke="black" points="415.5,-148.5 495.5,-148.5 "/>
<text text-anchor="start" x="423.5" y="-136.5" font-family="Helvetica,sans-Serif" font-size="10.00">+ name</text>
<text text-anchor="start" x="423.5" y="-125.5" font-family="Helvetica,sans-Serif" font-size="10.00">+ lastevent</text>
<text text-anchor="start" x="423.5" y="-114.5" font-family="Helvetica,sans-Serif" font-size="10.00">+ lasteventutc</text>
<text text-anchor="start" x="423.5" y="-103.5" font-family="Helvetica,sans-Serif" font-size="10.00">+ type</text>
<text text-anchor="start" x="423.5" y="-92.5" font-family="Helvetica,sans-Serif" font-size="10.00">+ state</text>
<text text-anchor="start" x="423.5" y="-81.5" font-family="Helvetica,sans-Serif" font-size="10.00">+ vertex_cnt</text>
<text text-anchor="start" x="423.5" y="-70.5" font-family="Helvetica,sans-Serif" font-size="10.00">+ normal_cnt</text>
<text text-anchor="start" x="423.5" y="-59.5" font-family="Helvetica,sans-Serif" font-size="10.00">+ face_cnt</text>
<text text-anchor="start" x="423.5" y="-48.5" font-family="Helvetica,sans-Serif" font-size="10.00">+ piece_cnt</text>
<text text-anchor="start" x="423.5" y="-37.5" font-family="Helvetica,sans-Serif" font-size="10.00">+ device_cnt</text>
<text text-anchor="start" x="423.5" y="-26.5" font-family="Helvetica,sans-Serif" font-size="10.00">and 25 more...</text>
<polyline fill="none" stroke="black" points="415.5,-19.5 495.5,-19.5 "/>
<text text-anchor="middle" x="455.5" y="-7.5" font-family="Helvetica,sans-Serif" font-size="10.00"> </text>
</g>
<!-- Node2 -->
<g id="node2" class="node"><title>Node2</title>
<g id="a_node2"><a xlink:href="structlocstruc.html" target="_top" xlink:title="{locstruc\n|+ utc\l+ orbit\l|}">
<polygon fill="white" stroke="black" points="189,-215.5 189,-283.5 240,-283.5 240,-215.5 189,-215.5"/>
<text text-anchor="middle" x="214.5" y="-271.5" font-family="Helvetica,sans-Serif" font-size="10.00">locstruc</text>
<polyline fill="none" stroke="black" points="189,-264.5 240,-264.5 "/>
<text text-anchor="start" x="197" y="-252.5" font-family="Helvetica,sans-Serif" font-size="10.00">+ utc</text>
<text text-anchor="start" x="197" y="-241.5" font-family="Helvetica,sans-Serif" font-size="10.00">+ orbit</text>
<polyline fill="none" stroke="black" points="189,-234.5 240,-234.5 "/>
<text text-anchor="middle" x="214.5" y="-222.5" font-family="Helvetica,sans-Serif" font-size="10.00"> </text>
</a>
</g>
</g>
<!-- Node2&#45;&gt;Node1 -->
<g id="edge1" class="edge"><title>Node2&#45;&gt;Node1</title>
<path fill="none" stroke="#404040" d="M240.291,-231.003C279.484,-204.413 354.787,-153.326 405.097,-119.194"/>
<polygon fill="none" stroke="#404040" points="405.189,-119.132 407.909,-112.453 415.12,-112.395 412.4,-119.074 405.189,-119.132"/>
<text text-anchor="middle" x="317.5" y="-189" font-family="Helvetica,sans-Serif" font-size="10.00"> +loc</text>
</g>
<!-- Node3 -->
<g id="node3" class="node"><title>Node3</title>
<g id="a_node3"><a xlink:href="structposstruc.html" target="_top" xlink:title="{posstruc\n|+ utc\l+ earthsep\l+ moonsep\l+ sunsize\l+ sunradiance\l|}">
<polygon fill="white" stroke="black" points="336.5,-331.5 336.5,-432.5 414.5,-432.5 414.5,-331.5 336.5,-331.5"/>
<text text-anchor="middle" x="375.5" y="-420.5" font-family="Helvetica,sans-Serif" font-size="10.00">posstruc</text>
<polyline fill="none" stroke="black" points="336.5,-413.5 414.5,-413.5 "/>
<text text-anchor="start" x="344.5" y="-401.5" font-family="Helvetica,sans-Serif" font-size="10.00">+ utc</text>
<text text-anchor="start" x="344.5" y="-390.5" font-family="Helvetica,sans-Serif" font-size="10.00">+ earthsep</text>
<text text-anchor="start" x="344.5" y="-379.5" font-family="Helvetica,sans-Serif" font-size="10.00">+ moonsep</text>
<text text-anchor="start" x="344.5" y="-368.5" font-family="Helvetica,sans-Serif" font-size="10.00">+ sunsize</text>
<text text-anchor="start" x="344.5" y="-357.5" font-family="Helvetica,sans-Serif" font-size="10.00">+ sunradiance</text>
<polyline fill="none" stroke="black" points="336.5,-350.5 414.5,-350.5 "/>
<text text-anchor="middle" x="375.5" y="-338.5" font-family="Helvetica,sans-Serif" font-size="10.00"> </text>
</a>
</g>
</g>
<!-- Node3&#45;&gt;Node2 -->
<g id="edge2" class="edge"><title>Node3&#45;&gt;Node2</title>
<path fill="none" stroke="#404040" d="M336.115,-349.076C309.816,-327.759 275.514,-299.956 250.047,-279.313"/>
<polygon fill="none" stroke="#404040" points="249.734,-279.06 242.554,-278.389 240.412,-271.503 247.592,-272.174 249.734,-279.06"/>
<text text-anchor="middle" x="303" y="-305" font-family="Helvetica,sans-Serif" font-size="10.00"> +pos</text>
</g>
<!-- Node4 -->
<g id="node4" class="node"><title>Node4</title>
<g id="a_node4"><a xlink:href="structgeoidpos.html" target="_top" xlink:title="Geodetic position structure. ">
<polygon fill="white" stroke="black" points="486.5,-563 486.5,-631 542.5,-631 542.5,-563 486.5,-563"/>
<text text-anchor="middle" x="514.5" y="-619" font-family="Helvetica,sans-Serif" font-size="10.00">geoidpos</text>
<polyline fill="none" stroke="black" points="486.5,-612 542.5,-612 "/>
<text text-anchor="start" x="494.5" y="-600" font-family="Helvetica,sans-Serif" font-size="10.00">+ utc</text>
<text text-anchor="start" x="494.5" y="-589" font-family="Helvetica,sans-Serif" font-size="10.00">+ pass</text>
<polyline fill="none" stroke="black" points="486.5,-582 542.5,-582 "/>
<text text-anchor="middle" x="514.5" y="-570" font-family="Helvetica,sans-Serif" font-size="10.00"> </text>
</a>
</g>
</g>
<!-- Node4&#45;&gt;Node3 -->
<g id="edge3" class="edge"><title>Node4&#45;&gt;Node3</title>
<path fill="none" stroke="#404040" d="M505.679,-562.97C496.348,-532.044 479.488,-485.546 454.5,-451 445.966,-439.201 434.991,-428.101 423.953,-418.426"/>
<polygon fill="none" stroke="#404040" points="423.898,-418.38 416.732,-417.575 414.719,-410.651 421.885,-411.456 423.898,-418.38"/>
<text text-anchor="middle" x="497.5" y="-481.5" font-family="Helvetica,sans-Serif" font-size="10.00"> +selg</text>
<text text-anchor="middle" x="497.5" y="-470.5" font-family="Helvetica,sans-Serif" font-size="10.00">+geod</text>
</g>
<!-- Node5 -->
<g id="node5" class="node"><title>Node5</title>
<g id="a_node5"><a xlink:href="structgvector.html" target="_top" xlink:title="3 element geodetic vector ">
<polygon fill="white" stroke="black" points="490,-827.5 490,-906.5 539,-906.5 539,-827.5 490,-827.5"/>
<text text-anchor="middle" x="514.5" y="-894.5" font-family="Helvetica,sans-Serif" font-size="10.00">gvector</text>
<polyline fill="none" stroke="black" points="490,-887.5 539,-887.5 "/>
<text text-anchor="start" x="498" y="-875.5" font-family="Helvetica,sans-Serif" font-size="10.00">+ lat</text>
<text text-anchor="start" x="498" y="-864.5" font-family="Helvetica,sans-Serif" font-size="10.00">+ lon</text>
<text text-anchor="start" x="498" y="-853.5" font-family="Helvetica,sans-Serif" font-size="10.00">+ h</text>
<polyline fill="none" stroke="black" points="490,-846.5 539,-846.5 "/>
<text text-anchor="middle" x="514.5" y="-834.5" font-family="Helvetica,sans-Serif" font-size="10.00"> </text>
</a>
</g>
</g>
<!-- Node5&#45;&gt;Node4 -->
<g id="edge4" class="edge"><title>Node5&#45;&gt;Node4</title>
<path fill="none" stroke="#404040" d="M514.5,-827.317C514.5,-778.572 514.5,-694.937 514.5,-643.27"/>
<polygon fill="none" stroke="#404040" points="514.5,-643.179 510.5,-637.179 514.5,-631.179 518.5,-637.179 514.5,-643.179"/>
<text text-anchor="middle" x="522" y="-757" font-family="Helvetica,sans-Serif" font-size="10.00"> +a</text>
<text text-anchor="middle" x="522" y="-746" font-family="Helvetica,sans-Serif" font-size="10.00">+s</text>
<text text-anchor="middle" x="522" y="-735" font-family="Helvetica,sans-Serif" font-size="10.00">+v</text>
</g>
<!-- Node6 -->
<g id="node6" class="node"><title>Node6</title>
<g id="a_node6"><a xlink:href="structspherpos.html" target="_top" xlink:title="Spherical position structure. ">
<polygon fill="white" stroke="black" points="204.5,-563 204.5,-631 260.5,-631 260.5,-563 204.5,-563"/>
<text text-anchor="middle" x="232.5" y="-619" font-family="Helvetica,sans-Serif" font-size="10.00">spherpos</text>
<polyline fill="none" stroke="black" points="204.5,-612 260.5,-612 "/>
<text text-anchor="start" x="212.5" y="-600" font-family="Helvetica,sans-Serif" font-size="10.00">+ utc</text>
<text text-anchor="start" x="212.5" y="-589" font-family="Helvetica,sans-Serif" font-size="10.00">+ pass</text>
<polyline fill="none" stroke="black" points="204.5,-582 260.5,-582 "/>
<text text-anchor="middle" x="232.5" y="-570" font-family="Helvetica,sans-Serif" font-size="10.00"> </text>
</a>
</g>
</g>
<!-- Node6&#45;&gt;Node3 -->
<g id="edge5" class="edge"><title>Node6&#45;&gt;Node3</title>
<path fill="none" stroke="#404040" d="M227.266,-562.81C224.122,-531.338 224.307,-484.077 246.5,-451 264.582,-424.051 296.9,-407.041 324.663,-396.773"/>
<polygon fill="none" stroke="#404040" points="324.887,-396.696 329.251,-390.955 336.228,-392.776 331.864,-398.516 324.887,-396.696"/>
<text text-anchor="middle" x="262" y="-476" font-family="Helvetica,sans-Serif" font-size="10.00"> +geos</text>
</g>
<!-- Node7 -->
<g id="node7" class="node"><title>Node7</title>
<g id="a_node7"><a xlink:href="structsvector.html" target="_top" xlink:title="3 element spherical vector ">
<polygon fill="white" stroke="black" points="204,-827.5 204,-906.5 261,-906.5 261,-827.5 204,-827.5"/>
<text text-anchor="middle" x="232.5" y="-894.5" font-family="Helvetica,sans-Serif" font-size="10.00">svector</text>
<polyline fill="none" stroke="black" points="204,-887.5 261,-887.5 "/>
<text text-anchor="start" x="212" y="-875.5" font-family="Helvetica,sans-Serif" font-size="10.00">+ phi</text>
<text text-anchor="start" x="212" y="-864.5" font-family="Helvetica,sans-Serif" font-size="10.00">+ lambda</text>
<text text-anchor="start" x="212" y="-853.5" font-family="Helvetica,sans-Serif" font-size="10.00">+ r</text>
<polyline fill="none" stroke="black" points="204,-846.5 261,-846.5 "/>
<text text-anchor="middle" x="232.5" y="-834.5" font-family="Helvetica,sans-Serif" font-size="10.00"> </text>
</a>
</g>
</g>
<!-- Node7&#45;&gt;Node6 -->
<g id="edge6" class="edge"><title>Node7&#45;&gt;Node6</title>
<path fill="none" stroke="#404040" d="M232.5,-827.317C232.5,-778.572 232.5,-694.937 232.5,-643.27"/>
<polygon fill="none" stroke="#404040" points="232.5,-643.179 228.5,-637.179 232.5,-631.179 236.5,-637.179 232.5,-643.179"/>
<text text-anchor="middle" x="240" y="-757" font-family="Helvetica,sans-Serif" font-size="10.00"> +a</text>
<text text-anchor="middle" x="240" y="-746" font-family="Helvetica,sans-Serif" font-size="10.00">+s</text>
<text text-anchor="middle" x="240" y="-735" font-family="Helvetica,sans-Serif" font-size="10.00">+v</text>
</g>
<!-- Node8 -->
<g id="node8" class="node"><title>Node8</title>
<g id="a_node8"><a xlink:href="structcartpos.html" target="_top" xlink:title="Cartesian full position structure. ">
<polygon fill="white" stroke="black" points="346,-833 346,-901 395,-901 395,-833 346,-833"/>
<text text-anchor="middle" x="370.5" y="-889" font-family="Helvetica,sans-Serif" font-size="10.00">cartpos</text>
<polyline fill="none" stroke="black" points="346,-882 395,-882 "/>
<text text-anchor="start" x="354" y="-870" font-family="Helvetica,sans-Serif" font-size="10.00">+ utc</text>
<text text-anchor="start" x="354" y="-859" font-family="Helvetica,sans-Serif" font-size="10.00">+ pass</text>
<polyline fill="none" stroke="black" points="346,-852 395,-852 "/>
<text text-anchor="middle" x="370.5" y="-840" font-family="Helvetica,sans-Serif" font-size="10.00"> </text>
</a>
</g>
</g>
<!-- Node8&#45;&gt;Node3 -->
<g id="edge7" class="edge"><title>Node8&#45;&gt;Node3</title>
<path fill="none" stroke="#404040" d="M395.201,-848.373C407.074,-838.344 420.092,-824.665 426.5,-809 447.083,-758.68 425.951,-506.533 410.5,-451 409.833,-448.602 409.075,-446.19 408.245,-443.779"/>
<polygon fill="none" stroke="#404040" points="408.233,-443.75 402.332,-439.606 403.887,-432.565 409.788,-436.708 408.233,-443.75"/>
<text text-anchor="middle" x="447.5" y="-616.5" font-family="Helvetica,sans-Serif" font-size="10.00"> +selc</text>
<text text-anchor="middle" x="447.5" y="-605.5" font-family="Helvetica,sans-Serif" font-size="10.00">+icrf</text>
<text text-anchor="middle" x="447.5" y="-594.5" font-family="Helvetica,sans-Serif" font-size="10.00">+sci</text>
<text text-anchor="middle" x="447.5" y="-583.5" font-family="Helvetica,sans-Serif" font-size="10.00">+geoc</text>
<text text-anchor="middle" x="447.5" y="-572.5" font-family="Helvetica,sans-Serif" font-size="10.00">+eci</text>
</g>
<!-- Node10 -->
<g id="node10" class="node"><title>Node10</title>
<g id="a_node10"><a xlink:href="structextrapos.html" target="_top" xlink:title="Additional parameters relating to position that need only be calculated once. ">
<polygon fill="white" stroke="black" points="347,-524.5 347,-669.5 404,-669.5 404,-524.5 347,-524.5"/>
<text text-anchor="middle" x="375.5" y="-657.5" font-family="Helvetica,sans-Serif" font-size="10.00">extrapos</text>
<polyline fill="none" stroke="black" points="347,-650.5 404,-650.5 "/>
<text text-anchor="start" x="355" y="-638.5" font-family="Helvetica,sans-Serif" font-size="10.00">+ utc</text>
<text text-anchor="start" x="355" y="-627.5" font-family="Helvetica,sans-Serif" font-size="10.00">+ tt</text>
<text text-anchor="start" x="355" y="-616.5" font-family="Helvetica,sans-Serif" font-size="10.00">+ ut</text>
<text text-anchor="start" x="355" y="-605.5" font-family="Helvetica,sans-Serif" font-size="10.00">+ tdb</text>
<text text-anchor="start" x="355" y="-594.5" font-family="Helvetica,sans-Serif" font-size="10.00">+ j2e</text>
<text text-anchor="start" x="355" y="-583.5" font-family="Helvetica,sans-Serif" font-size="10.00">+ dj2e</text>
<text text-anchor="start" x="355" y="-572.5" font-family="Helvetica,sans-Serif" font-size="10.00">+ ddj2e</text>
<text text-anchor="start" x="355" y="-561.5" font-family="Helvetica,sans-Serif" font-size="10.00">+ de2j</text>
<text text-anchor="start" x="355" y="-550.5" font-family="Helvetica,sans-Serif" font-size="10.00">+ closest</text>
<polyline fill="none" stroke="black" points="347,-543.5 404,-543.5 "/>
<text text-anchor="middle" x="375.5" y="-531.5" font-family="Helvetica,sans-Serif" font-size="10.00"> </text>
</a>
</g>
</g>
<!-- Node8&#45;&gt;Node10 -->
<g id="edge10" class="edge"><title>Node8&#45;&gt;Node10</title>
<path fill="none" stroke="#404040" d="M370.302,-832.86C370.179,-797.109 370.236,-738.511 371.5,-688 371.551,-685.958 371.607,-683.889 371.668,-681.803"/>
<polygon fill="none" stroke="#404040" points="371.671,-681.708 367.869,-675.581 372.062,-669.714 375.864,-675.841 371.671,-681.708"/>
<text text-anchor="middle" x="399" y="-751.5" font-family="Helvetica,sans-Serif" font-size="10.00"> +sun2moon</text>
<text text-anchor="middle" x="399" y="-740.5" font-family="Helvetica,sans-Serif" font-size="10.00">+sun2earth</text>
</g>
<!-- Node9 -->
<g id="node9" class="node"><title>Node9</title>
<g id="a_node9"><a xlink:href="structrvector.html" target="_top" xlink:title="3 element generic row vector ">
<polygon fill="white" stroke="black" points="280,-1015 280,-1072 327,-1072 327,-1015 280,-1015"/>
<text text-anchor="middle" x="303.5" y="-1060" font-family="Helvetica,sans-Serif" font-size="10.00">rvector</text>
<polyline fill="none" stroke="black" points="280,-1053 327,-1053 "/>
<text text-anchor="start" x="288" y="-1041" font-family="Helvetica,sans-Serif" font-size="10.00">+ col</text>
<polyline fill="none" stroke="black" points="280,-1034 327,-1034 "/>
<text text-anchor="middle" x="303.5" y="-1022" font-family="Helvetica,sans-Serif" font-size="10.00"> </text>
</a>
</g>
</g>
<!-- Node9&#45;&gt;Node1 -->
<g id="edge21" class="edge"><title>Node9&#45;&gt;Node1</title>
<path fill="none" stroke="#404040" d="M327.194,-1038.72C392.539,-1026.8 570.5,-983.736 570.5,-868 570.5,-868 570.5,-868 570.5,-248.5 570.5,-199.858 536.026,-155.467 504.828,-125.255"/>
<polygon fill="none" stroke="#404040" points="504.483,-124.931 497.369,-123.752 495.721,-116.731 502.835,-117.911 504.483,-124.931"/>
<text text-anchor="middle" x="583" y="-476" font-family="Helvetica,sans-Serif" font-size="10.00"> +moi</text>
</g>
<!-- Node9&#45;&gt;Node2 -->
<g id="edge13" class="edge"><title>Node9&#45;&gt;Node2</title>
<path fill="none" stroke="#404040" d="M279.775,-1029.97C236.577,-1005.25 149.5,-945.781 149.5,-868 149.5,-868 149.5,-868 149.5,-381 149.5,-348.554 165.798,-315.881 182.071,-291.344"/>
<polygon fill="none" stroke="#404040" points="182.162,-291.213 182.292,-284.003 188.997,-281.35 188.867,-288.56 182.162,-291.213"/>
<text text-anchor="middle" x="168" y="-594.5" font-family="Helvetica,sans-Serif" font-size="10.00"> +bearth</text>
</g>
<!-- Node9&#45;&gt;Node8 -->
<g id="edge8" class="edge"><title>Node9&#45;&gt;Node8</title>
<path fill="none" stroke="#404040" d="M314.116,-1014.85C324.665,-987.375 341.013,-944.797 353.395,-912.549"/>
<polygon fill="none" stroke="#404040" points="353.458,-912.385 351.875,-905.35 357.76,-901.182 359.343,-908.217 353.458,-912.385"/>
<text text-anchor="middle" x="355" y="-950" font-family="Helvetica,sans-Serif" font-size="10.00"> +a</text>
<text text-anchor="middle" x="355" y="-939" font-family="Helvetica,sans-Serif" font-size="10.00">+s</text>
<text text-anchor="middle" x="355" y="-928" font-family="Helvetica,sans-Serif" font-size="10.00">+v</text>
</g>
<!-- Node11 -->
<g id="node11" class="node"><title>Node11</title>
<g id="a_node11"><a xlink:href="structrmatrix.html" target="_top" xlink:title="3x3 element generic matrix ">
<polygon fill="white" stroke="black" points="280,-838.5 280,-895.5 327,-895.5 327,-838.5 280,-838.5"/>
<text text-anchor="middle" x="303.5" y="-883.5" font-family="Helvetica,sans-Serif" font-size="10.00">rmatrix</text>
<polyline fill="none" stroke="black" points="280,-876.5 327,-876.5 "/>
<text text-anchor="middle" x="303.5" y="-864.5" font-family="Helvetica,sans-Serif" font-size="10.00"> </text>
<polyline fill="none" stroke="black" points="280,-857.5 327,-857.5 "/>
<text text-anchor="middle" x="303.5" y="-845.5" font-family="Helvetica,sans-Serif" font-size="10.00"> </text>
</a>
</g>
</g>
<!-- Node9&#45;&gt;Node11 -->
<g id="edge12" class="edge"><title>Node9&#45;&gt;Node11</title>
<path fill="none" stroke="#404040" d="M303.5,-1014.85C303.5,-986.004 303.5,-940.51 303.5,-907.802"/>
<polygon fill="none" stroke="#404040" points="303.5,-907.521 299.5,-901.521 303.5,-895.521 307.5,-901.521 303.5,-907.521"/>
<text text-anchor="middle" x="316" y="-939" font-family="Helvetica,sans-Serif" font-size="10.00"> +row</text>
</g>
<!-- Node13 -->
<g id="node13" class="node"><title>Node13</title>
<g id="a_node13"><a xlink:href="structqatt.html" target="_top" xlink:title="Quaternion Attitude. ">
<polygon fill="white" stroke="black" points="66,-563 66,-631 113,-631 113,-563 66,-563"/>
<text text-anchor="middle" x="89.5" y="-619" font-family="Helvetica,sans-Serif" font-size="10.00">qatt</text>
<polyline fill="none" stroke="black" points="66,-612 113,-612 "/>
<text text-anchor="start" x="74" y="-600" font-family="Helvetica,sans-Serif" font-size="10.00">+ utc</text>
<text text-anchor="start" x="74" y="-589" font-family="Helvetica,sans-Serif" font-size="10.00">+ pass</text>
<polyline fill="none" stroke="black" points="66,-582 113,-582 "/>
<text text-anchor="middle" x="89.5" y="-570" font-family="Helvetica,sans-Serif" font-size="10.00"> </text>
</a>
</g>
</g>
<!-- Node9&#45;&gt;Node13 -->
<g id="edge18" class="edge"><title>Node9&#45;&gt;Node13</title>
<path fill="none" stroke="#404040" d="M279.945,-1037.07C243.559,-1027.47 173.884,-1004 135.5,-958 115.668,-934.234 99.1781,-734.835 92.585,-643.44"/>
<polygon fill="none" stroke="#404040" points="92.5723,-643.26 88.1568,-637.559 91.7211,-631.29 96.1366,-636.991 92.5723,-643.26"/>
<text text-anchor="middle" x="128" y="-870" font-family="Helvetica,sans-Serif" font-size="10.00"> +a</text>
<text text-anchor="middle" x="128" y="-859" font-family="Helvetica,sans-Serif" font-size="10.00">+v</text>
</g>
<!-- Node10&#45;&gt;Node3 -->
<g id="edge9" class="edge"><title>Node10&#45;&gt;Node3</title>
<path fill="none" stroke="#404040" d="M375.5,-524.482C375.5,-498.738 375.5,-469.926 375.5,-445.055"/>
<polygon fill="none" stroke="#404040" points="375.5,-444.82 371.5,-438.82 375.5,-432.82 379.5,-438.82 375.5,-444.82"/>
<text text-anchor="middle" x="391" y="-476" font-family="Helvetica,sans-Serif" font-size="10.00"> +extra</text>
</g>
<!-- Node11&#45;&gt;Node10 -->
<g id="edge11" class="edge"><title>Node11&#45;&gt;Node10</title>
<path fill="none" stroke="#404040" d="M306.654,-838.4C311.141,-803.012 320.634,-740.006 336.5,-688 338.287,-682.144 340.34,-676.158 342.552,-670.193"/>
<polygon fill="none" stroke="#404040" points="342.634,-669.98 341.071,-662.94 346.968,-658.79 348.531,-665.83 342.634,-669.98"/>
<text text-anchor="middle" x="351.5" y="-801" font-family="Helvetica,sans-Serif" font-size="10.00"> +t2s</text>
<text text-anchor="middle" x="351.5" y="-790" font-family="Helvetica,sans-Serif" font-size="10.00">+s2t</text>
<text text-anchor="middle" x="351.5" y="-779" font-family="Helvetica,sans-Serif" font-size="10.00">+dt2s</text>
<text text-anchor="middle" x="351.5" y="-768" font-family="Helvetica,sans-Serif" font-size="10.00">+ds2t</text>
<text text-anchor="middle" x="351.5" y="-757" font-family="Helvetica,sans-Serif" font-size="10.00">+s2j</text>
<text text-anchor="middle" x="351.5" y="-746" font-family="Helvetica,sans-Serif" font-size="10.00">+j2s</text>
<text text-anchor="middle" x="351.5" y="-735" font-family="Helvetica,sans-Serif" font-size="10.00">+t2j</text>
<text text-anchor="middle" x="351.5" y="-724" font-family="Helvetica,sans-Serif" font-size="10.00">+j2t</text>
<text text-anchor="middle" x="351.5" y="-713" font-family="Helvetica,sans-Serif" font-size="10.00">+dde2j</text>
<text text-anchor="middle" x="351.5" y="-702" font-family="Helvetica,sans-Serif" font-size="10.00">+e2j</text>
<text text-anchor="middle" x="351.5" y="-691" font-family="Helvetica,sans-Serif" font-size="10.00">...</text>
</g>
<!-- Node16 -->
<g id="node16" class="node"><title>Node16</title>
<g id="a_node16"><a xlink:href="structextraatt.html" target="_top" xlink:title="Additional parameters relating to position that need only be calculated once. ">
<polygon fill="white" stroke="black" points="278.5,-568.5 278.5,-625.5 328.5,-625.5 328.5,-568.5 278.5,-568.5"/>
<text text-anchor="middle" x="303.5" y="-613.5" font-family="Helvetica,sans-Serif" font-size="10.00">extraatt</text>
<polyline fill="none" stroke="black" points="278.5,-606.5 328.5,-606.5 "/>
<text text-anchor="start" x="286.5" y="-594.5" font-family="Helvetica,sans-Serif" font-size="10.00">+ utc</text>
<polyline fill="none" stroke="black" points="278.5,-587.5 328.5,-587.5 "/>
<text text-anchor="middle" x="303.5" y="-575.5" font-family="Helvetica,sans-Serif" font-size="10.00"> </text>
</a>
</g>
</g>
<!-- Node11&#45;&gt;Node16 -->
<g id="edge20" class="edge"><title>Node11&#45;&gt;Node16</title>
<path fill="none" stroke="#404040" d="M285.535,-838.381C280.636,-829.38 275.995,-819.096 273.5,-809 260.6,-756.792 264.886,-741.083 273.5,-688 276.275,-670.899 281.835,-652.657 287.422,-637.098"/>
<polygon fill="none" stroke="#404040" points="287.449,-637.026 285.805,-630.004 291.654,-625.787 293.298,-632.808 287.449,-637.026"/>
<text text-anchor="middle" x="284.5" y="-751.5" font-family="Helvetica,sans-Serif" font-size="10.00"> +b2j</text>
<text text-anchor="middle" x="284.5" y="-740.5" font-family="Helvetica,sans-Serif" font-size="10.00">+j2b</text>
</g>
<!-- Node12 -->
<g id="node12" class="node"><title>Node12</title>
<g id="a_node12"><a xlink:href="structattstruc.html" target="_top" xlink:title="{attstruc\n|+ utc\l|}">
<polygon fill="white" stroke="black" points="71.5,-353.5 71.5,-410.5 121.5,-410.5 121.5,-353.5 71.5,-353.5"/>
<text text-anchor="middle" x="96.5" y="-398.5" font-family="Helvetica,sans-Serif" font-size="10.00">attstruc</text>
<polyline fill="none" stroke="black" points="71.5,-391.5 121.5,-391.5 "/>
<text text-anchor="start" x="79.5" y="-379.5" font-family="Helvetica,sans-Serif" font-size="10.00">+ utc</text>
<polyline fill="none" stroke="black" points="71.5,-372.5 121.5,-372.5 "/>
<text text-anchor="middle" x="96.5" y="-360.5" font-family="Helvetica,sans-Serif" font-size="10.00"> </text>
</a>
</g>
</g>
<!-- Node12&#45;&gt;Node2 -->
<g id="edge14" class="edge"><title>Node12&#45;&gt;Node2</title>
<path fill="none" stroke="#404040" d="M97.1065,-353.304C98.7586,-336.907 103.207,-316.562 114.5,-302 130.151,-281.818 155.909,-268.816 177.363,-260.925"/>
<polygon fill="none" stroke="#404040" points="177.386,-260.917 181.779,-255.199 188.747,-257.054 184.355,-262.773 177.386,-260.917"/>
<text text-anchor="middle" x="125" y="-305" font-family="Helvetica,sans-Serif" font-size="10.00"> +att</text>
</g>
<!-- Node13&#45;&gt;Node12 -->
<g id="edge15" class="edge"><title>Node13&#45;&gt;Node12</title>
<path fill="none" stroke="#404040" d="M90.5938,-562.719C91.8386,-524.84 93.8706,-463.01 95.1965,-422.662"/>
<polygon fill="none" stroke="#404040" points="95.1978,-422.621 91.3971,-416.493 95.592,-410.628 99.3928,-416.756 95.1978,-422.621"/>
<text text-anchor="middle" x="108.5" y="-498" font-family="Helvetica,sans-Serif" font-size="10.00"> +selc</text>
<text text-anchor="middle" x="108.5" y="-487" font-family="Helvetica,sans-Serif" font-size="10.00">+topo</text>
<text text-anchor="middle" x="108.5" y="-476" font-family="Helvetica,sans-Serif" font-size="10.00">+icrf</text>
<text text-anchor="middle" x="108.5" y="-465" font-family="Helvetica,sans-Serif" font-size="10.00">+geoc</text>
<text text-anchor="middle" x="108.5" y="-454" font-family="Helvetica,sans-Serif" font-size="10.00">+lvlh</text>
</g>
<!-- Node14 -->
<g id="node14" class="node"><title>Node14</title>
<g id="a_node14"><a xlink:href="structquaternion.html" target="_top" xlink:title="Quaternion, scalar last, using x, y, z. ">
<polygon fill="white" stroke="black" points="8.5,-838.5 8.5,-895.5 70.5,-895.5 70.5,-838.5 8.5,-838.5"/>
<text text-anchor="middle" x="39.5" y="-883.5" font-family="Helvetica,sans-Serif" font-size="10.00">quaternion</text>
<polyline fill="none" stroke="black" points="8.5,-876.5 70.5,-876.5 "/>
<text text-anchor="start" x="16.5" y="-864.5" font-family="Helvetica,sans-Serif" font-size="10.00">+ w</text>
<polyline fill="none" stroke="black" points="8.5,-857.5 70.5,-857.5 "/>
<text text-anchor="middle" x="39.5" y="-845.5" font-family="Helvetica,sans-Serif" font-size="10.00"> </text>
</a>
</g>
</g>
<!-- Node14&#45;&gt;Node13 -->
<g id="edge16" class="edge"><title>Node14&#45;&gt;Node13</title>
<path fill="none" stroke="#404040" d="M44.6626,-838.329C53.2685,-792.201 70.6275,-699.156 81.0409,-643.341"/>
<polygon fill="none" stroke="#404040" points="81.0767,-643.148 78.245,-636.517 83.2776,-631.352 86.1093,-637.984 81.0767,-643.148"/>
<text text-anchor="middle" x="80" y="-746" font-family="Helvetica,sans-Serif" font-size="10.00"> +s</text>
</g>
<!-- Node15 -->
<g id="node15" class="node"><title>Node15</title>
<g id="a_node15"><a xlink:href="classcvector.html" target="_top" xlink:title="3 element cartesian vector ">
<polygon fill="white" stroke="black" points="0,-976.5 0,-1110.5 79,-1110.5 79,-976.5 0,-976.5"/>
<text text-anchor="middle" x="39.5" y="-1098.5" font-family="Helvetica,sans-Serif" font-size="10.00">cvector</text>
<polyline fill="none" stroke="black" points="0,-1091.5 79,-1091.5 "/>
<text text-anchor="start" x="8" y="-1079.5" font-family="Helvetica,sans-Serif" font-size="10.00">+ x</text>
<text text-anchor="start" x="8" y="-1068.5" font-family="Helvetica,sans-Serif" font-size="10.00">+ y</text>
<text text-anchor="start" x="8" y="-1057.5" font-family="Helvetica,sans-Serif" font-size="10.00">+ z</text>
<polyline fill="none" stroke="black" points="0,-1050.5 79,-1050.5 "/>
<text text-anchor="start" x="8" y="-1038.5" font-family="Helvetica,sans-Serif" font-size="10.00">+ normalize()</text>
<text text-anchor="start" x="8" y="-1027.5" font-family="Helvetica,sans-Serif" font-size="10.00">+ length()</text>
<text text-anchor="start" x="8" y="-1016.5" font-family="Helvetica,sans-Serif" font-size="10.00">+ norm()</text>
<text text-anchor="start" x="8" y="-1005.5" font-family="Helvetica,sans-Serif" font-size="10.00">+ norm2()</text>
<text text-anchor="start" x="8" y="-994.5" font-family="Helvetica,sans-Serif" font-size="10.00">+ normalized()</text>
<text text-anchor="start" x="8" y="-983.5" font-family="Helvetica,sans-Serif" font-size="10.00">+ operator[]()</text>
</a>
</g>
</g>
<!-- Node15&#45;&gt;Node14 -->
<g id="edge17" class="edge"><title>Node15&#45;&gt;Node14</title>
<path fill="none" stroke="#404040" d="M39.5,-976.031C39.5,-953.01 39.5,-927.938 39.5,-907.749"/>
<polygon fill="none" stroke="#404040" points="39.5001,-907.564 35.5,-901.564 39.5,-895.564 43.5,-901.564 39.5001,-907.564"/>
<text text-anchor="middle" x="47" y="-939" font-family="Helvetica,sans-Serif" font-size="10.00"> +d</text>
</g>
<!-- Node16&#45;&gt;Node12 -->
<g id="edge19" class="edge"><title>Node16&#45;&gt;Node12</title>
<path fill="none" stroke="#404040" d="M306.129,-568.367C307.616,-536.455 305.078,-484.114 277.5,-451 241.582,-407.871 175.37,-392.072 133.759,-386.301"/>
<polygon fill="none" stroke="#404040" points="133.605,-386.282 127.161,-389.518 121.696,-384.813 128.14,-381.578 133.605,-386.282"/>
<text text-anchor="middle" x="318" y="-476" font-family="Helvetica,sans-Serif" font-size="10.00"> +extra</text>
</g>
</g>
</svg>
