<?xml version="1.0" encoding="UTF-8" standalone="no"?>
<!DOCTYPE svg PUBLIC "-//W3C//DTD SVG 1.1//EN"
 "http://www.w3.org/Graphics/SVG/1.1/DTD/svg11.dtd">
<!-- Generated by graphviz version 2.38.0 (20140413.2041)
 -->
<!-- Title: equationstruc Pages: 1 -->
<svg width="83pt" height="182pt"
 viewBox="0.00 0.00 83.00 182.00" xmlns="http://www.w3.org/2000/svg" xmlns:xlink="http://www.w3.org/1999/xlink">
<g id="graph0" class="graph" transform="scale(1 1) rotate(0) translate(4 178)">
<title>equationstruc</title>
<polygon fill="white" stroke="none" points="-4,4 -4,-178 79,-178 79,4 -4,4"/>
<!-- Node1 -->
<g id="node1" class="node"><title>Node1</title>
<polygon fill="#bfbfbf" stroke="black" points="-7.10543e-15,-0.5 -7.10543e-15,-57.5 75,-57.5 75,-0.5 -7.10543e-15,-0.5"/>
<text text-anchor="middle" x="37.5" y="-45.5" font-family="Helvetica,sans-Serif" font-size="10.00">equationstruc</text>
<polyline fill="none" stroke="black" points="-7.10543e-15,-38.5 75,-38.5 "/>
<text text-anchor="middle" x="37.5" y="-26.5" font-family="Helvetica,sans-Serif" font-size="10.00"> </text>
<polyline fill="none" stroke="black" points="-7.10543e-15,-19.5 75,-19.5 "/>
<text text-anchor="middle" x="37.5" y="-7.5" font-family="Helvetica,sans-Serif" font-size="10.00"> </text>
</g>
<!-- Node2 -->
<g id="node2" class="node"><title>Node2</title>
<polygon fill="white" stroke="#bfbfbf" points="17,-116.5 17,-173.5 58,-173.5 58,-116.5 17,-116.5"/>
<text text-anchor="middle" x="37.5" y="-161.5" font-family="Helvetica,sans-Serif" font-size="10.00">string</text>
<polyline fill="none" stroke="#bfbfbf" points="17,-154.5 58,-154.5 "/>
<text text-anchor="middle" x="37.5" y="-142.5" font-family="Helvetica,sans-Serif" font-size="10.00"> </text>
<polyline fill="none" stroke="#bfbfbf" points="17,-135.5 58,-135.5 "/>
<text text-anchor="middle" x="37.5" y="-123.5" font-family="Helvetica,sans-Serif" font-size="10.00"> </text>
</g>
<!-- Node2&#45;&gt;Node1 -->
<g id="edge1" class="edge"><title>Node2&#45;&gt;Node1</title>
<path fill="none" stroke="#404040" d="M37.5,-116.404C37.5,-102.504 37.5,-85.3915 37.5,-70.073"/>
<polygon fill="none" stroke="#404040" points="37.5001,-69.7372 33.5,-63.7372 37.5,-57.7372 41.5,-63.7372 37.5001,-69.7372"/>
<text text-anchor="middle" x="54" y="-90" font-family="Helvetica,sans-Serif" font-size="10.00"> +value</text>
<text text-anchor="middle" x="54" y="-79" font-family="Helvetica,sans-Serif" font-size="10.00">+name</text>
</g>
</g>
</svg>
