<?xml version="1.0" encoding="UTF-8" standalone="no"?>
<!DOCTYPE svg PUBLIC "-//W3C//DTD SVG 1.1//EN"
 "http://www.w3.org/Graphics/SVG/1.1/DTD/svg11.dtd">
<!-- Generated by graphviz version 2.38.0 (20140413.2041)
 -->
<!-- Title: Cosmos::wavefront::group Pages: 1 -->
<svg width="295pt" height="446pt"
 viewBox="0.00 0.00 294.50 446.00" xmlns="http://www.w3.org/2000/svg" xmlns:xlink="http://www.w3.org/1999/xlink">
<g id="graph0" class="graph" transform="scale(1 1) rotate(0) translate(4 442)">
<title>Cosmos::wavefront::group</title>
<polygon fill="white" stroke="none" points="-4,4 -4,-442 290.5,-442 290.5,4 -4,4"/>
<!-- Node1 -->
<g id="node1" class="node"><title>Node1</title>
<polygon fill="#bfbfbf" stroke="black" points="105.5,-0.5 105.5,-79.5 213.5,-79.5 213.5,-0.5 105.5,-0.5"/>
<text text-anchor="start" x="113.5" y="-67.5" font-family="Helvetica,sans-Serif" font-size="10.00">Cosmos::wavefront::</text>
<text text-anchor="middle" x="159.5" y="-56.5" font-family="Helvetica,sans-Serif" font-size="10.00">group</text>
<polyline fill="none" stroke="black" points="105.5,-49.5 213.5,-49.5 "/>
<text text-anchor="start" x="113.5" y="-37.5" font-family="Helvetica,sans-Serif" font-size="10.00">+ materialidx</text>
<text text-anchor="start" x="113.5" y="-26.5" font-family="Helvetica,sans-Serif" font-size="10.00">+ volume</text>
<polyline fill="none" stroke="black" points="105.5,-19.5 213.5,-19.5 "/>
<text text-anchor="middle" x="159.5" y="-7.5" font-family="Helvetica,sans-Serif" font-size="10.00"> </text>
</g>
<!-- Node2 -->
<g id="node2" class="node"><title>Node2</title>
<g id="a_node2"><a xlink:href="class_cosmos_1_1_math_1_1_vectors_1_1_vector.html" target="_top" xlink:title="Vector Class. ">
<polygon fill="white" stroke="black" points="0,-149.5 0,-437.5 121,-437.5 121,-149.5 0,-149.5"/>
<text text-anchor="start" x="8" y="-425.5" font-family="Helvetica,sans-Serif" font-size="10.00">Cosmos::Math::Vectors</text>
<text text-anchor="middle" x="60.5" y="-414.5" font-family="Helvetica,sans-Serif" font-size="10.00">::Vector</text>
<polyline fill="none" stroke="black" points="0,-407.5 121,-407.5 "/>
<text text-anchor="start" x="8" y="-395.5" font-family="Helvetica,sans-Serif" font-size="10.00">+ x</text>
<text text-anchor="start" x="8" y="-384.5" font-family="Helvetica,sans-Serif" font-size="10.00">+ phi</text>
<text text-anchor="start" x="8" y="-373.5" font-family="Helvetica,sans-Serif" font-size="10.00">+ lat</text>
<text text-anchor="start" x="8" y="-362.5" font-family="Helvetica,sans-Serif" font-size="10.00">+ head</text>
<text text-anchor="start" x="8" y="-351.5" font-family="Helvetica,sans-Serif" font-size="10.00">+ @31</text>
<text text-anchor="start" x="8" y="-340.5" font-family="Helvetica,sans-Serif" font-size="10.00">+ y</text>
<text text-anchor="start" x="8" y="-329.5" font-family="Helvetica,sans-Serif" font-size="10.00">+ lambda</text>
<text text-anchor="start" x="8" y="-318.5" font-family="Helvetica,sans-Serif" font-size="10.00">+ lon</text>
<text text-anchor="start" x="8" y="-307.5" font-family="Helvetica,sans-Serif" font-size="10.00">+ elev</text>
<text text-anchor="start" x="8" y="-296.5" font-family="Helvetica,sans-Serif" font-size="10.00">+ @33</text>
<text text-anchor="start" x="8" y="-285.5" font-family="Helvetica,sans-Serif" font-size="10.00">and 6 more...</text>
<polyline fill="none" stroke="black" points="0,-278.5 121,-278.5 "/>
<text text-anchor="start" x="8" y="-266.5" font-family="Helvetica,sans-Serif" font-size="10.00">+ Vector()</text>
<text text-anchor="start" x="8" y="-255.5" font-family="Helvetica,sans-Serif" font-size="10.00">+ Vector()</text>
<text text-anchor="start" x="8" y="-244.5" font-family="Helvetica,sans-Serif" font-size="10.00">+ Vector()</text>
<text text-anchor="start" x="8" y="-233.5" font-family="Helvetica,sans-Serif" font-size="10.00">+ Vector()</text>
<text text-anchor="start" x="8" y="-222.5" font-family="Helvetica,sans-Serif" font-size="10.00">+ at()</text>
<text text-anchor="start" x="8" y="-211.5" font-family="Helvetica,sans-Serif" font-size="10.00">+ to_rv()</text>
<text text-anchor="start" x="8" y="-200.5" font-family="Helvetica,sans-Serif" font-size="10.00">+ to_cv()</text>
<text text-anchor="start" x="8" y="-189.5" font-family="Helvetica,sans-Serif" font-size="10.00">+ to_q()</text>
<text text-anchor="start" x="8" y="-178.5" font-family="Helvetica,sans-Serif" font-size="10.00">+ cross()</text>
<text text-anchor="start" x="8" y="-167.5" font-family="Helvetica,sans-Serif" font-size="10.00">+ dot()</text>
<text text-anchor="start" x="8" y="-156.5" font-family="Helvetica,sans-Serif" font-size="10.00">and 23 more...</text>
</a>
</g>
</g>
<!-- Node2&#45;&gt;Node1 -->
<g id="edge1" class="edge"><title>Node2&#45;&gt;Node1</title>
<path fill="none" stroke="#404040" d="M106.536,-149.272C113.112,-131.815 120.155,-114.375 127.5,-98 128.594,-95.5602 129.758,-93.0866 130.97,-90.6062"/>
<polygon fill="none" stroke="#404040" points="131.049,-90.4517 130.223,-83.288 136.518,-79.7703 137.344,-86.934 131.049,-90.4517"/>
<text text-anchor="middle" x="141.5" y="-112" font-family="Helvetica,sans-Serif" font-size="10.00"> +com</text>
</g>
<!-- Node3 -->
<g id="node3" class="node"><title>Node3</title>
<polygon fill="white" stroke="#bfbfbf" points="139,-265 139,-322 180,-322 180,-265 139,-265"/>
<text text-anchor="middle" x="159.5" y="-310" font-family="Helvetica,sans-Serif" font-size="10.00">string</text>
<polyline fill="none" stroke="#bfbfbf" points="139,-303 180,-303 "/>
<text text-anchor="middle" x="159.5" y="-291" font-family="Helvetica,sans-Serif" font-size="10.00"> </text>
<polyline fill="none" stroke="#bfbfbf" points="139,-284 180,-284 "/>
<text text-anchor="middle" x="159.5" y="-272" font-family="Helvetica,sans-Serif" font-size="10.00"> </text>
</g>
<!-- Node3&#45;&gt;Node1 -->
<g id="edge2" class="edge"><title>Node3&#45;&gt;Node1</title>
<path fill="none" stroke="#404040" d="M159.5,-264.624C159.5,-223.035 159.5,-144.067 159.5,-91.9775"/>
<polygon fill="none" stroke="#404040" points="159.5,-91.677 155.5,-85.677 159.5,-79.677 163.5,-85.677 159.5,-91.677"/>
<text text-anchor="middle" x="176.5" y="-112" font-family="Helvetica,sans-Serif" font-size="10.00"> +name</text>
</g>
<!-- Node4 -->
<g id="node4" class="node"><title>Node4</title>
<polygon fill="white" stroke="#bfbfbf" points="198.5,-265 198.5,-322 286.5,-322 286.5,-265 198.5,-265"/>
<text text-anchor="middle" x="242.5" y="-310" font-family="Helvetica,sans-Serif" font-size="10.00">vector&lt; size_t &gt;</text>
<polyline fill="none" stroke="#bfbfbf" points="198.5,-303 286.5,-303 "/>
<text text-anchor="middle" x="242.5" y="-291" font-family="Helvetica,sans-Serif" font-size="10.00"> </text>
<polyline fill="none" stroke="#bfbfbf" points="198.5,-284 286.5,-284 "/>
<text text-anchor="middle" x="242.5" y="-272" font-family="Helvetica,sans-Serif" font-size="10.00"> </text>
</g>
<!-- Node4&#45;&gt;Node1 -->
<g id="edge3" class="edge"><title>Node4&#45;&gt;Node1</title>
<path fill="none" stroke="#404040" d="M239.282,-264.782C234.093,-226.142 221.892,-154.478 197.5,-98 196.427,-95.516 195.245,-93.0234 193.981,-90.5432"/>
<polygon fill="none" stroke="#404040" points="193.845,-90.2982 187.431,-87.0031 188.005,-79.8149 194.419,-83.11 193.845,-90.2982"/>
<text text-anchor="middle" x="229.5" y="-123" font-family="Helvetica,sans-Serif" font-size="10.00"> +lineidx</text>
<text text-anchor="middle" x="229.5" y="-112" font-family="Helvetica,sans-Serif" font-size="10.00">+pointidx</text>
<text text-anchor="middle" x="229.5" y="-101" font-family="Helvetica,sans-Serif" font-size="10.00">+faceidx</text>
</g>
</g>
</svg>
