<?xml version="1.0" encoding="UTF-8" standalone="no"?>
<!DOCTYPE svg PUBLIC "-//W3C//DTD SVG 1.1//EN"
 "http://www.w3.org/Graphics/SVG/1.1/DTD/svg11.dtd">
<!-- Generated by graphviz version 2.38.0 (20140413.2041)
 -->
<!-- Title: targetstruc Pages: 1 -->
<svg width="547pt" height="1108pt"
 viewBox="0.00 0.00 546.50 1108.00" xmlns="http://www.w3.org/2000/svg" xmlns:xlink="http://www.w3.org/1999/xlink">
<g id="graph0" class="graph" transform="scale(1 1) rotate(0) translate(4 1104)">
<title>targetstruc</title>
<polygon fill="white" stroke="none" points="-4,4 -4,-1104 542.5,-1104 542.5,4 -4,4"/>
<!-- Node1 -->
<g id="node1" class="node"><title>Node1</title>
<polygon fill="#bfbfbf" stroke="black" points="315.5,-0.5 315.5,-156.5 378.5,-156.5 378.5,-0.5 315.5,-0.5"/>
<text text-anchor="middle" x="347" y="-144.5" font-family="Helvetica,sans-Serif" font-size="10.00">targetstruc</text>
<polyline fill="none" stroke="black" points="315.5,-137.5 378.5,-137.5 "/>
<text text-anchor="start" x="323.5" y="-125.5" font-family="Helvetica,sans-Serif" font-size="10.00">+ utc</text>
<text text-anchor="start" x="323.5" y="-114.5" font-family="Helvetica,sans-Serif" font-size="10.00">+ name</text>
<text text-anchor="start" x="323.5" y="-103.5" font-family="Helvetica,sans-Serif" font-size="10.00">+ type</text>
<text text-anchor="start" x="323.5" y="-92.5" font-family="Helvetica,sans-Serif" font-size="10.00">+ azfrom</text>
<text text-anchor="start" x="323.5" y="-81.5" font-family="Helvetica,sans-Serif" font-size="10.00">+ elfrom</text>
<text text-anchor="start" x="323.5" y="-70.5" font-family="Helvetica,sans-Serif" font-size="10.00">+ azto</text>
<text text-anchor="start" x="323.5" y="-59.5" font-family="Helvetica,sans-Serif" font-size="10.00">+ elto</text>
<text text-anchor="start" x="323.5" y="-48.5" font-family="Helvetica,sans-Serif" font-size="10.00">+ range</text>
<text text-anchor="start" x="323.5" y="-37.5" font-family="Helvetica,sans-Serif" font-size="10.00">+ close</text>
<text text-anchor="start" x="323.5" y="-26.5" font-family="Helvetica,sans-Serif" font-size="10.00">+ min</text>
<polyline fill="none" stroke="black" points="315.5,-19.5 378.5,-19.5 "/>
<text text-anchor="middle" x="347" y="-7.5" font-family="Helvetica,sans-Serif" font-size="10.00"> </text>
</g>
<!-- Node2 -->
<g id="node2" class="node"><title>Node2</title>
<g id="a_node2"><a xlink:href="structlocstruc.html" target="_top" xlink:title="{locstruc\n|+ utc\l+ orbit\l|}">
<polygon fill="white" stroke="black" points="321.5,-204.5 321.5,-272.5 372.5,-272.5 372.5,-204.5 321.5,-204.5"/>
<text text-anchor="middle" x="347" y="-260.5" font-family="Helvetica,sans-Serif" font-size="10.00">locstruc</text>
<polyline fill="none" stroke="black" points="321.5,-253.5 372.5,-253.5 "/>
<text text-anchor="start" x="329.5" y="-241.5" font-family="Helvetica,sans-Serif" font-size="10.00">+ utc</text>
<text text-anchor="start" x="329.5" y="-230.5" font-family="Helvetica,sans-Serif" font-size="10.00">+ orbit</text>
<polyline fill="none" stroke="black" points="321.5,-223.5 372.5,-223.5 "/>
<text text-anchor="middle" x="347" y="-211.5" font-family="Helvetica,sans-Serif" font-size="10.00"> </text>
</a>
</g>
</g>
<!-- Node2&#45;&gt;Node1 -->
<g id="edge1" class="edge"><title>Node2&#45;&gt;Node1</title>
<path fill="none" stroke="#404040" d="M347,-204.378C347,-193.749 347,-181.424 347,-168.742"/>
<polygon fill="none" stroke="#404040" points="347,-168.516 343,-162.516 347,-156.516 351,-162.516 347,-168.516"/>
<text text-anchor="middle" x="358" y="-178" font-family="Helvetica,sans-Serif" font-size="10.00"> +loc</text>
</g>
<!-- Node3 -->
<g id="node3" class="node"><title>Node3</title>
<g id="a_node3"><a xlink:href="structposstruc.html" target="_top" xlink:title="{posstruc\n|+ utc\l+ earthsep\l+ moonsep\l+ sunsize\l+ sunradiance\l|}">
<polygon fill="white" stroke="black" points="127,-320.5 127,-421.5 205,-421.5 205,-320.5 127,-320.5"/>
<text text-anchor="middle" x="166" y="-409.5" font-family="Helvetica,sans-Serif" font-size="10.00">posstruc</text>
<polyline fill="none" stroke="black" points="127,-402.5 205,-402.5 "/>
<text text-anchor="start" x="135" y="-390.5" font-family="Helvetica,sans-Serif" font-size="10.00">+ utc</text>
<text text-anchor="start" x="135" y="-379.5" font-family="Helvetica,sans-Serif" font-size="10.00">+ earthsep</text>
<text text-anchor="start" x="135" y="-368.5" font-family="Helvetica,sans-Serif" font-size="10.00">+ moonsep</text>
<text text-anchor="start" x="135" y="-357.5" font-family="Helvetica,sans-Serif" font-size="10.00">+ sunsize</text>
<text text-anchor="start" x="135" y="-346.5" font-family="Helvetica,sans-Serif" font-size="10.00">+ sunradiance</text>
<polyline fill="none" stroke="black" points="127,-339.5 205,-339.5 "/>
<text text-anchor="middle" x="166" y="-327.5" font-family="Helvetica,sans-Serif" font-size="10.00"> </text>
</a>
</g>
</g>
<!-- Node3&#45;&gt;Node2 -->
<g id="edge2" class="edge"><title>Node3&#45;&gt;Node2</title>
<path fill="none" stroke="#404040" d="M205.274,-341.683C236.941,-318.852 281.084,-287.025 311.655,-264.984"/>
<polygon fill="none" stroke="#404040" points="311.731,-264.929 314.258,-258.175 321.464,-257.911 318.937,-264.665 311.731,-264.929"/>
<text text-anchor="middle" x="285.5" y="-294" font-family="Helvetica,sans-Serif" font-size="10.00"> +pos</text>
</g>
<!-- Node4 -->
<g id="node4" class="node"><title>Node4</title>
<g id="a_node4"><a xlink:href="structgeoidpos.html" target="_top" xlink:title="Geodetic position structure. ">
<polygon fill="white" stroke="black" points="0,-552 0,-620 56,-620 56,-552 0,-552"/>
<text text-anchor="middle" x="28" y="-608" font-family="Helvetica,sans-Serif" font-size="10.00">geoidpos</text>
<polyline fill="none" stroke="black" points="0,-601 56,-601 "/>
<text text-anchor="start" x="8" y="-589" font-family="Helvetica,sans-Serif" font-size="10.00">+ utc</text>
<text text-anchor="start" x="8" y="-578" font-family="Helvetica,sans-Serif" font-size="10.00">+ pass</text>
<polyline fill="none" stroke="black" points="0,-571 56,-571 "/>
<text text-anchor="middle" x="28" y="-559" font-family="Helvetica,sans-Serif" font-size="10.00"> </text>
</a>
</g>
</g>
<!-- Node4&#45;&gt;Node3 -->
<g id="edge3" class="edge"><title>Node4&#45;&gt;Node3</title>
<path fill="none" stroke="#404040" d="M33.1045,-551.9C39.1925,-520.711 51.7524,-473.842 76,-440 86.7501,-424.996 101.784,-411.823 116.49,-401.166"/>
<polygon fill="none" stroke="#404040" points="116.693,-401.026 119.351,-394.323 126.561,-394.199 123.903,-400.902 116.693,-401.026"/>
<text text-anchor="middle" x="90" y="-470.5" font-family="Helvetica,sans-Serif" font-size="10.00"> +selg</text>
<text text-anchor="middle" x="90" y="-459.5" font-family="Helvetica,sans-Serif" font-size="10.00">+geod</text>
</g>
<!-- Node5 -->
<g id="node5" class="node"><title>Node5</title>
<g id="a_node5"><a xlink:href="structgvector.html" target="_top" xlink:title="3 element geodetic vector ">
<polygon fill="white" stroke="black" points="3.5,-816.5 3.5,-895.5 52.5,-895.5 52.5,-816.5 3.5,-816.5"/>
<text text-anchor="middle" x="28" y="-883.5" font-family="Helvetica,sans-Serif" font-size="10.00">gvector</text>
<polyline fill="none" stroke="black" points="3.5,-876.5 52.5,-876.5 "/>
<text text-anchor="start" x="11.5" y="-864.5" font-family="Helvetica,sans-Serif" font-size="10.00">+ lat</text>
<text text-anchor="start" x="11.5" y="-853.5" font-family="Helvetica,sans-Serif" font-size="10.00">+ lon</text>
<text text-anchor="start" x="11.5" y="-842.5" font-family="Helvetica,sans-Serif" font-size="10.00">+ h</text>
<polyline fill="none" stroke="black" points="3.5,-835.5 52.5,-835.5 "/>
<text text-anchor="middle" x="28" y="-823.5" font-family="Helvetica,sans-Serif" font-size="10.00"> </text>
</a>
</g>
</g>
<!-- Node5&#45;&gt;Node4 -->
<g id="edge4" class="edge"><title>Node5&#45;&gt;Node4</title>
<path fill="none" stroke="#404040" d="M28,-816.317C28,-767.572 28,-683.937 28,-632.27"/>
<polygon fill="none" stroke="#404040" points="28.0001,-632.179 24,-626.179 28,-620.179 32,-626.179 28.0001,-632.179"/>
<text text-anchor="middle" x="35.5" y="-746" font-family="Helvetica,sans-Serif" font-size="10.00"> +a</text>
<text text-anchor="middle" x="35.5" y="-735" font-family="Helvetica,sans-Serif" font-size="10.00">+s</text>
<text text-anchor="middle" x="35.5" y="-724" font-family="Helvetica,sans-Serif" font-size="10.00">+v</text>
</g>
<!-- Node6 -->
<g id="node6" class="node"><title>Node6</title>
<g id="a_node6"><a xlink:href="structspherpos.html" target="_top" xlink:title="Spherical position structure. ">
<polygon fill="white" stroke="black" points="74,-552 74,-620 130,-620 130,-552 74,-552"/>
<text text-anchor="middle" x="102" y="-608" font-family="Helvetica,sans-Serif" font-size="10.00">spherpos</text>
<polyline fill="none" stroke="black" points="74,-601 130,-601 "/>
<text text-anchor="start" x="82" y="-589" font-family="Helvetica,sans-Serif" font-size="10.00">+ utc</text>
<text text-anchor="start" x="82" y="-578" font-family="Helvetica,sans-Serif" font-size="10.00">+ pass</text>
<polyline fill="none" stroke="black" points="74,-571 130,-571 "/>
<text text-anchor="middle" x="102" y="-559" font-family="Helvetica,sans-Serif" font-size="10.00"> </text>
</a>
</g>
</g>
<!-- Node6&#45;&gt;Node3 -->
<g id="edge5" class="edge"><title>Node6&#45;&gt;Node3</title>
<path fill="none" stroke="#404040" d="M102.13,-551.73C103.223,-521.66 107.32,-476.627 121,-440 121.946,-437.468 123.001,-434.935 124.143,-432.416"/>
<polygon fill="none" stroke="#404040" points="124.244,-432.216 123.375,-425.058 129.648,-421.502 130.518,-428.661 124.244,-432.216"/>
<text text-anchor="middle" x="136.5" y="-465" font-family="Helvetica,sans-Serif" font-size="10.00"> +geos</text>
</g>
<!-- Node7 -->
<g id="node7" class="node"><title>Node7</title>
<g id="a_node7"><a xlink:href="structsvector.html" target="_top" xlink:title="3 element spherical vector ">
<polygon fill="white" stroke="black" points="73.5,-816.5 73.5,-895.5 130.5,-895.5 130.5,-816.5 73.5,-816.5"/>
<text text-anchor="middle" x="102" y="-883.5" font-family="Helvetica,sans-Serif" font-size="10.00">svector</text>
<polyline fill="none" stroke="black" points="73.5,-876.5 130.5,-876.5 "/>
<text text-anchor="start" x="81.5" y="-864.5" font-family="Helvetica,sans-Serif" font-size="10.00">+ phi</text>
<text text-anchor="start" x="81.5" y="-853.5" font-family="Helvetica,sans-Serif" font-size="10.00">+ lambda</text>
<text text-anchor="start" x="81.5" y="-842.5" font-family="Helvetica,sans-Serif" font-size="10.00">+ r</text>
<polyline fill="none" stroke="black" points="73.5,-835.5 130.5,-835.5 "/>
<text text-anchor="middle" x="102" y="-823.5" font-family="Helvetica,sans-Serif" font-size="10.00"> </text>
</a>
</g>
</g>
<!-- Node7&#45;&gt;Node6 -->
<g id="edge6" class="edge"><title>Node7&#45;&gt;Node6</title>
<path fill="none" stroke="#404040" d="M102,-816.317C102,-767.572 102,-683.937 102,-632.27"/>
<polygon fill="none" stroke="#404040" points="102,-632.179 98,-626.179 102,-620.179 106,-626.179 102,-632.179"/>
<text text-anchor="middle" x="109.5" y="-746" font-family="Helvetica,sans-Serif" font-size="10.00"> +a</text>
<text text-anchor="middle" x="109.5" y="-735" font-family="Helvetica,sans-Serif" font-size="10.00">+s</text>
<text text-anchor="middle" x="109.5" y="-724" font-family="Helvetica,sans-Serif" font-size="10.00">+v</text>
</g>
<!-- Node8 -->
<g id="node8" class="node"><title>Node8</title>
<g id="a_node8"><a xlink:href="structcartpos.html" target="_top" xlink:title="Cartesian full position structure. ">
<polygon fill="white" stroke="black" points="174.5,-822 174.5,-890 223.5,-890 223.5,-822 174.5,-822"/>
<text text-anchor="middle" x="199" y="-878" font-family="Helvetica,sans-Serif" font-size="10.00">cartpos</text>
<polyline fill="none" stroke="black" points="174.5,-871 223.5,-871 "/>
<text text-anchor="start" x="182.5" y="-859" font-family="Helvetica,sans-Serif" font-size="10.00">+ utc</text>
<text text-anchor="start" x="182.5" y="-848" font-family="Helvetica,sans-Serif" font-size="10.00">+ pass</text>
<polyline fill="none" stroke="black" points="174.5,-841 223.5,-841 "/>
<text text-anchor="middle" x="199" y="-829" font-family="Helvetica,sans-Serif" font-size="10.00"> </text>
</a>
</g>
</g>
<!-- Node8&#45;&gt;Node3 -->
<g id="edge7" class="edge"><title>Node8&#45;&gt;Node3</title>
<path fill="none" stroke="#404040" d="M192.772,-821.91C191.417,-814.087 190.07,-805.763 189,-798 171.251,-669.281 167.027,-516.924 166.126,-433.775"/>
<polygon fill="none" stroke="#404040" points="166.126,-433.774 162.071,-427.812 166.014,-421.775 170.07,-427.737 166.126,-433.774"/>
<text text-anchor="middle" x="189" y="-605.5" font-family="Helvetica,sans-Serif" font-size="10.00"> +selc</text>
<text text-anchor="middle" x="189" y="-594.5" font-family="Helvetica,sans-Serif" font-size="10.00">+icrf</text>
<text text-anchor="middle" x="189" y="-583.5" font-family="Helvetica,sans-Serif" font-size="10.00">+sci</text>
<text text-anchor="middle" x="189" y="-572.5" font-family="Helvetica,sans-Serif" font-size="10.00">+geoc</text>
<text text-anchor="middle" x="189" y="-561.5" font-family="Helvetica,sans-Serif" font-size="10.00">+eci</text>
</g>
<!-- Node10 -->
<g id="node10" class="node"><title>Node10</title>
<g id="a_node10"><a xlink:href="structextrapos.html" target="_top" xlink:title="Additional parameters relating to position that need only be calculated once. ">
<polygon fill="white" stroke="black" points="212.5,-513.5 212.5,-658.5 269.5,-658.5 269.5,-513.5 212.5,-513.5"/>
<text text-anchor="middle" x="241" y="-646.5" font-family="Helvetica,sans-Serif" font-size="10.00">extrapos</text>
<polyline fill="none" stroke="black" points="212.5,-639.5 269.5,-639.5 "/>
<text text-anchor="start" x="220.5" y="-627.5" font-family="Helvetica,sans-Serif" font-size="10.00">+ utc</text>
<text text-anchor="start" x="220.5" y="-616.5" font-family="Helvetica,sans-Serif" font-size="10.00">+ tt</text>
<text text-anchor="start" x="220.5" y="-605.5" font-family="Helvetica,sans-Serif" font-size="10.00">+ ut</text>
<text text-anchor="start" x="220.5" y="-594.5" font-family="Helvetica,sans-Serif" font-size="10.00">+ tdb</text>
<text text-anchor="start" x="220.5" y="-583.5" font-family="Helvetica,sans-Serif" font-size="10.00">+ j2e</text>
<text text-anchor="start" x="220.5" y="-572.5" font-family="Helvetica,sans-Serif" font-size="10.00">+ dj2e</text>
<text text-anchor="start" x="220.5" y="-561.5" font-family="Helvetica,sans-Serif" font-size="10.00">+ ddj2e</text>
<text text-anchor="start" x="220.5" y="-550.5" font-family="Helvetica,sans-Serif" font-size="10.00">+ de2j</text>
<text text-anchor="start" x="220.5" y="-539.5" font-family="Helvetica,sans-Serif" font-size="10.00">+ closest</text>
<polyline fill="none" stroke="black" points="212.5,-532.5 269.5,-532.5 "/>
<text text-anchor="middle" x="241" y="-520.5" font-family="Helvetica,sans-Serif" font-size="10.00"> </text>
</a>
</g>
</g>
<!-- Node8&#45;&gt;Node10 -->
<g id="edge10" class="edge"><title>Node8&#45;&gt;Node10</title>
<path fill="none" stroke="#404040" d="M195.076,-821.735C191.763,-785.628 189.111,-726.498 200,-677 201.877,-668.469 204.627,-659.774 207.829,-651.317"/>
<polygon fill="none" stroke="#404040" points="207.921,-651.09 206.473,-644.026 212.436,-639.971 213.885,-647.035 207.921,-651.09"/>
<text text-anchor="middle" x="227.5" y="-740.5" font-family="Helvetica,sans-Serif" font-size="10.00"> +sun2moon</text>
<text text-anchor="middle" x="227.5" y="-729.5" font-family="Helvetica,sans-Serif" font-size="10.00">+sun2earth</text>
</g>
<!-- Node9 -->
<g id="node9" class="node"><title>Node9</title>
<g id="a_node9"><a xlink:href="structrvector.html" target="_top" xlink:title="3 element generic row vector ">
<polygon fill="white" stroke="black" points="331.5,-1004 331.5,-1061 378.5,-1061 378.5,-1004 331.5,-1004"/>
<text text-anchor="middle" x="355" y="-1049" font-family="Helvetica,sans-Serif" font-size="10.00">rvector</text>
<polyline fill="none" stroke="black" points="331.5,-1042 378.5,-1042 "/>
<text text-anchor="start" x="339.5" y="-1030" font-family="Helvetica,sans-Serif" font-size="10.00">+ col</text>
<polyline fill="none" stroke="black" points="331.5,-1023 378.5,-1023 "/>
<text text-anchor="middle" x="355" y="-1011" font-family="Helvetica,sans-Serif" font-size="10.00"> </text>
</a>
</g>
</g>
<!-- Node9&#45;&gt;Node2 -->
<g id="edge13" class="edge"><title>Node9&#45;&gt;Node2</title>
<path fill="none" stroke="#404040" d="M378.227,-1003.89C403.394,-971.072 440,-913.613 440,-857 440,-857 440,-857 440,-370 440,-328.44 408.332,-290.946 381.954,-266.924"/>
<polygon fill="none" stroke="#404040" points="381.936,-266.908 374.786,-265.967 372.906,-259.005 380.055,-259.947 381.936,-266.908"/>
<text text-anchor="middle" x="458.5" y="-583.5" font-family="Helvetica,sans-Serif" font-size="10.00"> +bearth</text>
</g>
<!-- Node9&#45;&gt;Node8 -->
<g id="edge8" class="edge"><title>Node9&#45;&gt;Node8</title>
<path fill="none" stroke="#404040" d="M331.307,-1005C304.739,-975.279 261.485,-926.895 231.707,-893.586"/>
<polygon fill="none" stroke="#404040" points="231.688,-893.565 224.707,-891.758 223.69,-884.618 230.671,-886.426 231.688,-893.565"/>
<text text-anchor="middle" x="284.5" y="-939" font-family="Helvetica,sans-Serif" font-size="10.00"> +a</text>
<text text-anchor="middle" x="284.5" y="-928" font-family="Helvetica,sans-Serif" font-size="10.00">+s</text>
<text text-anchor="middle" x="284.5" y="-917" font-family="Helvetica,sans-Serif" font-size="10.00">+v</text>
</g>
<!-- Node11 -->
<g id="node11" class="node"><title>Node11</title>
<g id="a_node11"><a xlink:href="structrmatrix.html" target="_top" xlink:title="3x3 element generic matrix ">
<polygon fill="white" stroke="black" points="296.5,-827.5 296.5,-884.5 343.5,-884.5 343.5,-827.5 296.5,-827.5"/>
<text text-anchor="middle" x="320" y="-872.5" font-family="Helvetica,sans-Serif" font-size="10.00">rmatrix</text>
<polyline fill="none" stroke="black" points="296.5,-865.5 343.5,-865.5 "/>
<text text-anchor="middle" x="320" y="-853.5" font-family="Helvetica,sans-Serif" font-size="10.00"> </text>
<polyline fill="none" stroke="black" points="296.5,-846.5 343.5,-846.5 "/>
<text text-anchor="middle" x="320" y="-834.5" font-family="Helvetica,sans-Serif" font-size="10.00"> </text>
</a>
</g>
</g>
<!-- Node9&#45;&gt;Node11 -->
<g id="edge12" class="edge"><title>Node9&#45;&gt;Node11</title>
<path fill="none" stroke="#404040" d="M349.454,-1003.85C343.643,-974.877 334.463,-929.107 327.896,-896.368"/>
<polygon fill="none" stroke="#404040" points="327.88,-896.286 322.778,-891.19 325.52,-884.521 330.622,-889.617 327.88,-896.286"/>
<text text-anchor="middle" x="350.5" y="-928" font-family="Helvetica,sans-Serif" font-size="10.00"> +row</text>
</g>
<!-- Node13 -->
<g id="node13" class="node"><title>Node13</title>
<g id="a_node13"><a xlink:href="structqatt.html" target="_top" xlink:title="Quaternion Attitude. ">
<polygon fill="white" stroke="black" points="356.5,-552 356.5,-620 403.5,-620 403.5,-552 356.5,-552"/>
<text text-anchor="middle" x="380" y="-608" font-family="Helvetica,sans-Serif" font-size="10.00">qatt</text>
<polyline fill="none" stroke="black" points="356.5,-601 403.5,-601 "/>
<text text-anchor="start" x="364.5" y="-589" font-family="Helvetica,sans-Serif" font-size="10.00">+ utc</text>
<text text-anchor="start" x="364.5" y="-578" font-family="Helvetica,sans-Serif" font-size="10.00">+ pass</text>
<polyline fill="none" stroke="black" points="356.5,-571 403.5,-571 "/>
<text text-anchor="middle" x="380" y="-559" font-family="Helvetica,sans-Serif" font-size="10.00"> </text>
</a>
</g>
</g>
<!-- Node9&#45;&gt;Node13 -->
<g id="edge18" class="edge"><title>Node9&#45;&gt;Node13</title>
<path fill="none" stroke="#404040" d="M359.251,-1003.79C361.615,-987.324 364.396,-966.017 366,-947 375.508,-834.287 378.569,-701.168 379.547,-632.721"/>
<polygon fill="none" stroke="#404040" points="379.552,-632.314 375.632,-626.262 379.711,-620.315 383.632,-626.368 379.552,-632.314"/>
<text text-anchor="middle" x="381.5" y="-859" font-family="Helvetica,sans-Serif" font-size="10.00"> +a</text>
<text text-anchor="middle" x="381.5" y="-848" font-family="Helvetica,sans-Serif" font-size="10.00">+v</text>
</g>
<!-- Node10&#45;&gt;Node3 -->
<g id="edge9" class="edge"><title>Node10&#45;&gt;Node3</title>
<path fill="none" stroke="#404040" d="M215.817,-513.482C206.67,-487.502 196.422,-458.399 187.611,-433.374"/>
<polygon fill="none" stroke="#404040" points="187.528,-433.139 181.762,-428.808 183.542,-421.82 189.308,-426.151 187.528,-433.139"/>
<text text-anchor="middle" x="223.5" y="-465" font-family="Helvetica,sans-Serif" font-size="10.00"> +extra</text>
</g>
<!-- Node11&#45;&gt;Node10 -->
<g id="edge11" class="edge"><title>Node11&#45;&gt;Node10</title>
<path fill="none" stroke="#404040" d="M298.317,-827.254C292.237,-818.328 286.16,-808.12 282,-798 277.046,-785.947 265.291,-724.226 255.632,-670.628"/>
<polygon fill="none" stroke="#404040" points="255.599,-670.443 250.603,-665.244 253.481,-658.632 258.477,-663.831 255.599,-670.443"/>
<text text-anchor="middle" x="297" y="-790" font-family="Helvetica,sans-Serif" font-size="10.00"> +t2s</text>
<text text-anchor="middle" x="297" y="-779" font-family="Helvetica,sans-Serif" font-size="10.00">+s2t</text>
<text text-anchor="middle" x="297" y="-768" font-family="Helvetica,sans-Serif" font-size="10.00">+dt2s</text>
<text text-anchor="middle" x="297" y="-757" font-family="Helvetica,sans-Serif" font-size="10.00">+ds2t</text>
<text text-anchor="middle" x="297" y="-746" font-family="Helvetica,sans-Serif" font-size="10.00">+s2j</text>
<text text-anchor="middle" x="297" y="-735" font-family="Helvetica,sans-Serif" font-size="10.00">+j2s</text>
<text text-anchor="middle" x="297" y="-724" font-family="Helvetica,sans-Serif" font-size="10.00">+t2j</text>
<text text-anchor="middle" x="297" y="-713" font-family="Helvetica,sans-Serif" font-size="10.00">+j2t</text>
<text text-anchor="middle" x="297" y="-702" font-family="Helvetica,sans-Serif" font-size="10.00">+dde2j</text>
<text text-anchor="middle" x="297" y="-691" font-family="Helvetica,sans-Serif" font-size="10.00">+e2j</text>
<text text-anchor="middle" x="297" y="-680" font-family="Helvetica,sans-Serif" font-size="10.00">...</text>
</g>
<!-- Node16 -->
<g id="node16" class="node"><title>Node16</title>
<g id="a_node16"><a xlink:href="structextraatt.html" target="_top" xlink:title="Additional parameters relating to position that need only be calculated once. ">
<polygon fill="white" stroke="black" points="288,-557.5 288,-614.5 338,-614.5 338,-557.5 288,-557.5"/>
<text text-anchor="middle" x="313" y="-602.5" font-family="Helvetica,sans-Serif" font-size="10.00">extraatt</text>
<polyline fill="none" stroke="black" points="288,-595.5 338,-595.5 "/>
<text text-anchor="start" x="296" y="-583.5" font-family="Helvetica,sans-Serif" font-size="10.00">+ utc</text>
<polyline fill="none" stroke="black" points="288,-576.5 338,-576.5 "/>
<text text-anchor="middle" x="313" y="-564.5" font-family="Helvetica,sans-Serif" font-size="10.00"> </text>
</a>
</g>
</g>
<!-- Node11&#45;&gt;Node16 -->
<g id="edge20" class="edge"><title>Node11&#45;&gt;Node16</title>
<path fill="none" stroke="#404040" d="M319.277,-827.329C318.03,-779.561 315.468,-681.481 314.033,-626.532"/>
<polygon fill="none" stroke="#404040" points="314.032,-626.517 309.877,-620.623 313.719,-614.521 317.874,-620.414 314.032,-626.517"/>
<text text-anchor="middle" x="330" y="-740.5" font-family="Helvetica,sans-Serif" font-size="10.00"> +b2j</text>
<text text-anchor="middle" x="330" y="-729.5" font-family="Helvetica,sans-Serif" font-size="10.00">+j2b</text>
</g>
<!-- Node12 -->
<g id="node12" class="node"><title>Node12</title>
<g id="a_node12"><a xlink:href="structattstruc.html" target="_top" xlink:title="{attstruc\n|+ utc\l|}">
<polygon fill="white" stroke="black" points="322,-342.5 322,-399.5 372,-399.5 372,-342.5 322,-342.5"/>
<text text-anchor="middle" x="347" y="-387.5" font-family="Helvetica,sans-Serif" font-size="10.00">attstruc</text>
<polyline fill="none" stroke="black" points="322,-380.5 372,-380.5 "/>
<text text-anchor="start" x="330" y="-368.5" font-family="Helvetica,sans-Serif" font-size="10.00">+ utc</text>
<polyline fill="none" stroke="black" points="322,-361.5 372,-361.5 "/>
<text text-anchor="middle" x="347" y="-349.5" font-family="Helvetica,sans-Serif" font-size="10.00"> </text>
</a>
</g>
</g>
<!-- Node12&#45;&gt;Node2 -->
<g id="edge14" class="edge"><title>Node12&#45;&gt;Node2</title>
<path fill="none" stroke="#404040" d="M347,-342.324C347,-325.63 347,-303.959 347,-284.818"/>
<polygon fill="none" stroke="#404040" points="347,-284.684 343,-278.684 347,-272.684 351,-278.684 347,-284.684"/>
<text text-anchor="middle" x="357.5" y="-294" font-family="Helvetica,sans-Serif" font-size="10.00"> +att</text>
</g>
<!-- Node13&#45;&gt;Node12 -->
<g id="edge15" class="edge"><title>Node13&#45;&gt;Node12</title>
<path fill="none" stroke="#404040" d="M374.844,-551.719C368.975,-513.84 359.396,-452.01 353.145,-411.662"/>
<polygon fill="none" stroke="#404040" points="353.118,-411.486 348.246,-406.169 351.28,-399.628 356.152,-404.944 353.118,-411.486"/>
<text text-anchor="middle" x="380" y="-487" font-family="Helvetica,sans-Serif" font-size="10.00"> +selc</text>
<text text-anchor="middle" x="380" y="-476" font-family="Helvetica,sans-Serif" font-size="10.00">+topo</text>
<text text-anchor="middle" x="380" y="-465" font-family="Helvetica,sans-Serif" font-size="10.00">+icrf</text>
<text text-anchor="middle" x="380" y="-454" font-family="Helvetica,sans-Serif" font-size="10.00">+geoc</text>
<text text-anchor="middle" x="380" y="-443" font-family="Helvetica,sans-Serif" font-size="10.00">+lvlh</text>
</g>
<!-- Node14 -->
<g id="node14" class="node"><title>Node14</title>
<g id="a_node14"><a xlink:href="structquaternion.html" target="_top" xlink:title="Quaternion, scalar last, using x, y, z. ">
<polygon fill="white" stroke="black" points="468,-827.5 468,-884.5 530,-884.5 530,-827.5 468,-827.5"/>
<text text-anchor="middle" x="499" y="-872.5" font-family="Helvetica,sans-Serif" font-size="10.00">quaternion</text>
<polyline fill="none" stroke="black" points="468,-865.5 530,-865.5 "/>
<text text-anchor="start" x="476" y="-853.5" font-family="Helvetica,sans-Serif" font-size="10.00">+ w</text>
<polyline fill="none" stroke="black" points="468,-846.5 530,-846.5 "/>
<text text-anchor="middle" x="499" y="-834.5" font-family="Helvetica,sans-Serif" font-size="10.00"> </text>
</a>
</g>
</g>
<!-- Node14&#45;&gt;Node13 -->
<g id="edge16" class="edge"><title>Node14&#45;&gt;Node13</title>
<path fill="none" stroke="#404040" d="M486.713,-827.329C466.145,-781.007 424.569,-687.374 399.821,-631.639"/>
<polygon fill="none" stroke="#404040" points="399.679,-631.319 393.588,-627.459 394.809,-620.352 400.9,-624.212 399.679,-631.319"/>
<text text-anchor="middle" x="481.5" y="-735" font-family="Helvetica,sans-Serif" font-size="10.00"> +s</text>
</g>
<!-- Node15 -->
<g id="node15" class="node"><title>Node15</title>
<g id="a_node15"><a xlink:href="classcvector.html" target="_top" xlink:title="3 element cartesian vector ">
<polygon fill="white" stroke="black" points="459.5,-965.5 459.5,-1099.5 538.5,-1099.5 538.5,-965.5 459.5,-965.5"/>
<text text-anchor="middle" x="499" y="-1087.5" font-family="Helvetica,sans-Serif" font-size="10.00">cvector</text>
<polyline fill="none" stroke="black" points="459.5,-1080.5 538.5,-1080.5 "/>
<text text-anchor="start" x="467.5" y="-1068.5" font-family="Helvetica,sans-Serif" font-size="10.00">+ x</text>
<text text-anchor="start" x="467.5" y="-1057.5" font-family="Helvetica,sans-Serif" font-size="10.00">+ y</text>
<text text-anchor="start" x="467.5" y="-1046.5" font-family="Helvetica,sans-Serif" font-size="10.00">+ z</text>
<polyline fill="none" stroke="black" points="459.5,-1039.5 538.5,-1039.5 "/>
<text text-anchor="start" x="467.5" y="-1027.5" font-family="Helvetica,sans-Serif" font-size="10.00">+ normalize()</text>
<text text-anchor="start" x="467.5" y="-1016.5" font-family="Helvetica,sans-Serif" font-size="10.00">+ length()</text>
<text text-anchor="start" x="467.5" y="-1005.5" font-family="Helvetica,sans-Serif" font-size="10.00">+ norm()</text>
<text text-anchor="start" x="467.5" y="-994.5" font-family="Helvetica,sans-Serif" font-size="10.00">+ norm2()</text>
<text text-anchor="start" x="467.5" y="-983.5" font-family="Helvetica,sans-Serif" font-size="10.00">+ normalized()</text>
<text text-anchor="start" x="467.5" y="-972.5" font-family="Helvetica,sans-Serif" font-size="10.00">+ operator[]()</text>
</a>
</g>
</g>
<!-- Node15&#45;&gt;Node14 -->
<g id="edge17" class="edge"><title>Node15&#45;&gt;Node14</title>
<path fill="none" stroke="#404040" d="M499,-965.031C499,-942.01 499,-916.938 499,-896.749"/>
<polygon fill="none" stroke="#404040" points="499,-896.564 495,-890.564 499,-884.564 503,-890.564 499,-896.564"/>
<text text-anchor="middle" x="506.5" y="-928" font-family="Helvetica,sans-Serif" font-size="10.00"> +d</text>
</g>
<!-- Node16&#45;&gt;Node12 -->
<g id="edge19" class="edge"><title>Node16&#45;&gt;Node12</title>
<path fill="none" stroke="#404040" d="M312.7,-557.442C312.89,-528.048 314.664,-480.277 323,-440 324.98,-430.432 327.984,-420.377 331.202,-411.023"/>
<polygon fill="none" stroke="#404040" points="331.241,-410.917 329.527,-403.912 335.334,-399.637 337.047,-406.641 331.241,-410.917"/>
<text text-anchor="middle" x="338.5" y="-465" font-family="Helvetica,sans-Serif" font-size="10.00"> +extra</text>
</g>
</g>
</svg>
