<?xml version="1.0" encoding="UTF-8" standalone="no"?>
<!DOCTYPE svg PUBLIC "-//W3C//DTD SVG 1.1//EN"
 "http://www.w3.org/Graphics/SVG/1.1/DTD/svg11.dtd">
<!-- Generated by graphviz version 2.38.0 (20140413.2041)
 -->
<!-- Title: facestruc Pages: 1 -->
<svg width="244pt" height="424pt"
 viewBox="0.00 0.00 243.50 424.00" xmlns="http://www.w3.org/2000/svg" xmlns:xlink="http://www.w3.org/1999/xlink">
<g id="graph0" class="graph" transform="scale(1 1) rotate(0) translate(4 420)">
<title>facestruc</title>
<polygon fill="white" stroke="none" points="-4,4 -4,-420 239.5,-420 239.5,4 -4,4"/>
<!-- Node1 -->
<g id="node1" class="node"><title>Node1</title>
<polygon fill="#bfbfbf" stroke="black" points="75.5,-0.5 75.5,-68.5 146.5,-68.5 146.5,-0.5 75.5,-0.5"/>
<text text-anchor="middle" x="111" y="-56.5" font-family="Helvetica,sans-Serif" font-size="10.00">facestruc</text>
<polyline fill="none" stroke="black" points="75.5,-49.5 146.5,-49.5 "/>
<text text-anchor="start" x="83.5" y="-37.5" font-family="Helvetica,sans-Serif" font-size="10.00">+ vertex_cnt</text>
<text text-anchor="start" x="83.5" y="-26.5" font-family="Helvetica,sans-Serif" font-size="10.00">+ area</text>
<polyline fill="none" stroke="black" points="75.5,-19.5 146.5,-19.5 "/>
<text text-anchor="middle" x="111" y="-7.5" font-family="Helvetica,sans-Serif" font-size="10.00"> </text>
</g>
<!-- Node2 -->
<g id="node2" class="node"><title>Node2</title>
<polygon fill="white" stroke="#bfbfbf" points="0,-243 0,-300 96,-300 96,-243 0,-243"/>
<text text-anchor="middle" x="48" y="-288" font-family="Helvetica,sans-Serif" font-size="10.00">vector&lt; uint16_t &gt;</text>
<polyline fill="none" stroke="#bfbfbf" points="0,-281 96,-281 "/>
<text text-anchor="middle" x="48" y="-269" font-family="Helvetica,sans-Serif" font-size="10.00"> </text>
<polyline fill="none" stroke="#bfbfbf" points="0,-262 96,-262 "/>
<text text-anchor="middle" x="48" y="-250" font-family="Helvetica,sans-Serif" font-size="10.00"> </text>
</g>
<!-- Node2&#45;&gt;Node1 -->
<g id="edge1" class="edge"><title>Node2&#45;&gt;Node1</title>
<path fill="none" stroke="#404040" d="M55.4743,-242.62C66.2085,-202.579 86.1069,-128.355 98.939,-80.4895"/>
<polygon fill="none" stroke="#404040" points="99.0113,-80.2194 96.7014,-73.3882 102.119,-68.6286 104.429,-75.4598 99.0113,-80.2194"/>
<text text-anchor="middle" x="123.5" y="-95.5" font-family="Helvetica,sans-Serif" font-size="10.00"> +vertex_idx</text>
</g>
<!-- Node3 -->
<g id="node3" class="node"><title>Node3</title>
<g id="a_node3"><a xlink:href="class_cosmos_1_1_math_1_1_vectors_1_1_vector.html" target="_top" xlink:title="Vector Class. ">
<polygon fill="white" stroke="black" points="114.5,-127.5 114.5,-415.5 235.5,-415.5 235.5,-127.5 114.5,-127.5"/>
<text text-anchor="start" x="122.5" y="-403.5" font-family="Helvetica,sans-Serif" font-size="10.00">Cosmos::Math::Vectors</text>
<text text-anchor="middle" x="175" y="-392.5" font-family="Helvetica,sans-Serif" font-size="10.00">::Vector</text>
<polyline fill="none" stroke="black" points="114.5,-385.5 235.5,-385.5 "/>
<text text-anchor="start" x="122.5" y="-373.5" font-family="Helvetica,sans-Serif" font-size="10.00">+ x</text>
<text text-anchor="start" x="122.5" y="-362.5" font-family="Helvetica,sans-Serif" font-size="10.00">+ phi</text>
<text text-anchor="start" x="122.5" y="-351.5" font-family="Helvetica,sans-Serif" font-size="10.00">+ lat</text>
<text text-anchor="start" x="122.5" y="-340.5" font-family="Helvetica,sans-Serif" font-size="10.00">+ head</text>
<text text-anchor="start" x="122.5" y="-329.5" font-family="Helvetica,sans-Serif" font-size="10.00">+ @31</text>
<text text-anchor="start" x="122.5" y="-318.5" font-family="Helvetica,sans-Serif" font-size="10.00">+ y</text>
<text text-anchor="start" x="122.5" y="-307.5" font-family="Helvetica,sans-Serif" font-size="10.00">+ lambda</text>
<text text-anchor="start" x="122.5" y="-296.5" font-family="Helvetica,sans-Serif" font-size="10.00">+ lon</text>
<text text-anchor="start" x="122.5" y="-285.5" font-family="Helvetica,sans-Serif" font-size="10.00">+ elev</text>
<text text-anchor="start" x="122.5" y="-274.5" font-family="Helvetica,sans-Serif" font-size="10.00">+ @33</text>
<text text-anchor="start" x="122.5" y="-263.5" font-family="Helvetica,sans-Serif" font-size="10.00">and 6 more...</text>
<polyline fill="none" stroke="black" points="114.5,-256.5 235.5,-256.5 "/>
<text text-anchor="start" x="122.5" y="-244.5" font-family="Helvetica,sans-Serif" font-size="10.00">+ Vector()</text>
<text text-anchor="start" x="122.5" y="-233.5" font-family="Helvetica,sans-Serif" font-size="10.00">+ Vector()</text>
<text text-anchor="start" x="122.5" y="-222.5" font-family="Helvetica,sans-Serif" font-size="10.00">+ Vector()</text>
<text text-anchor="start" x="122.5" y="-211.5" font-family="Helvetica,sans-Serif" font-size="10.00">+ Vector()</text>
<text text-anchor="start" x="122.5" y="-200.5" font-family="Helvetica,sans-Serif" font-size="10.00">+ at()</text>
<text text-anchor="start" x="122.5" y="-189.5" font-family="Helvetica,sans-Serif" font-size="10.00">+ to_rv()</text>
<text text-anchor="start" x="122.5" y="-178.5" font-family="Helvetica,sans-Serif" font-size="10.00">+ to_cv()</text>
<text text-anchor="start" x="122.5" y="-167.5" font-family="Helvetica,sans-Serif" font-size="10.00">+ to_q()</text>
<text text-anchor="start" x="122.5" y="-156.5" font-family="Helvetica,sans-Serif" font-size="10.00">+ cross()</text>
<text text-anchor="start" x="122.5" y="-145.5" font-family="Helvetica,sans-Serif" font-size="10.00">+ dot()</text>
<text text-anchor="start" x="122.5" y="-134.5" font-family="Helvetica,sans-Serif" font-size="10.00">and 23 more...</text>
</a>
</g>
</g>
<!-- Node3&#45;&gt;Node1 -->
<g id="edge2" class="edge"><title>Node3&#45;&gt;Node1</title>
<path fill="none" stroke="#404040" d="M165.858,-127.165C162.598,-113.308 158.395,-99.6985 153,-87 151.816,-84.2126 150.433,-81.4553 148.904,-78.7513"/>
<polygon fill="none" stroke="#404040" points="148.89,-78.7288 142.28,-75.8451 142.4,-68.635 149.01,-71.5186 148.89,-78.7288"/>
<text text-anchor="middle" x="178" y="-101" font-family="Helvetica,sans-Serif" font-size="10.00"> +com</text>
<text text-anchor="middle" x="178" y="-90" font-family="Helvetica,sans-Serif" font-size="10.00">+normal</text>
</g>
</g>
</svg>
