<?xml version="1.0" encoding="UTF-8" standalone="no"?>
<!DOCTYPE svg PUBLIC "-//W3C//DTD SVG 1.1//EN"
 "http://www.w3.org/Graphics/SVG/1.1/DTD/svg11.dtd">
<!-- Generated by graphviz version 2.38.0 (20140413.2041)
 -->
<!-- Title: piecestruc Pages: 1 -->
<svg width="245pt" height="567pt"
 viewBox="0.00 0.00 245.00 567.00" xmlns="http://www.w3.org/2000/svg" xmlns:xlink="http://www.w3.org/1999/xlink">
<g id="graph0" class="graph" transform="scale(1 1) rotate(0) translate(4 563)">
<title>piecestruc</title>
<polygon fill="white" stroke="none" points="-4,4 -4,-563 241,-563 241,4 -4,4"/>
<!-- Node1 -->
<g id="node1" class="node"><title>Node1</title>
<polygon fill="#bfbfbf" stroke="black" points="74,-0.5 74,-167.5 148,-167.5 148,-0.5 74,-0.5"/>
<text text-anchor="middle" x="111" y="-155.5" font-family="Helvetica,sans-Serif" font-size="10.00">piecestruc</text>
<polyline fill="none" stroke="black" points="74,-148.5 148,-148.5 "/>
<text text-anchor="start" x="82" y="-136.5" font-family="Helvetica,sans-Serif" font-size="10.00">+ name</text>
<text text-anchor="start" x="82" y="-125.5" font-family="Helvetica,sans-Serif" font-size="10.00">+ enabled</text>
<text text-anchor="start" x="82" y="-114.5" font-family="Helvetica,sans-Serif" font-size="10.00">+ cidx</text>
<text text-anchor="start" x="82" y="-103.5" font-family="Helvetica,sans-Serif" font-size="10.00">+ density</text>
<text text-anchor="start" x="82" y="-92.5" font-family="Helvetica,sans-Serif" font-size="10.00">+ mass</text>
<text text-anchor="start" x="82" y="-81.5" font-family="Helvetica,sans-Serif" font-size="10.00">+ emi</text>
<text text-anchor="start" x="82" y="-70.5" font-family="Helvetica,sans-Serif" font-size="10.00">+ abs</text>
<text text-anchor="start" x="82" y="-59.5" font-family="Helvetica,sans-Serif" font-size="10.00">+ hcap</text>
<text text-anchor="start" x="82" y="-48.5" font-family="Helvetica,sans-Serif" font-size="10.00">+ hcon</text>
<text text-anchor="start" x="82" y="-37.5" font-family="Helvetica,sans-Serif" font-size="10.00">+ dim</text>
<text text-anchor="start" x="82" y="-26.5" font-family="Helvetica,sans-Serif" font-size="10.00">and 7 more...</text>
<polyline fill="none" stroke="black" points="74,-19.5 148,-19.5 "/>
<text text-anchor="middle" x="111" y="-7.5" font-family="Helvetica,sans-Serif" font-size="10.00"> </text>
</g>
<!-- Node2 -->
<g id="node2" class="node"><title>Node2</title>
<polygon fill="white" stroke="#bfbfbf" points="0,-386 0,-443 96,-443 96,-386 0,-386"/>
<text text-anchor="middle" x="48" y="-431" font-family="Helvetica,sans-Serif" font-size="10.00">vector&lt; uint16_t &gt;</text>
<polyline fill="none" stroke="#bfbfbf" points="0,-424 96,-424 "/>
<text text-anchor="middle" x="48" y="-412" font-family="Helvetica,sans-Serif" font-size="10.00"> </text>
<polyline fill="none" stroke="#bfbfbf" points="0,-405 96,-405 "/>
<text text-anchor="middle" x="48" y="-393" font-family="Helvetica,sans-Serif" font-size="10.00"> </text>
</g>
<!-- Node2&#45;&gt;Node1 -->
<g id="edge1" class="edge"><title>Node2&#45;&gt;Node1</title>
<path fill="none" stroke="#404040" d="M53.317,-385.775C61.9542,-340.739 79.4215,-249.659 92.8832,-179.466"/>
<polygon fill="none" stroke="#404040" points="92.9165,-179.292 90.1182,-172.646 95.1768,-167.507 97.9751,-174.153 92.9165,-179.292"/>
<text text-anchor="middle" x="114" y="-216.5" font-family="Helvetica,sans-Serif" font-size="10.00"> +face_idx</text>
</g>
<!-- Node3 -->
<g id="node3" class="node"><title>Node3</title>
<g id="a_node3"><a xlink:href="class_cosmos_1_1_math_1_1_vectors_1_1_vector.html" target="_top" xlink:title="Vector Class. ">
<polygon fill="white" stroke="black" points="114.5,-270.5 114.5,-558.5 235.5,-558.5 235.5,-270.5 114.5,-270.5"/>
<text text-anchor="start" x="122.5" y="-546.5" font-family="Helvetica,sans-Serif" font-size="10.00">Cosmos::Math::Vectors</text>
<text text-anchor="middle" x="175" y="-535.5" font-family="Helvetica,sans-Serif" font-size="10.00">::Vector</text>
<polyline fill="none" stroke="black" points="114.5,-528.5 235.5,-528.5 "/>
<text text-anchor="start" x="122.5" y="-516.5" font-family="Helvetica,sans-Serif" font-size="10.00">+ x</text>
<text text-anchor="start" x="122.5" y="-505.5" font-family="Helvetica,sans-Serif" font-size="10.00">+ phi</text>
<text text-anchor="start" x="122.5" y="-494.5" font-family="Helvetica,sans-Serif" font-size="10.00">+ lat</text>
<text text-anchor="start" x="122.5" y="-483.5" font-family="Helvetica,sans-Serif" font-size="10.00">+ head</text>
<text text-anchor="start" x="122.5" y="-472.5" font-family="Helvetica,sans-Serif" font-size="10.00">+ @31</text>
<text text-anchor="start" x="122.5" y="-461.5" font-family="Helvetica,sans-Serif" font-size="10.00">+ y</text>
<text text-anchor="start" x="122.5" y="-450.5" font-family="Helvetica,sans-Serif" font-size="10.00">+ lambda</text>
<text text-anchor="start" x="122.5" y="-439.5" font-family="Helvetica,sans-Serif" font-size="10.00">+ lon</text>
<text text-anchor="start" x="122.5" y="-428.5" font-family="Helvetica,sans-Serif" font-size="10.00">+ elev</text>
<text text-anchor="start" x="122.5" y="-417.5" font-family="Helvetica,sans-Serif" font-size="10.00">+ @33</text>
<text text-anchor="start" x="122.5" y="-406.5" font-family="Helvetica,sans-Serif" font-size="10.00">and 6 more...</text>
<polyline fill="none" stroke="black" points="114.5,-399.5 235.5,-399.5 "/>
<text text-anchor="start" x="122.5" y="-387.5" font-family="Helvetica,sans-Serif" font-size="10.00">+ Vector()</text>
<text text-anchor="start" x="122.5" y="-376.5" font-family="Helvetica,sans-Serif" font-size="10.00">+ Vector()</text>
<text text-anchor="start" x="122.5" y="-365.5" font-family="Helvetica,sans-Serif" font-size="10.00">+ Vector()</text>
<text text-anchor="start" x="122.5" y="-354.5" font-family="Helvetica,sans-Serif" font-size="10.00">+ Vector()</text>
<text text-anchor="start" x="122.5" y="-343.5" font-family="Helvetica,sans-Serif" font-size="10.00">+ at()</text>
<text text-anchor="start" x="122.5" y="-332.5" font-family="Helvetica,sans-Serif" font-size="10.00">+ to_rv()</text>
<text text-anchor="start" x="122.5" y="-321.5" font-family="Helvetica,sans-Serif" font-size="10.00">+ to_cv()</text>
<text text-anchor="start" x="122.5" y="-310.5" font-family="Helvetica,sans-Serif" font-size="10.00">+ to_q()</text>
<text text-anchor="start" x="122.5" y="-299.5" font-family="Helvetica,sans-Serif" font-size="10.00">+ cross()</text>
<text text-anchor="start" x="122.5" y="-288.5" font-family="Helvetica,sans-Serif" font-size="10.00">+ dot()</text>
<text text-anchor="start" x="122.5" y="-277.5" font-family="Helvetica,sans-Serif" font-size="10.00">and 23 more...</text>
</a>
</g>
</g>
<!-- Node3&#45;&gt;Node1 -->
<g id="edge2" class="edge"><title>Node3&#45;&gt;Node1</title>
<path fill="none" stroke="#404040" d="M156.738,-270.339C152.274,-242.246 147.017,-213.095 141,-186 140.523,-183.85 140.024,-181.679 139.506,-179.494"/>
<polygon fill="none" stroke="#404040" points="139.472,-179.354 134.145,-174.494 136.583,-167.707 141.91,-172.568 139.472,-179.354"/>
<text text-anchor="middle" x="195.5" y="-244" font-family="Helvetica,sans-Serif" font-size="10.00"> +material_diffuse</text>
<text text-anchor="middle" x="195.5" y="-233" font-family="Helvetica,sans-Serif" font-size="10.00">+com</text>
<text text-anchor="middle" x="195.5" y="-222" font-family="Helvetica,sans-Serif" font-size="10.00">+material_specular</text>
<text text-anchor="middle" x="195.5" y="-211" font-family="Helvetica,sans-Serif" font-size="10.00">+twist</text>
<text text-anchor="middle" x="195.5" y="-200" font-family="Helvetica,sans-Serif" font-size="10.00">+shove</text>
<text text-anchor="middle" x="195.5" y="-189" font-family="Helvetica,sans-Serif" font-size="10.00">+material_ambient</text>
</g>
</g>
</svg>
