<?xml version="1.0" encoding="UTF-8" standalone="no"?>
<!DOCTYPE svg PUBLIC "-//W3C//DTD SVG 1.1//EN"
 "http://www.w3.org/Graphics/SVG/1.1/DTD/svg11.dtd">
<!-- Generated by graphviz version 2.38.0 (20140413.2041)
 -->
<!-- Title: attstruc Pages: 1 -->
<svg width="197pt" height="524pt"
 viewBox="0.00 0.00 196.50 524.00" xmlns="http://www.w3.org/2000/svg" xmlns:xlink="http://www.w3.org/1999/xlink">
<g id="graph0" class="graph" transform="scale(1 1) rotate(0) translate(4 520)">
<title>attstruc</title>
<polygon fill="white" stroke="none" points="-4,4 -4,-520 192.5,-520 192.5,4 -4,4"/>
<!-- Node1 -->
<g id="node1" class="node"><title>Node1</title>
<polygon fill="#bfbfbf" stroke="black" points="100.5,-0.5 100.5,-57.5 150.5,-57.5 150.5,-0.5 100.5,-0.5"/>
<text text-anchor="middle" x="125.5" y="-45.5" font-family="Helvetica,sans-Serif" font-size="10.00">attstruc</text>
<polyline fill="none" stroke="black" points="100.5,-38.5 150.5,-38.5 "/>
<text text-anchor="start" x="108.5" y="-26.5" font-family="Helvetica,sans-Serif" font-size="10.00">+ utc</text>
<polyline fill="none" stroke="black" points="100.5,-19.5 150.5,-19.5 "/>
<text text-anchor="middle" x="125.5" y="-7.5" font-family="Helvetica,sans-Serif" font-size="10.00"> </text>
</g>
<!-- Node2 -->
<g id="node2" class="node"><title>Node2</title>
<g id="a_node2"><a xlink:href="structqatt.html" target="_top" xlink:title="Quaternion Attitude. ">
<polygon fill="white" stroke="black" points="73,-149.5 73,-217.5 120,-217.5 120,-149.5 73,-149.5"/>
<text text-anchor="middle" x="96.5" y="-205.5" font-family="Helvetica,sans-Serif" font-size="10.00">qatt</text>
<polyline fill="none" stroke="black" points="73,-198.5 120,-198.5 "/>
<text text-anchor="start" x="81" y="-186.5" font-family="Helvetica,sans-Serif" font-size="10.00">+ utc</text>
<text text-anchor="start" x="81" y="-175.5" font-family="Helvetica,sans-Serif" font-size="10.00">+ pass</text>
<polyline fill="none" stroke="black" points="73,-168.5 120,-168.5 "/>
<text text-anchor="middle" x="96.5" y="-156.5" font-family="Helvetica,sans-Serif" font-size="10.00"> </text>
</a>
</g>
</g>
<!-- Node2&#45;&gt;Node1 -->
<g id="edge1" class="edge"><title>Node2&#45;&gt;Node1</title>
<path fill="none" stroke="#404040" d="M98.7397,-149.081C100.608,-127.935 103.898,-100.132 109.5,-76 109.995,-73.8688 110.553,-71.6985 111.157,-69.5188"/>
<polygon fill="none" stroke="#404040" points="111.19,-69.4097 109.131,-62.4988 114.718,-57.9401 116.778,-64.851 111.19,-69.4097"/>
<text text-anchor="middle" x="123.5" y="-123" font-family="Helvetica,sans-Serif" font-size="10.00"> +selc</text>
<text text-anchor="middle" x="123.5" y="-112" font-family="Helvetica,sans-Serif" font-size="10.00">+topo</text>
<text text-anchor="middle" x="123.5" y="-101" font-family="Helvetica,sans-Serif" font-size="10.00">+icrf</text>
<text text-anchor="middle" x="123.5" y="-90" font-family="Helvetica,sans-Serif" font-size="10.00">+geoc</text>
<text text-anchor="middle" x="123.5" y="-79" font-family="Helvetica,sans-Serif" font-size="10.00">+lvlh</text>
</g>
<!-- Node3 -->
<g id="node3" class="node"><title>Node3</title>
<g id="a_node3"><a xlink:href="structquaternion.html" target="_top" xlink:title="Quaternion, scalar last, using x, y, z. ">
<polygon fill="white" stroke="black" points="8.5,-276.5 8.5,-333.5 70.5,-333.5 70.5,-276.5 8.5,-276.5"/>
<text text-anchor="middle" x="39.5" y="-321.5" font-family="Helvetica,sans-Serif" font-size="10.00">quaternion</text>
<polyline fill="none" stroke="black" points="8.5,-314.5 70.5,-314.5 "/>
<text text-anchor="start" x="16.5" y="-302.5" font-family="Helvetica,sans-Serif" font-size="10.00">+ w</text>
<polyline fill="none" stroke="black" points="8.5,-295.5 70.5,-295.5 "/>
<text text-anchor="middle" x="39.5" y="-283.5" font-family="Helvetica,sans-Serif" font-size="10.00"> </text>
</a>
</g>
</g>
<!-- Node3&#45;&gt;Node2 -->
<g id="edge2" class="edge"><title>Node3&#45;&gt;Node2</title>
<path fill="none" stroke="#404040" d="M52.7202,-276.284C59.4421,-262.192 67.774,-244.724 75.3593,-228.821"/>
<polygon fill="none" stroke="#404040" points="75.5506,-228.42 74.5235,-221.282 80.7169,-217.589 81.7441,-224.727 75.5506,-228.42"/>
<text text-anchor="middle" x="79" y="-244.5" font-family="Helvetica,sans-Serif" font-size="10.00"> +s</text>
</g>
<!-- Node4 -->
<g id="node4" class="node"><title>Node4</title>
<g id="a_node4"><a xlink:href="classcvector.html" target="_top" xlink:title="3 element cartesian vector ">
<polygon fill="white" stroke="black" points="0,-381.5 0,-515.5 79,-515.5 79,-381.5 0,-381.5"/>
<text text-anchor="middle" x="39.5" y="-503.5" font-family="Helvetica,sans-Serif" font-size="10.00">cvector</text>
<polyline fill="none" stroke="black" points="0,-496.5 79,-496.5 "/>
<text text-anchor="start" x="8" y="-484.5" font-family="Helvetica,sans-Serif" font-size="10.00">+ x</text>
<text text-anchor="start" x="8" y="-473.5" font-family="Helvetica,sans-Serif" font-size="10.00">+ y</text>
<text text-anchor="start" x="8" y="-462.5" font-family="Helvetica,sans-Serif" font-size="10.00">+ z</text>
<polyline fill="none" stroke="black" points="0,-455.5 79,-455.5 "/>
<text text-anchor="start" x="8" y="-443.5" font-family="Helvetica,sans-Serif" font-size="10.00">+ normalize()</text>
<text text-anchor="start" x="8" y="-432.5" font-family="Helvetica,sans-Serif" font-size="10.00">+ length()</text>
<text text-anchor="start" x="8" y="-421.5" font-family="Helvetica,sans-Serif" font-size="10.00">+ norm()</text>
<text text-anchor="start" x="8" y="-410.5" font-family="Helvetica,sans-Serif" font-size="10.00">+ norm2()</text>
<text text-anchor="start" x="8" y="-399.5" font-family="Helvetica,sans-Serif" font-size="10.00">+ normalized()</text>
<text text-anchor="start" x="8" y="-388.5" font-family="Helvetica,sans-Serif" font-size="10.00">+ operator[]()</text>
</a>
</g>
</g>
<!-- Node4&#45;&gt;Node3 -->
<g id="edge3" class="edge"><title>Node4&#45;&gt;Node3</title>
<path fill="none" stroke="#404040" d="M39.5,-381.307C39.5,-369.21 39.5,-356.934 39.5,-345.903"/>
<polygon fill="none" stroke="#404040" points="39.5001,-345.609 35.5,-339.609 39.5,-333.609 43.5,-339.609 39.5001,-345.609"/>
<text text-anchor="middle" x="47" y="-355" font-family="Helvetica,sans-Serif" font-size="10.00"> +d</text>
</g>
<!-- Node5 -->
<g id="node5" class="node"><title>Node5</title>
<g id="a_node5"><a xlink:href="structrvector.html" target="_top" xlink:title="3 element generic row vector ">
<polygon fill="white" stroke="black" points="112,-420 112,-477 159,-477 159,-420 112,-420"/>
<text text-anchor="middle" x="135.5" y="-465" font-family="Helvetica,sans-Serif" font-size="10.00">rvector</text>
<polyline fill="none" stroke="black" points="112,-458 159,-458 "/>
<text text-anchor="start" x="120" y="-446" font-family="Helvetica,sans-Serif" font-size="10.00">+ col</text>
<polyline fill="none" stroke="black" points="112,-439 159,-439 "/>
<text text-anchor="middle" x="135.5" y="-427" font-family="Helvetica,sans-Serif" font-size="10.00"> </text>
</a>
</g>
</g>
<!-- Node5&#45;&gt;Node2 -->
<g id="edge4" class="edge"><title>Node5&#45;&gt;Node2</title>
<path fill="none" stroke="#404040" d="M130.194,-419.575C125.929,-396.638 119.937,-363.278 115.5,-334 110.2,-299.029 105.199,-259.303 101.659,-229.595"/>
<polygon fill="none" stroke="#404040" points="101.641,-229.438 96.9656,-223.947 100.235,-217.52 104.911,-223.01 101.641,-229.438"/>
<text text-anchor="middle" x="123" y="-308" font-family="Helvetica,sans-Serif" font-size="10.00"> +a</text>
<text text-anchor="middle" x="123" y="-297" font-family="Helvetica,sans-Serif" font-size="10.00">+v</text>
</g>
<!-- Node7 -->
<g id="node7" class="node"><title>Node7</title>
<g id="a_node7"><a xlink:href="structrmatrix.html" target="_top" xlink:title="3x3 element generic matrix ">
<polygon fill="white" stroke="black" points="140,-276.5 140,-333.5 187,-333.5 187,-276.5 140,-276.5"/>
<text text-anchor="middle" x="163.5" y="-321.5" font-family="Helvetica,sans-Serif" font-size="10.00">rmatrix</text>
<polyline fill="none" stroke="black" points="140,-314.5 187,-314.5 "/>
<text text-anchor="middle" x="163.5" y="-302.5" font-family="Helvetica,sans-Serif" font-size="10.00"> </text>
<polyline fill="none" stroke="black" points="140,-295.5 187,-295.5 "/>
<text text-anchor="middle" x="163.5" y="-283.5" font-family="Helvetica,sans-Serif" font-size="10.00"> </text>
</a>
</g>
</g>
<!-- Node5&#45;&gt;Node7 -->
<g id="edge7" class="edge"><title>Node5&#45;&gt;Node7</title>
<path fill="none" stroke="#404040" d="M140.965,-419.881C145.166,-398.65 151.026,-369.038 155.717,-345.332"/>
<polygon fill="none" stroke="#404040" points="155.719,-345.321 152.96,-338.658 158.049,-333.549 160.808,-340.211 155.719,-345.321"/>
<text text-anchor="middle" x="167" y="-355" font-family="Helvetica,sans-Serif" font-size="10.00"> +row</text>
</g>
<!-- Node6 -->
<g id="node6" class="node"><title>Node6</title>
<g id="a_node6"><a xlink:href="structextraatt.html" target="_top" xlink:title="Additional parameters relating to position that need only be calculated once. ">
<polygon fill="white" stroke="black" points="138.5,-155 138.5,-212 188.5,-212 188.5,-155 138.5,-155"/>
<text text-anchor="middle" x="163.5" y="-200" font-family="Helvetica,sans-Serif" font-size="10.00">extraatt</text>
<polyline fill="none" stroke="black" points="138.5,-193 188.5,-193 "/>
<text text-anchor="start" x="146.5" y="-181" font-family="Helvetica,sans-Serif" font-size="10.00">+ utc</text>
<polyline fill="none" stroke="black" points="138.5,-174 188.5,-174 "/>
<text text-anchor="middle" x="163.5" y="-162" font-family="Helvetica,sans-Serif" font-size="10.00"> </text>
</a>
</g>
</g>
<!-- Node6&#45;&gt;Node1 -->
<g id="edge5" class="edge"><title>Node6&#45;&gt;Node1</title>
<path fill="none" stroke="#404040" d="M156.885,-154.888C151.7,-133.371 144.256,-102.758 137.5,-76 136.963,-73.8719 136.408,-71.6895 135.844,-69.4871"/>
<polygon fill="none" stroke="#404040" points="135.804,-69.3314 130.431,-64.5215 132.805,-57.7122 138.177,-62.522 135.804,-69.3314"/>
<text text-anchor="middle" x="166" y="-101" font-family="Helvetica,sans-Serif" font-size="10.00"> +extra</text>
</g>
<!-- Node7&#45;&gt;Node6 -->
<g id="edge6" class="edge"><title>Node7&#45;&gt;Node6</title>
<path fill="none" stroke="#404040" d="M163.5,-276.284C163.5,-260.9 163.5,-241.493 163.5,-224.492"/>
<polygon fill="none" stroke="#404040" points="163.5,-224.066 159.5,-218.066 163.5,-212.066 167.5,-218.066 163.5,-224.066"/>
<text text-anchor="middle" x="174.5" y="-250" font-family="Helvetica,sans-Serif" font-size="10.00"> +b2j</text>
<text text-anchor="middle" x="174.5" y="-239" font-family="Helvetica,sans-Serif" font-size="10.00">+j2b</text>
</g>
</g>
</svg>
