<?xml version="1.0" encoding="UTF-8" standalone="no"?>
<!DOCTYPE svg PUBLIC "-//W3C//DTD SVG 1.1//EN"
 "http://www.w3.org/Graphics/SVG/1.1/DTD/svg11.dtd">
<!-- Generated by graphviz version 2.38.0 (20140413.2041)
 -->
<!-- Title: ssenstruc Pages: 1 -->
<svg width="82pt" height="336pt"
 viewBox="0.00 0.00 82.00 336.00" xmlns="http://www.w3.org/2000/svg" xmlns:xlink="http://www.w3.org/1999/xlink">
<g id="graph0" class="graph" transform="scale(1 1) rotate(0) translate(4 332)">
<title>ssenstruc</title>
<polygon fill="white" stroke="none" points="-4,4 -4,-332 78,-332 78,4 -4,4"/>
<!-- Node1 -->
<g id="node1" class="node"><title>Node1</title>
<polygon fill="#bfbfbf" stroke="black" points="4.5,-0.5 4.5,-123.5 69.5,-123.5 69.5,-0.5 4.5,-0.5"/>
<text text-anchor="middle" x="37" y="-111.5" font-family="Helvetica,sans-Serif" font-size="10.00">ssenstruc</text>
<polyline fill="none" stroke="black" points="4.5,-104.5 69.5,-104.5 "/>
<text text-anchor="start" x="12.5" y="-92.5" font-family="Helvetica,sans-Serif" font-size="10.00">+ align</text>
<text text-anchor="start" x="12.5" y="-81.5" font-family="Helvetica,sans-Serif" font-size="10.00">+ qva</text>
<text text-anchor="start" x="12.5" y="-70.5" font-family="Helvetica,sans-Serif" font-size="10.00">+ qvb</text>
<text text-anchor="start" x="12.5" y="-59.5" font-family="Helvetica,sans-Serif" font-size="10.00">+ qvc</text>
<text text-anchor="start" x="12.5" y="-48.5" font-family="Helvetica,sans-Serif" font-size="10.00">+ qvd</text>
<text text-anchor="start" x="12.5" y="-37.5" font-family="Helvetica,sans-Serif" font-size="10.00">+ azimuth</text>
<text text-anchor="start" x="12.5" y="-26.5" font-family="Helvetica,sans-Serif" font-size="10.00">+ elevation</text>
<polyline fill="none" stroke="black" points="4.5,-19.5 69.5,-19.5 "/>
<text text-anchor="middle" x="37" y="-7.5" font-family="Helvetica,sans-Serif" font-size="10.00"> </text>
</g>
<!-- Node2 -->
<g id="node2" class="node"><title>Node2</title>
<g id="a_node2"><a xlink:href="structallstruc.html" target="_top" xlink:title="All Component structure. ">
<polygon fill="white" stroke="black" points="0,-160.5 0,-327.5 74,-327.5 74,-160.5 0,-160.5"/>
<text text-anchor="middle" x="37" y="-315.5" font-family="Helvetica,sans-Serif" font-size="10.00">allstruc</text>
<polyline fill="none" stroke="black" points="0,-308.5 74,-308.5 "/>
<text text-anchor="start" x="8" y="-296.5" font-family="Helvetica,sans-Serif" font-size="10.00">+ enabled</text>
<text text-anchor="start" x="8" y="-285.5" font-family="Helvetica,sans-Serif" font-size="10.00">+ type</text>
<text text-anchor="start" x="8" y="-274.5" font-family="Helvetica,sans-Serif" font-size="10.00">+ model</text>
<text text-anchor="start" x="8" y="-263.5" font-family="Helvetica,sans-Serif" font-size="10.00">+ flag</text>
<text text-anchor="start" x="8" y="-252.5" font-family="Helvetica,sans-Serif" font-size="10.00">+ addr</text>
<text text-anchor="start" x="8" y="-241.5" font-family="Helvetica,sans-Serif" font-size="10.00">+ cidx</text>
<text text-anchor="start" x="8" y="-230.5" font-family="Helvetica,sans-Serif" font-size="10.00">+ didx</text>
<text text-anchor="start" x="8" y="-219.5" font-family="Helvetica,sans-Serif" font-size="10.00">+ pidx</text>
<text text-anchor="start" x="8" y="-208.5" font-family="Helvetica,sans-Serif" font-size="10.00">+ bidx</text>
<text text-anchor="start" x="8" y="-197.5" font-family="Helvetica,sans-Serif" font-size="10.00">+ portidx</text>
<text text-anchor="start" x="8" y="-186.5" font-family="Helvetica,sans-Serif" font-size="10.00">and 9 more...</text>
<polyline fill="none" stroke="black" points="0,-179.5 74,-179.5 "/>
<text text-anchor="middle" x="37" y="-167.5" font-family="Helvetica,sans-Serif" font-size="10.00"> </text>
</a>
</g>
</g>
<!-- Node2&#45;&gt;Node1 -->
<g id="edge1" class="edge"><title>Node2&#45;&gt;Node1</title>
<path fill="none" stroke="midnightblue" d="M37,-150.194C37,-141.173 37,-132.189 37,-123.607"/>
<polygon fill="none" stroke="midnightblue" points="33.5001,-150.375 37,-160.375 40.5001,-150.375 33.5001,-150.375"/>
</g>
</g>
</svg>
