<?xml version="1.0" encoding="UTF-8" standalone="no"?>
<!DOCTYPE svg PUBLIC "-//W3C//DTD SVG 1.1//EN"
 "http://www.w3.org/Graphics/SVG/1.1/DTD/svg11.dtd">
<!-- Generated by graphviz version 2.38.0 (20140413.2041)
 -->
<!-- Title: extrapos Pages: 1 -->
<svg width="127pt" height="507pt"
 viewBox="0.00 0.00 126.50 507.00" xmlns="http://www.w3.org/2000/svg" xmlns:xlink="http://www.w3.org/1999/xlink">
<g id="graph0" class="graph" transform="scale(1 1) rotate(0) translate(4 503)">
<title>extrapos</title>
<polygon fill="white" stroke="none" points="-4,4 -4,-503 122.5,-503 122.5,4 -4,4"/>
<!-- Node1 -->
<g id="node1" class="node"><title>Node1</title>
<polygon fill="#bfbfbf" stroke="black" points="29,-0.5 29,-145.5 86,-145.5 86,-0.5 29,-0.5"/>
<text text-anchor="middle" x="57.5" y="-133.5" font-family="Helvetica,sans-Serif" font-size="10.00">extrapos</text>
<polyline fill="none" stroke="black" points="29,-126.5 86,-126.5 "/>
<text text-anchor="start" x="37" y="-114.5" font-family="Helvetica,sans-Serif" font-size="10.00">+ utc</text>
<text text-anchor="start" x="37" y="-103.5" font-family="Helvetica,sans-Serif" font-size="10.00">+ tt</text>
<text text-anchor="start" x="37" y="-92.5" font-family="Helvetica,sans-Serif" font-size="10.00">+ ut</text>
<text text-anchor="start" x="37" y="-81.5" font-family="Helvetica,sans-Serif" font-size="10.00">+ tdb</text>
<text text-anchor="start" x="37" y="-70.5" font-family="Helvetica,sans-Serif" font-size="10.00">+ j2e</text>
<text text-anchor="start" x="37" y="-59.5" font-family="Helvetica,sans-Serif" font-size="10.00">+ dj2e</text>
<text text-anchor="start" x="37" y="-48.5" font-family="Helvetica,sans-Serif" font-size="10.00">+ ddj2e</text>
<text text-anchor="start" x="37" y="-37.5" font-family="Helvetica,sans-Serif" font-size="10.00">+ de2j</text>
<text text-anchor="start" x="37" y="-26.5" font-family="Helvetica,sans-Serif" font-size="10.00">+ closest</text>
<polyline fill="none" stroke="black" points="29,-19.5 86,-19.5 "/>
<text text-anchor="middle" x="57.5" y="-7.5" font-family="Helvetica,sans-Serif" font-size="10.00"> </text>
</g>
<!-- Node2 -->
<g id="node2" class="node"><title>Node2</title>
<g id="a_node2"><a xlink:href="structcartpos.html" target="_top" xlink:title="Cartesian full position structure. ">
<polygon fill="white" stroke="black" points="0,-303.5 0,-371.5 49,-371.5 49,-303.5 0,-303.5"/>
<text text-anchor="middle" x="24.5" y="-359.5" font-family="Helvetica,sans-Serif" font-size="10.00">cartpos</text>
<polyline fill="none" stroke="black" points="0,-352.5 49,-352.5 "/>
<text text-anchor="start" x="8" y="-340.5" font-family="Helvetica,sans-Serif" font-size="10.00">+ utc</text>
<text text-anchor="start" x="8" y="-329.5" font-family="Helvetica,sans-Serif" font-size="10.00">+ pass</text>
<polyline fill="none" stroke="black" points="0,-322.5 49,-322.5 "/>
<text text-anchor="middle" x="24.5" y="-310.5" font-family="Helvetica,sans-Serif" font-size="10.00"> </text>
</a>
</g>
</g>
<!-- Node2&#45;&gt;Node1 -->
<g id="edge1" class="edge"><title>Node2&#45;&gt;Node1</title>
<path fill="none" stroke="#404040" d="M19.1201,-303.372C14.4577,-268.361 9.83918,-211.718 19.5,-164 20.8252,-157.455 22.6417,-150.793 24.767,-144.207"/>
<polygon fill="none" stroke="#404040" points="24.9113,-143.796 23.1249,-136.81 28.8867,-132.474 30.6731,-139.46 24.9113,-143.796"/>
<text text-anchor="middle" x="47" y="-227.5" font-family="Helvetica,sans-Serif" font-size="10.00"> +sun2moon</text>
<text text-anchor="middle" x="47" y="-216.5" font-family="Helvetica,sans-Serif" font-size="10.00">+sun2earth</text>
</g>
<!-- Node3 -->
<g id="node3" class="node"><title>Node3</title>
<g id="a_node3"><a xlink:href="structrvector.html" target="_top" xlink:title="3 element generic row vector ">
<polygon fill="white" stroke="black" points="39,-441.5 39,-498.5 86,-498.5 86,-441.5 39,-441.5"/>
<text text-anchor="middle" x="62.5" y="-486.5" font-family="Helvetica,sans-Serif" font-size="10.00">rvector</text>
<polyline fill="none" stroke="black" points="39,-479.5 86,-479.5 "/>
<text text-anchor="start" x="47" y="-467.5" font-family="Helvetica,sans-Serif" font-size="10.00">+ col</text>
<polyline fill="none" stroke="black" points="39,-460.5 86,-460.5 "/>
<text text-anchor="middle" x="62.5" y="-448.5" font-family="Helvetica,sans-Serif" font-size="10.00"> </text>
</a>
</g>
</g>
<!-- Node3&#45;&gt;Node2 -->
<g id="edge2" class="edge"><title>Node3&#45;&gt;Node2</title>
<path fill="none" stroke="#404040" d="M54.4412,-441.324C49.5338,-424.471 43.1493,-402.546 37.5372,-383.272"/>
<polygon fill="none" stroke="#404040" points="37.5177,-383.205 31.9997,-378.563 34.1627,-371.684 39.6807,-376.326 37.5177,-383.205"/>
<text text-anchor="middle" x="56" y="-415" font-family="Helvetica,sans-Serif" font-size="10.00"> +a</text>
<text text-anchor="middle" x="56" y="-404" font-family="Helvetica,sans-Serif" font-size="10.00">+s</text>
<text text-anchor="middle" x="56" y="-393" font-family="Helvetica,sans-Serif" font-size="10.00">+v</text>
</g>
<!-- Node4 -->
<g id="node4" class="node"><title>Node4</title>
<g id="a_node4"><a xlink:href="structrmatrix.html" target="_top" xlink:title="3x3 element generic matrix ">
<polygon fill="white" stroke="black" points="70,-309 70,-366 117,-366 117,-309 70,-309"/>
<text text-anchor="middle" x="93.5" y="-354" font-family="Helvetica,sans-Serif" font-size="10.00">rmatrix</text>
<polyline fill="none" stroke="black" points="70,-347 117,-347 "/>
<text text-anchor="middle" x="93.5" y="-335" font-family="Helvetica,sans-Serif" font-size="10.00"> </text>
<polyline fill="none" stroke="black" points="70,-328 117,-328 "/>
<text text-anchor="middle" x="93.5" y="-316" font-family="Helvetica,sans-Serif" font-size="10.00"> </text>
</a>
</g>
</g>
<!-- Node3&#45;&gt;Node4 -->
<g id="edge4" class="edge"><title>Node3&#45;&gt;Node4</title>
<path fill="none" stroke="#404040" d="M69.0743,-441.324C73.4515,-422.898 79.2692,-398.407 84.1289,-377.949"/>
<polygon fill="none" stroke="#404040" points="84.1617,-377.811 81.6567,-371.049 86.9352,-366.136 89.4401,-372.898 84.1617,-377.811"/>
<text text-anchor="middle" x="93" y="-404" font-family="Helvetica,sans-Serif" font-size="10.00"> +row</text>
</g>
<!-- Node4&#45;&gt;Node1 -->
<g id="edge3" class="edge"><title>Node4&#45;&gt;Node1</title>
<path fill="none" stroke="#404040" d="M91.123,-308.93C88.0291,-274.804 82.1072,-214.956 74.5,-164 74.1794,-161.852 73.8446,-159.678 73.498,-157.485"/>
<polygon fill="none" stroke="#404040" points="73.4971,-157.479 68.575,-152.209 71.5465,-145.638 76.4686,-150.908 73.4971,-157.479"/>
<text text-anchor="middle" x="103.5" y="-277" font-family="Helvetica,sans-Serif" font-size="10.00"> +t2s</text>
<text text-anchor="middle" x="103.5" y="-266" font-family="Helvetica,sans-Serif" font-size="10.00">+s2t</text>
<text text-anchor="middle" x="103.5" y="-255" font-family="Helvetica,sans-Serif" font-size="10.00">+dt2s</text>
<text text-anchor="middle" x="103.5" y="-244" font-family="Helvetica,sans-Serif" font-size="10.00">+ds2t</text>
<text text-anchor="middle" x="103.5" y="-233" font-family="Helvetica,sans-Serif" font-size="10.00">+s2j</text>
<text text-anchor="middle" x="103.5" y="-222" font-family="Helvetica,sans-Serif" font-size="10.00">+j2s</text>
<text text-anchor="middle" x="103.5" y="-211" font-family="Helvetica,sans-Serif" font-size="10.00">+t2j</text>
<text text-anchor="middle" x="103.5" y="-200" font-family="Helvetica,sans-Serif" font-size="10.00">+j2t</text>
<text text-anchor="middle" x="103.5" y="-189" font-family="Helvetica,sans-Serif" font-size="10.00">+dde2j</text>
<text text-anchor="middle" x="103.5" y="-178" font-family="Helvetica,sans-Serif" font-size="10.00">+e2j</text>
<text text-anchor="middle" x="103.5" y="-167" font-family="Helvetica,sans-Serif" font-size="10.00">...</text>
</g>
</g>
</svg>
