<?xml version="1.0" encoding="UTF-8" standalone="no"?>
<!DOCTYPE svg PUBLIC "-//W3C//DTD SVG 1.1//EN"
 "http://www.w3.org/Graphics/SVG/1.1/DTD/svg11.dtd">
<!-- Generated by graphviz version 2.38.0 (20140413.2041)
 -->
<!-- Title: gjstruc Pages: 1 -->
<svg width="599pt" height="1020pt"
 viewBox="0.00 0.00 598.50 1020.00" xmlns="http://www.w3.org/2000/svg" xmlns:xlink="http://www.w3.org/1999/xlink">
<g id="graph0" class="graph" transform="scale(1 1) rotate(0) translate(4 1016)">
<title>gjstruc</title>
<polygon fill="white" stroke="none" points="-4,4 -4,-1016 594.5,-1016 594.5,4 -4,4"/>
<!-- Node1 -->
<g id="node1" class="node"><title>Node1</title>
<polygon fill="#bfbfbf" stroke="black" points="431.5,-0.5 431.5,-68.5 477.5,-68.5 477.5,-0.5 431.5,-0.5"/>
<text text-anchor="middle" x="454.5" y="-56.5" font-family="Helvetica,sans-Serif" font-size="10.00">gjstruc</text>
<polyline fill="none" stroke="black" points="431.5,-49.5 477.5,-49.5 "/>
<text text-anchor="start" x="439.5" y="-37.5" font-family="Helvetica,sans-Serif" font-size="10.00">+ a</text>
<text text-anchor="start" x="439.5" y="-26.5" font-family="Helvetica,sans-Serif" font-size="10.00">+ b</text>
<polyline fill="none" stroke="black" points="431.5,-19.5 477.5,-19.5 "/>
<text text-anchor="middle" x="454.5" y="-7.5" font-family="Helvetica,sans-Serif" font-size="10.00"> </text>
</g>
<!-- Node2 -->
<g id="node2" class="node"><title>Node2</title>
<g id="a_node2"><a xlink:href="structlocstruc.html" target="_top" xlink:title="{locstruc\n|+ utc\l+ orbit\l|}">
<polygon fill="white" stroke="black" points="189,-116.5 189,-184.5 240,-184.5 240,-116.5 189,-116.5"/>
<text text-anchor="middle" x="214.5" y="-172.5" font-family="Helvetica,sans-Serif" font-size="10.00">locstruc</text>
<polyline fill="none" stroke="black" points="189,-165.5 240,-165.5 "/>
<text text-anchor="start" x="197" y="-153.5" font-family="Helvetica,sans-Serif" font-size="10.00">+ utc</text>
<text text-anchor="start" x="197" y="-142.5" font-family="Helvetica,sans-Serif" font-size="10.00">+ orbit</text>
<polyline fill="none" stroke="black" points="189,-135.5 240,-135.5 "/>
<text text-anchor="middle" x="214.5" y="-123.5" font-family="Helvetica,sans-Serif" font-size="10.00"> </text>
</a>
</g>
</g>
<!-- Node2&#45;&gt;Node1 -->
<g id="edge1" class="edge"><title>Node2&#45;&gt;Node1</title>
<path fill="none" stroke="#404040" d="M240.184,-137.3C283.733,-116.614 372.05,-74.664 420.612,-51.597"/>
<polygon fill="none" stroke="#404040" points="420.642,-51.5828 424.345,-45.3953 431.481,-46.434 427.778,-52.6215 420.642,-51.5828"/>
<text text-anchor="middle" x="356.5" y="-90" font-family="Helvetica,sans-Serif" font-size="10.00"> +sloc</text>
</g>
<!-- Node3 -->
<g id="node3" class="node"><title>Node3</title>
<g id="a_node3"><a xlink:href="structposstruc.html" target="_top" xlink:title="{posstruc\n|+ utc\l+ earthsep\l+ moonsep\l+ sunsize\l+ sunradiance\l|}">
<polygon fill="white" stroke="black" points="336.5,-232.5 336.5,-333.5 414.5,-333.5 414.5,-232.5 336.5,-232.5"/>
<text text-anchor="middle" x="375.5" y="-321.5" font-family="Helvetica,sans-Serif" font-size="10.00">posstruc</text>
<polyline fill="none" stroke="black" points="336.5,-314.5 414.5,-314.5 "/>
<text text-anchor="start" x="344.5" y="-302.5" font-family="Helvetica,sans-Serif" font-size="10.00">+ utc</text>
<text text-anchor="start" x="344.5" y="-291.5" font-family="Helvetica,sans-Serif" font-size="10.00">+ earthsep</text>
<text text-anchor="start" x="344.5" y="-280.5" font-family="Helvetica,sans-Serif" font-size="10.00">+ moonsep</text>
<text text-anchor="start" x="344.5" y="-269.5" font-family="Helvetica,sans-Serif" font-size="10.00">+ sunsize</text>
<text text-anchor="start" x="344.5" y="-258.5" font-family="Helvetica,sans-Serif" font-size="10.00">+ sunradiance</text>
<polyline fill="none" stroke="black" points="336.5,-251.5 414.5,-251.5 "/>
<text text-anchor="middle" x="375.5" y="-239.5" font-family="Helvetica,sans-Serif" font-size="10.00"> </text>
</a>
</g>
</g>
<!-- Node3&#45;&gt;Node2 -->
<g id="edge2" class="edge"><title>Node3&#45;&gt;Node2</title>
<path fill="none" stroke="#404040" d="M336.115,-250.076C309.816,-228.759 275.514,-200.956 250.047,-180.313"/>
<polygon fill="none" stroke="#404040" points="249.734,-180.06 242.554,-179.389 240.412,-172.503 247.592,-173.174 249.734,-180.06"/>
<text text-anchor="middle" x="303" y="-206" font-family="Helvetica,sans-Serif" font-size="10.00"> +pos</text>
</g>
<!-- Node4 -->
<g id="node4" class="node"><title>Node4</title>
<g id="a_node4"><a xlink:href="structgeoidpos.html" target="_top" xlink:title="Geodetic position structure. ">
<polygon fill="white" stroke="black" points="486.5,-464 486.5,-532 542.5,-532 542.5,-464 486.5,-464"/>
<text text-anchor="middle" x="514.5" y="-520" font-family="Helvetica,sans-Serif" font-size="10.00">geoidpos</text>
<polyline fill="none" stroke="black" points="486.5,-513 542.5,-513 "/>
<text text-anchor="start" x="494.5" y="-501" font-family="Helvetica,sans-Serif" font-size="10.00">+ utc</text>
<text text-anchor="start" x="494.5" y="-490" font-family="Helvetica,sans-Serif" font-size="10.00">+ pass</text>
<polyline fill="none" stroke="black" points="486.5,-483 542.5,-483 "/>
<text text-anchor="middle" x="514.5" y="-471" font-family="Helvetica,sans-Serif" font-size="10.00"> </text>
</a>
</g>
</g>
<!-- Node4&#45;&gt;Node3 -->
<g id="edge3" class="edge"><title>Node4&#45;&gt;Node3</title>
<path fill="none" stroke="#404040" d="M505.679,-463.97C496.348,-433.044 479.488,-386.546 454.5,-352 445.966,-340.201 434.991,-329.101 423.953,-319.426"/>
<polygon fill="none" stroke="#404040" points="423.898,-319.38 416.732,-318.575 414.719,-311.651 421.885,-312.456 423.898,-319.38"/>
<text text-anchor="middle" x="497.5" y="-382.5" font-family="Helvetica,sans-Serif" font-size="10.00"> +selg</text>
<text text-anchor="middle" x="497.5" y="-371.5" font-family="Helvetica,sans-Serif" font-size="10.00">+geod</text>
</g>
<!-- Node5 -->
<g id="node5" class="node"><title>Node5</title>
<g id="a_node5"><a xlink:href="structgvector.html" target="_top" xlink:title="3 element geodetic vector ">
<polygon fill="white" stroke="black" points="490,-728.5 490,-807.5 539,-807.5 539,-728.5 490,-728.5"/>
<text text-anchor="middle" x="514.5" y="-795.5" font-family="Helvetica,sans-Serif" font-size="10.00">gvector</text>
<polyline fill="none" stroke="black" points="490,-788.5 539,-788.5 "/>
<text text-anchor="start" x="498" y="-776.5" font-family="Helvetica,sans-Serif" font-size="10.00">+ lat</text>
<text text-anchor="start" x="498" y="-765.5" font-family="Helvetica,sans-Serif" font-size="10.00">+ lon</text>
<text text-anchor="start" x="498" y="-754.5" font-family="Helvetica,sans-Serif" font-size="10.00">+ h</text>
<polyline fill="none" stroke="black" points="490,-747.5 539,-747.5 "/>
<text text-anchor="middle" x="514.5" y="-735.5" font-family="Helvetica,sans-Serif" font-size="10.00"> </text>
</a>
</g>
</g>
<!-- Node5&#45;&gt;Node4 -->
<g id="edge4" class="edge"><title>Node5&#45;&gt;Node4</title>
<path fill="none" stroke="#404040" d="M514.5,-728.317C514.5,-679.572 514.5,-595.937 514.5,-544.27"/>
<polygon fill="none" stroke="#404040" points="514.5,-544.179 510.5,-538.179 514.5,-532.179 518.5,-538.179 514.5,-544.179"/>
<text text-anchor="middle" x="522" y="-658" font-family="Helvetica,sans-Serif" font-size="10.00"> +a</text>
<text text-anchor="middle" x="522" y="-647" font-family="Helvetica,sans-Serif" font-size="10.00">+s</text>
<text text-anchor="middle" x="522" y="-636" font-family="Helvetica,sans-Serif" font-size="10.00">+v</text>
</g>
<!-- Node6 -->
<g id="node6" class="node"><title>Node6</title>
<g id="a_node6"><a xlink:href="structspherpos.html" target="_top" xlink:title="Spherical position structure. ">
<polygon fill="white" stroke="black" points="204.5,-464 204.5,-532 260.5,-532 260.5,-464 204.5,-464"/>
<text text-anchor="middle" x="232.5" y="-520" font-family="Helvetica,sans-Serif" font-size="10.00">spherpos</text>
<polyline fill="none" stroke="black" points="204.5,-513 260.5,-513 "/>
<text text-anchor="start" x="212.5" y="-501" font-family="Helvetica,sans-Serif" font-size="10.00">+ utc</text>
<text text-anchor="start" x="212.5" y="-490" font-family="Helvetica,sans-Serif" font-size="10.00">+ pass</text>
<polyline fill="none" stroke="black" points="204.5,-483 260.5,-483 "/>
<text text-anchor="middle" x="232.5" y="-471" font-family="Helvetica,sans-Serif" font-size="10.00"> </text>
</a>
</g>
</g>
<!-- Node6&#45;&gt;Node3 -->
<g id="edge5" class="edge"><title>Node6&#45;&gt;Node3</title>
<path fill="none" stroke="#404040" d="M227.266,-463.81C224.122,-432.338 224.307,-385.077 246.5,-352 264.582,-325.051 296.9,-308.041 324.663,-297.773"/>
<polygon fill="none" stroke="#404040" points="324.887,-297.696 329.251,-291.955 336.228,-293.776 331.864,-299.516 324.887,-297.696"/>
<text text-anchor="middle" x="262" y="-377" font-family="Helvetica,sans-Serif" font-size="10.00"> +geos</text>
</g>
<!-- Node7 -->
<g id="node7" class="node"><title>Node7</title>
<g id="a_node7"><a xlink:href="structsvector.html" target="_top" xlink:title="3 element spherical vector ">
<polygon fill="white" stroke="black" points="204,-728.5 204,-807.5 261,-807.5 261,-728.5 204,-728.5"/>
<text text-anchor="middle" x="232.5" y="-795.5" font-family="Helvetica,sans-Serif" font-size="10.00">svector</text>
<polyline fill="none" stroke="black" points="204,-788.5 261,-788.5 "/>
<text text-anchor="start" x="212" y="-776.5" font-family="Helvetica,sans-Serif" font-size="10.00">+ phi</text>
<text text-anchor="start" x="212" y="-765.5" font-family="Helvetica,sans-Serif" font-size="10.00">+ lambda</text>
<text text-anchor="start" x="212" y="-754.5" font-family="Helvetica,sans-Serif" font-size="10.00">+ r</text>
<polyline fill="none" stroke="black" points="204,-747.5 261,-747.5 "/>
<text text-anchor="middle" x="232.5" y="-735.5" font-family="Helvetica,sans-Serif" font-size="10.00"> </text>
</a>
</g>
</g>
<!-- Node7&#45;&gt;Node6 -->
<g id="edge6" class="edge"><title>Node7&#45;&gt;Node6</title>
<path fill="none" stroke="#404040" d="M232.5,-728.317C232.5,-679.572 232.5,-595.937 232.5,-544.27"/>
<polygon fill="none" stroke="#404040" points="232.5,-544.179 228.5,-538.179 232.5,-532.179 236.5,-538.179 232.5,-544.179"/>
<text text-anchor="middle" x="240" y="-658" font-family="Helvetica,sans-Serif" font-size="10.00"> +a</text>
<text text-anchor="middle" x="240" y="-647" font-family="Helvetica,sans-Serif" font-size="10.00">+s</text>
<text text-anchor="middle" x="240" y="-636" font-family="Helvetica,sans-Serif" font-size="10.00">+v</text>
</g>
<!-- Node8 -->
<g id="node8" class="node"><title>Node8</title>
<g id="a_node8"><a xlink:href="structcartpos.html" target="_top" xlink:title="Cartesian full position structure. ">
<polygon fill="white" stroke="black" points="346,-734 346,-802 395,-802 395,-734 346,-734"/>
<text text-anchor="middle" x="370.5" y="-790" font-family="Helvetica,sans-Serif" font-size="10.00">cartpos</text>
<polyline fill="none" stroke="black" points="346,-783 395,-783 "/>
<text text-anchor="start" x="354" y="-771" font-family="Helvetica,sans-Serif" font-size="10.00">+ utc</text>
<text text-anchor="start" x="354" y="-760" font-family="Helvetica,sans-Serif" font-size="10.00">+ pass</text>
<polyline fill="none" stroke="black" points="346,-753 395,-753 "/>
<text text-anchor="middle" x="370.5" y="-741" font-family="Helvetica,sans-Serif" font-size="10.00"> </text>
</a>
</g>
</g>
<!-- Node8&#45;&gt;Node3 -->
<g id="edge7" class="edge"><title>Node8&#45;&gt;Node3</title>
<path fill="none" stroke="#404040" d="M395.201,-749.373C407.074,-739.344 420.092,-725.665 426.5,-710 447.083,-659.68 425.951,-407.533 410.5,-352 409.833,-349.602 409.075,-347.19 408.245,-344.779"/>
<polygon fill="none" stroke="#404040" points="408.233,-344.75 402.332,-340.606 403.887,-333.565 409.788,-337.708 408.233,-344.75"/>
<text text-anchor="middle" x="447.5" y="-517.5" font-family="Helvetica,sans-Serif" font-size="10.00"> +selc</text>
<text text-anchor="middle" x="447.5" y="-506.5" font-family="Helvetica,sans-Serif" font-size="10.00">+icrf</text>
<text text-anchor="middle" x="447.5" y="-495.5" font-family="Helvetica,sans-Serif" font-size="10.00">+sci</text>
<text text-anchor="middle" x="447.5" y="-484.5" font-family="Helvetica,sans-Serif" font-size="10.00">+geoc</text>
<text text-anchor="middle" x="447.5" y="-473.5" font-family="Helvetica,sans-Serif" font-size="10.00">+eci</text>
</g>
<!-- Node10 -->
<g id="node10" class="node"><title>Node10</title>
<g id="a_node10"><a xlink:href="structextrapos.html" target="_top" xlink:title="Additional parameters relating to position that need only be calculated once. ">
<polygon fill="white" stroke="black" points="347,-425.5 347,-570.5 404,-570.5 404,-425.5 347,-425.5"/>
<text text-anchor="middle" x="375.5" y="-558.5" font-family="Helvetica,sans-Serif" font-size="10.00">extrapos</text>
<polyline fill="none" stroke="black" points="347,-551.5 404,-551.5 "/>
<text text-anchor="start" x="355" y="-539.5" font-family="Helvetica,sans-Serif" font-size="10.00">+ utc</text>
<text text-anchor="start" x="355" y="-528.5" font-family="Helvetica,sans-Serif" font-size="10.00">+ tt</text>
<text text-anchor="start" x="355" y="-517.5" font-family="Helvetica,sans-Serif" font-size="10.00">+ ut</text>
<text text-anchor="start" x="355" y="-506.5" font-family="Helvetica,sans-Serif" font-size="10.00">+ tdb</text>
<text text-anchor="start" x="355" y="-495.5" font-family="Helvetica,sans-Serif" font-size="10.00">+ j2e</text>
<text text-anchor="start" x="355" y="-484.5" font-family="Helvetica,sans-Serif" font-size="10.00">+ dj2e</text>
<text text-anchor="start" x="355" y="-473.5" font-family="Helvetica,sans-Serif" font-size="10.00">+ ddj2e</text>
<text text-anchor="start" x="355" y="-462.5" font-family="Helvetica,sans-Serif" font-size="10.00">+ de2j</text>
<text text-anchor="start" x="355" y="-451.5" font-family="Helvetica,sans-Serif" font-size="10.00">+ closest</text>
<polyline fill="none" stroke="black" points="347,-444.5 404,-444.5 "/>
<text text-anchor="middle" x="375.5" y="-432.5" font-family="Helvetica,sans-Serif" font-size="10.00"> </text>
</a>
</g>
</g>
<!-- Node8&#45;&gt;Node10 -->
<g id="edge10" class="edge"><title>Node8&#45;&gt;Node10</title>
<path fill="none" stroke="#404040" d="M370.302,-733.86C370.179,-698.109 370.236,-639.511 371.5,-589 371.551,-586.958 371.607,-584.889 371.668,-582.803"/>
<polygon fill="none" stroke="#404040" points="371.671,-582.708 367.869,-576.581 372.062,-570.714 375.864,-576.841 371.671,-582.708"/>
<text text-anchor="middle" x="399" y="-652.5" font-family="Helvetica,sans-Serif" font-size="10.00"> +sun2moon</text>
<text text-anchor="middle" x="399" y="-641.5" font-family="Helvetica,sans-Serif" font-size="10.00">+sun2earth</text>
</g>
<!-- Node9 -->
<g id="node9" class="node"><title>Node9</title>
<g id="a_node9"><a xlink:href="structrvector.html" target="_top" xlink:title="3 element generic row vector ">
<polygon fill="white" stroke="black" points="280,-916 280,-973 327,-973 327,-916 280,-916"/>
<text text-anchor="middle" x="303.5" y="-961" font-family="Helvetica,sans-Serif" font-size="10.00">rvector</text>
<polyline fill="none" stroke="black" points="280,-954 327,-954 "/>
<text text-anchor="start" x="288" y="-942" font-family="Helvetica,sans-Serif" font-size="10.00">+ col</text>
<polyline fill="none" stroke="black" points="280,-935 327,-935 "/>
<text text-anchor="middle" x="303.5" y="-923" font-family="Helvetica,sans-Serif" font-size="10.00"> </text>
</a>
</g>
</g>
<!-- Node9&#45;&gt;Node1 -->
<g id="edge21" class="edge"><title>Node9&#45;&gt;Node1</title>
<path fill="none" stroke="#404040" d="M327.194,-939.718C392.539,-927.804 570.5,-884.736 570.5,-769 570.5,-769 570.5,-769 570.5,-149.5 570.5,-103.203 522.914,-69.4454 488.698,-51.1571"/>
<polygon fill="none" stroke="#404040" points="488.388,-50.9991 481.226,-51.8398 477.696,-45.5522 484.857,-44.7114 488.388,-50.9991"/>
<text text-anchor="middle" x="580.5" y="-399" font-family="Helvetica,sans-Serif" font-size="10.00"> +s</text>
<text text-anchor="middle" x="580.5" y="-388" font-family="Helvetica,sans-Serif" font-size="10.00">+tau</text>
<text text-anchor="middle" x="580.5" y="-377" font-family="Helvetica,sans-Serif" font-size="10.00">+sa</text>
<text text-anchor="middle" x="580.5" y="-366" font-family="Helvetica,sans-Serif" font-size="10.00">+sb</text>
<text text-anchor="middle" x="580.5" y="-355" font-family="Helvetica,sans-Serif" font-size="10.00">+ss</text>
</g>
<!-- Node9&#45;&gt;Node2 -->
<g id="edge13" class="edge"><title>Node9&#45;&gt;Node2</title>
<path fill="none" stroke="#404040" d="M279.775,-930.974C236.577,-906.255 149.5,-846.781 149.5,-769 149.5,-769 149.5,-769 149.5,-282 149.5,-249.554 165.798,-216.881 182.071,-192.344"/>
<polygon fill="none" stroke="#404040" points="182.162,-192.213 182.292,-185.003 188.997,-182.35 188.867,-189.56 182.162,-192.213"/>
<text text-anchor="middle" x="168" y="-495.5" font-family="Helvetica,sans-Serif" font-size="10.00"> +bearth</text>
</g>
<!-- Node9&#45;&gt;Node8 -->
<g id="edge8" class="edge"><title>Node9&#45;&gt;Node8</title>
<path fill="none" stroke="#404040" d="M314.116,-915.85C324.665,-888.375 341.013,-845.797 353.395,-813.549"/>
<polygon fill="none" stroke="#404040" points="353.458,-813.385 351.875,-806.35 357.76,-802.182 359.343,-809.217 353.458,-813.385"/>
<text text-anchor="middle" x="355" y="-851" font-family="Helvetica,sans-Serif" font-size="10.00"> +a</text>
<text text-anchor="middle" x="355" y="-840" font-family="Helvetica,sans-Serif" font-size="10.00">+s</text>
<text text-anchor="middle" x="355" y="-829" font-family="Helvetica,sans-Serif" font-size="10.00">+v</text>
</g>
<!-- Node11 -->
<g id="node11" class="node"><title>Node11</title>
<g id="a_node11"><a xlink:href="structrmatrix.html" target="_top" xlink:title="3x3 element generic matrix ">
<polygon fill="white" stroke="black" points="280,-739.5 280,-796.5 327,-796.5 327,-739.5 280,-739.5"/>
<text text-anchor="middle" x="303.5" y="-784.5" font-family="Helvetica,sans-Serif" font-size="10.00">rmatrix</text>
<polyline fill="none" stroke="black" points="280,-777.5 327,-777.5 "/>
<text text-anchor="middle" x="303.5" y="-765.5" font-family="Helvetica,sans-Serif" font-size="10.00"> </text>
<polyline fill="none" stroke="black" points="280,-758.5 327,-758.5 "/>
<text text-anchor="middle" x="303.5" y="-746.5" font-family="Helvetica,sans-Serif" font-size="10.00"> </text>
</a>
</g>
</g>
<!-- Node9&#45;&gt;Node11 -->
<g id="edge12" class="edge"><title>Node9&#45;&gt;Node11</title>
<path fill="none" stroke="#404040" d="M303.5,-915.85C303.5,-887.004 303.5,-841.51 303.5,-808.802"/>
<polygon fill="none" stroke="#404040" points="303.5,-808.521 299.5,-802.521 303.5,-796.521 307.5,-802.521 303.5,-808.521"/>
<text text-anchor="middle" x="316" y="-840" font-family="Helvetica,sans-Serif" font-size="10.00"> +row</text>
</g>
<!-- Node13 -->
<g id="node13" class="node"><title>Node13</title>
<g id="a_node13"><a xlink:href="structqatt.html" target="_top" xlink:title="Quaternion Attitude. ">
<polygon fill="white" stroke="black" points="66,-464 66,-532 113,-532 113,-464 66,-464"/>
<text text-anchor="middle" x="89.5" y="-520" font-family="Helvetica,sans-Serif" font-size="10.00">qatt</text>
<polyline fill="none" stroke="black" points="66,-513 113,-513 "/>
<text text-anchor="start" x="74" y="-501" font-family="Helvetica,sans-Serif" font-size="10.00">+ utc</text>
<text text-anchor="start" x="74" y="-490" font-family="Helvetica,sans-Serif" font-size="10.00">+ pass</text>
<polyline fill="none" stroke="black" points="66,-483 113,-483 "/>
<text text-anchor="middle" x="89.5" y="-471" font-family="Helvetica,sans-Serif" font-size="10.00"> </text>
</a>
</g>
</g>
<!-- Node9&#45;&gt;Node13 -->
<g id="edge18" class="edge"><title>Node9&#45;&gt;Node13</title>
<path fill="none" stroke="#404040" d="M279.945,-938.075C243.559,-928.469 173.884,-904.998 135.5,-859 115.668,-835.234 99.1781,-635.835 92.585,-544.44"/>
<polygon fill="none" stroke="#404040" points="92.5723,-544.26 88.1568,-538.559 91.7211,-532.29 96.1366,-537.991 92.5723,-544.26"/>
<text text-anchor="middle" x="128" y="-771" font-family="Helvetica,sans-Serif" font-size="10.00"> +a</text>
<text text-anchor="middle" x="128" y="-760" font-family="Helvetica,sans-Serif" font-size="10.00">+v</text>
</g>
<!-- Node10&#45;&gt;Node3 -->
<g id="edge9" class="edge"><title>Node10&#45;&gt;Node3</title>
<path fill="none" stroke="#404040" d="M375.5,-425.482C375.5,-399.738 375.5,-370.926 375.5,-346.055"/>
<polygon fill="none" stroke="#404040" points="375.5,-345.82 371.5,-339.82 375.5,-333.82 379.5,-339.82 375.5,-345.82"/>
<text text-anchor="middle" x="391" y="-377" font-family="Helvetica,sans-Serif" font-size="10.00"> +extra</text>
</g>
<!-- Node11&#45;&gt;Node10 -->
<g id="edge11" class="edge"><title>Node11&#45;&gt;Node10</title>
<path fill="none" stroke="#404040" d="M306.654,-739.4C311.141,-704.012 320.634,-641.006 336.5,-589 338.287,-583.144 340.34,-577.158 342.552,-571.193"/>
<polygon fill="none" stroke="#404040" points="342.634,-570.98 341.071,-563.94 346.968,-559.79 348.531,-566.83 342.634,-570.98"/>
<text text-anchor="middle" x="351.5" y="-702" font-family="Helvetica,sans-Serif" font-size="10.00"> +t2s</text>
<text text-anchor="middle" x="351.5" y="-691" font-family="Helvetica,sans-Serif" font-size="10.00">+s2t</text>
<text text-anchor="middle" x="351.5" y="-680" font-family="Helvetica,sans-Serif" font-size="10.00">+dt2s</text>
<text text-anchor="middle" x="351.5" y="-669" font-family="Helvetica,sans-Serif" font-size="10.00">+ds2t</text>
<text text-anchor="middle" x="351.5" y="-658" font-family="Helvetica,sans-Serif" font-size="10.00">+s2j</text>
<text text-anchor="middle" x="351.5" y="-647" font-family="Helvetica,sans-Serif" font-size="10.00">+j2s</text>
<text text-anchor="middle" x="351.5" y="-636" font-family="Helvetica,sans-Serif" font-size="10.00">+t2j</text>
<text text-anchor="middle" x="351.5" y="-625" font-family="Helvetica,sans-Serif" font-size="10.00">+j2t</text>
<text text-anchor="middle" x="351.5" y="-614" font-family="Helvetica,sans-Serif" font-size="10.00">+dde2j</text>
<text text-anchor="middle" x="351.5" y="-603" font-family="Helvetica,sans-Serif" font-size="10.00">+e2j</text>
<text text-anchor="middle" x="351.5" y="-592" font-family="Helvetica,sans-Serif" font-size="10.00">...</text>
</g>
<!-- Node16 -->
<g id="node16" class="node"><title>Node16</title>
<g id="a_node16"><a xlink:href="structextraatt.html" target="_top" xlink:title="Additional parameters relating to position that need only be calculated once. ">
<polygon fill="white" stroke="black" points="278.5,-469.5 278.5,-526.5 328.5,-526.5 328.5,-469.5 278.5,-469.5"/>
<text text-anchor="middle" x="303.5" y="-514.5" font-family="Helvetica,sans-Serif" font-size="10.00">extraatt</text>
<polyline fill="none" stroke="black" points="278.5,-507.5 328.5,-507.5 "/>
<text text-anchor="start" x="286.5" y="-495.5" font-family="Helvetica,sans-Serif" font-size="10.00">+ utc</text>
<polyline fill="none" stroke="black" points="278.5,-488.5 328.5,-488.5 "/>
<text text-anchor="middle" x="303.5" y="-476.5" font-family="Helvetica,sans-Serif" font-size="10.00"> </text>
</a>
</g>
</g>
<!-- Node11&#45;&gt;Node16 -->
<g id="edge20" class="edge"><title>Node11&#45;&gt;Node16</title>
<path fill="none" stroke="#404040" d="M285.535,-739.381C280.636,-730.38 275.995,-720.096 273.5,-710 260.6,-657.792 264.886,-642.083 273.5,-589 276.275,-571.899 281.835,-553.657 287.422,-538.098"/>
<polygon fill="none" stroke="#404040" points="287.449,-538.026 285.805,-531.004 291.654,-526.787 293.298,-533.808 287.449,-538.026"/>
<text text-anchor="middle" x="284.5" y="-652.5" font-family="Helvetica,sans-Serif" font-size="10.00"> +b2j</text>
<text text-anchor="middle" x="284.5" y="-641.5" font-family="Helvetica,sans-Serif" font-size="10.00">+j2b</text>
</g>
<!-- Node12 -->
<g id="node12" class="node"><title>Node12</title>
<g id="a_node12"><a xlink:href="structattstruc.html" target="_top" xlink:title="{attstruc\n|+ utc\l|}">
<polygon fill="white" stroke="black" points="71.5,-254.5 71.5,-311.5 121.5,-311.5 121.5,-254.5 71.5,-254.5"/>
<text text-anchor="middle" x="96.5" y="-299.5" font-family="Helvetica,sans-Serif" font-size="10.00">attstruc</text>
<polyline fill="none" stroke="black" points="71.5,-292.5 121.5,-292.5 "/>
<text text-anchor="start" x="79.5" y="-280.5" font-family="Helvetica,sans-Serif" font-size="10.00">+ utc</text>
<polyline fill="none" stroke="black" points="71.5,-273.5 121.5,-273.5 "/>
<text text-anchor="middle" x="96.5" y="-261.5" font-family="Helvetica,sans-Serif" font-size="10.00"> </text>
</a>
</g>
</g>
<!-- Node12&#45;&gt;Node2 -->
<g id="edge14" class="edge"><title>Node12&#45;&gt;Node2</title>
<path fill="none" stroke="#404040" d="M97.1065,-254.304C98.7586,-237.907 103.207,-217.562 114.5,-203 130.151,-182.818 155.909,-169.816 177.363,-161.925"/>
<polygon fill="none" stroke="#404040" points="177.386,-161.917 181.779,-156.199 188.747,-158.054 184.355,-163.773 177.386,-161.917"/>
<text text-anchor="middle" x="125" y="-206" font-family="Helvetica,sans-Serif" font-size="10.00"> +att</text>
</g>
<!-- Node13&#45;&gt;Node12 -->
<g id="edge15" class="edge"><title>Node13&#45;&gt;Node12</title>
<path fill="none" stroke="#404040" d="M90.5938,-463.719C91.8386,-425.84 93.8706,-364.01 95.1965,-323.662"/>
<polygon fill="none" stroke="#404040" points="95.1978,-323.621 91.3971,-317.493 95.592,-311.628 99.3928,-317.756 95.1978,-323.621"/>
<text text-anchor="middle" x="108.5" y="-399" font-family="Helvetica,sans-Serif" font-size="10.00"> +selc</text>
<text text-anchor="middle" x="108.5" y="-388" font-family="Helvetica,sans-Serif" font-size="10.00">+topo</text>
<text text-anchor="middle" x="108.5" y="-377" font-family="Helvetica,sans-Serif" font-size="10.00">+icrf</text>
<text text-anchor="middle" x="108.5" y="-366" font-family="Helvetica,sans-Serif" font-size="10.00">+geoc</text>
<text text-anchor="middle" x="108.5" y="-355" font-family="Helvetica,sans-Serif" font-size="10.00">+lvlh</text>
</g>
<!-- Node14 -->
<g id="node14" class="node"><title>Node14</title>
<g id="a_node14"><a xlink:href="structquaternion.html" target="_top" xlink:title="Quaternion, scalar last, using x, y, z. ">
<polygon fill="white" stroke="black" points="8.5,-739.5 8.5,-796.5 70.5,-796.5 70.5,-739.5 8.5,-739.5"/>
<text text-anchor="middle" x="39.5" y="-784.5" font-family="Helvetica,sans-Serif" font-size="10.00">quaternion</text>
<polyline fill="none" stroke="black" points="8.5,-777.5 70.5,-777.5 "/>
<text text-anchor="start" x="16.5" y="-765.5" font-family="Helvetica,sans-Serif" font-size="10.00">+ w</text>
<polyline fill="none" stroke="black" points="8.5,-758.5 70.5,-758.5 "/>
<text text-anchor="middle" x="39.5" y="-746.5" font-family="Helvetica,sans-Serif" font-size="10.00"> </text>
</a>
</g>
</g>
<!-- Node14&#45;&gt;Node13 -->
<g id="edge16" class="edge"><title>Node14&#45;&gt;Node13</title>
<path fill="none" stroke="#404040" d="M44.6626,-739.329C53.2685,-693.201 70.6275,-600.156 81.0409,-544.341"/>
<polygon fill="none" stroke="#404040" points="81.0767,-544.148 78.245,-537.517 83.2776,-532.352 86.1093,-538.984 81.0767,-544.148"/>
<text text-anchor="middle" x="80" y="-647" font-family="Helvetica,sans-Serif" font-size="10.00"> +s</text>
</g>
<!-- Node15 -->
<g id="node15" class="node"><title>Node15</title>
<g id="a_node15"><a xlink:href="classcvector.html" target="_top" xlink:title="3 element cartesian vector ">
<polygon fill="white" stroke="black" points="0,-877.5 0,-1011.5 79,-1011.5 79,-877.5 0,-877.5"/>
<text text-anchor="middle" x="39.5" y="-999.5" font-family="Helvetica,sans-Serif" font-size="10.00">cvector</text>
<polyline fill="none" stroke="black" points="0,-992.5 79,-992.5 "/>
<text text-anchor="start" x="8" y="-980.5" font-family="Helvetica,sans-Serif" font-size="10.00">+ x</text>
<text text-anchor="start" x="8" y="-969.5" font-family="Helvetica,sans-Serif" font-size="10.00">+ y</text>
<text text-anchor="start" x="8" y="-958.5" font-family="Helvetica,sans-Serif" font-size="10.00">+ z</text>
<polyline fill="none" stroke="black" points="0,-951.5 79,-951.5 "/>
<text text-anchor="start" x="8" y="-939.5" font-family="Helvetica,sans-Serif" font-size="10.00">+ normalize()</text>
<text text-anchor="start" x="8" y="-928.5" font-family="Helvetica,sans-Serif" font-size="10.00">+ length()</text>
<text text-anchor="start" x="8" y="-917.5" font-family="Helvetica,sans-Serif" font-size="10.00">+ norm()</text>
<text text-anchor="start" x="8" y="-906.5" font-family="Helvetica,sans-Serif" font-size="10.00">+ norm2()</text>
<text text-anchor="start" x="8" y="-895.5" font-family="Helvetica,sans-Serif" font-size="10.00">+ normalized()</text>
<text text-anchor="start" x="8" y="-884.5" font-family="Helvetica,sans-Serif" font-size="10.00">+ operator[]()</text>
</a>
</g>
</g>
<!-- Node15&#45;&gt;Node14 -->
<g id="edge17" class="edge"><title>Node15&#45;&gt;Node14</title>
<path fill="none" stroke="#404040" d="M39.5,-877.031C39.5,-854.01 39.5,-828.938 39.5,-808.749"/>
<polygon fill="none" stroke="#404040" points="39.5001,-808.564 35.5,-802.564 39.5,-796.564 43.5,-802.564 39.5001,-808.564"/>
<text text-anchor="middle" x="47" y="-840" font-family="Helvetica,sans-Serif" font-size="10.00"> +d</text>
</g>
<!-- Node16&#45;&gt;Node12 -->
<g id="edge19" class="edge"><title>Node16&#45;&gt;Node12</title>
<path fill="none" stroke="#404040" d="M306.129,-469.367C307.616,-437.455 305.078,-385.114 277.5,-352 241.582,-308.871 175.37,-293.072 133.759,-287.301"/>
<polygon fill="none" stroke="#404040" points="133.605,-287.282 127.161,-290.518 121.696,-285.813 128.14,-282.578 133.605,-287.282"/>
<text text-anchor="middle" x="318" y="-377" font-family="Helvetica,sans-Serif" font-size="10.00"> +extra</text>
</g>
</g>
</svg>
