<?xml version="1.0" encoding="UTF-8" standalone="no"?>
<!DOCTYPE svg PUBLIC "-//W3C//DTD SVG 1.1//EN"
 "http://www.w3.org/Graphics/SVG/1.1/DTD/svg11.dtd">
<!-- Generated by graphviz version 2.38.0 (20140413.2041)
 -->
<!-- Title: jsonequation Pages: 1 -->
<svg width="88pt" height="331pt"
 viewBox="0.00 0.00 87.50 331.00" xmlns="http://www.w3.org/2000/svg" xmlns:xlink="http://www.w3.org/1999/xlink">
<g id="graph0" class="graph" transform="scale(1 1) rotate(0) translate(4 327)">
<title>jsonequation</title>
<polygon fill="white" stroke="none" points="-4,4 -4,-327 83.5,-327 83.5,4 -4,4"/>
<!-- Node1 -->
<g id="node1" class="node"><title>Node1</title>
<polygon fill="#bfbfbf" stroke="black" points="0,-0.5 0,-79.5 71,-79.5 71,-0.5 0,-0.5"/>
<text text-anchor="middle" x="35.5" y="-67.5" font-family="Helvetica,sans-Serif" font-size="10.00">jsonequation</text>
<polyline fill="none" stroke="black" points="0,-60.5 71,-60.5 "/>
<text text-anchor="start" x="8" y="-48.5" font-family="Helvetica,sans-Serif" font-size="10.00">+ text</text>
<text text-anchor="start" x="8" y="-37.5" font-family="Helvetica,sans-Serif" font-size="10.00">+ unit_index</text>
<text text-anchor="start" x="8" y="-26.5" font-family="Helvetica,sans-Serif" font-size="10.00">+ operation</text>
<polyline fill="none" stroke="black" points="0,-19.5 71,-19.5 "/>
<text text-anchor="middle" x="35.5" y="-7.5" font-family="Helvetica,sans-Serif" font-size="10.00"> </text>
</g>
<!-- Node2 -->
<g id="node2" class="node"><title>Node2</title>
<g id="a_node2"><a xlink:href="structjsonoperand.html" target="_top" xlink:title="JSON equation operand. ">
<polygon fill="white" stroke="black" points="1,-127.5 1,-206.5 70,-206.5 70,-127.5 1,-127.5"/>
<text text-anchor="middle" x="35.5" y="-194.5" font-family="Helvetica,sans-Serif" font-size="10.00">jsonoperand</text>
<polyline fill="none" stroke="black" points="1,-187.5 70,-187.5 "/>
<text text-anchor="start" x="9" y="-175.5" font-family="Helvetica,sans-Serif" font-size="10.00">+ type</text>
<text text-anchor="start" x="9" y="-164.5" font-family="Helvetica,sans-Serif" font-size="10.00">+ value</text>
<text text-anchor="start" x="9" y="-153.5" font-family="Helvetica,sans-Serif" font-size="10.00">+ @46</text>
<polyline fill="none" stroke="black" points="1,-146.5 70,-146.5 "/>
<text text-anchor="middle" x="35.5" y="-134.5" font-family="Helvetica,sans-Serif" font-size="10.00"> </text>
</a>
</g>
</g>
<!-- Node2&#45;&gt;Node1 -->
<g id="edge1" class="edge"><title>Node2&#45;&gt;Node1</title>
<path fill="none" stroke="#404040" d="M35.5,-127.476C35.5,-116.189 35.5,-103.672 35.5,-91.7479"/>
<polygon fill="none" stroke="#404040" points="35.5001,-91.6121 31.5,-85.6121 35.5,-79.6121 39.5,-85.612 35.5001,-91.6121"/>
<text text-anchor="middle" x="57.5" y="-101" font-family="Helvetica,sans-Serif" font-size="10.00"> +operand</text>
</g>
<!-- Node3 -->
<g id="node3" class="node"><title>Node3</title>
<g id="a_node3"><a xlink:href="structjsonhandle.html" target="_top" xlink:title="JSON handle. ">
<polygon fill="white" stroke="black" points="4,-254.5 4,-322.5 67,-322.5 67,-254.5 4,-254.5"/>
<text text-anchor="middle" x="35.5" y="-310.5" font-family="Helvetica,sans-Serif" font-size="10.00">jsonhandle</text>
<polyline fill="none" stroke="black" points="4,-303.5 67,-303.5 "/>
<text text-anchor="start" x="12" y="-291.5" font-family="Helvetica,sans-Serif" font-size="10.00">+ hash</text>
<text text-anchor="start" x="12" y="-280.5" font-family="Helvetica,sans-Serif" font-size="10.00">+ index</text>
<polyline fill="none" stroke="black" points="4,-273.5 67,-273.5 "/>
<text text-anchor="middle" x="35.5" y="-261.5" font-family="Helvetica,sans-Serif" font-size="10.00"> </text>
</a>
</g>
</g>
<!-- Node3&#45;&gt;Node2 -->
<g id="edge2" class="edge"><title>Node3&#45;&gt;Node2</title>
<path fill="none" stroke="#404040" d="M35.5,-254.213C35.5,-243.244 35.5,-230.784 35.5,-218.814"/>
<polygon fill="none" stroke="#404040" points="35.5001,-218.6 31.5,-212.6 35.5,-206.6 39.5,-212.6 35.5001,-218.6"/>
<text text-anchor="middle" x="49.5" y="-228" font-family="Helvetica,sans-Serif" font-size="10.00"> +data</text>
</g>
</g>
</svg>
