<?xml version="1.0" encoding="UTF-8" standalone="no"?>
<!DOCTYPE svg PUBLIC "-//W3C//DTD SVG 1.1//EN"
 "http://www.w3.org/Graphics/SVG/1.1/DTD/svg11.dtd">
<!-- Generated by graphviz version 2.38.0 (20140413.2041)
 -->
<!-- Title: cmatrix Pages: 1 -->
<svg width="87pt" height="270pt"
 viewBox="0.00 0.00 87.00 270.00" xmlns="http://www.w3.org/2000/svg" xmlns:xlink="http://www.w3.org/1999/xlink">
<g id="graph0" class="graph" transform="scale(1 1) rotate(0) translate(4 266)">
<title>cmatrix</title>
<polygon fill="white" stroke="none" points="-4,4 -4,-266 83,-266 83,4 -4,4"/>
<!-- Node1 -->
<g id="node1" class="node"><title>Node1</title>
<polygon fill="#bfbfbf" stroke="black" points="15,-0.5 15,-57.5 64,-57.5 64,-0.5 15,-0.5"/>
<text text-anchor="middle" x="39.5" y="-45.5" font-family="Helvetica,sans-Serif" font-size="10.00">cmatrix</text>
<polyline fill="none" stroke="black" points="15,-38.5 64,-38.5 "/>
<text text-anchor="middle" x="39.5" y="-26.5" font-family="Helvetica,sans-Serif" font-size="10.00"> </text>
<polyline fill="none" stroke="black" points="15,-19.5 64,-19.5 "/>
<text text-anchor="middle" x="39.5" y="-7.5" font-family="Helvetica,sans-Serif" font-size="10.00"> </text>
</g>
<!-- Node2 -->
<g id="node2" class="node"><title>Node2</title>
<g id="a_node2"><a xlink:href="classcvector.html" target="_top" xlink:title="3 element cartesian vector ">
<polygon fill="white" stroke="black" points="-7.10543e-15,-127.5 -7.10543e-15,-261.5 79,-261.5 79,-127.5 -7.10543e-15,-127.5"/>
<text text-anchor="middle" x="39.5" y="-249.5" font-family="Helvetica,sans-Serif" font-size="10.00">cvector</text>
<polyline fill="none" stroke="black" points="-7.10543e-15,-242.5 79,-242.5 "/>
<text text-anchor="start" x="8" y="-230.5" font-family="Helvetica,sans-Serif" font-size="10.00">+ x</text>
<text text-anchor="start" x="8" y="-219.5" font-family="Helvetica,sans-Serif" font-size="10.00">+ y</text>
<text text-anchor="start" x="8" y="-208.5" font-family="Helvetica,sans-Serif" font-size="10.00">+ z</text>
<polyline fill="none" stroke="black" points="-7.10543e-15,-201.5 79,-201.5 "/>
<text text-anchor="start" x="8" y="-189.5" font-family="Helvetica,sans-Serif" font-size="10.00">+ normalize()</text>
<text text-anchor="start" x="8" y="-178.5" font-family="Helvetica,sans-Serif" font-size="10.00">+ length()</text>
<text text-anchor="start" x="8" y="-167.5" font-family="Helvetica,sans-Serif" font-size="10.00">+ norm()</text>
<text text-anchor="start" x="8" y="-156.5" font-family="Helvetica,sans-Serif" font-size="10.00">+ norm2()</text>
<text text-anchor="start" x="8" y="-145.5" font-family="Helvetica,sans-Serif" font-size="10.00">+ normalized()</text>
<text text-anchor="start" x="8" y="-134.5" font-family="Helvetica,sans-Serif" font-size="10.00">+ operator[]()</text>
</a>
</g>
</g>
<!-- Node2&#45;&gt;Node1 -->
<g id="edge1" class="edge"><title>Node2&#45;&gt;Node1</title>
<path fill="none" stroke="#404040" d="M39.5,-127.47C39.5,-108.023 39.5,-87.3441 39.5,-70.0598"/>
<polygon fill="none" stroke="#404040" points="39.5001,-69.8615 35.5,-63.8615 39.5,-57.8615 43.5,-63.8614 39.5001,-69.8615"/>
<text text-anchor="middle" x="48.5" y="-101" font-family="Helvetica,sans-Serif" font-size="10.00"> +r1</text>
<text text-anchor="middle" x="48.5" y="-90" font-family="Helvetica,sans-Serif" font-size="10.00">+r2</text>
<text text-anchor="middle" x="48.5" y="-79" font-family="Helvetica,sans-Serif" font-size="10.00">+r3</text>
</g>
</g>
</svg>
