<?xml version="1.0" encoding="UTF-8" standalone="no"?>
<!DOCTYPE svg PUBLIC "-//W3C//DTD SVG 1.1//EN"
 "http://www.w3.org/Graphics/SVG/1.1/DTD/svg11.dtd">
<!-- Generated by graphviz version 2.38.0 (20140413.2041)
 -->
<!-- Title: locstruc Pages: 1 -->
<svg width="547pt" height="904pt"
 viewBox="0.00 0.00 546.50 904.00" xmlns="http://www.w3.org/2000/svg" xmlns:xlink="http://www.w3.org/1999/xlink">
<g id="graph0" class="graph" transform="scale(1 1) rotate(0) translate(4 900)">
<title>locstruc</title>
<polygon fill="white" stroke="none" points="-4,4 -4,-900 542.5,-900 542.5,4 -4,4"/>
<!-- Node1 -->
<g id="node1" class="node"><title>Node1</title>
<polygon fill="#bfbfbf" stroke="black" points="321.5,-0.5 321.5,-68.5 372.5,-68.5 372.5,-0.5 321.5,-0.5"/>
<text text-anchor="middle" x="347" y="-56.5" font-family="Helvetica,sans-Serif" font-size="10.00">locstruc</text>
<polyline fill="none" stroke="black" points="321.5,-49.5 372.5,-49.5 "/>
<text text-anchor="start" x="329.5" y="-37.5" font-family="Helvetica,sans-Serif" font-size="10.00">+ utc</text>
<text text-anchor="start" x="329.5" y="-26.5" font-family="Helvetica,sans-Serif" font-size="10.00">+ orbit</text>
<polyline fill="none" stroke="black" points="321.5,-19.5 372.5,-19.5 "/>
<text text-anchor="middle" x="347" y="-7.5" font-family="Helvetica,sans-Serif" font-size="10.00"> </text>
</g>
<!-- Node2 -->
<g id="node2" class="node"><title>Node2</title>
<g id="a_node2"><a xlink:href="structposstruc.html" target="_top" xlink:title="{posstruc\n|+ utc\l+ earthsep\l+ moonsep\l+ sunsize\l+ sunradiance\l|}">
<polygon fill="white" stroke="black" points="127,-116.5 127,-217.5 205,-217.5 205,-116.5 127,-116.5"/>
<text text-anchor="middle" x="166" y="-205.5" font-family="Helvetica,sans-Serif" font-size="10.00">posstruc</text>
<polyline fill="none" stroke="black" points="127,-198.5 205,-198.5 "/>
<text text-anchor="start" x="135" y="-186.5" font-family="Helvetica,sans-Serif" font-size="10.00">+ utc</text>
<text text-anchor="start" x="135" y="-175.5" font-family="Helvetica,sans-Serif" font-size="10.00">+ earthsep</text>
<text text-anchor="start" x="135" y="-164.5" font-family="Helvetica,sans-Serif" font-size="10.00">+ moonsep</text>
<text text-anchor="start" x="135" y="-153.5" font-family="Helvetica,sans-Serif" font-size="10.00">+ sunsize</text>
<text text-anchor="start" x="135" y="-142.5" font-family="Helvetica,sans-Serif" font-size="10.00">+ sunradiance</text>
<polyline fill="none" stroke="black" points="127,-135.5 205,-135.5 "/>
<text text-anchor="middle" x="166" y="-123.5" font-family="Helvetica,sans-Serif" font-size="10.00"> </text>
</a>
</g>
</g>
<!-- Node2&#45;&gt;Node1 -->
<g id="edge1" class="edge"><title>Node2&#45;&gt;Node1</title>
<path fill="none" stroke="#404040" d="M205.274,-137.683C236.941,-114.852 281.084,-83.0247 311.655,-60.9835"/>
<polygon fill="none" stroke="#404040" points="311.731,-60.929 314.258,-54.1754 321.464,-53.911 318.937,-60.6646 311.731,-60.929"/>
<text text-anchor="middle" x="285.5" y="-90" font-family="Helvetica,sans-Serif" font-size="10.00"> +pos</text>
</g>
<!-- Node3 -->
<g id="node3" class="node"><title>Node3</title>
<g id="a_node3"><a xlink:href="structgeoidpos.html" target="_top" xlink:title="Geodetic position structure. ">
<polygon fill="white" stroke="black" points="0,-348 0,-416 56,-416 56,-348 0,-348"/>
<text text-anchor="middle" x="28" y="-404" font-family="Helvetica,sans-Serif" font-size="10.00">geoidpos</text>
<polyline fill="none" stroke="black" points="0,-397 56,-397 "/>
<text text-anchor="start" x="8" y="-385" font-family="Helvetica,sans-Serif" font-size="10.00">+ utc</text>
<text text-anchor="start" x="8" y="-374" font-family="Helvetica,sans-Serif" font-size="10.00">+ pass</text>
<polyline fill="none" stroke="black" points="0,-367 56,-367 "/>
<text text-anchor="middle" x="28" y="-355" font-family="Helvetica,sans-Serif" font-size="10.00"> </text>
</a>
</g>
</g>
<!-- Node3&#45;&gt;Node2 -->
<g id="edge2" class="edge"><title>Node3&#45;&gt;Node2</title>
<path fill="none" stroke="#404040" d="M33.1045,-347.9C39.1925,-316.711 51.7524,-269.842 76,-236 86.7501,-220.996 101.784,-207.823 116.49,-197.166"/>
<polygon fill="none" stroke="#404040" points="116.693,-197.026 119.351,-190.323 126.561,-190.199 123.903,-196.902 116.693,-197.026"/>
<text text-anchor="middle" x="90" y="-266.5" font-family="Helvetica,sans-Serif" font-size="10.00"> +selg</text>
<text text-anchor="middle" x="90" y="-255.5" font-family="Helvetica,sans-Serif" font-size="10.00">+geod</text>
</g>
<!-- Node4 -->
<g id="node4" class="node"><title>Node4</title>
<g id="a_node4"><a xlink:href="structgvector.html" target="_top" xlink:title="3 element geodetic vector ">
<polygon fill="white" stroke="black" points="3.5,-612.5 3.5,-691.5 52.5,-691.5 52.5,-612.5 3.5,-612.5"/>
<text text-anchor="middle" x="28" y="-679.5" font-family="Helvetica,sans-Serif" font-size="10.00">gvector</text>
<polyline fill="none" stroke="black" points="3.5,-672.5 52.5,-672.5 "/>
<text text-anchor="start" x="11.5" y="-660.5" font-family="Helvetica,sans-Serif" font-size="10.00">+ lat</text>
<text text-anchor="start" x="11.5" y="-649.5" font-family="Helvetica,sans-Serif" font-size="10.00">+ lon</text>
<text text-anchor="start" x="11.5" y="-638.5" font-family="Helvetica,sans-Serif" font-size="10.00">+ h</text>
<polyline fill="none" stroke="black" points="3.5,-631.5 52.5,-631.5 "/>
<text text-anchor="middle" x="28" y="-619.5" font-family="Helvetica,sans-Serif" font-size="10.00"> </text>
</a>
</g>
</g>
<!-- Node4&#45;&gt;Node3 -->
<g id="edge3" class="edge"><title>Node4&#45;&gt;Node3</title>
<path fill="none" stroke="#404040" d="M28,-612.317C28,-563.572 28,-479.937 28,-428.27"/>
<polygon fill="none" stroke="#404040" points="28.0001,-428.179 24,-422.179 28,-416.179 32,-422.179 28.0001,-428.179"/>
<text text-anchor="middle" x="35.5" y="-542" font-family="Helvetica,sans-Serif" font-size="10.00"> +a</text>
<text text-anchor="middle" x="35.5" y="-531" font-family="Helvetica,sans-Serif" font-size="10.00">+s</text>
<text text-anchor="middle" x="35.5" y="-520" font-family="Helvetica,sans-Serif" font-size="10.00">+v</text>
</g>
<!-- Node5 -->
<g id="node5" class="node"><title>Node5</title>
<g id="a_node5"><a xlink:href="structspherpos.html" target="_top" xlink:title="Spherical position structure. ">
<polygon fill="white" stroke="black" points="74,-348 74,-416 130,-416 130,-348 74,-348"/>
<text text-anchor="middle" x="102" y="-404" font-family="Helvetica,sans-Serif" font-size="10.00">spherpos</text>
<polyline fill="none" stroke="black" points="74,-397 130,-397 "/>
<text text-anchor="start" x="82" y="-385" font-family="Helvetica,sans-Serif" font-size="10.00">+ utc</text>
<text text-anchor="start" x="82" y="-374" font-family="Helvetica,sans-Serif" font-size="10.00">+ pass</text>
<polyline fill="none" stroke="black" points="74,-367 130,-367 "/>
<text text-anchor="middle" x="102" y="-355" font-family="Helvetica,sans-Serif" font-size="10.00"> </text>
</a>
</g>
</g>
<!-- Node5&#45;&gt;Node2 -->
<g id="edge4" class="edge"><title>Node5&#45;&gt;Node2</title>
<path fill="none" stroke="#404040" d="M102.13,-347.73C103.223,-317.66 107.32,-272.627 121,-236 121.946,-233.468 123.001,-230.935 124.143,-228.416"/>
<polygon fill="none" stroke="#404040" points="124.244,-228.216 123.375,-221.058 129.648,-217.502 130.518,-224.661 124.244,-228.216"/>
<text text-anchor="middle" x="136.5" y="-261" font-family="Helvetica,sans-Serif" font-size="10.00"> +geos</text>
</g>
<!-- Node6 -->
<g id="node6" class="node"><title>Node6</title>
<g id="a_node6"><a xlink:href="structsvector.html" target="_top" xlink:title="3 element spherical vector ">
<polygon fill="white" stroke="black" points="73.5,-612.5 73.5,-691.5 130.5,-691.5 130.5,-612.5 73.5,-612.5"/>
<text text-anchor="middle" x="102" y="-679.5" font-family="Helvetica,sans-Serif" font-size="10.00">svector</text>
<polyline fill="none" stroke="black" points="73.5,-672.5 130.5,-672.5 "/>
<text text-anchor="start" x="81.5" y="-660.5" font-family="Helvetica,sans-Serif" font-size="10.00">+ phi</text>
<text text-anchor="start" x="81.5" y="-649.5" font-family="Helvetica,sans-Serif" font-size="10.00">+ lambda</text>
<text text-anchor="start" x="81.5" y="-638.5" font-family="Helvetica,sans-Serif" font-size="10.00">+ r</text>
<polyline fill="none" stroke="black" points="73.5,-631.5 130.5,-631.5 "/>
<text text-anchor="middle" x="102" y="-619.5" font-family="Helvetica,sans-Serif" font-size="10.00"> </text>
</a>
</g>
</g>
<!-- Node6&#45;&gt;Node5 -->
<g id="edge5" class="edge"><title>Node6&#45;&gt;Node5</title>
<path fill="none" stroke="#404040" d="M102,-612.317C102,-563.572 102,-479.937 102,-428.27"/>
<polygon fill="none" stroke="#404040" points="102,-428.179 98,-422.179 102,-416.179 106,-422.179 102,-428.179"/>
<text text-anchor="middle" x="109.5" y="-542" font-family="Helvetica,sans-Serif" font-size="10.00"> +a</text>
<text text-anchor="middle" x="109.5" y="-531" font-family="Helvetica,sans-Serif" font-size="10.00">+s</text>
<text text-anchor="middle" x="109.5" y="-520" font-family="Helvetica,sans-Serif" font-size="10.00">+v</text>
</g>
<!-- Node7 -->
<g id="node7" class="node"><title>Node7</title>
<g id="a_node7"><a xlink:href="structcartpos.html" target="_top" xlink:title="Cartesian full position structure. ">
<polygon fill="white" stroke="black" points="174.5,-618 174.5,-686 223.5,-686 223.5,-618 174.5,-618"/>
<text text-anchor="middle" x="199" y="-674" font-family="Helvetica,sans-Serif" font-size="10.00">cartpos</text>
<polyline fill="none" stroke="black" points="174.5,-667 223.5,-667 "/>
<text text-anchor="start" x="182.5" y="-655" font-family="Helvetica,sans-Serif" font-size="10.00">+ utc</text>
<text text-anchor="start" x="182.5" y="-644" font-family="Helvetica,sans-Serif" font-size="10.00">+ pass</text>
<polyline fill="none" stroke="black" points="174.5,-637 223.5,-637 "/>
<text text-anchor="middle" x="199" y="-625" font-family="Helvetica,sans-Serif" font-size="10.00"> </text>
</a>
</g>
</g>
<!-- Node7&#45;&gt;Node2 -->
<g id="edge6" class="edge"><title>Node7&#45;&gt;Node2</title>
<path fill="none" stroke="#404040" d="M192.772,-617.91C191.417,-610.087 190.07,-601.763 189,-594 171.251,-465.281 167.027,-312.924 166.126,-229.775"/>
<polygon fill="none" stroke="#404040" points="166.126,-229.774 162.071,-223.812 166.014,-217.775 170.07,-223.737 166.126,-229.774"/>
<text text-anchor="middle" x="189" y="-401.5" font-family="Helvetica,sans-Serif" font-size="10.00"> +selc</text>
<text text-anchor="middle" x="189" y="-390.5" font-family="Helvetica,sans-Serif" font-size="10.00">+icrf</text>
<text text-anchor="middle" x="189" y="-379.5" font-family="Helvetica,sans-Serif" font-size="10.00">+sci</text>
<text text-anchor="middle" x="189" y="-368.5" font-family="Helvetica,sans-Serif" font-size="10.00">+geoc</text>
<text text-anchor="middle" x="189" y="-357.5" font-family="Helvetica,sans-Serif" font-size="10.00">+eci</text>
</g>
<!-- Node9 -->
<g id="node9" class="node"><title>Node9</title>
<g id="a_node9"><a xlink:href="structextrapos.html" target="_top" xlink:title="Additional parameters relating to position that need only be calculated once. ">
<polygon fill="white" stroke="black" points="212.5,-309.5 212.5,-454.5 269.5,-454.5 269.5,-309.5 212.5,-309.5"/>
<text text-anchor="middle" x="241" y="-442.5" font-family="Helvetica,sans-Serif" font-size="10.00">extrapos</text>
<polyline fill="none" stroke="black" points="212.5,-435.5 269.5,-435.5 "/>
<text text-anchor="start" x="220.5" y="-423.5" font-family="Helvetica,sans-Serif" font-size="10.00">+ utc</text>
<text text-anchor="start" x="220.5" y="-412.5" font-family="Helvetica,sans-Serif" font-size="10.00">+ tt</text>
<text text-anchor="start" x="220.5" y="-401.5" font-family="Helvetica,sans-Serif" font-size="10.00">+ ut</text>
<text text-anchor="start" x="220.5" y="-390.5" font-family="Helvetica,sans-Serif" font-size="10.00">+ tdb</text>
<text text-anchor="start" x="220.5" y="-379.5" font-family="Helvetica,sans-Serif" font-size="10.00">+ j2e</text>
<text text-anchor="start" x="220.5" y="-368.5" font-family="Helvetica,sans-Serif" font-size="10.00">+ dj2e</text>
<text text-anchor="start" x="220.5" y="-357.5" font-family="Helvetica,sans-Serif" font-size="10.00">+ ddj2e</text>
<text text-anchor="start" x="220.5" y="-346.5" font-family="Helvetica,sans-Serif" font-size="10.00">+ de2j</text>
<text text-anchor="start" x="220.5" y="-335.5" font-family="Helvetica,sans-Serif" font-size="10.00">+ closest</text>
<polyline fill="none" stroke="black" points="212.5,-328.5 269.5,-328.5 "/>
<text text-anchor="middle" x="241" y="-316.5" font-family="Helvetica,sans-Serif" font-size="10.00"> </text>
</a>
</g>
</g>
<!-- Node7&#45;&gt;Node9 -->
<g id="edge9" class="edge"><title>Node7&#45;&gt;Node9</title>
<path fill="none" stroke="#404040" d="M195.076,-617.735C191.763,-581.628 189.111,-522.498 200,-473 201.877,-464.469 204.627,-455.774 207.829,-447.317"/>
<polygon fill="none" stroke="#404040" points="207.921,-447.09 206.473,-440.026 212.436,-435.971 213.885,-443.035 207.921,-447.09"/>
<text text-anchor="middle" x="227.5" y="-536.5" font-family="Helvetica,sans-Serif" font-size="10.00"> +sun2moon</text>
<text text-anchor="middle" x="227.5" y="-525.5" font-family="Helvetica,sans-Serif" font-size="10.00">+sun2earth</text>
</g>
<!-- Node8 -->
<g id="node8" class="node"><title>Node8</title>
<g id="a_node8"><a xlink:href="structrvector.html" target="_top" xlink:title="3 element generic row vector ">
<polygon fill="white" stroke="black" points="331.5,-800 331.5,-857 378.5,-857 378.5,-800 331.5,-800"/>
<text text-anchor="middle" x="355" y="-845" font-family="Helvetica,sans-Serif" font-size="10.00">rvector</text>
<polyline fill="none" stroke="black" points="331.5,-838 378.5,-838 "/>
<text text-anchor="start" x="339.5" y="-826" font-family="Helvetica,sans-Serif" font-size="10.00">+ col</text>
<polyline fill="none" stroke="black" points="331.5,-819 378.5,-819 "/>
<text text-anchor="middle" x="355" y="-807" font-family="Helvetica,sans-Serif" font-size="10.00"> </text>
</a>
</g>
</g>
<!-- Node8&#45;&gt;Node1 -->
<g id="edge12" class="edge"><title>Node8&#45;&gt;Node1</title>
<path fill="none" stroke="#404040" d="M378.227,-799.886C403.394,-767.072 440,-709.613 440,-653 440,-653 440,-653 440,-166 440,-124.44 408.332,-86.9456 381.954,-62.9244"/>
<polygon fill="none" stroke="#404040" points="381.936,-62.9082 374.786,-61.9667 372.906,-55.0051 380.055,-55.9466 381.936,-62.9082"/>
<text text-anchor="middle" x="458.5" y="-379.5" font-family="Helvetica,sans-Serif" font-size="10.00"> +bearth</text>
</g>
<!-- Node8&#45;&gt;Node7 -->
<g id="edge7" class="edge"><title>Node8&#45;&gt;Node7</title>
<path fill="none" stroke="#404040" d="M331.307,-800.997C304.739,-771.279 261.485,-722.895 231.707,-689.586"/>
<polygon fill="none" stroke="#404040" points="231.688,-689.565 224.707,-687.758 223.69,-680.618 230.671,-682.426 231.688,-689.565"/>
<text text-anchor="middle" x="284.5" y="-735" font-family="Helvetica,sans-Serif" font-size="10.00"> +a</text>
<text text-anchor="middle" x="284.5" y="-724" font-family="Helvetica,sans-Serif" font-size="10.00">+s</text>
<text text-anchor="middle" x="284.5" y="-713" font-family="Helvetica,sans-Serif" font-size="10.00">+v</text>
</g>
<!-- Node10 -->
<g id="node10" class="node"><title>Node10</title>
<g id="a_node10"><a xlink:href="structrmatrix.html" target="_top" xlink:title="3x3 element generic matrix ">
<polygon fill="white" stroke="black" points="296.5,-623.5 296.5,-680.5 343.5,-680.5 343.5,-623.5 296.5,-623.5"/>
<text text-anchor="middle" x="320" y="-668.5" font-family="Helvetica,sans-Serif" font-size="10.00">rmatrix</text>
<polyline fill="none" stroke="black" points="296.5,-661.5 343.5,-661.5 "/>
<text text-anchor="middle" x="320" y="-649.5" font-family="Helvetica,sans-Serif" font-size="10.00"> </text>
<polyline fill="none" stroke="black" points="296.5,-642.5 343.5,-642.5 "/>
<text text-anchor="middle" x="320" y="-630.5" font-family="Helvetica,sans-Serif" font-size="10.00"> </text>
</a>
</g>
</g>
<!-- Node8&#45;&gt;Node10 -->
<g id="edge11" class="edge"><title>Node8&#45;&gt;Node10</title>
<path fill="none" stroke="#404040" d="M349.454,-799.85C343.643,-770.877 334.463,-725.107 327.896,-692.368"/>
<polygon fill="none" stroke="#404040" points="327.88,-692.286 322.778,-687.19 325.52,-680.521 330.622,-685.617 327.88,-692.286"/>
<text text-anchor="middle" x="350.5" y="-724" font-family="Helvetica,sans-Serif" font-size="10.00"> +row</text>
</g>
<!-- Node12 -->
<g id="node12" class="node"><title>Node12</title>
<g id="a_node12"><a xlink:href="structqatt.html" target="_top" xlink:title="Quaternion Attitude. ">
<polygon fill="white" stroke="black" points="356.5,-348 356.5,-416 403.5,-416 403.5,-348 356.5,-348"/>
<text text-anchor="middle" x="380" y="-404" font-family="Helvetica,sans-Serif" font-size="10.00">qatt</text>
<polyline fill="none" stroke="black" points="356.5,-397 403.5,-397 "/>
<text text-anchor="start" x="364.5" y="-385" font-family="Helvetica,sans-Serif" font-size="10.00">+ utc</text>
<text text-anchor="start" x="364.5" y="-374" font-family="Helvetica,sans-Serif" font-size="10.00">+ pass</text>
<polyline fill="none" stroke="black" points="356.5,-367 403.5,-367 "/>
<text text-anchor="middle" x="380" y="-355" font-family="Helvetica,sans-Serif" font-size="10.00"> </text>
</a>
</g>
</g>
<!-- Node8&#45;&gt;Node12 -->
<g id="edge17" class="edge"><title>Node8&#45;&gt;Node12</title>
<path fill="none" stroke="#404040" d="M359.251,-799.786C361.615,-783.324 364.396,-762.017 366,-743 375.508,-630.287 378.569,-497.168 379.547,-428.721"/>
<polygon fill="none" stroke="#404040" points="379.552,-428.314 375.632,-422.262 379.711,-416.315 383.632,-422.368 379.552,-428.314"/>
<text text-anchor="middle" x="381.5" y="-655" font-family="Helvetica,sans-Serif" font-size="10.00"> +a</text>
<text text-anchor="middle" x="381.5" y="-644" font-family="Helvetica,sans-Serif" font-size="10.00">+v</text>
</g>
<!-- Node9&#45;&gt;Node2 -->
<g id="edge8" class="edge"><title>Node9&#45;&gt;Node2</title>
<path fill="none" stroke="#404040" d="M215.817,-309.482C206.67,-283.502 196.422,-254.399 187.611,-229.374"/>
<polygon fill="none" stroke="#404040" points="187.528,-229.139 181.762,-224.808 183.542,-217.82 189.308,-222.151 187.528,-229.139"/>
<text text-anchor="middle" x="223.5" y="-261" font-family="Helvetica,sans-Serif" font-size="10.00"> +extra</text>
</g>
<!-- Node10&#45;&gt;Node9 -->
<g id="edge10" class="edge"><title>Node10&#45;&gt;Node9</title>
<path fill="none" stroke="#404040" d="M298.317,-623.254C292.237,-614.328 286.16,-604.12 282,-594 277.046,-581.947 265.291,-520.226 255.632,-466.628"/>
<polygon fill="none" stroke="#404040" points="255.599,-466.443 250.603,-461.244 253.481,-454.632 258.477,-459.831 255.599,-466.443"/>
<text text-anchor="middle" x="297" y="-586" font-family="Helvetica,sans-Serif" font-size="10.00"> +t2s</text>
<text text-anchor="middle" x="297" y="-575" font-family="Helvetica,sans-Serif" font-size="10.00">+s2t</text>
<text text-anchor="middle" x="297" y="-564" font-family="Helvetica,sans-Serif" font-size="10.00">+dt2s</text>
<text text-anchor="middle" x="297" y="-553" font-family="Helvetica,sans-Serif" font-size="10.00">+ds2t</text>
<text text-anchor="middle" x="297" y="-542" font-family="Helvetica,sans-Serif" font-size="10.00">+s2j</text>
<text text-anchor="middle" x="297" y="-531" font-family="Helvetica,sans-Serif" font-size="10.00">+j2s</text>
<text text-anchor="middle" x="297" y="-520" font-family="Helvetica,sans-Serif" font-size="10.00">+t2j</text>
<text text-anchor="middle" x="297" y="-509" font-family="Helvetica,sans-Serif" font-size="10.00">+j2t</text>
<text text-anchor="middle" x="297" y="-498" font-family="Helvetica,sans-Serif" font-size="10.00">+dde2j</text>
<text text-anchor="middle" x="297" y="-487" font-family="Helvetica,sans-Serif" font-size="10.00">+e2j</text>
<text text-anchor="middle" x="297" y="-476" font-family="Helvetica,sans-Serif" font-size="10.00">...</text>
</g>
<!-- Node15 -->
<g id="node15" class="node"><title>Node15</title>
<g id="a_node15"><a xlink:href="structextraatt.html" target="_top" xlink:title="Additional parameters relating to position that need only be calculated once. ">
<polygon fill="white" stroke="black" points="288,-353.5 288,-410.5 338,-410.5 338,-353.5 288,-353.5"/>
<text text-anchor="middle" x="313" y="-398.5" font-family="Helvetica,sans-Serif" font-size="10.00">extraatt</text>
<polyline fill="none" stroke="black" points="288,-391.5 338,-391.5 "/>
<text text-anchor="start" x="296" y="-379.5" font-family="Helvetica,sans-Serif" font-size="10.00">+ utc</text>
<polyline fill="none" stroke="black" points="288,-372.5 338,-372.5 "/>
<text text-anchor="middle" x="313" y="-360.5" font-family="Helvetica,sans-Serif" font-size="10.00"> </text>
</a>
</g>
</g>
<!-- Node10&#45;&gt;Node15 -->
<g id="edge19" class="edge"><title>Node10&#45;&gt;Node15</title>
<path fill="none" stroke="#404040" d="M319.277,-623.329C318.03,-575.561 315.468,-477.481 314.033,-422.532"/>
<polygon fill="none" stroke="#404040" points="314.032,-422.517 309.877,-416.623 313.719,-410.521 317.874,-416.414 314.032,-422.517"/>
<text text-anchor="middle" x="330" y="-536.5" font-family="Helvetica,sans-Serif" font-size="10.00"> +b2j</text>
<text text-anchor="middle" x="330" y="-525.5" font-family="Helvetica,sans-Serif" font-size="10.00">+j2b</text>
</g>
<!-- Node11 -->
<g id="node11" class="node"><title>Node11</title>
<g id="a_node11"><a xlink:href="structattstruc.html" target="_top" xlink:title="{attstruc\n|+ utc\l|}">
<polygon fill="white" stroke="black" points="322,-138.5 322,-195.5 372,-195.5 372,-138.5 322,-138.5"/>
<text text-anchor="middle" x="347" y="-183.5" font-family="Helvetica,sans-Serif" font-size="10.00">attstruc</text>
<polyline fill="none" stroke="black" points="322,-176.5 372,-176.5 "/>
<text text-anchor="start" x="330" y="-164.5" font-family="Helvetica,sans-Serif" font-size="10.00">+ utc</text>
<polyline fill="none" stroke="black" points="322,-157.5 372,-157.5 "/>
<text text-anchor="middle" x="347" y="-145.5" font-family="Helvetica,sans-Serif" font-size="10.00"> </text>
</a>
</g>
</g>
<!-- Node11&#45;&gt;Node1 -->
<g id="edge13" class="edge"><title>Node11&#45;&gt;Node1</title>
<path fill="none" stroke="#404040" d="M347,-138.324C347,-121.63 347,-99.9589 347,-80.8185"/>
<polygon fill="none" stroke="#404040" points="347,-80.6838 343,-74.6838 347,-68.6838 351,-74.6838 347,-80.6838"/>
<text text-anchor="middle" x="357.5" y="-90" font-family="Helvetica,sans-Serif" font-size="10.00"> +att</text>
</g>
<!-- Node12&#45;&gt;Node11 -->
<g id="edge14" class="edge"><title>Node12&#45;&gt;Node11</title>
<path fill="none" stroke="#404040" d="M374.844,-347.719C368.975,-309.84 359.396,-248.01 353.145,-207.662"/>
<polygon fill="none" stroke="#404040" points="353.118,-207.486 348.246,-202.169 351.28,-195.628 356.152,-200.944 353.118,-207.486"/>
<text text-anchor="middle" x="380" y="-283" font-family="Helvetica,sans-Serif" font-size="10.00"> +selc</text>
<text text-anchor="middle" x="380" y="-272" font-family="Helvetica,sans-Serif" font-size="10.00">+topo</text>
<text text-anchor="middle" x="380" y="-261" font-family="Helvetica,sans-Serif" font-size="10.00">+icrf</text>
<text text-anchor="middle" x="380" y="-250" font-family="Helvetica,sans-Serif" font-size="10.00">+geoc</text>
<text text-anchor="middle" x="380" y="-239" font-family="Helvetica,sans-Serif" font-size="10.00">+lvlh</text>
</g>
<!-- Node13 -->
<g id="node13" class="node"><title>Node13</title>
<g id="a_node13"><a xlink:href="structquaternion.html" target="_top" xlink:title="Quaternion, scalar last, using x, y, z. ">
<polygon fill="white" stroke="black" points="468,-623.5 468,-680.5 530,-680.5 530,-623.5 468,-623.5"/>
<text text-anchor="middle" x="499" y="-668.5" font-family="Helvetica,sans-Serif" font-size="10.00">quaternion</text>
<polyline fill="none" stroke="black" points="468,-661.5 530,-661.5 "/>
<text text-anchor="start" x="476" y="-649.5" font-family="Helvetica,sans-Serif" font-size="10.00">+ w</text>
<polyline fill="none" stroke="black" points="468,-642.5 530,-642.5 "/>
<text text-anchor="middle" x="499" y="-630.5" font-family="Helvetica,sans-Serif" font-size="10.00"> </text>
</a>
</g>
</g>
<!-- Node13&#45;&gt;Node12 -->
<g id="edge15" class="edge"><title>Node13&#45;&gt;Node12</title>
<path fill="none" stroke="#404040" d="M486.713,-623.329C466.145,-577.007 424.569,-483.374 399.821,-427.639"/>
<polygon fill="none" stroke="#404040" points="399.679,-427.319 393.588,-423.459 394.809,-416.352 400.9,-420.212 399.679,-427.319"/>
<text text-anchor="middle" x="481.5" y="-531" font-family="Helvetica,sans-Serif" font-size="10.00"> +s</text>
</g>
<!-- Node14 -->
<g id="node14" class="node"><title>Node14</title>
<g id="a_node14"><a xlink:href="classcvector.html" target="_top" xlink:title="3 element cartesian vector ">
<polygon fill="white" stroke="black" points="459.5,-761.5 459.5,-895.5 538.5,-895.5 538.5,-761.5 459.5,-761.5"/>
<text text-anchor="middle" x="499" y="-883.5" font-family="Helvetica,sans-Serif" font-size="10.00">cvector</text>
<polyline fill="none" stroke="black" points="459.5,-876.5 538.5,-876.5 "/>
<text text-anchor="start" x="467.5" y="-864.5" font-family="Helvetica,sans-Serif" font-size="10.00">+ x</text>
<text text-anchor="start" x="467.5" y="-853.5" font-family="Helvetica,sans-Serif" font-size="10.00">+ y</text>
<text text-anchor="start" x="467.5" y="-842.5" font-family="Helvetica,sans-Serif" font-size="10.00">+ z</text>
<polyline fill="none" stroke="black" points="459.5,-835.5 538.5,-835.5 "/>
<text text-anchor="start" x="467.5" y="-823.5" font-family="Helvetica,sans-Serif" font-size="10.00">+ normalize()</text>
<text text-anchor="start" x="467.5" y="-812.5" font-family="Helvetica,sans-Serif" font-size="10.00">+ length()</text>
<text text-anchor="start" x="467.5" y="-801.5" font-family="Helvetica,sans-Serif" font-size="10.00">+ norm()</text>
<text text-anchor="start" x="467.5" y="-790.5" font-family="Helvetica,sans-Serif" font-size="10.00">+ norm2()</text>
<text text-anchor="start" x="467.5" y="-779.5" font-family="Helvetica,sans-Serif" font-size="10.00">+ normalized()</text>
<text text-anchor="start" x="467.5" y="-768.5" font-family="Helvetica,sans-Serif" font-size="10.00">+ operator[]()</text>
</a>
</g>
</g>
<!-- Node14&#45;&gt;Node13 -->
<g id="edge16" class="edge"><title>Node14&#45;&gt;Node13</title>
<path fill="none" stroke="#404040" d="M499,-761.031C499,-738.01 499,-712.938 499,-692.749"/>
<polygon fill="none" stroke="#404040" points="499,-692.564 495,-686.564 499,-680.564 503,-686.564 499,-692.564"/>
<text text-anchor="middle" x="506.5" y="-724" font-family="Helvetica,sans-Serif" font-size="10.00"> +d</text>
</g>
<!-- Node15&#45;&gt;Node11 -->
<g id="edge18" class="edge"><title>Node15&#45;&gt;Node11</title>
<path fill="none" stroke="#404040" d="M312.7,-353.442C312.89,-324.048 314.664,-276.277 323,-236 324.98,-226.432 327.984,-216.377 331.202,-207.023"/>
<polygon fill="none" stroke="#404040" points="331.241,-206.917 329.527,-199.912 335.334,-195.637 337.047,-202.641 331.241,-206.917"/>
<text text-anchor="middle" x="338.5" y="-261" font-family="Helvetica,sans-Serif" font-size="10.00"> +extra</text>
</g>
</g>
</svg>
