<?xml version="1.0" encoding="UTF-8" standalone="no"?>
<!DOCTYPE svg PUBLIC "-//W3C//DTD SVG 1.1//EN"
 "http://www.w3.org/Graphics/SVG/1.1/DTD/svg11.dtd">
<!-- Generated by graphviz version 2.38.0 (20140413.2041)
 -->
<!-- Title: Cosmos::Support::Json::Member Pages: 1 -->
<svg width="271pt" height="353pt"
 viewBox="0.00 0.00 270.50 353.00" xmlns="http://www.w3.org/2000/svg" xmlns:xlink="http://www.w3.org/1999/xlink">
<g id="graph0" class="graph" transform="scale(1 1) rotate(0) translate(4 349)">
<title>Cosmos::Support::Json::Member</title>
<polygon fill="white" stroke="none" points="-4,4 -4,-349 266.5,-349 266.5,4 -4,4"/>
<!-- Node1 -->
<g id="node1" class="node"><title>Node1</title>
<polygon fill="#bfbfbf" stroke="black" points="79,-0.5 79,-68.5 199,-68.5 199,-0.5 79,-0.5"/>
<text text-anchor="start" x="87" y="-56.5" font-family="Helvetica,sans-Serif" font-size="10.00">Cosmos::Support::Json</text>
<text text-anchor="middle" x="139" y="-45.5" font-family="Helvetica,sans-Serif" font-size="10.00">::Member</text>
<polyline fill="none" stroke="black" points="79,-38.5 199,-38.5 "/>
<text text-anchor="middle" x="139" y="-26.5" font-family="Helvetica,sans-Serif" font-size="10.00"> </text>
<polyline fill="none" stroke="black" points="79,-19.5 199,-19.5 "/>
<text text-anchor="middle" x="139" y="-7.5" font-family="Helvetica,sans-Serif" font-size="10.00"> </text>
</g>
<!-- Node2 -->
<g id="node2" class="node"><title>Node2</title>
<g id="a_node2"><a xlink:href="struct_cosmos_1_1_support_1_1_json_1_1_value.html" target="_top" xlink:title="{Cosmos::Support::Json\l::Value\n|+ type\l+ nvalue\l+ begin\l+ end\l|}">
<polygon fill="white" stroke="black" points="0,-116.5 0,-217.5 120,-217.5 120,-116.5 0,-116.5"/>
<text text-anchor="start" x="8" y="-205.5" font-family="Helvetica,sans-Serif" font-size="10.00">Cosmos::Support::Json</text>
<text text-anchor="middle" x="60" y="-194.5" font-family="Helvetica,sans-Serif" font-size="10.00">::Value</text>
<polyline fill="none" stroke="black" points="0,-187.5 120,-187.5 "/>
<text text-anchor="start" x="8" y="-175.5" font-family="Helvetica,sans-Serif" font-size="10.00">+ type</text>
<text text-anchor="start" x="8" y="-164.5" font-family="Helvetica,sans-Serif" font-size="10.00">+ nvalue</text>
<text text-anchor="start" x="8" y="-153.5" font-family="Helvetica,sans-Serif" font-size="10.00">+ begin</text>
<text text-anchor="start" x="8" y="-142.5" font-family="Helvetica,sans-Serif" font-size="10.00">+ end</text>
<polyline fill="none" stroke="black" points="0,-135.5 120,-135.5 "/>
<text text-anchor="middle" x="60" y="-123.5" font-family="Helvetica,sans-Serif" font-size="10.00"> </text>
</a>
</g>
</g>
<!-- Node2&#45;&gt;Node1 -->
<g id="edge1" class="edge"><title>Node2&#45;&gt;Node1</title>
<path fill="none" stroke="#404040" d="M90.0919,-116.291C97.5032,-104.048 105.384,-91.0306 112.605,-79.1015"/>
<polygon fill="none" stroke="#404040" points="112.805,-78.7713 112.49,-71.5671 119.02,-68.5058 119.334,-75.71 112.805,-78.7713"/>
<text text-anchor="middle" x="123.5" y="-90" font-family="Helvetica,sans-Serif" font-size="10.00"> +value</text>
</g>
<!-- Node3 -->
<g id="node3" class="node"><title>Node3</title>
<polygon fill="white" stroke="#bfbfbf" points="39.5,-282 39.5,-339 80.5,-339 80.5,-282 39.5,-282"/>
<text text-anchor="middle" x="60" y="-327" font-family="Helvetica,sans-Serif" font-size="10.00">string</text>
<polyline fill="none" stroke="#bfbfbf" points="39.5,-320 80.5,-320 "/>
<text text-anchor="middle" x="60" y="-308" font-family="Helvetica,sans-Serif" font-size="10.00"> </text>
<polyline fill="none" stroke="#bfbfbf" points="39.5,-301 80.5,-301 "/>
<text text-anchor="middle" x="60" y="-289" font-family="Helvetica,sans-Serif" font-size="10.00"> </text>
</g>
<!-- Node3&#45;&gt;Node2 -->
<g id="edge2" class="edge"><title>Node3&#45;&gt;Node2</title>
<path fill="none" stroke="#404040" d="M60,-281.881C60,-266.976 60,-247.941 60,-229.718"/>
<polygon fill="none" stroke="#404040" points="60.0001,-229.604 56,-223.604 60,-217.604 64,-223.604 60.0001,-229.604"/>
<text text-anchor="middle" x="77.5" y="-250" font-family="Helvetica,sans-Serif" font-size="10.00"> +name</text>
<text text-anchor="middle" x="77.5" y="-239" font-family="Helvetica,sans-Serif" font-size="10.00">+svalue</text>
</g>
<!-- Node4 -->
<g id="node4" class="node"><title>Node4</title>
<g id="a_node4"><a xlink:href="struct_cosmos_1_1_support_1_1_json_1_1_object.html" target="_top" xlink:title="{Cosmos::Support::Json\l::Object\n||}">
<polygon fill="white" stroke="black" points="138,-133 138,-201 258,-201 258,-133 138,-133"/>
<text text-anchor="start" x="146" y="-189" font-family="Helvetica,sans-Serif" font-size="10.00">Cosmos::Support::Json</text>
<text text-anchor="middle" x="198" y="-178" font-family="Helvetica,sans-Serif" font-size="10.00">::Object</text>
<polyline fill="none" stroke="black" points="138,-171 258,-171 "/>
<text text-anchor="middle" x="198" y="-159" font-family="Helvetica,sans-Serif" font-size="10.00"> </text>
<polyline fill="none" stroke="black" points="138,-152 258,-152 "/>
<text text-anchor="middle" x="198" y="-140" font-family="Helvetica,sans-Serif" font-size="10.00"> </text>
</a>
</g>
</g>
<!-- Node4&#45;&gt;Node1 -->
<g id="edge3" class="edge"><title>Node4&#45;&gt;Node1</title>
<path fill="none" stroke="#404040" d="M182.959,-132.732C175.678,-116.626 166.834,-97.0658 158.994,-79.7244"/>
<polygon fill="none" stroke="#404040" points="158.957,-79.642 152.84,-75.8226 154.013,-68.7076 160.13,-72.5269 158.957,-79.642"/>
<text text-anchor="middle" x="184" y="-90" font-family="Helvetica,sans-Serif" font-size="10.00"> +object</text>
</g>
<!-- Node5 -->
<g id="node5" class="node"><title>Node5</title>
<polygon fill="white" stroke="#bfbfbf" points="133.5,-276.5 133.5,-344.5 262.5,-344.5 262.5,-276.5 133.5,-276.5"/>
<text text-anchor="start" x="141.5" y="-332.5" font-family="Helvetica,sans-Serif" font-size="10.00">vector&lt; Cosmos::Support</text>
<text text-anchor="middle" x="198" y="-321.5" font-family="Helvetica,sans-Serif" font-size="10.00">::Json::Member &gt;</text>
<polyline fill="none" stroke="#bfbfbf" points="133.5,-314.5 262.5,-314.5 "/>
<text text-anchor="middle" x="198" y="-302.5" font-family="Helvetica,sans-Serif" font-size="10.00"> </text>
<polyline fill="none" stroke="#bfbfbf" points="133.5,-295.5 262.5,-295.5 "/>
<text text-anchor="middle" x="198" y="-283.5" font-family="Helvetica,sans-Serif" font-size="10.00"> </text>
</g>
<!-- Node5&#45;&gt;Node4 -->
<g id="edge4" class="edge"><title>Node5&#45;&gt;Node4</title>
<path fill="none" stroke="#404040" d="M198,-276.325C198,-257.654 198,-234.066 198,-213.671"/>
<polygon fill="none" stroke="#404040" points="198,-213.458 194,-207.458 198,-201.458 202,-207.458 198,-213.458"/>
<text text-anchor="middle" x="223" y="-244.5" font-family="Helvetica,sans-Serif" font-size="10.00"> +members</text>
</g>
</g>
</svg>
