<?xml version="1.0" encoding="UTF-8" standalone="no"?>
<!DOCTYPE svg PUBLIC "-//W3C//DTD SVG 1.1//EN"
 "http://www.w3.org/Graphics/SVG/1.1/DTD/svg11.dtd">
<!-- Generated by graphviz version 2.38.0 (20140413.2041)
 -->
<!-- Title: aliasstruc Pages: 1 -->
<svg width="130pt" height="182pt"
 viewBox="0.00 0.00 130.00 182.00" xmlns="http://www.w3.org/2000/svg" xmlns:xlink="http://www.w3.org/1999/xlink">
<g id="graph0" class="graph" transform="scale(1 1) rotate(0) translate(4 178)">
<title>aliasstruc</title>
<polygon fill="white" stroke="none" points="-4,4 -4,-178 126,-178 126,4 -4,4"/>
<!-- Node1 -->
<g id="node1" class="node"><title>Node1</title>
<polygon fill="#bfbfbf" stroke="black" points="37,-0.5 37,-57.5 96,-57.5 96,-0.5 37,-0.5"/>
<text text-anchor="middle" x="66.5" y="-45.5" font-family="Helvetica,sans-Serif" font-size="10.00">aliasstruc</text>
<polyline fill="none" stroke="black" points="37,-38.5 96,-38.5 "/>
<text text-anchor="start" x="45" y="-26.5" font-family="Helvetica,sans-Serif" font-size="10.00">+ type</text>
<polyline fill="none" stroke="black" points="37,-19.5 96,-19.5 "/>
<text text-anchor="middle" x="66.5" y="-7.5" font-family="Helvetica,sans-Serif" font-size="10.00"> </text>
</g>
<!-- Node2 -->
<g id="node2" class="node"><title>Node2</title>
<g id="a_node2"><a xlink:href="structjsonhandle.html" target="_top" xlink:title="JSON handle. ">
<polygon fill="white" stroke="black" points="0,-105.5 0,-173.5 63,-173.5 63,-105.5 0,-105.5"/>
<text text-anchor="middle" x="31.5" y="-161.5" font-family="Helvetica,sans-Serif" font-size="10.00">jsonhandle</text>
<polyline fill="none" stroke="black" points="0,-154.5 63,-154.5 "/>
<text text-anchor="start" x="8" y="-142.5" font-family="Helvetica,sans-Serif" font-size="10.00">+ hash</text>
<text text-anchor="start" x="8" y="-131.5" font-family="Helvetica,sans-Serif" font-size="10.00">+ index</text>
<polyline fill="none" stroke="black" points="0,-124.5 63,-124.5 "/>
<text text-anchor="middle" x="31.5" y="-112.5" font-family="Helvetica,sans-Serif" font-size="10.00"> </text>
</a>
</g>
</g>
<!-- Node2&#45;&gt;Node1 -->
<g id="edge1" class="edge"><title>Node2&#45;&gt;Node1</title>
<path fill="none" stroke="#404040" d="M34.6894,-105.229C36.1779,-95.6326 38.3472,-85.2578 41.5,-76 42.3571,-73.4833 43.3447,-70.9412 44.4218,-68.4123"/>
<polygon fill="none" stroke="#404040" points="44.442,-68.3695 43.4027,-61.2337 49.5899,-57.5298 50.6292,-64.6656 44.442,-68.3695"/>
<text text-anchor="middle" x="60.5" y="-79" font-family="Helvetica,sans-Serif" font-size="10.00"> +handle</text>
</g>
<!-- Node3 -->
<g id="node3" class="node"><title>Node3</title>
<polygon fill="white" stroke="#bfbfbf" points="81,-111 81,-168 122,-168 122,-111 81,-111"/>
<text text-anchor="middle" x="101.5" y="-156" font-family="Helvetica,sans-Serif" font-size="10.00">string</text>
<polyline fill="none" stroke="#bfbfbf" points="81,-149 122,-149 "/>
<text text-anchor="middle" x="101.5" y="-137" font-family="Helvetica,sans-Serif" font-size="10.00"> </text>
<polyline fill="none" stroke="#bfbfbf" points="81,-130 122,-130 "/>
<text text-anchor="middle" x="101.5" y="-118" font-family="Helvetica,sans-Serif" font-size="10.00"> </text>
</g>
<!-- Node3&#45;&gt;Node1 -->
<g id="edge2" class="edge"><title>Node3&#45;&gt;Node1</title>
<path fill="none" stroke="#404040" d="M92.5775,-110.84C88.5047,-98.2145 83.6084,-83.0361 79.1638,-69.2578"/>
<polygon fill="none" stroke="#404040" points="79.0903,-69.0299 73.4415,-64.5476 75.4062,-57.6094 81.0551,-62.0916 79.0903,-69.0299"/>
<text text-anchor="middle" x="100.5" y="-79" font-family="Helvetica,sans-Serif" font-size="10.00"> +name</text>
</g>
</g>
</svg>
