<?xml version="1.0" encoding="UTF-8" standalone="no"?>
<!DOCTYPE svg PUBLIC "-//W3C//DTD SVG 1.1//EN"
 "http://www.w3.org/Graphics/SVG/1.1/DTD/svg11.dtd">
<!-- Generated by graphviz version 2.38.0 (20140413.2041)
 -->
<!-- Title: stkstruc Pages: 1 -->
<svg width="67pt" height="425pt"
 viewBox="0.00 0.00 67.00 425.00" xmlns="http://www.w3.org/2000/svg" xmlns:xlink="http://www.w3.org/1999/xlink">
<g id="graph0" class="graph" transform="scale(1 1) rotate(0) translate(4 421)">
<title>stkstruc</title>
<polygon fill="white" stroke="none" points="-4,4 -4,-421 63,-421 63,4 -4,4"/>
<!-- Node1 -->
<g id="node1" class="node"><title>Node1</title>
<polygon fill="#bfbfbf" stroke="black" points="3.5,-0.5 3.5,-68.5 55.5,-68.5 55.5,-0.5 3.5,-0.5"/>
<text text-anchor="middle" x="29.5" y="-56.5" font-family="Helvetica,sans-Serif" font-size="10.00">stkstruc</text>
<polyline fill="none" stroke="black" points="3.5,-49.5 55.5,-49.5 "/>
<text text-anchor="start" x="11.5" y="-37.5" font-family="Helvetica,sans-Serif" font-size="10.00">+ count</text>
<text text-anchor="start" x="11.5" y="-26.5" font-family="Helvetica,sans-Serif" font-size="10.00">+ dt</text>
<polyline fill="none" stroke="black" points="3.5,-19.5 55.5,-19.5 "/>
<text text-anchor="middle" x="29.5" y="-7.5" font-family="Helvetica,sans-Serif" font-size="10.00"> </text>
</g>
<!-- Node2 -->
<g id="node2" class="node"><title>Node2</title>
<g id="a_node2"><a xlink:href="structcposstruc.html" target="_top" xlink:title="Cartesian position with time. ">
<polygon fill="white" stroke="black" points="0,-116.5 0,-173.5 59,-173.5 59,-116.5 0,-116.5"/>
<text text-anchor="middle" x="29.5" y="-161.5" font-family="Helvetica,sans-Serif" font-size="10.00">cposstruc</text>
<polyline fill="none" stroke="black" points="0,-154.5 59,-154.5 "/>
<text text-anchor="start" x="8" y="-142.5" font-family="Helvetica,sans-Serif" font-size="10.00">+ utc</text>
<polyline fill="none" stroke="black" points="0,-135.5 59,-135.5 "/>
<text text-anchor="middle" x="29.5" y="-123.5" font-family="Helvetica,sans-Serif" font-size="10.00"> </text>
</a>
</g>
</g>
<!-- Node2&#45;&gt;Node1 -->
<g id="edge1" class="edge"><title>Node2&#45;&gt;Node1</title>
<path fill="none" stroke="#404040" d="M29.5,-116.34C29.5,-105.529 29.5,-92.847 29.5,-80.7745"/>
<polygon fill="none" stroke="#404040" points="29.5001,-80.5186 25.5,-74.5186 29.5,-68.5186 33.5,-74.5185 29.5001,-80.5186"/>
<text text-anchor="middle" x="42" y="-90" font-family="Helvetica,sans-Serif" font-size="10.00"> +pos</text>
</g>
<!-- Node3 -->
<g id="node3" class="node"><title>Node3</title>
<g id="a_node3"><a xlink:href="structcartpos.html" target="_top" xlink:title="Cartesian full position structure. ">
<polygon fill="white" stroke="black" points="5,-221.5 5,-289.5 54,-289.5 54,-221.5 5,-221.5"/>
<text text-anchor="middle" x="29.5" y="-277.5" font-family="Helvetica,sans-Serif" font-size="10.00">cartpos</text>
<polyline fill="none" stroke="black" points="5,-270.5 54,-270.5 "/>
<text text-anchor="start" x="13" y="-258.5" font-family="Helvetica,sans-Serif" font-size="10.00">+ utc</text>
<text text-anchor="start" x="13" y="-247.5" font-family="Helvetica,sans-Serif" font-size="10.00">+ pass</text>
<polyline fill="none" stroke="black" points="5,-240.5 54,-240.5 "/>
<text text-anchor="middle" x="29.5" y="-228.5" font-family="Helvetica,sans-Serif" font-size="10.00"> </text>
</a>
</g>
</g>
<!-- Node3&#45;&gt;Node2 -->
<g id="edge2" class="edge"><title>Node3&#45;&gt;Node2</title>
<path fill="none" stroke="#404040" d="M29.5,-221.357C29.5,-210.19 29.5,-197.609 29.5,-185.972"/>
<polygon fill="none" stroke="#404040" points="29.5001,-185.827 25.5,-179.827 29.5,-173.827 33.5,-179.827 29.5001,-185.827"/>
<text text-anchor="middle" x="42" y="-195" font-family="Helvetica,sans-Serif" font-size="10.00"> +pos</text>
</g>
<!-- Node4 -->
<g id="node4" class="node"><title>Node4</title>
<g id="a_node4"><a xlink:href="structrvector.html" target="_top" xlink:title="3 element generic row vector ">
<polygon fill="white" stroke="black" points="6,-359.5 6,-416.5 53,-416.5 53,-359.5 6,-359.5"/>
<text text-anchor="middle" x="29.5" y="-404.5" font-family="Helvetica,sans-Serif" font-size="10.00">rvector</text>
<polyline fill="none" stroke="black" points="6,-397.5 53,-397.5 "/>
<text text-anchor="start" x="14" y="-385.5" font-family="Helvetica,sans-Serif" font-size="10.00">+ col</text>
<polyline fill="none" stroke="black" points="6,-378.5 53,-378.5 "/>
<text text-anchor="middle" x="29.5" y="-366.5" font-family="Helvetica,sans-Serif" font-size="10.00"> </text>
</a>
</g>
</g>
<!-- Node4&#45;&gt;Node3 -->
<g id="edge3" class="edge"><title>Node4&#45;&gt;Node3</title>
<path fill="none" stroke="#404040" d="M29.5,-359.324C29.5,-342.63 29.5,-320.959 29.5,-301.818"/>
<polygon fill="none" stroke="#404040" points="29.5001,-301.684 25.5,-295.684 29.5,-289.684 33.5,-295.684 29.5001,-301.684"/>
<text text-anchor="middle" x="37" y="-333" font-family="Helvetica,sans-Serif" font-size="10.00"> +a</text>
<text text-anchor="middle" x="37" y="-322" font-family="Helvetica,sans-Serif" font-size="10.00">+s</text>
<text text-anchor="middle" x="37" y="-311" font-family="Helvetica,sans-Serif" font-size="10.00">+v</text>
</g>
</g>
</svg>
