<?xml version="1.0" encoding="UTF-8" standalone="no"?>
<!DOCTYPE svg PUBLIC "-//W3C//DTD SVG 1.1//EN"
 "http://www.w3.org/Graphics/SVG/1.1/DTD/svg11.dtd">
<!-- Generated by graphviz version 2.38.0 (20140413.2041)
 -->
<!-- Title: imustruc Pages: 1 -->
<svg width="295pt" height="507pt"
 viewBox="0.00 0.00 294.50 507.00" xmlns="http://www.w3.org/2000/svg" xmlns:xlink="http://www.w3.org/1999/xlink">
<g id="graph0" class="graph" transform="scale(1 1) rotate(0) translate(4 503)">
<title>imustruc</title>
<polygon fill="white" stroke="none" points="-4,4 -4,-503 290.5,-503 290.5,4 -4,4"/>
<!-- Node1 -->
<g id="node1" class="node"><title>Node1</title>
<polygon fill="#bfbfbf" stroke="black" points="143,-0.5 143,-57.5 197,-57.5 197,-0.5 143,-0.5"/>
<text text-anchor="middle" x="170" y="-45.5" font-family="Helvetica,sans-Serif" font-size="10.00">imustruc</text>
<polyline fill="none" stroke="black" points="143,-38.5 197,-38.5 "/>
<text text-anchor="middle" x="170" y="-26.5" font-family="Helvetica,sans-Serif" font-size="10.00"> </text>
<polyline fill="none" stroke="black" points="143,-19.5 197,-19.5 "/>
<text text-anchor="middle" x="170" y="-7.5" font-family="Helvetica,sans-Serif" font-size="10.00"> </text>
</g>
<!-- Node2 -->
<g id="node2" class="node"><title>Node2</title>
<g id="a_node2"><a xlink:href="structallstruc.html" target="_top" xlink:title="All Component structure. ">
<polygon fill="white" stroke="black" points="0,-149.5 0,-316.5 74,-316.5 74,-149.5 0,-149.5"/>
<text text-anchor="middle" x="37" y="-304.5" font-family="Helvetica,sans-Serif" font-size="10.00">allstruc</text>
<polyline fill="none" stroke="black" points="0,-297.5 74,-297.5 "/>
<text text-anchor="start" x="8" y="-285.5" font-family="Helvetica,sans-Serif" font-size="10.00">+ enabled</text>
<text text-anchor="start" x="8" y="-274.5" font-family="Helvetica,sans-Serif" font-size="10.00">+ type</text>
<text text-anchor="start" x="8" y="-263.5" font-family="Helvetica,sans-Serif" font-size="10.00">+ model</text>
<text text-anchor="start" x="8" y="-252.5" font-family="Helvetica,sans-Serif" font-size="10.00">+ flag</text>
<text text-anchor="start" x="8" y="-241.5" font-family="Helvetica,sans-Serif" font-size="10.00">+ addr</text>
<text text-anchor="start" x="8" y="-230.5" font-family="Helvetica,sans-Serif" font-size="10.00">+ cidx</text>
<text text-anchor="start" x="8" y="-219.5" font-family="Helvetica,sans-Serif" font-size="10.00">+ didx</text>
<text text-anchor="start" x="8" y="-208.5" font-family="Helvetica,sans-Serif" font-size="10.00">+ pidx</text>
<text text-anchor="start" x="8" y="-197.5" font-family="Helvetica,sans-Serif" font-size="10.00">+ bidx</text>
<text text-anchor="start" x="8" y="-186.5" font-family="Helvetica,sans-Serif" font-size="10.00">+ portidx</text>
<text text-anchor="start" x="8" y="-175.5" font-family="Helvetica,sans-Serif" font-size="10.00">and 9 more...</text>
<polyline fill="none" stroke="black" points="0,-168.5 74,-168.5 "/>
<text text-anchor="middle" x="37" y="-156.5" font-family="Helvetica,sans-Serif" font-size="10.00"> </text>
</a>
</g>
</g>
<!-- Node2&#45;&gt;Node1 -->
<g id="edge1" class="edge"><title>Node2&#45;&gt;Node1</title>
<path fill="none" stroke="midnightblue" d="M78.991,-149.195C92.7396,-124.79 108.908,-98.5883 126,-76 131.068,-69.3023 137.005,-62.5272 142.848,-56.3109"/>
<polygon fill="none" stroke="midnightblue" points="75.8425,-147.655 74.0381,-158.095 81.9592,-151.059 75.8425,-147.655"/>
</g>
<!-- Node3 -->
<g id="node3" class="node"><title>Node3</title>
<g id="a_node3"><a xlink:href="structquaternion.html" target="_top" xlink:title="Quaternion, scalar last, using x, y, z. ">
<polygon fill="white" stroke="black" points="92,-204.5 92,-261.5 154,-261.5 154,-204.5 92,-204.5"/>
<text text-anchor="middle" x="123" y="-249.5" font-family="Helvetica,sans-Serif" font-size="10.00">quaternion</text>
<polyline fill="none" stroke="black" points="92,-242.5 154,-242.5 "/>
<text text-anchor="start" x="100" y="-230.5" font-family="Helvetica,sans-Serif" font-size="10.00">+ w</text>
<polyline fill="none" stroke="black" points="92,-223.5 154,-223.5 "/>
<text text-anchor="middle" x="123" y="-211.5" font-family="Helvetica,sans-Serif" font-size="10.00"> </text>
</a>
</g>
</g>
<!-- Node3&#45;&gt;Node1 -->
<g id="edge2" class="edge"><title>Node3&#45;&gt;Node1</title>
<path fill="none" stroke="#404040" d="M122.871,-204.439C123.508,-172.635 127.019,-119.174 142,-76 142.872,-73.4882 143.895,-70.9669 145.026,-68.469"/>
<polygon fill="none" stroke="#404040" points="145.041,-68.4404 144.231,-61.2749 150.533,-57.7713 151.343,-64.9368 145.041,-68.4404"/>
<text text-anchor="middle" x="157.5" y="-106.5" font-family="Helvetica,sans-Serif" font-size="10.00"> +theta</text>
<text text-anchor="middle" x="157.5" y="-95.5" font-family="Helvetica,sans-Serif" font-size="10.00">+align</text>
</g>
<!-- Node4 -->
<g id="node4" class="node"><title>Node4</title>
<g id="a_node4"><a xlink:href="classcvector.html" target="_top" xlink:title="3 element cartesian vector ">
<polygon fill="white" stroke="black" points="83.5,-364.5 83.5,-498.5 162.5,-498.5 162.5,-364.5 83.5,-364.5"/>
<text text-anchor="middle" x="123" y="-486.5" font-family="Helvetica,sans-Serif" font-size="10.00">cvector</text>
<polyline fill="none" stroke="black" points="83.5,-479.5 162.5,-479.5 "/>
<text text-anchor="start" x="91.5" y="-467.5" font-family="Helvetica,sans-Serif" font-size="10.00">+ x</text>
<text text-anchor="start" x="91.5" y="-456.5" font-family="Helvetica,sans-Serif" font-size="10.00">+ y</text>
<text text-anchor="start" x="91.5" y="-445.5" font-family="Helvetica,sans-Serif" font-size="10.00">+ z</text>
<polyline fill="none" stroke="black" points="83.5,-438.5 162.5,-438.5 "/>
<text text-anchor="start" x="91.5" y="-426.5" font-family="Helvetica,sans-Serif" font-size="10.00">+ normalize()</text>
<text text-anchor="start" x="91.5" y="-415.5" font-family="Helvetica,sans-Serif" font-size="10.00">+ length()</text>
<text text-anchor="start" x="91.5" y="-404.5" font-family="Helvetica,sans-Serif" font-size="10.00">+ norm()</text>
<text text-anchor="start" x="91.5" y="-393.5" font-family="Helvetica,sans-Serif" font-size="10.00">+ norm2()</text>
<text text-anchor="start" x="91.5" y="-382.5" font-family="Helvetica,sans-Serif" font-size="10.00">+ normalized()</text>
<text text-anchor="start" x="91.5" y="-371.5" font-family="Helvetica,sans-Serif" font-size="10.00">+ operator[]()</text>
</a>
</g>
</g>
<!-- Node4&#45;&gt;Node3 -->
<g id="edge3" class="edge"><title>Node4&#45;&gt;Node3</title>
<path fill="none" stroke="#404040" d="M123,-364.248C123,-334.319 123,-299.943 123,-274.025"/>
<polygon fill="none" stroke="#404040" points="123,-273.674 119,-267.674 123,-261.674 127,-267.674 123,-273.674"/>
<text text-anchor="middle" x="130.5" y="-338" font-family="Helvetica,sans-Serif" font-size="10.00"> +d</text>
</g>
<!-- Node5 -->
<g id="node5" class="node"><title>Node5</title>
<g id="a_node5"><a xlink:href="structavector.html" target="_top" xlink:title="3 element attitude vector. ">
<polygon fill="white" stroke="black" points="172.5,-193.5 172.5,-272.5 221.5,-272.5 221.5,-193.5 172.5,-193.5"/>
<text text-anchor="middle" x="197" y="-260.5" font-family="Helvetica,sans-Serif" font-size="10.00">avector</text>
<polyline fill="none" stroke="black" points="172.5,-253.5 221.5,-253.5 "/>
<text text-anchor="start" x="180.5" y="-241.5" font-family="Helvetica,sans-Serif" font-size="10.00">+ h</text>
<text text-anchor="start" x="180.5" y="-230.5" font-family="Helvetica,sans-Serif" font-size="10.00">+ e</text>
<text text-anchor="start" x="180.5" y="-219.5" font-family="Helvetica,sans-Serif" font-size="10.00">+ b</text>
<polyline fill="none" stroke="black" points="172.5,-212.5 221.5,-212.5 "/>
<text text-anchor="middle" x="197" y="-200.5" font-family="Helvetica,sans-Serif" font-size="10.00"> </text>
</a>
</g>
</g>
<!-- Node5&#45;&gt;Node1 -->
<g id="edge4" class="edge"><title>Node5&#45;&gt;Node1</title>
<path fill="none" stroke="#404040" d="M191.794,-193.052C187.072,-157.723 180.139,-105.856 175.367,-70.1564"/>
<polygon fill="none" stroke="#404040" points="175.305,-69.69 170.545,-64.2729 173.715,-57.7958 178.475,-63.2129 175.305,-69.69"/>
<text text-anchor="middle" x="199.5" y="-101" font-family="Helvetica,sans-Serif" font-size="10.00"> +euler</text>
</g>
<!-- Node6 -->
<g id="node6" class="node"><title>Node6</title>
<g id="a_node6"><a xlink:href="structrvector.html" target="_top" xlink:title="3 element generic row vector ">
<polygon fill="white" stroke="black" points="239.5,-204.5 239.5,-261.5 286.5,-261.5 286.5,-204.5 239.5,-204.5"/>
<text text-anchor="middle" x="263" y="-249.5" font-family="Helvetica,sans-Serif" font-size="10.00">rvector</text>
<polyline fill="none" stroke="black" points="239.5,-242.5 286.5,-242.5 "/>
<text text-anchor="start" x="247.5" y="-230.5" font-family="Helvetica,sans-Serif" font-size="10.00">+ col</text>
<polyline fill="none" stroke="black" points="239.5,-223.5 286.5,-223.5 "/>
<text text-anchor="middle" x="263" y="-211.5" font-family="Helvetica,sans-Serif" font-size="10.00"> </text>
</a>
</g>
</g>
<!-- Node6&#45;&gt;Node1 -->
<g id="edge5" class="edge"><title>Node6&#45;&gt;Node1</title>
<path fill="none" stroke="#404040" d="M259.764,-204.277C254.959,-171.611 243.692,-116.644 219,-76 215.441,-70.1414 210.934,-64.5491 206.103,-59.4095"/>
<polygon fill="none" stroke="#404040" points="205.767,-59.0805 198.681,-57.7427 197.191,-50.6873 204.277,-52.0251 205.767,-59.0805"/>
<text text-anchor="middle" x="261" y="-123" font-family="Helvetica,sans-Serif" font-size="10.00"> +alpha</text>
<text text-anchor="middle" x="261" y="-112" font-family="Helvetica,sans-Serif" font-size="10.00">+omega</text>
<text text-anchor="middle" x="261" y="-101" font-family="Helvetica,sans-Serif" font-size="10.00">+mag</text>
<text text-anchor="middle" x="261" y="-90" font-family="Helvetica,sans-Serif" font-size="10.00">+accel</text>
<text text-anchor="middle" x="261" y="-79" font-family="Helvetica,sans-Serif" font-size="10.00">+bdot</text>
</g>
</g>
</svg>
