<?xml version="1.0" encoding="UTF-8" standalone="no"?>
<!DOCTYPE svg PUBLIC "-//W3C//DTD SVG 1.1//EN"
 "http://www.w3.org/Graphics/SVG/1.1/DTD/svg11.dtd">
<!-- Generated by graphviz version 2.38.0 (20140413.2041)
 -->
<!-- Title: aattstruc Pages: 1 -->
<svg width="63pt" height="215pt"
 viewBox="0.00 0.00 63.00 215.00" xmlns="http://www.w3.org/2000/svg" xmlns:xlink="http://www.w3.org/1999/xlink">
<g id="graph0" class="graph" transform="scale(1 1) rotate(0) translate(4 211)">
<title>aattstruc</title>
<polygon fill="white" stroke="none" points="-4,4 -4,-211 59,-211 59,4 -4,4"/>
<!-- Node1 -->
<g id="node1" class="node"><title>Node1</title>
<polygon fill="#bfbfbf" stroke="black" points="0,-0.5 0,-57.5 55,-57.5 55,-0.5 0,-0.5"/>
<text text-anchor="middle" x="27.5" y="-45.5" font-family="Helvetica,sans-Serif" font-size="10.00">aattstruc</text>
<polyline fill="none" stroke="black" points="0,-38.5 55,-38.5 "/>
<text text-anchor="start" x="8" y="-26.5" font-family="Helvetica,sans-Serif" font-size="10.00">+ utc</text>
<polyline fill="none" stroke="black" points="0,-19.5 55,-19.5 "/>
<text text-anchor="middle" x="27.5" y="-7.5" font-family="Helvetica,sans-Serif" font-size="10.00"> </text>
</g>
<!-- Node2 -->
<g id="node2" class="node"><title>Node2</title>
<g id="a_node2"><a xlink:href="structavector.html" target="_top" xlink:title="3 element attitude vector. ">
<polygon fill="white" stroke="black" points="3,-127.5 3,-206.5 52,-206.5 52,-127.5 3,-127.5"/>
<text text-anchor="middle" x="27.5" y="-194.5" font-family="Helvetica,sans-Serif" font-size="10.00">avector</text>
<polyline fill="none" stroke="black" points="3,-187.5 52,-187.5 "/>
<text text-anchor="start" x="11" y="-175.5" font-family="Helvetica,sans-Serif" font-size="10.00">+ h</text>
<text text-anchor="start" x="11" y="-164.5" font-family="Helvetica,sans-Serif" font-size="10.00">+ e</text>
<text text-anchor="start" x="11" y="-153.5" font-family="Helvetica,sans-Serif" font-size="10.00">+ b</text>
<polyline fill="none" stroke="black" points="3,-146.5 52,-146.5 "/>
<text text-anchor="middle" x="27.5" y="-134.5" font-family="Helvetica,sans-Serif" font-size="10.00"> </text>
</a>
</g>
</g>
<!-- Node2&#45;&gt;Node1 -->
<g id="edge1" class="edge"><title>Node2&#45;&gt;Node1</title>
<path fill="none" stroke="#404040" d="M27.5,-127.392C27.5,-109.485 27.5,-88.2109 27.5,-70.1207"/>
<polygon fill="none" stroke="#404040" points="27.5001,-69.8961 23.5,-63.8961 27.5,-57.8961 31.5,-63.896 27.5001,-69.8961"/>
<text text-anchor="middle" x="35" y="-101" font-family="Helvetica,sans-Serif" font-size="10.00"> +a</text>
<text text-anchor="middle" x="35" y="-90" font-family="Helvetica,sans-Serif" font-size="10.00">+s</text>
<text text-anchor="middle" x="35" y="-79" font-family="Helvetica,sans-Serif" font-size="10.00">+v</text>
</g>
</g>
</svg>
