<?xml version="1.0" encoding="UTF-8" standalone="no"?>
<!DOCTYPE svg PUBLIC "-//W3C//DTD SVG 1.1//EN"
 "http://www.w3.org/Graphics/SVG/1.1/DTD/svg11.dtd">
<!-- Generated by graphviz version 2.38.0 (20140413.2041)
 -->
<!-- Title: Cosmos::wavefront::point Pages: 1 -->
<svg width="116pt" height="182pt"
 viewBox="0.00 0.00 116.00 182.00" xmlns="http://www.w3.org/2000/svg" xmlns:xlink="http://www.w3.org/1999/xlink">
<g id="graph0" class="graph" transform="scale(1 1) rotate(0) translate(4 178)">
<title>Cosmos::wavefront::point</title>
<polygon fill="white" stroke="none" points="-4,4 -4,-178 112,-178 112,4 -4,4"/>
<!-- Node1 -->
<g id="node1" class="node"><title>Node1</title>
<polygon fill="#bfbfbf" stroke="black" points="0,-0.5 0,-68.5 108,-68.5 108,-0.5 0,-0.5"/>
<text text-anchor="start" x="8" y="-56.5" font-family="Helvetica,sans-Serif" font-size="10.00">Cosmos::wavefront::</text>
<text text-anchor="middle" x="54" y="-45.5" font-family="Helvetica,sans-Serif" font-size="10.00">point</text>
<polyline fill="none" stroke="black" points="0,-38.5 108,-38.5 "/>
<text text-anchor="start" x="8" y="-26.5" font-family="Helvetica,sans-Serif" font-size="10.00">+ vertex</text>
<polyline fill="none" stroke="black" points="0,-19.5 108,-19.5 "/>
<text text-anchor="middle" x="54" y="-7.5" font-family="Helvetica,sans-Serif" font-size="10.00"> </text>
</g>
<!-- Node2 -->
<g id="node2" class="node"><title>Node2</title>
<polygon fill="white" stroke="#bfbfbf" points="10,-116.5 10,-173.5 98,-173.5 98,-116.5 10,-116.5"/>
<text text-anchor="middle" x="54" y="-161.5" font-family="Helvetica,sans-Serif" font-size="10.00">vector&lt; size_t &gt;</text>
<polyline fill="none" stroke="#bfbfbf" points="10,-154.5 98,-154.5 "/>
<text text-anchor="middle" x="54" y="-142.5" font-family="Helvetica,sans-Serif" font-size="10.00"> </text>
<polyline fill="none" stroke="#bfbfbf" points="10,-135.5 98,-135.5 "/>
<text text-anchor="middle" x="54" y="-123.5" font-family="Helvetica,sans-Serif" font-size="10.00"> </text>
</g>
<!-- Node2&#45;&gt;Node1 -->
<g id="edge1" class="edge"><title>Node2&#45;&gt;Node1</title>
<path fill="none" stroke="#404040" d="M54,-116.34C54,-105.529 54,-92.847 54,-80.7745"/>
<polygon fill="none" stroke="#404040" points="54.0001,-80.5186 50,-74.5186 54,-68.5186 58,-74.5185 54.0001,-80.5186"/>
<text text-anchor="middle" x="73.5" y="-90" font-family="Helvetica,sans-Serif" font-size="10.00"> +groups</text>
</g>
</g>
</svg>
