<?xml version="1.0" encoding="UTF-8" standalone="no"?>
<!DOCTYPE svg PUBLIC "-//W3C//DTD SVG 1.1//EN"
 "http://www.w3.org/Graphics/SVG/1.1/DTD/svg11.dtd">
<!-- Generated by graphviz version 2.38.0 (20140413.2041)
 -->
<!-- Title: jsonoperand Pages: 1 -->
<svg width="77pt" height="204pt"
 viewBox="0.00 0.00 77.00 204.00" xmlns="http://www.w3.org/2000/svg" xmlns:xlink="http://www.w3.org/1999/xlink">
<g id="graph0" class="graph" transform="scale(1 1) rotate(0) translate(4 200)">
<title>jsonoperand</title>
<polygon fill="white" stroke="none" points="-4,4 -4,-200 73,-200 73,4 -4,4"/>
<!-- Node1 -->
<g id="node1" class="node"><title>Node1</title>
<polygon fill="#bfbfbf" stroke="black" points="0,-0.5 0,-79.5 69,-79.5 69,-0.5 0,-0.5"/>
<text text-anchor="middle" x="34.5" y="-67.5" font-family="Helvetica,sans-Serif" font-size="10.00">jsonoperand</text>
<polyline fill="none" stroke="black" points="0,-60.5 69,-60.5 "/>
<text text-anchor="start" x="8" y="-48.5" font-family="Helvetica,sans-Serif" font-size="10.00">+ type</text>
<text text-anchor="start" x="8" y="-37.5" font-family="Helvetica,sans-Serif" font-size="10.00">+ value</text>
<text text-anchor="start" x="8" y="-26.5" font-family="Helvetica,sans-Serif" font-size="10.00">+ @46</text>
<polyline fill="none" stroke="black" points="0,-19.5 69,-19.5 "/>
<text text-anchor="middle" x="34.5" y="-7.5" font-family="Helvetica,sans-Serif" font-size="10.00"> </text>
</g>
<!-- Node2 -->
<g id="node2" class="node"><title>Node2</title>
<g id="a_node2"><a xlink:href="structjsonhandle.html" target="_top" xlink:title="JSON handle. ">
<polygon fill="white" stroke="black" points="3,-127.5 3,-195.5 66,-195.5 66,-127.5 3,-127.5"/>
<text text-anchor="middle" x="34.5" y="-183.5" font-family="Helvetica,sans-Serif" font-size="10.00">jsonhandle</text>
<polyline fill="none" stroke="black" points="3,-176.5 66,-176.5 "/>
<text text-anchor="start" x="11" y="-164.5" font-family="Helvetica,sans-Serif" font-size="10.00">+ hash</text>
<text text-anchor="start" x="11" y="-153.5" font-family="Helvetica,sans-Serif" font-size="10.00">+ index</text>
<polyline fill="none" stroke="black" points="3,-146.5 66,-146.5 "/>
<text text-anchor="middle" x="34.5" y="-134.5" font-family="Helvetica,sans-Serif" font-size="10.00"> </text>
</a>
</g>
</g>
<!-- Node2&#45;&gt;Node1 -->
<g id="edge1" class="edge"><title>Node2&#45;&gt;Node1</title>
<path fill="none" stroke="#404040" d="M34.5,-127.213C34.5,-116.244 34.5,-103.784 34.5,-91.8137"/>
<polygon fill="none" stroke="#404040" points="34.5001,-91.5997 30.5,-85.5997 34.5,-79.5997 38.5,-85.5997 34.5001,-91.5997"/>
<text text-anchor="middle" x="48.5" y="-101" font-family="Helvetica,sans-Serif" font-size="10.00"> +data</text>
</g>
</g>
</svg>
