<?xml version="1.0" encoding="UTF-8" standalone="no"?>
<!DOCTYPE svg PUBLIC "-//W3C//DTD SVG 1.1//EN"
 "http://www.w3.org/Graphics/SVG/1.1/DTD/svg11.dtd">
<!-- Generated by graphviz version 2.38.0 (20140413.2041)
 -->
<!-- Title: physicsstruc Pages: 1 -->
<!--zoomable 644 -->
<svg id="main" version="1.1" xmlns="http://www.w3.org/2000/svg" xmlns:xlink="http://www.w3.org/1999/xlink" xml:space="preserve" onload="init(evt)">
<style type="text/css"><![CDATA[
.edge:hover path { stroke: red; }
.edge:hover polygon { stroke: red; fill: red; }
]]></style>
<script type="text/javascript"><![CDATA[
var edges = document.getElementsByTagName('g');
if (edges && edges.length) {
  for (var i=0;i<edges.length;i++) {
    if (edges[i].id.substr(0,4)=='edge') {
      edges[i].setAttribute('class','edge');
    }
  }
}
]]></script>
        <defs>
                <circle id="rim" cx="0" cy="0" r="7"/>
                <circle id="rim2" cx="0" cy="0" r="3.5"/>
                <g id="zoomPlus">
                        <use xlink:href="#rim" fill="#404040">
                                <set attributeName="fill" to="#808080" begin="zoomplus.mouseover" end="zoomplus.mouseout"/>
                        </use>
                        <path d="M-4,0h8M0,-4v8" fill="none" stroke="white" stroke-width="1.5" pointer-events="none"/>
                </g>
                <g id="zoomMin">
                        <use xlink:href="#rim" fill="#404040">
                                <set attributeName="fill" to="#808080" begin="zoomminus.mouseover" end="zoomminus.mouseout"/>
                        </use>
                        <path d="M-4,0h8" fill="none" stroke="white" stroke-width="1.5" pointer-events="none"/>
                </g>
                <g id="dirArrow">
                        <path fill="none" stroke="white" stroke-width="1.5" d="M0,-3.0v7 M-2.5,-0.5L0,-3.0L2.5,-0.5"/>
                </g>
               <g id="resetDef">
                       <use xlink:href="#rim2" fill="#404040">
                               <set attributeName="fill" to="#808080" begin="reset.mouseover" end="reset.mouseout"/>
                       </use>
               </g>
        </defs>

<script type="text/javascript">
var viewWidth = 371;
var viewHeight = 644;
var sectionId = 'dynsection-0';
</script>
<script xlink:href="svgpan.js"/>
<svg id="graph" class="graph">
<g id="viewport">
<title>physicsstruc</title>
<polygon fill="white" stroke="none" points="-4,4 -4,-640 366.5,-640 366.5,4 -4,4"/>
<!-- Node1 -->
<g id="node1" class="node"><title>Node1</title>
<polygon fill="#bfbfbf" stroke="black" points="156.5,-0.5 156.5,-189.5 236.5,-189.5 236.5,-0.5 156.5,-0.5"/>
<text text-anchor="middle" x="196.5" y="-177.5" font-family="Helvetica,sans-Serif" font-size="10.00">physicsstruc</text>
<polyline fill="none" stroke="black" points="156.5,-170.5 236.5,-170.5 "/>
<text text-anchor="start" x="164.5" y="-158.5" font-family="Helvetica,sans-Serif" font-size="10.00">+ dt</text>
<text text-anchor="start" x="164.5" y="-147.5" font-family="Helvetica,sans-Serif" font-size="10.00">+ dtj</text>
<text text-anchor="start" x="164.5" y="-136.5" font-family="Helvetica,sans-Serif" font-size="10.00">+ mjdbase</text>
<text text-anchor="start" x="164.5" y="-125.5" font-family="Helvetica,sans-Serif" font-size="10.00">+ mjdaccel</text>
<text text-anchor="start" x="164.5" y="-114.5" font-family="Helvetica,sans-Serif" font-size="10.00">+ mjddiff</text>
<text text-anchor="start" x="164.5" y="-103.5" font-family="Helvetica,sans-Serif" font-size="10.00">+ mode</text>
<text text-anchor="start" x="164.5" y="-92.5" font-family="Helvetica,sans-Serif" font-size="10.00">+ heat</text>
<text text-anchor="start" x="164.5" y="-81.5" font-family="Helvetica,sans-Serif" font-size="10.00">+ hmomentum</text>
<text text-anchor="start" x="164.5" y="-70.5" font-family="Helvetica,sans-Serif" font-size="10.00">+ fdrag</text>
<text text-anchor="start" x="164.5" y="-59.5" font-family="Helvetica,sans-Serif" font-size="10.00">+ moi</text>
<text text-anchor="start" x="164.5" y="-48.5" font-family="Helvetica,sans-Serif" font-size="10.00">+ hcap</text>
<text text-anchor="start" x="164.5" y="-37.5" font-family="Helvetica,sans-Serif" font-size="10.00">+ mass</text>
<text text-anchor="start" x="164.5" y="-26.5" font-family="Helvetica,sans-Serif" font-size="10.00">+ area</text>
<polyline fill="none" stroke="black" points="156.5,-19.5 236.5,-19.5 "/>
<text text-anchor="middle" x="196.5" y="-7.5" font-family="Helvetica,sans-Serif" font-size="10.00"> </text>
</g>
<!-- Node2 -->
<g id="node2" class="node"><title>Node2</title>
<g id="a_node2"><a xlink:href="class_cosmos_1_1_math_1_1_vectors_1_1_vector.html" target="_top" xlink:title="Vector Class. ">
<polygon fill="white" stroke="black" points="0,-347.5 0,-635.5 121,-635.5 121,-347.5 0,-347.5"/>
<text text-anchor="start" x="8" y="-623.5" font-family="Helvetica,sans-Serif" font-size="10.00">Cosmos::Math::Vectors</text>
<text text-anchor="middle" x="60.5" y="-612.5" font-family="Helvetica,sans-Serif" font-size="10.00">::Vector</text>
<polyline fill="none" stroke="black" points="0,-605.5 121,-605.5 "/>
<text text-anchor="start" x="8" y="-593.5" font-family="Helvetica,sans-Serif" font-size="10.00">+ x</text>
<text text-anchor="start" x="8" y="-582.5" font-family="Helvetica,sans-Serif" font-size="10.00">+ phi</text>
<text text-anchor="start" x="8" y="-571.5" font-family="Helvetica,sans-Serif" font-size="10.00">+ lat</text>
<text text-anchor="start" x="8" y="-560.5" font-family="Helvetica,sans-Serif" font-size="10.00">+ head</text>
<text text-anchor="start" x="8" y="-549.5" font-family="Helvetica,sans-Serif" font-size="10.00">+ @31</text>
<text text-anchor="start" x="8" y="-538.5" font-family="Helvetica,sans-Serif" font-size="10.00">+ y</text>
<text text-anchor="start" x="8" y="-527.5" font-family="Helvetica,sans-Serif" font-size="10.00">+ lambda</text>
<text text-anchor="start" x="8" y="-516.5" font-family="Helvetica,sans-Serif" font-size="10.00">+ lon</text>
<text text-anchor="start" x="8" y="-505.5" font-family="Helvetica,sans-Serif" font-size="10.00">+ elev</text>
<text text-anchor="start" x="8" y="-494.5" font-family="Helvetica,sans-Serif" font-size="10.00">+ @33</text>
<text text-anchor="start" x="8" y="-483.5" font-family="Helvetica,sans-Serif" font-size="10.00">and 6 more...</text>
<polyline fill="none" stroke="black" points="0,-476.5 121,-476.5 "/>
<text text-anchor="start" x="8" y="-464.5" font-family="Helvetica,sans-Serif" font-size="10.00">+ Vector()</text>
<text text-anchor="start" x="8" y="-453.5" font-family="Helvetica,sans-Serif" font-size="10.00">+ Vector()</text>
<text text-anchor="start" x="8" y="-442.5" font-family="Helvetica,sans-Serif" font-size="10.00">+ Vector()</text>
<text text-anchor="start" x="8" y="-431.5" font-family="Helvetica,sans-Serif" font-size="10.00">+ Vector()</text>
<text text-anchor="start" x="8" y="-420.5" font-family="Helvetica,sans-Serif" font-size="10.00">+ at()</text>
<text text-anchor="start" x="8" y="-409.5" font-family="Helvetica,sans-Serif" font-size="10.00">+ to_rv()</text>
<text text-anchor="start" x="8" y="-398.5" font-family="Helvetica,sans-Serif" font-size="10.00">+ to_cv()</text>
<text text-anchor="start" x="8" y="-387.5" font-family="Helvetica,sans-Serif" font-size="10.00">+ to_q()</text>
<text text-anchor="start" x="8" y="-376.5" font-family="Helvetica,sans-Serif" font-size="10.00">+ cross()</text>
<text text-anchor="start" x="8" y="-365.5" font-family="Helvetica,sans-Serif" font-size="10.00">+ dot()</text>
<text text-anchor="start" x="8" y="-354.5" font-family="Helvetica,sans-Serif" font-size="10.00">and 23 more...</text>
</a>
</g>
</g>
<!-- Node2&#45;&gt;Node1 -->
<g id="edge1" class="edge"><title>Node2&#45;&gt;Node1</title>
<path fill="none" stroke="#404040" d="M103.584,-347.47C117.773,-302.567 134.127,-252.984 150.5,-208 151.357,-205.647 152.233,-203.27 153.126,-200.877"/>
<polygon fill="none" stroke="#404040" points="153.152,-200.806 151.54,-193.777 157.407,-189.586 159.02,-196.614 153.152,-200.806"/>
<text text-anchor="middle" x="171.5" y="-321" font-family="Helvetica,sans-Serif" font-size="10.00"> +atorque</text>
<text text-anchor="middle" x="171.5" y="-310" font-family="Helvetica,sans-Serif" font-size="10.00">+ctorque</text>
<text text-anchor="middle" x="171.5" y="-299" font-family="Helvetica,sans-Serif" font-size="10.00">+rtorque</text>
<text text-anchor="middle" x="171.5" y="-288" font-family="Helvetica,sans-Serif" font-size="10.00">+com</text>
<text text-anchor="middle" x="171.5" y="-277" font-family="Helvetica,sans-Serif" font-size="10.00">+thrust</text>
<text text-anchor="middle" x="171.5" y="-266" font-family="Helvetica,sans-Serif" font-size="10.00">+ftorque</text>
<text text-anchor="middle" x="171.5" y="-255" font-family="Helvetica,sans-Serif" font-size="10.00">+rdrag</text>
<text text-anchor="middle" x="171.5" y="-244" font-family="Helvetica,sans-Serif" font-size="10.00">+adrag</text>
<text text-anchor="middle" x="171.5" y="-233" font-family="Helvetica,sans-Serif" font-size="10.00">+gtorque</text>
<text text-anchor="middle" x="171.5" y="-222" font-family="Helvetica,sans-Serif" font-size="10.00">+htorque</text>
<text text-anchor="middle" x="171.5" y="-211" font-family="Helvetica,sans-Serif" font-size="10.00">...</text>
</g>
<!-- Node3 -->
<g id="node3" class="node"><title>Node3</title>
<polygon fill="white" stroke="#bfbfbf" points="139,-463 139,-520 254,-520 254,-463 139,-463"/>
<text text-anchor="middle" x="196.5" y="-508" font-family="Helvetica,sans-Serif" font-size="10.00">vector&lt; trianglestruc &gt;</text>
<polyline fill="none" stroke="#bfbfbf" points="139,-501 254,-501 "/>
<text text-anchor="middle" x="196.5" y="-489" font-family="Helvetica,sans-Serif" font-size="10.00"> </text>
<polyline fill="none" stroke="#bfbfbf" points="139,-482 254,-482 "/>
<text text-anchor="middle" x="196.5" y="-470" font-family="Helvetica,sans-Serif" font-size="10.00"> </text>
</g>
<!-- Node3&#45;&gt;Node1 -->
<g id="edge2" class="edge"><title>Node3&#45;&gt;Node1</title>
<path fill="none" stroke="#404040" d="M196.5,-462.76C196.5,-409.409 196.5,-289.992 196.5,-201.843"/>
<polygon fill="none" stroke="#404040" points="196.5,-201.623 192.5,-195.623 196.5,-189.623 200.5,-195.623 196.5,-201.623"/>
<text text-anchor="middle" x="219.5" y="-266" font-family="Helvetica,sans-Serif" font-size="10.00"> +triangles</text>
</g>
<!-- Node4 -->
<g id="node4" class="node"><title>Node4</title>
<polygon fill="white" stroke="#bfbfbf" points="272.5,-463 272.5,-520 362.5,-520 362.5,-463 272.5,-463"/>
<text text-anchor="middle" x="317.5" y="-508" font-family="Helvetica,sans-Serif" font-size="10.00">vector&lt; Vector &gt;</text>
<polyline fill="none" stroke="#bfbfbf" points="272.5,-501 362.5,-501 "/>
<text text-anchor="middle" x="317.5" y="-489" font-family="Helvetica,sans-Serif" font-size="10.00"> </text>
<polyline fill="none" stroke="#bfbfbf" points="272.5,-482 362.5,-482 "/>
<text text-anchor="middle" x="317.5" y="-470" font-family="Helvetica,sans-Serif" font-size="10.00"> </text>
</g>
<!-- Node4&#45;&gt;Node1 -->
<g id="edge3" class="edge"><title>Node4&#45;&gt;Node1</title>
<path fill="none" stroke="#404040" d="M312.2,-462.766C302.058,-411.609 278.078,-299.282 246.5,-208 244.769,-202.997 242.903,-197.91 240.945,-192.802"/>
<polygon fill="none" stroke="#404040" points="240.933,-192.772 235.008,-188.66 236.525,-181.61 242.449,-185.722 240.933,-192.772"/>
<text text-anchor="middle" x="303.5" y="-266" font-family="Helvetica,sans-Serif" font-size="10.00"> +vertices</text>
</g>
</g>
</svg>
        <g id="navigator" transform="translate(0 0)" fill="#404254">
                <rect fill="#f2f5e9" fill-opacity="0.5" stroke="#606060" stroke-width=".5" x="0" y="0" width="60" height="60"/>
                <use id="zoomplus" xlink:href="#zoomPlus" x="17" y="9" onmousedown="handleZoom(evt,'in')"/>
                <use id="zoomminus" xlink:href="#zoomMin" x="42" y="9" onmousedown="handleZoom(evt,'out')"/>
                <use id="reset" xlink:href="#resetDef" x="30" y="36" onmousedown="handleReset()"/>
                <g id="arrowUp" xlink:href="#dirArrow" transform="translate(30 24)" onmousedown="handlePan(0,-1)">
                  <use xlink:href="#rim" fill="#404040">
                        <set attributeName="fill" to="#808080" begin="arrowUp.mouseover" end="arrowUp.mouseout"/>
                  </use>
                  <path fill="none" stroke="white" stroke-width="1.5" d="M0,-3.0v7 M-2.5,-0.5L0,-3.0L2.5,-0.5"/>
                </g>
                <g id="arrowRight" xlink:href="#dirArrow" transform="rotate(90) translate(36 -43)" onmousedown="handlePan(1,0)">
                  <use xlink:href="#rim" fill="#404040">
                        <set attributeName="fill" to="#808080" begin="arrowRight.mouseover" end="arrowRight.mouseout"/>
                  </use>
                  <path fill="none" stroke="white" stroke-width="1.5" d="M0,-3.0v7 M-2.5,-0.5L0,-3.0L2.5,-0.5"/>
                </g>
                <g id="arrowDown" xlink:href="#dirArrow" transform="rotate(180) translate(-30 -48)" onmousedown="handlePan(0,1)">
                  <use xlink:href="#rim" fill="#404040">
                        <set attributeName="fill" to="#808080" begin="arrowDown.mouseover" end="arrowDown.mouseout"/>
                  </use>
                  <path fill="none" stroke="white" stroke-width="1.5" d="M0,-3.0v7 M-2.5,-0.5L0,-3.0L2.5,-0.5"/>
                </g>
                <g id="arrowLeft" xlink:href="#dirArrow" transform="rotate(270) translate(-36 17)" onmousedown="handlePan(-1,0)">
                  <use xlink:href="#rim" fill="#404040">
                        <set attributeName="fill" to="#808080" begin="arrowLeft.mouseover" end="arrowLeft.mouseout"/>
                  </use>
                  <path fill="none" stroke="white" stroke-width="1.5" d="M0,-3.0v7 M-2.5,-0.5L0,-3.0L2.5,-0.5"/>
                </g>
        </g>
        <svg viewBox="0 0 15 15" width="100%" height="30px" preserveAspectRatio="xMaxYMin meet">
         <g id="arrow_out" transform="scale(0.3 0.3)">
          <a xlink:href="structphysicsstruc__coll__graph_org.svg" target="_base">
           <rect id="button" ry="5" rx="5" y="6" x="6" height="38" width="38"
                fill="#f2f5e9" fill-opacity="0.5" stroke="#606060" stroke-width="1.0"/>
           <path id="arrow"
             d="M 11.500037,31.436501 C 11.940474,20.09759 22.043105,11.32322 32.158766,21.979434 L 37.068811,17.246167 C 37.068811,17.246167 37.088388,32 37.088388,32 L 22.160133,31.978069 C 22.160133,31.978069 26.997745,27.140456 26.997745,27.140456 C 18.528582,18.264221 13.291696,25.230495 11.500037,31.436501 z"
             style="fill:#404040;"/>
          </a>
         </g>
        </svg>
</svg>
