<?xml version="1.0" encoding="UTF-8" standalone="no"?>
<!DOCTYPE svg PUBLIC "-//W3C//DTD SVG 1.1//EN"
 "http://www.w3.org/Graphics/SVG/1.1/DTD/svg11.dtd">
<!-- Generated by graphviz version 2.38.0 (20140413.2041)
 -->
<!-- Title: tab2json.cpp Pages: 1 -->
<!--zoomable 476 -->
<svg id="main" version="1.1" xmlns="http://www.w3.org/2000/svg" xmlns:xlink="http://www.w3.org/1999/xlink" xml:space="preserve" onload="init(evt)">
<style type="text/css"><![CDATA[
.edge:hover path { stroke: red; }
.edge:hover polygon { stroke: red; fill: red; }
]]></style>
<script type="text/javascript"><![CDATA[
var edges = document.getElementsByTagName('g');
if (edges && edges.length) {
  for (var i=0;i<edges.length;i++) {
    if (edges[i].id.substr(0,4)=='edge') {
      edges[i].setAttribute('class','edge');
    }
  }
}
]]></script>
        <defs>
                <circle id="rim" cx="0" cy="0" r="7"/>
                <circle id="rim2" cx="0" cy="0" r="3.5"/>
                <g id="zoomPlus">
                        <use xlink:href="#rim" fill="#404040">
                                <set attributeName="fill" to="#808080" begin="zoomplus.mouseover" end="zoomplus.mouseout"/>
                        </use>
                        <path d="M-4,0h8M0,-4v8" fill="none" stroke="white" stroke-width="1.5" pointer-events="none"/>
                </g>
                <g id="zoomMin">
                        <use xlink:href="#rim" fill="#404040">
                                <set attributeName="fill" to="#808080" begin="zoomminus.mouseover" end="zoomminus.mouseout"/>
                        </use>
                        <path d="M-4,0h8" fill="none" stroke="white" stroke-width="1.5" pointer-events="none"/>
                </g>
                <g id="dirArrow">
                        <path fill="none" stroke="white" stroke-width="1.5" d="M0,-3.0v7 M-2.5,-0.5L0,-3.0L2.5,-0.5"/>
                </g>
               <g id="resetDef">
                       <use xlink:href="#rim2" fill="#404040">
                               <set attributeName="fill" to="#808080" begin="reset.mouseover" end="reset.mouseout"/>
                       </use>
               </g>
        </defs>

<script type="text/javascript">
var viewWidth = 1461;
var viewHeight = 476;
var sectionId = 'dynsection-0';
</script>
<script xlink:href="svgpan.js"/>
<svg id="graph" class="graph">
<g id="viewport">
<title>tab2json.cpp</title>
<polygon fill="white" stroke="none" points="-4,4 -4,-472 1457.16,-472 1457.16,4 -4,4"/>
<!-- Node1 -->
<g id="node1" class="node"><title>Node1</title>
<polygon fill="#bfbfbf" stroke="black" points="772.356,-448.5 772.356,-467.5 844.356,-467.5 844.356,-448.5 772.356,-448.5"/>
<text text-anchor="middle" x="808.356" y="-455.5" font-family="Helvetica,sans-Serif" font-size="10.00">tab2json.cpp</text>
</g>
<!-- Node2 -->
<g id="node2" class="node"><title>Node2</title>
<g id="a_node2"><a xlink:href="config_cosmos_8h.html" target="_top" xlink:title="Headers and definitions common to all COSMOS. ">
<polygon fill="white" stroke="black" points="692.856,-112.5 692.856,-131.5 815.856,-131.5 815.856,-112.5 692.856,-112.5"/>
<text text-anchor="middle" x="754.356" y="-119.5" font-family="Helvetica,sans-Serif" font-size="10.00">support/configCosmos.h</text>
</a>
</g>
</g>
<!-- Node1&#45;&gt;Node2 -->
<g id="edge1" class="edge"><title>Node1&#45;&gt;Node2</title>
<path fill="none" stroke="midnightblue" d="M806.032,-448.215C799.834,-424.486 782.745,-357.039 773.356,-300 763.923,-242.693 758.101,-174.142 755.671,-141.736"/>
<polygon fill="midnightblue" stroke="midnightblue" points="759.144,-141.24 754.929,-131.52 752.163,-141.747 759.144,-141.24"/>
</g>
<!-- Node28 -->
<g id="node28" class="node"><title>Node28</title>
<g id="a_node28"><a xlink:href="jsonclass_8h.html" target="_top" xlink:title="support/jsonclass.h">
<polygon fill="white" stroke="black" points="640.856,-392.5 640.856,-411.5 741.856,-411.5 741.856,-392.5 640.856,-392.5"/>
<text text-anchor="middle" x="691.356" y="-399.5" font-family="Helvetica,sans-Serif" font-size="10.00">support/jsonclass.h</text>
</a>
</g>
</g>
<!-- Node1&#45;&gt;Node28 -->
<g id="edge33" class="edge"><title>Node1&#45;&gt;Node28</title>
<path fill="none" stroke="midnightblue" d="M789.817,-448.444C770.733,-439.636 740.781,-425.812 718.92,-415.722"/>
<polygon fill="midnightblue" stroke="midnightblue" points="720.355,-412.529 709.808,-411.516 717.421,-418.885 720.355,-412.529"/>
</g>
<!-- Node31 -->
<g id="node31" class="node"><title>Node31</title>
<g id="a_node31"><a xlink:href="jsonobject_8h.html" target="_top" xlink:title="support/jsonobject.h">
<polygon fill="white" stroke="black" points="807.356,-336.5 807.356,-355.5 911.356,-355.5 911.356,-336.5 807.356,-336.5"/>
<text text-anchor="middle" x="859.356" y="-343.5" font-family="Helvetica,sans-Serif" font-size="10.00">support/jsonobject.h</text>
</a>
</g>
</g>
<!-- Node1&#45;&gt;Node31 -->
<g id="edge38" class="edge"><title>Node1&#45;&gt;Node31</title>
<path fill="none" stroke="midnightblue" d="M812.358,-448.368C820.663,-430.456 839.919,-388.923 851.035,-364.948"/>
<polygon fill="midnightblue" stroke="midnightblue" points="854.342,-366.136 855.373,-355.591 847.991,-363.192 854.342,-366.136"/>
</g>
<!-- Node36 -->
<g id="node36" class="node"><title>Node36</title>
<g id="a_node36"><a xlink:href="stringlib_8h.html" target="_top" xlink:title="stringlib include file A library providing functions for handling various types of string...">
<polygon fill="white" stroke="black" points="911.356,-392.5 911.356,-411.5 1005.36,-411.5 1005.36,-392.5 911.356,-392.5"/>
<text text-anchor="middle" x="958.356" y="-399.5" font-family="Helvetica,sans-Serif" font-size="10.00">support/stringlib.h</text>
</a>
</g>
</g>
<!-- Node1&#45;&gt;Node36 -->
<g id="edge50" class="edge"><title>Node1&#45;&gt;Node36</title>
<path fill="none" stroke="midnightblue" d="M832.124,-448.444C857.249,-439.399 897.067,-425.064 925.256,-414.916"/>
<polygon fill="midnightblue" stroke="midnightblue" points="926.476,-418.197 934.699,-411.516 924.105,-411.611 926.476,-418.197"/>
</g>
<!-- Node3 -->
<g id="node3" class="node"><title>Node3</title>
<polygon fill="white" stroke="#bfbfbf" points="14.856,-56.5 14.856,-75.5 59.856,-75.5 59.856,-56.5 14.856,-56.5"/>
<text text-anchor="middle" x="37.356" y="-63.5" font-family="Helvetica,sans-Serif" font-size="10.00">climits</text>
</g>
<!-- Node2&#45;&gt;Node3 -->
<g id="edge2" class="edge"><title>Node2&#45;&gt;Node3</title>
<path fill="none" stroke="midnightblue" d="M692.796,-121.414C573.77,-121.251 303.894,-116.187 69.9665,-75.9187"/>
<polygon fill="midnightblue" stroke="midnightblue" points="70.3624,-72.4349 59.9093,-74.1616 69.1577,-79.3305 70.3624,-72.4349"/>
</g>
<!-- Node4 -->
<g id="node4" class="node"><title>Node4</title>
<polygon fill="white" stroke="#bfbfbf" points="77.856,-56.5 77.856,-75.5 124.856,-75.5 124.856,-56.5 77.856,-56.5"/>
<text text-anchor="middle" x="101.356" y="-63.5" font-family="Helvetica,sans-Serif" font-size="10.00">csignal</text>
</g>
<!-- Node2&#45;&gt;Node4 -->
<g id="edge3" class="edge"><title>Node2&#45;&gt;Node4</title>
<path fill="none" stroke="midnightblue" d="M692.449,-119.731C581.149,-116.726 340.129,-106.919 139.356,-76 137.89,-75.7743 136.397,-75.5214 134.893,-75.2477"/>
<polygon fill="midnightblue" stroke="midnightblue" points="135.458,-71.7907 124.958,-73.2053 134.048,-78.6473 135.458,-71.7907"/>
</g>
<!-- Node5 -->
<g id="node5" class="node"><title>Node5</title>
<polygon fill="white" stroke="#bfbfbf" points="1116.36,-56.5 1116.36,-75.5 1162.36,-75.5 1162.36,-56.5 1116.36,-56.5"/>
<text text-anchor="middle" x="1139.36" y="-63.5" font-family="Helvetica,sans-Serif" font-size="10.00">cstdint</text>
</g>
<!-- Node2&#45;&gt;Node5 -->
<g id="edge4" class="edge"><title>Node2&#45;&gt;Node5</title>
<path fill="none" stroke="midnightblue" d="M816.025,-115.915C884.691,-109.632 999.063,-97.3207 1106.04,-76.0101"/>
<polygon fill="midnightblue" stroke="midnightblue" points="1106.93,-79.4014 1116.03,-73.9879 1105.54,-72.5404 1106.93,-79.4014"/>
</g>
<!-- Node6 -->
<g id="node6" class="node"><title>Node6</title>
<polygon fill="white" stroke="#bfbfbf" points="429.356,-56.5 429.356,-75.5 485.356,-75.5 485.356,-56.5 429.356,-56.5"/>
<text text-anchor="middle" x="457.356" y="-63.5" font-family="Helvetica,sans-Serif" font-size="10.00">cinttypes</text>
</g>
<!-- Node2&#45;&gt;Node6 -->
<g id="edge5" class="edge"><title>Node2&#45;&gt;Node6</title>
<path fill="none" stroke="midnightblue" d="M698.614,-112.464C648.094,-104.477 571.377,-91.7252 495.768,-76.1854"/>
<polygon fill="midnightblue" stroke="midnightblue" points="496.096,-72.6789 485.593,-74.0756 494.675,-79.5331 496.096,-72.6789"/>
</g>
<!-- Node7 -->
<g id="node7" class="node"><title>Node7</title>
<polygon fill="white" stroke="#bfbfbf" points="503.856,-56.5 503.856,-75.5 546.856,-75.5 546.856,-56.5 503.856,-56.5"/>
<text text-anchor="middle" x="525.356" y="-63.5" font-family="Helvetica,sans-Serif" font-size="10.00">cstdio</text>
</g>
<!-- Node2&#45;&gt;Node7 -->
<g id="edge6" class="edge"><title>Node2&#45;&gt;Node7</title>
<path fill="none" stroke="midnightblue" d="M712.608,-112.437C674.332,-104.39 615.883,-91.6133 556.805,-76.2564"/>
<polygon fill="midnightblue" stroke="midnightblue" points="557.496,-72.8195 546.936,-73.6681 555.721,-79.5905 557.496,-72.8195"/>
</g>
<!-- Node8 -->
<g id="node8" class="node"><title>Node8</title>
<polygon fill="white" stroke="#bfbfbf" points="564.856,-56.5 564.856,-75.5 613.856,-75.5 613.856,-56.5 564.856,-56.5"/>
<text text-anchor="middle" x="589.356" y="-63.5" font-family="Helvetica,sans-Serif" font-size="10.00">cstddef</text>
</g>
<!-- Node2&#45;&gt;Node8 -->
<g id="edge7" class="edge"><title>Node2&#45;&gt;Node8</title>
<path fill="none" stroke="midnightblue" d="M728.211,-112.444C699.923,-103.185 654.7,-88.3854 623.595,-78.2054"/>
<polygon fill="midnightblue" stroke="midnightblue" points="624.624,-74.8595 614.031,-75.0755 622.446,-81.5123 624.624,-74.8595"/>
</g>
<!-- Node9 -->
<g id="node9" class="node"><title>Node9</title>
<polygon fill="white" stroke="#bfbfbf" points="631.856,-56.5 631.856,-75.5 676.856,-75.5 676.856,-56.5 631.856,-56.5"/>
<text text-anchor="middle" x="654.356" y="-63.5" font-family="Helvetica,sans-Serif" font-size="10.00">cstdlib</text>
</g>
<!-- Node2&#45;&gt;Node9 -->
<g id="edge8" class="edge"><title>Node2&#45;&gt;Node9</title>
<path fill="none" stroke="midnightblue" d="M738.289,-112.324C722.398,-103.743 697.849,-90.486 679.398,-80.5224"/>
<polygon fill="midnightblue" stroke="midnightblue" points="680.845,-77.3264 670.383,-75.6545 677.519,-83.4857 680.845,-77.3264"/>
</g>
<!-- Node10 -->
<g id="node10" class="node"><title>Node10</title>
<polygon fill="white" stroke="#bfbfbf" points="733.356,-56.5 733.356,-75.5 777.356,-75.5 777.356,-56.5 733.356,-56.5"/>
<text text-anchor="middle" x="755.356" y="-63.5" font-family="Helvetica,sans-Serif" font-size="10.00">cerrno</text>
</g>
<!-- Node2&#45;&gt;Node10 -->
<g id="edge9" class="edge"><title>Node2&#45;&gt;Node10</title>
<path fill="none" stroke="midnightblue" d="M754.521,-112.083C754.652,-105.006 754.84,-94.8611 755.004,-85.9865"/>
<polygon fill="midnightblue" stroke="midnightblue" points="758.508,-85.8142 755.194,-75.7511 751.509,-85.6845 758.508,-85.8142"/>
</g>
<!-- Node11 -->
<g id="node11" class="node"><title>Node11</title>
<polygon fill="white" stroke="#bfbfbf" points="795.356,-56.5 795.356,-75.5 841.356,-75.5 841.356,-56.5 795.356,-56.5"/>
<text text-anchor="middle" x="818.356" y="-63.5" font-family="Helvetica,sans-Serif" font-size="10.00">cstring</text>
</g>
<!-- Node2&#45;&gt;Node11 -->
<g id="edge10" class="edge"><title>Node2&#45;&gt;Node11</title>
<path fill="none" stroke="midnightblue" d="M764.639,-112.324C774.192,-104.263 788.636,-92.0765 800.14,-82.3695"/>
<polygon fill="midnightblue" stroke="midnightblue" points="802.5,-84.9577 807.886,-75.8339 797.986,-79.6076 802.5,-84.9577"/>
</g>
<!-- Node12 -->
<g id="node12" class="node"><title>Node12</title>
<polygon fill="white" stroke="#bfbfbf" points="1180.36,-56.5 1180.36,-75.5 1224.36,-75.5 1224.36,-56.5 1180.36,-56.5"/>
<text text-anchor="middle" x="1202.36" y="-63.5" font-family="Helvetica,sans-Serif" font-size="10.00">cmath</text>
</g>
<!-- Node2&#45;&gt;Node12 -->
<g id="edge11" class="edge"><title>Node2&#45;&gt;Node12</title>
<path fill="none" stroke="midnightblue" d="M815.984,-117.73C895.73,-112.751 1039.01,-101.262 1169.92,-75.9663"/>
<polygon fill="midnightblue" stroke="midnightblue" points="1170.98,-79.3236 1180.12,-73.961 1169.63,-72.455 1170.98,-79.3236"/>
</g>
<!-- Node13 -->
<g id="node13" class="node"><title>Node13</title>
<polygon fill="white" stroke="#bfbfbf" points="859.856,-56.5 859.856,-75.5 904.856,-75.5 904.856,-56.5 859.856,-56.5"/>
<text text-anchor="middle" x="882.356" y="-63.5" font-family="Helvetica,sans-Serif" font-size="10.00">iosfwd</text>
</g>
<!-- Node2&#45;&gt;Node13 -->
<g id="edge12" class="edge"><title>Node2&#45;&gt;Node13</title>
<path fill="none" stroke="midnightblue" d="M774.638,-112.444C795.703,-103.557 828.873,-89.5632 852.842,-79.4514"/>
<polygon fill="midnightblue" stroke="midnightblue" points="854.316,-82.6283 862.169,-75.5164 851.595,-76.1787 854.316,-82.6283"/>
</g>
<!-- Node14 -->
<g id="node14" class="node"><title>Node14</title>
<polygon fill="white" stroke="#bfbfbf" points="1242.36,-56.5 1242.36,-75.5 1296.36,-75.5 1296.36,-56.5 1242.36,-56.5"/>
<text text-anchor="middle" x="1269.36" y="-63.5" font-family="Helvetica,sans-Serif" font-size="10.00">iostream</text>
</g>
<!-- Node2&#45;&gt;Node14 -->
<g id="edge13" class="edge"><title>Node2&#45;&gt;Node14</title>
<path fill="none" stroke="midnightblue" d="M815.993,-118.196C905.605,-113.461 1077.17,-101.917 1232.14,-75.9555"/>
<polygon fill="midnightblue" stroke="midnightblue" points="1233.05,-79.351 1242.32,-74.2245 1231.88,-72.45 1233.05,-79.351"/>
</g>
<!-- Node15 -->
<g id="node15" class="node"><title>Node15</title>
<polygon fill="white" stroke="#bfbfbf" points="922.856,-56.5 922.856,-75.5 973.856,-75.5 973.856,-56.5 922.856,-56.5"/>
<text text-anchor="middle" x="948.356" y="-63.5" font-family="Helvetica,sans-Serif" font-size="10.00">unistd.h</text>
</g>
<!-- Node2&#45;&gt;Node15 -->
<g id="edge14" class="edge"><title>Node2&#45;&gt;Node15</title>
<path fill="none" stroke="midnightblue" d="M785.096,-112.444C819.863,-102.766 876.383,-87.0336 912.963,-76.8518"/>
<polygon fill="midnightblue" stroke="midnightblue" points="914.021,-80.1903 922.716,-74.1368 912.144,-73.4466 914.021,-80.1903"/>
</g>
<!-- Node16 -->
<g id="node16" class="node"><title>Node16</title>
<polygon fill="white" stroke="#bfbfbf" points="992.356,-56.5 992.356,-75.5 1036.36,-75.5 1036.36,-56.5 992.356,-56.5"/>
<text text-anchor="middle" x="1014.36" y="-63.5" font-family="Helvetica,sans-Serif" font-size="10.00">fcntl.h</text>
</g>
<!-- Node2&#45;&gt;Node16 -->
<g id="edge15" class="edge"><title>Node2&#45;&gt;Node16</title>
<path fill="none" stroke="midnightblue" d="M803.523,-112.46C847.692,-104.527 914.511,-91.881 982.066,-75.9028"/>
<polygon fill="midnightblue" stroke="midnightblue" points="983.122,-79.2489 992.035,-73.5213 981.496,-72.4405 983.122,-79.2489"/>
</g>
<!-- Node17 -->
<g id="node17" class="node"><title>Node17</title>
<polygon fill="white" stroke="#bfbfbf" points="1384.86,-56.5 1384.86,-75.5 1425.86,-75.5 1425.86,-56.5 1384.86,-56.5"/>
<text text-anchor="middle" x="1405.36" y="-63.5" font-family="Helvetica,sans-Serif" font-size="10.00">string</text>
</g>
<!-- Node2&#45;&gt;Node17 -->
<g id="edge16" class="edge"><title>Node2&#45;&gt;Node17</title>
<path fill="none" stroke="midnightblue" d="M816.18,-120.981C926.733,-119.978 1165.49,-113.411 1374.9,-75.6227"/>
<polygon fill="midnightblue" stroke="midnightblue" points="1375.64,-79.0448 1384.84,-73.7995 1374.38,-72.1594 1375.64,-79.0448"/>
</g>
<!-- Node18 -->
<g id="node18" class="node"><title>Node18</title>
<polygon fill="white" stroke="#bfbfbf" points="683.356,-0.5 683.356,-19.5 727.356,-19.5 727.356,-0.5 683.356,-0.5"/>
<text text-anchor="middle" x="705.356" y="-7.5" font-family="Helvetica,sans-Serif" font-size="10.00">vector</text>
</g>
<!-- Node2&#45;&gt;Node18 -->
<g id="edge17" class="edge"><title>Node2&#45;&gt;Node18</title>
<path fill="none" stroke="midnightblue" d="M747.288,-112.177C740.582,-103.436 730.624,-89.4463 724.356,-76 717.371,-61.0149 712.327,-42.8792 709.199,-29.5761"/>
<polygon fill="midnightblue" stroke="midnightblue" points="712.595,-28.7237 707.021,-19.7133 705.759,-30.2327 712.595,-28.7237"/>
</g>
<!-- Node19 -->
<g id="node19" class="node"><title>Node19</title>
<polygon fill="white" stroke="#bfbfbf" points="1054.86,-56.5 1054.86,-75.5 1097.86,-75.5 1097.86,-56.5 1054.86,-56.5"/>
<text text-anchor="middle" x="1076.36" y="-63.5" font-family="Helvetica,sans-Serif" font-size="10.00">deque</text>
</g>
<!-- Node2&#45;&gt;Node19 -->
<g id="edge18" class="edge"><title>Node2&#45;&gt;Node19</title>
<path fill="none" stroke="midnightblue" d="M816.098,-113.803C873.103,-106.627 960.234,-94.3144 1044.98,-75.8196"/>
<polygon fill="midnightblue" stroke="midnightblue" points="1045.76,-79.2321 1054.77,-73.6537 1044.25,-72.3975 1045.76,-79.2321"/>
</g>
<!-- Node20 -->
<g id="node20" class="node"><title>Node20</title>
<polygon fill="white" stroke="#bfbfbf" points="131.356,-0.5 131.356,-19.5 175.356,-19.5 175.356,-0.5 131.356,-0.5"/>
<text text-anchor="middle" x="153.356" y="-7.5" font-family="Helvetica,sans-Serif" font-size="10.00">mutex</text>
</g>
<!-- Node2&#45;&gt;Node20 -->
<g id="edge19" class="edge"><title>Node2&#45;&gt;Node20</title>
<path fill="none" stroke="midnightblue" d="M692.839,-118.936C557.263,-113.97 241.405,-99.9592 199.356,-76 181.008,-65.5455 168.179,-44.4252 160.814,-29.0894"/>
<polygon fill="midnightblue" stroke="midnightblue" points="163.854,-27.3103 156.589,-19.5986 157.459,-30.1576 163.854,-27.3103"/>
</g>
<!-- Node21 -->
<g id="node21" class="node"><title>Node21</title>
<polygon fill="white" stroke="#bfbfbf" points="193.356,-0.5 193.356,-19.5 237.356,-19.5 237.356,-0.5 193.356,-0.5"/>
<text text-anchor="middle" x="215.356" y="-7.5" font-family="Helvetica,sans-Serif" font-size="10.00">thread</text>
</g>
<!-- Node2&#45;&gt;Node21 -->
<g id="edge20" class="edge"><title>Node2&#45;&gt;Node21</title>
<path fill="none" stroke="midnightblue" d="M692.767,-120.493C557.214,-118.736 242.491,-110.902 210.356,-76 199.005,-63.6717 202.457,-43.8608 207.385,-29.3467"/>
<polygon fill="midnightblue" stroke="midnightblue" points="210.697,-30.4861 211.045,-19.897 204.17,-27.9584 210.697,-30.4861"/>
</g>
<!-- Node22 -->
<g id="node22" class="node"><title>Node22</title>
<polygon fill="white" stroke="#bfbfbf" points="301.856,-0.5 301.856,-19.5 396.856,-19.5 396.856,-0.5 301.856,-0.5"/>
<text text-anchor="middle" x="349.356" y="-7.5" font-family="Helvetica,sans-Serif" font-size="10.00">condition_variable</text>
</g>
<!-- Node2&#45;&gt;Node22 -->
<g id="edge21" class="edge"><title>Node2&#45;&gt;Node22</title>
<path fill="none" stroke="midnightblue" d="M692.582,-117.817C607.47,-112.603 459.22,-100.297 411.356,-76 389.706,-65.0099 371.458,-43.3468 360.482,-28.0571"/>
<polygon fill="midnightblue" stroke="midnightblue" points="363.164,-25.78 354.622,-19.513 357.392,-29.7394 363.164,-25.78"/>
</g>
<!-- Node23 -->
<g id="node23" class="node"><title>Node23</title>
<polygon fill="white" stroke="#bfbfbf" points="414.856,-0.5 414.856,-19.5 457.856,-19.5 457.856,-0.5 414.856,-0.5"/>
<text text-anchor="middle" x="436.356" y="-7.5" font-family="Helvetica,sans-Serif" font-size="10.00">queue</text>
</g>
<!-- Node2&#45;&gt;Node23 -->
<g id="edge22" class="edge"><title>Node2&#45;&gt;Node23</title>
<path fill="none" stroke="midnightblue" d="M692.688,-121.939C606.06,-121.786 455.017,-115.644 420.356,-76 408.92,-62.92 416.298,-42.9496 424.415,-28.5973"/>
<polygon fill="midnightblue" stroke="midnightblue" points="427.63,-30.0544 429.931,-19.7124 421.683,-26.3623 427.63,-30.0544"/>
</g>
<!-- Node24 -->
<g id="node24" class="node"><title>Node24</title>
<polygon fill="white" stroke="#bfbfbf" points="1314.36,-56.5 1314.36,-75.5 1366.36,-75.5 1366.36,-56.5 1314.36,-56.5"/>
<text text-anchor="middle" x="1340.36" y="-63.5" font-family="Helvetica,sans-Serif" font-size="10.00">sstream</text>
</g>
<!-- Node2&#45;&gt;Node24 -->
<g id="edge23" class="edge"><title>Node2&#45;&gt;Node24</title>
<path fill="none" stroke="midnightblue" d="M815.93,-119.386C916.363,-116.006 1121.72,-105.974 1304.05,-75.9444"/>
<polygon fill="midnightblue" stroke="midnightblue" points="1304.8,-79.3671 1314.09,-74.2666 1303.65,-72.4629 1304.8,-79.3671"/>
</g>
<!-- Node25 -->
<g id="node25" class="node"><title>Node25</title>
<polygon fill="white" stroke="#bfbfbf" points="23.856,-0.5 23.856,-19.5 58.856,-19.5 58.856,-0.5 23.856,-0.5"/>
<text text-anchor="middle" x="41.356" y="-7.5" font-family="Helvetica,sans-Serif" font-size="10.00">map</text>
</g>
<!-- Node2&#45;&gt;Node25 -->
<g id="edge24" class="edge"><title>Node2&#45;&gt;Node25</title>
<path fill="none" stroke="midnightblue" d="M692.768,-119.575C517.793,-115.228 28.7997,-100.894 5.35601,-76 -8.4259,-61.3652 7.91128,-40.4616 22.8055,-26.3443"/>
<polygon fill="midnightblue" stroke="midnightblue" points="25.1722,-28.9233 30.2955,-19.6496 20.5072,-23.7042 25.1722,-28.9233"/>
</g>
<!-- Node26 -->
<g id="node26" class="node"><title>Node26</title>
<g id="a_node26"><a xlink:href="cosmos-defs_8h.html" target="_top" xlink:title="COSMOS definitions Definitions specific to the COSMOS environement. ">
<polygon fill="white" stroke="black" points="219.356,-56.5 219.356,-75.5 335.356,-75.5 335.356,-56.5 219.356,-56.5"/>
<text text-anchor="middle" x="277.356" y="-63.5" font-family="Helvetica,sans-Serif" font-size="10.00">support/cosmos&#45;defs.h</text>
</a>
</g>
</g>
<!-- Node2&#45;&gt;Node26 -->
<g id="edge25" class="edge"><title>Node2&#45;&gt;Node26</title>
<path fill="none" stroke="midnightblue" d="M692.573,-114.401C613.126,-105.855 470.901,-90.3484 349.356,-76 348.089,-75.8505 346.81,-75.6987 345.522,-75.5451"/>
<polygon fill="midnightblue" stroke="midnightblue" points="345.854,-72.0598 335.507,-74.3382 345.016,-79.0095 345.854,-72.0598"/>
</g>
<!-- Node26&#45;&gt;Node18 -->
<g id="edge27" class="edge"><title>Node26&#45;&gt;Node18</title>
<path fill="none" stroke="midnightblue" d="M335.523,-57.6611C426.832,-46.1409 600.807,-24.1908 672.857,-15.1003"/>
<polygon fill="midnightblue" stroke="midnightblue" points="673.639,-18.5295 683.123,-13.8051 672.763,-11.5845 673.639,-18.5295"/>
</g>
<!-- Node26&#45;&gt;Node20 -->
<g id="edge31" class="edge"><title>Node26&#45;&gt;Node20</title>
<path fill="none" stroke="midnightblue" d="M257.708,-56.4435C237.391,-47.5961 205.453,-33.6875 182.258,-23.5865"/>
<polygon fill="midnightblue" stroke="midnightblue" points="183.478,-20.3002 172.912,-19.5164 180.683,-26.7181 183.478,-20.3002"/>
</g>
<!-- Node26&#45;&gt;Node21 -->
<g id="edge30" class="edge"><title>Node26&#45;&gt;Node21</title>
<path fill="none" stroke="midnightblue" d="M267.395,-56.324C258.229,-48.3414 244.419,-36.3128 233.328,-26.6529"/>
<polygon fill="midnightblue" stroke="midnightblue" points="235.338,-23.7624 225.499,-19.8339 230.741,-29.041 235.338,-23.7624"/>
</g>
<!-- Node26&#45;&gt;Node22 -->
<g id="edge32" class="edge"><title>Node26&#45;&gt;Node22</title>
<path fill="none" stroke="midnightblue" d="M288.924,-56.324C299.776,-48.1849 316.237,-35.8395 329.239,-26.0874"/>
<polygon fill="midnightblue" stroke="midnightblue" points="331.677,-28.6339 337.577,-19.8339 327.477,-23.0339 331.677,-28.6339"/>
</g>
<!-- Node26&#45;&gt;Node23 -->
<g id="edge29" class="edge"><title>Node26&#45;&gt;Node23</title>
<path fill="none" stroke="midnightblue" d="M302.55,-56.4435C330.4,-46.985 375.282,-31.7421 405.289,-21.551"/>
<polygon fill="midnightblue" stroke="midnightblue" points="406.506,-24.8342 414.849,-18.3042 404.255,-18.206 406.506,-24.8342"/>
</g>
<!-- Node26&#45;&gt;Node25 -->
<g id="edge26" class="edge"><title>Node26&#45;&gt;Node25</title>
<path fill="none" stroke="midnightblue" d="M239.961,-56.4435C192.393,-45.5594 111.351,-27.0158 68.9951,-17.3242"/>
<polygon fill="midnightblue" stroke="midnightblue" points="69.633,-13.8798 59.1042,-15.061 68.0716,-20.7034 69.633,-13.8798"/>
</g>
<!-- Node27 -->
<g id="node27" class="node"><title>Node27</title>
<polygon fill="white" stroke="#bfbfbf" points="254.856,-0.5 254.856,-19.5 283.856,-19.5 283.856,-0.5 254.856,-0.5"/>
<text text-anchor="middle" x="269.356" y="-7.5" font-family="Helvetica,sans-Serif" font-size="10.00">list</text>
</g>
<!-- Node26&#45;&gt;Node27 -->
<g id="edge28" class="edge"><title>Node26&#45;&gt;Node27</title>
<path fill="none" stroke="midnightblue" d="M276.035,-56.083C274.975,-48.9272 273.45,-38.6353 272.125,-29.6911"/>
<polygon fill="midnightblue" stroke="midnightblue" points="275.58,-29.1302 270.652,-19.7511 268.656,-30.1561 275.58,-29.1302"/>
</g>
<!-- Node28&#45;&gt;Node2 -->
<g id="edge34" class="edge"><title>Node28&#45;&gt;Node2</title>
<path fill="none" stroke="midnightblue" d="M670.661,-392.347C655.212,-384.876 634.718,-372.65 622.356,-356 604.415,-331.834 603.356,-321.098 603.356,-291 603.356,-291 603.356,-291 603.356,-233 603.356,-179.629 665.746,-149.421 710.319,-134.65"/>
<polygon fill="midnightblue" stroke="midnightblue" points="711.612,-137.912 720.092,-131.56 709.502,-131.237 711.612,-137.912"/>
</g>
<!-- Node29 -->
<g id="node29" class="node"><title>Node29</title>
<g id="a_node29"><a xlink:href="cosmos-errno_8h.html" target="_top" xlink:title="COSMOS Error Codes. ">
<polygon fill="white" stroke="black" points="631.856,-336.5 631.856,-355.5 750.856,-355.5 750.856,-336.5 631.856,-336.5"/>
<text text-anchor="middle" x="691.356" y="-343.5" font-family="Helvetica,sans-Serif" font-size="10.00">support/cosmos&#45;errno.h</text>
</a>
</g>
</g>
<!-- Node28&#45;&gt;Node29 -->
<g id="edge35" class="edge"><title>Node28&#45;&gt;Node29</title>
<path fill="none" stroke="midnightblue" d="M691.356,-392.083C691.356,-385.006 691.356,-374.861 691.356,-365.986"/>
<polygon fill="midnightblue" stroke="midnightblue" points="694.856,-365.751 691.356,-355.751 687.856,-365.751 694.856,-365.751"/>
</g>
<!-- Node29&#45;&gt;Node2 -->
<g id="edge36" class="edge"><title>Node29&#45;&gt;Node2</title>
<path fill="none" stroke="midnightblue" d="M693.607,-336.499C700.399,-310.935 721.386,-232.547 740.356,-168 742.955,-159.158 745.977,-149.385 748.547,-141.212"/>
<polygon fill="midnightblue" stroke="midnightblue" points="751.908,-142.192 751.591,-131.602 745.234,-140.078 751.908,-142.192"/>
</g>
<!-- Node30 -->
<g id="node30" class="node"><title>Node30</title>
<polygon fill="white" stroke="#bfbfbf" points="782.856,-280.5 782.856,-299.5 829.856,-299.5 829.856,-280.5 782.856,-280.5"/>
<text text-anchor="middle" x="806.356" y="-287.5" font-family="Helvetica,sans-Serif" font-size="10.00">errno.h</text>
</g>
<!-- Node29&#45;&gt;Node30 -->
<g id="edge37" class="edge"><title>Node29&#45;&gt;Node30</title>
<path fill="none" stroke="midnightblue" d="M709.578,-336.444C728.252,-327.675 757.512,-313.935 778.973,-303.858"/>
<polygon fill="midnightblue" stroke="midnightblue" points="780.655,-306.935 788.219,-299.516 777.68,-300.599 780.655,-306.935"/>
</g>
<!-- Node32 -->
<g id="node32" class="node"><title>Node32</title>
<g id="a_node32"><a xlink:href="jsonvalue_8h.html" target="_top" xlink:title="support/jsonvalue.h">
<polygon fill="white" stroke="black" points="847.856,-280.5 847.856,-299.5 948.856,-299.5 948.856,-280.5 847.856,-280.5"/>
<text text-anchor="middle" x="898.356" y="-287.5" font-family="Helvetica,sans-Serif" font-size="10.00">support/jsonvalue.h</text>
</a>
</g>
</g>
<!-- Node31&#45;&gt;Node32 -->
<g id="edge39" class="edge"><title>Node31&#45;&gt;Node32</title>
<path fill="none" stroke="midnightblue" d="M865.796,-336.083C871.305,-328.455 879.387,-317.264 886.121,-307.941"/>
<polygon fill="midnightblue" stroke="midnightblue" points="889.018,-309.907 892.036,-299.751 883.343,-305.809 889.018,-309.907"/>
</g>
<!-- Node32&#45;&gt;Node2 -->
<g id="edge40" class="edge"><title>Node32&#45;&gt;Node2</title>
<path fill="none" stroke="midnightblue" d="M890.614,-280.075C867.456,-253.38 798.48,-173.865 768.515,-139.322"/>
<polygon fill="midnightblue" stroke="midnightblue" points="770.985,-136.829 761.789,-131.568 765.698,-141.416 770.985,-136.829"/>
</g>
<!-- Node33 -->
<g id="node33" class="node"><title>Node33</title>
<g id="a_node33"><a xlink:href="vector_8h.html" target="_top" xlink:title="math/vector.h">
<polygon fill="white" stroke="black" points="1102.86,-224.5 1102.86,-243.5 1179.86,-243.5 1179.86,-224.5 1102.86,-224.5"/>
<text text-anchor="middle" x="1141.36" y="-231.5" font-family="Helvetica,sans-Serif" font-size="10.00">math/vector.h</text>
</a>
</g>
</g>
<!-- Node32&#45;&gt;Node33 -->
<g id="edge41" class="edge"><title>Node32&#45;&gt;Node33</title>
<path fill="none" stroke="midnightblue" d="M936.86,-280.444C979.162,-271.043 1047.17,-255.929 1093.03,-245.739"/>
<polygon fill="midnightblue" stroke="midnightblue" points="1094.03,-249.102 1103.03,-243.516 1092.51,-242.269 1094.03,-249.102"/>
</g>
<!-- Node33&#45;&gt;Node2 -->
<g id="edge42" class="edge"><title>Node33&#45;&gt;Node2</title>
<path fill="none" stroke="midnightblue" d="M1119.11,-224.36C1096.6,-215.531 1060.87,-201.27 1030.36,-188 1011.03,-179.594 1007.41,-174.491 987.356,-168 934.589,-150.919 872.886,-139.358 826.237,-132.236"/>
<polygon fill="midnightblue" stroke="midnightblue" points="826.629,-128.755 816.221,-130.739 825.594,-135.679 826.629,-128.755"/>
</g>
<!-- Node33&#45;&gt;Node12 -->
<g id="edge48" class="edge"><title>Node33&#45;&gt;Node12</title>
<path fill="none" stroke="midnightblue" d="M1152.91,-224.38C1162.97,-216.195 1177.04,-202.947 1184.36,-188 1200.64,-154.735 1203.09,-110.644 1203,-85.9111"/>
<polygon fill="midnightblue" stroke="midnightblue" points="1206.49,-85.6696 1202.81,-75.7367 1199.5,-85.8003 1206.49,-85.6696"/>
</g>
<!-- Node33&#45;&gt;Node14 -->
<g id="edge46" class="edge"><title>Node33&#45;&gt;Node14</title>
<path fill="none" stroke="midnightblue" d="M1156.05,-224.443C1169.11,-216.301 1188.14,-203.08 1201.36,-188 1229.57,-155.811 1251.37,-110.038 1262.07,-85.0283"/>
<polygon fill="midnightblue" stroke="midnightblue" points="1265.35,-86.2581 1265.96,-75.6811 1258.89,-83.566 1265.35,-86.2581"/>
</g>
<!-- Node33&#45;&gt;Node18 -->
<g id="edge49" class="edge"><title>Node33&#45;&gt;Node18</title>
<path fill="none" stroke="midnightblue" d="M1179.89,-225.687C1277.24,-205.684 1519.53,-145.522 1435.36,-56 1411.14,-30.2462 876.53,-15.2437 737.934,-11.7781"/>
<polygon fill="midnightblue" stroke="midnightblue" points="737.647,-8.27004 727.564,-11.522 737.474,-15.2679 737.647,-8.27004"/>
</g>
<!-- Node34 -->
<g id="node34" class="node"><title>Node34</title>
<g id="a_node34"><a xlink:href="math_2constants_8h.html" target="_top" xlink:title="constants.h">
<polygon fill="white" stroke="black" points="1107.36,-168.5 1107.36,-187.5 1175.36,-187.5 1175.36,-168.5 1107.36,-168.5"/>
<text text-anchor="middle" x="1141.36" y="-175.5" font-family="Helvetica,sans-Serif" font-size="10.00">constants.h</text>
</a>
</g>
</g>
<!-- Node33&#45;&gt;Node34 -->
<g id="edge43" class="edge"><title>Node33&#45;&gt;Node34</title>
<path fill="none" stroke="midnightblue" d="M1141.36,-224.083C1141.36,-217.006 1141.36,-206.861 1141.36,-197.986"/>
<polygon fill="midnightblue" stroke="midnightblue" points="1144.86,-197.751 1141.36,-187.751 1137.86,-197.751 1144.86,-197.751"/>
</g>
<!-- Node35 -->
<g id="node35" class="node"><title>Node35</title>
<polygon fill="white" stroke="#bfbfbf" points="1039.36,-168.5 1039.36,-187.5 1089.36,-187.5 1089.36,-168.5 1039.36,-168.5"/>
<text text-anchor="middle" x="1064.36" y="-175.5" font-family="Helvetica,sans-Serif" font-size="10.00">iomanip</text>
</g>
<!-- Node33&#45;&gt;Node35 -->
<g id="edge47" class="edge"><title>Node33&#45;&gt;Node35</title>
<path fill="none" stroke="midnightblue" d="M1128.98,-224.324C1117.2,-216.058 1099.22,-203.453 1085.22,-193.632"/>
<polygon fill="midnightblue" stroke="midnightblue" points="1086.89,-190.531 1076.7,-187.655 1082.87,-196.262 1086.89,-190.531"/>
</g>
<!-- Node34&#45;&gt;Node2 -->
<g id="edge44" class="edge"><title>Node34&#45;&gt;Node2</title>
<path fill="none" stroke="midnightblue" d="M1107.13,-169.592C1104.17,-169.025 1101.21,-168.485 1098.36,-168 1004.69,-152.095 895.843,-138.705 826.089,-130.77"/>
<polygon fill="midnightblue" stroke="midnightblue" points="826.417,-127.284 816.087,-129.639 825.631,-134.24 826.417,-127.284"/>
</g>
<!-- Node34&#45;&gt;Node5 -->
<g id="edge45" class="edge"><title>Node34&#45;&gt;Node5</title>
<path fill="none" stroke="midnightblue" d="M1141.2,-168.368C1140.88,-150.617 1140.13,-109.666 1139.69,-85.5974"/>
<polygon fill="midnightblue" stroke="midnightblue" points="1143.19,-85.5261 1139.51,-75.5914 1136.19,-85.6534 1143.19,-85.5261"/>
</g>
<!-- Node36&#45;&gt;Node2 -->
<g id="edge51" class="edge"><title>Node36&#45;&gt;Node2</title>
<path fill="none" stroke="midnightblue" d="M960.734,-392.206C965.856,-371.413 976.028,-318.107 957.356,-280 921.3,-206.417 832.275,-157.528 785,-135.831"/>
<polygon fill="midnightblue" stroke="midnightblue" points="786.137,-132.505 775.579,-131.614 783.277,-138.894 786.137,-132.505"/>
</g>
<!-- Node36&#45;&gt;Node17 -->
<g id="edge54" class="edge"><title>Node36&#45;&gt;Node17</title>
<path fill="none" stroke="midnightblue" d="M1005.77,-399.338C1120.81,-394.02 1405.36,-372.618 1405.36,-291 1405.36,-291 1405.36,-291 1405.36,-177 1405.36,-144.948 1405.36,-107.643 1405.36,-85.7489"/>
<polygon fill="midnightblue" stroke="midnightblue" points="1408.86,-85.5577 1405.36,-75.5578 1401.86,-85.5578 1408.86,-85.5577"/>
</g>
<!-- Node36&#45;&gt;Node24 -->
<g id="edge55" class="edge"><title>Node36&#45;&gt;Node24</title>
<path fill="none" stroke="midnightblue" d="M1005.67,-398.267C1113.33,-390.756 1367.36,-365.174 1367.36,-291 1367.36,-291 1367.36,-291 1367.36,-177 1367.36,-143.861 1355.65,-106.682 1347.66,-85.1445"/>
<polygon fill="midnightblue" stroke="midnightblue" points="1350.86,-83.7302 1344,-75.6622 1344.33,-86.2517 1350.86,-83.7302"/>
</g>
<!-- Node36&#45;&gt;Node30 -->
<g id="edge53" class="edge"><title>Node36&#45;&gt;Node30</title>
<path fill="none" stroke="midnightblue" d="M955.362,-392.183C950.257,-378.386 938.614,-351.657 920.356,-336 907.822,-325.251 868.585,-310.996 839.63,-301.437"/>
<polygon fill="midnightblue" stroke="midnightblue" points="840.47,-298.029 829.878,-298.264 838.305,-304.686 840.47,-298.029"/>
</g>
<!-- Node36&#45;&gt;Node31 -->
<g id="edge52" class="edge"><title>Node36&#45;&gt;Node31</title>
<path fill="none" stroke="midnightblue" d="M942.45,-392.324C926.718,-383.743 902.414,-370.486 884.147,-360.522"/>
<polygon fill="midnightblue" stroke="midnightblue" points="885.678,-357.37 875.223,-355.655 882.326,-363.516 885.678,-357.37"/>
</g>
</g>
</svg>
        <g id="navigator" transform="translate(0 0)" fill="#404254">
                <rect fill="#f2f5e9" fill-opacity="0.5" stroke="#606060" stroke-width=".5" x="0" y="0" width="60" height="60"/>
                <use id="zoomplus" xlink:href="#zoomPlus" x="17" y="9" onmousedown="handleZoom(evt,'in')"/>
                <use id="zoomminus" xlink:href="#zoomMin" x="42" y="9" onmousedown="handleZoom(evt,'out')"/>
                <use id="reset" xlink:href="#resetDef" x="30" y="36" onmousedown="handleReset()"/>
                <g id="arrowUp" xlink:href="#dirArrow" transform="translate(30 24)" onmousedown="handlePan(0,-1)">
                  <use xlink:href="#rim" fill="#404040">
                        <set attributeName="fill" to="#808080" begin="arrowUp.mouseover" end="arrowUp.mouseout"/>
                  </use>
                  <path fill="none" stroke="white" stroke-width="1.5" d="M0,-3.0v7 M-2.5,-0.5L0,-3.0L2.5,-0.5"/>
                </g>
                <g id="arrowRight" xlink:href="#dirArrow" transform="rotate(90) translate(36 -43)" onmousedown="handlePan(1,0)">
                  <use xlink:href="#rim" fill="#404040">
                        <set attributeName="fill" to="#808080" begin="arrowRight.mouseover" end="arrowRight.mouseout"/>
                  </use>
                  <path fill="none" stroke="white" stroke-width="1.5" d="M0,-3.0v7 M-2.5,-0.5L0,-3.0L2.5,-0.5"/>
                </g>
                <g id="arrowDown" xlink:href="#dirArrow" transform="rotate(180) translate(-30 -48)" onmousedown="handlePan(0,1)">
                  <use xlink:href="#rim" fill="#404040">
                        <set attributeName="fill" to="#808080" begin="arrowDown.mouseover" end="arrowDown.mouseout"/>
                  </use>
                  <path fill="none" stroke="white" stroke-width="1.5" d="M0,-3.0v7 M-2.5,-0.5L0,-3.0L2.5,-0.5"/>
                </g>
                <g id="arrowLeft" xlink:href="#dirArrow" transform="rotate(270) translate(-36 17)" onmousedown="handlePan(-1,0)">
                  <use xlink:href="#rim" fill="#404040">
                        <set attributeName="fill" to="#808080" begin="arrowLeft.mouseover" end="arrowLeft.mouseout"/>
                  </use>
                  <path fill="none" stroke="white" stroke-width="1.5" d="M0,-3.0v7 M-2.5,-0.5L0,-3.0L2.5,-0.5"/>
                </g>
        </g>
        <svg viewBox="0 0 15 15" width="100%" height="30px" preserveAspectRatio="xMaxYMin meet">
         <g id="arrow_out" transform="scale(0.3 0.3)">
          <a xlink:href="tab2json_8cpp__incl_org.svg" target="_base">
           <rect id="button" ry="5" rx="5" y="6" x="6" height="38" width="38"
                fill="#f2f5e9" fill-opacity="0.5" stroke="#606060" stroke-width="1.0"/>
           <path id="arrow"
             d="M 11.500037,31.436501 C 11.940474,20.09759 22.043105,11.32322 32.158766,21.979434 L 37.068811,17.246167 C 37.068811,17.246167 37.088388,32 37.088388,32 L 22.160133,31.978069 C 22.160133,31.978069 26.997745,27.140456 26.997745,27.140456 C 18.528582,18.264221 13.291696,25.230495 11.500037,31.436501 z"
             style="fill:#404040;"/>
          </a>
         </g>
        </svg>
</svg>
