<?xml version="1.0" encoding="UTF-8" standalone="no"?>
<!DOCTYPE svg PUBLIC "-//W3C//DTD SVG 1.1//EN"
 "http://www.w3.org/Graphics/SVG/1.1/DTD/svg11.dtd">
<!-- Generated by graphviz version 2.38.0 (20140413.2041)
 -->
<!-- Title: testcontainer.cpp Pages: 1 -->
<svg width="1496pt" height="700pt"
 viewBox="0.00 0.00 1495.50 700.00" xmlns="http://www.w3.org/2000/svg" xmlns:xlink="http://www.w3.org/1999/xlink">
<g id="graph0" class="graph" transform="scale(1 1) rotate(0) translate(4 696)">
<title>testcontainer.cpp</title>
<polygon fill="white" stroke="none" points="-4,4 -4,-696 1491.5,-696 1491.5,4 -4,4"/>
<!-- Node1 -->
<g id="node1" class="node"><title>Node1</title>
<polygon fill="#bfbfbf" stroke="black" points="411,-672.5 411,-691.5 503,-691.5 503,-672.5 411,-672.5"/>
<text text-anchor="middle" x="457" y="-679.5" font-family="Helvetica,sans-Serif" font-size="10.00">testcontainer.cpp</text>
</g>
<!-- Node2 -->
<g id="node2" class="node"><title>Node2</title>
<g id="a_node2"><a xlink:href="testcontainer_8h.html" target="_top" xlink:title="testcontainer.h">
<polygon fill="white" stroke="black" points="441.5,-560.5 441.5,-579.5 522.5,-579.5 522.5,-560.5 441.5,-560.5"/>
<text text-anchor="middle" x="482" y="-567.5" font-family="Helvetica,sans-Serif" font-size="10.00">testcontainer.h</text>
</a>
</g>
</g>
<!-- Node1&#45;&gt;Node2 -->
<g id="edge1" class="edge"><title>Node1&#45;&gt;Node2</title>
<path fill="none" stroke="midnightblue" d="M415.7,-672.476C377.939,-662.704 330.807,-644.288 351,-616 369.105,-590.637 402.447,-579.421 430.962,-574.528"/>
<polygon fill="midnightblue" stroke="midnightblue" points="431.838,-577.936 441.211,-572.997 430.804,-571.013 431.838,-577.936"/>
</g>
<!-- Node42 -->
<g id="node42" class="node"><title>Node42</title>
<g id="a_node42"><a xlink:href="mainwindow_8h.html" target="_top" xlink:title="mainwindow.h">
<polygon fill="white" stroke="black" points="254.5,-504.5 254.5,-523.5 333.5,-523.5 333.5,-504.5 254.5,-504.5"/>
<text text-anchor="middle" x="294" y="-511.5" font-family="Helvetica,sans-Serif" font-size="10.00">mainwindow.h</text>
</a>
</g>
</g>
<!-- Node1&#45;&gt;Node42 -->
<g id="edge69" class="edge"><title>Node1&#45;&gt;Node42</title>
<path fill="none" stroke="midnightblue" d="M413.115,-672.496C389.733,-665.981 361.965,-654.799 343,-636 314.256,-607.508 301.77,-559.889 296.847,-533.691"/>
<polygon fill="midnightblue" stroke="midnightblue" points="300.258,-532.87 295.13,-523.599 293.357,-534.044 300.258,-532.87"/>
</g>
<!-- Node44 -->
<g id="node44" class="node"><title>Node44</title>
<polygon fill="white" stroke="#bfbfbf" points="360,-616.5 360,-635.5 454,-635.5 454,-616.5 360,-616.5"/>
<text text-anchor="middle" x="407" y="-623.5" font-family="Helvetica,sans-Serif" font-size="10.00">ui_testcontainer.h</text>
</g>
<!-- Node1&#45;&gt;Node44 -->
<g id="edge68" class="edge"><title>Node1&#45;&gt;Node44</title>
<path fill="none" stroke="midnightblue" d="M448.744,-672.083C441.535,-664.298 430.89,-652.801 422.154,-643.367"/>
<polygon fill="midnightblue" stroke="midnightblue" points="424.465,-640.711 415.103,-635.751 419.329,-645.467 424.465,-640.711"/>
</g>
<!-- Node45 -->
<g id="node45" class="node"><title>Node45</title>
<polygon fill="white" stroke="#bfbfbf" points="472.5,-616.5 472.5,-635.5 543.5,-635.5 543.5,-616.5 472.5,-616.5"/>
<text text-anchor="middle" x="508" y="-623.5" font-family="Helvetica,sans-Serif" font-size="10.00">QSizePolicy</text>
</g>
<!-- Node1&#45;&gt;Node45 -->
<g id="edge70" class="edge"><title>Node1&#45;&gt;Node45</title>
<path fill="none" stroke="midnightblue" d="M465.422,-672.083C472.848,-664.22 483.852,-652.569 492.812,-643.081"/>
<polygon fill="midnightblue" stroke="midnightblue" points="495.413,-645.424 499.735,-635.751 490.324,-640.618 495.413,-645.424"/>
</g>
<!-- Node46 -->
<g id="node46" class="node"><title>Node46</title>
<g id="a_node46"><a xlink:href="rearth__test_8h.html" target="_top" xlink:title="rearth_test.h">
<polygon fill="white" stroke="black" points="561.5,-616.5 561.5,-635.5 632.5,-635.5 632.5,-616.5 561.5,-616.5"/>
<text text-anchor="middle" x="597" y="-623.5" font-family="Helvetica,sans-Serif" font-size="10.00">rearth_test.h</text>
</a>
</g>
</g>
<!-- Node1&#45;&gt;Node46 -->
<g id="edge71" class="edge"><title>Node1&#45;&gt;Node46</title>
<path fill="none" stroke="midnightblue" d="M479.183,-672.444C502.428,-663.478 539.149,-649.314 565.415,-639.183"/>
<polygon fill="midnightblue" stroke="midnightblue" points="566.85,-642.381 574.92,-635.516 564.331,-635.85 566.85,-642.381"/>
</g>
<!-- Node48 -->
<g id="node48" class="node"><title>Node48</title>
<g id="a_node48"><a xlink:href="eci2kep__test_8h.html" target="_top" xlink:title="eci2kep_test.h">
<polygon fill="white" stroke="black" points="651,-616.5 651,-635.5 731,-635.5 731,-616.5 651,-616.5"/>
<text text-anchor="middle" x="691" y="-623.5" font-family="Helvetica,sans-Serif" font-size="10.00">eci2kep_test.h</text>
</a>
</g>
</g>
<!-- Node1&#45;&gt;Node48 -->
<g id="edge75" class="edge"><title>Node1&#45;&gt;Node48</title>
<path fill="none" stroke="midnightblue" d="M494.078,-672.444C534.728,-663.063 600.032,-647.993 644.184,-637.804"/>
<polygon fill="midnightblue" stroke="midnightblue" points="645.139,-641.175 654.095,-635.516 643.565,-634.355 645.139,-641.175"/>
</g>
<!-- Node3 -->
<g id="node3" class="node"><title>Node3</title>
<polygon fill="white" stroke="#bfbfbf" points="628.5,-504.5 628.5,-523.5 683.5,-523.5 683.5,-504.5 628.5,-504.5"/>
<text text-anchor="middle" x="656" y="-511.5" font-family="Helvetica,sans-Serif" font-size="10.00">QWidget</text>
</g>
<!-- Node2&#45;&gt;Node3 -->
<g id="edge2" class="edge"><title>Node2&#45;&gt;Node3</title>
<path fill="none" stroke="midnightblue" d="M509.571,-560.444C539.097,-551.28 586.118,-536.688 618.883,-526.519"/>
<polygon fill="midnightblue" stroke="midnightblue" points="620.045,-529.823 628.558,-523.516 617.97,-523.138 620.045,-529.823"/>
</g>
<!-- Node4 -->
<g id="node4" class="node"><title>Node4</title>
<polygon fill="white" stroke="#bfbfbf" points="454.5,-504.5 454.5,-523.5 525.5,-523.5 525.5,-504.5 454.5,-504.5"/>
<text text-anchor="middle" x="490" y="-511.5" font-family="Helvetica,sans-Serif" font-size="10.00">QListWidget</text>
</g>
<!-- Node2&#45;&gt;Node4 -->
<g id="edge3" class="edge"><title>Node2&#45;&gt;Node4</title>
<path fill="none" stroke="midnightblue" d="M483.321,-560.083C484.381,-552.927 485.906,-542.635 487.231,-533.691"/>
<polygon fill="midnightblue" stroke="midnightblue" points="490.7,-534.156 488.704,-523.751 483.776,-533.13 490.7,-534.156"/>
</g>
<!-- Node5 -->
<g id="node5" class="node"><title>Node5</title>
<g id="a_node5"><a xlink:href="convertlib_8h.html" target="_top" xlink:title="convertlib include file A library providing functions for conversion between the various position and...">
<polygon fill="white" stroke="black" points="543.5,-504.5 543.5,-523.5 610.5,-523.5 610.5,-504.5 543.5,-504.5"/>
<text text-anchor="middle" x="577" y="-511.5" font-family="Helvetica,sans-Serif" font-size="10.00">convertlib.h</text>
</a>
</g>
</g>
<!-- Node2&#45;&gt;Node5 -->
<g id="edge4" class="edge"><title>Node2&#45;&gt;Node5</title>
<path fill="none" stroke="midnightblue" d="M497.263,-560.324C512.221,-551.822 535.255,-538.729 552.727,-528.797"/>
<polygon fill="midnightblue" stroke="midnightblue" points="554.81,-531.639 561.774,-523.655 551.351,-525.553 554.81,-531.639"/>
</g>
<!-- Node32 -->
<g id="node32" class="node"><title>Node32</title>
<g id="a_node32"><a xlink:href="mathlib_8h.html" target="_top" xlink:title="mathlib include file ">
<polygon fill="white" stroke="black" points="330.5,-392.5 330.5,-411.5 411.5,-411.5 411.5,-392.5 330.5,-392.5"/>
<text text-anchor="middle" x="371" y="-399.5" font-family="Helvetica,sans-Serif" font-size="10.00">math/mathlib.h</text>
</a>
</g>
</g>
<!-- Node2&#45;&gt;Node32 -->
<g id="edge64" class="edge"><title>Node2&#45;&gt;Node32</title>
<path fill="none" stroke="midnightblue" d="M441.399,-561.309C419.878,-555.025 395.051,-543.805 381,-524 359.326,-493.45 362.924,-447.009 367.152,-421.459"/>
<polygon fill="midnightblue" stroke="midnightblue" points="370.596,-422.081 368.99,-411.608 363.715,-420.796 370.596,-422.081"/>
</g>
<!-- Node41 -->
<g id="node41" class="node"><title>Node41</title>
<polygon fill="white" stroke="#bfbfbf" points="390,-504.5 390,-523.5 436,-523.5 436,-504.5 390,-504.5"/>
<text text-anchor="middle" x="413" y="-511.5" font-family="Helvetica,sans-Serif" font-size="10.00">stdio.h</text>
</g>
<!-- Node2&#45;&gt;Node41 -->
<g id="edge65" class="edge"><title>Node2&#45;&gt;Node41</title>
<path fill="none" stroke="midnightblue" d="M470.914,-560.324C460.514,-552.185 444.739,-539.839 432.278,-530.087"/>
<polygon fill="midnightblue" stroke="midnightblue" points="434.32,-527.241 424.288,-523.834 430.006,-532.753 434.32,-527.241"/>
</g>
<!-- Node2&#45;&gt;Node42 -->
<g id="edge66" class="edge"><title>Node2&#45;&gt;Node42</title>
<path fill="none" stroke="midnightblue" d="M452.211,-560.444C420.171,-551.241 369.067,-536.562 333.647,-526.388"/>
<polygon fill="midnightblue" stroke="midnightblue" points="334.227,-522.913 323.65,-523.516 332.295,-529.641 334.227,-522.913"/>
</g>
<!-- Node6 -->
<g id="node6" class="node"><title>Node6</title>
<g id="a_node6"><a xlink:href="config_cosmos_8h.html" target="_top" xlink:title="Headers and definitions common to all COSMOS. ">
<polygon fill="white" stroke="black" points="555.5,-112.5 555.5,-131.5 678.5,-131.5 678.5,-112.5 555.5,-112.5"/>
<text text-anchor="middle" x="617" y="-119.5" font-family="Helvetica,sans-Serif" font-size="10.00">support/configCosmos.h</text>
</a>
</g>
</g>
<!-- Node5&#45;&gt;Node6 -->
<g id="edge5" class="edge"><title>Node5&#45;&gt;Node6</title>
<path fill="none" stroke="midnightblue" d="M592.528,-504.465C605.435,-496.603 623.353,-483.783 634,-468 650.831,-443.048 653,-433.098 653,-403 653,-403 653,-403 653,-233 653,-198.982 637.256,-161.85 626.591,-140.6"/>
<polygon fill="midnightblue" stroke="midnightblue" points="629.585,-138.772 621.855,-131.527 623.38,-142.012 629.585,-138.772"/>
</g>
<!-- Node5&#45;&gt;Node32 -->
<g id="edge37" class="edge"><title>Node5&#45;&gt;Node32</title>
<path fill="none" stroke="midnightblue" d="M560.836,-504.368C525.035,-485.251 438.847,-439.229 396.021,-416.361"/>
<polygon fill="midnightblue" stroke="midnightblue" points="397.559,-413.214 387.089,-411.591 394.262,-419.389 397.559,-413.214"/>
</g>
<!-- Node40 -->
<g id="node40" class="node"><title>Node40</title>
<g id="a_node40"><a xlink:href="convertdef_8h.html" target="_top" xlink:title="support/convertdef.h">
<polygon fill="white" stroke="black" points="519,-448.5 519,-467.5 625,-467.5 625,-448.5 519,-448.5"/>
<text text-anchor="middle" x="572" y="-455.5" font-family="Helvetica,sans-Serif" font-size="10.00">support/convertdef.h</text>
</a>
</g>
</g>
<!-- Node5&#45;&gt;Node40 -->
<g id="edge61" class="edge"><title>Node5&#45;&gt;Node40</title>
<path fill="none" stroke="midnightblue" d="M576.174,-504.083C575.519,-497.006 574.58,-486.861 573.758,-477.986"/>
<polygon fill="midnightblue" stroke="midnightblue" points="577.217,-477.386 572.81,-467.751 570.247,-478.031 577.217,-477.386"/>
</g>
<!-- Node7 -->
<g id="node7" class="node"><title>Node7</title>
<polygon fill="white" stroke="#bfbfbf" points="1241.5,-56.5 1241.5,-75.5 1286.5,-75.5 1286.5,-56.5 1241.5,-56.5"/>
<text text-anchor="middle" x="1264" y="-63.5" font-family="Helvetica,sans-Serif" font-size="10.00">climits</text>
</g>
<!-- Node6&#45;&gt;Node7 -->
<g id="edge6" class="edge"><title>Node6&#45;&gt;Node7</title>
<path fill="none" stroke="midnightblue" d="M678.86,-119.802C789.478,-116.913 1028.22,-107.289 1227,-76 1228.47,-75.7687 1229.97,-75.5086 1231.47,-75.2264"/>
<polygon fill="midnightblue" stroke="midnightblue" points="1232.36,-78.6156 1241.42,-73.1177 1230.91,-71.7678 1232.36,-78.6156"/>
</g>
<!-- Node8 -->
<g id="node8" class="node"><title>Node8</title>
<polygon fill="white" stroke="#bfbfbf" points="1304.5,-56.5 1304.5,-75.5 1351.5,-75.5 1351.5,-56.5 1304.5,-56.5"/>
<text text-anchor="middle" x="1328" y="-63.5" font-family="Helvetica,sans-Serif" font-size="10.00">csignal</text>
</g>
<!-- Node6&#45;&gt;Node8 -->
<g id="edge7" class="edge"><title>Node6&#45;&gt;Node8</title>
<path fill="none" stroke="midnightblue" d="M678.831,-121.183C797.068,-120.606 1063.31,-114.831 1294.42,-75.9369"/>
<polygon fill="midnightblue" stroke="midnightblue" points="1295.09,-79.3736 1304.36,-74.2403 1293.91,-72.4734 1295.09,-79.3736"/>
</g>
<!-- Node9 -->
<g id="node9" class="node"><title>Node9</title>
<polygon fill="white" stroke="#bfbfbf" points="172,-56.5 172,-75.5 218,-75.5 218,-56.5 172,-56.5"/>
<text text-anchor="middle" x="195" y="-63.5" font-family="Helvetica,sans-Serif" font-size="10.00">cstdint</text>
</g>
<!-- Node6&#45;&gt;Node9 -->
<g id="edge8" class="edge"><title>Node6&#45;&gt;Node9</title>
<path fill="none" stroke="midnightblue" d="M555.314,-116.131C478.997,-109.57 345.267,-96.3167 232,-76 230.719,-75.7702 229.416,-75.5225 228.102,-75.2611"/>
<polygon fill="midnightblue" stroke="midnightblue" points="228.517,-71.7691 218,-73.0554 227.023,-78.608 228.517,-71.7691"/>
</g>
<!-- Node10 -->
<g id="node10" class="node"><title>Node10</title>
<polygon fill="white" stroke="#bfbfbf" points="1370,-56.5 1370,-75.5 1426,-75.5 1426,-56.5 1370,-56.5"/>
<text text-anchor="middle" x="1398" y="-63.5" font-family="Helvetica,sans-Serif" font-size="10.00">cinttypes</text>
</g>
<!-- Node6&#45;&gt;Node10 -->
<g id="edge9" class="edge"><title>Node6&#45;&gt;Node10</title>
<path fill="none" stroke="midnightblue" d="M678.63,-120.972C804.922,-120.114 1102.21,-113.986 1359.9,-75.8879"/>
<polygon fill="midnightblue" stroke="midnightblue" points="1360.45,-79.3448 1369.82,-74.4024 1359.41,-72.422 1360.45,-79.3448"/>
</g>
<!-- Node11 -->
<g id="node11" class="node"><title>Node11</title>
<polygon fill="white" stroke="#bfbfbf" points="1444.5,-56.5 1444.5,-75.5 1487.5,-75.5 1487.5,-56.5 1444.5,-56.5"/>
<text text-anchor="middle" x="1466" y="-63.5" font-family="Helvetica,sans-Serif" font-size="10.00">cstdio</text>
</g>
<!-- Node6&#45;&gt;Node11 -->
<g id="edge10" class="edge"><title>Node6&#45;&gt;Node11</title>
<path fill="none" stroke="midnightblue" d="M678.589,-119.427C839.634,-115.03 1271.42,-101.346 1434.58,-75.5665"/>
<polygon fill="midnightblue" stroke="midnightblue" points="1435.17,-79.0157 1444.47,-73.9313 1434.03,-72.1095 1435.17,-79.0157"/>
</g>
<!-- Node12 -->
<g id="node12" class="node"><title>Node12</title>
<polygon fill="white" stroke="#bfbfbf" points="274.5,-56.5 274.5,-75.5 323.5,-75.5 323.5,-56.5 274.5,-56.5"/>
<text text-anchor="middle" x="299" y="-63.5" font-family="Helvetica,sans-Serif" font-size="10.00">cstddef</text>
</g>
<!-- Node6&#45;&gt;Node12 -->
<g id="edge11" class="edge"><title>Node6&#45;&gt;Node12</title>
<path fill="none" stroke="midnightblue" d="M555.487,-113.272C499.786,-105.825 415.318,-93.4159 333.728,-76.1989"/>
<polygon fill="midnightblue" stroke="midnightblue" points="334.305,-72.7432 323.795,-74.0754 332.842,-79.5886 334.305,-72.7432"/>
</g>
<!-- Node13 -->
<g id="node13" class="node"><title>Node13</title>
<polygon fill="white" stroke="#bfbfbf" points="341.5,-56.5 341.5,-75.5 386.5,-75.5 386.5,-56.5 341.5,-56.5"/>
<text text-anchor="middle" x="364" y="-63.5" font-family="Helvetica,sans-Serif" font-size="10.00">cstdlib</text>
</g>
<!-- Node6&#45;&gt;Node13 -->
<g id="edge12" class="edge"><title>Node6&#45;&gt;Node13</title>
<path fill="none" stroke="midnightblue" d="M569.787,-112.425C527.082,-104.436 462.27,-91.7348 396.763,-76.0387"/>
<polygon fill="midnightblue" stroke="midnightblue" points="397.214,-72.547 386.672,-73.5979 395.569,-79.3508 397.214,-72.547"/>
</g>
<!-- Node14 -->
<g id="node14" class="node"><title>Node14</title>
<polygon fill="white" stroke="#bfbfbf" points="405,-56.5 405,-75.5 449,-75.5 449,-56.5 405,-56.5"/>
<text text-anchor="middle" x="427" y="-63.5" font-family="Helvetica,sans-Serif" font-size="10.00">cerrno</text>
</g>
<!-- Node6&#45;&gt;Node14 -->
<g id="edge13" class="edge"><title>Node6&#45;&gt;Node14</title>
<path fill="none" stroke="midnightblue" d="M586.501,-112.434C556.419,-103.971 508.876,-90.5567 458.734,-76.197"/>
<polygon fill="midnightblue" stroke="midnightblue" points="459.587,-72.8009 449.01,-73.4099 457.659,-79.5299 459.587,-72.8009"/>
</g>
<!-- Node15 -->
<g id="node15" class="node"><title>Node15</title>
<polygon fill="white" stroke="#bfbfbf" points="467,-56.5 467,-75.5 513,-75.5 513,-56.5 467,-56.5"/>
<text text-anchor="middle" x="490" y="-63.5" font-family="Helvetica,sans-Serif" font-size="10.00">cstring</text>
</g>
<!-- Node6&#45;&gt;Node15 -->
<g id="edge14" class="edge"><title>Node6&#45;&gt;Node15</title>
<path fill="none" stroke="midnightblue" d="M596.876,-112.444C575.976,-103.557 543.065,-89.5632 519.284,-79.4514"/>
<polygon fill="midnightblue" stroke="midnightblue" points="520.602,-76.2085 510.029,-75.5164 517.862,-82.6504 520.602,-76.2085"/>
</g>
<!-- Node16 -->
<g id="node16" class="node"><title>Node16</title>
<polygon fill="white" stroke="#bfbfbf" points="72,-56.5 72,-75.5 116,-75.5 116,-56.5 72,-56.5"/>
<text text-anchor="middle" x="94" y="-63.5" font-family="Helvetica,sans-Serif" font-size="10.00">cmath</text>
</g>
<!-- Node6&#45;&gt;Node16 -->
<g id="edge15" class="edge"><title>Node6&#45;&gt;Node16</title>
<path fill="none" stroke="midnightblue" d="M555.252,-115.489C467.844,-107.55 303.067,-92.0726 163,-76 150.962,-74.6187 137.766,-72.9383 126.166,-71.4052"/>
<polygon fill="midnightblue" stroke="midnightblue" points="126.417,-67.9077 116.042,-70.0514 125.49,-74.8459 126.417,-67.9077"/>
</g>
<!-- Node17 -->
<g id="node17" class="node"><title>Node17</title>
<polygon fill="white" stroke="#bfbfbf" points="531.5,-56.5 531.5,-75.5 576.5,-75.5 576.5,-56.5 531.5,-56.5"/>
<text text-anchor="middle" x="554" y="-63.5" font-family="Helvetica,sans-Serif" font-size="10.00">iosfwd</text>
</g>
<!-- Node6&#45;&gt;Node17 -->
<g id="edge16" class="edge"><title>Node6&#45;&gt;Node17</title>
<path fill="none" stroke="midnightblue" d="M606.878,-112.324C597.474,-104.263 583.256,-92.0765 571.931,-82.3695"/>
<polygon fill="midnightblue" stroke="midnightblue" points="574.177,-79.6844 564.306,-75.8339 569.621,-84.9993 574.177,-79.6844"/>
</g>
<!-- Node18 -->
<g id="node18" class="node"><title>Node18</title>
<polygon fill="white" stroke="#bfbfbf" points="0,-56.5 0,-75.5 54,-75.5 54,-56.5 0,-56.5"/>
<text text-anchor="middle" x="27" y="-63.5" font-family="Helvetica,sans-Serif" font-size="10.00">iostream</text>
</g>
<!-- Node6&#45;&gt;Node18 -->
<g id="edge17" class="edge"><title>Node6&#45;&gt;Node18</title>
<path fill="none" stroke="midnightblue" d="M555.113,-119.28C454.165,-115.75 247.737,-105.508 64.1375,-75.9149"/>
<polygon fill="midnightblue" stroke="midnightblue" points="64.4613,-72.4215 54.0275,-74.2617 63.3316,-79.3297 64.4613,-72.4215"/>
</g>
<!-- Node19 -->
<g id="node19" class="node"><title>Node19</title>
<polygon fill="white" stroke="#bfbfbf" points="594.5,-56.5 594.5,-75.5 645.5,-75.5 645.5,-56.5 594.5,-56.5"/>
<text text-anchor="middle" x="620" y="-63.5" font-family="Helvetica,sans-Serif" font-size="10.00">unistd.h</text>
</g>
<!-- Node6&#45;&gt;Node19 -->
<g id="edge18" class="edge"><title>Node6&#45;&gt;Node19</title>
<path fill="none" stroke="midnightblue" d="M617.495,-112.083C617.889,-105.006 618.452,-94.8611 618.945,-85.9865"/>
<polygon fill="midnightblue" stroke="midnightblue" points="622.454,-85.9299 619.514,-75.7511 615.464,-85.5415 622.454,-85.9299"/>
</g>
<!-- Node20 -->
<g id="node20" class="node"><title>Node20</title>
<polygon fill="white" stroke="#bfbfbf" points="664,-56.5 664,-75.5 708,-75.5 708,-56.5 664,-56.5"/>
<text text-anchor="middle" x="686" y="-63.5" font-family="Helvetica,sans-Serif" font-size="10.00">fcntl.h</text>
</g>
<!-- Node6&#45;&gt;Node20 -->
<g id="edge19" class="edge"><title>Node6&#45;&gt;Node20</title>
<path fill="none" stroke="midnightblue" d="M628.086,-112.324C638.486,-104.185 654.261,-91.8395 666.722,-82.0874"/>
<polygon fill="midnightblue" stroke="midnightblue" points="668.994,-84.7533 674.712,-75.8339 664.68,-79.2407 668.994,-84.7533"/>
</g>
<!-- Node21 -->
<g id="node21" class="node"><title>Node21</title>
<polygon fill="white" stroke="#bfbfbf" points="726.5,-56.5 726.5,-75.5 767.5,-75.5 767.5,-56.5 726.5,-56.5"/>
<text text-anchor="middle" x="747" y="-63.5" font-family="Helvetica,sans-Serif" font-size="10.00">string</text>
</g>
<!-- Node6&#45;&gt;Node21 -->
<g id="edge20" class="edge"><title>Node6&#45;&gt;Node21</title>
<path fill="none" stroke="midnightblue" d="M637.599,-112.444C658.993,-103.557 692.681,-89.5632 717.024,-79.4514"/>
<polygon fill="midnightblue" stroke="midnightblue" points="718.605,-82.5848 726.497,-75.5164 715.92,-76.1203 718.605,-82.5848"/>
</g>
<!-- Node22 -->
<g id="node22" class="node"><title>Node22</title>
<polygon fill="white" stroke="#bfbfbf" points="224,-0.5 224,-19.5 268,-19.5 268,-0.5 224,-0.5"/>
<text text-anchor="middle" x="246" y="-7.5" font-family="Helvetica,sans-Serif" font-size="10.00">vector</text>
</g>
<!-- Node6&#45;&gt;Node22 -->
<g id="edge21" class="edge"><title>Node6&#45;&gt;Node22</title>
<path fill="none" stroke="midnightblue" d="M555.352,-121.004C466.244,-119.731 307.458,-112.257 265,-76 251.748,-64.6837 247.472,-44.6821 246.221,-29.8458"/>
<polygon fill="midnightblue" stroke="midnightblue" points="249.712,-29.5649 245.755,-19.7367 242.719,-29.8873 249.712,-29.5649"/>
</g>
<!-- Node23 -->
<g id="node23" class="node"><title>Node23</title>
<polygon fill="white" stroke="#bfbfbf" points="785.5,-56.5 785.5,-75.5 828.5,-75.5 828.5,-56.5 785.5,-56.5"/>
<text text-anchor="middle" x="807" y="-63.5" font-family="Helvetica,sans-Serif" font-size="10.00">deque</text>
</g>
<!-- Node6&#45;&gt;Node23 -->
<g id="edge22" class="edge"><title>Node6&#45;&gt;Node23</title>
<path fill="none" stroke="midnightblue" d="M647.499,-112.434C677.581,-103.971 725.124,-90.5567 775.544,-76.1166"/>
<polygon fill="midnightblue" stroke="midnightblue" points="776.677,-79.433 785.325,-73.3129 774.748,-72.704 776.677,-79.433"/>
</g>
<!-- Node24 -->
<g id="node24" class="node"><title>Node24</title>
<polygon fill="white" stroke="#bfbfbf" points="837,-0.5 837,-19.5 881,-19.5 881,-0.5 837,-0.5"/>
<text text-anchor="middle" x="859" y="-7.5" font-family="Helvetica,sans-Serif" font-size="10.00">mutex</text>
</g>
<!-- Node6&#45;&gt;Node24 -->
<g id="edge23" class="edge"><title>Node6&#45;&gt;Node24</title>
<path fill="none" stroke="midnightblue" d="M678.616,-115.256C735.27,-108.784 813.872,-96.4119 837,-76 850.239,-64.3154 855.523,-44.372 857.625,-29.65"/>
<polygon fill="midnightblue" stroke="midnightblue" points="861.113,-29.9474 858.691,-19.633 854.152,-29.2063 861.113,-29.9474"/>
</g>
<!-- Node25 -->
<g id="node25" class="node"><title>Node25</title>
<polygon fill="white" stroke="#bfbfbf" points="901,-0.5 901,-19.5 945,-19.5 945,-0.5 901,-0.5"/>
<text text-anchor="middle" x="923" y="-7.5" font-family="Helvetica,sans-Serif" font-size="10.00">thread</text>
</g>
<!-- Node6&#45;&gt;Node25 -->
<g id="edge24" class="edge"><title>Node6&#45;&gt;Node25</title>
<path fill="none" stroke="midnightblue" d="M678.707,-119.483C729.458,-115.96 801.894,-105.567 858,-76 879.952,-64.4317 899.216,-42.938 910.96,-27.8429"/>
<polygon fill="midnightblue" stroke="midnightblue" points="913.776,-29.9205 916.968,-19.8179 908.173,-25.7249 913.776,-29.9205"/>
</g>
<!-- Node26 -->
<g id="node26" class="node"><title>Node26</title>
<polygon fill="white" stroke="#bfbfbf" points="1016.5,-0.5 1016.5,-19.5 1111.5,-19.5 1111.5,-0.5 1016.5,-0.5"/>
<text text-anchor="middle" x="1064" y="-7.5" font-family="Helvetica,sans-Serif" font-size="10.00">condition_variable</text>
</g>
<!-- Node6&#45;&gt;Node26 -->
<g id="edge25" class="edge"><title>Node6&#45;&gt;Node26</title>
<path fill="none" stroke="midnightblue" d="M678.799,-118.437C791.353,-113.209 1020.74,-99.7538 1048,-76 1060.99,-64.6842 1064.3,-44.6825 1064.79,-29.8461"/>
<polygon fill="midnightblue" stroke="midnightblue" points="1068.29,-29.7141 1064.72,-19.7368 1061.29,-29.7592 1068.29,-29.7141"/>
</g>
<!-- Node27 -->
<g id="node27" class="node"><title>Node27</title>
<polygon fill="white" stroke="#bfbfbf" points="1131.5,-0.5 1131.5,-19.5 1174.5,-19.5 1174.5,-0.5 1131.5,-0.5"/>
<text text-anchor="middle" x="1153" y="-7.5" font-family="Helvetica,sans-Serif" font-size="10.00">queue</text>
</g>
<!-- Node6&#45;&gt;Node27 -->
<g id="edge26" class="edge"><title>Node6&#45;&gt;Node27</title>
<path fill="none" stroke="midnightblue" d="M678.529,-120.442C813.113,-118.583 1124.21,-110.553 1156,-76 1167.32,-63.6906 1164.55,-43.8767 1160.19,-29.3568"/>
<polygon fill="midnightblue" stroke="midnightblue" points="1163.5,-28.2081 1156.92,-19.9026 1156.88,-30.4973 1163.5,-28.2081"/>
</g>
<!-- Node28 -->
<g id="node28" class="node"><title>Node28</title>
<polygon fill="white" stroke="#bfbfbf" points="1095,-56.5 1095,-75.5 1147,-75.5 1147,-56.5 1095,-56.5"/>
<text text-anchor="middle" x="1121" y="-63.5" font-family="Helvetica,sans-Serif" font-size="10.00">sstream</text>
</g>
<!-- Node6&#45;&gt;Node28 -->
<g id="edge27" class="edge"><title>Node6&#45;&gt;Node28</title>
<path fill="none" stroke="midnightblue" d="M678.858,-117.461C768.098,-111.799 937.956,-98.9372 1081,-76 1082.27,-75.7971 1083.55,-75.5783 1084.85,-75.3468"/>
<polygon fill="midnightblue" stroke="midnightblue" points="1085.71,-78.7446 1094.84,-73.3766 1084.35,-71.8767 1085.71,-78.7446"/>
</g>
<!-- Node29 -->
<g id="node29" class="node"><title>Node29</title>
<polygon fill="white" stroke="#bfbfbf" points="1193.5,-0.5 1193.5,-19.5 1228.5,-19.5 1228.5,-0.5 1193.5,-0.5"/>
<text text-anchor="middle" x="1211" y="-7.5" font-family="Helvetica,sans-Serif" font-size="10.00">map</text>
</g>
<!-- Node6&#45;&gt;Node29 -->
<g id="edge28" class="edge"><title>Node6&#45;&gt;Node29</title>
<path fill="none" stroke="midnightblue" d="M678.526,-119.207C814.523,-114.79 1131.93,-101.821 1173,-76 1189.74,-65.4747 1199.97,-44.6902 1205.53,-29.4473"/>
<polygon fill="midnightblue" stroke="midnightblue" points="1208.98,-30.1464 1208.78,-19.5535 1202.34,-27.9592 1208.98,-30.1464"/>
</g>
<!-- Node30 -->
<g id="node30" class="node"><title>Node30</title>
<g id="a_node30"><a xlink:href="cosmos-defs_8h.html" target="_top" xlink:title="COSMOS definitions Definitions specific to the COSMOS environement. ">
<polygon fill="white" stroke="black" points="923,-56.5 923,-75.5 1039,-75.5 1039,-56.5 923,-56.5"/>
<text text-anchor="middle" x="981" y="-63.5" font-family="Helvetica,sans-Serif" font-size="10.00">support/cosmos&#45;defs.h</text>
</a>
</g>
</g>
<!-- Node6&#45;&gt;Node30 -->
<g id="edge29" class="edge"><title>Node6&#45;&gt;Node30</title>
<path fill="none" stroke="midnightblue" d="M674.677,-112.444C739.507,-102.826 844.651,-87.2275 913.317,-77.0409"/>
<polygon fill="midnightblue" stroke="midnightblue" points="914.215,-80.4461 923.593,-75.5164 913.188,-73.5219 914.215,-80.4461"/>
</g>
<!-- Node30&#45;&gt;Node22 -->
<g id="edge31" class="edge"><title>Node30&#45;&gt;Node22</title>
<path fill="none" stroke="midnightblue" d="M922.711,-60.7176C775.517,-49.9033 392.438,-21.7587 278.452,-13.3843"/>
<polygon fill="midnightblue" stroke="midnightblue" points="278.508,-9.87901 268.279,-12.6368 277.995,-16.8602 278.508,-9.87901"/>
</g>
<!-- Node30&#45;&gt;Node24 -->
<g id="edge35" class="edge"><title>Node30&#45;&gt;Node24</title>
<path fill="none" stroke="midnightblue" d="M961.669,-56.4435C941.68,-47.5961 910.257,-33.6875 887.436,-23.5865"/>
<polygon fill="midnightblue" stroke="midnightblue" points="888.802,-20.3635 878.241,-19.5164 885.968,-26.7645 888.802,-20.3635"/>
</g>
<!-- Node30&#45;&gt;Node25 -->
<g id="edge34" class="edge"><title>Node30&#45;&gt;Node25</title>
<path fill="none" stroke="midnightblue" d="M971.681,-56.324C963.107,-48.3414 950.188,-36.3128 939.812,-26.6529"/>
<polygon fill="midnightblue" stroke="midnightblue" points="942.192,-24.0865 932.488,-19.8339 937.422,-29.2098 942.192,-24.0865"/>
</g>
<!-- Node30&#45;&gt;Node26 -->
<g id="edge36" class="edge"><title>Node30&#45;&gt;Node26</title>
<path fill="none" stroke="midnightblue" d="M994.335,-56.324C1007.16,-47.979 1026.78,-35.2122 1041.94,-25.3524"/>
<polygon fill="midnightblue" stroke="midnightblue" points="1044.22,-28.0417 1050.7,-19.6545 1040.41,-22.1742 1044.22,-28.0417"/>
</g>
<!-- Node30&#45;&gt;Node27 -->
<g id="edge33" class="edge"><title>Node30&#45;&gt;Node27</title>
<path fill="none" stroke="midnightblue" d="M1008.25,-56.4435C1039.02,-46.7829 1089.02,-31.088 1121.45,-20.9046"/>
<polygon fill="midnightblue" stroke="midnightblue" points="1122.83,-24.1414 1131.32,-17.8067 1120.73,-17.4628 1122.83,-24.1414"/>
</g>
<!-- Node30&#45;&gt;Node29 -->
<g id="edge30" class="edge"><title>Node30&#45;&gt;Node29</title>
<path fill="none" stroke="midnightblue" d="M1025.68,-56.4814C1064.85,-48.7037 1123.48,-36.3152 1183.35,-19.9421"/>
<polygon fill="midnightblue" stroke="midnightblue" points="1184.66,-23.2127 1193.36,-17.1706 1182.79,-16.4666 1184.66,-23.2127"/>
</g>
<!-- Node31 -->
<g id="node31" class="node"><title>Node31</title>
<polygon fill="white" stroke="#bfbfbf" points="966.5,-0.5 966.5,-19.5 995.5,-19.5 995.5,-0.5 966.5,-0.5"/>
<text text-anchor="middle" x="981" y="-7.5" font-family="Helvetica,sans-Serif" font-size="10.00">list</text>
</g>
<!-- Node30&#45;&gt;Node31 -->
<g id="edge32" class="edge"><title>Node30&#45;&gt;Node31</title>
<path fill="none" stroke="midnightblue" d="M981,-56.083C981,-49.0059 981,-38.8611 981,-29.9865"/>
<polygon fill="midnightblue" stroke="midnightblue" points="984.5,-29.751 981,-19.7511 977.5,-29.7511 984.5,-29.751"/>
</g>
<!-- Node32&#45;&gt;Node6 -->
<g id="edge38" class="edge"><title>Node32&#45;&gt;Node6</title>
<path fill="none" stroke="midnightblue" d="M411.831,-401.425C452.41,-399.673 514.063,-390.828 553,-356 575.953,-335.47 577,-321.795 577,-291 577,-291 577,-291 577,-233 577,-198.617 594.474,-161.631 606.323,-140.503"/>
<polygon fill="midnightblue" stroke="midnightblue" points="609.424,-142.133 611.438,-131.731 603.377,-138.607 609.424,-142.133"/>
</g>
<!-- Node32&#45;&gt;Node16 -->
<g id="edge59" class="edge"><title>Node32&#45;&gt;Node16</title>
<path fill="none" stroke="midnightblue" d="M330.464,-395.546C245.388,-382.962 56,-348.492 56,-291 56,-291 56,-291 56,-233 56,-178.231 75.8985,-115.802 86.8971,-85.479"/>
<polygon fill="midnightblue" stroke="midnightblue" points="90.2792,-86.4262 90.4932,-75.8335 83.7202,-83.9808 90.2792,-86.4262"/>
</g>
<!-- Node32&#45;&gt;Node18 -->
<g id="edge60" class="edge"><title>Node32&#45;&gt;Node18</title>
<path fill="none" stroke="midnightblue" d="M330.269,-400.727C275.22,-398.952 175.096,-390.692 98,-356 56.2226,-337.201 18,-336.812 18,-291 18,-291 18,-291 18,-177 18,-144.841 21.8684,-107.569 24.5329,-85.7107"/>
<polygon fill="midnightblue" stroke="midnightblue" points="28.0369,-85.8993 25.8234,-75.5383 21.0926,-85.0183 28.0369,-85.8993"/>
</g>
<!-- Node33 -->
<g id="node33" class="node"><title>Node33</title>
<g id="a_node33"><a xlink:href="cosmos-errno_8h.html" target="_top" xlink:title="COSMOS Error Codes. ">
<polygon fill="white" stroke="black" points="311.5,-336.5 311.5,-355.5 430.5,-355.5 430.5,-336.5 311.5,-336.5"/>
<text text-anchor="middle" x="371" y="-343.5" font-family="Helvetica,sans-Serif" font-size="10.00">support/cosmos&#45;errno.h</text>
</a>
</g>
</g>
<!-- Node32&#45;&gt;Node33 -->
<g id="edge39" class="edge"><title>Node32&#45;&gt;Node33</title>
<path fill="none" stroke="midnightblue" d="M371,-392.083C371,-385.006 371,-374.861 371,-365.986"/>
<polygon fill="midnightblue" stroke="midnightblue" points="374.5,-365.751 371,-355.751 367.5,-365.751 374.5,-365.751"/>
</g>
<!-- Node35 -->
<g id="node35" class="node"><title>Node35</title>
<g id="a_node35"><a xlink:href="math_2constants_8h.html" target="_top" xlink:title="constants.h">
<polygon fill="white" stroke="black" points="203,-168.5 203,-187.5 271,-187.5 271,-168.5 203,-168.5"/>
<text text-anchor="middle" x="237" y="-175.5" font-family="Helvetica,sans-Serif" font-size="10.00">constants.h</text>
</a>
</g>
</g>
<!-- Node32&#45;&gt;Node35 -->
<g id="edge42" class="edge"><title>Node32&#45;&gt;Node35</title>
<path fill="none" stroke="midnightblue" d="M344.893,-392.449C327.046,-385.339 304.148,-373.523 290,-356 251.439,-308.238 240.913,-232.976 238.055,-198.017"/>
<polygon fill="midnightblue" stroke="midnightblue" points="241.531,-197.54 237.351,-187.804 234.547,-198.021 241.531,-197.54"/>
</g>
<!-- Node36 -->
<g id="node36" class="node"><title>Node36</title>
<g id="a_node36"><a xlink:href="vector_8h.html" target="_top" xlink:title="vector.h">
<polygon fill="white" stroke="black" points="265,-224.5 265,-243.5 317,-243.5 317,-224.5 265,-224.5"/>
<text text-anchor="middle" x="291" y="-231.5" font-family="Helvetica,sans-Serif" font-size="10.00">vector.h</text>
</a>
</g>
</g>
<!-- Node32&#45;&gt;Node36 -->
<g id="edge45" class="edge"><title>Node32&#45;&gt;Node36</title>
<path fill="none" stroke="midnightblue" d="M348.033,-392.376C332.274,-385.174 312.398,-373.277 302,-356 282.852,-324.185 284.837,-278.908 287.945,-253.728"/>
<polygon fill="midnightblue" stroke="midnightblue" points="291.429,-254.089 289.38,-243.694 284.499,-253.098 291.429,-254.089"/>
</g>
<!-- Node38 -->
<g id="node38" class="node"><title>Node38</title>
<g id="a_node38"><a xlink:href="matrix_8h.html" target="_top" xlink:title="matrix.h">
<polygon fill="white" stroke="black" points="459,-280.5 459,-299.5 511,-299.5 511,-280.5 459,-280.5"/>
<text text-anchor="middle" x="485" y="-287.5" font-family="Helvetica,sans-Serif" font-size="10.00">matrix.h</text>
</a>
</g>
</g>
<!-- Node32&#45;&gt;Node38 -->
<g id="edge52" class="edge"><title>Node32&#45;&gt;Node38</title>
<path fill="none" stroke="midnightblue" d="M387.327,-392.487C401.917,-384.375 423.345,-371.173 439,-356 453.539,-341.909 466.498,-322.667 474.926,-308.78"/>
<polygon fill="midnightblue" stroke="midnightblue" points="478.175,-310.16 480.22,-299.764 472.138,-306.615 478.175,-310.16"/>
</g>
<!-- Node39 -->
<g id="node39" class="node"><title>Node39</title>
<g id="a_node39"><a xlink:href="rotation_8h.html" target="_top" xlink:title="rotation.h">
<polygon fill="white" stroke="black" points="487.5,-336.5 487.5,-355.5 544.5,-355.5 544.5,-336.5 487.5,-336.5"/>
<text text-anchor="middle" x="516" y="-343.5" font-family="Helvetica,sans-Serif" font-size="10.00">rotation.h</text>
</a>
</g>
</g>
<!-- Node32&#45;&gt;Node39 -->
<g id="edge55" class="edge"><title>Node32&#45;&gt;Node39</title>
<path fill="none" stroke="midnightblue" d="M393.976,-392.444C418.157,-383.438 456.418,-369.189 483.646,-359.049"/>
<polygon fill="midnightblue" stroke="midnightblue" points="484.982,-362.286 493.132,-355.516 482.539,-355.727 484.982,-362.286"/>
</g>
<!-- Node33&#45;&gt;Node6 -->
<g id="edge40" class="edge"><title>Node33&#45;&gt;Node6</title>
<path fill="none" stroke="midnightblue" d="M375.571,-336.355C390.813,-308.281 442.703,-218.576 509,-168 528.658,-153.004 554.039,-142.095 575.256,-134.776"/>
<polygon fill="midnightblue" stroke="midnightblue" points="576.583,-138.024 584.984,-131.568 574.391,-131.376 576.583,-138.024"/>
</g>
<!-- Node34 -->
<g id="node34" class="node"><title>Node34</title>
<polygon fill="white" stroke="#bfbfbf" points="317.5,-280.5 317.5,-299.5 364.5,-299.5 364.5,-280.5 317.5,-280.5"/>
<text text-anchor="middle" x="341" y="-287.5" font-family="Helvetica,sans-Serif" font-size="10.00">errno.h</text>
</g>
<!-- Node33&#45;&gt;Node34 -->
<g id="edge41" class="edge"><title>Node33&#45;&gt;Node34</title>
<path fill="none" stroke="midnightblue" d="M366.046,-336.083C361.896,-328.613 355.847,-317.724 350.733,-308.52"/>
<polygon fill="midnightblue" stroke="midnightblue" points="353.778,-306.793 345.862,-299.751 347.659,-310.192 353.778,-306.793"/>
</g>
<!-- Node35&#45;&gt;Node6 -->
<g id="edge43" class="edge"><title>Node35&#45;&gt;Node6</title>
<path fill="none" stroke="midnightblue" d="M271.224,-169.6C274.187,-169.031 277.143,-168.489 280,-168 371.033,-152.417 476.679,-139.072 545.069,-131.051"/>
<polygon fill="midnightblue" stroke="midnightblue" points="545.772,-134.493 555.299,-129.858 544.961,-127.54 545.772,-134.493"/>
</g>
<!-- Node35&#45;&gt;Node9 -->
<g id="edge44" class="edge"><title>Node35&#45;&gt;Node9</title>
<path fill="none" stroke="midnightblue" d="M233.704,-168.368C226.865,-150.456 211.007,-108.923 201.853,-84.9482"/>
<polygon fill="midnightblue" stroke="midnightblue" points="205.117,-83.6851 198.28,-75.5914 198.578,-86.1821 205.117,-83.6851"/>
</g>
<!-- Node36&#45;&gt;Node6 -->
<g id="edge46" class="edge"><title>Node36&#45;&gt;Node6</title>
<path fill="none" stroke="midnightblue" d="M304.824,-224.365C327.461,-210.577 374.206,-183.563 417,-168 460.692,-152.111 511.869,-140.721 551.517,-133.375"/>
<polygon fill="midnightblue" stroke="midnightblue" points="552.381,-136.775 561.596,-131.548 551.132,-129.888 552.381,-136.775"/>
</g>
<!-- Node36&#45;&gt;Node16 -->
<g id="edge50" class="edge"><title>Node36&#45;&gt;Node16</title>
<path fill="none" stroke="midnightblue" d="M264.745,-230.211C235.214,-225.839 187.301,-214.878 156,-188 139.18,-173.557 113.661,-115.157 101.266,-85.0882"/>
<polygon fill="midnightblue" stroke="midnightblue" points="104.477,-83.6944 97.4647,-75.7524 97.9941,-86.334 104.477,-83.6944"/>
</g>
<!-- Node36&#45;&gt;Node18 -->
<g id="edge48" class="edge"><title>Node36&#45;&gt;Node18</title>
<path fill="none" stroke="midnightblue" d="M264.888,-229.693C232.95,-224.706 178.183,-213.04 138,-188 93.8267,-160.474 56.2019,-110.664 38.2535,-84.3573"/>
<polygon fill="midnightblue" stroke="midnightblue" points="41.0158,-82.1911 32.5555,-75.8135 35.1921,-86.075 41.0158,-82.1911"/>
</g>
<!-- Node36&#45;&gt;Node22 -->
<g id="edge51" class="edge"><title>Node36&#45;&gt;Node22</title>
<path fill="none" stroke="midnightblue" d="M264.58,-227.29C242.618,-221.196 212.128,-209.382 194,-188 160.599,-148.604 169.952,-127.179 163,-76 161.804,-67.192 158.453,-63.6378 163,-56 174.088,-37.3758 195.867,-25.9852 214.333,-19.3246"/>
<polygon fill="midnightblue" stroke="midnightblue" points="215.485,-22.6304 223.888,-16.1772 213.295,-15.9818 215.485,-22.6304"/>
</g>
<!-- Node36&#45;&gt;Node35 -->
<g id="edge47" class="edge"><title>Node36&#45;&gt;Node35</title>
<path fill="none" stroke="midnightblue" d="M282.083,-224.083C274.22,-216.22 262.569,-204.569 253.081,-195.081"/>
<polygon fill="midnightblue" stroke="midnightblue" points="255.297,-192.347 245.751,-187.751 250.347,-197.297 255.297,-192.347"/>
</g>
<!-- Node37 -->
<g id="node37" class="node"><title>Node37</title>
<polygon fill="white" stroke="#bfbfbf" points="289,-168.5 289,-187.5 339,-187.5 339,-168.5 289,-168.5"/>
<text text-anchor="middle" x="314" y="-175.5" font-family="Helvetica,sans-Serif" font-size="10.00">iomanip</text>
</g>
<!-- Node36&#45;&gt;Node37 -->
<g id="edge49" class="edge"><title>Node36&#45;&gt;Node37</title>
<path fill="none" stroke="midnightblue" d="M294.798,-224.083C297.913,-216.77 302.423,-206.181 306.289,-197.103"/>
<polygon fill="midnightblue" stroke="midnightblue" points="309.574,-198.323 310.273,-187.751 303.134,-195.58 309.574,-198.323"/>
</g>
<!-- Node38&#45;&gt;Node6 -->
<g id="edge53" class="edge"><title>Node38&#45;&gt;Node6</title>
<path fill="none" stroke="midnightblue" d="M485.607,-280.26C487.543,-258.651 495.321,-202.005 525,-168 538.318,-152.741 557.998,-142.152 575.742,-135.098"/>
<polygon fill="midnightblue" stroke="midnightblue" points="577.189,-138.295 585.348,-131.536 574.755,-131.731 577.189,-138.295"/>
</g>
<!-- Node38&#45;&gt;Node36 -->
<g id="edge54" class="edge"><title>Node38&#45;&gt;Node36</title>
<path fill="none" stroke="midnightblue" d="M458.836,-281.717C424.752,-272.23 365.012,-255.601 326.764,-244.955"/>
<polygon fill="midnightblue" stroke="midnightblue" points="327.631,-241.563 317.058,-242.253 325.753,-248.307 327.631,-241.563"/>
</g>
<!-- Node39&#45;&gt;Node6 -->
<g id="edge56" class="edge"><title>Node39&#45;&gt;Node6</title>
<path fill="none" stroke="midnightblue" d="M516.476,-336.147C518.307,-308.919 526.752,-224.827 563,-168 570.871,-155.66 583.22,-145.005 594.123,-137.166"/>
<polygon fill="midnightblue" stroke="midnightblue" points="596.146,-140.023 602.444,-131.503 592.207,-134.236 596.146,-140.023"/>
</g>
<!-- Node39&#45;&gt;Node36 -->
<g id="edge57" class="edge"><title>Node39&#45;&gt;Node36</title>
<path fill="none" stroke="midnightblue" d="M498.345,-336.368C459.077,-317.171 364.313,-270.842 317.742,-248.074"/>
<polygon fill="midnightblue" stroke="midnightblue" points="319.094,-244.839 308.573,-243.591 316.02,-251.128 319.094,-244.839"/>
</g>
<!-- Node39&#45;&gt;Node38 -->
<g id="edge58" class="edge"><title>Node39&#45;&gt;Node38</title>
<path fill="none" stroke="midnightblue" d="M510.881,-336.083C506.592,-328.613 500.342,-317.724 495.058,-308.52"/>
<polygon fill="midnightblue" stroke="midnightblue" points="498.038,-306.681 490.024,-299.751 491.967,-310.166 498.038,-306.681"/>
</g>
<!-- Node40&#45;&gt;Node6 -->
<g id="edge62" class="edge"><title>Node40&#45;&gt;Node6</title>
<path fill="none" stroke="midnightblue" d="M577.979,-448.328C589.794,-430.318 615,-387.189 615,-347 615,-347 615,-347 615,-233 615,-200.943 615.86,-163.639 616.452,-141.747"/>
<polygon fill="midnightblue" stroke="midnightblue" points="619.956,-141.651 616.739,-131.557 612.959,-141.454 619.956,-141.651"/>
</g>
<!-- Node40&#45;&gt;Node32 -->
<g id="edge63" class="edge"><title>Node40&#45;&gt;Node32</title>
<path fill="none" stroke="midnightblue" d="M540.151,-448.444C505.602,-439.162 450.318,-424.309 412.417,-414.127"/>
<polygon fill="midnightblue" stroke="midnightblue" points="413.266,-410.731 402.7,-411.516 411.449,-417.491 413.266,-410.731"/>
</g>
<!-- Node43 -->
<g id="node43" class="node"><title>Node43</title>
<polygon fill="white" stroke="#bfbfbf" points="254,-448.5 254,-467.5 334,-467.5 334,-448.5 254,-448.5"/>
<text text-anchor="middle" x="294" y="-455.5" font-family="Helvetica,sans-Serif" font-size="10.00">QMainWindow</text>
</g>
<!-- Node42&#45;&gt;Node43 -->
<g id="edge67" class="edge"><title>Node42&#45;&gt;Node43</title>
<path fill="none" stroke="midnightblue" d="M294,-504.083C294,-497.006 294,-486.861 294,-477.986"/>
<polygon fill="midnightblue" stroke="midnightblue" points="297.5,-477.751 294,-467.751 290.5,-477.751 297.5,-477.751"/>
</g>
<!-- Node46&#45;&gt;Node2 -->
<g id="edge73" class="edge"><title>Node46&#45;&gt;Node2</title>
<path fill="none" stroke="midnightblue" d="M578.778,-616.444C560.104,-607.675 530.844,-593.935 509.383,-583.858"/>
<polygon fill="midnightblue" stroke="midnightblue" points="510.676,-580.599 500.137,-579.516 507.701,-586.935 510.676,-580.599"/>
</g>
<!-- Node46&#45;&gt;Node3 -->
<g id="edge72" class="edge"><title>Node46&#45;&gt;Node3</title>
<path fill="none" stroke="midnightblue" d="M588.262,-616.19C576.585,-603.307 558.609,-578.816 570,-560 580.603,-542.485 600.513,-531.459 618.508,-524.708"/>
<polygon fill="midnightblue" stroke="midnightblue" points="619.906,-527.929 628.236,-521.384 617.642,-521.306 619.906,-527.929"/>
</g>
<!-- Node47 -->
<g id="node47" class="node"><title>Node47</title>
<polygon fill="white" stroke="#bfbfbf" points="579,-560.5 579,-579.5 663,-579.5 663,-560.5 579,-560.5"/>
<text text-anchor="middle" x="621" y="-567.5" font-family="Helvetica,sans-Serif" font-size="10.00">ui_rearth_test.h</text>
</g>
<!-- Node46&#45;&gt;Node47 -->
<g id="edge74" class="edge"><title>Node46&#45;&gt;Node47</title>
<path fill="none" stroke="midnightblue" d="M600.963,-616.083C604.213,-608.77 608.919,-598.181 612.954,-589.103"/>
<polygon fill="midnightblue" stroke="midnightblue" points="616.248,-590.311 617.111,-579.751 609.851,-587.468 616.248,-590.311"/>
</g>
<!-- Node48&#45;&gt;Node2 -->
<g id="edge77" class="edge"><title>Node48&#45;&gt;Node2</title>
<path fill="none" stroke="midnightblue" d="M657.883,-616.444C621.882,-607.142 564.23,-592.246 524.814,-582.062"/>
<polygon fill="midnightblue" stroke="midnightblue" points="525.519,-578.629 514.962,-579.516 523.768,-585.407 525.519,-578.629"/>
</g>
<!-- Node48&#45;&gt;Node3 -->
<g id="edge76" class="edge"><title>Node48&#45;&gt;Node3</title>
<path fill="none" stroke="midnightblue" d="M688.578,-616.12C685.112,-603.558 678.444,-579.911 672,-560 669.124,-551.114 665.681,-541.336 662.727,-533.171"/>
<polygon fill="midnightblue" stroke="midnightblue" points="665.94,-531.764 659.215,-523.577 659.366,-534.171 665.94,-531.764"/>
</g>
<!-- Node49 -->
<g id="node49" class="node"><title>Node49</title>
<polygon fill="white" stroke="#bfbfbf" points="719.5,-560.5 719.5,-579.5 812.5,-579.5 812.5,-560.5 719.5,-560.5"/>
<text text-anchor="middle" x="766" y="-567.5" font-family="Helvetica,sans-Serif" font-size="10.00">ui_eci2kep_test.h</text>
</g>
<!-- Node48&#45;&gt;Node49 -->
<g id="edge78" class="edge"><title>Node48&#45;&gt;Node49</title>
<path fill="none" stroke="midnightblue" d="M703.05,-616.324C714.463,-608.107 731.831,-595.602 745.435,-585.807"/>
<polygon fill="midnightblue" stroke="midnightblue" points="747.66,-588.517 753.731,-579.834 743.57,-582.837 747.66,-588.517"/>
</g>
</g>
</svg>
