<?xml version="1.0" encoding="UTF-8" standalone="no"?>
<!DOCTYPE svg PUBLIC "-//W3C//DTD SVG 1.1//EN"
 "http://www.w3.org/Graphics/SVG/1.1/DTD/svg11.dtd">
<!-- Generated by graphviz version 2.38.0 (20140413.2041)
 -->
<!-- Title: testcontainer.h Pages: 1 -->
<svg width="1496pt" height="588pt"
 viewBox="0.00 0.00 1495.50 588.00" xmlns="http://www.w3.org/2000/svg" xmlns:xlink="http://www.w3.org/1999/xlink">
<g id="graph0" class="graph" transform="scale(1 1) rotate(0) translate(4 584)">
<title>testcontainer.h</title>
<polygon fill="white" stroke="none" points="-4,4 -4,-584 1491.5,-584 1491.5,4 -4,4"/>
<!-- Node1 -->
<g id="node1" class="node"><title>Node1</title>
<polygon fill="#bfbfbf" stroke="black" points="1047,-560.5 1047,-579.5 1128,-579.5 1128,-560.5 1047,-560.5"/>
<text text-anchor="middle" x="1087.5" y="-567.5" font-family="Helvetica,sans-Serif" font-size="10.00">testcontainer.h</text>
</g>
<!-- Node2 -->
<g id="node2" class="node"><title>Node2</title>
<polygon fill="white" stroke="#bfbfbf" points="861,-504.5 861,-523.5 916,-523.5 916,-504.5 861,-504.5"/>
<text text-anchor="middle" x="888.5" y="-511.5" font-family="Helvetica,sans-Serif" font-size="10.00">QWidget</text>
</g>
<!-- Node1&#45;&gt;Node2 -->
<g id="edge1" class="edge"><title>Node1&#45;&gt;Node2</title>
<path fill="none" stroke="midnightblue" d="M1055.97,-560.444C1020.71,-550.875 963.628,-535.386 926.078,-525.197"/>
<polygon fill="midnightblue" stroke="midnightblue" points="926.607,-521.714 916.039,-522.473 924.774,-528.47 926.607,-521.714"/>
</g>
<!-- Node3 -->
<g id="node3" class="node"><title>Node3</title>
<polygon fill="white" stroke="#bfbfbf" points="934,-504.5 934,-523.5 1005,-523.5 1005,-504.5 934,-504.5"/>
<text text-anchor="middle" x="969.5" y="-511.5" font-family="Helvetica,sans-Serif" font-size="10.00">QListWidget</text>
</g>
<!-- Node1&#45;&gt;Node3 -->
<g id="edge2" class="edge"><title>Node1&#45;&gt;Node3</title>
<path fill="none" stroke="midnightblue" d="M1068.8,-560.444C1049.56,-551.636 1019.35,-537.812 997.3,-527.722"/>
<polygon fill="midnightblue" stroke="midnightblue" points="998.66,-524.495 988.11,-523.516 995.747,-530.86 998.66,-524.495"/>
</g>
<!-- Node4 -->
<g id="node4" class="node"><title>Node4</title>
<g id="a_node4"><a xlink:href="convertlib_8h.html" target="_top" xlink:title="convertlib include file A library providing functions for conversion between the various position and...">
<polygon fill="white" stroke="black" points="1023,-504.5 1023,-523.5 1090,-523.5 1090,-504.5 1023,-504.5"/>
<text text-anchor="middle" x="1056.5" y="-511.5" font-family="Helvetica,sans-Serif" font-size="10.00">convertlib.h</text>
</a>
</g>
</g>
<!-- Node1&#45;&gt;Node4 -->
<g id="edge3" class="edge"><title>Node1&#45;&gt;Node4</title>
<path fill="none" stroke="midnightblue" d="M1082.38,-560.083C1078.09,-552.613 1071.84,-541.724 1066.56,-532.52"/>
<polygon fill="midnightblue" stroke="midnightblue" points="1069.54,-530.681 1061.52,-523.751 1063.47,-534.166 1069.54,-530.681"/>
</g>
<!-- Node31 -->
<g id="node31" class="node"><title>Node31</title>
<g id="a_node31"><a xlink:href="mathlib_8h.html" target="_top" xlink:title="mathlib include file ">
<polygon fill="white" stroke="black" points="1078,-392.5 1078,-411.5 1159,-411.5 1159,-392.5 1078,-392.5"/>
<text text-anchor="middle" x="1118.5" y="-399.5" font-family="Helvetica,sans-Serif" font-size="10.00">math/mathlib.h</text>
</a>
</g>
</g>
<!-- Node1&#45;&gt;Node31 -->
<g id="edge63" class="edge"><title>Node1&#45;&gt;Node31</title>
<path fill="none" stroke="midnightblue" d="M1090.07,-560.438C1092.71,-551.432 1096.79,-536.816 1099.5,-524 1107.09,-488.062 1113.09,-445.533 1116.19,-421.67"/>
<polygon fill="midnightblue" stroke="midnightblue" points="1119.68,-421.926 1117.47,-411.565 1112.74,-421.044 1119.68,-421.926"/>
</g>
<!-- Node40 -->
<g id="node40" class="node"><title>Node40</title>
<polygon fill="white" stroke="#bfbfbf" points="1146.5,-504.5 1146.5,-523.5 1192.5,-523.5 1192.5,-504.5 1146.5,-504.5"/>
<text text-anchor="middle" x="1169.5" y="-511.5" font-family="Helvetica,sans-Serif" font-size="10.00">stdio.h</text>
</g>
<!-- Node1&#45;&gt;Node40 -->
<g id="edge64" class="edge"><title>Node1&#45;&gt;Node40</title>
<path fill="none" stroke="midnightblue" d="M1100.67,-560.324C1113.35,-551.979 1132.73,-539.212 1147.71,-529.352"/>
<polygon fill="midnightblue" stroke="midnightblue" points="1149.93,-532.078 1156.36,-523.655 1146.08,-526.231 1149.93,-532.078"/>
</g>
<!-- Node41 -->
<g id="node41" class="node"><title>Node41</title>
<g id="a_node41"><a xlink:href="mainwindow_8h.html" target="_top" xlink:title="mainwindow.h">
<polygon fill="white" stroke="black" points="1211,-504.5 1211,-523.5 1290,-523.5 1290,-504.5 1211,-504.5"/>
<text text-anchor="middle" x="1250.5" y="-511.5" font-family="Helvetica,sans-Serif" font-size="10.00">mainwindow.h</text>
</a>
</g>
</g>
<!-- Node1&#45;&gt;Node41 -->
<g id="edge65" class="edge"><title>Node1&#45;&gt;Node41</title>
<path fill="none" stroke="midnightblue" d="M1113.33,-560.444C1140.75,-551.359 1184.28,-536.939 1214.93,-526.783"/>
<polygon fill="midnightblue" stroke="midnightblue" points="1216.4,-529.984 1224.79,-523.516 1214.2,-523.339 1216.4,-529.984"/>
</g>
<!-- Node5 -->
<g id="node5" class="node"><title>Node5</title>
<g id="a_node5"><a xlink:href="config_cosmos_8h.html" target="_top" xlink:title="Headers and definitions common to all COSMOS. ">
<polygon fill="white" stroke="black" points="812,-112.5 812,-131.5 935,-131.5 935,-112.5 812,-112.5"/>
<text text-anchor="middle" x="873.5" y="-119.5" font-family="Helvetica,sans-Serif" font-size="10.00">support/configCosmos.h</text>
</a>
</g>
</g>
<!-- Node4&#45;&gt;Node5 -->
<g id="edge4" class="edge"><title>Node4&#45;&gt;Node5</title>
<path fill="none" stroke="midnightblue" d="M1025.45,-504.467C964.803,-486.881 836.5,-444.742 836.5,-403 836.5,-403 836.5,-403 836.5,-233 836.5,-198.889 852.682,-161.787 863.642,-140.568"/>
<polygon fill="midnightblue" stroke="midnightblue" points="866.859,-141.976 868.51,-131.51 860.693,-138.662 866.859,-141.976"/>
</g>
<!-- Node4&#45;&gt;Node31 -->
<g id="edge36" class="edge"><title>Node4&#45;&gt;Node31</title>
<path fill="none" stroke="midnightblue" d="M1061.37,-504.368C1071.55,-486.296 1095.29,-444.176 1108.74,-420.307"/>
<polygon fill="midnightblue" stroke="midnightblue" points="1111.8,-422.022 1113.66,-411.591 1105.7,-418.584 1111.8,-422.022"/>
</g>
<!-- Node39 -->
<g id="node39" class="node"><title>Node39</title>
<g id="a_node39"><a xlink:href="convertdef_8h.html" target="_top" xlink:title="support/convertdef.h">
<polygon fill="white" stroke="black" points="946.5,-448.5 946.5,-467.5 1052.5,-467.5 1052.5,-448.5 946.5,-448.5"/>
<text text-anchor="middle" x="999.5" y="-455.5" font-family="Helvetica,sans-Serif" font-size="10.00">support/convertdef.h</text>
</a>
</g>
</g>
<!-- Node4&#45;&gt;Node39 -->
<g id="edge60" class="edge"><title>Node4&#45;&gt;Node39</title>
<path fill="none" stroke="midnightblue" d="M1047.34,-504.324C1039,-496.42 1026.47,-484.548 1016.32,-474.938"/>
<polygon fill="midnightblue" stroke="midnightblue" points="1018.49,-472.171 1008.82,-467.834 1013.68,-477.252 1018.49,-472.171"/>
</g>
<!-- Node6 -->
<g id="node6" class="node"><title>Node6</title>
<polygon fill="white" stroke="#bfbfbf" points="0,-56.5 0,-75.5 45,-75.5 45,-56.5 0,-56.5"/>
<text text-anchor="middle" x="22.5" y="-63.5" font-family="Helvetica,sans-Serif" font-size="10.00">climits</text>
</g>
<!-- Node5&#45;&gt;Node6 -->
<g id="edge5" class="edge"><title>Node5&#45;&gt;Node6</title>
<path fill="none" stroke="midnightblue" d="M811.76,-119.433C650.483,-115.053 218.341,-101.423 55.3868,-75.8894"/>
<polygon fill="midnightblue" stroke="midnightblue" points="55.4835,-72.3584 45.0483,-74.1903 54.3483,-79.2657 55.4835,-72.3584"/>
</g>
<!-- Node7 -->
<g id="node7" class="node"><title>Node7</title>
<polygon fill="white" stroke="#bfbfbf" points="63,-56.5 63,-75.5 110,-75.5 110,-56.5 63,-56.5"/>
<text text-anchor="middle" x="86.5" y="-63.5" font-family="Helvetica,sans-Serif" font-size="10.00">csignal</text>
</g>
<!-- Node5&#45;&gt;Node7 -->
<g id="edge6" class="edge"><title>Node5&#45;&gt;Node7</title>
<path fill="none" stroke="midnightblue" d="M811.941,-121.61C684.359,-121.949 381.9,-117.956 120.237,-75.7305"/>
<polygon fill="midnightblue" stroke="midnightblue" points="120.598,-72.2431 110.164,-74.0826 119.467,-79.1512 120.598,-72.2431"/>
</g>
<!-- Node8 -->
<g id="node8" class="node"><title>Node8</title>
<polygon fill="white" stroke="#bfbfbf" points="1269.5,-56.5 1269.5,-75.5 1315.5,-75.5 1315.5,-56.5 1269.5,-56.5"/>
<text text-anchor="middle" x="1292.5" y="-63.5" font-family="Helvetica,sans-Serif" font-size="10.00">cstdint</text>
</g>
<!-- Node5&#45;&gt;Node8 -->
<g id="edge7" class="edge"><title>Node5&#45;&gt;Node8</title>
<path fill="none" stroke="midnightblue" d="M935.037,-116.067C1010.81,-109.461 1143.28,-96.1819 1255.5,-76 1256.78,-75.7696 1258.08,-75.5215 1259.4,-75.2596"/>
<polygon fill="midnightblue" stroke="midnightblue" points="1260.48,-78.6063 1269.5,-73.0521 1258.98,-71.7677 1260.48,-78.6063"/>
</g>
<!-- Node9 -->
<g id="node9" class="node"><title>Node9</title>
<polygon fill="white" stroke="#bfbfbf" points="128.5,-56.5 128.5,-75.5 184.5,-75.5 184.5,-56.5 128.5,-56.5"/>
<text text-anchor="middle" x="156.5" y="-63.5" font-family="Helvetica,sans-Serif" font-size="10.00">cinttypes</text>
</g>
<!-- Node5&#45;&gt;Node9 -->
<g id="edge8" class="edge"><title>Node5&#45;&gt;Node9</title>
<path fill="none" stroke="midnightblue" d="M811.769,-119.865C692.646,-117.016 422.993,-107.368 198.5,-76 197.254,-75.8259 195.989,-75.6356 194.714,-75.432"/>
<polygon fill="midnightblue" stroke="midnightblue" points="195.329,-71.9865 184.867,-73.6597 194.089,-78.8758 195.329,-71.9865"/>
</g>
<!-- Node10 -->
<g id="node10" class="node"><title>Node10</title>
<polygon fill="white" stroke="#bfbfbf" points="241,-56.5 241,-75.5 284,-75.5 284,-56.5 241,-56.5"/>
<text text-anchor="middle" x="262.5" y="-63.5" font-family="Helvetica,sans-Serif" font-size="10.00">cstdio</text>
</g>
<!-- Node5&#45;&gt;Node10 -->
<g id="edge9" class="edge"><title>Node5&#45;&gt;Node10</title>
<path fill="none" stroke="midnightblue" d="M811.875,-120.543C706.992,-118.824 487.155,-111.139 294.353,-75.9941"/>
<polygon fill="midnightblue" stroke="midnightblue" points="294.792,-72.5159 284.322,-74.1359 293.517,-79.3988 294.792,-72.5159"/>
</g>
<!-- Node11 -->
<g id="node11" class="node"><title>Node11</title>
<polygon fill="white" stroke="#bfbfbf" points="302,-56.5 302,-75.5 351,-75.5 351,-56.5 302,-56.5"/>
<text text-anchor="middle" x="326.5" y="-63.5" font-family="Helvetica,sans-Serif" font-size="10.00">cstddef</text>
</g>
<!-- Node5&#45;&gt;Node11 -->
<g id="edge10" class="edge"><title>Node5&#45;&gt;Node11</title>
<path fill="none" stroke="midnightblue" d="M811.713,-119.157C716.61,-115.538 528.619,-105.28 361.235,-76.0334"/>
<polygon fill="midnightblue" stroke="midnightblue" points="361.716,-72.564 351.258,-74.2628 360.492,-79.4563 361.716,-72.564"/>
</g>
<!-- Node12 -->
<g id="node12" class="node"><title>Node12</title>
<polygon fill="white" stroke="#bfbfbf" points="369,-56.5 369,-75.5 414,-75.5 414,-56.5 369,-56.5"/>
<text text-anchor="middle" x="391.5" y="-63.5" font-family="Helvetica,sans-Serif" font-size="10.00">cstdlib</text>
</g>
<!-- Node5&#45;&gt;Node12 -->
<g id="edge11" class="edge"><title>Node5&#45;&gt;Node12</title>
<path fill="none" stroke="midnightblue" d="M811.875,-118.246C726.694,-113.687 568.146,-102.489 424.02,-75.7535"/>
<polygon fill="midnightblue" stroke="midnightblue" points="424.585,-72.2983 414.11,-73.8859 423.288,-79.1772 424.585,-72.2983"/>
</g>
<!-- Node13 -->
<g id="node13" class="node"><title>Node13</title>
<polygon fill="white" stroke="#bfbfbf" points="432.5,-56.5 432.5,-75.5 476.5,-75.5 476.5,-56.5 432.5,-56.5"/>
<text text-anchor="middle" x="454.5" y="-63.5" font-family="Helvetica,sans-Serif" font-size="10.00">cerrno</text>
</g>
<!-- Node5&#45;&gt;Node13 -->
<g id="edge12" class="edge"><title>Node5&#45;&gt;Node13</title>
<path fill="none" stroke="midnightblue" d="M811.85,-117.043C736.997,-111.529 606.864,-99.6642 486.838,-75.9661"/>
<polygon fill="midnightblue" stroke="midnightblue" points="487.234,-72.4759 476.74,-73.9393 485.856,-79.339 487.234,-72.4759"/>
</g>
<!-- Node14 -->
<g id="node14" class="node"><title>Node14</title>
<polygon fill="white" stroke="#bfbfbf" points="494.5,-56.5 494.5,-75.5 540.5,-75.5 540.5,-56.5 494.5,-56.5"/>
<text text-anchor="middle" x="517.5" y="-63.5" font-family="Helvetica,sans-Serif" font-size="10.00">cstring</text>
</g>
<!-- Node5&#45;&gt;Node14 -->
<g id="edge13" class="edge"><title>Node5&#45;&gt;Node14</title>
<path fill="none" stroke="midnightblue" d="M811.862,-114.966C748.534,-108.199 646.99,-95.7733 550.726,-76.0185"/>
<polygon fill="midnightblue" stroke="midnightblue" points="551.332,-72.5696 540.828,-73.9571 549.904,-79.4226 551.332,-72.5696"/>
</g>
<!-- Node15 -->
<g id="node15" class="node"><title>Node15</title>
<polygon fill="white" stroke="#bfbfbf" points="1443.5,-56.5 1443.5,-75.5 1487.5,-75.5 1487.5,-56.5 1443.5,-56.5"/>
<text text-anchor="middle" x="1465.5" y="-63.5" font-family="Helvetica,sans-Serif" font-size="10.00">cmath</text>
</g>
<!-- Node5&#45;&gt;Node15 -->
<g id="edge14" class="edge"><title>Node5&#45;&gt;Node15</title>
<path fill="none" stroke="midnightblue" d="M935.043,-120.125C1037.03,-117.789 1247.45,-109.21 1433.33,-75.8504"/>
<polygon fill="midnightblue" stroke="midnightblue" points="1434.07,-79.2728 1443.28,-74.0359 1432.81,-72.3863 1434.07,-79.2728"/>
</g>
<!-- Node16 -->
<g id="node16" class="node"><title>Node16</title>
<polygon fill="white" stroke="#bfbfbf" points="559,-56.5 559,-75.5 604,-75.5 604,-56.5 559,-56.5"/>
<text text-anchor="middle" x="581.5" y="-63.5" font-family="Helvetica,sans-Serif" font-size="10.00">iosfwd</text>
</g>
<!-- Node5&#45;&gt;Node16 -->
<g id="edge15" class="edge"><title>Node5&#45;&gt;Node16</title>
<path fill="none" stroke="midnightblue" d="M812.73,-112.491C761.87,-104.922 687.241,-92.779 613.969,-76.1482"/>
<polygon fill="midnightblue" stroke="midnightblue" points="614.64,-72.7113 604.11,-73.881 613.071,-79.5332 614.64,-72.7113"/>
</g>
<!-- Node17 -->
<g id="node17" class="node"><title>Node17</title>
<polygon fill="white" stroke="#bfbfbf" points="1371.5,-56.5 1371.5,-75.5 1425.5,-75.5 1425.5,-56.5 1371.5,-56.5"/>
<text text-anchor="middle" x="1398.5" y="-63.5" font-family="Helvetica,sans-Serif" font-size="10.00">iostream</text>
</g>
<!-- Node5&#45;&gt;Node17 -->
<g id="edge16" class="edge"><title>Node5&#45;&gt;Node17</title>
<path fill="none" stroke="midnightblue" d="M935.186,-115.27C1022.09,-107.101 1185.48,-91.3875 1324.5,-76 1336.54,-74.6675 1349.66,-73.1065 1361.47,-71.6621"/>
<polygon fill="midnightblue" stroke="midnightblue" points="1361.96,-75.1292 1371.45,-70.4315 1361.1,-68.1818 1361.96,-75.1292"/>
</g>
<!-- Node18 -->
<g id="node18" class="node"><title>Node18</title>
<polygon fill="white" stroke="#bfbfbf" points="622,-56.5 622,-75.5 673,-75.5 673,-56.5 622,-56.5"/>
<text text-anchor="middle" x="647.5" y="-63.5" font-family="Helvetica,sans-Serif" font-size="10.00">unistd.h</text>
</g>
<!-- Node5&#45;&gt;Node18 -->
<g id="edge17" class="edge"><title>Node5&#45;&gt;Node18</title>
<path fill="none" stroke="midnightblue" d="M836.115,-112.428C799.604,-104.005 742.211,-90.6246 683.001,-76.0849"/>
<polygon fill="midnightblue" stroke="midnightblue" points="683.646,-72.6392 673.099,-73.6465 681.972,-79.4361 683.646,-72.6392"/>
</g>
<!-- Node19 -->
<g id="node19" class="node"><title>Node19</title>
<polygon fill="white" stroke="#bfbfbf" points="691.5,-56.5 691.5,-75.5 735.5,-75.5 735.5,-56.5 691.5,-56.5"/>
<text text-anchor="middle" x="713.5" y="-63.5" font-family="Helvetica,sans-Serif" font-size="10.00">fcntl.h</text>
</g>
<!-- Node5&#45;&gt;Node19 -->
<g id="edge18" class="edge"><title>Node5&#45;&gt;Node19</title>
<path fill="none" stroke="midnightblue" d="M848.148,-112.444C820.281,-103.038 775.468,-87.9142 745.275,-77.7242"/>
<polygon fill="midnightblue" stroke="midnightblue" points="746.236,-74.3546 735.642,-74.473 743.998,-80.9871 746.236,-74.3546"/>
</g>
<!-- Node20 -->
<g id="node20" class="node"><title>Node20</title>
<polygon fill="white" stroke="#bfbfbf" points="754,-56.5 754,-75.5 795,-75.5 795,-56.5 754,-56.5"/>
<text text-anchor="middle" x="774.5" y="-63.5" font-family="Helvetica,sans-Serif" font-size="10.00">string</text>
</g>
<!-- Node5&#45;&gt;Node20 -->
<g id="edge19" class="edge"><title>Node5&#45;&gt;Node20</title>
<path fill="none" stroke="midnightblue" d="M857.594,-112.324C841.862,-103.743 817.558,-90.486 799.291,-80.5224"/>
<polygon fill="midnightblue" stroke="midnightblue" points="800.822,-77.3704 790.367,-75.6545 797.47,-83.5157 800.822,-77.3704"/>
</g>
<!-- Node21 -->
<g id="node21" class="node"><title>Node21</title>
<polygon fill="white" stroke="#bfbfbf" points="1219.5,-0.5 1219.5,-19.5 1263.5,-19.5 1263.5,-0.5 1219.5,-0.5"/>
<text text-anchor="middle" x="1241.5" y="-7.5" font-family="Helvetica,sans-Serif" font-size="10.00">vector</text>
</g>
<!-- Node5&#45;&gt;Node21 -->
<g id="edge20" class="edge"><title>Node5&#45;&gt;Node21</title>
<path fill="none" stroke="midnightblue" d="M935.359,-120.921C1023.85,-119.525 1180.53,-111.877 1222.5,-76 1235.75,-64.6766 1240.02,-44.6761 1241.28,-29.842"/>
<polygon fill="midnightblue" stroke="midnightblue" points="1244.78,-29.8858 1241.74,-19.7347 1237.78,-29.5622 1244.78,-29.8858"/>
</g>
<!-- Node22 -->
<g id="node22" class="node"><title>Node22</title>
<polygon fill="white" stroke="#bfbfbf" points="852,-56.5 852,-75.5 895,-75.5 895,-56.5 852,-56.5"/>
<text text-anchor="middle" x="873.5" y="-63.5" font-family="Helvetica,sans-Serif" font-size="10.00">deque</text>
</g>
<!-- Node5&#45;&gt;Node22 -->
<g id="edge21" class="edge"><title>Node5&#45;&gt;Node22</title>
<path fill="none" stroke="midnightblue" d="M873.5,-112.083C873.5,-105.006 873.5,-94.8611 873.5,-85.9865"/>
<polygon fill="midnightblue" stroke="midnightblue" points="877,-85.751 873.5,-75.7511 870,-85.7511 877,-85.751"/>
</g>
<!-- Node23 -->
<g id="node23" class="node"><title>Node23</title>
<polygon fill="white" stroke="#bfbfbf" points="472.5,-0.5 472.5,-19.5 516.5,-19.5 516.5,-0.5 472.5,-0.5"/>
<text text-anchor="middle" x="494.5" y="-7.5" font-family="Helvetica,sans-Serif" font-size="10.00">mutex</text>
</g>
<!-- Node5&#45;&gt;Node23 -->
<g id="edge22" class="edge"><title>Node5&#45;&gt;Node23</title>
<path fill="none" stroke="midnightblue" d="M811.862,-121.34C658.742,-121.544 270.549,-117.882 231.5,-76 225.438,-69.4986 225.769,-62.7948 231.5,-56 260.65,-21.4385 398.266,-13.42 461.981,-11.5607"/>
<polygon fill="midnightblue" stroke="midnightblue" points="462.356,-15.0523 472.262,-11.2959 462.175,-8.05466 462.356,-15.0523"/>
</g>
<!-- Node24 -->
<g id="node24" class="node"><title>Node24</title>
<polygon fill="white" stroke="#bfbfbf" points="808.5,-0.5 808.5,-19.5 852.5,-19.5 852.5,-0.5 808.5,-0.5"/>
<text text-anchor="middle" x="830.5" y="-7.5" font-family="Helvetica,sans-Serif" font-size="10.00">thread</text>
</g>
<!-- Node5&#45;&gt;Node24 -->
<g id="edge23" class="edge"><title>Node5&#45;&gt;Node24</title>
<path fill="none" stroke="midnightblue" d="M865.872,-112.353C858.702,-103.743 848.239,-89.8471 842.5,-76 836.383,-61.2414 833.371,-43.3116 831.895,-30.0245"/>
<polygon fill="midnightblue" stroke="midnightblue" points="835.35,-29.3791 830.954,-19.7395 828.379,-30.0168 835.35,-29.3791"/>
</g>
<!-- Node25 -->
<g id="node25" class="node"><title>Node25</title>
<polygon fill="white" stroke="#bfbfbf" points="879,-0.5 879,-19.5 974,-19.5 974,-0.5 879,-0.5"/>
<text text-anchor="middle" x="926.5" y="-7.5" font-family="Helvetica,sans-Serif" font-size="10.00">condition_variable</text>
</g>
<!-- Node5&#45;&gt;Node25 -->
<g id="edge24" class="edge"><title>Node5&#45;&gt;Node25</title>
<path fill="none" stroke="midnightblue" d="M880.156,-112.429C886.738,-103.654 896.776,-89.4344 903.5,-76 911.034,-60.9469 917.231,-42.8179 921.287,-29.5347"/>
<polygon fill="midnightblue" stroke="midnightblue" points="924.718,-30.271 924.172,-19.6903 918.001,-28.3022 924.718,-30.271"/>
</g>
<!-- Node26 -->
<g id="node26" class="node"><title>Node26</title>
<polygon fill="white" stroke="#bfbfbf" points="1046,-0.5 1046,-19.5 1089,-19.5 1089,-0.5 1046,-0.5"/>
<text text-anchor="middle" x="1067.5" y="-7.5" font-family="Helvetica,sans-Serif" font-size="10.00">queue</text>
</g>
<!-- Node5&#45;&gt;Node26 -->
<g id="edge25" class="edge"><title>Node5&#45;&gt;Node26</title>
<path fill="none" stroke="midnightblue" d="M935.184,-115.702C988.264,-109.713 1058.99,-97.8182 1076.5,-76 1087.06,-62.8451 1082.39,-43.1638 1076.58,-28.9059"/>
<polygon fill="midnightblue" stroke="midnightblue" points="1079.69,-27.291 1072.35,-19.6532 1073.33,-30.2029 1079.69,-27.291"/>
</g>
<!-- Node27 -->
<g id="node27" class="node"><title>Node27</title>
<polygon fill="white" stroke="#bfbfbf" points="1161.5,-56.5 1161.5,-75.5 1213.5,-75.5 1213.5,-56.5 1161.5,-56.5"/>
<text text-anchor="middle" x="1187.5" y="-63.5" font-family="Helvetica,sans-Serif" font-size="10.00">sstream</text>
</g>
<!-- Node5&#45;&gt;Node27 -->
<g id="edge26" class="edge"><title>Node5&#45;&gt;Node27</title>
<path fill="none" stroke="midnightblue" d="M931.406,-112.497C986.984,-104.098 1073.21,-90.4458 1147.5,-76 1148.76,-75.7554 1150.04,-75.5008 1151.33,-75.2387"/>
<polygon fill="midnightblue" stroke="midnightblue" points="1152.24,-78.6232 1161.3,-73.1264 1150.79,-71.7752 1152.24,-78.6232"/>
</g>
<!-- Node28 -->
<g id="node28" class="node"><title>Node28</title>
<polygon fill="white" stroke="#bfbfbf" points="1110,-0.5 1110,-19.5 1145,-19.5 1145,-0.5 1110,-0.5"/>
<text text-anchor="middle" x="1127.5" y="-7.5" font-family="Helvetica,sans-Serif" font-size="10.00">map</text>
</g>
<!-- Node5&#45;&gt;Node28 -->
<g id="edge27" class="edge"><title>Node5&#45;&gt;Node28</title>
<path fill="none" stroke="midnightblue" d="M935.253,-114.342C991.353,-107.242 1068.97,-94.4649 1093.5,-76 1108.73,-64.5357 1117.77,-44.2583 1122.66,-29.3918"/>
<polygon fill="midnightblue" stroke="midnightblue" points="1126.04,-30.3081 1125.51,-19.7264 1119.32,-28.3273 1126.04,-30.3081"/>
</g>
<!-- Node29 -->
<g id="node29" class="node"><title>Node29</title>
<g id="a_node29"><a xlink:href="cosmos-defs_8h.html" target="_top" xlink:title="COSMOS definitions Definitions specific to the COSMOS environement. ">
<polygon fill="white" stroke="black" points="951.5,-56.5 951.5,-75.5 1067.5,-75.5 1067.5,-56.5 951.5,-56.5"/>
<text text-anchor="middle" x="1009.5" y="-63.5" font-family="Helvetica,sans-Serif" font-size="10.00">support/cosmos&#45;defs.h</text>
</a>
</g>
</g>
<!-- Node5&#45;&gt;Node29 -->
<g id="edge28" class="edge"><title>Node5&#45;&gt;Node29</title>
<path fill="none" stroke="midnightblue" d="M895.05,-112.444C917.531,-103.517 952.988,-89.4387 978.48,-79.3168"/>
<polygon fill="midnightblue" stroke="midnightblue" points="980.049,-82.4598 988.051,-75.5164 977.465,-75.9539 980.049,-82.4598"/>
</g>
<!-- Node29&#45;&gt;Node21 -->
<g id="edge30" class="edge"><title>Node29&#45;&gt;Node21</title>
<path fill="none" stroke="midnightblue" d="M1046.26,-56.4435C1091.23,-45.9759 1166.64,-28.4239 1209.39,-18.4748"/>
<polygon fill="midnightblue" stroke="midnightblue" points="1210.31,-21.8531 1219.26,-16.1772 1208.72,-15.0354 1210.31,-21.8531"/>
</g>
<!-- Node29&#45;&gt;Node23 -->
<g id="edge34" class="edge"><title>Node29&#45;&gt;Node23</title>
<path fill="none" stroke="midnightblue" d="M951.424,-58.9105C842.696,-47.5099 611.743,-23.2935 526.759,-14.3825"/>
<polygon fill="midnightblue" stroke="midnightblue" points="526.987,-10.8873 516.677,-13.3253 526.257,-17.8491 526.987,-10.8873"/>
</g>
<!-- Node29&#45;&gt;Node24 -->
<g id="edge33" class="edge"><title>Node29&#45;&gt;Node24</title>
<path fill="none" stroke="midnightblue" d="M981.137,-56.4435C948.796,-46.6872 896.055,-30.7764 862.334,-20.6036"/>
<polygon fill="midnightblue" stroke="midnightblue" points="863.108,-17.1813 852.523,-17.6439 861.086,-23.883 863.108,-17.1813"/>
</g>
<!-- Node29&#45;&gt;Node25 -->
<g id="edge35" class="edge"><title>Node29&#45;&gt;Node25</title>
<path fill="none" stroke="midnightblue" d="M996.165,-56.324C983.338,-47.979 963.715,-35.2122 948.56,-25.3524"/>
<polygon fill="midnightblue" stroke="midnightblue" points="950.093,-22.1742 939.802,-19.6545 946.276,-28.0417 950.093,-22.1742"/>
</g>
<!-- Node29&#45;&gt;Node26 -->
<g id="edge32" class="edge"><title>Node29&#45;&gt;Node26</title>
<path fill="none" stroke="midnightblue" d="M1018.82,-56.324C1027.39,-48.3414 1040.31,-36.3128 1050.69,-26.6529"/>
<polygon fill="midnightblue" stroke="midnightblue" points="1053.08,-29.2098 1058.01,-19.8339 1048.31,-24.0865 1053.08,-29.2098"/>
</g>
<!-- Node29&#45;&gt;Node28 -->
<g id="edge29" class="edge"><title>Node29&#45;&gt;Node28</title>
<path fill="none" stroke="midnightblue" d="M1028.2,-56.4435C1047.67,-47.532 1078.36,-33.4856 1100.47,-23.3674"/>
<polygon fill="midnightblue" stroke="midnightblue" points="1102.03,-26.5068 1109.66,-19.1629 1099.11,-20.1417 1102.03,-26.5068"/>
</g>
<!-- Node30 -->
<g id="node30" class="node"><title>Node30</title>
<polygon fill="white" stroke="#bfbfbf" points="995,-0.5 995,-19.5 1024,-19.5 1024,-0.5 995,-0.5"/>
<text text-anchor="middle" x="1009.5" y="-7.5" font-family="Helvetica,sans-Serif" font-size="10.00">list</text>
</g>
<!-- Node29&#45;&gt;Node30 -->
<g id="edge31" class="edge"><title>Node29&#45;&gt;Node30</title>
<path fill="none" stroke="midnightblue" d="M1009.5,-56.083C1009.5,-49.0059 1009.5,-38.8611 1009.5,-29.9865"/>
<polygon fill="midnightblue" stroke="midnightblue" points="1013,-29.751 1009.5,-19.7511 1006,-29.7511 1013,-29.751"/>
</g>
<!-- Node31&#45;&gt;Node5 -->
<g id="edge37" class="edge"><title>Node31&#45;&gt;Node5</title>
<path fill="none" stroke="midnightblue" d="M1077.71,-395.772C1029.8,-388.85 954.208,-375.232 933.5,-356 911.255,-335.34 912.5,-321.359 912.5,-291 912.5,-291 912.5,-291 912.5,-233 912.5,-198.716 895.463,-161.698 883.91,-140.537"/>
<polygon fill="midnightblue" stroke="midnightblue" points="886.903,-138.72 878.923,-131.75 880.815,-142.175 886.903,-138.72"/>
</g>
<!-- Node31&#45;&gt;Node15 -->
<g id="edge58" class="edge"><title>Node31&#45;&gt;Node15</title>
<path fill="none" stroke="midnightblue" d="M1159.29,-399.819C1212.91,-397.007 1309.11,-387.566 1384.5,-356 1430.01,-336.943 1474.5,-340.341 1474.5,-291 1474.5,-291 1474.5,-291 1474.5,-177 1474.5,-144.841 1470.63,-107.569 1467.97,-85.7107"/>
<polygon fill="midnightblue" stroke="midnightblue" points="1471.41,-85.0183 1466.68,-75.5383 1464.46,-85.8993 1471.41,-85.0183"/>
</g>
<!-- Node31&#45;&gt;Node17 -->
<g id="edge59" class="edge"><title>Node31&#45;&gt;Node17</title>
<path fill="none" stroke="midnightblue" d="M1159.1,-395.667C1244.83,-383.267 1436.5,-349.053 1436.5,-291 1436.5,-291 1436.5,-291 1436.5,-233 1436.5,-178.231 1416.6,-115.802 1405.6,-85.479"/>
<polygon fill="midnightblue" stroke="midnightblue" points="1408.78,-83.9808 1402.01,-75.8335 1402.22,-86.4262 1408.78,-83.9808"/>
</g>
<!-- Node32 -->
<g id="node32" class="node"><title>Node32</title>
<g id="a_node32"><a xlink:href="cosmos-errno_8h.html" target="_top" xlink:title="COSMOS Error Codes. ">
<polygon fill="white" stroke="black" points="943,-336.5 943,-355.5 1062,-355.5 1062,-336.5 943,-336.5"/>
<text text-anchor="middle" x="1002.5" y="-343.5" font-family="Helvetica,sans-Serif" font-size="10.00">support/cosmos&#45;errno.h</text>
</a>
</g>
</g>
<!-- Node31&#45;&gt;Node32 -->
<g id="edge38" class="edge"><title>Node31&#45;&gt;Node32</title>
<path fill="none" stroke="midnightblue" d="M1100.12,-392.444C1081.28,-383.675 1051.77,-369.935 1030.12,-359.858"/>
<polygon fill="midnightblue" stroke="midnightblue" points="1031.34,-356.564 1020.79,-355.516 1028.38,-362.91 1031.34,-356.564"/>
</g>
<!-- Node34 -->
<g id="node34" class="node"><title>Node34</title>
<g id="a_node34"><a xlink:href="math_2constants_8h.html" target="_top" xlink:title="constants.h">
<polygon fill="white" stroke="black" points="1226.5,-168.5 1226.5,-187.5 1294.5,-187.5 1294.5,-168.5 1226.5,-168.5"/>
<text text-anchor="middle" x="1260.5" y="-175.5" font-family="Helvetica,sans-Serif" font-size="10.00">constants.h</text>
</a>
</g>
</g>
<!-- Node31&#45;&gt;Node34 -->
<g id="edge41" class="edge"><title>Node31&#45;&gt;Node34</title>
<path fill="none" stroke="midnightblue" d="M1146.59,-392.386C1165.15,-385.355 1188.7,-373.658 1203.5,-356 1243.19,-308.658 1255.39,-233.188 1259.02,-198.097"/>
<polygon fill="midnightblue" stroke="midnightblue" points="1262.54,-198.119 1259.96,-187.844 1255.57,-197.487 1262.54,-198.119"/>
</g>
<!-- Node35 -->
<g id="node35" class="node"><title>Node35</title>
<g id="a_node35"><a xlink:href="vector_8h.html" target="_top" xlink:title="vector.h">
<polygon fill="white" stroke="black" points="1178.5,-224.5 1178.5,-243.5 1230.5,-243.5 1230.5,-224.5 1178.5,-224.5"/>
<text text-anchor="middle" x="1204.5" y="-231.5" font-family="Helvetica,sans-Serif" font-size="10.00">vector.h</text>
</a>
</g>
</g>
<!-- Node31&#45;&gt;Node35 -->
<g id="edge44" class="edge"><title>Node31&#45;&gt;Node35</title>
<path fill="none" stroke="midnightblue" d="M1139.52,-392.466C1154.81,-385.125 1174.65,-373.014 1185.5,-356 1205.62,-324.435 1207.06,-279.065 1205.99,-253.802"/>
<polygon fill="midnightblue" stroke="midnightblue" points="1209.48,-253.502 1205.38,-243.731 1202.49,-253.924 1209.48,-253.502"/>
</g>
<!-- Node37 -->
<g id="node37" class="node"><title>Node37</title>
<g id="a_node37"><a xlink:href="matrix_8h.html" target="_top" xlink:title="matrix.h">
<polygon fill="white" stroke="black" points="1083.5,-280.5 1083.5,-299.5 1135.5,-299.5 1135.5,-280.5 1083.5,-280.5"/>
<text text-anchor="middle" x="1109.5" y="-287.5" font-family="Helvetica,sans-Serif" font-size="10.00">matrix.h</text>
</a>
</g>
</g>
<!-- Node31&#45;&gt;Node37 -->
<g id="edge51" class="edge"><title>Node31&#45;&gt;Node37</title>
<path fill="none" stroke="midnightblue" d="M1116.55,-392.43C1114.61,-383.417 1111.73,-368.796 1110.5,-356 1109.02,-340.533 1108.84,-322.903 1108.99,-309.91"/>
<polygon fill="midnightblue" stroke="midnightblue" points="1112.49,-309.922 1109.19,-299.856 1105.49,-309.786 1112.49,-309.922"/>
</g>
<!-- Node38 -->
<g id="node38" class="node"><title>Node38</title>
<g id="a_node38"><a xlink:href="rotation_8h.html" target="_top" xlink:title="rotation.h">
<polygon fill="white" stroke="black" points="1119,-336.5 1119,-355.5 1176,-355.5 1176,-336.5 1119,-336.5"/>
<text text-anchor="middle" x="1147.5" y="-343.5" font-family="Helvetica,sans-Serif" font-size="10.00">rotation.h</text>
</a>
</g>
</g>
<!-- Node31&#45;&gt;Node38 -->
<g id="edge54" class="edge"><title>Node31&#45;&gt;Node38</title>
<path fill="none" stroke="midnightblue" d="M1123.29,-392.083C1127.26,-384.691 1133.03,-373.953 1137.93,-364.811"/>
<polygon fill="midnightblue" stroke="midnightblue" points="1141.15,-366.217 1142.8,-355.751 1134.99,-362.905 1141.15,-366.217"/>
</g>
<!-- Node32&#45;&gt;Node5 -->
<g id="edge39" class="edge"><title>Node32&#45;&gt;Node5</title>
<path fill="none" stroke="midnightblue" d="M1003.14,-336.327C1003.79,-323.614 1003.93,-299.333 997.5,-280 978.911,-224.071 965.181,-212.467 926.5,-168 916.845,-156.901 904.371,-146.17 893.95,-137.973"/>
<polygon fill="midnightblue" stroke="midnightblue" points="895.856,-135.025 885.786,-131.731 891.604,-140.586 895.856,-135.025"/>
</g>
<!-- Node33 -->
<g id="node33" class="node"><title>Node33</title>
<polygon fill="white" stroke="#bfbfbf" points="941,-280.5 941,-299.5 988,-299.5 988,-280.5 941,-280.5"/>
<text text-anchor="middle" x="964.5" y="-287.5" font-family="Helvetica,sans-Serif" font-size="10.00">errno.h</text>
</g>
<!-- Node32&#45;&gt;Node33 -->
<g id="edge40" class="edge"><title>Node32&#45;&gt;Node33</title>
<path fill="none" stroke="midnightblue" d="M996.225,-336.083C990.858,-328.455 982.982,-317.264 976.421,-307.941"/>
<polygon fill="midnightblue" stroke="midnightblue" points="979.275,-305.915 970.658,-299.751 973.551,-309.943 979.275,-305.915"/>
</g>
<!-- Node34&#45;&gt;Node5 -->
<g id="edge42" class="edge"><title>Node34&#45;&gt;Node5</title>
<path fill="none" stroke="midnightblue" d="M1226.28,-169.592C1223.31,-169.025 1220.36,-168.485 1217.5,-168 1123.83,-152.095 1014.99,-138.705 945.233,-130.77"/>
<polygon fill="midnightblue" stroke="midnightblue" points="945.561,-127.284 935.231,-129.639 944.775,-134.24 945.561,-127.284"/>
</g>
<!-- Node34&#45;&gt;Node8 -->
<g id="edge43" class="edge"><title>Node34&#45;&gt;Node8</title>
<path fill="none" stroke="midnightblue" d="M1263.01,-168.368C1268.2,-150.537 1280.2,-109.295 1287.18,-85.2717"/>
<polygon fill="midnightblue" stroke="midnightblue" points="1290.57,-86.1711 1290,-75.5914 1283.85,-84.2157 1290.57,-86.1711"/>
</g>
<!-- Node35&#45;&gt;Node5 -->
<g id="edge45" class="edge"><title>Node35&#45;&gt;Node5</title>
<path fill="none" stroke="midnightblue" d="M1194.41,-224.302C1177.46,-210.174 1141.65,-182.375 1106.5,-168 1054.81,-146.86 992.532,-135.491 945.372,-129.472"/>
<polygon fill="midnightblue" stroke="midnightblue" points="945.596,-125.973 935.245,-128.231 944.745,-132.921 945.596,-125.973"/>
</g>
<!-- Node35&#45;&gt;Node15 -->
<g id="edge49" class="edge"><title>Node35&#45;&gt;Node15</title>
<path fill="none" stroke="midnightblue" d="M1230.67,-229.783C1262.66,-224.887 1317.49,-213.313 1357.5,-188 1400.95,-160.514 1437.35,-110.688 1454.67,-84.3674"/>
<polygon fill="midnightblue" stroke="midnightblue" points="1457.7,-86.1243 1460.16,-75.8189 1451.81,-82.3409 1457.7,-86.1243"/>
</g>
<!-- Node35&#45;&gt;Node17 -->
<g id="edge47" class="edge"><title>Node35&#45;&gt;Node17</title>
<path fill="none" stroke="midnightblue" d="M1230.7,-229.972C1259.62,-225.404 1306.1,-214.287 1336.5,-188 1353.27,-173.5 1378.81,-115.127 1391.22,-85.0761"/>
<polygon fill="midnightblue" stroke="midnightblue" points="1394.49,-86.3275 1395.03,-75.7462 1388.01,-83.6833 1394.49,-86.3275"/>
</g>
<!-- Node35&#45;&gt;Node21 -->
<g id="edge50" class="edge"><title>Node35&#45;&gt;Node21</title>
<path fill="none" stroke="midnightblue" d="M1230.58,-228.16C1253.38,-222.52 1285.56,-210.884 1303.5,-188 1334.74,-148.139 1319.81,-126.428 1324.5,-76 1325.32,-67.1493 1329.05,-63.6378 1324.5,-56 1313.41,-37.3758 1291.63,-25.9852 1273.17,-19.3246"/>
<polygon fill="midnightblue" stroke="midnightblue" points="1274.21,-15.9818 1263.61,-16.1772 1272.01,-22.6304 1274.21,-15.9818"/>
</g>
<!-- Node35&#45;&gt;Node34 -->
<g id="edge46" class="edge"><title>Node35&#45;&gt;Node34</title>
<path fill="none" stroke="midnightblue" d="M1213.5,-224.324C1221.69,-216.42 1234.01,-204.548 1243.97,-194.938"/>
<polygon fill="midnightblue" stroke="midnightblue" points="1246.57,-197.295 1251.34,-187.834 1241.71,-192.256 1246.57,-197.295"/>
</g>
<!-- Node36 -->
<g id="node36" class="node"><title>Node36</title>
<polygon fill="white" stroke="#bfbfbf" points="1158.5,-168.5 1158.5,-187.5 1208.5,-187.5 1208.5,-168.5 1158.5,-168.5"/>
<text text-anchor="middle" x="1183.5" y="-175.5" font-family="Helvetica,sans-Serif" font-size="10.00">iomanip</text>
</g>
<!-- Node35&#45;&gt;Node36 -->
<g id="edge48" class="edge"><title>Node35&#45;&gt;Node36</title>
<path fill="none" stroke="midnightblue" d="M1201.03,-224.083C1198.19,-216.77 1194.07,-206.181 1190.54,-197.103"/>
<polygon fill="midnightblue" stroke="midnightblue" points="1193.79,-195.803 1186.9,-187.751 1187.27,-198.34 1193.79,-195.803"/>
</g>
<!-- Node37&#45;&gt;Node5 -->
<g id="edge52" class="edge"><title>Node37&#45;&gt;Node5</title>
<path fill="none" stroke="midnightblue" d="M1109.3,-280.464C1108.28,-258.325 1102.38,-198.655 1068.5,-168 1050.34,-151.569 993.048,-139.589 945.229,-132.139"/>
<polygon fill="midnightblue" stroke="midnightblue" points="945.598,-128.655 935.187,-130.619 944.55,-135.577 945.598,-128.655"/>
</g>
<!-- Node37&#45;&gt;Node35 -->
<g id="edge53" class="edge"><title>Node37&#45;&gt;Node35</title>
<path fill="none" stroke="midnightblue" d="M1124.76,-280.324C1139.72,-271.822 1162.75,-258.729 1180.23,-248.797"/>
<polygon fill="midnightblue" stroke="midnightblue" points="1182.31,-251.639 1189.27,-243.655 1178.85,-245.553 1182.31,-251.639"/>
</g>
<!-- Node38&#45;&gt;Node5 -->
<g id="edge55" class="edge"><title>Node38&#45;&gt;Node5</title>
<path fill="none" stroke="midnightblue" d="M1131.04,-336.471C1115.69,-328.155 1092.52,-314.65 1074.5,-300 1011.8,-249.037 1012.65,-218.402 949.5,-168 934.117,-155.722 915.053,-144.443 899.867,-136.248"/>
<polygon fill="midnightblue" stroke="midnightblue" points="901.459,-133.131 890.981,-131.563 898.194,-139.323 901.459,-133.131"/>
</g>
<!-- Node38&#45;&gt;Node35 -->
<g id="edge56" class="edge"><title>Node38&#45;&gt;Node35</title>
<path fill="none" stroke="midnightblue" d="M1151.97,-336.368C1161.3,-318.376 1182.97,-276.55 1195.37,-252.627"/>
<polygon fill="midnightblue" stroke="midnightblue" points="1198.55,-254.081 1200.05,-243.591 1192.34,-250.86 1198.55,-254.081"/>
</g>
<!-- Node38&#45;&gt;Node37 -->
<g id="edge57" class="edge"><title>Node38&#45;&gt;Node37</title>
<path fill="none" stroke="midnightblue" d="M1141.23,-336.083C1135.86,-328.455 1127.98,-317.264 1121.42,-307.941"/>
<polygon fill="midnightblue" stroke="midnightblue" points="1124.28,-305.915 1115.66,-299.751 1118.55,-309.943 1124.28,-305.915"/>
</g>
<!-- Node39&#45;&gt;Node5 -->
<g id="edge61" class="edge"><title>Node39&#45;&gt;Node5</title>
<path fill="none" stroke="midnightblue" d="M975.399,-448.413C939.075,-433.746 874.5,-400.19 874.5,-347 874.5,-347 874.5,-347 874.5,-233 874.5,-200.947 874.07,-163.642 873.774,-141.748"/>
<polygon fill="midnightblue" stroke="midnightblue" points="877.271,-141.507 873.631,-131.558 870.272,-141.606 877.271,-141.507"/>
</g>
<!-- Node39&#45;&gt;Node31 -->
<g id="edge62" class="edge"><title>Node39&#45;&gt;Node31</title>
<path fill="none" stroke="midnightblue" d="M1018.36,-448.444C1037.77,-439.636 1068.23,-425.812 1090.46,-415.722"/>
<polygon fill="midnightblue" stroke="midnightblue" points="1092.07,-418.836 1099.73,-411.516 1089.18,-412.462 1092.07,-418.836"/>
</g>
<!-- Node42 -->
<g id="node42" class="node"><title>Node42</title>
<polygon fill="white" stroke="#bfbfbf" points="1210.5,-448.5 1210.5,-467.5 1290.5,-467.5 1290.5,-448.5 1210.5,-448.5"/>
<text text-anchor="middle" x="1250.5" y="-455.5" font-family="Helvetica,sans-Serif" font-size="10.00">QMainWindow</text>
</g>
<!-- Node41&#45;&gt;Node42 -->
<g id="edge66" class="edge"><title>Node41&#45;&gt;Node42</title>
<path fill="none" stroke="midnightblue" d="M1250.5,-504.083C1250.5,-497.006 1250.5,-486.861 1250.5,-477.986"/>
<polygon fill="midnightblue" stroke="midnightblue" points="1254,-477.751 1250.5,-467.751 1247,-477.751 1254,-477.751"/>
</g>
</g>
</svg>
