<?xml version="1.0" encoding="UTF-8" standalone="no"?>
<!DOCTYPE svg PUBLIC "-//W3C//DTD SVG 1.1//EN"
 "http://www.w3.org/Graphics/SVG/1.1/DTD/svg11.dtd">
<!-- Generated by graphviz version 2.38.0 (20140413.2041)
 -->
<!-- Title: timeutils.h Pages: 1 -->
<svg width="844pt" height="84pt"
 viewBox="0.00 0.00 844.00 84.00" xmlns="http://www.w3.org/2000/svg" xmlns:xlink="http://www.w3.org/1999/xlink">
<g id="graph0" class="graph" transform="scale(1 1) rotate(0) translate(4 80)">
<title>timeutils.h</title>
<polygon fill="white" stroke="none" points="-4,4 -4,-80 840,-80 840,4 -4,4"/>
<!-- Node1 -->
<g id="node1" class="node"><title>Node1</title>
<polygon fill="#bfbfbf" stroke="black" points="357,-56.5 357,-75.5 419,-75.5 419,-56.5 357,-56.5"/>
<text text-anchor="middle" x="388" y="-63.5" font-family="Helvetica,sans-Serif" font-size="10.00">timeutils.h</text>
</g>
<!-- Node2 -->
<g id="node2" class="node"><title>Node2</title>
<g id="a_node2"><a xlink:href="agent__001_8cpp.html" target="_top" xlink:title="agent_001.cpp">
<polygon fill="white" stroke="black" points="0,-0.5 0,-19.5 80,-19.5 80,-0.5 0,-0.5"/>
<text text-anchor="middle" x="40" y="-7.5" font-family="Helvetica,sans-Serif" font-size="10.00">agent_001.cpp</text>
</a>
</g>
</g>
<!-- Node1&#45;&gt;Node2 -->
<g id="edge1" class="edge"><title>Node1&#45;&gt;Node2</title>
<path fill="none" stroke="midnightblue" d="M346.78,-59.2255C289.052,-51.0407 180.881,-35.348 89,-20 86.0994,-19.5155 83.105,-19.0009 80.0929,-18.4728"/>
<polygon fill="midnightblue" stroke="midnightblue" points="346.565,-62.7298 356.956,-60.6646 347.545,-55.7988 346.565,-62.7298"/>
</g>
<!-- Node3 -->
<g id="node3" class="node"><title>Node3</title>
<g id="a_node3"><a xlink:href="agent__004_8cpp.html" target="_top" xlink:title="agent_004.cpp">
<polygon fill="white" stroke="black" points="98,-0.5 98,-19.5 178,-19.5 178,-0.5 98,-0.5"/>
<text text-anchor="middle" x="138" y="-7.5" font-family="Helvetica,sans-Serif" font-size="10.00">agent_004.cpp</text>
</a>
</g>
</g>
<!-- Node1&#45;&gt;Node3 -->
<g id="edge2" class="edge"><title>Node1&#45;&gt;Node3</title>
<path fill="none" stroke="midnightblue" d="M347.006,-56.1452C300.05,-46.0028 223.654,-29.5012 177.384,-19.5069"/>
<polygon fill="midnightblue" stroke="midnightblue" points="346.329,-59.5798 356.843,-58.27 347.807,-52.7376 346.329,-59.5798"/>
</g>
<!-- Node4 -->
<g id="node4" class="node"><title>Node4</title>
<g id="a_node4"><a xlink:href="agent__005_8cpp.html" target="_top" xlink:title="agent_005.cpp">
<polygon fill="white" stroke="black" points="196,-0.5 196,-19.5 276,-19.5 276,-0.5 196,-0.5"/>
<text text-anchor="middle" x="236" y="-7.5" font-family="Helvetica,sans-Serif" font-size="10.00">agent_005.cpp</text>
</a>
</g>
</g>
<!-- Node1&#45;&gt;Node4 -->
<g id="edge3" class="edge"><title>Node1&#45;&gt;Node4</title>
<path fill="none" stroke="midnightblue" d="M354.332,-53.0392C325.732,-42.8786 285.388,-28.5457 259.972,-19.5164"/>
<polygon fill="midnightblue" stroke="midnightblue" points="353.32,-56.3939 363.915,-56.4435 355.664,-49.7978 353.32,-56.3939"/>
</g>
<!-- Node5 -->
<g id="node5" class="node"><title>Node5</title>
<g id="a_node5"><a xlink:href="agent__008_8cpp.html" target="_top" xlink:title="agent_008.cpp">
<polygon fill="white" stroke="black" points="294,-0.5 294,-19.5 374,-19.5 374,-0.5 294,-0.5"/>
<text text-anchor="middle" x="334" y="-7.5" font-family="Helvetica,sans-Serif" font-size="10.00">agent_008.cpp</text>
</a>
</g>
</g>
<!-- Node1&#45;&gt;Node5 -->
<g id="edge4" class="edge"><title>Node1&#45;&gt;Node5</title>
<path fill="none" stroke="midnightblue" d="M372.002,-49.0024C362.433,-39.4329 350.639,-27.6389 342.751,-19.7511"/>
<polygon fill="midnightblue" stroke="midnightblue" points="369.537,-51.4868 379.083,-56.083 374.487,-46.537 369.537,-51.4868"/>
</g>
<!-- Node6 -->
<g id="node6" class="node"><title>Node6</title>
<g id="a_node6"><a xlink:href="agent__add__soh_8cpp.html" target="_top" xlink:title="agent_add_soh.cpp">
<polygon fill="white" stroke="black" points="392.5,-0.5 392.5,-19.5 493.5,-19.5 493.5,-0.5 392.5,-0.5"/>
<text text-anchor="middle" x="443" y="-7.5" font-family="Helvetica,sans-Serif" font-size="10.00">agent_add_soh.cpp</text>
</a>
</g>
</g>
<!-- Node1&#45;&gt;Node6 -->
<g id="edge5" class="edge"><title>Node1&#45;&gt;Node6</title>
<path fill="none" stroke="midnightblue" d="M404.294,-49.0024C414.041,-39.4329 426.053,-27.6389 434.087,-19.7511"/>
<polygon fill="midnightblue" stroke="midnightblue" points="401.766,-46.5796 397.082,-56.083 406.67,-51.5746 401.766,-46.5796"/>
</g>
<!-- Node7 -->
<g id="node7" class="node"><title>Node7</title>
<g id="a_node7"><a xlink:href="agent__cpu__device__test_8cpp.html" target="_top" xlink:title="agent_cpu_device_test.cpp">
<polygon fill="white" stroke="black" points="512,-0.5 512,-19.5 648,-19.5 648,-0.5 512,-0.5"/>
<text text-anchor="middle" x="580" y="-7.5" font-family="Helvetica,sans-Serif" font-size="10.00">agent_cpu_device_test.cpp</text>
</a>
</g>
</g>
<!-- Node1&#45;&gt;Node7 -->
<g id="edge6" class="edge"><title>Node1&#45;&gt;Node7</title>
<path fill="none" stroke="midnightblue" d="M428.183,-53.6986C464.419,-43.507 516.914,-28.7429 549.719,-19.5164"/>
<polygon fill="midnightblue" stroke="midnightblue" points="427.102,-50.3667 418.423,-56.4435 428.997,-57.1053 427.102,-50.3667"/>
</g>
<!-- Node8 -->
<g id="node8" class="node"><title>Node8</title>
<g id="a_node8"><a xlink:href="timeutils_8cpp.html" target="_top" xlink:title="timeutils.cpp">
<polygon fill="white" stroke="black" points="666,-0.5 666,-19.5 738,-19.5 738,-0.5 666,-0.5"/>
<text text-anchor="middle" x="702" y="-7.5" font-family="Helvetica,sans-Serif" font-size="10.00">timeutils.cpp</text>
</a>
</g>
</g>
<!-- Node1&#45;&gt;Node8 -->
<g id="edge7" class="edge"><title>Node1&#45;&gt;Node8</title>
<path fill="none" stroke="midnightblue" d="M429.115,-58.5366C481.943,-50.1369 576.445,-34.7895 657,-20 659.821,-19.4821 662.739,-18.9318 665.67,-18.3686"/>
<polygon fill="midnightblue" stroke="midnightblue" points="428.45,-55.0983 419.122,-60.1217 429.547,-62.0119 428.45,-55.0983"/>
</g>
<!-- Node9 -->
<g id="node9" class="node"><title>Node9</title>
<g id="a_node9"><a xlink:href="agent__cpu_8cpp.html" target="_top" xlink:title="agent_cpu.cpp">
<polygon fill="white" stroke="black" points="756,-0.5 756,-19.5 836,-19.5 836,-0.5 756,-0.5"/>
<text text-anchor="middle" x="796" y="-7.5" font-family="Helvetica,sans-Serif" font-size="10.00">agent_cpu.cpp</text>
</a>
</g>
</g>
<!-- Node1&#45;&gt;Node9 -->
<g id="edge8" class="edge"><title>Node1&#45;&gt;Node9</title>
<path fill="none" stroke="midnightblue" d="M429.433,-60.5826C496.371,-53.2715 632.388,-37.694 747,-20 749.906,-19.5513 752.905,-19.0631 755.92,-18.5537"/>
<polygon fill="midnightblue" stroke="midnightblue" points="428.86,-57.1241 419.297,-61.684 429.616,-64.0831 428.86,-57.1241"/>
</g>
</g>
</svg>
