<?xml version="1.0" encoding="UTF-8" standalone="no"?>
<!DOCTYPE svg PUBLIC "-//W3C//DTD SVG 1.1//EN"
 "http://www.w3.org/Graphics/SVG/1.1/DTD/svg11.dtd">
<!-- Generated by graphviz version 2.38.0 (20140413.2041)
 -->
<!-- Title: timelib.h Pages: 1 -->
<!--zoomable 476 -->
<svg id="main" version="1.1" xmlns="http://www.w3.org/2000/svg" xmlns:xlink="http://www.w3.org/1999/xlink" xml:space="preserve" onload="init(evt)">
<style type="text/css"><![CDATA[
.edge:hover path { stroke: red; }
.edge:hover polygon { stroke: red; fill: red; }
]]></style>
<script type="text/javascript"><![CDATA[
var edges = document.getElementsByTagName('g');
if (edges && edges.length) {
  for (var i=0;i<edges.length;i++) {
    if (edges[i].id.substr(0,4)=='edge') {
      edges[i].setAttribute('class','edge');
    }
  }
}
]]></script>
        <defs>
                <circle id="rim" cx="0" cy="0" r="7"/>
                <circle id="rim2" cx="0" cy="0" r="3.5"/>
                <g id="zoomPlus">
                        <use xlink:href="#rim" fill="#404040">
                                <set attributeName="fill" to="#808080" begin="zoomplus.mouseover" end="zoomplus.mouseout"/>
                        </use>
                        <path d="M-4,0h8M0,-4v8" fill="none" stroke="white" stroke-width="1.5" pointer-events="none"/>
                </g>
                <g id="zoomMin">
                        <use xlink:href="#rim" fill="#404040">
                                <set attributeName="fill" to="#808080" begin="zoomminus.mouseover" end="zoomminus.mouseout"/>
                        </use>
                        <path d="M-4,0h8" fill="none" stroke="white" stroke-width="1.5" pointer-events="none"/>
                </g>
                <g id="dirArrow">
                        <path fill="none" stroke="white" stroke-width="1.5" d="M0,-3.0v7 M-2.5,-0.5L0,-3.0L2.5,-0.5"/>
                </g>
               <g id="resetDef">
                       <use xlink:href="#rim2" fill="#404040">
                               <set attributeName="fill" to="#808080" begin="reset.mouseover" end="reset.mouseout"/>
                       </use>
               </g>
        </defs>

<script type="text/javascript">
var viewWidth = 1624;
var viewHeight = 476;
var sectionId = 'dynsection-0';
</script>
<script xlink:href="svgpan.js"/>
<svg id="graph" class="graph">
<g id="viewport">
<title>timelib.h</title>
<polygon fill="white" stroke="none" points="-4,4 -4,-472 1620.44,-472 1620.44,4 -4,4"/>
<!-- Node1 -->
<g id="node1" class="node"><title>Node1</title>
<polygon fill="#bfbfbf" stroke="black" points="803.939,-448.5 803.939,-467.5 856.939,-467.5 856.939,-448.5 803.939,-448.5"/>
<text text-anchor="middle" x="830.439" y="-455.5" font-family="Helvetica,sans-Serif" font-size="10.00">timelib.h</text>
</g>
<!-- Node2 -->
<g id="node2" class="node"><title>Node2</title>
<g id="a_node2"><a xlink:href="config_cosmos_8h.html" target="_top" xlink:title="Headers and definitions common to all COSMOS. ">
<polygon fill="white" stroke="black" points="680.939,-112.5 680.939,-131.5 803.939,-131.5 803.939,-112.5 680.939,-112.5"/>
<text text-anchor="middle" x="742.439" y="-119.5" font-family="Helvetica,sans-Serif" font-size="10.00">support/configCosmos.h</text>
</a>
</g>
</g>
<!-- Node1&#45;&gt;Node2 -->
<g id="edge1" class="edge"><title>Node1&#45;&gt;Node2</title>
<path fill="none" stroke="midnightblue" d="M835.723,-448.231C846.164,-430.043 868.439,-386.601 868.439,-347 868.439,-347 868.439,-347 868.439,-233 868.439,-183.953 813.588,-151.742 776.267,-135.502"/>
<polygon fill="midnightblue" stroke="midnightblue" points="777.31,-132.145 766.733,-131.53 774.618,-138.606 777.31,-132.145"/>
</g>
<!-- Node12 -->
<g id="node12" class="node"><title>Node12</title>
<polygon fill="white" stroke="#bfbfbf" points="127.439,-56.5 127.439,-75.5 171.439,-75.5 171.439,-56.5 127.439,-56.5"/>
<text text-anchor="middle" x="149.439" y="-63.5" font-family="Helvetica,sans-Serif" font-size="10.00">cmath</text>
</g>
<!-- Node1&#45;&gt;Node12 -->
<g id="edge63" class="edge"><title>Node1&#45;&gt;Node12</title>
<path fill="none" stroke="midnightblue" d="M803.837,-456.74C691.847,-455.423 258.474,-448.052 127.439,-412 66.303,-395.18 0.439031,-410.408 0.439031,-347 0.439031,-347 0.439031,-347 0.439031,-177 0.439031,-146.902 -1.31709,-133.796 19.439,-112 45.1099,-85.0432 87.7095,-74.2303 117.109,-69.8957"/>
<polygon fill="midnightblue" stroke="midnightblue" points="117.822,-73.3327 127.288,-68.5739 116.92,-66.3909 117.822,-73.3327"/>
</g>
<!-- Node28 -->
<g id="node28" class="node"><title>Node28</title>
<g id="a_node28"><a xlink:href="elapsedtime_8h.html" target="_top" xlink:title="Elapsed Time header file. ">
<polygon fill="white" stroke="black" points="77.939,-168.5 77.939,-187.5 190.939,-187.5 190.939,-168.5 77.939,-168.5"/>
<text text-anchor="middle" x="134.439" y="-175.5" font-family="Helvetica,sans-Serif" font-size="10.00">support/elapsedtime.h</text>
</a>
</g>
</g>
<!-- Node1&#45;&gt;Node28 -->
<g id="edge33" class="edge"><title>Node1&#45;&gt;Node28</title>
<path fill="none" stroke="midnightblue" d="M803.681,-455.502C678.697,-448.154 158.439,-413.572 158.439,-347 158.439,-347 158.439,-347 158.439,-289 158.439,-256.059 148.038,-218.818 140.93,-197.214"/>
<polygon fill="midnightblue" stroke="midnightblue" points="144.224,-196.028 137.676,-187.699 137.601,-198.294 144.224,-196.028"/>
</g>
<!-- Node29 -->
<g id="node29" class="node"><title>Node29</title>
<polygon fill="white" stroke="#bfbfbf" points="28.939,-112.5 28.939,-131.5 69.939,-131.5 69.939,-112.5 28.939,-112.5"/>
<text text-anchor="middle" x="49.439" y="-119.5" font-family="Helvetica,sans-Serif" font-size="10.00">ctime</text>
</g>
<!-- Node1&#45;&gt;Node29 -->
<g id="edge67" class="edge"><title>Node1&#45;&gt;Node29</title>
<path fill="none" stroke="midnightblue" d="M803.555,-456.109C666.224,-451.211 49.439,-424.878 49.439,-347 49.439,-347 49.439,-347 49.439,-233 49.439,-200.948 49.439,-163.643 49.439,-141.749"/>
<polygon fill="midnightblue" stroke="midnightblue" points="52.9391,-141.558 49.439,-131.558 45.9391,-141.558 52.9391,-141.558"/>
</g>
<!-- Node31 -->
<g id="node31" class="node"><title>Node31</title>
<g id="a_node31"><a xlink:href="mathlib_8h.html" target="_top" xlink:title="mathlib include file ">
<polygon fill="white" stroke="black" points="536.939,-392.5 536.939,-411.5 617.939,-411.5 617.939,-392.5 536.939,-392.5"/>
<text text-anchor="middle" x="577.439" y="-399.5" font-family="Helvetica,sans-Serif" font-size="10.00">math/mathlib.h</text>
</a>
</g>
</g>
<!-- Node1&#45;&gt;Node31 -->
<g id="edge39" class="edge"><title>Node1&#45;&gt;Node31</title>
<path fill="none" stroke="midnightblue" d="M803.842,-451.323C762.007,-442.394 680.15,-424.922 627.175,-413.616"/>
<polygon fill="midnightblue" stroke="midnightblue" points="627.821,-410.175 617.311,-411.51 626.36,-417.021 627.821,-410.175"/>
</g>
<!-- Node33 -->
<g id="node33" class="node"><title>Node33</title>
<polygon fill="white" stroke="#bfbfbf" points="781.939,-280.5 781.939,-299.5 828.939,-299.5 828.939,-280.5 781.939,-280.5"/>
<text text-anchor="middle" x="805.439" y="-287.5" font-family="Helvetica,sans-Serif" font-size="10.00">errno.h</text>
</g>
<!-- Node1&#45;&gt;Node33 -->
<g id="edge65" class="edge"><title>Node1&#45;&gt;Node33</title>
<path fill="none" stroke="midnightblue" d="M829.095,-448.075C825.16,-421.945 813.603,-345.211 808.237,-309.577"/>
<polygon fill="midnightblue" stroke="midnightblue" points="811.68,-308.935 806.729,-299.568 804.758,-309.978 811.68,-308.935"/>
</g>
<!-- Node39 -->
<g id="node39" class="node"><title>Node39</title>
<polygon fill="white" stroke="#bfbfbf" points="896.439,-392.5 896.439,-411.5 940.439,-411.5 940.439,-392.5 896.439,-392.5"/>
<text text-anchor="middle" x="918.439" y="-399.5" font-family="Helvetica,sans-Serif" font-size="10.00">time.h</text>
</g>
<!-- Node1&#45;&gt;Node39 -->
<g id="edge64" class="edge"><title>Node1&#45;&gt;Node39</title>
<path fill="none" stroke="midnightblue" d="M844.578,-448.324C858.305,-439.9 879.375,-426.971 895.503,-417.074"/>
<polygon fill="midnightblue" stroke="midnightblue" points="897.643,-419.868 904.335,-411.655 893.982,-413.902 897.643,-419.868"/>
</g>
<!-- Node40 -->
<g id="node40" class="node"><title>Node40</title>
<polygon fill="white" stroke="#bfbfbf" points="958.439,-392.5 958.439,-411.5 1004.44,-411.5 1004.44,-392.5 958.439,-392.5"/>
<text text-anchor="middle" x="981.439" y="-399.5" font-family="Helvetica,sans-Serif" font-size="10.00">stdio.h</text>
</g>
<!-- Node1&#45;&gt;Node40 -->
<g id="edge66" class="edge"><title>Node1&#45;&gt;Node40</title>
<path fill="none" stroke="midnightblue" d="M854.365,-448.444C879.807,-439.345 920.214,-424.895 948.618,-414.737"/>
<polygon fill="midnightblue" stroke="midnightblue" points="949.883,-418.002 958.121,-411.339 947.526,-411.411 949.883,-418.002"/>
</g>
<!-- Node41 -->
<g id="node41" class="node"><title>Node41</title>
<polygon fill="white" stroke="#bfbfbf" points="1022.94,-392.5 1022.94,-411.5 1057.94,-411.5 1057.94,-392.5 1022.94,-392.5"/>
<text text-anchor="middle" x="1040.44" y="-399.5" font-family="Helvetica,sans-Serif" font-size="10.00">ratio</text>
</g>
<!-- Node1&#45;&gt;Node41 -->
<g id="edge68" class="edge"><title>Node1&#45;&gt;Node41</title>
<path fill="none" stroke="midnightblue" d="M856.982,-451.18C890.927,-443.584 951.7,-429.475 1012.95,-411.953"/>
<polygon fill="midnightblue" stroke="midnightblue" points="1014.15,-415.251 1022.78,-409.112 1012.21,-408.526 1014.15,-415.251"/>
</g>
<!-- Node3 -->
<g id="node3" class="node"><title>Node3</title>
<polygon fill="white" stroke="#bfbfbf" points="1238.94,-56.5 1238.94,-75.5 1283.94,-75.5 1283.94,-56.5 1238.94,-56.5"/>
<text text-anchor="middle" x="1261.44" y="-63.5" font-family="Helvetica,sans-Serif" font-size="10.00">climits</text>
</g>
<!-- Node2&#45;&gt;Node3 -->
<g id="edge2" class="edge"><title>Node2&#45;&gt;Node3</title>
<path fill="none" stroke="midnightblue" d="M804.059,-118.122C896.074,-113.177 1074.61,-101.079 1224.44,-76 1225.91,-75.7544 1227.4,-75.4825 1228.91,-75.1908"/>
<polygon fill="midnightblue" stroke="midnightblue" points="1229.81,-78.5765 1238.85,-73.0469 1228.34,-71.7338 1229.81,-78.5765"/>
</g>
<!-- Node4 -->
<g id="node4" class="node"><title>Node4</title>
<polygon fill="white" stroke="#bfbfbf" points="1301.94,-56.5 1301.94,-75.5 1348.94,-75.5 1348.94,-56.5 1301.94,-56.5"/>
<text text-anchor="middle" x="1325.44" y="-63.5" font-family="Helvetica,sans-Serif" font-size="10.00">csignal</text>
</g>
<!-- Node2&#45;&gt;Node4 -->
<g id="edge3" class="edge"><title>Node2&#45;&gt;Node4</title>
<path fill="none" stroke="midnightblue" d="M804.09,-119.83C904.632,-117.075 1110.14,-107.918 1291.79,-75.9848"/>
<polygon fill="midnightblue" stroke="midnightblue" points="1292.56,-79.4023 1301.79,-74.199 1291.33,-72.5113 1292.56,-79.4023"/>
</g>
<!-- Node5 -->
<g id="node5" class="node"><title>Node5</title>
<polygon fill="white" stroke="#bfbfbf" points="1570.44,-56.5 1570.44,-75.5 1616.44,-75.5 1616.44,-56.5 1570.44,-56.5"/>
<text text-anchor="middle" x="1593.44" y="-63.5" font-family="Helvetica,sans-Serif" font-size="10.00">cstdint</text>
</g>
<!-- Node2&#45;&gt;Node5 -->
<g id="edge4" class="edge"><title>Node2&#45;&gt;Node5</title>
<path fill="none" stroke="midnightblue" d="M804.092,-119.364C965.146,-114.816 1396.7,-100.804 1559.8,-75.8458"/>
<polygon fill="midnightblue" stroke="midnightblue" points="1560.83,-79.2255 1570.15,-74.1861 1559.73,-72.3138 1560.83,-79.2255"/>
</g>
<!-- Node6 -->
<g id="node6" class="node"><title>Node6</title>
<polygon fill="white" stroke="#bfbfbf" points="1367.44,-56.5 1367.44,-75.5 1423.44,-75.5 1423.44,-56.5 1367.44,-56.5"/>
<text text-anchor="middle" x="1395.44" y="-63.5" font-family="Helvetica,sans-Serif" font-size="10.00">cinttypes</text>
</g>
<!-- Node2&#45;&gt;Node6 -->
<g id="edge5" class="edge"><title>Node2&#45;&gt;Node6</title>
<path fill="none" stroke="midnightblue" d="M804.025,-119.872C913.547,-117.13 1149.41,-107.911 1357.07,-75.9538"/>
<polygon fill="midnightblue" stroke="midnightblue" points="1357.91,-79.3654 1367.25,-74.3654 1356.83,-72.4491 1357.91,-79.3654"/>
</g>
<!-- Node7 -->
<g id="node7" class="node"><title>Node7</title>
<polygon fill="white" stroke="#bfbfbf" points="1441.94,-56.5 1441.94,-75.5 1484.94,-75.5 1484.94,-56.5 1441.94,-56.5"/>
<text text-anchor="middle" x="1463.44" y="-63.5" font-family="Helvetica,sans-Serif" font-size="10.00">cstdio</text>
</g>
<!-- Node2&#45;&gt;Node7 -->
<g id="edge6" class="edge"><title>Node2&#45;&gt;Node7</title>
<path fill="none" stroke="midnightblue" d="M804.358,-121.448C924.077,-121.343 1195.53,-116.374 1431.74,-75.6783"/>
<polygon fill="midnightblue" stroke="midnightblue" points="1432.65,-79.0726 1441.9,-73.9025 1431.45,-72.1772 1432.65,-79.0726"/>
</g>
<!-- Node8 -->
<g id="node8" class="node"><title>Node8</title>
<polygon fill="white" stroke="#bfbfbf" points="1502.94,-56.5 1502.94,-75.5 1551.94,-75.5 1551.94,-56.5 1502.94,-56.5"/>
<text text-anchor="middle" x="1527.44" y="-63.5" font-family="Helvetica,sans-Serif" font-size="10.00">cstddef</text>
</g>
<!-- Node2&#45;&gt;Node8 -->
<g id="edge7" class="edge"><title>Node2&#45;&gt;Node8</title>
<path fill="none" stroke="midnightblue" d="M804.327,-121.597C931.857,-121.897 1233.07,-117.814 1492.7,-75.9707"/>
<polygon fill="midnightblue" stroke="midnightblue" points="1493.39,-79.4045 1502.69,-74.3377 1492.26,-72.4961 1493.39,-79.4045"/>
</g>
<!-- Node9 -->
<g id="node9" class="node"><title>Node9</title>
<polygon fill="white" stroke="#bfbfbf" points="397.939,-56.5 397.939,-75.5 442.939,-75.5 442.939,-56.5 397.939,-56.5"/>
<text text-anchor="middle" x="420.439" y="-63.5" font-family="Helvetica,sans-Serif" font-size="10.00">cstdlib</text>
</g>
<!-- Node2&#45;&gt;Node9 -->
<g id="edge8" class="edge"><title>Node2&#45;&gt;Node9</title>
<path fill="none" stroke="midnightblue" d="M680.661,-113.603C623.924,-106.314 537.38,-93.952 453.081,-75.9019"/>
<polygon fill="midnightblue" stroke="midnightblue" points="453.595,-72.4321 443.08,-73.7311 452.11,-79.2728 453.595,-72.4321"/>
</g>
<!-- Node10 -->
<g id="node10" class="node"><title>Node10</title>
<polygon fill="white" stroke="#bfbfbf" points="461.439,-56.5 461.439,-75.5 505.439,-75.5 505.439,-56.5 461.439,-56.5"/>
<text text-anchor="middle" x="483.439" y="-63.5" font-family="Helvetica,sans-Serif" font-size="10.00">cerrno</text>
</g>
<!-- Node2&#45;&gt;Node10 -->
<g id="edge9" class="edge"><title>Node2&#45;&gt;Node10</title>
<path fill="none" stroke="midnightblue" d="M692.797,-112.498C648.599,-104.637 582.004,-92.0811 515.531,-76.1058"/>
<polygon fill="midnightblue" stroke="midnightblue" points="516.271,-72.6838 505.727,-73.7242 514.618,-79.486 516.271,-72.6838"/>
</g>
<!-- Node11 -->
<g id="node11" class="node"><title>Node11</title>
<polygon fill="white" stroke="#bfbfbf" points="523.439,-56.5 523.439,-75.5 569.439,-75.5 569.439,-56.5 523.439,-56.5"/>
<text text-anchor="middle" x="546.439" y="-63.5" font-family="Helvetica,sans-Serif" font-size="10.00">cstring</text>
</g>
<!-- Node2&#45;&gt;Node11 -->
<g id="edge10" class="edge"><title>Node2&#45;&gt;Node11</title>
<path fill="none" stroke="midnightblue" d="M710.983,-112.433C679.892,-103.95 630.715,-90.497 579.157,-76.1874"/>
<polygon fill="midnightblue" stroke="midnightblue" points="580.078,-72.8108 569.506,-73.5065 578.205,-79.5554 580.078,-72.8108"/>
</g>
<!-- Node2&#45;&gt;Node12 -->
<g id="edge11" class="edge"><title>Node2&#45;&gt;Node12</title>
<path fill="none" stroke="midnightblue" d="M680.786,-120.135C578.615,-117.813 367.818,-109.255 181.631,-75.8531"/>
<polygon fill="midnightblue" stroke="midnightblue" points="182.126,-72.3859 171.661,-74.0362 180.871,-79.2725 182.126,-72.3859"/>
</g>
<!-- Node13 -->
<g id="node13" class="node"><title>Node13</title>
<polygon fill="white" stroke="#bfbfbf" points="587.939,-56.5 587.939,-75.5 632.939,-75.5 632.939,-56.5 587.939,-56.5"/>
<text text-anchor="middle" x="610.439" y="-63.5" font-family="Helvetica,sans-Serif" font-size="10.00">iosfwd</text>
</g>
<!-- Node2&#45;&gt;Node13 -->
<g id="edge12" class="edge"><title>Node2&#45;&gt;Node13</title>
<path fill="none" stroke="midnightblue" d="M721.523,-112.444C699.703,-103.517 665.289,-89.4387 640.547,-79.3168"/>
<polygon fill="midnightblue" stroke="midnightblue" points="641.838,-76.0634 631.257,-75.5164 639.187,-82.5422 641.838,-76.0634"/>
</g>
<!-- Node14 -->
<g id="node14" class="node"><title>Node14</title>
<polygon fill="white" stroke="#bfbfbf" points="249.439,-56.5 249.439,-75.5 303.439,-75.5 303.439,-56.5 249.439,-56.5"/>
<text text-anchor="middle" x="276.439" y="-63.5" font-family="Helvetica,sans-Serif" font-size="10.00">iostream</text>
</g>
<!-- Node2&#45;&gt;Node14 -->
<g id="edge13" class="edge"><title>Node2&#45;&gt;Node14</title>
<path fill="none" stroke="midnightblue" d="M680.558,-113.829C582.345,-102.448 393.731,-80.5918 313.755,-71.3242"/>
<polygon fill="midnightblue" stroke="midnightblue" points="313.994,-67.8285 303.658,-70.1541 313.188,-74.782 313.994,-67.8285"/>
</g>
<!-- Node15 -->
<g id="node15" class="node"><title>Node15</title>
<polygon fill="white" stroke="#bfbfbf" points="650.939,-56.5 650.939,-75.5 701.939,-75.5 701.939,-56.5 650.939,-56.5"/>
<text text-anchor="middle" x="676.439" y="-63.5" font-family="Helvetica,sans-Serif" font-size="10.00">unistd.h</text>
</g>
<!-- Node2&#45;&gt;Node15 -->
<g id="edge14" class="edge"><title>Node2&#45;&gt;Node15</title>
<path fill="none" stroke="midnightblue" d="M731.835,-112.324C721.983,-104.263 707.088,-92.0765 695.224,-82.3695"/>
<polygon fill="midnightblue" stroke="midnightblue" points="697.192,-79.4575 687.236,-75.8339 692.759,-84.8752 697.192,-79.4575"/>
</g>
<!-- Node16 -->
<g id="node16" class="node"><title>Node16</title>
<polygon fill="white" stroke="#bfbfbf" points="720.439,-56.5 720.439,-75.5 764.439,-75.5 764.439,-56.5 720.439,-56.5"/>
<text text-anchor="middle" x="742.439" y="-63.5" font-family="Helvetica,sans-Serif" font-size="10.00">fcntl.h</text>
</g>
<!-- Node2&#45;&gt;Node16 -->
<g id="edge15" class="edge"><title>Node2&#45;&gt;Node16</title>
<path fill="none" stroke="midnightblue" d="M742.439,-112.083C742.439,-105.006 742.439,-94.8611 742.439,-85.9865"/>
<polygon fill="midnightblue" stroke="midnightblue" points="745.939,-85.751 742.439,-75.7511 738.939,-85.7511 745.939,-85.751"/>
</g>
<!-- Node17 -->
<g id="node17" class="node"><title>Node17</title>
<polygon fill="white" stroke="#bfbfbf" points="189.939,-56.5 189.939,-75.5 230.939,-75.5 230.939,-56.5 189.939,-56.5"/>
<text text-anchor="middle" x="210.439" y="-63.5" font-family="Helvetica,sans-Serif" font-size="10.00">string</text>
</g>
<!-- Node2&#45;&gt;Node17 -->
<g id="edge16" class="edge"><title>Node2&#45;&gt;Node17</title>
<path fill="none" stroke="midnightblue" d="M680.835,-119.477C587.555,-116.293 404.93,-106.634 241.217,-75.7218"/>
<polygon fill="midnightblue" stroke="midnightblue" points="241.44,-72.2008 230.959,-73.7521 240.12,-79.0752 241.44,-72.2008"/>
</g>
<!-- Node18 -->
<g id="node18" class="node"><title>Node18</title>
<polygon fill="white" stroke="#bfbfbf" points="347.439,-0.5 347.439,-19.5 391.439,-19.5 391.439,-0.5 347.439,-0.5"/>
<text text-anchor="middle" x="369.439" y="-7.5" font-family="Helvetica,sans-Serif" font-size="10.00">vector</text>
</g>
<!-- Node2&#45;&gt;Node18 -->
<g id="edge17" class="edge"><title>Node2&#45;&gt;Node18</title>
<path fill="none" stroke="midnightblue" d="M680.814,-121.057C591.272,-119.861 431.207,-112.495 388.439,-76 375.183,-64.6884 370.908,-44.6861 369.658,-29.8483"/>
<polygon fill="midnightblue" stroke="midnightblue" points="373.149,-29.5666 369.193,-19.738 366.156,-29.8883 373.149,-29.5666"/>
</g>
<!-- Node19 -->
<g id="node19" class="node"><title>Node19</title>
<polygon fill="white" stroke="#bfbfbf" points="782.939,-56.5 782.939,-75.5 825.939,-75.5 825.939,-56.5 782.939,-56.5"/>
<text text-anchor="middle" x="804.439" y="-63.5" font-family="Helvetica,sans-Serif" font-size="10.00">deque</text>
</g>
<!-- Node2&#45;&gt;Node19 -->
<g id="edge18" class="edge"><title>Node2&#45;&gt;Node19</title>
<path fill="none" stroke="midnightblue" d="M752.4,-112.324C761.566,-104.341 775.376,-92.3128 786.467,-82.6529"/>
<polygon fill="midnightblue" stroke="midnightblue" points="789.054,-85.041 794.296,-75.8339 784.457,-79.7624 789.054,-85.041"/>
</g>
<!-- Node20 -->
<g id="node20" class="node"><title>Node20</title>
<polygon fill="white" stroke="#bfbfbf" points="834.439,-0.5 834.439,-19.5 878.439,-19.5 878.439,-0.5 834.439,-0.5"/>
<text text-anchor="middle" x="856.439" y="-7.5" font-family="Helvetica,sans-Serif" font-size="10.00">mutex</text>
</g>
<!-- Node2&#45;&gt;Node20 -->
<g id="edge19" class="edge"><title>Node2&#45;&gt;Node20</title>
<path fill="none" stroke="midnightblue" d="M774.048,-112.427C793.873,-105.557 818.591,-94.0284 834.439,-76 845.859,-63.0088 851.402,-43.8462 854.061,-29.6909"/>
<polygon fill="midnightblue" stroke="midnightblue" points="857.547,-30.0458 855.632,-19.6256 850.631,-28.9662 857.547,-30.0458"/>
</g>
<!-- Node21 -->
<g id="node21" class="node"><title>Node21</title>
<polygon fill="white" stroke="#bfbfbf" points="898.439,-0.5 898.439,-19.5 942.439,-19.5 942.439,-0.5 898.439,-0.5"/>
<text text-anchor="middle" x="920.439" y="-7.5" font-family="Helvetica,sans-Serif" font-size="10.00">thread</text>
</g>
<!-- Node2&#45;&gt;Node21 -->
<g id="edge20" class="edge"><title>Node2&#45;&gt;Node21</title>
<path fill="none" stroke="midnightblue" d="M773.013,-112.346C796.466,-104.875 829.021,-92.6493 854.439,-76 874.938,-62.5725 894.417,-42.1012 906.828,-27.7284"/>
<polygon fill="midnightblue" stroke="midnightblue" points="909.833,-29.5922 913.588,-19.6849 904.474,-25.0885 909.833,-29.5922"/>
</g>
<!-- Node22 -->
<g id="node22" class="node"><title>Node22</title>
<polygon fill="white" stroke="#bfbfbf" points="1013.94,-0.5 1013.94,-19.5 1108.94,-19.5 1108.94,-0.5 1013.94,-0.5"/>
<text text-anchor="middle" x="1061.44" y="-7.5" font-family="Helvetica,sans-Serif" font-size="10.00">condition_variable</text>
</g>
<!-- Node2&#45;&gt;Node22 -->
<g id="edge21" class="edge"><title>Node2&#45;&gt;Node22</title>
<path fill="none" stroke="midnightblue" d="M804.246,-119.731C882.439,-116.823 1011.08,-107.279 1045.44,-76 1058.18,-64.405 1061.53,-44.4474 1062.09,-29.6976"/>
<polygon fill="midnightblue" stroke="midnightblue" points="1065.59,-29.6572 1062.09,-19.6583 1058.59,-29.6593 1065.59,-29.6572"/>
</g>
<!-- Node23 -->
<g id="node23" class="node"><title>Node23</title>
<polygon fill="white" stroke="#bfbfbf" points="1128.94,-0.5 1128.94,-19.5 1171.94,-19.5 1171.94,-0.5 1128.94,-0.5"/>
<text text-anchor="middle" x="1150.44" y="-7.5" font-family="Helvetica,sans-Serif" font-size="10.00">queue</text>
</g>
<!-- Node2&#45;&gt;Node23 -->
<g id="edge22" class="edge"><title>Node2&#45;&gt;Node23</title>
<path fill="none" stroke="midnightblue" d="M804.048,-118.706C913.035,-114.009 1130.56,-101.521 1153.44,-76 1164.5,-63.6667 1161.9,-44.1382 1157.67,-29.7026"/>
<polygon fill="midnightblue" stroke="midnightblue" points="1160.85,-28.1937 1154.31,-19.8599 1154.23,-30.4544 1160.85,-28.1937"/>
</g>
<!-- Node24 -->
<g id="node24" class="node"><title>Node24</title>
<polygon fill="white" stroke="#bfbfbf" points="1092.44,-56.5 1092.44,-75.5 1144.44,-75.5 1144.44,-56.5 1092.44,-56.5"/>
<text text-anchor="middle" x="1118.44" y="-63.5" font-family="Helvetica,sans-Serif" font-size="10.00">sstream</text>
</g>
<!-- Node2&#45;&gt;Node24 -->
<g id="edge23" class="edge"><title>Node2&#45;&gt;Node24</title>
<path fill="none" stroke="midnightblue" d="M804.004,-114.405C871.579,-106.782 983.14,-93.0684 1078.44,-76 1079.7,-75.7741 1080.98,-75.5355 1082.27,-75.2871"/>
<polygon fill="midnightblue" stroke="midnightblue" points="1083.16,-78.6776 1092.26,-73.2385 1081.76,-71.8205 1083.16,-78.6776"/>
</g>
<!-- Node25 -->
<g id="node25" class="node"><title>Node25</title>
<polygon fill="white" stroke="#bfbfbf" points="1190.94,-0.5 1190.94,-19.5 1225.94,-19.5 1225.94,-0.5 1190.94,-0.5"/>
<text text-anchor="middle" x="1208.44" y="-7.5" font-family="Helvetica,sans-Serif" font-size="10.00">map</text>
</g>
<!-- Node2&#45;&gt;Node25 -->
<g id="edge24" class="edge"><title>Node2&#45;&gt;Node25</title>
<path fill="none" stroke="midnightblue" d="M804.278,-121.316C908.231,-120.746 1112.44,-114.565 1171.44,-76 1187.71,-65.367 1197.6,-44.9488 1203.01,-29.822"/>
<polygon fill="midnightblue" stroke="midnightblue" points="1206.45,-30.5496 1206.19,-19.9581 1199.79,-28.4044 1206.45,-30.5496"/>
</g>
<!-- Node26 -->
<g id="node26" class="node"><title>Node26</title>
<g id="a_node26"><a xlink:href="cosmos-defs_8h.html" target="_top" xlink:title="COSMOS definitions Definitions specific to the COSMOS environement. ">
<polygon fill="white" stroke="black" points="920.439,-56.5 920.439,-75.5 1036.44,-75.5 1036.44,-56.5 920.439,-56.5"/>
<text text-anchor="middle" x="978.439" y="-63.5" font-family="Helvetica,sans-Serif" font-size="10.00">support/cosmos&#45;defs.h</text>
</a>
</g>
</g>
<!-- Node2&#45;&gt;Node26 -->
<g id="edge25" class="edge"><title>Node2&#45;&gt;Node26</title>
<path fill="none" stroke="midnightblue" d="M779.834,-112.444C820.831,-103.063 886.693,-87.9926 931.223,-77.8036"/>
<polygon fill="midnightblue" stroke="midnightblue" points="932.252,-81.1588 941.219,-75.5164 930.69,-74.3352 932.252,-81.1588"/>
</g>
<!-- Node26&#45;&gt;Node18 -->
<g id="edge27" class="edge"><title>Node26&#45;&gt;Node18</title>
<path fill="none" stroke="midnightblue" d="M920.321,-59.8467C794.375,-48.6791 499.728,-22.5527 401.758,-13.8657"/>
<polygon fill="midnightblue" stroke="midnightblue" points="401.858,-10.361 391.588,-12.9639 401.24,-17.3336 401.858,-10.361"/>
</g>
<!-- Node26&#45;&gt;Node20 -->
<g id="edge31" class="edge"><title>Node26&#45;&gt;Node20</title>
<path fill="none" stroke="midnightblue" d="M959.108,-56.4435C939.119,-47.5961 907.696,-33.6875 884.875,-23.5865"/>
<polygon fill="midnightblue" stroke="midnightblue" points="886.241,-20.3635 875.68,-19.5164 883.408,-26.7645 886.241,-20.3635"/>
</g>
<!-- Node26&#45;&gt;Node21 -->
<g id="edge30" class="edge"><title>Node26&#45;&gt;Node21</title>
<path fill="none" stroke="midnightblue" d="M969.12,-56.324C960.546,-48.3414 947.627,-36.3128 937.251,-26.6529"/>
<polygon fill="midnightblue" stroke="midnightblue" points="939.631,-24.0865 929.927,-19.8339 934.861,-29.2098 939.631,-24.0865"/>
</g>
<!-- Node26&#45;&gt;Node22 -->
<g id="edge32" class="edge"><title>Node26&#45;&gt;Node22</title>
<path fill="none" stroke="midnightblue" d="M991.774,-56.324C1004.6,-47.979 1024.22,-35.2122 1039.38,-25.3524"/>
<polygon fill="midnightblue" stroke="midnightblue" points="1041.66,-28.0417 1048.14,-19.6545 1037.85,-22.1742 1041.66,-28.0417"/>
</g>
<!-- Node26&#45;&gt;Node23 -->
<g id="edge29" class="edge"><title>Node26&#45;&gt;Node23</title>
<path fill="none" stroke="midnightblue" d="M1005.69,-56.4435C1036.46,-46.7829 1086.46,-31.088 1118.89,-20.9046"/>
<polygon fill="midnightblue" stroke="midnightblue" points="1120.27,-24.1414 1128.76,-17.8067 1118.17,-17.4628 1120.27,-24.1414"/>
</g>
<!-- Node26&#45;&gt;Node25 -->
<g id="edge26" class="edge"><title>Node26&#45;&gt;Node25</title>
<path fill="none" stroke="midnightblue" d="M1022.07,-56.4873C1063.17,-48.1829 1126.35,-34.685 1180.44,-20 1180.65,-19.9431 1180.86,-19.8857 1181.07,-19.8277"/>
<polygon fill="midnightblue" stroke="midnightblue" points="1182.15,-23.1593 1190.74,-16.9605 1180.16,-16.4482 1182.15,-23.1593"/>
</g>
<!-- Node27 -->
<g id="node27" class="node"><title>Node27</title>
<polygon fill="white" stroke="#bfbfbf" points="963.939,-0.5 963.939,-19.5 992.939,-19.5 992.939,-0.5 963.939,-0.5"/>
<text text-anchor="middle" x="978.439" y="-7.5" font-family="Helvetica,sans-Serif" font-size="10.00">list</text>
</g>
<!-- Node26&#45;&gt;Node27 -->
<g id="edge28" class="edge"><title>Node26&#45;&gt;Node27</title>
<path fill="none" stroke="midnightblue" d="M978.439,-56.083C978.439,-49.0059 978.439,-38.8611 978.439,-29.9865"/>
<polygon fill="midnightblue" stroke="midnightblue" points="981.939,-29.751 978.439,-19.7511 974.939,-29.7511 981.939,-29.751"/>
</g>
<!-- Node28&#45;&gt;Node2 -->
<g id="edge34" class="edge"><title>Node28&#45;&gt;Node2</title>
<path fill="none" stroke="midnightblue" d="M191.092,-171.968C302.202,-162.1 548.504,-140.224 670.746,-129.367"/>
<polygon fill="midnightblue" stroke="midnightblue" points="671.105,-132.849 680.756,-128.478 670.485,-125.877 671.105,-132.849"/>
</g>
<!-- Node28&#45;&gt;Node14 -->
<g id="edge35" class="edge"><title>Node28&#45;&gt;Node14</title>
<path fill="none" stroke="midnightblue" d="M145.582,-168.368C169.741,-149.653 227.19,-105.151 257.292,-81.8324"/>
<polygon fill="midnightblue" stroke="midnightblue" points="259.586,-84.4824 265.348,-75.5914 255.299,-78.9485 259.586,-84.4824"/>
</g>
<!-- Node28&#45;&gt;Node17 -->
<g id="edge36" class="edge"><title>Node28&#45;&gt;Node17</title>
<path fill="none" stroke="midnightblue" d="M128.172,-168.355C119.511,-155.251 106.161,-129.986 117.439,-112 124.641,-100.514 155.767,-86.9013 180.051,-77.679"/>
<polygon fill="midnightblue" stroke="midnightblue" points="181.457,-80.8906 189.618,-74.1342 179.025,-74.3267 181.457,-80.8906"/>
</g>
<!-- Node28&#45;&gt;Node29 -->
<g id="edge37" class="edge"><title>Node28&#45;&gt;Node29</title>
<path fill="none" stroke="midnightblue" d="M120.782,-168.324C107.523,-159.9 87.171,-146.971 71.5928,-137.074"/>
<polygon fill="midnightblue" stroke="midnightblue" points="73.3794,-134.063 63.0619,-131.655 69.6257,-139.971 73.3794,-134.063"/>
</g>
<!-- Node30 -->
<g id="node30" class="node"><title>Node30</title>
<polygon fill="white" stroke="#bfbfbf" points="126.439,-112.5 126.439,-131.5 172.439,-131.5 172.439,-112.5 126.439,-112.5"/>
<text text-anchor="middle" x="149.439" y="-119.5" font-family="Helvetica,sans-Serif" font-size="10.00">chrono</text>
</g>
<!-- Node28&#45;&gt;Node30 -->
<g id="edge38" class="edge"><title>Node28&#45;&gt;Node30</title>
<path fill="none" stroke="midnightblue" d="M136.916,-168.083C138.926,-160.849 141.826,-150.409 144.329,-141.397"/>
<polygon fill="midnightblue" stroke="midnightblue" points="147.704,-142.323 147.008,-131.751 140.959,-140.449 147.704,-142.323"/>
</g>
<!-- Node31&#45;&gt;Node2 -->
<g id="edge40" class="edge"><title>Node31&#45;&gt;Node2</title>
<path fill="none" stroke="midnightblue" d="M584.329,-392.253C591.235,-383.34 602.021,-369.016 610.439,-356 660.841,-278.07 712.901,-180 733.387,-140.585"/>
<polygon fill="midnightblue" stroke="midnightblue" points="736.509,-142.167 737.997,-131.677 730.292,-138.949 736.509,-142.167"/>
</g>
<!-- Node31&#45;&gt;Node12 -->
<g id="edge61" class="edge"><title>Node31&#45;&gt;Node12</title>
<path fill="none" stroke="midnightblue" d="M536.72,-397.184C442.889,-387.269 219.439,-356.752 219.439,-291 219.439,-291 219.439,-291 219.439,-233 219.439,-176.633 206.694,-162.393 181.439,-112 176.455,-102.056 169.416,-91.8813 163.207,-83.7284"/>
<polygon fill="midnightblue" stroke="midnightblue" points="165.877,-81.4617 156.934,-75.7815 160.383,-85.7992 165.877,-81.4617"/>
</g>
<!-- Node31&#45;&gt;Node14 -->
<g id="edge62" class="edge"><title>Node31&#45;&gt;Node14</title>
<path fill="none" stroke="midnightblue" d="M536.845,-394.898C454.685,-381.4 276.439,-345.803 276.439,-291 276.439,-291 276.439,-291 276.439,-233 276.439,-179.591 276.439,-116.515 276.439,-85.7585"/>
<polygon fill="midnightblue" stroke="midnightblue" points="279.939,-85.6406 276.439,-75.6407 272.939,-85.6407 279.939,-85.6406"/>
</g>
<!-- Node32 -->
<g id="node32" class="node"><title>Node32</title>
<g id="a_node32"><a xlink:href="cosmos-errno_8h.html" target="_top" xlink:title="COSMOS Error Codes. ">
<polygon fill="white" stroke="black" points="682.939,-336.5 682.939,-355.5 801.939,-355.5 801.939,-336.5 682.939,-336.5"/>
<text text-anchor="middle" x="742.439" y="-343.5" font-family="Helvetica,sans-Serif" font-size="10.00">support/cosmos&#45;errno.h</text>
</a>
</g>
</g>
<!-- Node31&#45;&gt;Node32 -->
<g id="edge41" class="edge"><title>Node31&#45;&gt;Node32</title>
<path fill="none" stroke="midnightblue" d="M603.584,-392.444C631.462,-383.32 675.787,-368.813 706.839,-358.651"/>
<polygon fill="midnightblue" stroke="midnightblue" points="708.001,-361.953 716.417,-355.516 705.824,-355.3 708.001,-361.953"/>
</g>
<!-- Node34 -->
<g id="node34" class="node"><title>Node34</title>
<g id="a_node34"><a xlink:href="math_2constants_8h.html" target="_top" xlink:title="constants.h">
<polygon fill="white" stroke="black" points="600.439,-168.5 600.439,-187.5 668.439,-187.5 668.439,-168.5 600.439,-168.5"/>
<text text-anchor="middle" x="634.439" y="-175.5" font-family="Helvetica,sans-Serif" font-size="10.00">constants.h</text>
</a>
</g>
</g>
<!-- Node31&#45;&gt;Node34 -->
<g id="edge44" class="edge"><title>Node31&#45;&gt;Node34</title>
<path fill="none" stroke="midnightblue" d="M580.481,-392.441C586.556,-375.141 600.382,-334.705 609.439,-300 618.796,-264.148 626.908,-221.589 631.195,-197.697"/>
<polygon fill="midnightblue" stroke="midnightblue" points="634.689,-198.035 632.981,-187.579 627.796,-196.818 634.689,-198.035"/>
</g>
<!-- Node35 -->
<g id="node35" class="node"><title>Node35</title>
<g id="a_node35"><a xlink:href="vector_8h.html" target="_top" xlink:title="vector.h">
<polygon fill="white" stroke="black" points="418.439,-224.5 418.439,-243.5 470.439,-243.5 470.439,-224.5 418.439,-224.5"/>
<text text-anchor="middle" x="444.439" y="-231.5" font-family="Helvetica,sans-Serif" font-size="10.00">vector.h</text>
</a>
</g>
</g>
<!-- Node31&#45;&gt;Node35 -->
<g id="edge47" class="edge"><title>Node31&#45;&gt;Node35</title>
<path fill="none" stroke="midnightblue" d="M543.759,-392.496C523.396,-385.737 498.377,-374.306 482.439,-356 456.746,-326.49 448.413,-279.645 445.718,-253.751"/>
<polygon fill="midnightblue" stroke="midnightblue" points="449.203,-253.417 444.855,-243.756 442.229,-254.02 449.203,-253.417"/>
</g>
<!-- Node37 -->
<g id="node37" class="node"><title>Node37</title>
<g id="a_node37"><a xlink:href="matrix_8h.html" target="_top" xlink:title="matrix.h">
<polygon fill="white" stroke="black" points="548.439,-280.5 548.439,-299.5 600.439,-299.5 600.439,-280.5 548.439,-280.5"/>
<text text-anchor="middle" x="574.439" y="-287.5" font-family="Helvetica,sans-Serif" font-size="10.00">matrix.h</text>
</a>
</g>
</g>
<!-- Node31&#45;&gt;Node37 -->
<g id="edge54" class="edge"><title>Node31&#45;&gt;Node37</title>
<path fill="none" stroke="midnightblue" d="M577.204,-392.368C576.719,-374.617 575.603,-333.666 574.946,-309.597"/>
<polygon fill="midnightblue" stroke="midnightblue" points="578.445,-309.492 574.673,-299.591 571.447,-309.683 578.445,-309.492"/>
</g>
<!-- Node38 -->
<g id="node38" class="node"><title>Node38</title>
<g id="a_node38"><a xlink:href="rotation_8h.html" target="_top" xlink:title="rotation.h">
<polygon fill="white" stroke="black" points="491.939,-336.5 491.939,-355.5 548.939,-355.5 548.939,-336.5 491.939,-336.5"/>
<text text-anchor="middle" x="520.439" y="-343.5" font-family="Helvetica,sans-Serif" font-size="10.00">rotation.h</text>
</a>
</g>
</g>
<!-- Node31&#45;&gt;Node38 -->
<g id="edge57" class="edge"><title>Node31&#45;&gt;Node38</title>
<path fill="none" stroke="midnightblue" d="M568.281,-392.324C559.938,-384.42 547.407,-372.548 537.262,-362.938"/>
<polygon fill="midnightblue" stroke="midnightblue" points="539.43,-360.171 529.764,-355.834 534.616,-365.252 539.43,-360.171"/>
</g>
<!-- Node32&#45;&gt;Node2 -->
<g id="edge42" class="edge"><title>Node32&#45;&gt;Node2</title>
<path fill="none" stroke="midnightblue" d="M742.439,-336.297C742.439,-303.633 742.439,-187.866 742.439,-141.957"/>
<polygon fill="midnightblue" stroke="midnightblue" points="745.939,-141.884 742.439,-131.884 738.939,-141.884 745.939,-141.884"/>
</g>
<!-- Node32&#45;&gt;Node33 -->
<g id="edge43" class="edge"><title>Node32&#45;&gt;Node33</title>
<path fill="none" stroke="midnightblue" d="M752.561,-336.324C761.965,-328.263 776.183,-316.077 787.508,-306.369"/>
<polygon fill="midnightblue" stroke="midnightblue" points="789.818,-308.999 795.133,-299.834 785.262,-303.684 789.818,-308.999"/>
</g>
<!-- Node34&#45;&gt;Node2 -->
<g id="edge45" class="edge"><title>Node34&#45;&gt;Node2</title>
<path fill="none" stroke="midnightblue" d="M651.791,-168.324C669.111,-159.664 695.954,-146.242 715.941,-136.249"/>
<polygon fill="midnightblue" stroke="midnightblue" points="717.751,-139.257 725.13,-131.655 714.62,-132.996 717.751,-139.257"/>
</g>
<!-- Node34&#45;&gt;Node5 -->
<g id="edge46" class="edge"><title>Node34&#45;&gt;Node5</title>
<path fill="none" stroke="midnightblue" d="M668.836,-175.312C790.133,-168.927 1209.07,-143.217 1560.28,-75.9391"/>
<polygon fill="midnightblue" stroke="midnightblue" points="1560.97,-79.37 1570.13,-74.0381 1559.65,-72.4969 1560.97,-79.37"/>
</g>
<!-- Node35&#45;&gt;Node2 -->
<g id="edge48" class="edge"><title>Node35&#45;&gt;Node2</title>
<path fill="none" stroke="midnightblue" d="M451.868,-224.253C464.446,-210.055 491.414,-182.156 520.439,-168 567.594,-145.002 625.892,-133.753 670.912,-128.253"/>
<polygon fill="midnightblue" stroke="midnightblue" points="671.356,-131.725 680.888,-127.101 670.553,-124.771 671.356,-131.725"/>
</g>
<!-- Node35&#45;&gt;Node12 -->
<g id="edge52" class="edge"><title>Node35&#45;&gt;Node12</title>
<path fill="none" stroke="midnightblue" d="M427.303,-224.452C409.661,-215.578 381.438,-201.176 357.439,-188 289.583,-150.744 210.984,-104.028 172.745,-81.0652"/>
<polygon fill="midnightblue" stroke="midnightblue" points="174.297,-77.9144 163.924,-75.7592 170.689,-83.9129 174.297,-77.9144"/>
</g>
<!-- Node35&#45;&gt;Node14 -->
<g id="edge50" class="edge"><title>Node35&#45;&gt;Node14</title>
<path fill="none" stroke="midnightblue" d="M427.342,-224.367C412.642,-216.358 391.492,-203.376 376.439,-188 348.492,-159.452 354.492,-142.287 328.439,-112 318.95,-100.969 306.711,-90.2421 296.49,-82.0298"/>
<polygon fill="midnightblue" stroke="midnightblue" points="298.518,-79.1728 288.484,-75.7715 294.207,-84.6877 298.518,-79.1728"/>
</g>
<!-- Node35&#45;&gt;Node18 -->
<g id="edge53" class="edge"><title>Node35&#45;&gt;Node18</title>
<path fill="none" stroke="midnightblue" d="M436.215,-224.331C428.407,-215.705 416.799,-201.797 409.439,-188 384.764,-141.746 381.958,-127.552 372.439,-76 369.615,-60.7061 368.961,-43.0632 368.959,-30.0209"/>
<polygon fill="midnightblue" stroke="midnightblue" points="372.46,-29.9623 369.088,-19.9185 365.461,-29.8731 372.46,-29.9623"/>
</g>
<!-- Node35&#45;&gt;Node34 -->
<g id="edge49" class="edge"><title>Node35&#45;&gt;Node34</title>
<path fill="none" stroke="midnightblue" d="M470.459,-225.605C502.417,-216.522 556.969,-201.018 594.31,-190.405"/>
<polygon fill="midnightblue" stroke="midnightblue" points="595.69,-193.651 604.353,-187.551 593.777,-186.918 595.69,-193.651"/>
</g>
<!-- Node36 -->
<g id="node36" class="node"><title>Node36</title>
<polygon fill="white" stroke="#bfbfbf" points="418.439,-168.5 418.439,-187.5 468.439,-187.5 468.439,-168.5 418.439,-168.5"/>
<text text-anchor="middle" x="443.439" y="-175.5" font-family="Helvetica,sans-Serif" font-size="10.00">iomanip</text>
</g>
<!-- Node35&#45;&gt;Node36 -->
<g id="edge51" class="edge"><title>Node35&#45;&gt;Node36</title>
<path fill="none" stroke="midnightblue" d="M444.274,-224.083C444.143,-217.006 443.955,-206.861 443.791,-197.986"/>
<polygon fill="midnightblue" stroke="midnightblue" points="447.286,-197.685 443.601,-187.751 440.287,-197.814 447.286,-197.685"/>
</g>
<!-- Node37&#45;&gt;Node2 -->
<g id="edge55" class="edge"><title>Node37&#45;&gt;Node2</title>
<path fill="none" stroke="midnightblue" d="M572.818,-280.432C569.239,-258.727 563.08,-200.968 591.439,-168 611.146,-145.09 641.965,-133.573 670.635,-127.882"/>
<polygon fill="midnightblue" stroke="midnightblue" points="671.429,-131.296 680.664,-126.103 670.207,-124.403 671.429,-131.296"/>
</g>
<!-- Node37&#45;&gt;Node35 -->
<g id="edge56" class="edge"><title>Node37&#45;&gt;Node35</title>
<path fill="none" stroke="midnightblue" d="M553.84,-280.444C532.446,-271.557 498.758,-257.563 474.415,-247.451"/>
<polygon fill="midnightblue" stroke="midnightblue" points="475.519,-244.12 464.942,-243.516 472.834,-250.585 475.519,-244.12"/>
</g>
<!-- Node38&#45;&gt;Node2 -->
<g id="edge58" class="edge"><title>Node38&#45;&gt;Node2</title>
<path fill="none" stroke="midnightblue" d="M520.37,-336.107C520.651,-307.277 525.597,-215.516 575.439,-168 600.847,-143.778 637.876,-132.294 670.613,-126.966"/>
<polygon fill="midnightblue" stroke="midnightblue" points="671.229,-130.413 680.618,-125.503 670.216,-123.487 671.229,-130.413"/>
</g>
<!-- Node38&#45;&gt;Node35 -->
<g id="edge59" class="edge"><title>Node38&#45;&gt;Node35</title>
<path fill="none" stroke="midnightblue" d="M514.475,-336.368C501.933,-318.215 472.629,-275.802 456.178,-251.99"/>
<polygon fill="midnightblue" stroke="midnightblue" points="458.939,-249.829 450.375,-243.591 453.18,-253.808 458.939,-249.829"/>
</g>
<!-- Node38&#45;&gt;Node37 -->
<g id="edge60" class="edge"><title>Node38&#45;&gt;Node37</title>
<path fill="none" stroke="midnightblue" d="M529.356,-336.083C537.22,-328.22 548.87,-316.569 558.358,-307.081"/>
<polygon fill="midnightblue" stroke="midnightblue" points="561.092,-309.297 565.688,-299.751 556.142,-304.347 561.092,-309.297"/>
</g>
</g>
</svg>
        <g id="navigator" transform="translate(0 0)" fill="#404254">
                <rect fill="#f2f5e9" fill-opacity="0.5" stroke="#606060" stroke-width=".5" x="0" y="0" width="60" height="60"/>
                <use id="zoomplus" xlink:href="#zoomPlus" x="17" y="9" onmousedown="handleZoom(evt,'in')"/>
                <use id="zoomminus" xlink:href="#zoomMin" x="42" y="9" onmousedown="handleZoom(evt,'out')"/>
                <use id="reset" xlink:href="#resetDef" x="30" y="36" onmousedown="handleReset()"/>
                <g id="arrowUp" xlink:href="#dirArrow" transform="translate(30 24)" onmousedown="handlePan(0,-1)">
                  <use xlink:href="#rim" fill="#404040">
                        <set attributeName="fill" to="#808080" begin="arrowUp.mouseover" end="arrowUp.mouseout"/>
                  </use>
                  <path fill="none" stroke="white" stroke-width="1.5" d="M0,-3.0v7 M-2.5,-0.5L0,-3.0L2.5,-0.5"/>
                </g>
                <g id="arrowRight" xlink:href="#dirArrow" transform="rotate(90) translate(36 -43)" onmousedown="handlePan(1,0)">
                  <use xlink:href="#rim" fill="#404040">
                        <set attributeName="fill" to="#808080" begin="arrowRight.mouseover" end="arrowRight.mouseout"/>
                  </use>
                  <path fill="none" stroke="white" stroke-width="1.5" d="M0,-3.0v7 M-2.5,-0.5L0,-3.0L2.5,-0.5"/>
                </g>
                <g id="arrowDown" xlink:href="#dirArrow" transform="rotate(180) translate(-30 -48)" onmousedown="handlePan(0,1)">
                  <use xlink:href="#rim" fill="#404040">
                        <set attributeName="fill" to="#808080" begin="arrowDown.mouseover" end="arrowDown.mouseout"/>
                  </use>
                  <path fill="none" stroke="white" stroke-width="1.5" d="M0,-3.0v7 M-2.5,-0.5L0,-3.0L2.5,-0.5"/>
                </g>
                <g id="arrowLeft" xlink:href="#dirArrow" transform="rotate(270) translate(-36 17)" onmousedown="handlePan(-1,0)">
                  <use xlink:href="#rim" fill="#404040">
                        <set attributeName="fill" to="#808080" begin="arrowLeft.mouseover" end="arrowLeft.mouseout"/>
                  </use>
                  <path fill="none" stroke="white" stroke-width="1.5" d="M0,-3.0v7 M-2.5,-0.5L0,-3.0L2.5,-0.5"/>
                </g>
        </g>
        <svg viewBox="0 0 15 15" width="100%" height="30px" preserveAspectRatio="xMaxYMin meet">
         <g id="arrow_out" transform="scale(0.3 0.3)">
          <a xlink:href="timelib_8h__incl_org.svg" target="_base">
           <rect id="button" ry="5" rx="5" y="6" x="6" height="38" width="38"
                fill="#f2f5e9" fill-opacity="0.5" stroke="#606060" stroke-width="1.0"/>
           <path id="arrow"
             d="M 11.500037,31.436501 C 11.940474,20.09759 22.043105,11.32322 32.158766,21.979434 L 37.068811,17.246167 C 37.068811,17.246167 37.088388,32 37.088388,32 L 22.160133,31.978069 C 22.160133,31.978069 26.997745,27.140456 26.997745,27.140456 C 18.528582,18.264221 13.291696,25.230495 11.500037,31.436501 z"
             style="fill:#404040;"/>
          </a>
         </g>
        </svg>
</svg>
