<?xml version="1.0" encoding="UTF-8" standalone="no"?>
<!DOCTYPE svg PUBLIC "-//W3C//DTD SVG 1.1//EN"
 "http://www.w3.org/Graphics/SVG/1.1/DTD/svg11.dtd">
<!-- Generated by graphviz version 2.38.0 (20140413.2041)
 -->
<!-- Title: timelib.h Pages: 1 -->
<svg width="3810pt" height="196pt"
 viewBox="0.00 0.00 3809.50 196.00" xmlns="http://www.w3.org/2000/svg" xmlns:xlink="http://www.w3.org/1999/xlink">
<g id="graph0" class="graph" transform="scale(1 1) rotate(0) translate(4 192)">
<title>timelib.h</title>
<polygon fill="white" stroke="none" points="-4,4 -4,-192 3805.5,-192 3805.5,4 -4,4"/>
<!-- Node1 -->
<g id="node1" class="node"><title>Node1</title>
<polygon fill="#bfbfbf" stroke="black" points="2845,-168.5 2845,-187.5 2898,-187.5 2898,-168.5 2845,-168.5"/>
<text text-anchor="middle" x="2871.5" y="-175.5" font-family="Helvetica,sans-Serif" font-size="10.00">timelib.h</text>
</g>
<!-- Node2 -->
<g id="node2" class="node"><title>Node2</title>
<g id="a_node2"><a xlink:href="vmt35__test_8cpp.html" target="_top" xlink:title="vmt35_test.cpp">
<polygon fill="white" stroke="black" points="941.5,-112.5 941.5,-131.5 1025.5,-131.5 1025.5,-112.5 941.5,-112.5"/>
<text text-anchor="middle" x="983.5" y="-119.5" font-family="Helvetica,sans-Serif" font-size="10.00">vmt35_test.cpp</text>
</a>
</g>
</g>
<!-- Node1&#45;&gt;Node2 -->
<g id="edge1" class="edge"><title>Node1&#45;&gt;Node2</title>
<path fill="none" stroke="midnightblue" d="M2834.9,-176.871C2608.94,-175.961 1401.39,-169.389 1033.5,-132 1030.96,-131.741 1028.35,-131.426 1025.72,-131.07"/>
<polygon fill="midnightblue" stroke="midnightblue" points="2834.9,-180.371 2844.91,-176.91 2834.92,-173.371 2834.9,-180.371"/>
</g>
<!-- Node3 -->
<g id="node3" class="node"><title>Node3</title>
<g id="a_node3"><a xlink:href="elapsed__time__test_8cpp.html" target="_top" xlink:title="elapsed_time_test.cpp">
<polygon fill="white" stroke="black" points="1043,-112.5 1043,-131.5 1158,-131.5 1158,-112.5 1043,-112.5"/>
<text text-anchor="middle" x="1100.5" y="-119.5" font-family="Helvetica,sans-Serif" font-size="10.00">elapsed_time_test.cpp</text>
</a>
</g>
</g>
<!-- Node1&#45;&gt;Node3 -->
<g id="edge2" class="edge"><title>Node1&#45;&gt;Node3</title>
<path fill="none" stroke="midnightblue" d="M2834.57,-176.564C2617.7,-173.923 1507.63,-159.257 1167.5,-132 1164.46,-131.756 1161.34,-131.469 1158.2,-131.15"/>
<polygon fill="midnightblue" stroke="midnightblue" points="2834.74,-180.066 2844.78,-176.688 2834.82,-173.067 2834.74,-180.066"/>
</g>
<!-- Node4 -->
<g id="node4" class="node"><title>Node4</title>
<g id="a_node4"><a xlink:href="measure__trods_8cpp.html" target="_top" xlink:title="measure_trods.cpp">
<polygon fill="white" stroke="black" points="1176.5,-112.5 1176.5,-131.5 1276.5,-131.5 1276.5,-112.5 1176.5,-112.5"/>
<text text-anchor="middle" x="1226.5" y="-119.5" font-family="Helvetica,sans-Serif" font-size="10.00">measure_trods.cpp</text>
</a>
</g>
</g>
<!-- Node1&#45;&gt;Node4 -->
<g id="edge3" class="edge"><title>Node1&#45;&gt;Node4</title>
<path fill="none" stroke="midnightblue" d="M2834.85,-176.574C2627.6,-174.069 1600.66,-160.4 1285.5,-132 1282.61,-131.74 1279.65,-131.429 1276.66,-131.081"/>
<polygon fill="midnightblue" stroke="midnightblue" points="2834.87,-180.074 2844.91,-176.694 2834.95,-173.074 2834.87,-180.074"/>
</g>
<!-- Node5 -->
<g id="node5" class="node"><title>Node5</title>
<g id="a_node5"><a xlink:href="measure__trods___c_8cpp.html" target="_top" xlink:title="measure_trods_C.cpp">
<polygon fill="white" stroke="black" points="1295,-112.5 1295,-131.5 1408,-131.5 1408,-112.5 1295,-112.5"/>
<text text-anchor="middle" x="1351.5" y="-119.5" font-family="Helvetica,sans-Serif" font-size="10.00">measure_trods_C.cpp</text>
</a>
</g>
</g>
<!-- Node1&#45;&gt;Node5 -->
<g id="edge4" class="edge"><title>Node1&#45;&gt;Node5</title>
<path fill="none" stroke="midnightblue" d="M2834.55,-177.276C2669.14,-178.214 1980.23,-178.946 1417.5,-132 1414.5,-131.75 1411.44,-131.458 1408.34,-131.135"/>
<polygon fill="midnightblue" stroke="midnightblue" points="2834.7,-180.775 2844.68,-177.215 2834.66,-173.776 2834.7,-180.775"/>
</g>
<!-- Node6 -->
<g id="node6" class="node"><title>Node6</title>
<g id="a_node6"><a xlink:href="microstrain__imu__simple_8cpp.html" target="_top" xlink:title="microstrain_imu_simple.cpp">
<polygon fill="white" stroke="black" points="1426.5,-112.5 1426.5,-131.5 1564.5,-131.5 1564.5,-112.5 1426.5,-112.5"/>
<text text-anchor="middle" x="1495.5" y="-119.5" font-family="Helvetica,sans-Serif" font-size="10.00">microstrain_imu_simple.cpp</text>
</a>
</g>
</g>
<!-- Node1&#45;&gt;Node6 -->
<g id="edge5" class="edge"><title>Node1&#45;&gt;Node6</title>
<path fill="none" stroke="midnightblue" d="M2834.64,-176.804C2680.45,-175.754 2071.95,-169.337 1573.5,-132 1570.65,-131.786 1567.73,-131.547 1564.8,-131.288"/>
<polygon fill="midnightblue" stroke="midnightblue" points="2834.93,-180.305 2844.95,-176.87 2834.98,-173.306 2834.93,-180.305"/>
</g>
<!-- Node7 -->
<g id="node7" class="node"><title>Node7</title>
<g id="a_node7"><a xlink:href="agentclass_8h.html" target="_top" xlink:title="Agent Server and Client header file. ">
<polygon fill="white" stroke="red" points="1582.5,-112.5 1582.5,-131.5 1654.5,-131.5 1654.5,-112.5 1582.5,-112.5"/>
<text text-anchor="middle" x="1618.5" y="-119.5" font-family="Helvetica,sans-Serif" font-size="10.00">agentclass.h</text>
</a>
</g>
</g>
<!-- Node1&#45;&gt;Node7 -->
<g id="edge6" class="edge"><title>Node1&#45;&gt;Node7</title>
<path fill="none" stroke="midnightblue" d="M2834.52,-175.406C2650.7,-167.484 1836.78,-132.407 1654.71,-124.561"/>
<polygon fill="midnightblue" stroke="midnightblue" points="2834.61,-178.913 2844.75,-175.847 2834.91,-171.92 2834.61,-178.913"/>
</g>
<!-- Node22 -->
<g id="node22" class="node"><title>Node22</title>
<g id="a_node22"><a xlink:href="command__generator_8cpp.html" target="_top" xlink:title="command_generator.cpp">
<polygon fill="white" stroke="black" points="2690.5,-0.5 2690.5,-19.5 2814.5,-19.5 2814.5,-0.5 2690.5,-0.5"/>
<text text-anchor="middle" x="2752.5" y="-7.5" font-family="Helvetica,sans-Serif" font-size="10.00">command_generator.cpp</text>
</a>
</g>
</g>
<!-- Node1&#45;&gt;Node22 -->
<g id="edge63" class="edge"><title>Node1&#45;&gt;Node22</title>
<path fill="none" stroke="midnightblue" d="M2835.05,-169.809C2814.04,-163.595 2789.33,-152.277 2776.5,-132 2771.75,-124.489 2773.62,-120.408 2776.5,-112 2783.08,-92.8274 2797.92,-95.1726 2804.5,-76 2807.38,-67.5922 2808.2,-64.0844 2804.5,-56 2797.11,-39.821 2780.7,-27.2312 2768.28,-19.5333"/>
<polygon fill="midnightblue" stroke="midnightblue" points="2834.43,-173.266 2844.99,-172.466 2836.23,-166.504 2834.43,-173.266"/>
</g>
<!-- Node23 -->
<g id="node23" class="node"><title>Node23</title>
<g id="a_node23"><a xlink:href="command__generator__remote_8cpp.html" target="_top" xlink:title="command_generator_remote.cpp">
<polygon fill="white" stroke="black" points="2832,-0.5 2832,-19.5 2991,-19.5 2991,-0.5 2832,-0.5"/>
<text text-anchor="middle" x="2911.5" y="-7.5" font-family="Helvetica,sans-Serif" font-size="10.00">command_generator_remote.cpp</text>
</a>
</g>
</g>
<!-- Node1&#45;&gt;Node23 -->
<g id="edge64" class="edge"><title>Node1&#45;&gt;Node23</title>
<path fill="none" stroke="midnightblue" d="M2908.34,-174.048C2970.75,-168.485 3094.07,-154.907 3130.5,-132 3156.39,-115.72 3161.17,-105.127 3170.5,-76 3173.21,-67.5352 3176.22,-62.8021 3170.5,-56 3147.88,-29.108 3058.75,-18.286 2991.31,-13.9313"/>
<polygon fill="midnightblue" stroke="midnightblue" points="2907.81,-170.581 2898.15,-174.933 2908.41,-177.554 2907.81,-170.581"/>
</g>
<!-- Node35 -->
<g id="node35" class="node"><title>Node35</title>
<g id="a_node35"><a xlink:href="agent__antenna_8cpp.html" target="_top" xlink:title="Agent Antenna for Satellite Ground Station. ">
<polygon fill="white" stroke="black" points="2139,-56.5 2139,-75.5 2238,-75.5 2238,-56.5 2139,-56.5"/>
<text text-anchor="middle" x="2188.5" y="-63.5" font-family="Helvetica,sans-Serif" font-size="10.00">agent_antenna.cpp</text>
</a>
</g>
</g>
<!-- Node1&#45;&gt;Node35 -->
<g id="edge59" class="edge"><title>Node1&#45;&gt;Node35</title>
<path fill="none" stroke="midnightblue" d="M2834.48,-172.759C2772.06,-165.457 2641.94,-149.59 2532.5,-132 2422.68,-114.35 2294.09,-88.7188 2229.67,-75.5363"/>
<polygon fill="midnightblue" stroke="midnightblue" points="2834.28,-176.26 2844.62,-173.939 2835.09,-169.307 2834.28,-176.26"/>
</g>
<!-- Node36 -->
<g id="node36" class="node"><title>Node36</title>
<g id="a_node36"><a xlink:href="archive_8cpp.html" target="_top" xlink:title="archive.cpp">
<polygon fill="white" stroke="black" points="2680,-56.5 2680,-75.5 2747,-75.5 2747,-56.5 2680,-56.5"/>
<text text-anchor="middle" x="2713.5" y="-63.5" font-family="Helvetica,sans-Serif" font-size="10.00">archive.cpp</text>
</a>
</g>
</g>
<!-- Node1&#45;&gt;Node36 -->
<g id="edge62" class="edge"><title>Node1&#45;&gt;Node36</title>
<path fill="none" stroke="midnightblue" d="M2834.88,-174.296C2781.94,-169.541 2688.1,-157.644 2667.5,-132 2651.91,-112.601 2680.99,-88.3469 2699.62,-75.6557"/>
<polygon fill="midnightblue" stroke="midnightblue" points="2834.63,-177.787 2844.89,-175.154 2835.22,-170.813 2834.63,-177.787"/>
</g>
<!-- Node37 -->
<g id="node37" class="node"><title>Node37</title>
<g id="a_node37"><a xlink:href="netperf__listen_8cpp.html" target="_top" xlink:title="netperf_listen.cpp">
<polygon fill="white" stroke="black" points="2256.5,-56.5 2256.5,-75.5 2350.5,-75.5 2350.5,-56.5 2256.5,-56.5"/>
<text text-anchor="middle" x="2303.5" y="-63.5" font-family="Helvetica,sans-Serif" font-size="10.00">netperf_listen.cpp</text>
</a>
</g>
</g>
<!-- Node1&#45;&gt;Node37 -->
<g id="edge66" class="edge"><title>Node1&#45;&gt;Node37</title>
<path fill="none" stroke="midnightblue" d="M2834.91,-169.914C2734.67,-150.501 2455.9,-96.5142 2347.45,-75.5124"/>
<polygon fill="midnightblue" stroke="midnightblue" points="2834.38,-173.377 2844.87,-171.842 2835.71,-166.504 2834.38,-173.377"/>
</g>
<!-- Node38 -->
<g id="node38" class="node"><title>Node38</title>
<g id="a_node38"><a xlink:href="devicecpu_8cpp.html" target="_top" xlink:title="devicecpu.cpp">
<polygon fill="white" stroke="black" points="2785.5,-112.5 2785.5,-131.5 2865.5,-131.5 2865.5,-112.5 2785.5,-112.5"/>
<text text-anchor="middle" x="2825.5" y="-119.5" font-family="Helvetica,sans-Serif" font-size="10.00">devicecpu.cpp</text>
</a>
</g>
</g>
<!-- Node1&#45;&gt;Node38 -->
<g id="edge39" class="edge"><title>Node1&#45;&gt;Node38</title>
<path fill="none" stroke="midnightblue" d="M2857.39,-160.431C2849.32,-150.967 2839.54,-139.483 2832.95,-131.751"/>
<polygon fill="midnightblue" stroke="midnightblue" points="2854.75,-162.74 2863.9,-168.083 2860.08,-158.201 2854.75,-162.74"/>
</g>
<!-- Node39 -->
<g id="node39" class="node"><title>Node39</title>
<g id="a_node39"><a xlink:href="gige__lib_8cpp.html" target="_top" xlink:title="Support routines for GigE Vision cameras. ">
<polygon fill="white" stroke="black" points="2883.5,-112.5 2883.5,-131.5 2951.5,-131.5 2951.5,-112.5 2883.5,-112.5"/>
<text text-anchor="middle" x="2917.5" y="-119.5" font-family="Helvetica,sans-Serif" font-size="10.00">gige_lib.cpp</text>
</a>
</g>
</g>
<!-- Node1&#45;&gt;Node39 -->
<g id="edge40" class="edge"><title>Node1&#45;&gt;Node39</title>
<path fill="none" stroke="midnightblue" d="M2885.61,-160.431C2893.68,-150.967 2903.46,-139.483 2910.05,-131.751"/>
<polygon fill="midnightblue" stroke="midnightblue" points="2882.92,-158.201 2879.1,-168.083 2888.25,-162.74 2882.92,-158.201"/>
</g>
<!-- Node40 -->
<g id="node40" class="node"><title>Node40</title>
<g id="a_node40"><a xlink:href="physicslib_8cpp.html" target="_top" xlink:title="physicslib.cpp">
<polygon fill="white" stroke="black" points="2918,-56.5 2918,-75.5 2997,-75.5 2997,-56.5 2918,-56.5"/>
<text text-anchor="middle" x="2957.5" y="-63.5" font-family="Helvetica,sans-Serif" font-size="10.00">physicslib.cpp</text>
</a>
</g>
</g>
<!-- Node1&#45;&gt;Node40 -->
<g id="edge41" class="edge"><title>Node1&#45;&gt;Node40</title>
<path fill="none" stroke="midnightblue" d="M2907.8,-168.487C2927.03,-161.931 2948.99,-150.714 2960.5,-132 2971.27,-114.486 2965.21,-89.0218 2960.81,-75.7636"/>
<polygon fill="midnightblue" stroke="midnightblue" points="2906.58,-165.201 2898.06,-171.505 2908.65,-171.887 2906.58,-165.201"/>
</g>
<!-- Node41 -->
<g id="node41" class="node"><title>Node41</title>
<g id="a_node41"><a xlink:href="convertlib_8cpp.html" target="_top" xlink:title="Coordinate conversion library source file. ">
<polygon fill="white" stroke="black" points="3008,-112.5 3008,-131.5 3085,-131.5 3085,-112.5 3008,-112.5"/>
<text text-anchor="middle" x="3046.5" y="-119.5" font-family="Helvetica,sans-Serif" font-size="10.00">convertlib.cpp</text>
</a>
</g>
</g>
<!-- Node1&#45;&gt;Node41 -->
<g id="edge42" class="edge"><title>Node1&#45;&gt;Node41</title>
<path fill="none" stroke="midnightblue" d="M2907.8,-165.798C2940.81,-155.614 2988.8,-140.805 3018.8,-131.547"/>
<polygon fill="midnightblue" stroke="midnightblue" points="2906.6,-162.506 2898.08,-168.799 2908.67,-169.194 2906.6,-162.506"/>
</g>
<!-- Node42 -->
<g id="node42" class="node"><title>Node42</title>
<g id="a_node42"><a xlink:href="datalib_8h.html" target="_top" xlink:title="Data Management header file. ">
<polygon fill="white" stroke="red" points="2676,-112.5 2676,-131.5 2729,-131.5 2729,-112.5 2676,-112.5"/>
<text text-anchor="middle" x="2702.5" y="-119.5" font-family="Helvetica,sans-Serif" font-size="10.00">datalib.h</text>
</a>
</g>
</g>
<!-- Node1&#45;&gt;Node42 -->
<g id="edge43" class="edge"><title>Node1&#45;&gt;Node42</title>
<path fill="none" stroke="midnightblue" d="M2834.9,-165.304C2803.05,-155.129 2757.66,-140.625 2729.15,-131.516"/>
<polygon fill="midnightblue" stroke="midnightblue" points="2834.13,-168.734 2844.72,-168.444 2836.26,-162.066 2834.13,-168.734"/>
</g>
<!-- Node43 -->
<g id="node43" class="node"><title>Node43</title>
<g id="a_node43"><a xlink:href="demlib_8cpp.html" target="_top" xlink:title="demlib.cpp">
<polygon fill="white" stroke="black" points="3015.5,-56.5 3015.5,-75.5 3079.5,-75.5 3079.5,-56.5 3015.5,-56.5"/>
<text text-anchor="middle" x="3047.5" y="-63.5" font-family="Helvetica,sans-Serif" font-size="10.00">demlib.cpp</text>
</a>
</g>
</g>
<!-- Node1&#45;&gt;Node43 -->
<g id="edge54" class="edge"><title>Node1&#45;&gt;Node43</title>
<path fill="none" stroke="midnightblue" d="M2908.12,-175.059C2965.22,-171.181 3071.36,-160.271 3094.5,-132 3110.38,-112.601 3080.69,-88.3471 3061.66,-75.6558"/>
<polygon fill="midnightblue" stroke="midnightblue" points="2907.81,-171.571 2898.06,-175.704 2908.26,-178.557 2907.81,-171.571"/>
</g>
<!-- Node44 -->
<g id="node44" class="node"><title>Node44</title>
<g id="a_node44"><a xlink:href="timelib_8cpp.html" target="_top" xlink:title="Time handling library source file. ">
<polygon fill="white" stroke="black" points="3097.5,-56.5 3097.5,-75.5 3161.5,-75.5 3161.5,-56.5 3097.5,-56.5"/>
<text text-anchor="middle" x="3129.5" y="-63.5" font-family="Helvetica,sans-Serif" font-size="10.00">timelib.cpp</text>
</a>
</g>
</g>
<!-- Node1&#45;&gt;Node44 -->
<g id="edge57" class="edge"><title>Node1&#45;&gt;Node44</title>
<path fill="none" stroke="midnightblue" d="M2908.51,-174.683C2968.04,-170.215 3081.35,-158.413 3110.5,-132 3126.7,-117.315 3129.39,-89.6562 3129.65,-75.6282"/>
<polygon fill="midnightblue" stroke="midnightblue" points="2908.12,-171.202 2898.4,-175.411 2908.62,-178.184 2908.12,-171.202"/>
</g>
<!-- Node45 -->
<g id="node45" class="node"><title>Node45</title>
<g id="a_node45"><a xlink:href="elapsedtime_8cpp.html" target="_top" xlink:title="elapsedtime.cpp">
<polygon fill="white" stroke="black" points="3217.5,-112.5 3217.5,-131.5 3305.5,-131.5 3305.5,-112.5 3217.5,-112.5"/>
<text text-anchor="middle" x="3261.5" y="-119.5" font-family="Helvetica,sans-Serif" font-size="10.00">elapsedtime.cpp</text>
</a>
</g>
</g>
<!-- Node1&#45;&gt;Node45 -->
<g id="edge55" class="edge"><title>Node1&#45;&gt;Node45</title>
<path fill="none" stroke="midnightblue" d="M2908.16,-172.266C2969.38,-164.306 3096.31,-147.58 3203.5,-132 3208.04,-131.34 3212.77,-130.635 3217.49,-129.919"/>
<polygon fill="midnightblue" stroke="midnightblue" points="2907.67,-168.799 2898.21,-173.557 2908.57,-175.741 2907.67,-168.799"/>
</g>
<!-- Node46 -->
<g id="node46" class="node"><title>Node46</title>
<g id="a_node46"><a xlink:href="jsonlib_8cpp.html" target="_top" xlink:title="JSON support source file. ">
<polygon fill="white" stroke="black" points="3324,-112.5 3324,-131.5 3387,-131.5 3387,-112.5 3324,-112.5"/>
<text text-anchor="middle" x="3355.5" y="-119.5" font-family="Helvetica,sans-Serif" font-size="10.00">jsonlib.cpp</text>
</a>
</g>
</g>
<!-- Node1&#45;&gt;Node46 -->
<g id="edge56" class="edge"><title>Node1&#45;&gt;Node46</title>
<path fill="none" stroke="midnightblue" d="M2908.13,-174.709C2984.2,-169.637 3164.68,-155.972 3314.5,-132 3317.52,-131.516 3320.66,-130.949 3323.78,-130.339"/>
<polygon fill="midnightblue" stroke="midnightblue" points="2907.85,-171.219 2898.1,-175.368 2908.31,-178.204 2907.85,-171.219"/>
</g>
<!-- Node47 -->
<g id="node47" class="node"><title>Node47</title>
<g id="a_node47"><a xlink:href="transferlib_8cpp.html" target="_top" xlink:title="transferlib.cpp">
<polygon fill="white" stroke="black" points="3405.5,-112.5 3405.5,-131.5 3483.5,-131.5 3483.5,-112.5 3405.5,-112.5"/>
<text text-anchor="middle" x="3444.5" y="-119.5" font-family="Helvetica,sans-Serif" font-size="10.00">transferlib.cpp</text>
</a>
</g>
</g>
<!-- Node1&#45;&gt;Node47 -->
<g id="edge58" class="edge"><title>Node1&#45;&gt;Node47</title>
<path fill="none" stroke="midnightblue" d="M2908.11,-175.123C2993.8,-170.456 3213.99,-156.869 3396.5,-132 3399.36,-131.611 3402.3,-131.166 3405.26,-130.688"/>
<polygon fill="midnightblue" stroke="midnightblue" points="2907.9,-171.63 2898.1,-175.661 2908.27,-178.619 2907.9,-171.63"/>
</g>
<!-- Node48 -->
<g id="node48" class="node"><title>Node48</title>
<g id="a_node48"><a xlink:href="kpc9612p__recv_8cpp.html" target="_top" xlink:title="kpc9612p_recv.cpp">
<polygon fill="white" stroke="black" points="3502,-112.5 3502,-131.5 3603,-131.5 3603,-112.5 3502,-112.5"/>
<text text-anchor="middle" x="3552.5" y="-119.5" font-family="Helvetica,sans-Serif" font-size="10.00">kpc9612p_recv.cpp</text>
</a>
</g>
</g>
<!-- Node1&#45;&gt;Node48 -->
<g id="edge60" class="edge"><title>Node1&#45;&gt;Node48</title>
<path fill="none" stroke="midnightblue" d="M2908.29,-175.319C3004.49,-170.711 3271.42,-156.555 3492.5,-132 3495.54,-131.663 3498.65,-131.287 3501.8,-130.884"/>
<polygon fill="midnightblue" stroke="midnightblue" points="2908.02,-171.828 2898.2,-175.797 2908.35,-178.82 2908.02,-171.828"/>
</g>
<!-- Node49 -->
<g id="node49" class="node"><title>Node49</title>
<g id="a_node49"><a xlink:href="kpc9612p__send_8cpp.html" target="_top" xlink:title="kpc9612p_send.cpp">
<polygon fill="white" stroke="black" points="3621.5,-112.5 3621.5,-131.5 3725.5,-131.5 3725.5,-112.5 3621.5,-112.5"/>
<text text-anchor="middle" x="3673.5" y="-119.5" font-family="Helvetica,sans-Serif" font-size="10.00">kpc9612p_send.cpp</text>
</a>
</g>
</g>
<!-- Node1&#45;&gt;Node49 -->
<g id="edge61" class="edge"><title>Node1&#45;&gt;Node49</title>
<path fill="none" stroke="midnightblue" d="M2908.22,-175.886C3016.35,-172.366 3342.98,-160.014 3612.5,-132 3615.37,-131.701 3618.32,-131.365 3621.29,-131.003"/>
<polygon fill="midnightblue" stroke="midnightblue" points="2908.03,-172.39 2898.15,-176.209 2908.26,-179.387 2908.03,-172.39"/>
</g>
<!-- Node50 -->
<g id="node50" class="node"><title>Node50</title>
<g id="a_node50"><a xlink:href="julian_8cpp.html" target="_top" xlink:title="julian.cpp">
<polygon fill="white" stroke="black" points="3743.5,-112.5 3743.5,-131.5 3801.5,-131.5 3801.5,-112.5 3743.5,-112.5"/>
<text text-anchor="middle" x="3772.5" y="-119.5" font-family="Helvetica,sans-Serif" font-size="10.00">julian.cpp</text>
</a>
</g>
</g>
<!-- Node1&#45;&gt;Node50 -->
<g id="edge65" class="edge"><title>Node1&#45;&gt;Node50</title>
<path fill="none" stroke="midnightblue" d="M2908.24,-177.444C3027.9,-178.387 3416.98,-177.499 3734.5,-132 3737.32,-131.596 3740.24,-131.082 3743.14,-130.506"/>
<polygon fill="midnightblue" stroke="midnightblue" points="2908.18,-173.943 2898.15,-177.355 2908.12,-180.943 2908.18,-173.943"/>
</g>
<!-- Node8 -->
<g id="node8" class="node"><title>Node8</title>
<g id="a_node8"><a xlink:href="agent__001_8cpp.html" target="_top" xlink:title="agent_001.cpp">
<polygon fill="white" stroke="black" points="1431.5,-56.5 1431.5,-75.5 1511.5,-75.5 1511.5,-56.5 1431.5,-56.5"/>
<text text-anchor="middle" x="1471.5" y="-63.5" font-family="Helvetica,sans-Serif" font-size="10.00">agent_001.cpp</text>
</a>
</g>
</g>
<!-- Node7&#45;&gt;Node8 -->
<g id="edge7" class="edge"><title>Node7&#45;&gt;Node8</title>
<path fill="none" stroke="midnightblue" d="M1585.58,-108.906C1557.94,-98.7536 1519.16,-84.5063 1494.68,-75.5164"/>
<polygon fill="midnightblue" stroke="midnightblue" points="1584.61,-112.281 1595.21,-112.444 1587.03,-105.71 1584.61,-112.281"/>
</g>
<!-- Node9 -->
<g id="node9" class="node"><title>Node9</title>
<g id="a_node9"><a xlink:href="agent__002_8cpp.html" target="_top" xlink:title="agent_002.cpp">
<polygon fill="white" stroke="black" points="1529.5,-56.5 1529.5,-75.5 1609.5,-75.5 1609.5,-56.5 1529.5,-56.5"/>
<text text-anchor="middle" x="1569.5" y="-63.5" font-family="Helvetica,sans-Serif" font-size="10.00">agent_002.cpp</text>
</a>
</g>
</g>
<!-- Node7&#45;&gt;Node9 -->
<g id="edge8" class="edge"><title>Node7&#45;&gt;Node9</title>
<path fill="none" stroke="midnightblue" d="M1603.47,-104.431C1594.88,-94.9673 1584.46,-83.4827 1577.44,-75.7511"/>
<polygon fill="midnightblue" stroke="midnightblue" points="1601.1,-107.029 1610.41,-112.083 1606.28,-102.325 1601.1,-107.029"/>
</g>
<!-- Node10 -->
<g id="node10" class="node"><title>Node10</title>
<g id="a_node10"><a xlink:href="agent__004_8cpp.html" target="_top" xlink:title="agent_004.cpp">
<polygon fill="white" stroke="black" points="1627.5,-56.5 1627.5,-75.5 1707.5,-75.5 1707.5,-56.5 1627.5,-56.5"/>
<text text-anchor="middle" x="1667.5" y="-63.5" font-family="Helvetica,sans-Serif" font-size="10.00">agent_004.cpp</text>
</a>
</g>
</g>
<!-- Node7&#45;&gt;Node10 -->
<g id="edge9" class="edge"><title>Node7&#45;&gt;Node10</title>
<path fill="none" stroke="midnightblue" d="M1633.53,-104.431C1642.12,-94.9673 1652.54,-83.4827 1659.56,-75.7511"/>
<polygon fill="midnightblue" stroke="midnightblue" points="1630.72,-102.325 1626.59,-112.083 1635.9,-107.029 1630.72,-102.325"/>
</g>
<!-- Node11 -->
<g id="node11" class="node"><title>Node11</title>
<g id="a_node11"><a xlink:href="agent__005_8cpp.html" target="_top" xlink:title="agent_005.cpp">
<polygon fill="white" stroke="black" points="1725.5,-56.5 1725.5,-75.5 1805.5,-75.5 1805.5,-56.5 1725.5,-56.5"/>
<text text-anchor="middle" x="1765.5" y="-63.5" font-family="Helvetica,sans-Serif" font-size="10.00">agent_005.cpp</text>
</a>
</g>
</g>
<!-- Node7&#45;&gt;Node11 -->
<g id="edge10" class="edge"><title>Node7&#45;&gt;Node11</title>
<path fill="none" stroke="midnightblue" d="M1651.42,-108.906C1679.06,-98.7536 1717.84,-84.5063 1742.32,-75.5164"/>
<polygon fill="midnightblue" stroke="midnightblue" points="1649.97,-105.71 1641.79,-112.444 1652.39,-112.281 1649.97,-105.71"/>
</g>
<!-- Node12 -->
<g id="node12" class="node"><title>Node12</title>
<g id="a_node12"><a xlink:href="agent__006_8cpp.html" target="_top" xlink:title="agent_006.cpp">
<polygon fill="white" stroke="black" points="1823.5,-56.5 1823.5,-75.5 1903.5,-75.5 1903.5,-56.5 1823.5,-56.5"/>
<text text-anchor="middle" x="1863.5" y="-63.5" font-family="Helvetica,sans-Serif" font-size="10.00">agent_006.cpp</text>
</a>
</g>
</g>
<!-- Node7&#45;&gt;Node12 -->
<g id="edge11" class="edge"><title>Node7&#45;&gt;Node12</title>
<path fill="none" stroke="midnightblue" d="M1664.42,-110.879C1710.68,-100.683 1781.26,-85.1268 1824.77,-75.536"/>
<polygon fill="midnightblue" stroke="midnightblue" points="1663.66,-107.462 1654.65,-113.032 1665.17,-114.298 1663.66,-107.462"/>
</g>
<!-- Node13 -->
<g id="node13" class="node"><title>Node13</title>
<g id="a_node13"><a xlink:href="agent__008_8cpp.html" target="_top" xlink:title="agent_008.cpp">
<polygon fill="white" stroke="black" points="1921.5,-56.5 1921.5,-75.5 2001.5,-75.5 2001.5,-56.5 1921.5,-56.5"/>
<text text-anchor="middle" x="1961.5" y="-63.5" font-family="Helvetica,sans-Serif" font-size="10.00">agent_008.cpp</text>
</a>
</g>
</g>
<!-- Node7&#45;&gt;Node13 -->
<g id="edge12" class="edge"><title>Node7&#45;&gt;Node13</title>
<path fill="none" stroke="midnightblue" d="M1664.71,-114.361C1722.68,-105.934 1825.08,-90.7161 1912.5,-76 1915.4,-75.5119 1918.39,-74.9946 1921.41,-74.4646"/>
<polygon fill="midnightblue" stroke="midnightblue" points="1664.16,-110.905 1654.76,-115.804 1665.16,-117.832 1664.16,-110.905"/>
</g>
<!-- Node14 -->
<g id="node14" class="node"><title>Node14</title>
<g id="a_node14"><a xlink:href="agent__add__soh_8cpp.html" target="_top" xlink:title="agent_add_soh.cpp">
<polygon fill="white" stroke="black" points="2020,-56.5 2020,-75.5 2121,-75.5 2121,-56.5 2020,-56.5"/>
<text text-anchor="middle" x="2070.5" y="-63.5" font-family="Helvetica,sans-Serif" font-size="10.00">agent_add_soh.cpp</text>
</a>
</g>
</g>
<!-- Node7&#45;&gt;Node14 -->
<g id="edge13" class="edge"><title>Node7&#45;&gt;Node14</title>
<path fill="none" stroke="midnightblue" d="M1665.06,-116.182C1738.55,-108.459 1885.9,-92.4917 2010.5,-76 2013.53,-75.5992 2016.64,-75.1737 2019.78,-74.7343"/>
<polygon fill="midnightblue" stroke="midnightblue" points="1664.34,-112.738 1654.76,-117.261 1665.07,-119.7 1664.34,-112.738"/>
</g>
<!-- Node15 -->
<g id="node15" class="node"><title>Node15</title>
<g id="a_node15"><a xlink:href="agent__calc_8cpp.html" target="_top" xlink:title="Demonstration calculator Agent. ">
<polygon fill="white" stroke="black" points="0,-56.5 0,-75.5 83,-75.5 83,-56.5 0,-56.5"/>
<text text-anchor="middle" x="41.5" y="-63.5" font-family="Helvetica,sans-Serif" font-size="10.00">agent_calc.cpp</text>
</a>
</g>
</g>
<!-- Node7&#45;&gt;Node15 -->
<g id="edge14" class="edge"><title>Node7&#45;&gt;Node15</title>
<path fill="none" stroke="midnightblue" d="M1572.07,-112.062C917.353,-40.2082 744.302,-141.061 92.5,-76 89.4582,-75.6964 86.3248,-75.3146 83.1777,-74.8809"/>
<polygon fill="midnightblue" stroke="midnightblue" points="1571.91,-115.565 1582.24,-113.187 1572.68,-108.608 1571.91,-115.565"/>
</g>
<!-- Node16 -->
<g id="node16" class="node"><title>Node16</title>
<g id="a_node16"><a xlink:href="agent__cpu__device__test_8cpp.html" target="_top" xlink:title="agent_cpu_device_test.cpp">
<polygon fill="white" stroke="black" points="101.5,-56.5 101.5,-75.5 237.5,-75.5 237.5,-56.5 101.5,-56.5"/>
<text text-anchor="middle" x="169.5" y="-63.5" font-family="Helvetica,sans-Serif" font-size="10.00">agent_cpu_device_test.cpp</text>
</a>
</g>
</g>
<!-- Node7&#45;&gt;Node16 -->
<g id="edge15" class="edge"><title>Node7&#45;&gt;Node16</title>
<path fill="none" stroke="midnightblue" d="M1572.25,-112.075C985.495,-46.7161 831.673,-118.052 246.5,-76 243.681,-75.7974 240.806,-75.5675 237.904,-75.3161"/>
<polygon fill="midnightblue" stroke="midnightblue" points="1571.91,-115.558 1582.23,-113.196 1572.69,-108.602 1571.91,-115.558"/>
</g>
<!-- Node17 -->
<g id="node17" class="node"><title>Node17</title>
<g id="a_node17"><a xlink:href="agent__receive_8cpp.html" target="_top" xlink:title="agent_receive.cpp">
<polygon fill="white" stroke="black" points="255.5,-56.5 255.5,-75.5 351.5,-75.5 351.5,-56.5 255.5,-56.5"/>
<text text-anchor="middle" x="303.5" y="-63.5" font-family="Helvetica,sans-Serif" font-size="10.00">agent_receive.cpp</text>
</a>
</g>
</g>
<!-- Node7&#45;&gt;Node17 -->
<g id="edge16" class="edge"><title>Node7&#45;&gt;Node17</title>
<path fill="none" stroke="midnightblue" d="M1571.91,-112.034C1035.83,-51.8482 894.102,-125.842 360.5,-76 357.607,-75.7298 354.638,-75.4053 351.648,-75.0423"/>
<polygon fill="midnightblue" stroke="midnightblue" points="1571.9,-115.555 1582.23,-113.204 1572.69,-108.6 1571.9,-115.555"/>
</g>
<!-- Node18 -->
<g id="node18" class="node"><title>Node18</title>
<g id="a_node18"><a xlink:href="agent__send_8cpp.html" target="_top" xlink:title="agent_send.cpp">
<polygon fill="white" stroke="black" points="369.5,-56.5 369.5,-75.5 455.5,-75.5 455.5,-56.5 369.5,-56.5"/>
<text text-anchor="middle" x="412.5" y="-63.5" font-family="Helvetica,sans-Serif" font-size="10.00">agent_send.cpp</text>
</a>
</g>
</g>
<!-- Node7&#45;&gt;Node18 -->
<g id="edge17" class="edge"><title>Node7&#45;&gt;Node18</title>
<path fill="none" stroke="midnightblue" d="M1572.06,-112.046C1081.83,-56.4118 951.736,-125.829 464.5,-76 461.583,-75.7017 458.583,-75.3374 455.566,-74.9282"/>
<polygon fill="midnightblue" stroke="midnightblue" points="1571.9,-115.55 1582.23,-113.213 1572.7,-108.596 1571.9,-115.55"/>
</g>
<!-- Node19 -->
<g id="node19" class="node"><title>Node19</title>
<g id="a_node19"><a xlink:href="propagator__simple_8cpp.html" target="_top" xlink:title="propagator_simple.cpp">
<polygon fill="white" stroke="black" points="2369,-56.5 2369,-75.5 2484,-75.5 2484,-56.5 2369,-56.5"/>
<text text-anchor="middle" x="2426.5" y="-63.5" font-family="Helvetica,sans-Serif" font-size="10.00">propagator_simple.cpp</text>
</a>
</g>
</g>
<!-- Node7&#45;&gt;Node19 -->
<g id="edge18" class="edge"><title>Node7&#45;&gt;Node19</title>
<path fill="none" stroke="midnightblue" d="M1664.84,-119.361C1781.62,-114.974 2097.39,-101.529 2359.5,-76 2362.54,-75.7042 2365.65,-75.3756 2368.79,-75.024"/>
<polygon fill="midnightblue" stroke="midnightblue" points="1664.68,-115.864 1654.81,-119.733 1664.94,-122.859 1664.68,-115.864"/>
</g>
<!-- Node20 -->
<g id="node20" class="node"><title>Node20</title>
<g id="a_node20"><a xlink:href="agentclass_8cpp.html" target="_top" xlink:title="Agent support functions. ">
<polygon fill="white" stroke="black" points="474,-56.5 474,-75.5 557,-75.5 557,-56.5 474,-56.5"/>
<text text-anchor="middle" x="515.5" y="-63.5" font-family="Helvetica,sans-Serif" font-size="10.00">agentclass.cpp</text>
</a>
</g>
</g>
<!-- Node7&#45;&gt;Node20 -->
<g id="edge19" class="edge"><title>Node7&#45;&gt;Node20</title>
<path fill="none" stroke="midnightblue" d="M1572.04,-112.037C1129.13,-61.0261 1011.64,-119.109 571.5,-76 566.796,-75.5393 561.887,-74.9349 557.016,-74.257"/>
<polygon fill="midnightblue" stroke="midnightblue" points="1571.89,-115.544 1582.23,-113.224 1572.7,-108.591 1571.89,-115.544"/>
</g>
<!-- Node21 -->
<g id="node21" class="node"><title>Node21</title>
<g id="a_node21"><a xlink:href="scheduler_8h.html" target="_top" xlink:title="Scheduler Class. ">
<polygon fill="white" stroke="red" points="1346,-56.5 1346,-75.5 1413,-75.5 1413,-56.5 1346,-56.5"/>
<text text-anchor="middle" x="1379.5" y="-63.5" font-family="Helvetica,sans-Serif" font-size="10.00">scheduler.h</text>
</a>
</g>
</g>
<!-- Node7&#45;&gt;Node21 -->
<g id="edge20" class="edge"><title>Node7&#45;&gt;Node21</title>
<path fill="none" stroke="midnightblue" d="M1572.61,-110.631C1525.96,-100.09 1454.78,-84.0099 1413.13,-74.5974"/>
<polygon fill="midnightblue" stroke="midnightblue" points="1571.94,-114.067 1582.46,-112.857 1573.48,-107.239 1571.94,-114.067"/>
</g>
<!-- Node24 -->
<g id="node24" class="node"><title>Node24</title>
<g id="a_node24"><a xlink:href="acq__a35_8cpp.html" target="_top" xlink:title="acq_a35.cpp">
<polygon fill="white" stroke="black" points="579.5,-0.5 579.5,-19.5 651.5,-19.5 651.5,-0.5 579.5,-0.5"/>
<text text-anchor="middle" x="615.5" y="-7.5" font-family="Helvetica,sans-Serif" font-size="10.00">acq_a35.cpp</text>
</a>
</g>
</g>
<!-- Node7&#45;&gt;Node24 -->
<g id="edge23" class="edge"><title>Node7&#45;&gt;Node24</title>
<path fill="none" stroke="midnightblue" d="M1572.02,-112.454C1455.98,-106.306 640.491,-113.353 604.5,-76 589.888,-60.8351 601.963,-33.8906 609.912,-19.9339"/>
<polygon fill="midnightblue" stroke="midnightblue" points="1571.99,-115.963 1582.23,-113.227 1572.52,-108.983 1571.99,-115.963"/>
</g>
<!-- Node25 -->
<g id="node25" class="node"><title>Node25</title>
<g id="a_node25"><a xlink:href="acq__a35_8h.html" target="_top" xlink:title="acq_a35.h">
<polygon fill="white" stroke="black" points="613.5,-56.5 613.5,-75.5 675.5,-75.5 675.5,-56.5 613.5,-56.5"/>
<text text-anchor="middle" x="644.5" y="-63.5" font-family="Helvetica,sans-Serif" font-size="10.00">acq_a35.h</text>
</a>
</g>
</g>
<!-- Node7&#45;&gt;Node25 -->
<g id="edge24" class="edge"><title>Node7&#45;&gt;Node25</title>
<path fill="none" stroke="midnightblue" d="M1572.06,-112.033C1181.29,-66.2723 1076.6,-122.302 689.5,-76 685.07,-75.4701 680.425,-74.7414 675.87,-73.9262"/>
<polygon fill="midnightblue" stroke="midnightblue" points="1571.89,-115.536 1582.23,-113.239 1572.71,-108.585 1571.89,-115.536"/>
</g>
<!-- Node26 -->
<g id="node26" class="node"><title>Node26</title>
<g id="a_node26"><a xlink:href="command__queue_8h.html" target="_top" xlink:title="Command Queue Class. ">
<polygon fill="white" stroke="red" points="732,-56.5 732,-75.5 831,-75.5 831,-56.5 732,-56.5"/>
<text text-anchor="middle" x="781.5" y="-63.5" font-family="Helvetica,sans-Serif" font-size="10.00">command_queue.h</text>
</a>
</g>
</g>
<!-- Node7&#45;&gt;Node26 -->
<g id="edge26" class="edge"><title>Node7&#45;&gt;Node26</title>
<path fill="none" stroke="midnightblue" d="M1572.08,-112.017C1248.04,-72.6521 1161.71,-108.301 840.5,-76 837.407,-75.689 834.229,-75.3273 831.028,-74.931"/>
<polygon fill="midnightblue" stroke="midnightblue" points="1571.87,-115.518 1582.23,-113.265 1572.73,-108.571 1571.87,-115.518"/>
</g>
<!-- Node27 -->
<g id="node27" class="node"><title>Node27</title>
<g id="a_node27"><a xlink:href="agent__exec_8cpp.html" target="_top" xlink:title="Executive Agent source file. ">
<polygon fill="white" stroke="black" points="738.5,-0.5 738.5,-19.5 824.5,-19.5 824.5,-0.5 738.5,-0.5"/>
<text text-anchor="middle" x="781.5" y="-7.5" font-family="Helvetica,sans-Serif" font-size="10.00">agent_exec.cpp</text>
</a>
</g>
</g>
<!-- Node7&#45;&gt;Node27 -->
<g id="edge31" class="edge"><title>Node7&#45;&gt;Node27</title>
<path fill="none" stroke="midnightblue" d="M1572.19,-112.463C1465.94,-106.588 753.934,-108.792 722.5,-76 703.517,-56.1966 740.397,-32.1068 763.968,-19.5487"/>
<polygon fill="midnightblue" stroke="midnightblue" points="1571.99,-115.958 1582.23,-113.244 1572.53,-108.979 1571.99,-115.958"/>
</g>
<!-- Node28 -->
<g id="node28" class="node"><title>Node28</title>
<g id="a_node28"><a xlink:href="agent_8cpp.html" target="_top" xlink:title="Agent control program source. ">
<polygon fill="white" stroke="black" points="2603,-56.5 2603,-75.5 2662,-75.5 2662,-56.5 2603,-56.5"/>
<text text-anchor="middle" x="2632.5" y="-63.5" font-family="Helvetica,sans-Serif" font-size="10.00">agent.cpp</text>
</a>
</g>
</g>
<!-- Node7&#45;&gt;Node28 -->
<g id="edge28" class="edge"><title>Node7&#45;&gt;Node28</title>
<path fill="none" stroke="midnightblue" d="M1664.67,-120.014C1832.72,-116.246 2411.45,-101.667 2594.5,-76 2597.19,-75.6234 2599.96,-75.1448 2602.73,-74.6052"/>
<polygon fill="midnightblue" stroke="midnightblue" points="1664.58,-116.515 1654.66,-120.236 1664.74,-123.513 1664.58,-116.515"/>
</g>
<!-- Node29 -->
<g id="node29" class="node"><title>Node29</title>
<g id="a_node29"><a xlink:href="agent__cpu_8cpp.html" target="_top" xlink:title="agent_cpu.cpp">
<polygon fill="white" stroke="black" points="849.5,-56.5 849.5,-75.5 929.5,-75.5 929.5,-56.5 849.5,-56.5"/>
<text text-anchor="middle" x="889.5" y="-63.5" font-family="Helvetica,sans-Serif" font-size="10.00">agent_cpu.cpp</text>
</a>
</g>
</g>
<!-- Node7&#45;&gt;Node29 -->
<g id="edge29" class="edge"><title>Node7&#45;&gt;Node29</title>
<path fill="none" stroke="midnightblue" d="M1572.15,-112.014C1291.34,-76.9665 1215.88,-109.205 938.5,-76 935.58,-75.6505 932.571,-75.235 929.549,-74.7773"/>
<polygon fill="midnightblue" stroke="midnightblue" points="1571.86,-115.505 1582.22,-113.289 1572.74,-108.561 1571.86,-115.505"/>
</g>
<!-- Node30 -->
<g id="node30" class="node"><title>Node30</title>
<g id="a_node30"><a xlink:href="agent__data_8cpp.html" target="_top" xlink:title="agent_data.cpp">
<polygon fill="white" stroke="black" points="2502,-56.5 2502,-75.5 2585,-75.5 2585,-56.5 2502,-56.5"/>
<text text-anchor="middle" x="2543.5" y="-63.5" font-family="Helvetica,sans-Serif" font-size="10.00">agent_data.cpp</text>
</a>
</g>
</g>
<!-- Node7&#45;&gt;Node30 -->
<g id="edge30" class="edge"><title>Node7&#45;&gt;Node30</title>
<path fill="none" stroke="midnightblue" d="M1664.96,-120.679C1795.79,-119.331 2178.28,-112.327 2493.5,-76 2496.22,-75.687 2499.01,-75.3178 2501.82,-74.9106"/>
<polygon fill="midnightblue" stroke="midnightblue" points="1664.86,-117.18 1654.89,-120.777 1664.93,-124.18 1664.86,-117.18"/>
</g>
<!-- Node31 -->
<g id="node31" class="node"><title>Node31</title>
<g id="a_node31"><a xlink:href="agent__file_8cpp.html" target="_top" xlink:title="File Transfer Agent source file. ">
<polygon fill="white" stroke="black" points="948,-56.5 948,-75.5 1025,-75.5 1025,-56.5 948,-56.5"/>
<text text-anchor="middle" x="986.5" y="-63.5" font-family="Helvetica,sans-Serif" font-size="10.00">agent_file.cpp</text>
</a>
</g>
</g>
<!-- Node7&#45;&gt;Node31 -->
<g id="edge32" class="edge"><title>Node7&#45;&gt;Node31</title>
<path fill="none" stroke="midnightblue" d="M1572.18,-112.001C1333.3,-81.0554 1268.81,-106.257 1033.5,-76 1030.78,-75.6503 1027.98,-75.2413 1025.17,-74.7939"/>
<polygon fill="midnightblue" stroke="midnightblue" points="1571.85,-115.487 1582.22,-113.32 1572.76,-108.546 1571.85,-115.487"/>
</g>
<!-- Node32 -->
<g id="node32" class="node"><title>Node32</title>
<g id="a_node32"><a xlink:href="agent__file2_8cpp.html" target="_top" xlink:title="agent_file2.cpp">
<polygon fill="white" stroke="black" points="1043,-56.5 1043,-75.5 1126,-75.5 1126,-56.5 1043,-56.5"/>
<text text-anchor="middle" x="1084.5" y="-63.5" font-family="Helvetica,sans-Serif" font-size="10.00">agent_file2.cpp</text>
</a>
</g>
</g>
<!-- Node7&#45;&gt;Node32 -->
<g id="edge33" class="edge"><title>Node7&#45;&gt;Node32</title>
<path fill="none" stroke="midnightblue" d="M1572.25,-111.98C1377.91,-85.2981 1325.39,-100.948 1134.5,-76 1131.79,-75.6457 1129,-75.2452 1126.2,-74.8149"/>
<polygon fill="midnightblue" stroke="midnightblue" points="1571.83,-115.455 1582.21,-113.368 1572.79,-108.522 1571.83,-115.455"/>
</g>
<!-- Node33 -->
<g id="node33" class="node"><title>Node33</title>
<g id="a_node33"><a xlink:href="agent__file3_8cpp.html" target="_top" xlink:title="agent_file3.cpp">
<polygon fill="white" stroke="black" points="1144,-56.5 1144,-75.5 1227,-75.5 1227,-56.5 1144,-56.5"/>
<text text-anchor="middle" x="1185.5" y="-63.5" font-family="Helvetica,sans-Serif" font-size="10.00">agent_file3.cpp</text>
</a>
</g>
</g>
<!-- Node7&#45;&gt;Node33 -->
<g id="edge34" class="edge"><title>Node7&#45;&gt;Node33</title>
<path fill="none" stroke="midnightblue" d="M1572.18,-111.924C1422.43,-89.5025 1381.84,-96.9356 1235.5,-76 1232.79,-75.6128 1230.01,-75.1874 1227.21,-74.7387"/>
<polygon fill="midnightblue" stroke="midnightblue" points="1571.79,-115.405 1582.2,-113.445 1572.84,-108.484 1571.79,-115.405"/>
</g>
<!-- Node34 -->
<g id="node34" class="node"><title>Node34</title>
<g id="a_node34"><a xlink:href="agent__file4_8cpp.html" target="_top" xlink:title="agent_file4.cpp">
<polygon fill="white" stroke="black" points="1245,-56.5 1245,-75.5 1328,-75.5 1328,-56.5 1245,-56.5"/>
<text text-anchor="middle" x="1286.5" y="-63.5" font-family="Helvetica,sans-Serif" font-size="10.00">agent_file4.cpp</text>
</a>
</g>
</g>
<!-- Node7&#45;&gt;Node34 -->
<g id="edge35" class="edge"><title>Node7&#45;&gt;Node34</title>
<path fill="none" stroke="midnightblue" d="M1572.09,-111.818C1466.86,-93.5252 1438.42,-92.9108 1336.5,-76 1333.8,-75.5525 1331.03,-75.0813 1328.23,-74.5989"/>
<polygon fill="midnightblue" stroke="midnightblue" points="1571.72,-115.307 1582.18,-113.584 1572.93,-108.412 1571.72,-115.307"/>
</g>
<!-- Node7&#45;&gt;Node35 -->
<g id="edge36" class="edge"><title>Node7&#45;&gt;Node35</title>
<path fill="none" stroke="midnightblue" d="M1664.62,-117.925C1754.34,-111.725 1958.54,-96.5459 2129.5,-76 2132.59,-75.6291 2135.76,-75.2215 2138.96,-74.791"/>
<polygon fill="midnightblue" stroke="midnightblue" points="1664.25,-114.442 1654.51,-118.619 1664.73,-121.426 1664.25,-114.442"/>
</g>
<!-- Node7&#45;&gt;Node36 -->
<g id="edge37" class="edge"><title>Node7&#45;&gt;Node36</title>
<path fill="none" stroke="midnightblue" d="M1664.75,-120.06C1841.25,-116.314 2472.4,-101.402 2671.5,-76 2674.16,-75.6602 2676.91,-75.2381 2679.66,-74.7633"/>
<polygon fill="midnightblue" stroke="midnightblue" points="1664.68,-116.561 1654.76,-120.271 1664.83,-123.56 1664.68,-116.561"/>
</g>
<!-- Node7&#45;&gt;Node37 -->
<g id="edge38" class="edge"><title>Node7&#45;&gt;Node37</title>
<path fill="none" stroke="midnightblue" d="M1664.88,-119.029C1769.11,-114.304 2029.69,-100.839 2246.5,-76 2249.69,-75.6351 2252.96,-75.2208 2256.26,-74.7752"/>
<polygon fill="midnightblue" stroke="midnightblue" points="1664.54,-115.541 1654.71,-119.485 1664.85,-122.534 1664.54,-115.541"/>
</g>
<!-- Node21&#45;&gt;Node22 -->
<g id="edge21" class="edge"><title>Node21&#45;&gt;Node22</title>
<path fill="none" stroke="midnightblue" d="M1423.35,-56.179C1692.61,-25.5291 2464.98,-14.365 2690.2,-11.6816"/>
<polygon fill="midnightblue" stroke="midnightblue" points="1422.73,-52.7268 1413.21,-57.371 1423.55,-59.6789 1422.73,-52.7268"/>
</g>
<!-- Node21&#45;&gt;Node23 -->
<g id="edge22" class="edge"><title>Node21&#45;&gt;Node23</title>
<path fill="none" stroke="midnightblue" d="M1423.29,-56.1742C2042.93,15.2846 2205.23,-59.5017 2823.5,-20 2826.26,-19.8237 2829.06,-19.6278 2831.9,-19.4157"/>
<polygon fill="midnightblue" stroke="midnightblue" points="1422.74,-52.7144 1413.21,-57.3447 1423.54,-59.6676 1422.74,-52.7144"/>
</g>
<!-- Node25&#45;&gt;Node24 -->
<g id="edge25" class="edge"><title>Node25&#45;&gt;Node24</title>
<path fill="none" stroke="midnightblue" d="M634.824,-46.9827C629.902,-37.8168 624.142,-27.0922 620.2,-19.7511"/>
<polygon fill="midnightblue" stroke="midnightblue" points="631.896,-48.929 639.711,-56.083 638.063,-45.6171 631.896,-48.929"/>
</g>
<!-- Node26&#45;&gt;Node27 -->
<g id="edge27" class="edge"><title>Node26&#45;&gt;Node27</title>
<path fill="none" stroke="midnightblue" d="M781.5,-45.8045C781.5,-36.9102 781.5,-26.7798 781.5,-19.7511"/>
<polygon fill="midnightblue" stroke="midnightblue" points="778,-46.083 781.5,-56.083 785,-46.083 778,-46.083"/>
</g>
<!-- Node42&#45;&gt;Node19 -->
<g id="edge44" class="edge"><title>Node42&#45;&gt;Node19</title>
<path fill="none" stroke="midnightblue" d="M2665.95,-113.849C2615.45,-103.969 2524.47,-86.1679 2470.37,-75.5826"/>
<polygon fill="midnightblue" stroke="midnightblue" points="2665.3,-117.288 2675.79,-115.773 2666.64,-110.418 2665.3,-117.288"/>
</g>
<!-- Node42&#45;&gt;Node22 -->
<g id="edge52" class="edge"><title>Node42&#45;&gt;Node22</title>
<path fill="none" stroke="midnightblue" d="M2739.02,-111.91C2757.58,-105.242 2778.48,-94.1005 2789.5,-76 2801.65,-56.0342 2778.42,-32.0103 2763.56,-19.5058"/>
<polygon fill="midnightblue" stroke="midnightblue" points="2737.73,-108.65 2729.32,-115.087 2739.91,-115.303 2737.73,-108.65"/>
</g>
<!-- Node42&#45;&gt;Node23 -->
<g id="edge53" class="edge"><title>Node42&#45;&gt;Node23</title>
<path fill="none" stroke="midnightblue" d="M2733.44,-108.589C2753.92,-100.073 2781.2,-88.152 2804.5,-76 2839.58,-57.7084 2878.86,-32.5721 2898.64,-19.5685"/>
<polygon fill="midnightblue" stroke="midnightblue" points="2731.89,-105.44 2723.98,-112.482 2734.56,-111.913 2731.89,-105.44"/>
</g>
<!-- Node42&#45;&gt;Node27 -->
<g id="edge50" class="edge"><title>Node42&#45;&gt;Node27</title>
<path fill="none" stroke="midnightblue" d="M2727.16,-107.101C2748.22,-93.5502 2772.74,-72.6157 2756.5,-56 2721.55,-20.2452 1110.72,-12.2878 824.692,-11.1559"/>
<polygon fill="midnightblue" stroke="midnightblue" points="2725.17,-104.214 2718.47,-112.422 2728.82,-110.183 2725.17,-104.214"/>
</g>
<!-- Node42&#45;&gt;Node28 -->
<g id="edge48" class="edge"><title>Node42&#45;&gt;Node28</title>
<path fill="none" stroke="midnightblue" d="M2683.19,-106.101C2670.59,-96.3824 2654.57,-84.0269 2643.95,-75.8339"/>
<polygon fill="midnightblue" stroke="midnightblue" points="2681.2,-108.987 2691.25,-112.324 2685.47,-103.445 2681.2,-108.987"/>
</g>
<!-- Node42&#45;&gt;Node30 -->
<g id="edge49" class="edge"><title>Node42&#45;&gt;Node30</title>
<path fill="none" stroke="midnightblue" d="M2667.67,-109.172C2637.73,-99.0039 2595.28,-84.5852 2568.58,-75.5164"/>
<polygon fill="midnightblue" stroke="midnightblue" points="2666.71,-112.542 2677.31,-112.444 2668.96,-105.914 2666.71,-112.542"/>
</g>
<!-- Node42&#45;&gt;Node36 -->
<g id="edge51" class="edge"><title>Node42&#45;&gt;Node36</title>
<path fill="none" stroke="midnightblue" d="M2706.35,-102.101C2708.18,-93.1357 2710.27,-82.8579 2711.72,-75.7511"/>
<polygon fill="midnightblue" stroke="midnightblue" points="2702.88,-101.586 2704.32,-112.083 2709.74,-102.983 2702.88,-101.586"/>
</g>
<!-- Node42&#45;&gt;Node40 -->
<g id="edge45" class="edge"><title>Node42&#45;&gt;Node40</title>
<path fill="none" stroke="midnightblue" d="M2739.16,-113.238C2786.58,-103.196 2868.88,-85.7661 2917.76,-75.4153"/>
<polygon fill="midnightblue" stroke="midnightblue" points="2738.37,-109.827 2729.31,-115.323 2739.82,-116.675 2738.37,-109.827"/>
</g>
<!-- Node42&#45;&gt;Node43 -->
<g id="edge46" class="edge"><title>Node42&#45;&gt;Node43</title>
<path fill="none" stroke="midnightblue" d="M2739.04,-116.422C2796.26,-109.065 2910.41,-93.6358 3006.5,-76 3009.37,-75.4738 3012.34,-74.8922 3015.31,-74.2856"/>
<polygon fill="midnightblue" stroke="midnightblue" points="2738.51,-112.961 2729.03,-117.7 2739.4,-119.904 2738.51,-112.961"/>
</g>
<!-- Node42&#45;&gt;Node44 -->
<g id="edge47" class="edge"><title>Node42&#45;&gt;Node44</title>
<path fill="none" stroke="midnightblue" d="M2739.25,-116.486C2751.13,-115.038 2764.37,-113.437 2776.5,-112 2915.12,-95.5736 2950.82,-98.9936 3088.5,-76 3091.38,-75.5198 3094.35,-74.97 3097.33,-74.3839"/>
<polygon fill="midnightblue" stroke="midnightblue" points="2738.71,-113.025 2729.21,-117.711 2739.56,-119.973 2738.71,-113.025"/>
</g>
</g>
</svg>
