<?xml version="1.0" encoding="UTF-8" standalone="no"?>
<!DOCTYPE svg PUBLIC "-//W3C//DTD SVG 1.1//EN"
 "http://www.w3.org/Graphics/SVG/1.1/DTD/svg11.dtd">
<!-- Generated by graphviz version 2.38.0 (20140413.2041)
 -->
<!-- Title: transferlib.h Pages: 1 -->
<svg width="1466pt" height="532pt"
 viewBox="0.00 0.00 1465.50 532.00" xmlns="http://www.w3.org/2000/svg" xmlns:xlink="http://www.w3.org/1999/xlink">
<g id="graph0" class="graph" transform="scale(1 1) rotate(0) translate(4 528)">
<title>transferlib.h</title>
<polygon fill="white" stroke="none" points="-4,4 -4,-528 1461.5,-528 1461.5,4 -4,4"/>
<!-- Node1 -->
<g id="node1" class="node"><title>Node1</title>
<polygon fill="#bfbfbf" stroke="black" points="505,-504.5 505,-523.5 573,-523.5 573,-504.5 505,-504.5"/>
<text text-anchor="middle" x="539" y="-511.5" font-family="Helvetica,sans-Serif" font-size="10.00">transferlib.h</text>
</g>
<!-- Node2 -->
<g id="node2" class="node"><title>Node2</title>
<g id="a_node2"><a xlink:href="config_cosmos_8h.html" target="_top" xlink:title="Headers and definitions common to all COSMOS. ">
<polygon fill="white" stroke="black" points="613.5,-112.5 613.5,-131.5 736.5,-131.5 736.5,-112.5 613.5,-112.5"/>
<text text-anchor="middle" x="675" y="-119.5" font-family="Helvetica,sans-Serif" font-size="10.00">support/configCosmos.h</text>
</a>
</g>
</g>
<!-- Node1&#45;&gt;Node2 -->
<g id="edge1" class="edge"><title>Node1&#45;&gt;Node2</title>
<path fill="none" stroke="midnightblue" d="M504.767,-508.071C452.046,-498.332 357,-471.302 357,-403 357,-403 357,-403 357,-233 357,-195.725 377.791,-186.763 410,-168 442.026,-149.344 536.335,-136.514 603.306,-129.463"/>
<polygon fill="midnightblue" stroke="midnightblue" points="603.803,-132.931 613.391,-128.423 603.085,-125.968 603.803,-132.931"/>
</g>
<!-- Node28 -->
<g id="node28" class="node"><title>Node28</title>
<g id="a_node28"><a xlink:href="datalib_8h.html" target="_top" xlink:title="Data Management header file. ">
<polygon fill="white" stroke="black" points="677.5,-448.5 677.5,-467.5 766.5,-467.5 766.5,-448.5 677.5,-448.5"/>
<text text-anchor="middle" x="722" y="-455.5" font-family="Helvetica,sans-Serif" font-size="10.00">support/datalib.h</text>
</a>
</g>
</g>
<!-- Node1&#45;&gt;Node28 -->
<g id="edge33" class="edge"><title>Node1&#45;&gt;Node28</title>
<path fill="none" stroke="midnightblue" d="M567.997,-504.444C599.185,-495.241 648.93,-480.562 683.408,-470.388"/>
<polygon fill="midnightblue" stroke="midnightblue" points="684.538,-473.704 693.139,-467.516 682.557,-466.99 684.538,-473.704"/>
</g>
<!-- Node3 -->
<g id="node3" class="node"><title>Node3</title>
<polygon fill="white" stroke="#bfbfbf" points="556.5,-56.5 556.5,-75.5 601.5,-75.5 601.5,-56.5 556.5,-56.5"/>
<text text-anchor="middle" x="579" y="-63.5" font-family="Helvetica,sans-Serif" font-size="10.00">climits</text>
</g>
<!-- Node2&#45;&gt;Node3 -->
<g id="edge2" class="edge"><title>Node2&#45;&gt;Node3</title>
<path fill="none" stroke="midnightblue" d="M659.576,-112.324C644.46,-103.822 621.185,-90.7288 603.529,-80.7975"/>
<polygon fill="midnightblue" stroke="midnightblue" points="604.817,-77.5066 594.386,-75.6545 601.386,-83.6077 604.817,-77.5066"/>
</g>
<!-- Node4 -->
<g id="node4" class="node"><title>Node4</title>
<polygon fill="white" stroke="#bfbfbf" points="619.5,-56.5 619.5,-75.5 666.5,-75.5 666.5,-56.5 619.5,-56.5"/>
<text text-anchor="middle" x="643" y="-63.5" font-family="Helvetica,sans-Serif" font-size="10.00">csignal</text>
</g>
<!-- Node2&#45;&gt;Node4 -->
<g id="edge3" class="edge"><title>Node2&#45;&gt;Node4</title>
<path fill="none" stroke="midnightblue" d="M669.716,-112.083C665.289,-104.613 658.837,-93.7244 653.382,-84.5199"/>
<polygon fill="midnightblue" stroke="midnightblue" points="656.295,-82.5697 648.186,-75.7511 650.273,-86.1383 656.295,-82.5697"/>
</g>
<!-- Node5 -->
<g id="node5" class="node"><title>Node5</title>
<polygon fill="white" stroke="#bfbfbf" points="685,-56.5 685,-75.5 731,-75.5 731,-56.5 685,-56.5"/>
<text text-anchor="middle" x="708" y="-63.5" font-family="Helvetica,sans-Serif" font-size="10.00">cstdint</text>
</g>
<!-- Node2&#45;&gt;Node5 -->
<g id="edge4" class="edge"><title>Node2&#45;&gt;Node5</title>
<path fill="none" stroke="midnightblue" d="M680.449,-112.083C685.014,-104.613 691.668,-93.7244 697.293,-84.5199"/>
<polygon fill="midnightblue" stroke="midnightblue" points="700.424,-86.109 702.652,-75.7511 694.451,-82.4588 700.424,-86.109"/>
</g>
<!-- Node6 -->
<g id="node6" class="node"><title>Node6</title>
<polygon fill="white" stroke="#bfbfbf" points="749,-56.5 749,-75.5 805,-75.5 805,-56.5 749,-56.5"/>
<text text-anchor="middle" x="777" y="-63.5" font-family="Helvetica,sans-Serif" font-size="10.00">cinttypes</text>
</g>
<!-- Node2&#45;&gt;Node6 -->
<g id="edge5" class="edge"><title>Node2&#45;&gt;Node6</title>
<path fill="none" stroke="midnightblue" d="M691.388,-112.324C707.671,-103.703 732.867,-90.3643 751.716,-80.3855"/>
<polygon fill="midnightblue" stroke="midnightblue" points="753.452,-83.4267 760.653,-75.6545 750.177,-77.2402 753.452,-83.4267"/>
</g>
<!-- Node7 -->
<g id="node7" class="node"><title>Node7</title>
<polygon fill="white" stroke="#bfbfbf" points="823.5,-56.5 823.5,-75.5 866.5,-75.5 866.5,-56.5 823.5,-56.5"/>
<text text-anchor="middle" x="845" y="-63.5" font-family="Helvetica,sans-Serif" font-size="10.00">cstdio</text>
</g>
<!-- Node2&#45;&gt;Node7 -->
<g id="edge6" class="edge"><title>Node2&#45;&gt;Node7</title>
<path fill="none" stroke="midnightblue" d="M701.937,-112.444C732.266,-102.81 781.486,-87.1752 813.551,-76.9896"/>
<polygon fill="midnightblue" stroke="midnightblue" points="814.842,-80.2519 823.314,-73.8886 812.723,-73.5803 814.842,-80.2519"/>
</g>
<!-- Node8 -->
<g id="node8" class="node"><title>Node8</title>
<polygon fill="white" stroke="#bfbfbf" points="884.5,-56.5 884.5,-75.5 933.5,-75.5 933.5,-56.5 884.5,-56.5"/>
<text text-anchor="middle" x="909" y="-63.5" font-family="Helvetica,sans-Serif" font-size="10.00">cstddef</text>
</g>
<!-- Node2&#45;&gt;Node8 -->
<g id="edge7" class="edge"><title>Node2&#45;&gt;Node8</title>
<path fill="none" stroke="midnightblue" d="M714.947,-112.473C753.337,-104.176 813.22,-90.9657 874.33,-76.0946"/>
<polygon fill="midnightblue" stroke="midnightblue" points="875.263,-79.4697 884.145,-73.6941 873.6,-72.6701 875.263,-79.4697"/>
</g>
<!-- Node9 -->
<g id="node9" class="node"><title>Node9</title>
<polygon fill="white" stroke="#bfbfbf" points="951.5,-56.5 951.5,-75.5 996.5,-75.5 996.5,-56.5 951.5,-56.5"/>
<text text-anchor="middle" x="974" y="-63.5" font-family="Helvetica,sans-Serif" font-size="10.00">cstdlib</text>
</g>
<!-- Node2&#45;&gt;Node9 -->
<g id="edge8" class="edge"><title>Node2&#45;&gt;Node9</title>
<path fill="none" stroke="midnightblue" d="M736.605,-112.533C788.622,-104.949 865.235,-92.7619 941.134,-75.982"/>
<polygon fill="midnightblue" stroke="midnightblue" points="942.357,-79.2948 951.351,-73.694 940.828,-72.464 942.357,-79.2948"/>
</g>
<!-- Node10 -->
<g id="node10" class="node"><title>Node10</title>
<polygon fill="white" stroke="#bfbfbf" points="1015,-56.5 1015,-75.5 1059,-75.5 1059,-56.5 1015,-56.5"/>
<text text-anchor="middle" x="1037" y="-63.5" font-family="Helvetica,sans-Serif" font-size="10.00">cerrno</text>
</g>
<!-- Node2&#45;&gt;Node10 -->
<g id="edge9" class="edge"><title>Node2&#45;&gt;Node10</title>
<path fill="none" stroke="midnightblue" d="M736.558,-115.184C801.022,-108.515 905.307,-96.0939 1004.8,-75.7513"/>
<polygon fill="midnightblue" stroke="midnightblue" points="1005.64,-79.1514 1014.72,-73.6927 1004.22,-72.2974 1005.64,-79.1514"/>
</g>
<!-- Node11 -->
<g id="node11" class="node"><title>Node11</title>
<polygon fill="white" stroke="#bfbfbf" points="1077,-56.5 1077,-75.5 1123,-75.5 1123,-56.5 1077,-56.5"/>
<text text-anchor="middle" x="1100" y="-63.5" font-family="Helvetica,sans-Serif" font-size="10.00">cstring</text>
</g>
<!-- Node2&#45;&gt;Node11 -->
<g id="edge10" class="edge"><title>Node2&#45;&gt;Node11</title>
<path fill="none" stroke="midnightblue" d="M736.734,-117.003C812.481,-111.416 944.884,-99.4357 1066.8,-75.956"/>
<polygon fill="midnightblue" stroke="midnightblue" points="1067.54,-79.3779 1076.69,-74.023 1066.2,-72.5081 1067.54,-79.3779"/>
</g>
<!-- Node12 -->
<g id="node12" class="node"><title>Node12</title>
<polygon fill="white" stroke="#bfbfbf" points="1339,-56.5 1339,-75.5 1383,-75.5 1383,-56.5 1339,-56.5"/>
<text text-anchor="middle" x="1361" y="-63.5" font-family="Helvetica,sans-Serif" font-size="10.00">cmath</text>
</g>
<!-- Node2&#45;&gt;Node12 -->
<g id="edge11" class="edge"><title>Node2&#45;&gt;Node12</title>
<path fill="none" stroke="midnightblue" d="M736.575,-120.631C852.784,-119.079 1112.07,-111.533 1327,-76 1327.6,-75.9004 1328.21,-75.7949 1328.82,-75.684"/>
<polygon fill="midnightblue" stroke="midnightblue" points="1329.79,-79.056 1338.82,-73.5181 1328.3,-72.2147 1329.79,-79.056"/>
</g>
<!-- Node13 -->
<g id="node13" class="node"><title>Node13</title>
<polygon fill="white" stroke="#bfbfbf" points="1141.5,-56.5 1141.5,-75.5 1186.5,-75.5 1186.5,-56.5 1141.5,-56.5"/>
<text text-anchor="middle" x="1164" y="-63.5" font-family="Helvetica,sans-Serif" font-size="10.00">iosfwd</text>
</g>
<!-- Node2&#45;&gt;Node13 -->
<g id="edge12" class="edge"><title>Node2&#45;&gt;Node13</title>
<path fill="none" stroke="midnightblue" d="M736.84,-118.366C823.159,-113.928 984.689,-102.852 1131.31,-75.7816"/>
<polygon fill="midnightblue" stroke="midnightblue" points="1132.21,-79.1741 1141.39,-73.8902 1130.92,-72.2942 1132.21,-79.1741"/>
</g>
<!-- Node14 -->
<g id="node14" class="node"><title>Node14</title>
<polygon fill="white" stroke="#bfbfbf" points="1264,-56.5 1264,-75.5 1318,-75.5 1318,-56.5 1264,-56.5"/>
<text text-anchor="middle" x="1291" y="-63.5" font-family="Helvetica,sans-Serif" font-size="10.00">iostream</text>
</g>
<!-- Node2&#45;&gt;Node14 -->
<g id="edge13" class="edge"><title>Node2&#45;&gt;Node14</title>
<path fill="none" stroke="midnightblue" d="M736.783,-119.6C841.418,-116.487 1060.19,-106.775 1253.89,-75.9021"/>
<polygon fill="midnightblue" stroke="midnightblue" points="1254.66,-79.3236 1263.97,-74.2724 1253.54,-72.4134 1254.66,-79.3236"/>
</g>
<!-- Node15 -->
<g id="node15" class="node"><title>Node15</title>
<polygon fill="white" stroke="#bfbfbf" points="1406.5,-56.5 1406.5,-75.5 1457.5,-75.5 1457.5,-56.5 1406.5,-56.5"/>
<text text-anchor="middle" x="1432" y="-63.5" font-family="Helvetica,sans-Serif" font-size="10.00">unistd.h</text>
</g>
<!-- Node2&#45;&gt;Node15 -->
<g id="edge14" class="edge"><title>Node2&#45;&gt;Node15</title>
<path fill="none" stroke="midnightblue" d="M736.718,-120.415C861.246,-118.513 1151.24,-110.419 1392,-76 1393.45,-75.7922 1394.93,-75.5595 1396.42,-75.3072"/>
<polygon fill="midnightblue" stroke="midnightblue" points="1397.13,-78.7358 1406.29,-73.4152 1395.81,-71.861 1397.13,-78.7358"/>
</g>
<!-- Node16 -->
<g id="node16" class="node"><title>Node16</title>
<polygon fill="white" stroke="#bfbfbf" points="70,-56.5 70,-75.5 114,-75.5 114,-56.5 70,-56.5"/>
<text text-anchor="middle" x="92" y="-63.5" font-family="Helvetica,sans-Serif" font-size="10.00">fcntl.h</text>
</g>
<!-- Node2&#45;&gt;Node16 -->
<g id="edge15" class="edge"><title>Node2&#45;&gt;Node16</title>
<path fill="none" stroke="midnightblue" d="M613.485,-119.203C511.825,-115.506 302.633,-104.815 128,-76 126.749,-75.7935 125.477,-75.5656 124.195,-75.3207"/>
<polygon fill="midnightblue" stroke="midnightblue" points="124.865,-71.8847 114.35,-73.1866 123.382,-78.7258 124.865,-71.8847"/>
</g>
<!-- Node17 -->
<g id="node17" class="node"><title>Node17</title>
<polygon fill="white" stroke="#bfbfbf" points="1204.5,-56.5 1204.5,-75.5 1245.5,-75.5 1245.5,-56.5 1204.5,-56.5"/>
<text text-anchor="middle" x="1225" y="-63.5" font-family="Helvetica,sans-Serif" font-size="10.00">string</text>
</g>
<!-- Node2&#45;&gt;Node17 -->
<g id="edge16" class="edge"><title>Node2&#45;&gt;Node17</title>
<path fill="none" stroke="midnightblue" d="M736.536,-117.264C850.638,-110.083 1091.94,-93.6443 1194.42,-75.6227"/>
<polygon fill="midnightblue" stroke="midnightblue" points="1195.29,-79.0228 1204.48,-73.7606 1194.01,-72.1398 1195.29,-79.0228"/>
</g>
<!-- Node18 -->
<g id="node18" class="node"><title>Node18</title>
<polygon fill="white" stroke="#bfbfbf" points="127,-0.5 127,-19.5 171,-19.5 171,-0.5 127,-0.5"/>
<text text-anchor="middle" x="149" y="-7.5" font-family="Helvetica,sans-Serif" font-size="10.00">vector</text>
</g>
<!-- Node2&#45;&gt;Node18 -->
<g id="edge17" class="edge"><title>Node2&#45;&gt;Node18</title>
<path fill="none" stroke="midnightblue" d="M613.346,-119.722C484.077,-116.461 193.852,-105.863 161,-76 148.414,-64.5591 146.38,-44.5772 146.897,-29.7796"/>
<polygon fill="midnightblue" stroke="midnightblue" points="150.395,-29.9368 147.658,-19.7016 143.415,-29.4097 150.395,-29.9368"/>
</g>
<!-- Node19 -->
<g id="node19" class="node"><title>Node19</title>
<polygon fill="white" stroke="#bfbfbf" points="170.5,-56.5 170.5,-75.5 213.5,-75.5 213.5,-56.5 170.5,-56.5"/>
<text text-anchor="middle" x="192" y="-63.5" font-family="Helvetica,sans-Serif" font-size="10.00">deque</text>
</g>
<!-- Node2&#45;&gt;Node19 -->
<g id="edge18" class="edge"><title>Node2&#45;&gt;Node19</title>
<path fill="none" stroke="midnightblue" d="M613.157,-117.61C526.537,-112.22 364.385,-99.7845 228,-76 226.532,-75.7441 225.036,-75.4609 223.528,-75.1576"/>
<polygon fill="midnightblue" stroke="midnightblue" points="224.116,-71.7027 213.594,-72.9368 222.589,-78.5341 224.116,-71.7027"/>
</g>
<!-- Node20 -->
<g id="node20" class="node"><title>Node20</title>
<polygon fill="white" stroke="#bfbfbf" points="196,-0.5 196,-19.5 240,-19.5 240,-0.5 196,-0.5"/>
<text text-anchor="middle" x="218" y="-7.5" font-family="Helvetica,sans-Serif" font-size="10.00">mutex</text>
</g>
<!-- Node2&#45;&gt;Node20 -->
<g id="edge19" class="edge"><title>Node2&#45;&gt;Node20</title>
<path fill="none" stroke="midnightblue" d="M613.275,-118.844C517.914,-114.692 339.83,-103.441 283,-76 260.415,-65.0943 241.063,-43.0823 229.487,-27.7102"/>
<polygon fill="midnightblue" stroke="midnightblue" points="232.294,-25.6199 223.603,-19.5607 226.619,-29.7173 232.294,-25.6199"/>
</g>
<!-- Node21 -->
<g id="node21" class="node"><title>Node21</title>
<polygon fill="white" stroke="#bfbfbf" points="258,-0.5 258,-19.5 302,-19.5 302,-0.5 258,-0.5"/>
<text text-anchor="middle" x="280" y="-7.5" font-family="Helvetica,sans-Serif" font-size="10.00">thread</text>
</g>
<!-- Node2&#45;&gt;Node21 -->
<g id="edge20" class="edge"><title>Node2&#45;&gt;Node21</title>
<path fill="none" stroke="midnightblue" d="M613.456,-121.6C519.203,-121.237 345.153,-115.093 299,-76 285.703,-64.7371 281.434,-44.727 280.197,-29.8742"/>
<polygon fill="midnightblue" stroke="midnightblue" points="283.687,-29.5845 279.742,-19.7517 276.694,-29.8987 283.687,-29.5845"/>
</g>
<!-- Node22 -->
<g id="node22" class="node"><title>Node22</title>
<polygon fill="white" stroke="#bfbfbf" points="366.5,-0.5 366.5,-19.5 461.5,-19.5 461.5,-0.5 366.5,-0.5"/>
<text text-anchor="middle" x="414" y="-7.5" font-family="Helvetica,sans-Serif" font-size="10.00">condition_variable</text>
</g>
<!-- Node2&#45;&gt;Node22 -->
<g id="edge21" class="edge"><title>Node2&#45;&gt;Node22</title>
<path fill="none" stroke="midnightblue" d="M632.942,-112.472C600.432,-105.067 554.758,-92.8712 517,-76 486.028,-62.1612 453.424,-40.1402 433.397,-25.627"/>
<polygon fill="midnightblue" stroke="midnightblue" points="435.26,-22.6524 425.132,-19.5435 431.111,-28.29 435.26,-22.6524"/>
</g>
<!-- Node23 -->
<g id="node23" class="node"><title>Node23</title>
<polygon fill="white" stroke="#bfbfbf" points="479.5,-0.5 479.5,-19.5 522.5,-19.5 522.5,-0.5 479.5,-0.5"/>
<text text-anchor="middle" x="501" y="-7.5" font-family="Helvetica,sans-Serif" font-size="10.00">queue</text>
</g>
<!-- Node2&#45;&gt;Node23 -->
<g id="edge22" class="edge"><title>Node2&#45;&gt;Node23</title>
<path fill="none" stroke="midnightblue" d="M619.779,-112.493C592.815,-106.091 561.259,-95.0145 538,-76 523.115,-63.8314 513.071,-43.9954 507.248,-29.4318"/>
<polygon fill="midnightblue" stroke="midnightblue" points="510.492,-28.1126 503.744,-19.9441 503.925,-30.5374 510.492,-28.1126"/>
</g>
<!-- Node24 -->
<g id="node24" class="node"><title>Node24</title>
<polygon fill="white" stroke="#bfbfbf" points="0,-56.5 0,-75.5 52,-75.5 52,-56.5 0,-56.5"/>
<text text-anchor="middle" x="26" y="-63.5" font-family="Helvetica,sans-Serif" font-size="10.00">sstream</text>
</g>
<!-- Node2&#45;&gt;Node24 -->
<g id="edge23" class="edge"><title>Node2&#45;&gt;Node24</title>
<path fill="none" stroke="midnightblue" d="M613.133,-120.108C503.709,-117.736 268.867,-109.082 62.3875,-75.9387"/>
<polygon fill="midnightblue" stroke="midnightblue" points="62.6989,-72.4433 52.2664,-74.2905 61.5738,-79.3523 62.6989,-72.4433"/>
</g>
<!-- Node25 -->
<g id="node25" class="node"><title>Node25</title>
<polygon fill="white" stroke="#bfbfbf" points="540.5,-0.5 540.5,-19.5 575.5,-19.5 575.5,-0.5 540.5,-0.5"/>
<text text-anchor="middle" x="558" y="-7.5" font-family="Helvetica,sans-Serif" font-size="10.00">map</text>
</g>
<!-- Node2&#45;&gt;Node25 -->
<g id="edge24" class="edge"><title>Node2&#45;&gt;Node25</title>
<path fill="none" stroke="midnightblue" d="M613.206,-114.658C588.422,-108.731 562.183,-97.4314 547,-76 537.31,-62.3226 542.307,-43.0213 548.358,-29.0071"/>
<polygon fill="midnightblue" stroke="midnightblue" points="551.562,-30.4205 552.756,-19.893 545.258,-27.3786 551.562,-30.4205"/>
</g>
<!-- Node26 -->
<g id="node26" class="node"><title>Node26</title>
<g id="a_node26"><a xlink:href="cosmos-defs_8h.html" target="_top" xlink:title="COSMOS definitions Definitions specific to the COSMOS environement. ">
<polygon fill="white" stroke="black" points="308,-56.5 308,-75.5 424,-75.5 424,-56.5 308,-56.5"/>
<text text-anchor="middle" x="366" y="-63.5" font-family="Helvetica,sans-Serif" font-size="10.00">support/cosmos&#45;defs.h</text>
</a>
</g>
</g>
<!-- Node2&#45;&gt;Node26 -->
<g id="edge25" class="edge"><title>Node2&#45;&gt;Node26</title>
<path fill="none" stroke="midnightblue" d="M626.038,-112.444C571.456,-102.905 483.21,-87.4834 424.899,-77.293"/>
<polygon fill="midnightblue" stroke="midnightblue" points="425.186,-73.7902 414.733,-75.5164 423.981,-80.6857 425.186,-73.7902"/>
</g>
<!-- Node26&#45;&gt;Node18 -->
<g id="edge27" class="edge"><title>Node26&#45;&gt;Node18</title>
<path fill="none" stroke="midnightblue" d="M331.616,-56.4435C290.279,-46.157 221.449,-29.0289 181.139,-18.9978"/>
<polygon fill="midnightblue" stroke="midnightblue" points="181.847,-15.5673 171.298,-16.5488 180.157,-22.3601 181.847,-15.5673"/>
</g>
<!-- Node26&#45;&gt;Node20 -->
<g id="edge31" class="edge"><title>Node26&#45;&gt;Node20</title>
<path fill="none" stroke="midnightblue" d="M342.549,-56.4435C317.577,-47.3322 277.894,-32.8531 250.047,-22.6929"/>
<polygon fill="midnightblue" stroke="midnightblue" points="250.966,-19.3027 240.373,-19.1629 248.567,-25.8786 250.966,-19.3027"/>
</g>
<!-- Node26&#45;&gt;Node21 -->
<g id="edge30" class="edge"><title>Node26&#45;&gt;Node21</title>
<path fill="none" stroke="midnightblue" d="M352.183,-56.324C338.767,-47.9002 318.176,-34.9709 302.414,-25.0741"/>
<polygon fill="midnightblue" stroke="midnightblue" points="304.113,-22.0081 293.783,-19.6545 300.391,-27.9364 304.113,-22.0081"/>
</g>
<!-- Node26&#45;&gt;Node22 -->
<g id="edge32" class="edge"><title>Node26&#45;&gt;Node22</title>
<path fill="none" stroke="midnightblue" d="M373.926,-56.083C380.846,-48.2982 391.065,-36.8015 399.452,-27.3665"/>
<polygon fill="midnightblue" stroke="midnightblue" points="402.194,-29.5505 406.221,-19.7511 396.962,-24.8999 402.194,-29.5505"/>
</g>
<!-- Node26&#45;&gt;Node23 -->
<g id="edge29" class="edge"><title>Node26&#45;&gt;Node23</title>
<path fill="none" stroke="midnightblue" d="M387.391,-56.4435C409.707,-47.5171 444.903,-33.4387 470.208,-23.3168"/>
<polygon fill="midnightblue" stroke="midnightblue" points="471.724,-26.4801 479.709,-19.5164 469.124,-19.9807 471.724,-26.4801"/>
</g>
<!-- Node26&#45;&gt;Node25 -->
<g id="edge26" class="edge"><title>Node26&#45;&gt;Node25</title>
<path fill="none" stroke="midnightblue" d="M399.339,-56.4882C430.818,-48.3231 479.541,-35.3565 530.741,-19.9516"/>
<polygon fill="midnightblue" stroke="midnightblue" points="531.771,-23.2967 540.326,-17.0474 529.741,-16.5975 531.771,-23.2967"/>
</g>
<!-- Node27 -->
<g id="node27" class="node"><title>Node27</title>
<polygon fill="white" stroke="#bfbfbf" points="319.5,-0.5 319.5,-19.5 348.5,-19.5 348.5,-0.5 319.5,-0.5"/>
<text text-anchor="middle" x="334" y="-7.5" font-family="Helvetica,sans-Serif" font-size="10.00">list</text>
</g>
<!-- Node26&#45;&gt;Node27 -->
<g id="edge28" class="edge"><title>Node26&#45;&gt;Node27</title>
<path fill="none" stroke="midnightblue" d="M360.716,-56.083C356.289,-48.6127 349.837,-37.7244 344.382,-28.5199"/>
<polygon fill="midnightblue" stroke="midnightblue" points="347.295,-26.5697 339.186,-19.7511 341.273,-30.1383 347.295,-26.5697"/>
</g>
<!-- Node28&#45;&gt;Node2 -->
<g id="edge34" class="edge"><title>Node28&#45;&gt;Node2</title>
<path fill="none" stroke="midnightblue" d="M677.218,-451.473C587.661,-439.165 395,-405.849 395,-347 395,-347 395,-347 395,-233 395,-197.35 411.943,-187.171 442,-168 468.255,-151.254 544.752,-138.594 602.998,-131.033"/>
<polygon fill="midnightblue" stroke="midnightblue" points="603.799,-134.46 613.277,-129.727 602.916,-127.515 603.799,-134.46"/>
</g>
<!-- Node29 -->
<g id="node29" class="node"><title>Node29</title>
<g id="a_node29"><a xlink:href="cosmos-errno_8h.html" target="_top" xlink:title="COSMOS Error Codes. ">
<polygon fill="white" stroke="black" points="967.5,-168.5 967.5,-187.5 1086.5,-187.5 1086.5,-168.5 967.5,-168.5"/>
<text text-anchor="middle" x="1027" y="-175.5" font-family="Helvetica,sans-Serif" font-size="10.00">support/cosmos&#45;errno.h</text>
</a>
</g>
</g>
<!-- Node28&#45;&gt;Node29 -->
<g id="edge35" class="edge"><title>Node28&#45;&gt;Node29</title>
<path fill="none" stroke="midnightblue" d="M766.676,-450.43C851.393,-436.708 1027,-401.672 1027,-347 1027,-347 1027,-347 1027,-289 1027,-256.948 1027,-219.643 1027,-197.749"/>
<polygon fill="midnightblue" stroke="midnightblue" points="1030.5,-197.558 1027,-187.558 1023.5,-197.558 1030.5,-197.558"/>
</g>
<!-- Node31 -->
<g id="node31" class="node"><title>Node31</title>
<g id="a_node31"><a xlink:href="datadef_8h.html" target="_top" xlink:title="Data Management definitions file. ">
<polygon fill="white" stroke="black" points="423,-336.5 423,-355.5 515,-355.5 515,-336.5 423,-336.5"/>
<text text-anchor="middle" x="469" y="-343.5" font-family="Helvetica,sans-Serif" font-size="10.00">support/datadef.h</text>
</a>
</g>
</g>
<!-- Node28&#45;&gt;Node31 -->
<g id="edge38" class="edge"><title>Node28&#45;&gt;Node31</title>
<path fill="none" stroke="midnightblue" d="M680.602,-448.43C648.896,-441.037 604.541,-428.875 568,-412 538.188,-398.232 507.042,-376.345 487.83,-361.827"/>
<polygon fill="midnightblue" stroke="midnightblue" points="489.715,-358.862 479.652,-355.546 485.451,-364.413 489.715,-358.862"/>
</g>
<!-- Node32 -->
<g id="node32" class="node"><title>Node32</title>
<g id="a_node32"><a xlink:href="jsondef_8h.html" target="_top" xlink:title="support/jsondef.h">
<polygon fill="white" stroke="black" points="647,-336.5 647,-355.5 739,-355.5 739,-336.5 647,-336.5"/>
<text text-anchor="middle" x="693" y="-343.5" font-family="Helvetica,sans-Serif" font-size="10.00">support/jsondef.h</text>
</a>
</g>
</g>
<!-- Node28&#45;&gt;Node32 -->
<g id="edge40" class="edge"><title>Node28&#45;&gt;Node32</title>
<path fill="none" stroke="midnightblue" d="M719.724,-448.368C715.023,-430.537 704.151,-389.295 697.817,-365.272"/>
<polygon fill="midnightblue" stroke="midnightblue" points="701.199,-364.369 695.265,-355.591 694.43,-366.153 701.199,-364.369"/>
</g>
<!-- Node38 -->
<g id="node38" class="node"><title>Node38</title>
<g id="a_node38"><a xlink:href="jsonlib_8h.html" target="_top" xlink:title="JSON Support definitions. ">
<polygon fill="white" stroke="black" points="577,-392.5 577,-411.5 665,-411.5 665,-392.5 577,-392.5"/>
<text text-anchor="middle" x="621" y="-399.5" font-family="Helvetica,sans-Serif" font-size="10.00">support/jsonlib.h</text>
</a>
</g>
</g>
<!-- Node28&#45;&gt;Node38 -->
<g id="edge57" class="edge"><title>Node28&#45;&gt;Node38</title>
<path fill="none" stroke="midnightblue" d="M700.907,-448.444C683.079,-439.912 658.03,-426.675 640.632,-416.683"/>
<polygon fill="midnightblue" stroke="midnightblue" points="642.243,-413.57 631.849,-411.516 638.694,-419.603 642.243,-413.57"/>
</g>
<!-- Node41 -->
<g id="node41" class="node"><title>Node41</title>
<g id="a_node41"><a xlink:href="zlib_8h.html" target="_top" xlink:title="thirdparty/zlib/zlib.h">
<polygon fill="white" stroke="black" points="1193.5,-392.5 1193.5,-411.5 1294.5,-411.5 1294.5,-392.5 1193.5,-392.5"/>
<text text-anchor="middle" x="1244" y="-399.5" font-family="Helvetica,sans-Serif" font-size="10.00">thirdparty/zlib/zlib.h</text>
</a>
</g>
</g>
<!-- Node28&#45;&gt;Node41 -->
<g id="edge67" class="edge"><title>Node28&#45;&gt;Node41</title>
<path fill="none" stroke="midnightblue" d="M766.505,-452.396C859.92,-442.732 1076.56,-420.321 1182.9,-409.321"/>
<polygon fill="midnightblue" stroke="midnightblue" points="1183.56,-412.772 1193.14,-408.261 1182.84,-405.809 1183.56,-412.772"/>
</g>
<!-- Node43 -->
<g id="node43" class="node"><title>Node43</title>
<g id="a_node43"><a xlink:href="timelib_8h.html" target="_top" xlink:title="timelib include file A library providing functions for handling various types of time. ">
<polygon fill="white" stroke="red" points="1146.5,-280.5 1146.5,-299.5 1235.5,-299.5 1235.5,-280.5 1146.5,-280.5"/>
<text text-anchor="middle" x="1191" y="-287.5" font-family="Helvetica,sans-Serif" font-size="10.00">support/timelib.h</text>
</a>
</g>
</g>
<!-- Node28&#45;&gt;Node43 -->
<g id="edge70" class="edge"><title>Node28&#45;&gt;Node43</title>
<path fill="none" stroke="midnightblue" d="M766.752,-453.641C842.544,-447.465 992.643,-432.987 1041,-412 1098.33,-387.119 1151.85,-334.131 1176.61,-307.296"/>
<polygon fill="midnightblue" stroke="midnightblue" points="1179.48,-309.334 1183.6,-299.571 1174.29,-304.635 1179.48,-309.334"/>
</g>
<!-- Node48 -->
<g id="node48" class="node"><title>Node48</title>
<polygon fill="white" stroke="#bfbfbf" points="721,-392.5 721,-411.5 781,-411.5 781,-392.5 721,-392.5"/>
<text text-anchor="middle" x="751" y="-399.5" font-family="Helvetica,sans-Serif" font-size="10.00">sys/stat.h</text>
</g>
<!-- Node28&#45;&gt;Node48 -->
<g id="edge83" class="edge"><title>Node28&#45;&gt;Node48</title>
<path fill="none" stroke="midnightblue" d="M726.789,-448.083C730.758,-440.691 736.525,-429.953 741.435,-420.811"/>
<polygon fill="midnightblue" stroke="midnightblue" points="744.653,-422.217 746.3,-411.751 738.486,-418.905 744.653,-422.217"/>
</g>
<!-- Node49 -->
<g id="node49" class="node"><title>Node49</title>
<polygon fill="white" stroke="#bfbfbf" points="799,-392.5 799,-411.5 849,-411.5 849,-392.5 799,-392.5"/>
<text text-anchor="middle" x="824" y="-399.5" font-family="Helvetica,sans-Serif" font-size="10.00">fstream</text>
</g>
<!-- Node28&#45;&gt;Node49 -->
<g id="edge84" class="edge"><title>Node28&#45;&gt;Node49</title>
<path fill="none" stroke="midnightblue" d="M738.388,-448.324C754.671,-439.703 779.867,-426.364 798.716,-416.386"/>
<polygon fill="midnightblue" stroke="midnightblue" points="800.452,-419.427 807.653,-411.655 797.177,-413.24 800.452,-419.427"/>
</g>
<!-- Node50 -->
<g id="node50" class="node"><title>Node50</title>
<g id="a_node50"><a xlink:href="dirent_8h.html" target="_top" xlink:title="dirent.h">
<polygon fill="white" stroke="black" points="867.5,-392.5 867.5,-411.5 916.5,-411.5 916.5,-392.5 867.5,-392.5"/>
<text text-anchor="middle" x="892" y="-399.5" font-family="Helvetica,sans-Serif" font-size="10.00">dirent.h</text>
</a>
</g>
</g>
<!-- Node28&#45;&gt;Node50 -->
<g id="edge85" class="edge"><title>Node28&#45;&gt;Node50</title>
<path fill="none" stroke="midnightblue" d="M748.937,-448.444C778.336,-439.105 825.487,-424.128 857.556,-413.941"/>
<polygon fill="midnightblue" stroke="midnightblue" points="858.926,-417.178 867.397,-410.815 856.807,-410.507 858.926,-417.178"/>
</g>
<!-- Node29&#45;&gt;Node2 -->
<g id="edge36" class="edge"><title>Node29&#45;&gt;Node2</title>
<path fill="none" stroke="midnightblue" d="M971.225,-168.444C908.532,-158.826 806.854,-143.228 740.452,-133.041"/>
<polygon fill="midnightblue" stroke="midnightblue" points="740.93,-129.573 730.514,-131.516 739.868,-136.492 740.93,-129.573"/>
</g>
<!-- Node30 -->
<g id="node30" class="node"><title>Node30</title>
<polygon fill="white" stroke="#bfbfbf" points="1003.5,-112.5 1003.5,-131.5 1050.5,-131.5 1050.5,-112.5 1003.5,-112.5"/>
<text text-anchor="middle" x="1027" y="-119.5" font-family="Helvetica,sans-Serif" font-size="10.00">errno.h</text>
</g>
<!-- Node29&#45;&gt;Node30 -->
<g id="edge37" class="edge"><title>Node29&#45;&gt;Node30</title>
<path fill="none" stroke="midnightblue" d="M1027,-168.083C1027,-161.006 1027,-150.861 1027,-141.986"/>
<polygon fill="midnightblue" stroke="midnightblue" points="1030.5,-141.751 1027,-131.751 1023.5,-141.751 1030.5,-141.751"/>
</g>
<!-- Node31&#45;&gt;Node2 -->
<g id="edge39" class="edge"><title>Node31&#45;&gt;Node2</title>
<path fill="none" stroke="midnightblue" d="M464.775,-336.397C451.726,-308.453 415.37,-219.101 457,-168 475.296,-145.541 546.927,-133.954 603.149,-128.208"/>
<polygon fill="midnightblue" stroke="midnightblue" points="603.839,-131.657 613.452,-127.202 603.159,-124.69 603.839,-131.657"/>
</g>
<!-- Node32&#45;&gt;Node2 -->
<g id="edge41" class="edge"><title>Node32&#45;&gt;Node2</title>
<path fill="none" stroke="midnightblue" d="M660.373,-336.44C620.129,-323.86 553.873,-296.026 528,-244 501.589,-190.893 584.422,-152.788 636.331,-134.745"/>
<polygon fill="midnightblue" stroke="midnightblue" points="637.585,-138.016 645.945,-131.508 635.351,-131.382 637.585,-138.016"/>
</g>
<!-- Node33 -->
<g id="node33" class="node"><title>Node33</title>
<g id="a_node33"><a xlink:href="mathlib_8h.html" target="_top" xlink:title="mathlib include file ">
<polygon fill="white" stroke="red" points="917.5,-224.5 917.5,-243.5 998.5,-243.5 998.5,-224.5 917.5,-224.5"/>
<text text-anchor="middle" x="958" y="-231.5" font-family="Helvetica,sans-Serif" font-size="10.00">math/mathlib.h</text>
</a>
</g>
</g>
<!-- Node32&#45;&gt;Node33 -->
<g id="edge42" class="edge"><title>Node32&#45;&gt;Node33</title>
<path fill="none" stroke="midnightblue" d="M739.34,-339.059C777.266,-332.922 831.548,-321.171 875,-300 901.061,-287.302 926.646,-265.435 942.368,-250.605"/>
<polygon fill="midnightblue" stroke="midnightblue" points="944.882,-253.043 949.641,-243.577 940.018,-248.009 944.882,-253.043"/>
</g>
<!-- Node34 -->
<g id="node34" class="node"><title>Node34</title>
<g id="a_node34"><a xlink:href="convertdef_8h.html" target="_top" xlink:title="support/convertdef.h">
<polygon fill="white" stroke="black" points="659,-280.5 659,-299.5 765,-299.5 765,-280.5 659,-280.5"/>
<text text-anchor="middle" x="712" y="-287.5" font-family="Helvetica,sans-Serif" font-size="10.00">support/convertdef.h</text>
</a>
</g>
</g>
<!-- Node32&#45;&gt;Node34 -->
<g id="edge47" class="edge"><title>Node32&#45;&gt;Node34</title>
<path fill="none" stroke="midnightblue" d="M696.137,-336.083C698.683,-328.849 702.356,-318.409 705.527,-309.397"/>
<polygon fill="midnightblue" stroke="midnightblue" points="708.903,-310.346 708.921,-299.751 702.3,-308.023 708.903,-310.346"/>
</g>
<!-- Node35 -->
<g id="node35" class="node"><title>Node35</title>
<g id="a_node35"><a xlink:href="physicsdef_8h.html" target="_top" xlink:title="Orbit library support definitions. ">
<polygon fill="white" stroke="red" points="537.5,-224.5 537.5,-243.5 646.5,-243.5 646.5,-224.5 537.5,-224.5"/>
<text text-anchor="middle" x="592" y="-231.5" font-family="Helvetica,sans-Serif" font-size="10.00">physics/physicsdef.h</text>
</a>
</g>
</g>
<!-- Node32&#45;&gt;Node35 -->
<g id="edge50" class="edge"><title>Node32&#45;&gt;Node35</title>
<path fill="none" stroke="midnightblue" d="M670.272,-336.381C653.519,-328.995 631.253,-316.864 617,-300 605.669,-286.593 599.149,-267.486 595.628,-253.457"/>
<polygon fill="midnightblue" stroke="midnightblue" points="599.001,-252.502 593.412,-243.501 592.168,-254.022 599.001,-252.502"/>
</g>
<!-- Node36 -->
<g id="node36" class="node"><title>Node36</title>
<g id="a_node36"><a xlink:href="socketlib_8h.html" target="_top" xlink:title="Socket Support header file. ">
<polygon fill="white" stroke="red" points="585.5,-168.5 585.5,-187.5 684.5,-187.5 684.5,-168.5 585.5,-168.5"/>
<text text-anchor="middle" x="635" y="-175.5" font-family="Helvetica,sans-Serif" font-size="10.00">support/socketlib.h</text>
</a>
</g>
</g>
<!-- Node32&#45;&gt;Node36 -->
<g id="edge52" class="edge"><title>Node32&#45;&gt;Node36</title>
<path fill="none" stroke="midnightblue" d="M680.503,-336.302C670.126,-328.251 656.113,-315.245 650,-300 637.402,-268.581 662.027,-257.113 655,-224 653.003,-214.591 648.899,-204.762 644.925,-196.698"/>
<polygon fill="midnightblue" stroke="midnightblue" points="647.887,-194.81 640.13,-187.593 641.693,-198.072 647.887,-194.81"/>
</g>
<!-- Node37 -->
<g id="node37" class="node"><title>Node37</title>
<g id="a_node37"><a xlink:href="objlib_8h.html" target="_top" xlink:title="support/objlib.h">
<polygon fill="white" stroke="red" points="783.5,-280.5 783.5,-299.5 866.5,-299.5 866.5,-280.5 783.5,-280.5"/>
<text text-anchor="middle" x="825" y="-287.5" font-family="Helvetica,sans-Serif" font-size="10.00">support/objlib.h</text>
</a>
</g>
</g>
<!-- Node32&#45;&gt;Node37 -->
<g id="edge54" class="edge"><title>Node32&#45;&gt;Node37</title>
<path fill="none" stroke="midnightblue" d="M713.916,-336.444C735.736,-327.517 770.15,-313.439 794.892,-303.317"/>
<polygon fill="midnightblue" stroke="midnightblue" points="796.252,-306.542 804.182,-299.516 793.601,-300.063 796.252,-306.542"/>
</g>
<!-- Node33&#45;&gt;Node2 -->
<g id="edge43" class="edge"><title>Node33&#45;&gt;Node2</title>
<path fill="none" stroke="midnightblue" d="M950.548,-224.299C937.938,-210.166 910.925,-182.36 882,-168 839.852,-147.076 788.126,-135.826 746.925,-129.808"/>
<polygon fill="midnightblue" stroke="midnightblue" points="747.346,-126.333 736.959,-128.423 746.383,-133.266 747.346,-126.333"/>
</g>
<!-- Node33&#45;&gt;Node12 -->
<g id="edge45" class="edge"><title>Node33&#45;&gt;Node12</title>
<path fill="none" stroke="midnightblue" d="M998.699,-231.839C1078.83,-228.894 1253.65,-219.009 1304,-188 1339.97,-165.847 1353.6,-114.069 1358.48,-85.9619"/>
<polygon fill="midnightblue" stroke="midnightblue" points="1361.98,-86.2466 1360.03,-75.8318 1355.06,-85.1861 1361.98,-86.2466"/>
</g>
<!-- Node33&#45;&gt;Node14 -->
<g id="edge46" class="edge"><title>Node33&#45;&gt;Node14</title>
<path fill="none" stroke="midnightblue" d="M956.487,-224.368C954.601,-211.707 952.276,-187.489 958,-168 966.338,-139.611 969.062,-127.923 994,-112 1090,-50.7046 1137.4,-95.6231 1253.95,-75.9159"/>
<polygon fill="midnightblue" stroke="midnightblue" points="1254.73,-79.3308 1263.94,-74.0968 1253.48,-72.4439 1254.73,-79.3308"/>
</g>
<!-- Node33&#45;&gt;Node29 -->
<g id="edge44" class="edge"><title>Node33&#45;&gt;Node29</title>
<path fill="none" stroke="midnightblue" d="M969.086,-224.324C979.486,-216.185 995.261,-203.839 1007.72,-194.087"/>
<polygon fill="midnightblue" stroke="midnightblue" points="1009.99,-196.753 1015.71,-187.834 1005.68,-191.241 1009.99,-196.753"/>
</g>
<!-- Node34&#45;&gt;Node2 -->
<g id="edge48" class="edge"><title>Node34&#45;&gt;Node2</title>
<path fill="none" stroke="midnightblue" d="M711.314,-280.352C709.578,-260.302 704.323,-209.214 693,-168 690.492,-158.872 686.712,-149.076 683.263,-140.963"/>
<polygon fill="midnightblue" stroke="midnightblue" points="686.438,-139.49 679.191,-131.762 680.037,-142.323 686.438,-139.49"/>
</g>
<!-- Node34&#45;&gt;Node33 -->
<g id="edge49" class="edge"><title>Node34&#45;&gt;Node33</title>
<path fill="none" stroke="midnightblue" d="M750.979,-280.444C793.894,-271.023 862.946,-255.866 909.369,-245.675"/>
<polygon fill="midnightblue" stroke="midnightblue" points="910.186,-249.079 919.203,-243.516 908.685,-242.242 910.186,-249.079"/>
</g>
<!-- Node35&#45;&gt;Node2 -->
<g id="edge51" class="edge"><title>Node35&#45;&gt;Node2</title>
<path fill="none" stroke="midnightblue" d="M585.892,-224.304C577.467,-211.134 564.549,-185.783 576,-168 586.306,-151.995 603.851,-141.617 621.334,-134.916"/>
<polygon fill="midnightblue" stroke="midnightblue" points="622.697,-138.147 630.994,-131.559 620.4,-131.535 622.697,-138.147"/>
</g>
<!-- Node36&#45;&gt;Node2 -->
<g id="edge53" class="edge"><title>Node36&#45;&gt;Node2</title>
<path fill="none" stroke="midnightblue" d="M641.605,-168.083C647.255,-160.455 655.545,-149.264 662.451,-139.941"/>
<polygon fill="midnightblue" stroke="midnightblue" points="665.378,-141.87 668.518,-131.751 659.753,-137.703 665.378,-141.87"/>
</g>
<!-- Node37&#45;&gt;Node2 -->
<g id="edge55" class="edge"><title>Node37&#45;&gt;Node2</title>
<path fill="none" stroke="midnightblue" d="M816.935,-280.075C792.813,-253.38 720.962,-173.865 689.749,-139.322"/>
<polygon fill="midnightblue" stroke="midnightblue" points="692.044,-136.641 682.742,-131.568 686.85,-141.334 692.044,-136.641"/>
</g>
<!-- Node37&#45;&gt;Node33 -->
<g id="edge56" class="edge"><title>Node37&#45;&gt;Node33</title>
<path fill="none" stroke="midnightblue" d="M846.074,-280.444C868.06,-271.517 902.734,-257.439 927.664,-247.317"/>
<polygon fill="midnightblue" stroke="midnightblue" points="929.076,-250.521 937.024,-243.516 926.442,-244.035 929.076,-250.521"/>
</g>
<!-- Node38&#45;&gt;Node2 -->
<g id="edge58" class="edge"><title>Node38&#45;&gt;Node2</title>
<path fill="none" stroke="midnightblue" d="M610.32,-392.342C581.832,-368.142 506.989,-296.786 519,-224 523.279,-198.068 519.325,-186.494 538,-168 555.588,-150.582 580.027,-139.906 603.401,-133.362"/>
<polygon fill="midnightblue" stroke="midnightblue" points="604.52,-136.688 613.33,-130.803 602.773,-129.91 604.52,-136.688"/>
</g>
<!-- Node38&#45;&gt;Node28 -->
<g id="edge60" class="edge"><title>Node38&#45;&gt;Node28</title>
<path fill="none" stroke="midnightblue" d="M642.297,-411.655C660.029,-420.149 684.804,-433.241 702.124,-443.177"/>
<polygon fill="midnightblue" stroke="midnightblue" points="700.492,-446.278 710.887,-448.324 704.037,-440.242 700.492,-446.278"/>
</g>
<!-- Node38&#45;&gt;Node32 -->
<g id="edge59" class="edge"><title>Node38&#45;&gt;Node32</title>
<path fill="none" stroke="midnightblue" d="M632.568,-392.324C643.42,-384.185 659.881,-371.839 672.883,-362.087"/>
<polygon fill="midnightblue" stroke="midnightblue" points="675.321,-364.634 681.221,-355.834 671.121,-359.034 675.321,-364.634"/>
</g>
<!-- Node39 -->
<g id="node39" class="node"><title>Node39</title>
<g id="a_node39"><a xlink:href="stringlib_8h.html" target="_top" xlink:title="stringlib include file A library providing functions for handling various types of string...">
<polygon fill="white" stroke="red" points="779,-168.5 779,-187.5 873,-187.5 873,-168.5 779,-168.5"/>
<text text-anchor="middle" x="826" y="-175.5" font-family="Helvetica,sans-Serif" font-size="10.00">support/stringlib.h</text>
</a>
</g>
</g>
<!-- Node38&#45;&gt;Node39 -->
<g id="edge61" class="edge"><title>Node38&#45;&gt;Node39</title>
<path fill="none" stroke="midnightblue" d="M665.026,-398.238C724.677,-391.83 828.997,-370.562 875,-300 897.366,-265.694 863.746,-219.534 842.031,-195.345"/>
<polygon fill="midnightblue" stroke="midnightblue" points="844.338,-192.687 834.958,-187.761 839.219,-197.461 844.338,-192.687"/>
</g>
<!-- Node40 -->
<g id="node40" class="node"><title>Node40</title>
<polygon fill="white" stroke="#bfbfbf" points="589,-336.5 589,-355.5 629,-355.5 629,-336.5 589,-336.5"/>
<text text-anchor="middle" x="609" y="-343.5" font-family="Helvetica,sans-Serif" font-size="10.00">limits</text>
</g>
<!-- Node38&#45;&gt;Node40 -->
<g id="edge66" class="edge"><title>Node38&#45;&gt;Node40</title>
<path fill="none" stroke="midnightblue" d="M619.018,-392.083C617.428,-384.927 615.141,-374.635 613.154,-365.691"/>
<polygon fill="midnightblue" stroke="midnightblue" points="616.531,-364.754 610.945,-355.751 609.697,-366.272 616.531,-364.754"/>
</g>
<!-- Node39&#45;&gt;Node2 -->
<g id="edge62" class="edge"><title>Node39&#45;&gt;Node2</title>
<path fill="none" stroke="midnightblue" d="M802.074,-168.444C776.781,-159.399 736.698,-145.064 708.32,-134.916"/>
<polygon fill="midnightblue" stroke="midnightblue" points="709.409,-131.588 698.814,-131.516 707.052,-138.179 709.409,-131.588"/>
</g>
<!-- Node39&#45;&gt;Node17 -->
<g id="edge64" class="edge"><title>Node39&#45;&gt;Node17</title>
<path fill="none" stroke="midnightblue" d="M835.847,-168.306C852.754,-153.922 888.972,-125.428 925,-112 1035.45,-70.8346 1074.58,-99.8508 1194.53,-75.7129"/>
<polygon fill="midnightblue" stroke="midnightblue" points="1195.39,-79.1095 1204.46,-73.6324 1193.95,-72.2584 1195.39,-79.1095"/>
</g>
<!-- Node39&#45;&gt;Node24 -->
<g id="edge65" class="edge"><title>Node39&#45;&gt;Node24</title>
<path fill="none" stroke="midnightblue" d="M778.673,-172.753C659.649,-161.646 338.255,-129.011 62.4981,-76.0949"/>
<polygon fill="midnightblue" stroke="midnightblue" points="62.7786,-72.5845 52.2962,-74.1239 61.4506,-79.4574 62.7786,-72.5845"/>
</g>
<!-- Node39&#45;&gt;Node30 -->
<g id="edge63" class="edge"><title>Node39&#45;&gt;Node30</title>
<path fill="none" stroke="midnightblue" d="M857.849,-168.444C894.882,-158.494 955.738,-142.145 993.473,-132.007"/>
<polygon fill="midnightblue" stroke="midnightblue" points="994.715,-135.298 1003.46,-129.323 992.899,-128.537 994.715,-135.298"/>
</g>
<!-- Node42 -->
<g id="node42" class="node"><title>Node42</title>
<g id="a_node42"><a xlink:href="zconf_8h.html" target="_top" xlink:title="zconf.h">
<polygon fill="white" stroke="red" points="1332.5,-280.5 1332.5,-299.5 1381.5,-299.5 1381.5,-280.5 1332.5,-280.5"/>
<text text-anchor="middle" x="1357" y="-287.5" font-family="Helvetica,sans-Serif" font-size="10.00">zconf.h</text>
</a>
</g>
</g>
<!-- Node41&#45;&gt;Node42 -->
<g id="edge68" class="edge"><title>Node41&#45;&gt;Node42</title>
<path fill="none" stroke="midnightblue" d="M1252.87,-392.368C1271.85,-373.894 1316.64,-330.293 1340.83,-306.744"/>
<polygon fill="midnightblue" stroke="midnightblue" points="1343.45,-309.075 1348.17,-299.591 1338.57,-304.059 1343.45,-309.075"/>
</g>
<!-- Node42&#45;&gt;Node15 -->
<g id="edge69" class="edge"><title>Node42&#45;&gt;Node15</title>
<path fill="none" stroke="midnightblue" d="M1373.76,-280.378C1386.81,-272.705 1404.14,-260.196 1413,-244 1441.12,-192.577 1438,-120.21 1434.5,-86.1478"/>
<polygon fill="midnightblue" stroke="midnightblue" points="1437.93,-85.3225 1433.3,-75.7943 1430.97,-86.1319 1437.93,-85.3225"/>
</g>
<!-- Node43&#45;&gt;Node2 -->
<g id="edge71" class="edge"><title>Node43&#45;&gt;Node2</title>
<path fill="none" stroke="midnightblue" d="M1185.44,-280.363C1168.93,-254.998 1119.78,-181.648 1095,-168 1036.8,-135.945 850.539,-126.723 746.684,-124.07"/>
<polygon fill="midnightblue" stroke="midnightblue" points="746.673,-120.569 736.591,-123.827 746.504,-127.567 746.673,-120.569"/>
</g>
<!-- Node43&#45;&gt;Node12 -->
<g id="edge78" class="edge"><title>Node43&#45;&gt;Node12</title>
<path fill="none" stroke="midnightblue" d="M1235.86,-282.466C1278.73,-275.236 1338.99,-262.158 1354,-244 1391.84,-198.23 1376.58,-120.801 1366.79,-85.5154"/>
<polygon fill="midnightblue" stroke="midnightblue" points="1370.06,-84.2377 1363.88,-75.6335 1363.35,-86.215 1370.06,-84.2377"/>
</g>
<!-- Node43&#45;&gt;Node30 -->
<g id="edge80" class="edge"><title>Node43&#45;&gt;Node30</title>
<path fill="none" stroke="midnightblue" d="M1188.79,-280.461C1182.78,-258.823 1164.19,-201.209 1129,-168 1109.8,-149.882 1082.1,-138.296 1060.41,-131.425"/>
<polygon fill="midnightblue" stroke="midnightblue" points="1061.2,-128.008 1050.62,-128.508 1059.21,-134.716 1061.2,-128.008"/>
</g>
<!-- Node43&#45;&gt;Node33 -->
<g id="edge77" class="edge"><title>Node43&#45;&gt;Node33</title>
<path fill="none" stroke="midnightblue" d="M1154.08,-280.444C1113.6,-271.063 1048.58,-255.993 1004.62,-245.804"/>
<polygon fill="midnightblue" stroke="midnightblue" points="1005.28,-242.365 994.747,-243.516 1003.7,-249.184 1005.28,-242.365"/>
</g>
<!-- Node44 -->
<g id="node44" class="node"><title>Node44</title>
<g id="a_node44"><a xlink:href="elapsedtime_8h.html" target="_top" xlink:title="Elapsed Time header file. ">
<polygon fill="white" stroke="red" points="1181.5,-168.5 1181.5,-187.5 1294.5,-187.5 1294.5,-168.5 1181.5,-168.5"/>
<text text-anchor="middle" x="1238" y="-175.5" font-family="Helvetica,sans-Serif" font-size="10.00">support/elapsedtime.h</text>
</a>
</g>
</g>
<!-- Node43&#45;&gt;Node44 -->
<g id="edge72" class="edge"><title>Node43&#45;&gt;Node44</title>
<path fill="none" stroke="midnightblue" d="M1192.75,-280.323C1195.48,-267.606 1201.36,-243.319 1210,-224 1214.37,-214.235 1220.54,-204.059 1225.98,-195.86"/>
<polygon fill="midnightblue" stroke="midnightblue" points="1228.9,-197.793 1231.68,-187.568 1223.13,-193.83 1228.9,-197.793"/>
</g>
<!-- Node45 -->
<g id="node45" class="node"><title>Node45</title>
<polygon fill="white" stroke="#bfbfbf" points="1291.5,-112.5 1291.5,-131.5 1332.5,-131.5 1332.5,-112.5 1291.5,-112.5"/>
<text text-anchor="middle" x="1312" y="-119.5" font-family="Helvetica,sans-Serif" font-size="10.00">ctime</text>
</g>
<!-- Node43&#45;&gt;Node45 -->
<g id="edge82" class="edge"><title>Node43&#45;&gt;Node45</title>
<path fill="none" stroke="midnightblue" d="M1235.67,-288.376C1269.22,-285.262 1313.17,-274.983 1336,-244 1358.88,-212.948 1337.69,-165.702 1323.11,-140.415"/>
<polygon fill="midnightblue" stroke="midnightblue" points="1325.95,-138.339 1317.78,-131.595 1319.96,-141.963 1325.95,-138.339"/>
</g>
<!-- Node46 -->
<g id="node46" class="node"><title>Node46</title>
<polygon fill="white" stroke="#bfbfbf" points="1219,-224.5 1219,-243.5 1263,-243.5 1263,-224.5 1219,-224.5"/>
<text text-anchor="middle" x="1241" y="-231.5" font-family="Helvetica,sans-Serif" font-size="10.00">time.h</text>
</g>
<!-- Node43&#45;&gt;Node46 -->
<g id="edge79" class="edge"><title>Node43&#45;&gt;Node46</title>
<path fill="none" stroke="midnightblue" d="M1199.26,-280.083C1206.46,-272.298 1217.11,-260.801 1225.85,-251.367"/>
<polygon fill="midnightblue" stroke="midnightblue" points="1228.67,-253.467 1232.9,-243.751 1223.53,-248.711 1228.67,-253.467"/>
</g>
<!-- Node47 -->
<g id="node47" class="node"><title>Node47</title>
<polygon fill="white" stroke="#bfbfbf" points="1281,-224.5 1281,-243.5 1327,-243.5 1327,-224.5 1281,-224.5"/>
<text text-anchor="middle" x="1304" y="-231.5" font-family="Helvetica,sans-Serif" font-size="10.00">stdio.h</text>
</g>
<!-- Node43&#45;&gt;Node47 -->
<g id="edge81" class="edge"><title>Node43&#45;&gt;Node47</title>
<path fill="none" stroke="midnightblue" d="M1208.91,-280.444C1227.25,-271.675 1256.01,-257.935 1277.09,-247.858"/>
<polygon fill="midnightblue" stroke="midnightblue" points="1278.67,-250.986 1286.18,-243.516 1275.65,-244.67 1278.67,-250.986"/>
</g>
<!-- Node44&#45;&gt;Node2 -->
<g id="edge73" class="edge"><title>Node44&#45;&gt;Node2</title>
<path fill="none" stroke="midnightblue" d="M1181.44,-171.575C1078.31,-161.684 859.923,-140.737 746.598,-129.867"/>
<polygon fill="midnightblue" stroke="midnightblue" points="746.919,-126.382 736.631,-128.911 746.251,-133.35 746.919,-126.382"/>
</g>
<!-- Node44&#45;&gt;Node14 -->
<g id="edge74" class="edge"><title>Node44&#45;&gt;Node14</title>
<path fill="none" stroke="midnightblue" d="M1242.16,-168.368C1250.83,-150.376 1270.98,-108.55 1282.51,-84.6267"/>
<polygon fill="midnightblue" stroke="midnightblue" points="1285.67,-86.1195 1286.86,-75.5914 1279.37,-83.081 1285.67,-86.1195"/>
</g>
<!-- Node44&#45;&gt;Node17 -->
<g id="edge75" class="edge"><title>Node44&#45;&gt;Node17</title>
<path fill="none" stroke="midnightblue" d="M1236.98,-168.368C1234.88,-150.617 1230.04,-109.666 1227.2,-85.5974"/>
<polygon fill="midnightblue" stroke="midnightblue" points="1230.66,-85.1115 1226.02,-75.5914 1223.71,-85.9331 1230.66,-85.1115"/>
</g>
<!-- Node44&#45;&gt;Node45 -->
<g id="edge76" class="edge"><title>Node44&#45;&gt;Node45</title>
<path fill="none" stroke="midnightblue" d="M1249.89,-168.324C1261.15,-160.107 1278.29,-147.602 1291.71,-137.807"/>
<polygon fill="midnightblue" stroke="midnightblue" points="1293.88,-140.556 1299.89,-131.834 1289.75,-134.901 1293.88,-140.556"/>
</g>
</g>
</svg>
