<?xml version="1.0" encoding="UTF-8" standalone="no"?>
<!DOCTYPE svg PUBLIC "-//W3C//DTD SVG 1.1//EN"
 "http://www.w3.org/Graphics/SVG/1.1/DTD/svg11.dtd">
<!-- Generated by graphviz version 2.38.0 (20140413.2041)
 -->
<!-- Title: ts2000_lib.h Pages: 1 -->
<!--zoomable 487 -->
<svg id="main" version="1.1" xmlns="http://www.w3.org/2000/svg" xmlns:xlink="http://www.w3.org/1999/xlink" xml:space="preserve" onload="init(evt)">
<style type="text/css"><![CDATA[
.edge:hover path { stroke: red; }
.edge:hover polygon { stroke: red; fill: red; }
]]></style>
<script type="text/javascript"><![CDATA[
var edges = document.getElementsByTagName('g');
if (edges && edges.length) {
  for (var i=0;i<edges.length;i++) {
    if (edges[i].id.substr(0,4)=='edge') {
      edges[i].setAttribute('class','edge');
    }
  }
}
]]></script>
        <defs>
                <circle id="rim" cx="0" cy="0" r="7"/>
                <circle id="rim2" cx="0" cy="0" r="3.5"/>
                <g id="zoomPlus">
                        <use xlink:href="#rim" fill="#404040">
                                <set attributeName="fill" to="#808080" begin="zoomplus.mouseover" end="zoomplus.mouseout"/>
                        </use>
                        <path d="M-4,0h8M0,-4v8" fill="none" stroke="white" stroke-width="1.5" pointer-events="none"/>
                </g>
                <g id="zoomMin">
                        <use xlink:href="#rim" fill="#404040">
                                <set attributeName="fill" to="#808080" begin="zoomminus.mouseover" end="zoomminus.mouseout"/>
                        </use>
                        <path d="M-4,0h8" fill="none" stroke="white" stroke-width="1.5" pointer-events="none"/>
                </g>
                <g id="dirArrow">
                        <path fill="none" stroke="white" stroke-width="1.5" d="M0,-3.0v7 M-2.5,-0.5L0,-3.0L2.5,-0.5"/>
                </g>
               <g id="resetDef">
                       <use xlink:href="#rim2" fill="#404040">
                               <set attributeName="fill" to="#808080" begin="reset.mouseover" end="reset.mouseout"/>
                       </use>
               </g>
        </defs>

<script type="text/javascript">
var viewWidth = 1496;
var viewHeight = 487;
var sectionId = 'dynsection-0';
</script>
<script xlink:href="svgpan.js"/>
<svg id="graph" class="graph">
<g id="viewport">
<title>ts2000_lib.h</title>
<polygon fill="white" stroke="none" points="-4,4 -4,-483 1492,-483 1492,4 -4,4"/>
<!-- Node1 -->
<g id="node1" class="node"><title>Node1</title>
<polygon fill="#bfbfbf" stroke="black" points="730.5,-459.5 730.5,-478.5 799.5,-478.5 799.5,-459.5 730.5,-459.5"/>
<text text-anchor="middle" x="765" y="-466.5" font-family="Helvetica,sans-Serif" font-size="10.00">ts2000_lib.h</text>
</g>
<!-- Node2 -->
<g id="node2" class="node"><title>Node2</title>
<g id="a_node2"><a xlink:href="config_cosmos_8h.html" target="_top" xlink:title="Headers and definitions common to all COSMOS. ">
<polygon fill="white" stroke="black" points="813.5,-112.5 813.5,-131.5 936.5,-131.5 936.5,-112.5 813.5,-112.5"/>
<text text-anchor="middle" x="875" y="-119.5" font-family="Helvetica,sans-Serif" font-size="10.00">support/configCosmos.h</text>
</a>
</g>
</g>
<!-- Node1&#45;&gt;Node2 -->
<g id="edge1" class="edge"><title>Node1&#45;&gt;Node2</title>
<path fill="none" stroke="midnightblue" d="M799.609,-461.562C852.909,-449.423 949,-417.73 949,-347 949,-347 949,-347 949,-233 949,-193.61 915.93,-157.726 894.004,-138.264"/>
<polygon fill="midnightblue" stroke="midnightblue" points="896.117,-135.466 886.239,-131.636 891.573,-140.79 896.117,-135.466"/>
</g>
<!-- Node28 -->
<g id="node28" class="node"><title>Node28</title>
<polygon fill="white" stroke="#bfbfbf" points="652,-398 652,-417 698,-417 698,-398 652,-398"/>
<text text-anchor="middle" x="675" y="-405" font-family="Helvetica,sans-Serif" font-size="10.00">stdio.h</text>
</g>
<!-- Node1&#45;&gt;Node28 -->
<g id="edge33" class="edge"><title>Node1&#45;&gt;Node28</title>
<path fill="none" stroke="midnightblue" d="M752.105,-459.475C737.536,-449.843 713.598,-434.017 696.255,-422.552"/>
<polygon fill="midnightblue" stroke="midnightblue" points="698.143,-419.604 687.871,-417.009 694.283,-425.444 698.143,-419.604"/>
</g>
<!-- Node29 -->
<g id="node29" class="node"><title>Node29</title>
<polygon fill="white" stroke="#bfbfbf" points="633.5,-224.5 633.5,-243.5 680.5,-243.5 680.5,-224.5 633.5,-224.5"/>
<text text-anchor="middle" x="657" y="-231.5" font-family="Helvetica,sans-Serif" font-size="10.00">errno.h</text>
</g>
<!-- Node1&#45;&gt;Node29 -->
<g id="edge34" class="edge"><title>Node1&#45;&gt;Node29</title>
<path fill="none" stroke="midnightblue" d="M730.273,-465.492C701.714,-461.4 662.832,-450.726 643,-423 605.74,-370.908 633.622,-288.607 648.829,-252.716"/>
<polygon fill="midnightblue" stroke="midnightblue" points="652.053,-254.08 652.888,-243.518 645.649,-251.254 652.053,-254.08"/>
</g>
<!-- Node30 -->
<g id="node30" class="node"><title>Node30</title>
<g id="a_node30"><a xlink:href="mathlib_8h.html" target="_top" xlink:title="mathlib include file ">
<polygon fill="white" stroke="black" points="1054.5,-398 1054.5,-417 1135.5,-417 1135.5,-398 1054.5,-398"/>
<text text-anchor="middle" x="1095" y="-405" font-family="Helvetica,sans-Serif" font-size="10.00">math/mathlib.h</text>
</a>
</g>
</g>
<!-- Node1&#45;&gt;Node30 -->
<g id="edge35" class="edge"><title>Node1&#45;&gt;Node30</title>
<path fill="none" stroke="midnightblue" d="M799.692,-461.745C858.166,-451.202 976.588,-429.85 1044.36,-417.631"/>
<polygon fill="midnightblue" stroke="midnightblue" points="1045.16,-421.043 1054.38,-415.824 1043.92,-414.154 1045.16,-421.043"/>
</g>
<!-- Node31 -->
<g id="node31" class="node"><title>Node31</title>
<g id="a_node31"><a xlink:href="cosmos-errno_8h.html" target="_top" xlink:title="COSMOS Error Codes. ">
<polygon fill="white" stroke="black" points="649.5,-280.5 649.5,-299.5 768.5,-299.5 768.5,-280.5 649.5,-280.5"/>
<text text-anchor="middle" x="709" y="-287.5" font-family="Helvetica,sans-Serif" font-size="10.00">support/cosmos&#45;errno.h</text>
</a>
</g>
</g>
<!-- Node1&#45;&gt;Node31 -->
<g id="edge65" class="edge"><title>Node1&#45;&gt;Node31</title>
<path fill="none" stroke="midnightblue" d="M760.609,-459.198C756.255,-450.242 749.591,-435.886 745,-423 730.904,-383.432 719.104,-335.545 713.155,-309.711"/>
<polygon fill="midnightblue" stroke="midnightblue" points="716.531,-308.771 710.909,-299.79 709.703,-310.316 716.531,-308.771"/>
</g>
<!-- Node37 -->
<g id="node37" class="node"><title>Node37</title>
<g id="a_node37"><a xlink:href="cssl__lib_8h.html" target="_top" xlink:title="Simple Serial library header file. ">
<polygon fill="white" stroke="black" points="754.5,-392.5 754.5,-422.5 855.5,-422.5 855.5,-392.5 754.5,-392.5"/>
<text text-anchor="start" x="762.5" y="-410.5" font-family="Helvetica,sans-Serif" font-size="10.00">device/general/cssl</text>
<text text-anchor="middle" x="805" y="-399.5" font-family="Helvetica,sans-Serif" font-size="10.00">_lib.h</text>
</a>
</g>
</g>
<!-- Node1&#45;&gt;Node37 -->
<g id="edge59" class="edge"><title>Node1&#45;&gt;Node37</title>
<path fill="none" stroke="midnightblue" d="M770.731,-459.475C775.743,-452.019 783.251,-440.852 789.962,-430.869"/>
<polygon fill="midnightblue" stroke="midnightblue" points="792.898,-432.775 795.573,-422.523 787.089,-428.869 792.898,-432.775"/>
</g>
<!-- Node3 -->
<g id="node3" class="node"><title>Node3</title>
<polygon fill="white" stroke="#bfbfbf" points="900.5,-56.5 900.5,-75.5 945.5,-75.5 945.5,-56.5 900.5,-56.5"/>
<text text-anchor="middle" x="923" y="-63.5" font-family="Helvetica,sans-Serif" font-size="10.00">climits</text>
</g>
<!-- Node2&#45;&gt;Node3 -->
<g id="edge2" class="edge"><title>Node2&#45;&gt;Node3</title>
<path fill="none" stroke="midnightblue" d="M882.926,-112.083C889.846,-104.298 900.065,-92.8015 908.452,-83.3665"/>
<polygon fill="midnightblue" stroke="midnightblue" points="911.194,-85.5505 915.221,-75.7511 905.962,-80.8999 911.194,-85.5505"/>
</g>
<!-- Node4 -->
<g id="node4" class="node"><title>Node4</title>
<polygon fill="white" stroke="#bfbfbf" points="963.5,-56.5 963.5,-75.5 1010.5,-75.5 1010.5,-56.5 963.5,-56.5"/>
<text text-anchor="middle" x="987" y="-63.5" font-family="Helvetica,sans-Serif" font-size="10.00">csignal</text>
</g>
<!-- Node2&#45;&gt;Node4 -->
<g id="edge3" class="edge"><title>Node2&#45;&gt;Node4</title>
<path fill="none" stroke="midnightblue" d="M892.995,-112.324C911.038,-103.625 939.047,-90.1202 959.803,-80.113"/>
<polygon fill="midnightblue" stroke="midnightblue" points="961.562,-83.1502 969.05,-75.6545 958.522,-76.8449 961.562,-83.1502"/>
</g>
<!-- Node5 -->
<g id="node5" class="node"><title>Node5</title>
<polygon fill="white" stroke="#bfbfbf" points="1270,-56.5 1270,-75.5 1316,-75.5 1316,-56.5 1270,-56.5"/>
<text text-anchor="middle" x="1293" y="-63.5" font-family="Helvetica,sans-Serif" font-size="10.00">cstdint</text>
</g>
<!-- Node2&#45;&gt;Node5 -->
<g id="edge4" class="edge"><title>Node2&#45;&gt;Node5</title>
<path fill="none" stroke="midnightblue" d="M936.708,-116.026C1012.34,-109.399 1144.23,-96.1173 1256,-76 1257.28,-75.7694 1258.58,-75.5211 1259.9,-75.2591"/>
<polygon fill="midnightblue" stroke="midnightblue" points="1260.98,-78.6058 1270,-73.051 1259.48,-71.7672 1260.98,-78.6058"/>
</g>
<!-- Node6 -->
<g id="node6" class="node"><title>Node6</title>
<polygon fill="white" stroke="#bfbfbf" points="1029,-56.5 1029,-75.5 1085,-75.5 1085,-56.5 1029,-56.5"/>
<text text-anchor="middle" x="1057" y="-63.5" font-family="Helvetica,sans-Serif" font-size="10.00">cinttypes</text>
</g>
<!-- Node2&#45;&gt;Node6 -->
<g id="edge5" class="edge"><title>Node2&#45;&gt;Node6</title>
<path fill="none" stroke="midnightblue" d="M903.838,-112.444C935.038,-103.186 984.912,-88.3888 1019.22,-78.2089"/>
<polygon fill="midnightblue" stroke="midnightblue" points="1020.3,-81.539 1028.89,-75.339 1018.31,-74.8281 1020.3,-81.539"/>
</g>
<!-- Node7 -->
<g id="node7" class="node"><title>Node7</title>
<polygon fill="white" stroke="#bfbfbf" points="1103.5,-56.5 1103.5,-75.5 1146.5,-75.5 1146.5,-56.5 1103.5,-56.5"/>
<text text-anchor="middle" x="1125" y="-63.5" font-family="Helvetica,sans-Serif" font-size="10.00">cstdio</text>
</g>
<!-- Node2&#45;&gt;Node7 -->
<g id="edge6" class="edge"><title>Node2&#45;&gt;Node7</title>
<path fill="none" stroke="midnightblue" d="M922.237,-112.424C964.583,-104.482 1028.59,-91.8553 1093.4,-75.9854"/>
<polygon fill="midnightblue" stroke="midnightblue" points="1094.51,-79.3148 1103.38,-73.5159 1092.83,-72.5196 1094.51,-79.3148"/>
</g>
<!-- Node8 -->
<g id="node8" class="node"><title>Node8</title>
<polygon fill="white" stroke="#bfbfbf" points="1164.5,-56.5 1164.5,-75.5 1213.5,-75.5 1213.5,-56.5 1164.5,-56.5"/>
<text text-anchor="middle" x="1189" y="-63.5" font-family="Helvetica,sans-Serif" font-size="10.00">cstddef</text>
</g>
<!-- Node2&#45;&gt;Node8 -->
<g id="edge7" class="edge"><title>Node2&#45;&gt;Node8</title>
<path fill="none" stroke="midnightblue" d="M936.5,-112.91C991.224,-105.303 1073.6,-92.8582 1154.35,-75.9565"/>
<polygon fill="midnightblue" stroke="midnightblue" points="1155.13,-79.3692 1164.19,-73.8733 1153.68,-72.5211 1155.13,-79.3692"/>
</g>
<!-- Node9 -->
<g id="node9" class="node"><title>Node9</title>
<polygon fill="white" stroke="#bfbfbf" points="64.5,-56.5 64.5,-75.5 109.5,-75.5 109.5,-56.5 64.5,-56.5"/>
<text text-anchor="middle" x="87" y="-63.5" font-family="Helvetica,sans-Serif" font-size="10.00">cstdlib</text>
</g>
<!-- Node2&#45;&gt;Node9 -->
<g id="edge8" class="edge"><title>Node2&#45;&gt;Node9</title>
<path fill="none" stroke="midnightblue" d="M813.232,-113.345C808.42,-112.853 803.633,-112.397 799,-112 500.843,-86.4808 419.429,-124.402 119.878,-75.7127"/>
<polygon fill="midnightblue" stroke="midnightblue" points="120.021,-72.1893 109.586,-74.0199 118.885,-79.0965 120.021,-72.1893"/>
</g>
<!-- Node10 -->
<g id="node10" class="node"><title>Node10</title>
<polygon fill="white" stroke="#bfbfbf" points="128,-56.5 128,-75.5 172,-75.5 172,-56.5 128,-56.5"/>
<text text-anchor="middle" x="150" y="-63.5" font-family="Helvetica,sans-Serif" font-size="10.00">cerrno</text>
</g>
<!-- Node2&#45;&gt;Node10 -->
<g id="edge9" class="edge"><title>Node2&#45;&gt;Node10</title>
<path fill="none" stroke="midnightblue" d="M813.23,-113.373C808.419,-112.874 803.632,-112.409 799,-112 528.279,-88.1068 453.956,-121.806 182.371,-75.8366"/>
<polygon fill="midnightblue" stroke="midnightblue" points="182.659,-72.335 172.211,-74.0956 181.476,-79.2344 182.659,-72.335"/>
</g>
<!-- Node11 -->
<g id="node11" class="node"><title>Node11</title>
<polygon fill="white" stroke="#bfbfbf" points="0,-56.5 0,-75.5 46,-75.5 46,-56.5 0,-56.5"/>
<text text-anchor="middle" x="23" y="-63.5" font-family="Helvetica,sans-Serif" font-size="10.00">cstring</text>
</g>
<!-- Node2&#45;&gt;Node11 -->
<g id="edge10" class="edge"><title>Node2&#45;&gt;Node11</title>
<path fill="none" stroke="midnightblue" d="M813.234,-113.322C808.422,-112.835 803.634,-112.386 799,-112 472.472,-84.7994 383.575,-128.246 56.5242,-75.8633"/>
<polygon fill="midnightblue" stroke="midnightblue" points="56.7131,-72.3483 46.2821,-74.2041 55.5937,-79.2583 56.7131,-72.3483"/>
</g>
<!-- Node12 -->
<g id="node12" class="node"><title>Node12</title>
<polygon fill="white" stroke="#bfbfbf" points="1372,-56.5 1372,-75.5 1416,-75.5 1416,-56.5 1372,-56.5"/>
<text text-anchor="middle" x="1394" y="-63.5" font-family="Helvetica,sans-Serif" font-size="10.00">cmath</text>
</g>
<!-- Node2&#45;&gt;Node12 -->
<g id="edge11" class="edge"><title>Node2&#45;&gt;Node12</title>
<path fill="none" stroke="midnightblue" d="M936.568,-115.434C1023.3,-107.458 1186.36,-91.9704 1325,-76 1337.04,-74.6135 1350.23,-72.9319 1361.83,-71.3993"/>
<polygon fill="midnightblue" stroke="midnightblue" points="1362.51,-74.8401 1371.96,-70.0465 1361.58,-67.9018 1362.51,-74.8401"/>
</g>
<!-- Node13 -->
<g id="node13" class="node"><title>Node13</title>
<polygon fill="white" stroke="#bfbfbf" points="190.5,-56.5 190.5,-75.5 235.5,-75.5 235.5,-56.5 190.5,-56.5"/>
<text text-anchor="middle" x="213" y="-63.5" font-family="Helvetica,sans-Serif" font-size="10.00">iosfwd</text>
</g>
<!-- Node2&#45;&gt;Node13 -->
<g id="edge12" class="edge"><title>Node2&#45;&gt;Node13</title>
<path fill="none" stroke="midnightblue" d="M813.227,-113.407C808.416,-112.9 803.631,-112.424 799,-112 556.09,-89.7548 489.222,-117.949 245.42,-75.8873"/>
<polygon fill="midnightblue" stroke="midnightblue" points="246.006,-72.4368 235.553,-74.1636 244.801,-79.3324 246.006,-72.4368"/>
</g>
<!-- Node14 -->
<g id="node14" class="node"><title>Node14</title>
<polygon fill="white" stroke="#bfbfbf" points="1434,-56.5 1434,-75.5 1488,-75.5 1488,-56.5 1434,-56.5"/>
<text text-anchor="middle" x="1461" y="-63.5" font-family="Helvetica,sans-Serif" font-size="10.00">iostream</text>
</g>
<!-- Node2&#45;&gt;Node14 -->
<g id="edge13" class="edge"><title>Node2&#45;&gt;Node14</title>
<path fill="none" stroke="midnightblue" d="M936.852,-119.23C1037.22,-115.637 1241.84,-105.315 1423.94,-75.9029"/>
<polygon fill="midnightblue" stroke="midnightblue" points="1424.67,-79.3309 1433.97,-74.26 1423.54,-72.423 1424.67,-79.3309"/>
</g>
<!-- Node15 -->
<g id="node15" class="node"><title>Node15</title>
<polygon fill="white" stroke="#bfbfbf" points="253.5,-56.5 253.5,-75.5 304.5,-75.5 304.5,-56.5 253.5,-56.5"/>
<text text-anchor="middle" x="279" y="-63.5" font-family="Helvetica,sans-Serif" font-size="10.00">unistd.h</text>
</g>
<!-- Node2&#45;&gt;Node15 -->
<g id="edge14" class="edge"><title>Node2&#45;&gt;Node15</title>
<path fill="none" stroke="midnightblue" d="M813.223,-113.455C808.413,-112.938 803.629,-112.446 799,-112 587.103,-91.5991 529.036,-110.464 314.506,-75.7546"/>
<polygon fill="midnightblue" stroke="midnightblue" points="314.937,-72.2786 304.503,-74.1159 313.806,-79.1865 314.937,-72.2786"/>
</g>
<!-- Node16 -->
<g id="node16" class="node"><title>Node16</title>
<polygon fill="white" stroke="#bfbfbf" points="323,-56.5 323,-75.5 367,-75.5 367,-56.5 323,-56.5"/>
<text text-anchor="middle" x="345" y="-63.5" font-family="Helvetica,sans-Serif" font-size="10.00">fcntl.h</text>
</g>
<!-- Node2&#45;&gt;Node16 -->
<g id="edge15" class="edge"><title>Node2&#45;&gt;Node16</title>
<path fill="none" stroke="midnightblue" d="M813.217,-113.511C808.408,-112.981 803.626,-112.471 799,-112 614.497,-93.2295 563.246,-109.881 377.06,-75.8444"/>
<polygon fill="midnightblue" stroke="midnightblue" points="377.695,-72.4025 367.224,-74.0226 376.42,-79.2855 377.695,-72.4025"/>
</g>
<!-- Node17 -->
<g id="node17" class="node"><title>Node17</title>
<polygon fill="white" stroke="#bfbfbf" points="385.5,-56.5 385.5,-75.5 426.5,-75.5 426.5,-56.5 385.5,-56.5"/>
<text text-anchor="middle" x="406" y="-63.5" font-family="Helvetica,sans-Serif" font-size="10.00">string</text>
</g>
<!-- Node2&#45;&gt;Node17 -->
<g id="edge16" class="edge"><title>Node2&#45;&gt;Node17</title>
<path fill="none" stroke="midnightblue" d="M813.21,-113.582C808.403,-113.035 803.623,-112.502 799,-112 640.698,-94.8004 596.15,-107.704 436.932,-76.0483"/>
<polygon fill="midnightblue" stroke="midnightblue" points="437.273,-72.5466 426.778,-74.0006 435.889,-79.4085 437.273,-72.5466"/>
</g>
<!-- Node18 -->
<g id="node18" class="node"><title>Node18</title>
<polygon fill="white" stroke="#bfbfbf" points="1220,-0.5 1220,-19.5 1264,-19.5 1264,-0.5 1220,-0.5"/>
<text text-anchor="middle" x="1242" y="-7.5" font-family="Helvetica,sans-Serif" font-size="10.00">vector</text>
</g>
<!-- Node2&#45;&gt;Node18 -->
<g id="edge17" class="edge"><title>Node2&#45;&gt;Node18</title>
<path fill="none" stroke="midnightblue" d="M936.807,-120.789C1024.77,-119.219 1180.09,-111.345 1222,-76 1235.38,-64.7178 1239.97,-44.7108 1241.46,-29.864"/>
<polygon fill="midnightblue" stroke="midnightblue" points="1244.97,-29.9455 1242.1,-19.7463 1237.98,-29.5079 1244.97,-29.9455"/>
</g>
<!-- Node19 -->
<g id="node19" class="node"><title>Node19</title>
<polygon fill="white" stroke="#bfbfbf" points="444.5,-56.5 444.5,-75.5 487.5,-75.5 487.5,-56.5 444.5,-56.5"/>
<text text-anchor="middle" x="466" y="-63.5" font-family="Helvetica,sans-Serif" font-size="10.00">deque</text>
</g>
<!-- Node2&#45;&gt;Node19 -->
<g id="edge18" class="edge"><title>Node2&#45;&gt;Node19</title>
<path fill="none" stroke="midnightblue" d="M813.283,-113.654C709.273,-101.26 509.577,-77.3985 502,-76 500.535,-75.7296 499.041,-75.4346 497.535,-75.1217"/>
<polygon fill="midnightblue" stroke="midnightblue" points="498.133,-71.6685 487.606,-72.8666 496.583,-78.4946 498.133,-71.6685"/>
</g>
<!-- Node20 -->
<g id="node20" class="node"><title>Node20</title>
<polygon fill="white" stroke="#bfbfbf" points="834,-0.5 834,-19.5 878,-19.5 878,-0.5 834,-0.5"/>
<text text-anchor="middle" x="856" y="-7.5" font-family="Helvetica,sans-Serif" font-size="10.00">mutex</text>
</g>
<!-- Node2&#45;&gt;Node20 -->
<g id="edge19" class="edge"><title>Node2&#45;&gt;Node20</title>
<path fill="none" stroke="midnightblue" d="M873.509,-112.368C870.443,-94.617 863.37,-53.6664 859.212,-29.5974"/>
<polygon fill="midnightblue" stroke="midnightblue" points="862.635,-28.8498 857.484,-19.5914 855.737,-30.0413 862.635,-28.8498"/>
</g>
<!-- Node21 -->
<g id="node21" class="node"><title>Node21</title>
<polygon fill="white" stroke="#bfbfbf" points="481,-0.5 481,-19.5 525,-19.5 525,-0.5 481,-0.5"/>
<text text-anchor="middle" x="503" y="-7.5" font-family="Helvetica,sans-Serif" font-size="10.00">thread</text>
</g>
<!-- Node2&#45;&gt;Node21 -->
<g id="edge20" class="edge"><title>Node2&#45;&gt;Node21</title>
<path fill="none" stroke="midnightblue" d="M813.301,-112.918C735.456,-102.469 609.24,-84.5966 589,-76 561.716,-64.4116 535.272,-42.2806 519.074,-27.0888"/>
<polygon fill="midnightblue" stroke="midnightblue" points="521.215,-24.2912 511.587,-19.8696 516.356,-29.3303 521.215,-24.2912"/>
</g>
<!-- Node22 -->
<g id="node22" class="node"><title>Node22</title>
<polygon fill="white" stroke="#bfbfbf" points="543.5,-0.5 543.5,-19.5 638.5,-19.5 638.5,-0.5 543.5,-0.5"/>
<text text-anchor="middle" x="591" y="-7.5" font-family="Helvetica,sans-Serif" font-size="10.00">condition_variable</text>
</g>
<!-- Node2&#45;&gt;Node22 -->
<g id="edge21" class="edge"><title>Node2&#45;&gt;Node22</title>
<path fill="none" stroke="midnightblue" d="M813.451,-112.631C735.546,-101.775 610.493,-83.3554 603,-76 590.981,-64.2022 588.799,-44.5679 589.125,-29.9601"/>
<polygon fill="midnightblue" stroke="midnightblue" points="592.644,-29.7699 589.784,-19.5683 585.658,-29.3265 592.644,-29.7699"/>
</g>
<!-- Node23 -->
<g id="node23" class="node"><title>Node23</title>
<polygon fill="white" stroke="#bfbfbf" points="656.5,-0.5 656.5,-19.5 699.5,-19.5 699.5,-0.5 656.5,-0.5"/>
<text text-anchor="middle" x="678" y="-7.5" font-family="Helvetica,sans-Serif" font-size="10.00">queue</text>
</g>
<!-- Node2&#45;&gt;Node23 -->
<g id="edge22" class="edge"><title>Node2&#45;&gt;Node23</title>
<path fill="none" stroke="midnightblue" d="M813.428,-112.532C737.484,-101.791 617.532,-83.7392 611,-76 594.687,-56.6715 623.163,-36.7528 647.882,-24.1466"/>
<polygon fill="midnightblue" stroke="midnightblue" points="649.601,-27.203 657.071,-19.6896 646.546,-20.9048 649.601,-27.203"/>
</g>
<!-- Node24 -->
<g id="node24" class="node"><title>Node24</title>
<polygon fill="white" stroke="#bfbfbf" points="754,-56.5 754,-75.5 806,-75.5 806,-56.5 754,-56.5"/>
<text text-anchor="middle" x="780" y="-63.5" font-family="Helvetica,sans-Serif" font-size="10.00">sstream</text>
</g>
<!-- Node2&#45;&gt;Node24 -->
<g id="edge23" class="edge"><title>Node2&#45;&gt;Node24</title>
<path fill="none" stroke="midnightblue" d="M859.737,-112.324C844.779,-103.822 821.745,-90.7288 804.273,-80.7975"/>
<polygon fill="midnightblue" stroke="midnightblue" points="805.649,-77.5534 795.226,-75.6545 802.19,-83.639 805.649,-77.5534"/>
</g>
<!-- Node25 -->
<g id="node25" class="node"><title>Node25</title>
<polygon fill="white" stroke="#bfbfbf" points="772.5,-0.5 772.5,-19.5 807.5,-19.5 807.5,-0.5 772.5,-0.5"/>
<text text-anchor="middle" x="790" y="-7.5" font-family="Helvetica,sans-Serif" font-size="10.00">map</text>
</g>
<!-- Node2&#45;&gt;Node25 -->
<g id="edge24" class="edge"><title>Node2&#45;&gt;Node25</title>
<path fill="none" stroke="midnightblue" d="M868.33,-112.368C854.241,-94.135 821.238,-51.4257 802.885,-27.6752"/>
<polygon fill="midnightblue" stroke="midnightblue" points="805.523,-25.3642 796.639,-19.5914 799.984,-29.6444 805.523,-25.3642"/>
</g>
<!-- Node26 -->
<g id="node26" class="node"><title>Node26</title>
<g id="a_node26"><a xlink:href="cosmos-defs_8h.html" target="_top" xlink:title="COSMOS definitions Definitions specific to the COSMOS environement. ">
<polygon fill="white" stroke="black" points="620,-56.5 620,-75.5 736,-75.5 736,-56.5 620,-56.5"/>
<text text-anchor="middle" x="678" y="-63.5" font-family="Helvetica,sans-Serif" font-size="10.00">support/cosmos&#45;defs.h</text>
</a>
</g>
</g>
<!-- Node2&#45;&gt;Node26 -->
<g id="edge25" class="edge"><title>Node2&#45;&gt;Node26</title>
<path fill="none" stroke="midnightblue" d="M843.785,-112.444C810.067,-103.201 756.2,-88.4356 719.068,-78.2572"/>
<polygon fill="midnightblue" stroke="midnightblue" points="719.639,-74.7846 709.069,-75.5164 717.788,-81.5356 719.639,-74.7846"/>
</g>
<!-- Node26&#45;&gt;Node18 -->
<g id="edge27" class="edge"><title>Node26&#45;&gt;Node18</title>
<path fill="none" stroke="midnightblue" d="M736.086,-57.0411C739.099,-56.6772 742.084,-56.3277 745,-56 919.735,-36.3629 1129.79,-19.5788 1209.33,-13.4662"/>
<polygon fill="midnightblue" stroke="midnightblue" points="1209.97,-16.9278 1219.67,-12.6754 1209.44,-9.94821 1209.97,-16.9278"/>
</g>
<!-- Node26&#45;&gt;Node20 -->
<g id="edge31" class="edge"><title>Node26&#45;&gt;Node20</title>
<path fill="none" stroke="midnightblue" d="M706.205,-56.4435C738.276,-46.7141 790.522,-30.8642 824.065,-20.688"/>
<polygon fill="midnightblue" stroke="midnightblue" points="825.279,-23.9775 833.832,-17.7251 823.247,-17.2789 825.279,-23.9775"/>
</g>
<!-- Node26&#45;&gt;Node21 -->
<g id="edge30" class="edge"><title>Node26&#45;&gt;Node21</title>
<path fill="none" stroke="midnightblue" d="M650.271,-56.4435C618.828,-46.7411 567.659,-30.952 534.671,-20.7727"/>
<polygon fill="midnightblue" stroke="midnightblue" points="535.646,-17.4109 525.059,-17.8067 533.582,-24.0997 535.646,-17.4109"/>
</g>
<!-- Node26&#45;&gt;Node22 -->
<g id="edge32" class="edge"><title>Node26&#45;&gt;Node22</title>
<path fill="none" stroke="midnightblue" d="M664.022,-56.324C650.45,-47.9002 629.62,-34.9709 613.675,-25.0741"/>
<polygon fill="midnightblue" stroke="midnightblue" points="615.286,-21.9544 604.943,-19.6545 611.594,-27.9019 615.286,-21.9544"/>
</g>
<!-- Node26&#45;&gt;Node23 -->
<g id="edge29" class="edge"><title>Node26&#45;&gt;Node23</title>
<path fill="none" stroke="midnightblue" d="M678,-56.083C678,-49.0059 678,-38.8611 678,-29.9865"/>
<polygon fill="midnightblue" stroke="midnightblue" points="681.5,-29.751 678,-19.7511 674.5,-29.7511 681.5,-29.751"/>
</g>
<!-- Node26&#45;&gt;Node25 -->
<g id="edge26" class="edge"><title>Node26&#45;&gt;Node25</title>
<path fill="none" stroke="midnightblue" d="M695.995,-56.324C714.144,-47.5732 742.379,-33.9603 763.17,-23.9357"/>
<polygon fill="midnightblue" stroke="midnightblue" points="764.932,-26.9722 772.419,-19.4765 761.891,-20.6668 764.932,-26.9722"/>
</g>
<!-- Node27 -->
<g id="node27" class="node"><title>Node27</title>
<polygon fill="white" stroke="#bfbfbf" points="717.5,-0.5 717.5,-19.5 746.5,-19.5 746.5,-0.5 717.5,-0.5"/>
<text text-anchor="middle" x="732" y="-7.5" font-family="Helvetica,sans-Serif" font-size="10.00">list</text>
</g>
<!-- Node26&#45;&gt;Node27 -->
<g id="edge28" class="edge"><title>Node26&#45;&gt;Node27</title>
<path fill="none" stroke="midnightblue" d="M686.917,-56.083C694.78,-48.2195 706.431,-36.5688 715.919,-27.0813"/>
<polygon fill="midnightblue" stroke="midnightblue" points="718.653,-29.2971 723.249,-19.7511 713.703,-24.3473 718.653,-29.2971"/>
</g>
<!-- Node30&#45;&gt;Node2 -->
<g id="edge36" class="edge"><title>Node30&#45;&gt;Node2</title>
<path fill="none" stroke="midnightblue" d="M1077.33,-397.784C1046.94,-381.401 988,-342.935 988,-291 988,-291 988,-291 988,-233 988,-202.048 983.702,-191.01 963,-168 949.76,-153.284 930.584,-142.693 913.509,-135.498"/>
<polygon fill="midnightblue" stroke="midnightblue" points="914.346,-132.065 903.759,-131.648 911.775,-138.576 914.346,-132.065"/>
</g>
<!-- Node30&#45;&gt;Node12 -->
<g id="edge57" class="edge"><title>Node30&#45;&gt;Node12</title>
<path fill="none" stroke="midnightblue" d="M1135.55,-400.955C1223.3,-387.817 1423,-351.296 1423,-291 1423,-291 1423,-291 1423,-233 1423,-178.543 1407.67,-115.516 1399.3,-85.1724"/>
<polygon fill="midnightblue" stroke="midnightblue" points="1402.67,-84.2157 1396.57,-75.5484 1395.93,-86.1238 1402.67,-84.2157"/>
</g>
<!-- Node30&#45;&gt;Node14 -->
<g id="edge58" class="edge"><title>Node30&#45;&gt;Node14</title>
<path fill="none" stroke="midnightblue" d="M1135.65,-402.52C1231.77,-391.988 1465,-359.387 1465,-291 1465,-291 1465,-291 1465,-177 1465,-144.927 1463.28,-107.628 1462.1,-85.7413"/>
<polygon fill="midnightblue" stroke="midnightblue" points="1465.58,-85.3413 1461.52,-75.5539 1458.59,-85.7349 1465.58,-85.3413"/>
</g>
<!-- Node30&#45;&gt;Node31 -->
<g id="edge37" class="edge"><title>Node30&#45;&gt;Node31</title>
<path fill="none" stroke="midnightblue" d="M1066.3,-397.913C997.829,-377.424 824.838,-325.661 747.451,-302.505"/>
<polygon fill="midnightblue" stroke="midnightblue" points="748.208,-299.079 737.624,-299.565 746.201,-305.785 748.208,-299.079"/>
</g>
<!-- Node32 -->
<g id="node32" class="node"><title>Node32</title>
<g id="a_node32"><a xlink:href="math_2constants_8h.html" target="_top" xlink:title="constants.h">
<polygon fill="white" stroke="black" points="1145,-168.5 1145,-187.5 1213,-187.5 1213,-168.5 1145,-168.5"/>
<text text-anchor="middle" x="1179" y="-175.5" font-family="Helvetica,sans-Serif" font-size="10.00">constants.h</text>
</a>
</g>
</g>
<!-- Node30&#45;&gt;Node32 -->
<g id="edge40" class="edge"><title>Node30&#45;&gt;Node32</title>
<path fill="none" stroke="midnightblue" d="M1102.92,-397.852C1111.29,-388.284 1124.31,-372.082 1132,-356 1157.88,-301.858 1171.15,-231.336 1176.33,-198.019"/>
<polygon fill="midnightblue" stroke="midnightblue" points="1179.83,-198.279 1177.84,-187.874 1172.91,-197.253 1179.83,-198.279"/>
</g>
<!-- Node33 -->
<g id="node33" class="node"><title>Node33</title>
<g id="a_node33"><a xlink:href="vector_8h.html" target="_top" xlink:title="vector.h">
<polygon fill="white" stroke="black" points="1202,-224.5 1202,-243.5 1254,-243.5 1254,-224.5 1202,-224.5"/>
<text text-anchor="middle" x="1228" y="-231.5" font-family="Helvetica,sans-Serif" font-size="10.00">vector.h</text>
</a>
</g>
</g>
<!-- Node30&#45;&gt;Node33 -->
<g id="edge43" class="edge"><title>Node30&#45;&gt;Node33</title>
<path fill="none" stroke="midnightblue" d="M1111.38,-397.912C1126.99,-389.077 1150.37,-374.077 1166,-356 1193.3,-324.429 1212.47,-278.74 1221.71,-253.501"/>
<polygon fill="midnightblue" stroke="midnightblue" points="1225.13,-254.346 1225.16,-243.751 1218.53,-252.013 1225.13,-254.346"/>
</g>
<!-- Node35 -->
<g id="node35" class="node"><title>Node35</title>
<g id="a_node35"><a xlink:href="matrix_8h.html" target="_top" xlink:title="matrix.h">
<polygon fill="white" stroke="black" points="1062,-280.5 1062,-299.5 1114,-299.5 1114,-280.5 1062,-280.5"/>
<text text-anchor="middle" x="1088" y="-287.5" font-family="Helvetica,sans-Serif" font-size="10.00">matrix.h</text>
</a>
</g>
</g>
<!-- Node30&#45;&gt;Node35 -->
<g id="edge50" class="edge"><title>Node30&#45;&gt;Node35</title>
<path fill="none" stroke="midnightblue" d="M1085.67,-397.893C1076.35,-388.603 1062.63,-372.858 1057,-356 1051.21,-338.686 1062.11,-319.977 1072.55,-307.096"/>
<polygon fill="midnightblue" stroke="midnightblue" points="1075.2,-309.377 1079.16,-299.547 1069.94,-304.766 1075.2,-309.377"/>
</g>
<!-- Node36 -->
<g id="node36" class="node"><title>Node36</title>
<g id="a_node36"><a xlink:href="rotation_8h.html" target="_top" xlink:title="rotation.h">
<polygon fill="white" stroke="black" points="1066.5,-336.5 1066.5,-355.5 1123.5,-355.5 1123.5,-336.5 1066.5,-336.5"/>
<text text-anchor="middle" x="1095" y="-343.5" font-family="Helvetica,sans-Serif" font-size="10.00">rotation.h</text>
</a>
</g>
</g>
<!-- Node30&#45;&gt;Node36 -->
<g id="edge53" class="edge"><title>Node30&#45;&gt;Node36</title>
<path fill="none" stroke="midnightblue" d="M1095,-397.975C1095,-389.58 1095,-376.481 1095,-365.663"/>
<polygon fill="midnightblue" stroke="midnightblue" points="1098.5,-365.509 1095,-355.509 1091.5,-365.509 1098.5,-365.509"/>
</g>
<!-- Node31&#45;&gt;Node2 -->
<g id="edge38" class="edge"><title>Node31&#45;&gt;Node2</title>
<path fill="none" stroke="midnightblue" d="M716.25,-280.434C733.575,-260.131 779.063,-207.809 821,-168 832.174,-157.393 845.46,-146.303 856.058,-137.787"/>
<polygon fill="midnightblue" stroke="midnightblue" points="858.235,-140.528 863.888,-131.567 853.881,-135.046 858.235,-140.528"/>
</g>
<!-- Node31&#45;&gt;Node29 -->
<g id="edge39" class="edge"><title>Node31&#45;&gt;Node29</title>
<path fill="none" stroke="midnightblue" d="M700.413,-280.083C692.841,-272.22 681.622,-260.569 672.486,-251.081"/>
<polygon fill="midnightblue" stroke="midnightblue" points="674.885,-248.527 665.427,-243.751 669.842,-253.382 674.885,-248.527"/>
</g>
<!-- Node32&#45;&gt;Node2 -->
<g id="edge41" class="edge"><title>Node32&#45;&gt;Node2</title>
<path fill="none" stroke="midnightblue" d="M1144.72,-170.91C1093.31,-161.779 995.611,-144.424 932.981,-133.299"/>
<polygon fill="midnightblue" stroke="midnightblue" points="933.319,-129.805 922.861,-131.502 932.095,-136.697 933.319,-129.805"/>
</g>
<!-- Node32&#45;&gt;Node5 -->
<g id="edge42" class="edge"><title>Node32&#45;&gt;Node5</title>
<path fill="none" stroke="midnightblue" d="M1187.95,-168.368C1207.09,-149.894 1252.28,-106.293 1276.68,-82.7436"/>
<polygon fill="midnightblue" stroke="midnightblue" points="1279.33,-85.0538 1284.1,-75.5914 1274.47,-80.0165 1279.33,-85.0538"/>
</g>
<!-- Node33&#45;&gt;Node2 -->
<g id="edge44" class="edge"><title>Node33&#45;&gt;Node2</title>
<path fill="none" stroke="midnightblue" d="M1211.67,-224.473C1184.99,-210.836 1130.07,-184.028 1081,-168 1033.9,-152.617 979.028,-140.922 937.762,-133.315"/>
<polygon fill="midnightblue" stroke="midnightblue" points="938.308,-129.857 927.844,-131.517 937.06,-136.745 938.308,-129.857"/>
</g>
<!-- Node33&#45;&gt;Node12 -->
<g id="edge48" class="edge"><title>Node33&#45;&gt;Node12</title>
<path fill="none" stroke="midnightblue" d="M1254.02,-226.358C1275.91,-219.681 1306.91,-207.535 1328,-188 1344.49,-172.727 1372.32,-114.715 1385.96,-84.9118"/>
<polygon fill="midnightblue" stroke="midnightblue" points="1389.22,-86.2154 1390.16,-75.6626 1382.84,-83.3245 1389.22,-86.2154"/>
</g>
<!-- Node33&#45;&gt;Node14 -->
<g id="edge46" class="edge"><title>Node33&#45;&gt;Node14</title>
<path fill="none" stroke="midnightblue" d="M1254.43,-227.127C1280.35,-220.514 1320.19,-207.998 1350,-188 1393.22,-159.003 1431.25,-109.82 1449.51,-83.9944"/>
<polygon fill="midnightblue" stroke="midnightblue" points="1452.5,-85.8297 1455.32,-75.6168 1446.74,-81.8426 1452.5,-85.8297"/>
</g>
<!-- Node33&#45;&gt;Node18 -->
<g id="edge49" class="edge"><title>Node33&#45;&gt;Node18</title>
<path fill="none" stroke="midnightblue" d="M1231.73,-224.361C1237.31,-211.691 1248.43,-187.462 1260,-168 1285.58,-124.964 1309.84,-123.716 1325,-76 1327.69,-67.5282 1329.55,-63.6378 1325,-56 1313.91,-37.3758 1292.13,-25.9852 1273.67,-19.3246"/>
<polygon fill="midnightblue" stroke="midnightblue" points="1274.71,-15.9818 1264.11,-16.1772 1272.51,-22.6304 1274.71,-15.9818"/>
</g>
<!-- Node33&#45;&gt;Node32 -->
<g id="edge45" class="edge"><title>Node33&#45;&gt;Node32</title>
<path fill="none" stroke="midnightblue" d="M1219.91,-224.083C1212.84,-216.298 1202.41,-204.801 1193.85,-195.367"/>
<polygon fill="midnightblue" stroke="midnightblue" points="1196.25,-192.805 1186.94,-187.751 1191.07,-197.509 1196.25,-192.805"/>
</g>
<!-- Node34 -->
<g id="node34" class="node"><title>Node34</title>
<polygon fill="white" stroke="#bfbfbf" points="1269,-168.5 1269,-187.5 1319,-187.5 1319,-168.5 1269,-168.5"/>
<text text-anchor="middle" x="1294" y="-175.5" font-family="Helvetica,sans-Serif" font-size="10.00">iomanip</text>
</g>
<!-- Node33&#45;&gt;Node34 -->
<g id="edge47" class="edge"><title>Node33&#45;&gt;Node34</title>
<path fill="none" stroke="midnightblue" d="M1238.6,-224.324C1248.46,-216.263 1263.35,-204.077 1275.22,-194.369"/>
<polygon fill="midnightblue" stroke="midnightblue" points="1277.68,-196.875 1283.2,-187.834 1273.25,-191.457 1277.68,-196.875"/>
</g>
<!-- Node35&#45;&gt;Node2 -->
<g id="edge51" class="edge"><title>Node35&#45;&gt;Node2</title>
<path fill="none" stroke="midnightblue" d="M1087.24,-280.185C1084.82,-257.901 1075.35,-198.895 1041,-168 1015.36,-144.937 979.064,-133.524 946.949,-127.944"/>
<polygon fill="midnightblue" stroke="midnightblue" points="947.11,-124.427 936.688,-126.33 946.022,-131.342 947.11,-124.427"/>
</g>
<!-- Node35&#45;&gt;Node33 -->
<g id="edge52" class="edge"><title>Node35&#45;&gt;Node33</title>
<path fill="none" stroke="midnightblue" d="M1110.18,-280.444C1133.43,-271.478 1170.15,-257.314 1196.42,-247.183"/>
<polygon fill="midnightblue" stroke="midnightblue" points="1197.85,-250.381 1205.92,-243.516 1195.33,-243.85 1197.85,-250.381"/>
</g>
<!-- Node36&#45;&gt;Node2 -->
<g id="edge54" class="edge"><title>Node36&#45;&gt;Node2</title>
<path fill="none" stroke="midnightblue" d="M1084.83,-336.232C1075.51,-327.746 1061.85,-314.126 1053,-300 1019.6,-246.707 1047.09,-211.841 1002,-168 984.907,-151.381 961.294,-140.863 939.063,-134.221"/>
<polygon fill="midnightblue" stroke="midnightblue" points="939.881,-130.816 929.31,-131.52 938.013,-137.562 939.881,-130.816"/>
</g>
<!-- Node36&#45;&gt;Node33 -->
<g id="edge55" class="edge"><title>Node36&#45;&gt;Node33</title>
<path fill="none" stroke="midnightblue" d="M1105.44,-336.368C1127.97,-317.733 1181.41,-273.532 1209.7,-250.134"/>
<polygon fill="midnightblue" stroke="midnightblue" points="1212.14,-252.662 1217.61,-243.591 1207.68,-247.268 1212.14,-252.662"/>
</g>
<!-- Node36&#45;&gt;Node35 -->
<g id="edge56" class="edge"><title>Node36&#45;&gt;Node35</title>
<path fill="none" stroke="midnightblue" d="M1093.84,-336.083C1092.92,-328.927 1091.58,-318.635 1090.42,-309.691"/>
<polygon fill="midnightblue" stroke="midnightblue" points="1093.89,-309.218 1089.13,-299.751 1086.95,-310.118 1093.89,-309.218"/>
</g>
<!-- Node37&#45;&gt;Node2 -->
<g id="edge60" class="edge"><title>Node37&#45;&gt;Node2</title>
<path fill="none" stroke="midnightblue" d="M820.886,-392.352C830.706,-382.885 842.931,-369.691 851,-356 866.486,-329.725 873,-321.499 873,-291 873,-291 873,-291 873,-233 873,-200.943 873.86,-163.639 874.452,-141.747"/>
<polygon fill="midnightblue" stroke="midnightblue" points="877.956,-141.651 874.739,-131.557 870.959,-141.454 877.956,-141.651"/>
</g>
<!-- Node38 -->
<g id="node38" class="node"><title>Node38</title>
<g id="a_node38"><a xlink:href="sliplib_8h.html" target="_top" xlink:title="COSMOS SLIP support include file. ">
<polygon fill="white" stroke="black" points="757.5,-336.5 757.5,-355.5 842.5,-355.5 842.5,-336.5 757.5,-336.5"/>
<text text-anchor="middle" x="800" y="-343.5" font-family="Helvetica,sans-Serif" font-size="10.00">support/sliplib.h</text>
</a>
</g>
</g>
<!-- Node37&#45;&gt;Node38 -->
<g id="edge61" class="edge"><title>Node37&#45;&gt;Node38</title>
<path fill="none" stroke="midnightblue" d="M803.815,-392.399C803.148,-384.466 802.307,-374.458 801.585,-365.858"/>
<polygon fill="midnightblue" stroke="midnightblue" points="805.053,-365.33 800.728,-355.658 798.077,-365.916 805.053,-365.33"/>
</g>
<!-- Node38&#45;&gt;Node2 -->
<g id="edge62" class="edge"><title>Node38&#45;&gt;Node2</title>
<path fill="none" stroke="midnightblue" d="M802.885,-336.139C811.338,-310.219 836.85,-232.314 859,-168 862.041,-159.169 865.504,-149.398 868.428,-141.223"/>
<polygon fill="midnightblue" stroke="midnightblue" points="871.795,-142.203 871.882,-131.609 865.207,-139.837 871.795,-142.203"/>
</g>
<!-- Node38&#45;&gt;Node11 -->
<g id="edge64" class="edge"><title>Node38&#45;&gt;Node11</title>
<path fill="none" stroke="midnightblue" d="M798.746,-336.12C796.467,-322.709 790.564,-297.048 777,-280 748.136,-243.723 731.735,-241.969 689,-224 425.392,-113.16 337.297,-147.249 56.123,-76.1855"/>
<polygon fill="midnightblue" stroke="midnightblue" points="56.5936,-72.6935 46.0387,-73.6128 54.8631,-79.4762 56.5936,-72.6935"/>
</g>
<!-- Node38&#45;&gt;Node31 -->
<g id="edge63" class="edge"><title>Node38&#45;&gt;Node31</title>
<path fill="none" stroke="midnightblue" d="M785.379,-336.324C771.051,-327.822 748.987,-314.729 732.251,-304.797"/>
<polygon fill="midnightblue" stroke="midnightblue" points="733.97,-301.748 723.584,-299.655 730.398,-307.768 733.97,-301.748"/>
</g>
</g>
</svg>
        <g id="navigator" transform="translate(0 0)" fill="#404254">
                <rect fill="#f2f5e9" fill-opacity="0.5" stroke="#606060" stroke-width=".5" x="0" y="0" width="60" height="60"/>
                <use id="zoomplus" xlink:href="#zoomPlus" x="17" y="9" onmousedown="handleZoom(evt,'in')"/>
                <use id="zoomminus" xlink:href="#zoomMin" x="42" y="9" onmousedown="handleZoom(evt,'out')"/>
                <use id="reset" xlink:href="#resetDef" x="30" y="36" onmousedown="handleReset()"/>
                <g id="arrowUp" xlink:href="#dirArrow" transform="translate(30 24)" onmousedown="handlePan(0,-1)">
                  <use xlink:href="#rim" fill="#404040">
                        <set attributeName="fill" to="#808080" begin="arrowUp.mouseover" end="arrowUp.mouseout"/>
                  </use>
                  <path fill="none" stroke="white" stroke-width="1.5" d="M0,-3.0v7 M-2.5,-0.5L0,-3.0L2.5,-0.5"/>
                </g>
                <g id="arrowRight" xlink:href="#dirArrow" transform="rotate(90) translate(36 -43)" onmousedown="handlePan(1,0)">
                  <use xlink:href="#rim" fill="#404040">
                        <set attributeName="fill" to="#808080" begin="arrowRight.mouseover" end="arrowRight.mouseout"/>
                  </use>
                  <path fill="none" stroke="white" stroke-width="1.5" d="M0,-3.0v7 M-2.5,-0.5L0,-3.0L2.5,-0.5"/>
                </g>
                <g id="arrowDown" xlink:href="#dirArrow" transform="rotate(180) translate(-30 -48)" onmousedown="handlePan(0,1)">
                  <use xlink:href="#rim" fill="#404040">
                        <set attributeName="fill" to="#808080" begin="arrowDown.mouseover" end="arrowDown.mouseout"/>
                  </use>
                  <path fill="none" stroke="white" stroke-width="1.5" d="M0,-3.0v7 M-2.5,-0.5L0,-3.0L2.5,-0.5"/>
                </g>
                <g id="arrowLeft" xlink:href="#dirArrow" transform="rotate(270) translate(-36 17)" onmousedown="handlePan(-1,0)">
                  <use xlink:href="#rim" fill="#404040">
                        <set attributeName="fill" to="#808080" begin="arrowLeft.mouseover" end="arrowLeft.mouseout"/>
                  </use>
                  <path fill="none" stroke="white" stroke-width="1.5" d="M0,-3.0v7 M-2.5,-0.5L0,-3.0L2.5,-0.5"/>
                </g>
        </g>
        <svg viewBox="0 0 15 15" width="100%" height="30px" preserveAspectRatio="xMaxYMin meet">
         <g id="arrow_out" transform="scale(0.3 0.3)">
          <a xlink:href="ts2000__lib_8h__incl_org.svg" target="_base">
           <rect id="button" ry="5" rx="5" y="6" x="6" height="38" width="38"
                fill="#f2f5e9" fill-opacity="0.5" stroke="#606060" stroke-width="1.0"/>
           <path id="arrow"
             d="M 11.500037,31.436501 C 11.940474,20.09759 22.043105,11.32322 32.158766,21.979434 L 37.068811,17.246167 C 37.068811,17.246167 37.088388,32 37.088388,32 L 22.160133,31.978069 C 22.160133,31.978069 26.997745,27.140456 26.997745,27.140456 C 18.528582,18.264221 13.291696,25.230495 11.500037,31.436501 z"
             style="fill:#404040;"/>
          </a>
         </g>
        </svg>
</svg>
