<?xml version="1.0" encoding="UTF-8" standalone="no"?>
<!DOCTYPE svg PUBLIC "-//W3C//DTD SVG 1.1//EN"
 "http://www.w3.org/Graphics/SVG/1.1/DTD/svg11.dtd">
<!-- Generated by graphviz version 2.38.0 (20140413.2041)
 -->
<!-- Title: ts2000_lib.cpp Pages: 1 -->
<!--zoomable 196 -->
<svg id="main" version="1.1" xmlns="http://www.w3.org/2000/svg" xmlns:xlink="http://www.w3.org/1999/xlink" xml:space="preserve" onload="init(evt)">
<style type="text/css"><![CDATA[
.edge:hover path { stroke: red; }
.edge:hover polygon { stroke: red; fill: red; }
]]></style>
<script type="text/javascript"><![CDATA[
var edges = document.getElementsByTagName('g');
if (edges && edges.length) {
  for (var i=0;i<edges.length;i++) {
    if (edges[i].id.substr(0,4)=='edge') {
      edges[i].setAttribute('class','edge');
    }
  }
}
]]></script>
        <defs>
                <circle id="rim" cx="0" cy="0" r="7"/>
                <circle id="rim2" cx="0" cy="0" r="3.5"/>
                <g id="zoomPlus">
                        <use xlink:href="#rim" fill="#404040">
                                <set attributeName="fill" to="#808080" begin="zoomplus.mouseover" end="zoomplus.mouseout"/>
                        </use>
                        <path d="M-4,0h8M0,-4v8" fill="none" stroke="white" stroke-width="1.5" pointer-events="none"/>
                </g>
                <g id="zoomMin">
                        <use xlink:href="#rim" fill="#404040">
                                <set attributeName="fill" to="#808080" begin="zoomminus.mouseover" end="zoomminus.mouseout"/>
                        </use>
                        <path d="M-4,0h8" fill="none" stroke="white" stroke-width="1.5" pointer-events="none"/>
                </g>
                <g id="dirArrow">
                        <path fill="none" stroke="white" stroke-width="1.5" d="M0,-3.0v7 M-2.5,-0.5L0,-3.0L2.5,-0.5"/>
                </g>
               <g id="resetDef">
                       <use xlink:href="#rim2" fill="#404040">
                               <set attributeName="fill" to="#808080" begin="reset.mouseover" end="reset.mouseout"/>
                       </use>
               </g>
        </defs>

<script type="text/javascript">
var viewWidth = 1459;
var viewHeight = 196;
var sectionId = 'dynsection-0';
</script>
<script xlink:href="svgpan.js"/>
<svg id="graph" class="graph">
<g id="viewport">
<title>ts2000_lib.cpp</title>
<polygon fill="white" stroke="none" points="-4,4 -4,-192 1454.5,-192 1454.5,4 -4,4"/>
<!-- Node1 -->
<g id="node1" class="node"><title>Node1</title>
<polygon fill="#bfbfbf" stroke="black" points="732.5,-168.5 732.5,-187.5 812.5,-187.5 812.5,-168.5 732.5,-168.5"/>
<text text-anchor="middle" x="772.5" y="-175.5" font-family="Helvetica,sans-Serif" font-size="10.00">ts2000_lib.cpp</text>
</g>
<!-- Node2 -->
<g id="node2" class="node"><title>Node2</title>
<g id="a_node2"><a xlink:href="config_cosmos_8h.html" target="_top" xlink:title="Headers and definitions common to all COSMOS. ">
<polygon fill="white" stroke="black" points="711,-112.5 711,-131.5 834,-131.5 834,-112.5 711,-112.5"/>
<text text-anchor="middle" x="772.5" y="-119.5" font-family="Helvetica,sans-Serif" font-size="10.00">support/configCosmos.h</text>
</a>
</g>
</g>
<!-- Node1&#45;&gt;Node2 -->
<g id="edge1" class="edge"><title>Node1&#45;&gt;Node2</title>
<path fill="none" stroke="midnightblue" d="M772.5,-168.083C772.5,-161.006 772.5,-150.861 772.5,-141.986"/>
<polygon fill="midnightblue" stroke="midnightblue" points="776,-141.751 772.5,-131.751 769,-141.751 776,-141.751"/>
</g>
<!-- Node3 -->
<g id="node3" class="node"><title>Node3</title>
<polygon fill="white" stroke="#bfbfbf" points="0,-56.5 0,-75.5 45,-75.5 45,-56.5 0,-56.5"/>
<text text-anchor="middle" x="22.5" y="-63.5" font-family="Helvetica,sans-Serif" font-size="10.00">climits</text>
</g>
<!-- Node2&#45;&gt;Node3 -->
<g id="edge2" class="edge"><title>Node2&#45;&gt;Node3</title>
<path fill="none" stroke="midnightblue" d="M710.891,-121.683C587.572,-122.069 301.741,-118.032 54.9228,-75.8796"/>
<polygon fill="midnightblue" stroke="midnightblue" points="55.5025,-72.428 45.0518,-74.1697 54.3077,-79.3253 55.5025,-72.428"/>
</g>
<!-- Node4 -->
<g id="node4" class="node"><title>Node4</title>
<polygon fill="white" stroke="#bfbfbf" points="63,-56.5 63,-75.5 110,-75.5 110,-56.5 63,-56.5"/>
<text text-anchor="middle" x="86.5" y="-63.5" font-family="Helvetica,sans-Serif" font-size="10.00">csignal</text>
</g>
<!-- Node2&#45;&gt;Node4 -->
<g id="edge3" class="edge"><title>Node2&#45;&gt;Node4</title>
<path fill="none" stroke="midnightblue" d="M710.805,-120.79C596.082,-119.522 342.207,-112.588 120.054,-75.7201"/>
<polygon fill="midnightblue" stroke="midnightblue" points="120.61,-72.2646 110.168,-74.0559 119.448,-79.1675 120.61,-72.2646"/>
</g>
<!-- Node5 -->
<g id="node5" class="node"><title>Node5</title>
<polygon fill="white" stroke="#bfbfbf" points="128.5,-56.5 128.5,-75.5 174.5,-75.5 174.5,-56.5 128.5,-56.5"/>
<text text-anchor="middle" x="151.5" y="-63.5" font-family="Helvetica,sans-Serif" font-size="10.00">cstdint</text>
</g>
<!-- Node2&#45;&gt;Node5 -->
<g id="edge4" class="edge"><title>Node2&#45;&gt;Node5</title>
<path fill="none" stroke="midnightblue" d="M710.95,-120.293C605.015,-118.204 381.439,-109.977 184.734,-75.8763"/>
<polygon fill="midnightblue" stroke="midnightblue" points="185.251,-72.4136 174.795,-74.127 184.037,-79.3076 185.251,-72.4136"/>
</g>
<!-- Node6 -->
<g id="node6" class="node"><title>Node6</title>
<polygon fill="white" stroke="#bfbfbf" points="192.5,-56.5 192.5,-75.5 248.5,-75.5 248.5,-56.5 192.5,-56.5"/>
<text text-anchor="middle" x="220.5" y="-63.5" font-family="Helvetica,sans-Serif" font-size="10.00">cinttypes</text>
</g>
<!-- Node2&#45;&gt;Node6 -->
<g id="edge5" class="edge"><title>Node2&#45;&gt;Node6</title>
<path fill="none" stroke="midnightblue" d="M710.825,-118.497C613.979,-113.916 420.556,-102.143 258.5,-76 258.4,-75.9838 258.299,-75.9675 258.198,-75.9511"/>
<polygon fill="midnightblue" stroke="midnightblue" points="259.106,-72.5608 248.63,-74.143 257.807,-79.439 259.106,-72.5608"/>
</g>
<!-- Node7 -->
<g id="node7" class="node"><title>Node7</title>
<polygon fill="white" stroke="#bfbfbf" points="267,-56.5 267,-75.5 310,-75.5 310,-56.5 267,-56.5"/>
<text text-anchor="middle" x="288.5" y="-63.5" font-family="Helvetica,sans-Serif" font-size="10.00">cstdio</text>
</g>
<!-- Node2&#45;&gt;Node7 -->
<g id="edge6" class="edge"><title>Node2&#45;&gt;Node7</title>
<path fill="none" stroke="midnightblue" d="M710.803,-118.461C625.11,-114.143 465.207,-103.22 320.039,-75.7281"/>
<polygon fill="midnightblue" stroke="midnightblue" points="320.538,-72.26 310.057,-73.8067 319.215,-79.1338 320.538,-72.26"/>
</g>
<!-- Node8 -->
<g id="node8" class="node"><title>Node8</title>
<polygon fill="white" stroke="#bfbfbf" points="328,-56.5 328,-75.5 377,-75.5 377,-56.5 328,-56.5"/>
<text text-anchor="middle" x="352.5" y="-63.5" font-family="Helvetica,sans-Serif" font-size="10.00">cstddef</text>
</g>
<!-- Node2&#45;&gt;Node8 -->
<g id="edge7" class="edge"><title>Node2&#45;&gt;Node8</title>
<path fill="none" stroke="midnightblue" d="M710.92,-116.548C636.482,-110.559 507.321,-98.2254 387.381,-75.9053"/>
<polygon fill="midnightblue" stroke="midnightblue" points="387.765,-72.416 377.289,-73.9991 386.465,-79.2944 387.765,-72.416"/>
</g>
<!-- Node9 -->
<g id="node9" class="node"><title>Node9</title>
<polygon fill="white" stroke="#bfbfbf" points="395,-56.5 395,-75.5 440,-75.5 440,-56.5 395,-56.5"/>
<text text-anchor="middle" x="417.5" y="-63.5" font-family="Helvetica,sans-Serif" font-size="10.00">cstdlib</text>
</g>
<!-- Node2&#45;&gt;Node9 -->
<g id="edge8" class="edge"><title>Node2&#45;&gt;Node9</title>
<path fill="none" stroke="midnightblue" d="M710.751,-114.918C647.596,-108.131 546.539,-95.706 450.055,-75.8476"/>
<polygon fill="midnightblue" stroke="midnightblue" points="450.636,-72.3936 440.132,-73.7752 449.205,-79.2458 450.636,-72.3936"/>
</g>
<!-- Node10 -->
<g id="node10" class="node"><title>Node10</title>
<polygon fill="white" stroke="#bfbfbf" points="458.5,-56.5 458.5,-75.5 502.5,-75.5 502.5,-56.5 458.5,-56.5"/>
<text text-anchor="middle" x="480.5" y="-63.5" font-family="Helvetica,sans-Serif" font-size="10.00">cerrno</text>
</g>
<!-- Node2&#45;&gt;Node10 -->
<g id="edge9" class="edge"><title>Node2&#45;&gt;Node10</title>
<path fill="none" stroke="midnightblue" d="M711.73,-112.491C660.87,-104.922 586.241,-92.779 512.673,-76.0679"/>
<polygon fill="midnightblue" stroke="midnightblue" points="513.303,-72.6214 502.773,-73.7893 511.733,-79.4431 513.303,-72.6214"/>
</g>
<!-- Node11 -->
<g id="node11" class="node"><title>Node11</title>
<polygon fill="white" stroke="#bfbfbf" points="520.5,-56.5 520.5,-75.5 566.5,-75.5 566.5,-56.5 520.5,-56.5"/>
<text text-anchor="middle" x="543.5" y="-63.5" font-family="Helvetica,sans-Serif" font-size="10.00">cstring</text>
</g>
<!-- Node2&#45;&gt;Node11 -->
<g id="edge10" class="edge"><title>Node2&#45;&gt;Node11</title>
<path fill="none" stroke="midnightblue" d="M732.366,-112.443C694.563,-104.248 636.126,-91.2306 576.501,-76.1613"/>
<polygon fill="midnightblue" stroke="midnightblue" points="577.09,-72.6996 566.535,-73.6259 575.364,-79.4835 577.09,-72.6996"/>
</g>
<!-- Node12 -->
<g id="node12" class="node"><title>Node12</title>
<polygon fill="white" stroke="#bfbfbf" points="584.5,-56.5 584.5,-75.5 628.5,-75.5 628.5,-56.5 584.5,-56.5"/>
<text text-anchor="middle" x="606.5" y="-63.5" font-family="Helvetica,sans-Serif" font-size="10.00">cmath</text>
</g>
<!-- Node2&#45;&gt;Node12 -->
<g id="edge11" class="edge"><title>Node2&#45;&gt;Node12</title>
<path fill="none" stroke="midnightblue" d="M746.197,-112.444C716.912,-102.917 669.589,-87.5228 638.262,-77.3321"/>
<polygon fill="midnightblue" stroke="midnightblue" points="639.288,-73.9855 628.696,-74.2203 637.123,-80.6422 639.288,-73.9855"/>
</g>
<!-- Node13 -->
<g id="node13" class="node"><title>Node13</title>
<polygon fill="white" stroke="#bfbfbf" points="647,-56.5 647,-75.5 692,-75.5 692,-56.5 647,-56.5"/>
<text text-anchor="middle" x="669.5" y="-63.5" font-family="Helvetica,sans-Serif" font-size="10.00">iosfwd</text>
</g>
<!-- Node2&#45;&gt;Node13 -->
<g id="edge12" class="edge"><title>Node2&#45;&gt;Node13</title>
<path fill="none" stroke="midnightblue" d="M755.951,-112.324C739.508,-103.703 714.065,-90.3643 695.032,-80.3855"/>
<polygon fill="midnightblue" stroke="midnightblue" points="696.489,-77.198 686.008,-75.6545 693.239,-83.3977 696.489,-77.198"/>
</g>
<!-- Node14 -->
<g id="node14" class="node"><title>Node14</title>
<polygon fill="white" stroke="#bfbfbf" points="710.5,-56.5 710.5,-75.5 764.5,-75.5 764.5,-56.5 710.5,-56.5"/>
<text text-anchor="middle" x="737.5" y="-63.5" font-family="Helvetica,sans-Serif" font-size="10.00">iostream</text>
</g>
<!-- Node2&#45;&gt;Node14 -->
<g id="edge13" class="edge"><title>Node2&#45;&gt;Node14</title>
<path fill="none" stroke="midnightblue" d="M766.72,-112.083C761.828,-104.534 754.673,-93.4948 748.667,-84.2298"/>
<polygon fill="midnightblue" stroke="midnightblue" points="751.548,-82.239 743.172,-75.7511 745.674,-86.0463 751.548,-82.239"/>
</g>
<!-- Node15 -->
<g id="node15" class="node"><title>Node15</title>
<polygon fill="white" stroke="#bfbfbf" points="783,-56.5 783,-75.5 834,-75.5 834,-56.5 783,-56.5"/>
<text text-anchor="middle" x="808.5" y="-63.5" font-family="Helvetica,sans-Serif" font-size="10.00">unistd.h</text>
</g>
<!-- Node2&#45;&gt;Node15 -->
<g id="edge14" class="edge"><title>Node2&#45;&gt;Node15</title>
<path fill="none" stroke="midnightblue" d="M778.445,-112.083C783.477,-104.534 790.837,-93.4948 797.013,-84.2298"/>
<polygon fill="midnightblue" stroke="midnightblue" points="800.031,-86.0131 802.666,-75.7511 794.207,-82.1301 800.031,-86.0131"/>
</g>
<!-- Node16 -->
<g id="node16" class="node"><title>Node16</title>
<polygon fill="white" stroke="#bfbfbf" points="852.5,-56.5 852.5,-75.5 896.5,-75.5 896.5,-56.5 852.5,-56.5"/>
<text text-anchor="middle" x="874.5" y="-63.5" font-family="Helvetica,sans-Serif" font-size="10.00">fcntl.h</text>
</g>
<!-- Node2&#45;&gt;Node16 -->
<g id="edge15" class="edge"><title>Node2&#45;&gt;Node16</title>
<path fill="none" stroke="midnightblue" d="M788.888,-112.324C805.171,-103.703 830.367,-90.3643 849.216,-80.3855"/>
<polygon fill="midnightblue" stroke="midnightblue" points="850.952,-83.4267 858.153,-75.6545 847.677,-77.2402 850.952,-83.4267"/>
</g>
<!-- Node17 -->
<g id="node17" class="node"><title>Node17</title>
<polygon fill="white" stroke="#bfbfbf" points="915,-56.5 915,-75.5 956,-75.5 956,-56.5 915,-56.5"/>
<text text-anchor="middle" x="935.5" y="-63.5" font-family="Helvetica,sans-Serif" font-size="10.00">string</text>
</g>
<!-- Node2&#45;&gt;Node17 -->
<g id="edge16" class="edge"><title>Node2&#45;&gt;Node17</title>
<path fill="none" stroke="midnightblue" d="M798.328,-112.444C827.362,-102.825 874.454,-87.2238 905.203,-77.0372"/>
<polygon fill="midnightblue" stroke="midnightblue" points="906.562,-80.2739 914.954,-73.8067 904.361,-73.6291 906.562,-80.2739"/>
</g>
<!-- Node18 -->
<g id="node18" class="node"><title>Node18</title>
<polygon fill="white" stroke="#bfbfbf" points="938.5,-0.5 938.5,-19.5 982.5,-19.5 982.5,-0.5 938.5,-0.5"/>
<text text-anchor="middle" x="960.5" y="-7.5" font-family="Helvetica,sans-Serif" font-size="10.00">vector</text>
</g>
<!-- Node2&#45;&gt;Node18 -->
<g id="edge17" class="edge"><title>Node2&#45;&gt;Node18</title>
<path fill="none" stroke="midnightblue" d="M834.129,-114.895C884.252,-108.506 949.245,-96.4816 965.5,-76 975.817,-63.0013 972.675,-43.5697 968.108,-29.3382"/>
<polygon fill="midnightblue" stroke="midnightblue" points="971.282,-27.8312 964.536,-19.6617 964.715,-30.255 971.282,-27.8312"/>
</g>
<!-- Node19 -->
<g id="node19" class="node"><title>Node19</title>
<polygon fill="white" stroke="#bfbfbf" points="1337,-56.5 1337,-75.5 1380,-75.5 1380,-56.5 1337,-56.5"/>
<text text-anchor="middle" x="1358.5" y="-63.5" font-family="Helvetica,sans-Serif" font-size="10.00">deque</text>
</g>
<!-- Node2&#45;&gt;Node19 -->
<g id="edge18" class="edge"><title>Node2&#45;&gt;Node19</title>
<path fill="none" stroke="midnightblue" d="M834.352,-119.23C936.57,-115.571 1146.91,-104.933 1322.5,-76 1323.97,-75.7578 1325.47,-75.4859 1326.98,-75.1917"/>
<polygon fill="midnightblue" stroke="midnightblue" points="1327.9,-78.5716 1336.92,-73.0035 1326.4,-71.7352 1327.9,-78.5716"/>
</g>
<!-- Node20 -->
<g id="node20" class="node"><title>Node20</title>
<polygon fill="white" stroke="#bfbfbf" points="1000.5,-0.5 1000.5,-19.5 1044.5,-19.5 1044.5,-0.5 1000.5,-0.5"/>
<text text-anchor="middle" x="1022.5" y="-7.5" font-family="Helvetica,sans-Serif" font-size="10.00">mutex</text>
</g>
<!-- Node2&#45;&gt;Node20 -->
<g id="edge19" class="edge"><title>Node2&#45;&gt;Node20</title>
<path fill="none" stroke="midnightblue" d="M834.145,-120.387C878.954,-117.13 939.106,-106.66 982.5,-76 998.697,-64.5559 1009.63,-44.275 1015.91,-29.4022"/>
<polygon fill="midnightblue" stroke="midnightblue" points="1019.31,-30.3205 1019.68,-19.732 1012.79,-27.7808 1019.31,-30.3205"/>
</g>
<!-- Node21 -->
<g id="node21" class="node"><title>Node21</title>
<polygon fill="white" stroke="#bfbfbf" points="1062.5,-0.5 1062.5,-19.5 1106.5,-19.5 1106.5,-0.5 1062.5,-0.5"/>
<text text-anchor="middle" x="1084.5" y="-7.5" font-family="Helvetica,sans-Serif" font-size="10.00">thread</text>
</g>
<!-- Node2&#45;&gt;Node21 -->
<g id="edge20" class="edge"><title>Node2&#45;&gt;Node21</title>
<path fill="none" stroke="midnightblue" d="M834.439,-117.395C882.939,-112.637 951.069,-101.6 1005.5,-76 1030.72,-64.1368 1054.71,-42.3908 1069.5,-27.3374"/>
<polygon fill="midnightblue" stroke="midnightblue" points="1072.35,-29.4206 1076.72,-19.7683 1067.28,-24.5897 1072.35,-29.4206"/>
</g>
<!-- Node22 -->
<g id="node22" class="node"><title>Node22</title>
<polygon fill="white" stroke="#bfbfbf" points="1171,-0.5 1171,-19.5 1266,-19.5 1266,-0.5 1171,-0.5"/>
<text text-anchor="middle" x="1218.5" y="-7.5" font-family="Helvetica,sans-Serif" font-size="10.00">condition_variable</text>
</g>
<!-- Node2&#45;&gt;Node22 -->
<g id="edge21" class="edge"><title>Node2&#45;&gt;Node22</title>
<path fill="none" stroke="midnightblue" d="M834.32,-119.012C949.47,-114.692 1187.54,-102.617 1213.5,-76 1225.21,-63.9911 1225.04,-44.0989 1222.82,-29.4775"/>
<polygon fill="midnightblue" stroke="midnightblue" points="1226.23,-28.6876 1220.88,-19.5417 1219.36,-30.0266 1226.23,-28.6876"/>
</g>
<!-- Node23 -->
<g id="node23" class="node"><title>Node23</title>
<polygon fill="white" stroke="#bfbfbf" points="1284,-0.5 1284,-19.5 1327,-19.5 1327,-0.5 1284,-0.5"/>
<text text-anchor="middle" x="1305.5" y="-7.5" font-family="Helvetica,sans-Serif" font-size="10.00">queue</text>
</g>
<!-- Node2&#45;&gt;Node23 -->
<g id="edge22" class="edge"><title>Node2&#45;&gt;Node23</title>
<path fill="none" stroke="midnightblue" d="M834.379,-119.604C942.681,-116.394 1161.72,-106.267 1231.5,-76 1256.38,-65.2071 1278.84,-42.8333 1292.33,-27.3741"/>
<polygon fill="midnightblue" stroke="midnightblue" points="1295.09,-29.5204 1298.85,-19.6145 1289.74,-25.0146 1295.09,-29.5204"/>
</g>
<!-- Node24 -->
<g id="node24" class="node"><title>Node24</title>
<polygon fill="white" stroke="#bfbfbf" points="1398.5,-56.5 1398.5,-75.5 1450.5,-75.5 1450.5,-56.5 1398.5,-56.5"/>
<text text-anchor="middle" x="1424.5" y="-63.5" font-family="Helvetica,sans-Serif" font-size="10.00">sstream</text>
</g>
<!-- Node2&#45;&gt;Node24 -->
<g id="edge23" class="edge"><title>Node2&#45;&gt;Node24</title>
<path fill="none" stroke="midnightblue" d="M834.228,-120.142C944.048,-117.822 1180.57,-109.238 1388.36,-75.8979"/>
<polygon fill="midnightblue" stroke="midnightblue" points="1388.93,-79.3522 1398.23,-74.2915 1387.8,-72.4431 1388.93,-79.3522"/>
</g>
<!-- Node25 -->
<g id="node25" class="node"><title>Node25</title>
<polygon fill="white" stroke="#bfbfbf" points="1345,-0.5 1345,-19.5 1380,-19.5 1380,-0.5 1345,-0.5"/>
<text text-anchor="middle" x="1362.5" y="-7.5" font-family="Helvetica,sans-Serif" font-size="10.00">map</text>
</g>
<!-- Node2&#45;&gt;Node25 -->
<g id="edge24" class="edge"><title>Node2&#45;&gt;Node25</title>
<path fill="none" stroke="midnightblue" d="M834.123,-118.886C946.973,-114.425 1182.32,-102.224 1259.5,-76 1292.14,-64.9094 1324.98,-41.5829 1344.53,-26.1031"/>
<polygon fill="midnightblue" stroke="midnightblue" points="1346.96,-28.6332 1352.53,-19.615 1342.55,-23.1971 1346.96,-28.6332"/>
</g>
<!-- Node26 -->
<g id="node26" class="node"><title>Node26</title>
<g id="a_node26"><a xlink:href="cosmos-defs_8h.html" target="_top" xlink:title="COSMOS definitions Definitions specific to the COSMOS environement. ">
<polygon fill="white" stroke="black" points="1088.5,-56.5 1088.5,-75.5 1204.5,-75.5 1204.5,-56.5 1088.5,-56.5"/>
<text text-anchor="middle" x="1146.5" y="-63.5" font-family="Helvetica,sans-Serif" font-size="10.00">support/cosmos&#45;defs.h</text>
</a>
</g>
</g>
<!-- Node2&#45;&gt;Node26 -->
<g id="edge25" class="edge"><title>Node2&#45;&gt;Node26</title>
<path fill="none" stroke="midnightblue" d="M831.761,-112.444C898.804,-102.764 1007.81,-87.0253 1078.32,-76.8437"/>
<polygon fill="midnightblue" stroke="midnightblue" points="1079.04,-80.2764 1088.44,-75.3832 1078.04,-73.3483 1079.04,-80.2764"/>
</g>
<!-- Node26&#45;&gt;Node18 -->
<g id="edge27" class="edge"><title>Node26&#45;&gt;Node18</title>
<path fill="none" stroke="midnightblue" d="M1117.03,-56.4435C1083,-46.5639 1027.23,-30.3734 992.26,-20.2208"/>
<polygon fill="midnightblue" stroke="midnightblue" points="993.133,-16.8296 982.553,-17.4026 991.181,-23.552 993.133,-16.8296"/>
</g>
<!-- Node26&#45;&gt;Node20 -->
<g id="edge31" class="edge"><title>Node26&#45;&gt;Node20</title>
<path fill="none" stroke="midnightblue" d="M1126.85,-56.4435C1106.54,-47.5961 1074.6,-33.6875 1051.4,-23.5865"/>
<polygon fill="midnightblue" stroke="midnightblue" points="1052.62,-20.3002 1042.06,-19.5164 1049.83,-26.7181 1052.62,-20.3002"/>
</g>
<!-- Node26&#45;&gt;Node21 -->
<g id="edge30" class="edge"><title>Node26&#45;&gt;Node21</title>
<path fill="none" stroke="midnightblue" d="M1136.54,-56.324C1127.37,-48.3414 1113.56,-36.3128 1102.47,-26.6529"/>
<polygon fill="midnightblue" stroke="midnightblue" points="1104.48,-23.7624 1094.64,-19.8339 1099.88,-29.041 1104.48,-23.7624"/>
</g>
<!-- Node26&#45;&gt;Node22 -->
<g id="edge32" class="edge"><title>Node26&#45;&gt;Node22</title>
<path fill="none" stroke="midnightblue" d="M1158.07,-56.324C1168.92,-48.1849 1185.38,-35.8395 1198.38,-26.0874"/>
<polygon fill="midnightblue" stroke="midnightblue" points="1200.82,-28.6339 1206.72,-19.8339 1196.62,-23.0339 1200.82,-28.6339"/>
</g>
<!-- Node26&#45;&gt;Node23 -->
<g id="edge29" class="edge"><title>Node26&#45;&gt;Node23</title>
<path fill="none" stroke="midnightblue" d="M1171.69,-56.4435C1199.54,-46.985 1244.43,-31.7421 1274.43,-21.551"/>
<polygon fill="midnightblue" stroke="midnightblue" points="1275.65,-24.8342 1283.99,-18.3042 1273.4,-18.206 1275.65,-24.8342"/>
</g>
<!-- Node26&#45;&gt;Node25 -->
<g id="edge26" class="edge"><title>Node26&#45;&gt;Node25</title>
<path fill="none" stroke="midnightblue" d="M1187.95,-56.4426C1224.54,-48.6094 1279.47,-36.1691 1335.27,-20.1564"/>
<polygon fill="midnightblue" stroke="midnightblue" points="1336.33,-23.4924 1344.95,-17.3417 1334.38,-16.7703 1336.33,-23.4924"/>
</g>
<!-- Node27 -->
<g id="node27" class="node"><title>Node27</title>
<polygon fill="white" stroke="#bfbfbf" points="1124,-0.5 1124,-19.5 1153,-19.5 1153,-0.5 1124,-0.5"/>
<text text-anchor="middle" x="1138.5" y="-7.5" font-family="Helvetica,sans-Serif" font-size="10.00">list</text>
</g>
<!-- Node26&#45;&gt;Node27 -->
<g id="edge28" class="edge"><title>Node26&#45;&gt;Node27</title>
<path fill="none" stroke="midnightblue" d="M1145.18,-56.083C1144.12,-48.9272 1142.59,-38.6353 1141.27,-29.6911"/>
<polygon fill="midnightblue" stroke="midnightblue" points="1144.72,-29.1302 1139.8,-19.7511 1137.8,-30.1561 1144.72,-29.1302"/>
</g>
</g>
</svg>
        <g id="navigator" transform="translate(0 0)" fill="#404254">
                <rect fill="#f2f5e9" fill-opacity="0.5" stroke="#606060" stroke-width=".5" x="0" y="0" width="60" height="60"/>
                <use id="zoomplus" xlink:href="#zoomPlus" x="17" y="9" onmousedown="handleZoom(evt,'in')"/>
                <use id="zoomminus" xlink:href="#zoomMin" x="42" y="9" onmousedown="handleZoom(evt,'out')"/>
                <use id="reset" xlink:href="#resetDef" x="30" y="36" onmousedown="handleReset()"/>
                <g id="arrowUp" xlink:href="#dirArrow" transform="translate(30 24)" onmousedown="handlePan(0,-1)">
                  <use xlink:href="#rim" fill="#404040">
                        <set attributeName="fill" to="#808080" begin="arrowUp.mouseover" end="arrowUp.mouseout"/>
                  </use>
                  <path fill="none" stroke="white" stroke-width="1.5" d="M0,-3.0v7 M-2.5,-0.5L0,-3.0L2.5,-0.5"/>
                </g>
                <g id="arrowRight" xlink:href="#dirArrow" transform="rotate(90) translate(36 -43)" onmousedown="handlePan(1,0)">
                  <use xlink:href="#rim" fill="#404040">
                        <set attributeName="fill" to="#808080" begin="arrowRight.mouseover" end="arrowRight.mouseout"/>
                  </use>
                  <path fill="none" stroke="white" stroke-width="1.5" d="M0,-3.0v7 M-2.5,-0.5L0,-3.0L2.5,-0.5"/>
                </g>
                <g id="arrowDown" xlink:href="#dirArrow" transform="rotate(180) translate(-30 -48)" onmousedown="handlePan(0,1)">
                  <use xlink:href="#rim" fill="#404040">
                        <set attributeName="fill" to="#808080" begin="arrowDown.mouseover" end="arrowDown.mouseout"/>
                  </use>
                  <path fill="none" stroke="white" stroke-width="1.5" d="M0,-3.0v7 M-2.5,-0.5L0,-3.0L2.5,-0.5"/>
                </g>
                <g id="arrowLeft" xlink:href="#dirArrow" transform="rotate(270) translate(-36 17)" onmousedown="handlePan(-1,0)">
                  <use xlink:href="#rim" fill="#404040">
                        <set attributeName="fill" to="#808080" begin="arrowLeft.mouseover" end="arrowLeft.mouseout"/>
                  </use>
                  <path fill="none" stroke="white" stroke-width="1.5" d="M0,-3.0v7 M-2.5,-0.5L0,-3.0L2.5,-0.5"/>
                </g>
        </g>
        <svg viewBox="0 0 15 15" width="100%" height="30px" preserveAspectRatio="xMaxYMin meet">
         <g id="arrow_out" transform="scale(0.3 0.3)">
          <a xlink:href="ts2000__lib_8cpp__incl_org.svg" target="_base">
           <rect id="button" ry="5" rx="5" y="6" x="6" height="38" width="38"
                fill="#f2f5e9" fill-opacity="0.5" stroke="#606060" stroke-width="1.0"/>
           <path id="arrow"
             d="M 11.500037,31.436501 C 11.940474,20.09759 22.043105,11.32322 32.158766,21.979434 L 37.068811,17.246167 C 37.068811,17.246167 37.088388,32 37.088388,32 L 22.160133,31.978069 C 22.160133,31.978069 26.997745,27.140456 26.997745,27.140456 C 18.528582,18.264221 13.291696,25.230495 11.500037,31.436501 z"
             style="fill:#404040;"/>
          </a>
         </g>
        </svg>
</svg>
