<?xml version="1.0" encoding="UTF-8" standalone="no"?>
<!DOCTYPE svg PUBLIC "-//W3C//DTD SVG 1.1//EN"
 "http://www.w3.org/Graphics/SVG/1.1/DTD/svg11.dtd">
<!-- Generated by graphviz version 2.38.0 (20140413.2041)
 -->
<!-- Title: types.h Pages: 1 -->
<!--zoomable 196 -->
<svg id="main" version="1.1" xmlns="http://www.w3.org/2000/svg" xmlns:xlink="http://www.w3.org/1999/xlink" xml:space="preserve" onload="init(evt)">
<style type="text/css"><![CDATA[
.edge:hover path { stroke: red; }
.edge:hover polygon { stroke: red; fill: red; }
]]></style>
<script type="text/javascript"><![CDATA[
var edges = document.getElementsByTagName('g');
if (edges && edges.length) {
  for (var i=0;i<edges.length;i++) {
    if (edges[i].id.substr(0,4)=='edge') {
      edges[i].setAttribute('class','edge');
    }
  }
}
]]></script>
        <defs>
                <circle id="rim" cx="0" cy="0" r="7"/>
                <circle id="rim2" cx="0" cy="0" r="3.5"/>
                <g id="zoomPlus">
                        <use xlink:href="#rim" fill="#404040">
                                <set attributeName="fill" to="#808080" begin="zoomplus.mouseover" end="zoomplus.mouseout"/>
                        </use>
                        <path d="M-4,0h8M0,-4v8" fill="none" stroke="white" stroke-width="1.5" pointer-events="none"/>
                </g>
                <g id="zoomMin">
                        <use xlink:href="#rim" fill="#404040">
                                <set attributeName="fill" to="#808080" begin="zoomminus.mouseover" end="zoomminus.mouseout"/>
                        </use>
                        <path d="M-4,0h8" fill="none" stroke="white" stroke-width="1.5" pointer-events="none"/>
                </g>
                <g id="dirArrow">
                        <path fill="none" stroke="white" stroke-width="1.5" d="M0,-3.0v7 M-2.5,-0.5L0,-3.0L2.5,-0.5"/>
                </g>
               <g id="resetDef">
                       <use xlink:href="#rim2" fill="#404040">
                               <set attributeName="fill" to="#808080" begin="reset.mouseover" end="reset.mouseout"/>
                       </use>
               </g>
        </defs>

<script type="text/javascript">
var viewWidth = 1471;
var viewHeight = 196;
var sectionId = 'dynsection-0';
</script>
<script xlink:href="svgpan.js"/>
<svg id="graph" class="graph">
<g id="viewport">
<title>types.h</title>
<polygon fill="white" stroke="none" points="-4,4 -4,-192 1467,-192 1467,4 -4,4"/>
<!-- Node1 -->
<g id="node1" class="node"><title>Node1</title>
<polygon fill="#bfbfbf" stroke="black" points="508.5,-168.5 508.5,-187.5 557.5,-187.5 557.5,-168.5 508.5,-168.5"/>
<text text-anchor="middle" x="533" y="-175.5" font-family="Helvetica,sans-Serif" font-size="10.00">types.h</text>
</g>
<!-- Node2 -->
<g id="node2" class="node"><title>Node2</title>
<g id="a_node2"><a xlink:href="config_cosmos_8h.html" target="_top" xlink:title="Headers and definitions common to all COSMOS. ">
<polygon fill="white" stroke="black" points="649.5,-112.5 649.5,-131.5 772.5,-131.5 772.5,-112.5 649.5,-112.5"/>
<text text-anchor="middle" x="711" y="-119.5" font-family="Helvetica,sans-Serif" font-size="10.00">support/configCosmos.h</text>
</a>
</g>
</g>
<!-- Node1&#45;&gt;Node2 -->
<g id="edge1" class="edge"><title>Node1&#45;&gt;Node2</title>
<path fill="none" stroke="midnightblue" d="M557.75,-169.492C587.659,-160.418 638.296,-145.056 673.125,-134.49"/>
<polygon fill="midnightblue" stroke="midnightblue" points="674.389,-137.764 682.943,-131.512 672.357,-131.066 674.389,-137.764"/>
</g>
<!-- Node12 -->
<g id="node12" class="node"><title>Node12</title>
<polygon fill="white" stroke="#bfbfbf" points="0,-56.5 0,-75.5 44,-75.5 44,-56.5 0,-56.5"/>
<text text-anchor="middle" x="22" y="-63.5" font-family="Helvetica,sans-Serif" font-size="10.00">cmath</text>
</g>
<!-- Node1&#45;&gt;Node12 -->
<g id="edge33" class="edge"><title>Node1&#45;&gt;Node12</title>
<path fill="none" stroke="midnightblue" d="M508.371,-172.51C438.609,-159.648 233.633,-120.847 54.1762,-76.1585"/>
<polygon fill="midnightblue" stroke="midnightblue" points="54.8483,-72.7188 44.2977,-73.686 53.1487,-79.5094 54.8483,-72.7188"/>
</g>
<!-- Node14 -->
<g id="node14" class="node"><title>Node14</title>
<polygon fill="white" stroke="#bfbfbf" points="62,-56.5 62,-75.5 116,-75.5 116,-56.5 62,-56.5"/>
<text text-anchor="middle" x="89" y="-63.5" font-family="Helvetica,sans-Serif" font-size="10.00">iostream</text>
</g>
<!-- Node1&#45;&gt;Node14 -->
<g id="edge34" class="edge"><title>Node1&#45;&gt;Node14</title>
<path fill="none" stroke="midnightblue" d="M508.292,-168.621C468.407,-155.309 387.202,-129.092 317,-112 235.692,-92.2036 211.548,-94.3454 125.975,-76.0959"/>
<polygon fill="midnightblue" stroke="midnightblue" points="126.6,-72.6503 116.086,-73.9554 125.119,-79.4918 126.6,-72.6503"/>
</g>
<!-- Node18 -->
<g id="node18" class="node"><title>Node18</title>
<polygon fill="white" stroke="#bfbfbf" points="1419,-0.5 1419,-19.5 1463,-19.5 1463,-0.5 1419,-0.5"/>
<text text-anchor="middle" x="1441" y="-7.5" font-family="Helvetica,sans-Serif" font-size="10.00">vector</text>
</g>
<!-- Node1&#45;&gt;Node18 -->
<g id="edge35" class="edge"><title>Node1&#45;&gt;Node18</title>
<path fill="none" stroke="midnightblue" d="M557.794,-176.176C697.385,-171.285 1381.18,-143.957 1442,-76 1453.04,-63.6695 1451.1,-44.1406 1447.44,-29.7041"/>
<polygon fill="midnightblue" stroke="midnightblue" points="1450.71,-28.4315 1444.48,-19.8607 1444,-30.4448 1450.71,-28.4315"/>
</g>
<!-- Node3 -->
<g id="node3" class="node"><title>Node3</title>
<polygon fill="white" stroke="#bfbfbf" points="427.5,-56.5 427.5,-75.5 472.5,-75.5 472.5,-56.5 427.5,-56.5"/>
<text text-anchor="middle" x="450" y="-63.5" font-family="Helvetica,sans-Serif" font-size="10.00">climits</text>
</g>
<!-- Node2&#45;&gt;Node3 -->
<g id="edge2" class="edge"><title>Node2&#45;&gt;Node3</title>
<path fill="none" stroke="midnightblue" d="M665.838,-112.482C620.518,-103.804 548.764,-89.7099 487,-76 485.548,-75.6777 484.065,-75.3425 482.569,-74.9992"/>
<polygon fill="midnightblue" stroke="midnightblue" points="483.201,-71.5523 472.664,-72.6662 481.596,-78.3658 483.201,-71.5523"/>
</g>
<!-- Node4 -->
<g id="node4" class="node"><title>Node4</title>
<polygon fill="white" stroke="#bfbfbf" points="909.5,-56.5 909.5,-75.5 956.5,-75.5 956.5,-56.5 909.5,-56.5"/>
<text text-anchor="middle" x="933" y="-63.5" font-family="Helvetica,sans-Serif" font-size="10.00">csignal</text>
</g>
<!-- Node2&#45;&gt;Node4 -->
<g id="edge3" class="edge"><title>Node2&#45;&gt;Node4</title>
<path fill="none" stroke="midnightblue" d="M748.383,-112.477C784.561,-104.145 841.179,-90.885 899.482,-76.0697"/>
<polygon fill="midnightblue" stroke="midnightblue" points="900.407,-79.4457 909.231,-73.5815 898.676,-72.6631 900.407,-79.4457"/>
</g>
<!-- Node5 -->
<g id="node5" class="node"><title>Node5</title>
<polygon fill="white" stroke="#bfbfbf" points="975,-56.5 975,-75.5 1021,-75.5 1021,-56.5 975,-56.5"/>
<text text-anchor="middle" x="998" y="-63.5" font-family="Helvetica,sans-Serif" font-size="10.00">cstdint</text>
</g>
<!-- Node2&#45;&gt;Node5 -->
<g id="edge4" class="edge"><title>Node2&#45;&gt;Node5</title>
<path fill="none" stroke="midnightblue" d="M768.802,-112.481C818.472,-104.779 892.168,-92.4482 965.171,-76.0043"/>
<polygon fill="midnightblue" stroke="midnightblue" points="966.026,-79.3994 974.998,-73.7646 964.47,-72.5744 966.026,-79.3994"/>
</g>
<!-- Node6 -->
<g id="node6" class="node"><title>Node6</title>
<polygon fill="white" stroke="#bfbfbf" points="1039,-56.5 1039,-75.5 1095,-75.5 1095,-56.5 1039,-56.5"/>
<text text-anchor="middle" x="1067" y="-63.5" font-family="Helvetica,sans-Serif" font-size="10.00">cinttypes</text>
</g>
<!-- Node2&#45;&gt;Node6 -->
<g id="edge5" class="edge"><title>Node2&#45;&gt;Node6</title>
<path fill="none" stroke="midnightblue" d="M772.749,-114.118C835.023,-106.765 934.092,-93.9443 1028.75,-76.0825"/>
<polygon fill="midnightblue" stroke="midnightblue" points="1029.61,-79.4806 1038.78,-74.1672 1028.3,-72.6049 1029.61,-79.4806"/>
</g>
<!-- Node7 -->
<g id="node7" class="node"><title>Node7</title>
<polygon fill="white" stroke="#bfbfbf" points="1113.5,-56.5 1113.5,-75.5 1156.5,-75.5 1156.5,-56.5 1113.5,-56.5"/>
<text text-anchor="middle" x="1135" y="-63.5" font-family="Helvetica,sans-Serif" font-size="10.00">cstdio</text>
</g>
<!-- Node2&#45;&gt;Node7 -->
<g id="edge6" class="edge"><title>Node2&#45;&gt;Node7</title>
<path fill="none" stroke="midnightblue" d="M772.765,-117.16C848.543,-111.73 980.979,-99.9128 1103.5,-75.7544"/>
<polygon fill="midnightblue" stroke="midnightblue" points="1104.32,-79.161 1113.44,-73.7645 1102.94,-72.2975 1104.32,-79.161"/>
</g>
<!-- Node8 -->
<g id="node8" class="node"><title>Node8</title>
<polygon fill="white" stroke="#bfbfbf" points="1174.5,-56.5 1174.5,-75.5 1223.5,-75.5 1223.5,-56.5 1174.5,-56.5"/>
<text text-anchor="middle" x="1199" y="-63.5" font-family="Helvetica,sans-Serif" font-size="10.00">cstddef</text>
</g>
<!-- Node2&#45;&gt;Node8 -->
<g id="edge7" class="edge"><title>Node2&#45;&gt;Node8</title>
<path fill="none" stroke="midnightblue" d="M772.541,-118.192C858.449,-113.547 1019.23,-102.227 1164.27,-76.0597"/>
<polygon fill="midnightblue" stroke="midnightblue" points="1165.03,-79.4777 1174.24,-74.2323 1163.77,-72.5923 1165.03,-79.4777"/>
</g>
<!-- Node9 -->
<g id="node9" class="node"><title>Node9</title>
<polygon fill="white" stroke="#bfbfbf" points="1241.5,-56.5 1241.5,-75.5 1286.5,-75.5 1286.5,-56.5 1241.5,-56.5"/>
<text text-anchor="middle" x="1264" y="-63.5" font-family="Helvetica,sans-Serif" font-size="10.00">cstdlib</text>
</g>
<!-- Node2&#45;&gt;Node9 -->
<g id="edge8" class="edge"><title>Node2&#45;&gt;Node9</title>
<path fill="none" stroke="midnightblue" d="M772.602,-119.601C868.913,-116.557 1060.97,-107.039 1231.53,-75.9423"/>
<polygon fill="midnightblue" stroke="midnightblue" points="1232.24,-79.3699 1241.44,-74.1068 1230.97,-72.487 1232.24,-79.3699"/>
</g>
<!-- Node10 -->
<g id="node10" class="node"><title>Node10</title>
<polygon fill="white" stroke="#bfbfbf" points="1305,-56.5 1305,-75.5 1349,-75.5 1349,-56.5 1305,-56.5"/>
<text text-anchor="middle" x="1327" y="-63.5" font-family="Helvetica,sans-Serif" font-size="10.00">cerrno</text>
</g>
<!-- Node2&#45;&gt;Node10 -->
<g id="edge9" class="edge"><title>Node2&#45;&gt;Node10</title>
<path fill="none" stroke="midnightblue" d="M772.589,-120.413C878.024,-118.503 1099.81,-110.537 1294.92,-75.8257"/>
<polygon fill="midnightblue" stroke="midnightblue" points="1295.56,-79.2669 1304.78,-74.0448 1294.32,-72.3784 1295.56,-79.2669"/>
</g>
<!-- Node11 -->
<g id="node11" class="node"><title>Node11</title>
<polygon fill="white" stroke="#bfbfbf" points="1367,-56.5 1367,-75.5 1413,-75.5 1413,-56.5 1367,-56.5"/>
<text text-anchor="middle" x="1390" y="-63.5" font-family="Helvetica,sans-Serif" font-size="10.00">cstring</text>
</g>
<!-- Node2&#45;&gt;Node11 -->
<g id="edge10" class="edge"><title>Node2&#45;&gt;Node11</title>
<path fill="none" stroke="midnightblue" d="M772.607,-120.894C886.48,-119.791 1137.52,-113.118 1356.63,-75.8844"/>
<polygon fill="midnightblue" stroke="midnightblue" points="1357.45,-79.2947 1366.71,-74.1458 1356.26,-72.3966 1357.45,-79.2947"/>
</g>
<!-- Node2&#45;&gt;Node12 -->
<g id="edge11" class="edge"><title>Node2&#45;&gt;Node12</title>
<path fill="none" stroke="midnightblue" d="M649.234,-121.165C533.76,-120.522 277.407,-114.595 54.1505,-75.8192"/>
<polygon fill="midnightblue" stroke="midnightblue" points="54.6719,-72.3572 44.2161,-74.068 53.4566,-79.2509 54.6719,-72.3572"/>
</g>
<!-- Node13 -->
<g id="node13" class="node"><title>Node13</title>
<polygon fill="white" stroke="#bfbfbf" points="134.5,-56.5 134.5,-75.5 179.5,-75.5 179.5,-56.5 134.5,-56.5"/>
<text text-anchor="middle" x="157" y="-63.5" font-family="Helvetica,sans-Serif" font-size="10.00">iosfwd</text>
</g>
<!-- Node2&#45;&gt;Node13 -->
<g id="edge12" class="edge"><title>Node2&#45;&gt;Node13</title>
<path fill="none" stroke="midnightblue" d="M649.28,-119.612C552.784,-116.582 360.357,-107.084 189.489,-75.9452"/>
<polygon fill="midnightblue" stroke="midnightblue" points="190.033,-72.4866 179.563,-74.1072 188.759,-79.3696 190.033,-72.4866"/>
</g>
<!-- Node2&#45;&gt;Node14 -->
<g id="edge13" class="edge"><title>Node2&#45;&gt;Node14</title>
<path fill="none" stroke="midnightblue" d="M649.434,-119.675C544.011,-116.663 322.129,-107.081 125.939,-75.8738"/>
<polygon fill="midnightblue" stroke="midnightblue" points="126.455,-72.412 116.025,-74.2748 125.34,-79.3226 126.455,-72.412"/>
</g>
<!-- Node15 -->
<g id="node15" class="node"><title>Node15</title>
<polygon fill="white" stroke="#bfbfbf" points="197.5,-56.5 197.5,-75.5 248.5,-75.5 248.5,-56.5 197.5,-56.5"/>
<text text-anchor="middle" x="223" y="-63.5" font-family="Helvetica,sans-Serif" font-size="10.00">unistd.h</text>
</g>
<!-- Node2&#45;&gt;Node15 -->
<g id="edge14" class="edge"><title>Node2&#45;&gt;Node15</title>
<path fill="none" stroke="midnightblue" d="M649.412,-117.87C563.848,-112.86 404.096,-101.12 258.526,-75.8074"/>
<polygon fill="midnightblue" stroke="midnightblue" points="258.972,-72.332 248.516,-74.041 257.755,-79.2255 258.972,-72.332"/>
</g>
<!-- Node16 -->
<g id="node16" class="node"><title>Node16</title>
<polygon fill="white" stroke="#bfbfbf" points="267,-56.5 267,-75.5 311,-75.5 311,-56.5 267,-56.5"/>
<text text-anchor="middle" x="289" y="-63.5" font-family="Helvetica,sans-Serif" font-size="10.00">fcntl.h</text>
</g>
<!-- Node2&#45;&gt;Node16 -->
<g id="edge15" class="edge"><title>Node2&#45;&gt;Node16</title>
<path fill="none" stroke="midnightblue" d="M649.211,-117.109C573.761,-111.641 442.217,-99.7969 321.059,-75.909"/>
<polygon fill="midnightblue" stroke="midnightblue" points="321.733,-72.4745 311.24,-73.9417 320.357,-79.3381 321.733,-72.4745"/>
</g>
<!-- Node17 -->
<g id="node17" class="node"><title>Node17</title>
<polygon fill="white" stroke="#bfbfbf" points="329.5,-56.5 329.5,-75.5 370.5,-75.5 370.5,-56.5 329.5,-56.5"/>
<text text-anchor="middle" x="350" y="-63.5" font-family="Helvetica,sans-Serif" font-size="10.00">string</text>
</g>
<!-- Node2&#45;&gt;Node17 -->
<g id="edge16" class="edge"><title>Node2&#45;&gt;Node17</title>
<path fill="none" stroke="midnightblue" d="M649.366,-114.622C583.552,-107.317 476.374,-93.9931 385,-76 383.538,-75.7121 382.046,-75.4002 380.542,-75.0711"/>
<polygon fill="midnightblue" stroke="midnightblue" points="381.176,-71.6245 370.639,-72.7249 379.562,-78.436 381.176,-71.6245"/>
</g>
<!-- Node2&#45;&gt;Node18 -->
<g id="edge17" class="edge"><title>Node2&#45;&gt;Node18</title>
<path fill="none" stroke="midnightblue" d="M772.79,-121.082C936.425,-120.747 1371.93,-116.061 1422,-76 1435.61,-65.1131 1439.83,-45.0437 1440.97,-30.0742"/>
<polygon fill="midnightblue" stroke="midnightblue" points="1444.47,-29.9799 1441.35,-19.8576 1437.48,-29.7216 1444.47,-29.9799"/>
</g>
<!-- Node19 -->
<g id="node19" class="node"><title>Node19</title>
<polygon fill="white" stroke="#bfbfbf" points="777.5,-56.5 777.5,-75.5 820.5,-75.5 820.5,-56.5 777.5,-56.5"/>
<text text-anchor="middle" x="799" y="-63.5" font-family="Helvetica,sans-Serif" font-size="10.00">deque</text>
</g>
<!-- Node2&#45;&gt;Node19 -->
<g id="edge18" class="edge"><title>Node2&#45;&gt;Node19</title>
<path fill="none" stroke="midnightblue" d="M725.139,-112.324C738.866,-103.9 759.936,-90.9709 776.064,-81.0741"/>
<polygon fill="midnightblue" stroke="midnightblue" points="778.204,-83.8678 784.896,-75.6545 774.543,-77.9016 778.204,-83.8678"/>
</g>
<!-- Node20 -->
<g id="node20" class="node"><title>Node20</title>
<polygon fill="white" stroke="#bfbfbf" points="381,-0.5 381,-19.5 425,-19.5 425,-0.5 381,-0.5"/>
<text text-anchor="middle" x="403" y="-7.5" font-family="Helvetica,sans-Serif" font-size="10.00">mutex</text>
</g>
<!-- Node2&#45;&gt;Node20 -->
<g id="edge19" class="edge"><title>Node2&#45;&gt;Node20</title>
<path fill="none" stroke="midnightblue" d="M649.191,-119.441C573.318,-116.217 450.674,-106.329 418,-76 405.419,-64.3219 402.378,-44.3774 402.047,-29.6534"/>
<polygon fill="midnightblue" stroke="midnightblue" points="405.547,-29.6903 402.21,-19.6349 398.548,-29.5768 405.547,-29.6903"/>
</g>
<!-- Node21 -->
<g id="node21" class="node"><title>Node21</title>
<polygon fill="white" stroke="#bfbfbf" points="448,-0.5 448,-19.5 492,-19.5 492,-0.5 448,-0.5"/>
<text text-anchor="middle" x="470" y="-7.5" font-family="Helvetica,sans-Serif" font-size="10.00">thread</text>
</g>
<!-- Node2&#45;&gt;Node21 -->
<g id="edge20" class="edge"><title>Node2&#45;&gt;Node21</title>
<path fill="none" stroke="midnightblue" d="M656.747,-112.462C623.425,-105.729 580.639,-94.3381 546,-76 521.919,-63.2513 498.801,-41.7055 484.516,-26.9397"/>
<polygon fill="midnightblue" stroke="midnightblue" points="486.943,-24.4116 477.538,-19.5329 481.847,-29.2116 486.943,-24.4116"/>
</g>
<!-- Node22 -->
<g id="node22" class="node"><title>Node22</title>
<polygon fill="white" stroke="#bfbfbf" points="510.5,-0.5 510.5,-19.5 605.5,-19.5 605.5,-0.5 510.5,-0.5"/>
<text text-anchor="middle" x="558" y="-7.5" font-family="Helvetica,sans-Serif" font-size="10.00">condition_variable</text>
</g>
<!-- Node2&#45;&gt;Node22 -->
<g id="edge21" class="edge"><title>Node2&#45;&gt;Node22</title>
<path fill="none" stroke="midnightblue" d="M658.838,-112.49C619.494,-104.882 570.275,-92.4049 558,-76 548.184,-62.8817 549.502,-43.7362 552.483,-29.6194"/>
<polygon fill="midnightblue" stroke="midnightblue" points="555.961,-30.1428 555.048,-19.5874 549.18,-28.4085 555.961,-30.1428"/>
</g>
<!-- Node23 -->
<g id="node23" class="node"><title>Node23</title>
<polygon fill="white" stroke="#bfbfbf" points="670.5,-0.5 670.5,-19.5 713.5,-19.5 713.5,-0.5 670.5,-0.5"/>
<text text-anchor="middle" x="692" y="-7.5" font-family="Helvetica,sans-Serif" font-size="10.00">queue</text>
</g>
<!-- Node2&#45;&gt;Node23 -->
<g id="edge22" class="edge"><title>Node2&#45;&gt;Node23</title>
<path fill="none" stroke="midnightblue" d="M709.509,-112.368C706.443,-94.617 699.37,-53.6664 695.212,-29.5974"/>
<polygon fill="midnightblue" stroke="midnightblue" points="698.635,-28.8498 693.484,-19.5914 691.737,-30.0413 698.635,-28.8498"/>
</g>
<!-- Node24 -->
<g id="node24" class="node"><title>Node24</title>
<polygon fill="white" stroke="#bfbfbf" points="839,-56.5 839,-75.5 891,-75.5 891,-56.5 839,-56.5"/>
<text text-anchor="middle" x="865" y="-63.5" font-family="Helvetica,sans-Serif" font-size="10.00">sstream</text>
</g>
<!-- Node2&#45;&gt;Node24 -->
<g id="edge23" class="edge"><title>Node2&#45;&gt;Node24</title>
<path fill="none" stroke="midnightblue" d="M735.402,-112.444C761.197,-103.399 802.077,-89.064 831.018,-78.9158"/>
<polygon fill="midnightblue" stroke="midnightblue" points="832.434,-82.1283 840.712,-75.5164 830.118,-75.5226 832.434,-82.1283"/>
</g>
<!-- Node25 -->
<g id="node25" class="node"><title>Node25</title>
<polygon fill="white" stroke="#bfbfbf" points="731.5,-0.5 731.5,-19.5 766.5,-19.5 766.5,-0.5 731.5,-0.5"/>
<text text-anchor="middle" x="749" y="-7.5" font-family="Helvetica,sans-Serif" font-size="10.00">map</text>
</g>
<!-- Node2&#45;&gt;Node25 -->
<g id="edge24" class="edge"><title>Node2&#45;&gt;Node25</title>
<path fill="none" stroke="midnightblue" d="M713.982,-112.368C720.142,-94.5366 734.389,-53.2953 742.688,-29.2717"/>
<polygon fill="midnightblue" stroke="midnightblue" points="746.075,-30.1862 746.032,-19.5914 739.459,-27.9005 746.075,-30.1862"/>
</g>
<!-- Node26 -->
<g id="node26" class="node"><title>Node26</title>
<g id="a_node26"><a xlink:href="cosmos-defs_8h.html" target="_top" xlink:title="COSMOS definitions Definitions specific to the COSMOS environement. ">
<polygon fill="white" stroke="black" points="567,-56.5 567,-75.5 683,-75.5 683,-56.5 567,-56.5"/>
<text text-anchor="middle" x="625" y="-63.5" font-family="Helvetica,sans-Serif" font-size="10.00">support/cosmos&#45;defs.h</text>
</a>
</g>
</g>
<!-- Node2&#45;&gt;Node26 -->
<g id="edge25" class="edge"><title>Node2&#45;&gt;Node26</title>
<path fill="none" stroke="midnightblue" d="M697.183,-112.324C683.767,-103.9 663.176,-90.9709 647.414,-81.0741"/>
<polygon fill="midnightblue" stroke="midnightblue" points="649.113,-78.0081 638.783,-75.6545 645.391,-83.9364 649.113,-78.0081"/>
</g>
<!-- Node26&#45;&gt;Node18 -->
<g id="edge27" class="edge"><title>Node26&#45;&gt;Node18</title>
<path fill="none" stroke="midnightblue" d="M683.031,-61.1597C842.785,-50.5877 1285.36,-21.2997 1408.71,-13.1367"/>
<polygon fill="midnightblue" stroke="midnightblue" points="1409.25,-16.6091 1418.99,-12.4564 1408.78,-9.62442 1409.25,-16.6091"/>
</g>
<!-- Node26&#45;&gt;Node20 -->
<g id="edge31" class="edge"><title>Node26&#45;&gt;Node20</title>
<path fill="none" stroke="midnightblue" d="M589.323,-56.4536C551.865,-47.4608 491.264,-32.8551 439,-20 437.733,-19.6884 436.442,-19.3698 435.137,-19.0472"/>
<polygon fill="midnightblue" stroke="midnightblue" points="435.627,-15.5627 425.078,-16.5477 433.939,-22.3561 435.627,-15.5627"/>
</g>
<!-- Node26&#45;&gt;Node21 -->
<g id="edge30" class="edge"><title>Node26&#45;&gt;Node21</title>
<path fill="none" stroke="midnightblue" d="M600.44,-56.4435C573.867,-47.1858 531.387,-32.3866 502.167,-22.2066"/>
<polygon fill="midnightblue" stroke="midnightblue" points="503.027,-18.7999 492.432,-18.8151 500.724,-25.4103 503.027,-18.7999"/>
</g>
<!-- Node26&#45;&gt;Node22 -->
<g id="edge32" class="edge"><title>Node26&#45;&gt;Node22</title>
<path fill="none" stroke="midnightblue" d="M614.235,-56.324C604.234,-48.2631 589.113,-36.0765 577.07,-26.3695"/>
<polygon fill="midnightblue" stroke="midnightblue" points="578.943,-23.3841 568.961,-19.8339 574.55,-28.8343 578.943,-23.3841"/>
</g>
<!-- Node26&#45;&gt;Node23 -->
<g id="edge29" class="edge"><title>Node26&#45;&gt;Node23</title>
<path fill="none" stroke="midnightblue" d="M635.765,-56.324C645.766,-48.2631 660.887,-36.0765 672.93,-26.3695"/>
<polygon fill="midnightblue" stroke="midnightblue" points="675.45,-28.8343 681.039,-19.8339 671.057,-23.3841 675.45,-28.8343"/>
</g>
<!-- Node26&#45;&gt;Node25 -->
<g id="edge26" class="edge"><title>Node26&#45;&gt;Node25</title>
<path fill="none" stroke="midnightblue" d="M644.648,-56.4435C665.562,-47.3359 698.792,-32.865 722.121,-22.7053"/>
<polygon fill="midnightblue" stroke="midnightblue" points="723.678,-25.845 731.449,-18.6433 720.883,-19.4271 723.678,-25.845"/>
</g>
<!-- Node27 -->
<g id="node27" class="node"><title>Node27</title>
<polygon fill="white" stroke="#bfbfbf" points="623.5,-0.5 623.5,-19.5 652.5,-19.5 652.5,-0.5 623.5,-0.5"/>
<text text-anchor="middle" x="638" y="-7.5" font-family="Helvetica,sans-Serif" font-size="10.00">list</text>
</g>
<!-- Node26&#45;&gt;Node27 -->
<g id="edge28" class="edge"><title>Node26&#45;&gt;Node27</title>
<path fill="none" stroke="midnightblue" d="M627.147,-56.083C628.869,-48.9272 631.347,-38.6353 633.5,-29.6911"/>
<polygon fill="midnightblue" stroke="midnightblue" points="636.955,-30.2925 635.893,-19.7511 630.15,-28.6541 636.955,-30.2925"/>
</g>
</g>
</svg>
        <g id="navigator" transform="translate(0 0)" fill="#404254">
                <rect fill="#f2f5e9" fill-opacity="0.5" stroke="#606060" stroke-width=".5" x="0" y="0" width="60" height="60"/>
                <use id="zoomplus" xlink:href="#zoomPlus" x="17" y="9" onmousedown="handleZoom(evt,'in')"/>
                <use id="zoomminus" xlink:href="#zoomMin" x="42" y="9" onmousedown="handleZoom(evt,'out')"/>
                <use id="reset" xlink:href="#resetDef" x="30" y="36" onmousedown="handleReset()"/>
                <g id="arrowUp" xlink:href="#dirArrow" transform="translate(30 24)" onmousedown="handlePan(0,-1)">
                  <use xlink:href="#rim" fill="#404040">
                        <set attributeName="fill" to="#808080" begin="arrowUp.mouseover" end="arrowUp.mouseout"/>
                  </use>
                  <path fill="none" stroke="white" stroke-width="1.5" d="M0,-3.0v7 M-2.5,-0.5L0,-3.0L2.5,-0.5"/>
                </g>
                <g id="arrowRight" xlink:href="#dirArrow" transform="rotate(90) translate(36 -43)" onmousedown="handlePan(1,0)">
                  <use xlink:href="#rim" fill="#404040">
                        <set attributeName="fill" to="#808080" begin="arrowRight.mouseover" end="arrowRight.mouseout"/>
                  </use>
                  <path fill="none" stroke="white" stroke-width="1.5" d="M0,-3.0v7 M-2.5,-0.5L0,-3.0L2.5,-0.5"/>
                </g>
                <g id="arrowDown" xlink:href="#dirArrow" transform="rotate(180) translate(-30 -48)" onmousedown="handlePan(0,1)">
                  <use xlink:href="#rim" fill="#404040">
                        <set attributeName="fill" to="#808080" begin="arrowDown.mouseover" end="arrowDown.mouseout"/>
                  </use>
                  <path fill="none" stroke="white" stroke-width="1.5" d="M0,-3.0v7 M-2.5,-0.5L0,-3.0L2.5,-0.5"/>
                </g>
                <g id="arrowLeft" xlink:href="#dirArrow" transform="rotate(270) translate(-36 17)" onmousedown="handlePan(-1,0)">
                  <use xlink:href="#rim" fill="#404040">
                        <set attributeName="fill" to="#808080" begin="arrowLeft.mouseover" end="arrowLeft.mouseout"/>
                  </use>
                  <path fill="none" stroke="white" stroke-width="1.5" d="M0,-3.0v7 M-2.5,-0.5L0,-3.0L2.5,-0.5"/>
                </g>
        </g>
        <svg viewBox="0 0 15 15" width="100%" height="30px" preserveAspectRatio="xMaxYMin meet">
         <g id="arrow_out" transform="scale(0.3 0.3)">
          <a xlink:href="types_8h__incl_org.svg" target="_base">
           <rect id="button" ry="5" rx="5" y="6" x="6" height="38" width="38"
                fill="#f2f5e9" fill-opacity="0.5" stroke="#606060" stroke-width="1.0"/>
           <path id="arrow"
             d="M 11.500037,31.436501 C 11.940474,20.09759 22.043105,11.32322 32.158766,21.979434 L 37.068811,17.246167 C 37.068811,17.246167 37.088388,32 37.088388,32 L 22.160133,31.978069 C 22.160133,31.978069 26.997745,27.140456 26.997745,27.140456 C 18.528582,18.264221 13.291696,25.230495 11.500037,31.436501 z"
             style="fill:#404040;"/>
          </a>
         </g>
        </svg>
</svg>
