<?xml version="1.0" encoding="UTF-8" standalone="no"?>
<!DOCTYPE svg PUBLIC "-//W3C//DTD SVG 1.1//EN"
 "http://www.w3.org/Graphics/SVG/1.1/DTD/svg11.dtd">
<!-- Generated by graphviz version 2.38.0 (20140413.2041)
 -->
<!-- Title: eventstruc Pages: 1 -->
<svg width="190pt" height="397pt"
 viewBox="0.00 0.00 190.00 397.00" xmlns="http://www.w3.org/2000/svg" xmlns:xlink="http://www.w3.org/1999/xlink">
<g id="graph0" class="graph" transform="scale(1 1) rotate(0) translate(4 393)">
<title>eventstruc</title>
<polygon fill="white" stroke="none" points="-4,4 -4,-393 186,-393 186,4 -4,4"/>
<!-- Node1 -->
<g id="node1" class="node"><title>Node1</title>
<polygon fill="#bfbfbf" stroke="black" points="45,-0.5 45,-57.5 107,-57.5 107,-0.5 45,-0.5"/>
<text text-anchor="middle" x="76" y="-45.5" font-family="Helvetica,sans-Serif" font-size="10.00">eventstruc</text>
<polyline fill="none" stroke="black" points="45,-38.5 107,-38.5 "/>
<text text-anchor="middle" x="76" y="-26.5" font-family="Helvetica,sans-Serif" font-size="10.00"> </text>
<polyline fill="none" stroke="black" points="45,-19.5 107,-19.5 "/>
<text text-anchor="middle" x="76" y="-7.5" font-family="Helvetica,sans-Serif" font-size="10.00"> </text>
</g>
<!-- Node2 -->
<g id="node2" class="node"><title>Node2</title>
<g id="a_node2"><a xlink:href="structshorteventstruc.html" target="_top" xlink:title="Shortened COSMOS Event structure. ">
<polygon fill="white" stroke="black" points="0,-105.5 0,-272.5 84,-272.5 84,-105.5 0,-105.5"/>
<text text-anchor="middle" x="42" y="-260.5" font-family="Helvetica,sans-Serif" font-size="10.00">shorteventstruc</text>
<polyline fill="none" stroke="black" points="0,-253.5 84,-253.5 "/>
<text text-anchor="start" x="8" y="-241.5" font-family="Helvetica,sans-Serif" font-size="10.00">+ utc</text>
<text text-anchor="start" x="8" y="-230.5" font-family="Helvetica,sans-Serif" font-size="10.00">+ utcexec</text>
<text text-anchor="start" x="8" y="-219.5" font-family="Helvetica,sans-Serif" font-size="10.00">+ node</text>
<text text-anchor="start" x="8" y="-208.5" font-family="Helvetica,sans-Serif" font-size="10.00">+ name</text>
<text text-anchor="start" x="8" y="-197.5" font-family="Helvetica,sans-Serif" font-size="10.00">+ user</text>
<text text-anchor="start" x="8" y="-186.5" font-family="Helvetica,sans-Serif" font-size="10.00">+ flag</text>
<text text-anchor="start" x="8" y="-175.5" font-family="Helvetica,sans-Serif" font-size="10.00">+ type</text>
<text text-anchor="start" x="8" y="-164.5" font-family="Helvetica,sans-Serif" font-size="10.00">+ value</text>
<text text-anchor="start" x="8" y="-153.5" font-family="Helvetica,sans-Serif" font-size="10.00">+ dtime</text>
<text text-anchor="start" x="8" y="-142.5" font-family="Helvetica,sans-Serif" font-size="10.00">+ ctime</text>
<text text-anchor="start" x="8" y="-131.5" font-family="Helvetica,sans-Serif" font-size="10.00">and 7 more...</text>
<polyline fill="none" stroke="black" points="0,-124.5 84,-124.5 "/>
<text text-anchor="middle" x="42" y="-112.5" font-family="Helvetica,sans-Serif" font-size="10.00"> </text>
</a>
</g>
</g>
<!-- Node2&#45;&gt;Node1 -->
<g id="edge1" class="edge"><title>Node2&#45;&gt;Node1</title>
<path fill="none" stroke="#404040" d="M59.7966,-105.298C62.4816,-92.8209 65.14,-80.4672 67.5031,-69.4855"/>
<polygon fill="none" stroke="#404040" points="67.5069,-69.4677 64.8587,-62.7605 70.0314,-57.7362 72.6796,-64.4435 67.5069,-69.4677"/>
<text text-anchor="middle" x="73.5" y="-79" font-family="Helvetica,sans-Serif" font-size="10.00"> +s</text>
</g>
<!-- Node3 -->
<g id="node3" class="node"><title>Node3</title>
<g id="a_node3"><a xlink:href="structjsonhandle.html" target="_top" xlink:title="JSON handle. ">
<polygon fill="white" stroke="black" points="64.5,-320.5 64.5,-388.5 127.5,-388.5 127.5,-320.5 64.5,-320.5"/>
<text text-anchor="middle" x="96" y="-376.5" font-family="Helvetica,sans-Serif" font-size="10.00">jsonhandle</text>
<polyline fill="none" stroke="black" points="64.5,-369.5 127.5,-369.5 "/>
<text text-anchor="start" x="72.5" y="-357.5" font-family="Helvetica,sans-Serif" font-size="10.00">+ hash</text>
<text text-anchor="start" x="72.5" y="-346.5" font-family="Helvetica,sans-Serif" font-size="10.00">+ index</text>
<polyline fill="none" stroke="black" points="64.5,-339.5 127.5,-339.5 "/>
<text text-anchor="middle" x="96" y="-327.5" font-family="Helvetica,sans-Serif" font-size="10.00"> </text>
</a>
</g>
</g>
<!-- Node3&#45;&gt;Node2 -->
<g id="edge2" class="edge"><title>Node3&#45;&gt;Node2</title>
<path fill="none" stroke="#404040" d="M76.2782,-320.322C73.2195,-314.352 70.313,-308.089 68,-302 65.8401,-296.314 63.8261,-290.396 61.9538,-284.38"/>
<polygon fill="none" stroke="#404040" points="61.9126,-284.239 56.3822,-279.612 58.5268,-272.727 64.0572,-277.355 61.9126,-284.239"/>
<text text-anchor="middle" x="87" y="-294" font-family="Helvetica,sans-Serif" font-size="10.00"> +handle</text>
</g>
<!-- Node4 -->
<g id="node4" class="node"><title>Node4</title>
<g id="a_node4"><a xlink:href="structlongeventstruc.html" target="_top" xlink:title="Long COSMOS Event structure. ">
<polygon fill="white" stroke="black" points="102,-105.5 102,-272.5 182,-272.5 182,-105.5 102,-105.5"/>
<text text-anchor="middle" x="142" y="-260.5" font-family="Helvetica,sans-Serif" font-size="10.00">longeventstruc</text>
<polyline fill="none" stroke="black" points="102,-253.5 182,-253.5 "/>
<text text-anchor="start" x="110" y="-241.5" font-family="Helvetica,sans-Serif" font-size="10.00">+ utc</text>
<text text-anchor="start" x="110" y="-230.5" font-family="Helvetica,sans-Serif" font-size="10.00">+ utcexec</text>
<text text-anchor="start" x="110" y="-219.5" font-family="Helvetica,sans-Serif" font-size="10.00">+ node</text>
<text text-anchor="start" x="110" y="-208.5" font-family="Helvetica,sans-Serif" font-size="10.00">+ name</text>
<text text-anchor="start" x="110" y="-197.5" font-family="Helvetica,sans-Serif" font-size="10.00">+ user</text>
<text text-anchor="start" x="110" y="-186.5" font-family="Helvetica,sans-Serif" font-size="10.00">+ flag</text>
<text text-anchor="start" x="110" y="-175.5" font-family="Helvetica,sans-Serif" font-size="10.00">+ type</text>
<text text-anchor="start" x="110" y="-164.5" font-family="Helvetica,sans-Serif" font-size="10.00">+ value</text>
<text text-anchor="start" x="110" y="-153.5" font-family="Helvetica,sans-Serif" font-size="10.00">+ dtime</text>
<text text-anchor="start" x="110" y="-142.5" font-family="Helvetica,sans-Serif" font-size="10.00">+ ctime</text>
<text text-anchor="start" x="110" y="-131.5" font-family="Helvetica,sans-Serif" font-size="10.00">and 8 more...</text>
<polyline fill="none" stroke="black" points="102,-124.5 182,-124.5 "/>
<text text-anchor="middle" x="142" y="-112.5" font-family="Helvetica,sans-Serif" font-size="10.00"> </text>
</a>
</g>
</g>
<!-- Node3&#45;&gt;Node4 -->
<g id="edge4" class="edge"><title>Node3&#45;&gt;Node4</title>
<path fill="none" stroke="#404040" d="M105.309,-320.413C108.304,-309.769 111.785,-297.393 115.388,-284.587"/>
<polygon fill="none" stroke="#404040" points="115.471,-284.293 113.245,-277.434 118.721,-272.742 120.946,-279.601 115.471,-284.293"/>
<text text-anchor="middle" x="132" y="-294" font-family="Helvetica,sans-Serif" font-size="10.00"> +handle</text>
</g>
<!-- Node4&#45;&gt;Node1 -->
<g id="edge3" class="edge"><title>Node4&#45;&gt;Node1</title>
<path fill="none" stroke="#404040" d="M107.454,-105.298C102.186,-92.6868 96.9703,-80.2015 92.3461,-69.1317"/>
<polygon fill="none" stroke="#404040" points="92.2114,-68.809 86.2078,-64.8144 87.586,-57.7362 93.5897,-61.7308 92.2114,-68.809"/>
<text text-anchor="middle" x="105" y="-79" font-family="Helvetica,sans-Serif" font-size="10.00"> +l</text>
</g>
</g>
</svg>
