<?xml version="1.0" encoding="UTF-8" standalone="no"?>
<!DOCTYPE svg PUBLIC "-//W3C//DTD SVG 1.1//EN"
 "http://www.w3.org/Graphics/SVG/1.1/DTD/svg11.dtd">
<!-- Generated by graphviz version 2.38.0 (20140413.2041)
 -->
<!-- Title: uvector Pages: 1 -->
<!--zoomable 386 -->
<svg id="main" version="1.1" xmlns="http://www.w3.org/2000/svg" xmlns:xlink="http://www.w3.org/1999/xlink" xml:space="preserve" onload="init(evt)">
<style type="text/css"><![CDATA[
.edge:hover path { stroke: red; }
.edge:hover polygon { stroke: red; fill: red; }
]]></style>
<script type="text/javascript"><![CDATA[
var edges = document.getElementsByTagName('g');
if (edges && edges.length) {
  for (var i=0;i<edges.length;i++) {
    if (edges[i].id.substr(0,4)=='edge') {
      edges[i].setAttribute('class','edge');
    }
  }
}
]]></script>
        <defs>
                <circle id="rim" cx="0" cy="0" r="7"/>
                <circle id="rim2" cx="0" cy="0" r="3.5"/>
                <g id="zoomPlus">
                        <use xlink:href="#rim" fill="#404040">
                                <set attributeName="fill" to="#808080" begin="zoomplus.mouseover" end="zoomplus.mouseout"/>
                        </use>
                        <path d="M-4,0h8M0,-4v8" fill="none" stroke="white" stroke-width="1.5" pointer-events="none"/>
                </g>
                <g id="zoomMin">
                        <use xlink:href="#rim" fill="#404040">
                                <set attributeName="fill" to="#808080" begin="zoomminus.mouseover" end="zoomminus.mouseout"/>
                        </use>
                        <path d="M-4,0h8" fill="none" stroke="white" stroke-width="1.5" pointer-events="none"/>
                </g>
                <g id="dirArrow">
                        <path fill="none" stroke="white" stroke-width="1.5" d="M0,-3.0v7 M-2.5,-0.5L0,-3.0L2.5,-0.5"/>
                </g>
               <g id="resetDef">
                       <use xlink:href="#rim2" fill="#404040">
                               <set attributeName="fill" to="#808080" begin="reset.mouseover" end="reset.mouseout"/>
                       </use>
               </g>
        </defs>

<script type="text/javascript">
var viewWidth = 658;
var viewHeight = 386;
var sectionId = 'dynsection-0';
</script>
<script xlink:href="svgpan.js"/>
<svg id="graph" class="graph">
<g id="viewport">
<title>uvector</title>
<polygon fill="white" stroke="none" points="-4,4 -4,-382 654,-382 654,4 -4,4"/>
<!-- Node1 -->
<g id="node1" class="node"><title>Node1</title>
<polygon fill="#bfbfbf" stroke="black" points="318.5,-0.5 318.5,-57.5 367.5,-57.5 367.5,-0.5 318.5,-0.5"/>
<text text-anchor="middle" x="343" y="-45.5" font-family="Helvetica,sans-Serif" font-size="10.00">uvector</text>
<polyline fill="none" stroke="black" points="318.5,-38.5 367.5,-38.5 "/>
<text text-anchor="start" x="326.5" y="-26.5" font-family="Helvetica,sans-Serif" font-size="10.00">+ a4</text>
<polyline fill="none" stroke="black" points="318.5,-19.5 367.5,-19.5 "/>
<text text-anchor="middle" x="343" y="-7.5" font-family="Helvetica,sans-Serif" font-size="10.00"> </text>
</g>
<!-- Node2 -->
<g id="node2" class="node"><title>Node2</title>
<g id="a_node2"><a xlink:href="structmatrix1d.html" target="_top" xlink:title="n element row matrix ">
<polygon fill="white" stroke="black" points="0,-116.5 0,-184.5 54,-184.5 54,-116.5 0,-116.5"/>
<text text-anchor="middle" x="27" y="-172.5" font-family="Helvetica,sans-Serif" font-size="10.00">matrix1d</text>
<polyline fill="none" stroke="black" points="0,-165.5 54,-165.5 "/>
<text text-anchor="start" x="8" y="-153.5" font-family="Helvetica,sans-Serif" font-size="10.00">+ vector</text>
<text text-anchor="start" x="8" y="-142.5" font-family="Helvetica,sans-Serif" font-size="10.00">+ cols</text>
<polyline fill="none" stroke="black" points="0,-135.5 54,-135.5 "/>
<text text-anchor="middle" x="27" y="-123.5" font-family="Helvetica,sans-Serif" font-size="10.00"> </text>
</a>
</g>
</g>
<!-- Node2&#45;&gt;Node1 -->
<g id="edge1" class="edge"><title>Node2&#45;&gt;Node1</title>
<path fill="none" stroke="#404040" d="M51.6698,-116.165C55.2589,-112.192 59.0748,-108.361 63,-105 82.5139,-88.2919 88.9708,-85.0856 113,-76 178.629,-51.1855 260.104,-38.936 306.365,-33.5786"/>
<polygon fill="none" stroke="#404040" points="306.509,-33.5627 312.034,-28.9283 318.437,-32.2456 312.912,-36.88 306.509,-33.5627"/>
<text text-anchor="middle" x="124.5" y="-79" font-family="Helvetica,sans-Serif" font-size="10.00"> +m1</text>
</g>
<!-- Node3 -->
<g id="node3" class="node"><title>Node3</title>
<g id="a_node3"><a xlink:href="structqlast.html" target="_top" xlink:title="Quaternion, scalar last, using vector elements. ">
<polygon fill="white" stroke="black" points="72,-105.5 72,-195.5 110,-195.5 110,-105.5 72,-105.5"/>
<text text-anchor="middle" x="91" y="-183.5" font-family="Helvetica,sans-Serif" font-size="10.00">qlast</text>
<polyline fill="none" stroke="black" points="72,-176.5 110,-176.5 "/>
<text text-anchor="start" x="80" y="-164.5" font-family="Helvetica,sans-Serif" font-size="10.00">+ q1</text>
<text text-anchor="start" x="80" y="-153.5" font-family="Helvetica,sans-Serif" font-size="10.00">+ q2</text>
<text text-anchor="start" x="80" y="-142.5" font-family="Helvetica,sans-Serif" font-size="10.00">+ q3</text>
<text text-anchor="start" x="80" y="-131.5" font-family="Helvetica,sans-Serif" font-size="10.00">+ q4</text>
<polyline fill="none" stroke="black" points="72,-124.5 110,-124.5 "/>
<text text-anchor="middle" x="91" y="-112.5" font-family="Helvetica,sans-Serif" font-size="10.00"> </text>
</a>
</g>
</g>
<!-- Node3&#45;&gt;Node1 -->
<g id="edge2" class="edge"><title>Node3&#45;&gt;Node1</title>
<path fill="none" stroke="#404040" d="M110.079,-115.831C112.85,-112.001 115.842,-108.295 119,-105 134.694,-88.6213 140.343,-85.3724 161,-76 208.863,-54.2841 268.649,-41.6734 306.342,-35.3141"/>
<polygon fill="none" stroke="#404040" points="306.382,-35.3076 311.667,-30.4015 318.228,-33.3929 312.943,-38.299 306.382,-35.3076"/>
<text text-anchor="middle" x="169.5" y="-79" font-family="Helvetica,sans-Serif" font-size="10.00"> +ql</text>
</g>
<!-- Node4 -->
<g id="node4" class="node"><title>Node4</title>
<g id="a_node4"><a xlink:href="structqcomplex.html" target="_top" xlink:title="Quaternion, scalar last, using imaginary elements. ">
<polygon fill="white" stroke="black" points="128.5,-105.5 128.5,-195.5 187.5,-195.5 187.5,-105.5 128.5,-105.5"/>
<text text-anchor="middle" x="158" y="-183.5" font-family="Helvetica,sans-Serif" font-size="10.00">qcomplex</text>
<polyline fill="none" stroke="black" points="128.5,-176.5 187.5,-176.5 "/>
<text text-anchor="start" x="136.5" y="-164.5" font-family="Helvetica,sans-Serif" font-size="10.00">+ i</text>
<text text-anchor="start" x="136.5" y="-153.5" font-family="Helvetica,sans-Serif" font-size="10.00">+ j</text>
<text text-anchor="start" x="136.5" y="-142.5" font-family="Helvetica,sans-Serif" font-size="10.00">+ k</text>
<text text-anchor="start" x="136.5" y="-131.5" font-family="Helvetica,sans-Serif" font-size="10.00">+ r</text>
<polyline fill="none" stroke="black" points="128.5,-124.5 187.5,-124.5 "/>
<text text-anchor="middle" x="158" y="-112.5" font-family="Helvetica,sans-Serif" font-size="10.00"> </text>
</a>
</g>
</g>
<!-- Node4&#45;&gt;Node1 -->
<g id="edge3" class="edge"><title>Node4&#45;&gt;Node1</title>
<path fill="none" stroke="#404040" d="M169.919,-105.442C174.655,-94.5962 181.154,-83.8546 190,-76 222.46,-47.177 272.415,-36.4035 306.342,-32.3828"/>
<polygon fill="none" stroke="#404040" points="306.551,-32.3617 312.116,-27.7758 318.49,-31.149 312.925,-35.7348 306.551,-32.3617"/>
<text text-anchor="middle" x="200" y="-79" font-family="Helvetica,sans-Serif" font-size="10.00"> +qc</text>
</g>
<!-- Node5 -->
<g id="node5" class="node"><title>Node5</title>
<g id="a_node5"><a xlink:href="structquaternion.html" target="_top" xlink:title="Quaternion, scalar last, using x, y, z. ">
<polygon fill="white" stroke="black" points="257,-122 257,-179 319,-179 319,-122 257,-122"/>
<text text-anchor="middle" x="288" y="-167" font-family="Helvetica,sans-Serif" font-size="10.00">quaternion</text>
<polyline fill="none" stroke="black" points="257,-160 319,-160 "/>
<text text-anchor="start" x="265" y="-148" font-family="Helvetica,sans-Serif" font-size="10.00">+ w</text>
<polyline fill="none" stroke="black" points="257,-141 319,-141 "/>
<text text-anchor="middle" x="288" y="-129" font-family="Helvetica,sans-Serif" font-size="10.00"> </text>
</a>
</g>
</g>
<!-- Node5&#45;&gt;Node1 -->
<g id="edge4" class="edge"><title>Node5&#45;&gt;Node1</title>
<path fill="none" stroke="#404040" d="M300.756,-121.784C308.045,-105.947 317.296,-85.8482 325.281,-68.4979"/>
<polygon fill="none" stroke="#404040" points="325.296,-68.4666 324.171,-61.3438 330.313,-57.5658 331.438,-64.6886 325.296,-68.4666"/>
<text text-anchor="middle" x="328.5" y="-79" font-family="Helvetica,sans-Serif" font-size="10.00"> +q</text>
</g>
<!-- Node6 -->
<g id="node6" class="node"><title>Node6</title>
<g id="a_node6"><a xlink:href="classcvector.html" target="_top" xlink:title="3 element cartesian vector ">
<polygon fill="white" stroke="black" points="208.5,-243.5 208.5,-377.5 287.5,-377.5 287.5,-243.5 208.5,-243.5"/>
<text text-anchor="middle" x="248" y="-365.5" font-family="Helvetica,sans-Serif" font-size="10.00">cvector</text>
<polyline fill="none" stroke="black" points="208.5,-358.5 287.5,-358.5 "/>
<text text-anchor="start" x="216.5" y="-346.5" font-family="Helvetica,sans-Serif" font-size="10.00">+ x</text>
<text text-anchor="start" x="216.5" y="-335.5" font-family="Helvetica,sans-Serif" font-size="10.00">+ y</text>
<text text-anchor="start" x="216.5" y="-324.5" font-family="Helvetica,sans-Serif" font-size="10.00">+ z</text>
<polyline fill="none" stroke="black" points="208.5,-317.5 287.5,-317.5 "/>
<text text-anchor="start" x="216.5" y="-305.5" font-family="Helvetica,sans-Serif" font-size="10.00">+ normalize()</text>
<text text-anchor="start" x="216.5" y="-294.5" font-family="Helvetica,sans-Serif" font-size="10.00">+ length()</text>
<text text-anchor="start" x="216.5" y="-283.5" font-family="Helvetica,sans-Serif" font-size="10.00">+ norm()</text>
<text text-anchor="start" x="216.5" y="-272.5" font-family="Helvetica,sans-Serif" font-size="10.00">+ norm2()</text>
<text text-anchor="start" x="216.5" y="-261.5" font-family="Helvetica,sans-Serif" font-size="10.00">+ normalized()</text>
<text text-anchor="start" x="216.5" y="-250.5" font-family="Helvetica,sans-Serif" font-size="10.00">+ operator[]()</text>
</a>
</g>
</g>
<!-- Node6&#45;&gt;Node1 -->
<g id="edge9" class="edge"><title>Node6&#45;&gt;Node1</title>
<path fill="none" stroke="#404040" d="M225.84,-243.169C215.865,-201.228 210.711,-147.175 233,-105 248.547,-75.5827 281.391,-55.5341 307.164,-43.6195"/>
<polygon fill="none" stroke="#404040" points="307.42,-43.5081 311.322,-37.4438 318.42,-38.7132 314.518,-44.7775 307.42,-43.5081"/>
<text text-anchor="middle" x="240.5" y="-148" font-family="Helvetica,sans-Serif" font-size="10.00"> +c</text>
</g>
<!-- Node6&#45;&gt;Node5 -->
<g id="edge5" class="edge"><title>Node6&#45;&gt;Node5</title>
<path fill="none" stroke="#404040" d="M264.732,-243.409C269.225,-225.66 273.945,-207.018 277.95,-191.197"/>
<polygon fill="none" stroke="#404040" points="278.046,-190.818 275.641,-184.02 280.991,-179.185 283.396,-185.984 278.046,-190.818"/>
<text text-anchor="middle" x="279.5" y="-217" font-family="Helvetica,sans-Serif" font-size="10.00"> +d</text>
</g>
<!-- Node7 -->
<g id="node7" class="node"><title>Node7</title>
<g id="a_node7"><a xlink:href="structavector.html" target="_top" xlink:title="3 element attitude vector. ">
<polygon fill="white" stroke="black" points="337.5,-111 337.5,-190 386.5,-190 386.5,-111 337.5,-111"/>
<text text-anchor="middle" x="362" y="-178" font-family="Helvetica,sans-Serif" font-size="10.00">avector</text>
<polyline fill="none" stroke="black" points="337.5,-171 386.5,-171 "/>
<text text-anchor="start" x="345.5" y="-159" font-family="Helvetica,sans-Serif" font-size="10.00">+ h</text>
<text text-anchor="start" x="345.5" y="-148" font-family="Helvetica,sans-Serif" font-size="10.00">+ e</text>
<text text-anchor="start" x="345.5" y="-137" font-family="Helvetica,sans-Serif" font-size="10.00">+ b</text>
<polyline fill="none" stroke="black" points="337.5,-130 386.5,-130 "/>
<text text-anchor="middle" x="362" y="-118" font-family="Helvetica,sans-Serif" font-size="10.00"> </text>
</a>
</g>
</g>
<!-- Node7&#45;&gt;Node1 -->
<g id="edge6" class="edge"><title>Node7&#45;&gt;Node1</title>
<path fill="none" stroke="#404040" d="M355.831,-110.702C353.746,-97.5838 351.415,-82.9231 349.317,-69.7337"/>
<polygon fill="none" stroke="#404040" points="349.279,-69.4885 344.386,-64.191 347.394,-57.6374 352.287,-62.9348 349.279,-69.4885"/>
<text text-anchor="middle" x="359.5" y="-79" font-family="Helvetica,sans-Serif" font-size="10.00"> +a</text>
</g>
<!-- Node8 -->
<g id="node8" class="node"><title>Node8</title>
<g id="a_node8"><a xlink:href="structrvector.html" target="_top" xlink:title="3 element generic row vector ">
<polygon fill="white" stroke="black" points="404.5,-122 404.5,-179 451.5,-179 451.5,-122 404.5,-122"/>
<text text-anchor="middle" x="428" y="-167" font-family="Helvetica,sans-Serif" font-size="10.00">rvector</text>
<polyline fill="none" stroke="black" points="404.5,-160 451.5,-160 "/>
<text text-anchor="start" x="412.5" y="-148" font-family="Helvetica,sans-Serif" font-size="10.00">+ col</text>
<polyline fill="none" stroke="black" points="404.5,-141 451.5,-141 "/>
<text text-anchor="middle" x="428" y="-129" font-family="Helvetica,sans-Serif" font-size="10.00"> </text>
</a>
</g>
</g>
<!-- Node8&#45;&gt;Node1 -->
<g id="edge7" class="edge"><title>Node8&#45;&gt;Node1</title>
<path fill="none" stroke="#404040" d="M408.286,-121.784C396.807,-105.646 382.179,-85.0809 369.68,-67.5095"/>
<polygon fill="none" stroke="#404040" points="369.563,-67.3444 362.826,-64.7736 362.607,-57.5658 369.345,-60.1366 369.563,-67.3444"/>
<text text-anchor="middle" x="389.5" y="-79" font-family="Helvetica,sans-Serif" font-size="10.00"> +r</text>
</g>
<!-- Node9 -->
<g id="node9" class="node"><title>Node9</title>
<g id="a_node9"><a xlink:href="structsvector.html" target="_top" xlink:title="3 element spherical vector ">
<polygon fill="white" stroke="black" points="469.5,-111 469.5,-190 526.5,-190 526.5,-111 469.5,-111"/>
<text text-anchor="middle" x="498" y="-178" font-family="Helvetica,sans-Serif" font-size="10.00">svector</text>
<polyline fill="none" stroke="black" points="469.5,-171 526.5,-171 "/>
<text text-anchor="start" x="477.5" y="-159" font-family="Helvetica,sans-Serif" font-size="10.00">+ phi</text>
<text text-anchor="start" x="477.5" y="-148" font-family="Helvetica,sans-Serif" font-size="10.00">+ lambda</text>
<text text-anchor="start" x="477.5" y="-137" font-family="Helvetica,sans-Serif" font-size="10.00">+ r</text>
<polyline fill="none" stroke="black" points="469.5,-130 526.5,-130 "/>
<text text-anchor="middle" x="498" y="-118" font-family="Helvetica,sans-Serif" font-size="10.00"> </text>
</a>
</g>
</g>
<!-- Node9&#45;&gt;Node1 -->
<g id="edge8" class="edge"><title>Node9&#45;&gt;Node1</title>
<path fill="none" stroke="#404040" d="M469.475,-114.079C466.4,-110.886 463.216,-107.804 460,-105 434.766,-83.0006 402.516,-62.8165 378.268,-48.9424"/>
<polygon fill="none" stroke="#404040" points="378.205,-48.9071 371.015,-49.4547 367.744,-43.028 374.934,-42.4805 378.205,-48.9071"/>
<text text-anchor="middle" x="444.5" y="-79" font-family="Helvetica,sans-Serif" font-size="10.00"> +s</text>
</g>
<!-- Node10 -->
<g id="node10" class="node"><title>Node10</title>
<g id="a_node10"><a xlink:href="structgvector.html" target="_top" xlink:title="3 element geodetic vector ">
<polygon fill="white" stroke="black" points="544.5,-111 544.5,-190 593.5,-190 593.5,-111 544.5,-111"/>
<text text-anchor="middle" x="569" y="-178" font-family="Helvetica,sans-Serif" font-size="10.00">gvector</text>
<polyline fill="none" stroke="black" points="544.5,-171 593.5,-171 "/>
<text text-anchor="start" x="552.5" y="-159" font-family="Helvetica,sans-Serif" font-size="10.00">+ lat</text>
<text text-anchor="start" x="552.5" y="-148" font-family="Helvetica,sans-Serif" font-size="10.00">+ lon</text>
<text text-anchor="start" x="552.5" y="-137" font-family="Helvetica,sans-Serif" font-size="10.00">+ h</text>
<polyline fill="none" stroke="black" points="544.5,-130 593.5,-130 "/>
<text text-anchor="middle" x="569" y="-118" font-family="Helvetica,sans-Serif" font-size="10.00"> </text>
</a>
</g>
</g>
<!-- Node10&#45;&gt;Node1 -->
<g id="edge10" class="edge"><title>Node10&#45;&gt;Node1</title>
<path fill="none" stroke="#404040" d="M544.284,-113.35C541.369,-110.304 538.262,-107.456 535,-105 487.329,-69.1061 420.299,-48.1515 379.355,-37.9033"/>
<polygon fill="none" stroke="#404040" points="379.204,-37.867 372.435,-40.3536 367.537,-35.0618 374.305,-32.5752 379.204,-37.867"/>
<text text-anchor="middle" x="514.5" y="-79" font-family="Helvetica,sans-Serif" font-size="10.00"> +g</text>
</g>
<!-- Node11 -->
<g id="node11" class="node"><title>Node11</title>
<g id="a_node11"><a xlink:href="structqfirst.html" target="_top" xlink:title="Quaternion, scalar first using vector elements. ">
<polygon fill="white" stroke="black" points="612,-105.5 612,-195.5 650,-195.5 650,-105.5 612,-105.5"/>
<text text-anchor="middle" x="631" y="-183.5" font-family="Helvetica,sans-Serif" font-size="10.00">qfirst</text>
<polyline fill="none" stroke="black" points="612,-176.5 650,-176.5 "/>
<text text-anchor="start" x="620" y="-164.5" font-family="Helvetica,sans-Serif" font-size="10.00">+ q0</text>
<text text-anchor="start" x="620" y="-153.5" font-family="Helvetica,sans-Serif" font-size="10.00">+ q1</text>
<text text-anchor="start" x="620" y="-142.5" font-family="Helvetica,sans-Serif" font-size="10.00">+ q2</text>
<text text-anchor="start" x="620" y="-131.5" font-family="Helvetica,sans-Serif" font-size="10.00">+ q3</text>
<polyline fill="none" stroke="black" points="612,-124.5 650,-124.5 "/>
<text text-anchor="middle" x="631" y="-112.5" font-family="Helvetica,sans-Serif" font-size="10.00"> </text>
</a>
</g>
</g>
<!-- Node11&#45;&gt;Node1 -->
<g id="edge11" class="edge"><title>Node11&#45;&gt;Node1</title>
<path fill="none" stroke="#404040" d="M611.857,-115.054C608.881,-111.357 605.588,-107.895 602,-105 536.06,-51.7985 433.9,-36.3352 379.694,-31.8411"/>
<polygon fill="none" stroke="#404040" points="379.593,-31.8338 373.317,-35.3852 367.625,-30.9579 373.901,-27.4065 379.593,-31.8338"/>
<text text-anchor="middle" x="582" y="-79" font-family="Helvetica,sans-Serif" font-size="10.00"> +qf</text>
</g>
</g>
</svg>
        <g id="navigator" transform="translate(0 0)" fill="#404254">
                <rect fill="#f2f5e9" fill-opacity="0.5" stroke="#606060" stroke-width=".5" x="0" y="0" width="60" height="60"/>
                <use id="zoomplus" xlink:href="#zoomPlus" x="17" y="9" onmousedown="handleZoom(evt,'in')"/>
                <use id="zoomminus" xlink:href="#zoomMin" x="42" y="9" onmousedown="handleZoom(evt,'out')"/>
                <use id="reset" xlink:href="#resetDef" x="30" y="36" onmousedown="handleReset()"/>
                <g id="arrowUp" xlink:href="#dirArrow" transform="translate(30 24)" onmousedown="handlePan(0,-1)">
                  <use xlink:href="#rim" fill="#404040">
                        <set attributeName="fill" to="#808080" begin="arrowUp.mouseover" end="arrowUp.mouseout"/>
                  </use>
                  <path fill="none" stroke="white" stroke-width="1.5" d="M0,-3.0v7 M-2.5,-0.5L0,-3.0L2.5,-0.5"/>
                </g>
                <g id="arrowRight" xlink:href="#dirArrow" transform="rotate(90) translate(36 -43)" onmousedown="handlePan(1,0)">
                  <use xlink:href="#rim" fill="#404040">
                        <set attributeName="fill" to="#808080" begin="arrowRight.mouseover" end="arrowRight.mouseout"/>
                  </use>
                  <path fill="none" stroke="white" stroke-width="1.5" d="M0,-3.0v7 M-2.5,-0.5L0,-3.0L2.5,-0.5"/>
                </g>
                <g id="arrowDown" xlink:href="#dirArrow" transform="rotate(180) translate(-30 -48)" onmousedown="handlePan(0,1)">
                  <use xlink:href="#rim" fill="#404040">
                        <set attributeName="fill" to="#808080" begin="arrowDown.mouseover" end="arrowDown.mouseout"/>
                  </use>
                  <path fill="none" stroke="white" stroke-width="1.5" d="M0,-3.0v7 M-2.5,-0.5L0,-3.0L2.5,-0.5"/>
                </g>
                <g id="arrowLeft" xlink:href="#dirArrow" transform="rotate(270) translate(-36 17)" onmousedown="handlePan(-1,0)">
                  <use xlink:href="#rim" fill="#404040">
                        <set attributeName="fill" to="#808080" begin="arrowLeft.mouseover" end="arrowLeft.mouseout"/>
                  </use>
                  <path fill="none" stroke="white" stroke-width="1.5" d="M0,-3.0v7 M-2.5,-0.5L0,-3.0L2.5,-0.5"/>
                </g>
        </g>
        <svg viewBox="0 0 15 15" width="100%" height="30px" preserveAspectRatio="xMaxYMin meet">
         <g id="arrow_out" transform="scale(0.3 0.3)">
          <a xlink:href="unionuvector__coll__graph_org.svg" target="_base">
           <rect id="button" ry="5" rx="5" y="6" x="6" height="38" width="38"
                fill="#f2f5e9" fill-opacity="0.5" stroke="#606060" stroke-width="1.0"/>
           <path id="arrow"
             d="M 11.500037,31.436501 C 11.940474,20.09759 22.043105,11.32322 32.158766,21.979434 L 37.068811,17.246167 C 37.068811,17.246167 37.088388,32 37.088388,32 L 22.160133,31.978069 C 22.160133,31.978069 26.997745,27.140456 26.997745,27.140456 C 18.528582,18.264221 13.291696,25.230495 11.500037,31.436501 z"
             style="fill:#404040;"/>
          </a>
         </g>
        </svg>
</svg>
