<?xml version="1.0" encoding="UTF-8" standalone="no"?>
<!DOCTYPE svg PUBLIC "-//W3C//DTD SVG 1.1//EN"
 "http://www.w3.org/Graphics/SVG/1.1/DTD/svg11.dtd">
<!-- Generated by graphviz version 2.38.0 (20140413.2041)
 -->
<!-- Title: vector.cpp Pages: 1 -->
<svg width="1471pt" height="364pt"
 viewBox="0.00 0.00 1471.14 364.00" xmlns="http://www.w3.org/2000/svg" xmlns:xlink="http://www.w3.org/1999/xlink">
<g id="graph0" class="graph" transform="scale(1 1) rotate(0) translate(4 360)">
<title>vector.cpp</title>
<polygon fill="white" stroke="none" points="-4,4 -4,-360 1467.14,-360 1467.14,4 -4,4"/>
<!-- Node1 -->
<g id="node1" class="node"><title>Node1</title>
<polygon fill="#bfbfbf" stroke="black" points="1174,-336.5 1174,-355.5 1236,-355.5 1236,-336.5 1174,-336.5"/>
<text text-anchor="middle" x="1205" y="-343.5" font-family="Helvetica,sans-Serif" font-size="10.00">vector.cpp</text>
</g>
<!-- Node2 -->
<g id="node2" class="node"><title>Node2</title>
<g id="a_node2"><a xlink:href="vector_8h.html" target="_top" xlink:title="vector.h">
<polygon fill="white" stroke="black" points="1206,-224.5 1206,-243.5 1258,-243.5 1258,-224.5 1206,-224.5"/>
<text text-anchor="middle" x="1232" y="-231.5" font-family="Helvetica,sans-Serif" font-size="10.00">vector.h</text>
</a>
</g>
</g>
<!-- Node1&#45;&gt;Node2 -->
<g id="edge1" class="edge"><title>Node1&#45;&gt;Node2</title>
<path fill="none" stroke="midnightblue" d="M1207.12,-336.368C1211.48,-318.617 1221.53,-277.666 1227.44,-253.597"/>
<polygon fill="midnightblue" stroke="midnightblue" points="1230.91,-254.137 1229.89,-243.591 1224.11,-252.469 1230.91,-254.137"/>
</g>
<!-- Node31 -->
<g id="node31" class="node"><title>Node31</title>
<g id="a_node31"><a xlink:href="matrix_8h.html" target="_top" xlink:title="matrix.h">
<polygon fill="white" stroke="black" points="1152,-280.5 1152,-299.5 1204,-299.5 1204,-280.5 1152,-280.5"/>
<text text-anchor="middle" x="1178" y="-287.5" font-family="Helvetica,sans-Serif" font-size="10.00">matrix.h</text>
</a>
</g>
</g>
<!-- Node1&#45;&gt;Node31 -->
<g id="edge41" class="edge"><title>Node1&#45;&gt;Node31</title>
<path fill="none" stroke="midnightblue" d="M1200.54,-336.083C1196.85,-328.691 1191.48,-317.953 1186.91,-308.811"/>
<polygon fill="midnightblue" stroke="midnightblue" points="1189.98,-307.13 1182.38,-299.751 1183.72,-310.261 1189.98,-307.13"/>
</g>
<!-- Node3 -->
<g id="node3" class="node"><title>Node3</title>
<g id="a_node3"><a xlink:href="config_cosmos_8h.html" target="_top" xlink:title="Headers and definitions common to all COSMOS. ">
<polygon fill="white" stroke="black" points="690.5,-112.5 690.5,-131.5 813.5,-131.5 813.5,-112.5 690.5,-112.5"/>
<text text-anchor="middle" x="752" y="-119.5" font-family="Helvetica,sans-Serif" font-size="10.00">support/configCosmos.h</text>
</a>
</g>
</g>
<!-- Node2&#45;&gt;Node3 -->
<g id="edge2" class="edge"><title>Node2&#45;&gt;Node3</title>
<path fill="none" stroke="midnightblue" d="M1205.85,-227.008C1128.31,-209.237 898.803,-156.642 799.111,-133.796"/>
<polygon fill="midnightblue" stroke="midnightblue" points="799.84,-130.373 789.311,-131.55 798.276,-137.196 799.84,-130.373"/>
</g>
<!-- Node13 -->
<g id="node13" class="node"><title>Node13</title>
<polygon fill="white" stroke="#bfbfbf" points="1406,-56.5 1406,-75.5 1450,-75.5 1450,-56.5 1406,-56.5"/>
<text text-anchor="middle" x="1428" y="-63.5" font-family="Helvetica,sans-Serif" font-size="10.00">cmath</text>
</g>
<!-- Node2&#45;&gt;Node13 -->
<g id="edge39" class="edge"><title>Node2&#45;&gt;Node13</title>
<path fill="none" stroke="midnightblue" d="M1242.83,-224.486C1254.18,-215.52 1272.48,-200.936 1288,-188 1332.76,-150.695 1384.37,-105.514 1410.65,-82.3427"/>
<polygon fill="midnightblue" stroke="midnightblue" points="1413.08,-84.8723 1418.26,-75.6306 1408.45,-79.6243 1413.08,-84.8723"/>
</g>
<!-- Node15 -->
<g id="node15" class="node"><title>Node15</title>
<polygon fill="white" stroke="#bfbfbf" points="1334,-56.5 1334,-75.5 1388,-75.5 1388,-56.5 1334,-56.5"/>
<text text-anchor="middle" x="1361" y="-63.5" font-family="Helvetica,sans-Serif" font-size="10.00">iostream</text>
</g>
<!-- Node2&#45;&gt;Node15 -->
<g id="edge37" class="edge"><title>Node2&#45;&gt;Node15</title>
<path fill="none" stroke="midnightblue" d="M1238.94,-224.075C1259.59,-197.493 1320.95,-118.538 1347.97,-83.7633"/>
<polygon fill="midnightblue" stroke="midnightblue" points="1350.97,-85.6119 1354.34,-75.5681 1345.44,-81.3166 1350.97,-85.6119"/>
</g>
<!-- Node19 -->
<g id="node19" class="node"><title>Node19</title>
<polygon fill="white" stroke="#bfbfbf" points="1284,-0.5 1284,-19.5 1328,-19.5 1328,-0.5 1284,-0.5"/>
<text text-anchor="middle" x="1306" y="-7.5" font-family="Helvetica,sans-Serif" font-size="10.00">vector</text>
</g>
<!-- Node2&#45;&gt;Node19 -->
<g id="edge40" class="edge"><title>Node2&#45;&gt;Node19</title>
<path fill="none" stroke="midnightblue" d="M1258.28,-224.516C1308.79,-206.577 1418.02,-159.438 1459,-76 1482.87,-27.4095 1389.61,-15.1284 1338.06,-12.0346"/>
<polygon fill="midnightblue" stroke="midnightblue" points="1338.22,-8.53818 1328.05,-11.5171 1337.86,-15.5288 1338.22,-8.53818"/>
</g>
<!-- Node29 -->
<g id="node29" class="node"><title>Node29</title>
<g id="a_node29"><a xlink:href="math_2constants_8h.html" target="_top" xlink:title="constants.h">
<polygon fill="white" stroke="black" points="780,-168.5 780,-187.5 848,-187.5 848,-168.5 780,-168.5"/>
<text text-anchor="middle" x="814" y="-175.5" font-family="Helvetica,sans-Serif" font-size="10.00">constants.h</text>
</a>
</g>
</g>
<!-- Node2&#45;&gt;Node29 -->
<g id="edge34" class="edge"><title>Node2&#45;&gt;Node29</title>
<path fill="none" stroke="midnightblue" d="M1205.85,-229.622C1136.12,-220.614 945.137,-195.941 858.176,-184.707"/>
<polygon fill="midnightblue" stroke="midnightblue" points="858.467,-181.216 848.101,-183.405 857.571,-188.158 858.467,-181.216"/>
</g>
<!-- Node30 -->
<g id="node30" class="node"><title>Node30</title>
<polygon fill="white" stroke="#bfbfbf" points="1207,-168.5 1207,-187.5 1257,-187.5 1257,-168.5 1207,-168.5"/>
<text text-anchor="middle" x="1232" y="-175.5" font-family="Helvetica,sans-Serif" font-size="10.00">iomanip</text>
</g>
<!-- Node2&#45;&gt;Node30 -->
<g id="edge38" class="edge"><title>Node2&#45;&gt;Node30</title>
<path fill="none" stroke="midnightblue" d="M1232,-224.083C1232,-217.006 1232,-206.861 1232,-197.986"/>
<polygon fill="midnightblue" stroke="midnightblue" points="1235.5,-197.751 1232,-187.751 1228.5,-197.751 1235.5,-197.751"/>
</g>
<!-- Node4 -->
<g id="node4" class="node"><title>Node4</title>
<polygon fill="white" stroke="#bfbfbf" points="224.5,-56.5 224.5,-75.5 269.5,-75.5 269.5,-56.5 224.5,-56.5"/>
<text text-anchor="middle" x="247" y="-63.5" font-family="Helvetica,sans-Serif" font-size="10.00">climits</text>
</g>
<!-- Node3&#45;&gt;Node4 -->
<g id="edge3" class="edge"><title>Node3&#45;&gt;Node4</title>
<path fill="none" stroke="midnightblue" d="M690.499,-118.849C601.555,-114.927 431.847,-104.401 279.571,-75.9815"/>
<polygon fill="midnightblue" stroke="midnightblue" points="280.045,-72.509 269.568,-74.0836 278.74,-79.3863 280.045,-72.509"/>
</g>
<!-- Node5 -->
<g id="node5" class="node"><title>Node5</title>
<polygon fill="white" stroke="#bfbfbf" points="287.5,-56.5 287.5,-75.5 334.5,-75.5 334.5,-56.5 287.5,-56.5"/>
<text text-anchor="middle" x="311" y="-63.5" font-family="Helvetica,sans-Serif" font-size="10.00">csignal</text>
</g>
<!-- Node3&#45;&gt;Node5 -->
<g id="edge4" class="edge"><title>Node3&#45;&gt;Node5</title>
<path fill="none" stroke="midnightblue" d="M690.224,-116.445C610.853,-110.058 468.998,-96.8306 349,-76 347.539,-75.7463 346.05,-75.4703 344.549,-75.1776"/>
<polygon fill="midnightblue" stroke="midnightblue" points="345.135,-71.7241 334.625,-73.0638 343.676,-78.5705 345.135,-71.7241"/>
</g>
<!-- Node6 -->
<g id="node6" class="node"><title>Node6</title>
<polygon fill="white" stroke="#bfbfbf" points="0,-56.5 0,-75.5 46,-75.5 46,-56.5 0,-56.5"/>
<text text-anchor="middle" x="23" y="-63.5" font-family="Helvetica,sans-Serif" font-size="10.00">cstdint</text>
</g>
<!-- Node3&#45;&gt;Node6 -->
<g id="edge5" class="edge"><title>Node3&#45;&gt;Node6</title>
<path fill="none" stroke="midnightblue" d="M690.43,-121.337C569.982,-121.061 294.835,-115.838 56.1917,-75.8429"/>
<polygon fill="midnightblue" stroke="midnightblue" points="56.7347,-72.385 46.2895,-74.1596 55.5615,-79.286 56.7347,-72.385"/>
</g>
<!-- Node7 -->
<g id="node7" class="node"><title>Node7</title>
<polygon fill="white" stroke="#bfbfbf" points="771,-56.5 771,-75.5 827,-75.5 827,-56.5 771,-56.5"/>
<text text-anchor="middle" x="799" y="-63.5" font-family="Helvetica,sans-Serif" font-size="10.00">cinttypes</text>
</g>
<!-- Node3&#45;&gt;Node7 -->
<g id="edge6" class="edge"><title>Node3&#45;&gt;Node7</title>
<path fill="none" stroke="midnightblue" d="M759.761,-112.083C766.537,-104.298 776.543,-92.8015 784.755,-83.3665"/>
<polygon fill="midnightblue" stroke="midnightblue" points="787.458,-85.592 791.383,-75.7511 782.178,-80.9963 787.458,-85.592"/>
</g>
<!-- Node8 -->
<g id="node8" class="node"><title>Node8</title>
<polygon fill="white" stroke="#bfbfbf" points="845.5,-56.5 845.5,-75.5 888.5,-75.5 888.5,-56.5 845.5,-56.5"/>
<text text-anchor="middle" x="867" y="-63.5" font-family="Helvetica,sans-Serif" font-size="10.00">cstdio</text>
</g>
<!-- Node3&#45;&gt;Node8 -->
<g id="edge7" class="edge"><title>Node3&#45;&gt;Node8</title>
<path fill="none" stroke="midnightblue" d="M770.222,-112.444C788.896,-103.675 818.156,-89.9355 839.617,-79.8579"/>
<polygon fill="midnightblue" stroke="midnightblue" points="841.299,-82.935 848.863,-75.5164 838.324,-76.5988 841.299,-82.935"/>
</g>
<!-- Node9 -->
<g id="node9" class="node"><title>Node9</title>
<polygon fill="white" stroke="#bfbfbf" points="906.5,-56.5 906.5,-75.5 955.5,-75.5 955.5,-56.5 906.5,-56.5"/>
<text text-anchor="middle" x="931" y="-63.5" font-family="Helvetica,sans-Serif" font-size="10.00">cstddef</text>
</g>
<!-- Node3&#45;&gt;Node9 -->
<g id="edge8" class="edge"><title>Node3&#45;&gt;Node9</title>
<path fill="none" stroke="midnightblue" d="M780.363,-112.444C811.81,-102.957 862.547,-87.6507 896.329,-77.4595"/>
<polygon fill="midnightblue" stroke="midnightblue" points="897.665,-80.7121 906.228,-74.473 895.644,-74.0104 897.665,-80.7121"/>
</g>
<!-- Node10 -->
<g id="node10" class="node"><title>Node10</title>
<polygon fill="white" stroke="#bfbfbf" points="973.5,-56.5 973.5,-75.5 1018.5,-75.5 1018.5,-56.5 973.5,-56.5"/>
<text text-anchor="middle" x="996" y="-63.5" font-family="Helvetica,sans-Serif" font-size="10.00">cstdlib</text>
</g>
<!-- Node3&#45;&gt;Node10 -->
<g id="edge9" class="edge"><title>Node3&#45;&gt;Node10</title>
<path fill="none" stroke="midnightblue" d="M796.45,-112.439C837.377,-104.361 899.977,-91.5137 963.53,-75.9866"/>
<polygon fill="midnightblue" stroke="midnightblue" points="964.45,-79.3648 973.323,-73.5745 962.776,-72.568 964.45,-79.3648"/>
</g>
<!-- Node11 -->
<g id="node11" class="node"><title>Node11</title>
<polygon fill="white" stroke="#bfbfbf" points="1037,-56.5 1037,-75.5 1081,-75.5 1081,-56.5 1037,-56.5"/>
<text text-anchor="middle" x="1059" y="-63.5" font-family="Helvetica,sans-Serif" font-size="10.00">cerrno</text>
</g>
<!-- Node3&#45;&gt;Node11 -->
<g id="edge10" class="edge"><title>Node3&#45;&gt;Node11</title>
<path fill="none" stroke="midnightblue" d="M813.541,-112.942C867.226,-105.455 947.361,-93.1848 1026.55,-75.8655"/>
<polygon fill="midnightblue" stroke="midnightblue" points="1027.7,-79.1962 1036.7,-73.6155 1026.18,-72.362 1027.7,-79.1962"/>
</g>
<!-- Node12 -->
<g id="node12" class="node"><title>Node12</title>
<polygon fill="white" stroke="#bfbfbf" points="1099,-56.5 1099,-75.5 1145,-75.5 1145,-56.5 1099,-56.5"/>
<text text-anchor="middle" x="1122" y="-63.5" font-family="Helvetica,sans-Serif" font-size="10.00">cstring</text>
</g>
<!-- Node3&#45;&gt;Node12 -->
<g id="edge11" class="edge"><title>Node3&#45;&gt;Node12</title>
<path fill="none" stroke="midnightblue" d="M813.809,-115.428C879.722,-108.89 987.27,-96.5183 1088.58,-76.0449"/>
<polygon fill="midnightblue" stroke="midnightblue" points="1089.58,-79.4115 1098.68,-73.9726 1088.18,-72.5544 1089.58,-79.4115"/>
</g>
<!-- Node3&#45;&gt;Node13 -->
<g id="edge12" class="edge"><title>Node3&#45;&gt;Node13</title>
<path fill="none" stroke="midnightblue" d="M813.898,-121.042C927.681,-120.171 1177.65,-113.856 1395.75,-75.8396"/>
<polygon fill="midnightblue" stroke="midnightblue" points="1396.55,-79.2532 1405.78,-74.0642 1395.33,-72.3603 1396.55,-79.2532"/>
</g>
<!-- Node14 -->
<g id="node14" class="node"><title>Node14</title>
<polygon fill="white" stroke="#bfbfbf" points="1163.5,-56.5 1163.5,-75.5 1208.5,-75.5 1208.5,-56.5 1163.5,-56.5"/>
<text text-anchor="middle" x="1186" y="-63.5" font-family="Helvetica,sans-Serif" font-size="10.00">iosfwd</text>
</g>
<!-- Node3&#45;&gt;Node14 -->
<g id="edge13" class="edge"><title>Node3&#45;&gt;Node14</title>
<path fill="none" stroke="midnightblue" d="M813.767,-117.218C891.079,-111.789 1027.6,-99.9053 1153.56,-75.764"/>
<polygon fill="midnightblue" stroke="midnightblue" points="1154.24,-79.1984 1163.38,-73.8521 1152.9,-72.3274 1154.24,-79.1984"/>
</g>
<!-- Node3&#45;&gt;Node15 -->
<g id="edge14" class="edge"><title>Node3&#45;&gt;Node15</title>
<path fill="none" stroke="midnightblue" d="M813.67,-118.883C918.292,-114.673 1137.03,-103.199 1320,-76 1321.26,-75.8132 1322.53,-75.61 1323.82,-75.3936"/>
<polygon fill="midnightblue" stroke="midnightblue" points="1324.57,-78.8143 1333.75,-73.5274 1323.27,-71.9348 1324.57,-78.8143"/>
</g>
<!-- Node16 -->
<g id="node16" class="node"><title>Node16</title>
<polygon fill="white" stroke="#bfbfbf" points="1226.5,-56.5 1226.5,-75.5 1277.5,-75.5 1277.5,-56.5 1226.5,-56.5"/>
<text text-anchor="middle" x="1252" y="-63.5" font-family="Helvetica,sans-Serif" font-size="10.00">unistd.h</text>
</g>
<!-- Node3&#45;&gt;Node16 -->
<g id="edge15" class="edge"><title>Node3&#45;&gt;Node16</title>
<path fill="none" stroke="midnightblue" d="M813.716,-118.081C901.246,-113.267 1066.52,-101.692 1216.62,-75.7765"/>
<polygon fill="midnightblue" stroke="midnightblue" points="1217.24,-79.2216 1226.49,-74.0487 1216.03,-72.3266 1217.24,-79.2216"/>
</g>
<!-- Node17 -->
<g id="node17" class="node"><title>Node17</title>
<polygon fill="white" stroke="#bfbfbf" points="64,-56.5 64,-75.5 108,-75.5 108,-56.5 64,-56.5"/>
<text text-anchor="middle" x="86" y="-63.5" font-family="Helvetica,sans-Serif" font-size="10.00">fcntl.h</text>
</g>
<!-- Node3&#45;&gt;Node17 -->
<g id="edge16" class="edge"><title>Node3&#45;&gt;Node17</title>
<path fill="none" stroke="midnightblue" d="M690.167,-120.945C577.732,-119.903 332.38,-113.3 118.076,-75.8117"/>
<polygon fill="midnightblue" stroke="midnightblue" points="118.675,-72.3635 108.217,-74.0612 117.451,-79.2557 118.675,-72.3635"/>
</g>
<!-- Node18 -->
<g id="node18" class="node"><title>Node18</title>
<polygon fill="white" stroke="#bfbfbf" points="126.5,-56.5 126.5,-75.5 167.5,-75.5 167.5,-56.5 126.5,-56.5"/>
<text text-anchor="middle" x="147" y="-63.5" font-family="Helvetica,sans-Serif" font-size="10.00">string</text>
</g>
<!-- Node3&#45;&gt;Node18 -->
<g id="edge17" class="edge"><title>Node3&#45;&gt;Node18</title>
<path fill="none" stroke="midnightblue" d="M690.421,-119.622C585.433,-116.497 365.344,-106.574 182,-76 180.53,-75.7549 179.032,-75.4778 177.523,-75.1768"/>
<polygon fill="midnightblue" stroke="midnightblue" points="178.128,-71.7252 167.602,-72.9281 176.581,-78.552 178.128,-71.7252"/>
</g>
<!-- Node3&#45;&gt;Node19 -->
<g id="edge18" class="edge"><title>Node3&#45;&gt;Node19</title>
<path fill="none" stroke="midnightblue" d="M813.77,-119.633C946.512,-116.151 1249.91,-105.075 1286,-76 1299.63,-65.0209 1304.18,-44.966 1305.6,-30.0251"/>
<polygon fill="midnightblue" stroke="midnightblue" points="1309.1,-30.0118 1306.17,-19.8316 1302.11,-29.6201 1309.1,-30.0118"/>
</g>
<!-- Node20 -->
<g id="node20" class="node"><title>Node20</title>
<polygon fill="white" stroke="#bfbfbf" points="639.5,-56.5 639.5,-75.5 682.5,-75.5 682.5,-56.5 639.5,-56.5"/>
<text text-anchor="middle" x="661" y="-63.5" font-family="Helvetica,sans-Serif" font-size="10.00">deque</text>
</g>
<!-- Node3&#45;&gt;Node20 -->
<g id="edge19" class="edge"><title>Node3&#45;&gt;Node20</title>
<path fill="none" stroke="midnightblue" d="M737.379,-112.324C723.051,-103.822 700.987,-90.7288 684.251,-80.7975"/>
<polygon fill="midnightblue" stroke="midnightblue" points="685.97,-77.7478 675.584,-75.6545 682.398,-83.7677 685.97,-77.7478"/>
</g>
<!-- Node21 -->
<g id="node21" class="node"><title>Node21</title>
<polygon fill="white" stroke="#bfbfbf" points="211,-0.5 211,-19.5 255,-19.5 255,-0.5 211,-0.5"/>
<text text-anchor="middle" x="233" y="-7.5" font-family="Helvetica,sans-Serif" font-size="10.00">mutex</text>
</g>
<!-- Node3&#45;&gt;Node21 -->
<g id="edge20" class="edge"><title>Node3&#45;&gt;Node21</title>
<path fill="none" stroke="midnightblue" d="M690.447,-120.421C556.225,-118.519 246.646,-110.409 215,-76 203.036,-62.9913 211.437,-42.7267 220.348,-28.2845"/>
<polygon fill="midnightblue" stroke="midnightblue" points="223.397,-30.022 226.068,-19.7694 217.587,-26.1185 223.397,-30.022"/>
</g>
<!-- Node22 -->
<g id="node22" class="node"><title>Node22</title>
<polygon fill="white" stroke="#bfbfbf" points="310,-0.5 310,-19.5 354,-19.5 354,-0.5 310,-0.5"/>
<text text-anchor="middle" x="332" y="-7.5" font-family="Helvetica,sans-Serif" font-size="10.00">thread</text>
</g>
<!-- Node3&#45;&gt;Node22 -->
<g id="edge21" class="edge"><title>Node3&#45;&gt;Node22</title>
<path fill="none" stroke="midnightblue" d="M690.209,-117.077C605.449,-110.986 458.036,-97.6498 409,-76 383.614,-64.7918 360.124,-42.5173 345.928,-27.1939"/>
<polygon fill="midnightblue" stroke="midnightblue" points="348.324,-24.6228 339.044,-19.5104 343.11,-29.2939 348.324,-24.6228"/>
</g>
<!-- Node23 -->
<g id="node23" class="node"><title>Node23</title>
<polygon fill="white" stroke="#bfbfbf" points="372.5,-0.5 372.5,-19.5 467.5,-19.5 467.5,-0.5 372.5,-0.5"/>
<text text-anchor="middle" x="420" y="-7.5" font-family="Helvetica,sans-Serif" font-size="10.00">condition_variable</text>
</g>
<!-- Node3&#45;&gt;Node23 -->
<g id="edge22" class="edge"><title>Node3&#45;&gt;Node23</title>
<path fill="none" stroke="midnightblue" d="M690.339,-121.88C604.168,-121.638 454.393,-115.369 420,-76 409.114,-63.5391 410.698,-44.0292 414.039,-29.6327"/>
<polygon fill="midnightblue" stroke="midnightblue" points="417.46,-30.3934 416.758,-19.8219 410.714,-28.5235 417.46,-30.3934"/>
</g>
<!-- Node24 -->
<g id="node24" class="node"><title>Node24</title>
<polygon fill="white" stroke="#bfbfbf" points="532.5,-0.5 532.5,-19.5 575.5,-19.5 575.5,-0.5 532.5,-0.5"/>
<text text-anchor="middle" x="554" y="-7.5" font-family="Helvetica,sans-Serif" font-size="10.00">queue</text>
</g>
<!-- Node3&#45;&gt;Node24 -->
<g id="edge23" class="edge"><title>Node3&#45;&gt;Node24</title>
<path fill="none" stroke="midnightblue" d="M707.904,-112.439C679.773,-105.595 643.398,-94.0924 615,-76 595.112,-63.3295 577.288,-42.7141 566.117,-28.1005"/>
<polygon fill="midnightblue" stroke="midnightblue" points="568.819,-25.8668 560.062,-19.9018 563.188,-30.0253 568.819,-25.8668"/>
</g>
<!-- Node25 -->
<g id="node25" class="node"><title>Node25</title>
<polygon fill="white" stroke="#bfbfbf" points="701,-56.5 701,-75.5 753,-75.5 753,-56.5 701,-56.5"/>
<text text-anchor="middle" x="727" y="-63.5" font-family="Helvetica,sans-Serif" font-size="10.00">sstream</text>
</g>
<!-- Node3&#45;&gt;Node25 -->
<g id="edge24" class="edge"><title>Node3&#45;&gt;Node25</title>
<path fill="none" stroke="midnightblue" d="M747.872,-112.083C744.486,-104.77 739.584,-94.1814 735.381,-85.1034"/>
<polygon fill="midnightblue" stroke="midnightblue" points="738.429,-83.3553 731.051,-75.7511 732.077,-86.2962 738.429,-83.3553"/>
</g>
<!-- Node26 -->
<g id="node26" class="node"><title>Node26</title>
<polygon fill="white" stroke="#bfbfbf" points="593.5,-0.5 593.5,-19.5 628.5,-19.5 628.5,-0.5 593.5,-0.5"/>
<text text-anchor="middle" x="611" y="-7.5" font-family="Helvetica,sans-Serif" font-size="10.00">map</text>
</g>
<!-- Node3&#45;&gt;Node26 -->
<g id="edge25" class="edge"><title>Node3&#45;&gt;Node26</title>
<path fill="none" stroke="midnightblue" d="M698.169,-112.44C674.362,-106.084 647.791,-95.0624 630,-76 618.353,-63.5209 613.806,-44.2895 612.051,-29.9787"/>
<polygon fill="midnightblue" stroke="midnightblue" points="615.518,-29.4372 611.161,-19.7797 608.544,-30.0463 615.518,-29.4372"/>
</g>
<!-- Node27 -->
<g id="node27" class="node"><title>Node27</title>
<g id="a_node27"><a xlink:href="cosmos-defs_8h.html" target="_top" xlink:title="COSMOS definitions Definitions specific to the COSMOS environement. ">
<polygon fill="white" stroke="black" points="429,-56.5 429,-75.5 545,-75.5 545,-56.5 429,-56.5"/>
<text text-anchor="middle" x="487" y="-63.5" font-family="Helvetica,sans-Serif" font-size="10.00">support/cosmos&#45;defs.h</text>
</a>
</g>
</g>
<!-- Node3&#45;&gt;Node27 -->
<g id="edge26" class="edge"><title>Node3&#45;&gt;Node27</title>
<path fill="none" stroke="midnightblue" d="M710.01,-112.444C663.588,-102.984 588.772,-87.7384 538.76,-77.5472"/>
<polygon fill="midnightblue" stroke="midnightblue" points="539.291,-74.0837 528.794,-75.5164 537.893,-80.9427 539.291,-74.0837"/>
</g>
<!-- Node27&#45;&gt;Node19 -->
<g id="edge28" class="edge"><title>Node27&#45;&gt;Node19</title>
<path fill="none" stroke="midnightblue" d="M545.244,-61.1597C705.586,-50.5877 1149.79,-21.2997 1273.59,-13.1367"/>
<polygon fill="midnightblue" stroke="midnightblue" points="1274.16,-16.6068 1283.91,-12.4564 1273.7,-9.62196 1274.16,-16.6068"/>
</g>
<!-- Node27&#45;&gt;Node21 -->
<g id="edge32" class="edge"><title>Node27&#45;&gt;Node21</title>
<path fill="none" stroke="midnightblue" d="M446.753,-56.4435C396.53,-45.7661 311.634,-27.7174 265.389,-17.8859"/>
<polygon fill="midnightblue" stroke="midnightblue" points="265.83,-14.4015 255.321,-15.7454 264.374,-21.2484 265.83,-14.4015"/>
</g>
<!-- Node27&#45;&gt;Node22 -->
<g id="edge31" class="edge"><title>Node27&#45;&gt;Node22</title>
<path fill="none" stroke="midnightblue" d="M462.44,-56.4435C435.867,-47.1858 393.387,-32.3866 364.167,-22.2066"/>
<polygon fill="midnightblue" stroke="midnightblue" points="365.027,-18.7999 354.432,-18.8151 362.724,-25.4103 365.027,-18.7999"/>
</g>
<!-- Node27&#45;&gt;Node23 -->
<g id="edge33" class="edge"><title>Node27&#45;&gt;Node23</title>
<path fill="none" stroke="midnightblue" d="M476.235,-56.324C466.234,-48.2631 451.113,-36.0765 439.07,-26.3695"/>
<polygon fill="midnightblue" stroke="midnightblue" points="440.943,-23.3841 430.961,-19.8339 436.55,-28.8343 440.943,-23.3841"/>
</g>
<!-- Node27&#45;&gt;Node24 -->
<g id="edge30" class="edge"><title>Node27&#45;&gt;Node24</title>
<path fill="none" stroke="midnightblue" d="M497.765,-56.324C507.766,-48.2631 522.887,-36.0765 534.93,-26.3695"/>
<polygon fill="midnightblue" stroke="midnightblue" points="537.45,-28.8343 543.039,-19.8339 533.057,-23.3841 537.45,-28.8343"/>
</g>
<!-- Node27&#45;&gt;Node26 -->
<g id="edge27" class="edge"><title>Node27&#45;&gt;Node26</title>
<path fill="none" stroke="midnightblue" d="M506.648,-56.4435C527.562,-47.3359 560.792,-32.865 584.121,-22.7053"/>
<polygon fill="midnightblue" stroke="midnightblue" points="585.678,-25.845 593.449,-18.6433 582.883,-19.4271 585.678,-25.845"/>
</g>
<!-- Node28 -->
<g id="node28" class="node"><title>Node28</title>
<polygon fill="white" stroke="#bfbfbf" points="485.5,-0.5 485.5,-19.5 514.5,-19.5 514.5,-0.5 485.5,-0.5"/>
<text text-anchor="middle" x="500" y="-7.5" font-family="Helvetica,sans-Serif" font-size="10.00">list</text>
</g>
<!-- Node27&#45;&gt;Node28 -->
<g id="edge29" class="edge"><title>Node27&#45;&gt;Node28</title>
<path fill="none" stroke="midnightblue" d="M489.147,-56.083C490.869,-48.9272 493.347,-38.6353 495.5,-29.6911"/>
<polygon fill="midnightblue" stroke="midnightblue" points="498.955,-30.2925 497.893,-19.7511 492.15,-28.6541 498.955,-30.2925"/>
</g>
<!-- Node29&#45;&gt;Node3 -->
<g id="edge35" class="edge"><title>Node29&#45;&gt;Node3</title>
<path fill="none" stroke="midnightblue" d="M804.039,-168.324C794.873,-160.341 781.063,-148.313 769.972,-138.653"/>
<polygon fill="midnightblue" stroke="midnightblue" points="771.982,-135.762 762.143,-131.834 767.385,-141.041 771.982,-135.762"/>
</g>
<!-- Node29&#45;&gt;Node6 -->
<g id="edge36" class="edge"><title>Node29&#45;&gt;Node6</title>
<path fill="none" stroke="midnightblue" d="M779.668,-174.181C673.259,-165.076 339.612,-133.76 56.3785,-76.0373"/>
<polygon fill="midnightblue" stroke="midnightblue" points="56.8244,-72.5559 46.3247,-73.9728 55.4163,-79.4128 56.8244,-72.5559"/>
</g>
<!-- Node31&#45;&gt;Node2 -->
<g id="edge43" class="edge"><title>Node31&#45;&gt;Node2</title>
<path fill="none" stroke="midnightblue" d="M1186.92,-280.083C1194.78,-272.22 1206.43,-260.569 1215.92,-251.081"/>
<polygon fill="midnightblue" stroke="midnightblue" points="1218.65,-253.297 1223.25,-243.751 1213.7,-248.347 1218.65,-253.297"/>
</g>
<!-- Node31&#45;&gt;Node3 -->
<g id="edge42" class="edge"><title>Node31&#45;&gt;Node3</title>
<path fill="none" stroke="midnightblue" d="M1151.86,-285.917C1070.98,-275.875 826.876,-241.623 771,-188 758.55,-176.052 754.131,-156.44 752.626,-141.878"/>
<polygon fill="midnightblue" stroke="midnightblue" points="756.094,-141.275 751.946,-131.526 749.109,-141.734 756.094,-141.275"/>
</g>
</g>
</svg>
