<?xml version="1.0" encoding="UTF-8" standalone="no"?>
<!DOCTYPE svg PUBLIC "-//W3C//DTD SVG 1.1//EN"
 "http://www.w3.org/Graphics/SVG/1.1/DTD/svg11.dtd">
<!-- Generated by graphviz version 2.38.0 (20140413.2041)
 -->
<!-- Title: vector.h Pages: 1 -->
<svg width="1564pt" height="252pt"
 viewBox="0.00 0.00 1564.00 252.00" xmlns="http://www.w3.org/2000/svg" xmlns:xlink="http://www.w3.org/1999/xlink">
<g id="graph0" class="graph" transform="scale(1 1) rotate(0) translate(4 248)">
<title>vector.h</title>
<polygon fill="white" stroke="none" points="-4,4 -4,-248 1560,-248 1560,4 -4,4"/>
<!-- Node1 -->
<g id="node1" class="node"><title>Node1</title>
<polygon fill="#bfbfbf" stroke="black" points="1360,-224.5 1360,-243.5 1412,-243.5 1412,-224.5 1360,-224.5"/>
<text text-anchor="middle" x="1386" y="-231.5" font-family="Helvetica,sans-Serif" font-size="10.00">vector.h</text>
</g>
<!-- Node2 -->
<g id="node2" class="node"><title>Node2</title>
<g id="a_node2"><a xlink:href="config_cosmos_8h.html" target="_top" xlink:title="Headers and definitions common to all COSMOS. ">
<polygon fill="white" stroke="black" points="675.5,-112.5 675.5,-131.5 798.5,-131.5 798.5,-112.5 675.5,-112.5"/>
<text text-anchor="middle" x="737" y="-119.5" font-family="Helvetica,sans-Serif" font-size="10.00">support/configCosmos.h</text>
</a>
</g>
</g>
<!-- Node1&#45;&gt;Node2 -->
<g id="edge1" class="edge"><title>Node1&#45;&gt;Node2</title>
<path fill="none" stroke="midnightblue" d="M1359.75,-228.552C1264.32,-212.376 934.178,-156.42 797.244,-133.211"/>
<polygon fill="midnightblue" stroke="midnightblue" points="797.778,-129.751 787.333,-131.531 796.608,-136.653 797.778,-129.751"/>
</g>
<!-- Node12 -->
<g id="node12" class="node"><title>Node12</title>
<polygon fill="white" stroke="#bfbfbf" points="1334,-56.5 1334,-75.5 1378,-75.5 1378,-56.5 1334,-56.5"/>
<text text-anchor="middle" x="1356" y="-63.5" font-family="Helvetica,sans-Serif" font-size="10.00">cmath</text>
</g>
<!-- Node1&#45;&gt;Node12 -->
<g id="edge38" class="edge"><title>Node1&#45;&gt;Node12</title>
<path fill="none" stroke="midnightblue" d="M1384.39,-224.075C1379.66,-197.945 1365.8,-121.211 1359.36,-85.577"/>
<polygon fill="midnightblue" stroke="midnightblue" points="1362.77,-84.7862 1357.55,-75.5681 1355.88,-86.0312 1362.77,-84.7862"/>
</g>
<!-- Node14 -->
<g id="node14" class="node"><title>Node14</title>
<polygon fill="white" stroke="#bfbfbf" points="1396,-56.5 1396,-75.5 1450,-75.5 1450,-56.5 1396,-56.5"/>
<text text-anchor="middle" x="1423" y="-63.5" font-family="Helvetica,sans-Serif" font-size="10.00">iostream</text>
</g>
<!-- Node1&#45;&gt;Node14 -->
<g id="edge36" class="edge"><title>Node1&#45;&gt;Node14</title>
<path fill="none" stroke="midnightblue" d="M1387.99,-224.075C1393.81,-197.945 1410.92,-121.211 1418.86,-85.577"/>
<polygon fill="midnightblue" stroke="midnightblue" points="1422.33,-86.0901 1421.09,-75.5681 1415.5,-84.5671 1422.33,-86.0901"/>
</g>
<!-- Node18 -->
<g id="node18" class="node"><title>Node18</title>
<polygon fill="white" stroke="#bfbfbf" points="1284,-0.5 1284,-19.5 1328,-19.5 1328,-0.5 1284,-0.5"/>
<text text-anchor="middle" x="1306" y="-7.5" font-family="Helvetica,sans-Serif" font-size="10.00">vector</text>
</g>
<!-- Node1&#45;&gt;Node18 -->
<g id="edge39" class="edge"><title>Node1&#45;&gt;Node18</title>
<path fill="none" stroke="midnightblue" d="M1395.08,-224.494C1422.71,-197.577 1501.42,-112.689 1459,-56 1444.5,-36.6261 1378.48,-22.7305 1338.05,-15.8638"/>
<polygon fill="midnightblue" stroke="midnightblue" points="1338.56,-12.4006 1328.12,-14.2314 1337.42,-19.3078 1338.56,-12.4006"/>
</g>
<!-- Node28 -->
<g id="node28" class="node"><title>Node28</title>
<g id="a_node28"><a xlink:href="math_2constants_8h.html" target="_top" xlink:title="constants.h">
<polygon fill="white" stroke="black" points="703,-168.5 703,-187.5 771,-187.5 771,-168.5 703,-168.5"/>
<text text-anchor="middle" x="737" y="-175.5" font-family="Helvetica,sans-Serif" font-size="10.00">constants.h</text>
</a>
</g>
</g>
<!-- Node1&#45;&gt;Node28 -->
<g id="edge33" class="edge"><title>Node1&#45;&gt;Node28</title>
<path fill="none" stroke="midnightblue" d="M1359.75,-230.816C1260.34,-222.545 906.229,-193.081 781.149,-182.673"/>
<polygon fill="midnightblue" stroke="midnightblue" points="781.409,-179.183 771.153,-181.842 780.829,-186.159 781.409,-179.183"/>
</g>
<!-- Node29 -->
<g id="node29" class="node"><title>Node29</title>
<polygon fill="white" stroke="#bfbfbf" points="1506,-168.5 1506,-187.5 1556,-187.5 1556,-168.5 1506,-168.5"/>
<text text-anchor="middle" x="1531" y="-175.5" font-family="Helvetica,sans-Serif" font-size="10.00">iomanip</text>
</g>
<!-- Node1&#45;&gt;Node29 -->
<g id="edge37" class="edge"><title>Node1&#45;&gt;Node29</title>
<path fill="none" stroke="midnightblue" d="M1408.98,-224.444C1433.16,-215.438 1471.42,-201.189 1498.65,-191.049"/>
<polygon fill="midnightblue" stroke="midnightblue" points="1499.98,-194.286 1508.13,-187.516 1497.54,-187.727 1499.98,-194.286"/>
</g>
<!-- Node3 -->
<g id="node3" class="node"><title>Node3</title>
<polygon fill="white" stroke="#bfbfbf" points="162.5,-56.5 162.5,-75.5 207.5,-75.5 207.5,-56.5 162.5,-56.5"/>
<text text-anchor="middle" x="185" y="-63.5" font-family="Helvetica,sans-Serif" font-size="10.00">climits</text>
</g>
<!-- Node2&#45;&gt;Node3 -->
<g id="edge2" class="edge"><title>Node2&#45;&gt;Node3</title>
<path fill="none" stroke="midnightblue" d="M675.116,-119.578C578.855,-116.505 387.463,-106.954 217.44,-75.9371"/>
<polygon fill="midnightblue" stroke="midnightblue" points="218.034,-72.4876 207.563,-74.1063 216.758,-79.3703 218.034,-72.4876"/>
</g>
<!-- Node4 -->
<g id="node4" class="node"><title>Node4</title>
<polygon fill="white" stroke="#bfbfbf" points="225.5,-56.5 225.5,-75.5 272.5,-75.5 272.5,-56.5 225.5,-56.5"/>
<text text-anchor="middle" x="249" y="-63.5" font-family="Helvetica,sans-Serif" font-size="10.00">csignal</text>
</g>
<!-- Node2&#45;&gt;Node4 -->
<g id="edge3" class="edge"><title>Node2&#45;&gt;Node4</title>
<path fill="none" stroke="midnightblue" d="M675.15,-117.425C588.089,-111.802 424.639,-99.0762 287,-76 285.537,-75.7548 284.047,-75.4857 282.545,-75.1988"/>
<polygon fill="midnightblue" stroke="midnightblue" points="283.125,-71.7441 272.618,-73.1065 281.681,-78.5937 283.125,-71.7441"/>
</g>
<!-- Node5 -->
<g id="node5" class="node"><title>Node5</title>
<polygon fill="white" stroke="#bfbfbf" points="0,-56.5 0,-75.5 46,-75.5 46,-56.5 0,-56.5"/>
<text text-anchor="middle" x="23" y="-63.5" font-family="Helvetica,sans-Serif" font-size="10.00">cstdint</text>
</g>
<!-- Node2&#45;&gt;Node5 -->
<g id="edge4" class="edge"><title>Node2&#45;&gt;Node5</title>
<path fill="none" stroke="midnightblue" d="M675.363,-121.21C556.841,-120.688 289.021,-115.016 56.2962,-75.8636"/>
<polygon fill="midnightblue" stroke="midnightblue" points="56.7365,-72.3882 46.2902,-74.1557 55.5587,-79.2884 56.7365,-72.3882"/>
</g>
<!-- Node6 -->
<g id="node6" class="node"><title>Node6</title>
<polygon fill="white" stroke="#bfbfbf" points="709,-56.5 709,-75.5 765,-75.5 765,-56.5 709,-56.5"/>
<text text-anchor="middle" x="737" y="-63.5" font-family="Helvetica,sans-Serif" font-size="10.00">cinttypes</text>
</g>
<!-- Node2&#45;&gt;Node6 -->
<g id="edge5" class="edge"><title>Node2&#45;&gt;Node6</title>
<path fill="none" stroke="midnightblue" d="M737,-112.083C737,-105.006 737,-94.8611 737,-85.9865"/>
<polygon fill="midnightblue" stroke="midnightblue" points="740.5,-85.751 737,-75.7511 733.5,-85.7511 740.5,-85.751"/>
</g>
<!-- Node7 -->
<g id="node7" class="node"><title>Node7</title>
<polygon fill="white" stroke="#bfbfbf" points="783.5,-56.5 783.5,-75.5 826.5,-75.5 826.5,-56.5 783.5,-56.5"/>
<text text-anchor="middle" x="805" y="-63.5" font-family="Helvetica,sans-Serif" font-size="10.00">cstdio</text>
</g>
<!-- Node2&#45;&gt;Node7 -->
<g id="edge6" class="edge"><title>Node2&#45;&gt;Node7</title>
<path fill="none" stroke="midnightblue" d="M747.925,-112.324C758.175,-104.185 773.721,-91.8395 786.001,-82.0874"/>
<polygon fill="midnightblue" stroke="midnightblue" points="788.221,-84.7937 793.876,-75.8339 783.868,-79.3119 788.221,-84.7937"/>
</g>
<!-- Node8 -->
<g id="node8" class="node"><title>Node8</title>
<polygon fill="white" stroke="#bfbfbf" points="844.5,-56.5 844.5,-75.5 893.5,-75.5 893.5,-56.5 844.5,-56.5"/>
<text text-anchor="middle" x="869" y="-63.5" font-family="Helvetica,sans-Serif" font-size="10.00">cstddef</text>
</g>
<!-- Node2&#45;&gt;Node8 -->
<g id="edge7" class="edge"><title>Node2&#45;&gt;Node8</title>
<path fill="none" stroke="midnightblue" d="M757.916,-112.444C779.736,-103.517 814.15,-89.4387 838.892,-79.3168"/>
<polygon fill="midnightblue" stroke="midnightblue" points="840.252,-82.5422 848.182,-75.5164 837.601,-76.0634 840.252,-82.5422"/>
</g>
<!-- Node9 -->
<g id="node9" class="node"><title>Node9</title>
<polygon fill="white" stroke="#bfbfbf" points="911.5,-56.5 911.5,-75.5 956.5,-75.5 956.5,-56.5 911.5,-56.5"/>
<text text-anchor="middle" x="934" y="-63.5" font-family="Helvetica,sans-Serif" font-size="10.00">cstdlib</text>
</g>
<!-- Node2&#45;&gt;Node9 -->
<g id="edge8" class="edge"><title>Node2&#45;&gt;Node9</title>
<path fill="none" stroke="midnightblue" d="M769.18,-112.459C800.63,-104.071 850.117,-90.767 901.394,-76.4192"/>
<polygon fill="midnightblue" stroke="midnightblue" points="902.643,-79.704 911.326,-73.6332 900.753,-72.9641 902.643,-79.704"/>
</g>
<!-- Node10 -->
<g id="node10" class="node"><title>Node10</title>
<polygon fill="white" stroke="#bfbfbf" points="975,-56.5 975,-75.5 1019,-75.5 1019,-56.5 975,-56.5"/>
<text text-anchor="middle" x="997" y="-63.5" font-family="Helvetica,sans-Serif" font-size="10.00">cerrno</text>
</g>
<!-- Node2&#45;&gt;Node10 -->
<g id="edge9" class="edge"><title>Node2&#45;&gt;Node10</title>
<path fill="none" stroke="midnightblue" d="M787.311,-112.436C831.712,-104.58 898.363,-92.0662 964.899,-76.1061"/>
<polygon fill="midnightblue" stroke="midnightblue" points="965.819,-79.4845 974.712,-73.7264 964.169,-72.6817 965.819,-79.4845"/>
</g>
<!-- Node11 -->
<g id="node11" class="node"><title>Node11</title>
<polygon fill="white" stroke="#bfbfbf" points="1037,-56.5 1037,-75.5 1083,-75.5 1083,-56.5 1037,-56.5"/>
<text text-anchor="middle" x="1060" y="-63.5" font-family="Helvetica,sans-Serif" font-size="10.00">cstring</text>
</g>
<!-- Node2&#45;&gt;Node11 -->
<g id="edge10" class="edge"><title>Node2&#45;&gt;Node11</title>
<path fill="none" stroke="midnightblue" d="M798.709,-113.656C855.634,-106.384 942.631,-94.0163 1026.69,-76.0725"/>
<polygon fill="midnightblue" stroke="midnightblue" points="1027.63,-79.451 1036.66,-73.9148 1026.15,-72.6094 1027.63,-79.451"/>
</g>
<!-- Node2&#45;&gt;Node12 -->
<g id="edge11" class="edge"><title>Node2&#45;&gt;Node12</title>
<path fill="none" stroke="midnightblue" d="M798.676,-119.638C905.506,-116.523 1131.62,-106.596 1320,-76 1321.25,-75.7967 1322.52,-75.5714 1323.81,-75.3287"/>
<polygon fill="midnightblue" stroke="midnightblue" points="1324.62,-78.7348 1333.65,-73.2043 1323.14,-71.8922 1324.62,-78.7348"/>
</g>
<!-- Node13 -->
<g id="node13" class="node"><title>Node13</title>
<polygon fill="white" stroke="#bfbfbf" points="1101.5,-56.5 1101.5,-75.5 1146.5,-75.5 1146.5,-56.5 1101.5,-56.5"/>
<text text-anchor="middle" x="1124" y="-63.5" font-family="Helvetica,sans-Serif" font-size="10.00">iosfwd</text>
</g>
<!-- Node2&#45;&gt;Node13 -->
<g id="edge12" class="edge"><title>Node2&#45;&gt;Node13</title>
<path fill="none" stroke="midnightblue" d="M798.7,-115.972C867.717,-109.724 982.931,-97.4292 1091.25,-75.8579"/>
<polygon fill="midnightblue" stroke="midnightblue" points="1092.27,-79.2235 1101.38,-73.8104 1090.88,-72.3624 1092.27,-79.2235"/>
</g>
<!-- Node2&#45;&gt;Node14 -->
<g id="edge13" class="edge"><title>Node2&#45;&gt;Node14</title>
<path fill="none" stroke="midnightblue" d="M798.794,-120.33C913.036,-118.306 1164.99,-110.176 1385.82,-75.8962"/>
<polygon fill="midnightblue" stroke="midnightblue" points="1386.64,-79.3094 1395.98,-74.297 1385.56,-72.3946 1386.64,-79.3094"/>
</g>
<!-- Node15 -->
<g id="node15" class="node"><title>Node15</title>
<polygon fill="white" stroke="#bfbfbf" points="1164.5,-56.5 1164.5,-75.5 1215.5,-75.5 1215.5,-56.5 1164.5,-56.5"/>
<text text-anchor="middle" x="1190" y="-63.5" font-family="Helvetica,sans-Serif" font-size="10.00">unistd.h</text>
</g>
<!-- Node2&#45;&gt;Node15 -->
<g id="edge14" class="edge"><title>Node2&#45;&gt;Node15</title>
<path fill="none" stroke="midnightblue" d="M798.837,-117.305C878.954,-111.864 1023.03,-99.8561 1154.62,-76.0137"/>
<polygon fill="midnightblue" stroke="midnightblue" points="1155.27,-79.4526 1164.47,-74.2015 1154.01,-72.568 1155.27,-79.4526"/>
</g>
<!-- Node16 -->
<g id="node16" class="node"><title>Node16</title>
<polygon fill="white" stroke="#bfbfbf" points="1234,-56.5 1234,-75.5 1278,-75.5 1278,-56.5 1234,-56.5"/>
<text text-anchor="middle" x="1256" y="-63.5" font-family="Helvetica,sans-Serif" font-size="10.00">fcntl.h</text>
</g>
<!-- Node2&#45;&gt;Node16 -->
<g id="edge15" class="edge"><title>Node2&#45;&gt;Node16</title>
<path fill="none" stroke="midnightblue" d="M798.768,-119.073C889.986,-115.399 1066.07,-105.141 1223.88,-75.8672"/>
<polygon fill="midnightblue" stroke="midnightblue" points="1224.59,-79.2953 1233.77,-74.0034 1223.3,-72.4164 1224.59,-79.2953"/>
</g>
<!-- Node17 -->
<g id="node17" class="node"><title>Node17</title>
<polygon fill="white" stroke="#bfbfbf" points="64.5,-56.5 64.5,-75.5 105.5,-75.5 105.5,-56.5 64.5,-56.5"/>
<text text-anchor="middle" x="85" y="-63.5" font-family="Helvetica,sans-Serif" font-size="10.00">string</text>
</g>
<!-- Node2&#45;&gt;Node17 -->
<g id="edge16" class="edge"><title>Node2&#45;&gt;Node17</title>
<path fill="none" stroke="midnightblue" d="M675.272,-120.142C563.709,-117.785 321.385,-108.964 120,-76 118.529,-75.7593 117.031,-75.4858 115.521,-75.1876"/>
<polygon fill="midnightblue" stroke="midnightblue" points="116.123,-71.7356 105.598,-72.9489 114.583,-78.564 116.123,-71.7356"/>
</g>
<!-- Node2&#45;&gt;Node18 -->
<g id="edge17" class="edge"><title>Node2&#45;&gt;Node18</title>
<path fill="none" stroke="midnightblue" d="M798.602,-119.839C934.276,-116.735 1249.83,-106.308 1287,-76 1300.51,-64.9882 1304.74,-44.9385 1305.91,-30.0078"/>
<polygon fill="midnightblue" stroke="midnightblue" points="1309.42,-29.9528 1306.32,-19.8224 1302.42,-29.6764 1309.42,-29.9528"/>
</g>
<!-- Node19 -->
<g id="node19" class="node"><title>Node19</title>
<polygon fill="white" stroke="#bfbfbf" points="577.5,-56.5 577.5,-75.5 620.5,-75.5 620.5,-56.5 577.5,-56.5"/>
<text text-anchor="middle" x="599" y="-63.5" font-family="Helvetica,sans-Serif" font-size="10.00">deque</text>
</g>
<!-- Node2&#45;&gt;Node19 -->
<g id="edge18" class="edge"><title>Node2&#45;&gt;Node19</title>
<path fill="none" stroke="midnightblue" d="M715.133,-112.444C692.221,-103.478 656.025,-89.314 630.134,-79.1827"/>
<polygon fill="midnightblue" stroke="midnightblue" points="631.352,-75.9011 620.764,-75.5164 628.801,-82.4198 631.352,-75.9011"/>
</g>
<!-- Node20 -->
<g id="node20" class="node"><title>Node20</title>
<polygon fill="white" stroke="#bfbfbf" points="149,-0.5 149,-19.5 193,-19.5 193,-0.5 149,-0.5"/>
<text text-anchor="middle" x="171" y="-7.5" font-family="Helvetica,sans-Serif" font-size="10.00">mutex</text>
</g>
<!-- Node2&#45;&gt;Node20 -->
<g id="edge19" class="edge"><title>Node2&#45;&gt;Node20</title>
<path fill="none" stroke="midnightblue" d="M675.461,-120.873C532.605,-119.938 187.954,-113.751 153,-76 140.992,-63.0315 149.401,-42.7596 158.326,-28.3047"/>
<polygon fill="midnightblue" stroke="midnightblue" points="161.382,-30.0329 164.056,-19.781 155.572,-26.1276 161.382,-30.0329"/>
</g>
<!-- Node21 -->
<g id="node21" class="node"><title>Node21</title>
<polygon fill="white" stroke="#bfbfbf" points="248,-0.5 248,-19.5 292,-19.5 292,-0.5 248,-0.5"/>
<text text-anchor="middle" x="270" y="-7.5" font-family="Helvetica,sans-Serif" font-size="10.00">thread</text>
</g>
<!-- Node2&#45;&gt;Node21 -->
<g id="edge20" class="edge"><title>Node2&#45;&gt;Node21</title>
<path fill="none" stroke="midnightblue" d="M675.463,-118.227C580.851,-113.241 404.558,-100.879 347,-76 321.527,-64.9898 298.059,-42.668 283.89,-27.2798"/>
<polygon fill="midnightblue" stroke="midnightblue" points="286.284,-24.7048 277.022,-19.56 281.054,-29.3577 286.284,-24.7048"/>
</g>
<!-- Node22 -->
<g id="node22" class="node"><title>Node22</title>
<polygon fill="white" stroke="#bfbfbf" points="310.5,-0.5 310.5,-19.5 405.5,-19.5 405.5,-0.5 310.5,-0.5"/>
<text text-anchor="middle" x="358" y="-7.5" font-family="Helvetica,sans-Serif" font-size="10.00">condition_variable</text>
</g>
<!-- Node2&#45;&gt;Node22 -->
<g id="edge21" class="edge"><title>Node2&#45;&gt;Node22</title>
<path fill="none" stroke="midnightblue" d="M675.361,-118.09C573.385,-112.638 378.682,-99.2832 358,-76 347.011,-63.6295 348.61,-44.1065 351.982,-29.6823"/>
<polygon fill="midnightblue" stroke="midnightblue" points="355.41,-30.4217 354.728,-19.8488 348.668,-28.5394 355.41,-30.4217"/>
</g>
<!-- Node23 -->
<g id="node23" class="node"><title>Node23</title>
<polygon fill="white" stroke="#bfbfbf" points="470.5,-0.5 470.5,-19.5 513.5,-19.5 513.5,-0.5 470.5,-0.5"/>
<text text-anchor="middle" x="492" y="-7.5" font-family="Helvetica,sans-Serif" font-size="10.00">queue</text>
</g>
<!-- Node2&#45;&gt;Node23 -->
<g id="edge22" class="edge"><title>Node2&#45;&gt;Node23</title>
<path fill="none" stroke="midnightblue" d="M675.301,-115.132C637.613,-109.405 589.602,-98.1324 552,-76 531.614,-64.0008 514.038,-42.9095 503.271,-28.0112"/>
<polygon fill="midnightblue" stroke="midnightblue" points="506.061,-25.8913 497.483,-19.6719 500.31,-29.8827 506.061,-25.8913"/>
</g>
<!-- Node24 -->
<g id="node24" class="node"><title>Node24</title>
<polygon fill="white" stroke="#bfbfbf" points="639,-56.5 639,-75.5 691,-75.5 691,-56.5 639,-56.5"/>
<text text-anchor="middle" x="665" y="-63.5" font-family="Helvetica,sans-Serif" font-size="10.00">sstream</text>
</g>
<!-- Node2&#45;&gt;Node24 -->
<g id="edge23" class="edge"><title>Node2&#45;&gt;Node24</title>
<path fill="none" stroke="midnightblue" d="M725.432,-112.324C714.58,-104.185 698.119,-91.8395 685.117,-82.0874"/>
<polygon fill="midnightblue" stroke="midnightblue" points="686.879,-79.0339 676.779,-75.8339 682.679,-84.6339 686.879,-79.0339"/>
</g>
<!-- Node25 -->
<g id="node25" class="node"><title>Node25</title>
<polygon fill="white" stroke="#bfbfbf" points="531.5,-0.5 531.5,-19.5 566.5,-19.5 566.5,-0.5 531.5,-0.5"/>
<text text-anchor="middle" x="549" y="-7.5" font-family="Helvetica,sans-Serif" font-size="10.00">map</text>
</g>
<!-- Node2&#45;&gt;Node25 -->
<g id="edge24" class="edge"><title>Node2&#45;&gt;Node25</title>
<path fill="none" stroke="midnightblue" d="M675.1,-118.774C639.814,-114.334 597.153,-103.136 569,-76 556.524,-63.9744 551.779,-44.3735 550.002,-29.8356"/>
<polygon fill="midnightblue" stroke="midnightblue" points="553.458,-29.1703 549.122,-19.5035 546.483,-29.7646 553.458,-29.1703"/>
</g>
<!-- Node26 -->
<g id="node26" class="node"><title>Node26</title>
<g id="a_node26"><a xlink:href="cosmos-defs_8h.html" target="_top" xlink:title="COSMOS definitions Definitions specific to the COSMOS environement. ">
<polygon fill="white" stroke="black" points="367,-56.5 367,-75.5 483,-75.5 483,-56.5 367,-56.5"/>
<text text-anchor="middle" x="425" y="-63.5" font-family="Helvetica,sans-Serif" font-size="10.00">support/cosmos&#45;defs.h</text>
</a>
</g>
</g>
<!-- Node2&#45;&gt;Node26 -->
<g id="edge25" class="edge"><title>Node2&#45;&gt;Node26</title>
<path fill="none" stroke="midnightblue" d="M687.563,-112.444C632.336,-102.885 542.979,-87.4195 484.105,-77.2298"/>
<polygon fill="midnightblue" stroke="midnightblue" points="484.656,-73.7732 474.206,-75.5164 483.463,-80.6707 484.656,-73.7732"/>
</g>
<!-- Node26&#45;&gt;Node18 -->
<g id="edge27" class="edge"><title>Node26&#45;&gt;Node18</title>
<path fill="none" stroke="midnightblue" d="M483.153,-61.3464C509.381,-59.7034 540.749,-57.7453 569,-56 841.787,-39.1475 1171.39,-19.1532 1273.97,-12.9393"/>
<polygon fill="midnightblue" stroke="midnightblue" points="1274.22,-16.4304 1283.99,-12.3321 1273.8,-9.44322 1274.22,-16.4304"/>
</g>
<!-- Node26&#45;&gt;Node20 -->
<g id="edge31" class="edge"><title>Node26&#45;&gt;Node20</title>
<path fill="none" stroke="midnightblue" d="M384.753,-56.4435C334.53,-45.7661 249.634,-27.7174 203.389,-17.8859"/>
<polygon fill="midnightblue" stroke="midnightblue" points="203.83,-14.4015 193.321,-15.7454 202.374,-21.2484 203.83,-14.4015"/>
</g>
<!-- Node26&#45;&gt;Node21 -->
<g id="edge30" class="edge"><title>Node26&#45;&gt;Node21</title>
<path fill="none" stroke="midnightblue" d="M400.44,-56.4435C373.867,-47.1858 331.387,-32.3866 302.167,-22.2066"/>
<polygon fill="midnightblue" stroke="midnightblue" points="303.027,-18.7999 292.432,-18.8151 300.724,-25.4103 303.027,-18.7999"/>
</g>
<!-- Node26&#45;&gt;Node22 -->
<g id="edge32" class="edge"><title>Node26&#45;&gt;Node22</title>
<path fill="none" stroke="midnightblue" d="M414.235,-56.324C404.234,-48.2631 389.113,-36.0765 377.07,-26.3695"/>
<polygon fill="midnightblue" stroke="midnightblue" points="378.943,-23.3841 368.961,-19.8339 374.55,-28.8343 378.943,-23.3841"/>
</g>
<!-- Node26&#45;&gt;Node23 -->
<g id="edge29" class="edge"><title>Node26&#45;&gt;Node23</title>
<path fill="none" stroke="midnightblue" d="M435.765,-56.324C445.766,-48.2631 460.887,-36.0765 472.93,-26.3695"/>
<polygon fill="midnightblue" stroke="midnightblue" points="475.45,-28.8343 481.039,-19.8339 471.057,-23.3841 475.45,-28.8343"/>
</g>
<!-- Node26&#45;&gt;Node25 -->
<g id="edge26" class="edge"><title>Node26&#45;&gt;Node25</title>
<path fill="none" stroke="midnightblue" d="M444.648,-56.4435C465.562,-47.3359 498.792,-32.865 522.121,-22.7053"/>
<polygon fill="midnightblue" stroke="midnightblue" points="523.678,-25.845 531.449,-18.6433 520.883,-19.4271 523.678,-25.845"/>
</g>
<!-- Node27 -->
<g id="node27" class="node"><title>Node27</title>
<polygon fill="white" stroke="#bfbfbf" points="423.5,-0.5 423.5,-19.5 452.5,-19.5 452.5,-0.5 423.5,-0.5"/>
<text text-anchor="middle" x="438" y="-7.5" font-family="Helvetica,sans-Serif" font-size="10.00">list</text>
</g>
<!-- Node26&#45;&gt;Node27 -->
<g id="edge28" class="edge"><title>Node26&#45;&gt;Node27</title>
<path fill="none" stroke="midnightblue" d="M427.147,-56.083C428.869,-48.9272 431.347,-38.6353 433.5,-29.6911"/>
<polygon fill="midnightblue" stroke="midnightblue" points="436.955,-30.2925 435.893,-19.7511 430.15,-28.6541 436.955,-30.2925"/>
</g>
<!-- Node28&#45;&gt;Node2 -->
<g id="edge34" class="edge"><title>Node28&#45;&gt;Node2</title>
<path fill="none" stroke="midnightblue" d="M737,-168.083C737,-161.006 737,-150.861 737,-141.986"/>
<polygon fill="midnightblue" stroke="midnightblue" points="740.5,-141.751 737,-131.751 733.5,-141.751 740.5,-141.751"/>
</g>
<!-- Node28&#45;&gt;Node5 -->
<g id="edge35" class="edge"><title>Node28&#45;&gt;Node5</title>
<path fill="none" stroke="midnightblue" d="M702.662,-173.478C603.586,-162.988 308.718,-129.445 56.4217,-76.0817"/>
<polygon fill="midnightblue" stroke="midnightblue" points="56.843,-72.593 46.3332,-73.9324 55.3844,-79.4394 56.843,-72.593"/>
</g>
</g>
</svg>
